//Event file generated from Sappy .s format.
// File generated by m4a2s Song-Module
	#include "MPlayDef.event"

	#define	seq_009_grp  bank_012
	#define	seq_009_pri  40
	#define	seq_009_rev  0
	#define	seq_009_mvl  127
	#define	seq_009_key  0

	// .rodata
	//	seq_009
	ALIGN 4

//*********************** Track 01 ***********************//

seq_009_0:
	BYTE	KEYSH   seq_009_key+0
	BYTE	TEMPO   200/2
	BYTE	W01
	BYTE		VOICE   53
	BYTE		VOL     56*seq_009_mvl/mxv
	BYTE		PAN     c_v+0
	BYTE		BENDR   3
	BYTE		BEND    c_v+0
	BYTE	W02
	BYTE	TEMPO   90/2
	BYTE	W01
	BYTE		N48     Bn0   v127
	BYTE	W48
	BYTE		N24     Bn1 
	BYTE	W24
	BYTE		        Fn1 
	BYTE	W23
	BYTE	W01
	BYTE		N24     Fs1   v127
	BYTE	W24
	BYTE		        Cs1 
	BYTE	W24
	BYTE		N48     Dn1 
	BYTE	W44
	BYTE	W03
	BYTE	PEND
	BYTE	W01
	BYTE		N48     Fs0   v127
	BYTE	W48
	BYTE		N24     Fs1 
	BYTE	W24
	BYTE		        Cn1 
	BYTE	W23
	BYTE	PEND
	BYTE	W01
	BYTE		        Cs1 
	BYTE	W24
	BYTE		        Gs0 
	BYTE	W24
	BYTE		N48     An0 
	BYTE	W44
	BYTE	W03
	BYTE	W01
	BYTE		        Bn0 
	BYTE	W48
	BYTE		N24     Bn1 
	BYTE	W24
	BYTE		        Fn1 
	BYTE	W23
	BYTE	PATT
	 POIN2	seq_009_0 + 0x1C
	BYTE	PATT
	 POIN2	seq_009_0 + 0x28
	BYTE	W01
	BYTE		N05     Fs0   v120
	BYTE	W06
	BYTE		N05
	BYTE	W06
	BYTE		N05
	BYTE	W06
	BYTE		N05
	BYTE	W06
	BYTE		        Gs0 
	BYTE	W06
	BYTE		N05
	BYTE	W06
	BYTE		N05
	BYTE	W06
	BYTE		N05
	BYTE	W06
	BYTE		        An0 
	BYTE	W06
	BYTE		N05
	BYTE	W06
	BYTE		N05
	BYTE	W06
	BYTE		N05
	BYTE	W06
	BYTE		        As0 
	BYTE	W06
	BYTE		N05
	BYTE	W06
	BYTE		N05
	BYTE	W06
	BYTE		N04
	BYTE	W05
	BYTE	TEMPO   180/2
	BYTE	W01
	BYTE		N12     Bn0   v112
	BYTE	W12
	BYTE		        An0 
	BYTE	W12
	BYTE		        Cn1 
	BYTE	W12
	BYTE		        Dn1 
	BYTE	W12
	BYTE		        Bn0 
	BYTE	W12
	BYTE		        An0 
	BYTE	W12
	BYTE		        Gn0 
	BYTE	W12
	BYTE		        Cn1 
	BYTE	W11
	BYTE	W01
	BYTE		N12     Bn0   v112
	BYTE	W12
	BYTE		        An0 
	BYTE	W12
	BYTE		        Cn1 
	BYTE	W12
	BYTE		        Dn1 
	BYTE	W12
	BYTE		        Bn0 
	BYTE	W12
	BYTE		        An0 
	BYTE	W12
	BYTE		        Gn0 
	BYTE	W12
	BYTE		        Cn1 
	BYTE	W11
	BYTE	PEND
	BYTE	PATT
	 POIN2	seq_009_0 + 0x86
	BYTE	PATT
	 POIN2	seq_009_0 + 0x86
	BYTE	PATT
	 POIN2	seq_009_0 + 0x86
	BYTE	PATT
	 POIN2	seq_009_0 + 0x86
	BYTE	PATT
	 POIN2	seq_009_0 + 0x86
	BYTE	W01
	BYTE		N12     Bn0   v112
	BYTE	W12
	BYTE		        Bn1 
	BYTE	W12
	BYTE		        An1 
	BYTE	W12
	BYTE		        Gn1 
	BYTE	W12
	BYTE		        Fn1 
	BYTE	W12
	BYTE		        En1 
	BYTE	W12
	BYTE		        Dn1 
	BYTE	W12
	BYTE		        Cn1 
	BYTE	W11
	BYTE	PEND
	BYTE	W01
	BYTE		N06     En0   v120
	BYTE	W06
	BYTE		        En0   v052
	BYTE	W06
	BYTE		        En0   v120
	BYTE	W06
	BYTE		        En0   v052
	BYTE	W06
	BYTE		N06
	BYTE	W24
	BYTE		N24     Fs0   v120
	BYTE	W24
	BYTE		N06     Gn0 
	BYTE	W06
	BYTE		        Gn0   v052
	BYTE	W06
	BYTE		        Gn0   v120
	BYTE	W06
	BYTE		        Gn0   v052
	BYTE	W05
	BYTE	W01
	BYTE		N06
	BYTE	W24
	BYTE		N24     An0   v112
	BYTE	W24
	BYTE		N36     As0 
	BYTE	W23
	BYTE	W13
	BYTE		N36
	BYTE	W36
	BYTE		N36
	BYTE	W23
	BYTE	W13
	BYTE		N32
	BYTE	W36
	BYTE		N12
	BYTE	W12
	BYTE		        An0 
	BYTE	W11
	BYTE	W01
	BYTE		        Gn0 
	BYTE	W12
	BYTE		N10     En0   v120
	BYTE	W12
	BYTE		N06
	BYTE	W06
	BYTE		        En0   v052
	BYTE	W06
	BYTE		        En0   v120
	BYTE	W06
	BYTE		        En0   v052
	BYTE	W06
	BYTE		N06
	BYTE	W23
	BYTE	W24
	BYTE	W01
	BYTE		N24     Fs0   v120
	BYTE	W23
	BYTE	W01
	BYTE		N06     Gn0 
	BYTE	W06
	BYTE		        Gn0   v052
	BYTE	W06
	BYTE		        Gn0   v120
	BYTE	W06
	BYTE		        Gn0   v052
	BYTE	W06
	BYTE		N06
	BYTE	W48
	BYTE		N24     An0   v120
	BYTE	W23
	BYTE	W01
	BYTE		N12     Bn0   v112
	BYTE	W12
	BYTE		        Bn1 
	BYTE	W12
	BYTE		        An1 
	BYTE	W12
	BYTE		        Gn1 
	BYTE	W12
	BYTE		        Fs1 
	BYTE	W12
	BYTE		        En1 
	BYTE	W12
	BYTE		        Dn1 
	BYTE	W12
	BYTE		        Cn1 
	BYTE	W11
	BYTE	PEND
	BYTE	PATT
	 POIN2	seq_009_0 + 0xB3
	BYTE	PATT
	 POIN2	seq_009_0 + 0x12A
	BYTE	PATT
	 POIN2	seq_009_0 + 0xB3
	BYTE	PATT
	 POIN2	seq_009_0 + 0x12A
	BYTE	PATT
	 POIN2	seq_009_0 + 0xB3
	BYTE	PATT
	 POIN2	seq_009_0 + 0x12A
	BYTE	PATT
	 POIN2	seq_009_0 + 0xB3
	BYTE	W01
	BYTE		N12     En0   v112
	BYTE	W12
	BYTE		        En1 
	BYTE	W12
	BYTE		        Fs1 
	BYTE	W12
	BYTE		        En1 
	BYTE	W12
	BYTE		        Dn1 
	BYTE	W12
	BYTE		        En1 
	BYTE	W12
	BYTE		        Cn1 
	BYTE	W12
	BYTE		        En1 
	BYTE	W11
	BYTE	PEND
	BYTE	W01
	BYTE		N12     Fn0   v112
	BYTE	W12
	BYTE		        Fn1 
	BYTE	W12
	BYTE		        Gn1 
	BYTE	W12
	BYTE		        Fn1 
	BYTE	W12
	BYTE		        En1 
	BYTE	W12
	BYTE		        Fn1 
	BYTE	W12
	BYTE		        Dn1 
	BYTE	W12
	BYTE		        Fn1 
	BYTE	W11
	BYTE	PEND
	BYTE	PATT
	 POIN2	seq_009_0 + 0x161
	BYTE	PATT
	 POIN2	seq_009_0 + 0x161
	BYTE	PATT
	 POIN2	seq_009_0 + 0x161
	BYTE	W01
	BYTE		N12     En0   v112
	BYTE	W12
	BYTE		        En1 
	BYTE	W12
	BYTE		        Fn1 
	BYTE	W12
	BYTE		        En1 
	BYTE	W12
	BYTE		        Dn1 
	BYTE	W12
	BYTE		        En1 
	BYTE	W12
	BYTE		        Bn0 
	BYTE	W12
	BYTE		        En1 
	BYTE	W11
	BYTE	PATT
	 POIN2	seq_009_0 + 0x161
	BYTE	PATT
	 POIN2	seq_009_0 + 0x175
	BYTE	W01
	BYTE		N12     Cn0   v112
	BYTE	W12
	BYTE		        Cn1 
	BYTE	W12
	BYTE		        Dn1 
	BYTE	W12
	BYTE		        Cn1 
	BYTE	W12
	BYTE		        Bn0 
	BYTE	W12
	BYTE		        Cn1 
	BYTE	W12
	BYTE		        Gn0 
	BYTE	W12
	BYTE		        Cn1 
	BYTE	W11
	BYTE	W01
	BYTE		        Dn0 
	BYTE	W12
	BYTE		        Dn1 
	BYTE	W12
	BYTE		        En1 
	BYTE	W12
	BYTE		        Dn1 
	BYTE	W12
	BYTE		        Cn1 
	BYTE	W12
	BYTE		        Dn1 
	BYTE	W12
	BYTE		        An0 
	BYTE	W12
	BYTE		        Dn1 
	BYTE	W11
	BYTE	W01
	BYTE		        Fn0 
	BYTE	W12
	BYTE		        Fn1 
	BYTE	W12
	BYTE		        Cn1 
	BYTE	W12
	BYTE		        An0 
	BYTE	W12
	BYTE		        Fn1 
	BYTE	W12
	BYTE		        Cn1 
	BYTE	W12
	BYTE		        Fn0 
	BYTE	W12
	BYTE		        Fn1 
	BYTE	W11
	BYTE	W01
	BYTE		        Cn1 
	BYTE	W12
	BYTE		        An0 
	BYTE	W12
	BYTE		        Fn1 
	BYTE	W12
	BYTE		        Cn1 
	BYTE	W12
	BYTE		        Fn0 
	BYTE	W12
	BYTE		        Fn1 
	BYTE	W12
	BYTE		        Cn1 
	BYTE	W12
	BYTE		        Fn0 
	BYTE	W11
	BYTE	W01
	BYTE		N72     En0   v112
	BYTE	W72
	BYTE		N24     Bn0 
	BYTE	W23
	BYTE	PEND
	BYTE	W01
	BYTE		N72     En1 
	BYTE	W72
	BYTE		N24     Bn0 
	BYTE	W23
	BYTE	W01
	BYTE		N12     Dn0 
	BYTE	W12
	BYTE		        Dn1 
	BYTE	W12
	BYTE		        An0 
	BYTE	W12
	BYTE		        Fn0 
	BYTE	W12
	BYTE		        Dn1 
	BYTE	W12
	BYTE		        An0 
	BYTE	W12
	BYTE		        Dn0 
	BYTE	W12
	BYTE		        Dn1 
	BYTE	W11
	BYTE	W01
	BYTE		        An0 
	BYTE	W12
	BYTE		        Fn0 
	BYTE	W12
	BYTE		        Dn1 
	BYTE	W12
	BYTE		        An0 
	BYTE	W12
	BYTE		        Dn0 
	BYTE	W12
	BYTE		        Dn1 
	BYTE	W12
	BYTE		        An0 
	BYTE	W12
	BYTE		        Dn0 
	BYTE	W11
	BYTE	PATT
	 POIN2	seq_009_0 + 0x1FB
	BYTE	W01
	BYTE		N36     En0   v112
	BYTE	W36
	BYTE		        Fs0 
	BYTE	W36
	BYTE		N24     Gs0 
	BYTE	W23
	BYTE	PEND
	BYTE	W01
	BYTE		N12     An0 
	BYTE	W12
	BYTE		        Fn1 
	BYTE	W12
	BYTE		        Cn1 
	BYTE	W12
	BYTE		        Fn0 
	BYTE	W12
	BYTE		        Fn1 
	BYTE	W12
	BYTE		        Cn1 
	BYTE	W12
	BYTE		        An0 
	BYTE	W12
	BYTE		        Fn1 
	BYTE	W11
	BYTE	W01
	BYTE		        Cn1 
	BYTE	W12
	BYTE		        Fn0 
	BYTE	W12
	BYTE		        Fn1 
	BYTE	W12
	BYTE		        Cn1 
	BYTE	W12
	BYTE		        An0 
	BYTE	W12
	BYTE		        Fn1 
	BYTE	W12
	BYTE		        Cn1 
	BYTE	W12
	BYTE		        Fn0 
	BYTE	W11
	BYTE	PATT
	 POIN2	seq_009_0 + 0x1FB
	BYTE	PATT
	 POIN2	seq_009_0 + 0x233
	BYTE	W01
	BYTE		N12     As0   v112
	BYTE	W12
	BYTE		        Fn1 
	BYTE	W12
	BYTE		        Fn0 
	BYTE	W12
	BYTE		        As0 
	BYTE	W12
	BYTE		        Fn1 
	BYTE	W12
	BYTE		        Fn0 
	BYTE	W12
	BYTE		        As0 
	BYTE	W12
	BYTE		        Fn1 
	BYTE	W11
	BYTE	W01
	BYTE		        Fn0 
	BYTE	W12
	BYTE		        As0 
	BYTE	W12
	BYTE		        Fn1 
	BYTE	W12
	BYTE		        Fn0 
	BYTE	W12
	BYTE		        As0 
	BYTE	W12
	BYTE		        Fn1 
	BYTE	W12
	BYTE		        Dn1 
	BYTE	W12
	BYTE		        As0 
	BYTE	W11
	BYTE	W01
	BYTE		TIE     En0 
	BYTE	W92
	BYTE	W03
	BYTE	W84
	BYTE	W01
	BYTE		EOT
	BYTE		N12     En0   v028
	BYTE	W11
	BYTE	W01
	BYTE		N06     An0   v120
	BYTE	W06
	BYTE		        An0   v036
	BYTE	W06
	BYTE		        An0   v020
	BYTE	W24
	BYTE		        Bn0   v120
	BYTE	W06
	BYTE		        Bn0   v036
	BYTE	W06
	BYTE		        Bn0   v020
	BYTE	W24
	BYTE		        Cn1   v120
	BYTE	W06
	BYTE		        Cn1   v036
	BYTE	W06
	BYTE		        Cn1   v020
	BYTE	W11
	BYTE	PEND
	BYTE	W13
	BYTE		N36     Dn1   v120
	BYTE	W36
	BYTE		N06     Cn1 
	BYTE	W06
	BYTE		        Cn1   v036
	BYTE	W06
	BYTE		        Cn1   v020
	BYTE	W12
	BYTE		        Bn0   v120
	BYTE	W06
	BYTE		        Bn0   v036
	BYTE	W06
	BYTE		        Bn0   v020
	BYTE	W11
	BYTE	PEND
	BYTE	W01
	BYTE		        An0   v120
	BYTE	W06
	BYTE		        An0   v036
	BYTE	W06
	BYTE		        An0   v020
	BYTE	W24
	BYTE		        Gn0   v120
	BYTE	W06
	BYTE		        Gn0   v036
	BYTE	W06
	BYTE		        Gn0   v020
	BYTE	W24
	BYTE		        An0   v120
	BYTE	W06
	BYTE		        An0   v036
	BYTE	W06
	BYTE		        An0   v020
	BYTE	W11
	BYTE	W13
	BYTE		N36     En0   v120
	BYTE	W36
	BYTE		N06     Gn0 
	BYTE	W06
	BYTE		        Gn0   v036
	BYTE	W06
	BYTE		        Gn0   v020
	BYTE	W12
	BYTE		        Gs0   v120
	BYTE	W06
	BYTE		        Gs0   v036
	BYTE	W06
	BYTE		        Gs0   v020
	BYTE	W11
	BYTE	PATT
	 POIN2	seq_009_0 + 0x29B
	BYTE	PATT
	 POIN2	seq_009_0 + 0x2B9
	BYTE	W01
	BYTE		N48     An0   v120
	BYTE	W48
	BYTE		        Gn0 
	BYTE	W44
	BYTE	W03
	BYTE	W01
	BYTE		        Fs0 
	BYTE	W48
	BYTE		        Fn0 
	BYTE	W44
	BYTE	W03
	BYTE	W01
	BYTE		N06     Bn0   v120
	BYTE	W06
	BYTE		        Bn0   v036
	BYTE	W06
	BYTE		        Bn0   v020
	BYTE	W24
	BYTE		        Cs1   v120
	BYTE	W06
	BYTE		        Cs1   v036
	BYTE	W06
	BYTE		        Cs1   v020
	BYTE	W24
	BYTE		        Dn1   v120
	BYTE	W06
	BYTE		        Dn1   v036
	BYTE	W06
	BYTE		        Dn1   v020
	BYTE	W11
	BYTE	PEND
	BYTE	W13
	BYTE		N36     En1   v120
	BYTE	W36
	BYTE		N06     Dn1 
	BYTE	W06
	BYTE		        Dn1   v036
	BYTE	W06
	BYTE		        Dn1   v020
	BYTE	W12
	BYTE		        Cs1   v120
	BYTE	W06
	BYTE		        Cs1   v036
	BYTE	W06
	BYTE		        Cs1   v020
	BYTE	W11
	BYTE	PEND
	BYTE	W01
	BYTE		        Bn0   v120
	BYTE	W06
	BYTE		        Bn0   v036
	BYTE	W06
	BYTE		        Bn0   v020
	BYTE	W24
	BYTE		        An0   v120
	BYTE	W06
	BYTE		        An0   v036
	BYTE	W06
	BYTE		        An0   v020
	BYTE	W24
	BYTE		        Bn0   v120
	BYTE	W06
	BYTE		        Bn0   v036
	BYTE	W06
	BYTE		        Bn0   v020
	BYTE	W11
	BYTE	W13
	BYTE		N36     Fs0   v120
	BYTE	W36
	BYTE		N06     An0 
	BYTE	W06
	BYTE		        An0   v036
	BYTE	W06
	BYTE		        An0   v020
	BYTE	W12
	BYTE		        As0   v120
	BYTE	W06
	BYTE		        As0   v036
	BYTE	W06
	BYTE		        As0   v020
	BYTE	W11
	BYTE	PATT
	 POIN2	seq_009_0 + 0x31C
	BYTE	PATT
	 POIN2	seq_009_0 + 0x33A
	BYTE	W01
	BYTE		N32     Bn0   v120
	BYTE	W36
	BYTE		        An0   v076
	BYTE	W36
	BYTE		N23     Gs0   v096
	BYTE	W23
	BYTE	W01
	BYTE		N12     Gs0   v020
	BYTE	W92
	BYTE	W03
	BYTE	W01
	BYTE		N32     Gn0   v092
	BYTE	W36
	BYTE		        Fs0 
	BYTE	W36
	BYTE		N23     Fn0   v127
	BYTE	W23
	BYTE	W01
	BYTE		N12     Fn0   v020
	BYTE	W72
	BYTE		N22     Gn1   v120
	BYTE	W04
	BYTE		BEND    c_v-3
	BYTE	W01
	BYTE		        c_v-5
	BYTE	W01
	BYTE		        c_v-7
	BYTE	W01
	BYTE		        c_v-10
	BYTE	W01
	BYTE		        c_v-13
	BYTE	W01
	BYTE		        c_v-16
	BYTE	W01
	BYTE		        c_v-19
	BYTE	W01
	BYTE		        c_v-24
	BYTE	W01
	BYTE		        c_v-32
	BYTE	W01
	BYTE		        c_v-40
	BYTE	W01
	BYTE		        c_v-48
	BYTE	W01
	BYTE		        c_v-57
	BYTE	W01
	BYTE		        c_v-63
	BYTE	W06
	BYTE		        c_v+0
	BYTE	W01
	BYTE	GoTo
	 POIN2	seq_009_0 + 0x71
	BYTE	FINE

//*********************** Track 02 ***********************//

seq_009_1:
	BYTE	KEYSH   seq_009_key+0
	BYTE		VOICE   70
	BYTE		VOL     75*seq_009_mvl/mxv
	BYTE		PAN     c_v+0
	BYTE		BENDR   5
	BYTE		BEND    c_v+0
	BYTE	W03
	BYTE	W96
	BYTE	W96
	BYTE	W96
	BYTE	W96
	BYTE	W96
	BYTE	W96
	BYTE	W96
	BYTE	W96
	BYTE	W96
	BYTE	W96
	BYTE	W96
	BYTE	W72
	BYTE		N05     Fn2   v120
	BYTE	W06
	BYTE		        Gn2 
	BYTE	W06
	BYTE		        An2 
	BYTE	W06
	BYTE		        As2 
	BYTE	W06
	BYTE		N96     Bn2   v100
	BYTE	W96
	BYTE		        Fn3 
	BYTE	W96
	BYTE		        Fs3 
	BYTE	W96
	BYTE		        Fn3 
	BYTE	W96
	BYTE		N12     En3 
	BYTE	W12
	BYTE		        Ds3 
	BYTE	W12
	BYTE		        Fs2 
	BYTE	W12
	BYTE		        Gn2 
	BYTE	W12
	BYTE		        Dn3 
	BYTE	W12
	BYTE		        Cs3 
	BYTE	W12
	BYTE		        Cn3 
	BYTE	W12
	BYTE		        Bn2 
	BYTE	W12
	BYTE		        Fn2 
	BYTE	W12
	BYTE		        Fs2 
	BYTE	W12
	BYTE		        Bn2 
	BYTE	W12
	BYTE		N11     An2 
	BYTE	W12
	BYTE		N24     Gn2 
	BYTE	W24
	BYTE		N12     En2 
	BYTE	W12
	BYTE		N24     An2 
	BYTE	W24
	BYTE		N12     En2 
	BYTE	W12
	BYTE		N24     As2 
	BYTE	W24
	BYTE		N12     En2 
	BYTE	W12
	BYTE		N24     An2 
	BYTE	W24
	BYTE		N11     En2 
	BYTE	W11
	BYTE		N06     Gn2   v127
	BYTE	W06
	BYTE		        Fs2 
	BYTE	W06
	BYTE		        En2 
	BYTE	W06
	BYTE		        Fs2 
	BYTE	W07
	BYTE		N03     Gn2   v124
	BYTE	W04
	BYTE		        Gn2   v064
	BYTE	W20
	BYTE		N12     En3   v100
	BYTE	W12
	BYTE		        Ds3 
	BYTE	W12
	BYTE		        Fs2 
	BYTE	W12
	BYTE		        Gn2 
	BYTE	W12
	BYTE		        Bn2 
	BYTE	W12
	BYTE		        Gn2 
	BYTE	W12
	BYTE		        Dn3 
	BYTE	W12
	BYTE		        Cs3 
	BYTE	W12
	BYTE		        Cn3 
	BYTE	W12
	BYTE		        Bn2 
	BYTE	W12
	BYTE		        Fn2 
	BYTE	W12
	BYTE		        Fs2 
	BYTE	W12
	BYTE		        An2 
	BYTE	W12
	BYTE		        Fs2 
	BYTE	W12
	BYTE		        Bn2 
	BYTE	W12
	BYTE		        An2 
	BYTE	W12
	BYTE		N96     Bn2 
	BYTE	W96
	BYTE		        Fn3 
	BYTE	W96
	BYTE		        Fs3 
	BYTE	W96
	BYTE		        Fn3 
	BYTE	W96
	BYTE		        Bn2 
	BYTE	W96
	BYTE		        Fn3 
	BYTE	W96
	BYTE		        Fs3 
	BYTE	W96
	BYTE		        Fn3 
	BYTE	W96
	BYTE		N24     En2 
	BYTE	W24
	BYTE		N23     Fs2 
	BYTE	W24
	BYTE		N15     Gn2 
	BYTE	W16
	BYTE		        Dn3 
	BYTE	W16
	BYTE		        Cs3 
	BYTE	W16
	BYTE		N68     Cn3 
	BYTE	W72
	BYTE		N06     An2   v127
	BYTE	W06
	BYTE		        Bn2 
	BYTE	W06
	BYTE		N12     Cn3   v104
	BYTE	W12
	BYTE		TIE     Bn2   v100
	BYTE	W11
	BYTE		VOL     76*seq_009_mvl/mxv
	BYTE	W01
	BYTE		        75*seq_009_mvl/mxv
	BYTE	W01
	BYTE		        74*seq_009_mvl/mxv
	BYTE	W01
	BYTE		        73*seq_009_mvl/mxv
	BYTE	W01
	BYTE		        71*seq_009_mvl/mxv
	BYTE	W01
	BYTE		        71*seq_009_mvl/mxv
	BYTE	W01
	BYTE		        69*seq_009_mvl/mxv
	BYTE	W02
	BYTE		        68*seq_009_mvl/mxv
	BYTE	W01
	BYTE		        67*seq_009_mvl/mxv
	BYTE	W01
	BYTE		        66*seq_009_mvl/mxv
	BYTE	W01
	BYTE		        65*seq_009_mvl/mxv
	BYTE	W02
	BYTE		        64*seq_009_mvl/mxv
	BYTE	W01
	BYTE		        64*seq_009_mvl/mxv
	BYTE	W01
	BYTE		        62*seq_009_mvl/mxv
	BYTE	W01
	BYTE		        62*seq_009_mvl/mxv
	BYTE	W01
	BYTE		        61*seq_009_mvl/mxv
	BYTE	W02
	BYTE		        60*seq_009_mvl/mxv
	BYTE	W01
	BYTE		        59*seq_009_mvl/mxv
	BYTE	W02
	BYTE		        59*seq_009_mvl/mxv
	BYTE	W01
	BYTE		        58*seq_009_mvl/mxv
	BYTE	W02
	BYTE		        57*seq_009_mvl/mxv
	BYTE	W03
	BYTE		        56*seq_009_mvl/mxv
	BYTE	W04
	BYTE		        56*seq_009_mvl/mxv
	BYTE	W06
	BYTE		        55*seq_009_mvl/mxv
	BYTE	W05
	BYTE		        52*seq_009_mvl/mxv
	BYTE	W02
	BYTE		        51*seq_009_mvl/mxv
	BYTE	W01
	BYTE		        51*seq_009_mvl/mxv
	BYTE	W01
	BYTE		        50*seq_009_mvl/mxv
	BYTE	W01
	BYTE		        49*seq_009_mvl/mxv
	BYTE	W01
	BYTE		        48*seq_009_mvl/mxv
	BYTE	W02
	BYTE		        47*seq_009_mvl/mxv
	BYTE	W01
	BYTE		        47*seq_009_mvl/mxv
	BYTE	W01
	BYTE		        46*seq_009_mvl/mxv
	BYTE	W01
	BYTE		        45*seq_009_mvl/mxv
	BYTE	W01
	BYTE		        44*seq_009_mvl/mxv
	BYTE	W01
	BYTE		        44*seq_009_mvl/mxv
	BYTE	W01
	BYTE		        42*seq_009_mvl/mxv
	BYTE	W01
	BYTE		        42*seq_009_mvl/mxv
	BYTE	W02
	BYTE		        41*seq_009_mvl/mxv
	BYTE	W01
	BYTE		        40*seq_009_mvl/mxv
	BYTE	W01
	BYTE		        39*seq_009_mvl/mxv
	BYTE	W01
	BYTE		        39*seq_009_mvl/mxv
	BYTE	W01
	BYTE		        38*seq_009_mvl/mxv
	BYTE	W01
	BYTE		        37*seq_009_mvl/mxv
	BYTE	W01
	BYTE		        36*seq_009_mvl/mxv
	BYTE	W02
	BYTE		        35*seq_009_mvl/mxv
	BYTE	W01
	BYTE		        35*seq_009_mvl/mxv
	BYTE	W01
	BYTE		        34*seq_009_mvl/mxv
	BYTE	W01
	BYTE		        33*seq_009_mvl/mxv
	BYTE	W01
	BYTE		        32*seq_009_mvl/mxv
	BYTE	W02
	BYTE		        31*seq_009_mvl/mxv
	BYTE	W01
	BYTE		        30*seq_009_mvl/mxv
	BYTE	W01
	BYTE		        30*seq_009_mvl/mxv
	BYTE	W01
	BYTE		        29*seq_009_mvl/mxv
	BYTE	W01
	BYTE		        28*seq_009_mvl/mxv
	BYTE	W01
	BYTE		        27*seq_009_mvl/mxv
	BYTE	W01
	BYTE		        27*seq_009_mvl/mxv
	BYTE	W01
	BYTE		        26*seq_009_mvl/mxv
	BYTE	W01
	BYTE		        25*seq_009_mvl/mxv
	BYTE	W02
	BYTE		        24*seq_009_mvl/mxv
	BYTE	W01
	BYTE		        23*seq_009_mvl/mxv
	BYTE	W01
	BYTE		        22*seq_009_mvl/mxv
	BYTE	W01
	BYTE		        22*seq_009_mvl/mxv
	BYTE	W01
	BYTE		        21*seq_009_mvl/mxv
	BYTE	W01
	BYTE		        20*seq_009_mvl/mxv
	BYTE	W02
	BYTE		        19*seq_009_mvl/mxv
	BYTE	W01
	BYTE		        18*seq_009_mvl/mxv
	BYTE	W01
	BYTE		        18*seq_009_mvl/mxv
	BYTE	W01
	BYTE		        17*seq_009_mvl/mxv
	BYTE	W01
	BYTE		        16*seq_009_mvl/mxv
	BYTE	W01
	BYTE		        15*seq_009_mvl/mxv
	BYTE	W02
	BYTE		        15*seq_009_mvl/mxv
	BYTE	W01
	BYTE		        13*seq_009_mvl/mxv
	BYTE	W01
	BYTE		        13*seq_009_mvl/mxv
	BYTE	W01
	BYTE		        12*seq_009_mvl/mxv
	BYTE	W01
	BYTE		        11*seq_009_mvl/mxv
	BYTE	W01
	BYTE		        10*seq_009_mvl/mxv
	BYTE	W01
	BYTE		        10*seq_009_mvl/mxv
	BYTE	W01
	BYTE		        9*seq_009_mvl/mxv
	BYTE	W02
	BYTE		        8*seq_009_mvl/mxv
	BYTE	W01
	BYTE		        7*seq_009_mvl/mxv
	BYTE	W01
	BYTE		EOT
	BYTE		VOL     6*seq_009_mvl/mxv
	BYTE	W01
	BYTE		        6*seq_009_mvl/mxv
	BYTE	W01
	BYTE		        5*seq_009_mvl/mxv
	BYTE	W01
	BYTE		        4*seq_009_mvl/mxv
	BYTE	W01
	BYTE		        3*seq_009_mvl/mxv
	BYTE	W36
	BYTE	W01
	BYTE		        80*seq_009_mvl/mxv
	BYTE	W30
	BYTE	W01
	BYTE	W96
	BYTE	W96
	BYTE		N24     En2   v127
	BYTE	W24
	BYTE		        Fs2 
	BYTE	W24
	BYTE		N15     Gn2 
	BYTE	W16
	BYTE		        Dn3 
	BYTE	W16
	BYTE		        Cs3 
	BYTE	W16
	BYTE		N72     Cn3 
	BYTE	W72
	BYTE		N06     An2 
	BYTE	W06
	BYTE		        Bn2 
	BYTE	W06
	BYTE		N12     Cn3 
	BYTE	W12
	BYTE		N60     En3 
	BYTE	W60
	BYTE		N24     Fn3 
	BYTE	W24
	BYTE		N12     En3 
	BYTE	W12
	BYTE		N90     Dn3 
	BYTE	W90
	BYTE		N06     Dn3   v040
	BYTE	W06
	BYTE		N06     Cn3   v127
	BYTE	W06
	BYTE		        Cn3   v040
	BYTE	W06
	BYTE		        An2   v127
	BYTE	W06
	BYTE		        Cn3   v040
	BYTE	W06
	BYTE		        Fn2   v127
	BYTE	W06
	BYTE		        An2   v040
	BYTE	W06
	BYTE		        Cn3   v127
	BYTE	W06
	BYTE		        Fn2   v040
	BYTE	W06
	BYTE		        An2   v127
	BYTE	W06
	BYTE		        Cn3   v040
	BYTE	W06
	BYTE		        Fn2   v127
	BYTE	W06
	BYTE		        An2   v040
	BYTE	W06
	BYTE		        Cn3   v127
	BYTE	W06
	BYTE		        Fn2   v040
	BYTE	W06
	BYTE		        An2   v127
	BYTE	W06
	BYTE		        Cn3   v040
	BYTE	W06
	BYTE	PEND
	BYTE		N06     Fn2   v127
	BYTE	W06
	BYTE		        An2   v040
	BYTE	W06
	BYTE		        Cn3   v127
	BYTE	W06
	BYTE		        Fn2   v040
	BYTE	W06
	BYTE		        An2   v127
	BYTE	W06
	BYTE		        Cn3   v040
	BYTE	W06
	BYTE		        Fn2   v127
	BYTE	W06
	BYTE		        An2   v040
	BYTE	W06
	BYTE		N12     Cn3   v127
	BYTE	W12
	BYTE		        An2 
	BYTE	W12
	BYTE		        Dn3 
	BYTE	W12
	BYTE		        En3 
	BYTE	W12
	BYTE	PEND
	BYTE		N72     Bn2   v127
	BYTE	W72
	BYTE		N24     Cn3 
	BYTE	W24
	BYTE	PEND
	BYTE		N90     Bn2   v127
	BYTE	W90
	BYTE		N06     Bn2   v040
	BYTE	W06
	BYTE	PEND
	BYTE		        An2   v127
	BYTE	W06
	BYTE		        An2   v040
	BYTE	W06
	BYTE		        Fn2   v127
	BYTE	W06
	BYTE		        An2   v040
	BYTE	W06
	BYTE		        Dn2   v127
	BYTE	W06
	BYTE		        Fn2   v040
	BYTE	W06
	BYTE		        An2   v127
	BYTE	W06
	BYTE		        Dn2   v040
	BYTE	W06
	BYTE		        Fn2   v127
	BYTE	W06
	BYTE		        An2   v040
	BYTE	W06
	BYTE		        Dn2   v127
	BYTE	W06
	BYTE		        Fn2   v040
	BYTE	W06
	BYTE		        An2   v127
	BYTE	W06
	BYTE		        Dn2   v040
	BYTE	W06
	BYTE		        Fn2   v127
	BYTE	W06
	BYTE		        An2   v040
	BYTE	W06
	BYTE		        Dn2   v127
	BYTE	W06
	BYTE		        Fn2   v040
	BYTE	W06
	BYTE		        An2   v127
	BYTE	W06
	BYTE		        Dn2   v040
	BYTE	W06
	BYTE		        Fn2   v127
	BYTE	W06
	BYTE		        An2   v040
	BYTE	W06
	BYTE		        Dn2   v127
	BYTE	W06
	BYTE		        Fn2   v040
	BYTE	W06
	BYTE		N12     An2   v127
	BYTE	W12
	BYTE		        Fn2 
	BYTE	W12
	BYTE		        Bn2 
	BYTE	W12
	BYTE		        Cn3 
	BYTE	W12
	BYTE		N72     Gs2 
	BYTE	W72
	BYTE		N24     An2   v116
	BYTE	W24
	BYTE		N90     Gs2   v104
	BYTE	W90
	BYTE		N06     Gs2   v040
	BYTE	W06
	BYTE	PATT
	 POIN2	seq_009_1 + 0x19E
	BYTE	PATT
	 POIN2	seq_009_1 + 0x1D0
	BYTE	PATT
	 POIN2	seq_009_1 + 0x1F4
	BYTE	PATT
	 POIN2	seq_009_1 + 0x1FC
	BYTE		N06     Dn3   v127
	BYTE	W06
	BYTE		        Dn3   v040
	BYTE	W06
	BYTE		        As2   v127
	BYTE	W06
	BYTE		        Dn3   v040
	BYTE	W06
	BYTE		        Fn2   v127
	BYTE	W06
	BYTE		        As2   v040
	BYTE	W06
	BYTE		        Dn3   v127
	BYTE	W06
	BYTE		        Fn2   v040
	BYTE	W06
	BYTE		        As2   v127
	BYTE	W06
	BYTE		        Dn3   v040
	BYTE	W06
	BYTE		        Fn2   v127
	BYTE	W06
	BYTE		        As2   v040
	BYTE	W06
	BYTE		        Dn3   v127
	BYTE	W06
	BYTE		        Fn2   v040
	BYTE	W06
	BYTE		        As2   v127
	BYTE	W06
	BYTE		        Dn3   v040
	BYTE	W06
	BYTE		        Fn2   v127
	BYTE	W06
	BYTE		        As2   v040
	BYTE	W06
	BYTE		        Dn3   v127
	BYTE	W06
	BYTE		        Fn2   v040
	BYTE	W06
	BYTE		        As2   v127
	BYTE	W06
	BYTE		        Dn3   v040
	BYTE	W06
	BYTE		        Fn2   v127
	BYTE	W06
	BYTE		        As2   v040
	BYTE	W06
	BYTE		N12     Dn3   v127
	BYTE	W12
	BYTE		        As2 
	BYTE	W12
	BYTE		        En3 
	BYTE	W12
	BYTE		        Fn3 
	BYTE	W12
	BYTE		TIE     En3 
	BYTE	W64
	BYTE	W01
	BYTE		VOL     74*seq_009_mvl/mxv
	BYTE	W06
	BYTE		        73*seq_009_mvl/mxv
	BYTE	W10
	BYTE		        73*seq_009_mvl/mxv
	BYTE	W07
	BYTE		        71*seq_009_mvl/mxv
	BYTE	W05
	BYTE		        71*seq_009_mvl/mxv
	BYTE	W03
	BYTE	W02
	BYTE		        70*seq_009_mvl/mxv
	BYTE	W04
	BYTE		        69*seq_009_mvl/mxv
	BYTE	W04
	BYTE		        68*seq_009_mvl/mxv
	BYTE	W04
	BYTE		        68*seq_009_mvl/mxv
	BYTE	W03
	BYTE		        67*seq_009_mvl/mxv
	BYTE	W03
	BYTE		        66*seq_009_mvl/mxv
	BYTE	W03
	BYTE		        65*seq_009_mvl/mxv
	BYTE	W02
	BYTE		        64*seq_009_mvl/mxv
	BYTE	W03
	BYTE		        64*seq_009_mvl/mxv
	BYTE	W02
	BYTE		        62*seq_009_mvl/mxv
	BYTE	W03
	BYTE		        62*seq_009_mvl/mxv
	BYTE	W01
	BYTE		        61*seq_009_mvl/mxv
	BYTE	W02
	BYTE		        60*seq_009_mvl/mxv
	BYTE	W02
	BYTE		        59*seq_009_mvl/mxv
	BYTE	W02
	BYTE		        59*seq_009_mvl/mxv
	BYTE	W01
	BYTE		        58*seq_009_mvl/mxv
	BYTE	W02
	BYTE		        57*seq_009_mvl/mxv
	BYTE	W01
	BYTE		        56*seq_009_mvl/mxv
	BYTE	W02
	BYTE		        56*seq_009_mvl/mxv
	BYTE	W01
	BYTE		        55*seq_009_mvl/mxv
	BYTE	W01
	BYTE		        54*seq_009_mvl/mxv
	BYTE	W01
	BYTE		        53*seq_009_mvl/mxv
	BYTE	W02
	BYTE		        51*seq_009_mvl/mxv
	BYTE	W02
	BYTE		        51*seq_009_mvl/mxv
	BYTE	W01
	BYTE		        49*seq_009_mvl/mxv
	BYTE	W02
	BYTE		        47*seq_009_mvl/mxv
	BYTE	W01
	BYTE		        47*seq_009_mvl/mxv
	BYTE	W02
	BYTE		        45*seq_009_mvl/mxv
	BYTE	W01
	BYTE		        44*seq_009_mvl/mxv
	BYTE	W01
	BYTE		        44*seq_009_mvl/mxv
	BYTE	W01
	BYTE		        42*seq_009_mvl/mxv
	BYTE	W01
	BYTE		        42*seq_009_mvl/mxv
	BYTE	W01
	BYTE		        40*seq_009_mvl/mxv
	BYTE	W01
	BYTE		        39*seq_009_mvl/mxv
	BYTE	W01
	BYTE		        38*seq_009_mvl/mxv
	BYTE	W01
	BYTE		        37*seq_009_mvl/mxv
	BYTE	W01
	BYTE		        36*seq_009_mvl/mxv
	BYTE	W01
	BYTE		        35*seq_009_mvl/mxv
	BYTE	W01
	BYTE		        34*seq_009_mvl/mxv
	BYTE	W01
	BYTE		        33*seq_009_mvl/mxv
	BYTE	W01
	BYTE		EOT
	BYTE		N23     En3   v076
	BYTE	W23
	BYTE		VOL     80*seq_009_mvl/mxv
	BYTE	W01
	BYTE		N06     An2   v120
	BYTE	W06
	BYTE		        An2   v048
	BYTE	W06
	BYTE		        An2   v020
	BYTE	W24
	BYTE		        Bn2   v120
	BYTE	W06
	BYTE		        Bn2   v048
	BYTE	W06
	BYTE		        Bn2   v020
	BYTE	W24
	BYTE		        Cn3   v120
	BYTE	W06
	BYTE		        Cn3   v048
	BYTE	W06
	BYTE		        Cn3   v020
	BYTE	W12
	BYTE	W12
	BYTE		N36     Dn3   v120
	BYTE	W36
	BYTE		N06     Cn3 
	BYTE	W06
	BYTE		        Cn3   v048
	BYTE	W06
	BYTE		        Cn3   v020
	BYTE	W12
	BYTE		        Bn2   v120
	BYTE	W06
	BYTE		        Bn2   v048
	BYTE	W06
	BYTE		        Bn2   v020
	BYTE	W12
	BYTE		        An2   v120
	BYTE	W06
	BYTE		        An2   v048
	BYTE	W06
	BYTE		        An2   v020
	BYTE	W24
	BYTE		        Gn2   v120
	BYTE	W06
	BYTE		        Gn2   v048
	BYTE	W06
	BYTE		        Gn2   v020
	BYTE	W24
	BYTE		        An2   v120
	BYTE	W06
	BYTE		        An2   v048
	BYTE	W06
	BYTE		        An2   v020
	BYTE	W12
	BYTE	W12
	BYTE		N36     En2   v120
	BYTE	W36
	BYTE		N06     Gn2 
	BYTE	W06
	BYTE		        Gn2   v044
	BYTE	W06
	BYTE		        Gn2   v020
	BYTE	W12
	BYTE		        Gs2   v120
	BYTE	W06
	BYTE		        Gs2   v044
	BYTE	W06
	BYTE		        Gs2   v020
	BYTE	W12
	BYTE		        An2   v120
	BYTE	W06
	BYTE		        An2   v044
	BYTE	W06
	BYTE		        An2   v020
	BYTE	W24
	BYTE		        Bn2   v120
	BYTE	W06
	BYTE		        Bn2   v044
	BYTE	W06
	BYTE		        Bn2   v020
	BYTE	W24
	BYTE		        Cn3   v120
	BYTE	W06
	BYTE		        Cn3   v044
	BYTE	W06
	BYTE		        Cn3   v020
	BYTE	W12
	BYTE	W12
	BYTE		N36     Dn3   v120
	BYTE	W36
	BYTE		N06     Cn3 
	BYTE	W06
	BYTE		        Cn3   v044
	BYTE	W06
	BYTE		        Cn3   v020
	BYTE	W12
	BYTE		        Bn2   v120
	BYTE	W06
	BYTE		        Bn2   v044
	BYTE	W06
	BYTE		        Bn2   v020
	BYTE	W12
	BYTE		        An2   v120
	BYTE	W06
	BYTE		        An2   v044
	BYTE	W06
	BYTE		        An2   v020
	BYTE	W84
	BYTE	W96
	BYTE		N06     Bn2   v120
	BYTE	W06
	BYTE		        Bn2   v044
	BYTE	W06
	BYTE		        Bn2   v020
	BYTE	W24
	BYTE		        Cs3   v120
	BYTE	W06
	BYTE		        Cs3   v044
	BYTE	W06
	BYTE		        Cs3   v020
	BYTE	W24
	BYTE		        Dn3   v120
	BYTE	W06
	BYTE		        Dn3   v044
	BYTE	W06
	BYTE		        Dn3   v020
	BYTE	W12
	BYTE	PEND
	BYTE	W12
	BYTE		N36     En3   v120
	BYTE	W36
	BYTE		N06     Dn3 
	BYTE	W06
	BYTE		        Dn3   v044
	BYTE	W06
	BYTE		        Dn3   v020
	BYTE	W12
	BYTE		        Cs3   v120
	BYTE	W06
	BYTE		        Cs3   v044
	BYTE	W06
	BYTE		        Cs3   v020
	BYTE	W12
	BYTE	PEND
	BYTE		        Bn2   v120
	BYTE	W06
	BYTE		        Bn2   v044
	BYTE	W06
	BYTE		        Bn2   v020
	BYTE	W24
	BYTE		        An2   v120
	BYTE	W06
	BYTE		        An2   v044
	BYTE	W06
	BYTE		        An2   v020
	BYTE	W24
	BYTE		        Bn2   v120
	BYTE	W06
	BYTE		        Bn2   v044
	BYTE	W06
	BYTE		        Bn2   v020
	BYTE	W12
	BYTE	W12
	BYTE		N36     Fs2   v120
	BYTE	W36
	BYTE		N06     An2 
	BYTE	W06
	BYTE		        An2   v044
	BYTE	W06
	BYTE		        An2   v020
	BYTE	W12
	BYTE		        As2   v120
	BYTE	W06
	BYTE		        As2   v044
	BYTE	W06
	BYTE		        As2   v020
	BYTE	W12
	BYTE	PATT
	 POIN2	seq_009_1 + 0x3D6
	BYTE	PATT
	 POIN2	seq_009_1 + 0x3F3
	BYTE		N36     Bn2   v068
	BYTE	W36
	BYTE		        An2   v080
	BYTE	W36
	BYTE		N12     Gs2   v088
	BYTE	W12
	BYTE		N06     Gs2   v056
	BYTE	W06
	BYTE		        Gs2   v028
	BYTE	W06
	BYTE		        Gs2   v016
	BYTE	W96
	BYTE		N36     Gn2   v080
	BYTE	W36
	BYTE		        Fs2   v100
	BYTE	W36
	BYTE		N12     Fn2   v116
	BYTE	W12
	BYTE		N06     Fn2   v056
	BYTE	W06
	BYTE		        Fn2   v028
	BYTE	W06
	BYTE		        Fn2   v016
	BYTE	W96
	BYTE	GoTo
	 POIN2	seq_009_1 + 0x15
	BYTE	FINE

//*********************** Track 03 ***********************//

seq_009_2:
	BYTE	KEYSH   seq_009_key+0
	BYTE		VOICE   85
	BYTE		VOL     45*seq_009_mvl/mxv
	BYTE		PAN     c_v+0
	BYTE		BENDR   3
	BYTE		BEND    c_v+0
	BYTE	W02
	BYTE		N06     Bn2   v072
	BYTE	W01
	BYTE		PAN     c_v-15
	BYTE	W02
	BYTE		        c_v-19
	BYTE	W02
	BYTE		        c_v-24
	BYTE	W01
	BYTE		        c_v-26
	BYTE		N06     As2 
	BYTE	W02
	BYTE		PAN     c_v-30
	BYTE	W01
	BYTE		        c_v-34
	BYTE	W02
	BYTE		        c_v-38
	BYTE	W01
	BYTE		N06     An2 
	BYTE	W01
	BYTE		PAN     c_v-40
	BYTE	W01
	BYTE		        c_v-44
	BYTE	W02
	BYTE		        c_v-46
	BYTE	W02
	BYTE		        c_v-49
	BYTE		N06     As2 
	BYTE	W01
	BYTE		PAN     c_v-52
	BYTE	W02
	BYTE		        c_v-54
	BYTE	W01
	BYTE		        c_v-55
	BYTE	W02
	BYTE		        c_v-56
	BYTE		N06     Bn2 
	BYTE	W02
	BYTE		PAN     c_v-59
	BYTE	W04
	BYTE		N06     As2 
	BYTE	W01
	BYTE		PAN     c_v-60
	BYTE	W05
	BYTE		N06     An2 
	BYTE	W01
	BYTE		PAN     c_v-59
	BYTE	W03
	BYTE		        c_v-58
	BYTE	W02
	BYTE		        c_v-56
	BYTE		N06     As2 
	BYTE	W02
	BYTE		PAN     c_v-54
	BYTE	W01
	BYTE		        c_v-52
	BYTE	W02
	BYTE		        c_v-50
	BYTE	W01
	BYTE		        c_v-48
	BYTE		N06     Bn2 
	BYTE	W02
	BYTE		PAN     c_v-45
	BYTE	W02
	BYTE		        c_v-42
	BYTE	W01
	BYTE		        c_v-39
	BYTE	W01
	BYTE		N06     As2 
	BYTE	W01
	BYTE		PAN     c_v-35
	BYTE	W01
	BYTE		        c_v-32
	BYTE	W02
	BYTE		        c_v-28
	BYTE	W02
	BYTE		        c_v-25
	BYTE		N06     An2 
	BYTE	W01
	BYTE		PAN     c_v-20
	BYTE	W02
	BYTE		        c_v-16
	BYTE	W02
	BYTE		        c_v-12
	BYTE	W01
	BYTE		        c_v-10
	BYTE		N06     As2 
	BYTE	W02
	BYTE		PAN     c_v-5
	BYTE	W01
	BYTE		        c_v-1
	BYTE	W02
	BYTE		        c_v+4
	BYTE	W01
	BYTE		N06     Bn2 
	BYTE	W01
	BYTE		PAN     c_v+8
	BYTE	W01
	BYTE		        c_v+12
	BYTE	W02
	BYTE		        c_v+15
	BYTE	W02
	BYTE		        c_v+19
	BYTE		N06     As2 
	BYTE	W01
	BYTE		PAN     c_v+24
	BYTE	W02
	BYTE		        c_v+26
	BYTE	W01
	BYTE		        c_v+30
	BYTE	W02
	BYTE		        c_v+34
	BYTE		N06     An2 
	BYTE	W02
	BYTE		PAN     c_v+36
	BYTE	W01
	BYTE		        c_v+39
	BYTE	W02
	BYTE		        c_v+42
	BYTE	W01
	BYTE		        c_v+44
	BYTE		N06     As2 
	BYTE	W02
	BYTE		PAN     c_v+46
	BYTE	W02
	BYTE		        c_v+49
	BYTE	W01
	BYTE		        c_v+50
	BYTE	W01
	BYTE		N06     Bn2 
	BYTE	W01
	BYTE		PAN     c_v+52
	BYTE	W02
	BYTE		        c_v+53
	BYTE	W03
	BYTE		        c_v+54
	BYTE		N06     As2 
	BYTE	W06
	BYTE		PAN     c_v+53
	BYTE		N06     An2 
	BYTE	W05
	BYTE		PAN     c_v+50
	BYTE	W01
	BYTE		N06     As2 
	BYTE	W01
	BYTE		PAN     c_v+49
	BYTE	W01
	BYTE		        c_v+48
	BYTE	W02
	BYTE		        c_v+44
	BYTE	W02
	BYTE		        c_v+43
	BYTE		N06     Bn2 
	BYTE	W01
	BYTE		PAN     c_v+40
	BYTE	W02
	BYTE		        c_v+38
	BYTE	W02
	BYTE		        c_v+35
	BYTE	W01
	BYTE		        c_v+32
	BYTE		N06     As2 
	BYTE	W02
	BYTE		PAN     c_v+28
	BYTE	W01
	BYTE		        c_v+24
	BYTE	W02
	BYTE		        c_v+20
	BYTE	W01
	BYTE		N06     An2 
	BYTE	W01
	BYTE		PAN     c_v+16
	BYTE	W01
	BYTE		        c_v+14
	BYTE	W02
	BYTE		        c_v+9
	BYTE	W01
	BYTE		        c_v+5
	BYTE	W01
	BYTE		N06     As2 
	BYTE	W01
	BYTE		PAN     c_v+0
	BYTE	W02
	BYTE		        c_v-4
	BYTE	W01
	BYTE		        c_v-8
	BYTE	W02
	BYTE		        c_v-12
	BYTE		N06     Bn2 
	BYTE	W02
	BYTE		PAN     c_v-15
	BYTE	W01
	BYTE		        c_v-19
	BYTE	W02
	BYTE		        c_v-24
	BYTE	W01
	BYTE		        c_v-26
	BYTE		N06     As2 
	BYTE	W02
	BYTE		PAN     c_v-30
	BYTE	W02
	BYTE		        c_v-35
	BYTE	W01
	BYTE		        c_v-38
	BYTE	W01
	BYTE		N06     An2 
	BYTE	W01
	BYTE		PAN     c_v-40
	BYTE	W02
	BYTE		        c_v-44
	BYTE	W01
	BYTE		        c_v-46
	BYTE	W02
	BYTE		        c_v-49
	BYTE		N06     As2 
	BYTE	W01
	BYTE		PAN     c_v-52
	BYTE	W02
	BYTE		        c_v-54
	BYTE	W02
	BYTE		        c_v-55
	BYTE	W01
	BYTE		        c_v-58
	BYTE		N06     Bn2 
	BYTE	W02
	BYTE		PAN     c_v-59
	BYTE	W03
	BYTE		        c_v-60
	BYTE	W01
	BYTE		N06     As2 
	BYTE	W06
	BYTE		        An2 
	BYTE	W01
	BYTE		PAN     c_v-59
	BYTE	W03
	BYTE		        c_v-58
	BYTE	W02
	BYTE		        c_v-56
	BYTE		N06     As2 
	BYTE	W02
	BYTE		PAN     c_v-54
	BYTE	W01
	BYTE		        c_v-52
	BYTE	W02
	BYTE		        c_v-50
	BYTE	W01
	BYTE		N06     Fs2   v088
	BYTE	W01
	BYTE		PAN     c_v-48
	BYTE	W01
	BYTE		        c_v-45
	BYTE	W02
	BYTE		        c_v-42
	BYTE	W01
	BYTE		        c_v-39
	BYTE	W01
	BYTE		N06     Fn2 
	BYTE	W01
	BYTE		PAN     c_v-35
	BYTE	W02
	BYTE		        c_v-32
	BYTE	W01
	BYTE		        c_v-28
	BYTE	W02
	BYTE		        c_v-24
	BYTE		N06     En2 
	BYTE	W02
	BYTE		PAN     c_v-20
	BYTE	W01
	BYTE		        c_v-16
	BYTE	W02
	BYTE		        c_v-12
	BYTE	W01
	BYTE		        c_v-8
	BYTE		N06     Fn2 
	BYTE	W02
	BYTE		PAN     c_v-4
	BYTE	W02
	BYTE		        c_v-1
	BYTE	W01
	BYTE		        c_v+4
	BYTE	W01
	BYTE		N06     Fs2 
	BYTE	W01
	BYTE		PAN     c_v+8
	BYTE	W01
	BYTE		        c_v+12
	BYTE	W02
	BYTE		        c_v+16
	BYTE	W02
	BYTE		        c_v+19
	BYTE		N06     Fn2 
	BYTE	W01
	BYTE		PAN     c_v+24
	BYTE	W02
	BYTE		        c_v+26
	BYTE	W02
	BYTE		        c_v+30
	BYTE	W01
	BYTE		        c_v+34
	BYTE		N06     En2 
	BYTE	W02
	BYTE		PAN     c_v+36
	BYTE	W01
	BYTE		        c_v+39
	BYTE	W02
	BYTE		        c_v+42
	BYTE	W01
	BYTE		N06     Fn2 
	BYTE	W01
	BYTE		PAN     c_v+44
	BYTE	W01
	BYTE		        c_v+46
	BYTE	W02
	BYTE		        c_v+49
	BYTE	W02
	BYTE		        c_v+50
	BYTE		N06     Fs2 
	BYTE	W01
	BYTE		PAN     c_v+52
	BYTE	W02
	BYTE		        c_v+53
	BYTE	W03
	BYTE		        c_v+54
	BYTE		N06     Fn2 
	BYTE	W06
	BYTE		PAN     c_v+53
	BYTE		N06     En2 
	BYTE	W04
	BYTE		PAN     c_v+52
	BYTE	W01
	BYTE		        c_v+50
	BYTE	W01
	BYTE		N06     Fn2 
	BYTE	W01
	BYTE		PAN     c_v+49
	BYTE	W02
	BYTE		        c_v+48
	BYTE	W01
	BYTE		        c_v+44
	BYTE	W02
	BYTE		        c_v+43
	BYTE		N06     Fs2 
	BYTE	W01
	BYTE		PAN     c_v+39
	BYTE	W02
	BYTE		        c_v+36
	BYTE	W02
	BYTE		        c_v+34
	BYTE	W01
	BYTE		        c_v+30
	BYTE		N06     Fn2 
	BYTE	W02
	BYTE		PAN     c_v+28
	BYTE	W02
	BYTE		        c_v+24
	BYTE	W01
	BYTE		        c_v+20
	BYTE	W01
	BYTE		N06     En2 
	BYTE	W01
	BYTE		PAN     c_v+16
	BYTE	W01
	BYTE		        c_v+12
	BYTE	W02
	BYTE		        c_v+8
	BYTE	W02
	BYTE		        c_v+5
	BYTE		N06     Fn2 
	BYTE	W01
	BYTE		PAN     c_v+0
	BYTE	W02
	BYTE		        c_v-4
	BYTE	W02
	BYTE		        c_v-8
	BYTE	W01
	BYTE		        c_v-12
	BYTE		N06     Fs2 
	BYTE	W01
	BYTE	W01
	BYTE		PAN     c_v-16
	BYTE	W01
	BYTE		        c_v-20
	BYTE	W02
	BYTE		        c_v-24
	BYTE	W01
	BYTE		N06     Fn2 
	BYTE	W01
	BYTE		PAN     c_v-28
	BYTE	W01
	BYTE		        c_v-30
	BYTE	W02
	BYTE		        c_v-35
	BYTE	W01
	BYTE		        c_v-38
	BYTE	W01
	BYTE		N06     En2 
	BYTE	W01
	BYTE		PAN     c_v-40
	BYTE	W02
	BYTE		        c_v-44
	BYTE	W01
	BYTE		        c_v-46
	BYTE	W02
	BYTE		        c_v-49
	BYTE		N06     Fn2 
	BYTE	W02
	BYTE		PAN     c_v-52
	BYTE	W01
	BYTE		        c_v-54
	BYTE	W02
	BYTE		        c_v-55
	BYTE	W01
	BYTE		        c_v-58
	BYTE		N06     Fs2 
	BYTE	W02
	BYTE		PAN     c_v-59
	BYTE	W03
	BYTE		        c_v-60
	BYTE	W01
	BYTE		N06     Fn2 
	BYTE	W06
	BYTE		        En2 
	BYTE	W01
	BYTE		PAN     c_v-59
	BYTE	W04
	BYTE		        c_v-58
	BYTE	W01
	BYTE		        c_v-55
	BYTE		N06     Fn2 
	BYTE	W02
	BYTE		PAN     c_v-54
	BYTE	W01
	BYTE		        c_v-52
	BYTE	W02
	BYTE		        c_v-49
	BYTE	W01
	BYTE		N06     Fs2 
	BYTE	W01
	BYTE		PAN     c_v-46
	BYTE	W01
	BYTE		        c_v-44
	BYTE	W02
	BYTE		        c_v-40
	BYTE	W02
	BYTE		        c_v-38
	BYTE		N06     Fn2 
	BYTE	W01
	BYTE		PAN     c_v-35
	BYTE	W02
	BYTE		        c_v-30
	BYTE	W01
	BYTE		        c_v-28
	BYTE	W02
	BYTE		        c_v-24
	BYTE		N06     En2 
	BYTE	W02
	BYTE		PAN     c_v-20
	BYTE	W01
	BYTE		        c_v-16
	BYTE	W02
	BYTE		        c_v-12
	BYTE	W01
	BYTE		N06     Fn2 
	BYTE	W01
	BYTE		PAN     c_v-8
	BYTE	W01
	BYTE		        c_v-4
	BYTE	W02
	BYTE		        c_v+0
	BYTE	W01
	BYTE		        c_v+5
	BYTE	W01
	BYTE		N06     Fs2 
	BYTE	W01
	BYTE		PAN     c_v+8
	BYTE	W02
	BYTE		        c_v+12
	BYTE	W01
	BYTE		        c_v+16
	BYTE	W02
	BYTE		        c_v+20
	BYTE		N06     Fn2 
	BYTE	W02
	BYTE		PAN     c_v+24
	BYTE	W01
	BYTE		        c_v+28
	BYTE	W02
	BYTE		        c_v+30
	BYTE	W01
	BYTE		        c_v+34
	BYTE		N06     En2 
	BYTE	W02
	BYTE		PAN     c_v+36
	BYTE	W02
	BYTE		        c_v+39
	BYTE	W01
	BYTE		        c_v+43
	BYTE	W01
	BYTE		N06     Fn2 
	BYTE	W01
	BYTE		PAN     c_v+44
	BYTE	W01
	BYTE		        c_v+48
	BYTE	W02
	BYTE		        c_v+49
	BYTE	W02
	BYTE		        c_v+50
	BYTE		N06     Bn2   v072
	BYTE	W01
	BYTE		PAN     c_v+52
	BYTE	W02
	BYTE		        c_v+53
	BYTE	W03
	BYTE		        c_v+54
	BYTE		N06     As2 
	BYTE	W06
	BYTE		        An2 
	BYTE	W01
	BYTE		PAN     c_v+53
	BYTE	W03
	BYTE		        c_v+52
	BYTE	W02
	BYTE		        c_v+50
	BYTE		N06     As2 
	BYTE	W01
	BYTE		PAN     c_v+49
	BYTE	W02
	BYTE		        c_v+46
	BYTE	W01
	BYTE		        c_v+44
	BYTE	W02
	BYTE		        c_v+42
	BYTE		N06     Bn2 
	BYTE	W02
	BYTE		PAN     c_v+39
	BYTE	W01
	BYTE		        c_v+36
	BYTE	W02
	BYTE		        c_v+34
	BYTE	W01
	BYTE		        c_v+30
	BYTE		N06     As2 
	BYTE	W02
	BYTE		PAN     c_v+26
	BYTE	W02
	BYTE		        c_v+24
	BYTE	W01
	BYTE		        c_v+19
	BYTE	W01
	BYTE		N06     An2 
	BYTE	W01
	BYTE		PAN     c_v+16
	BYTE	W02
	BYTE		        c_v+12
	BYTE	W01
	BYTE		        c_v+8
	BYTE	W02
	BYTE		        c_v+4
	BYTE		N06     As2 
	BYTE	W01
	BYTE		PAN     c_v-1
	BYTE	W02
	BYTE		        c_v-4
	BYTE	W02
	BYTE		        c_v-8
	BYTE	W01
	BYTE		        c_v-12
	BYTE		N06     Bn2 
	BYTE	W02
	BYTE		PAN     c_v-16
	BYTE	W02
	BYTE		        c_v-20
	BYTE	W01
	BYTE		        c_v-24
	BYTE	W01
	BYTE		N06     As2 
	BYTE	W01
	BYTE		PAN     c_v-28
	BYTE	W01
	BYTE		        c_v-32
	BYTE	W02
	BYTE		        c_v-35
	BYTE	W02
	BYTE		        c_v-39
	BYTE		N06     An2 
	BYTE	W01
	BYTE		PAN     c_v-42
	BYTE	W02
	BYTE		        c_v-45
	BYTE	W02
	BYTE		        c_v-48
	BYTE	W01
	BYTE		        c_v-50
	BYTE		N06     As2 
	BYTE	W02
	BYTE		PAN     c_v-52
	BYTE	W01
	BYTE		        c_v-54
	BYTE	W02
	BYTE		        c_v-56
	BYTE	W01
	BYTE		N06     Bn2 
	BYTE	W01
	BYTE		PAN     c_v-58
	BYTE	W01
	BYTE		        c_v-59
	BYTE	W03
	BYTE		        c_v-60
	BYTE	W01
	BYTE		N06     As2 
	BYTE	W06
	BYTE		        An2 
	BYTE	W02
	BYTE		PAN     c_v-59
	BYTE	W03
	BYTE		        c_v-58
	BYTE	W01
	BYTE		        c_v-55
	BYTE		N06     As2 
	BYTE	W02
	BYTE		PAN     c_v-54
	BYTE	W02
	BYTE		        c_v-52
	BYTE	W01
	BYTE		        c_v-49
	BYTE	W01
	BYTE		N06     Bn2 
	BYTE	W01
	BYTE		PAN     c_v-46
	BYTE	W02
	BYTE		        c_v-44
	BYTE	W01
	BYTE		        c_v-40
	BYTE	W02
	BYTE		        c_v-38
	BYTE		N06     As2 
	BYTE	W01
	BYTE		PAN     c_v-35
	BYTE	W02
	BYTE		        c_v-30
	BYTE	W02
	BYTE		        c_v-26
	BYTE	W01
	BYTE		        c_v-24
	BYTE		N06     An2 
	BYTE	W02
	BYTE		PAN     c_v-19
	BYTE	W01
	BYTE		        c_v-15
	BYTE	W02
	BYTE		        c_v-12
	BYTE	W01
	BYTE		N06     As2 
	BYTE	W01
	BYTE		PAN     c_v-8
	BYTE	W01
	BYTE		        c_v-4
	BYTE	W02
	BYTE		        c_v+0
	BYTE	W02
	BYTE		        c_v+5
	BYTE		N06     Bn2 
	BYTE	W01
	BYTE		PAN     c_v+9
	BYTE	W02
	BYTE		        c_v+14
	BYTE	W01
	BYTE		        c_v+16
	BYTE	W02
	BYTE		        c_v+20
	BYTE		N06     As2 
	BYTE	W02
	BYTE		PAN     c_v+24
	BYTE	W01
	BYTE		        c_v+28
	BYTE	W02
	BYTE		        c_v+32
	BYTE	W01
	BYTE		N06     An2 
	BYTE	W01
	BYTE		PAN     c_v+35
	BYTE	W01
	BYTE		        c_v+38
	BYTE	W02
	BYTE		        c_v+40
	BYTE	W01
	BYTE		        c_v+43
	BYTE	W01
	BYTE		N06     As2 
	BYTE	W01
	BYTE		PAN     c_v+44
	BYTE	W02
	BYTE		        c_v+48
	BYTE	W01
	BYTE		        c_v+49
	BYTE	W02
	BYTE		        c_v+50
	BYTE		N06     Bn2 
	BYTE	W02
	BYTE		PAN     c_v+53
	BYTE	W04
	BYTE		        c_v+54
	BYTE		N06     As2 
	BYTE	W06
	BYTE		        An2 
	BYTE	W01
	BYTE		PAN     c_v+53
	BYTE	W03
	BYTE		        c_v+52
	BYTE	W02
	BYTE		        c_v+50
	BYTE		N06     As2 
	BYTE	W01
	BYTE		PAN     c_v+49
	BYTE	W02
	BYTE		        c_v+46
	BYTE	W02
	BYTE		        c_v+44
	BYTE	W01
	BYTE		        c_v+42
	BYTE		N06     Bn2 
	BYTE	W02
	BYTE		PAN     c_v+39
	BYTE	W01
	BYTE		        c_v+36
	BYTE	W02
	BYTE		        c_v+34
	BYTE	W01
	BYTE		N06     As2 
	BYTE	W01
	BYTE		PAN     c_v+30
	BYTE	W01
	BYTE		        c_v+26
	BYTE	W02
	BYTE		        c_v+24
	BYTE	W02
	BYTE		        c_v+19
	BYTE		N06     An2 
	BYTE	W01
	BYTE		PAN     c_v+15
	BYTE	W02
	BYTE		        c_v+12
	BYTE	W01
	BYTE		        c_v+8
	BYTE	W02
	BYTE		        c_v+4
	BYTE		N06     As2 
	BYTE	W02
	BYTE		PAN     c_v-1
	BYTE	W01
	BYTE		        c_v-5
	BYTE	W02
	BYTE		        c_v-10
	BYTE	W01
	BYTE		        c_v-12
	BYTE		N06     Fs2   v088
	BYTE	W01
	BYTE	W01
	BYTE		PAN     c_v-16
	BYTE	W02
	BYTE		        c_v-20
	BYTE	W01
	BYTE		        c_v-25
	BYTE	W01
	BYTE		N06     Fn2 
	BYTE	W01
	BYTE		PAN     c_v-28
	BYTE	W02
	BYTE		        c_v-32
	BYTE	W01
	BYTE		        c_v-35
	BYTE	W02
	BYTE		        c_v-39
	BYTE		N06     En2 
	BYTE	W01
	BYTE		PAN     c_v-42
	BYTE	W02
	BYTE		        c_v-45
	BYTE	W02
	BYTE		        c_v-48
	BYTE	W01
	BYTE		        c_v-50
	BYTE		N06     Fn2 
	BYTE	W02
	BYTE		PAN     c_v-52
	BYTE	W02
	BYTE		        c_v-54
	BYTE	W01
	BYTE		        c_v-56
	BYTE	W01
	BYTE		N06     Fs2 
	BYTE	W01
	BYTE		PAN     c_v-58
	BYTE	W01
	BYTE		        c_v-59
	BYTE	W04
	BYTE		        c_v-60
	BYTE		N06     Fn2 
	BYTE	W06
	BYTE		PAN     c_v-59
	BYTE		N06     En2 
	BYTE	W05
	BYTE		PAN     c_v-56
	BYTE	W01
	BYTE		N06     Fn2 
	BYTE	W01
	BYTE		PAN     c_v-55
	BYTE	W01
	BYTE		        c_v-54
	BYTE	W02
	BYTE		        c_v-52
	BYTE	W01
	BYTE		        c_v-49
	BYTE	W01
	BYTE		N06     Fs2 
	BYTE	W01
	BYTE		PAN     c_v-46
	BYTE	W02
	BYTE		        c_v-44
	BYTE	W01
	BYTE		        c_v-40
	BYTE	W02
	BYTE		        c_v-38
	BYTE		N06     Fn2 
	BYTE	W02
	BYTE		PAN     c_v-34
	BYTE	W01
	BYTE		        c_v-30
	BYTE	W02
	BYTE		        c_v-26
	BYTE	W01
	BYTE		        c_v-24
	BYTE		N06     En2 
	BYTE	W02
	BYTE		PAN     c_v-19
	BYTE	W02
	BYTE		        c_v-15
	BYTE	W01
	BYTE		        c_v-11
	BYTE	W01
	BYTE		N06     Fn2 
	BYTE	W01
	BYTE		PAN     c_v-6
	BYTE	W02
	BYTE		        c_v-4
	BYTE	W01
	BYTE		        c_v+0
	BYTE	W02
	BYTE		        c_v+5
	BYTE		N06     Fs2 
	BYTE	W01
	BYTE		PAN     c_v+9
	BYTE	W02
	BYTE		        c_v+14
	BYTE	W02
	BYTE		        c_v+18
	BYTE	W01
	BYTE		        c_v+20
	BYTE		N06     Fn2 
	BYTE	W02
	BYTE		PAN     c_v+25
	BYTE	W01
	BYTE		        c_v+28
	BYTE	W02
	BYTE		        c_v+32
	BYTE	W01
	BYTE		N06     En2 
	BYTE	W01
	BYTE		PAN     c_v+35
	BYTE	W01
	BYTE		        c_v+38
	BYTE	W02
	BYTE		        c_v+40
	BYTE	W02
	BYTE		        c_v+43
	BYTE		N06     Fn2 
	BYTE	W01
	BYTE		PAN     c_v+46
	BYTE	W02
	BYTE		        c_v+48
	BYTE	W01
	BYTE		        c_v+49
	BYTE	W02
	BYTE		        c_v+50
	BYTE		N06     Fs2 
	BYTE	W01
	BYTE	W01
	BYTE		PAN     c_v+53
	BYTE	W04
	BYTE		N06     Fn2 
	BYTE	W01
	BYTE		PAN     c_v+54
	BYTE	W05
	BYTE		N06     En2 
	BYTE	W01
	BYTE		PAN     c_v+53
	BYTE	W03
	BYTE		        c_v+52
	BYTE	W02
	BYTE		        c_v+50
	BYTE		N06     Fn2 
	BYTE	W02
	BYTE		PAN     c_v+48
	BYTE	W01
	BYTE		        c_v+46
	BYTE	W02
	BYTE		        c_v+44
	BYTE	W01
	BYTE		        c_v+42
	BYTE		N06     Fs2 
	BYTE	W02
	BYTE		PAN     c_v+39
	BYTE	W02
	BYTE		        c_v+36
	BYTE	W01
	BYTE		        c_v+34
	BYTE	W01
	BYTE		N06     Fn2 
	BYTE	W01
	BYTE		PAN     c_v+29
	BYTE	W01
	BYTE		        c_v+26
	BYTE	W02
	BYTE		        c_v+22
	BYTE	W02
	BYTE		        c_v+19
	BYTE		N06     En2 
	BYTE	W01
	BYTE		PAN     c_v+15
	BYTE	W02
	BYTE		        c_v+10
	BYTE	W02
	BYTE		        c_v+6
	BYTE	W01
	BYTE		        c_v+4
	BYTE		N06     Fn2 
	BYTE	W02
	BYTE		PAN     c_v-1
	BYTE	W01
	BYTE		        c_v-5
	BYTE	W02
	BYTE		        c_v-10
	BYTE	W01
	BYTE		N06     Fs2 
	BYTE	W01
	BYTE		PAN     c_v-14
	BYTE	W01
	BYTE		        c_v-18
	BYTE	W02
	BYTE		        c_v-20
	BYTE	W02
	BYTE		        c_v-25
	BYTE		N06     Fn2 
	BYTE	W01
	BYTE		PAN     c_v-29
	BYTE	W02
	BYTE		        c_v-32
	BYTE	W01
	BYTE		        c_v-36
	BYTE	W02
	BYTE		        c_v-39
	BYTE		N06     En2 
	BYTE	W02
	BYTE		PAN     c_v-42
	BYTE	W01
	BYTE		        c_v-45
	BYTE	W02
	BYTE		        c_v-48
	BYTE	W01
	BYTE		        c_v-50
	BYTE		N06     Fn2 
	BYTE	W02
	BYTE		PAN     c_v-52
	BYTE	W02
	BYTE		        c_v-55
	BYTE	W01
	BYTE		        c_v-56
	BYTE	W01
	BYTE		N06     Fs2 
	BYTE	W01
	BYTE		PAN     c_v-58
	BYTE	W02
	BYTE		        c_v-59
	BYTE	W03
	BYTE		        c_v-60
	BYTE		N06     Fn2 
	BYTE	W06
	BYTE		PAN     c_v-59
	BYTE		N06     En2 
	BYTE	W05
	BYTE		PAN     c_v-56
	BYTE	W01
	BYTE		N06     Fn2 
	BYTE	W01
	BYTE		PAN     c_v-55
	BYTE	W01
	BYTE		        c_v-54
	BYTE	W02
	BYTE		        c_v-50
	BYTE	W02
	BYTE		        c_v-49
	BYTE	W01
	BYTE	W96
	BYTE	W96
	BYTE	W96
	BYTE	W96
	BYTE	W96
	BYTE	W96
	BYTE	W96
	BYTE	W96
	BYTE	W96
	BYTE	W72
	BYTE	W72
	BYTE	W72
	BYTE	W72
	BYTE	W48
	BYTE	W96
	BYTE	W96
	BYTE	W96
	BYTE	W96
	BYTE	W96
	BYTE	W96
	BYTE	W96
	BYTE	W96
	BYTE	W96
	BYTE		VOICE   70
	BYTE		VOL     34*seq_009_mvl/mxv
	BYTE		PAN     c_v-64
	BYTE		BENDR   5
	BYTE		BEND    c_v+0
	BYTE	W06
	BYTE		N24     En2   v100
	BYTE	W24
	BYTE		N23     Fs2 
	BYTE	W24
	BYTE		N15     Gn2 
	BYTE	W16
	BYTE		        Dn3 
	BYTE	W16
	BYTE		        Cs3 
	BYTE	W10
	BYTE	W06
	BYTE		N68     Cn3 
	BYTE	W72
	BYTE		N06     An2   v127
	BYTE	W06
	BYTE		        Bn2 
	BYTE	W06
	BYTE		N12     Cn3   v104
	BYTE	W06
	BYTE	W06
	BYTE		TIE     Bn2   v100
	BYTE	W90
	BYTE	W12
	BYTE		EOT
	BYTE		N24     Bn2   v036
	BYTE	W84
	BYTE	W96
	BYTE	W96
	BYTE	W96
	BYTE	W96
	BYTE	W96
	BYTE	W96
	BYTE	W96
	BYTE	W96
	BYTE	W96
	BYTE	W96
	BYTE	W96
	BYTE	W96
	BYTE	W96
	BYTE	W96
	BYTE	W96
	BYTE	W96
	BYTE	W96
	BYTE	W96
	BYTE	W96
	BYTE	W96
	BYTE	W96
	BYTE	W96
	BYTE	W96
	BYTE	W96
	BYTE	W96
	BYTE	W96
	BYTE	W96
	BYTE	W96
	BYTE	W96
	BYTE	W96
	BYTE	W96
	BYTE	W96
	BYTE	W96
	BYTE	W96
	BYTE	W96
	BYTE	W96
	BYTE	W96
	BYTE	W96
	BYTE	W96
	BYTE	W96
	BYTE	GoTo
	 POIN2	seq_009_2 + 0x4F1
	BYTE	FINE

//*********************** Track 04 ***********************//

seq_009_3:
	BYTE	KEYSH   seq_009_key+0
	BYTE		VOICE   40
	BYTE		VOL     56*seq_009_mvl/mxv
	BYTE		PAN     c_v+0
	BYTE		BENDR   3
	BYTE		BEND    c_v+0
	BYTE	W03
	BYTE		N06     Bn2   v092
	BYTE	W06
	BYTE		        As2 
	BYTE	W06
	BYTE		        An2 
	BYTE	W06
	BYTE		        As2 
	BYTE	W06
	BYTE		        Bn2 
	BYTE	W06
	BYTE		        As2 
	BYTE	W06
	BYTE		        An2 
	BYTE	W06
	BYTE		        As2 
	BYTE	W06
	BYTE		        Bn2 
	BYTE	W06
	BYTE		        As2 
	BYTE	W06
	BYTE		        An2 
	BYTE	W06
	BYTE		        As2 
	BYTE	W06
	BYTE		        Bn2 
	BYTE	W06
	BYTE		        As2 
	BYTE	W06
	BYTE		        An2 
	BYTE	W06
	BYTE		        As2 
	BYTE	W06
	BYTE	PEND
	BYTE	PATT
	 POIN2	seq_009_3 + 0xD
	BYTE		N06     Fs2   v092
	BYTE	W06
	BYTE		        Fn2 
	BYTE	W06
	BYTE		        En2 
	BYTE	W06
	BYTE		        Fn2 
	BYTE	W06
	BYTE		        Fs2 
	BYTE	W06
	BYTE		        Fn2 
	BYTE	W06
	BYTE		        En2 
	BYTE	W06
	BYTE		        Fn2 
	BYTE	W06
	BYTE		        Fs2 
	BYTE	W06
	BYTE		        Fn2 
	BYTE	W06
	BYTE		        En2 
	BYTE	W06
	BYTE		        Fn2 
	BYTE	W06
	BYTE		        Fs2 
	BYTE	W06
	BYTE		        Fn2 
	BYTE	W06
	BYTE		        En2 
	BYTE	W06
	BYTE		        Fn2 
	BYTE	W06
	BYTE	PEND
	BYTE	PATT
	 POIN2	seq_009_3 + 0x35
	BYTE	PATT
	 POIN2	seq_009_3 + 0xD
	BYTE	PATT
	 POIN2	seq_009_3 + 0xD
	BYTE	PATT
	 POIN2	seq_009_3 + 0x35
	BYTE		N06     Fs2   v092
	BYTE	W06
	BYTE		        Fn2 
	BYTE	W06
	BYTE		        En2 
	BYTE	W06
	BYTE		        Fn2 
	BYTE	W06
	BYTE		        Fs2 
	BYTE	W06
	BYTE		        Fn2 
	BYTE	W06
	BYTE		        En2 
	BYTE	W06
	BYTE		        Fn2 
	BYTE	W06
	BYTE		        Fs2 
	BYTE	W06
	BYTE		        Fn2 
	BYTE	W06
	BYTE		        En2 
	BYTE	W06
	BYTE		        Fn2 
	BYTE	W06
	BYTE		        Fs2 
	BYTE	W06
	BYTE		        Fn2 
	BYTE	W06
	BYTE		        En2 
	BYTE	W06
	BYTE		N05     Fn2 
	BYTE	W05
	BYTE		PAN     c_v+36
	BYTE	W01
	BYTE		N48     Bn1   v120
	BYTE	W44
	BYTE	W03
	BYTE		N06     Fs1 
	BYTE	W06
	BYTE		        Gn1 
	BYTE	W06
	BYTE		        An1 
	BYTE	W06
	BYTE		        As1 
	BYTE	W06
	BYTE		N24     Bn1 
	BYTE	W24
	BYTE		N48     Fn2 
	BYTE	W01
	BYTE	PEND
	BYTE	W44
	BYTE	W03
	BYTE		N06     Bn1   v120
	BYTE	W06
	BYTE		        Cn2 
	BYTE	W06
	BYTE		        Dn2 
	BYTE	W06
	BYTE		        En2 
	BYTE	W06
	BYTE		N24     Fn2 
	BYTE	W24
	BYTE		N48     Fs2 
	BYTE	W01
	BYTE	PEND
	BYTE	W44
	BYTE	W03
	BYTE		N06     Bn1   v120
	BYTE	W06
	BYTE		        Cs2 
	BYTE	W06
	BYTE		        Dn2 
	BYTE	W06
	BYTE		        En2 
	BYTE	W06
	BYTE		N24     Fs2 
	BYTE	W24
	BYTE		N48     Fn2 
	BYTE	W01
	BYTE	PEND
	BYTE	W44
	BYTE	W03
	BYTE		N06     Bn1   v120
	BYTE	W06
	BYTE		        Cn2 
	BYTE	W06
	BYTE		        Dn2 
	BYTE	W06
	BYTE		        En2 
	BYTE	W06
	BYTE		N24     Fn2 
	BYTE	W24
	BYTE		N48     Bn1 
	BYTE	W01
	BYTE	PEND
	BYTE	W44
	BYTE	W03
	BYTE		N06     Fs1   v120
	BYTE	W06
	BYTE		        Gn1 
	BYTE	W06
	BYTE		        An1 
	BYTE	W06
	BYTE		        As1 
	BYTE	W06
	BYTE		N24     Bn1 
	BYTE	W24
	BYTE		N48     Fn2 
	BYTE	W01
	BYTE	PEND
	BYTE	PATT
	 POIN2	seq_009_3 + 0xA7
	BYTE	W44
	BYTE	W03
	BYTE		N06     Bn1   v120
	BYTE	W06
	BYTE		        Cn2 
	BYTE	W06
	BYTE		        Dn2 
	BYTE	W06
	BYTE		        En2 
	BYTE	W06
	BYTE		N24     Fs2 
	BYTE	W24
	BYTE		N48     Fn2 
	BYTE	W01
	BYTE	PEND
	BYTE	W44
	BYTE	W03
	BYTE		N06     Bn1 
	BYTE	W06
	BYTE		        Cn2 
	BYTE	W06
	BYTE		        Dn2 
	BYTE	W06
	BYTE		        En2 
	BYTE	W06
	BYTE		N24     Fn2 
	BYTE	W24
	BYTE		N12     En2   v080
	BYTE	W01
	BYTE	W11
	BYTE		        Ds2 
	BYTE	W12
	BYTE		        Fs1 
	BYTE	W12
	BYTE		        Gn1 
	BYTE	W12
	BYTE		        Dn2 
	BYTE	W12
	BYTE		        Cs2 
	BYTE	W12
	BYTE		        Cn2 
	BYTE	W12
	BYTE		        Bn1 
	BYTE	W12
	BYTE		        Fn1 
	BYTE	W01
	BYTE	W11
	BYTE		        Fs1 
	BYTE	W12
	BYTE		        Bn1 
	BYTE	W12
	BYTE		        An1 
	BYTE	W12
	BYTE		N24     Gn1 
	BYTE	W24
	BYTE		N12     En1 
	BYTE	W01
	BYTE	W11
	BYTE		N24     An1 
	BYTE	W24
	BYTE		N12     En1 
	BYTE	W12
	BYTE		N24     As1 
	BYTE	W24
	BYTE		N12     En1 
	BYTE	W01
	BYTE	W11
	BYTE		N24     An1 
	BYTE	W24
	BYTE		N12     En1 
	BYTE	W12
	BYTE		N06     Gn1   v116
	BYTE	W06
	BYTE		        Fs1 
	BYTE	W06
	BYTE		        En1 
	BYTE	W06
	BYTE		        Fs1 
	BYTE	W06
	BYTE		N12     Gn1   v080
	BYTE	W01
	BYTE	W11
	BYTE		        Gn1   v040
	BYTE	W12
	BYTE		        En2   v080
	BYTE	W12
	BYTE		        Ds2 
	BYTE	W12
	BYTE		        Fs1 
	BYTE	W12
	BYTE		        Gn1 
	BYTE	W12
	BYTE		        Bn1 
	BYTE	W01
	BYTE	W11
	BYTE		        Gn1 
	BYTE	W12
	BYTE		        Dn2 
	BYTE	W12
	BYTE		        Cs2 
	BYTE	W12
	BYTE		        Cn2 
	BYTE	W01
	BYTE	W11
	BYTE		        Bn1 
	BYTE	W12
	BYTE		        Fn1 
	BYTE	W12
	BYTE		        Fs1 
	BYTE	W12
	BYTE		        An1 
	BYTE	W12
	BYTE		        Fs1 
	BYTE	W12
	BYTE		        Bn1 
	BYTE	W12
	BYTE		        An1 
	BYTE	W13
	BYTE	PATT
	 POIN2	seq_009_3 + 0x92
	BYTE	PATT
	 POIN2	seq_009_3 + 0xA7
	BYTE	PATT
	 POIN2	seq_009_3 + 0xBA
	BYTE	PATT
	 POIN2	seq_009_3 + 0xCD
	BYTE	PATT
	 POIN2	seq_009_3 + 0xE0
	BYTE	PATT
	 POIN2	seq_009_3 + 0xA7
	BYTE	PATT
	 POIN2	seq_009_3 + 0xF8
	BYTE	W44
	BYTE	W03
	BYTE		N06     Bn1   v120
	BYTE	W06
	BYTE		        Cn2 
	BYTE	W06
	BYTE		        Dn2 
	BYTE	W06
	BYTE		        En2 
	BYTE	W06
	BYTE		N24     Fn2 
	BYTE	W24
	BYTE	W01
	BYTE	W96
	BYTE	W96
	BYTE	W96
	BYTE	W96
	BYTE	W12
	BYTE		N04     En3   v124
	BYTE	W04
	BYTE		        Fs3 
	BYTE	W04
	BYTE		        Gn3 
	BYTE	W04
	BYTE		N18     Bn3 
	BYTE	W18
	BYTE		N06     Bn3   v076
	BYTE	W18
	BYTE		N04     Dn3   v124
	BYTE	W04
	BYTE		        En3 
	BYTE	W04
	BYTE		        Fs3 
	BYTE	W04
	BYTE		N18     As3 
	BYTE	W18
	BYTE		N06     As3   v076
	BYTE	W06
	BYTE	W12
	BYTE		N04     Fn3   v127
	BYTE	W04
	BYTE		        Gn3 
	BYTE	W04
	BYTE		        An3 
	BYTE	W04
	BYTE		N18     Cn4   v124
	BYTE	W18
	BYTE		N06     Cn4   v076
	BYTE	W18
	BYTE		N04     En3   v124
	BYTE	W04
	BYTE		        Fs3 
	BYTE	W04
	BYTE		        Gn3 
	BYTE	W04
	BYTE		N18     Bn3 
	BYTE	W18
	BYTE		N06     Bn3   v076
	BYTE	W06
	BYTE		N96     Bn2   v052
	BYTE	W96
	BYTE		        Cn3 
	BYTE	W96
	BYTE		N96
	BYTE	W96
	BYTE		N96
	BYTE	W96
	BYTE		N12     Cn3   v100
	BYTE	W12
	BYTE		        Cn3   v036
	BYTE	W24
	BYTE		        Cn3   v100
	BYTE	W12
	BYTE		        Cn3   v036
	BYTE	W24
	BYTE		        Cn3   v100
	BYTE	W12
	BYTE		        Cn3   v036
	BYTE	W12
	BYTE	PEND
	BYTE	W12
	BYTE		N12     Cn3   v100
	BYTE	W12
	BYTE		        Cn3   v036
	BYTE	W24
	BYTE		        Cn3   v100
	BYTE	W12
	BYTE		        Cn3   v036
	BYTE	W12
	BYTE		        Cn3   v100
	BYTE	W12
	BYTE		        Cn3   v036
	BYTE	W12
	BYTE	PEND
	BYTE		N48     Bn2   v096
	BYTE	W48
	BYTE		        En3   v120
	BYTE	W48
	BYTE		        Gn3   v127
	BYTE	W48
	BYTE		        En3   v112
	BYTE	W48
	BYTE		N12     An2   v100
	BYTE	W12
	BYTE		        An2   v036
	BYTE	W24
	BYTE		        An2   v100
	BYTE	W12
	BYTE		        An2   v036
	BYTE	W24
	BYTE		        An2   v100
	BYTE	W12
	BYTE		        An2   v036
	BYTE	W12
	BYTE	W12
	BYTE		        An2   v100
	BYTE	W12
	BYTE		        An2   v036
	BYTE	W24
	BYTE		        An2   v100
	BYTE	W12
	BYTE		        An2   v036
	BYTE	W12
	BYTE		        An2   v100
	BYTE	W12
	BYTE		        An2   v036
	BYTE	W12
	BYTE		N48     Bn2   v100
	BYTE	W48
	BYTE		        En3   v120
	BYTE	W48
	BYTE	PEND
	BYTE		        Gs3   v127
	BYTE	W48
	BYTE		        En3   v104
	BYTE	W48
	BYTE	PATT
	 POIN2	seq_009_3 + 0x204
	BYTE	PATT
	 POIN2	seq_009_3 + 0x218
	BYTE	PATT
	 POIN2	seq_009_3 + 0x260
	BYTE		N48     Gs3   v127
	BYTE	W48
	BYTE		        En3   v116
	BYTE	W48
	BYTE		N12     Dn3   v076
	BYTE	W12
	BYTE		        Dn3   v036
	BYTE	W24
	BYTE		        En3   v076
	BYTE	W12
	BYTE		        En3   v036
	BYTE	W24
	BYTE		        Fn3   v076
	BYTE	W12
	BYTE		        Fn3   v036
	BYTE	W12
	BYTE	W12
	BYTE		        En3   v076
	BYTE	W12
	BYTE		        En3   v036
	BYTE	W24
	BYTE		        Dn3   v076
	BYTE	W12
	BYTE		        Dn3   v036
	BYTE	W12
	BYTE		        Fn3   v076
	BYTE	W12
	BYTE		        Fn3   v036
	BYTE	W12
	BYTE		TIE     En3   v060
	BYTE	W96
	BYTE	W14
	BYTE		VOL     56*seq_009_mvl/mxv
	BYTE	W02
	BYTE		        55*seq_009_mvl/mxv
	BYTE	W02
	BYTE		        54*seq_009_mvl/mxv
	BYTE	W02
	BYTE		        53*seq_009_mvl/mxv
	BYTE	W02
	BYTE		        52*seq_009_mvl/mxv
	BYTE	W02
	BYTE		        51*seq_009_mvl/mxv
	BYTE	W03
	BYTE		        50*seq_009_mvl/mxv
	BYTE	W02
	BYTE		        49*seq_009_mvl/mxv
	BYTE	W02
	BYTE		        48*seq_009_mvl/mxv
	BYTE	W02
	BYTE		        47*seq_009_mvl/mxv
	BYTE	W02
	BYTE		        46*seq_009_mvl/mxv
	BYTE	W02
	BYTE		        45*seq_009_mvl/mxv
	BYTE	W03
	BYTE		        44*seq_009_mvl/mxv
	BYTE	W02
	BYTE		        44*seq_009_mvl/mxv
	BYTE	W02
	BYTE		        42*seq_009_mvl/mxv
	BYTE	W02
	BYTE		        42*seq_009_mvl/mxv
	BYTE	W02
	BYTE		        40*seq_009_mvl/mxv
	BYTE	W02
	BYTE		        39*seq_009_mvl/mxv
	BYTE	W03
	BYTE		        39*seq_009_mvl/mxv
	BYTE	W02
	BYTE		        38*seq_009_mvl/mxv
	BYTE	W02
	BYTE		        37*seq_009_mvl/mxv
	BYTE	W02
	BYTE		        36*seq_009_mvl/mxv
	BYTE	W02
	BYTE		        35*seq_009_mvl/mxv
	BYTE	W02
	BYTE		        34*seq_009_mvl/mxv
	BYTE	W03
	BYTE		        33*seq_009_mvl/mxv
	BYTE	W02
	BYTE		        32*seq_009_mvl/mxv
	BYTE	W02
	BYTE		        31*seq_009_mvl/mxv
	BYTE	W02
	BYTE		        30*seq_009_mvl/mxv
	BYTE	W02
	BYTE		        29*seq_009_mvl/mxv
	BYTE	W02
	BYTE		        28*seq_009_mvl/mxv
	BYTE	W08
	BYTE		EOT
	BYTE		N11     En3   v040
	BYTE	W11
	BYTE		VOL     69*seq_009_mvl/mxv
	BYTE	W01
	BYTE		N06     An3   v127
	BYTE	W06
	BYTE		        An3   v056
	BYTE	W06
	BYTE		        An3   v127
	BYTE	W06
	BYTE		        An3   v056
	BYTE	W06
	BYTE		        An3   v127
	BYTE	W06
	BYTE		        An3   v056
	BYTE	W06
	BYTE		        An3   v127
	BYTE	W06
	BYTE		        An3   v056
	BYTE	W06
	BYTE		        An3   v127
	BYTE	W06
	BYTE		        An3   v056
	BYTE	W06
	BYTE		        An3   v127
	BYTE	W06
	BYTE		        An3   v056
	BYTE	W06
	BYTE		        An3   v127
	BYTE	W06
	BYTE		        An3   v056
	BYTE	W06
	BYTE		        An3   v127
	BYTE	W06
	BYTE		        An3   v056
	BYTE	W06
	BYTE	PEND
	BYTE	PATT
	 POIN2	seq_009_3 + 0x2F4
	BYTE	PATT
	 POIN2	seq_009_3 + 0x2F4
	BYTE	PATT
	 POIN2	seq_009_3 + 0x2F4
	BYTE	PATT
	 POIN2	seq_009_3 + 0x2F4
	BYTE	PATT
	 POIN2	seq_009_3 + 0x2F4
	BYTE		N12     An3   v127
	BYTE	W12
	BYTE		        Cn4 
	BYTE	W12
	BYTE		        Gn4   v112
	BYTE	W12
	BYTE		        Fs4 
	BYTE	W12
	BYTE		        Gn3   v127
	BYTE	W12
	BYTE		        As3 
	BYTE	W12
	BYTE		        Fn4   v112
	BYTE	W12
	BYTE		        En4 
	BYTE	W12
	BYTE		        Fs3   v127
	BYTE	W12
	BYTE		        An3 
	BYTE	W12
	BYTE		        En4   v112
	BYTE	W12
	BYTE		        Ds4 
	BYTE	W12
	BYTE		        Fn3   v127
	BYTE	W12
	BYTE		        Gs3 
	BYTE	W12
	BYTE		        Ds4   v124
	BYTE	W12
	BYTE		        Dn4 
	BYTE	W12
	BYTE		N06     Bn3   v124
	BYTE	W06
	BYTE		        Bn3   v064
	BYTE	W06
	BYTE		        Bn3   v124
	BYTE	W06
	BYTE		        Bn3   v064
	BYTE	W06
	BYTE		        Bn3   v124
	BYTE	W06
	BYTE		        Bn3   v064
	BYTE	W06
	BYTE		        Bn3   v124
	BYTE	W06
	BYTE		        Bn3   v064
	BYTE	W06
	BYTE		        Bn3   v124
	BYTE	W06
	BYTE		        Bn3   v064
	BYTE	W06
	BYTE		        Bn3   v124
	BYTE	W06
	BYTE		        Bn3   v064
	BYTE	W06
	BYTE		        Bn3   v124
	BYTE	W06
	BYTE		        Bn3   v064
	BYTE	W06
	BYTE		        Bn3   v124
	BYTE	W06
	BYTE		        Bn3   v064
	BYTE	W06
	BYTE	PEND
	BYTE	PATT
	 POIN2	seq_009_3 + 0x368
	BYTE	PATT
	 POIN2	seq_009_3 + 0x368
	BYTE	PATT
	 POIN2	seq_009_3 + 0x368
	BYTE	PATT
	 POIN2	seq_009_3 + 0x368
	BYTE	PATT
	 POIN2	seq_009_3 + 0x368
	BYTE		N36     Bn3   v124
	BYTE	W36
	BYTE		        An3   v100
	BYTE	W36
	BYTE		N12     Gs3 
	BYTE	W12
	BYTE		        Gs3   v044
	BYTE	W12
	BYTE	W96
	BYTE		N36     Gn3   v092
	BYTE	W36
	BYTE		        Fs3 
	BYTE	W36
	BYTE		N12     Fn3 
	BYTE	W12
	BYTE		        Fn3   v040
	BYTE	W12
	BYTE	W24
	BYTE		VOL     56*seq_009_mvl/mxv
	BYTE	W72
	BYTE	GoTo
	 POIN2	seq_009_3 + 0x92
	BYTE	FINE

//*********************** Track 05 ***********************//

seq_009_4:
	BYTE	KEYSH   seq_009_key+0
	BYTE		VOICE   65
	BYTE		VOL     68*seq_009_mvl/mxv
	BYTE		PAN     c_v-44
	BYTE		BENDR   3
	BYTE		BEND    c_v+0
	BYTE	W03
	BYTE		N48     Bn3   v080
	BYTE	W48
	BYTE		        Fn4   v104
	BYTE	W48
	BYTE		        Fs4   v116
	BYTE	W48
	BYTE		        Fn4   v092
	BYTE	W48
	BYTE		        Fs3   v080
	BYTE	W48
	BYTE		        Cn4 
	BYTE	W48
	BYTE		        Cs4 
	BYTE	W48
	BYTE		        Cn4 
	BYTE	W48
	BYTE		        Bn3   v084
	BYTE	W48
	BYTE		        Fn4   v108
	BYTE	W48
	BYTE		        Fs4   v124
	BYTE	W48
	BYTE		        Fn4   v120
	BYTE	W48
	BYTE		        Fs3   v112
	BYTE	W48
	BYTE		        Cn4   v116
	BYTE	W48
	BYTE		        Cs4   v112
	BYTE	W48
	BYTE		N44     Cn4   v108
	BYTE	W48
	BYTE		N68     Bn3   v100
	BYTE	W72
	BYTE		N06     Bn3   v116
	BYTE	W06
	BYTE		        Cs4 
	BYTE	W06
	BYTE		        Dn4 
	BYTE	W06
	BYTE		        En4 
	BYTE	W06
	BYTE	PEND
	BYTE		N96     Fn4   v100
	BYTE	W96
	BYTE		        Fs4 
	BYTE	W96
	BYTE		        Fn4 
	BYTE	W96
	BYTE		N68     Bn3   v100
	BYTE	W72
	BYTE		N06     Bn3   v127
	BYTE	W06
	BYTE		        Cs4 
	BYTE	W06
	BYTE		        Dn4 
	BYTE	W06
	BYTE		        En4 
	BYTE	W06
	BYTE	PEND
	BYTE		N96     Fn4   v100
	BYTE	W96
	BYTE		        Fs4 
	BYTE	W96
	BYTE		        Fn4 
	BYTE	W96
	BYTE		N12     En4   v080
	BYTE	W12
	BYTE		        Ds4 
	BYTE	W12
	BYTE		        Fs3 
	BYTE	W12
	BYTE		        Gn3 
	BYTE	W12
	BYTE		        Dn4 
	BYTE	W12
	BYTE		        Cs4 
	BYTE	W12
	BYTE		        Cn4 
	BYTE	W12
	BYTE		        Bn3 
	BYTE	W12
	BYTE		        Fn3 
	BYTE	W12
	BYTE		        Fs3 
	BYTE	W12
	BYTE		        Bn3 
	BYTE	W12
	BYTE		        An3 
	BYTE	W12
	BYTE		N24     Gn3 
	BYTE	W24
	BYTE		N12     En3 
	BYTE	W12
	BYTE		N24     An3 
	BYTE	W24
	BYTE		N12     En3 
	BYTE	W12
	BYTE		N24     As3 
	BYTE	W24
	BYTE		N12     En3 
	BYTE	W12
	BYTE		N24     An3 
	BYTE	W24
	BYTE		N12     En3 
	BYTE	W12
	BYTE		N06     Gn3 
	BYTE	W06
	BYTE		        Fs3 
	BYTE	W06
	BYTE		        En3 
	BYTE	W06
	BYTE		        Fs3 
	BYTE	W06
	BYTE		N12     Gn3 
	BYTE	W12
	BYTE		        Gn3   v040
	BYTE	W12
	BYTE		        En4   v080
	BYTE	W12
	BYTE		        Ds4 
	BYTE	W12
	BYTE		        Fs3 
	BYTE	W12
	BYTE		        Gn3 
	BYTE	W12
	BYTE		        Bn3 
	BYTE	W12
	BYTE		        Gn3 
	BYTE	W12
	BYTE		        Dn4 
	BYTE	W12
	BYTE		        Cs4 
	BYTE	W12
	BYTE		        Cn4 
	BYTE	W12
	BYTE		        Bn3 
	BYTE	W12
	BYTE		        Fn3 
	BYTE	W12
	BYTE		        Fs3 
	BYTE	W12
	BYTE		        An3 
	BYTE	W12
	BYTE		        Fs3 
	BYTE	W12
	BYTE		        Bn3 
	BYTE	W12
	BYTE		        An3 
	BYTE	W12
	BYTE	PATT
	 POIN2	seq_009_4 + 0x3C
	BYTE		N96     Fn4   v100
	BYTE	W96
	BYTE		        Fs4 
	BYTE	W96
	BYTE		        Fn4 
	BYTE	W96
	BYTE	PATT
	 POIN2	seq_009_4 + 0x53
	BYTE		N96     Fn4   v100
	BYTE	W96
	BYTE		        Fs4 
	BYTE	W96
	BYTE		        Fn4 
	BYTE	W96
	BYTE		        Gn3   v080
	BYTE	W96
	BYTE		        An3 
	BYTE	W96
	BYTE		N48     Bn3 
	BYTE	W48
	BYTE		        An3 
	BYTE	W48
	BYTE		N48     Cn4   v080
	BYTE	W48
	BYTE		        Bn3 
	BYTE	W48
	BYTE	PEND
	BYTE		N48
	BYTE	W48
	BYTE		        As3 
	BYTE	W48
	BYTE	PATT
	 POIN2	seq_009_4 + 0xF0
	BYTE		N96     Gn3   v048
	BYTE	W96
	BYTE		        An3 
	BYTE	W96
	BYTE		        Gn3 
	BYTE	W96
	BYTE		        Fs3 
	BYTE	W96
	BYTE		N12     An3   v080
	BYTE	W12
	BYTE		        An3   v036
	BYTE	W24
	BYTE		        Bn3   v080
	BYTE	W12
	BYTE		        Bn3   v036
	BYTE	W48
	BYTE	PEND
	BYTE	W12
	BYTE		N12     Bn3   v080
	BYTE	W12
	BYTE		        Bn3   v036
	BYTE	W24
	BYTE		        An3   v080
	BYTE	W12
	BYTE		        An3   v036
	BYTE	W36
	BYTE	PEND
	BYTE		N48     Gn3   v080
	BYTE	W48
	BYTE		        An3 
	BYTE	W48
	BYTE	PEND
	BYTE		        Bn3 
	BYTE	W48
	BYTE		        Gn3 
	BYTE	W48
	BYTE		N12     Fn3 
	BYTE	W12
	BYTE		        Fn3   v036
	BYTE	W24
	BYTE		        Gn3   v080
	BYTE	W12
	BYTE		        Gn3   v036
	BYTE	W48
	BYTE	W12
	BYTE		        Gn3   v080
	BYTE	W12
	BYTE		        Gn3   v036
	BYTE	W24
	BYTE		        Fn3   v080
	BYTE	W12
	BYTE		        Fn3   v036
	BYTE	W36
	BYTE		N48     Gs3   v080
	BYTE	W48
	BYTE		        An3 
	BYTE	W48
	BYTE		N48     Bn3   v080
	BYTE	W48
	BYTE		        Gs3 
	BYTE	W48
	BYTE	PEND
	BYTE	PATT
	 POIN2	seq_009_4 + 0x10A
	BYTE	PATT
	 POIN2	seq_009_4 + 0x118
	BYTE	PATT
	 POIN2	seq_009_4 + 0x127
	BYTE	PATT
	 POIN2	seq_009_4 + 0x151
	BYTE		N12     As3   v080
	BYTE	W12
	BYTE		        As3   v036
	BYTE	W24
	BYTE		        As3   v080
	BYTE	W12
	BYTE		        As3   v036
	BYTE	W24
	BYTE		        As3   v080
	BYTE	W12
	BYTE		        As3   v036
	BYTE	W12
	BYTE	W12
	BYTE		        As3   v080
	BYTE	W12
	BYTE		        As3   v036
	BYTE	W24
	BYTE		        As3   v080
	BYTE	W12
	BYTE		        As3   v036
	BYTE	W12
	BYTE		        As3   v080
	BYTE	W12
	BYTE		        As3   v036
	BYTE	W12
	BYTE		TIE     Bn3   v064
	BYTE	W96
	BYTE	W96
	BYTE		EOT
	BYTE		N09     Cn4   v068
	BYTE	W10
	BYTE		        Cn4   v028
	BYTE	W24
	BYTE	W01
	BYTE		        Dn4   v068
	BYTE	W10
	BYTE		        Dn4   v028
	BYTE	W24
	BYTE	W02
	BYTE		        En4   v068
	BYTE	W10
	BYTE		        En4   v028
	BYTE	W15
	BYTE	W11
	BYTE		N36     Fs4   v068
	BYTE	W36
	BYTE		N09     En4 
	BYTE	W10
	BYTE		        En4   v028
	BYTE	W14
	BYTE		        Dn4   v068
	BYTE	W10
	BYTE		        Dn4   v028
	BYTE	W14
	BYTE		        Cn4   v068
	BYTE	W01
	BYTE	W09
	BYTE		        Cn4   v028
	BYTE	W24
	BYTE	W02
	BYTE		        Bn3   v068
	BYTE	W10
	BYTE		        Bn3   v028
	BYTE	W24
	BYTE	W02
	BYTE		        Cn4   v068
	BYTE	W10
	BYTE		        Cn4   v028
	BYTE	W15
	BYTE	W11
	BYTE		N36     Gn3   v068
	BYTE	W36
	BYTE		N09     Bn3 
	BYTE	W10
	BYTE		        Bn3   v028
	BYTE	W14
	BYTE		        Bn3   v068
	BYTE	W10
	BYTE		        Bn3   v028
	BYTE	W14
	BYTE		        Cn4   v068
	BYTE	W01
	BYTE	W09
	BYTE		        Cn4   v028
	BYTE	W24
	BYTE	W02
	BYTE		        Dn4   v068
	BYTE	W10
	BYTE		        Dn4   v028
	BYTE	W24
	BYTE	W02
	BYTE		        En4   v068
	BYTE	W10
	BYTE		        En4   v028
	BYTE	W15
	BYTE	W11
	BYTE		N36     Fs4   v068
	BYTE	W36
	BYTE		N09     En4 
	BYTE	W10
	BYTE		        En4   v028
	BYTE	W14
	BYTE		        Dn4   v068
	BYTE	W10
	BYTE		        Dn4   v028
	BYTE	W14
	BYTE		N48     Cn4   v068
	BYTE	W01
	BYTE	W44
	BYTE	W03
	BYTE		        As3 
	BYTE	W48
	BYTE		        An3 
	BYTE	W01
	BYTE	W44
	BYTE	W03
	BYTE		        Gs3 
	BYTE	W48
	BYTE		N09     Dn4 
	BYTE	W01
	BYTE	W09
	BYTE		N09     Dn4   v028
	BYTE	W24
	BYTE	W02
	BYTE		        En4   v068
	BYTE	W10
	BYTE		        En4   v028
	BYTE	W24
	BYTE	W02
	BYTE		        Fs4   v068
	BYTE	W10
	BYTE		        Fs4   v028
	BYTE	W15
	BYTE	PEND
	BYTE	W11
	BYTE		N36     Gs4   v068
	BYTE	W36
	BYTE		N09     Fs4 
	BYTE	W10
	BYTE		        Fs4   v028
	BYTE	W14
	BYTE		        En4   v068
	BYTE	W10
	BYTE		        En4   v028
	BYTE	W14
	BYTE		        Dn4   v068
	BYTE	W01
	BYTE	W09
	BYTE		        Dn4   v028
	BYTE	W24
	BYTE	W02
	BYTE		        Cs4   v068
	BYTE	W10
	BYTE		        Cs4   v028
	BYTE	W24
	BYTE	W02
	BYTE		        Dn4   v068
	BYTE	W10
	BYTE		        Dn4   v028
	BYTE	W15
	BYTE	W11
	BYTE		N36     An3   v068
	BYTE	W36
	BYTE		N09     Cs4 
	BYTE	W10
	BYTE		        Cs4   v028
	BYTE	W14
	BYTE		        Cs4   v068
	BYTE	W10
	BYTE		        Cs4   v028
	BYTE	W14
	BYTE		        Dn4   v068
	BYTE	W01
	BYTE	PATT
	 POIN2	seq_009_4 + 0x21B
	BYTE	W11
	BYTE		N36     Gs4   v068
	BYTE	W36
	BYTE		N09     Fs4 
	BYTE	W10
	BYTE		        Fs4   v028
	BYTE	W14
	BYTE		        En4   v068
	BYTE	W10
	BYTE		        En4   v028
	BYTE	W15
	BYTE		N36     Bn2   v044
	BYTE	W36
	BYTE		        Cs3 
	BYTE	W36
	BYTE		N12     Dn3 
	BYTE	W12
	BYTE		        Dn3   v032
	BYTE	W12
	BYTE	W96
	BYTE		N36     Dn3   v048
	BYTE	W36
	BYTE		        En3 
	BYTE	W36
	BYTE		N12     Fn3 
	BYTE	W12
	BYTE		        Fn3   v028
	BYTE	W12
	BYTE	W96
	BYTE	GoTo
	 POIN2	seq_009_4 + 0x3C
	BYTE	FINE

//*********************** Track 06 ***********************//

seq_009_5:
	BYTE	KEYSH   seq_009_key+0
	BYTE		VOICE   65
	BYTE		VOL     51*seq_009_mvl/mxv
	BYTE		PAN     c_v-19
	BYTE		BENDR   3
	BYTE		BEND    c_v+0
	BYTE	W03
	BYTE		N48     Fs3   v100
	BYTE	W48
	BYTE		        Bn3 
	BYTE	W48
	BYTE	PEND
	BYTE		N48     Bn3   v100
	BYTE	W48
	BYTE		N48
	BYTE	W48
	BYTE	PEND
	BYTE		N48     Cs3   v100
	BYTE	W48
	BYTE		        Fs3 
	BYTE	W48
	BYTE	PEND
	BYTE		N48
	BYTE	W48
	BYTE		N48
	BYTE	W48
	BYTE	PATT
	 POIN2	seq_009_5 + 0xD
	BYTE	PATT
	 POIN2	seq_009_5 + 0x14
	BYTE	PATT
	 POIN2	seq_009_5 + 0x1B
	BYTE		N48     Fs3   v100
	BYTE	W48
	BYTE		N44
	BYTE	W48
	BYTE		N72     Fs3   v100
	BYTE	W72
	BYTE		N06
	BYTE	W06
	BYTE		        Gn3 
	BYTE	W06
	BYTE		        An3 
	BYTE	W06
	BYTE		        As3 
	BYTE	W06
	BYTE	PEND
	BYTE		N96     Bn3 
	BYTE	W96
	BYTE		N96
	BYTE	W96
	BYTE		N96
	BYTE	W96
	BYTE	PATT
	 POIN2	seq_009_5 + 0x3B
	BYTE		N96     Bn3   v100
	BYTE	W96
	BYTE		N96
	BYTE	W96
	BYTE		N96
	BYTE	W96
	BYTE		N12     En3   v080
	BYTE	W12
	BYTE		        Ds3 
	BYTE	W12
	BYTE		        Fs2 
	BYTE	W12
	BYTE		        Gn2 
	BYTE	W12
	BYTE		        Dn3 
	BYTE	W12
	BYTE		        Cs3 
	BYTE	W12
	BYTE		        Cn3 
	BYTE	W12
	BYTE		        Bn2 
	BYTE	W12
	BYTE		        Fn2 
	BYTE	W12
	BYTE		        Fs2 
	BYTE	W12
	BYTE		        Bn2 
	BYTE	W12
	BYTE		        An2 
	BYTE	W12
	BYTE		N24     Gn2 
	BYTE	W24
	BYTE		N12     En2 
	BYTE	W12
	BYTE		N24     An2 
	BYTE	W24
	BYTE		N12     En2 
	BYTE	W12
	BYTE		N24     As2 
	BYTE	W24
	BYTE		N12     En2 
	BYTE	W12
	BYTE		N24     An2 
	BYTE	W24
	BYTE		N12     En2 
	BYTE	W12
	BYTE		N06     Gn2 
	BYTE	W06
	BYTE		        Fs2 
	BYTE	W06
	BYTE		        En2 
	BYTE	W06
	BYTE		        Fs2 
	BYTE	W06
	BYTE		N12     Gn2 
	BYTE	W12
	BYTE		        Gn2   v040
	BYTE	W12
	BYTE		        En3   v080
	BYTE	W12
	BYTE		        Ds3 
	BYTE	W12
	BYTE		        Fs2 
	BYTE	W12
	BYTE		        Gn2 
	BYTE	W12
	BYTE		        Bn2 
	BYTE	W12
	BYTE		        Gn2 
	BYTE	W12
	BYTE		        Dn3 
	BYTE	W12
	BYTE		        Cs3 
	BYTE	W12
	BYTE		        Cn3 
	BYTE	W12
	BYTE		        Bn2 
	BYTE	W12
	BYTE		        Fn2 
	BYTE	W12
	BYTE		        Fs2 
	BYTE	W12
	BYTE		        An2 
	BYTE	W12
	BYTE		        Fs2 
	BYTE	W12
	BYTE		        Bn2 
	BYTE	W12
	BYTE		        An2 
	BYTE	W12
	BYTE	PATT
	 POIN2	seq_009_5 + 0x3B
	BYTE		N96     Bn3   v100
	BYTE	W96
	BYTE		N96
	BYTE	W96
	BYTE		N96
	BYTE	W96
	BYTE	PATT
	 POIN2	seq_009_5 + 0x3B
	BYTE		N96     Bn3   v100
	BYTE	W96
	BYTE		N96
	BYTE	W96
	BYTE		N96
	BYTE	W96
	BYTE	W96
	BYTE	W96
	BYTE	W96
	BYTE	W96
	BYTE	W96
	BYTE	W96
	BYTE	W96
	BYTE	W96
	BYTE	W96
	BYTE	W96
	BYTE	W96
	BYTE	W96
	BYTE	W96
	BYTE	W96
	BYTE	W96
	BYTE	W96
	BYTE	W96
	BYTE	W96
	BYTE	W96
	BYTE	W96
	BYTE	W96
	BYTE	W96
	BYTE	W96
	BYTE	W96
	BYTE	W96
	BYTE	W96
	BYTE	W96
	BYTE	W96
	BYTE	W96
	BYTE	W96
	BYTE	W96
	BYTE	W96
	BYTE	W96
	BYTE	W96
	BYTE	W96
	BYTE	W96
	BYTE	W96
	BYTE	W96
	BYTE	W96
	BYTE	W96
	BYTE	W96
	BYTE	W96
	BYTE	W96
	BYTE	W96
	BYTE	GoTo
	 POIN2	seq_009_5 + 0x3B
	BYTE	FINE

//*********************** Track 07 ***********************//

seq_009_6:
	BYTE	KEYSH   seq_009_key+0
	BYTE		VOICE   48
	BYTE		VOL     56*seq_009_mvl/mxv
	BYTE		PAN     c_v+56
	BYTE		BENDR   3
	BYTE		BEND    c_v+0
	BYTE	W03
	BYTE		N48     Bn2   v100
	BYTE	W48
	BYTE		N24     Bn3 
	BYTE	W24
	BYTE		        Fn3 
	BYTE	W24
	BYTE	PEND
	BYTE		N24     Fs3   v100
	BYTE	W24
	BYTE		        Cs3 
	BYTE	W24
	BYTE		N48     Dn3 
	BYTE	W48
	BYTE	PEND
	BYTE		N48     Fs2   v100
	BYTE	W48
	BYTE		N24     Fs3 
	BYTE	W24
	BYTE		        Cn3 
	BYTE	W24
	BYTE	PEND
	BYTE		        Cs3 
	BYTE	W24
	BYTE		        Gs2 
	BYTE	W24
	BYTE		N48     An2 
	BYTE	W48
	BYTE	PATT
	 POIN2	seq_009_6 + 0xD
	BYTE	PATT
	 POIN2	seq_009_6 + 0x17
	BYTE	PATT
	 POIN2	seq_009_6 + 0x21
	BYTE		N06     Fs2   v100
	BYTE	W06
	BYTE		N06
	BYTE	W06
	BYTE		N06
	BYTE	W06
	BYTE		N06
	BYTE	W06
	BYTE		        Gs2 
	BYTE	W06
	BYTE		N06
	BYTE	W06
	BYTE		N06
	BYTE	W06
	BYTE		N06
	BYTE	W06
	BYTE		        An2 
	BYTE	W06
	BYTE		N06
	BYTE	W06
	BYTE		N06
	BYTE	W06
	BYTE		N06
	BYTE	W06
	BYTE		        As2 
	BYTE	W06
	BYTE		N06
	BYTE	W06
	BYTE		N06
	BYTE	W06
	BYTE		N05
	BYTE	W06
	BYTE	W96
	BYTE	W96
	BYTE	W96
	BYTE	W96
	BYTE	W96
	BYTE	W96
	BYTE	W96
	BYTE	W96
	BYTE	W96
	BYTE	W72
	BYTE	W72
	BYTE	W72
	BYTE	W72
	BYTE	W48
	BYTE	W96
	BYTE	W96
	BYTE	W96
	BYTE	W96
	BYTE	W96
	BYTE	W96
	BYTE	W96
	BYTE	W96
	BYTE		PAN     c_v+36
	BYTE	W96
	BYTE		N96     En4   v080
	BYTE	W96
	BYTE		        Fn4 
	BYTE	W96
	BYTE		N48     Gn4 
	BYTE	W48
	BYTE		        Fs4 
	BYTE	W48
	BYTE		        An4 
	BYTE	W48
	BYTE		        Gn4 
	BYTE	W48
	BYTE		        En4 
	BYTE	W48
	BYTE		        Dn4 
	BYTE	W48
	BYTE		        Fn4 
	BYTE	W48
	BYTE		        En4 
	BYTE	W48
	BYTE		N96     En4   v052
	BYTE	W96
	BYTE		N96
	BYTE	W96
	BYTE		N96
	BYTE	W96
	BYTE		        Dn4 
	BYTE	W96
	BYTE		N06     Fn4   v100
	BYTE	W06
	BYTE		        Fn4   v036
	BYTE	W30
	BYTE		        Gn4   v100
	BYTE	W06
	BYTE		        Gn4   v036
	BYTE	W30
	BYTE		        An4   v100
	BYTE	W06
	BYTE		        An4   v036
	BYTE	W18
	BYTE	PEND
	BYTE	W12
	BYTE		N06     Gn4   v100
	BYTE	W06
	BYTE		        Gn4   v036
	BYTE	W30
	BYTE		        Fn4   v100
	BYTE	W06
	BYTE		        Fn4   v036
	BYTE	W18
	BYTE		        An4   v100
	BYTE	W06
	BYTE		        An4   v036
	BYTE	W18
	BYTE	PEND
	BYTE		TIE     En4   v100
	BYTE	W96
	BYTE	W88
	BYTE		EOT
	BYTE	W08
	BYTE		N06     Dn4 
	BYTE	W06
	BYTE		        Dn4   v036
	BYTE	W30
	BYTE		        En4   v100
	BYTE	W06
	BYTE		        En4   v036
	BYTE	W30
	BYTE		        Fn4   v100
	BYTE	W06
	BYTE		        Fn4   v036
	BYTE	W18
	BYTE	W12
	BYTE		        En4   v100
	BYTE	W06
	BYTE		        En4   v036
	BYTE	W30
	BYTE		        Dn4   v100
	BYTE	W06
	BYTE		        Dn4   v036
	BYTE	W18
	BYTE		        Fn4   v100
	BYTE	W06
	BYTE		        Fn4   v036
	BYTE	W18
	BYTE		TIE     En4   v100
	BYTE	W96
	BYTE	W90
	BYTE		EOT
	BYTE	W06
	BYTE	PATT
	 POIN2	seq_009_6 + 0x9D
	BYTE	PATT
	 POIN2	seq_009_6 + 0xB1
	BYTE		TIE     En4   v100
	BYTE	W96
	BYTE	W90
	BYTE		EOT
	BYTE	W06
	BYTE	PATT
	 POIN2	seq_009_6 + 0x9D
	BYTE	PATT
	 POIN2	seq_009_6 + 0xB1
	BYTE		N96     An4   v080
	BYTE	W96
	BYTE		N92     Gs4 
	BYTE	W17
	BYTE		VOL     55*seq_009_mvl/mxv
	BYTE	W02
	BYTE		        54*seq_009_mvl/mxv
	BYTE	W02
	BYTE		        54*seq_009_mvl/mxv
	BYTE	W02
	BYTE		        53*seq_009_mvl/mxv
	BYTE	W02
	BYTE		        52*seq_009_mvl/mxv
	BYTE	W02
	BYTE		        51*seq_009_mvl/mxv
	BYTE	W03
	BYTE		        51*seq_009_mvl/mxv
	BYTE	W02
	BYTE		        49*seq_009_mvl/mxv
	BYTE	W02
	BYTE		        49*seq_009_mvl/mxv
	BYTE	W02
	BYTE		        48*seq_009_mvl/mxv
	BYTE	W02
	BYTE		        47*seq_009_mvl/mxv
	BYTE	W02
	BYTE		        47*seq_009_mvl/mxv
	BYTE	W01
	BYTE		        46*seq_009_mvl/mxv
	BYTE	W02
	BYTE		        45*seq_009_mvl/mxv
	BYTE	W02
	BYTE		        44*seq_009_mvl/mxv
	BYTE	W01
	BYTE		        44*seq_009_mvl/mxv
	BYTE	W02
	BYTE		        42*seq_009_mvl/mxv
	BYTE	W02
	BYTE		        42*seq_009_mvl/mxv
	BYTE	W01
	BYTE		        41*seq_009_mvl/mxv
	BYTE	W02
	BYTE		        40*seq_009_mvl/mxv
	BYTE	W02
	BYTE		        39*seq_009_mvl/mxv
	BYTE	W01
	BYTE		        39*seq_009_mvl/mxv
	BYTE	W02
	BYTE		        38*seq_009_mvl/mxv
	BYTE	W01
	BYTE		        37*seq_009_mvl/mxv
	BYTE	W02
	BYTE		        37*seq_009_mvl/mxv
	BYTE	W01
	BYTE		        36*seq_009_mvl/mxv
	BYTE	W01
	BYTE		        35*seq_009_mvl/mxv
	BYTE	W02
	BYTE		        34*seq_009_mvl/mxv
	BYTE	W01
	BYTE		        33*seq_009_mvl/mxv
	BYTE	W02
	BYTE		        32*seq_009_mvl/mxv
	BYTE	W01
	BYTE		        31*seq_009_mvl/mxv
	BYTE	W02
	BYTE		        30*seq_009_mvl/mxv
	BYTE	W02
	BYTE		        29*seq_009_mvl/mxv
	BYTE	W01
	BYTE		        28*seq_009_mvl/mxv
	BYTE	W02
	BYTE		        27*seq_009_mvl/mxv
	BYTE	W02
	BYTE		        25*seq_009_mvl/mxv
	BYTE	W01
	BYTE		        25*seq_009_mvl/mxv
	BYTE	W01
	BYTE		        25*seq_009_mvl/mxv
	BYTE	W01
	BYTE		        23*seq_009_mvl/mxv
	BYTE	W01
	BYTE		        23*seq_009_mvl/mxv
	BYTE	W01
	BYTE		        22*seq_009_mvl/mxv
	BYTE	W01
	BYTE		        21*seq_009_mvl/mxv
	BYTE	W01
	BYTE		        20*seq_009_mvl/mxv
	BYTE	W01
	BYTE		        20*seq_009_mvl/mxv
	BYTE	W01
	BYTE		        19*seq_009_mvl/mxv
	BYTE	W01
	BYTE		        18*seq_009_mvl/mxv
	BYTE	W01
	BYTE		        18*seq_009_mvl/mxv
	BYTE	W01
	BYTE		        17*seq_009_mvl/mxv
	BYTE	W01
	BYTE		        15*seq_009_mvl/mxv
	BYTE	W01
	BYTE		        15*seq_009_mvl/mxv
	BYTE	W03
	BYTE		        56*seq_009_mvl/mxv
	BYTE	W01
	BYTE		N09     An3   v100
	BYTE	W09
	BYTE		        An3   v032
	BYTE	W24
	BYTE	W02
	BYTE		        Bn3   v100
	BYTE	W09
	BYTE		        Bn3   v032
	BYTE	W24
	BYTE	W03
	BYTE		        Cn4   v100
	BYTE	W09
	BYTE		        Cn4   v032
	BYTE	W16
	BYTE	W11
	BYTE		N36     Dn4   v100
	BYTE	W36
	BYTE		N09     Cn4 
	BYTE	W09
	BYTE		        Cn4   v032
	BYTE	W15
	BYTE		        Bn3   v100
	BYTE	W09
	BYTE		        Bn3   v032
	BYTE	W15
	BYTE		        An3   v100
	BYTE	W01
	BYTE	W08
	BYTE		        An3   v032
	BYTE	W24
	BYTE	W03
	BYTE		        Gn3   v100
	BYTE	W09
	BYTE		        Gn3   v032
	BYTE	W24
	BYTE	W03
	BYTE		        An3   v100
	BYTE	W09
	BYTE		        An3   v032
	BYTE	W16
	BYTE	W11
	BYTE		N36     En3   v100
	BYTE	W36
	BYTE		N09     Gn3 
	BYTE	W09
	BYTE		        Gn3   v032
	BYTE	W15
	BYTE		        Gs3   v100
	BYTE	W09
	BYTE		        Gs3   v032
	BYTE	W15
	BYTE		        An3   v100
	BYTE	W01
	BYTE	W08
	BYTE		        An3   v032
	BYTE	W24
	BYTE	W03
	BYTE		        Bn3   v100
	BYTE	W09
	BYTE		        Bn3   v032
	BYTE	W24
	BYTE	W03
	BYTE		        Cn4   v100
	BYTE	W09
	BYTE		        Cn4   v032
	BYTE	W16
	BYTE	W11
	BYTE		N36     Dn4   v100
	BYTE	W36
	BYTE		N09     Cn4 
	BYTE	W09
	BYTE		        Cn4   v032
	BYTE	W15
	BYTE		        Bn3   v100
	BYTE	W09
	BYTE		        Bn3   v032
	BYTE	W15
	BYTE		N48     An3   v100
	BYTE	W01
	BYTE	W44
	BYTE	W03
	BYTE		        Gn3 
	BYTE	W48
	BYTE		        Fs3 
	BYTE	W01
	BYTE	W44
	BYTE	W03
	BYTE		        Fn3 
	BYTE	W48
	BYTE		N09     Bn3 
	BYTE	W01
	BYTE	W08
	BYTE		N09     Bn3   v032
	BYTE	W24
	BYTE	W03
	BYTE		        Cs4   v100
	BYTE	W09
	BYTE		        Cs4   v032
	BYTE	W24
	BYTE	W03
	BYTE		        Dn4   v100
	BYTE	W09
	BYTE		        Dn4   v032
	BYTE	W16
	BYTE	PEND
	BYTE	W11
	BYTE		N36     En4   v100
	BYTE	W36
	BYTE		N09     Dn4 
	BYTE	W09
	BYTE		        Dn4   v032
	BYTE	W15
	BYTE		        Cs4   v100
	BYTE	W09
	BYTE		        Cs4   v032
	BYTE	W15
	BYTE		        Bn3   v100
	BYTE	W01
	BYTE	W08
	BYTE		        Bn3   v032
	BYTE	W24
	BYTE	W03
	BYTE		        An3   v100
	BYTE	W09
	BYTE		        An3   v032
	BYTE	W24
	BYTE	W03
	BYTE		        Bn3   v100
	BYTE	W09
	BYTE		        Bn3   v032
	BYTE	W16
	BYTE	W11
	BYTE		N36     Fs3   v100
	BYTE	W36
	BYTE		N09     An3 
	BYTE	W09
	BYTE		        An3   v032
	BYTE	W15
	BYTE		        As3   v100
	BYTE	W09
	BYTE		        As3   v032
	BYTE	W15
	BYTE		        Bn3   v100
	BYTE	W01
	BYTE	PATT
	 POIN2	seq_009_6 + 0x205
	BYTE	W11
	BYTE		N36     En4   v100
	BYTE	W36
	BYTE		N09     Dn4 
	BYTE	W09
	BYTE		        Dn4   v032
	BYTE	W15
	BYTE		        Cs4   v100
	BYTE	W09
	BYTE		        Cs4   v032
	BYTE	W16
	BYTE		N36     Fs3   v060
	BYTE	W36
	BYTE		        En3   v072
	BYTE	W36
	BYTE		N12     Gs3   v080
	BYTE	W12
	BYTE		        Gs3   v032
	BYTE	W12
	BYTE	W96
	BYTE		N36     Bn3   v084
	BYTE	W36
	BYTE		        An3   v100
	BYTE	W36
	BYTE		N12     Gs3   v112
	BYTE	W12
	BYTE		        Gs3   v028
	BYTE	W12
	BYTE	W96
	BYTE	GoTo
	 POIN2	seq_009_6 + 0x63
	BYTE	FINE

//*********************** Track 08 ***********************//

seq_009_7:
	BYTE	KEYSH   seq_009_key+0
	BYTE	W03
	BYTE		VOICE   48
	BYTE		VOL     56*seq_009_mvl/mxv
	BYTE		PAN     c_v-64
	BYTE		BENDR   3
	BYTE		BEND    c_v+0
	BYTE		N48     Bn1   v100
	BYTE	W48
	BYTE		N24     Bn2 
	BYTE	W24
	BYTE		        Fn2 
	BYTE	W24
	BYTE		N24     Fs2   v100
	BYTE	W24
	BYTE		        Cs2 
	BYTE	W24
	BYTE		N48     Dn2 
	BYTE	W48
	BYTE	PEND
	BYTE		N48     Fs1   v100
	BYTE	W48
	BYTE		N24     Fs2 
	BYTE	W24
	BYTE		        Cn2 
	BYTE	W24
	BYTE	PEND
	BYTE		        Cs2 
	BYTE	W24
	BYTE		        Gs1 
	BYTE	W24
	BYTE		N48     An1 
	BYTE	W48
	BYTE		        Bn1 
	BYTE	W48
	BYTE		N24     Bn2 
	BYTE	W24
	BYTE		        Fn2 
	BYTE	W24
	BYTE	PATT
	 POIN2	seq_009_7 + 0x16
	BYTE	PATT
	 POIN2	seq_009_7 + 0x20
	BYTE		N06     Fs1   v100
	BYTE	W06
	BYTE		N06
	BYTE	W06
	BYTE		N06
	BYTE	W06
	BYTE		N06
	BYTE	W06
	BYTE		        Gs1 
	BYTE	W06
	BYTE		N06
	BYTE	W06
	BYTE		N06
	BYTE	W06
	BYTE		N06
	BYTE	W06
	BYTE		        An1 
	BYTE	W06
	BYTE		N06
	BYTE	W06
	BYTE		N06
	BYTE	W06
	BYTE		N06
	BYTE	W06
	BYTE		        As1 
	BYTE	W06
	BYTE		N06
	BYTE	W06
	BYTE		N06
	BYTE	W06
	BYTE		N05
	BYTE	W06
	BYTE	W96
	BYTE	W96
	BYTE	W96
	BYTE	W96
	BYTE	W96
	BYTE	W96
	BYTE	W96
	BYTE	W96
	BYTE	W96
	BYTE	W72
	BYTE	W72
	BYTE	W72
	BYTE	W72
	BYTE	W48
	BYTE	W96
	BYTE	W96
	BYTE	W96
	BYTE	W96
	BYTE	W96
	BYTE	W96
	BYTE	W96
	BYTE	W96
	BYTE	W96
	BYTE	W96
	BYTE	W96
	BYTE	W96
	BYTE		VOICE   40
	BYTE		VOL     45*seq_009_mvl/mxv
	BYTE		PAN     c_v-64
	BYTE		BENDR   3
	BYTE		BEND    c_v+0
	BYTE	W96
	BYTE	W11
	BYTE		N04     En3   v124
	BYTE	W04
	BYTE		        Fs3 
	BYTE	W04
	BYTE		        Gn3 
	BYTE	W04
	BYTE		N18     Bn3   v127
	BYTE	W18
	BYTE		N06     Bn3   v068
	BYTE	W18
	BYTE		N04     Dn3   v124
	BYTE	W04
	BYTE		        En3 
	BYTE	W04
	BYTE		        Fs3 
	BYTE	W04
	BYTE		N18     As3   v127
	BYTE	W18
	BYTE		N06     As3   v068
	BYTE	W07
	BYTE	W11
	BYTE		N04     Fn3   v127
	BYTE	W04
	BYTE		        Gn3 
	BYTE	W04
	BYTE		        An3 
	BYTE	W04
	BYTE		N18     Cn4 
	BYTE	W18
	BYTE		N06     Cn4   v068
	BYTE	W18
	BYTE		N04     En3   v124
	BYTE	W04
	BYTE		        Fs3 
	BYTE	W04
	BYTE		        Gn3 
	BYTE	W04
	BYTE		N18     Bn3   v127
	BYTE	W18
	BYTE		N06     Bn3   v068
	BYTE	W07
	BYTE	W96
	BYTE	W96
	BYTE	W96
	BYTE	W96
	BYTE	W96
	BYTE	W96
	BYTE	W96
	BYTE	W96
	BYTE	W96
	BYTE	W96
	BYTE	W96
	BYTE	W96
	BYTE	W96
	BYTE	W96
	BYTE	W96
	BYTE	W96
	BYTE	W96
	BYTE	W96
	BYTE	W96
	BYTE	W96
	BYTE	W96
	BYTE	W96
	BYTE	W96
	BYTE	W96
	BYTE	W96
	BYTE	W96
	BYTE	W96
	BYTE	W96
	BYTE	W96
	BYTE	W96
	BYTE	W96
	BYTE	W96
	BYTE	W96
	BYTE	W96
	BYTE	W96
	BYTE	W96
	BYTE	W96
	BYTE	W96
	BYTE	GoTo
	 POIN2	seq_009_7 + 0x64
	BYTE	FINE

//*********************** Track 09 ***********************//

seq_009_8:
	BYTE	KEYSH   seq_009_key+0
	BYTE	W03
	BYTE		VOICE   65
	BYTE		VOL     34*seq_009_mvl/mxv
	BYTE		PAN     c_v+63
	BYTE		BENDR   3
	BYTE		BEND    c_v+0
	BYTE	W03
	BYTE		N48     Bn3   v100
	BYTE	W48
	BYTE		        Fn4 
	BYTE	W44
	BYTE	W01
	BYTE	W03
	BYTE		N48     Fs4   v100
	BYTE	W48
	BYTE		        Fn4 
	BYTE	W44
	BYTE	W01
	BYTE	PEND
	BYTE	W03
	BYTE		N48     Fs3   v100
	BYTE	W48
	BYTE		        Cn4 
	BYTE	W44
	BYTE	W01
	BYTE	PEND
	BYTE	W03
	BYTE		        Cs4 
	BYTE	W48
	BYTE		        Cn4 
	BYTE	W44
	BYTE	W01
	BYTE	W03
	BYTE		        Bn3 
	BYTE	W48
	BYTE		        Fn4 
	BYTE	W44
	BYTE	W01
	BYTE	PATT
	 POIN2	seq_009_8 + 0x15
	BYTE	PATT
	 POIN2	seq_009_8 + 0x1E
	BYTE	W03
	BYTE		N48     Cs4   v100
	BYTE	W48
	BYTE		N44     Cn4 
	BYTE	W44
	BYTE	W01
	BYTE	W03
	BYTE		N68     Bn3   v100
	BYTE	W72
	BYTE		N06     Bn3   v116
	BYTE	W06
	BYTE		        Cs4 
	BYTE	W06
	BYTE		        Dn4 
	BYTE	W06
	BYTE		        En4 
	BYTE	W03
	BYTE	PEND
	BYTE	W03
	BYTE		N96     Fn4   v100
	BYTE	W92
	BYTE	W01
	BYTE	PEND
	BYTE	W03
	BYTE		N96     Fs4   v100
	BYTE	W92
	BYTE	W01
	BYTE	PEND
	BYTE	PATT
	 POIN2	seq_009_8 + 0x56
	BYTE	W03
	BYTE		N68     Bn3   v100
	BYTE	W72
	BYTE		N06
	BYTE	W06
	BYTE		        Cs4 
	BYTE	W06
	BYTE		        Dn4 
	BYTE	W06
	BYTE		        En4 
	BYTE	W03
	BYTE	PEND
	BYTE	PATT
	 POIN2	seq_009_8 + 0x56
	BYTE	PATT
	 POIN2	seq_009_8 + 0x5D
	BYTE	PATT
	 POIN2	seq_009_8 + 0x56
	BYTE	W96
	BYTE	W72
	BYTE	W72
	BYTE	W72
	BYTE	W72
	BYTE	W48
	BYTE	W96
	BYTE	PATT
	 POIN2	seq_009_8 + 0x46
	BYTE	PATT
	 POIN2	seq_009_8 + 0x56
	BYTE	PATT
	 POIN2	seq_009_8 + 0x5D
	BYTE	PATT
	 POIN2	seq_009_8 + 0x56
	BYTE	PATT
	 POIN2	seq_009_8 + 0x69
	BYTE	PATT
	 POIN2	seq_009_8 + 0x56
	BYTE	PATT
	 POIN2	seq_009_8 + 0x5D
	BYTE	PATT
	 POIN2	seq_009_8 + 0x56
	BYTE	W96
	BYTE	W96
	BYTE	W96
	BYTE	W96
	BYTE	W96
	BYTE	W96
	BYTE	W96
	BYTE	W96
	BYTE	W96
	BYTE	W96
	BYTE	W96
	BYTE	W96
	BYTE	W96
	BYTE	W96
	BYTE	W96
	BYTE	W96
	BYTE	W96
	BYTE	W96
	BYTE	W96
	BYTE	W96
	BYTE	W96
	BYTE	W96
	BYTE	W96
	BYTE	W96
	BYTE	W96
	BYTE	W96
	BYTE	W96
	BYTE	W96
	BYTE	W96
	BYTE	W96
	BYTE	W96
	BYTE	W96
	BYTE	W96
	BYTE	W96
	BYTE	W96
	BYTE	W96
	BYTE	W96
	BYTE	W96
	BYTE	W96
	BYTE	W96
	BYTE	W96
	BYTE	W96
	BYTE	W96
	BYTE	W96
	BYTE	GoTo
	 POIN2	seq_009_8 + 0x46
	BYTE	FINE

//*********************** Track 10 ***********************//

seq_009_9:
	BYTE	KEYSH   seq_009_key+0
	BYTE		VOICE   68
	BYTE		VOL     56*seq_009_mvl/mxv
	BYTE		PAN     c_v+0
	BYTE		BENDR   3
	BYTE		BEND    c_v+0
	BYTE	W03
	BYTE	W96
	BYTE	W96
	BYTE	W96
	BYTE	W96
	BYTE	W96
	BYTE	W96
	BYTE	W96
	BYTE		N10     Cn1   v120
	BYTE	W12
	BYTE		N10
	BYTE	W12
	BYTE		N10
	BYTE	W12
	BYTE		N10
	BYTE	W12
	BYTE		N10
	BYTE	W12
	BYTE		N10
	BYTE	W12
	BYTE		N10
	BYTE	W12
	BYTE		N10
	BYTE	W12
	BYTE		N10     Cn1   v120
	BYTE		N02     Gs1   v096
	BYTE	W24
	BYTE		N18     Ds1   v120
	BYTE		N02     Gs1   v096
	BYTE	W24
	BYTE		N10     Cn1   v120
	BYTE		N02     Gs1   v096
	BYTE	W12
	BYTE		N10     Cn1   v120
	BYTE	W12
	BYTE		N18     Ds1 
	BYTE		N02     Gs1   v096
	BYTE	W24
	BYTE	PEND
	BYTE		N10     Cn1   v120
	BYTE		N02     Gs1   v096
	BYTE	W24
	BYTE		N18     Ds1   v120
	BYTE		N02     Gs1   v096
	BYTE	W12
	BYTE		N10     Cn1   v120
	BYTE	W12
	BYTE		N02     Gs1   v096
	BYTE	W12
	BYTE		N10     Cn1   v120
	BYTE	W12
	BYTE		N18     Ds1 
	BYTE		N02     Gs1   v096
	BYTE	W24
	BYTE	PEND
	BYTE	PATT
	 POIN2	seq_009_9 + 0x26
	BYTE	PATT
	 POIN2	seq_009_9 + 0x46
	BYTE	PATT
	 POIN2	seq_009_9 + 0x26
	BYTE	PATT
	 POIN2	seq_009_9 + 0x46
	BYTE	PATT
	 POIN2	seq_009_9 + 0x26
	BYTE	PATT
	 POIN2	seq_009_9 + 0x46
	BYTE		N10     Cn1   v120
	BYTE	W12
	BYTE		N10
	BYTE	W12
	BYTE		N18     Ds1   v127
	BYTE	W12
	BYTE		N10     Cn1   v120
	BYTE	W12
	BYTE		N18     Ds1   v127
	BYTE	W12
	BYTE		N10     Cn1   v120
	BYTE	W12
	BYTE		N10
	BYTE	W12
	BYTE		N10
	BYTE	W12
	BYTE		N18     Ds1   v127
	BYTE	W12
	BYTE		N10     Cn1   v120
	BYTE	W12
	BYTE		N18     Ds1   v127
	BYTE	W12
	BYTE		N10     Cn1   v120
	BYTE	W12
	BYTE		N10
	BYTE	W12
	BYTE		N12     Ds1   v127
	BYTE	W12
	BYTE		N18
	BYTE	W12
	BYTE		N10     Cn1   v120
	BYTE	W12
	BYTE		N12     Ds1   v127
	BYTE	W12
	BYTE		N18
	BYTE	W12
	BYTE		N10     Cn1   v120
	BYTE	W12
	BYTE		N12     Ds1   v127
	BYTE	W12
	BYTE		N18
	BYTE	W12
	BYTE		N10     Cn1   v120
	BYTE	W12
	BYTE		N12     Ds1   v127
	BYTE	W12
	BYTE		N12
	BYTE	W12
	BYTE		N18
	BYTE	W12
	BYTE		N10     Cn1   v120
	BYTE	W12
	BYTE		N18     Ds1   v127
	BYTE	W12
	BYTE		N10     Cn1   v120
	BYTE	W12
	BYTE		N10
	BYTE	W12
	BYTE		N10
	BYTE	W12
	BYTE		N18     Ds1   v127
	BYTE	W12
	BYTE		N10     Cn1   v120
	BYTE	W12
	BYTE		N18     Ds1   v127
	BYTE	W12
	BYTE		N10     Cn1   v120
	BYTE	W24
	BYTE		N10
	BYTE	W12
	BYTE		N10
	BYTE	W12
	BYTE		N10
	BYTE	W12
	BYTE		N18     Ds1   v127
	BYTE	W12
	BYTE		N10     Cn1   v120
	BYTE	W12
	BYTE		N18     Ds1   v127
	BYTE	W12
	BYTE		N10     Cn1   v120
	BYTE	W12
	BYTE		N18     Ds1   v127
	BYTE	W12
	BYTE		N10     Cn1   v120
	BYTE	W12
	BYTE		N10     Cn1   v120
	BYTE		N02     Gs1   v072
	BYTE	W12
	BYTE		N02
	BYTE	W06
	BYTE		N02
	BYTE	W06
	BYTE		N18     Ds1   v120
	BYTE	W12
	BYTE		N02     Gs1   v072
	BYTE	W06
	BYTE		N02
	BYTE	W06
	BYTE		N10     Cn1   v120
	BYTE		N02     Gs1   v072
	BYTE	W12
	BYTE		N10     Cn1   v120
	BYTE		N02     Gs1   v072
	BYTE	W06
	BYTE		N02
	BYTE	W06
	BYTE		N18     Ds1   v120
	BYTE	W12
	BYTE		N02     Gs1   v072
	BYTE	W06
	BYTE		N02
	BYTE	W06
	BYTE	PEND
	BYTE		N10     Cn1   v120
	BYTE		N02     Gs1   v072
	BYTE	W12
	BYTE		N02
	BYTE	W06
	BYTE		N02
	BYTE	W06
	BYTE		N18     Ds1   v120
	BYTE	W12
	BYTE		N10     Cn1 
	BYTE		N02     Gs1   v072
	BYTE	W06
	BYTE		N02
	BYTE	W06
	BYTE		N02
	BYTE	W12
	BYTE		N10     Cn1   v120
	BYTE		N02     Gs1   v072
	BYTE	W06
	BYTE		N02
	BYTE	W06
	BYTE		N18     Ds1   v120
	BYTE	W12
	BYTE		N02     Gs1   v072
	BYTE	W06
	BYTE		N02
	BYTE	W06
	BYTE	PEND
	BYTE	PATT
	 POIN2	seq_009_9 + 0x115
	BYTE	PATT
	 POIN2	seq_009_9 + 0x145
	BYTE	PATT
	 POIN2	seq_009_9 + 0x115
	BYTE	PATT
	 POIN2	seq_009_9 + 0x145
	BYTE	PATT
	 POIN2	seq_009_9 + 0x115
	BYTE	PATT
	 POIN2	seq_009_9 + 0x145
	BYTE		N10     Cn1   v120
	BYTE		N02     Gs1   v072
	BYTE	W12
	BYTE		N02
	BYTE	W06
	BYTE		N02
	BYTE	W06
	BYTE		N18     Ds1   v120
	BYTE	W12
	BYTE		N02     Gs1   v072
	BYTE	W06
	BYTE		N02
	BYTE	W06
	BYTE		N02
	BYTE	W06
	BYTE		N02
	BYTE	W06
	BYTE		N10     Cn1   v120
	BYTE		N02     Gs1   v072
	BYTE	W06
	BYTE		N02
	BYTE	W06
	BYTE		N18     Ds1   v120
	BYTE		N12     As1   v072
	BYTE	W12
	BYTE		N02     Gs1 
	BYTE	W06
	BYTE		N02
	BYTE	W06
	BYTE	PEND
	BYTE		N10     Cn1   v120
	BYTE		N02     Gs1   v072
	BYTE	W12
	BYTE		N02
	BYTE	W06
	BYTE		N02
	BYTE	W06
	BYTE		N18     Ds1   v120
	BYTE	W12
	BYTE		N10     Cn1 
	BYTE		N02     Gs1   v072
	BYTE	W06
	BYTE		N02
	BYTE	W06
	BYTE		N02
	BYTE	W06
	BYTE		N02
	BYTE	W06
	BYTE		N10     Cn1   v120
	BYTE		N02     Gs1   v072
	BYTE	W06
	BYTE		N02
	BYTE	W06
	BYTE		N18     Ds1   v120
	BYTE		N12     As1   v072
	BYTE	W12
	BYTE		N10     Cn1   v120
	BYTE		N02     Gs1   v072
	BYTE	W06
	BYTE		N02
	BYTE	W06
	BYTE	PEND
	BYTE	PATT
	 POIN2	seq_009_9 + 0x190
	BYTE	PATT
	 POIN2	seq_009_9 + 0x1BF
	BYTE	PATT
	 POIN2	seq_009_9 + 0x190
	BYTE	PATT
	 POIN2	seq_009_9 + 0x1BF
	BYTE	PATT
	 POIN2	seq_009_9 + 0x190
	BYTE	PATT
	 POIN2	seq_009_9 + 0x1BF
	BYTE	PATT
	 POIN2	seq_009_9 + 0x190
	BYTE	PATT
	 POIN2	seq_009_9 + 0x1BF
	BYTE		N18     Ds1   v120
	BYTE	W12
	BYTE		N10     Cn1 
	BYTE	W12
	BYTE		N10
	BYTE	W12
	BYTE		N10
	BYTE	W12
	BYTE		N18     Ds1 
	BYTE	W12
	BYTE		N10     Cn1 
	BYTE	W12
	BYTE		N18     Ds1 
	BYTE	W12
	BYTE		N10     Cn1 
	BYTE	W12
	BYTE	PEND
	BYTE		N10     Cn1   v120
	BYTE	W12
	BYTE		N10
	BYTE	W12
	BYTE		N18     Ds1 
	BYTE	W12
	BYTE		N10     Cn1 
	BYTE	W12
	BYTE		N18     Ds1 
	BYTE	W12
	BYTE		N10     Cn1 
	BYTE	W12
	BYTE		N18     Ds1 
	BYTE	W12
	BYTE		N10     Cn1 
	BYTE	W12
	BYTE	PEND
	BYTE		N10     Cn1   v120
	BYTE		N02     Gs1   v072
	BYTE	W12
	BYTE		N02
	BYTE	W06
	BYTE		N02
	BYTE	W06
	BYTE		N02
	BYTE	W12
	BYTE		N10     Cn1   v120
	BYTE		N12     As1   v072
	BYTE	W12
	BYTE		N02     Gs1 
	BYTE	W12
	BYTE		N02
	BYTE	W12
	BYTE		N18     Ds1   v120
	BYTE	W12
	BYTE		N02     Gs1   v072
	BYTE	W12
	BYTE	PEND
	BYTE	PATT
	 POIN2	seq_009_9 + 0x24D
	BYTE	PATT
	 POIN2	seq_009_9 + 0x21C
	BYTE	PATT
	 POIN2	seq_009_9 + 0x234
	BYTE		N10     Cn1   v120
	BYTE		N02     Gs1   v072
	BYTE	W24
	BYTE		N18     Ds1   v120
	BYTE		N02     Gs1   v072
	BYTE	W24
	BYTE		N10     Cn1   v120
	BYTE		N02     Gs1   v072
	BYTE	W12
	BYTE		N10     Cn1   v120
	BYTE	W12
	BYTE		N18     Ds1 
	BYTE		N02     Gs1   v072
	BYTE	W24
	BYTE	PEND
	BYTE		N10     Cn1   v120
	BYTE		N02     Gs1   v072
	BYTE	W12
	BYTE		N10     Cn1   v120
	BYTE	W12
	BYTE		N18     Ds1 
	BYTE		N02     Gs1   v072
	BYTE	W12
	BYTE		N10     Cn1   v120
	BYTE	W12
	BYTE		N02     Gs1   v072
	BYTE	W12
	BYTE		N10     Cn1   v120
	BYTE	W12
	BYTE		N18     Ds1 
	BYTE		N02     Gs1   v072
	BYTE	W24
	BYTE	PEND
	BYTE	PATT
	 POIN2	seq_009_9 + 0x21C
	BYTE	PATT
	 POIN2	seq_009_9 + 0x234
	BYTE	PATT
	 POIN2	seq_009_9 + 0x24D
	BYTE	PATT
	 POIN2	seq_009_9 + 0x24D
	BYTE	PATT
	 POIN2	seq_009_9 + 0x21C
	BYTE	PATT
	 POIN2	seq_009_9 + 0x234
	BYTE		N10     Cn1   v120
	BYTE		N02     Gs1   v072
	BYTE	W12
	BYTE		N02
	BYTE	W12
	BYTE		N12     As1 
	BYTE	W12
	BYTE		N18     Ds1   v120
	BYTE	W12
	BYTE		N02     Gs1   v072
	BYTE	W12
	BYTE		N02
	BYTE	W12
	BYTE		N10     Cn1   v120
	BYTE		N12     As1   v072
	BYTE	W24
	BYTE		N02     Gs1 
	BYTE	W12
	BYTE		N18     Ds1   v120
	BYTE		N02     Gs1   v072
	BYTE	W12
	BYTE		N12     As1 
	BYTE	W12
	BYTE		N10     Cn1   v120
	BYTE	W12
	BYTE		N18     Ds1   v096
	BYTE	W24
	BYTE		N10     Ds1   v108
	BYTE	W12
	BYTE		N18     Ds1   v127
	BYTE	W12
	BYTE		N10     Cn1   v120
	BYTE		N02     Gs1   v072
	BYTE	W12
	BYTE		N02
	BYTE	W06
	BYTE		N02
	BYTE	W06
	BYTE		N18     Ds1   v120
	BYTE		N12     As1   v072
	BYTE	W12
	BYTE		N02     Gs1 
	BYTE	W06
	BYTE		N02
	BYTE	W06
	BYTE		N02
	BYTE	W12
	BYTE		N10     Cn1   v120
	BYTE		N02     Gs1   v072
	BYTE	W06
	BYTE		N02
	BYTE	W06
	BYTE		N18     Ds1   v120
	BYTE		N12     As1   v072
	BYTE	W12
	BYTE		N02     Gs1 
	BYTE	W06
	BYTE		N02
	BYTE	W06
	BYTE	PEND
	BYTE		N02     Gs1   v072
	BYTE	W12
	BYTE		N10     Cn1   v120
	BYTE		N02     Gs1   v072
	BYTE	W06
	BYTE		N02
	BYTE	W06
	BYTE		N12     As1 
	BYTE	W12
	BYTE		N10     Cn1   v120
	BYTE		N02     Gs1   v072
	BYTE	W06
	BYTE		N02
	BYTE	W06
	BYTE		N02
	BYTE	W12
	BYTE		N10     Cn1   v120
	BYTE		N02     Gs1   v072
	BYTE	W06
	BYTE		N02
	BYTE	W06
	BYTE		N18     Ds1   v120
	BYTE		N12     As1   v072
	BYTE	W12
	BYTE		N02     Gs1 
	BYTE	W06
	BYTE		N02
	BYTE	W06
	BYTE	PEND
	BYTE	PATT
	 POIN2	seq_009_9 + 0x31A
	BYTE	PATT
	 POIN2	seq_009_9 + 0x349
	BYTE	PATT
	 POIN2	seq_009_9 + 0x31A
	BYTE	PATT
	 POIN2	seq_009_9 + 0x349
	BYTE	PATT
	 POIN2	seq_009_9 + 0x27E
	BYTE	PATT
	 POIN2	seq_009_9 + 0x29E
	BYTE	PATT
	 POIN2	seq_009_9 + 0x31A
	BYTE	PATT
	 POIN2	seq_009_9 + 0x349
	BYTE	PATT
	 POIN2	seq_009_9 + 0x31A
	BYTE	PATT
	 POIN2	seq_009_9 + 0x349
	BYTE	PATT
	 POIN2	seq_009_9 + 0x31A
	BYTE	PATT
	 POIN2	seq_009_9 + 0x349
	BYTE		N10     Cn1   v100
	BYTE	W12
	BYTE		N06     Ds1 
	BYTE	W06
	BYTE		        Ds1   v108
	BYTE	W06
	BYTE		N18     Ds1   v112
	BYTE	W12
	BYTE		N10     Cn1   v100
	BYTE	W12
	BYTE		N06     Ds1   v104
	BYTE	W06
	BYTE		        Ds1   v108
	BYTE	W06
	BYTE		N18     Ds1   v116
	BYTE	W12
	BYTE		N10     Cn1   v100
	BYTE	W24
	BYTE		N02     Gs1   v072
	BYTE	W24
	BYTE		N02
	BYTE	W24
	BYTE		N06     Ds1   v056
	BYTE		N02     Gs1   v072
	BYTE	W06
	BYTE		N06     Ds1   v064
	BYTE	W06
	BYTE		        Ds1   v076
	BYTE	W06
	BYTE		        Ds1   v084
	BYTE	W06
	BYTE		        Ds1   v092
	BYTE		N02     Gs1   v072
	BYTE	W06
	BYTE		N06     Ds1   v104
	BYTE	W06
	BYTE		        Ds1   v112
	BYTE	W06
	BYTE		        Ds1   v120
	BYTE	W06
	BYTE		N10     Cn1 
	BYTE	W12
	BYTE		N06     Ds1   v092
	BYTE	W06
	BYTE		        Ds1   v104
	BYTE	W06
	BYTE		N12     Ds1   v116
	BYTE	W12
	BYTE		N10     Cn1   v120
	BYTE	W12
	BYTE		N06     Ds1   v100
	BYTE	W06
	BYTE		        Ds1   v112
	BYTE	W06
	BYTE		N18     Ds1   v120
	BYTE	W12
	BYTE		N10     Cn1 
	BYTE	W24
	BYTE		N02     Gs1   v072
	BYTE	W12
	BYTE		N10     Cn1   v120
	BYTE	W12
	BYTE		N02     Gs1   v072
	BYTE	W12
	BYTE		N10     Cn1   v120
	BYTE	W12
	BYTE		N02     Gs1   v072
	BYTE	W12
	BYTE		N10     Cn1   v120
	BYTE	W12
	BYTE		N18     Ds1 
	BYTE		N02     Gs1   v072
	BYTE	W24
	BYTE	GoTo
	 POIN2	seq_009_9 + 0x26
	BYTE	FINE

//*********************** Track 11 ***********************//

seq_009_10:
	BYTE	KEYSH   seq_009_key+0
	BYTE	W03
	BYTE	W96
	BYTE	W96
	BYTE	W96
	BYTE	W96
	BYTE	W96
	BYTE	W96
	BYTE	W96
	BYTE	W96
	BYTE	W96
	BYTE	W96
	BYTE	W96
	BYTE		VOICE   70
	BYTE		VOL     68*seq_009_mvl/mxv
	BYTE		PAN     c_v+0
	BYTE		BENDR   5
	BYTE		BEND    c_v+0
	BYTE	W72
	BYTE		N05     Fn2   v127
	BYTE	W06
	BYTE		        Gn2 
	BYTE	W06
	BYTE		        An2 
	BYTE	W06
	BYTE		        As2 
	BYTE	W06
	BYTE	W96
	BYTE	W96
	BYTE	W96
	BYTE	W96
	BYTE		VOL     44*seq_009_mvl/mxv
	BYTE		PAN     c_v+63
	BYTE	W02
	BYTE		N12     En3   v100
	BYTE	W12
	BYTE		        Ds3 
	BYTE	W12
	BYTE		        Fs2 
	BYTE	W12
	BYTE		        Gn2 
	BYTE	W12
	BYTE		        Dn3 
	BYTE	W12
	BYTE		        Cs3 
	BYTE	W12
	BYTE		        Cn3 
	BYTE	W12
	BYTE		        Bn2 
	BYTE	W10
	BYTE	W02
	BYTE		        Fn2 
	BYTE	W12
	BYTE		        Fs2 
	BYTE	W12
	BYTE		        Bn2 
	BYTE	W12
	BYTE		N11     An2 
	BYTE	W12
	BYTE		N24     Gn2 
	BYTE	W22
	BYTE	W02
	BYTE		N12     En2 
	BYTE	W12
	BYTE		N24     An2 
	BYTE	W24
	BYTE		N12     En2 
	BYTE	W12
	BYTE		N24     As2 
	BYTE	W22
	BYTE	W02
	BYTE		N12     En2 
	BYTE	W12
	BYTE		N24     An2 
	BYTE	W24
	BYTE		N12     En2 
	BYTE	W12
	BYTE		N06     Gn2 
	BYTE	W06
	BYTE		        Fs2 
	BYTE	W06
	BYTE		        En2 
	BYTE	W06
	BYTE		        Fs2 
	BYTE	W04
	BYTE	W02
	BYTE		        Gn2 
	BYTE	W06
	BYTE		        Gn2   v072
	BYTE	W06
	BYTE		        Gn2   v020
	BYTE	W12
	BYTE		N12     En3   v100
	BYTE	W12
	BYTE		        Ds3 
	BYTE	W12
	BYTE		        Fs2 
	BYTE	W12
	BYTE		        Gn2 
	BYTE	W10
	BYTE	W02
	BYTE		        Bn2 
	BYTE	W12
	BYTE		        Gn2 
	BYTE	W12
	BYTE		        Dn3 
	BYTE	W12
	BYTE		        Cs3 
	BYTE	W10
	BYTE	W02
	BYTE		        Cn3 
	BYTE	W12
	BYTE		        Bn2 
	BYTE	W12
	BYTE		        Fn2 
	BYTE	W12
	BYTE		        Fs2 
	BYTE	W12
	BYTE		        An2 
	BYTE	W12
	BYTE		        Fs2 
	BYTE	W12
	BYTE		        Bn2 
	BYTE	W12
	BYTE		        An2 
	BYTE	W10
	BYTE	W96
	BYTE	W96
	BYTE	W96
	BYTE	W96
	BYTE	W96
	BYTE	W96
	BYTE	W96
	BYTE	W96
	BYTE	W03
	BYTE		N24     En2   v127
	BYTE	W24
	BYTE		N23     Fs2 
	BYTE	W24
	BYTE		N15     Gn2 
	BYTE	W16
	BYTE		        Dn3 
	BYTE	W16
	BYTE		        Cs3 
	BYTE	W13
	BYTE	W03
	BYTE		N68     Cn3 
	BYTE	W72
	BYTE		N06     An2 
	BYTE	W06
	BYTE		        Bn2 
	BYTE	W06
	BYTE		N12     Cn3 
	BYTE	W09
	BYTE	W03
	BYTE		TIE     Bn2 
	BYTE	W92
	BYTE	W01
	BYTE	W09
	BYTE		EOT
	BYTE		N48     Bn2   v072
	BYTE	W84
	BYTE	W03
	BYTE	W96
	BYTE	W96
	BYTE	W03
	BYTE		N24     En2   v127
	BYTE	W24
	BYTE		        Fs2 
	BYTE	W24
	BYTE		N15     Gn2 
	BYTE	W16
	BYTE		        Dn3 
	BYTE	W16
	BYTE		        Cs3 
	BYTE	W13
	BYTE	W03
	BYTE		N72     Cn3 
	BYTE	W72
	BYTE		N06     An2 
	BYTE	W06
	BYTE		        Bn2 
	BYTE	W06
	BYTE		N12     Cn3 
	BYTE	W09
	BYTE	W03
	BYTE		N60     En3 
	BYTE	W60
	BYTE		N24     Fn3 
	BYTE	W24
	BYTE		N12     En3 
	BYTE	W09
	BYTE	W03
	BYTE		N90     Dn3 
	BYTE	W90
	BYTE		N06     Dn3   v060
	BYTE	W03
	BYTE	W03
	BYTE		N06     Cn3   v127
	BYTE	W06
	BYTE		        Cn3   v060
	BYTE	W06
	BYTE		        An2   v127
	BYTE	W06
	BYTE		        Cn3   v060
	BYTE	W06
	BYTE		        Fn2   v127
	BYTE	W06
	BYTE		        An2   v060
	BYTE	W06
	BYTE		        Cn3   v127
	BYTE	W06
	BYTE		        Fn2   v060
	BYTE	W06
	BYTE		        An2   v127
	BYTE	W06
	BYTE		        Cn3   v060
	BYTE	W06
	BYTE		        Fn2   v127
	BYTE	W06
	BYTE		        An2   v060
	BYTE	W06
	BYTE		        Cn3   v127
	BYTE	W06
	BYTE		        Fn2   v060
	BYTE	W06
	BYTE		        An2   v127
	BYTE	W06
	BYTE		        Cn3   v060
	BYTE	W03
	BYTE	PEND
	BYTE	W03
	BYTE		N06     Fn2   v127
	BYTE	W06
	BYTE		        An2   v060
	BYTE	W06
	BYTE		        Cn3   v127
	BYTE	W06
	BYTE		        Fn2   v060
	BYTE	W06
	BYTE		        An2   v127
	BYTE	W06
	BYTE		        Cn3   v060
	BYTE	W06
	BYTE		        Fn2   v127
	BYTE	W06
	BYTE		        An2   v060
	BYTE	W06
	BYTE		N12     Cn3   v127
	BYTE	W12
	BYTE		        An2 
	BYTE	W12
	BYTE		        Dn3 
	BYTE	W12
	BYTE		        En3 
	BYTE	W09
	BYTE	PEND
	BYTE	W03
	BYTE		N72     Bn2   v127
	BYTE	W72
	BYTE		N24     Cn3 
	BYTE	W21
	BYTE	PEND
	BYTE	W03
	BYTE		N90     Bn2   v127
	BYTE	W90
	BYTE		N06     Bn2   v060
	BYTE	W03
	BYTE	PEND
	BYTE	W03
	BYTE		        An2   v127
	BYTE	W06
	BYTE		        An2   v060
	BYTE	W06
	BYTE		        Fn2   v127
	BYTE	W06
	BYTE		        An2   v060
	BYTE	W06
	BYTE		        Dn2   v127
	BYTE	W06
	BYTE		        Fn2   v060
	BYTE	W06
	BYTE		        An2   v127
	BYTE	W06
	BYTE		        Dn2   v060
	BYTE	W06
	BYTE		        Fn2   v127
	BYTE	W06
	BYTE		        An2   v060
	BYTE	W06
	BYTE		        Dn2   v127
	BYTE	W06
	BYTE		        Fn2   v060
	BYTE	W06
	BYTE		        An2   v127
	BYTE	W06
	BYTE		        Dn2   v060
	BYTE	W06
	BYTE		        Fn2   v127
	BYTE	W06
	BYTE		        An2   v060
	BYTE	W03
	BYTE	W03
	BYTE		        Dn2   v127
	BYTE	W06
	BYTE		        Fn2   v060
	BYTE	W06
	BYTE		        An2   v127
	BYTE	W06
	BYTE		        Dn2   v060
	BYTE	W06
	BYTE		        Fn2   v127
	BYTE	W06
	BYTE		        An2   v060
	BYTE	W06
	BYTE		        Dn2   v127
	BYTE	W06
	BYTE		        Fn2   v060
	BYTE	W06
	BYTE		N12     An2   v127
	BYTE	W12
	BYTE		        Fn2 
	BYTE	W12
	BYTE		        Bn2 
	BYTE	W12
	BYTE		        Cn3 
	BYTE	W09
	BYTE	W03
	BYTE		N72     Gs2 
	BYTE	W72
	BYTE		N24     An2   v120
	BYTE	W21
	BYTE	W03
	BYTE		N90     Gs2   v104
	BYTE	W90
	BYTE		N06     Gs2   v060
	BYTE	W03
	BYTE	PATT
	 POIN2	seq_009_10 + 0xF5
	BYTE	PATT
	 POIN2	seq_009_10 + 0x128
	BYTE	PATT
	 POIN2	seq_009_10 + 0x14D
	BYTE	PATT
	 POIN2	seq_009_10 + 0x156
	BYTE	W03
	BYTE		N06     Dn3   v127
	BYTE	W06
	BYTE		        Dn3   v060
	BYTE	W06
	BYTE		        As2   v127
	BYTE	W06
	BYTE		        Dn3   v060
	BYTE	W06
	BYTE		        Fn2   v127
	BYTE	W06
	BYTE		        As2   v060
	BYTE	W06
	BYTE		        Dn3   v127
	BYTE	W06
	BYTE		        Fn2   v060
	BYTE	W06
	BYTE		        As2   v127
	BYTE	W06
	BYTE		        Dn3   v060
	BYTE	W06
	BYTE		        Fn2   v127
	BYTE	W06
	BYTE		        As2   v060
	BYTE	W06
	BYTE		        Dn3   v127
	BYTE	W06
	BYTE		        Fn2   v060
	BYTE	W06
	BYTE		        As2   v127
	BYTE	W06
	BYTE		        Dn3   v060
	BYTE	W03
	BYTE	W03
	BYTE		        Fn2   v127
	BYTE	W06
	BYTE		        As2   v060
	BYTE	W06
	BYTE		        Dn3   v127
	BYTE	W06
	BYTE		        Fn2   v060
	BYTE	W06
	BYTE		        As2   v127
	BYTE	W06
	BYTE		        Dn3   v060
	BYTE	W06
	BYTE		        Fn2   v127
	BYTE	W06
	BYTE		        As2   v060
	BYTE	W06
	BYTE		N12     Dn3   v127
	BYTE	W12
	BYTE		        As2 
	BYTE	W12
	BYTE		        En3 
	BYTE	W12
	BYTE		        Fn3 
	BYTE	W09
	BYTE	W03
	BYTE		TIE     En3 
	BYTE	W92
	BYTE	W01
	BYTE	W72
	BYTE	W03
	BYTE		EOT
	BYTE		N23     En3   v104
	BYTE	W21
	BYTE	W03
	BYTE		N06     An2   v127
	BYTE	W06
	BYTE		        An2   v072
	BYTE	W06
	BYTE		        An2   v044
	BYTE	W24
	BYTE		        Bn2   v127
	BYTE	W06
	BYTE		        Bn2   v072
	BYTE	W06
	BYTE		        Bn2   v044
	BYTE	W24
	BYTE		        Cn3   v127
	BYTE	W06
	BYTE		        Cn3   v068
	BYTE	W06
	BYTE		        Cn3   v040
	BYTE	W09
	BYTE	W15
	BYTE		N36     Dn3   v127
	BYTE	W36
	BYTE		N06     Cn3 
	BYTE	W06
	BYTE		        Cn3   v068
	BYTE	W06
	BYTE		        Cn3   v040
	BYTE	W12
	BYTE		        Bn2   v127
	BYTE	W06
	BYTE		        Bn2   v068
	BYTE	W06
	BYTE		        Bn2   v040
	BYTE	W09
	BYTE	W03
	BYTE		        An2   v127
	BYTE	W06
	BYTE		        An2   v068
	BYTE	W06
	BYTE		        An2   v040
	BYTE	W24
	BYTE		        Gn2   v127
	BYTE	W06
	BYTE		        Gn2   v068
	BYTE	W06
	BYTE		        Gn2   v040
	BYTE	W24
	BYTE		        An2   v127
	BYTE	W06
	BYTE		        An2   v068
	BYTE	W06
	BYTE		        An2   v040
	BYTE	W09
	BYTE	W15
	BYTE		N36     En2   v127
	BYTE	W36
	BYTE		N06     Gn2 
	BYTE	W06
	BYTE		        Gn2   v064
	BYTE	W06
	BYTE		        Gn2   v040
	BYTE	W12
	BYTE		        Gs2   v127
	BYTE	W06
	BYTE		        Gs2   v064
	BYTE	W06
	BYTE		        Gs2   v040
	BYTE	W09
	BYTE	W03
	BYTE		        An2   v127
	BYTE	W06
	BYTE		        An2   v064
	BYTE	W06
	BYTE		        An2   v040
	BYTE	W24
	BYTE		        Bn2   v127
	BYTE	W06
	BYTE		        Bn2   v064
	BYTE	W06
	BYTE		        Bn2   v040
	BYTE	W24
	BYTE		        Cn3   v127
	BYTE	W06
	BYTE		        Cn3   v064
	BYTE	W06
	BYTE		        Cn3   v040
	BYTE	W09
	BYTE	W15
	BYTE		N36     Dn3   v127
	BYTE	W36
	BYTE		N06     Cn3 
	BYTE	W06
	BYTE		        Cn3   v064
	BYTE	W06
	BYTE		        Cn3   v040
	BYTE	W12
	BYTE		        Bn2   v127
	BYTE	W06
	BYTE		        Bn2   v064
	BYTE	W06
	BYTE		        Bn2   v040
	BYTE	W09
	BYTE	W03
	BYTE		        An2   v127
	BYTE	W06
	BYTE		        An2   v064
	BYTE	W06
	BYTE		        An2   v040
	BYTE	W80
	BYTE	W01
	BYTE	W96
	BYTE	W03
	BYTE		N06     Bn2   v127
	BYTE	W06
	BYTE		        Bn2   v064
	BYTE	W06
	BYTE		        Bn2   v040
	BYTE	W24
	BYTE		        Cs3   v127
	BYTE	W06
	BYTE		        Cs3   v064
	BYTE	W06
	BYTE		        Cs3   v040
	BYTE	W24
	BYTE		        Dn3   v127
	BYTE	W06
	BYTE		        Dn3   v064
	BYTE	W06
	BYTE		        Dn3   v040
	BYTE	W09
	BYTE	PEND
	BYTE	W15
	BYTE		N36     En3   v127
	BYTE	W36
	BYTE		N06     Dn3 
	BYTE	W06
	BYTE		        Dn3   v064
	BYTE	W06
	BYTE		        Dn3   v040
	BYTE	W12
	BYTE		        Cs3   v127
	BYTE	W06
	BYTE		        Cs3   v064
	BYTE	W06
	BYTE		        Cs3   v040
	BYTE	W09
	BYTE	PEND
	BYTE	W03
	BYTE		        Bn2   v127
	BYTE	W06
	BYTE		        Bn2   v064
	BYTE	W06
	BYTE		        Bn2   v040
	BYTE	W24
	BYTE		        An2   v127
	BYTE	W06
	BYTE		        An2   v064
	BYTE	W06
	BYTE		        An2   v040
	BYTE	W24
	BYTE		        Bn2   v127
	BYTE	W06
	BYTE		        Bn2   v064
	BYTE	W06
	BYTE		        Bn2   v040
	BYTE	W09
	BYTE	W15
	BYTE		N36     Fs2   v127
	BYTE	W36
	BYTE		N06     An2 
	BYTE	W06
	BYTE		        An2   v064
	BYTE	W06
	BYTE		        An2   v040
	BYTE	W12
	BYTE		        As2   v127
	BYTE	W06
	BYTE		        As2   v064
	BYTE	W06
	BYTE		        As2   v040
	BYTE	W09
	BYTE	PATT
	 POIN2	seq_009_10 + 0x2E0
	BYTE	PATT
	 POIN2	seq_009_10 + 0x2FE
	BYTE	W03
	BYTE		N36     Bn2   v127
	BYTE	W36
	BYTE		        An2 
	BYTE	W36
	BYTE		N23     Gs2 
	BYTE	W21
	BYTE	W03
	BYTE		N06     Gs2   v084
	BYTE	W06
	BYTE		        Gs2   v048
	BYTE	W06
	BYTE		        Gs2   v036
	BYTE	W80
	BYTE	W01
	BYTE	W03
	BYTE		N36     Gn2   v127
	BYTE	W36
	BYTE		        Fs2 
	BYTE	W36
	BYTE		N23     Fn2 
	BYTE	W21
	BYTE	W03
	BYTE		N06     Fn2   v084
	BYTE	W06
	BYTE		        Fn2   v048
	BYTE	W06
	BYTE		        Fn2   v036
	BYTE	W80
	BYTE	W01
	BYTE	GoTo
	 POIN2	seq_009_10 + 0xB
	BYTE	FINE

//*********************** Track 12 ***********************//

seq_009_11:
	BYTE	KEYSH   seq_009_key+0
	BYTE		VOICE   68
	BYTE		VOL     51*seq_009_mvl/mxv
	BYTE		PAN     c_v+0
	BYTE		BENDR   3
	BYTE		BEND    c_v+0
	BYTE	W03
	BYTE		N36     Gn2   v100
	BYTE	W96
	BYTE	W96
	BYTE		        An2 
	BYTE	W96
	BYTE	W96
	BYTE		        Gn2 
	BYTE	W96
	BYTE	W96
	BYTE		        An2 
	BYTE	W96
	BYTE	W96
	BYTE		N36     Gn2   v100
	BYTE	W96
	BYTE	W96
	BYTE	W96
	BYTE	W96
	BYTE		N36
	BYTE	W96
	BYTE	W96
	BYTE	W96
	BYTE	W96
	BYTE		        An2 
	BYTE	W96
	BYTE	W48
	BYTE		N36
	BYTE	W24
	BYTE	W12
	BYTE		        Gn2 
	BYTE	W36
	BYTE		        An2 
	BYTE	W24
	BYTE	W12
	BYTE		        Gn2 
	BYTE	W60
	BYTE	W24
	BYTE		        An2 
	BYTE	W48
	BYTE	W48
	BYTE	W96
	BYTE		        Gn2 
	BYTE	W96
	BYTE	W96
	BYTE	W96
	BYTE	W96
	BYTE		N36
	BYTE	W96
	BYTE	W96
	BYTE	W96
	BYTE	W96
	BYTE		        An2 
	BYTE	W96
	BYTE	W96
	BYTE	W96
	BYTE	W96
	BYTE	W24
	BYTE		N36     An2   v100
	BYTE	W48
	BYTE		        Gn2 
	BYTE	W24
	BYTE	PEND
	BYTE	PATT
	 POIN2	seq_009_11 + 0x48
	BYTE	W96
	BYTE	W96
	BYTE	W96
	BYTE	W96
	BYTE		N36     An2   v100
	BYTE	W36
	BYTE		        Gn2 
	BYTE	W36
	BYTE		        An2 
	BYTE	W24
	BYTE	PEND
	BYTE	W12
	BYTE		        Gn2 
	BYTE	W36
	BYTE		N24
	BYTE	W24
	BYTE		N36     Gn2   v120
	BYTE	W24
	BYTE	W96
	BYTE	W96
	BYTE		N36     Gn2   v100
	BYTE	W36
	BYTE		        An2 
	BYTE	W36
	BYTE		        Gn2 
	BYTE	W24
	BYTE	PEND
	BYTE	W12
	BYTE		        An2 
	BYTE	W36
	BYTE		N24     Gn2 
	BYTE	W24
	BYTE		N36     Gn2   v127
	BYTE	W24
	BYTE	W96
	BYTE	W96
	BYTE	PATT
	 POIN2	seq_009_11 + 0x59
	BYTE	W12
	BYTE		N36     Gn2   v100
	BYTE	W36
	BYTE		N24     Gn2   v092
	BYTE	W24
	BYTE		N36     Gn2   v124
	BYTE	W24
	BYTE	W96
	BYTE	W96
	BYTE	PATT
	 POIN2	seq_009_11 + 0x59
	BYTE	W12
	BYTE		N36     Gn2   v100
	BYTE	W36
	BYTE		N24     Gn2   v096
	BYTE	W24
	BYTE		N36     Gn2   v127
	BYTE	W24
	BYTE	W96
	BYTE	W96
	BYTE	W96
	BYTE	W96
	BYTE	W96
	BYTE	W96
	BYTE	W96
	BYTE	W96
	BYTE		N36     An2   v100
	BYTE	W48
	BYTE		        Gn2 
	BYTE	W48
	BYTE	PEND
	BYTE	PATT
	 POIN2	seq_009_11 + 0xB0
	BYTE	W96
	BYTE	W96
	BYTE	W96
	BYTE	W96
	BYTE	W96
	BYTE	W96
	BYTE	PATT
	 POIN2	seq_009_11 + 0x6D
	BYTE	W96
	BYTE	PATT
	 POIN2	seq_009_11 + 0x59
	BYTE	W72
	BYTE		N36     Gn2   v100
	BYTE	W24
	BYTE	GoTo
	 POIN2	seq_009_11 + 0x1B
	BYTE	W12
	BYTE	FINE

//******************************************************//

	ALIGN 4

seq_009:
	BYTE	12	// NumTrks
	BYTE	0	// NumBlks
	BYTE	seq_009_pri	// Priority
	BYTE	seq_009_rev	// Reverb

	POIN2	seq_009_grp

	POIN2	seq_009_0
	POIN2	seq_009_1
	POIN2	seq_009_2
	POIN2	seq_009_3
	POIN2	seq_009_4
	POIN2	seq_009_5
	POIN2	seq_009_6
	POIN2	seq_009_7
	POIN2	seq_009_8
	POIN2	seq_009_9
	POIN2	seq_009_10
	POIN2	seq_009_11

	
