//Event file generated from Sappy .s format.
// File generated by m4a2s Song-Module
	#include "MPlayDef.event"

	#define	seq_000_grp  bank_000
	#define	seq_000_pri  10
	#define	seq_000_rev  0
	#define	seq_000_mvl  127
	#define	seq_000_key  0

	// .rodata
	//	seq_000
	ALIGN 4

//*********************** Track 01 ***********************//

seq_000_0:
	BYTE	KEYSH   seq_000_key+0
	BYTE	TEMPO   140/2
	BYTE	W06
	BYTE	W96
	BYTE	W96
	BYTE	W96
	BYTE	W90
	BYTE		VOICE   47
	BYTE	W01
	BYTE		VOL     69*seq_000_mvl/mxv
	BYTE	W01
	BYTE		PAN     c_v+0
	BYTE	W03
	BYTE	W01
	BYTE	TEMPO   140/2
	BYTE		N48     Gn2   v112
	BYTE	W03
	BYTE		VOL     70*seq_000_mvl/mxv
	BYTE	W03
	BYTE		        71*seq_000_mvl/mxv
	BYTE	W06
	BYTE		        71*seq_000_mvl/mxv
	BYTE	W03
	BYTE		        73*seq_000_mvl/mxv
	BYTE	W03
	BYTE		        74*seq_000_mvl/mxv
	BYTE	W03
	BYTE		        76*seq_000_mvl/mxv
	BYTE	W06
	BYTE		        75*seq_000_mvl/mxv
	BYTE	W03
	BYTE		        73*seq_000_mvl/mxv
	BYTE	W03
	BYTE		        69*seq_000_mvl/mxv
	BYTE	W03
	BYTE		        65*seq_000_mvl/mxv
	BYTE	W03
	BYTE		        59*seq_000_mvl/mxv
	BYTE	W03
	BYTE		        52*seq_000_mvl/mxv
	BYTE	W03
	BYTE		        43*seq_000_mvl/mxv
	BYTE	W03
	BYTE		        69*seq_000_mvl/mxv
	BYTE		N24     Bn1 
	BYTE	W24
	BYTE		        Cn2   v124
	BYTE	W24
	BYTE		N72     Dn2   v116
	BYTE	W12
	BYTE		VOL     69*seq_000_mvl/mxv
	BYTE	W06
	BYTE		        70*seq_000_mvl/mxv
	BYTE	W03
	BYTE		        71*seq_000_mvl/mxv
	BYTE	W03
	BYTE		        71*seq_000_mvl/mxv
	BYTE	W03
	BYTE		        72*seq_000_mvl/mxv
	BYTE	W03
	BYTE		        73*seq_000_mvl/mxv
	BYTE	W03
	BYTE		        74*seq_000_mvl/mxv
	BYTE	W06
	BYTE		        74*seq_000_mvl/mxv
	BYTE	W06
	BYTE		        73*seq_000_mvl/mxv
	BYTE	W03
	BYTE		        71*seq_000_mvl/mxv
	BYTE	W03
	BYTE		        69*seq_000_mvl/mxv
	BYTE	W03
	BYTE		        66*seq_000_mvl/mxv
	BYTE	W03
	BYTE		        62*seq_000_mvl/mxv
	BYTE	W03
	BYTE		        58*seq_000_mvl/mxv
	BYTE	W03
	BYTE		        53*seq_000_mvl/mxv
	BYTE	W03
	BYTE		        47*seq_000_mvl/mxv
	BYTE	W03
	BYTE		        41*seq_000_mvl/mxv
	BYTE	W03
	BYTE		        69*seq_000_mvl/mxv
	BYTE		N24     An2   v100
	BYTE	W24
	BYTE	PEND
	BYTE		N96     Gn2   v108
	BYTE	W48
	BYTE		VOL     68*seq_000_mvl/mxv
	BYTE	W09
	BYTE		        67*seq_000_mvl/mxv
	BYTE	W03
	BYTE		        66*seq_000_mvl/mxv
	BYTE	W03
	BYTE		        64*seq_000_mvl/mxv
	BYTE	W03
	BYTE		        62*seq_000_mvl/mxv
	BYTE	W03
	BYTE		        60*seq_000_mvl/mxv
	BYTE	W03
	BYTE		        57*seq_000_mvl/mxv
	BYTE	W03
	BYTE		        54*seq_000_mvl/mxv
	BYTE	W03
	BYTE		        51*seq_000_mvl/mxv
	BYTE	W03
	BYTE		        47*seq_000_mvl/mxv
	BYTE	W03
	BYTE		        43*seq_000_mvl/mxv
	BYTE	W03
	BYTE		        39*seq_000_mvl/mxv
	BYTE	W03
	BYTE		        34*seq_000_mvl/mxv
	BYTE	W03
	BYTE		        28*seq_000_mvl/mxv
	BYTE	W03
	BYTE	PEND
	BYTE		        69*seq_000_mvl/mxv
	BYTE		N44     Ds2   v084
	BYTE	W48
	BYTE		N24     Ds2   v108
	BYTE	W24
	BYTE		        Fn2 
	BYTE	W24
	BYTE		N48     Gn2   v112
	BYTE	W48
	BYTE		        Cn3   v104
	BYTE	W48
	BYTE		N72     An2   v112
	BYTE	W36
	BYTE	W03
	BYTE		VOL     68*seq_000_mvl/mxv
	BYTE	W06
	BYTE		        67*seq_000_mvl/mxv
	BYTE	W03
	BYTE		        66*seq_000_mvl/mxv
	BYTE	W03
	BYTE		        64*seq_000_mvl/mxv
	BYTE	W03
	BYTE		        61*seq_000_mvl/mxv
	BYTE	W03
	BYTE		        58*seq_000_mvl/mxv
	BYTE	W03
	BYTE		        54*seq_000_mvl/mxv
	BYTE	W03
	BYTE		        51*seq_000_mvl/mxv
	BYTE	W03
	BYTE		        45*seq_000_mvl/mxv
	BYTE	W03
	BYTE		        40*seq_000_mvl/mxv
	BYTE	W03
	BYTE		        69*seq_000_mvl/mxv
	BYTE		N24     Fn2   v088
	BYTE	W24
	BYTE		N48     Gn2   v108
	BYTE	W48
	BYTE		        Dn3   v096
	BYTE	W48
	BYTE		N92     An2 
	BYTE	W30
	BYTE		VOL     68*seq_000_mvl/mxv
	BYTE	W03
	BYTE		        68*seq_000_mvl/mxv
	BYTE	W03
	BYTE		        67*seq_000_mvl/mxv
	BYTE	W06
	BYTE		        66*seq_000_mvl/mxv
	BYTE	W03
	BYTE		        65*seq_000_mvl/mxv
	BYTE	W03
	BYTE		        64*seq_000_mvl/mxv
	BYTE	W03
	BYTE		        62*seq_000_mvl/mxv
	BYTE	W03
	BYTE		        61*seq_000_mvl/mxv
	BYTE	W03
	BYTE		        58*seq_000_mvl/mxv
	BYTE	W03
	BYTE		        56*seq_000_mvl/mxv
	BYTE	W03
	BYTE		        54*seq_000_mvl/mxv
	BYTE	W03
	BYTE		        51*seq_000_mvl/mxv
	BYTE	W03
	BYTE		        47*seq_000_mvl/mxv
	BYTE	W03
	BYTE		        44*seq_000_mvl/mxv
	BYTE	W03
	BYTE		        41*seq_000_mvl/mxv
	BYTE	W03
	BYTE		        37*seq_000_mvl/mxv
	BYTE	W03
	BYTE		        34*seq_000_mvl/mxv
	BYTE	W03
	BYTE	TEMPO   138/2
	BYTE		        30*seq_000_mvl/mxv
	BYTE	W03
	BYTE		        25*seq_000_mvl/mxv
	BYTE	W03
	BYTE		        20*seq_000_mvl/mxv
	BYTE	W03
	BYTE		        15*seq_000_mvl/mxv
	BYTE	W03
	BYTE	TEMPO   140/2
	BYTE		        69*seq_000_mvl/mxv
	BYTE		N48     Gn2   v112
	BYTE	W03
	BYTE		VOL     70*seq_000_mvl/mxv
	BYTE	W03
	BYTE		        71*seq_000_mvl/mxv
	BYTE	W06
	BYTE		        71*seq_000_mvl/mxv
	BYTE	W03
	BYTE		        73*seq_000_mvl/mxv
	BYTE	W03
	BYTE		        74*seq_000_mvl/mxv
	BYTE	W03
	BYTE		        76*seq_000_mvl/mxv
	BYTE	W06
	BYTE		        75*seq_000_mvl/mxv
	BYTE	W03
	BYTE		        73*seq_000_mvl/mxv
	BYTE	W03
	BYTE		        69*seq_000_mvl/mxv
	BYTE	W03
	BYTE		        65*seq_000_mvl/mxv
	BYTE	W03
	BYTE		        59*seq_000_mvl/mxv
	BYTE	W03
	BYTE		        52*seq_000_mvl/mxv
	BYTE	W03
	BYTE		        43*seq_000_mvl/mxv
	BYTE	W03
	BYTE		        69*seq_000_mvl/mxv
	BYTE		N24     Bn1 
	BYTE	W24
	BYTE		        Cn2   v124
	BYTE	W24
	BYTE	PATT
	 POIN2	seq_000_0 + 0x3B
	BYTE	PATT
	 POIN2	seq_000_0 + 0x68
	BYTE		VOL     69*seq_000_mvl/mxv
	BYTE		N44     Ds2   v084
	BYTE	W48
	BYTE		N24     Ds2   v112
	BYTE	W24
	BYTE		        Fn2 
	BYTE	W24
	BYTE		N48     Gn2   v120
	BYTE	W48
	BYTE		        As2 
	BYTE	W48
	BYTE		N72     An2 
	BYTE	W36
	BYTE	W03
	BYTE		VOL     68*seq_000_mvl/mxv
	BYTE	W06
	BYTE		        67*seq_000_mvl/mxv
	BYTE	W03
	BYTE		        66*seq_000_mvl/mxv
	BYTE	W03
	BYTE		        64*seq_000_mvl/mxv
	BYTE	W03
	BYTE		        61*seq_000_mvl/mxv
	BYTE	W03
	BYTE		        58*seq_000_mvl/mxv
	BYTE	W03
	BYTE		        54*seq_000_mvl/mxv
	BYTE	W03
	BYTE		        51*seq_000_mvl/mxv
	BYTE	W03
	BYTE		        45*seq_000_mvl/mxv
	BYTE	W03
	BYTE		        40*seq_000_mvl/mxv
	BYTE	W03
	BYTE		        69*seq_000_mvl/mxv
	BYTE		N24     Fn2   v108
	BYTE	W24
	BYTE		TIE     Gn2   v116
	BYTE	W06
	BYTE		VOL     69*seq_000_mvl/mxv
	BYTE	W03
	BYTE		        69*seq_000_mvl/mxv
	BYTE	W09
	BYTE		        70*seq_000_mvl/mxv
	BYTE	W03
	BYTE		        71*seq_000_mvl/mxv
	BYTE	W06
	BYTE		        72*seq_000_mvl/mxv
	BYTE	W03
	BYTE		        73*seq_000_mvl/mxv
	BYTE	W03
	BYTE		        74*seq_000_mvl/mxv
	BYTE	W03
	BYTE		        74*seq_000_mvl/mxv
	BYTE	W03
	BYTE		        76*seq_000_mvl/mxv
	BYTE	W03
	BYTE		        77*seq_000_mvl/mxv
	BYTE	W03
	BYTE		        78*seq_000_mvl/mxv
	BYTE	W06
	BYTE		        78*seq_000_mvl/mxv
	BYTE	W09
	BYTE		        77*seq_000_mvl/mxv
	BYTE	W09
	BYTE		        76*seq_000_mvl/mxv
	BYTE	W06
	BYTE		        75*seq_000_mvl/mxv
	BYTE	W03
	BYTE		        74*seq_000_mvl/mxv
	BYTE	W03
	BYTE		        73*seq_000_mvl/mxv
	BYTE	W03
	BYTE		        73*seq_000_mvl/mxv
	BYTE	W03
	BYTE		        71*seq_000_mvl/mxv
	BYTE	W03
	BYTE		        70*seq_000_mvl/mxv
	BYTE	W03
	BYTE		        69*seq_000_mvl/mxv
	BYTE	W03
	BYTE		        68*seq_000_mvl/mxv
	BYTE	W03
	BYTE		        66*seq_000_mvl/mxv
	BYTE	W03
	BYTE		        65*seq_000_mvl/mxv
	BYTE	W03
	BYTE		        63*seq_000_mvl/mxv
	BYTE	W03
	BYTE		        62*seq_000_mvl/mxv
	BYTE	W03
	BYTE		        60*seq_000_mvl/mxv
	BYTE	W03
	BYTE		        58*seq_000_mvl/mxv
	BYTE	W03
	BYTE		        56*seq_000_mvl/mxv
	BYTE	W03
	BYTE		        54*seq_000_mvl/mxv
	BYTE	W03
	BYTE		        52*seq_000_mvl/mxv
	BYTE	W03
	BYTE		        50*seq_000_mvl/mxv
	BYTE	W03
	BYTE		        47*seq_000_mvl/mxv
	BYTE	W03
	BYTE		        45*seq_000_mvl/mxv
	BYTE	W03
	BYTE		        43*seq_000_mvl/mxv
	BYTE	W03
	BYTE		        40*seq_000_mvl/mxv
	BYTE	W03
	BYTE		        37*seq_000_mvl/mxv
	BYTE	W03
	BYTE		        34*seq_000_mvl/mxv
	BYTE	W03
	BYTE		        32*seq_000_mvl/mxv
	BYTE	W03
	BYTE		        29*seq_000_mvl/mxv
	BYTE	W03
	BYTE		        26*seq_000_mvl/mxv
	BYTE	W03
	BYTE		        21*seq_000_mvl/mxv
	BYTE	W06
	BYTE		EOT
	BYTE	W18
	BYTE		VOL     69*seq_000_mvl/mxv
	BYTE	W12
	BYTE	TEMPO   140/2
	BYTE		N48     Dn3   v112
	BYTE	W48
	BYTE		        Gn2   v120
	BYTE	W48
	BYTE		N48     Fn3   v108
	BYTE	W48
	BYTE		N24     Ds3   v096
	BYTE	W24
	BYTE		        Dn3   v084
	BYTE	W24
	BYTE	PEND
	BYTE		        Cn3   v100
	BYTE	W24
	BYTE		        Dn3   v092
	BYTE	W24
	BYTE		TIE     An2   v084
	BYTE	W48
	BYTE	W12
	BYTE		VOL     68*seq_000_mvl/mxv
	BYTE	W12
	BYTE		        67*seq_000_mvl/mxv
	BYTE	W06
	BYTE		        66*seq_000_mvl/mxv
	BYTE	W06
	BYTE		        64*seq_000_mvl/mxv
	BYTE	W06
	BYTE		        62*seq_000_mvl/mxv
	BYTE	W06
	BYTE		        59*seq_000_mvl/mxv
	BYTE	W06
	BYTE		        57*seq_000_mvl/mxv
	BYTE	W06
	BYTE		        53*seq_000_mvl/mxv
	BYTE	W06
	BYTE		        50*seq_000_mvl/mxv
	BYTE	W06
	BYTE		        45*seq_000_mvl/mxv
	BYTE	W06
	BYTE		        40*seq_000_mvl/mxv
	BYTE	W06
	BYTE		        35*seq_000_mvl/mxv
	BYTE	W06
	BYTE		        30*seq_000_mvl/mxv
	BYTE	W04
	BYTE	PEND
	BYTE		EOT     An2 
	BYTE	W02
	BYTE		VOL     69*seq_000_mvl/mxv
	BYTE		N24     Cn3   v108
	BYTE	W24
	BYTE		        Dn3   v104
	BYTE	W24
	BYTE		N72     An2   v096
	BYTE	W36
	BYTE		VOL     68*seq_000_mvl/mxv
	BYTE	W06
	BYTE		        67*seq_000_mvl/mxv
	BYTE	W06
	BYTE		        64*seq_000_mvl/mxv
	BYTE	W06
	BYTE		        59*seq_000_mvl/mxv
	BYTE	W06
	BYTE		        53*seq_000_mvl/mxv
	BYTE	W06
	BYTE		        45*seq_000_mvl/mxv
	BYTE	W06
	BYTE		        69*seq_000_mvl/mxv
	BYTE		N24     Gn2   v120
	BYTE	W24
	BYTE		        An2   v116
	BYTE	W24
	BYTE		        Cn3   v108
	BYTE	W24
	BYTE		        As2 
	BYTE	W24
	BYTE		TIE     Gn2   v096
	BYTE	W06
	BYTE		VOL     68*seq_000_mvl/mxv
	BYTE	W12
	BYTE		        66*seq_000_mvl/mxv
	BYTE	W06
	BYTE		        64*seq_000_mvl/mxv
	BYTE	W06
	BYTE		        62*seq_000_mvl/mxv
	BYTE	W06
	BYTE		        59*seq_000_mvl/mxv
	BYTE	W06
	BYTE		        59*seq_000_mvl/mxv
	BYTE	W12
	BYTE		        61*seq_000_mvl/mxv
	BYTE	W06
	BYTE		        61*seq_000_mvl/mxv
	BYTE	W06
	BYTE		        62*seq_000_mvl/mxv
	BYTE	W06
	BYTE		        65*seq_000_mvl/mxv
	BYTE	W06
	BYTE		        67*seq_000_mvl/mxv
	BYTE	W06
	BYTE		        70*seq_000_mvl/mxv
	BYTE	W06
	BYTE		        73*seq_000_mvl/mxv
	BYTE	W06
	BYTE		        75*seq_000_mvl/mxv
	BYTE	W06
	BYTE		        76*seq_000_mvl/mxv
	BYTE	W06
	BYTE		        74*seq_000_mvl/mxv
	BYTE	W06
	BYTE		        70*seq_000_mvl/mxv
	BYTE	W06
	BYTE		EOT
	BYTE		VOL     69*seq_000_mvl/mxv
	BYTE		N24     An2   v120
	BYTE	W24
	BYTE		        As2   v108
	BYTE	W24
	BYTE		N48     Dn3   v112
	BYTE	W48
	BYTE		        Gn2   v120
	BYTE	W48
	BYTE	PATT
	 POIN2	seq_000_0 + 0x1BC
	BYTE		N24     Cn3   v108
	BYTE	W24
	BYTE		        Dn3   v096
	BYTE	W24
	BYTE		TIE     An2   v088
	BYTE	W48
	BYTE	PATT
	 POIN2	seq_000_0 + 0x1D2
	BYTE		EOT     An2 
	BYTE	W02
	BYTE		VOL     69*seq_000_mvl/mxv
	BYTE		N48     Cn3   v112
	BYTE	W48
	BYTE		        Fn2   v108
	BYTE	W03
	BYTE		VOL     69*seq_000_mvl/mxv
	BYTE	W03
	BYTE		        70*seq_000_mvl/mxv
	BYTE	W06
	BYTE		        71*seq_000_mvl/mxv
	BYTE	W03
	BYTE		        71*seq_000_mvl/mxv
	BYTE	W03
	BYTE		        72*seq_000_mvl/mxv
	BYTE	W03
	BYTE		        73*seq_000_mvl/mxv
	BYTE	W03
	BYTE		        74*seq_000_mvl/mxv
	BYTE	W03
	BYTE		        76*seq_000_mvl/mxv
	BYTE	W03
	BYTE		        77*seq_000_mvl/mxv
	BYTE	W06
	BYTE		        76*seq_000_mvl/mxv
	BYTE	W03
	BYTE		        75*seq_000_mvl/mxv
	BYTE	W03
	BYTE		        73*seq_000_mvl/mxv
	BYTE	W03
	BYTE		        71*seq_000_mvl/mxv
	BYTE	W03
	BYTE		        69*seq_000_mvl/mxv
	BYTE		N24     Gn3 
	BYTE	W24
	BYTE		        Fn3   v100
	BYTE	W24
	BYTE		        Ds3   v096
	BYTE	W24
	BYTE		        Fn3 
	BYTE	W24
	BYTE		TIE     Dn3   v092
	BYTE	W60
	BYTE		VOL     68*seq_000_mvl/mxv
	BYTE	W06
	BYTE		        67*seq_000_mvl/mxv
	BYTE	W06
	BYTE		        66*seq_000_mvl/mxv
	BYTE	W06
	BYTE		        64*seq_000_mvl/mxv
	BYTE	W06
	BYTE		        62*seq_000_mvl/mxv
	BYTE	W06
	BYTE		        60*seq_000_mvl/mxv
	BYTE	W06
	BYTE		        57*seq_000_mvl/mxv
	BYTE	W06
	BYTE		        54*seq_000_mvl/mxv
	BYTE	W06
	BYTE		        51*seq_000_mvl/mxv
	BYTE	W06
	BYTE		        46*seq_000_mvl/mxv
	BYTE	W06
	BYTE		        42*seq_000_mvl/mxv
	BYTE	W06
	BYTE		        37*seq_000_mvl/mxv
	BYTE	W06
	BYTE		        32*seq_000_mvl/mxv
	BYTE	W06
	BYTE		        27*seq_000_mvl/mxv
	BYTE	W06
	BYTE		        21*seq_000_mvl/mxv
	BYTE	W06
	BYTE		        15*seq_000_mvl/mxv
	BYTE	W06
	BYTE		        9*seq_000_mvl/mxv
	BYTE	W06
	BYTE		EOT
	BYTE	W18
	BYTE		VOL     69*seq_000_mvl/mxv
	BYTE	W12
	BYTE		N72     Dn3   v100
	BYTE	W42
	BYTE		VOL     67*seq_000_mvl/mxv
	BYTE	W06
	BYTE		        66*seq_000_mvl/mxv
	BYTE	W06
	BYTE		        62*seq_000_mvl/mxv
	BYTE	W06
	BYTE		        57*seq_000_mvl/mxv
	BYTE	W06
	BYTE		        50*seq_000_mvl/mxv
	BYTE	W06
	BYTE		        69*seq_000_mvl/mxv
	BYTE		N24     Cn3   v092
	BYTE	W24
	BYTE		N48     As2   v100
	BYTE	W48
	BYTE		        Gn2   v092
	BYTE	W48
	BYTE		N24     Fs2   v116
	BYTE	W24
	BYTE		        Dn3   v104
	BYTE	W24
	BYTE		N96     Cn3   v096
	BYTE	W42
	BYTE		VOL     68*seq_000_mvl/mxv
	BYTE	W06
	BYTE		        68*seq_000_mvl/mxv
	BYTE	W06
	BYTE		        66*seq_000_mvl/mxv
	BYTE	W06
	BYTE		        64*seq_000_mvl/mxv
	BYTE	W06
	BYTE		        60*seq_000_mvl/mxv
	BYTE	W06
	BYTE		        55*seq_000_mvl/mxv
	BYTE	W06
	BYTE		        50*seq_000_mvl/mxv
	BYTE	W06
	BYTE		        43*seq_000_mvl/mxv
	BYTE	W06
	BYTE		        35*seq_000_mvl/mxv
	BYTE	W06
	BYTE		        69*seq_000_mvl/mxv
	BYTE		N24     As2   v108
	BYTE	W24
	BYTE		        Fs2   v096
	BYTE	W24
	BYTE		TIE     As2   v100
	BYTE	W12
	BYTE		VOL     69*seq_000_mvl/mxv
	BYTE	W24
	BYTE		        70*seq_000_mvl/mxv
	BYTE	W06
	BYTE		        71*seq_000_mvl/mxv
	BYTE	W12
	BYTE		        71*seq_000_mvl/mxv
	BYTE	W06
	BYTE		        72*seq_000_mvl/mxv
	BYTE	W06
	BYTE		        73*seq_000_mvl/mxv
	BYTE	W06
	BYTE		        74*seq_000_mvl/mxv
	BYTE	W06
	BYTE		        74*seq_000_mvl/mxv
	BYTE	W06
	BYTE		        76*seq_000_mvl/mxv
	BYTE	W06
	BYTE		        75*seq_000_mvl/mxv
	BYTE	W06
	BYTE	W06
	BYTE		        74*seq_000_mvl/mxv
	BYTE	W06
	BYTE		        72*seq_000_mvl/mxv
	BYTE	W06
	BYTE		        69*seq_000_mvl/mxv
	BYTE	W06
	BYTE		        66*seq_000_mvl/mxv
	BYTE	W06
	BYTE		        61*seq_000_mvl/mxv
	BYTE	W06
	BYTE		        56*seq_000_mvl/mxv
	BYTE	W06
	BYTE		        51*seq_000_mvl/mxv
	BYTE	W06
	BYTE		        44*seq_000_mvl/mxv
	BYTE	W06
	BYTE		        37*seq_000_mvl/mxv
	BYTE	W06
	BYTE		        28*seq_000_mvl/mxv
	BYTE	W06
	BYTE		        19*seq_000_mvl/mxv
	BYTE	W06
	BYTE		        9*seq_000_mvl/mxv
	BYTE	W12
	BYTE		EOT
	BYTE	W12
	BYTE	W96
	BYTE	W78
	BYTE		VOL     69*seq_000_mvl/mxv
	BYTE	W18
	BYTE		N48     Gn2   v112
	BYTE	W48
	BYTE		N24     Bn1 
	BYTE	W24
	BYTE		        Cn2   v124
	BYTE	W24
	BYTE	GoTo
	 POIN2	seq_000_0 + 0x3B
	BYTE	W08
	BYTE	FINE

//*********************** Track 02 ***********************//

seq_000_1:
	BYTE	KEYSH   seq_000_key+0
	BYTE	W06
	BYTE	W96
	BYTE	W96
	BYTE	W96
	BYTE	W90
	BYTE		VOICE   49
	BYTE	W01
	BYTE		VOL     69*seq_000_mvl/mxv
	BYTE	W01
	BYTE		PAN     c_v-9
	BYTE	W03
	BYTE	W01
	BYTE		N11     Cn1   v116
	BYTE	W12
	BYTE		N08     Cn1   v100
	BYTE	W12
	BYTE		N06     Cn1   v020
	BYTE	W48
	BYTE		N12     Cn2   v100
	BYTE	W12
	BYTE		        Gn1   v104
	BYTE	W12
	BYTE	PEND
	BYTE		N11     Cn1   v116
	BYTE	W12
	BYTE		N08     Cn1   v100
	BYTE	W12
	BYTE		N06     Cn1   v020
	BYTE	W72
	BYTE	PEND
	BYTE	PATT
	 POIN2	seq_000_1 + 0x11
	BYTE	PATT
	 POIN2	seq_000_1 + 0x25
	BYTE		N11     Ds1   v112
	BYTE	W12
	BYTE		N09     Ds1   v100
	BYTE	W12
	BYTE		N06     Ds1   v020
	BYTE	W48
	BYTE		N12     Ds2   v100
	BYTE	W12
	BYTE		        As1 
	BYTE	W12
	BYTE	PEND
	BYTE		N11     Fn1   v116
	BYTE	W12
	BYTE		N08     Fn1   v100
	BYTE	W12
	BYTE		N06     Fn1   v020
	BYTE	W72
	BYTE	PEND
	BYTE	PATT
	 POIN2	seq_000_1 + 0x3C
	BYTE	PATT
	 POIN2	seq_000_1 + 0x4F
	BYTE	PATT
	 POIN2	seq_000_1 + 0x11
	BYTE	PATT
	 POIN2	seq_000_1 + 0x25
	BYTE	PATT
	 POIN2	seq_000_1 + 0x11
	BYTE	PATT
	 POIN2	seq_000_1 + 0x25
	BYTE		N24     Ds2   v100
	BYTE	W24
	BYTE		        Dn2   v096
	BYTE	W24
	BYTE		        Cn2   v104
	BYTE	W24
	BYTE		        As1 
	BYTE	W24
	BYTE		        An1   v112
	BYTE	W24
	BYTE		        Gn1   v104
	BYTE	W24
	BYTE		        Fn1   v112
	BYTE	W24
	BYTE		        Cn2   v104
	BYTE	W24
	BYTE		N11     Gn1   v116
	BYTE	W12
	BYTE		N08     Gn1   v100
	BYTE	W12
	BYTE		N06     Gn1   v020
	BYTE	W12
	BYTE		N11     Dn1   v112
	BYTE	W12
	BYTE		        Gn1   v104
	BYTE	W12
	BYTE		N08     Gn1   v092
	BYTE	W12
	BYTE		N06     Gn1   v020
	BYTE	W12
	BYTE		N11     Dn1   v100
	BYTE	W12
	BYTE		        Gn1   v116
	BYTE	W12
	BYTE		N08     Gn1   v100
	BYTE	W12
	BYTE		N06     Gn1   v020
	BYTE	W12
	BYTE		N11     Dn1   v112
	BYTE	W12
	BYTE		        Gn1   v104
	BYTE	W12
	BYTE		N08     Gn1   v092
	BYTE	W12
	BYTE		N06     Gn1   v020
	BYTE	W12
	BYTE		N11     Dn1   v108
	BYTE	W12
	BYTE		N11     Ds1   v120
	BYTE	W12
	BYTE		N08     Ds1   v108
	BYTE	W12
	BYTE		N06     Ds1   v024
	BYTE	W48
	BYTE		N12     Ds2   v100
	BYTE	W12
	BYTE		        As1 
	BYTE	W12
	BYTE	PEND
	BYTE		N11     Ds1   v120
	BYTE	W12
	BYTE		N08     Ds1   v108
	BYTE	W12
	BYTE		N06     Ds1   v024
	BYTE	W72
	BYTE	PEND
	BYTE		N11     Ds1   v120
	BYTE	W12
	BYTE		N08     Ds1   v108
	BYTE	W12
	BYTE		N06     Ds1   v024
	BYTE	W48
	BYTE		N12     Fn2   v100
	BYTE	W12
	BYTE		        Cn2 
	BYTE	W12
	BYTE	PEND
	BYTE	PATT
	 POIN2	seq_000_1 + 0xE2
	BYTE		N11     Dn1   v120
	BYTE	W12
	BYTE		N08     Dn1   v108
	BYTE	W12
	BYTE		N06     Dn1   v024
	BYTE	W48
	BYTE		N12     Dn2   v100
	BYTE	W12
	BYTE		        An1 
	BYTE	W12
	BYTE	PEND
	BYTE		N11     Dn1   v120
	BYTE	W12
	BYTE		N08     Dn1   v108
	BYTE	W12
	BYTE		N06     Dn1   v024
	BYTE	W72
	BYTE	PEND
	BYTE		N11     Gn1   v120
	BYTE	W12
	BYTE		N08     Gn1   v108
	BYTE	W12
	BYTE		N06     Gn1   v024
	BYTE	W48
	BYTE		N12     Gn2   v100
	BYTE	W12
	BYTE		        Dn2 
	BYTE	W12
	BYTE	PEND
	BYTE		N11     Gn1   v120
	BYTE	W12
	BYTE		N08     Gn1   v108
	BYTE	W12
	BYTE		N06     Gn1   v024
	BYTE	W24
	BYTE		N11     Fn1   v124
	BYTE	W12
	BYTE		N08     Fn1   v108
	BYTE	W12
	BYTE		N06     Fn1   v024
	BYTE	W24
	BYTE	PEND
	BYTE	PATT
	 POIN2	seq_000_1 + 0xCF
	BYTE	PATT
	 POIN2	seq_000_1 + 0xE2
	BYTE	PATT
	 POIN2	seq_000_1 + 0xEF
	BYTE	PATT
	 POIN2	seq_000_1 + 0xE2
	BYTE	PATT
	 POIN2	seq_000_1 + 0x107
	BYTE	PATT
	 POIN2	seq_000_1 + 0x11A
	BYTE	PATT
	 POIN2	seq_000_1 + 0x127
	BYTE	PATT
	 POIN2	seq_000_1 + 0x13A
	BYTE		N11     Cn1   v120
	BYTE	W12
	BYTE		N08     Cn1   v108
	BYTE	W12
	BYTE		N06     Cn1   v024
	BYTE	W12
	BYTE		N11     Cn2   v096
	BYTE	W12
	BYTE		        Cn1   v120
	BYTE	W12
	BYTE		N08     Cn1   v108
	BYTE	W12
	BYTE		N06     Cn1   v024
	BYTE	W12
	BYTE		N11     Cn2   v096
	BYTE	W12
	BYTE		        Cn1   v120
	BYTE	W12
	BYTE		N08     Cn1   v108
	BYTE	W12
	BYTE		N06     Cn1   v024
	BYTE	W12
	BYTE		N11     Gn1   v096
	BYTE	W12
	BYTE		N06     Gn1   v024
	BYTE	W12
	BYTE		N11     Cn1   v116
	BYTE	W12
	BYTE		N06     Cn1   v024
	BYTE	W12
	BYTE		N11     Gn1   v100
	BYTE	W12
	BYTE		        Cn1   v116
	BYTE	W12
	BYTE		N08     Cn1   v100
	BYTE	W12
	BYTE		N06     Cn1   v024
	BYTE	W12
	BYTE		N11     Cn2   v092
	BYTE	W12
	BYTE		        Cn1   v116
	BYTE	W12
	BYTE		N08     Cn1   v100
	BYTE	W12
	BYTE		N06     Cn1   v024
	BYTE	W12
	BYTE		N11     Cn2   v088
	BYTE	W12
	BYTE		        Cn1   v116
	BYTE	W12
	BYTE		N08     Cn1   v100
	BYTE	W12
	BYTE		N06     Cn1   v024
	BYTE	W12
	BYTE		N11     Fs1   v092
	BYTE	W12
	BYTE		N06     Fs1   v024
	BYTE	W12
	BYTE		N11     Cn1   v108
	BYTE	W12
	BYTE		N06     Cn1   v024
	BYTE	W12
	BYTE		N11     Cn1   v104
	BYTE	W12
	BYTE		        As1   v116
	BYTE	W12
	BYTE		N08     As1   v100
	BYTE	W12
	BYTE		N06     As1   v024
	BYTE	W12
	BYTE		N12     Fn1   v108
	BYTE	W12
	BYTE		N11     As1 
	BYTE	W12
	BYTE		N08     As1   v096
	BYTE	W12
	BYTE		N06     As1   v024
	BYTE	W24
	BYTE		N11     Gs1   v116
	BYTE	W12
	BYTE		N08     Gs1   v100
	BYTE	W12
	BYTE		N06     Gs1   v024
	BYTE	W12
	BYTE		N12     Fn1   v108
	BYTE	W12
	BYTE		N11     Gs1 
	BYTE	W12
	BYTE		N08     Gs1   v096
	BYTE	W12
	BYTE		N06     Gs1   v024
	BYTE	W24
	BYTE		N05     Fs1   v116
	BYTE	W06
	BYTE		N06     Fs1   v024
	BYTE	W06
	BYTE		N12     Cs1   v108
	BYTE	W12
	BYTE		N05     Fs1 
	BYTE	W06
	BYTE		N06     Fs1   v024
	BYTE	W06
	BYTE		N12     Cs1   v100
	BYTE	W12
	BYTE		N05     Fs1   v112
	BYTE	W06
	BYTE		N06     Fs1   v024
	BYTE	W06
	BYTE		N12     Cs1   v108
	BYTE	W12
	BYTE		N05     Fs1   v096
	BYTE	W06
	BYTE		N06     Fs1   v024
	BYTE	W06
	BYTE		N12     Cs1   v092
	BYTE	W12
	BYTE		N11     Fn1   v108
	BYTE	W12
	BYTE		N08     Fn1   v096
	BYTE	W12
	BYTE		N06     Fn1   v024
	BYTE	W24
	BYTE		N11     Fn1   v100
	BYTE	W12
	BYTE		N08     Fn1   v092
	BYTE	W12
	BYTE		N06     Fn1   v024
	BYTE	W24
	BYTE	PATT
	 POIN2	seq_000_1 + 0x11
	BYTE	GoTo
	 POIN2	seq_000_1 + 0x25
	BYTE	W08
	BYTE	FINE

//*********************** Track 03 ***********************//

seq_000_2:
	BYTE	KEYSH   seq_000_key+0
	BYTE		VOICE   54
	BYTE	W01
	BYTE		VOL     69*seq_000_mvl/mxv
	BYTE	W01
	BYTE		PAN     c_v-34
	BYTE	W01
	BYTE		N24     En1   v060
	BYTE	W02
	BYTE		        Gn1   v052
	BYTE	W01
	BYTE	W01
	BYTE		        Cn2 
	BYTE	W18
	BYTE		        Fn2   v068
	BYTE	W03
	BYTE		        Gn2   v060
	BYTE	W02
	BYTE		        Cn3 
	BYTE	W19
	BYTE		N72     Gn3 
	BYTE	W03
	BYTE		        Cn4   v056
	BYTE	W02
	BYTE		        En4   v052
	BYTE	W03
	BYTE		VOL     68*seq_000_mvl/mxv
	BYTE	W06
	BYTE		        65*seq_000_mvl/mxv
	BYTE	W03
	BYTE		        63*seq_000_mvl/mxv
	BYTE	W03
	BYTE		        61*seq_000_mvl/mxv
	BYTE	W03
	BYTE		        59*seq_000_mvl/mxv
	BYTE	W03
	BYTE		        56*seq_000_mvl/mxv
	BYTE	W03
	BYTE		        54*seq_000_mvl/mxv
	BYTE	W03
	BYTE		        52*seq_000_mvl/mxv
	BYTE	W03
	BYTE		        50*seq_000_mvl/mxv
	BYTE	W03
	BYTE		        47*seq_000_mvl/mxv
	BYTE	W03
	BYTE		        45*seq_000_mvl/mxv
	BYTE	W03
	BYTE		        44*seq_000_mvl/mxv
	BYTE	W03
	BYTE		        41*seq_000_mvl/mxv
	BYTE	W03
	BYTE		        39*seq_000_mvl/mxv
	BYTE	W03
	BYTE		        34*seq_000_mvl/mxv
	BYTE	W03
	BYTE		        30*seq_000_mvl/mxv
	BYTE	W03
	BYTE		        24*seq_000_mvl/mxv
	BYTE	W03
	BYTE		        21*seq_000_mvl/mxv
	BYTE	W03
	BYTE		        17*seq_000_mvl/mxv
	BYTE	W03
	BYTE		        13*seq_000_mvl/mxv
	BYTE	W03
	BYTE		        10*seq_000_mvl/mxv
	BYTE	W03
	BYTE		        8*seq_000_mvl/mxv
	BYTE	W03
	BYTE		        6*seq_000_mvl/mxv
	BYTE	W15
	BYTE		        69*seq_000_mvl/mxv
	BYTE	W54
	BYTE		N24     En1   v060
	BYTE	W02
	BYTE		        Gn1   v052
	BYTE	W01
	BYTE	W01
	BYTE		        Cn2 
	BYTE	W18
	BYTE		        Fn2   v068
	BYTE	W03
	BYTE		        Gn2   v060
	BYTE	W02
	BYTE		        Cn3 
	BYTE	W19
	BYTE		N48     Gn3 
	BYTE	W03
	BYTE		        Cn4   v056
	BYTE	W02
	BYTE		        En4   v052
	BYTE	W03
	BYTE		VOL     68*seq_000_mvl/mxv
	BYTE	W03
	BYTE		        66*seq_000_mvl/mxv
	BYTE	W03
	BYTE		        63*seq_000_mvl/mxv
	BYTE	W03
	BYTE		        60*seq_000_mvl/mxv
	BYTE	W03
	BYTE		        57*seq_000_mvl/mxv
	BYTE	W03
	BYTE		        54*seq_000_mvl/mxv
	BYTE	W03
	BYTE		        51*seq_000_mvl/mxv
	BYTE	W03
	BYTE		        47*seq_000_mvl/mxv
	BYTE	W03
	BYTE		        40*seq_000_mvl/mxv
	BYTE	W03
	BYTE		        34*seq_000_mvl/mxv
	BYTE	W03
	BYTE		        26*seq_000_mvl/mxv
	BYTE	W03
	BYTE		        19*seq_000_mvl/mxv
	BYTE	W03
	BYTE		        12*seq_000_mvl/mxv
	BYTE	W03
	BYTE		        9*seq_000_mvl/mxv
	BYTE	W06
	BYTE		        69*seq_000_mvl/mxv
	BYTE		N04     Cn1   v064
	BYTE	W04
	BYTE		        En1   v056
	BYTE	W04
	BYTE		        Gn1 
	BYTE	W04
	BYTE		        Cn2   v052
	BYTE	W04
	BYTE		        En2 
	BYTE	W04
	BYTE		        Gn2 
	BYTE	W04
	BYTE		        Gn1   v064
	BYTE	W04
	BYTE		        Cn2   v060
	BYTE	W04
	BYTE		        En2   v056
	BYTE	W04
	BYTE		        Gn2 
	BYTE	W04
	BYTE		        Cn3   v052
	BYTE	W04
	BYTE		        En3 
	BYTE	W04
	BYTE		        Cn2   v068
	BYTE	W04
	BYTE		        En2   v064
	BYTE	W04
	BYTE		        Gn2 
	BYTE	W04
	BYTE		        Cn3 
	BYTE	W04
	BYTE		        En3   v060
	BYTE	W04
	BYTE		        Gn3 
	BYTE	W04
	BYTE		        Gn2   v068
	BYTE	W04
	BYTE		        Cn3   v064
	BYTE	W04
	BYTE		        En3 
	BYTE	W04
	BYTE		        Gn3   v056
	BYTE	W04
	BYTE		        Cn4 
	BYTE	W04
	BYTE		        En4   v052
	BYTE	W04
	BYTE	W01
	BYTE	W92
	BYTE	W03
	BYTE	W96
	BYTE	W96
	BYTE	W96
	BYTE	W96
	BYTE	W96
	BYTE	W96
	BYTE	W96
	BYTE	W96
	BYTE	W96
	BYTE	W96
	BYTE	W96
	BYTE	W96
	BYTE	W96
	BYTE	W96
	BYTE	W92
	BYTE	W03
	BYTE	W01
	BYTE		N06     Ds1   v068
	BYTE	W06
	BYTE		        Gn1   v064
	BYTE	W06
	BYTE		        As1   v060
	BYTE	W06
	BYTE		        Ds2 
	BYTE	W06
	BYTE		        Gn2 
	BYTE	W06
	BYTE		        As2   v056
	BYTE	W06
	BYTE		        Ds3 
	BYTE	W06
	BYTE		        Gn3 
	BYTE	W06
	BYTE		        As3   v052
	BYTE	W06
	BYTE		        Gn3   v056
	BYTE	W06
	BYTE		        Ds3 
	BYTE	W06
	BYTE		        As2 
	BYTE	W06
	BYTE		        Gn2   v060
	BYTE	W06
	BYTE		        Ds2 
	BYTE	W06
	BYTE		        As1 
	BYTE	W06
	BYTE		        Gn1   v064
	BYTE	W06
	BYTE	PEND
	BYTE		N06     Ds1   v064
	BYTE	W06
	BYTE		        Gn1   v060
	BYTE	W06
	BYTE		        As1 
	BYTE	W06
	BYTE		        Ds2   v056
	BYTE	W06
	BYTE		        Gn2 
	BYTE	W06
	BYTE		        As2   v052
	BYTE	W06
	BYTE		        Ds3 
	BYTE	W06
	BYTE		        Gn3 
	BYTE	W06
	BYTE		        As3 
	BYTE	W06
	BYTE		        Gn3 
	BYTE	W06
	BYTE		        Ds3 
	BYTE	W06
	BYTE		        As2 
	BYTE	W06
	BYTE		        Gn2   v056
	BYTE	W06
	BYTE		        Ds2 
	BYTE	W06
	BYTE		        As1   v060
	BYTE	W06
	BYTE		        Gn1 
	BYTE	W06
	BYTE	PEND
	BYTE		        Ds1   v068
	BYTE	W06
	BYTE		        An1   v064
	BYTE	W06
	BYTE		        Cn2   v060
	BYTE	W06
	BYTE		        Fn2 
	BYTE	W06
	BYTE		        An2 
	BYTE	W06
	BYTE		        Cn3   v056
	BYTE	W06
	BYTE		        Fn3 
	BYTE	W06
	BYTE		        An3   v052
	BYTE	W06
	BYTE		        Cn4 
	BYTE	W06
	BYTE		        An3 
	BYTE	W06
	BYTE		        Fn3   v056
	BYTE	W06
	BYTE		        Cn3 
	BYTE	W06
	BYTE		        An2   v060
	BYTE	W06
	BYTE		        Fn2 
	BYTE	W06
	BYTE		        Cn2 
	BYTE	W06
	BYTE		        An1 
	BYTE	W06
	BYTE		N06     Ds1   v064
	BYTE	W06
	BYTE		        An1   v060
	BYTE	W06
	BYTE		        Cn2 
	BYTE	W06
	BYTE		        Fn2   v056
	BYTE	W06
	BYTE		        An2 
	BYTE	W06
	BYTE		        Cn3   v052
	BYTE	W06
	BYTE		        Fn3 
	BYTE	W06
	BYTE		        An3 
	BYTE	W06
	BYTE		        Cn4   v048
	BYTE	W06
	BYTE		        An3   v052
	BYTE	W06
	BYTE		        Fn3 
	BYTE	W06
	BYTE		        Cn3 
	BYTE	W06
	BYTE		        An2   v056
	BYTE	W06
	BYTE		        Fn2 
	BYTE	W06
	BYTE		        Cn2   v060
	BYTE	W06
	BYTE		        An1 
	BYTE	W06
	BYTE	PEND
	BYTE		N06     Dn1   v068
	BYTE	W06
	BYTE		        Fn1   v064
	BYTE	W06
	BYTE		        An1 
	BYTE	W06
	BYTE		        Dn2   v060
	BYTE	W06
	BYTE		        Fn2 
	BYTE	W06
	BYTE		        An2 
	BYTE	W06
	BYTE		        Dn3   v056
	BYTE	W06
	BYTE		        Fn3 
	BYTE	W06
	BYTE		        An3   v052
	BYTE	W06
	BYTE		        Fn3   v056
	BYTE	W06
	BYTE		        Dn3 
	BYTE	W06
	BYTE		        An2   v060
	BYTE	W06
	BYTE		        Fn2 
	BYTE	W06
	BYTE		        Dn2 
	BYTE	W06
	BYTE		        An1   v064
	BYTE	W06
	BYTE		        Fn1 
	BYTE	W06
	BYTE	PEND
	BYTE		N06     Dn1   v064
	BYTE	W06
	BYTE		        Fn1   v060
	BYTE	W06
	BYTE		        An1 
	BYTE	W06
	BYTE		        Dn2   v056
	BYTE	W06
	BYTE		        Fn2 
	BYTE	W06
	BYTE		        An2 
	BYTE	W06
	BYTE		        Dn3   v052
	BYTE	W06
	BYTE		        Fn3 
	BYTE	W06
	BYTE		        An3 
	BYTE	W06
	BYTE		        Fn3 
	BYTE	W06
	BYTE		        Dn3 
	BYTE	W06
	BYTE		        An2   v056
	BYTE	W06
	BYTE		        Fn2 
	BYTE	W06
	BYTE		        Dn2 
	BYTE	W06
	BYTE		        An1   v060
	BYTE	W06
	BYTE		        Fn1 
	BYTE	W06
	BYTE	PEND
	BYTE		N06     Dn1   v068
	BYTE	W06
	BYTE		        Gn1   v064
	BYTE	W06
	BYTE		        As1   v060
	BYTE	W06
	BYTE		        Dn2 
	BYTE	W06
	BYTE		        Gn2 
	BYTE	W06
	BYTE		        As2   v056
	BYTE	W06
	BYTE		        Dn3 
	BYTE	W06
	BYTE		        Gn3 
	BYTE	W06
	BYTE		        As3   v052
	BYTE	W06
	BYTE		        Gn3   v056
	BYTE	W06
	BYTE		        Dn3 
	BYTE	W06
	BYTE		        As2 
	BYTE	W06
	BYTE		        Gn2   v060
	BYTE	W06
	BYTE		        Dn2 
	BYTE	W06
	BYTE		        As1 
	BYTE	W06
	BYTE		        Gn1   v064
	BYTE	W06
	BYTE	PEND
	BYTE	PATT
	 POIN2	seq_000_2 + 0x1D8
	BYTE	PATT
	 POIN2	seq_000_2 + 0xE3
	BYTE	PATT
	 POIN2	seq_000_2 + 0x10D
	BYTE		N06     Ds1   v068
	BYTE	W06
	BYTE		        An1   v064
	BYTE	W06
	BYTE		        Cn2   v060
	BYTE	W06
	BYTE		        Fn2 
	BYTE	W06
	BYTE		        An2 
	BYTE	W06
	BYTE		        Cn3   v056
	BYTE	W06
	BYTE		        Fn3 
	BYTE	W06
	BYTE		        An3   v052
	BYTE	W06
	BYTE		        Cn4 
	BYTE	W06
	BYTE		        An3 
	BYTE	W06
	BYTE		        Fn3   v056
	BYTE	W06
	BYTE		        Cn3 
	BYTE	W06
	BYTE		        An2   v060
	BYTE	W06
	BYTE		        Fn2 
	BYTE	W06
	BYTE		        Cn2 
	BYTE	W06
	BYTE		        An1   v064
	BYTE	W06
	BYTE	PATT
	 POIN2	seq_000_2 + 0x15C
	BYTE	PATT
	 POIN2	seq_000_2 + 0x186
	BYTE	PATT
	 POIN2	seq_000_2 + 0x1B0
	BYTE		N06     Dn1   v068
	BYTE	W06
	BYTE		        Gn1   v064
	BYTE	W06
	BYTE		        Bn1   v060
	BYTE	W06
	BYTE		        Dn2 
	BYTE	W06
	BYTE		        Gn2 
	BYTE	W06
	BYTE		        Bn2   v056
	BYTE	W06
	BYTE		        Dn3 
	BYTE	W06
	BYTE		        Gn3 
	BYTE	W06
	BYTE		        Bn3   v052
	BYTE	W06
	BYTE		        Gn3   v056
	BYTE	W06
	BYTE		        Dn3 
	BYTE	W06
	BYTE		        Bn2 
	BYTE	W06
	BYTE		        Gn2   v060
	BYTE	W06
	BYTE		        Dn2 
	BYTE	W06
	BYTE		        Bn1 
	BYTE	W06
	BYTE		        Gn1   v064
	BYTE	W06
	BYTE		        Dn1 
	BYTE	W06
	BYTE		        Gn1   v060
	BYTE	W06
	BYTE		        Bn1 
	BYTE	W06
	BYTE		        Dn2   v056
	BYTE	W06
	BYTE		        Gn2 
	BYTE	W06
	BYTE		        Bn2   v052
	BYTE	W06
	BYTE		        Dn3 
	BYTE	W06
	BYTE		        Gn3 
	BYTE	W06
	BYTE		        Bn3   v048
	BYTE	W06
	BYTE		        Gn3   v052
	BYTE	W06
	BYTE		        Dn3 
	BYTE	W06
	BYTE		        Bn2 
	BYTE	W06
	BYTE		        Gn2   v056
	BYTE	W06
	BYTE		        Dn2 
	BYTE	W06
	BYTE		        Bn1   v060
	BYTE	W06
	BYTE		        Gn1 
	BYTE	W06
	BYTE	W96
	BYTE	W96
	BYTE	W96
	BYTE	W96
	BYTE	W96
	BYTE	W96
	BYTE	W96
	BYTE	W96
	BYTE	W96
	BYTE	GoTo
	 POIN2	seq_000_2 + 0xD2
	BYTE	W08
	BYTE	FINE

//*********************** Track 04 ***********************//

seq_000_3:
	BYTE	KEYSH   seq_000_key+0
	BYTE		VOICE   42
	BYTE	W01
	BYTE		VOL     62*seq_000_mvl/mxv
	BYTE	W01
	BYTE		PAN     c_v-19
	BYTE		BEND    c_v+1
	BYTE	W04
	BYTE		N05     Gn2   v092
	BYTE	W06
	BYTE		        Gn2   v020
	BYTE	W06
	BYTE		        Gn2   v080
	BYTE	W06
	BYTE		        Gn2   v020
	BYTE	W06
	BYTE		        Gn2   v084
	BYTE	W06
	BYTE		        Gn2   v020
	BYTE	W06
	BYTE		        Gn2   v076
	BYTE	W06
	BYTE		        Gn2   v020
	BYTE	W06
	BYTE		        Gn2   v080
	BYTE	W06
	BYTE		        Gn2   v020
	BYTE	W06
	BYTE		        Gn2   v068
	BYTE	W06
	BYTE		        Gn2   v020
	BYTE	W06
	BYTE		        Gn2   v076
	BYTE	W06
	BYTE		        Gn2   v020
	BYTE	W06
	BYTE		        Gn2   v068
	BYTE	W06
	BYTE		        Gn2   v020
	BYTE	W06
	BYTE		        Gn2   v100
	BYTE	W06
	BYTE		        Gn2   v020
	BYTE	W06
	BYTE		        Gn2   v092
	BYTE	W06
	BYTE		        Gn2   v020
	BYTE	W06
	BYTE		        Gn2   v096
	BYTE	W06
	BYTE		        Gn2   v020
	BYTE	W06
	BYTE		        Gn2   v084
	BYTE	W06
	BYTE		        Gn2   v020
	BYTE	W06
	BYTE		        Gn2   v092
	BYTE	W06
	BYTE		        Gn2   v020
	BYTE	W06
	BYTE		        Gn2   v080
	BYTE	W06
	BYTE		        Gn2   v020
	BYTE	W06
	BYTE		        Gn2   v084
	BYTE	W06
	BYTE		        Gn2   v020
	BYTE	W06
	BYTE		        Gn2   v080
	BYTE	W06
	BYTE		        Gn2   v020
	BYTE	W06
	BYTE		        Gn2   v104
	BYTE	W06
	BYTE		        Gn2   v020
	BYTE	W06
	BYTE		        Gn2   v092
	BYTE	W06
	BYTE		        Gn2   v020
	BYTE	W06
	BYTE		        Gn2   v096
	BYTE	W06
	BYTE		        Gn2   v020
	BYTE	W06
	BYTE		        Gn2   v084
	BYTE	W06
	BYTE		        Gn2   v020
	BYTE	W06
	BYTE		        Gn2   v092
	BYTE	W06
	BYTE		        Gn2   v020
	BYTE	W06
	BYTE		        Gn2   v080
	BYTE	W06
	BYTE		        Gn2   v020
	BYTE	W06
	BYTE		        Gn2   v088
	BYTE	W06
	BYTE		        Gn2   v020
	BYTE	W06
	BYTE		        Gn2   v080
	BYTE	W06
	BYTE		        Gn2   v020
	BYTE	W06
	BYTE		        Gn2   v108
	BYTE	W06
	BYTE		        Gn2   v020
	BYTE	W06
	BYTE		        Gn2   v100
	BYTE	W06
	BYTE		        Gn2   v020
	BYTE	W06
	BYTE		        Gn2   v104
	BYTE	W06
	BYTE		        Gn2   v020
	BYTE	W06
	BYTE		        Gn2   v092
	BYTE	W06
	BYTE		        Gn2   v020
	BYTE	W06
	BYTE		        Gn2   v100
	BYTE	W06
	BYTE		        Gn2   v020
	BYTE	W06
	BYTE		        Gn2   v084
	BYTE	W06
	BYTE		        Gn2   v020
	BYTE	W06
	BYTE		        Gn2   v092
	BYTE	W06
	BYTE		        Gn2   v020
	BYTE	W06
	BYTE		        Gn2   v084
	BYTE	W06
	BYTE		        Gn2   v020
	BYTE	W06
	BYTE		N05     Gn2   v092
	BYTE	W06
	BYTE		        Gn2   v020
	BYTE	W06
	BYTE		        Gn2   v084
	BYTE	W06
	BYTE		        Gn2   v020
	BYTE	W06
	BYTE		        Gn2   v084
	BYTE	W06
	BYTE		        Gn2   v020
	BYTE	W06
	BYTE		        Gn2   v076
	BYTE	W06
	BYTE		        Gn2   v020
	BYTE	W06
	BYTE		        Gn2   v084
	BYTE	W06
	BYTE		        Gn2   v020
	BYTE	W06
	BYTE		        Gn2   v072
	BYTE	W06
	BYTE		        Gn2   v020
	BYTE	W06
	BYTE		        Gn2   v084
	BYTE	W06
	BYTE		        Gn2   v020
	BYTE	W06
	BYTE		        Gn2   v076
	BYTE	W06
	BYTE		        Gn2   v020
	BYTE	W06
	BYTE	PEND
	BYTE		N05     An2   v092
	BYTE	W06
	BYTE		        An2   v020
	BYTE	W06
	BYTE		        An2   v084
	BYTE	W06
	BYTE		        An2   v020
	BYTE	W06
	BYTE		        An2   v084
	BYTE	W06
	BYTE		        An2   v020
	BYTE	W06
	BYTE		        An2   v076
	BYTE	W06
	BYTE		        An2   v020
	BYTE	W06
	BYTE		        An2   v084
	BYTE	W06
	BYTE		        An2   v020
	BYTE	W06
	BYTE		        An2   v072
	BYTE	W06
	BYTE		        An2   v020
	BYTE	W06
	BYTE		        An2   v076
	BYTE	W06
	BYTE		        An2   v020
	BYTE	W06
	BYTE		        An2   v072
	BYTE	W06
	BYTE		        An2   v020
	BYTE	W06
	BYTE	PEND
	BYTE		N05     Gn2   v092
	BYTE	W06
	BYTE		        Gn2   v020
	BYTE	W06
	BYTE		        Gn2   v084
	BYTE	W06
	BYTE		        Gn2   v020
	BYTE	W06
	BYTE		        Gn2   v084
	BYTE	W06
	BYTE		        Gn2   v020
	BYTE	W06
	BYTE		        Gn2   v076
	BYTE	W06
	BYTE		        Gn2   v020
	BYTE	W06
	BYTE		        Gn2   v084
	BYTE	W06
	BYTE		        Gn2   v020
	BYTE	W06
	BYTE		        Gn2   v072
	BYTE	W06
	BYTE		        Gn2   v020
	BYTE	W06
	BYTE		        Gn2   v076
	BYTE	W06
	BYTE		        Gn2   v020
	BYTE	W06
	BYTE		        Gn2   v076
	BYTE	W06
	BYTE		        Gn2   v020
	BYTE	W06
	BYTE	PEND
	BYTE	PATT
	 POIN2	seq_000_3 + 0x100
	BYTE	PATT
	 POIN2	seq_000_3 + 0x132
	BYTE	PATT
	 POIN2	seq_000_3 + 0x100
	BYTE	PATT
	 POIN2	seq_000_3 + 0x132
	BYTE	PATT
	 POIN2	seq_000_3 + 0x100
	BYTE	PATT
	 POIN2	seq_000_3 + 0xCE
	BYTE	PATT
	 POIN2	seq_000_3 + 0x100
	BYTE	PATT
	 POIN2	seq_000_3 + 0x132
	BYTE		N05     An2   v092
	BYTE	W06
	BYTE		        An2   v020
	BYTE	W06
	BYTE		        An2   v084
	BYTE	W06
	BYTE		        An2   v020
	BYTE	W06
	BYTE		        An2   v084
	BYTE	W06
	BYTE		        An2   v020
	BYTE	W06
	BYTE		        An2   v076
	BYTE	W06
	BYTE		        An2   v020
	BYTE	W06
	BYTE		        An2   v092
	BYTE	W06
	BYTE		        An2   v020
	BYTE	W06
	BYTE		        An2   v092
	BYTE	W06
	BYTE		        An2   v020
	BYTE	W06
	BYTE		        An2   v100
	BYTE	W06
	BYTE		        An2   v020
	BYTE	W06
	BYTE		        An2   v092
	BYTE	W06
	BYTE		        An2   v020
	BYTE	W06
	BYTE		N06     Gn2   v084
	BYTE	W06
	BYTE		        As1   v072
	BYTE	W02
	BYTE		        Gn2   v032
	BYTE	W04
	BYTE		        Ds2   v076
	BYTE	W06
	BYTE		        Gn2   v072
	BYTE	W06
	BYTE		        As2   v088
	BYTE	W06
	BYTE		        Ds2   v076
	BYTE	W02
	BYTE		        As2   v040
	BYTE	W04
	BYTE		        Gn2   v076
	BYTE	W06
	BYTE		        As2   v072
	BYTE	W06
	BYTE		        Ds3   v084
	BYTE	W06
	BYTE		        Gn2   v076
	BYTE	W02
	BYTE		        Ds3   v036
	BYTE	W04
	BYTE		        As2   v076
	BYTE	W06
	BYTE		        Ds3   v072
	BYTE	W06
	BYTE		        Gn3   v084
	BYTE	W06
	BYTE		        As2   v076
	BYTE	W02
	BYTE		        Gn3   v036
	BYTE	W04
	BYTE		        Ds3   v076
	BYTE	W06
	BYTE		        Gn3   v072
	BYTE	W06
	BYTE		        An2   v104
	BYTE	W02
	BYTE		        Gn3   v032
	BYTE	W04
	BYTE		        Cn2   v096
	BYTE	W02
	BYTE		        An2   v048
	BYTE	W04
	BYTE		        Fn2   v096
	BYTE	W06
	BYTE		        An2   v088
	BYTE	W06
	BYTE		        Cn3   v108
	BYTE	W06
	BYTE		        Fn2   v096
	BYTE	W02
	BYTE		        Cn3   v052
	BYTE	W04
	BYTE		        An2   v096
	BYTE	W06
	BYTE		        Cn3 
	BYTE	W06
	BYTE		        Fn3   v100
	BYTE	W06
	BYTE		        An2   v092
	BYTE	W02
	BYTE		        Fn3   v044
	BYTE	W04
	BYTE		        Cn3   v096
	BYTE	W06
	BYTE		        Fn3   v088
	BYTE	W06
	BYTE		        An3   v104
	BYTE	W06
	BYTE		        Cn3   v096
	BYTE	W02
	BYTE		        An3   v048
	BYTE	W04
	BYTE		        Fn3   v096
	BYTE	W06
	BYTE		        An3   v092
	BYTE	W06
	BYTE		TIE     Gn3   v068
	BYTE	W02
	BYTE		N06     An3   v048
	BYTE	W06
	BYTE		VOL     63*seq_000_mvl/mxv
	BYTE	W04
	BYTE		        64*seq_000_mvl/mxv
	BYTE	W04
	BYTE		        66*seq_000_mvl/mxv
	BYTE	W04
	BYTE		        69*seq_000_mvl/mxv
	BYTE	W20
	BYTE		        68*seq_000_mvl/mxv
	BYTE	W04
	BYTE		        68*seq_000_mvl/mxv
	BYTE	W04
	BYTE		        67*seq_000_mvl/mxv
	BYTE	W04
	BYTE		        66*seq_000_mvl/mxv
	BYTE	W04
	BYTE		        66*seq_000_mvl/mxv
	BYTE	W04
	BYTE		        65*seq_000_mvl/mxv
	BYTE	W04
	BYTE		        64*seq_000_mvl/mxv
	BYTE	W04
	BYTE		        63*seq_000_mvl/mxv
	BYTE	W04
	BYTE		        62*seq_000_mvl/mxv
	BYTE	W04
	BYTE		        61*seq_000_mvl/mxv
	BYTE	W04
	BYTE		        60*seq_000_mvl/mxv
	BYTE	W04
	BYTE		        59*seq_000_mvl/mxv
	BYTE	W04
	BYTE		        57*seq_000_mvl/mxv
	BYTE	W04
	BYTE		        56*seq_000_mvl/mxv
	BYTE	W04
	BYTE		        54*seq_000_mvl/mxv
	BYTE	W04
	BYTE		        53*seq_000_mvl/mxv
	BYTE	W04
	BYTE		        51*seq_000_mvl/mxv
	BYTE	W04
	BYTE		        49*seq_000_mvl/mxv
	BYTE	W04
	BYTE		        48*seq_000_mvl/mxv
	BYTE	W04
	BYTE		        46*seq_000_mvl/mxv
	BYTE	W04
	BYTE		        44*seq_000_mvl/mxv
	BYTE	W04
	BYTE		        42*seq_000_mvl/mxv
	BYTE	W04
	BYTE		        40*seq_000_mvl/mxv
	BYTE	W04
	BYTE		        37*seq_000_mvl/mxv
	BYTE	W04
	BYTE		        35*seq_000_mvl/mxv
	BYTE	W04
	BYTE		        33*seq_000_mvl/mxv
	BYTE	W04
	BYTE		        30*seq_000_mvl/mxv
	BYTE	W04
	BYTE		        28*seq_000_mvl/mxv
	BYTE	W04
	BYTE		        25*seq_000_mvl/mxv
	BYTE	W04
	BYTE		        23*seq_000_mvl/mxv
	BYTE	W04
	BYTE		        20*seq_000_mvl/mxv
	BYTE	W04
	BYTE		        17*seq_000_mvl/mxv
	BYTE	W04
	BYTE		        14*seq_000_mvl/mxv
	BYTE	W04
	BYTE		        11*seq_000_mvl/mxv
	BYTE	W04
	BYTE		        8*seq_000_mvl/mxv
	BYTE	W04
	BYTE		        5*seq_000_mvl/mxv
	BYTE	W04
	BYTE		        3*seq_000_mvl/mxv
	BYTE	W06
	BYTE		EOT     Gn3 
	BYTE	W02
	BYTE		VOL     62*seq_000_mvl/mxv
	BYTE		N92     Gn2   v076
	BYTE	W42
	BYTE		VOL     62*seq_000_mvl/mxv
	BYTE	W06
	BYTE		        61*seq_000_mvl/mxv
	BYTE	W06
	BYTE		        61*seq_000_mvl/mxv
	BYTE	W06
	BYTE		        60*seq_000_mvl/mxv
	BYTE	W06
	BYTE		        59*seq_000_mvl/mxv
	BYTE	W06
	BYTE		        57*seq_000_mvl/mxv
	BYTE	W06
	BYTE		        56*seq_000_mvl/mxv
	BYTE	W06
	BYTE		        54*seq_000_mvl/mxv
	BYTE	W06
	BYTE		        51*seq_000_mvl/mxv
	BYTE	W06
	BYTE		N11     Gn2   v052
	BYTE	W12
	BYTE		        Gn2   v036
	BYTE	W12
	BYTE		VOL     62*seq_000_mvl/mxv
	BYTE		N24     Gn2   v072
	BYTE	W24
	BYTE		        An2   v088
	BYTE	W24
	BYTE		        As2   v096
	BYTE	W24
	BYTE	PEND
	BYTE		TIE     Cn3   v076
	BYTE	W06
	BYTE		VOL     64*seq_000_mvl/mxv
	BYTE	W06
	BYTE		        64*seq_000_mvl/mxv
	BYTE	W06
	BYTE		        66*seq_000_mvl/mxv
	BYTE	W06
	BYTE		        68*seq_000_mvl/mxv
	BYTE	W06
	BYTE		        71*seq_000_mvl/mxv
	BYTE	W18
	BYTE		        70*seq_000_mvl/mxv
	BYTE	W12
	BYTE		        69*seq_000_mvl/mxv
	BYTE	W06
	BYTE		        68*seq_000_mvl/mxv
	BYTE	W06
	BYTE		        68*seq_000_mvl/mxv
	BYTE	W06
	BYTE		        66*seq_000_mvl/mxv
	BYTE	W06
	BYTE		        65*seq_000_mvl/mxv
	BYTE	W06
	BYTE		        63*seq_000_mvl/mxv
	BYTE	W06
	BYTE	PEND
	BYTE		VOL     61*seq_000_mvl/mxv
	BYTE	W06
	BYTE		        59*seq_000_mvl/mxv
	BYTE	W06
	BYTE		        57*seq_000_mvl/mxv
	BYTE	W06
	BYTE		        55*seq_000_mvl/mxv
	BYTE	W06
	BYTE		        52*seq_000_mvl/mxv
	BYTE	W06
	BYTE		        49*seq_000_mvl/mxv
	BYTE	W06
	BYTE		        46*seq_000_mvl/mxv
	BYTE	W06
	BYTE		        43*seq_000_mvl/mxv
	BYTE	W06
	BYTE		        40*seq_000_mvl/mxv
	BYTE	W06
	BYTE		        37*seq_000_mvl/mxv
	BYTE	W06
	BYTE		        33*seq_000_mvl/mxv
	BYTE	W06
	BYTE		        29*seq_000_mvl/mxv
	BYTE	W06
	BYTE		        25*seq_000_mvl/mxv
	BYTE	W06
	BYTE		        21*seq_000_mvl/mxv
	BYTE	W06
	BYTE		        17*seq_000_mvl/mxv
	BYTE	W06
	BYTE		        11*seq_000_mvl/mxv
	BYTE	W05
	BYTE	PEND
	BYTE		EOT     Cn3 
	BYTE	W01
	BYTE		VOL     62*seq_000_mvl/mxv
	BYTE		N96     Cn3   v076
	BYTE	W66
	BYTE		VOL     61*seq_000_mvl/mxv
	BYTE	W12
	BYTE		        60*seq_000_mvl/mxv
	BYTE	W06
	BYTE		        57*seq_000_mvl/mxv
	BYTE	W06
	BYTE		        54*seq_000_mvl/mxv
	BYTE	W06
	BYTE		        62*seq_000_mvl/mxv
	BYTE		N48     Fn3   v064
	BYTE	W48
	BYTE		        Cn3   v068
	BYTE	W48
	BYTE		        Dn3 
	BYTE	W48
	BYTE		TIE     Gn3   v060
	BYTE	W06
	BYTE		VOL     63*seq_000_mvl/mxv
	BYTE	W06
	BYTE		        64*seq_000_mvl/mxv
	BYTE	W06
	BYTE		        66*seq_000_mvl/mxv
	BYTE	W06
	BYTE		        67*seq_000_mvl/mxv
	BYTE	W06
	BYTE		        67*seq_000_mvl/mxv
	BYTE	W06
	BYTE		        66*seq_000_mvl/mxv
	BYTE	W06
	BYTE		        64*seq_000_mvl/mxv
	BYTE	W06
	BYTE		        62*seq_000_mvl/mxv
	BYTE	W06
	BYTE		        61*seq_000_mvl/mxv
	BYTE	W06
	BYTE		        60*seq_000_mvl/mxv
	BYTE	W06
	BYTE		        58*seq_000_mvl/mxv
	BYTE	W06
	BYTE		        57*seq_000_mvl/mxv
	BYTE	W06
	BYTE		        55*seq_000_mvl/mxv
	BYTE	W06
	BYTE		        54*seq_000_mvl/mxv
	BYTE	W06
	BYTE		        52*seq_000_mvl/mxv
	BYTE	W06
	BYTE		        51*seq_000_mvl/mxv
	BYTE	W06
	BYTE		        49*seq_000_mvl/mxv
	BYTE	W06
	BYTE		        47*seq_000_mvl/mxv
	BYTE	W06
	BYTE		        43*seq_000_mvl/mxv
	BYTE	W06
	BYTE		        40*seq_000_mvl/mxv
	BYTE	W06
	BYTE		        33*seq_000_mvl/mxv
	BYTE	W06
	BYTE		        25*seq_000_mvl/mxv
	BYTE	W06
	BYTE		        20*seq_000_mvl/mxv
	BYTE	W06
	BYTE		EOT
	BYTE		VOL     62*seq_000_mvl/mxv
	BYTE		N96     Gn2   v076
	BYTE	W42
	BYTE		VOL     62*seq_000_mvl/mxv
	BYTE	W06
	BYTE		        61*seq_000_mvl/mxv
	BYTE	W06
	BYTE		        61*seq_000_mvl/mxv
	BYTE	W06
	BYTE		        60*seq_000_mvl/mxv
	BYTE	W06
	BYTE		        59*seq_000_mvl/mxv
	BYTE	W06
	BYTE		        57*seq_000_mvl/mxv
	BYTE	W06
	BYTE		        56*seq_000_mvl/mxv
	BYTE	W06
	BYTE		        54*seq_000_mvl/mxv
	BYTE	W06
	BYTE		        51*seq_000_mvl/mxv
	BYTE	W06
	BYTE	PATT
	 POIN2	seq_000_3 + 0x2AF
	BYTE	PATT
	 POIN2	seq_000_3 + 0x2C3
	BYTE	PATT
	 POIN2	seq_000_3 + 0x2E1
	BYTE		EOT     Cn3 
	BYTE	W01
	BYTE		VOL     62*seq_000_mvl/mxv
	BYTE		N48     Cn3   v072
	BYTE	W48
	BYTE		        Fn3   v064
	BYTE	W48
	BYTE		        Gn3 
	BYTE	W48
	BYTE		        An3   v060
	BYTE	W48
	BYTE		TIE     Gn3 
	BYTE	W54
	BYTE		VOL     62*seq_000_mvl/mxv
	BYTE	W18
	BYTE		        61*seq_000_mvl/mxv
	BYTE	W06
	BYTE		        61*seq_000_mvl/mxv
	BYTE	W06
	BYTE		        60*seq_000_mvl/mxv
	BYTE	W06
	BYTE		        59*seq_000_mvl/mxv
	BYTE	W06
	BYTE		        57*seq_000_mvl/mxv
	BYTE	W06
	BYTE		        56*seq_000_mvl/mxv
	BYTE	W06
	BYTE		        54*seq_000_mvl/mxv
	BYTE	W06
	BYTE		        52*seq_000_mvl/mxv
	BYTE	W06
	BYTE		        51*seq_000_mvl/mxv
	BYTE	W06
	BYTE		        49*seq_000_mvl/mxv
	BYTE	W06
	BYTE		        45*seq_000_mvl/mxv
	BYTE	W06
	BYTE		        43*seq_000_mvl/mxv
	BYTE	W06
	BYTE		        40*seq_000_mvl/mxv
	BYTE	W06
	BYTE		        37*seq_000_mvl/mxv
	BYTE	W06
	BYTE		        34*seq_000_mvl/mxv
	BYTE	W06
	BYTE		        31*seq_000_mvl/mxv
	BYTE	W06
	BYTE		        27*seq_000_mvl/mxv
	BYTE	W06
	BYTE		        23*seq_000_mvl/mxv
	BYTE	W06
	BYTE		        20*seq_000_mvl/mxv
	BYTE	W06
	BYTE		        15*seq_000_mvl/mxv
	BYTE	W06
	BYTE		EOT
	BYTE		VOL     62*seq_000_mvl/mxv
	BYTE		N72     As2   v072
	BYTE	W72
	BYTE		N24     Cn3   v060
	BYTE	W24
	BYTE		N96     Dn3   v068
	BYTE	W72
	BYTE		VOL     61*seq_000_mvl/mxv
	BYTE	W06
	BYTE		        59*seq_000_mvl/mxv
	BYTE	W06
	BYTE		        54*seq_000_mvl/mxv
	BYTE	W06
	BYTE		        45*seq_000_mvl/mxv
	BYTE	W06
	BYTE		        62*seq_000_mvl/mxv
	BYTE		N24     Ds3 
	BYTE	W24
	BYTE		        Fn3 
	BYTE	W24
	BYTE		N96     Fs3 
	BYTE	W48
	BYTE	W24
	BYTE		VOL     59*seq_000_mvl/mxv
	BYTE	W06
	BYTE		        56*seq_000_mvl/mxv
	BYTE	W06
	BYTE		        52*seq_000_mvl/mxv
	BYTE	W06
	BYTE		        45*seq_000_mvl/mxv
	BYTE	W06
	BYTE		        62*seq_000_mvl/mxv
	BYTE		N48     Ds3   v060
	BYTE	W48
	BYTE		N96     Dn3   v056
	BYTE	W66
	BYTE		VOL     61*seq_000_mvl/mxv
	BYTE	W06
	BYTE		        60*seq_000_mvl/mxv
	BYTE	W06
	BYTE		        58*seq_000_mvl/mxv
	BYTE	W06
	BYTE		        55*seq_000_mvl/mxv
	BYTE	W06
	BYTE		        51*seq_000_mvl/mxv
	BYTE	W06
	BYTE		        62*seq_000_mvl/mxv
	BYTE		N96     Cn3 
	BYTE	W66
	BYTE		VOL     61*seq_000_mvl/mxv
	BYTE	W06
	BYTE		        60*seq_000_mvl/mxv
	BYTE	W06
	BYTE		        58*seq_000_mvl/mxv
	BYTE	W06
	BYTE		        55*seq_000_mvl/mxv
	BYTE	W06
	BYTE		        51*seq_000_mvl/mxv
	BYTE	W06
	BYTE		        62*seq_000_mvl/mxv
	BYTE		N96     Cs3 
	BYTE	W42
	BYTE		VOL     62*seq_000_mvl/mxv
	BYTE	W12
	BYTE		        61*seq_000_mvl/mxv
	BYTE	W12
	BYTE		        61*seq_000_mvl/mxv
	BYTE	W06
	BYTE		        60*seq_000_mvl/mxv
	BYTE	W06
	BYTE		        58*seq_000_mvl/mxv
	BYTE	W06
	BYTE		        55*seq_000_mvl/mxv
	BYTE	W06
	BYTE		        51*seq_000_mvl/mxv
	BYTE	W06
	BYTE		        62*seq_000_mvl/mxv
	BYTE		N92     Cn3   v048
	BYTE	W66
	BYTE		VOL     61*seq_000_mvl/mxv
	BYTE	W06
	BYTE		        60*seq_000_mvl/mxv
	BYTE	W06
	BYTE		        58*seq_000_mvl/mxv
	BYTE	W06
	BYTE		        55*seq_000_mvl/mxv
	BYTE	W06
	BYTE		        51*seq_000_mvl/mxv
	BYTE	W05
	BYTE		        62*seq_000_mvl/mxv
	BYTE	W01
	BYTE		        62*seq_000_mvl/mxv
	BYTE		N05     Gn2   v092
	BYTE	W06
	BYTE		        Gn2   v020
	BYTE	W06
	BYTE		        Gn2   v084
	BYTE	W06
	BYTE		        Gn2   v020
	BYTE	W06
	BYTE		        Gn2   v084
	BYTE	W06
	BYTE		        Gn2   v020
	BYTE	W06
	BYTE		        Gn2   v076
	BYTE	W06
	BYTE		        Gn2   v020
	BYTE	W06
	BYTE		        Gn2   v084
	BYTE	W06
	BYTE		        Gn2   v020
	BYTE	W06
	BYTE		        Gn2   v072
	BYTE	W06
	BYTE		        Gn2   v020
	BYTE	W06
	BYTE		        Gn2   v084
	BYTE	W06
	BYTE		        Gn2   v020
	BYTE	W06
	BYTE		        Gn2   v076
	BYTE	W06
	BYTE		        Gn2   v020
	BYTE	W06
	BYTE	GoTo
	 POIN2	seq_000_3 + 0x100
	BYTE	W08
	BYTE	FINE

//*********************** Track 05 ***********************//

seq_000_4:
	BYTE	KEYSH   seq_000_key+0
	BYTE		VOICE   42
	BYTE	W01
	BYTE		VOL     62*seq_000_mvl/mxv
	BYTE	W01
	BYTE		PAN     c_v+11
	BYTE		BEND    c_v+1
	BYTE	W04
	BYTE		N05     En2   v088
	BYTE	W06
	BYTE		        En2   v016
	BYTE	W06
	BYTE		        En2   v080
	BYTE	W06
	BYTE		        En2   v016
	BYTE	W06
	BYTE		        Fn2   v080
	BYTE	W06
	BYTE		        Fn2   v016
	BYTE	W06
	BYTE		        Fn2   v072
	BYTE	W06
	BYTE		        Fn2   v016
	BYTE	W06
	BYTE		        En2   v080
	BYTE	W06
	BYTE		        En2   v016
	BYTE	W06
	BYTE		        En2   v072
	BYTE	W06
	BYTE		        En2   v016
	BYTE	W06
	BYTE		        Dn2   v076
	BYTE	W06
	BYTE		        Dn2   v016
	BYTE	W06
	BYTE		        Dn2   v072
	BYTE	W06
	BYTE		        Dn2   v016
	BYTE	W06
	BYTE		        En2   v100
	BYTE	W06
	BYTE		        En2   v016
	BYTE	W06
	BYTE		        En2   v088
	BYTE	W06
	BYTE		        En2   v016
	BYTE	W06
	BYTE		        Fn2   v088
	BYTE	W06
	BYTE		        Fn2   v016
	BYTE	W06
	BYTE		        Fn2   v080
	BYTE	W06
	BYTE		        Fn2   v016
	BYTE	W06
	BYTE		        En2   v088
	BYTE	W06
	BYTE		        En2   v016
	BYTE	W06
	BYTE		        En2   v080
	BYTE	W06
	BYTE		        En2   v016
	BYTE	W06
	BYTE		        Dn2   v084
	BYTE	W06
	BYTE		        Dn2   v016
	BYTE	W06
	BYTE		        Dn2   v080
	BYTE	W06
	BYTE		        Dn2   v016
	BYTE	W06
	BYTE		        En2   v104
	BYTE	W06
	BYTE		        En2   v016
	BYTE	W06
	BYTE		        En2   v092
	BYTE	W06
	BYTE		        En2   v016
	BYTE	W06
	BYTE		        Fn2   v092
	BYTE	W06
	BYTE		        Fn2   v016
	BYTE	W06
	BYTE		        Fn2   v080
	BYTE	W06
	BYTE		        Fn2   v016
	BYTE	W06
	BYTE		        En2   v092
	BYTE	W06
	BYTE		        En2   v016
	BYTE	W06
	BYTE		        En2   v080
	BYTE	W06
	BYTE		        En2   v016
	BYTE	W06
	BYTE		        Dn2   v088
	BYTE	W06
	BYTE		        Dn2   v016
	BYTE	W06
	BYTE		        Dn2   v084
	BYTE	W06
	BYTE		        Dn2   v016
	BYTE	W06
	BYTE		        En2   v104
	BYTE	W06
	BYTE		        En2   v016
	BYTE	W06
	BYTE		        En2   v096
	BYTE	W06
	BYTE		        En2   v016
	BYTE	W06
	BYTE		        Fn2   v096
	BYTE	W06
	BYTE		        Fn2   v016
	BYTE	W06
	BYTE		        Fn2   v084
	BYTE	W06
	BYTE		        Fn2   v016
	BYTE	W06
	BYTE		        En2   v096
	BYTE	W06
	BYTE		        En2   v016
	BYTE	W06
	BYTE		        En2   v084
	BYTE	W06
	BYTE		        En2   v016
	BYTE	W06
	BYTE		        Dn2   v092
	BYTE	W06
	BYTE		        Dn2   v016
	BYTE	W06
	BYTE		        Dn2   v088
	BYTE	W06
	BYTE		        Dn2   v016
	BYTE	W06
	BYTE		N05     En2   v088
	BYTE	W06
	BYTE		        En2   v016
	BYTE	W06
	BYTE		        En2   v080
	BYTE	W06
	BYTE		        En2   v016
	BYTE	W06
	BYTE		        Fn2   v080
	BYTE	W06
	BYTE		        Fn2   v016
	BYTE	W06
	BYTE		        Fn2   v068
	BYTE	W06
	BYTE		        Fn2   v016
	BYTE	W06
	BYTE		        En2   v080
	BYTE	W06
	BYTE		        En2   v016
	BYTE	W06
	BYTE		        En2   v068
	BYTE	W06
	BYTE		        En2   v016
	BYTE	W06
	BYTE		        Dn2   v084
	BYTE	W06
	BYTE		        Dn2   v016
	BYTE	W06
	BYTE		        Dn2   v080
	BYTE	W06
	BYTE		        Dn2   v016
	BYTE	W06
	BYTE	PEND
	BYTE		N05     Fs2   v088
	BYTE	W06
	BYTE		        Fs2   v016
	BYTE	W06
	BYTE		        Fs2   v080
	BYTE	W06
	BYTE		        Fs2   v016
	BYTE	W06
	BYTE		        Gn2   v080
	BYTE	W06
	BYTE		        Gn2   v016
	BYTE	W06
	BYTE		        Gn2   v068
	BYTE	W06
	BYTE		        Gn2   v016
	BYTE	W06
	BYTE		        Fs2   v080
	BYTE	W06
	BYTE		        Fs2   v016
	BYTE	W06
	BYTE		        Fs2   v068
	BYTE	W06
	BYTE		        Fs2   v016
	BYTE	W06
	BYTE		        En2   v076
	BYTE	W06
	BYTE		        En2   v016
	BYTE	W06
	BYTE		        En2   v072
	BYTE	W06
	BYTE		        En2   v016
	BYTE	W06
	BYTE	PEND
	BYTE		N05     Ds2   v088
	BYTE	W06
	BYTE		        Ds2   v016
	BYTE	W06
	BYTE		        Ds2   v080
	BYTE	W06
	BYTE		        Ds2   v016
	BYTE	W06
	BYTE		        Fn2   v080
	BYTE	W06
	BYTE		        Fn2   v016
	BYTE	W06
	BYTE		        Fn2   v068
	BYTE	W06
	BYTE		        Fn2   v016
	BYTE	W06
	BYTE		        Ds2   v080
	BYTE	W06
	BYTE		        Ds2   v016
	BYTE	W06
	BYTE		        Ds2   v068
	BYTE	W06
	BYTE		        Ds2   v016
	BYTE	W06
	BYTE		        Dn2   v076
	BYTE	W06
	BYTE		        Dn2   v016
	BYTE	W06
	BYTE		        Dn2   v080
	BYTE	W06
	BYTE		        Dn2   v016
	BYTE	W06
	BYTE	PEND
	BYTE		N05     Ds2   v088
	BYTE	W06
	BYTE		        Ds2   v016
	BYTE	W06
	BYTE		        Ds2   v080
	BYTE	W06
	BYTE		        Ds2   v016
	BYTE	W06
	BYTE		        Fn2   v080
	BYTE	W06
	BYTE		        Fn2   v016
	BYTE	W06
	BYTE		        Fn2   v068
	BYTE	W06
	BYTE		        Fn2   v016
	BYTE	W06
	BYTE		        Ds2   v080
	BYTE	W06
	BYTE		        Ds2   v016
	BYTE	W06
	BYTE		        Ds2   v068
	BYTE	W06
	BYTE		        Ds2   v016
	BYTE	W06
	BYTE		        Dn2   v076
	BYTE	W06
	BYTE		        Dn2   v016
	BYTE	W06
	BYTE		        Dn2   v072
	BYTE	W06
	BYTE		        Dn2   v016
	BYTE	W06
	BYTE	PEND
	BYTE	PATT
	 POIN2	seq_000_4 + 0x132
	BYTE	PATT
	 POIN2	seq_000_4 + 0x164
	BYTE	PATT
	 POIN2	seq_000_4 + 0x132
	BYTE	PATT
	 POIN2	seq_000_4 + 0x164
	BYTE	PATT
	 POIN2	seq_000_4 + 0xCE
	BYTE	PATT
	 POIN2	seq_000_4 + 0x100
	BYTE	PATT
	 POIN2	seq_000_4 + 0x132
	BYTE		N05     Ds2   v088
	BYTE	W06
	BYTE		        Ds2   v016
	BYTE	W06
	BYTE		        Ds2   v080
	BYTE	W06
	BYTE		        Ds2   v016
	BYTE	W06
	BYTE		        Fn2   v080
	BYTE	W06
	BYTE		        Fn2   v016
	BYTE	W06
	BYTE		        Fn2   v068
	BYTE	W06
	BYTE		        Fn2   v016
	BYTE	W06
	BYTE		        Ds2   v092
	BYTE	W06
	BYTE		        Ds2   v016
	BYTE	W06
	BYTE		        Ds2   v092
	BYTE	W06
	BYTE		        Ds2   v016
	BYTE	W06
	BYTE		        Dn2   v100
	BYTE	W06
	BYTE		        Dn2   v016
	BYTE	W06
	BYTE		        Dn2   v096
	BYTE	W06
	BYTE		        Dn2   v016
	BYTE	W06
	BYTE		N06     Ds2   v084
	BYTE	W06
	BYTE		        Gn1   v076
	BYTE	W06
	BYTE		        As1 
	BYTE	W06
	BYTE		        Ds2   v072
	BYTE	W06
	BYTE		        Gn2   v088
	BYTE	W06
	BYTE		        As1   v080
	BYTE	W06
	BYTE		        Ds2 
	BYTE	W06
	BYTE		        Gn2   v076
	BYTE	W06
	BYTE		        As2   v088
	BYTE	W06
	BYTE		        Ds2   v076
	BYTE	W06
	BYTE		        Gn2   v080
	BYTE	W06
	BYTE		        As2   v076
	BYTE	W06
	BYTE		        Ds3   v088
	BYTE	W06
	BYTE		        Gn2   v080
	BYTE	W06
	BYTE		        As2 
	BYTE	W06
	BYTE		        Ds3   v076
	BYTE	W06
	BYTE		        Fn2   v104
	BYTE	W06
	BYTE		        An1   v096
	BYTE	W06
	BYTE		        Cn2 
	BYTE	W06
	BYTE		        Fn2   v092
	BYTE	W06
	BYTE		        An2   v112
	BYTE	W06
	BYTE		        Cn2   v100
	BYTE	W06
	BYTE		        Fn2 
	BYTE	W06
	BYTE		        An2   v096
	BYTE	W06
	BYTE		        Cn3   v104
	BYTE	W06
	BYTE		        Fn2   v096
	BYTE	W06
	BYTE		        An2 
	BYTE	W06
	BYTE		        Cn3   v092
	BYTE	W06
	BYTE		        Fn3   v104
	BYTE	W06
	BYTE		        An2   v096
	BYTE	W06
	BYTE		        Cn3 
	BYTE	W06
	BYTE		        Fn3   v092
	BYTE	W06
	BYTE		N96     Cn3 
	BYTE	W56
	BYTE		VOL     62*seq_000_mvl/mxv
	BYTE	W04
	BYTE		        61*seq_000_mvl/mxv
	BYTE	W08
	BYTE		        61*seq_000_mvl/mxv
	BYTE	W04
	BYTE		        60*seq_000_mvl/mxv
	BYTE	W04
	BYTE		        59*seq_000_mvl/mxv
	BYTE	W04
	BYTE		        57*seq_000_mvl/mxv
	BYTE	W04
	BYTE		        56*seq_000_mvl/mxv
	BYTE	W04
	BYTE		        54*seq_000_mvl/mxv
	BYTE	W04
	BYTE		        51*seq_000_mvl/mxv
	BYTE	W04
	BYTE		        62*seq_000_mvl/mxv
	BYTE		N92     Bn2   v068
	BYTE	W20
	BYTE		VOL     62*seq_000_mvl/mxv
	BYTE	W08
	BYTE		        61*seq_000_mvl/mxv
	BYTE	W04
	BYTE		        61*seq_000_mvl/mxv
	BYTE	W04
	BYTE		        59*seq_000_mvl/mxv
	BYTE	W04
	BYTE		        58*seq_000_mvl/mxv
	BYTE	W04
	BYTE		        56*seq_000_mvl/mxv
	BYTE	W04
	BYTE		        54*seq_000_mvl/mxv
	BYTE	W04
	BYTE		        51*seq_000_mvl/mxv
	BYTE	W04
	BYTE		        48*seq_000_mvl/mxv
	BYTE	W04
	BYTE		        44*seq_000_mvl/mxv
	BYTE	W04
	BYTE		        41*seq_000_mvl/mxv
	BYTE	W04
	BYTE		        37*seq_000_mvl/mxv
	BYTE	W04
	BYTE		        32*seq_000_mvl/mxv
	BYTE	W04
	BYTE		        28*seq_000_mvl/mxv
	BYTE	W04
	BYTE		        23*seq_000_mvl/mxv
	BYTE	W04
	BYTE		        17*seq_000_mvl/mxv
	BYTE	W04
	BYTE		        11*seq_000_mvl/mxv
	BYTE	W04
	BYTE		        5*seq_000_mvl/mxv
	BYTE	W04
	BYTE		        62*seq_000_mvl/mxv
	BYTE		N92     Ds2   v096
	BYTE	W60
	BYTE		VOL     62*seq_000_mvl/mxv
	BYTE	W06
	BYTE		        61*seq_000_mvl/mxv
	BYTE	W06
	BYTE		        60*seq_000_mvl/mxv
	BYTE	W06
	BYTE		        58*seq_000_mvl/mxv
	BYTE	W06
	BYTE		        55*seq_000_mvl/mxv
	BYTE	W06
	BYTE		        52*seq_000_mvl/mxv
	BYTE	W06
	BYTE		N11     Ds2   v052
	BYTE	W12
	BYTE		        Ds2   v036
	BYTE	W12
	BYTE		VOL     62*seq_000_mvl/mxv
	BYTE		N24     Ds2   v096
	BYTE	W24
	BYTE		        Fn2   v116
	BYTE	W24
	BYTE		        Gn2 
	BYTE	W24
	BYTE	PEND
	BYTE		TIE     Fn2   v100
	BYTE	W36
	BYTE		VOL     62*seq_000_mvl/mxv
	BYTE	W12
	BYTE		        61*seq_000_mvl/mxv
	BYTE	W06
	BYTE		        61*seq_000_mvl/mxv
	BYTE	W06
	BYTE		        60*seq_000_mvl/mxv
	BYTE	W06
	BYTE		        59*seq_000_mvl/mxv
	BYTE	W06
	BYTE		        57*seq_000_mvl/mxv
	BYTE	W06
	BYTE		        55*seq_000_mvl/mxv
	BYTE	W06
	BYTE		        53*seq_000_mvl/mxv
	BYTE	W06
	BYTE		        51*seq_000_mvl/mxv
	BYTE	W06
	BYTE	PEND
	BYTE		VOL     49*seq_000_mvl/mxv
	BYTE	W06
	BYTE		        45*seq_000_mvl/mxv
	BYTE	W06
	BYTE		        42*seq_000_mvl/mxv
	BYTE	W06
	BYTE		        39*seq_000_mvl/mxv
	BYTE	W05
	BYTE	PEND
	BYTE		EOT     Fn2 
	BYTE	W01
	BYTE		VOL     62*seq_000_mvl/mxv
	BYTE		N24     Fn2   v104
	BYTE	W24
	BYTE		        Gn2 
	BYTE	W24
	BYTE		        An2   v100
	BYTE	W24
	BYTE		TIE     Fn2   v092
	BYTE	W96
	BYTE		VOL     62*seq_000_mvl/mxv
	BYTE	W24
	BYTE		        61*seq_000_mvl/mxv
	BYTE	W12
	BYTE		        61*seq_000_mvl/mxv
	BYTE	W06
	BYTE		        60*seq_000_mvl/mxv
	BYTE	W06
	BYTE		        59*seq_000_mvl/mxv
	BYTE	W06
	BYTE		        59*seq_000_mvl/mxv
	BYTE	W06
	BYTE		        58*seq_000_mvl/mxv
	BYTE	W06
	BYTE		        57*seq_000_mvl/mxv
	BYTE	W06
	BYTE		        56*seq_000_mvl/mxv
	BYTE	W06
	BYTE		        55*seq_000_mvl/mxv
	BYTE	W06
	BYTE		        54*seq_000_mvl/mxv
	BYTE	W06
	BYTE		        52*seq_000_mvl/mxv
	BYTE	W06
	BYTE		EOT
	BYTE		VOL     62*seq_000_mvl/mxv
	BYTE		N96     Gn2   v096
	BYTE	W72
	BYTE		VOL     61*seq_000_mvl/mxv
	BYTE	W06
	BYTE		        59*seq_000_mvl/mxv
	BYTE	W06
	BYTE		        57*seq_000_mvl/mxv
	BYTE	W06
	BYTE		        53*seq_000_mvl/mxv
	BYTE	W06
	BYTE		        62*seq_000_mvl/mxv
	BYTE		N96     Fn2   v088
	BYTE	W72
	BYTE		VOL     61*seq_000_mvl/mxv
	BYTE	W06
	BYTE		        60*seq_000_mvl/mxv
	BYTE	W06
	BYTE		        59*seq_000_mvl/mxv
	BYTE	W06
	BYTE		        56*seq_000_mvl/mxv
	BYTE	W06
	BYTE		        62*seq_000_mvl/mxv
	BYTE		N96     Ds2   v096
	BYTE	W60
	BYTE		VOL     62*seq_000_mvl/mxv
	BYTE	W06
	BYTE		        61*seq_000_mvl/mxv
	BYTE	W06
	BYTE		        60*seq_000_mvl/mxv
	BYTE	W06
	BYTE		        58*seq_000_mvl/mxv
	BYTE	W06
	BYTE		        55*seq_000_mvl/mxv
	BYTE	W06
	BYTE		        52*seq_000_mvl/mxv
	BYTE	W06
	BYTE	PATT
	 POIN2	seq_000_4 + 0x296
	BYTE	PATT
	 POIN2	seq_000_4 + 0x2A9
	BYTE	PATT
	 POIN2	seq_000_4 + 0x2C1
	BYTE		EOT     Fn2 
	BYTE	W01
	BYTE		VOL     62*seq_000_mvl/mxv
	BYTE		N24     Fn2   v104
	BYTE	W24
	BYTE		        Gn2 
	BYTE	W24
	BYTE		        An2   v100
	BYTE	W24
	BYTE		N48     Fn2   v104
	BYTE	W48
	BYTE		        An2   v100
	BYTE	W48
	BYTE		N96     Cn3 
	BYTE	W72
	BYTE		VOL     60*seq_000_mvl/mxv
	BYTE	W06
	BYTE		        58*seq_000_mvl/mxv
	BYTE	W06
	BYTE		        55*seq_000_mvl/mxv
	BYTE	W06
	BYTE		        51*seq_000_mvl/mxv
	BYTE	W06
	BYTE		        62*seq_000_mvl/mxv
	BYTE		TIE     Bn2   v084
	BYTE	W66
	BYTE		VOL     62*seq_000_mvl/mxv
	BYTE	W12
	BYTE		        61*seq_000_mvl/mxv
	BYTE	W06
	BYTE		        61*seq_000_mvl/mxv
	BYTE	W06
	BYTE		        60*seq_000_mvl/mxv
	BYTE	W06
	BYTE		        59*seq_000_mvl/mxv
	BYTE	W06
	BYTE		        58*seq_000_mvl/mxv
	BYTE	W06
	BYTE		        56*seq_000_mvl/mxv
	BYTE	W06
	BYTE		        55*seq_000_mvl/mxv
	BYTE	W06
	BYTE		        53*seq_000_mvl/mxv
	BYTE	W06
	BYTE		        51*seq_000_mvl/mxv
	BYTE	W06
	BYTE		        48*seq_000_mvl/mxv
	BYTE	W06
	BYTE		        45*seq_000_mvl/mxv
	BYTE	W06
	BYTE		        42*seq_000_mvl/mxv
	BYTE	W06
	BYTE		        40*seq_000_mvl/mxv
	BYTE	W06
	BYTE		        36*seq_000_mvl/mxv
	BYTE	W06
	BYTE		        33*seq_000_mvl/mxv
	BYTE	W06
	BYTE		        29*seq_000_mvl/mxv
	BYTE	W06
	BYTE		        25*seq_000_mvl/mxv
	BYTE	W06
	BYTE		        21*seq_000_mvl/mxv
	BYTE	W06
	BYTE		        17*seq_000_mvl/mxv
	BYTE	W06
	BYTE		EOT
	BYTE		VOL     62*seq_000_mvl/mxv
	BYTE		TIE     Ds2   v088
	BYTE	W96
	BYTE	W48
	BYTE		VOL     61*seq_000_mvl/mxv
	BYTE	W06
	BYTE		        61*seq_000_mvl/mxv
	BYTE	W06
	BYTE		        59*seq_000_mvl/mxv
	BYTE	W06
	BYTE		        57*seq_000_mvl/mxv
	BYTE	W06
	BYTE		        54*seq_000_mvl/mxv
	BYTE	W06
	BYTE		        50*seq_000_mvl/mxv
	BYTE	W06
	BYTE		        45*seq_000_mvl/mxv
	BYTE	W06
	BYTE		        39*seq_000_mvl/mxv
	BYTE	W06
	BYTE		EOT
	BYTE		VOL     62*seq_000_mvl/mxv
	BYTE		N24     Fs2   v096
	BYTE	W24
	BYTE		        Dn3   v076
	BYTE	W24
	BYTE		N96     Cn3   v072
	BYTE	W48
	BYTE	W12
	BYTE		VOL     61*seq_000_mvl/mxv
	BYTE	W12
	BYTE		        61*seq_000_mvl/mxv
	BYTE	W06
	BYTE		        59*seq_000_mvl/mxv
	BYTE	W06
	BYTE		        57*seq_000_mvl/mxv
	BYTE	W06
	BYTE		        54*seq_000_mvl/mxv
	BYTE	W06
	BYTE		        62*seq_000_mvl/mxv
	BYTE		N24     As2   v080
	BYTE	W24
	BYTE		        Fs2   v076
	BYTE	W24
	BYTE		TIE     Fn2   v072
	BYTE	W96
	BYTE	W06
	BYTE		VOL     62*seq_000_mvl/mxv
	BYTE	W30
	BYTE		        61*seq_000_mvl/mxv
	BYTE	W18
	BYTE		        59*seq_000_mvl/mxv
	BYTE	W12
	BYTE		        58*seq_000_mvl/mxv
	BYTE	W12
	BYTE		        57*seq_000_mvl/mxv
	BYTE	W12
	BYTE		        55*seq_000_mvl/mxv
	BYTE	W06
	BYTE	W06
	BYTE		        53*seq_000_mvl/mxv
	BYTE	W12
	BYTE		        51*seq_000_mvl/mxv
	BYTE	W12
	BYTE		        49*seq_000_mvl/mxv
	BYTE	W12
	BYTE		        47*seq_000_mvl/mxv
	BYTE	W12
	BYTE		        44*seq_000_mvl/mxv
	BYTE	W12
	BYTE		        42*seq_000_mvl/mxv
	BYTE	W12
	BYTE		        39*seq_000_mvl/mxv
	BYTE	W12
	BYTE		        35*seq_000_mvl/mxv
	BYTE	W06
	BYTE	W06
	BYTE		        32*seq_000_mvl/mxv
	BYTE	W12
	BYTE		        28*seq_000_mvl/mxv
	BYTE	W12
	BYTE		        25*seq_000_mvl/mxv
	BYTE	W12
	BYTE		        21*seq_000_mvl/mxv
	BYTE	W12
	BYTE		        17*seq_000_mvl/mxv
	BYTE	W12
	BYTE		        13*seq_000_mvl/mxv
	BYTE	W12
	BYTE		        8*seq_000_mvl/mxv
	BYTE	W06
	BYTE		        6*seq_000_mvl/mxv
	BYTE	W10
	BYTE		EOT
	BYTE	W01
	BYTE		VOL     62*seq_000_mvl/mxv
	BYTE	W01
	BYTE	PATT
	 POIN2	seq_000_4 + 0xCE
	BYTE	GoTo
	 POIN2	seq_000_4 + 0x100
	BYTE	W08
	BYTE	FINE

//*********************** Track 06 ***********************//

seq_000_5:
	BYTE	KEYSH   seq_000_key+0
	BYTE		VOICE   43
	BYTE	W01
	BYTE		VOL     69*seq_000_mvl/mxv
	BYTE	W01
	BYTE		PAN     c_v+21
	BYTE		BEND    c_v+1
	BYTE	W04
	BYTE		N05     Cn4   v104
	BYTE	W06
	BYTE		        Cn4   v016
	BYTE	W06
	BYTE		        Cn4   v092
	BYTE	W06
	BYTE		        Cn4   v016
	BYTE	W06
	BYTE		        Cn4   v096
	BYTE	W06
	BYTE		        Cn4   v016
	BYTE	W06
	BYTE		        Cn4   v084
	BYTE	W06
	BYTE		        Cn4   v016
	BYTE	W06
	BYTE		        Cn4   v104
	BYTE	W06
	BYTE		        Cn4   v016
	BYTE	W06
	BYTE		        Cn4   v092
	BYTE	W06
	BYTE		        Cn4   v016
	BYTE	W06
	BYTE		        Cn4   v092
	BYTE	W06
	BYTE		        Cn4   v016
	BYTE	W06
	BYTE		        Cn4   v084
	BYTE	W06
	BYTE		        Cn4   v016
	BYTE	W06
	BYTE		        Cn4   v116
	BYTE	W06
	BYTE		        Cn4   v016
	BYTE	W06
	BYTE		        Cn4   v104
	BYTE	W06
	BYTE		        Cn4   v016
	BYTE	W06
	BYTE		        Cn4   v108
	BYTE	W06
	BYTE		        Cn4   v016
	BYTE	W06
	BYTE		        Cn4   v096
	BYTE	W06
	BYTE		        Cn4   v016
	BYTE	W06
	BYTE		        Cn4   v116
	BYTE	W06
	BYTE		        Cn4   v016
	BYTE	W06
	BYTE		        Cn4   v104
	BYTE	W06
	BYTE		        Cn4   v016
	BYTE	W06
	BYTE		        Cn4   v104
	BYTE	W06
	BYTE		        Cn4   v016
	BYTE	W06
	BYTE		        Cn4   v092
	BYTE	W06
	BYTE		        Cn4   v016
	BYTE	W06
	BYTE		        Cn4   v116
	BYTE	W06
	BYTE		        Cn4   v016
	BYTE	W06
	BYTE		        Cn4   v108
	BYTE	W06
	BYTE		        Cn4   v016
	BYTE	W06
	BYTE		        Cn4   v112
	BYTE	W06
	BYTE		        Cn4   v016
	BYTE	W06
	BYTE		        Cn4   v104
	BYTE	W06
	BYTE		        Cn4   v016
	BYTE	W06
	BYTE		        Cn4   v120
	BYTE	W06
	BYTE		        Cn4   v016
	BYTE	W06
	BYTE		        Cn4   v108
	BYTE	W06
	BYTE		        Cn4   v016
	BYTE	W06
	BYTE		        Cn4   v116
	BYTE	W06
	BYTE		        Cn4   v016
	BYTE	W06
	BYTE		        Cn4   v104
	BYTE	W06
	BYTE		        Cn4   v016
	BYTE	W06
	BYTE		        Cn4   v116
	BYTE	W06
	BYTE		        Cn4   v016
	BYTE	W06
	BYTE		        Cn4   v108
	BYTE	W06
	BYTE		        Cn4   v016
	BYTE	W06
	BYTE		        Cn4   v116
	BYTE	W06
	BYTE		        Cn4   v016
	BYTE	W06
	BYTE		        Cn4   v104
	BYTE	W06
	BYTE		        Cn4   v016
	BYTE	W06
	BYTE		        Cn4   v120
	BYTE	W06
	BYTE		        Cn4   v016
	BYTE	W06
	BYTE		        Cn4   v112
	BYTE	W06
	BYTE		        Cn4   v016
	BYTE	W06
	BYTE		        Cn4   v116
	BYTE	W06
	BYTE		        Cn4   v016
	BYTE	W06
	BYTE		        Cn4   v112
	BYTE	W06
	BYTE		        Cn4   v016
	BYTE	W06
	BYTE		N05     Cn4   v104
	BYTE	W06
	BYTE		        Cn4   v016
	BYTE	W06
	BYTE		        Cn4   v092
	BYTE	W06
	BYTE		        Cn4   v016
	BYTE	W06
	BYTE		        Cn4   v100
	BYTE	W06
	BYTE		        Cn4   v016
	BYTE	W06
	BYTE		        Cn4   v088
	BYTE	W06
	BYTE		        Cn4   v016
	BYTE	W06
	BYTE		        Cn4   v104
	BYTE	W06
	BYTE		        Cn4   v016
	BYTE	W06
	BYTE		        Cn4   v092
	BYTE	W06
	BYTE		        Cn4   v016
	BYTE	W06
	BYTE		        Cn4   v100
	BYTE	W06
	BYTE		        Cn4   v016
	BYTE	W06
	BYTE		        Cn4   v088
	BYTE	W06
	BYTE		        Cn4   v016
	BYTE	W06
	BYTE	PEND
	BYTE		N05     Dn4   v104
	BYTE	W06
	BYTE		        Dn4   v016
	BYTE	W06
	BYTE		        Dn4   v092
	BYTE	W06
	BYTE		        Dn4   v016
	BYTE	W06
	BYTE		        Dn4   v100
	BYTE	W06
	BYTE		        Dn4   v016
	BYTE	W06
	BYTE		        Dn4   v088
	BYTE	W06
	BYTE		        Dn4   v016
	BYTE	W06
	BYTE		        Dn4   v104
	BYTE	W06
	BYTE		        Dn4   v016
	BYTE	W06
	BYTE		        Dn4   v092
	BYTE	W06
	BYTE		        Dn4   v016
	BYTE	W06
	BYTE		        Dn4   v092
	BYTE	W06
	BYTE		        Dn4   v016
	BYTE	W06
	BYTE		        Dn4   v080
	BYTE	W06
	BYTE		        Dn4   v016
	BYTE	W06
	BYTE	PEND
	BYTE		N05     Cn4   v104
	BYTE	W06
	BYTE		        Cn4   v016
	BYTE	W06
	BYTE		        Cn4   v092
	BYTE	W06
	BYTE		        Cn4   v016
	BYTE	W06
	BYTE		        Cn4   v100
	BYTE	W06
	BYTE		        Cn4   v016
	BYTE	W06
	BYTE		        Cn4   v088
	BYTE	W06
	BYTE		        Cn4   v016
	BYTE	W06
	BYTE		        Cn4   v104
	BYTE	W06
	BYTE		        Cn4   v016
	BYTE	W06
	BYTE		        Cn4   v092
	BYTE	W06
	BYTE		        Cn4   v016
	BYTE	W06
	BYTE		        Cn4   v092
	BYTE	W06
	BYTE		        Cn4   v016
	BYTE	W06
	BYTE		        Cn4   v088
	BYTE	W06
	BYTE		        Cn4   v016
	BYTE	W06
	BYTE	PEND
	BYTE		N05     Cn4   v104
	BYTE	W06
	BYTE		        Cn4   v016
	BYTE	W06
	BYTE		        Cn4   v092
	BYTE	W06
	BYTE		        Cn4   v016
	BYTE	W06
	BYTE		        Cn4   v100
	BYTE	W06
	BYTE		        Cn4   v016
	BYTE	W06
	BYTE		        Cn4   v088
	BYTE	W06
	BYTE		        Cn4   v016
	BYTE	W06
	BYTE		        Cn4   v104
	BYTE	W06
	BYTE		        Cn4   v016
	BYTE	W06
	BYTE		        Cn4   v092
	BYTE	W06
	BYTE		        Cn4   v016
	BYTE	W06
	BYTE		        Cn4   v092
	BYTE	W06
	BYTE		        Cn4   v016
	BYTE	W06
	BYTE		        Cn4   v080
	BYTE	W06
	BYTE		        Cn4   v016
	BYTE	W06
	BYTE	PEND
	BYTE		N05     As3   v092
	BYTE	W06
	BYTE		        As3   v016
	BYTE	W06
	BYTE		        As3   v084
	BYTE	W06
	BYTE		        As3   v016
	BYTE	W06
	BYTE		        As3   v088
	BYTE	W06
	BYTE		        As3   v016
	BYTE	W06
	BYTE		        As3   v076
	BYTE	W06
	BYTE		        As3   v016
	BYTE	W06
	BYTE		        As3   v092
	BYTE	W06
	BYTE		        As3   v016
	BYTE	W06
	BYTE		        As3   v084
	BYTE	W06
	BYTE		        As3   v016
	BYTE	W06
	BYTE		        As3   v084
	BYTE	W06
	BYTE		        As3   v016
	BYTE	W06
	BYTE		        As3   v080
	BYTE	W06
	BYTE		        As3   v016
	BYTE	W06
	BYTE	PEND
	BYTE	PATT
	 POIN2	seq_000_5 + 0x164
	BYTE	PATT
	 POIN2	seq_000_5 + 0x196
	BYTE	PATT
	 POIN2	seq_000_5 + 0x164
	BYTE	PATT
	 POIN2	seq_000_5 + 0xCE
	BYTE	PATT
	 POIN2	seq_000_5 + 0x100
	BYTE	PATT
	 POIN2	seq_000_5 + 0x132
	BYTE		N05     Cn4   v104
	BYTE	W06
	BYTE		        Cn4   v016
	BYTE	W06
	BYTE		        Cn4   v092
	BYTE	W06
	BYTE		        Cn4   v016
	BYTE	W06
	BYTE		        Cn4   v100
	BYTE	W06
	BYTE		        Cn4   v016
	BYTE	W06
	BYTE		        Cn4   v088
	BYTE	W06
	BYTE		        Cn4   v016
	BYTE	W06
	BYTE		        Cn4   v116
	BYTE	W06
	BYTE		        Cn4   v016
	BYTE	W06
	BYTE		        Cn4   v124
	BYTE	W06
	BYTE		        Cn4   v016
	BYTE	W06
	BYTE		        Cn4   v124
	BYTE	W06
	BYTE		        Cn4   v016
	BYTE	W06
	BYTE		        Cn4   v108
	BYTE	W06
	BYTE		        Cn4   v016
	BYTE	W06
	BYTE		N24     Ds3   v108
	BYTE	W24
	BYTE		        Dn3   v104
	BYTE	W24
	BYTE		        Cn3   v108
	BYTE	W24
	BYTE		        As2   v116
	BYTE	W24
	BYTE		        An2 
	BYTE	W24
	BYTE		        Gn2   v112
	BYTE	W24
	BYTE		        Fn2 
	BYTE	W24
	BYTE		        Cn3   v108
	BYTE	W24
	BYTE		TIE     Gn2 
	BYTE	W30
	BYTE		VOL     69*seq_000_mvl/mxv
	BYTE	W06
	BYTE		        70*seq_000_mvl/mxv
	BYTE	W06
	BYTE		        71*seq_000_mvl/mxv
	BYTE	W06
	BYTE		        74*seq_000_mvl/mxv
	BYTE	W18
	BYTE		        73*seq_000_mvl/mxv
	BYTE	W06
	BYTE		        72*seq_000_mvl/mxv
	BYTE	W06
	BYTE		        71*seq_000_mvl/mxv
	BYTE	W06
	BYTE		        70*seq_000_mvl/mxv
	BYTE	W06
	BYTE		        68*seq_000_mvl/mxv
	BYTE	W06
	BYTE		        66*seq_000_mvl/mxv
	BYTE	W06
	BYTE		        64*seq_000_mvl/mxv
	BYTE	W06
	BYTE		        62*seq_000_mvl/mxv
	BYTE	W06
	BYTE		        59*seq_000_mvl/mxv
	BYTE	W06
	BYTE		        57*seq_000_mvl/mxv
	BYTE	W06
	BYTE		        53*seq_000_mvl/mxv
	BYTE	W06
	BYTE		        50*seq_000_mvl/mxv
	BYTE	W06
	BYTE		        47*seq_000_mvl/mxv
	BYTE	W06
	BYTE		        42*seq_000_mvl/mxv
	BYTE	W06
	BYTE		        39*seq_000_mvl/mxv
	BYTE	W06
	BYTE		        34*seq_000_mvl/mxv
	BYTE	W06
	BYTE		        30*seq_000_mvl/mxv
	BYTE	W06
	BYTE		        25*seq_000_mvl/mxv
	BYTE	W06
	BYTE		        20*seq_000_mvl/mxv
	BYTE	W06
	BYTE		        15*seq_000_mvl/mxv
	BYTE	W06
	BYTE		        9*seq_000_mvl/mxv
	BYTE	W04
	BYTE		EOT
	BYTE	W02
	BYTE		VOL     69*seq_000_mvl/mxv
	BYTE		TIE     Gn3   v092
	BYTE	W96
	BYTE	PEND
	BYTE	W66
	BYTE		VOL     67*seq_000_mvl/mxv
	BYTE	W06
	BYTE		        66*seq_000_mvl/mxv
	BYTE	W06
	BYTE		        64*seq_000_mvl/mxv
	BYTE	W06
	BYTE		        60*seq_000_mvl/mxv
	BYTE	W06
	BYTE		        54*seq_000_mvl/mxv
	BYTE	W06
	BYTE	PEND
	BYTE		EOT     Gn3 
	BYTE		VOL     69*seq_000_mvl/mxv
	BYTE		TIE     An3   v096
	BYTE	W90
	BYTE		VOL     67*seq_000_mvl/mxv
	BYTE	W06
	BYTE	PEND
	BYTE	W06
	BYTE		VOL     66*seq_000_mvl/mxv
	BYTE	W06
	BYTE		        63*seq_000_mvl/mxv
	BYTE	W06
	BYTE		        60*seq_000_mvl/mxv
	BYTE	W05
	BYTE	PEND
	BYTE		EOT     An3 
	BYTE	W01
	BYTE		VOL     69*seq_000_mvl/mxv
	BYTE		N24     An3   v092
	BYTE	W24
	BYTE		        As3   v100
	BYTE	W24
	BYTE		        Cn4   v120
	BYTE	W24
	BYTE		N96     Dn4 
	BYTE	W66
	BYTE		VOL     67*seq_000_mvl/mxv
	BYTE	W12
	BYTE		        66*seq_000_mvl/mxv
	BYTE	W06
	BYTE		        64*seq_000_mvl/mxv
	BYTE	W06
	BYTE		        61*seq_000_mvl/mxv
	BYTE	W06
	BYTE		        69*seq_000_mvl/mxv
	BYTE		N96     Cn4   v100
	BYTE	W66
	BYTE		VOL     68*seq_000_mvl/mxv
	BYTE	W06
	BYTE		        67*seq_000_mvl/mxv
	BYTE	W06
	BYTE		        66*seq_000_mvl/mxv
	BYTE	W06
	BYTE		        64*seq_000_mvl/mxv
	BYTE	W06
	BYTE		        62*seq_000_mvl/mxv
	BYTE	W06
	BYTE		        69*seq_000_mvl/mxv
	BYTE		TIE     As3   v080
	BYTE	W66
	BYTE		VOL     68*seq_000_mvl/mxv
	BYTE	W18
	BYTE		        67*seq_000_mvl/mxv
	BYTE	W06
	BYTE		        66*seq_000_mvl/mxv
	BYTE	W06
	BYTE		        65*seq_000_mvl/mxv
	BYTE	W06
	BYTE		        63*seq_000_mvl/mxv
	BYTE	W06
	BYTE		        61*seq_000_mvl/mxv
	BYTE	W06
	BYTE		        59*seq_000_mvl/mxv
	BYTE	W06
	BYTE		        57*seq_000_mvl/mxv
	BYTE	W06
	BYTE		        55*seq_000_mvl/mxv
	BYTE	W06
	BYTE		        52*seq_000_mvl/mxv
	BYTE	W06
	BYTE		        50*seq_000_mvl/mxv
	BYTE	W06
	BYTE		        46*seq_000_mvl/mxv
	BYTE	W06
	BYTE		        43*seq_000_mvl/mxv
	BYTE	W06
	BYTE		        39*seq_000_mvl/mxv
	BYTE	W06
	BYTE		        35*seq_000_mvl/mxv
	BYTE	W06
	BYTE		        32*seq_000_mvl/mxv
	BYTE	W06
	BYTE		        27*seq_000_mvl/mxv
	BYTE	W06
	BYTE		        22*seq_000_mvl/mxv
	BYTE	W12
	BYTE		EOT
	BYTE	PATT
	 POIN2	seq_000_5 + 0x266
	BYTE	PATT
	 POIN2	seq_000_5 + 0x26D
	BYTE		EOT     Gn3 
	BYTE	PATT
	 POIN2	seq_000_5 + 0x27C
	BYTE	PATT
	 POIN2	seq_000_5 + 0x286
	BYTE		EOT     An3 
	BYTE	W01
	BYTE		VOL     69*seq_000_mvl/mxv
	BYTE		N24     An3   v092
	BYTE	W24
	BYTE		        As3   v100
	BYTE	W24
	BYTE		        Cn4   v120
	BYTE	W24
	BYTE		TIE     Dn4   v116
	BYTE	W96
	BYTE	W54
	BYTE		VOL     68*seq_000_mvl/mxv
	BYTE	W06
	BYTE		        67*seq_000_mvl/mxv
	BYTE	W06
	BYTE		        64*seq_000_mvl/mxv
	BYTE	W06
	BYTE		        61*seq_000_mvl/mxv
	BYTE	W06
	BYTE		        56*seq_000_mvl/mxv
	BYTE	W06
	BYTE		        49*seq_000_mvl/mxv
	BYTE	W06
	BYTE		        40*seq_000_mvl/mxv
	BYTE	W05
	BYTE		EOT
	BYTE	W01
	BYTE		VOL     69*seq_000_mvl/mxv
	BYTE		TIE     Gn3   v088
	BYTE	W96
	BYTE	W42
	BYTE		VOL     68*seq_000_mvl/mxv
	BYTE	W06
	BYTE		        67*seq_000_mvl/mxv
	BYTE	W06
	BYTE		        65*seq_000_mvl/mxv
	BYTE	W06
	BYTE		        61*seq_000_mvl/mxv
	BYTE	W06
	BYTE		        57*seq_000_mvl/mxv
	BYTE	W06
	BYTE		        51*seq_000_mvl/mxv
	BYTE	W06
	BYTE		        42*seq_000_mvl/mxv
	BYTE	W06
	BYTE		        34*seq_000_mvl/mxv
	BYTE	W06
	BYTE		        23*seq_000_mvl/mxv
	BYTE	W05
	BYTE		EOT
	BYTE	W01
	BYTE		VOL     69*seq_000_mvl/mxv
	BYTE		TIE     Gn3   v096
	BYTE	W96
	BYTE		VOL     66*seq_000_mvl/mxv
	BYTE	W06
	BYTE		        65*seq_000_mvl/mxv
	BYTE	W06
	BYTE		        62*seq_000_mvl/mxv
	BYTE	W06
	BYTE		        57*seq_000_mvl/mxv
	BYTE	W06
	BYTE		EOT
	BYTE		VOL     69*seq_000_mvl/mxv
	BYTE		N24     Dn4   v104
	BYTE	W24
	BYTE		        Cn4 
	BYTE	W24
	BYTE		N23     As3   v076
	BYTE	W24
	BYTE		TIE
	BYTE	W12
	BYTE		VOL     69*seq_000_mvl/mxv
	BYTE	W18
	BYTE		        70*seq_000_mvl/mxv
	BYTE	W12
	BYTE		        71*seq_000_mvl/mxv
	BYTE	W12
	BYTE		        71*seq_000_mvl/mxv
	BYTE	W06
	BYTE		        72*seq_000_mvl/mxv
	BYTE	W06
	BYTE		        73*seq_000_mvl/mxv
	BYTE	W06
	BYTE		        73*seq_000_mvl/mxv
	BYTE	W06
	BYTE		        74*seq_000_mvl/mxv
	BYTE	W06
	BYTE		        75*seq_000_mvl/mxv
	BYTE	W06
	BYTE		        76*seq_000_mvl/mxv
	BYTE	W06
	BYTE	W42
	BYTE		        74*seq_000_mvl/mxv
	BYTE	W12
	BYTE		        73*seq_000_mvl/mxv
	BYTE	W06
	BYTE		        70*seq_000_mvl/mxv
	BYTE	W06
	BYTE		        67*seq_000_mvl/mxv
	BYTE	W06
	BYTE		        63*seq_000_mvl/mxv
	BYTE	W06
	BYTE		        58*seq_000_mvl/mxv
	BYTE	W06
	BYTE		        52*seq_000_mvl/mxv
	BYTE	W06
	BYTE		        45*seq_000_mvl/mxv
	BYTE	W05
	BYTE		EOT
	BYTE	W01
	BYTE		VOL     69*seq_000_mvl/mxv
	BYTE		N96     As3   v080
	BYTE	W72
	BYTE		VOL     68*seq_000_mvl/mxv
	BYTE	W06
	BYTE		        62*seq_000_mvl/mxv
	BYTE	W06
	BYTE		        59*seq_000_mvl/mxv
	BYTE	W06
	BYTE		        54*seq_000_mvl/mxv
	BYTE	W06
	BYTE		        69*seq_000_mvl/mxv
	BYTE		N96     Gs3   v072
	BYTE	W72
	BYTE		VOL     68*seq_000_mvl/mxv
	BYTE	W06
	BYTE		        62*seq_000_mvl/mxv
	BYTE	W06
	BYTE		        59*seq_000_mvl/mxv
	BYTE	W06
	BYTE		        54*seq_000_mvl/mxv
	BYTE	W06
	BYTE		        69*seq_000_mvl/mxv
	BYTE		N96     As3 
	BYTE	W72
	BYTE		VOL     68*seq_000_mvl/mxv
	BYTE	W06
	BYTE		        62*seq_000_mvl/mxv
	BYTE	W06
	BYTE		        59*seq_000_mvl/mxv
	BYTE	W06
	BYTE		        54*seq_000_mvl/mxv
	BYTE	W06
	BYTE		        69*seq_000_mvl/mxv
	BYTE		N92     Gs3   v064
	BYTE	W72
	BYTE		VOL     68*seq_000_mvl/mxv
	BYTE	W06
	BYTE		        62*seq_000_mvl/mxv
	BYTE	W06
	BYTE		        59*seq_000_mvl/mxv
	BYTE	W06
	BYTE		        54*seq_000_mvl/mxv
	BYTE	W05
	BYTE		        69*seq_000_mvl/mxv
	BYTE	W01
	BYTE		        69*seq_000_mvl/mxv
	BYTE		N05     Cn4   v104
	BYTE	W06
	BYTE		        Cn4   v016
	BYTE	W06
	BYTE		        Cn4   v092
	BYTE	W06
	BYTE		        Cn4   v016
	BYTE	W06
	BYTE		        Cn4   v100
	BYTE	W06
	BYTE		        Cn4   v016
	BYTE	W06
	BYTE		        Cn4   v088
	BYTE	W06
	BYTE		        Cn4   v016
	BYTE	W06
	BYTE		        Cn4   v104
	BYTE	W06
	BYTE		        Cn4   v016
	BYTE	W06
	BYTE		        Cn4   v092
	BYTE	W06
	BYTE		        Cn4   v016
	BYTE	W06
	BYTE		        Cn4   v100
	BYTE	W06
	BYTE		        Cn4   v016
	BYTE	W06
	BYTE		        Cn4   v088
	BYTE	W06
	BYTE		        Cn4   v016
	BYTE	W06
	BYTE	GoTo
	 POIN2	seq_000_5 + 0x100
	BYTE	W08
	BYTE	FINE

//*********************** Track 07 ***********************//

seq_000_6:
	BYTE	KEYSH   seq_000_key+0
	BYTE		VOICE   80
	BYTE	W01
	BYTE		VOL     69*seq_000_mvl/mxv
	BYTE	W01
	BYTE		PAN     c_v+6
	BYTE	W04
	BYTE		N04     En1   v084
	BYTE	W12
	BYTE		        En1   v012
	BYTE	W12
	BYTE		        En1   v072
	BYTE	W12
	BYTE		        En1   v012
	BYTE	W12
	BYTE		        En1   v072
	BYTE	W12
	BYTE		        En1   v012
	BYTE	W12
	BYTE		        En1   v068
	BYTE	W12
	BYTE		        En1   v012
	BYTE	W12
	BYTE	PEND
	BYTE	PATT
	 POIN2	seq_000_6 + 0xB
	BYTE	PATT
	 POIN2	seq_000_6 + 0xB
	BYTE	PATT
	 POIN2	seq_000_6 + 0xB
	BYTE		N05     Cn1   v124
	BYTE		N04     En1   v084
	BYTE	W06
	BYTE		N05     Cn1   v012
	BYTE	W06
	BYTE		N04     Cn1   v104
	BYTE		N04     En1   v012
	BYTE	W06
	BYTE		N05     Cn1 
	BYTE	W06
	BYTE		N04     En1   v072
	BYTE	W12
	BYTE		        En1   v012
	BYTE	W12
	BYTE		        En1   v072
	BYTE	W12
	BYTE		        En1   v012
	BYTE	W12
	BYTE		        En1   v068
	BYTE	W12
	BYTE		        En1   v012
	BYTE	W12
	BYTE	PEND
	BYTE		N05     Cn1   v116
	BYTE		N04     En1   v084
	BYTE	W06
	BYTE		N05     Cn1   v012
	BYTE	W06
	BYTE		N04     Cn1   v096
	BYTE		N04     En1   v012
	BYTE	W06
	BYTE		N05     Cn1 
	BYTE	W06
	BYTE		N04     En1   v072
	BYTE	W12
	BYTE		        En1   v012
	BYTE	W12
	BYTE		        En1   v072
	BYTE	W12
	BYTE		        En1   v012
	BYTE	W12
	BYTE		        En1   v068
	BYTE	W12
	BYTE		        En1   v012
	BYTE	W12
	BYTE	PEND
	BYTE	PATT
	 POIN2	seq_000_6 + 0x34
	BYTE		N05     Cn1   v108
	BYTE		N04     En1   v084
	BYTE	W06
	BYTE		N05     Cn1   v012
	BYTE	W06
	BYTE		N04     Cn1   v092
	BYTE		N04     En1   v012
	BYTE	W06
	BYTE		N05     Cn1 
	BYTE	W06
	BYTE		N04     En1   v072
	BYTE	W12
	BYTE		        En1   v012
	BYTE	W12
	BYTE		        En1   v072
	BYTE	W12
	BYTE		        En1   v012
	BYTE	W12
	BYTE		        En1   v068
	BYTE	W12
	BYTE		        En1   v012
	BYTE	W12
	BYTE	PEND
	BYTE	PATT
	 POIN2	seq_000_6 + 0x34
	BYTE	PATT
	 POIN2	seq_000_6 + 0x5D
	BYTE	PATT
	 POIN2	seq_000_6 + 0x34
	BYTE	PATT
	 POIN2	seq_000_6 + 0x8B
	BYTE	PATT
	 POIN2	seq_000_6 + 0x34
	BYTE	PATT
	 POIN2	seq_000_6 + 0x5D
	BYTE	PATT
	 POIN2	seq_000_6 + 0x34
	BYTE	PATT
	 POIN2	seq_000_6 + 0x8B
	BYTE		N05     Cn1   v124
	BYTE		N04     En1   v084
	BYTE	W12
	BYTE		N05     Cn1   v012
	BYTE		N11     Bn2   v036
	BYTE	W12
	BYTE		N04     Cn1   v104
	BYTE		N04     En1   v072
	BYTE	W12
	BYTE		N05     Cn1   v012
	BYTE		N11     Bn2   v040
	BYTE	W12
	BYTE		N05     Cn1   v116
	BYTE		N04     En1   v076
	BYTE	W12
	BYTE		N05     Cn1   v012
	BYTE		N11     Bn2   v044
	BYTE	W12
	BYTE		N04     Cn1   v100
	BYTE		N04     En1   v068
	BYTE	W12
	BYTE		N05     Cn1   v012
	BYTE		N11     Bn2   v048
	BYTE	W12
	BYTE		N05     Cn1   v124
	BYTE		N04     En1   v084
	BYTE	W12
	BYTE		N05     Cn1   v012
	BYTE		N11     Bn2   v052
	BYTE	W12
	BYTE		N04     Cn1   v104
	BYTE		N04     En1   v072
	BYTE	W12
	BYTE		N05     Cn1   v012
	BYTE		N11     Bn2   v056
	BYTE	W12
	BYTE		N05     Cn1   v116
	BYTE		N04     En1   v076
	BYTE	W12
	BYTE		N05     Cn1   v012
	BYTE		N11     Bn2   v060
	BYTE	W12
	BYTE		N04     Cn1   v100
	BYTE		N04     En1   v068
	BYTE	W12
	BYTE		N05     Cn1   v012
	BYTE		N11     Bn2   v064
	BYTE	W12
	BYTE		N05     Cn1   v124
	BYTE		N04     En1   v076
	BYTE	W06
	BYTE		N05     Cn1   v012
	BYTE	W06
	BYTE		N04     Cn1   v104
	BYTE		N11     Bn2   v052
	BYTE	W12
	BYTE		N05     Cn1   v012
	BYTE		N04     En1   v068
	BYTE	W12
	BYTE		N11     Bn2   v048
	BYTE	W12
	BYTE		N05     Cn1   v116
	BYTE		N04     En1   v072
	BYTE	W06
	BYTE		N05     Cn1   v012
	BYTE	W06
	BYTE		N04     Cn1   v096
	BYTE		N11     Bn2   v048
	BYTE	W12
	BYTE		N05     Cn1   v012
	BYTE		N04     En1   v064
	BYTE	W12
	BYTE		N11     Bn2   v044
	BYTE	W12
	BYTE		N05     Cn1   v124
	BYTE		N04     En1   v072
	BYTE	W06
	BYTE		N05     Cn1   v012
	BYTE	W06
	BYTE		N04     Cn1   v104
	BYTE		N11     Bn2   v040
	BYTE	W12
	BYTE		N05     Cn1   v012
	BYTE		N04     En1   v064
	BYTE	W12
	BYTE		        Cn1   v108
	BYTE		N11     Bn2   v036
	BYTE	W06
	BYTE		N05     Cn1   v012
	BYTE	W06
	BYTE		        Cn1   v116
	BYTE		N04     En1   v068
	BYTE	W06
	BYTE		N05     Cn1   v012
	BYTE	W06
	BYTE		N07     An2   v108
	BYTE	W12
	BYTE		        An2   v124
	BYTE	W12
	BYTE		N05     An2   v120
	BYTE	W06
	BYTE		N07     An2   v100
	BYTE	W06
	BYTE		N05     Cn1   v124
	BYTE		N04     En1   v076
	BYTE	W06
	BYTE		N05     Cn1   v016
	BYTE		N04     En1   v012
	BYTE	W06
	BYTE		        Cn1   v104
	BYTE		N04     En1   v072
	BYTE	W06
	BYTE		N03     En1   v068
	BYTE	W06
	BYTE		N05     Cn1   v016
	BYTE		N11     Bn2   v056
	BYTE	W12
	BYTE		N05     Cn1   v016
	BYTE		N04     En1   v076
	BYTE	W06
	BYTE		N03     En1   v064
	BYTE	W06
	BYTE		N04     En1   v072
	BYTE		N06     An2   v116
	BYTE	W06
	BYTE		N04     En1   v012
	BYTE	W06
	BYTE		        En1   v068
	BYTE		N06     An2   v020
	BYTE	W06
	BYTE		N03     En1   v064
	BYTE	W06
	BYTE		N05     Cn1   v016
	BYTE		N11     Bn2   v056
	BYTE	W12
	BYTE		N04     Cn1   v096
	BYTE		N04     En1   v072
	BYTE	W06
	BYTE		N03     En1   v060
	BYTE	W06
	BYTE	PEND
	BYTE		N05     Cn1   v124
	BYTE		N04     En1   v076
	BYTE	W06
	BYTE		N05     Cn1   v016
	BYTE		N04     En1   v012
	BYTE	W06
	BYTE		        Cn1   v104
	BYTE		N04     En1   v072
	BYTE	W06
	BYTE		N03     En1   v068
	BYTE	W06
	BYTE		N05     Cn1   v016
	BYTE		N11     Bn2   v056
	BYTE	W12
	BYTE		N05     Cn1   v016
	BYTE		N04     En1   v076
	BYTE	W06
	BYTE		N03     En1   v064
	BYTE	W06
	BYTE		N04     En1   v072
	BYTE		N06     An2   v116
	BYTE	W06
	BYTE		N04     En1   v012
	BYTE	W06
	BYTE		        En1   v068
	BYTE		N06     An2   v020
	BYTE	W06
	BYTE		N03     En1   v064
	BYTE	W06
	BYTE		N06     An2   v020
	BYTE		N11     Bn2   v056
	BYTE	W12
	BYTE		N05     Cn1   v016
	BYTE		N04     En1   v072
	BYTE	W06
	BYTE		N03     En1   v060
	BYTE	W06
	BYTE	PEND
	BYTE	PATT
	 POIN2	seq_000_6 + 0x1C2
	BYTE	PATT
	 POIN2	seq_000_6 + 0x214
	BYTE	PATT
	 POIN2	seq_000_6 + 0x1C2
	BYTE	PATT
	 POIN2	seq_000_6 + 0x214
	BYTE	PATT
	 POIN2	seq_000_6 + 0x1C2
	BYTE		N05     Cn1   v124
	BYTE		N04     En1   v076
	BYTE	W06
	BYTE		N05     Cn1   v016
	BYTE		N04     En1   v012
	BYTE	W06
	BYTE		        Cn1   v104
	BYTE		N04     En1   v072
	BYTE	W06
	BYTE		N03     En1   v068
	BYTE	W06
	BYTE		N05     Cn1   v016
	BYTE		N11     Bn2   v056
	BYTE	W12
	BYTE		N05     Cn1   v016
	BYTE		N04     En1   v076
	BYTE	W06
	BYTE		N03     En1   v064
	BYTE	W06
	BYTE		N04     En1   v072
	BYTE		N06     An2   v116
	BYTE	W06
	BYTE		N04     En1   v012
	BYTE	W06
	BYTE		N05     Cn1   v100
	BYTE		N04     En1   v068
	BYTE	W06
	BYTE		N03     En1   v064
	BYTE	W06
	BYTE		N05     Cn1   v016
	BYTE		N11     Bn2   v056
	BYTE	W12
	BYTE		N04     Cn1   v100
	BYTE		N04     En1   v072
	BYTE	W06
	BYTE		N03     En1   v060
	BYTE	W06
	BYTE	PEND
	BYTE	PATT
	 POIN2	seq_000_6 + 0x1C2
	BYTE	PATT
	 POIN2	seq_000_6 + 0x214
	BYTE	PATT
	 POIN2	seq_000_6 + 0x1C2
	BYTE	PATT
	 POIN2	seq_000_6 + 0x214
	BYTE	PATT
	 POIN2	seq_000_6 + 0x1C2
	BYTE	PATT
	 POIN2	seq_000_6 + 0x214
	BYTE	PATT
	 POIN2	seq_000_6 + 0x1C2
	BYTE	PATT
	 POIN2	seq_000_6 + 0x27F
	BYTE		N05     Cn1   v124
	BYTE		N04     En1   v076
	BYTE	W06
	BYTE		N05     Cn1   v016
	BYTE		N04     En1   v012
	BYTE	W06
	BYTE		        Cn1   v104
	BYTE		N04     En1   v072
	BYTE	W06
	BYTE		N03     En1   v068
	BYTE	W06
	BYTE		N05     Cn1   v016
	BYTE		N11     Bn2   v056
	BYTE	W12
	BYTE		N05     Cn1   v016
	BYTE		N04     En1   v076
	BYTE	W06
	BYTE		N03     En1   v064
	BYTE	W06
	BYTE		N04     En1   v072
	BYTE		N06     An2   v116
	BYTE	W06
	BYTE		N04     En1   v012
	BYTE	W06
	BYTE		N05     Cn1   v100
	BYTE		N04     En1   v068
	BYTE	W06
	BYTE		N03     En1   v064
	BYTE	W06
	BYTE		N05     Cn1   v016
	BYTE		N11     Bn2   v056
	BYTE	W12
	BYTE		N05     Cn1   v016
	BYTE		N04     En1   v072
	BYTE	W06
	BYTE		N03     En1   v060
	BYTE	W06
	BYTE	PEND
	BYTE		N05     Cn1   v124
	BYTE		N04     En1   v076
	BYTE	W06
	BYTE		N05     Cn1   v016
	BYTE		N04     En1   v012
	BYTE	W06
	BYTE		        Cn1   v104
	BYTE		N04     En1   v072
	BYTE	W06
	BYTE		N03     En1   v068
	BYTE	W06
	BYTE		N05     Cn1   v016
	BYTE		N11     Bn2   v056
	BYTE	W12
	BYTE		N04     Cn1   v096
	BYTE		N04     En1   v076
	BYTE	W06
	BYTE		N03     En1   v064
	BYTE	W06
	BYTE		N04     En1   v072
	BYTE		N06     An2   v116
	BYTE	W06
	BYTE		N04     En1   v012
	BYTE	W06
	BYTE		N05     Cn1   v100
	BYTE		N04     En1   v068
	BYTE	W06
	BYTE		N03     En1   v064
	BYTE	W06
	BYTE		N05     Cn1   v016
	BYTE		N11     Bn2   v056
	BYTE	W12
	BYTE		N04     Cn1   v096
	BYTE		N04     En1   v072
	BYTE	W06
	BYTE		N03     En1   v060
	BYTE	W06
	BYTE	PEND
	BYTE	PATT
	 POIN2	seq_000_6 + 0x2FA
	BYTE	PATT
	 POIN2	seq_000_6 + 0x34D
	BYTE	PATT
	 POIN2	seq_000_6 + 0x2FA
	BYTE		N05     Cn1   v124
	BYTE		N04     En1   v076
	BYTE	W06
	BYTE		N05     Cn1   v016
	BYTE		N04     En1   v012
	BYTE	W06
	BYTE		        Cn1   v104
	BYTE		N04     En1   v072
	BYTE	W06
	BYTE		N03     En1   v068
	BYTE	W06
	BYTE		N05     Cn1   v016
	BYTE		N11     Bn2   v056
	BYTE	W12
	BYTE		N04     Cn1   v096
	BYTE		N04     En1   v076
	BYTE	W06
	BYTE		N03     En1   v064
	BYTE	W06
	BYTE		N04     En1   v072
	BYTE		N06     An2   v116
	BYTE	W06
	BYTE		N04     En1   v012
	BYTE	W06
	BYTE		N05     Cn1   v100
	BYTE		N04     En1   v068
	BYTE	W06
	BYTE		N03     En1   v064
	BYTE	W06
	BYTE		N05     Cn1   v016
	BYTE		N11     Bn2   v056
	BYTE	W12
	BYTE		N05     Cn1   v016
	BYTE		N04     En1   v072
	BYTE	W06
	BYTE		N03     En1   v060
	BYTE	W06
	BYTE	PATT
	 POIN2	seq_000_6 + 0x2FA
	BYTE		N05     Cn1   v124
	BYTE		N04     En1   v076
	BYTE	W06
	BYTE		N05     Cn1   v016
	BYTE		N04     En1   v012
	BYTE	W06
	BYTE		        Cn1   v104
	BYTE		N04     En1   v072
	BYTE	W06
	BYTE		N03     En1   v068
	BYTE	W06
	BYTE		N05     Cn1   v016
	BYTE		N11     Bn2   v056
	BYTE	W12
	BYTE		N05     Cn1   v016
	BYTE		N04     En1   v076
	BYTE	W06
	BYTE		N03     En1   v064
	BYTE	W06
	BYTE		N04     En1   v072
	BYTE		N06     An2   v116
	BYTE	W06
	BYTE		N04     En1   v012
	BYTE	W06
	BYTE		N05     Cn1   v100
	BYTE		N04     En1   v068
	BYTE	W06
	BYTE		N03     En1   v064
	BYTE	W06
	BYTE		N06     An2   v096
	BYTE		N11     Bn2   v056
	BYTE	W12
	BYTE		N04     En1   v072
	BYTE		N06     An2   v016
	BYTE	W06
	BYTE		N03     En1   v060
	BYTE	W06
	BYTE		N05     Cn1   v124
	BYTE		N04     En1   v076
	BYTE	W06
	BYTE		N05     Cn1   v012
	BYTE	W06
	BYTE		N04     Cn1   v104
	BYTE		N04     En1   v012
	BYTE	W06
	BYTE		N05     Cn1 
	BYTE	W06
	BYTE		N04     En1   v068
	BYTE	W12
	BYTE		        En1   v012
	BYTE	W12
	BYTE		        En1   v068
	BYTE	W12
	BYTE		        En1   v012
	BYTE	W12
	BYTE		        En1   v064
	BYTE	W12
	BYTE		        En1   v012
	BYTE	W12
	BYTE	GoTo
	 POIN2	seq_000_6 + 0x5D
	BYTE	W08
	BYTE	FINE

//*********************** Track 08 ***********************//

seq_000_7:
	BYTE	KEYSH   seq_000_key+0
	BYTE	W06
	BYTE	W96
	BYTE	W96
	BYTE	W96
	BYTE	W92
	BYTE		VOICE   80
	BYTE	W01
	BYTE		VOL     69*seq_000_mvl/mxv
	BYTE	W01
	BYTE		PAN     c_v-14
	BYTE	W01
	BYTE	W01
	BYTE		N72     Dn2   v112
	BYTE	W12
	BYTE		VOL     68*seq_000_mvl/mxv
	BYTE	W06
	BYTE		        66*seq_000_mvl/mxv
	BYTE	W06
	BYTE		        65*seq_000_mvl/mxv
	BYTE	W06
	BYTE		        64*seq_000_mvl/mxv
	BYTE	W06
	BYTE		        62*seq_000_mvl/mxv
	BYTE	W06
	BYTE		        61*seq_000_mvl/mxv
	BYTE	W06
	BYTE		        61*seq_000_mvl/mxv
	BYTE	W06
	BYTE		        59*seq_000_mvl/mxv
	BYTE	W06
	BYTE		        58*seq_000_mvl/mxv
	BYTE	W06
	BYTE		        57*seq_000_mvl/mxv
	BYTE	W07
	BYTE	W23
	BYTE	W96
	BYTE	W96
	BYTE	W96
	BYTE	W96
	BYTE	W96
	BYTE	W96
	BYTE	W96
	BYTE	W96
	BYTE	W96
	BYTE	W96
	BYTE	W96
	BYTE	W96
	BYTE	W96
	BYTE	W96
	BYTE	W96
	BYTE	W96
	BYTE	W96
	BYTE	W96
	BYTE	W96
	BYTE	W96
	BYTE	W96
	BYTE	W96
	BYTE	W96
	BYTE	W96
	BYTE	W96
	BYTE	W96
	BYTE	W96
	BYTE	W96
	BYTE	W96
	BYTE	W96
	BYTE	W96
	BYTE	W96
	BYTE	W96
	BYTE	W96
	BYTE	W96
	BYTE	W96
	BYTE	W96
	BYTE	W96
	BYTE	W64
	BYTE	W01
	BYTE	W01
	BYTE		VOL     69*seq_000_mvl/mxv
	BYTE	W06
	BYTE		N72     Dn2   v112
	BYTE	W06
	BYTE		VOL     68*seq_000_mvl/mxv
	BYTE	W06
	BYTE		        66*seq_000_mvl/mxv
	BYTE	W06
	BYTE		        64*seq_000_mvl/mxv
	BYTE	W06
	BYTE		        61*seq_000_mvl/mxv
	BYTE	W06
	BYTE		        59*seq_000_mvl/mxv
	BYTE	W06
	BYTE		        57*seq_000_mvl/mxv
	BYTE	W06
	BYTE		        55*seq_000_mvl/mxv
	BYTE	W06
	BYTE		        53*seq_000_mvl/mxv
	BYTE	W06
	BYTE		        51*seq_000_mvl/mxv
	BYTE	W06
	BYTE		        49*seq_000_mvl/mxv
	BYTE	W06
	BYTE		        47*seq_000_mvl/mxv
	BYTE	W06
	BYTE		        45*seq_000_mvl/mxv
	BYTE	W48
	BYTE	GoTo
	 POIN2	seq_000_7 + 0x2B
	BYTE	W08
	BYTE	FINE

//*********************** Track 09 ***********************//

seq_000_8:
	BYTE	KEYSH   seq_000_key+0
	BYTE	W06
	BYTE	W96
	BYTE	W96
	BYTE	W96
	BYTE	W96
	BYTE	W02
	BYTE		VOICE   47
	BYTE	W01
	BYTE		VOL     69*seq_000_mvl/mxv
	BYTE	W01
	BYTE		PAN     c_v+63
	BYTE	W03
	BYTE	W01
	BYTE		N48     Gn2   v036
	BYTE	W03
	BYTE		VOL     70*seq_000_mvl/mxv
	BYTE	W03
	BYTE		        71*seq_000_mvl/mxv
	BYTE	W06
	BYTE		        71*seq_000_mvl/mxv
	BYTE	W03
	BYTE		        73*seq_000_mvl/mxv
	BYTE	W03
	BYTE		        74*seq_000_mvl/mxv
	BYTE	W03
	BYTE		        76*seq_000_mvl/mxv
	BYTE	W06
	BYTE		        75*seq_000_mvl/mxv
	BYTE	W03
	BYTE		        73*seq_000_mvl/mxv
	BYTE	W03
	BYTE		        69*seq_000_mvl/mxv
	BYTE	W03
	BYTE		        65*seq_000_mvl/mxv
	BYTE	W03
	BYTE		        59*seq_000_mvl/mxv
	BYTE	W03
	BYTE		        52*seq_000_mvl/mxv
	BYTE	W03
	BYTE		        43*seq_000_mvl/mxv
	BYTE	W03
	BYTE		        69*seq_000_mvl/mxv
	BYTE		N24     Bn1 
	BYTE	W24
	BYTE		        Cn2   v040
	BYTE	W16
	BYTE	W08
	BYTE		N72     Dn2   v040
	BYTE	W12
	BYTE		VOL     69*seq_000_mvl/mxv
	BYTE	W06
	BYTE		        70*seq_000_mvl/mxv
	BYTE	W03
	BYTE		        71*seq_000_mvl/mxv
	BYTE	W03
	BYTE		        71*seq_000_mvl/mxv
	BYTE	W03
	BYTE		        72*seq_000_mvl/mxv
	BYTE	W03
	BYTE		        73*seq_000_mvl/mxv
	BYTE	W03
	BYTE		        74*seq_000_mvl/mxv
	BYTE	W06
	BYTE		        74*seq_000_mvl/mxv
	BYTE	W06
	BYTE		        73*seq_000_mvl/mxv
	BYTE	W03
	BYTE		        71*seq_000_mvl/mxv
	BYTE	W03
	BYTE		        69*seq_000_mvl/mxv
	BYTE	W03
	BYTE		        66*seq_000_mvl/mxv
	BYTE	W03
	BYTE		        62*seq_000_mvl/mxv
	BYTE	W03
	BYTE		        58*seq_000_mvl/mxv
	BYTE	W03
	BYTE		        53*seq_000_mvl/mxv
	BYTE	W03
	BYTE		        47*seq_000_mvl/mxv
	BYTE	W03
	BYTE		        41*seq_000_mvl/mxv
	BYTE	W03
	BYTE		        69*seq_000_mvl/mxv
	BYTE		N24     An2   v032
	BYTE	W16
	BYTE	PEND
	BYTE	W08
	BYTE		N96     Gn2   v036
	BYTE	W48
	BYTE		VOL     68*seq_000_mvl/mxv
	BYTE	W09
	BYTE		        67*seq_000_mvl/mxv
	BYTE	W03
	BYTE		        66*seq_000_mvl/mxv
	BYTE	W03
	BYTE		        64*seq_000_mvl/mxv
	BYTE	W03
	BYTE		        62*seq_000_mvl/mxv
	BYTE	W03
	BYTE		        60*seq_000_mvl/mxv
	BYTE	W03
	BYTE		        57*seq_000_mvl/mxv
	BYTE	W03
	BYTE		        54*seq_000_mvl/mxv
	BYTE	W03
	BYTE		        51*seq_000_mvl/mxv
	BYTE	W03
	BYTE		        47*seq_000_mvl/mxv
	BYTE	W03
	BYTE		        43*seq_000_mvl/mxv
	BYTE	W03
	BYTE		        39*seq_000_mvl/mxv
	BYTE	W01
	BYTE	PEND
	BYTE	W02
	BYTE		VOL     34*seq_000_mvl/mxv
	BYTE	W03
	BYTE		        28*seq_000_mvl/mxv
	BYTE	W03
	BYTE		        69*seq_000_mvl/mxv
	BYTE		N44     Ds2   v028
	BYTE	W48
	BYTE		N24     Ds2   v036
	BYTE	W24
	BYTE		        Fn2 
	BYTE	W16
	BYTE	PEND
	BYTE	W08
	BYTE		N48     Gn2 
	BYTE	W48
	BYTE		        Cn3   v032
	BYTE	W40
	BYTE	W08
	BYTE		N72     An2   v036
	BYTE	W36
	BYTE	W03
	BYTE		VOL     68*seq_000_mvl/mxv
	BYTE	W06
	BYTE		        67*seq_000_mvl/mxv
	BYTE	W03
	BYTE		        66*seq_000_mvl/mxv
	BYTE	W03
	BYTE		        64*seq_000_mvl/mxv
	BYTE	W03
	BYTE		        61*seq_000_mvl/mxv
	BYTE	W03
	BYTE		        58*seq_000_mvl/mxv
	BYTE	W03
	BYTE		        54*seq_000_mvl/mxv
	BYTE	W03
	BYTE		        51*seq_000_mvl/mxv
	BYTE	W03
	BYTE		        45*seq_000_mvl/mxv
	BYTE	W03
	BYTE		        40*seq_000_mvl/mxv
	BYTE	W03
	BYTE		        69*seq_000_mvl/mxv
	BYTE		N24     Fn2   v028
	BYTE	W16
	BYTE	W08
	BYTE		N48     Gn2   v036
	BYTE	W48
	BYTE		        Dn3   v032
	BYTE	W40
	BYTE	W08
	BYTE		N92     An2 
	BYTE	W30
	BYTE		VOL     68*seq_000_mvl/mxv
	BYTE	W03
	BYTE		        68*seq_000_mvl/mxv
	BYTE	W03
	BYTE		        67*seq_000_mvl/mxv
	BYTE	W06
	BYTE		        66*seq_000_mvl/mxv
	BYTE	W03
	BYTE		        65*seq_000_mvl/mxv
	BYTE	W03
	BYTE		        64*seq_000_mvl/mxv
	BYTE	W03
	BYTE		        62*seq_000_mvl/mxv
	BYTE	W03
	BYTE		        61*seq_000_mvl/mxv
	BYTE	W03
	BYTE		        58*seq_000_mvl/mxv
	BYTE	W03
	BYTE		        56*seq_000_mvl/mxv
	BYTE	W03
	BYTE		        54*seq_000_mvl/mxv
	BYTE	W03
	BYTE		        51*seq_000_mvl/mxv
	BYTE	W03
	BYTE		        47*seq_000_mvl/mxv
	BYTE	W03
	BYTE		        44*seq_000_mvl/mxv
	BYTE	W03
	BYTE		        41*seq_000_mvl/mxv
	BYTE	W03
	BYTE		        37*seq_000_mvl/mxv
	BYTE	W03
	BYTE		        34*seq_000_mvl/mxv
	BYTE	W03
	BYTE		        30*seq_000_mvl/mxv
	BYTE	W03
	BYTE		        25*seq_000_mvl/mxv
	BYTE	W01
	BYTE	W02
	BYTE		        20*seq_000_mvl/mxv
	BYTE	W03
	BYTE		        15*seq_000_mvl/mxv
	BYTE	W03
	BYTE		        69*seq_000_mvl/mxv
	BYTE		N48     Gn2   v036
	BYTE	W03
	BYTE		VOL     70*seq_000_mvl/mxv
	BYTE	W03
	BYTE		        71*seq_000_mvl/mxv
	BYTE	W06
	BYTE		        71*seq_000_mvl/mxv
	BYTE	W03
	BYTE		        73*seq_000_mvl/mxv
	BYTE	W03
	BYTE		        74*seq_000_mvl/mxv
	BYTE	W03
	BYTE		        76*seq_000_mvl/mxv
	BYTE	W06
	BYTE		        75*seq_000_mvl/mxv
	BYTE	W03
	BYTE		        73*seq_000_mvl/mxv
	BYTE	W03
	BYTE		        69*seq_000_mvl/mxv
	BYTE	W03
	BYTE		        65*seq_000_mvl/mxv
	BYTE	W03
	BYTE		        59*seq_000_mvl/mxv
	BYTE	W03
	BYTE		        52*seq_000_mvl/mxv
	BYTE	W03
	BYTE		        43*seq_000_mvl/mxv
	BYTE	W03
	BYTE		        69*seq_000_mvl/mxv
	BYTE		N24     Bn1 
	BYTE	W24
	BYTE		        Cn2   v040
	BYTE	W16
	BYTE	PATT
	 POIN2	seq_000_8 + 0x38
	BYTE	PATT
	 POIN2	seq_000_8 + 0x66
	BYTE	PATT
	 POIN2	seq_000_8 + 0x85
	BYTE	W08
	BYTE		N48     Gn2   v040
	BYTE	W48
	BYTE		        As2 
	BYTE	W40
	BYTE	W08
	BYTE		N72     An2 
	BYTE	W36
	BYTE	W03
	BYTE		VOL     68*seq_000_mvl/mxv
	BYTE	W06
	BYTE		        67*seq_000_mvl/mxv
	BYTE	W03
	BYTE		        66*seq_000_mvl/mxv
	BYTE	W03
	BYTE		        64*seq_000_mvl/mxv
	BYTE	W03
	BYTE		        61*seq_000_mvl/mxv
	BYTE	W03
	BYTE		        58*seq_000_mvl/mxv
	BYTE	W03
	BYTE		        54*seq_000_mvl/mxv
	BYTE	W03
	BYTE		        51*seq_000_mvl/mxv
	BYTE	W03
	BYTE		        45*seq_000_mvl/mxv
	BYTE	W03
	BYTE		        40*seq_000_mvl/mxv
	BYTE	W03
	BYTE		        69*seq_000_mvl/mxv
	BYTE		N24     Fn2   v036
	BYTE	W16
	BYTE	W08
	BYTE		TIE     Gn2 
	BYTE	W06
	BYTE		VOL     69*seq_000_mvl/mxv
	BYTE	W03
	BYTE		        69*seq_000_mvl/mxv
	BYTE	W09
	BYTE		        70*seq_000_mvl/mxv
	BYTE	W03
	BYTE		        71*seq_000_mvl/mxv
	BYTE	W06
	BYTE		        72*seq_000_mvl/mxv
	BYTE	W03
	BYTE		        73*seq_000_mvl/mxv
	BYTE	W03
	BYTE		        74*seq_000_mvl/mxv
	BYTE	W03
	BYTE		        74*seq_000_mvl/mxv
	BYTE	W03
	BYTE		        76*seq_000_mvl/mxv
	BYTE	W03
	BYTE		        77*seq_000_mvl/mxv
	BYTE	W03
	BYTE		        78*seq_000_mvl/mxv
	BYTE	W06
	BYTE		        78*seq_000_mvl/mxv
	BYTE	W09
	BYTE		        77*seq_000_mvl/mxv
	BYTE	W09
	BYTE		        76*seq_000_mvl/mxv
	BYTE	W06
	BYTE		        75*seq_000_mvl/mxv
	BYTE	W03
	BYTE		        74*seq_000_mvl/mxv
	BYTE	W03
	BYTE		        73*seq_000_mvl/mxv
	BYTE	W03
	BYTE		        73*seq_000_mvl/mxv
	BYTE	W03
	BYTE		        71*seq_000_mvl/mxv
	BYTE	W01
	BYTE	W02
	BYTE		        70*seq_000_mvl/mxv
	BYTE	W03
	BYTE		        69*seq_000_mvl/mxv
	BYTE	W03
	BYTE		        68*seq_000_mvl/mxv
	BYTE	W03
	BYTE		        66*seq_000_mvl/mxv
	BYTE	W03
	BYTE		        65*seq_000_mvl/mxv
	BYTE	W03
	BYTE		        63*seq_000_mvl/mxv
	BYTE	W03
	BYTE		        62*seq_000_mvl/mxv
	BYTE	W03
	BYTE		        60*seq_000_mvl/mxv
	BYTE	W03
	BYTE		        58*seq_000_mvl/mxv
	BYTE	W03
	BYTE		        56*seq_000_mvl/mxv
	BYTE	W03
	BYTE		        54*seq_000_mvl/mxv
	BYTE	W03
	BYTE		        52*seq_000_mvl/mxv
	BYTE	W03
	BYTE		        50*seq_000_mvl/mxv
	BYTE	W03
	BYTE		        47*seq_000_mvl/mxv
	BYTE	W03
	BYTE		        45*seq_000_mvl/mxv
	BYTE	W03
	BYTE		        43*seq_000_mvl/mxv
	BYTE	W03
	BYTE		        40*seq_000_mvl/mxv
	BYTE	W03
	BYTE		        37*seq_000_mvl/mxv
	BYTE	W03
	BYTE		        34*seq_000_mvl/mxv
	BYTE	W03
	BYTE		        32*seq_000_mvl/mxv
	BYTE	W03
	BYTE		        29*seq_000_mvl/mxv
	BYTE	W03
	BYTE		        26*seq_000_mvl/mxv
	BYTE	W03
	BYTE		        21*seq_000_mvl/mxv
	BYTE	W06
	BYTE		EOT
	BYTE	W18
	BYTE		VOL     69*seq_000_mvl/mxv
	BYTE	W04
	BYTE	W08
	BYTE		N48     Dn3   v036
	BYTE	W48
	BYTE		        Gn2   v040
	BYTE	W40
	BYTE	PEND
	BYTE	W08
	BYTE		N48     Fn3   v036
	BYTE	W48
	BYTE		N24     Ds3   v032
	BYTE	W24
	BYTE		        Dn3   v028
	BYTE	W16
	BYTE	PEND
	BYTE	W08
	BYTE		        Cn3   v032
	BYTE	W24
	BYTE		        Dn3 
	BYTE	W24
	BYTE		TIE     An2   v028
	BYTE	W40
	BYTE	W20
	BYTE		VOL     68*seq_000_mvl/mxv
	BYTE	W12
	BYTE		        67*seq_000_mvl/mxv
	BYTE	W06
	BYTE		        66*seq_000_mvl/mxv
	BYTE	W06
	BYTE		        64*seq_000_mvl/mxv
	BYTE	W06
	BYTE		        62*seq_000_mvl/mxv
	BYTE	W06
	BYTE		        59*seq_000_mvl/mxv
	BYTE	W06
	BYTE		        57*seq_000_mvl/mxv
	BYTE	W06
	BYTE		        53*seq_000_mvl/mxv
	BYTE	W06
	BYTE		        50*seq_000_mvl/mxv
	BYTE	W06
	BYTE		        45*seq_000_mvl/mxv
	BYTE	W06
	BYTE		        40*seq_000_mvl/mxv
	BYTE	W06
	BYTE		        35*seq_000_mvl/mxv
	BYTE	W04
	BYTE	PEND
	BYTE	W02
	BYTE		        30*seq_000_mvl/mxv
	BYTE	W04
	BYTE		EOT     An2 
	BYTE	W02
	BYTE		VOL     69*seq_000_mvl/mxv
	BYTE		N24     Cn3   v036
	BYTE	W24
	BYTE		        Dn3 
	BYTE	W24
	BYTE		N72     An2   v032
	BYTE	W36
	BYTE		VOL     68*seq_000_mvl/mxv
	BYTE	W04
	BYTE	W02
	BYTE		        67*seq_000_mvl/mxv
	BYTE	W06
	BYTE		        64*seq_000_mvl/mxv
	BYTE	W06
	BYTE		        59*seq_000_mvl/mxv
	BYTE	W06
	BYTE		        53*seq_000_mvl/mxv
	BYTE	W06
	BYTE		        45*seq_000_mvl/mxv
	BYTE	W06
	BYTE		        69*seq_000_mvl/mxv
	BYTE		N24     Gn2   v040
	BYTE	W24
	BYTE		        An2   v036
	BYTE	W24
	BYTE		        Cn3 
	BYTE	W16
	BYTE	W08
	BYTE		        As2 
	BYTE	W24
	BYTE		TIE     Gn2   v032
	BYTE	W06
	BYTE		VOL     68*seq_000_mvl/mxv
	BYTE	W12
	BYTE		        66*seq_000_mvl/mxv
	BYTE	W06
	BYTE		        64*seq_000_mvl/mxv
	BYTE	W06
	BYTE		        62*seq_000_mvl/mxv
	BYTE	W06
	BYTE		        59*seq_000_mvl/mxv
	BYTE	W06
	BYTE		        59*seq_000_mvl/mxv
	BYTE	W12
	BYTE		        61*seq_000_mvl/mxv
	BYTE	W06
	BYTE		        61*seq_000_mvl/mxv
	BYTE	W04
	BYTE	W02
	BYTE		        62*seq_000_mvl/mxv
	BYTE	W06
	BYTE		        65*seq_000_mvl/mxv
	BYTE	W06
	BYTE		        67*seq_000_mvl/mxv
	BYTE	W06
	BYTE		        70*seq_000_mvl/mxv
	BYTE	W06
	BYTE		        73*seq_000_mvl/mxv
	BYTE	W06
	BYTE		        75*seq_000_mvl/mxv
	BYTE	W06
	BYTE		        76*seq_000_mvl/mxv
	BYTE	W06
	BYTE		        74*seq_000_mvl/mxv
	BYTE	W06
	BYTE		        70*seq_000_mvl/mxv
	BYTE	W06
	BYTE		EOT
	BYTE		VOL     69*seq_000_mvl/mxv
	BYTE		N24     An2   v040
	BYTE	W24
	BYTE		        As2   v036
	BYTE	W16
	BYTE	PATT
	 POIN2	seq_000_8 + 0x1B1
	BYTE	PATT
	 POIN2	seq_000_8 + 0x1BA
	BYTE	W08
	BYTE		N24     Cn3   v036
	BYTE	W24
	BYTE		        Dn3   v032
	BYTE	W24
	BYTE		TIE     An2   v028
	BYTE	W40
	BYTE	PATT
	 POIN2	seq_000_8 + 0x1D1
	BYTE	W02
	BYTE		VOL     30*seq_000_mvl/mxv
	BYTE	W04
	BYTE		EOT     An2 
	BYTE	W02
	BYTE		VOL     69*seq_000_mvl/mxv
	BYTE		N48     Cn3   v036
	BYTE	W48
	BYTE		        Fn2 
	BYTE	W03
	BYTE		VOL     69*seq_000_mvl/mxv
	BYTE	W03
	BYTE		        70*seq_000_mvl/mxv
	BYTE	W06
	BYTE		        71*seq_000_mvl/mxv
	BYTE	W03
	BYTE		        71*seq_000_mvl/mxv
	BYTE	W03
	BYTE		        72*seq_000_mvl/mxv
	BYTE	W03
	BYTE		        73*seq_000_mvl/mxv
	BYTE	W03
	BYTE		        74*seq_000_mvl/mxv
	BYTE	W03
	BYTE		        76*seq_000_mvl/mxv
	BYTE	W03
	BYTE		        77*seq_000_mvl/mxv
	BYTE	W06
	BYTE		        76*seq_000_mvl/mxv
	BYTE	W03
	BYTE		        75*seq_000_mvl/mxv
	BYTE	W01
	BYTE	W02
	BYTE		        73*seq_000_mvl/mxv
	BYTE	W03
	BYTE		        71*seq_000_mvl/mxv
	BYTE	W03
	BYTE		        69*seq_000_mvl/mxv
	BYTE		N24     Gn3 
	BYTE	W24
	BYTE		        Fn3   v032
	BYTE	W24
	BYTE		        Ds3 
	BYTE	W24
	BYTE		        Fn3 
	BYTE	W16
	BYTE	W08
	BYTE		TIE     Dn3 
	BYTE	W60
	BYTE		VOL     68*seq_000_mvl/mxv
	BYTE	W06
	BYTE		        67*seq_000_mvl/mxv
	BYTE	W06
	BYTE		        66*seq_000_mvl/mxv
	BYTE	W06
	BYTE		        64*seq_000_mvl/mxv
	BYTE	W06
	BYTE		        62*seq_000_mvl/mxv
	BYTE	W04
	BYTE	W02
	BYTE		        60*seq_000_mvl/mxv
	BYTE	W06
	BYTE		        57*seq_000_mvl/mxv
	BYTE	W06
	BYTE		        54*seq_000_mvl/mxv
	BYTE	W06
	BYTE		        51*seq_000_mvl/mxv
	BYTE	W06
	BYTE		        46*seq_000_mvl/mxv
	BYTE	W06
	BYTE		        42*seq_000_mvl/mxv
	BYTE	W06
	BYTE		        37*seq_000_mvl/mxv
	BYTE	W06
	BYTE		        32*seq_000_mvl/mxv
	BYTE	W06
	BYTE		        27*seq_000_mvl/mxv
	BYTE	W06
	BYTE		        21*seq_000_mvl/mxv
	BYTE	W06
	BYTE		        15*seq_000_mvl/mxv
	BYTE	W06
	BYTE		        9*seq_000_mvl/mxv
	BYTE	W06
	BYTE		EOT
	BYTE	W18
	BYTE		VOL     69*seq_000_mvl/mxv
	BYTE	W04
	BYTE	W08
	BYTE		N72
	BYTE	W42
	BYTE		VOL     67*seq_000_mvl/mxv
	BYTE	W06
	BYTE		        66*seq_000_mvl/mxv
	BYTE	W06
	BYTE		        62*seq_000_mvl/mxv
	BYTE	W06
	BYTE		        57*seq_000_mvl/mxv
	BYTE	W06
	BYTE		        50*seq_000_mvl/mxv
	BYTE	W06
	BYTE		        69*seq_000_mvl/mxv
	BYTE		N24     Cn3 
	BYTE	W16
	BYTE	W08
	BYTE		N48     As2 
	BYTE	W48
	BYTE		        Gn2 
	BYTE	W40
	BYTE	W08
	BYTE		N24     Fs2   v040
	BYTE	W24
	BYTE		        Dn3   v032
	BYTE	W24
	BYTE		N96     Cn3 
	BYTE	W40
	BYTE	W02
	BYTE		VOL     68*seq_000_mvl/mxv
	BYTE	W06
	BYTE		        68*seq_000_mvl/mxv
	BYTE	W06
	BYTE		        66*seq_000_mvl/mxv
	BYTE	W06
	BYTE		        64*seq_000_mvl/mxv
	BYTE	W06
	BYTE		        60*seq_000_mvl/mxv
	BYTE	W06
	BYTE		        55*seq_000_mvl/mxv
	BYTE	W06
	BYTE		        50*seq_000_mvl/mxv
	BYTE	W06
	BYTE		        43*seq_000_mvl/mxv
	BYTE	W06
	BYTE		        35*seq_000_mvl/mxv
	BYTE	W06
	BYTE		        69*seq_000_mvl/mxv
	BYTE		N24     As2   v036
	BYTE	W24
	BYTE		        Fs2   v032
	BYTE	W16
	BYTE	W08
	BYTE		TIE     As2 
	BYTE	W12
	BYTE		VOL     69*seq_000_mvl/mxv
	BYTE	W24
	BYTE		        70*seq_000_mvl/mxv
	BYTE	W06
	BYTE		        71*seq_000_mvl/mxv
	BYTE	W12
	BYTE		        71*seq_000_mvl/mxv
	BYTE	W06
	BYTE		        72*seq_000_mvl/mxv
	BYTE	W06
	BYTE		        73*seq_000_mvl/mxv
	BYTE	W06
	BYTE		        74*seq_000_mvl/mxv
	BYTE	W06
	BYTE		        74*seq_000_mvl/mxv
	BYTE	W06
	BYTE		        76*seq_000_mvl/mxv
	BYTE	W04
	BYTE	W02
	BYTE		        75*seq_000_mvl/mxv
	BYTE	W12
	BYTE		        74*seq_000_mvl/mxv
	BYTE	W06
	BYTE		        72*seq_000_mvl/mxv
	BYTE	W06
	BYTE		        69*seq_000_mvl/mxv
	BYTE	W06
	BYTE		        66*seq_000_mvl/mxv
	BYTE	W06
	BYTE		        61*seq_000_mvl/mxv
	BYTE	W06
	BYTE		        56*seq_000_mvl/mxv
	BYTE	W06
	BYTE		        51*seq_000_mvl/mxv
	BYTE	W06
	BYTE		        44*seq_000_mvl/mxv
	BYTE	W06
	BYTE		        37*seq_000_mvl/mxv
	BYTE	W06
	BYTE		        28*seq_000_mvl/mxv
	BYTE	W06
	BYTE		        19*seq_000_mvl/mxv
	BYTE	W06
	BYTE		        9*seq_000_mvl/mxv
	BYTE	W12
	BYTE		EOT
	BYTE	W04
	BYTE	W96
	BYTE	W84
	BYTE	W02
	BYTE		VOL     69*seq_000_mvl/mxv
	BYTE	W10
	BYTE	W08
	BYTE		N48     Gn2   v036
	BYTE	W48
	BYTE		N24     Bn1 
	BYTE	W24
	BYTE		        Cn2   v040
	BYTE	W16
	BYTE	GoTo
	 POIN2	seq_000_8 + 0x38
	BYTE	W08
	BYTE	FINE

//*********************** Track 10 ***********************//

seq_000_9:
	BYTE	KEYSH   seq_000_key+0
	BYTE	W06
	BYTE	W96
	BYTE	W96
	BYTE	W96
	BYTE	W90
	BYTE	W01
	BYTE		VOICE   3
	BYTE	W01
	BYTE		VOL     69*seq_000_mvl/mxv
	BYTE	W01
	BYTE		PAN     c_v+46
	BYTE	W02
	BYTE	W01
	BYTE		N11     Cn1   v052
	BYTE	W12
	BYTE		N08     Cn1   v044
	BYTE	W60
	BYTE		N12     Cn2 
	BYTE	W12
	BYTE		        Gn1 
	BYTE	W12
	BYTE	PEND
	BYTE		N11     Cn1   v052
	BYTE	W12
	BYTE		N08     Cn1   v044
	BYTE	W84
	BYTE	PEND
	BYTE	PATT
	 POIN2	seq_000_9 + 0x12
	BYTE	PATT
	 POIN2	seq_000_9 + 0x20
	BYTE		N11     Ds1   v048
	BYTE	W12
	BYTE		N09     Ds1   v040
	BYTE	W60
	BYTE		N12     Ds2 
	BYTE	W12
	BYTE		        As1   v044
	BYTE	W12
	BYTE	PEND
	BYTE		N11     Fn1   v052
	BYTE	W12
	BYTE		N08     Fn1   v044
	BYTE	W84
	BYTE	PEND
	BYTE	PATT
	 POIN2	seq_000_9 + 0x33
	BYTE	PATT
	 POIN2	seq_000_9 + 0x42
	BYTE	PATT
	 POIN2	seq_000_9 + 0x12
	BYTE	PATT
	 POIN2	seq_000_9 + 0x20
	BYTE	PATT
	 POIN2	seq_000_9 + 0x12
	BYTE	PATT
	 POIN2	seq_000_9 + 0x20
	BYTE		N24     Ds2   v040
	BYTE	W24
	BYTE		        Dn2 
	BYTE	W24
	BYTE		        Cn2   v044
	BYTE	W24
	BYTE		        As1 
	BYTE	W24
	BYTE		        An1   v048
	BYTE	W24
	BYTE		        Gn1   v044
	BYTE	W24
	BYTE		        Fn1   v048
	BYTE	W24
	BYTE		        Cn2   v044
	BYTE	W24
	BYTE		N11     Gn1   v052
	BYTE	W12
	BYTE		N08     Gn1   v044
	BYTE	W24
	BYTE	W01
	BYTE		N11     Dn1   v052
	BYTE	W11
	BYTE		        Gn1   v044
	BYTE	W12
	BYTE		N08     Gn1   v040
	BYTE	W24
	BYTE	W01
	BYTE		N11     Dn1   v044
	BYTE	W11
	BYTE		        Gn1   v052
	BYTE	W12
	BYTE		N08     Gn1   v044
	BYTE	W24
	BYTE	W01
	BYTE		N11     Dn1   v048
	BYTE	W11
	BYTE		        Gn1   v044
	BYTE	W12
	BYTE		N08     Gn1   v040
	BYTE	W24
	BYTE	W01
	BYTE		N11     Dn1   v048
	BYTE	W11
	BYTE		N11     Ds1   v052
	BYTE	W12
	BYTE		N08     Ds1   v048
	BYTE	W60
	BYTE		N12     Ds2   v040
	BYTE	W12
	BYTE		        As1 
	BYTE	W12
	BYTE	PEND
	BYTE		N11     Ds1   v052
	BYTE	W12
	BYTE		N08     Ds1   v048
	BYTE	W84
	BYTE	PEND
	BYTE		N11     Ds1   v052
	BYTE	W12
	BYTE		N08     Ds1   v048
	BYTE	W60
	BYTE		N12     Fn2   v040
	BYTE	W12
	BYTE		        Cn2 
	BYTE	W12
	BYTE	PEND
	BYTE	PATT
	 POIN2	seq_000_9 + 0xC0
	BYTE		N11     Dn1   v052
	BYTE	W12
	BYTE		N08     Dn1   v048
	BYTE	W60
	BYTE		N12     Dn2   v040
	BYTE	W12
	BYTE		        An1 
	BYTE	W12
	BYTE	PEND
	BYTE		N11     Dn1   v052
	BYTE	W12
	BYTE		N08     Dn1   v048
	BYTE	W84
	BYTE	PEND
	BYTE		N11     Gn1   v052
	BYTE	W12
	BYTE		N08     Gn1   v048
	BYTE	W60
	BYTE		N12     Gn2   v040
	BYTE	W12
	BYTE		        Dn2 
	BYTE	W12
	BYTE	PEND
	BYTE		N11     Gn1   v052
	BYTE	W12
	BYTE		N08     Gn1   v048
	BYTE	W36
	BYTE		N11     Fn1   v052
	BYTE	W12
	BYTE		N08     Fn1   v048
	BYTE	W36
	BYTE	PEND
	BYTE	PATT
	 POIN2	seq_000_9 + 0xB1
	BYTE	PATT
	 POIN2	seq_000_9 + 0xC0
	BYTE	PATT
	 POIN2	seq_000_9 + 0xC9
	BYTE	PATT
	 POIN2	seq_000_9 + 0xC0
	BYTE	PATT
	 POIN2	seq_000_9 + 0xDD
	BYTE	PATT
	 POIN2	seq_000_9 + 0xEC
	BYTE	PATT
	 POIN2	seq_000_9 + 0xF5
	BYTE	PATT
	 POIN2	seq_000_9 + 0x104
	BYTE		N11     Cn1   v052
	BYTE	W12
	BYTE		N08     Cn1   v048
	BYTE	W24
	BYTE	W01
	BYTE		N11     Cn2   v040
	BYTE	W11
	BYTE		        Cn1   v052
	BYTE	W12
	BYTE		N08     Cn1   v048
	BYTE	W24
	BYTE	W01
	BYTE		N11     Cn2   v040
	BYTE	W11
	BYTE		        Cn1   v052
	BYTE	W12
	BYTE		N08     Cn1   v048
	BYTE	W24
	BYTE	W01
	BYTE		N11     Gn1   v040
	BYTE	W24
	BYTE		        Cn1   v052
	BYTE	W24
	BYTE		        Gn1   v040
	BYTE	W11
	BYTE		        Cn1   v052
	BYTE	W12
	BYTE		N08     Cn1   v040
	BYTE	W24
	BYTE	W01
	BYTE		N11     Cn2   v036
	BYTE	W11
	BYTE		        Cn1   v052
	BYTE	W12
	BYTE		N08     Cn1   v040
	BYTE	W24
	BYTE	W01
	BYTE		N11     Cn2   v036
	BYTE	W11
	BYTE		        Cn1   v052
	BYTE	W12
	BYTE		N08     Cn1   v040
	BYTE	W24
	BYTE	W01
	BYTE		N11     Fs1 
	BYTE	W24
	BYTE		        Cn1   v048
	BYTE	W24
	BYTE		        Cn1   v044
	BYTE	W11
	BYTE		        As1   v052
	BYTE	W12
	BYTE		N08     As1   v040
	BYTE	W24
	BYTE		N12     Fn1   v048
	BYTE	W12
	BYTE		N11     As1 
	BYTE	W12
	BYTE		N08     As1   v040
	BYTE	W36
	BYTE		N11     Gs1   v052
	BYTE	W12
	BYTE		N08     Gs1   v040
	BYTE	W24
	BYTE		N12     Fn1   v048
	BYTE	W12
	BYTE		N11     Gs1 
	BYTE	W12
	BYTE		N08     Gs1   v040
	BYTE	W36
	BYTE		N05     Fs1   v052
	BYTE	W12
	BYTE		N12     Cs1   v048
	BYTE	W12
	BYTE		N05     Fs1 
	BYTE	W12
	BYTE		N12     Cs1   v044
	BYTE	W12
	BYTE		N05     Fs1   v048
	BYTE	W12
	BYTE		N12     Cs1 
	BYTE	W12
	BYTE		N05     Fs1   v040
	BYTE	W12
	BYTE		N12     Cs1 
	BYTE	W12
	BYTE		N11     Fn1   v048
	BYTE	W12
	BYTE		N08     Fn1   v040
	BYTE	W36
	BYTE		N11     Fn1   v044
	BYTE	W12
	BYTE		N08     Fn1   v036
	BYTE	W36
	BYTE	PATT
	 POIN2	seq_000_9 + 0x12
	BYTE	GoTo
	 POIN2	seq_000_9 + 0x20
	BYTE	W08
	BYTE	FINE

//*********************** Track 11 ***********************//

seq_000_10:
	BYTE	KEYSH   seq_000_key+0
	BYTE		VOICE   41
	BYTE	W01
	BYTE		VOL     69*seq_000_mvl/mxv
	BYTE	W01
	BYTE		PAN     c_v+0
	BYTE	W04
	BYTE	W84
	BYTE		N02     Cn2   v127
	BYTE	W03
	BYTE		        Cn2   v052
	BYTE	W03
	BYTE		        Fn2   v116
	BYTE	W03
	BYTE		        Fn2   v052
	BYTE	W03
	BYTE		VOL     66*seq_000_mvl/mxv
	BYTE		TIE     Gn2   v124
	BYTE	W24
	BYTE		VOL     67*seq_000_mvl/mxv
	BYTE	W06
	BYTE		        68*seq_000_mvl/mxv
	BYTE	W12
	BYTE		        68*seq_000_mvl/mxv
	BYTE	W06
	BYTE		        69*seq_000_mvl/mxv
	BYTE	W12
	BYTE		        70*seq_000_mvl/mxv
	BYTE	W06
	BYTE		        71*seq_000_mvl/mxv
	BYTE	W06
	BYTE		        71*seq_000_mvl/mxv
	BYTE	W06
	BYTE		        72*seq_000_mvl/mxv
	BYTE	W06
	BYTE		        73*seq_000_mvl/mxv
	BYTE	W06
	BYTE		        74*seq_000_mvl/mxv
	BYTE	W06
	BYTE		        75*seq_000_mvl/mxv
	BYTE	W06
	BYTE		        76*seq_000_mvl/mxv
	BYTE	W09
	BYTE		        78*seq_000_mvl/mxv
	BYTE	W15
	BYTE		        77*seq_000_mvl/mxv
	BYTE	W06
	BYTE		        76*seq_000_mvl/mxv
	BYTE	W06
	BYTE		        73*seq_000_mvl/mxv
	BYTE	W06
	BYTE		        70*seq_000_mvl/mxv
	BYTE	W06
	BYTE		        67*seq_000_mvl/mxv
	BYTE	W06
	BYTE		        62*seq_000_mvl/mxv
	BYTE	W06
	BYTE		        57*seq_000_mvl/mxv
	BYTE	W05
	BYTE		EOT
	BYTE	W01
	BYTE		N04     Gn2   v052
	BYTE	W06
	BYTE		VOL     69*seq_000_mvl/mxv
	BYTE	W06
	BYTE		N02     Fn2   v120
	BYTE	W03
	BYTE		        Fn2   v052
	BYTE	W03
	BYTE		        As2   v112
	BYTE	W03
	BYTE		        As2   v052
	BYTE	W03
	BYTE		N92     Cn3   v116
	BYTE	W12
	BYTE		VOL     70*seq_000_mvl/mxv
	BYTE	W12
	BYTE		        71*seq_000_mvl/mxv
	BYTE	W06
	BYTE		        71*seq_000_mvl/mxv
	BYTE	W06
	BYTE		        72*seq_000_mvl/mxv
	BYTE	W06
	BYTE		        73*seq_000_mvl/mxv
	BYTE	W06
	BYTE		        75*seq_000_mvl/mxv
	BYTE	W06
	BYTE		        77*seq_000_mvl/mxv
	BYTE	W12
	BYTE		        76*seq_000_mvl/mxv
	BYTE	W06
	BYTE		        75*seq_000_mvl/mxv
	BYTE	W03
	BYTE		        73*seq_000_mvl/mxv
	BYTE	W03
	BYTE		        71*seq_000_mvl/mxv
	BYTE	W03
	BYTE		        69*seq_000_mvl/mxv
	BYTE	W03
	BYTE		        65*seq_000_mvl/mxv
	BYTE	W03
	BYTE		        62*seq_000_mvl/mxv
	BYTE	W03
	BYTE		        57*seq_000_mvl/mxv
	BYTE	W03
	BYTE		        52*seq_000_mvl/mxv
	BYTE	W03
	BYTE		N04     Cn3   v052
	BYTE	W01
	BYTE	W05
	BYTE		        Cn3   v032
	BYTE	W06
	BYTE		        Cn3   v028
	BYTE	W84
	BYTE	W96
	BYTE	W96
	BYTE	W96
	BYTE	W96
	BYTE	W96
	BYTE	W96
	BYTE	W96
	BYTE	W96
	BYTE	W96
	BYTE	W96
	BYTE	W96
	BYTE	W96
	BYTE	W96
	BYTE	W96
	BYTE	W96
	BYTE	W96
	BYTE	W96
	BYTE	W96
	BYTE	W96
	BYTE	W96
	BYTE	W96
	BYTE	W96
	BYTE	W96
	BYTE	W96
	BYTE	W96
	BYTE	W96
	BYTE	W96
	BYTE	W96
	BYTE	W96
	BYTE	W96
	BYTE	W96
	BYTE	W96
	BYTE	W96
	BYTE	W96
	BYTE	W96
	BYTE	W96
	BYTE	W96
	BYTE	W96
	BYTE	W96
	BYTE	W96
	BYTE	GoTo
	 POIN2	seq_000_10 + 0x8E
	BYTE	W08
	BYTE	FINE

//*********************** Track 12 ***********************//

seq_000_11:
	BYTE	KEYSH   seq_000_key+0
	BYTE	W06
	BYTE		VOICE   41
	BYTE	W01
	BYTE		VOL     69*seq_000_mvl/mxv
	BYTE	W01
	BYTE		PAN     c_v-64
	BYTE	W88
	BYTE		N03     Cn2   v032
	BYTE	W06
	BYTE		N02     Fn2 
	BYTE	W06
	BYTE		TIE     Gn2 
	BYTE	W06
	BYTE		VOL     62*seq_000_mvl/mxv
	BYTE	W06
	BYTE		        57*seq_000_mvl/mxv
	BYTE	W18
	BYTE		        58*seq_000_mvl/mxv
	BYTE	W12
	BYTE		        59*seq_000_mvl/mxv
	BYTE	W06
	BYTE		        60*seq_000_mvl/mxv
	BYTE	W06
	BYTE		        61*seq_000_mvl/mxv
	BYTE	W06
	BYTE		        62*seq_000_mvl/mxv
	BYTE	W06
	BYTE		        63*seq_000_mvl/mxv
	BYTE	W06
	BYTE		        64*seq_000_mvl/mxv
	BYTE	W06
	BYTE		        66*seq_000_mvl/mxv
	BYTE	W06
	BYTE		        68*seq_000_mvl/mxv
	BYTE	W06
	BYTE		        70*seq_000_mvl/mxv
	BYTE	W06
	BYTE		        72*seq_000_mvl/mxv
	BYTE	W06
	BYTE		        74*seq_000_mvl/mxv
	BYTE	W06
	BYTE		        76*seq_000_mvl/mxv
	BYTE	W06
	BYTE		        78*seq_000_mvl/mxv
	BYTE	W12
	BYTE		        77*seq_000_mvl/mxv
	BYTE	W06
	BYTE		        76*seq_000_mvl/mxv
	BYTE	W06
	BYTE		        73*seq_000_mvl/mxv
	BYTE	W06
	BYTE		        71*seq_000_mvl/mxv
	BYTE	W06
	BYTE		        69*seq_000_mvl/mxv
	BYTE	W06
	BYTE		        65*seq_000_mvl/mxv
	BYTE	W06
	BYTE		        61*seq_000_mvl/mxv
	BYTE	W06
	BYTE		EOT
	BYTE	W03
	BYTE		VOL     69*seq_000_mvl/mxv
	BYTE	W09
	BYTE		N03     Fn2   v028
	BYTE	W06
	BYTE		N02     As2   v032
	BYTE	W06
	BYTE		N96     Cn3   v040
	BYTE	W12
	BYTE		VOL     70*seq_000_mvl/mxv
	BYTE	W12
	BYTE		        71*seq_000_mvl/mxv
	BYTE	W06
	BYTE		        71*seq_000_mvl/mxv
	BYTE	W06
	BYTE		        72*seq_000_mvl/mxv
	BYTE	W06
	BYTE		        73*seq_000_mvl/mxv
	BYTE	W06
	BYTE		        75*seq_000_mvl/mxv
	BYTE	W06
	BYTE		        77*seq_000_mvl/mxv
	BYTE	W15
	BYTE		        76*seq_000_mvl/mxv
	BYTE	W03
	BYTE		        75*seq_000_mvl/mxv
	BYTE	W03
	BYTE		        74*seq_000_mvl/mxv
	BYTE	W03
	BYTE		        72*seq_000_mvl/mxv
	BYTE	W03
	BYTE		        69*seq_000_mvl/mxv
	BYTE	W03
	BYTE		        66*seq_000_mvl/mxv
	BYTE	W03
	BYTE		        61*seq_000_mvl/mxv
	BYTE	W03
	BYTE		        56*seq_000_mvl/mxv
	BYTE	W04
	BYTE	W92
	BYTE	W96
	BYTE	W96
	BYTE	W96
	BYTE	W96
	BYTE	W96
	BYTE	W96
	BYTE	W96
	BYTE	W96
	BYTE	W96
	BYTE	W96
	BYTE	W96
	BYTE	W96
	BYTE	W96
	BYTE	W96
	BYTE	W96
	BYTE	W96
	BYTE	W96
	BYTE	W96
	BYTE	W96
	BYTE	W96
	BYTE	W96
	BYTE	W96
	BYTE	W96
	BYTE	W96
	BYTE	W96
	BYTE	W96
	BYTE	W96
	BYTE	W96
	BYTE	W96
	BYTE	W96
	BYTE	W96
	BYTE	W96
	BYTE	W96
	BYTE	W96
	BYTE	W96
	BYTE	W96
	BYTE	W96
	BYTE	W96
	BYTE	W96
	BYTE	W96
	BYTE	GoTo
	 POIN2	seq_000_11 + 0x76
	BYTE	W08
	BYTE	FINE

//*********************** Track 13 ***********************//

seq_000_12:
	BYTE	KEYSH   seq_000_key+0
	BYTE	W06
	BYTE		VOICE   54
	BYTE	W01
	BYTE		VOL     69*seq_000_mvl/mxv
	BYTE	W01
	BYTE		PAN     c_v+46
	BYTE	W05
	BYTE		N24     Cn2   v020
	BYTE	W23
	BYTE		        Cn3   v024
	BYTE	W22
	BYTE		N72     En4   v016
	BYTE	W05
	BYTE		VOL     68*seq_000_mvl/mxv
	BYTE	W06
	BYTE		        65*seq_000_mvl/mxv
	BYTE	W03
	BYTE		        63*seq_000_mvl/mxv
	BYTE	W03
	BYTE		        61*seq_000_mvl/mxv
	BYTE	W03
	BYTE		        59*seq_000_mvl/mxv
	BYTE	W03
	BYTE		        56*seq_000_mvl/mxv
	BYTE	W03
	BYTE		        54*seq_000_mvl/mxv
	BYTE	W03
	BYTE		        52*seq_000_mvl/mxv
	BYTE	W03
	BYTE		        50*seq_000_mvl/mxv
	BYTE	W03
	BYTE		        47*seq_000_mvl/mxv
	BYTE	W03
	BYTE		        45*seq_000_mvl/mxv
	BYTE	W03
	BYTE		        44*seq_000_mvl/mxv
	BYTE	W03
	BYTE		        41*seq_000_mvl/mxv
	BYTE	W03
	BYTE		        39*seq_000_mvl/mxv
	BYTE	W03
	BYTE		        34*seq_000_mvl/mxv
	BYTE	W03
	BYTE		        30*seq_000_mvl/mxv
	BYTE	W03
	BYTE		        24*seq_000_mvl/mxv
	BYTE	W03
	BYTE		        21*seq_000_mvl/mxv
	BYTE	W03
	BYTE		        17*seq_000_mvl/mxv
	BYTE	W03
	BYTE		        13*seq_000_mvl/mxv
	BYTE	W03
	BYTE		        10*seq_000_mvl/mxv
	BYTE	W03
	BYTE		        8*seq_000_mvl/mxv
	BYTE	W03
	BYTE		        6*seq_000_mvl/mxv
	BYTE	W15
	BYTE		        69*seq_000_mvl/mxv
	BYTE	W48
	BYTE	W03
	BYTE	W07
	BYTE		N24     Cn2   v020
	BYTE	W23
	BYTE		        Cn3   v024
	BYTE	W24
	BYTE		N48     En4   v016
	BYTE	W03
	BYTE		VOL     68*seq_000_mvl/mxv
	BYTE	W03
	BYTE		        66*seq_000_mvl/mxv
	BYTE	W03
	BYTE		        63*seq_000_mvl/mxv
	BYTE	W03
	BYTE		        60*seq_000_mvl/mxv
	BYTE	W03
	BYTE		        57*seq_000_mvl/mxv
	BYTE	W03
	BYTE		        54*seq_000_mvl/mxv
	BYTE	W03
	BYTE		        51*seq_000_mvl/mxv
	BYTE	W03
	BYTE		        47*seq_000_mvl/mxv
	BYTE	W03
	BYTE		        40*seq_000_mvl/mxv
	BYTE	W03
	BYTE		        34*seq_000_mvl/mxv
	BYTE	W03
	BYTE		        26*seq_000_mvl/mxv
	BYTE	W03
	BYTE		        19*seq_000_mvl/mxv
	BYTE	W03
	BYTE		        12*seq_000_mvl/mxv
	BYTE	W03
	BYTE		        9*seq_000_mvl/mxv
	BYTE	W06
	BYTE		        69*seq_000_mvl/mxv
	BYTE		N04     Cn1   v024
	BYTE	W20
	BYTE		        Gn2   v020
	BYTE	W04
	BYTE		        Gn1   v028
	BYTE	W20
	BYTE		        En3   v020
	BYTE	W04
	BYTE		        Cn2   v028
	BYTE	W20
	BYTE		        Gn3   v020
	BYTE	W04
	BYTE		        Gn2   v028
	BYTE	W18
	BYTE	W02
	BYTE		        En4   v016
	BYTE	W01
	BYTE	W92
	BYTE	W01
	BYTE	W96
	BYTE	W96
	BYTE	W96
	BYTE	W96
	BYTE	W96
	BYTE	W96
	BYTE	W96
	BYTE	W96
	BYTE	W96
	BYTE	W96
	BYTE	W96
	BYTE	W96
	BYTE	W96
	BYTE	W96
	BYTE	W96
	BYTE	W96
	BYTE	W96
	BYTE	W96
	BYTE	W96
	BYTE	W96
	BYTE	W96
	BYTE	W96
	BYTE	W96
	BYTE	W96
	BYTE	W96
	BYTE	W96
	BYTE	W96
	BYTE	W96
	BYTE	W96
	BYTE	W96
	BYTE	W96
	BYTE	W96
	BYTE	W96
	BYTE	W96
	BYTE	W96
	BYTE	W96
	BYTE	W96
	BYTE	W96
	BYTE	W96
	BYTE	W96
	BYTE	GoTo
	 POIN2	seq_000_12 + 0x8F
	BYTE	W08
	BYTE	FINE

//******************************************************//

	ALIGN 4

seq_000:
	BYTE	13	// NumTrks
	BYTE	0	// NumBlks
	BYTE	seq_000_pri	// Priority
	BYTE	seq_000_rev	// Reverb

	POIN2	seq_000_grp

	POIN2	seq_000_0
	POIN2	seq_000_1
	POIN2	seq_000_2
	POIN2	seq_000_3
	POIN2	seq_000_4
	POIN2	seq_000_5
	POIN2	seq_000_6
	POIN2	seq_000_7
	POIN2	seq_000_8
	POIN2	seq_000_9
	POIN2	seq_000_10
	POIN2	seq_000_11
	POIN2	seq_000_12

	
