//Event file generated from Sappy .s format.
// File generated by m4a2s Song-Module
	#include "MPlayDef.event"

	#define	seq_002_grp  bank_012
	#define	seq_002_pri  10
	#define	seq_002_rev  0
	#define	seq_002_mvl  127
	#define	seq_002_key  0

	// .rodata
	//	seq_002
	ALIGN 4

//*********************** Track 01 ***********************//

seq_002_0:
	BYTE	KEYSH   seq_002_key+0
	BYTE	TEMPO   200/2
	BYTE		VOICE   83
	BYTE		VOL     0*seq_002_mvl/mxv
	BYTE		PAN     c_v+0
	BYTE		BENDR   3
	BYTE		VOL     1*seq_002_mvl/mxv
	BYTE		BEND    c_v+0
	BYTE	W01
	BYTE		VOL     2*seq_002_mvl/mxv
	BYTE	W01
	BYTE		        3*seq_002_mvl/mxv
	BYTE	W01
	BYTE	TEMPO   86/2
	BYTE		        4*seq_002_mvl/mxv
	BYTE		TIE     Cn3   v088
	BYTE	W01
	BYTE		VOL     5*seq_002_mvl/mxv
	BYTE	W01
	BYTE		        6*seq_002_mvl/mxv
	BYTE	W01
	BYTE		        6*seq_002_mvl/mxv
	BYTE	W01
	BYTE		        8*seq_002_mvl/mxv
	BYTE	W01
	BYTE		        10*seq_002_mvl/mxv
	BYTE	W01
	BYTE		        10*seq_002_mvl/mxv
	BYTE	W01
	BYTE		        12*seq_002_mvl/mxv
	BYTE	W01
	BYTE		        12*seq_002_mvl/mxv
	BYTE	W01
	BYTE		        13*seq_002_mvl/mxv
	BYTE	W01
	BYTE		        14*seq_002_mvl/mxv
	BYTE	W01
	BYTE		        15*seq_002_mvl/mxv
	BYTE	W01
	BYTE		        16*seq_002_mvl/mxv
	BYTE	W01
	BYTE		        17*seq_002_mvl/mxv
	BYTE	W01
	BYTE		        18*seq_002_mvl/mxv
	BYTE	W01
	BYTE		        19*seq_002_mvl/mxv
	BYTE	W01
	BYTE		        20*seq_002_mvl/mxv
	BYTE	W01
	BYTE		        21*seq_002_mvl/mxv
	BYTE	W01
	BYTE		        22*seq_002_mvl/mxv
	BYTE	W01
	BYTE		        24*seq_002_mvl/mxv
	BYTE	W01
	BYTE		        25*seq_002_mvl/mxv
	BYTE	W01
	BYTE		        26*seq_002_mvl/mxv
	BYTE	W01
	BYTE		        26*seq_002_mvl/mxv
	BYTE	W01
	BYTE		        28*seq_002_mvl/mxv
	BYTE	W01
	BYTE		        28*seq_002_mvl/mxv
	BYTE	W01
	BYTE		        29*seq_002_mvl/mxv
	BYTE	W01
	BYTE		        30*seq_002_mvl/mxv
	BYTE	W01
	BYTE		        31*seq_002_mvl/mxv
	BYTE	W01
	BYTE		        32*seq_002_mvl/mxv
	BYTE	W01
	BYTE		        34*seq_002_mvl/mxv
	BYTE	W01
	BYTE		        35*seq_002_mvl/mxv
	BYTE	W01
	BYTE		        36*seq_002_mvl/mxv
	BYTE	W01
	BYTE		        37*seq_002_mvl/mxv
	BYTE	W01
	BYTE		        38*seq_002_mvl/mxv
	BYTE	W01
	BYTE		        38*seq_002_mvl/mxv
	BYTE	W01
	BYTE		        40*seq_002_mvl/mxv
	BYTE	W01
	BYTE		        41*seq_002_mvl/mxv
	BYTE	W01
	BYTE		        42*seq_002_mvl/mxv
	BYTE	W01
	BYTE		        42*seq_002_mvl/mxv
	BYTE	W01
	BYTE		        44*seq_002_mvl/mxv
	BYTE	W01
	BYTE		        44*seq_002_mvl/mxv
	BYTE	W01
	BYTE		        45*seq_002_mvl/mxv
	BYTE	W01
	BYTE		        46*seq_002_mvl/mxv
	BYTE	W01
	BYTE		        47*seq_002_mvl/mxv
	BYTE	W01
	BYTE		        48*seq_002_mvl/mxv
	BYTE	W01
	BYTE		        49*seq_002_mvl/mxv
	BYTE	W01
	BYTE		        50*seq_002_mvl/mxv
	BYTE	W01
	BYTE		        51*seq_002_mvl/mxv
	BYTE	W01
	BYTE		        52*seq_002_mvl/mxv
	BYTE	W01
	BYTE		        53*seq_002_mvl/mxv
	BYTE	W01
	BYTE		        54*seq_002_mvl/mxv
	BYTE	W01
	BYTE		        54*seq_002_mvl/mxv
	BYTE	W01
	BYTE		        56*seq_002_mvl/mxv
	BYTE	W01
	BYTE		        57*seq_002_mvl/mxv
	BYTE	W01
	BYTE		        58*seq_002_mvl/mxv
	BYTE	W01
	BYTE		        58*seq_002_mvl/mxv
	BYTE	W01
	BYTE		        60*seq_002_mvl/mxv
	BYTE	W01
	BYTE		        60*seq_002_mvl/mxv
	BYTE	W01
	BYTE		        61*seq_002_mvl/mxv
	BYTE	W02
	BYTE		        62*seq_002_mvl/mxv
	BYTE	W01
	BYTE		        63*seq_002_mvl/mxv
	BYTE	W01
	BYTE		        64*seq_002_mvl/mxv
	BYTE	W01
	BYTE		        65*seq_002_mvl/mxv
	BYTE	W01
	BYTE		        66*seq_002_mvl/mxv
	BYTE	W02
	BYTE		        67*seq_002_mvl/mxv
	BYTE	W01
	BYTE		        68*seq_002_mvl/mxv
	BYTE	W02
	BYTE		        69*seq_002_mvl/mxv
	BYTE	W01
	BYTE		        70*seq_002_mvl/mxv
	BYTE	W02
	BYTE		        70*seq_002_mvl/mxv
	BYTE	W02
	BYTE		        72*seq_002_mvl/mxv
	BYTE	W02
	BYTE		        73*seq_002_mvl/mxv
	BYTE	W01
	BYTE		        74*seq_002_mvl/mxv
	BYTE	W02
	BYTE		        74*seq_002_mvl/mxv
	BYTE	W01
	BYTE		        76*seq_002_mvl/mxv
	BYTE	W16
	BYTE	W44
	BYTE	W03
	BYTE		VOL     74*seq_002_mvl/mxv
	BYTE	W01
	BYTE		        73*seq_002_mvl/mxv
	BYTE	W01
	BYTE		        72*seq_002_mvl/mxv
	BYTE	W01
	BYTE		        70*seq_002_mvl/mxv
	BYTE	W02
	BYTE		        70*seq_002_mvl/mxv
	BYTE	W01
	BYTE		        68*seq_002_mvl/mxv
	BYTE	W02
	BYTE		        67*seq_002_mvl/mxv
	BYTE	W01
	BYTE		        66*seq_002_mvl/mxv
	BYTE	W01
	BYTE		        65*seq_002_mvl/mxv
	BYTE	W01
	BYTE		        64*seq_002_mvl/mxv
	BYTE	W01
	BYTE		        63*seq_002_mvl/mxv
	BYTE	W01
	BYTE		        61*seq_002_mvl/mxv
	BYTE	W01
	BYTE		        60*seq_002_mvl/mxv
	BYTE	W01
	BYTE		        60*seq_002_mvl/mxv
	BYTE	W01
	BYTE		        58*seq_002_mvl/mxv
	BYTE	W01
	BYTE		        58*seq_002_mvl/mxv
	BYTE	W01
	BYTE		        56*seq_002_mvl/mxv
	BYTE	W01
	BYTE		        54*seq_002_mvl/mxv
	BYTE	W01
	BYTE		        54*seq_002_mvl/mxv
	BYTE	W01
	BYTE		        53*seq_002_mvl/mxv
	BYTE	W01
	BYTE		        51*seq_002_mvl/mxv
	BYTE	W01
	BYTE		        49*seq_002_mvl/mxv
	BYTE	W01
	BYTE		        48*seq_002_mvl/mxv
	BYTE	W01
	BYTE		        46*seq_002_mvl/mxv
	BYTE	W01
	BYTE		        45*seq_002_mvl/mxv
	BYTE	W01
	BYTE		        44*seq_002_mvl/mxv
	BYTE	W01
	BYTE		        42*seq_002_mvl/mxv
	BYTE	W01
	BYTE		        41*seq_002_mvl/mxv
	BYTE	W01
	BYTE		        38*seq_002_mvl/mxv
	BYTE	W01
	BYTE		        37*seq_002_mvl/mxv
	BYTE	W01
	BYTE		        36*seq_002_mvl/mxv
	BYTE	W01
	BYTE		        34*seq_002_mvl/mxv
	BYTE	W01
	BYTE		        32*seq_002_mvl/mxv
	BYTE	W01
	BYTE		        30*seq_002_mvl/mxv
	BYTE	W01
	BYTE		        28*seq_002_mvl/mxv
	BYTE	W12
	BYTE	PEND
	BYTE		EOT     Cn3 
	BYTE	W01
	BYTE		VOL     4*seq_002_mvl/mxv
	BYTE		TIE     As2   v088
	BYTE	W01
	BYTE		VOL     5*seq_002_mvl/mxv
	BYTE	W01
	BYTE		        6*seq_002_mvl/mxv
	BYTE	W01
	BYTE		        6*seq_002_mvl/mxv
	BYTE	W01
	BYTE		        8*seq_002_mvl/mxv
	BYTE	W01
	BYTE		        9*seq_002_mvl/mxv
	BYTE	W01
	BYTE		        10*seq_002_mvl/mxv
	BYTE	W01
	BYTE		        10*seq_002_mvl/mxv
	BYTE	W02
	BYTE		        12*seq_002_mvl/mxv
	BYTE	W01
	BYTE		        12*seq_002_mvl/mxv
	BYTE	W01
	BYTE		        13*seq_002_mvl/mxv
	BYTE	W01
	BYTE		        14*seq_002_mvl/mxv
	BYTE	W01
	BYTE		        15*seq_002_mvl/mxv
	BYTE	W01
	BYTE		        16*seq_002_mvl/mxv
	BYTE	W01
	BYTE		        17*seq_002_mvl/mxv
	BYTE	W01
	BYTE		        18*seq_002_mvl/mxv
	BYTE	W02
	BYTE		        19*seq_002_mvl/mxv
	BYTE	W01
	BYTE		        20*seq_002_mvl/mxv
	BYTE	W01
	BYTE		        21*seq_002_mvl/mxv
	BYTE	W01
	BYTE		        22*seq_002_mvl/mxv
	BYTE	W01
	BYTE		        22*seq_002_mvl/mxv
	BYTE	W01
	BYTE		        24*seq_002_mvl/mxv
	BYTE	W01
	BYTE		        25*seq_002_mvl/mxv
	BYTE	W01
	BYTE		        26*seq_002_mvl/mxv
	BYTE	W02
	BYTE		        26*seq_002_mvl/mxv
	BYTE	W01
	BYTE		        28*seq_002_mvl/mxv
	BYTE	W01
	BYTE		        28*seq_002_mvl/mxv
	BYTE	W01
	BYTE		        29*seq_002_mvl/mxv
	BYTE	W01
	BYTE		        30*seq_002_mvl/mxv
	BYTE	W01
	BYTE		        31*seq_002_mvl/mxv
	BYTE	W01
	BYTE		        32*seq_002_mvl/mxv
	BYTE	W01
	BYTE		        33*seq_002_mvl/mxv
	BYTE	W01
	BYTE		        34*seq_002_mvl/mxv
	BYTE	W02
	BYTE		        36*seq_002_mvl/mxv
	BYTE	W02
	BYTE		        37*seq_002_mvl/mxv
	BYTE	W01
	BYTE		        38*seq_002_mvl/mxv
	BYTE	W01
	BYTE		        38*seq_002_mvl/mxv
	BYTE	W01
	BYTE		        40*seq_002_mvl/mxv
	BYTE	W01
	BYTE		        41*seq_002_mvl/mxv
	BYTE	W01
	BYTE		        42*seq_002_mvl/mxv
	BYTE	W01
	BYTE		        42*seq_002_mvl/mxv
	BYTE	W01
	BYTE		        44*seq_002_mvl/mxv
	BYTE	W02
	BYTE		        44*seq_002_mvl/mxv
	BYTE	W01
	BYTE		        45*seq_002_mvl/mxv
	BYTE	W01
	BYTE		        46*seq_002_mvl/mxv
	BYTE	W01
	BYTE		        47*seq_002_mvl/mxv
	BYTE	W01
	BYTE		        48*seq_002_mvl/mxv
	BYTE	W01
	BYTE		        49*seq_002_mvl/mxv
	BYTE	W01
	BYTE		        50*seq_002_mvl/mxv
	BYTE	W01
	BYTE		        51*seq_002_mvl/mxv
	BYTE	W02
	BYTE		        52*seq_002_mvl/mxv
	BYTE	W01
	BYTE		        53*seq_002_mvl/mxv
	BYTE	W01
	BYTE		        54*seq_002_mvl/mxv
	BYTE	W01
	BYTE		        54*seq_002_mvl/mxv
	BYTE	W01
	BYTE		        58*seq_002_mvl/mxv
	BYTE	W01
	BYTE		        58*seq_002_mvl/mxv
	BYTE	W01
	BYTE		        60*seq_002_mvl/mxv
	BYTE	W01
	BYTE		        60*seq_002_mvl/mxv
	BYTE	W01
	BYTE		        61*seq_002_mvl/mxv
	BYTE	W01
	BYTE		        62*seq_002_mvl/mxv
	BYTE	W01
	BYTE		        63*seq_002_mvl/mxv
	BYTE	W02
	BYTE		        65*seq_002_mvl/mxv
	BYTE	W01
	BYTE		        66*seq_002_mvl/mxv
	BYTE	W01
	BYTE		        67*seq_002_mvl/mxv
	BYTE	W01
	BYTE		        68*seq_002_mvl/mxv
	BYTE	W01
	BYTE		        69*seq_002_mvl/mxv
	BYTE	W01
	BYTE		        70*seq_002_mvl/mxv
	BYTE	W01
	BYTE		        70*seq_002_mvl/mxv
	BYTE	W02
	BYTE		        73*seq_002_mvl/mxv
	BYTE	W01
	BYTE		        74*seq_002_mvl/mxv
	BYTE	W01
	BYTE		        74*seq_002_mvl/mxv
	BYTE	W01
	BYTE		        76*seq_002_mvl/mxv
	BYTE	W01
	BYTE		        76*seq_002_mvl/mxv
	BYTE	W01
	BYTE		        77*seq_002_mvl/mxv
	BYTE	W01
	BYTE		        78*seq_002_mvl/mxv
	BYTE	W13
	BYTE	PATT
	 POIN2	seq_002_0 + 0xB0
	BYTE		EOT     As2 
	BYTE	W01
	BYTE		VOL     4*seq_002_mvl/mxv
	BYTE		TIE     Cn3   v068
	BYTE	W01
	BYTE		VOL     5*seq_002_mvl/mxv
	BYTE	W01
	BYTE		        6*seq_002_mvl/mxv
	BYTE	W01
	BYTE		        6*seq_002_mvl/mxv
	BYTE	W01
	BYTE		        8*seq_002_mvl/mxv
	BYTE	W01
	BYTE		        10*seq_002_mvl/mxv
	BYTE	W01
	BYTE		        10*seq_002_mvl/mxv
	BYTE	W01
	BYTE		        12*seq_002_mvl/mxv
	BYTE	W01
	BYTE		        12*seq_002_mvl/mxv
	BYTE	W01
	BYTE		        13*seq_002_mvl/mxv
	BYTE	W01
	BYTE		        14*seq_002_mvl/mxv
	BYTE	W01
	BYTE		        15*seq_002_mvl/mxv
	BYTE	W01
	BYTE		        16*seq_002_mvl/mxv
	BYTE	W01
	BYTE		        17*seq_002_mvl/mxv
	BYTE	W01
	BYTE		        18*seq_002_mvl/mxv
	BYTE	W01
	BYTE		        19*seq_002_mvl/mxv
	BYTE	W01
	BYTE		        20*seq_002_mvl/mxv
	BYTE	W01
	BYTE		        21*seq_002_mvl/mxv
	BYTE	W01
	BYTE		        22*seq_002_mvl/mxv
	BYTE	W01
	BYTE		        24*seq_002_mvl/mxv
	BYTE	W01
	BYTE		        25*seq_002_mvl/mxv
	BYTE	W01
	BYTE		        26*seq_002_mvl/mxv
	BYTE	W01
	BYTE		        26*seq_002_mvl/mxv
	BYTE	W01
	BYTE		        28*seq_002_mvl/mxv
	BYTE	W01
	BYTE		        28*seq_002_mvl/mxv
	BYTE	W01
	BYTE		        29*seq_002_mvl/mxv
	BYTE	W01
	BYTE		        30*seq_002_mvl/mxv
	BYTE	W01
	BYTE		        31*seq_002_mvl/mxv
	BYTE	W01
	BYTE		        32*seq_002_mvl/mxv
	BYTE	W01
	BYTE		        34*seq_002_mvl/mxv
	BYTE	W01
	BYTE		        35*seq_002_mvl/mxv
	BYTE	W01
	BYTE		        36*seq_002_mvl/mxv
	BYTE	W01
	BYTE		        37*seq_002_mvl/mxv
	BYTE	W01
	BYTE		        38*seq_002_mvl/mxv
	BYTE	W01
	BYTE		        38*seq_002_mvl/mxv
	BYTE	W01
	BYTE		        40*seq_002_mvl/mxv
	BYTE	W01
	BYTE		        41*seq_002_mvl/mxv
	BYTE	W01
	BYTE		        42*seq_002_mvl/mxv
	BYTE	W01
	BYTE		        42*seq_002_mvl/mxv
	BYTE	W01
	BYTE		        44*seq_002_mvl/mxv
	BYTE	W01
	BYTE		        44*seq_002_mvl/mxv
	BYTE	W01
	BYTE		        45*seq_002_mvl/mxv
	BYTE	W01
	BYTE		        46*seq_002_mvl/mxv
	BYTE	W01
	BYTE		        47*seq_002_mvl/mxv
	BYTE	W01
	BYTE		        48*seq_002_mvl/mxv
	BYTE	W01
	BYTE		        49*seq_002_mvl/mxv
	BYTE	W01
	BYTE		        50*seq_002_mvl/mxv
	BYTE	W01
	BYTE		        51*seq_002_mvl/mxv
	BYTE	W01
	BYTE		        52*seq_002_mvl/mxv
	BYTE	W01
	BYTE		        53*seq_002_mvl/mxv
	BYTE	W01
	BYTE		        54*seq_002_mvl/mxv
	BYTE	W01
	BYTE		        54*seq_002_mvl/mxv
	BYTE	W01
	BYTE		        56*seq_002_mvl/mxv
	BYTE	W01
	BYTE		        57*seq_002_mvl/mxv
	BYTE	W01
	BYTE		        58*seq_002_mvl/mxv
	BYTE	W01
	BYTE		        58*seq_002_mvl/mxv
	BYTE	W01
	BYTE		        60*seq_002_mvl/mxv
	BYTE	W01
	BYTE		        60*seq_002_mvl/mxv
	BYTE	W01
	BYTE		        61*seq_002_mvl/mxv
	BYTE	W02
	BYTE		        62*seq_002_mvl/mxv
	BYTE	W01
	BYTE		        63*seq_002_mvl/mxv
	BYTE	W01
	BYTE		        64*seq_002_mvl/mxv
	BYTE	W01
	BYTE		        65*seq_002_mvl/mxv
	BYTE	W01
	BYTE		        66*seq_002_mvl/mxv
	BYTE	W02
	BYTE		        67*seq_002_mvl/mxv
	BYTE	W01
	BYTE		        68*seq_002_mvl/mxv
	BYTE	W02
	BYTE		        69*seq_002_mvl/mxv
	BYTE	W01
	BYTE		        70*seq_002_mvl/mxv
	BYTE	W02
	BYTE		        70*seq_002_mvl/mxv
	BYTE	W02
	BYTE		        72*seq_002_mvl/mxv
	BYTE	W02
	BYTE		        73*seq_002_mvl/mxv
	BYTE	W01
	BYTE		        74*seq_002_mvl/mxv
	BYTE	W02
	BYTE		        74*seq_002_mvl/mxv
	BYTE	W01
	BYTE		        76*seq_002_mvl/mxv
	BYTE	W16
	BYTE	PATT
	 POIN2	seq_002_0 + 0xB0
	BYTE		EOT     Cn3 
	BYTE	W01
	BYTE		VOL     4*seq_002_mvl/mxv
	BYTE		TIE     As2   v068
	BYTE	W01
	BYTE		VOL     5*seq_002_mvl/mxv
	BYTE	W01
	BYTE		        6*seq_002_mvl/mxv
	BYTE	W01
	BYTE		        6*seq_002_mvl/mxv
	BYTE	W01
	BYTE		        8*seq_002_mvl/mxv
	BYTE	W01
	BYTE		        9*seq_002_mvl/mxv
	BYTE	W01
	BYTE		        10*seq_002_mvl/mxv
	BYTE	W01
	BYTE		        10*seq_002_mvl/mxv
	BYTE	W02
	BYTE		        12*seq_002_mvl/mxv
	BYTE	W01
	BYTE		        12*seq_002_mvl/mxv
	BYTE	W01
	BYTE		        13*seq_002_mvl/mxv
	BYTE	W01
	BYTE		        14*seq_002_mvl/mxv
	BYTE	W01
	BYTE		        15*seq_002_mvl/mxv
	BYTE	W01
	BYTE		        16*seq_002_mvl/mxv
	BYTE	W01
	BYTE		        17*seq_002_mvl/mxv
	BYTE	W01
	BYTE		        18*seq_002_mvl/mxv
	BYTE	W02
	BYTE		        19*seq_002_mvl/mxv
	BYTE	W01
	BYTE		        20*seq_002_mvl/mxv
	BYTE	W01
	BYTE		        21*seq_002_mvl/mxv
	BYTE	W01
	BYTE		        22*seq_002_mvl/mxv
	BYTE	W01
	BYTE		        22*seq_002_mvl/mxv
	BYTE	W01
	BYTE		        24*seq_002_mvl/mxv
	BYTE	W01
	BYTE		        25*seq_002_mvl/mxv
	BYTE	W01
	BYTE		        26*seq_002_mvl/mxv
	BYTE	W02
	BYTE		        26*seq_002_mvl/mxv
	BYTE	W01
	BYTE		        28*seq_002_mvl/mxv
	BYTE	W01
	BYTE		        28*seq_002_mvl/mxv
	BYTE	W01
	BYTE		        29*seq_002_mvl/mxv
	BYTE	W01
	BYTE		        30*seq_002_mvl/mxv
	BYTE	W01
	BYTE		        31*seq_002_mvl/mxv
	BYTE	W01
	BYTE		        32*seq_002_mvl/mxv
	BYTE	W01
	BYTE		        33*seq_002_mvl/mxv
	BYTE	W01
	BYTE		        34*seq_002_mvl/mxv
	BYTE	W02
	BYTE		        36*seq_002_mvl/mxv
	BYTE	W02
	BYTE		        37*seq_002_mvl/mxv
	BYTE	W01
	BYTE		        38*seq_002_mvl/mxv
	BYTE	W01
	BYTE		        38*seq_002_mvl/mxv
	BYTE	W01
	BYTE		        40*seq_002_mvl/mxv
	BYTE	W01
	BYTE		        41*seq_002_mvl/mxv
	BYTE	W01
	BYTE		        42*seq_002_mvl/mxv
	BYTE	W01
	BYTE		        42*seq_002_mvl/mxv
	BYTE	W01
	BYTE		        44*seq_002_mvl/mxv
	BYTE	W02
	BYTE		        44*seq_002_mvl/mxv
	BYTE	W01
	BYTE		        45*seq_002_mvl/mxv
	BYTE	W01
	BYTE		        46*seq_002_mvl/mxv
	BYTE	W01
	BYTE		        47*seq_002_mvl/mxv
	BYTE	W01
	BYTE		        48*seq_002_mvl/mxv
	BYTE	W01
	BYTE		        49*seq_002_mvl/mxv
	BYTE	W01
	BYTE		        50*seq_002_mvl/mxv
	BYTE	W01
	BYTE		        51*seq_002_mvl/mxv
	BYTE	W02
	BYTE		        52*seq_002_mvl/mxv
	BYTE	W01
	BYTE		        53*seq_002_mvl/mxv
	BYTE	W01
	BYTE		        54*seq_002_mvl/mxv
	BYTE	W01
	BYTE		        54*seq_002_mvl/mxv
	BYTE	W01
	BYTE		        58*seq_002_mvl/mxv
	BYTE	W01
	BYTE		        58*seq_002_mvl/mxv
	BYTE	W01
	BYTE		        60*seq_002_mvl/mxv
	BYTE	W01
	BYTE		        60*seq_002_mvl/mxv
	BYTE	W01
	BYTE		        61*seq_002_mvl/mxv
	BYTE	W01
	BYTE		        62*seq_002_mvl/mxv
	BYTE	W01
	BYTE		        63*seq_002_mvl/mxv
	BYTE	W02
	BYTE		        65*seq_002_mvl/mxv
	BYTE	W01
	BYTE		        66*seq_002_mvl/mxv
	BYTE	W01
	BYTE		        67*seq_002_mvl/mxv
	BYTE	W01
	BYTE		        68*seq_002_mvl/mxv
	BYTE	W01
	BYTE		        69*seq_002_mvl/mxv
	BYTE	W01
	BYTE		        70*seq_002_mvl/mxv
	BYTE	W01
	BYTE		        70*seq_002_mvl/mxv
	BYTE	W02
	BYTE		        73*seq_002_mvl/mxv
	BYTE	W01
	BYTE		        74*seq_002_mvl/mxv
	BYTE	W01
	BYTE		        74*seq_002_mvl/mxv
	BYTE	W01
	BYTE		        76*seq_002_mvl/mxv
	BYTE	W01
	BYTE		        76*seq_002_mvl/mxv
	BYTE	W01
	BYTE		        77*seq_002_mvl/mxv
	BYTE	W01
	BYTE		        78*seq_002_mvl/mxv
	BYTE	W13
	BYTE	W92
	BYTE	W03
	BYTE		        74*seq_002_mvl/mxv
	BYTE	W01
	BYTE	TEMPO   94/2
	BYTE		        73*seq_002_mvl/mxv
	BYTE	W01
	BYTE		        72*seq_002_mvl/mxv
	BYTE	W01
	BYTE		        70*seq_002_mvl/mxv
	BYTE	W02
	BYTE		        70*seq_002_mvl/mxv
	BYTE	W01
	BYTE		        68*seq_002_mvl/mxv
	BYTE	W02
	BYTE		        67*seq_002_mvl/mxv
	BYTE	W01
	BYTE		        66*seq_002_mvl/mxv
	BYTE	W01
	BYTE		        65*seq_002_mvl/mxv
	BYTE	W01
	BYTE		        64*seq_002_mvl/mxv
	BYTE	W01
	BYTE		        63*seq_002_mvl/mxv
	BYTE	W01
	BYTE		        61*seq_002_mvl/mxv
	BYTE	W01
	BYTE		        60*seq_002_mvl/mxv
	BYTE	W01
	BYTE		        60*seq_002_mvl/mxv
	BYTE	W01
	BYTE		        58*seq_002_mvl/mxv
	BYTE	W01
	BYTE		        58*seq_002_mvl/mxv
	BYTE	W01
	BYTE		        56*seq_002_mvl/mxv
	BYTE	W01
	BYTE		        54*seq_002_mvl/mxv
	BYTE	W01
	BYTE		        54*seq_002_mvl/mxv
	BYTE	W01
	BYTE		        53*seq_002_mvl/mxv
	BYTE	W01
	BYTE		        51*seq_002_mvl/mxv
	BYTE	W01
	BYTE		        49*seq_002_mvl/mxv
	BYTE	W01
	BYTE		        48*seq_002_mvl/mxv
	BYTE	W01
	BYTE		        46*seq_002_mvl/mxv
	BYTE	W01
	BYTE		        45*seq_002_mvl/mxv
	BYTE	W01
	BYTE		        44*seq_002_mvl/mxv
	BYTE	W01
	BYTE		        42*seq_002_mvl/mxv
	BYTE	W01
	BYTE		        41*seq_002_mvl/mxv
	BYTE	W01
	BYTE		        38*seq_002_mvl/mxv
	BYTE	W01
	BYTE		        37*seq_002_mvl/mxv
	BYTE	W01
	BYTE		        36*seq_002_mvl/mxv
	BYTE	W01
	BYTE		        34*seq_002_mvl/mxv
	BYTE	W01
	BYTE		        32*seq_002_mvl/mxv
	BYTE	W01
	BYTE		        30*seq_002_mvl/mxv
	BYTE	W01
	BYTE		        28*seq_002_mvl/mxv
	BYTE	W12
	BYTE		EOT
	BYTE	W01
	BYTE	TEMPO   88/2
	BYTE	W96
	BYTE	W96
	BYTE	TEMPO   86/2
	BYTE	W96
	BYTE	W92
	BYTE	W03
	BYTE		VOICE   63
	BYTE		VOL     80*seq_002_mvl/mxv
	BYTE		PAN     c_v+6
	BYTE		BEND    c_v+0
	BYTE	W01
	BYTE	TEMPO   86/2
	BYTE		N24     As2   v116
	BYTE	W24
	BYTE		N44     Gn2 
	BYTE	W48
	BYTE		N11     Ds2 
	BYTE	W12
	BYTE		        Fn2 
	BYTE	W12
	BYTE		N44     As1 
	BYTE	W48
	BYTE		N11     Cn2 
	BYTE	W12
	BYTE		        Dn2 
	BYTE	W12
	BYTE		        Ds2 
	BYTE	W12
	BYTE		        Gn2 
	BYTE	W12
	BYTE		N24     Dn3   v084
	BYTE	W24
	BYTE		TIE     As2   v056
	BYTE	W72
	BYTE	W44
	BYTE	W03
	BYTE		VOL     78*seq_002_mvl/mxv
	BYTE	W01
	BYTE		        77*seq_002_mvl/mxv
	BYTE	W01
	BYTE		        76*seq_002_mvl/mxv
	BYTE	W02
	BYTE		        76*seq_002_mvl/mxv
	BYTE	W01
	BYTE		        74*seq_002_mvl/mxv
	BYTE	W01
	BYTE		        74*seq_002_mvl/mxv
	BYTE	W01
	BYTE		        73*seq_002_mvl/mxv
	BYTE	W01
	BYTE		        72*seq_002_mvl/mxv
	BYTE	W01
	BYTE		        70*seq_002_mvl/mxv
	BYTE	W01
	BYTE		        70*seq_002_mvl/mxv
	BYTE	W01
	BYTE		        69*seq_002_mvl/mxv
	BYTE	W01
	BYTE		        68*seq_002_mvl/mxv
	BYTE	W01
	BYTE		        67*seq_002_mvl/mxv
	BYTE	W01
	BYTE		        66*seq_002_mvl/mxv
	BYTE	W01
	BYTE		        65*seq_002_mvl/mxv
	BYTE	W01
	BYTE		        64*seq_002_mvl/mxv
	BYTE	W01
	BYTE		        63*seq_002_mvl/mxv
	BYTE	W01
	BYTE		        62*seq_002_mvl/mxv
	BYTE	W01
	BYTE		        61*seq_002_mvl/mxv
	BYTE	W01
	BYTE		        60*seq_002_mvl/mxv
	BYTE	W01
	BYTE		        58*seq_002_mvl/mxv
	BYTE	W01
	BYTE		        57*seq_002_mvl/mxv
	BYTE	W01
	BYTE		        56*seq_002_mvl/mxv
	BYTE	W01
	BYTE		        54*seq_002_mvl/mxv
	BYTE	W01
	BYTE		        53*seq_002_mvl/mxv
	BYTE	W01
	BYTE		        52*seq_002_mvl/mxv
	BYTE	W01
	BYTE		        51*seq_002_mvl/mxv
	BYTE	W01
	BYTE		        49*seq_002_mvl/mxv
	BYTE	W01
	BYTE		        47*seq_002_mvl/mxv
	BYTE	W01
	BYTE		        46*seq_002_mvl/mxv
	BYTE	W01
	BYTE		        44*seq_002_mvl/mxv
	BYTE	W01
	BYTE		        44*seq_002_mvl/mxv
	BYTE	W01
	BYTE		        42*seq_002_mvl/mxv
	BYTE	W01
	BYTE		        40*seq_002_mvl/mxv
	BYTE	W01
	BYTE		        38*seq_002_mvl/mxv
	BYTE	W01
	BYTE		        37*seq_002_mvl/mxv
	BYTE	W01
	BYTE		        35*seq_002_mvl/mxv
	BYTE	W01
	BYTE		        33*seq_002_mvl/mxv
	BYTE	W01
	BYTE		        31*seq_002_mvl/mxv
	BYTE	W01
	BYTE		        29*seq_002_mvl/mxv
	BYTE	W01
	BYTE		        28*seq_002_mvl/mxv
	BYTE	W01
	BYTE		        26*seq_002_mvl/mxv
	BYTE	W01
	BYTE		        25*seq_002_mvl/mxv
	BYTE	W01
	BYTE		        22*seq_002_mvl/mxv
	BYTE	W01
	BYTE		        20*seq_002_mvl/mxv
	BYTE	W01
	BYTE		        18*seq_002_mvl/mxv
	BYTE	W01
	BYTE		        16*seq_002_mvl/mxv
	BYTE	W02
	BYTE		EOT
	BYTE	W96
	BYTE	W48
	BYTE	TEMPO   88/2
	BYTE	W48
	BYTE	TEMPO   88/2
	BYTE	W72
	BYTE	TEMPO   84/2
	BYTE	W72
	BYTE	W72
	BYTE	W72
	BYTE	W72
	BYTE	TEMPO   90/2
	BYTE	W68
	BYTE	W02
	BYTE	TEMPO   28/2
	BYTE	W02
	BYTE	TEMPO   50/2
	BYTE	W96
	BYTE	TEMPO   54/2
	BYTE	W72
	BYTE	TEMPO   38/2
	BYTE	W24
	BYTE	TEMPO   52/2
	BYTE	W72
	BYTE	TEMPO   34/2
	BYTE	W24
	BYTE	TEMPO   46/2
	BYTE	W96
	BYTE	TEMPO   56/2
	BYTE	W96
	BYTE	TEMPO   54/2
	BYTE	W96
	BYTE	TEMPO   60/2
	BYTE	W96
	BYTE	W72
	BYTE	TEMPO   40/2
	BYTE	W24
	BYTE	TEMPO   54/2
	BYTE	W72
	BYTE	TEMPO   46/2
	BYTE	W24
	BYTE	TEMPO   50/2
	BYTE	W72
	BYTE	TEMPO   44/2
	BYTE	W24
	BYTE	TEMPO   54/2
	BYTE	W72
	BYTE	TEMPO   48/2
	BYTE	W24
	BYTE	TEMPO   56/2
	BYTE		VOICE   87
	BYTE		VOL     80*seq_002_mvl/mxv
	BYTE		PAN     c_v+0
	BYTE		BENDR   3
	BYTE		BEND    c_v+0
	BYTE	W72
	BYTE	TEMPO   52/2
	BYTE	W24
	BYTE	TEMPO   58/2
	BYTE		N96     As1   v120
	BYTE		N96     As2 
	BYTE	W96
	BYTE		        As1 
	BYTE		N96     As2 
	BYTE	W96
	BYTE	TEMPO   60/2
	BYTE		        As1   v076
	BYTE		N96     As2   v100
	BYTE	W72
	BYTE	TEMPO   52/2
	BYTE	W24
	BYTE	TEMPO   60/2
	BYTE		        As1   v076
	BYTE		N96     As2   v100
	BYTE	W72
	BYTE	TEMPO   54/2
	BYTE	W24
	BYTE	TEMPO   60/2
	BYTE		        As1   v076
	BYTE		N96     As2   v100
	BYTE	W96
	BYTE		N96     As1   v076
	BYTE		N96     As2   v100
	BYTE	W96
	BYTE	PEND
	BYTE	PATT
	 POIN2	seq_002_0 + 0x43E
	BYTE	PATT
	 POIN2	seq_002_0 + 0x43E
	BYTE	PATT
	 POIN2	seq_002_0 + 0x43E
	BYTE	PATT
	 POIN2	seq_002_0 + 0x43E
	BYTE	PATT
	 POIN2	seq_002_0 + 0x43E
	BYTE	PATT
	 POIN2	seq_002_0 + 0x43E
	BYTE	TEMPO   58/2
	BYTE		N96     As1   v076
	BYTE		N96     As2   v100
	BYTE	W96
	BYTE	PATT
	 POIN2	seq_002_0 + 0x43E
	BYTE	PATT
	 POIN2	seq_002_0 + 0x43E
	BYTE	TEMPO   60/2
	BYTE		N96     As1   v068
	BYTE		N96     As2   v092
	BYTE	W96
	BYTE		N92     As1   v068
	BYTE		N92     As2   v092
	BYTE	W96
	BYTE	TEMPO   58/2
	BYTE		        En3   v100
	BYTE	W01
	BYTE		        En2 
	BYTE	W92
	BYTE	W03
	BYTE		N92     En3   v100
	BYTE	W01
	BYTE		        En2 
	BYTE	W92
	BYTE	W03
	BYTE	PEND
	BYTE	PATT
	 POIN2	seq_002_0 + 0x48F
	BYTE	TEMPO   56/2
	BYTE	W01
	BYTE		VOICE   89
	BYTE		VOL     46*seq_002_mvl/mxv
	BYTE		PAN     c_v-64
	BYTE		BENDR   3
	BYTE		BEND    c_v-1
	BYTE	W01
	BYTE		N23     Dn3   v080
	BYTE	W24
	BYTE		N12     Fs2   v120
	BYTE	W12
	BYTE		        Gn2 
	BYTE	W12
	BYTE		N32     An2 
	BYTE	W36
	BYTE		N12     En3 
	BYTE	W10
	BYTE	W02
	BYTE		N48     Dn3 
	BYTE	W48
	BYTE		        Bn2   v088
	BYTE	W16
	BYTE		VOL     47*seq_002_mvl/mxv
	BYTE	W03
	BYTE		        46*seq_002_mvl/mxv
	BYTE	W06
	BYTE		        46*seq_002_mvl/mxv
	BYTE	W02
	BYTE		        45*seq_002_mvl/mxv
	BYTE	W02
	BYTE		        45*seq_002_mvl/mxv
	BYTE	W03
	BYTE		        42*seq_002_mvl/mxv
	BYTE	W01
	BYTE		        41*seq_002_mvl/mxv
	BYTE	W01
	BYTE		        39*seq_002_mvl/mxv
	BYTE	W01
	BYTE		        36*seq_002_mvl/mxv
	BYTE	W01
	BYTE		        35*seq_002_mvl/mxv
	BYTE	W01
	BYTE		        32*seq_002_mvl/mxv
	BYTE	W01
	BYTE		        29*seq_002_mvl/mxv
	BYTE	W01
	BYTE		        28*seq_002_mvl/mxv
	BYTE	W01
	BYTE		        25*seq_002_mvl/mxv
	BYTE	W01
	BYTE		        23*seq_002_mvl/mxv
	BYTE	W01
	BYTE		        21*seq_002_mvl/mxv
	BYTE	W01
	BYTE		        19*seq_002_mvl/mxv
	BYTE	W01
	BYTE		        17*seq_002_mvl/mxv
	BYTE	W01
	BYTE		        16*seq_002_mvl/mxv
	BYTE	W01
	BYTE	TEMPO   56/2
	BYTE		        13*seq_002_mvl/mxv
	BYTE	W01
	BYTE		        11*seq_002_mvl/mxv
	BYTE	W01
	BYTE		        9*seq_002_mvl/mxv
	BYTE	W01
	BYTE		        6*seq_002_mvl/mxv
	BYTE	W01
	BYTE		        4*seq_002_mvl/mxv
	BYTE	W01
	BYTE		        3*seq_002_mvl/mxv
	BYTE	W28
	BYTE	W01
	BYTE		        48*seq_002_mvl/mxv
	BYTE	W60
	BYTE	W02
	BYTE	W96
	BYTE	W02
	BYTE		N22     Dn3   v108
	BYTE	W24
	BYTE		N10     Fs2 
	BYTE	W12
	BYTE		        Gn2   v096
	BYTE	W12
	BYTE		N32     An2   v084
	BYTE	W36
	BYTE		N10     En3   v092
	BYTE	W10
	BYTE	W02
	BYTE		N44     Dn3   v108
	BYTE	W48
	BYTE		N21     As2   v084
	BYTE	W24
	BYTE		N10     As2   v092
	BYTE	W12
	BYTE		        Cn3   v096
	BYTE	W10
	BYTE	W02
	BYTE		N22     Dn3   v108
	BYTE	W24
	BYTE		N10     Gn3 
	BYTE	W12
	BYTE		        Fn3 
	BYTE	W12
	BYTE		N32     En3 
	BYTE	W36
	BYTE		N10     Cn3 
	BYTE	W10
	BYTE	TEMPO   54/2
	BYTE	W02
	BYTE		TIE     Dn3   v084
	BYTE	W56
	BYTE	W02
	BYTE		VOL     48*seq_002_mvl/mxv
	BYTE	W01
	BYTE		        47*seq_002_mvl/mxv
	BYTE	W01
	BYTE		        46*seq_002_mvl/mxv
	BYTE	W02
	BYTE		        46*seq_002_mvl/mxv
	BYTE	W01
	BYTE		        45*seq_002_mvl/mxv
	BYTE	W01
	BYTE		        44*seq_002_mvl/mxv
	BYTE	W01
	BYTE		        44*seq_002_mvl/mxv
	BYTE	W01
	BYTE		        44*seq_002_mvl/mxv
	BYTE	W01
	BYTE		        42*seq_002_mvl/mxv
	BYTE	W01
	BYTE		        42*seq_002_mvl/mxv
	BYTE	W01
	BYTE		        42*seq_002_mvl/mxv
	BYTE	W01
	BYTE		        41*seq_002_mvl/mxv
	BYTE	W01
	BYTE		        40*seq_002_mvl/mxv
	BYTE	W01
	BYTE		        40*seq_002_mvl/mxv
	BYTE	W01
	BYTE		        39*seq_002_mvl/mxv
	BYTE	W01
	BYTE		        38*seq_002_mvl/mxv
	BYTE	W01
	BYTE		        37*seq_002_mvl/mxv
	BYTE	W01
	BYTE		        36*seq_002_mvl/mxv
	BYTE	W01
	BYTE		        36*seq_002_mvl/mxv
	BYTE	W01
	BYTE		        35*seq_002_mvl/mxv
	BYTE	W01
	BYTE		        34*seq_002_mvl/mxv
	BYTE	W01
	BYTE		        33*seq_002_mvl/mxv
	BYTE	W01
	BYTE		        32*seq_002_mvl/mxv
	BYTE	W01
	BYTE		        31*seq_002_mvl/mxv
	BYTE	W01
	BYTE		        30*seq_002_mvl/mxv
	BYTE	W01
	BYTE		        28*seq_002_mvl/mxv
	BYTE	W01
	BYTE		        27*seq_002_mvl/mxv
	BYTE	W01
	BYTE		        26*seq_002_mvl/mxv
	BYTE	W01
	BYTE		        25*seq_002_mvl/mxv
	BYTE	W01
	BYTE		        23*seq_002_mvl/mxv
	BYTE	W01
	BYTE		        22*seq_002_mvl/mxv
	BYTE	W01
	BYTE		        20*seq_002_mvl/mxv
	BYTE	W01
	BYTE		        19*seq_002_mvl/mxv
	BYTE	W01
	BYTE		        17*seq_002_mvl/mxv
	BYTE	W01
	BYTE		        15*seq_002_mvl/mxv
	BYTE	W01
	BYTE	TEMPO   48/2
	BYTE		        13*seq_002_mvl/mxv
	BYTE	W01
	BYTE		        11*seq_002_mvl/mxv
	BYTE	W01
	BYTE		        8*seq_002_mvl/mxv
	BYTE	W01
	BYTE		        6*seq_002_mvl/mxv
	BYTE	W01
	BYTE		        4*seq_002_mvl/mxv
	BYTE	W01
	BYTE		        1*seq_002_mvl/mxv
	BYTE	W01
	BYTE		EOT
	BYTE		VOL     0*seq_002_mvl/mxv
	BYTE	W40
	BYTE	W01
	BYTE		        48*seq_002_mvl/mxv
	BYTE	W48
	BYTE	W01
	BYTE	TEMPO   48/2
	BYTE		VOICE   64
	BYTE		VOL     80*seq_002_mvl/mxv
	BYTE		PAN     c_v-24
	BYTE		BEND    c_v+0
	BYTE	W72
	BYTE	TEMPO   54/2
	BYTE	W24
	BYTE	TEMPO   50/2
	BYTE		N23     Gn3   v060
	BYTE	W24
	BYTE		N11     Bn2   v072
	BYTE	W12
	BYTE		        Cn3 
	BYTE	W12
	BYTE		N32     Dn3 
	BYTE	W36
	BYTE		N11     An3 
	BYTE	W12
	BYTE	TEMPO   48/2
	BYTE		N48     Gn3   v052
	BYTE	W48
	BYTE		N54     En3   v036
	BYTE	W19
	BYTE		VOL     78*seq_002_mvl/mxv
	BYTE	W01
	BYTE		        76*seq_002_mvl/mxv
	BYTE	W01
	BYTE		        74*seq_002_mvl/mxv
	BYTE	W01
	BYTE		        73*seq_002_mvl/mxv
	BYTE	W01
	BYTE		        70*seq_002_mvl/mxv
	BYTE	W01
	BYTE		        68*seq_002_mvl/mxv
	BYTE	W01
	BYTE		        67*seq_002_mvl/mxv
	BYTE	W01
	BYTE		        65*seq_002_mvl/mxv
	BYTE	W01
	BYTE		        63*seq_002_mvl/mxv
	BYTE	W01
	BYTE		        61*seq_002_mvl/mxv
	BYTE	W01
	BYTE		        60*seq_002_mvl/mxv
	BYTE	W01
	BYTE		        57*seq_002_mvl/mxv
	BYTE	W01
	BYTE		        54*seq_002_mvl/mxv
	BYTE	W01
	BYTE		        53*seq_002_mvl/mxv
	BYTE	W01
	BYTE		        51*seq_002_mvl/mxv
	BYTE	W01
	BYTE		        49*seq_002_mvl/mxv
	BYTE	W01
	BYTE		        46*seq_002_mvl/mxv
	BYTE	W01
	BYTE		        44*seq_002_mvl/mxv
	BYTE	W01
	BYTE		        42*seq_002_mvl/mxv
	BYTE	W01
	BYTE		        38*seq_002_mvl/mxv
	BYTE	W01
	BYTE		        37*seq_002_mvl/mxv
	BYTE	W01
	BYTE		        34*seq_002_mvl/mxv
	BYTE	W01
	BYTE		        32*seq_002_mvl/mxv
	BYTE	W01
	BYTE		        29*seq_002_mvl/mxv
	BYTE	W01
	BYTE		        28*seq_002_mvl/mxv
	BYTE	W01
	BYTE		        25*seq_002_mvl/mxv
	BYTE	W01
	BYTE		        22*seq_002_mvl/mxv
	BYTE	W01
	BYTE		        20*seq_002_mvl/mxv
	BYTE	W01
	BYTE		        17*seq_002_mvl/mxv
	BYTE	W01
	BYTE	TEMPO   48/2
	BYTE		        12*seq_002_mvl/mxv
	BYTE	W01
	BYTE		        10*seq_002_mvl/mxv
	BYTE	W01
	BYTE		        6*seq_002_mvl/mxv
	BYTE	W01
	BYTE		        4*seq_002_mvl/mxv
	BYTE	W01
	BYTE		        1*seq_002_mvl/mxv
	BYTE	W01
	BYTE		        0*seq_002_mvl/mxv
	BYTE	W01
	BYTE	FINE

//*********************** Track 02 ***********************//

seq_002_1:
	BYTE	KEYSH   seq_002_key+0
	BYTE	W01
	BYTE		VOICE   83
	BYTE		VOL     0*seq_002_mvl/mxv
	BYTE		PAN     c_v-24
	BYTE		BENDR   3
	BYTE		BEND    c_v+0
	BYTE	W02
	BYTE	W01
	BYTE		VOL     4*seq_002_mvl/mxv
	BYTE		TIE     Cn2   v088
	BYTE	W01
	BYTE		VOL     5*seq_002_mvl/mxv
	BYTE	W01
	BYTE		        6*seq_002_mvl/mxv
	BYTE	W01
	BYTE		        6*seq_002_mvl/mxv
	BYTE	W01
	BYTE		        8*seq_002_mvl/mxv
	BYTE	W01
	BYTE		        10*seq_002_mvl/mxv
	BYTE	W01
	BYTE		        10*seq_002_mvl/mxv
	BYTE	W01
	BYTE		        12*seq_002_mvl/mxv
	BYTE	W01
	BYTE		        12*seq_002_mvl/mxv
	BYTE	W01
	BYTE		        13*seq_002_mvl/mxv
	BYTE	W01
	BYTE		        14*seq_002_mvl/mxv
	BYTE	W01
	BYTE		        15*seq_002_mvl/mxv
	BYTE	W01
	BYTE		        16*seq_002_mvl/mxv
	BYTE	W01
	BYTE		        17*seq_002_mvl/mxv
	BYTE	W01
	BYTE		        18*seq_002_mvl/mxv
	BYTE	W01
	BYTE		        19*seq_002_mvl/mxv
	BYTE	W01
	BYTE		        20*seq_002_mvl/mxv
	BYTE	W01
	BYTE		        21*seq_002_mvl/mxv
	BYTE	W01
	BYTE		        22*seq_002_mvl/mxv
	BYTE	W01
	BYTE		        24*seq_002_mvl/mxv
	BYTE	W01
	BYTE		        25*seq_002_mvl/mxv
	BYTE	W01
	BYTE		        26*seq_002_mvl/mxv
	BYTE	W01
	BYTE		        26*seq_002_mvl/mxv
	BYTE	W01
	BYTE		        28*seq_002_mvl/mxv
	BYTE	W01
	BYTE		        28*seq_002_mvl/mxv
	BYTE	W01
	BYTE		        29*seq_002_mvl/mxv
	BYTE	W01
	BYTE		        30*seq_002_mvl/mxv
	BYTE	W01
	BYTE		        31*seq_002_mvl/mxv
	BYTE	W01
	BYTE		        32*seq_002_mvl/mxv
	BYTE	W01
	BYTE		        34*seq_002_mvl/mxv
	BYTE	W01
	BYTE		        35*seq_002_mvl/mxv
	BYTE	W01
	BYTE		        36*seq_002_mvl/mxv
	BYTE	W01
	BYTE		        37*seq_002_mvl/mxv
	BYTE	W01
	BYTE		        38*seq_002_mvl/mxv
	BYTE	W01
	BYTE		        38*seq_002_mvl/mxv
	BYTE	W01
	BYTE		        40*seq_002_mvl/mxv
	BYTE	W01
	BYTE		        41*seq_002_mvl/mxv
	BYTE	W01
	BYTE		        42*seq_002_mvl/mxv
	BYTE	W01
	BYTE		        42*seq_002_mvl/mxv
	BYTE	W01
	BYTE		        44*seq_002_mvl/mxv
	BYTE	W01
	BYTE		        44*seq_002_mvl/mxv
	BYTE	W01
	BYTE		        45*seq_002_mvl/mxv
	BYTE	W01
	BYTE		        46*seq_002_mvl/mxv
	BYTE	W01
	BYTE		        47*seq_002_mvl/mxv
	BYTE	W01
	BYTE		        48*seq_002_mvl/mxv
	BYTE	W01
	BYTE		        49*seq_002_mvl/mxv
	BYTE	W01
	BYTE		        50*seq_002_mvl/mxv
	BYTE	W01
	BYTE		        51*seq_002_mvl/mxv
	BYTE	W01
	BYTE		        52*seq_002_mvl/mxv
	BYTE	W01
	BYTE		        53*seq_002_mvl/mxv
	BYTE	W01
	BYTE		        54*seq_002_mvl/mxv
	BYTE	W01
	BYTE		        54*seq_002_mvl/mxv
	BYTE	W01
	BYTE		        56*seq_002_mvl/mxv
	BYTE	W01
	BYTE		        57*seq_002_mvl/mxv
	BYTE	W01
	BYTE		        58*seq_002_mvl/mxv
	BYTE	W01
	BYTE		        58*seq_002_mvl/mxv
	BYTE	W01
	BYTE		        60*seq_002_mvl/mxv
	BYTE	W01
	BYTE		        60*seq_002_mvl/mxv
	BYTE	W01
	BYTE		        61*seq_002_mvl/mxv
	BYTE	W02
	BYTE		        62*seq_002_mvl/mxv
	BYTE	W01
	BYTE		        63*seq_002_mvl/mxv
	BYTE	W01
	BYTE		        64*seq_002_mvl/mxv
	BYTE	W01
	BYTE		        65*seq_002_mvl/mxv
	BYTE	W01
	BYTE		        66*seq_002_mvl/mxv
	BYTE	W02
	BYTE		        67*seq_002_mvl/mxv
	BYTE	W01
	BYTE		        68*seq_002_mvl/mxv
	BYTE	W02
	BYTE		        69*seq_002_mvl/mxv
	BYTE	W01
	BYTE		        70*seq_002_mvl/mxv
	BYTE	W02
	BYTE		        70*seq_002_mvl/mxv
	BYTE	W02
	BYTE		        72*seq_002_mvl/mxv
	BYTE	W02
	BYTE		        73*seq_002_mvl/mxv
	BYTE	W01
	BYTE		        74*seq_002_mvl/mxv
	BYTE	W02
	BYTE		        74*seq_002_mvl/mxv
	BYTE	W01
	BYTE		        76*seq_002_mvl/mxv
	BYTE	W15
	BYTE	W48
	BYTE		VOL     74*seq_002_mvl/mxv
	BYTE	W01
	BYTE		        73*seq_002_mvl/mxv
	BYTE	W01
	BYTE		        72*seq_002_mvl/mxv
	BYTE	W01
	BYTE		        70*seq_002_mvl/mxv
	BYTE	W02
	BYTE		        70*seq_002_mvl/mxv
	BYTE	W01
	BYTE		        68*seq_002_mvl/mxv
	BYTE	W02
	BYTE		        67*seq_002_mvl/mxv
	BYTE	W01
	BYTE		        66*seq_002_mvl/mxv
	BYTE	W01
	BYTE		        65*seq_002_mvl/mxv
	BYTE	W01
	BYTE		        64*seq_002_mvl/mxv
	BYTE	W01
	BYTE		        63*seq_002_mvl/mxv
	BYTE	W01
	BYTE		        61*seq_002_mvl/mxv
	BYTE	W01
	BYTE		        60*seq_002_mvl/mxv
	BYTE	W01
	BYTE		        60*seq_002_mvl/mxv
	BYTE	W01
	BYTE		        58*seq_002_mvl/mxv
	BYTE	W01
	BYTE		        58*seq_002_mvl/mxv
	BYTE	W01
	BYTE		        56*seq_002_mvl/mxv
	BYTE	W01
	BYTE		        54*seq_002_mvl/mxv
	BYTE	W01
	BYTE		        54*seq_002_mvl/mxv
	BYTE	W01
	BYTE		        53*seq_002_mvl/mxv
	BYTE	W01
	BYTE		        51*seq_002_mvl/mxv
	BYTE	W01
	BYTE		        49*seq_002_mvl/mxv
	BYTE	W01
	BYTE		        48*seq_002_mvl/mxv
	BYTE	W01
	BYTE		        46*seq_002_mvl/mxv
	BYTE	W01
	BYTE		        45*seq_002_mvl/mxv
	BYTE	W01
	BYTE		        44*seq_002_mvl/mxv
	BYTE	W01
	BYTE		        42*seq_002_mvl/mxv
	BYTE	W01
	BYTE		        41*seq_002_mvl/mxv
	BYTE	W01
	BYTE		        38*seq_002_mvl/mxv
	BYTE	W01
	BYTE		        37*seq_002_mvl/mxv
	BYTE	W01
	BYTE		        36*seq_002_mvl/mxv
	BYTE	W01
	BYTE		        34*seq_002_mvl/mxv
	BYTE	W01
	BYTE		        32*seq_002_mvl/mxv
	BYTE	W01
	BYTE		        30*seq_002_mvl/mxv
	BYTE	W01
	BYTE		        28*seq_002_mvl/mxv
	BYTE	W12
	BYTE	PEND
	BYTE		EOT     Cn2 
	BYTE	W01
	BYTE		VOL     4*seq_002_mvl/mxv
	BYTE		TIE     As1   v088
	BYTE	W01
	BYTE		VOL     5*seq_002_mvl/mxv
	BYTE	W01
	BYTE		        6*seq_002_mvl/mxv
	BYTE	W01
	BYTE		        6*seq_002_mvl/mxv
	BYTE	W01
	BYTE		        8*seq_002_mvl/mxv
	BYTE	W01
	BYTE		        9*seq_002_mvl/mxv
	BYTE	W01
	BYTE		        10*seq_002_mvl/mxv
	BYTE	W01
	BYTE		        10*seq_002_mvl/mxv
	BYTE	W02
	BYTE		        12*seq_002_mvl/mxv
	BYTE	W01
	BYTE		        12*seq_002_mvl/mxv
	BYTE	W01
	BYTE		        13*seq_002_mvl/mxv
	BYTE	W01
	BYTE		        14*seq_002_mvl/mxv
	BYTE	W01
	BYTE		        15*seq_002_mvl/mxv
	BYTE	W01
	BYTE		        16*seq_002_mvl/mxv
	BYTE	W01
	BYTE		        17*seq_002_mvl/mxv
	BYTE	W01
	BYTE		        18*seq_002_mvl/mxv
	BYTE	W02
	BYTE		        19*seq_002_mvl/mxv
	BYTE	W01
	BYTE		        20*seq_002_mvl/mxv
	BYTE	W01
	BYTE		        21*seq_002_mvl/mxv
	BYTE	W01
	BYTE		        22*seq_002_mvl/mxv
	BYTE	W01
	BYTE		        22*seq_002_mvl/mxv
	BYTE	W01
	BYTE		        24*seq_002_mvl/mxv
	BYTE	W01
	BYTE		        25*seq_002_mvl/mxv
	BYTE	W01
	BYTE		        26*seq_002_mvl/mxv
	BYTE	W02
	BYTE		        26*seq_002_mvl/mxv
	BYTE	W01
	BYTE		        28*seq_002_mvl/mxv
	BYTE	W01
	BYTE		        28*seq_002_mvl/mxv
	BYTE	W01
	BYTE		        29*seq_002_mvl/mxv
	BYTE	W01
	BYTE		        30*seq_002_mvl/mxv
	BYTE	W01
	BYTE		        31*seq_002_mvl/mxv
	BYTE	W01
	BYTE		        32*seq_002_mvl/mxv
	BYTE	W01
	BYTE		        33*seq_002_mvl/mxv
	BYTE	W01
	BYTE		        34*seq_002_mvl/mxv
	BYTE	W02
	BYTE		        36*seq_002_mvl/mxv
	BYTE	W02
	BYTE		        37*seq_002_mvl/mxv
	BYTE	W01
	BYTE		        38*seq_002_mvl/mxv
	BYTE	W01
	BYTE		        38*seq_002_mvl/mxv
	BYTE	W01
	BYTE		        40*seq_002_mvl/mxv
	BYTE	W01
	BYTE		        41*seq_002_mvl/mxv
	BYTE	W01
	BYTE		        42*seq_002_mvl/mxv
	BYTE	W01
	BYTE		        42*seq_002_mvl/mxv
	BYTE	W01
	BYTE		        44*seq_002_mvl/mxv
	BYTE	W02
	BYTE		        44*seq_002_mvl/mxv
	BYTE	W01
	BYTE		        45*seq_002_mvl/mxv
	BYTE	W01
	BYTE		        46*seq_002_mvl/mxv
	BYTE	W01
	BYTE		        47*seq_002_mvl/mxv
	BYTE	W01
	BYTE		        48*seq_002_mvl/mxv
	BYTE	W01
	BYTE		        49*seq_002_mvl/mxv
	BYTE	W01
	BYTE		        50*seq_002_mvl/mxv
	BYTE	W01
	BYTE		        51*seq_002_mvl/mxv
	BYTE	W02
	BYTE		        52*seq_002_mvl/mxv
	BYTE	W01
	BYTE		        53*seq_002_mvl/mxv
	BYTE	W01
	BYTE		        54*seq_002_mvl/mxv
	BYTE	W01
	BYTE		        54*seq_002_mvl/mxv
	BYTE	W01
	BYTE		        58*seq_002_mvl/mxv
	BYTE	W01
	BYTE		        58*seq_002_mvl/mxv
	BYTE	W01
	BYTE		        60*seq_002_mvl/mxv
	BYTE	W01
	BYTE		        60*seq_002_mvl/mxv
	BYTE	W01
	BYTE		        61*seq_002_mvl/mxv
	BYTE	W01
	BYTE		        62*seq_002_mvl/mxv
	BYTE	W01
	BYTE		        63*seq_002_mvl/mxv
	BYTE	W02
	BYTE		        65*seq_002_mvl/mxv
	BYTE	W01
	BYTE		        66*seq_002_mvl/mxv
	BYTE	W01
	BYTE		        67*seq_002_mvl/mxv
	BYTE	W01
	BYTE		        68*seq_002_mvl/mxv
	BYTE	W01
	BYTE		        69*seq_002_mvl/mxv
	BYTE	W01
	BYTE		        70*seq_002_mvl/mxv
	BYTE	W01
	BYTE		        70*seq_002_mvl/mxv
	BYTE	W02
	BYTE		        73*seq_002_mvl/mxv
	BYTE	W01
	BYTE		        74*seq_002_mvl/mxv
	BYTE	W01
	BYTE		        74*seq_002_mvl/mxv
	BYTE	W01
	BYTE		        76*seq_002_mvl/mxv
	BYTE	W01
	BYTE		        76*seq_002_mvl/mxv
	BYTE	W01
	BYTE		        77*seq_002_mvl/mxv
	BYTE	W01
	BYTE		        78*seq_002_mvl/mxv
	BYTE	W12
	BYTE	PATT
	 POIN2	seq_002_1 + 0xA8
	BYTE		EOT     As1 
	BYTE	W01
	BYTE		VOL     4*seq_002_mvl/mxv
	BYTE		TIE     Cn2   v068
	BYTE	W01
	BYTE		VOL     5*seq_002_mvl/mxv
	BYTE	W01
	BYTE		        6*seq_002_mvl/mxv
	BYTE	W01
	BYTE		        6*seq_002_mvl/mxv
	BYTE	W01
	BYTE		        8*seq_002_mvl/mxv
	BYTE	W01
	BYTE		        10*seq_002_mvl/mxv
	BYTE	W01
	BYTE		        10*seq_002_mvl/mxv
	BYTE	W01
	BYTE		        12*seq_002_mvl/mxv
	BYTE	W01
	BYTE		        12*seq_002_mvl/mxv
	BYTE	W01
	BYTE		        13*seq_002_mvl/mxv
	BYTE	W01
	BYTE		        14*seq_002_mvl/mxv
	BYTE	W01
	BYTE		        15*seq_002_mvl/mxv
	BYTE	W01
	BYTE		        16*seq_002_mvl/mxv
	BYTE	W01
	BYTE		        17*seq_002_mvl/mxv
	BYTE	W01
	BYTE		        18*seq_002_mvl/mxv
	BYTE	W01
	BYTE		        19*seq_002_mvl/mxv
	BYTE	W01
	BYTE		        20*seq_002_mvl/mxv
	BYTE	W01
	BYTE		        21*seq_002_mvl/mxv
	BYTE	W01
	BYTE		        22*seq_002_mvl/mxv
	BYTE	W01
	BYTE		        24*seq_002_mvl/mxv
	BYTE	W01
	BYTE		        25*seq_002_mvl/mxv
	BYTE	W01
	BYTE		        26*seq_002_mvl/mxv
	BYTE	W01
	BYTE		        26*seq_002_mvl/mxv
	BYTE	W01
	BYTE		        28*seq_002_mvl/mxv
	BYTE	W01
	BYTE		        28*seq_002_mvl/mxv
	BYTE	W01
	BYTE		        29*seq_002_mvl/mxv
	BYTE	W01
	BYTE		        30*seq_002_mvl/mxv
	BYTE	W01
	BYTE		        31*seq_002_mvl/mxv
	BYTE	W01
	BYTE		        32*seq_002_mvl/mxv
	BYTE	W01
	BYTE		        34*seq_002_mvl/mxv
	BYTE	W01
	BYTE		        35*seq_002_mvl/mxv
	BYTE	W01
	BYTE		        36*seq_002_mvl/mxv
	BYTE	W01
	BYTE		        37*seq_002_mvl/mxv
	BYTE	W01
	BYTE		        38*seq_002_mvl/mxv
	BYTE	W01
	BYTE		        38*seq_002_mvl/mxv
	BYTE	W01
	BYTE		        40*seq_002_mvl/mxv
	BYTE	W01
	BYTE		        41*seq_002_mvl/mxv
	BYTE	W01
	BYTE		        42*seq_002_mvl/mxv
	BYTE	W01
	BYTE		        42*seq_002_mvl/mxv
	BYTE	W01
	BYTE		        44*seq_002_mvl/mxv
	BYTE	W01
	BYTE		        44*seq_002_mvl/mxv
	BYTE	W01
	BYTE		        45*seq_002_mvl/mxv
	BYTE	W01
	BYTE		        46*seq_002_mvl/mxv
	BYTE	W01
	BYTE		        47*seq_002_mvl/mxv
	BYTE	W01
	BYTE		        48*seq_002_mvl/mxv
	BYTE	W01
	BYTE		        49*seq_002_mvl/mxv
	BYTE	W01
	BYTE		        50*seq_002_mvl/mxv
	BYTE	W01
	BYTE		        51*seq_002_mvl/mxv
	BYTE	W01
	BYTE		        52*seq_002_mvl/mxv
	BYTE	W01
	BYTE		        53*seq_002_mvl/mxv
	BYTE	W01
	BYTE		        54*seq_002_mvl/mxv
	BYTE	W01
	BYTE		        54*seq_002_mvl/mxv
	BYTE	W01
	BYTE		        56*seq_002_mvl/mxv
	BYTE	W01
	BYTE		        57*seq_002_mvl/mxv
	BYTE	W01
	BYTE		        58*seq_002_mvl/mxv
	BYTE	W01
	BYTE		        58*seq_002_mvl/mxv
	BYTE	W01
	BYTE		        60*seq_002_mvl/mxv
	BYTE	W01
	BYTE		        60*seq_002_mvl/mxv
	BYTE	W01
	BYTE		        61*seq_002_mvl/mxv
	BYTE	W02
	BYTE		        62*seq_002_mvl/mxv
	BYTE	W01
	BYTE		        63*seq_002_mvl/mxv
	BYTE	W01
	BYTE		        64*seq_002_mvl/mxv
	BYTE	W01
	BYTE		        65*seq_002_mvl/mxv
	BYTE	W01
	BYTE		        66*seq_002_mvl/mxv
	BYTE	W02
	BYTE		        67*seq_002_mvl/mxv
	BYTE	W01
	BYTE		        68*seq_002_mvl/mxv
	BYTE	W02
	BYTE		        69*seq_002_mvl/mxv
	BYTE	W01
	BYTE		        70*seq_002_mvl/mxv
	BYTE	W02
	BYTE		        70*seq_002_mvl/mxv
	BYTE	W02
	BYTE		        72*seq_002_mvl/mxv
	BYTE	W02
	BYTE		        73*seq_002_mvl/mxv
	BYTE	W01
	BYTE		        74*seq_002_mvl/mxv
	BYTE	W02
	BYTE		        74*seq_002_mvl/mxv
	BYTE	W01
	BYTE		        76*seq_002_mvl/mxv
	BYTE	W15
	BYTE	PATT
	 POIN2	seq_002_1 + 0xA8
	BYTE		EOT     Cn2 
	BYTE	W01
	BYTE		VOL     4*seq_002_mvl/mxv
	BYTE		TIE     As1   v068
	BYTE	W01
	BYTE		VOL     5*seq_002_mvl/mxv
	BYTE	W01
	BYTE		        6*seq_002_mvl/mxv
	BYTE	W01
	BYTE		        6*seq_002_mvl/mxv
	BYTE	W01
	BYTE		        8*seq_002_mvl/mxv
	BYTE	W01
	BYTE		        9*seq_002_mvl/mxv
	BYTE	W01
	BYTE		        10*seq_002_mvl/mxv
	BYTE	W01
	BYTE		        10*seq_002_mvl/mxv
	BYTE	W02
	BYTE		        12*seq_002_mvl/mxv
	BYTE	W01
	BYTE		        12*seq_002_mvl/mxv
	BYTE	W01
	BYTE		        13*seq_002_mvl/mxv
	BYTE	W01
	BYTE		        14*seq_002_mvl/mxv
	BYTE	W01
	BYTE		        15*seq_002_mvl/mxv
	BYTE	W01
	BYTE		        16*seq_002_mvl/mxv
	BYTE	W01
	BYTE		        17*seq_002_mvl/mxv
	BYTE	W01
	BYTE		        18*seq_002_mvl/mxv
	BYTE	W02
	BYTE		        19*seq_002_mvl/mxv
	BYTE	W01
	BYTE		        20*seq_002_mvl/mxv
	BYTE	W01
	BYTE		        21*seq_002_mvl/mxv
	BYTE	W01
	BYTE		        22*seq_002_mvl/mxv
	BYTE	W01
	BYTE		        22*seq_002_mvl/mxv
	BYTE	W01
	BYTE		        24*seq_002_mvl/mxv
	BYTE	W01
	BYTE		        25*seq_002_mvl/mxv
	BYTE	W01
	BYTE		        26*seq_002_mvl/mxv
	BYTE	W02
	BYTE		        26*seq_002_mvl/mxv
	BYTE	W01
	BYTE		        28*seq_002_mvl/mxv
	BYTE	W01
	BYTE		        28*seq_002_mvl/mxv
	BYTE	W01
	BYTE		        29*seq_002_mvl/mxv
	BYTE	W01
	BYTE		        30*seq_002_mvl/mxv
	BYTE	W01
	BYTE		        31*seq_002_mvl/mxv
	BYTE	W01
	BYTE		        32*seq_002_mvl/mxv
	BYTE	W01
	BYTE		        33*seq_002_mvl/mxv
	BYTE	W01
	BYTE		        34*seq_002_mvl/mxv
	BYTE	W02
	BYTE		        36*seq_002_mvl/mxv
	BYTE	W02
	BYTE		        37*seq_002_mvl/mxv
	BYTE	W01
	BYTE		        38*seq_002_mvl/mxv
	BYTE	W01
	BYTE		        38*seq_002_mvl/mxv
	BYTE	W01
	BYTE		        40*seq_002_mvl/mxv
	BYTE	W01
	BYTE		        41*seq_002_mvl/mxv
	BYTE	W01
	BYTE		        42*seq_002_mvl/mxv
	BYTE	W01
	BYTE		        42*seq_002_mvl/mxv
	BYTE	W01
	BYTE		        44*seq_002_mvl/mxv
	BYTE	W02
	BYTE		        44*seq_002_mvl/mxv
	BYTE	W01
	BYTE		        45*seq_002_mvl/mxv
	BYTE	W01
	BYTE		        46*seq_002_mvl/mxv
	BYTE	W01
	BYTE		        47*seq_002_mvl/mxv
	BYTE	W01
	BYTE		        48*seq_002_mvl/mxv
	BYTE	W01
	BYTE		        49*seq_002_mvl/mxv
	BYTE	W01
	BYTE		        50*seq_002_mvl/mxv
	BYTE	W01
	BYTE		        51*seq_002_mvl/mxv
	BYTE	W02
	BYTE		        52*seq_002_mvl/mxv
	BYTE	W01
	BYTE		        53*seq_002_mvl/mxv
	BYTE	W01
	BYTE		        54*seq_002_mvl/mxv
	BYTE	W01
	BYTE		        54*seq_002_mvl/mxv
	BYTE	W01
	BYTE		        58*seq_002_mvl/mxv
	BYTE	W01
	BYTE		        58*seq_002_mvl/mxv
	BYTE	W01
	BYTE		        60*seq_002_mvl/mxv
	BYTE	W01
	BYTE		        60*seq_002_mvl/mxv
	BYTE	W01
	BYTE		        61*seq_002_mvl/mxv
	BYTE	W01
	BYTE		        62*seq_002_mvl/mxv
	BYTE	W01
	BYTE		        63*seq_002_mvl/mxv
	BYTE	W02
	BYTE		        65*seq_002_mvl/mxv
	BYTE	W01
	BYTE		        66*seq_002_mvl/mxv
	BYTE	W01
	BYTE		        67*seq_002_mvl/mxv
	BYTE	W01
	BYTE		        68*seq_002_mvl/mxv
	BYTE	W01
	BYTE		        69*seq_002_mvl/mxv
	BYTE	W01
	BYTE		        70*seq_002_mvl/mxv
	BYTE	W01
	BYTE		        70*seq_002_mvl/mxv
	BYTE	W02
	BYTE		        73*seq_002_mvl/mxv
	BYTE	W01
	BYTE		        74*seq_002_mvl/mxv
	BYTE	W01
	BYTE		        74*seq_002_mvl/mxv
	BYTE	W01
	BYTE		        76*seq_002_mvl/mxv
	BYTE	W01
	BYTE		        76*seq_002_mvl/mxv
	BYTE	W01
	BYTE		        77*seq_002_mvl/mxv
	BYTE	W01
	BYTE		        78*seq_002_mvl/mxv
	BYTE	W12
	BYTE	W96
	BYTE		        74*seq_002_mvl/mxv
	BYTE	W01
	BYTE		        73*seq_002_mvl/mxv
	BYTE	W01
	BYTE		        72*seq_002_mvl/mxv
	BYTE	W01
	BYTE		        70*seq_002_mvl/mxv
	BYTE	W02
	BYTE		        70*seq_002_mvl/mxv
	BYTE	W01
	BYTE		        68*seq_002_mvl/mxv
	BYTE	W02
	BYTE		        67*seq_002_mvl/mxv
	BYTE	W01
	BYTE		        66*seq_002_mvl/mxv
	BYTE	W01
	BYTE		        65*seq_002_mvl/mxv
	BYTE	W01
	BYTE		        64*seq_002_mvl/mxv
	BYTE	W01
	BYTE		        63*seq_002_mvl/mxv
	BYTE	W01
	BYTE		        61*seq_002_mvl/mxv
	BYTE	W01
	BYTE		        60*seq_002_mvl/mxv
	BYTE	W01
	BYTE		        60*seq_002_mvl/mxv
	BYTE	W01
	BYTE		        58*seq_002_mvl/mxv
	BYTE	W01
	BYTE		        58*seq_002_mvl/mxv
	BYTE	W01
	BYTE		        56*seq_002_mvl/mxv
	BYTE	W01
	BYTE		        54*seq_002_mvl/mxv
	BYTE	W01
	BYTE		        54*seq_002_mvl/mxv
	BYTE	W01
	BYTE		        53*seq_002_mvl/mxv
	BYTE	W01
	BYTE		        51*seq_002_mvl/mxv
	BYTE	W01
	BYTE		        49*seq_002_mvl/mxv
	BYTE	W01
	BYTE		        48*seq_002_mvl/mxv
	BYTE	W01
	BYTE		        46*seq_002_mvl/mxv
	BYTE	W01
	BYTE		        45*seq_002_mvl/mxv
	BYTE	W01
	BYTE		        44*seq_002_mvl/mxv
	BYTE	W01
	BYTE		        42*seq_002_mvl/mxv
	BYTE	W01
	BYTE		        41*seq_002_mvl/mxv
	BYTE	W01
	BYTE		        38*seq_002_mvl/mxv
	BYTE	W01
	BYTE		        37*seq_002_mvl/mxv
	BYTE	W01
	BYTE		        36*seq_002_mvl/mxv
	BYTE	W01
	BYTE		        34*seq_002_mvl/mxv
	BYTE	W01
	BYTE		        32*seq_002_mvl/mxv
	BYTE	W01
	BYTE		        30*seq_002_mvl/mxv
	BYTE	W01
	BYTE		        28*seq_002_mvl/mxv
	BYTE	W12
	BYTE		EOT
	BYTE	W96
	BYTE	W96
	BYTE	W96
	BYTE	W96
	BYTE	W03
	BYTE		VOICE   63
	BYTE		VOL     40*seq_002_mvl/mxv
	BYTE		PAN     c_v-64
	BYTE		BEND    c_v+0
	BYTE	W01
	BYTE		N24     As2   v116
	BYTE	W24
	BYTE		N44     Gn2 
	BYTE	W48
	BYTE		N11     Ds2 
	BYTE	W12
	BYTE		        Fn2 
	BYTE	W08
	BYTE	W04
	BYTE		N44     As1 
	BYTE	W48
	BYTE		N11     Cn2   v088
	BYTE	W12
	BYTE		        Dn2   v108
	BYTE	W12
	BYTE		        Ds2   v116
	BYTE	W12
	BYTE		        Gn2 
	BYTE	W08
	BYTE	W04
	BYTE		N24     Dn3 
	BYTE	W24
	BYTE		TIE     As2   v072
	BYTE	W68
	BYTE	W84
	BYTE	W02
	BYTE		VOL     38*seq_002_mvl/mxv
	BYTE	W01
	BYTE		        37*seq_002_mvl/mxv
	BYTE	W01
	BYTE		        35*seq_002_mvl/mxv
	BYTE	W01
	BYTE		        33*seq_002_mvl/mxv
	BYTE	W01
	BYTE		        31*seq_002_mvl/mxv
	BYTE	W01
	BYTE		        29*seq_002_mvl/mxv
	BYTE	W01
	BYTE		        28*seq_002_mvl/mxv
	BYTE	W01
	BYTE		        26*seq_002_mvl/mxv
	BYTE	W01
	BYTE		        25*seq_002_mvl/mxv
	BYTE	W01
	BYTE		        22*seq_002_mvl/mxv
	BYTE	W01
	BYTE		        20*seq_002_mvl/mxv
	BYTE	W01
	BYTE		        18*seq_002_mvl/mxv
	BYTE	W01
	BYTE		        16*seq_002_mvl/mxv
	BYTE	W02
	BYTE		EOT
	BYTE	W92
	BYTE	W96
	BYTE	W72
	BYTE	W72
	BYTE	W72
	BYTE	W72
	BYTE	W72
	BYTE	W72
	BYTE	W96
	BYTE	W96
	BYTE	W96
	BYTE	W96
	BYTE	W96
	BYTE	W96
	BYTE	W96
	BYTE	W96
	BYTE	W96
	BYTE	W96
	BYTE	W96
	BYTE	W01
	BYTE		VOICE   87
	BYTE		VOL     53*seq_002_mvl/mxv
	BYTE		PAN     c_v+63
	BYTE		BENDR   3
	BYTE		BEND    c_v+0
	BYTE	W92
	BYTE	W03
	BYTE	W01
	BYTE		N96     As2   v112
	BYTE	W92
	BYTE	W03
	BYTE	PEND
	BYTE	PATT
	 POIN2	seq_002_1 + 0x38B
	BYTE	W01
	BYTE		N96     As2   v100
	BYTE	W92
	BYTE	W03
	BYTE	PEND
	BYTE	PATT
	 POIN2	seq_002_1 + 0x397
	BYTE	PATT
	 POIN2	seq_002_1 + 0x397
	BYTE	PATT
	 POIN2	seq_002_1 + 0x397
	BYTE	PATT
	 POIN2	seq_002_1 + 0x397
	BYTE	PATT
	 POIN2	seq_002_1 + 0x397
	BYTE	PATT
	 POIN2	seq_002_1 + 0x397
	BYTE	PATT
	 POIN2	seq_002_1 + 0x397
	BYTE	PATT
	 POIN2	seq_002_1 + 0x397
	BYTE	PATT
	 POIN2	seq_002_1 + 0x397
	BYTE	PATT
	 POIN2	seq_002_1 + 0x397
	BYTE	PATT
	 POIN2	seq_002_1 + 0x397
	BYTE	PATT
	 POIN2	seq_002_1 + 0x397
	BYTE	W01
	BYTE		N96     As2   v092
	BYTE	W92
	BYTE	W03
	BYTE	PEND
	BYTE	PATT
	 POIN2	seq_002_1 + 0x3DA
	BYTE	W96
	BYTE	W96
	BYTE	W02
	BYTE		VOICE   89
	BYTE		VOL     80*seq_002_mvl/mxv
	BYTE		PAN     c_v+16
	BYTE		BENDR   3
	BYTE		BEND    c_v-1
	BYTE	W92
	BYTE	W02
	BYTE		N23     Dn3   v080
	BYTE	W24
	BYTE		N11     Fs2   v120
	BYTE	W12
	BYTE		        Gn2 
	BYTE	W12
	BYTE		N32     An2 
	BYTE	W36
	BYTE		N11     En3 
	BYTE	W12
	BYTE		N44     Dn3 
	BYTE	W48
	BYTE		N48     Bn2   v088
	BYTE	W16
	BYTE		VOL     78*seq_002_mvl/mxv
	BYTE	W03
	BYTE		        78*seq_002_mvl/mxv
	BYTE	W06
	BYTE		        77*seq_002_mvl/mxv
	BYTE	W02
	BYTE		        76*seq_002_mvl/mxv
	BYTE	W02
	BYTE		        75*seq_002_mvl/mxv
	BYTE	W03
	BYTE		        71*seq_002_mvl/mxv
	BYTE	W01
	BYTE		        68*seq_002_mvl/mxv
	BYTE	W01
	BYTE		        65*seq_002_mvl/mxv
	BYTE	W01
	BYTE		        61*seq_002_mvl/mxv
	BYTE	W01
	BYTE		        58*seq_002_mvl/mxv
	BYTE	W01
	BYTE		        53*seq_002_mvl/mxv
	BYTE	W01
	BYTE		        49*seq_002_mvl/mxv
	BYTE	W01
	BYTE		        46*seq_002_mvl/mxv
	BYTE	W01
	BYTE		        42*seq_002_mvl/mxv
	BYTE	W01
	BYTE		        39*seq_002_mvl/mxv
	BYTE	W01
	BYTE		        36*seq_002_mvl/mxv
	BYTE	W01
	BYTE		        32*seq_002_mvl/mxv
	BYTE	W01
	BYTE		        29*seq_002_mvl/mxv
	BYTE	W01
	BYTE		        26*seq_002_mvl/mxv
	BYTE	W01
	BYTE		        22*seq_002_mvl/mxv
	BYTE	W01
	BYTE		        18*seq_002_mvl/mxv
	BYTE	W01
	BYTE		        16*seq_002_mvl/mxv
	BYTE	W01
	BYTE		        10*seq_002_mvl/mxv
	BYTE	W01
	BYTE		        6*seq_002_mvl/mxv
	BYTE	W01
	BYTE		        5*seq_002_mvl/mxv
	BYTE	W28
	BYTE	W01
	BYTE		        80*seq_002_mvl/mxv
	BYTE	W64
	BYTE	W96
	BYTE		N22     Dn3   v108
	BYTE	W24
	BYTE		N11     Fs2 
	BYTE	W12
	BYTE		        Gn2   v096
	BYTE	W12
	BYTE		N32     An2   v084
	BYTE	W36
	BYTE		N11     En3   v092
	BYTE	W12
	BYTE		N44     Dn3   v108
	BYTE	W48
	BYTE		N21     As2   v084
	BYTE	W24
	BYTE		N10     As2   v092
	BYTE	W12
	BYTE		        Cn3   v096
	BYTE	W12
	BYTE		N22     Dn3   v108
	BYTE	W24
	BYTE		N10     Gn3 
	BYTE	W12
	BYTE		        Fn3 
	BYTE	W12
	BYTE		N32     En3 
	BYTE	W36
	BYTE		N10     Cn3 
	BYTE	W12
	BYTE		TIE     Dn3   v084
	BYTE	W56
	BYTE	W02
	BYTE		VOL     80*seq_002_mvl/mxv
	BYTE	W01
	BYTE		        78*seq_002_mvl/mxv
	BYTE	W01
	BYTE		        77*seq_002_mvl/mxv
	BYTE	W02
	BYTE		        76*seq_002_mvl/mxv
	BYTE	W01
	BYTE		        76*seq_002_mvl/mxv
	BYTE	W01
	BYTE		        74*seq_002_mvl/mxv
	BYTE	W01
	BYTE		        74*seq_002_mvl/mxv
	BYTE	W01
	BYTE		        73*seq_002_mvl/mxv
	BYTE	W01
	BYTE		        71*seq_002_mvl/mxv
	BYTE	W01
	BYTE		        70*seq_002_mvl/mxv
	BYTE	W01
	BYTE		        70*seq_002_mvl/mxv
	BYTE	W01
	BYTE		        69*seq_002_mvl/mxv
	BYTE	W01
	BYTE		        68*seq_002_mvl/mxv
	BYTE	W01
	BYTE		        66*seq_002_mvl/mxv
	BYTE	W01
	BYTE		        65*seq_002_mvl/mxv
	BYTE	W01
	BYTE		        64*seq_002_mvl/mxv
	BYTE	W01
	BYTE		        62*seq_002_mvl/mxv
	BYTE	W01
	BYTE		        61*seq_002_mvl/mxv
	BYTE	W01
	BYTE		        60*seq_002_mvl/mxv
	BYTE	W01
	BYTE		        58*seq_002_mvl/mxv
	BYTE	W01
	BYTE		        56*seq_002_mvl/mxv
	BYTE	W01
	BYTE		        56*seq_002_mvl/mxv
	BYTE	W01
	BYTE		        54*seq_002_mvl/mxv
	BYTE	W01
	BYTE		        52*seq_002_mvl/mxv
	BYTE	W01
	BYTE		        50*seq_002_mvl/mxv
	BYTE	W01
	BYTE		        47*seq_002_mvl/mxv
	BYTE	W01
	BYTE		        46*seq_002_mvl/mxv
	BYTE	W01
	BYTE		        43*seq_002_mvl/mxv
	BYTE	W01
	BYTE		        42*seq_002_mvl/mxv
	BYTE	W01
	BYTE		        39*seq_002_mvl/mxv
	BYTE	W01
	BYTE		        36*seq_002_mvl/mxv
	BYTE	W01
	BYTE		        34*seq_002_mvl/mxv
	BYTE	W01
	BYTE		        32*seq_002_mvl/mxv
	BYTE	W01
	BYTE		        28*seq_002_mvl/mxv
	BYTE	W01
	BYTE		        25*seq_002_mvl/mxv
	BYTE	W01
	BYTE		        22*seq_002_mvl/mxv
	BYTE	W01
	BYTE		        19*seq_002_mvl/mxv
	BYTE	W01
	BYTE		        14*seq_002_mvl/mxv
	BYTE	W01
	BYTE		        10*seq_002_mvl/mxv
	BYTE	W01
	BYTE		        6*seq_002_mvl/mxv
	BYTE	W01
	BYTE		        2*seq_002_mvl/mxv
	BYTE	W01
	BYTE		EOT
	BYTE		VOL     1*seq_002_mvl/mxv
	BYTE	W40
	BYTE	W01
	BYTE		        80*seq_002_mvl/mxv
	BYTE	W48
	BYTE	W03
	BYTE	W02
	BYTE		VOICE   64
	BYTE		VOL     40*seq_002_mvl/mxv
	BYTE		PAN     c_v+63
	BYTE		BEND    c_v+0
	BYTE	W92
	BYTE	W02
	BYTE	W03
	BYTE		N23     Gn3   v060
	BYTE	W24
	BYTE		N11     Bn2   v072
	BYTE	W12
	BYTE		        Cn3 
	BYTE	W12
	BYTE		N32     Dn3 
	BYTE	W36
	BYTE		N11     An3 
	BYTE	W09
	BYTE	W03
	BYTE		N48     Gn3   v064
	BYTE	W48
	BYTE		N54     En3   v052
	BYTE	W32
	BYTE		VOL     38*seq_002_mvl/mxv
	BYTE	W01
	BYTE		        36*seq_002_mvl/mxv
	BYTE	W01
	BYTE		        35*seq_002_mvl/mxv
	BYTE	W01
	BYTE		        33*seq_002_mvl/mxv
	BYTE	W01
	BYTE		        32*seq_002_mvl/mxv
	BYTE	W01
	BYTE		        30*seq_002_mvl/mxv
	BYTE	W01
	BYTE		        28*seq_002_mvl/mxv
	BYTE	W01
	BYTE		        26*seq_002_mvl/mxv
	BYTE	W01
	BYTE		        25*seq_002_mvl/mxv
	BYTE	W01
	BYTE		        23*seq_002_mvl/mxv
	BYTE	W01
	BYTE		        22*seq_002_mvl/mxv
	BYTE	W01
	BYTE		        20*seq_002_mvl/mxv
	BYTE	W01
	BYTE		        19*seq_002_mvl/mxv
	BYTE	W01
	BYTE		        17*seq_002_mvl/mxv
	BYTE	W01
	BYTE		        15*seq_002_mvl/mxv
	BYTE	W01
	BYTE		        13*seq_002_mvl/mxv
	BYTE	W01
	BYTE		        12*seq_002_mvl/mxv
	BYTE	W01
	BYTE		        10*seq_002_mvl/mxv
	BYTE	W01
	BYTE		        8*seq_002_mvl/mxv
	BYTE	W01
	BYTE		        6*seq_002_mvl/mxv
	BYTE	W01
	BYTE		        5*seq_002_mvl/mxv
	BYTE	W01
	BYTE		        4*seq_002_mvl/mxv
	BYTE	W01
	BYTE		        2*seq_002_mvl/mxv
	BYTE	W01
	BYTE		        1*seq_002_mvl/mxv
	BYTE	FINE

//*********************** Track 03 ***********************//

seq_002_2:
	BYTE	KEYSH   seq_002_key+0
	BYTE		VOICE   83
	BYTE		VOL     0*seq_002_mvl/mxv
	BYTE		PAN     c_v+26
	BYTE		BENDR   3
	BYTE		BEND    c_v+0
	BYTE	W03
	BYTE	W03
	BYTE		VOL     4*seq_002_mvl/mxv
	BYTE		TIE     Cn4   v088
	BYTE	W01
	BYTE		VOL     5*seq_002_mvl/mxv
	BYTE	W01
	BYTE		        6*seq_002_mvl/mxv
	BYTE	W01
	BYTE		        6*seq_002_mvl/mxv
	BYTE	W01
	BYTE		        8*seq_002_mvl/mxv
	BYTE	W01
	BYTE		        10*seq_002_mvl/mxv
	BYTE	W01
	BYTE		        10*seq_002_mvl/mxv
	BYTE	W01
	BYTE		        12*seq_002_mvl/mxv
	BYTE	W01
	BYTE		        12*seq_002_mvl/mxv
	BYTE	W01
	BYTE		        13*seq_002_mvl/mxv
	BYTE	W01
	BYTE		        14*seq_002_mvl/mxv
	BYTE	W01
	BYTE		        15*seq_002_mvl/mxv
	BYTE	W01
	BYTE		        16*seq_002_mvl/mxv
	BYTE	W01
	BYTE		        17*seq_002_mvl/mxv
	BYTE	W01
	BYTE		        18*seq_002_mvl/mxv
	BYTE	W01
	BYTE		        19*seq_002_mvl/mxv
	BYTE	W01
	BYTE		        20*seq_002_mvl/mxv
	BYTE	W01
	BYTE		        21*seq_002_mvl/mxv
	BYTE	W01
	BYTE		        22*seq_002_mvl/mxv
	BYTE	W01
	BYTE		        24*seq_002_mvl/mxv
	BYTE	W01
	BYTE		        25*seq_002_mvl/mxv
	BYTE	W01
	BYTE		        26*seq_002_mvl/mxv
	BYTE	W01
	BYTE		        26*seq_002_mvl/mxv
	BYTE	W01
	BYTE		        28*seq_002_mvl/mxv
	BYTE	W01
	BYTE		        28*seq_002_mvl/mxv
	BYTE	W01
	BYTE		        29*seq_002_mvl/mxv
	BYTE	W01
	BYTE		        30*seq_002_mvl/mxv
	BYTE	W01
	BYTE		        31*seq_002_mvl/mxv
	BYTE	W01
	BYTE		        32*seq_002_mvl/mxv
	BYTE	W01
	BYTE		        34*seq_002_mvl/mxv
	BYTE	W01
	BYTE		        35*seq_002_mvl/mxv
	BYTE	W01
	BYTE		        36*seq_002_mvl/mxv
	BYTE	W01
	BYTE		        37*seq_002_mvl/mxv
	BYTE	W01
	BYTE		        38*seq_002_mvl/mxv
	BYTE	W01
	BYTE		        38*seq_002_mvl/mxv
	BYTE	W01
	BYTE		        40*seq_002_mvl/mxv
	BYTE	W01
	BYTE		        41*seq_002_mvl/mxv
	BYTE	W01
	BYTE		        42*seq_002_mvl/mxv
	BYTE	W01
	BYTE		        42*seq_002_mvl/mxv
	BYTE	W01
	BYTE		        44*seq_002_mvl/mxv
	BYTE	W01
	BYTE		        44*seq_002_mvl/mxv
	BYTE	W01
	BYTE		        45*seq_002_mvl/mxv
	BYTE	W01
	BYTE		        46*seq_002_mvl/mxv
	BYTE	W01
	BYTE		        47*seq_002_mvl/mxv
	BYTE	W01
	BYTE		        48*seq_002_mvl/mxv
	BYTE	W01
	BYTE		        49*seq_002_mvl/mxv
	BYTE	W01
	BYTE		        50*seq_002_mvl/mxv
	BYTE	W01
	BYTE		        51*seq_002_mvl/mxv
	BYTE	W01
	BYTE		        52*seq_002_mvl/mxv
	BYTE	W01
	BYTE		        53*seq_002_mvl/mxv
	BYTE	W01
	BYTE		        54*seq_002_mvl/mxv
	BYTE	W01
	BYTE		        54*seq_002_mvl/mxv
	BYTE	W01
	BYTE		        56*seq_002_mvl/mxv
	BYTE	W01
	BYTE		        57*seq_002_mvl/mxv
	BYTE	W01
	BYTE		        58*seq_002_mvl/mxv
	BYTE	W01
	BYTE		        58*seq_002_mvl/mxv
	BYTE	W01
	BYTE		        60*seq_002_mvl/mxv
	BYTE	W01
	BYTE		        60*seq_002_mvl/mxv
	BYTE	W01
	BYTE		        61*seq_002_mvl/mxv
	BYTE	W02
	BYTE		        62*seq_002_mvl/mxv
	BYTE	W01
	BYTE		        63*seq_002_mvl/mxv
	BYTE	W01
	BYTE		        64*seq_002_mvl/mxv
	BYTE	W01
	BYTE		        65*seq_002_mvl/mxv
	BYTE	W01
	BYTE		        66*seq_002_mvl/mxv
	BYTE	W02
	BYTE		        67*seq_002_mvl/mxv
	BYTE	W01
	BYTE		        68*seq_002_mvl/mxv
	BYTE	W02
	BYTE		        69*seq_002_mvl/mxv
	BYTE	W01
	BYTE		        70*seq_002_mvl/mxv
	BYTE	W02
	BYTE		        70*seq_002_mvl/mxv
	BYTE	W02
	BYTE		        72*seq_002_mvl/mxv
	BYTE	W02
	BYTE		        73*seq_002_mvl/mxv
	BYTE	W01
	BYTE		        74*seq_002_mvl/mxv
	BYTE	W02
	BYTE		        74*seq_002_mvl/mxv
	BYTE	W01
	BYTE		        76*seq_002_mvl/mxv
	BYTE	W13
	BYTE	W48
	BYTE	W02
	BYTE		VOL     74*seq_002_mvl/mxv
	BYTE	W01
	BYTE		        73*seq_002_mvl/mxv
	BYTE	W01
	BYTE		        72*seq_002_mvl/mxv
	BYTE	W01
	BYTE		        70*seq_002_mvl/mxv
	BYTE	W02
	BYTE		        70*seq_002_mvl/mxv
	BYTE	W01
	BYTE		        68*seq_002_mvl/mxv
	BYTE	W02
	BYTE		        67*seq_002_mvl/mxv
	BYTE	W01
	BYTE		        66*seq_002_mvl/mxv
	BYTE	W01
	BYTE		        65*seq_002_mvl/mxv
	BYTE	W01
	BYTE		        64*seq_002_mvl/mxv
	BYTE	W01
	BYTE		        63*seq_002_mvl/mxv
	BYTE	W01
	BYTE		        61*seq_002_mvl/mxv
	BYTE	W01
	BYTE		        60*seq_002_mvl/mxv
	BYTE	W01
	BYTE		        60*seq_002_mvl/mxv
	BYTE	W01
	BYTE		        58*seq_002_mvl/mxv
	BYTE	W01
	BYTE		        58*seq_002_mvl/mxv
	BYTE	W01
	BYTE		        56*seq_002_mvl/mxv
	BYTE	W01
	BYTE		        54*seq_002_mvl/mxv
	BYTE	W01
	BYTE		        54*seq_002_mvl/mxv
	BYTE	W01
	BYTE		        53*seq_002_mvl/mxv
	BYTE	W01
	BYTE		        51*seq_002_mvl/mxv
	BYTE	W01
	BYTE		        49*seq_002_mvl/mxv
	BYTE	W01
	BYTE		        48*seq_002_mvl/mxv
	BYTE	W01
	BYTE		        46*seq_002_mvl/mxv
	BYTE	W01
	BYTE		        45*seq_002_mvl/mxv
	BYTE	W01
	BYTE		        44*seq_002_mvl/mxv
	BYTE	W01
	BYTE		        42*seq_002_mvl/mxv
	BYTE	W01
	BYTE		        41*seq_002_mvl/mxv
	BYTE	W01
	BYTE		        38*seq_002_mvl/mxv
	BYTE	W01
	BYTE		        37*seq_002_mvl/mxv
	BYTE	W01
	BYTE		        36*seq_002_mvl/mxv
	BYTE	W01
	BYTE		        34*seq_002_mvl/mxv
	BYTE	W01
	BYTE		        32*seq_002_mvl/mxv
	BYTE	W01
	BYTE		        30*seq_002_mvl/mxv
	BYTE	W01
	BYTE		        28*seq_002_mvl/mxv
	BYTE	W10
	BYTE	PEND
	BYTE	W02
	BYTE		EOT     Cn4 
	BYTE	W01
	BYTE		VOL     4*seq_002_mvl/mxv
	BYTE		TIE     As3   v088
	BYTE	W01
	BYTE		VOL     5*seq_002_mvl/mxv
	BYTE	W01
	BYTE		        6*seq_002_mvl/mxv
	BYTE	W01
	BYTE		        6*seq_002_mvl/mxv
	BYTE	W01
	BYTE		        8*seq_002_mvl/mxv
	BYTE	W01
	BYTE		        9*seq_002_mvl/mxv
	BYTE	W01
	BYTE		        10*seq_002_mvl/mxv
	BYTE	W01
	BYTE		        10*seq_002_mvl/mxv
	BYTE	W02
	BYTE		        12*seq_002_mvl/mxv
	BYTE	W01
	BYTE		        12*seq_002_mvl/mxv
	BYTE	W01
	BYTE		        13*seq_002_mvl/mxv
	BYTE	W01
	BYTE		        14*seq_002_mvl/mxv
	BYTE	W01
	BYTE		        15*seq_002_mvl/mxv
	BYTE	W01
	BYTE		        16*seq_002_mvl/mxv
	BYTE	W01
	BYTE		        17*seq_002_mvl/mxv
	BYTE	W01
	BYTE		        18*seq_002_mvl/mxv
	BYTE	W02
	BYTE		        19*seq_002_mvl/mxv
	BYTE	W01
	BYTE		        20*seq_002_mvl/mxv
	BYTE	W01
	BYTE		        21*seq_002_mvl/mxv
	BYTE	W01
	BYTE		        22*seq_002_mvl/mxv
	BYTE	W01
	BYTE		        22*seq_002_mvl/mxv
	BYTE	W01
	BYTE		        24*seq_002_mvl/mxv
	BYTE	W01
	BYTE		        25*seq_002_mvl/mxv
	BYTE	W01
	BYTE		        26*seq_002_mvl/mxv
	BYTE	W02
	BYTE		        26*seq_002_mvl/mxv
	BYTE	W01
	BYTE		        28*seq_002_mvl/mxv
	BYTE	W01
	BYTE		        28*seq_002_mvl/mxv
	BYTE	W01
	BYTE		        29*seq_002_mvl/mxv
	BYTE	W01
	BYTE		        30*seq_002_mvl/mxv
	BYTE	W01
	BYTE		        31*seq_002_mvl/mxv
	BYTE	W01
	BYTE		        32*seq_002_mvl/mxv
	BYTE	W01
	BYTE		        33*seq_002_mvl/mxv
	BYTE	W01
	BYTE		        34*seq_002_mvl/mxv
	BYTE	W02
	BYTE		        36*seq_002_mvl/mxv
	BYTE	W02
	BYTE		        37*seq_002_mvl/mxv
	BYTE	W01
	BYTE		        38*seq_002_mvl/mxv
	BYTE	W01
	BYTE		        38*seq_002_mvl/mxv
	BYTE	W01
	BYTE		        40*seq_002_mvl/mxv
	BYTE	W01
	BYTE		        41*seq_002_mvl/mxv
	BYTE	W01
	BYTE		        42*seq_002_mvl/mxv
	BYTE	W01
	BYTE		        42*seq_002_mvl/mxv
	BYTE	W01
	BYTE		        44*seq_002_mvl/mxv
	BYTE	W02
	BYTE		        44*seq_002_mvl/mxv
	BYTE	W01
	BYTE		        45*seq_002_mvl/mxv
	BYTE	W01
	BYTE		        46*seq_002_mvl/mxv
	BYTE	W01
	BYTE		        47*seq_002_mvl/mxv
	BYTE	W01
	BYTE		        48*seq_002_mvl/mxv
	BYTE	W01
	BYTE		        49*seq_002_mvl/mxv
	BYTE	W01
	BYTE		        50*seq_002_mvl/mxv
	BYTE	W01
	BYTE		        51*seq_002_mvl/mxv
	BYTE	W02
	BYTE		        52*seq_002_mvl/mxv
	BYTE	W01
	BYTE		        53*seq_002_mvl/mxv
	BYTE	W01
	BYTE		        54*seq_002_mvl/mxv
	BYTE	W01
	BYTE		        54*seq_002_mvl/mxv
	BYTE	W01
	BYTE		        58*seq_002_mvl/mxv
	BYTE	W01
	BYTE		        58*seq_002_mvl/mxv
	BYTE	W01
	BYTE		        60*seq_002_mvl/mxv
	BYTE	W01
	BYTE		        60*seq_002_mvl/mxv
	BYTE	W01
	BYTE		        61*seq_002_mvl/mxv
	BYTE	W01
	BYTE		        62*seq_002_mvl/mxv
	BYTE	W01
	BYTE		        63*seq_002_mvl/mxv
	BYTE	W02
	BYTE		        65*seq_002_mvl/mxv
	BYTE	W01
	BYTE		        66*seq_002_mvl/mxv
	BYTE	W01
	BYTE		        67*seq_002_mvl/mxv
	BYTE	W01
	BYTE		        68*seq_002_mvl/mxv
	BYTE	W01
	BYTE		        69*seq_002_mvl/mxv
	BYTE	W01
	BYTE		        70*seq_002_mvl/mxv
	BYTE	W01
	BYTE		        70*seq_002_mvl/mxv
	BYTE	W02
	BYTE		        73*seq_002_mvl/mxv
	BYTE	W01
	BYTE		        74*seq_002_mvl/mxv
	BYTE	W01
	BYTE		        74*seq_002_mvl/mxv
	BYTE	W01
	BYTE		        76*seq_002_mvl/mxv
	BYTE	W01
	BYTE		        76*seq_002_mvl/mxv
	BYTE	W01
	BYTE		        77*seq_002_mvl/mxv
	BYTE	W01
	BYTE		        78*seq_002_mvl/mxv
	BYTE	W10
	BYTE	PATT
	 POIN2	seq_002_2 + 0xA7
	BYTE	W02
	BYTE		EOT     As3 
	BYTE	W01
	BYTE		VOL     4*seq_002_mvl/mxv
	BYTE		TIE     Cn4   v068
	BYTE	W01
	BYTE		VOL     5*seq_002_mvl/mxv
	BYTE	W01
	BYTE		        6*seq_002_mvl/mxv
	BYTE	W01
	BYTE		        6*seq_002_mvl/mxv
	BYTE	W01
	BYTE		        8*seq_002_mvl/mxv
	BYTE	W01
	BYTE		        10*seq_002_mvl/mxv
	BYTE	W01
	BYTE		        10*seq_002_mvl/mxv
	BYTE	W01
	BYTE		        12*seq_002_mvl/mxv
	BYTE	W01
	BYTE		        12*seq_002_mvl/mxv
	BYTE	W01
	BYTE		        13*seq_002_mvl/mxv
	BYTE	W01
	BYTE		        14*seq_002_mvl/mxv
	BYTE	W01
	BYTE		        15*seq_002_mvl/mxv
	BYTE	W01
	BYTE		        16*seq_002_mvl/mxv
	BYTE	W01
	BYTE		        17*seq_002_mvl/mxv
	BYTE	W01
	BYTE		        18*seq_002_mvl/mxv
	BYTE	W01
	BYTE		        19*seq_002_mvl/mxv
	BYTE	W01
	BYTE		        20*seq_002_mvl/mxv
	BYTE	W01
	BYTE		        21*seq_002_mvl/mxv
	BYTE	W01
	BYTE		        22*seq_002_mvl/mxv
	BYTE	W01
	BYTE		        24*seq_002_mvl/mxv
	BYTE	W01
	BYTE		        25*seq_002_mvl/mxv
	BYTE	W01
	BYTE		        26*seq_002_mvl/mxv
	BYTE	W01
	BYTE		        26*seq_002_mvl/mxv
	BYTE	W01
	BYTE		        28*seq_002_mvl/mxv
	BYTE	W01
	BYTE		        28*seq_002_mvl/mxv
	BYTE	W01
	BYTE		        29*seq_002_mvl/mxv
	BYTE	W01
	BYTE		        30*seq_002_mvl/mxv
	BYTE	W01
	BYTE		        31*seq_002_mvl/mxv
	BYTE	W01
	BYTE		        32*seq_002_mvl/mxv
	BYTE	W01
	BYTE		        34*seq_002_mvl/mxv
	BYTE	W01
	BYTE		        35*seq_002_mvl/mxv
	BYTE	W01
	BYTE		        36*seq_002_mvl/mxv
	BYTE	W01
	BYTE		        37*seq_002_mvl/mxv
	BYTE	W01
	BYTE		        38*seq_002_mvl/mxv
	BYTE	W01
	BYTE		        38*seq_002_mvl/mxv
	BYTE	W01
	BYTE		        40*seq_002_mvl/mxv
	BYTE	W01
	BYTE		        41*seq_002_mvl/mxv
	BYTE	W01
	BYTE		        42*seq_002_mvl/mxv
	BYTE	W01
	BYTE		        42*seq_002_mvl/mxv
	BYTE	W01
	BYTE		        44*seq_002_mvl/mxv
	BYTE	W01
	BYTE		        44*seq_002_mvl/mxv
	BYTE	W01
	BYTE		        45*seq_002_mvl/mxv
	BYTE	W01
	BYTE		        46*seq_002_mvl/mxv
	BYTE	W01
	BYTE		        47*seq_002_mvl/mxv
	BYTE	W01
	BYTE		        48*seq_002_mvl/mxv
	BYTE	W01
	BYTE		        49*seq_002_mvl/mxv
	BYTE	W01
	BYTE		        50*seq_002_mvl/mxv
	BYTE	W01
	BYTE		        51*seq_002_mvl/mxv
	BYTE	W01
	BYTE		        52*seq_002_mvl/mxv
	BYTE	W01
	BYTE		        53*seq_002_mvl/mxv
	BYTE	W01
	BYTE		        54*seq_002_mvl/mxv
	BYTE	W01
	BYTE		        54*seq_002_mvl/mxv
	BYTE	W01
	BYTE		        56*seq_002_mvl/mxv
	BYTE	W01
	BYTE		        57*seq_002_mvl/mxv
	BYTE	W01
	BYTE		        58*seq_002_mvl/mxv
	BYTE	W01
	BYTE		        58*seq_002_mvl/mxv
	BYTE	W01
	BYTE		        60*seq_002_mvl/mxv
	BYTE	W01
	BYTE		        60*seq_002_mvl/mxv
	BYTE	W01
	BYTE		        61*seq_002_mvl/mxv
	BYTE	W02
	BYTE		        62*seq_002_mvl/mxv
	BYTE	W01
	BYTE		        63*seq_002_mvl/mxv
	BYTE	W01
	BYTE		        64*seq_002_mvl/mxv
	BYTE	W01
	BYTE		        65*seq_002_mvl/mxv
	BYTE	W01
	BYTE		        66*seq_002_mvl/mxv
	BYTE	W02
	BYTE		        67*seq_002_mvl/mxv
	BYTE	W01
	BYTE		        68*seq_002_mvl/mxv
	BYTE	W02
	BYTE		        69*seq_002_mvl/mxv
	BYTE	W01
	BYTE		        70*seq_002_mvl/mxv
	BYTE	W02
	BYTE		        70*seq_002_mvl/mxv
	BYTE	W02
	BYTE		        72*seq_002_mvl/mxv
	BYTE	W02
	BYTE		        73*seq_002_mvl/mxv
	BYTE	W01
	BYTE		        74*seq_002_mvl/mxv
	BYTE	W02
	BYTE		        74*seq_002_mvl/mxv
	BYTE	W01
	BYTE		        76*seq_002_mvl/mxv
	BYTE	W13
	BYTE	PATT
	 POIN2	seq_002_2 + 0xA7
	BYTE	W02
	BYTE		EOT     Cn4 
	BYTE	W01
	BYTE		VOL     4*seq_002_mvl/mxv
	BYTE		TIE     As3   v068
	BYTE	W01
	BYTE		VOL     5*seq_002_mvl/mxv
	BYTE	W01
	BYTE		        6*seq_002_mvl/mxv
	BYTE	W01
	BYTE		        6*seq_002_mvl/mxv
	BYTE	W01
	BYTE		        8*seq_002_mvl/mxv
	BYTE	W01
	BYTE		        9*seq_002_mvl/mxv
	BYTE	W01
	BYTE		        10*seq_002_mvl/mxv
	BYTE	W01
	BYTE		        10*seq_002_mvl/mxv
	BYTE	W02
	BYTE		        12*seq_002_mvl/mxv
	BYTE	W01
	BYTE		        12*seq_002_mvl/mxv
	BYTE	W01
	BYTE		        13*seq_002_mvl/mxv
	BYTE	W01
	BYTE		        14*seq_002_mvl/mxv
	BYTE	W01
	BYTE		        15*seq_002_mvl/mxv
	BYTE	W01
	BYTE		        16*seq_002_mvl/mxv
	BYTE	W01
	BYTE		        17*seq_002_mvl/mxv
	BYTE	W01
	BYTE		        18*seq_002_mvl/mxv
	BYTE	W02
	BYTE		        19*seq_002_mvl/mxv
	BYTE	W01
	BYTE		        20*seq_002_mvl/mxv
	BYTE	W01
	BYTE		        21*seq_002_mvl/mxv
	BYTE	W01
	BYTE		        22*seq_002_mvl/mxv
	BYTE	W01
	BYTE		        22*seq_002_mvl/mxv
	BYTE	W01
	BYTE		        24*seq_002_mvl/mxv
	BYTE	W01
	BYTE		        25*seq_002_mvl/mxv
	BYTE	W01
	BYTE		        26*seq_002_mvl/mxv
	BYTE	W02
	BYTE		        26*seq_002_mvl/mxv
	BYTE	W01
	BYTE		        28*seq_002_mvl/mxv
	BYTE	W01
	BYTE		        28*seq_002_mvl/mxv
	BYTE	W01
	BYTE		        29*seq_002_mvl/mxv
	BYTE	W01
	BYTE		        30*seq_002_mvl/mxv
	BYTE	W01
	BYTE		        31*seq_002_mvl/mxv
	BYTE	W01
	BYTE		        32*seq_002_mvl/mxv
	BYTE	W01
	BYTE		        33*seq_002_mvl/mxv
	BYTE	W01
	BYTE		        34*seq_002_mvl/mxv
	BYTE	W02
	BYTE		        36*seq_002_mvl/mxv
	BYTE	W02
	BYTE		        37*seq_002_mvl/mxv
	BYTE	W01
	BYTE		        38*seq_002_mvl/mxv
	BYTE	W01
	BYTE		        38*seq_002_mvl/mxv
	BYTE	W01
	BYTE		        40*seq_002_mvl/mxv
	BYTE	W01
	BYTE		        41*seq_002_mvl/mxv
	BYTE	W01
	BYTE		        42*seq_002_mvl/mxv
	BYTE	W01
	BYTE		        42*seq_002_mvl/mxv
	BYTE	W01
	BYTE		        44*seq_002_mvl/mxv
	BYTE	W02
	BYTE		        44*seq_002_mvl/mxv
	BYTE	W01
	BYTE		        45*seq_002_mvl/mxv
	BYTE	W01
	BYTE		        46*seq_002_mvl/mxv
	BYTE	W01
	BYTE		        47*seq_002_mvl/mxv
	BYTE	W01
	BYTE		        48*seq_002_mvl/mxv
	BYTE	W01
	BYTE		        49*seq_002_mvl/mxv
	BYTE	W01
	BYTE		        50*seq_002_mvl/mxv
	BYTE	W01
	BYTE		        51*seq_002_mvl/mxv
	BYTE	W02
	BYTE		        52*seq_002_mvl/mxv
	BYTE	W01
	BYTE		        53*seq_002_mvl/mxv
	BYTE	W01
	BYTE		        54*seq_002_mvl/mxv
	BYTE	W01
	BYTE		        54*seq_002_mvl/mxv
	BYTE	W01
	BYTE		        58*seq_002_mvl/mxv
	BYTE	W01
	BYTE		        58*seq_002_mvl/mxv
	BYTE	W01
	BYTE		        60*seq_002_mvl/mxv
	BYTE	W01
	BYTE		        60*seq_002_mvl/mxv
	BYTE	W01
	BYTE		        61*seq_002_mvl/mxv
	BYTE	W01
	BYTE		        62*seq_002_mvl/mxv
	BYTE	W01
	BYTE		        63*seq_002_mvl/mxv
	BYTE	W02
	BYTE		        65*seq_002_mvl/mxv
	BYTE	W01
	BYTE		        66*seq_002_mvl/mxv
	BYTE	W01
	BYTE		        67*seq_002_mvl/mxv
	BYTE	W01
	BYTE		        68*seq_002_mvl/mxv
	BYTE	W01
	BYTE		        69*seq_002_mvl/mxv
	BYTE	W01
	BYTE		        70*seq_002_mvl/mxv
	BYTE	W01
	BYTE		        70*seq_002_mvl/mxv
	BYTE	W02
	BYTE		        73*seq_002_mvl/mxv
	BYTE	W01
	BYTE		        74*seq_002_mvl/mxv
	BYTE	W01
	BYTE		        74*seq_002_mvl/mxv
	BYTE	W01
	BYTE		        76*seq_002_mvl/mxv
	BYTE	W01
	BYTE		        76*seq_002_mvl/mxv
	BYTE	W01
	BYTE		        77*seq_002_mvl/mxv
	BYTE	W01
	BYTE		        78*seq_002_mvl/mxv
	BYTE	W10
	BYTE	W96
	BYTE	W02
	BYTE		        74*seq_002_mvl/mxv
	BYTE	W01
	BYTE		        73*seq_002_mvl/mxv
	BYTE	W01
	BYTE		        72*seq_002_mvl/mxv
	BYTE	W01
	BYTE		        70*seq_002_mvl/mxv
	BYTE	W02
	BYTE		        70*seq_002_mvl/mxv
	BYTE	W01
	BYTE		        68*seq_002_mvl/mxv
	BYTE	W02
	BYTE		        67*seq_002_mvl/mxv
	BYTE	W01
	BYTE		        66*seq_002_mvl/mxv
	BYTE	W01
	BYTE		        65*seq_002_mvl/mxv
	BYTE	W01
	BYTE		        64*seq_002_mvl/mxv
	BYTE	W01
	BYTE		        63*seq_002_mvl/mxv
	BYTE	W01
	BYTE		        61*seq_002_mvl/mxv
	BYTE	W01
	BYTE		        60*seq_002_mvl/mxv
	BYTE	W01
	BYTE		        60*seq_002_mvl/mxv
	BYTE	W01
	BYTE		        58*seq_002_mvl/mxv
	BYTE	W01
	BYTE		        58*seq_002_mvl/mxv
	BYTE	W01
	BYTE		        56*seq_002_mvl/mxv
	BYTE	W01
	BYTE		        54*seq_002_mvl/mxv
	BYTE	W01
	BYTE		        54*seq_002_mvl/mxv
	BYTE	W01
	BYTE		        53*seq_002_mvl/mxv
	BYTE	W01
	BYTE		        51*seq_002_mvl/mxv
	BYTE	W01
	BYTE		        49*seq_002_mvl/mxv
	BYTE	W01
	BYTE		        48*seq_002_mvl/mxv
	BYTE	W01
	BYTE		        46*seq_002_mvl/mxv
	BYTE	W01
	BYTE		        45*seq_002_mvl/mxv
	BYTE	W01
	BYTE		        44*seq_002_mvl/mxv
	BYTE	W01
	BYTE		        42*seq_002_mvl/mxv
	BYTE	W01
	BYTE		        41*seq_002_mvl/mxv
	BYTE	W01
	BYTE		        38*seq_002_mvl/mxv
	BYTE	W01
	BYTE		        37*seq_002_mvl/mxv
	BYTE	W01
	BYTE		        36*seq_002_mvl/mxv
	BYTE	W01
	BYTE		        34*seq_002_mvl/mxv
	BYTE	W01
	BYTE		        32*seq_002_mvl/mxv
	BYTE	W01
	BYTE		        30*seq_002_mvl/mxv
	BYTE	W01
	BYTE		        28*seq_002_mvl/mxv
	BYTE	W10
	BYTE	W02
	BYTE		EOT
	BYTE	W92
	BYTE	W02
	BYTE	W96
	BYTE	W96
	BYTE	W96
	BYTE	W96
	BYTE	W96
	BYTE	W96
	BYTE	W02
	BYTE		VOICE   86
	BYTE		VOL     80*seq_002_mvl/mxv
	BYTE		PAN     c_v+46
	BYTE		BEND    c_v+0
	BYTE	W92
	BYTE	W02
	BYTE		N92     Fn2   v100
	BYTE	W96
	BYTE		        Dn2 
	BYTE	W96
	BYTE		N68     Cn2 
	BYTE	W72
	BYTE		        Fn2 
	BYTE	W72
	BYTE		TIE     Ds2 
	BYTE	W30
	BYTE		VOL     79*seq_002_mvl/mxv
	BYTE	W01
	BYTE		        78*seq_002_mvl/mxv
	BYTE	W03
	BYTE		        78*seq_002_mvl/mxv
	BYTE	W02
	BYTE		        77*seq_002_mvl/mxv
	BYTE	W02
	BYTE		        76*seq_002_mvl/mxv
	BYTE	W03
	BYTE		        75*seq_002_mvl/mxv
	BYTE	W03
	BYTE		        74*seq_002_mvl/mxv
	BYTE	W02
	BYTE		        74*seq_002_mvl/mxv
	BYTE	W02
	BYTE		        73*seq_002_mvl/mxv
	BYTE	W02
	BYTE		        72*seq_002_mvl/mxv
	BYTE	W01
	BYTE		        71*seq_002_mvl/mxv
	BYTE	W02
	BYTE		        70*seq_002_mvl/mxv
	BYTE	W02
	BYTE		        70*seq_002_mvl/mxv
	BYTE	W02
	BYTE		        69*seq_002_mvl/mxv
	BYTE	W02
	BYTE		        68*seq_002_mvl/mxv
	BYTE	W02
	BYTE		        68*seq_002_mvl/mxv
	BYTE	W01
	BYTE		        66*seq_002_mvl/mxv
	BYTE	W02
	BYTE		        66*seq_002_mvl/mxv
	BYTE	W01
	BYTE		        65*seq_002_mvl/mxv
	BYTE	W02
	BYTE		        64*seq_002_mvl/mxv
	BYTE	W01
	BYTE		        64*seq_002_mvl/mxv
	BYTE	W02
	BYTE		        63*seq_002_mvl/mxv
	BYTE	W02
	BYTE		        62*seq_002_mvl/mxv
	BYTE	W01
	BYTE		        61*seq_002_mvl/mxv
	BYTE	W01
	BYTE		        60*seq_002_mvl/mxv
	BYTE	W02
	BYTE		        60*seq_002_mvl/mxv
	BYTE	W01
	BYTE		        59*seq_002_mvl/mxv
	BYTE	W01
	BYTE		        58*seq_002_mvl/mxv
	BYTE	W01
	BYTE		        57*seq_002_mvl/mxv
	BYTE	W01
	BYTE		        56*seq_002_mvl/mxv
	BYTE	W01
	BYTE		        56*seq_002_mvl/mxv
	BYTE	W01
	BYTE		        55*seq_002_mvl/mxv
	BYTE	W01
	BYTE		        54*seq_002_mvl/mxv
	BYTE	W01
	BYTE		        54*seq_002_mvl/mxv
	BYTE	W01
	BYTE		        53*seq_002_mvl/mxv
	BYTE	W01
	BYTE		        52*seq_002_mvl/mxv
	BYTE	W01
	BYTE		        51*seq_002_mvl/mxv
	BYTE	W03
	BYTE		        51*seq_002_mvl/mxv
	BYTE	W02
	BYTE		        50*seq_002_mvl/mxv
	BYTE	W02
	BYTE		        50*seq_002_mvl/mxv
	BYTE	W03
	BYTE		        49*seq_002_mvl/mxv
	BYTE	W02
	BYTE		        48*seq_002_mvl/mxv
	BYTE	W02
	BYTE		        47*seq_002_mvl/mxv
	BYTE	W03
	BYTE		        46*seq_002_mvl/mxv
	BYTE	W03
	BYTE		        46*seq_002_mvl/mxv
	BYTE	W03
	BYTE		        45*seq_002_mvl/mxv
	BYTE	W03
	BYTE		        44*seq_002_mvl/mxv
	BYTE	W03
	BYTE		        44*seq_002_mvl/mxv
	BYTE	W02
	BYTE		        42*seq_002_mvl/mxv
	BYTE	W04
	BYTE		        42*seq_002_mvl/mxv
	BYTE	W04
	BYTE		        41*seq_002_mvl/mxv
	BYTE	W03
	BYTE		        40*seq_002_mvl/mxv
	BYTE	W03
	BYTE		        40*seq_002_mvl/mxv
	BYTE	W04
	BYTE		        39*seq_002_mvl/mxv
	BYTE	W03
	BYTE		        38*seq_002_mvl/mxv
	BYTE	W04
	BYTE		        37*seq_002_mvl/mxv
	BYTE	W01
	BYTE	W04
	BYTE		        36*seq_002_mvl/mxv
	BYTE	W04
	BYTE		        36*seq_002_mvl/mxv
	BYTE	W04
	BYTE		        35*seq_002_mvl/mxv
	BYTE	W05
	BYTE		        34*seq_002_mvl/mxv
	BYTE	W05
	BYTE		        33*seq_002_mvl/mxv
	BYTE	W05
	BYTE		        32*seq_002_mvl/mxv
	BYTE	W06
	BYTE		        32*seq_002_mvl/mxv
	BYTE	W05
	BYTE		        31*seq_002_mvl/mxv
	BYTE	W04
	BYTE		        32*seq_002_mvl/mxv
	BYTE	W01
	BYTE		        32*seq_002_mvl/mxv
	BYTE	W08
	BYTE		        31*seq_002_mvl/mxv
	BYTE	W08
	BYTE		        30*seq_002_mvl/mxv
	BYTE	W07
	BYTE		        30*seq_002_mvl/mxv
	BYTE	W06
	BYTE	W02
	BYTE		        29*seq_002_mvl/mxv
	BYTE	W08
	BYTE		        28*seq_002_mvl/mxv
	BYTE	W10
	BYTE		        27*seq_002_mvl/mxv
	BYTE	W08
	BYTE		        27*seq_002_mvl/mxv
	BYTE	W02
	BYTE		        26*seq_002_mvl/mxv
	BYTE	W03
	BYTE		        26*seq_002_mvl/mxv
	BYTE	W03
	BYTE		        25*seq_002_mvl/mxv
	BYTE	W03
	BYTE		        24*seq_002_mvl/mxv
	BYTE	W03
	BYTE		        23*seq_002_mvl/mxv
	BYTE	W02
	BYTE		        22*seq_002_mvl/mxv
	BYTE	W02
	BYTE		        22*seq_002_mvl/mxv
	BYTE	W02
	BYTE		        21*seq_002_mvl/mxv
	BYTE	W02
	BYTE		        20*seq_002_mvl/mxv
	BYTE	W02
	BYTE		        20*seq_002_mvl/mxv
	BYTE	W02
	BYTE		        18*seq_002_mvl/mxv
	BYTE	W02
	BYTE		        18*seq_002_mvl/mxv
	BYTE	W02
	BYTE		        17*seq_002_mvl/mxv
	BYTE	W02
	BYTE		        16*seq_002_mvl/mxv
	BYTE	W01
	BYTE		        16*seq_002_mvl/mxv
	BYTE	W02
	BYTE		        15*seq_002_mvl/mxv
	BYTE	W01
	BYTE		        14*seq_002_mvl/mxv
	BYTE	W02
	BYTE		        13*seq_002_mvl/mxv
	BYTE	W01
	BYTE		        12*seq_002_mvl/mxv
	BYTE	W02
	BYTE		        12*seq_002_mvl/mxv
	BYTE	W01
	BYTE		EOT
	BYTE		VOL     11*seq_002_mvl/mxv
	BYTE	W01
	BYTE		        80*seq_002_mvl/mxv
	BYTE	W01
	BYTE		N48     Fs2   v120
	BYTE	W48
	BYTE		N44     Fn2 
	BYTE	W48
	BYTE		N48     As2   v120
	BYTE	W48
	BYTE		        Gs2 
	BYTE	W48
	BYTE	PEND
	BYTE		N96     Gn2 
	BYTE	W96
	BYTE		        Fs2 
	BYTE	W96
	BYTE		        As2 
	BYTE	W96
	BYTE		N72     Cs3 
	BYTE	W72
	BYTE		N24     Cn3 
	BYTE	W24
	BYTE		        As2 
	BYTE	W24
	BYTE		        An2 
	BYTE	W24
	BYTE		        Fn2 
	BYTE	W24
	BYTE		        Ds3 
	BYTE	W24
	BYTE		N12     Cs3 
	BYTE	W12
	BYTE		        Cn3 
	BYTE	W12
	BYTE		        As2 
	BYTE	W12
	BYTE		        Gs2 
	BYTE	W12
	BYTE		N44     Fs2 
	BYTE	W48
	BYTE		N48     Ds2 
	BYTE	W48
	BYTE		        Fn2 
	BYTE	W48
	BYTE	PATT
	 POIN2	seq_002_2 + 0x40B
	BYTE		TIE     Fs2   v120
	BYTE	W96
	BYTE	W92
	BYTE	W03
	BYTE		EOT
	BYTE	W01
	BYTE	W96
	BYTE		VOICE   82
	BYTE		VOL     80*seq_002_mvl/mxv
	BYTE		PAN     c_v+0
	BYTE		BENDR   3
	BYTE		BEND    c_v+0
	BYTE	W96
	BYTE	W01
	BYTE		N03     Fn3   v096
	BYTE	W03
	BYTE		        Fn3   v048
	BYTE	W03
	BYTE		        Fn3   v040
	BYTE	W03
	BYTE		        Fn3   v016
	BYTE	W03
	BYTE		N03
	BYTE	W03
	BYTE		        Fn3   v012
	BYTE	W09
	BYTE		        An2   v096
	BYTE	W03
	BYTE		        An2   v052
	BYTE	W03
	BYTE		        An2   v044
	BYTE	W03
	BYTE		        An2   v032
	BYTE	W03
	BYTE		        As2   v096
	BYTE	W03
	BYTE		        As2   v052
	BYTE	W03
	BYTE		        As2   v044
	BYTE	W03
	BYTE		        As2   v032
	BYTE	W03
	BYTE		        Cn3   v096
	BYTE	W03
	BYTE		        Cn3   v048
	BYTE	W03
	BYTE		        Cn3   v040
	BYTE	W03
	BYTE		        Cn3   v016
	BYTE	W03
	BYTE		N03
	BYTE	W03
	BYTE		        Cn3   v012
	BYTE	W03
	BYTE		        Cn3   v008
	BYTE	W18
	BYTE		        Gs3   v096
	BYTE	W03
	BYTE		        Gs3   v052
	BYTE	W03
	BYTE		        Gs3   v044
	BYTE	W03
	BYTE		        Gs3   v032
	BYTE	W02
	BYTE	W01
	BYTE		        Fs3   v096
	BYTE	W03
	BYTE		        Fs3   v048
	BYTE	W03
	BYTE		        Fs3   v040
	BYTE	W03
	BYTE		        Fs3   v016
	BYTE	W03
	BYTE		N03
	BYTE	W03
	BYTE		        Fs3   v012
	BYTE	W03
	BYTE		        Fs3   v008
	BYTE	W30
	BYTE		        Ds3   v096
	BYTE	W03
	BYTE		        Ds3   v048
	BYTE	W03
	BYTE		        Ds3   v040
	BYTE	W03
	BYTE		        Ds3   v016
	BYTE	W03
	BYTE		N03
	BYTE	W03
	BYTE		        Ds3   v012
	BYTE	W03
	BYTE		        Ds3   v008
	BYTE	W28
	BYTE	W01
	BYTE	W01
	BYTE		        Fn3   v096
	BYTE	W03
	BYTE		        Fn3   v048
	BYTE	W03
	BYTE		        Fn3   v040
	BYTE	W03
	BYTE		        Fn3   v016
	BYTE	W03
	BYTE		N03
	BYTE	W03
	BYTE		        Fn3   v012
	BYTE	W03
	BYTE		        Fn3   v008
	BYTE	W76
	BYTE	W01
	BYTE	W96
	BYTE	W01
	BYTE		        An3   v112
	BYTE	W03
	BYTE		        An3   v060
	BYTE	W03
	BYTE		        An3   v048
	BYTE	W03
	BYTE		        An3   v020
	BYTE	W03
	BYTE		N03
	BYTE	W03
	BYTE		        An3   v016
	BYTE	W09
	BYTE		        Cs3   v112
	BYTE	W03
	BYTE		        Cs3   v060
	BYTE	W03
	BYTE		        Cs3   v052
	BYTE	W03
	BYTE		        Cs3   v036
	BYTE	W03
	BYTE		        Dn3   v112
	BYTE	W03
	BYTE		        Dn3   v060
	BYTE	W03
	BYTE		        Dn3   v052
	BYTE	W03
	BYTE		        Dn3   v036
	BYTE	W03
	BYTE		        En3   v112
	BYTE	W03
	BYTE		        En3   v060
	BYTE	W03
	BYTE		        En3   v048
	BYTE	W03
	BYTE		        En3   v020
	BYTE	W03
	BYTE		N03
	BYTE	W03
	BYTE		        En3   v016
	BYTE	W03
	BYTE		        En3   v008
	BYTE	W18
	BYTE		        Cn4   v088
	BYTE	W03
	BYTE		        Cn4   v060
	BYTE	W03
	BYTE		        Cn4   v052
	BYTE	W03
	BYTE		        Cn4   v036
	BYTE	W02
	BYTE	W01
	BYTE		        As3   v088
	BYTE	W03
	BYTE		        As3   v060
	BYTE	W03
	BYTE		        As3   v048
	BYTE	W03
	BYTE		        As3   v020
	BYTE	W03
	BYTE		N03
	BYTE	W03
	BYTE		        As3   v016
	BYTE	W03
	BYTE		        As3   v008
	BYTE	W30
	BYTE		        Fs3   v112
	BYTE	W03
	BYTE		        Fs3   v060
	BYTE	W03
	BYTE		        Fs3   v048
	BYTE	W03
	BYTE		        Fs3   v020
	BYTE	W03
	BYTE		N03
	BYTE	W03
	BYTE		        Fs3   v016
	BYTE	W03
	BYTE		        Fs3   v008
	BYTE	W28
	BYTE	W01
	BYTE	W01
	BYTE		        An3   v112
	BYTE	W03
	BYTE		        An3   v060
	BYTE	W03
	BYTE		        An3   v048
	BYTE	W03
	BYTE		        An3   v020
	BYTE	W03
	BYTE		N03
	BYTE	W03
	BYTE		        An3   v016
	BYTE	W03
	BYTE		        An3   v008
	BYTE	W76
	BYTE	W01
	BYTE	W96
	BYTE	W96
	BYTE	W96
	BYTE	W96
	BYTE	W96
	BYTE	W96
	BYTE	W96
	BYTE	W02
	BYTE		VOICE   71
	BYTE		VOL     66*seq_002_mvl/mxv
	BYTE		PAN     c_v+0
	BYTE		BENDR   3
	BYTE		BEND    c_v+0
	BYTE	W92
	BYTE	W02
	BYTE		N92     Fs4   v080
	BYTE	W96
	BYTE		N92
	BYTE	W96
	BYTE		N92
	BYTE	W06
	BYTE		VOL     66*seq_002_mvl/mxv
	BYTE	W01
	BYTE		        66*seq_002_mvl/mxv
	BYTE	W02
	BYTE		        65*seq_002_mvl/mxv
	BYTE	W02
	BYTE		        64*seq_002_mvl/mxv
	BYTE	W02
	BYTE		        64*seq_002_mvl/mxv
	BYTE	W01
	BYTE		        63*seq_002_mvl/mxv
	BYTE	W02
	BYTE		        62*seq_002_mvl/mxv
	BYTE	W01
	BYTE		        61*seq_002_mvl/mxv
	BYTE	W02
	BYTE		        60*seq_002_mvl/mxv
	BYTE	W02
	BYTE		        60*seq_002_mvl/mxv
	BYTE	W02
	BYTE		        59*seq_002_mvl/mxv
	BYTE	W01
	BYTE		        58*seq_002_mvl/mxv
	BYTE	W02
	BYTE		        57*seq_002_mvl/mxv
	BYTE	W02
	BYTE		        56*seq_002_mvl/mxv
	BYTE	W01
	BYTE		        56*seq_002_mvl/mxv
	BYTE	W02
	BYTE		        55*seq_002_mvl/mxv
	BYTE	W02
	BYTE		        54*seq_002_mvl/mxv
	BYTE	W01
	BYTE		        54*seq_002_mvl/mxv
	BYTE	W02
	BYTE		        53*seq_002_mvl/mxv
	BYTE	W02
	BYTE		        52*seq_002_mvl/mxv
	BYTE	W01
	BYTE		        51*seq_002_mvl/mxv
	BYTE	W02
	BYTE		        50*seq_002_mvl/mxv
	BYTE	W02
	BYTE		        50*seq_002_mvl/mxv
	BYTE	W02
	BYTE		        49*seq_002_mvl/mxv
	BYTE	W01
	BYTE		        48*seq_002_mvl/mxv
	BYTE	W02
	BYTE		        47*seq_002_mvl/mxv
	BYTE	W01
	BYTE		        46*seq_002_mvl/mxv
	BYTE	W02
	BYTE		        46*seq_002_mvl/mxv
	BYTE	W02
	BYTE		        45*seq_002_mvl/mxv
	BYTE	W02
	BYTE		        44*seq_002_mvl/mxv
	BYTE	W01
	BYTE		        44*seq_002_mvl/mxv
	BYTE	W02
	BYTE		        42*seq_002_mvl/mxv
	BYTE	W02
	BYTE		        42*seq_002_mvl/mxv
	BYTE	W01
	BYTE		        41*seq_002_mvl/mxv
	BYTE	W02
	BYTE		        40*seq_002_mvl/mxv
	BYTE	W02
	BYTE		        40*seq_002_mvl/mxv
	BYTE	W01
	BYTE		        39*seq_002_mvl/mxv
	BYTE	W02
	BYTE		        38*seq_002_mvl/mxv
	BYTE	W02
	BYTE		        37*seq_002_mvl/mxv
	BYTE	W01
	BYTE		        36*seq_002_mvl/mxv
	BYTE	W02
	BYTE		        36*seq_002_mvl/mxv
	BYTE	W02
	BYTE		        35*seq_002_mvl/mxv
	BYTE	W02
	BYTE		        34*seq_002_mvl/mxv
	BYTE	W01
	BYTE		        33*seq_002_mvl/mxv
	BYTE	W02
	BYTE		        32*seq_002_mvl/mxv
	BYTE	W01
	BYTE		        32*seq_002_mvl/mxv
	BYTE	W02
	BYTE		        31*seq_002_mvl/mxv
	BYTE	W02
	BYTE		        30*seq_002_mvl/mxv
	BYTE	W02
	BYTE		        30*seq_002_mvl/mxv
	BYTE	W01
	BYTE		        29*seq_002_mvl/mxv
	BYTE	W02
	BYTE		        28*seq_002_mvl/mxv
	BYTE	W02
	BYTE		        27*seq_002_mvl/mxv
	BYTE	W01
	BYTE		        26*seq_002_mvl/mxv
	BYTE	W02
	BYTE		        26*seq_002_mvl/mxv
	BYTE	W01
	BYTE	W96
	BYTE	W96
	BYTE	W96
	BYTE	W96
	BYTE	W96
	BYTE	W96
	BYTE	W96
	BYTE	W96
	BYTE	W96
	BYTE	W96
	BYTE	W96
	BYTE	W96
	BYTE	FINE

//*********************** Track 04 ***********************//

seq_002_3:
	BYTE	KEYSH   seq_002_key+0
	BYTE	W03
	BYTE	W03
	BYTE		VOICE   83
	BYTE		VOL     0*seq_002_mvl/mxv
	BYTE		PAN     c_v-64
	BYTE		BENDR   3
	BYTE		BEND    c_v+0
	BYTE	W03
	BYTE		VOL     4*seq_002_mvl/mxv
	BYTE		TIE     Cn4   v052
	BYTE	W01
	BYTE		VOL     5*seq_002_mvl/mxv
	BYTE	W01
	BYTE		        6*seq_002_mvl/mxv
	BYTE	W01
	BYTE		        6*seq_002_mvl/mxv
	BYTE	W01
	BYTE		        8*seq_002_mvl/mxv
	BYTE	W01
	BYTE		        10*seq_002_mvl/mxv
	BYTE	W01
	BYTE		        10*seq_002_mvl/mxv
	BYTE	W01
	BYTE		        12*seq_002_mvl/mxv
	BYTE	W01
	BYTE		        12*seq_002_mvl/mxv
	BYTE	W01
	BYTE		        13*seq_002_mvl/mxv
	BYTE	W01
	BYTE		        14*seq_002_mvl/mxv
	BYTE	W01
	BYTE		        15*seq_002_mvl/mxv
	BYTE	W01
	BYTE		        16*seq_002_mvl/mxv
	BYTE	W01
	BYTE		        17*seq_002_mvl/mxv
	BYTE	W01
	BYTE		        18*seq_002_mvl/mxv
	BYTE	W01
	BYTE		        19*seq_002_mvl/mxv
	BYTE	W01
	BYTE		        20*seq_002_mvl/mxv
	BYTE	W01
	BYTE		        21*seq_002_mvl/mxv
	BYTE	W01
	BYTE		        22*seq_002_mvl/mxv
	BYTE	W01
	BYTE		        24*seq_002_mvl/mxv
	BYTE	W01
	BYTE		        25*seq_002_mvl/mxv
	BYTE	W01
	BYTE		        26*seq_002_mvl/mxv
	BYTE	W01
	BYTE		        26*seq_002_mvl/mxv
	BYTE	W01
	BYTE		        28*seq_002_mvl/mxv
	BYTE	W01
	BYTE		        28*seq_002_mvl/mxv
	BYTE	W01
	BYTE		        29*seq_002_mvl/mxv
	BYTE	W01
	BYTE		        30*seq_002_mvl/mxv
	BYTE	W01
	BYTE		        31*seq_002_mvl/mxv
	BYTE	W01
	BYTE		        32*seq_002_mvl/mxv
	BYTE	W01
	BYTE		        34*seq_002_mvl/mxv
	BYTE	W01
	BYTE		        35*seq_002_mvl/mxv
	BYTE	W01
	BYTE		        36*seq_002_mvl/mxv
	BYTE	W01
	BYTE		        37*seq_002_mvl/mxv
	BYTE	W01
	BYTE		        38*seq_002_mvl/mxv
	BYTE	W01
	BYTE		        38*seq_002_mvl/mxv
	BYTE	W01
	BYTE		        40*seq_002_mvl/mxv
	BYTE	W01
	BYTE		        41*seq_002_mvl/mxv
	BYTE	W01
	BYTE		        42*seq_002_mvl/mxv
	BYTE	W01
	BYTE		        42*seq_002_mvl/mxv
	BYTE	W01
	BYTE		        44*seq_002_mvl/mxv
	BYTE	W01
	BYTE		        44*seq_002_mvl/mxv
	BYTE	W01
	BYTE		        45*seq_002_mvl/mxv
	BYTE	W01
	BYTE		        46*seq_002_mvl/mxv
	BYTE	W01
	BYTE		        47*seq_002_mvl/mxv
	BYTE	W01
	BYTE		        48*seq_002_mvl/mxv
	BYTE	W01
	BYTE		        49*seq_002_mvl/mxv
	BYTE	W01
	BYTE		        50*seq_002_mvl/mxv
	BYTE	W01
	BYTE		        51*seq_002_mvl/mxv
	BYTE	W01
	BYTE		        52*seq_002_mvl/mxv
	BYTE	W01
	BYTE		        53*seq_002_mvl/mxv
	BYTE	W01
	BYTE		        54*seq_002_mvl/mxv
	BYTE	W01
	BYTE		        54*seq_002_mvl/mxv
	BYTE	W01
	BYTE		        56*seq_002_mvl/mxv
	BYTE	W01
	BYTE		        57*seq_002_mvl/mxv
	BYTE	W01
	BYTE		        58*seq_002_mvl/mxv
	BYTE	W01
	BYTE		        58*seq_002_mvl/mxv
	BYTE	W01
	BYTE		        60*seq_002_mvl/mxv
	BYTE	W01
	BYTE		        60*seq_002_mvl/mxv
	BYTE	W01
	BYTE		        61*seq_002_mvl/mxv
	BYTE	W02
	BYTE		        62*seq_002_mvl/mxv
	BYTE	W01
	BYTE		        63*seq_002_mvl/mxv
	BYTE	W01
	BYTE		        64*seq_002_mvl/mxv
	BYTE	W01
	BYTE		        65*seq_002_mvl/mxv
	BYTE	W01
	BYTE		        66*seq_002_mvl/mxv
	BYTE	W02
	BYTE		        67*seq_002_mvl/mxv
	BYTE	W01
	BYTE		        68*seq_002_mvl/mxv
	BYTE	W02
	BYTE		        69*seq_002_mvl/mxv
	BYTE	W01
	BYTE		        70*seq_002_mvl/mxv
	BYTE	W02
	BYTE		        70*seq_002_mvl/mxv
	BYTE	W02
	BYTE		        72*seq_002_mvl/mxv
	BYTE	W02
	BYTE		        73*seq_002_mvl/mxv
	BYTE	W01
	BYTE		        74*seq_002_mvl/mxv
	BYTE	W02
	BYTE		        74*seq_002_mvl/mxv
	BYTE	W01
	BYTE		        76*seq_002_mvl/mxv
	BYTE	W10
	BYTE	W52
	BYTE	W01
	BYTE		VOL     74*seq_002_mvl/mxv
	BYTE	W01
	BYTE		        73*seq_002_mvl/mxv
	BYTE	W01
	BYTE		        72*seq_002_mvl/mxv
	BYTE	W01
	BYTE		        70*seq_002_mvl/mxv
	BYTE	W02
	BYTE		        70*seq_002_mvl/mxv
	BYTE	W01
	BYTE		        68*seq_002_mvl/mxv
	BYTE	W02
	BYTE		        67*seq_002_mvl/mxv
	BYTE	W01
	BYTE		        66*seq_002_mvl/mxv
	BYTE	W01
	BYTE		        65*seq_002_mvl/mxv
	BYTE	W01
	BYTE		        64*seq_002_mvl/mxv
	BYTE	W01
	BYTE		        63*seq_002_mvl/mxv
	BYTE	W01
	BYTE		        61*seq_002_mvl/mxv
	BYTE	W01
	BYTE		        60*seq_002_mvl/mxv
	BYTE	W01
	BYTE		        60*seq_002_mvl/mxv
	BYTE	W01
	BYTE		        58*seq_002_mvl/mxv
	BYTE	W01
	BYTE		        58*seq_002_mvl/mxv
	BYTE	W01
	BYTE		        56*seq_002_mvl/mxv
	BYTE	W01
	BYTE		        54*seq_002_mvl/mxv
	BYTE	W01
	BYTE		        54*seq_002_mvl/mxv
	BYTE	W01
	BYTE		        53*seq_002_mvl/mxv
	BYTE	W01
	BYTE		        51*seq_002_mvl/mxv
	BYTE	W01
	BYTE		        49*seq_002_mvl/mxv
	BYTE	W01
	BYTE		        48*seq_002_mvl/mxv
	BYTE	W01
	BYTE		        46*seq_002_mvl/mxv
	BYTE	W01
	BYTE		        45*seq_002_mvl/mxv
	BYTE	W01
	BYTE		        44*seq_002_mvl/mxv
	BYTE	W01
	BYTE		        42*seq_002_mvl/mxv
	BYTE	W01
	BYTE		        41*seq_002_mvl/mxv
	BYTE	W01
	BYTE		        38*seq_002_mvl/mxv
	BYTE	W01
	BYTE		        37*seq_002_mvl/mxv
	BYTE	W01
	BYTE		        36*seq_002_mvl/mxv
	BYTE	W01
	BYTE		        34*seq_002_mvl/mxv
	BYTE	W01
	BYTE		        32*seq_002_mvl/mxv
	BYTE	W01
	BYTE		        30*seq_002_mvl/mxv
	BYTE	W01
	BYTE		        28*seq_002_mvl/mxv
	BYTE	W07
	BYTE	PEND
	BYTE	W05
	BYTE		EOT     Cn4 
	BYTE	W01
	BYTE		VOL     4*seq_002_mvl/mxv
	BYTE		TIE     As3   v052
	BYTE	W01
	BYTE		VOL     5*seq_002_mvl/mxv
	BYTE	W01
	BYTE		        6*seq_002_mvl/mxv
	BYTE	W01
	BYTE		        6*seq_002_mvl/mxv
	BYTE	W01
	BYTE		        8*seq_002_mvl/mxv
	BYTE	W01
	BYTE		        9*seq_002_mvl/mxv
	BYTE	W01
	BYTE		        10*seq_002_mvl/mxv
	BYTE	W01
	BYTE		        10*seq_002_mvl/mxv
	BYTE	W02
	BYTE		        12*seq_002_mvl/mxv
	BYTE	W01
	BYTE		        12*seq_002_mvl/mxv
	BYTE	W01
	BYTE		        13*seq_002_mvl/mxv
	BYTE	W01
	BYTE		        14*seq_002_mvl/mxv
	BYTE	W01
	BYTE		        15*seq_002_mvl/mxv
	BYTE	W01
	BYTE		        16*seq_002_mvl/mxv
	BYTE	W01
	BYTE		        17*seq_002_mvl/mxv
	BYTE	W01
	BYTE		        18*seq_002_mvl/mxv
	BYTE	W02
	BYTE		        19*seq_002_mvl/mxv
	BYTE	W01
	BYTE		        20*seq_002_mvl/mxv
	BYTE	W01
	BYTE		        21*seq_002_mvl/mxv
	BYTE	W01
	BYTE		        22*seq_002_mvl/mxv
	BYTE	W01
	BYTE		        22*seq_002_mvl/mxv
	BYTE	W01
	BYTE		        24*seq_002_mvl/mxv
	BYTE	W01
	BYTE		        25*seq_002_mvl/mxv
	BYTE	W01
	BYTE		        26*seq_002_mvl/mxv
	BYTE	W02
	BYTE		        26*seq_002_mvl/mxv
	BYTE	W01
	BYTE		        28*seq_002_mvl/mxv
	BYTE	W01
	BYTE		        28*seq_002_mvl/mxv
	BYTE	W01
	BYTE		        29*seq_002_mvl/mxv
	BYTE	W01
	BYTE		        30*seq_002_mvl/mxv
	BYTE	W01
	BYTE		        31*seq_002_mvl/mxv
	BYTE	W01
	BYTE		        32*seq_002_mvl/mxv
	BYTE	W01
	BYTE		        33*seq_002_mvl/mxv
	BYTE	W01
	BYTE		        34*seq_002_mvl/mxv
	BYTE	W02
	BYTE		        36*seq_002_mvl/mxv
	BYTE	W02
	BYTE		        37*seq_002_mvl/mxv
	BYTE	W01
	BYTE		        38*seq_002_mvl/mxv
	BYTE	W01
	BYTE		        38*seq_002_mvl/mxv
	BYTE	W01
	BYTE		        40*seq_002_mvl/mxv
	BYTE	W01
	BYTE		        41*seq_002_mvl/mxv
	BYTE	W01
	BYTE		        42*seq_002_mvl/mxv
	BYTE	W01
	BYTE		        42*seq_002_mvl/mxv
	BYTE	W01
	BYTE		        44*seq_002_mvl/mxv
	BYTE	W02
	BYTE		        44*seq_002_mvl/mxv
	BYTE	W01
	BYTE		        45*seq_002_mvl/mxv
	BYTE	W01
	BYTE		        46*seq_002_mvl/mxv
	BYTE	W01
	BYTE		        47*seq_002_mvl/mxv
	BYTE	W01
	BYTE		        48*seq_002_mvl/mxv
	BYTE	W01
	BYTE		        49*seq_002_mvl/mxv
	BYTE	W01
	BYTE		        50*seq_002_mvl/mxv
	BYTE	W01
	BYTE		        51*seq_002_mvl/mxv
	BYTE	W02
	BYTE		        52*seq_002_mvl/mxv
	BYTE	W01
	BYTE		        53*seq_002_mvl/mxv
	BYTE	W01
	BYTE		        54*seq_002_mvl/mxv
	BYTE	W01
	BYTE		        54*seq_002_mvl/mxv
	BYTE	W01
	BYTE		        58*seq_002_mvl/mxv
	BYTE	W01
	BYTE		        58*seq_002_mvl/mxv
	BYTE	W01
	BYTE		        60*seq_002_mvl/mxv
	BYTE	W01
	BYTE		        60*seq_002_mvl/mxv
	BYTE	W01
	BYTE		        61*seq_002_mvl/mxv
	BYTE	W01
	BYTE		        62*seq_002_mvl/mxv
	BYTE	W01
	BYTE		        63*seq_002_mvl/mxv
	BYTE	W02
	BYTE		        65*seq_002_mvl/mxv
	BYTE	W01
	BYTE		        66*seq_002_mvl/mxv
	BYTE	W01
	BYTE		        67*seq_002_mvl/mxv
	BYTE	W01
	BYTE		        68*seq_002_mvl/mxv
	BYTE	W01
	BYTE		        69*seq_002_mvl/mxv
	BYTE	W01
	BYTE		        70*seq_002_mvl/mxv
	BYTE	W01
	BYTE		        70*seq_002_mvl/mxv
	BYTE	W02
	BYTE		        73*seq_002_mvl/mxv
	BYTE	W01
	BYTE		        74*seq_002_mvl/mxv
	BYTE	W01
	BYTE		        74*seq_002_mvl/mxv
	BYTE	W01
	BYTE		        76*seq_002_mvl/mxv
	BYTE	W01
	BYTE		        76*seq_002_mvl/mxv
	BYTE	W01
	BYTE		        77*seq_002_mvl/mxv
	BYTE	W01
	BYTE		        78*seq_002_mvl/mxv
	BYTE	W07
	BYTE	PATT
	 POIN2	seq_002_3 + 0xA8
	BYTE	W05
	BYTE		EOT     As3 
	BYTE	W01
	BYTE		VOL     4*seq_002_mvl/mxv
	BYTE		TIE     Cn4   v040
	BYTE	W01
	BYTE		VOL     5*seq_002_mvl/mxv
	BYTE	W01
	BYTE		        6*seq_002_mvl/mxv
	BYTE	W01
	BYTE		        6*seq_002_mvl/mxv
	BYTE	W01
	BYTE		        8*seq_002_mvl/mxv
	BYTE	W01
	BYTE		        10*seq_002_mvl/mxv
	BYTE	W01
	BYTE		        10*seq_002_mvl/mxv
	BYTE	W01
	BYTE		        12*seq_002_mvl/mxv
	BYTE	W01
	BYTE		        12*seq_002_mvl/mxv
	BYTE	W01
	BYTE		        13*seq_002_mvl/mxv
	BYTE	W01
	BYTE		        14*seq_002_mvl/mxv
	BYTE	W01
	BYTE		        15*seq_002_mvl/mxv
	BYTE	W01
	BYTE		        16*seq_002_mvl/mxv
	BYTE	W01
	BYTE		        17*seq_002_mvl/mxv
	BYTE	W01
	BYTE		        18*seq_002_mvl/mxv
	BYTE	W01
	BYTE		        19*seq_002_mvl/mxv
	BYTE	W01
	BYTE		        20*seq_002_mvl/mxv
	BYTE	W01
	BYTE		        21*seq_002_mvl/mxv
	BYTE	W01
	BYTE		        22*seq_002_mvl/mxv
	BYTE	W01
	BYTE		        24*seq_002_mvl/mxv
	BYTE	W01
	BYTE		        25*seq_002_mvl/mxv
	BYTE	W01
	BYTE		        26*seq_002_mvl/mxv
	BYTE	W01
	BYTE		        26*seq_002_mvl/mxv
	BYTE	W01
	BYTE		        28*seq_002_mvl/mxv
	BYTE	W01
	BYTE		        28*seq_002_mvl/mxv
	BYTE	W01
	BYTE		        29*seq_002_mvl/mxv
	BYTE	W01
	BYTE		        30*seq_002_mvl/mxv
	BYTE	W01
	BYTE		        31*seq_002_mvl/mxv
	BYTE	W01
	BYTE		        32*seq_002_mvl/mxv
	BYTE	W01
	BYTE		        34*seq_002_mvl/mxv
	BYTE	W01
	BYTE		        35*seq_002_mvl/mxv
	BYTE	W01
	BYTE		        36*seq_002_mvl/mxv
	BYTE	W01
	BYTE		        37*seq_002_mvl/mxv
	BYTE	W01
	BYTE		        38*seq_002_mvl/mxv
	BYTE	W01
	BYTE		        38*seq_002_mvl/mxv
	BYTE	W01
	BYTE		        40*seq_002_mvl/mxv
	BYTE	W01
	BYTE		        41*seq_002_mvl/mxv
	BYTE	W01
	BYTE		        42*seq_002_mvl/mxv
	BYTE	W01
	BYTE		        42*seq_002_mvl/mxv
	BYTE	W01
	BYTE		        44*seq_002_mvl/mxv
	BYTE	W01
	BYTE		        44*seq_002_mvl/mxv
	BYTE	W01
	BYTE		        45*seq_002_mvl/mxv
	BYTE	W01
	BYTE		        46*seq_002_mvl/mxv
	BYTE	W01
	BYTE		        47*seq_002_mvl/mxv
	BYTE	W01
	BYTE		        48*seq_002_mvl/mxv
	BYTE	W01
	BYTE		        49*seq_002_mvl/mxv
	BYTE	W01
	BYTE		        50*seq_002_mvl/mxv
	BYTE	W01
	BYTE		        51*seq_002_mvl/mxv
	BYTE	W01
	BYTE		        52*seq_002_mvl/mxv
	BYTE	W01
	BYTE		        53*seq_002_mvl/mxv
	BYTE	W01
	BYTE		        54*seq_002_mvl/mxv
	BYTE	W01
	BYTE		        54*seq_002_mvl/mxv
	BYTE	W01
	BYTE		        56*seq_002_mvl/mxv
	BYTE	W01
	BYTE		        57*seq_002_mvl/mxv
	BYTE	W01
	BYTE		        58*seq_002_mvl/mxv
	BYTE	W01
	BYTE		        58*seq_002_mvl/mxv
	BYTE	W01
	BYTE		        60*seq_002_mvl/mxv
	BYTE	W01
	BYTE		        60*seq_002_mvl/mxv
	BYTE	W01
	BYTE		        61*seq_002_mvl/mxv
	BYTE	W02
	BYTE		        62*seq_002_mvl/mxv
	BYTE	W01
	BYTE		        63*seq_002_mvl/mxv
	BYTE	W01
	BYTE		        64*seq_002_mvl/mxv
	BYTE	W01
	BYTE		        65*seq_002_mvl/mxv
	BYTE	W01
	BYTE		        66*seq_002_mvl/mxv
	BYTE	W02
	BYTE		        67*seq_002_mvl/mxv
	BYTE	W01
	BYTE		        68*seq_002_mvl/mxv
	BYTE	W02
	BYTE		        69*seq_002_mvl/mxv
	BYTE	W01
	BYTE		        70*seq_002_mvl/mxv
	BYTE	W02
	BYTE		        70*seq_002_mvl/mxv
	BYTE	W02
	BYTE		        72*seq_002_mvl/mxv
	BYTE	W02
	BYTE		        73*seq_002_mvl/mxv
	BYTE	W01
	BYTE		        74*seq_002_mvl/mxv
	BYTE	W02
	BYTE		        74*seq_002_mvl/mxv
	BYTE	W01
	BYTE		        76*seq_002_mvl/mxv
	BYTE	W10
	BYTE	PATT
	 POIN2	seq_002_3 + 0xA8
	BYTE	W05
	BYTE		EOT     Cn4 
	BYTE	W01
	BYTE		VOL     4*seq_002_mvl/mxv
	BYTE		TIE     As3   v040
	BYTE	W01
	BYTE		VOL     5*seq_002_mvl/mxv
	BYTE	W01
	BYTE		        6*seq_002_mvl/mxv
	BYTE	W01
	BYTE		        6*seq_002_mvl/mxv
	BYTE	W01
	BYTE		        8*seq_002_mvl/mxv
	BYTE	W01
	BYTE		        9*seq_002_mvl/mxv
	BYTE	W01
	BYTE		        10*seq_002_mvl/mxv
	BYTE	W01
	BYTE		        10*seq_002_mvl/mxv
	BYTE	W02
	BYTE		        12*seq_002_mvl/mxv
	BYTE	W01
	BYTE		        12*seq_002_mvl/mxv
	BYTE	W01
	BYTE		        13*seq_002_mvl/mxv
	BYTE	W01
	BYTE		        14*seq_002_mvl/mxv
	BYTE	W01
	BYTE		        15*seq_002_mvl/mxv
	BYTE	W01
	BYTE		        16*seq_002_mvl/mxv
	BYTE	W01
	BYTE		        17*seq_002_mvl/mxv
	BYTE	W01
	BYTE		        18*seq_002_mvl/mxv
	BYTE	W02
	BYTE		        19*seq_002_mvl/mxv
	BYTE	W01
	BYTE		        20*seq_002_mvl/mxv
	BYTE	W01
	BYTE		        21*seq_002_mvl/mxv
	BYTE	W01
	BYTE		        22*seq_002_mvl/mxv
	BYTE	W01
	BYTE		        22*seq_002_mvl/mxv
	BYTE	W01
	BYTE		        24*seq_002_mvl/mxv
	BYTE	W01
	BYTE		        25*seq_002_mvl/mxv
	BYTE	W01
	BYTE		        26*seq_002_mvl/mxv
	BYTE	W02
	BYTE		        26*seq_002_mvl/mxv
	BYTE	W01
	BYTE		        28*seq_002_mvl/mxv
	BYTE	W01
	BYTE		        28*seq_002_mvl/mxv
	BYTE	W01
	BYTE		        29*seq_002_mvl/mxv
	BYTE	W01
	BYTE		        30*seq_002_mvl/mxv
	BYTE	W01
	BYTE		        31*seq_002_mvl/mxv
	BYTE	W01
	BYTE		        32*seq_002_mvl/mxv
	BYTE	W01
	BYTE		        33*seq_002_mvl/mxv
	BYTE	W01
	BYTE		        34*seq_002_mvl/mxv
	BYTE	W02
	BYTE		        36*seq_002_mvl/mxv
	BYTE	W02
	BYTE		        37*seq_002_mvl/mxv
	BYTE	W01
	BYTE		        38*seq_002_mvl/mxv
	BYTE	W01
	BYTE		        38*seq_002_mvl/mxv
	BYTE	W01
	BYTE		        40*seq_002_mvl/mxv
	BYTE	W01
	BYTE		        41*seq_002_mvl/mxv
	BYTE	W01
	BYTE		        42*seq_002_mvl/mxv
	BYTE	W01
	BYTE		        42*seq_002_mvl/mxv
	BYTE	W01
	BYTE		        44*seq_002_mvl/mxv
	BYTE	W02
	BYTE		        44*seq_002_mvl/mxv
	BYTE	W01
	BYTE		        45*seq_002_mvl/mxv
	BYTE	W01
	BYTE		        46*seq_002_mvl/mxv
	BYTE	W01
	BYTE		        47*seq_002_mvl/mxv
	BYTE	W01
	BYTE		        48*seq_002_mvl/mxv
	BYTE	W01
	BYTE		        49*seq_002_mvl/mxv
	BYTE	W01
	BYTE		        50*seq_002_mvl/mxv
	BYTE	W01
	BYTE		        51*seq_002_mvl/mxv
	BYTE	W02
	BYTE		        52*seq_002_mvl/mxv
	BYTE	W01
	BYTE		        53*seq_002_mvl/mxv
	BYTE	W01
	BYTE		        54*seq_002_mvl/mxv
	BYTE	W01
	BYTE		        54*seq_002_mvl/mxv
	BYTE	W01
	BYTE		        58*seq_002_mvl/mxv
	BYTE	W01
	BYTE		        58*seq_002_mvl/mxv
	BYTE	W01
	BYTE		        60*seq_002_mvl/mxv
	BYTE	W01
	BYTE		        60*seq_002_mvl/mxv
	BYTE	W01
	BYTE		        61*seq_002_mvl/mxv
	BYTE	W01
	BYTE		        62*seq_002_mvl/mxv
	BYTE	W01
	BYTE		        63*seq_002_mvl/mxv
	BYTE	W02
	BYTE		        65*seq_002_mvl/mxv
	BYTE	W01
	BYTE		        66*seq_002_mvl/mxv
	BYTE	W01
	BYTE		        67*seq_002_mvl/mxv
	BYTE	W01
	BYTE		        68*seq_002_mvl/mxv
	BYTE	W01
	BYTE		        69*seq_002_mvl/mxv
	BYTE	W01
	BYTE		        70*seq_002_mvl/mxv
	BYTE	W01
	BYTE		        70*seq_002_mvl/mxv
	BYTE	W02
	BYTE		        73*seq_002_mvl/mxv
	BYTE	W01
	BYTE		        74*seq_002_mvl/mxv
	BYTE	W01
	BYTE		        74*seq_002_mvl/mxv
	BYTE	W01
	BYTE		        76*seq_002_mvl/mxv
	BYTE	W01
	BYTE		        76*seq_002_mvl/mxv
	BYTE	W01
	BYTE		        77*seq_002_mvl/mxv
	BYTE	W01
	BYTE		        78*seq_002_mvl/mxv
	BYTE	W07
	BYTE	W96
	BYTE	W05
	BYTE		        74*seq_002_mvl/mxv
	BYTE	W01
	BYTE		        73*seq_002_mvl/mxv
	BYTE	W01
	BYTE		        72*seq_002_mvl/mxv
	BYTE	W01
	BYTE		        70*seq_002_mvl/mxv
	BYTE	W02
	BYTE		        70*seq_002_mvl/mxv
	BYTE	W01
	BYTE		        68*seq_002_mvl/mxv
	BYTE	W02
	BYTE		        67*seq_002_mvl/mxv
	BYTE	W01
	BYTE		        66*seq_002_mvl/mxv
	BYTE	W01
	BYTE		        65*seq_002_mvl/mxv
	BYTE	W01
	BYTE		        64*seq_002_mvl/mxv
	BYTE	W01
	BYTE		        63*seq_002_mvl/mxv
	BYTE	W01
	BYTE		        61*seq_002_mvl/mxv
	BYTE	W01
	BYTE		        60*seq_002_mvl/mxv
	BYTE	W01
	BYTE		        60*seq_002_mvl/mxv
	BYTE	W01
	BYTE		        58*seq_002_mvl/mxv
	BYTE	W01
	BYTE		        58*seq_002_mvl/mxv
	BYTE	W01
	BYTE		        56*seq_002_mvl/mxv
	BYTE	W01
	BYTE		        54*seq_002_mvl/mxv
	BYTE	W01
	BYTE		        54*seq_002_mvl/mxv
	BYTE	W01
	BYTE		        53*seq_002_mvl/mxv
	BYTE	W01
	BYTE		        51*seq_002_mvl/mxv
	BYTE	W01
	BYTE		        49*seq_002_mvl/mxv
	BYTE	W01
	BYTE		        48*seq_002_mvl/mxv
	BYTE	W01
	BYTE		        46*seq_002_mvl/mxv
	BYTE	W01
	BYTE		        45*seq_002_mvl/mxv
	BYTE	W01
	BYTE		        44*seq_002_mvl/mxv
	BYTE	W01
	BYTE		        42*seq_002_mvl/mxv
	BYTE	W01
	BYTE		        41*seq_002_mvl/mxv
	BYTE	W01
	BYTE		        38*seq_002_mvl/mxv
	BYTE	W01
	BYTE		        37*seq_002_mvl/mxv
	BYTE	W01
	BYTE		        36*seq_002_mvl/mxv
	BYTE	W01
	BYTE		        34*seq_002_mvl/mxv
	BYTE	W01
	BYTE		        32*seq_002_mvl/mxv
	BYTE	W01
	BYTE		        30*seq_002_mvl/mxv
	BYTE	W01
	BYTE		        28*seq_002_mvl/mxv
	BYTE	W07
	BYTE	W05
	BYTE		EOT
	BYTE	W90
	BYTE	W01
	BYTE	W96
	BYTE	W96
	BYTE	W96
	BYTE	W96
	BYTE	W96
	BYTE	W96
	BYTE	W96
	BYTE	W96
	BYTE	W96
	BYTE	W72
	BYTE	W72
	BYTE	W72
	BYTE	W72
	BYTE	W72
	BYTE	W02
	BYTE		VOICE   86
	BYTE		VOL     53*seq_002_mvl/mxv
	BYTE		PAN     c_v+0
	BYTE		BEND    c_v+0
	BYTE	W68
	BYTE	W02
	BYTE		N24     An4   v064
	BYTE	W24
	BYTE		        Fs4 
	BYTE	W24
	BYTE		N36     Fn4 
	BYTE	W36
	BYTE		N12     Ds4 
	BYTE	W12
	BYTE		N92     Fn4 
	BYTE	W96
	BYTE		N36     Fn4   v108
	BYTE	W36
	BYTE		N12     En4   v080
	BYTE	W12
	BYTE		N48     Cs5   v056
	BYTE	W48
	BYTE		N36     En4   v104
	BYTE	W36
	BYTE		N12     Ds4   v080
	BYTE	W12
	BYTE		N48     Cn5   v056
	BYTE	W48
	BYTE		N36     Cn5   v060
	BYTE	W36
	BYTE		N12     Cs5 
	BYTE	W12
	BYTE		        Ds5   v064
	BYTE	W12
	BYTE		        Cn5   v068
	BYTE	W12
	BYTE		        Cs5   v072
	BYTE	W12
	BYTE		        Ds5   v076
	BYTE	W12
	BYTE		N24     Fn5   v060
	BYTE	W24
	BYTE		N12     Fs5 
	BYTE	W12
	BYTE		        Gs5 
	BYTE	W12
	BYTE		N48     Fn5 
	BYTE	W48
	BYTE		N24     Fn5   v076
	BYTE	W24
	BYTE		N12     Fs5 
	BYTE	W12
	BYTE		        Gs5 
	BYTE	W12
	BYTE		N24     Fn5 
	BYTE	W24
	BYTE		N12     Gn5 
	BYTE	W12
	BYTE		        An5 
	BYTE	W12
	BYTE		N24     As5   v060
	BYTE	W24
	BYTE		N12     Cn6 
	BYTE	W12
	BYTE		        As5 
	BYTE	W12
	BYTE		N44     Cs6 
	BYTE	W48
	BYTE		N23
	BYTE	W24
	BYTE		N11     As5 
	BYTE	W12
	BYTE		        Fs5 
	BYTE	W12
	BYTE		N24     Fn5   v052
	BYTE	W24
	BYTE		        Ds5   v044
	BYTE	W24
	BYTE		N96     Fn5   v036
	BYTE	W96
	BYTE	W96
	BYTE	W96
	BYTE	W96
	BYTE		VOICE   82
	BYTE		VOL     80*seq_002_mvl/mxv
	BYTE		PAN     c_v+21
	BYTE		BENDR   3
	BYTE		BEND    c_v+0
	BYTE	W96
	BYTE		N04     Fn2   v096
	BYTE	W04
	BYTE		        Fn2   v048
	BYTE	W04
	BYTE		        Fn2   v036
	BYTE	W04
	BYTE		        Fn2   v028
	BYTE	W04
	BYTE		        Fn2   v020
	BYTE	W08
	BYTE		        An1   v096
	BYTE	W04
	BYTE		        An1   v048
	BYTE	W04
	BYTE		        An1   v036
	BYTE	W04
	BYTE		        As1   v096
	BYTE	W04
	BYTE		        As1   v048
	BYTE	W04
	BYTE		        As1   v036
	BYTE	W04
	BYTE		        Cn2   v096
	BYTE	W04
	BYTE		        Cn2   v048
	BYTE	W04
	BYTE		        Cn2   v036
	BYTE	W04
	BYTE		        Cn2   v028
	BYTE	W04
	BYTE		        Cn2   v020
	BYTE	W04
	BYTE		        Cn2   v012
	BYTE	W04
	BYTE		        Cn2   v008
	BYTE	W12
	BYTE		        Gs2   v096
	BYTE	W04
	BYTE		        Gs2   v048
	BYTE	W04
	BYTE		        Gs2   v036
	BYTE	W04
	BYTE		        Fs2   v096
	BYTE	W04
	BYTE		        Fs2   v048
	BYTE	W04
	BYTE		        Fs2   v036
	BYTE	W04
	BYTE		        Fs2   v028
	BYTE	W04
	BYTE		        Fs2   v020
	BYTE	W04
	BYTE		        Fs2   v012
	BYTE	W04
	BYTE		        Fs2   v008
	BYTE	W24
	BYTE		        Ds2   v096
	BYTE	W04
	BYTE		        Ds2   v048
	BYTE	W04
	BYTE		        Ds2   v036
	BYTE	W04
	BYTE		        Ds2   v028
	BYTE	W04
	BYTE		        Ds2   v016
	BYTE	W04
	BYTE		        Ds2   v012
	BYTE	W04
	BYTE		        Ds2   v008
	BYTE	W24
	BYTE		        Fn2   v096
	BYTE	W04
	BYTE		        Fn2   v048
	BYTE	W04
	BYTE		        Fn2   v036
	BYTE	W04
	BYTE		        Fn2   v028
	BYTE	W04
	BYTE		        Fn2   v020
	BYTE	W04
	BYTE		        Fn2   v012
	BYTE	W04
	BYTE		        Fn2   v008
	BYTE	W72
	BYTE	W96
	BYTE		        An2   v116
	BYTE	W04
	BYTE		        An2   v056
	BYTE	W04
	BYTE		        An2   v040
	BYTE	W04
	BYTE		        An2   v032
	BYTE	W04
	BYTE		        An2   v024
	BYTE	W08
	BYTE		        Cs2   v116
	BYTE	W04
	BYTE		        Cs2   v056
	BYTE	W04
	BYTE		        Cs2   v040
	BYTE	W04
	BYTE		        Dn2   v116
	BYTE	W04
	BYTE		        Dn2   v056
	BYTE	W04
	BYTE		        Dn2   v040
	BYTE	W04
	BYTE		        En2   v116
	BYTE	W04
	BYTE		        En2   v056
	BYTE	W04
	BYTE		        En2   v040
	BYTE	W04
	BYTE		        En2   v032
	BYTE	W04
	BYTE		        En2   v024
	BYTE	W04
	BYTE		        En2   v016
	BYTE	W04
	BYTE		        En2   v012
	BYTE	W12
	BYTE		        Cn3   v116
	BYTE	W04
	BYTE		        Cn3   v056
	BYTE	W04
	BYTE		        Cn3   v040
	BYTE	W04
	BYTE		        As2   v116
	BYTE	W04
	BYTE		        As2   v056
	BYTE	W04
	BYTE		        As2   v040
	BYTE	W04
	BYTE		        As2   v032
	BYTE	W04
	BYTE		        As2   v020
	BYTE	W04
	BYTE		        As2   v016
	BYTE	W04
	BYTE		        As2   v012
	BYTE	W24
	BYTE		        Fs2   v116
	BYTE	W04
	BYTE		        Fs2   v056
	BYTE	W04
	BYTE		        Fs2   v040
	BYTE	W04
	BYTE		        Fs2   v032
	BYTE	W04
	BYTE		        Fs2   v020
	BYTE	W04
	BYTE		        Fs2   v016
	BYTE	W04
	BYTE		        Fs2   v012
	BYTE	W24
	BYTE		        An2   v116
	BYTE	W04
	BYTE		        An2   v056
	BYTE	W04
	BYTE		        An2   v040
	BYTE	W04
	BYTE		        An2   v032
	BYTE	W04
	BYTE		        An2   v024
	BYTE	W04
	BYTE		        An2   v016
	BYTE	W04
	BYTE		        An2   v012
	BYTE	W72
	BYTE	W96
	BYTE	W96
	BYTE	W96
	BYTE	W96
	BYTE	W01
	BYTE		VOICE   48
	BYTE		VOL     60*seq_002_mvl/mxv
	BYTE		PAN     c_v+16
	BYTE		BENDR   3
	BYTE		BEND    c_v+0
	BYTE	W92
	BYTE	W03
	BYTE	W01
	BYTE		N05     As2   v120
	BYTE	W06
	BYTE		        Cn3 
	BYTE	W06
	BYTE		        Cs3 
	BYTE	W06
	BYTE		        As2 
	BYTE	W06
	BYTE		        Ds3 
	BYTE	W06
	BYTE		        Cs3 
	BYTE	W06
	BYTE		        Cn3 
	BYTE	W06
	BYTE		        As2 
	BYTE	W06
	BYTE		        Cn3 
	BYTE	W06
	BYTE		        Cs3 
	BYTE	W06
	BYTE		        As2 
	BYTE	W06
	BYTE		        Ds3 
	BYTE	W06
	BYTE		        Cs3 
	BYTE	W06
	BYTE		        Cn3 
	BYTE	W06
	BYTE		        As2 
	BYTE	W06
	BYTE		N04     Cn3 
	BYTE	W05
	BYTE	W96
	BYTE	W02
	BYTE		VOICE   68
	BYTE		VOL     80*seq_002_mvl/mxv
	BYTE		PAN     c_v+0
	BYTE		BENDR   3
	BYTE		BEND    c_v+0
	BYTE	W92
	BYTE	W02
	BYTE	W48
	BYTE		N48     Gn2   v092
	BYTE	W48
	BYTE	W48
	BYTE		N48
	BYTE	W48
	BYTE	W48
	BYTE		VOICE   65
	BYTE		VOL     80*seq_002_mvl/mxv
	BYTE		PAN     c_v-29
	BYTE		BENDR   3
	BYTE		BEND    c_v+0
	BYTE	W48
	BYTE		N96     Gn3   v064
	BYTE	W96
	BYTE		N96
	BYTE	W96
	BYTE		        An3 
	BYTE	W96
	BYTE		        As3 
	BYTE	W96
	BYTE		N72     Bn3 
	BYTE	W72
	BYTE		N96     An3 
	BYTE	W24
	BYTE	W72
	BYTE		N24     Gn3 
	BYTE	W24
	BYTE		N48     As3 
	BYTE	W48
	BYTE		        Cn4 
	BYTE	W48
	BYTE		N96     Dn4 
	BYTE	W96
	BYTE		TIE     Cn4   v040
	BYTE	W96
	BYTE	W96
	BYTE		EOT
	BYTE		N96     Cn4   v028
	BYTE	W96
	BYTE		        Cn4   v036
	BYTE	W96
	BYTE		        As3 
	BYTE	W96
	BYTE		TIE
	BYTE	W30
	BYTE		VOL     78*seq_002_mvl/mxv
	BYTE	W02
	BYTE		        78*seq_002_mvl/mxv
	BYTE	W04
	BYTE		        77*seq_002_mvl/mxv
	BYTE	W03
	BYTE		        76*seq_002_mvl/mxv
	BYTE	W03
	BYTE		        76*seq_002_mvl/mxv
	BYTE	W04
	BYTE		        74*seq_002_mvl/mxv
	BYTE	W03
	BYTE		        74*seq_002_mvl/mxv
	BYTE	W02
	BYTE		        73*seq_002_mvl/mxv
	BYTE	W03
	BYTE		        72*seq_002_mvl/mxv
	BYTE	W03
	BYTE		        71*seq_002_mvl/mxv
	BYTE	W02
	BYTE		        70*seq_002_mvl/mxv
	BYTE	W03
	BYTE		        70*seq_002_mvl/mxv
	BYTE	W02
	BYTE		        69*seq_002_mvl/mxv
	BYTE	W03
	BYTE		        68*seq_002_mvl/mxv
	BYTE	W02
	BYTE		        67*seq_002_mvl/mxv
	BYTE	W03
	BYTE		        66*seq_002_mvl/mxv
	BYTE	W01
	BYTE		        66*seq_002_mvl/mxv
	BYTE	W02
	BYTE		        65*seq_002_mvl/mxv
	BYTE	W03
	BYTE		        64*seq_002_mvl/mxv
	BYTE	W02
	BYTE		        63*seq_002_mvl/mxv
	BYTE	W02
	BYTE		        62*seq_002_mvl/mxv
	BYTE	W02
	BYTE		        62*seq_002_mvl/mxv
	BYTE	W02
	BYTE		        61*seq_002_mvl/mxv
	BYTE	W02
	BYTE		        60*seq_002_mvl/mxv
	BYTE	W01
	BYTE		        59*seq_002_mvl/mxv
	BYTE	W02
	BYTE		        58*seq_002_mvl/mxv
	BYTE	W02
	BYTE		        57*seq_002_mvl/mxv
	BYTE	W02
	BYTE		        56*seq_002_mvl/mxv
	BYTE	W01
	BYTE		        56*seq_002_mvl/mxv
	BYTE	W02
	BYTE		        55*seq_002_mvl/mxv
	BYTE	W02
	BYTE		        54*seq_002_mvl/mxv
	BYTE	W02
	BYTE		        53*seq_002_mvl/mxv
	BYTE	W01
	BYTE		        52*seq_002_mvl/mxv
	BYTE	W02
	BYTE		        52*seq_002_mvl/mxv
	BYTE	W01
	BYTE		        51*seq_002_mvl/mxv
	BYTE	W02
	BYTE		        50*seq_002_mvl/mxv
	BYTE	W01
	BYTE		        49*seq_002_mvl/mxv
	BYTE	W01
	BYTE		        48*seq_002_mvl/mxv
	BYTE	W02
	BYTE		        48*seq_002_mvl/mxv
	BYTE	W01
	BYTE		        46*seq_002_mvl/mxv
	BYTE	W02
	BYTE		        46*seq_002_mvl/mxv
	BYTE	W01
	BYTE		        45*seq_002_mvl/mxv
	BYTE	W02
	BYTE		        44*seq_002_mvl/mxv
	BYTE	W01
	BYTE		        44*seq_002_mvl/mxv
	BYTE	W01
	BYTE		        42*seq_002_mvl/mxv
	BYTE	W01
	BYTE		        42*seq_002_mvl/mxv
	BYTE	W01
	BYTE		        41*seq_002_mvl/mxv
	BYTE	W01
	BYTE		        40*seq_002_mvl/mxv
	BYTE	W01
	BYTE		        40*seq_002_mvl/mxv
	BYTE	W02
	BYTE		        38*seq_002_mvl/mxv
	BYTE	W01
	BYTE		        38*seq_002_mvl/mxv
	BYTE	W01
	BYTE		        37*seq_002_mvl/mxv
	BYTE	W01
	BYTE		        36*seq_002_mvl/mxv
	BYTE	W01
	BYTE		        35*seq_002_mvl/mxv
	BYTE	W01
	BYTE		        34*seq_002_mvl/mxv
	BYTE	W01
	BYTE		        34*seq_002_mvl/mxv
	BYTE	W01
	BYTE		        33*seq_002_mvl/mxv
	BYTE	W01
	BYTE		        32*seq_002_mvl/mxv
	BYTE	W01
	BYTE		        31*seq_002_mvl/mxv
	BYTE	W01
	BYTE		        30*seq_002_mvl/mxv
	BYTE	W01
	BYTE		        30*seq_002_mvl/mxv
	BYTE	W01
	BYTE		        29*seq_002_mvl/mxv
	BYTE	W01
	BYTE		        28*seq_002_mvl/mxv
	BYTE	W01
	BYTE		        27*seq_002_mvl/mxv
	BYTE	W01
	BYTE		        26*seq_002_mvl/mxv
	BYTE	W01
	BYTE		        26*seq_002_mvl/mxv
	BYTE	W01
	BYTE		        25*seq_002_mvl/mxv
	BYTE	W01
	BYTE		        23*seq_002_mvl/mxv
	BYTE	W01
	BYTE		        22*seq_002_mvl/mxv
	BYTE	W01
	BYTE		        21*seq_002_mvl/mxv
	BYTE	W01
	BYTE		        20*seq_002_mvl/mxv
	BYTE	W01
	BYTE		        20*seq_002_mvl/mxv
	BYTE	W01
	BYTE		        19*seq_002_mvl/mxv
	BYTE	W01
	BYTE		        18*seq_002_mvl/mxv
	BYTE	W01
	BYTE		        17*seq_002_mvl/mxv
	BYTE	W01
	BYTE		        16*seq_002_mvl/mxv
	BYTE	W01
	BYTE		        15*seq_002_mvl/mxv
	BYTE	W01
	BYTE		        14*seq_002_mvl/mxv
	BYTE	W01
	BYTE		        12*seq_002_mvl/mxv
	BYTE	W01
	BYTE		        10*seq_002_mvl/mxv
	BYTE	W01
	BYTE		        10*seq_002_mvl/mxv
	BYTE	W01
	BYTE		        9*seq_002_mvl/mxv
	BYTE	W01
	BYTE		        8*seq_002_mvl/mxv
	BYTE	W01
	BYTE		        6*seq_002_mvl/mxv
	BYTE	W01
	BYTE		        6*seq_002_mvl/mxv
	BYTE	W01
	BYTE		        5*seq_002_mvl/mxv
	BYTE	W01
	BYTE		        4*seq_002_mvl/mxv
	BYTE	W01
	BYTE		        2*seq_002_mvl/mxv
	BYTE	W01
	BYTE		        2*seq_002_mvl/mxv
	BYTE	W03
	BYTE		EOT
	BYTE	FINE

//*********************** Track 05 ***********************//

seq_002_4:
	BYTE	KEYSH   seq_002_key+0
	BYTE		VOICE   83
	BYTE		VOL     0*seq_002_mvl/mxv
	BYTE		BENDR   3
	BYTE		BEND    c_v+0
	BYTE	W01
	BYTE		PAN     c_v-63
	BYTE	W01
	BYTE		        c_v-61
	BYTE	W01
	BYTE		        c_v-59
	BYTE		VOL     4*seq_002_mvl/mxv
	BYTE		TIE     Gn4   v108
	BYTE	W01
	BYTE		PAN     c_v-57
	BYTE		VOL     5*seq_002_mvl/mxv
	BYTE	W01
	BYTE		        6*seq_002_mvl/mxv
	BYTE		PAN     c_v-55
	BYTE	W01
	BYTE		VOL     6*seq_002_mvl/mxv
	BYTE		PAN     c_v-53
	BYTE	W01
	BYTE		VOL     8*seq_002_mvl/mxv
	BYTE		PAN     c_v-51
	BYTE	W01
	BYTE		VOL     9*seq_002_mvl/mxv
	BYTE		PAN     c_v-49
	BYTE		VOL     10*seq_002_mvl/mxv
	BYTE	W01
	BYTE		PAN     c_v-47
	BYTE		VOL     10*seq_002_mvl/mxv
	BYTE	W01
	BYTE		PAN     c_v-45
	BYTE		VOL     12*seq_002_mvl/mxv
	BYTE	W01
	BYTE		        12*seq_002_mvl/mxv
	BYTE		PAN     c_v-44
	BYTE	W01
	BYTE		VOL     13*seq_002_mvl/mxv
	BYTE		PAN     c_v-42
	BYTE	W01
	BYTE		VOL     14*seq_002_mvl/mxv
	BYTE	W01
	BYTE		PAN     c_v-40
	BYTE		VOL     15*seq_002_mvl/mxv
	BYTE	W01
	BYTE		PAN     c_v-38
	BYTE		VOL     16*seq_002_mvl/mxv
	BYTE	W01
	BYTE		PAN     c_v-35
	BYTE		VOL     17*seq_002_mvl/mxv
	BYTE	W01
	BYTE		        18*seq_002_mvl/mxv
	BYTE		PAN     c_v-33
	BYTE	W01
	BYTE		VOL     19*seq_002_mvl/mxv
	BYTE		PAN     c_v-31
	BYTE	W01
	BYTE		VOL     20*seq_002_mvl/mxv
	BYTE		PAN     c_v-29
	BYTE	W01
	BYTE		VOL     21*seq_002_mvl/mxv
	BYTE		PAN     c_v-27
	BYTE	W01
	BYTE		VOL     22*seq_002_mvl/mxv
	BYTE		PAN     c_v-25
	BYTE		VOL     22*seq_002_mvl/mxv
	BYTE	W01
	BYTE		PAN     c_v-24
	BYTE		VOL     24*seq_002_mvl/mxv
	BYTE	W01
	BYTE		        25*seq_002_mvl/mxv
	BYTE		PAN     c_v-22
	BYTE	W01
	BYTE		VOL     26*seq_002_mvl/mxv
	BYTE		PAN     c_v-20
	BYTE	W01
	BYTE		VOL     26*seq_002_mvl/mxv
	BYTE		PAN     c_v-18
	BYTE	W01
	BYTE		VOL     28*seq_002_mvl/mxv
	BYTE	W01
	BYTE		PAN     c_v-16
	BYTE		VOL     28*seq_002_mvl/mxv
	BYTE	W01
	BYTE		PAN     c_v-14
	BYTE		VOL     29*seq_002_mvl/mxv
	BYTE	W01
	BYTE		PAN     c_v-12
	BYTE		VOL     30*seq_002_mvl/mxv
	BYTE	W01
	BYTE		        31*seq_002_mvl/mxv
	BYTE	W01
	BYTE		        32*seq_002_mvl/mxv
	BYTE	W01
	BYTE		        34*seq_002_mvl/mxv
	BYTE	W01
	BYTE		        35*seq_002_mvl/mxv
	BYTE	W01
	BYTE		        36*seq_002_mvl/mxv
	BYTE	W01
	BYTE		        37*seq_002_mvl/mxv
	BYTE	W01
	BYTE		        38*seq_002_mvl/mxv
	BYTE	W01
	BYTE		        38*seq_002_mvl/mxv
	BYTE	W01
	BYTE		        40*seq_002_mvl/mxv
	BYTE	W01
	BYTE		        41*seq_002_mvl/mxv
	BYTE	W01
	BYTE		        42*seq_002_mvl/mxv
	BYTE	W01
	BYTE		        42*seq_002_mvl/mxv
	BYTE	W01
	BYTE		        44*seq_002_mvl/mxv
	BYTE	W01
	BYTE		        44*seq_002_mvl/mxv
	BYTE	W01
	BYTE		        45*seq_002_mvl/mxv
	BYTE	W01
	BYTE		        46*seq_002_mvl/mxv
	BYTE	W01
	BYTE		        47*seq_002_mvl/mxv
	BYTE	W01
	BYTE		        48*seq_002_mvl/mxv
	BYTE		PAN     c_v-12
	BYTE	W01
	BYTE		VOL     49*seq_002_mvl/mxv
	BYTE		PAN     c_v-10
	BYTE	W01
	BYTE		VOL     50*seq_002_mvl/mxv
	BYTE		PAN     c_v-7
	BYTE	W01
	BYTE		VOL     51*seq_002_mvl/mxv
	BYTE		PAN     c_v-5
	BYTE	W01
	BYTE		VOL     52*seq_002_mvl/mxv
	BYTE		PAN     c_v-3
	BYTE	W01
	BYTE		VOL     53*seq_002_mvl/mxv
	BYTE		PAN     c_v+0
	BYTE	W01
	BYTE		VOL     54*seq_002_mvl/mxv
	BYTE	W01
	BYTE		PAN     c_v+2
	BYTE		VOL     54*seq_002_mvl/mxv
	BYTE	W01
	BYTE		PAN     c_v+5
	BYTE		VOL     56*seq_002_mvl/mxv
	BYTE	W01
	BYTE		PAN     c_v+8
	BYTE		VOL     57*seq_002_mvl/mxv
	BYTE	W01
	BYTE		PAN     c_v+10
	BYTE		VOL     58*seq_002_mvl/mxv
	BYTE	W01
	BYTE		        58*seq_002_mvl/mxv
	BYTE		PAN     c_v+13
	BYTE	W01
	BYTE		VOL     60*seq_002_mvl/mxv
	BYTE		PAN     c_v+15
	BYTE	W01
	BYTE		        c_v+17
	BYTE		VOL     60*seq_002_mvl/mxv
	BYTE	W01
	BYTE		PAN     c_v+20
	BYTE		VOL     61*seq_002_mvl/mxv
	BYTE	W01
	BYTE		PAN     c_v+22
	BYTE	W01
	BYTE		VOL     62*seq_002_mvl/mxv
	BYTE		PAN     c_v+25
	BYTE	W01
	BYTE		VOL     63*seq_002_mvl/mxv
	BYTE		PAN     c_v+28
	BYTE	W01
	BYTE		VOL     64*seq_002_mvl/mxv
	BYTE		PAN     c_v+30
	BYTE	W01
	BYTE		VOL     65*seq_002_mvl/mxv
	BYTE		PAN     c_v+33
	BYTE	W01
	BYTE		VOL     66*seq_002_mvl/mxv
	BYTE	W01
	BYTE		PAN     c_v+35
	BYTE	W01
	BYTE		        c_v+37
	BYTE		VOL     67*seq_002_mvl/mxv
	BYTE	W01
	BYTE		PAN     c_v+40
	BYTE		VOL     68*seq_002_mvl/mxv
	BYTE	W01
	BYTE		PAN     c_v+42
	BYTE	W01
	BYTE		VOL     69*seq_002_mvl/mxv
	BYTE		PAN     c_v+45
	BYTE	W01
	BYTE		        c_v+48
	BYTE		VOL     70*seq_002_mvl/mxv
	BYTE	W01
	BYTE		PAN     c_v+50
	BYTE	W01
	BYTE		VOL     70*seq_002_mvl/mxv
	BYTE		PAN     c_v+53
	BYTE	W01
	BYTE		        c_v+54
	BYTE	W01
	BYTE		VOL     72*seq_002_mvl/mxv
	BYTE		PAN     c_v+57
	BYTE	W01
	BYTE		        c_v+60
	BYTE	W01
	BYTE		VOL     73*seq_002_mvl/mxv
	BYTE		PAN     c_v+62
	BYTE	W01
	BYTE		VOL     74*seq_002_mvl/mxv
	BYTE	W01
	BYTE		PAN     c_v+63
	BYTE	W01
	BYTE		VOL     74*seq_002_mvl/mxv
	BYTE	W01
	BYTE		        76*seq_002_mvl/mxv
	BYTE	W16
	BYTE	W01
	BYTE		PAN     c_v+63
	BYTE	W03
	BYTE		        c_v+60
	BYTE	W01
	BYTE		        c_v+57
	BYTE	W01
	BYTE		        c_v+54
	BYTE	W01
	BYTE		        c_v+52
	BYTE	W02
	BYTE		        c_v+50
	BYTE	W01
	BYTE		        c_v+47
	BYTE	W01
	BYTE		        c_v+44
	BYTE	W01
	BYTE		        c_v+41
	BYTE	W01
	BYTE		        c_v+38
	BYTE	W01
	BYTE		        c_v+35
	BYTE	W01
	BYTE		        c_v+33
	BYTE	W01
	BYTE		        c_v+31
	BYTE	W01
	BYTE		        c_v+28
	BYTE	W01
	BYTE		        c_v+25
	BYTE	W01
	BYTE		        c_v+22
	BYTE	W01
	BYTE		        c_v+19
	BYTE	W01
	BYTE		        c_v+16
	BYTE	W02
	BYTE		        c_v+15
	BYTE	W01
	BYTE		        c_v+12
	BYTE	W01
	BYTE		        c_v+9
	BYTE	W01
	BYTE		        c_v+6
	BYTE	W01
	BYTE		        c_v+3
	BYTE	W01
	BYTE		        c_v+0
	BYTE	W19
	BYTE		VOL     74*seq_002_mvl/mxv
	BYTE	W01
	BYTE		        73*seq_002_mvl/mxv
	BYTE	W01
	BYTE		        72*seq_002_mvl/mxv
	BYTE	W01
	BYTE		PAN     c_v-3
	BYTE		VOL     70*seq_002_mvl/mxv
	BYTE	W01
	BYTE		PAN     c_v-5
	BYTE	W01
	BYTE		VOL     70*seq_002_mvl/mxv
	BYTE		PAN     c_v-9
	BYTE	W01
	BYTE		VOL     69*seq_002_mvl/mxv
	BYTE		PAN     c_v-12
	BYTE		VOL     68*seq_002_mvl/mxv
	BYTE	W01
	BYTE		PAN     c_v-16
	BYTE	W01
	BYTE		VOL     67*seq_002_mvl/mxv
	BYTE		PAN     c_v-19
	BYTE	W01
	BYTE		VOL     66*seq_002_mvl/mxv
	BYTE		PAN     c_v-23
	BYTE	W01
	BYTE		VOL     65*seq_002_mvl/mxv
	BYTE		PAN     c_v-26
	BYTE	W01
	BYTE		VOL     64*seq_002_mvl/mxv
	BYTE		PAN     c_v-29
	BYTE	W01
	BYTE		VOL     63*seq_002_mvl/mxv
	BYTE		PAN     c_v-33
	BYTE	W01
	BYTE		VOL     61*seq_002_mvl/mxv
	BYTE		PAN     c_v-36
	BYTE	W01
	BYTE		VOL     60*seq_002_mvl/mxv
	BYTE		PAN     c_v-40
	BYTE	W01
	BYTE		VOL     60*seq_002_mvl/mxv
	BYTE	W01
	BYTE		PAN     c_v-43
	BYTE		VOL     58*seq_002_mvl/mxv
	BYTE	W01
	BYTE		PAN     c_v-46
	BYTE		VOL     58*seq_002_mvl/mxv
	BYTE	W01
	BYTE		PAN     c_v-50
	BYTE		VOL     56*seq_002_mvl/mxv
	BYTE	W01
	BYTE		PAN     c_v-53
	BYTE		VOL     54*seq_002_mvl/mxv
	BYTE	W01
	BYTE		PAN     c_v-57
	BYTE		VOL     54*seq_002_mvl/mxv
	BYTE	W01
	BYTE		        53*seq_002_mvl/mxv
	BYTE		PAN     c_v-60
	BYTE	W01
	BYTE		VOL     52*seq_002_mvl/mxv
	BYTE		PAN     c_v-64
	BYTE		VOL     51*seq_002_mvl/mxv
	BYTE	W01
	BYTE		        49*seq_002_mvl/mxv
	BYTE	W01
	BYTE		        48*seq_002_mvl/mxv
	BYTE	W01
	BYTE		        46*seq_002_mvl/mxv
	BYTE	W01
	BYTE		        45*seq_002_mvl/mxv
	BYTE	W01
	BYTE		        44*seq_002_mvl/mxv
	BYTE	W01
	BYTE		        42*seq_002_mvl/mxv
	BYTE	W01
	BYTE		        41*seq_002_mvl/mxv
	BYTE	W01
	BYTE		        38*seq_002_mvl/mxv
	BYTE	W01
	BYTE		        37*seq_002_mvl/mxv
	BYTE	W01
	BYTE		        36*seq_002_mvl/mxv
	BYTE	W01
	BYTE		        34*seq_002_mvl/mxv
	BYTE	W01
	BYTE		        32*seq_002_mvl/mxv
	BYTE	W01
	BYTE		        30*seq_002_mvl/mxv
	BYTE	W01
	BYTE		        28*seq_002_mvl/mxv
	BYTE	W07
	BYTE		PAN     c_v-64
	BYTE	W01
	BYTE		        c_v-63
	BYTE	W01
	BYTE		        c_v-59
	BYTE	W01
	BYTE		        c_v-56
	BYTE	W01
	BYTE		        c_v-52
	BYTE	W01
	BYTE		EOT
	BYTE		PAN     c_v-49
	BYTE	W01
	BYTE		VOL     4*seq_002_mvl/mxv
	BYTE		PAN     c_v-45
	BYTE		TIE     Fn4 
	BYTE	W01
	BYTE		VOL     5*seq_002_mvl/mxv
	BYTE		PAN     c_v-42
	BYTE	W01
	BYTE		VOL     6*seq_002_mvl/mxv
	BYTE		PAN     c_v-39
	BYTE	W01
	BYTE		VOL     6*seq_002_mvl/mxv
	BYTE		PAN     c_v-35
	BYTE	W01
	BYTE		VOL     8*seq_002_mvl/mxv
	BYTE		PAN     c_v-32
	BYTE	W01
	BYTE		VOL     9*seq_002_mvl/mxv
	BYTE		PAN     c_v-28
	BYTE	W01
	BYTE		VOL     10*seq_002_mvl/mxv
	BYTE		PAN     c_v-25
	BYTE	W01
	BYTE		VOL     10*seq_002_mvl/mxv
	BYTE	W01
	BYTE		PAN     c_v-22
	BYTE	W01
	BYTE		        c_v-18
	BYTE		VOL     12*seq_002_mvl/mxv
	BYTE	W01
	BYTE		        12*seq_002_mvl/mxv
	BYTE		PAN     c_v-15
	BYTE	W01
	BYTE		        c_v-11
	BYTE		VOL     13*seq_002_mvl/mxv
	BYTE	W01
	BYTE		        14*seq_002_mvl/mxv
	BYTE	W01
	BYTE		        15*seq_002_mvl/mxv
	BYTE	W01
	BYTE		        16*seq_002_mvl/mxv
	BYTE	W01
	BYTE		        17*seq_002_mvl/mxv
	BYTE	W01
	BYTE		        18*seq_002_mvl/mxv
	BYTE	W02
	BYTE		        19*seq_002_mvl/mxv
	BYTE	W01
	BYTE		        20*seq_002_mvl/mxv
	BYTE	W01
	BYTE		        21*seq_002_mvl/mxv
	BYTE	W01
	BYTE		        22*seq_002_mvl/mxv
	BYTE	W01
	BYTE		        22*seq_002_mvl/mxv
	BYTE	W01
	BYTE		        24*seq_002_mvl/mxv
	BYTE	W01
	BYTE		        25*seq_002_mvl/mxv
	BYTE	W01
	BYTE		        26*seq_002_mvl/mxv
	BYTE	W02
	BYTE		        26*seq_002_mvl/mxv
	BYTE	W01
	BYTE		        28*seq_002_mvl/mxv
	BYTE	W01
	BYTE		        28*seq_002_mvl/mxv
	BYTE	W01
	BYTE		        29*seq_002_mvl/mxv
	BYTE	W01
	BYTE		        30*seq_002_mvl/mxv
	BYTE	W01
	BYTE		        31*seq_002_mvl/mxv
	BYTE	W01
	BYTE		        32*seq_002_mvl/mxv
	BYTE		PAN     c_v-4
	BYTE	W01
	BYTE		VOL     33*seq_002_mvl/mxv
	BYTE	W01
	BYTE		PAN     c_v-2
	BYTE		VOL     34*seq_002_mvl/mxv
	BYTE	W01
	BYTE		PAN     c_v+1
	BYTE	W01
	BYTE		VOL     35*seq_002_mvl/mxv
	BYTE		PAN     c_v+3
	BYTE		VOL     36*seq_002_mvl/mxv
	BYTE	W01
	BYTE		PAN     c_v+6
	BYTE	W01
	BYTE		VOL     37*seq_002_mvl/mxv
	BYTE		PAN     c_v+8
	BYTE	W01
	BYTE		VOL     38*seq_002_mvl/mxv
	BYTE		PAN     c_v+11
	BYTE	W01
	BYTE		VOL     38*seq_002_mvl/mxv
	BYTE		PAN     c_v+13
	BYTE	W01
	BYTE		VOL     40*seq_002_mvl/mxv
	BYTE		PAN     c_v+15
	BYTE	W01
	BYTE		        c_v+17
	BYTE		VOL     41*seq_002_mvl/mxv
	BYTE	W01
	BYTE		        42*seq_002_mvl/mxv
	BYTE		PAN     c_v+20
	BYTE	W01
	BYTE		        c_v+22
	BYTE		VOL     42*seq_002_mvl/mxv
	BYTE	W01
	BYTE		        44*seq_002_mvl/mxv
	BYTE		PAN     c_v+25
	BYTE	W02
	BYTE		        c_v+27
	BYTE		VOL     44*seq_002_mvl/mxv
	BYTE	W01
	BYTE		PAN     c_v+30
	BYTE		VOL     45*seq_002_mvl/mxv
	BYTE	W01
	BYTE		PAN     c_v+32
	BYTE		VOL     46*seq_002_mvl/mxv
	BYTE	W01
	BYTE		PAN     c_v+35
	BYTE		VOL     47*seq_002_mvl/mxv
	BYTE	W01
	BYTE		PAN     c_v+36
	BYTE		VOL     48*seq_002_mvl/mxv
	BYTE	W01
	BYTE		PAN     c_v+39
	BYTE		VOL     49*seq_002_mvl/mxv
	BYTE	W01
	BYTE		PAN     c_v+41
	BYTE		VOL     50*seq_002_mvl/mxv
	BYTE	W01
	BYTE		PAN     c_v+44
	BYTE		VOL     51*seq_002_mvl/mxv
	BYTE	W01
	BYTE		PAN     c_v+46
	BYTE	W01
	BYTE		VOL     52*seq_002_mvl/mxv
	BYTE		PAN     c_v+49
	BYTE	W01
	BYTE		VOL     53*seq_002_mvl/mxv
	BYTE		PAN     c_v+51
	BYTE	W01
	BYTE		VOL     54*seq_002_mvl/mxv
	BYTE		PAN     c_v+53
	BYTE	W01
	BYTE		VOL     54*seq_002_mvl/mxv
	BYTE		PAN     c_v+55
	BYTE	W01
	BYTE		VOL     58*seq_002_mvl/mxv
	BYTE	W01
	BYTE		PAN     c_v+58
	BYTE		VOL     58*seq_002_mvl/mxv
	BYTE	W01
	BYTE		PAN     c_v+60
	BYTE		VOL     60*seq_002_mvl/mxv
	BYTE	W01
	BYTE		PAN     c_v+63
	BYTE		VOL     60*seq_002_mvl/mxv
	BYTE	W01
	BYTE		        61*seq_002_mvl/mxv
	BYTE	W01
	BYTE		        62*seq_002_mvl/mxv
	BYTE	W01
	BYTE		        63*seq_002_mvl/mxv
	BYTE	W02
	BYTE		        65*seq_002_mvl/mxv
	BYTE	W01
	BYTE		        66*seq_002_mvl/mxv
	BYTE	W01
	BYTE		        67*seq_002_mvl/mxv
	BYTE	W01
	BYTE		        68*seq_002_mvl/mxv
	BYTE	W01
	BYTE		        69*seq_002_mvl/mxv
	BYTE	W01
	BYTE		        70*seq_002_mvl/mxv
	BYTE	W01
	BYTE		        70*seq_002_mvl/mxv
	BYTE	W02
	BYTE		        73*seq_002_mvl/mxv
	BYTE	W01
	BYTE		        74*seq_002_mvl/mxv
	BYTE	W01
	BYTE		        74*seq_002_mvl/mxv
	BYTE	W01
	BYTE		        76*seq_002_mvl/mxv
	BYTE	W01
	BYTE		        76*seq_002_mvl/mxv
	BYTE	W01
	BYTE		        77*seq_002_mvl/mxv
	BYTE	W01
	BYTE		        78*seq_002_mvl/mxv
	BYTE	W02
	BYTE		PAN     c_v+63
	BYTE	W02
	BYTE		        c_v+61
	BYTE	W02
	BYTE		        c_v+58
	BYTE	W01
	BYTE		        c_v+55
	BYTE	W01
	BYTE		        c_v+53
	BYTE	W01
	BYTE		        c_v+50
	BYTE	W01
	BYTE		        c_v+47
	BYTE	W01
	BYTE		        c_v+44
	BYTE	W01
	BYTE		        c_v+41
	BYTE	W01
	BYTE		        c_v+38
	BYTE	W01
	BYTE		        c_v+35
	BYTE	W01
	BYTE		        c_v+33
	BYTE	W01
	BYTE		        c_v+30
	BYTE	W01
	BYTE		        c_v+27
	BYTE	W02
	BYTE		        c_v+24
	BYTE	W01
	BYTE		        c_v+21
	BYTE	W01
	BYTE		        c_v+18
	BYTE	W01
	BYTE		        c_v+15
	BYTE	W01
	BYTE		        c_v+13
	BYTE	W01
	BYTE		        c_v+10
	BYTE	W01
	BYTE		        c_v+7
	BYTE	W32
	BYTE	W03
	BYTE		VOL     74*seq_002_mvl/mxv
	BYTE	W01
	BYTE		        73*seq_002_mvl/mxv
	BYTE	W01
	BYTE		PAN     c_v+3
	BYTE		VOL     72*seq_002_mvl/mxv
	BYTE	W01
	BYTE		PAN     c_v+0
	BYTE		VOL     70*seq_002_mvl/mxv
	BYTE	W01
	BYTE		PAN     c_v-3
	BYTE	W01
	BYTE		VOL     70*seq_002_mvl/mxv
	BYTE		PAN     c_v-6
	BYTE	W01
	BYTE		VOL     69*seq_002_mvl/mxv
	BYTE		PAN     c_v-9
	BYTE		VOL     68*seq_002_mvl/mxv
	BYTE	W01
	BYTE		PAN     c_v-13
	BYTE	W01
	BYTE		VOL     67*seq_002_mvl/mxv
	BYTE		PAN     c_v-16
	BYTE	W01
	BYTE		VOL     66*seq_002_mvl/mxv
	BYTE		PAN     c_v-19
	BYTE	W01
	BYTE		VOL     65*seq_002_mvl/mxv
	BYTE		PAN     c_v-23
	BYTE	W01
	BYTE		VOL     64*seq_002_mvl/mxv
	BYTE		PAN     c_v-25
	BYTE	W01
	BYTE		VOL     63*seq_002_mvl/mxv
	BYTE	W01
	BYTE		PAN     c_v-29
	BYTE		VOL     61*seq_002_mvl/mxv
	BYTE	W01
	BYTE		PAN     c_v-32
	BYTE		VOL     60*seq_002_mvl/mxv
	BYTE	W01
	BYTE		PAN     c_v-35
	BYTE		VOL     60*seq_002_mvl/mxv
	BYTE	W01
	BYTE		PAN     c_v-39
	BYTE		VOL     58*seq_002_mvl/mxv
	BYTE	W01
	BYTE		        58*seq_002_mvl/mxv
	BYTE		PAN     c_v-42
	BYTE	W01
	BYTE		VOL     57*seq_002_mvl/mxv
	BYTE		PAN     c_v-45
	BYTE		VOL     56*seq_002_mvl/mxv
	BYTE	W01
	BYTE		        54*seq_002_mvl/mxv
	BYTE		PAN     c_v-48
	BYTE	W01
	BYTE		VOL     54*seq_002_mvl/mxv
	BYTE		PAN     c_v-51
	BYTE	W01
	BYTE		VOL     53*seq_002_mvl/mxv
	BYTE		PAN     c_v-55
	BYTE	W01
	BYTE		VOL     51*seq_002_mvl/mxv
	BYTE		PAN     c_v-58
	BYTE	W01
	BYTE		VOL     49*seq_002_mvl/mxv
	BYTE	W01
	BYTE		        48*seq_002_mvl/mxv
	BYTE	W01
	BYTE		        46*seq_002_mvl/mxv
	BYTE	W01
	BYTE		        45*seq_002_mvl/mxv
	BYTE	W01
	BYTE		        44*seq_002_mvl/mxv
	BYTE	W01
	BYTE		        42*seq_002_mvl/mxv
	BYTE	W01
	BYTE		        41*seq_002_mvl/mxv
	BYTE	W01
	BYTE		        38*seq_002_mvl/mxv
	BYTE	W01
	BYTE		        37*seq_002_mvl/mxv
	BYTE	W01
	BYTE		        36*seq_002_mvl/mxv
	BYTE	W01
	BYTE		        34*seq_002_mvl/mxv
	BYTE	W01
	BYTE		        32*seq_002_mvl/mxv
	BYTE	W01
	BYTE		        30*seq_002_mvl/mxv
	BYTE	W01
	BYTE		        28*seq_002_mvl/mxv
	BYTE	W09
	BYTE		PAN     c_v-63
	BYTE	W01
	BYTE		        c_v-61
	BYTE	W01
	BYTE		        c_v-58
	BYTE	W01
	BYTE		EOT
	BYTE		PAN     c_v-55
	BYTE	W01
	BYTE		VOL     4*seq_002_mvl/mxv
	BYTE		PAN     c_v-53
	BYTE		TIE     Gn4   v084
	BYTE	W01
	BYTE		VOL     5*seq_002_mvl/mxv
	BYTE		PAN     c_v-50
	BYTE	W01
	BYTE		VOL     6*seq_002_mvl/mxv
	BYTE		PAN     c_v-47
	BYTE	W01
	BYTE		VOL     6*seq_002_mvl/mxv
	BYTE		PAN     c_v-45
	BYTE	W01
	BYTE		VOL     8*seq_002_mvl/mxv
	BYTE	W01
	BYTE		        9*seq_002_mvl/mxv
	BYTE		PAN     c_v-43
	BYTE		VOL     10*seq_002_mvl/mxv
	BYTE	W01
	BYTE		PAN     c_v-40
	BYTE		VOL     10*seq_002_mvl/mxv
	BYTE	W01
	BYTE		PAN     c_v-38
	BYTE		VOL     12*seq_002_mvl/mxv
	BYTE	W01
	BYTE		PAN     c_v-35
	BYTE		VOL     12*seq_002_mvl/mxv
	BYTE	W01
	BYTE		PAN     c_v-32
	BYTE		VOL     13*seq_002_mvl/mxv
	BYTE	W01
	BYTE		        14*seq_002_mvl/mxv
	BYTE		PAN     c_v-29
	BYTE	W01
	BYTE		VOL     15*seq_002_mvl/mxv
	BYTE		PAN     c_v-27
	BYTE	W01
	BYTE		VOL     16*seq_002_mvl/mxv
	BYTE		PAN     c_v-25
	BYTE	W01
	BYTE		VOL     17*seq_002_mvl/mxv
	BYTE		PAN     c_v-22
	BYTE	W01
	BYTE		VOL     18*seq_002_mvl/mxv
	BYTE		PAN     c_v-20
	BYTE	W01
	BYTE		VOL     19*seq_002_mvl/mxv
	BYTE		PAN     c_v-17
	BYTE	W01
	BYTE		VOL     20*seq_002_mvl/mxv
	BYTE		PAN     c_v-14
	BYTE	W01
	BYTE		VOL     21*seq_002_mvl/mxv
	BYTE	W01
	BYTE		PAN     c_v-12
	BYTE		VOL     22*seq_002_mvl/mxv
	BYTE	W01
	BYTE		PAN     c_v-9
	BYTE		VOL     24*seq_002_mvl/mxv
	BYTE	W01
	BYTE		PAN     c_v-6
	BYTE		VOL     25*seq_002_mvl/mxv
	BYTE	W01
	BYTE		        26*seq_002_mvl/mxv
	BYTE	W01
	BYTE		        26*seq_002_mvl/mxv
	BYTE	W01
	BYTE		        28*seq_002_mvl/mxv
	BYTE	W01
	BYTE		        28*seq_002_mvl/mxv
	BYTE	W01
	BYTE		        29*seq_002_mvl/mxv
	BYTE	W01
	BYTE		        30*seq_002_mvl/mxv
	BYTE	W01
	BYTE		        31*seq_002_mvl/mxv
	BYTE	W01
	BYTE		        32*seq_002_mvl/mxv
	BYTE	W01
	BYTE		        34*seq_002_mvl/mxv
	BYTE	W01
	BYTE		        35*seq_002_mvl/mxv
	BYTE	W01
	BYTE		        36*seq_002_mvl/mxv
	BYTE	W01
	BYTE		        37*seq_002_mvl/mxv
	BYTE	W01
	BYTE		        38*seq_002_mvl/mxv
	BYTE	W01
	BYTE		        38*seq_002_mvl/mxv
	BYTE	W01
	BYTE		        40*seq_002_mvl/mxv
	BYTE	W01
	BYTE		        41*seq_002_mvl/mxv
	BYTE	W01
	BYTE		        42*seq_002_mvl/mxv
	BYTE	W01
	BYTE		        42*seq_002_mvl/mxv
	BYTE	W01
	BYTE		        44*seq_002_mvl/mxv
	BYTE	W01
	BYTE		        44*seq_002_mvl/mxv
	BYTE	W01
	BYTE		        45*seq_002_mvl/mxv
	BYTE	W01
	BYTE		        46*seq_002_mvl/mxv
	BYTE	W01
	BYTE		        47*seq_002_mvl/mxv
	BYTE		PAN     c_v-3
	BYTE	W01
	BYTE		VOL     48*seq_002_mvl/mxv
	BYTE	W01
	BYTE		PAN     c_v+3
	BYTE		VOL     49*seq_002_mvl/mxv
	BYTE	W01
	BYTE		PAN     c_v+9
	BYTE		VOL     50*seq_002_mvl/mxv
	BYTE	W01
	BYTE		PAN     c_v+15
	BYTE		VOL     51*seq_002_mvl/mxv
	BYTE	W01
	BYTE		        52*seq_002_mvl/mxv
	BYTE		PAN     c_v+20
	BYTE	W01
	BYTE		VOL     53*seq_002_mvl/mxv
	BYTE		PAN     c_v+26
	BYTE	W01
	BYTE		VOL     54*seq_002_mvl/mxv
	BYTE		PAN     c_v+33
	BYTE	W01
	BYTE		VOL     54*seq_002_mvl/mxv
	BYTE		PAN     c_v+38
	BYTE	W01
	BYTE		VOL     56*seq_002_mvl/mxv
	BYTE		PAN     c_v+44
	BYTE	W01
	BYTE		VOL     57*seq_002_mvl/mxv
	BYTE		PAN     c_v+50
	BYTE	W01
	BYTE		VOL     58*seq_002_mvl/mxv
	BYTE		PAN     c_v+55
	BYTE	W01
	BYTE		VOL     58*seq_002_mvl/mxv
	BYTE		PAN     c_v+61
	BYTE	W01
	BYTE		VOL     60*seq_002_mvl/mxv
	BYTE	W01
	BYTE		        60*seq_002_mvl/mxv
	BYTE	W01
	BYTE		        61*seq_002_mvl/mxv
	BYTE	W02
	BYTE		        62*seq_002_mvl/mxv
	BYTE	W01
	BYTE		        63*seq_002_mvl/mxv
	BYTE	W01
	BYTE		        64*seq_002_mvl/mxv
	BYTE	W01
	BYTE		        65*seq_002_mvl/mxv
	BYTE	W01
	BYTE		        66*seq_002_mvl/mxv
	BYTE	W02
	BYTE		        67*seq_002_mvl/mxv
	BYTE	W01
	BYTE		        68*seq_002_mvl/mxv
	BYTE	W02
	BYTE		        69*seq_002_mvl/mxv
	BYTE	W01
	BYTE		        70*seq_002_mvl/mxv
	BYTE	W02
	BYTE		        70*seq_002_mvl/mxv
	BYTE	W02
	BYTE		        72*seq_002_mvl/mxv
	BYTE	W01
	BYTE		PAN     c_v+63
	BYTE	W01
	BYTE		VOL     73*seq_002_mvl/mxv
	BYTE	W01
	BYTE		PAN     c_v+62
	BYTE		VOL     74*seq_002_mvl/mxv
	BYTE	W01
	BYTE		PAN     c_v+59
	BYTE	W01
	BYTE		VOL     74*seq_002_mvl/mxv
	BYTE		PAN     c_v+56
	BYTE	W01
	BYTE		        c_v+54
	BYTE		VOL     76*seq_002_mvl/mxv
	BYTE	W01
	BYTE		PAN     c_v+52
	BYTE	W01
	BYTE		        c_v+49
	BYTE	W01
	BYTE		        c_v+46
	BYTE	W01
	BYTE		        c_v+44
	BYTE	W02
	BYTE		        c_v+41
	BYTE	W01
	BYTE		        c_v+38
	BYTE	W01
	BYTE		        c_v+35
	BYTE	W01
	BYTE		        c_v+34
	BYTE	W01
	BYTE		        c_v+31
	BYTE	W01
	BYTE		        c_v+28
	BYTE	W01
	BYTE		        c_v+25
	BYTE	W01
	BYTE		        c_v+23
	BYTE	W01
	BYTE		        c_v+20
	BYTE	W01
	BYTE		        c_v+17
	BYTE	W01
	BYTE		        c_v+15
	BYTE	W32
	BYTE		        c_v-4
	BYTE	W01
	BYTE		        c_v-6
	BYTE	W01
	BYTE		        c_v-9
	BYTE	W01
	BYTE		        c_v-12
	BYTE	W01
	BYTE		        c_v-15
	BYTE	W01
	BYTE		        c_v-19
	BYTE	W01
	BYTE		        c_v-22
	BYTE	W01
	BYTE		        c_v-25
	BYTE	W01
	BYTE		        c_v-27
	BYTE	W01
	BYTE		        c_v-30
	BYTE	W01
	BYTE		        c_v-34
	BYTE	W02
	BYTE		        c_v-37
	BYTE	W01
	BYTE		        c_v-40
	BYTE	W01
	BYTE		        c_v-43
	BYTE	W01
	BYTE		        c_v-45
	BYTE		VOL     74*seq_002_mvl/mxv
	BYTE	W01
	BYTE		PAN     c_v-49
	BYTE		VOL     73*seq_002_mvl/mxv
	BYTE	W01
	BYTE		PAN     c_v-52
	BYTE		VOL     72*seq_002_mvl/mxv
	BYTE	W01
	BYTE		PAN     c_v-55
	BYTE		VOL     70*seq_002_mvl/mxv
	BYTE	W01
	BYTE		PAN     c_v-58
	BYTE	W01
	BYTE		VOL     70*seq_002_mvl/mxv
	BYTE		PAN     c_v-62
	BYTE	W01
	BYTE		VOL     68*seq_002_mvl/mxv
	BYTE	W02
	BYTE		        67*seq_002_mvl/mxv
	BYTE	W01
	BYTE		        66*seq_002_mvl/mxv
	BYTE	W01
	BYTE		        65*seq_002_mvl/mxv
	BYTE	W01
	BYTE		        64*seq_002_mvl/mxv
	BYTE	W01
	BYTE		        63*seq_002_mvl/mxv
	BYTE	W01
	BYTE		        61*seq_002_mvl/mxv
	BYTE	W01
	BYTE		        60*seq_002_mvl/mxv
	BYTE	W01
	BYTE		        60*seq_002_mvl/mxv
	BYTE	W01
	BYTE		        58*seq_002_mvl/mxv
	BYTE	W01
	BYTE		        58*seq_002_mvl/mxv
	BYTE	W01
	BYTE		        56*seq_002_mvl/mxv
	BYTE	W01
	BYTE		        54*seq_002_mvl/mxv
	BYTE	W01
	BYTE		        54*seq_002_mvl/mxv
	BYTE	W01
	BYTE		        53*seq_002_mvl/mxv
	BYTE	W01
	BYTE		        51*seq_002_mvl/mxv
	BYTE	W01
	BYTE		        49*seq_002_mvl/mxv
	BYTE	W01
	BYTE		        48*seq_002_mvl/mxv
	BYTE	W01
	BYTE		        46*seq_002_mvl/mxv
	BYTE	W01
	BYTE		        45*seq_002_mvl/mxv
	BYTE	W01
	BYTE		        44*seq_002_mvl/mxv
	BYTE	W01
	BYTE		        42*seq_002_mvl/mxv
	BYTE	W01
	BYTE		        41*seq_002_mvl/mxv
	BYTE	W01
	BYTE		        38*seq_002_mvl/mxv
	BYTE	W01
	BYTE		        37*seq_002_mvl/mxv
	BYTE	W01
	BYTE		        36*seq_002_mvl/mxv
	BYTE		PAN     c_v-61
	BYTE	W01
	BYTE		VOL     35*seq_002_mvl/mxv
	BYTE		PAN     c_v-58
	BYTE		VOL     34*seq_002_mvl/mxv
	BYTE	W01
	BYTE		        32*seq_002_mvl/mxv
	BYTE		PAN     c_v-54
	BYTE	W01
	BYTE		VOL     30*seq_002_mvl/mxv
	BYTE		PAN     c_v-50
	BYTE	W01
	BYTE		VOL     28*seq_002_mvl/mxv
	BYTE	W01
	BYTE		PAN     c_v-46
	BYTE	W01
	BYTE		        c_v-43
	BYTE	W01
	BYTE		        c_v-40
	BYTE	W01
	BYTE		        c_v-36
	BYTE	W01
	BYTE		        c_v-32
	BYTE	W01
	BYTE		        c_v-28
	BYTE	W01
	BYTE		        c_v-25
	BYTE	W01
	BYTE		        c_v-22
	BYTE	W01
	BYTE		        c_v-18
	BYTE	W01
	BYTE		        c_v-14
	BYTE	W01
	BYTE		        c_v-10
	BYTE	W01
	BYTE		EOT
	BYTE		PAN     c_v-6
	BYTE	W01
	BYTE		VOL     4*seq_002_mvl/mxv
	BYTE		TIE     Fn4 
	BYTE	W01
	BYTE		VOL     5*seq_002_mvl/mxv
	BYTE	W01
	BYTE		        6*seq_002_mvl/mxv
	BYTE	W01
	BYTE		        6*seq_002_mvl/mxv
	BYTE	W01
	BYTE		        8*seq_002_mvl/mxv
	BYTE	W01
	BYTE		        9*seq_002_mvl/mxv
	BYTE	W01
	BYTE		        10*seq_002_mvl/mxv
	BYTE	W01
	BYTE		        10*seq_002_mvl/mxv
	BYTE	W02
	BYTE		        12*seq_002_mvl/mxv
	BYTE	W01
	BYTE		        12*seq_002_mvl/mxv
	BYTE	W01
	BYTE		        13*seq_002_mvl/mxv
	BYTE	W01
	BYTE		        14*seq_002_mvl/mxv
	BYTE	W01
	BYTE		        15*seq_002_mvl/mxv
	BYTE	W01
	BYTE		        16*seq_002_mvl/mxv
	BYTE	W01
	BYTE		        17*seq_002_mvl/mxv
	BYTE	W01
	BYTE		        18*seq_002_mvl/mxv
	BYTE	W02
	BYTE		        19*seq_002_mvl/mxv
	BYTE	W01
	BYTE		        20*seq_002_mvl/mxv
	BYTE	W01
	BYTE		        21*seq_002_mvl/mxv
	BYTE	W01
	BYTE		        22*seq_002_mvl/mxv
	BYTE	W01
	BYTE		        22*seq_002_mvl/mxv
	BYTE	W01
	BYTE		        24*seq_002_mvl/mxv
	BYTE	W01
	BYTE		        25*seq_002_mvl/mxv
	BYTE	W01
	BYTE		        26*seq_002_mvl/mxv
	BYTE	W02
	BYTE		        26*seq_002_mvl/mxv
	BYTE	W01
	BYTE		        28*seq_002_mvl/mxv
	BYTE	W01
	BYTE		        28*seq_002_mvl/mxv
	BYTE	W01
	BYTE		PAN     c_v+1
	BYTE		VOL     29*seq_002_mvl/mxv
	BYTE	W01
	BYTE		PAN     c_v+4
	BYTE		VOL     30*seq_002_mvl/mxv
	BYTE	W01
	BYTE		PAN     c_v+7
	BYTE		VOL     31*seq_002_mvl/mxv
	BYTE	W01
	BYTE		PAN     c_v+10
	BYTE		VOL     32*seq_002_mvl/mxv
	BYTE	W01
	BYTE		PAN     c_v+13
	BYTE		VOL     33*seq_002_mvl/mxv
	BYTE	W01
	BYTE		PAN     c_v+15
	BYTE		VOL     34*seq_002_mvl/mxv
	BYTE	W01
	BYTE		PAN     c_v+18
	BYTE	W01
	BYTE		VOL     35*seq_002_mvl/mxv
	BYTE		PAN     c_v+21
	BYTE		VOL     36*seq_002_mvl/mxv
	BYTE	W01
	BYTE		PAN     c_v+24
	BYTE	W01
	BYTE		VOL     37*seq_002_mvl/mxv
	BYTE		PAN     c_v+27
	BYTE	W01
	BYTE		VOL     38*seq_002_mvl/mxv
	BYTE		PAN     c_v+30
	BYTE	W01
	BYTE		VOL     38*seq_002_mvl/mxv
	BYTE	W01
	BYTE		PAN     c_v+33
	BYTE		VOL     40*seq_002_mvl/mxv
	BYTE	W01
	BYTE		PAN     c_v+35
	BYTE		VOL     41*seq_002_mvl/mxv
	BYTE	W01
	BYTE		PAN     c_v+38
	BYTE		VOL     42*seq_002_mvl/mxv
	BYTE	W01
	BYTE		PAN     c_v+41
	BYTE		VOL     42*seq_002_mvl/mxv
	BYTE	W01
	BYTE		PAN     c_v+44
	BYTE		VOL     44*seq_002_mvl/mxv
	BYTE	W01
	BYTE		PAN     c_v+47
	BYTE	W01
	BYTE		VOL     44*seq_002_mvl/mxv
	BYTE		PAN     c_v+50
	BYTE	W01
	BYTE		VOL     45*seq_002_mvl/mxv
	BYTE		PAN     c_v+53
	BYTE	W01
	BYTE		VOL     46*seq_002_mvl/mxv
	BYTE		PAN     c_v+55
	BYTE	W01
	BYTE		VOL     47*seq_002_mvl/mxv
	BYTE		PAN     c_v+58
	BYTE	W01
	BYTE		VOL     48*seq_002_mvl/mxv
	BYTE		PAN     c_v+61
	BYTE	W01
	BYTE		VOL     49*seq_002_mvl/mxv
	BYTE		PAN     c_v+63
	BYTE	W01
	BYTE		VOL     50*seq_002_mvl/mxv
	BYTE	W01
	BYTE		        51*seq_002_mvl/mxv
	BYTE	W02
	BYTE		        52*seq_002_mvl/mxv
	BYTE	W01
	BYTE		        53*seq_002_mvl/mxv
	BYTE	W01
	BYTE		        54*seq_002_mvl/mxv
	BYTE	W01
	BYTE		        54*seq_002_mvl/mxv
	BYTE	W01
	BYTE		        58*seq_002_mvl/mxv
	BYTE	W01
	BYTE		        58*seq_002_mvl/mxv
	BYTE	W01
	BYTE		        60*seq_002_mvl/mxv
	BYTE	W01
	BYTE		        60*seq_002_mvl/mxv
	BYTE	W01
	BYTE		        61*seq_002_mvl/mxv
	BYTE	W01
	BYTE		        62*seq_002_mvl/mxv
	BYTE	W01
	BYTE		        63*seq_002_mvl/mxv
	BYTE	W02
	BYTE		        65*seq_002_mvl/mxv
	BYTE	W01
	BYTE		        66*seq_002_mvl/mxv
	BYTE	W01
	BYTE		        67*seq_002_mvl/mxv
	BYTE	W01
	BYTE		        68*seq_002_mvl/mxv
	BYTE	W01
	BYTE		        69*seq_002_mvl/mxv
	BYTE	W01
	BYTE		        70*seq_002_mvl/mxv
	BYTE	W01
	BYTE		        70*seq_002_mvl/mxv
	BYTE	W02
	BYTE		        73*seq_002_mvl/mxv
	BYTE	W01
	BYTE		        74*seq_002_mvl/mxv
	BYTE	W01
	BYTE		PAN     c_v+63
	BYTE		VOL     74*seq_002_mvl/mxv
	BYTE	W01
	BYTE		        76*seq_002_mvl/mxv
	BYTE	W01
	BYTE		        76*seq_002_mvl/mxv
	BYTE	W01
	BYTE		        77*seq_002_mvl/mxv
	BYTE	W01
	BYTE		PAN     c_v+61
	BYTE		VOL     78*seq_002_mvl/mxv
	BYTE	W01
	BYTE		PAN     c_v+58
	BYTE	W01
	BYTE		        c_v+56
	BYTE	W01
	BYTE		        c_v+54
	BYTE	W01
	BYTE		        c_v+53
	BYTE	W01
	BYTE		        c_v+50
	BYTE	W01
	BYTE		        c_v+48
	BYTE	W01
	BYTE		        c_v+46
	BYTE	W01
	BYTE		        c_v+44
	BYTE	W01
	BYTE		        c_v+41
	BYTE	W01
	BYTE		        c_v+39
	BYTE	W01
	BYTE		        c_v+37
	BYTE	W02
	BYTE		        c_v+35
	BYTE	W01
	BYTE		        c_v+33
	BYTE	W01
	BYTE		        c_v+31
	BYTE	W01
	BYTE		        c_v+29
	BYTE	W01
	BYTE		        c_v+26
	BYTE	W01
	BYTE		        c_v+24
	BYTE	W01
	BYTE		        c_v+22
	BYTE	W01
	BYTE		        c_v+20
	BYTE	W01
	BYTE		        c_v+17
	BYTE	W01
	BYTE		        c_v+15
	BYTE	W01
	BYTE		        c_v+14
	BYTE	W32
	BYTE	W01
	BYTE		        c_v-6
	BYTE	W01
	BYTE		        c_v-8
	BYTE	W01
	BYTE		        c_v-10
	BYTE	W01
	BYTE		        c_v-12
	BYTE	W01
	BYTE		        c_v-14
	BYTE	W01
	BYTE		        c_v-16
	BYTE	W01
	BYTE		        c_v-18
	BYTE	W01
	BYTE		        c_v-20
	BYTE	W01
	BYTE		        c_v-22
	BYTE	W01
	BYTE		        c_v-24
	BYTE	W02
	BYTE		        c_v-25
	BYTE	W01
	BYTE		        c_v-27
	BYTE	W01
	BYTE		        c_v-29
	BYTE	W01
	BYTE		        c_v-31
	BYTE	W01
	BYTE		        c_v-34
	BYTE	W01
	BYTE		        c_v-36
	BYTE	W01
	BYTE		        c_v-38
	BYTE	W01
	BYTE		        c_v-40
	BYTE	W01
	BYTE		        c_v-42
	BYTE	W01
	BYTE		        c_v-44
	BYTE	W01
	BYTE		        c_v-45
	BYTE	W01
	BYTE		        c_v-47
	BYTE	W01
	BYTE		        c_v-49
	BYTE	W02
	BYTE		        c_v-51
	BYTE	W01
	BYTE		        c_v-53
	BYTE	W01
	BYTE		        c_v-55
	BYTE	W01
	BYTE		        c_v-57
	BYTE	W01
	BYTE		        c_v-59
	BYTE	W20
	BYTE		        c_v-64
	BYTE	W01
	BYTE		        c_v-58
	BYTE	W02
	BYTE		        c_v-51
	BYTE		VOL     74*seq_002_mvl/mxv
	BYTE	W01
	BYTE		PAN     c_v-45
	BYTE		VOL     73*seq_002_mvl/mxv
	BYTE	W01
	BYTE		PAN     c_v-38
	BYTE		VOL     72*seq_002_mvl/mxv
	BYTE	W01
	BYTE		PAN     c_v-30
	BYTE		VOL     70*seq_002_mvl/mxv
	BYTE	W01
	BYTE		PAN     c_v-24
	BYTE	W01
	BYTE		VOL     70*seq_002_mvl/mxv
	BYTE		PAN     c_v-17
	BYTE	W01
	BYTE		VOL     69*seq_002_mvl/mxv
	BYTE		PAN     c_v-10
	BYTE		VOL     68*seq_002_mvl/mxv
	BYTE	W02
	BYTE		        67*seq_002_mvl/mxv
	BYTE	W01
	BYTE		        66*seq_002_mvl/mxv
	BYTE	W01
	BYTE		        65*seq_002_mvl/mxv
	BYTE	W01
	BYTE		        64*seq_002_mvl/mxv
	BYTE	W01
	BYTE		        63*seq_002_mvl/mxv
	BYTE	W01
	BYTE		        61*seq_002_mvl/mxv
	BYTE	W01
	BYTE		        60*seq_002_mvl/mxv
	BYTE	W01
	BYTE		        60*seq_002_mvl/mxv
	BYTE	W01
	BYTE		        58*seq_002_mvl/mxv
	BYTE	W01
	BYTE		        58*seq_002_mvl/mxv
	BYTE	W01
	BYTE		        56*seq_002_mvl/mxv
	BYTE	W01
	BYTE		        54*seq_002_mvl/mxv
	BYTE	W01
	BYTE		        54*seq_002_mvl/mxv
	BYTE	W01
	BYTE		        53*seq_002_mvl/mxv
	BYTE	W01
	BYTE		        51*seq_002_mvl/mxv
	BYTE	W01
	BYTE		        49*seq_002_mvl/mxv
	BYTE	W01
	BYTE		        48*seq_002_mvl/mxv
	BYTE	W01
	BYTE		        46*seq_002_mvl/mxv
	BYTE	W01
	BYTE		        45*seq_002_mvl/mxv
	BYTE	W01
	BYTE		        44*seq_002_mvl/mxv
	BYTE	W01
	BYTE		        42*seq_002_mvl/mxv
	BYTE	W01
	BYTE		        41*seq_002_mvl/mxv
	BYTE	W01
	BYTE		        38*seq_002_mvl/mxv
	BYTE	W01
	BYTE		        37*seq_002_mvl/mxv
	BYTE	W01
	BYTE		        36*seq_002_mvl/mxv
	BYTE	W01
	BYTE		        34*seq_002_mvl/mxv
	BYTE	W01
	BYTE		        32*seq_002_mvl/mxv
	BYTE	W01
	BYTE		        30*seq_002_mvl/mxv
	BYTE	W01
	BYTE		        28*seq_002_mvl/mxv
	BYTE	W12
	BYTE		EOT
	BYTE	W01
	BYTE	W02
	BYTE		VOICE   85
	BYTE		VOL     26*seq_002_mvl/mxv
	BYTE		PAN     c_v+63
	BYTE		BEND    c_v+0
	BYTE	W01
	BYTE		N24     As3   v068
	BYTE	W24
	BYTE		N48     Gn3   v084
	BYTE	W48
	BYTE		N12     Ds3   v124
	BYTE	W12
	BYTE		        Fn3   v127
	BYTE	W09
	BYTE	W03
	BYTE		N68     As2   v100
	BYTE	W72
	BYTE		N12     Ds3   v092
	BYTE	W12
	BYTE		        Fn3 
	BYTE	W09
	BYTE	W03
	BYTE		N23     Cn4   v060
	BYTE	W24
	BYTE		TIE     Gn3 
	BYTE	W68
	BYTE	W01
	BYTE	W96
	BYTE	W03
	BYTE		EOT
	BYTE	W92
	BYTE	W01
	BYTE	W96
	BYTE	W96
	BYTE	W72
	BYTE	W03
	BYTE		N12     Ds2   v108
	BYTE	W12
	BYTE		        Fn2   v076
	BYTE	W09
	BYTE	W03
	BYTE		N68     As2   v096
	BYTE	W72
	BYTE		N12     Ds2   v104
	BYTE	W12
	BYTE		        Fn2   v068
	BYTE	W09
	BYTE	W03
	BYTE		N68     Cn3   v088
	BYTE	W72
	BYTE		N12     Gn2   v112
	BYTE	W12
	BYTE		        As2   v072
	BYTE	W09
	BYTE	W03
	BYTE		N24     Dn3   v084
	BYTE	W24
	BYTE		N36     Fn3   v108
	BYTE	W36
	BYTE		N12     Ds3 
	BYTE	W09
	BYTE	W03
	BYTE		N32     As2   v092
	BYTE	W36
	BYTE		N12     Gn3   v064
	BYTE	W12
	BYTE		        Gs3   v076
	BYTE	W12
	BYTE		        Gn3   v064
	BYTE	W09
	BYTE	W03
	BYTE		TIE     As3   v072
	BYTE	W68
	BYTE	W01
	BYTE	W72
	BYTE	W44
	BYTE		VOL     26*seq_002_mvl/mxv
	BYTE	W08
	BYTE		        25*seq_002_mvl/mxv
	BYTE	W03
	BYTE		        24*seq_002_mvl/mxv
	BYTE	W04
	BYTE		        24*seq_002_mvl/mxv
	BYTE	W03
	BYTE		        23*seq_002_mvl/mxv
	BYTE	W04
	BYTE		        22*seq_002_mvl/mxv
	BYTE	W04
	BYTE		        22*seq_002_mvl/mxv
	BYTE	W02
	BYTE	W01
	BYTE		        21*seq_002_mvl/mxv
	BYTE	W03
	BYTE		        20*seq_002_mvl/mxv
	BYTE	W05
	BYTE		        20*seq_002_mvl/mxv
	BYTE	W03
	BYTE		        19*seq_002_mvl/mxv
	BYTE	W03
	BYTE		        18*seq_002_mvl/mxv
	BYTE	W04
	BYTE		        18*seq_002_mvl/mxv
	BYTE	W04
	BYTE		        17*seq_002_mvl/mxv
	BYTE	W03
	BYTE		        16*seq_002_mvl/mxv
	BYTE	W04
	BYTE		        16*seq_002_mvl/mxv
	BYTE	W04
	BYTE		        15*seq_002_mvl/mxv
	BYTE	W03
	BYTE		        14*seq_002_mvl/mxv
	BYTE	W04
	BYTE		        14*seq_002_mvl/mxv
	BYTE	W03
	BYTE		        13*seq_002_mvl/mxv
	BYTE	W04
	BYTE		        12*seq_002_mvl/mxv
	BYTE	W07
	BYTE		        12*seq_002_mvl/mxv
	BYTE	W03
	BYTE		        11*seq_002_mvl/mxv
	BYTE	W05
	BYTE		        10*seq_002_mvl/mxv
	BYTE	W03
	BYTE		        10*seq_002_mvl/mxv
	BYTE	W03
	BYTE		        9*seq_002_mvl/mxv
	BYTE	W03
	BYTE	W01
	BYTE		        8*seq_002_mvl/mxv
	BYTE	W04
	BYTE		        8*seq_002_mvl/mxv
	BYTE	W01
	BYTE		EOT
	BYTE	W90
	BYTE	W96
	BYTE	W96
	BYTE	W96
	BYTE	W96
	BYTE	W96
	BYTE	W96
	BYTE	W96
	BYTE	W96
	BYTE	W96
	BYTE	W96
	BYTE	W96
	BYTE	W96
	BYTE	W02
	BYTE		VOICE   83
	BYTE	W01
	BYTE		        As4 
	BYTE		VOL     40*seq_002_mvl/mxv
	BYTE		PAN     c_v+63
	BYTE		BENDR   3
	BYTE		BEND    c_v+0
	BYTE	W92
	BYTE	W01
	BYTE	W03
	BYTE		N04     Fn2   v096
	BYTE	W04
	BYTE		        Fn2   v048
	BYTE	W04
	BYTE		        Fn2   v036
	BYTE	W04
	BYTE		        Fn2   v028
	BYTE	W04
	BYTE		        Fn2   v020
	BYTE	W08
	BYTE		        An1   v096
	BYTE	W04
	BYTE		        An1   v048
	BYTE	W04
	BYTE		        An1   v036
	BYTE	W04
	BYTE		        As1   v096
	BYTE	W04
	BYTE		        As1   v048
	BYTE	W04
	BYTE		        As1   v036
	BYTE	W04
	BYTE		        Cn2   v096
	BYTE	W04
	BYTE		        Cn2   v048
	BYTE	W04
	BYTE		        Cn2   v036
	BYTE	W04
	BYTE		        Cn2   v028
	BYTE	W04
	BYTE		        Cn2   v020
	BYTE	W04
	BYTE		        Cn2   v012
	BYTE	W04
	BYTE		        Cn2   v008
	BYTE	W12
	BYTE		        Gs2   v096
	BYTE	W04
	BYTE		        Gs2   v048
	BYTE	W04
	BYTE		        Gs2   v036
	BYTE	W01
	BYTE	W03
	BYTE		        Fs2   v096
	BYTE	W04
	BYTE		        Fs2   v048
	BYTE	W04
	BYTE		        Fs2   v036
	BYTE	W04
	BYTE		        Fs2   v028
	BYTE	W04
	BYTE		        Fs2   v020
	BYTE	W04
	BYTE		        Fs2   v012
	BYTE	W04
	BYTE		        Fs2   v008
	BYTE	W24
	BYTE		        Ds2   v096
	BYTE	W04
	BYTE		        Ds2   v048
	BYTE	W04
	BYTE		        Ds2   v036
	BYTE	W04
	BYTE		        Ds2   v028
	BYTE	W04
	BYTE		        Ds2   v016
	BYTE	W04
	BYTE		        Ds2   v012
	BYTE	W04
	BYTE		        Ds2   v008
	BYTE	W21
	BYTE	W03
	BYTE		        Fn2   v096
	BYTE	W04
	BYTE		        Fn2   v048
	BYTE	W04
	BYTE		        Fn2   v036
	BYTE	W04
	BYTE		        Fn2   v028
	BYTE	W04
	BYTE		        Fn2   v020
	BYTE	W04
	BYTE		        Fn2   v012
	BYTE	W04
	BYTE		        Fn2   v008
	BYTE	W68
	BYTE	W01
	BYTE	W96
	BYTE	W03
	BYTE		        An2   v116
	BYTE	W04
	BYTE		        An2   v056
	BYTE	W04
	BYTE		        An2   v040
	BYTE	W04
	BYTE		        An2   v032
	BYTE	W04
	BYTE		        An2   v024
	BYTE	W08
	BYTE		        Cs2   v116
	BYTE	W04
	BYTE		        Cs2   v056
	BYTE	W04
	BYTE		        Cs2   v040
	BYTE	W04
	BYTE		        Dn2   v116
	BYTE	W04
	BYTE		        Dn2   v056
	BYTE	W04
	BYTE		        Dn2   v040
	BYTE	W04
	BYTE		        En2   v116
	BYTE	W04
	BYTE		        En2   v056
	BYTE	W04
	BYTE		        En2   v040
	BYTE	W04
	BYTE		        En2   v032
	BYTE	W04
	BYTE		        En2   v024
	BYTE	W04
	BYTE		        En2   v016
	BYTE	W04
	BYTE		        En2   v012
	BYTE	W12
	BYTE		        Cn3   v116
	BYTE	W04
	BYTE		        Cn3   v056
	BYTE	W04
	BYTE		        Cn3   v040
	BYTE	W01
	BYTE	W03
	BYTE		        As2   v116
	BYTE	W04
	BYTE		        As2   v056
	BYTE	W04
	BYTE		        As2   v040
	BYTE	W04
	BYTE		        As2   v032
	BYTE	W04
	BYTE		        As2   v020
	BYTE	W04
	BYTE		        As2   v016
	BYTE	W04
	BYTE		        As2   v012
	BYTE	W24
	BYTE		        Fs2   v116
	BYTE	W04
	BYTE		        Fs2   v056
	BYTE	W04
	BYTE		        Fs2   v040
	BYTE	W04
	BYTE		        Fs2   v032
	BYTE	W04
	BYTE		        Fs2   v020
	BYTE	W04
	BYTE		        Fs2   v016
	BYTE	W04
	BYTE		        Fs2   v012
	BYTE	W21
	BYTE	W03
	BYTE		        An2   v116
	BYTE	W04
	BYTE		        An2   v056
	BYTE	W04
	BYTE		        An2   v040
	BYTE	W04
	BYTE		        An2   v032
	BYTE	W04
	BYTE		        An2   v024
	BYTE	W04
	BYTE		        An2   v016
	BYTE	W04
	BYTE		        An2   v012
	BYTE	W68
	BYTE	W01
	BYTE	W96
	BYTE	W96
	BYTE	W96
	BYTE	W96
	BYTE	W02
	BYTE		VOICE   65
	BYTE		VOL     40*seq_002_mvl/mxv
	BYTE		PAN     c_v+63
	BYTE		BENDR   3
	BYTE		BEND    c_v+0
	BYTE	W92
	BYTE	W02
	BYTE	W96
	BYTE	W01
	BYTE		N05     Cs3   v100
	BYTE	W06
	BYTE		        Ds3 
	BYTE	W06
	BYTE		        Fn3 
	BYTE	W06
	BYTE		        Cs3 
	BYTE	W06
	BYTE		        Gn3 
	BYTE	W06
	BYTE		        Fn3 
	BYTE	W06
	BYTE		        Ds3 
	BYTE	W06
	BYTE		        Cs3 
	BYTE	W06
	BYTE		        Ds3 
	BYTE	W06
	BYTE		        Fn3 
	BYTE	W06
	BYTE		        Cs3 
	BYTE	W06
	BYTE		        Gn3 
	BYTE	W06
	BYTE		        Fn3 
	BYTE	W06
	BYTE		        Ds3 
	BYTE	W06
	BYTE		        Cs3 
	BYTE	W06
	BYTE		        Ds3 
	BYTE	W05
	BYTE	W01
	BYTE		        Fn4   v068
	BYTE	W06
	BYTE		        Gn4 
	BYTE	W06
	BYTE		        Gs4 
	BYTE	W06
	BYTE		        Fn4 
	BYTE	W06
	BYTE		        As4 
	BYTE	W06
	BYTE		        Gs4 
	BYTE	W06
	BYTE		        Gn4 
	BYTE	W06
	BYTE		        Fn4 
	BYTE	W06
	BYTE		        Gn4 
	BYTE	W06
	BYTE		        Gs4 
	BYTE	W06
	BYTE		        Fn4 
	BYTE	W06
	BYTE		        As4 
	BYTE	W06
	BYTE		        Gs4 
	BYTE	W06
	BYTE		        Gn4 
	BYTE	W06
	BYTE		N02     Fn4   v096
	BYTE	W02
	BYTE		        Gn4 
	BYTE	W02
	BYTE		        Gs4 
	BYTE	W02
	BYTE		        As4 
	BYTE	W02
	BYTE		N01     Cn5 
	BYTE	W01
	BYTE		        Cs5 
	BYTE	W01
	BYTE		        Ds5 
	BYTE	W01
	BYTE		        Fn5 
	BYTE	W96
	BYTE	W96
	BYTE	W48
	BYTE		VOICE   65
	BYTE		VOL     66*seq_002_mvl/mxv
	BYTE		PAN     c_v+16
	BYTE		BENDR   3
	BYTE		BEND    c_v+0
	BYTE	W48
	BYTE		N72     Dn3   v052
	BYTE	W72
	BYTE		N24     Cs3 
	BYTE	W24
	BYTE	PEND
	BYTE	PATT
	 POIN2	seq_002_4 + 0x999
	BYTE	PATT
	 POIN2	seq_002_4 + 0x999
	BYTE		N48     Dn3   v052
	BYTE	W48
	BYTE		        En3 
	BYTE	W48
	BYTE	PEND
	BYTE		        Dn3 
	BYTE	W48
	BYTE		        Cs3 
	BYTE	W48
	BYTE	PATT
	 POIN2	seq_002_4 + 0x9AB
	BYTE		N48     Fn3   v052
	BYTE	W48
	BYTE		        En3 
	BYTE	W48
	BYTE		        Gn3 
	BYTE	W48
	BYTE		        Fs3 
	BYTE	W48
	BYTE		N96     Gs3   v040
	BYTE	W96
	BYTE		        Gn3 
	BYTE	W96
	BYTE		N48     Gn3   v028
	BYTE	W48
	BYTE		        An3 
	BYTE	W48
	BYTE		        Gn3 
	BYTE	W48
	BYTE		        Fs3 
	BYTE	W48
	BYTE		        Gn3 
	BYTE	W48
	BYTE		        Fn3 
	BYTE	W48
	BYTE		TIE     Fs3 
	BYTE	W48
	BYTE	W01
	BYTE		VOL     66*seq_002_mvl/mxv
	BYTE	W01
	BYTE		        66*seq_002_mvl/mxv
	BYTE	W04
	BYTE		        65*seq_002_mvl/mxv
	BYTE	W02
	BYTE		        64*seq_002_mvl/mxv
	BYTE	W02
	BYTE		        64*seq_002_mvl/mxv
	BYTE	W02
	BYTE		        63*seq_002_mvl/mxv
	BYTE	W02
	BYTE		        62*seq_002_mvl/mxv
	BYTE	W02
	BYTE		        62*seq_002_mvl/mxv
	BYTE	W02
	BYTE		        61*seq_002_mvl/mxv
	BYTE	W02
	BYTE		        60*seq_002_mvl/mxv
	BYTE	W01
	BYTE		        60*seq_002_mvl/mxv
	BYTE	W02
	BYTE		        59*seq_002_mvl/mxv
	BYTE	W02
	BYTE		        58*seq_002_mvl/mxv
	BYTE	W01
	BYTE		        58*seq_002_mvl/mxv
	BYTE	W02
	BYTE		        57*seq_002_mvl/mxv
	BYTE	W02
	BYTE		        56*seq_002_mvl/mxv
	BYTE	W01
	BYTE		        56*seq_002_mvl/mxv
	BYTE	W02
	BYTE		        55*seq_002_mvl/mxv
	BYTE	W02
	BYTE		        54*seq_002_mvl/mxv
	BYTE	W01
	BYTE		        54*seq_002_mvl/mxv
	BYTE	W01
	BYTE		        53*seq_002_mvl/mxv
	BYTE	W02
	BYTE		        52*seq_002_mvl/mxv
	BYTE	W03
	BYTE		        52*seq_002_mvl/mxv
	BYTE	W01
	BYTE		        51*seq_002_mvl/mxv
	BYTE	W02
	BYTE		        50*seq_002_mvl/mxv
	BYTE	W01
	BYTE		        50*seq_002_mvl/mxv
	BYTE	W02
	BYTE		        49*seq_002_mvl/mxv
	BYTE	W01
	BYTE		        48*seq_002_mvl/mxv
	BYTE	W01
	BYTE		        48*seq_002_mvl/mxv
	BYTE	W01
	BYTE		        47*seq_002_mvl/mxv
	BYTE	W01
	BYTE		        46*seq_002_mvl/mxv
	BYTE	W02
	BYTE		        46*seq_002_mvl/mxv
	BYTE	W01
	BYTE		        45*seq_002_mvl/mxv
	BYTE	W01
	BYTE		        44*seq_002_mvl/mxv
	BYTE	W01
	BYTE		        44*seq_002_mvl/mxv
	BYTE	W02
	BYTE		        43*seq_002_mvl/mxv
	BYTE	W01
	BYTE		        42*seq_002_mvl/mxv
	BYTE	W01
	BYTE		        42*seq_002_mvl/mxv
	BYTE	W01
	BYTE		        41*seq_002_mvl/mxv
	BYTE	W01
	BYTE		        40*seq_002_mvl/mxv
	BYTE	W01
	BYTE		        40*seq_002_mvl/mxv
	BYTE	W01
	BYTE		        39*seq_002_mvl/mxv
	BYTE	W03
	BYTE		        38*seq_002_mvl/mxv
	BYTE	W01
	BYTE		        38*seq_002_mvl/mxv
	BYTE	W01
	BYTE		        37*seq_002_mvl/mxv
	BYTE	W01
	BYTE		        36*seq_002_mvl/mxv
	BYTE	W01
	BYTE		        36*seq_002_mvl/mxv
	BYTE	W01
	BYTE		        35*seq_002_mvl/mxv
	BYTE	W01
	BYTE		        34*seq_002_mvl/mxv
	BYTE	W01
	BYTE		        34*seq_002_mvl/mxv
	BYTE	W01
	BYTE		        33*seq_002_mvl/mxv
	BYTE	W01
	BYTE		        32*seq_002_mvl/mxv
	BYTE	W01
	BYTE		        32*seq_002_mvl/mxv
	BYTE	W01
	BYTE		        31*seq_002_mvl/mxv
	BYTE	W01
	BYTE		        30*seq_002_mvl/mxv
	BYTE	W01
	BYTE		        30*seq_002_mvl/mxv
	BYTE	W01
	BYTE		        29*seq_002_mvl/mxv
	BYTE	W01
	BYTE		        28*seq_002_mvl/mxv
	BYTE	W01
	BYTE		        28*seq_002_mvl/mxv
	BYTE	W01
	BYTE		        26*seq_002_mvl/mxv
	BYTE	W01
	BYTE		        26*seq_002_mvl/mxv
	BYTE	W02
	BYTE		        25*seq_002_mvl/mxv
	BYTE	W01
	BYTE		        24*seq_002_mvl/mxv
	BYTE	W01
	BYTE		        24*seq_002_mvl/mxv
	BYTE	W01
	BYTE		        23*seq_002_mvl/mxv
	BYTE	W01
	BYTE		        22*seq_002_mvl/mxv
	BYTE	W01
	BYTE		        22*seq_002_mvl/mxv
	BYTE	W01
	BYTE		        20*seq_002_mvl/mxv
	BYTE	W01
	BYTE		        20*seq_002_mvl/mxv
	BYTE	W01
	BYTE		        19*seq_002_mvl/mxv
	BYTE	W01
	BYTE		        18*seq_002_mvl/mxv
	BYTE	W01
	BYTE		        17*seq_002_mvl/mxv
	BYTE	W01
	BYTE		        16*seq_002_mvl/mxv
	BYTE	W01
	BYTE		        16*seq_002_mvl/mxv
	BYTE	W01
	BYTE		        14*seq_002_mvl/mxv
	BYTE	W01
	BYTE		        14*seq_002_mvl/mxv
	BYTE	W01
	BYTE		        13*seq_002_mvl/mxv
	BYTE	W01
	BYTE		        12*seq_002_mvl/mxv
	BYTE	W01
	BYTE		        12*seq_002_mvl/mxv
	BYTE	W01
	BYTE		        11*seq_002_mvl/mxv
	BYTE	W01
	BYTE		        10*seq_002_mvl/mxv
	BYTE	W01
	BYTE		        9*seq_002_mvl/mxv
	BYTE	W01
	BYTE		        8*seq_002_mvl/mxv
	BYTE	W01
	BYTE		        7*seq_002_mvl/mxv
	BYTE	W01
	BYTE		        6*seq_002_mvl/mxv
	BYTE	W01
	BYTE		        5*seq_002_mvl/mxv
	BYTE	W01
	BYTE		        4*seq_002_mvl/mxv
	BYTE	W01
	BYTE		        3*seq_002_mvl/mxv
	BYTE	W01
	BYTE		        2*seq_002_mvl/mxv
	BYTE	W01
	BYTE		        1*seq_002_mvl/mxv
	BYTE	W01
	BYTE		        0*seq_002_mvl/mxv
	BYTE	W03
	BYTE		EOT
	BYTE	FINE

//*********************** Track 06 ***********************//

seq_002_5:
	BYTE	KEYSH   seq_002_key+0
	BYTE		VOICE   84
	BYTE		VOL     66*seq_002_mvl/mxv
	BYTE		PAN     c_v+26
	BYTE		BENDR   3
	BYTE		BEND    c_v+0
	BYTE	W03
	BYTE	W96
	BYTE	W96
	BYTE	W96
	BYTE	W96
	BYTE		N42     Dn3   v104
	BYTE	W48
	BYTE		TIE     Bn2   v084
	BYTE	W48
	BYTE	W72
	BYTE		EOT
	BYTE	W23
	BYTE		PAN     c_v-44
	BYTE	W01
	BYTE		N42     Cn3   v104
	BYTE	W48
	BYTE		TIE     An2   v084
	BYTE	W48
	BYTE	W96
	BYTE	W24
	BYTE		EOT
	BYTE	W23
	BYTE		VOICE   85
	BYTE		VOL     73*seq_002_mvl/mxv
	BYTE		PAN     c_v-24
	BYTE		BEND    c_v+0
	BYTE	W01
	BYTE		N24     As3   v064
	BYTE	W24
	BYTE		N48     Gn3   v068
	BYTE	W48
	BYTE		N12     Ds3   v116
	BYTE	W12
	BYTE		        Fn3 
	BYTE	W12
	BYTE		N68     As2   v080
	BYTE	W72
	BYTE		N12     Ds3   v096
	BYTE	W12
	BYTE		        Fn3   v108
	BYTE	W12
	BYTE		N23     Cn4   v084
	BYTE	W24
	BYTE		TIE     Gn3   v048
	BYTE	W44
	BYTE	W03
	BYTE		VOL     73*seq_002_mvl/mxv
	BYTE	W02
	BYTE		        72*seq_002_mvl/mxv
	BYTE	W04
	BYTE		        71*seq_002_mvl/mxv
	BYTE	W04
	BYTE		        70*seq_002_mvl/mxv
	BYTE	W03
	BYTE		        70*seq_002_mvl/mxv
	BYTE	W04
	BYTE		        69*seq_002_mvl/mxv
	BYTE	W03
	BYTE		        68*seq_002_mvl/mxv
	BYTE	W03
	BYTE		        68*seq_002_mvl/mxv
	BYTE	W02
	BYTE		        67*seq_002_mvl/mxv
	BYTE	W03
	BYTE		        66*seq_002_mvl/mxv
	BYTE	W03
	BYTE		        66*seq_002_mvl/mxv
	BYTE	W03
	BYTE		        65*seq_002_mvl/mxv
	BYTE	W03
	BYTE		        64*seq_002_mvl/mxv
	BYTE	W01
	BYTE		        64*seq_002_mvl/mxv
	BYTE	W03
	BYTE		        63*seq_002_mvl/mxv
	BYTE	W02
	BYTE		        62*seq_002_mvl/mxv
	BYTE	W02
	BYTE		        62*seq_002_mvl/mxv
	BYTE	W02
	BYTE		        61*seq_002_mvl/mxv
	BYTE	W02
	BYTE		        60*seq_002_mvl/mxv
	BYTE	W02
	BYTE		        60*seq_002_mvl/mxv
	BYTE	W02
	BYTE		        59*seq_002_mvl/mxv
	BYTE	W02
	BYTE		        58*seq_002_mvl/mxv
	BYTE	W02
	BYTE		        58*seq_002_mvl/mxv
	BYTE	W01
	BYTE		        57*seq_002_mvl/mxv
	BYTE	W02
	BYTE		        56*seq_002_mvl/mxv
	BYTE	W01
	BYTE		        56*seq_002_mvl/mxv
	BYTE	W02
	BYTE		        55*seq_002_mvl/mxv
	BYTE	W02
	BYTE		        54*seq_002_mvl/mxv
	BYTE	W02
	BYTE		        54*seq_002_mvl/mxv
	BYTE	W01
	BYTE		        53*seq_002_mvl/mxv
	BYTE	W02
	BYTE		        52*seq_002_mvl/mxv
	BYTE	W01
	BYTE		        52*seq_002_mvl/mxv
	BYTE	W02
	BYTE		        51*seq_002_mvl/mxv
	BYTE	W01
	BYTE		        50*seq_002_mvl/mxv
	BYTE	W01
	BYTE		        50*seq_002_mvl/mxv
	BYTE	W01
	BYTE		        49*seq_002_mvl/mxv
	BYTE	W02
	BYTE		        48*seq_002_mvl/mxv
	BYTE	W01
	BYTE		        47*seq_002_mvl/mxv
	BYTE	W02
	BYTE		        46*seq_002_mvl/mxv
	BYTE	W01
	BYTE		        46*seq_002_mvl/mxv
	BYTE	W01
	BYTE		        45*seq_002_mvl/mxv
	BYTE	W01
	BYTE		        44*seq_002_mvl/mxv
	BYTE	W01
	BYTE		        44*seq_002_mvl/mxv
	BYTE	W01
	BYTE		        43*seq_002_mvl/mxv
	BYTE	W01
	BYTE		        42*seq_002_mvl/mxv
	BYTE	W01
	BYTE		        42*seq_002_mvl/mxv
	BYTE	W01
	BYTE		        41*seq_002_mvl/mxv
	BYTE	W01
	BYTE		        40*seq_002_mvl/mxv
	BYTE	W02
	BYTE		        40*seq_002_mvl/mxv
	BYTE	W01
	BYTE		        39*seq_002_mvl/mxv
	BYTE	W01
	BYTE		        38*seq_002_mvl/mxv
	BYTE	W01
	BYTE		        38*seq_002_mvl/mxv
	BYTE	W01
	BYTE		        37*seq_002_mvl/mxv
	BYTE	W01
	BYTE		        36*seq_002_mvl/mxv
	BYTE	W01
	BYTE		        35*seq_002_mvl/mxv
	BYTE	W01
	BYTE		        34*seq_002_mvl/mxv
	BYTE	W01
	BYTE		        34*seq_002_mvl/mxv
	BYTE	W01
	BYTE		        33*seq_002_mvl/mxv
	BYTE	W01
	BYTE		        32*seq_002_mvl/mxv
	BYTE	W01
	BYTE		        31*seq_002_mvl/mxv
	BYTE	W01
	BYTE		        30*seq_002_mvl/mxv
	BYTE	W01
	BYTE		        30*seq_002_mvl/mxv
	BYTE	W01
	BYTE		        29*seq_002_mvl/mxv
	BYTE	W01
	BYTE		        28*seq_002_mvl/mxv
	BYTE	W01
	BYTE		        28*seq_002_mvl/mxv
	BYTE	W01
	BYTE		        26*seq_002_mvl/mxv
	BYTE	W01
	BYTE		        25*seq_002_mvl/mxv
	BYTE	W01
	BYTE		        24*seq_002_mvl/mxv
	BYTE	W01
	BYTE		        23*seq_002_mvl/mxv
	BYTE	W01
	BYTE		        22*seq_002_mvl/mxv
	BYTE	W01
	BYTE		        21*seq_002_mvl/mxv
	BYTE	W01
	BYTE		        20*seq_002_mvl/mxv
	BYTE	W01
	BYTE		        19*seq_002_mvl/mxv
	BYTE	W01
	BYTE		        18*seq_002_mvl/mxv
	BYTE	W01
	BYTE		        18*seq_002_mvl/mxv
	BYTE	W01
	BYTE		        16*seq_002_mvl/mxv
	BYTE	W01
	BYTE		        16*seq_002_mvl/mxv
	BYTE	W01
	BYTE	W03
	BYTE		EOT
	BYTE	W92
	BYTE	W01
	BYTE	W96
	BYTE	W96
	BYTE		VOL     73*seq_002_mvl/mxv
	BYTE	W72
	BYTE		N11     Ds2   v108
	BYTE	W12
	BYTE		        Fn2   v076
	BYTE	W12
	BYTE		N68     As2   v096
	BYTE	W72
	BYTE		N11     Ds2   v104
	BYTE	W12
	BYTE		        Fn2   v068
	BYTE	W12
	BYTE		N68     Cn3   v088
	BYTE	W72
	BYTE		N11     Gn2   v112
	BYTE	W12
	BYTE		        As2   v072
	BYTE	W12
	BYTE		N24     Dn3   v084
	BYTE	W24
	BYTE		N36     Fn3   v108
	BYTE	W36
	BYTE		N12     Ds3 
	BYTE	W12
	BYTE		N32     As2   v092
	BYTE	W36
	BYTE		N11     Gn3   v064
	BYTE	W12
	BYTE		        Gs3   v076
	BYTE	W12
	BYTE		        Gn3   v072
	BYTE	W12
	BYTE		TIE     As3   v064
	BYTE	W72
	BYTE	W16
	BYTE		VOL     74*seq_002_mvl/mxv
	BYTE	W02
	BYTE		        73*seq_002_mvl/mxv
	BYTE	W04
	BYTE		        72*seq_002_mvl/mxv
	BYTE	W04
	BYTE		        71*seq_002_mvl/mxv
	BYTE	W03
	BYTE		        70*seq_002_mvl/mxv
	BYTE	W04
	BYTE		        70*seq_002_mvl/mxv
	BYTE	W03
	BYTE		        69*seq_002_mvl/mxv
	BYTE	W04
	BYTE		        68*seq_002_mvl/mxv
	BYTE	W03
	BYTE		        68*seq_002_mvl/mxv
	BYTE	W04
	BYTE		        67*seq_002_mvl/mxv
	BYTE	W03
	BYTE		        66*seq_002_mvl/mxv
	BYTE	W03
	BYTE		        66*seq_002_mvl/mxv
	BYTE	W03
	BYTE		        65*seq_002_mvl/mxv
	BYTE	W03
	BYTE		        64*seq_002_mvl/mxv
	BYTE	W03
	BYTE		        64*seq_002_mvl/mxv
	BYTE	W03
	BYTE		        63*seq_002_mvl/mxv
	BYTE	W03
	BYTE		        62*seq_002_mvl/mxv
	BYTE	W03
	BYTE		        62*seq_002_mvl/mxv
	BYTE	W01
	BYTE	W02
	BYTE		        61*seq_002_mvl/mxv
	BYTE	W02
	BYTE		        60*seq_002_mvl/mxv
	BYTE	W03
	BYTE		        60*seq_002_mvl/mxv
	BYTE	W02
	BYTE		        59*seq_002_mvl/mxv
	BYTE	W03
	BYTE		        58*seq_002_mvl/mxv
	BYTE	W03
	BYTE		        58*seq_002_mvl/mxv
	BYTE	W03
	BYTE		        57*seq_002_mvl/mxv
	BYTE	W02
	BYTE		        56*seq_002_mvl/mxv
	BYTE	W03
	BYTE		        56*seq_002_mvl/mxv
	BYTE	W02
	BYTE		        55*seq_002_mvl/mxv
	BYTE	W02
	BYTE		        54*seq_002_mvl/mxv
	BYTE	W03
	BYTE		        54*seq_002_mvl/mxv
	BYTE	W02
	BYTE		        53*seq_002_mvl/mxv
	BYTE	W02
	BYTE		        52*seq_002_mvl/mxv
	BYTE	W03
	BYTE		        52*seq_002_mvl/mxv
	BYTE	W02
	BYTE		        51*seq_002_mvl/mxv
	BYTE	W02
	BYTE		        50*seq_002_mvl/mxv
	BYTE	W02
	BYTE		        50*seq_002_mvl/mxv
	BYTE	W03
	BYTE		        49*seq_002_mvl/mxv
	BYTE	W02
	BYTE		        48*seq_002_mvl/mxv
	BYTE	W02
	BYTE		        47*seq_002_mvl/mxv
	BYTE	W02
	BYTE		        46*seq_002_mvl/mxv
	BYTE	W02
	BYTE		        46*seq_002_mvl/mxv
	BYTE	W02
	BYTE		        45*seq_002_mvl/mxv
	BYTE	W03
	BYTE		        44*seq_002_mvl/mxv
	BYTE	W02
	BYTE		        44*seq_002_mvl/mxv
	BYTE	W02
	BYTE		        43*seq_002_mvl/mxv
	BYTE	W02
	BYTE		        42*seq_002_mvl/mxv
	BYTE	W02
	BYTE		        42*seq_002_mvl/mxv
	BYTE	W02
	BYTE		        41*seq_002_mvl/mxv
	BYTE	W02
	BYTE		        40*seq_002_mvl/mxv
	BYTE	W01
	BYTE	W01
	BYTE		        40*seq_002_mvl/mxv
	BYTE	W02
	BYTE		        39*seq_002_mvl/mxv
	BYTE	W02
	BYTE		        38*seq_002_mvl/mxv
	BYTE	W01
	BYTE		        38*seq_002_mvl/mxv
	BYTE	W02
	BYTE		        37*seq_002_mvl/mxv
	BYTE	W02
	BYTE		        36*seq_002_mvl/mxv
	BYTE	W02
	BYTE		        36*seq_002_mvl/mxv
	BYTE	W02
	BYTE		        35*seq_002_mvl/mxv
	BYTE	W02
	BYTE		        34*seq_002_mvl/mxv
	BYTE	W02
	BYTE		        34*seq_002_mvl/mxv
	BYTE	W01
	BYTE		        33*seq_002_mvl/mxv
	BYTE	W02
	BYTE		        32*seq_002_mvl/mxv
	BYTE	W02
	BYTE		        32*seq_002_mvl/mxv
	BYTE	W02
	BYTE		        31*seq_002_mvl/mxv
	BYTE	W02
	BYTE		        30*seq_002_mvl/mxv
	BYTE	W01
	BYTE		        30*seq_002_mvl/mxv
	BYTE	W02
	BYTE		        29*seq_002_mvl/mxv
	BYTE	W01
	BYTE		        28*seq_002_mvl/mxv
	BYTE	W02
	BYTE		        28*seq_002_mvl/mxv
	BYTE	W02
	BYTE		        27*seq_002_mvl/mxv
	BYTE	W01
	BYTE		        26*seq_002_mvl/mxv
	BYTE	W02
	BYTE		        26*seq_002_mvl/mxv
	BYTE	W02
	BYTE		        25*seq_002_mvl/mxv
	BYTE	W01
	BYTE		        24*seq_002_mvl/mxv
	BYTE	W01
	BYTE		        23*seq_002_mvl/mxv
	BYTE	W02
	BYTE		        22*seq_002_mvl/mxv
	BYTE	W02
	BYTE		        22*seq_002_mvl/mxv
	BYTE	W02
	BYTE		        21*seq_002_mvl/mxv
	BYTE	W01
	BYTE		        20*seq_002_mvl/mxv
	BYTE	W02
	BYTE		        20*seq_002_mvl/mxv
	BYTE	W01
	BYTE		        19*seq_002_mvl/mxv
	BYTE	W02
	BYTE		        18*seq_002_mvl/mxv
	BYTE	W01
	BYTE		        18*seq_002_mvl/mxv
	BYTE	W01
	BYTE		        17*seq_002_mvl/mxv
	BYTE	W02
	BYTE		        16*seq_002_mvl/mxv
	BYTE	W01
	BYTE		        16*seq_002_mvl/mxv
	BYTE	W02
	BYTE		        15*seq_002_mvl/mxv
	BYTE	W01
	BYTE		        14*seq_002_mvl/mxv
	BYTE	W02
	BYTE		        14*seq_002_mvl/mxv
	BYTE	W01
	BYTE		        13*seq_002_mvl/mxv
	BYTE	W01
	BYTE		        12*seq_002_mvl/mxv
	BYTE	W02
	BYTE		        12*seq_002_mvl/mxv
	BYTE	W01
	BYTE		        11*seq_002_mvl/mxv
	BYTE	W02
	BYTE		        10*seq_002_mvl/mxv
	BYTE	W01
	BYTE	W03
	BYTE		EOT
	BYTE	W92
	BYTE	W01
	BYTE	W96
	BYTE	W96
	BYTE	W96
	BYTE	W96
	BYTE	W96
	BYTE	W96
	BYTE	W96
	BYTE	W96
	BYTE	W96
	BYTE	W96
	BYTE	W96
	BYTE	W96
	BYTE	W04
	BYTE		VOICE   82
	BYTE		VOL     33*seq_002_mvl/mxv
	BYTE		PAN     c_v-64
	BYTE		BENDR   3
	BYTE		BEND    c_v+0
	BYTE	W92
	BYTE	W05
	BYTE		N03     Fn3   v096
	BYTE	W03
	BYTE		        Fn3   v048
	BYTE	W03
	BYTE		        Fn3   v040
	BYTE	W03
	BYTE		        Fn3   v016
	BYTE	W03
	BYTE		N03
	BYTE	W03
	BYTE		        Fn3   v012
	BYTE	W09
	BYTE		        An2   v096
	BYTE	W03
	BYTE		        An2   v052
	BYTE	W03
	BYTE		        An2   v044
	BYTE	W03
	BYTE		        An2   v032
	BYTE	W03
	BYTE		        As2   v096
	BYTE	W03
	BYTE		        As2   v052
	BYTE	W03
	BYTE		        As2   v044
	BYTE	W03
	BYTE		        As2   v032
	BYTE	W03
	BYTE		        Cn3   v096
	BYTE	W03
	BYTE		        Cn3   v048
	BYTE	W03
	BYTE		        Cn3   v040
	BYTE	W03
	BYTE		        Cn3   v016
	BYTE	W03
	BYTE		N03
	BYTE	W03
	BYTE		        Cn3   v012
	BYTE	W03
	BYTE		        Cn3   v008
	BYTE	W18
	BYTE		        Gs3   v096
	BYTE	W03
	BYTE		        Gs3   v052
	BYTE	W03
	BYTE		        Gs3   v044
	BYTE	W01
	BYTE	W02
	BYTE		        Gs3   v032
	BYTE	W03
	BYTE		        Fs3   v096
	BYTE	W03
	BYTE		        Fs3   v048
	BYTE	W03
	BYTE		        Fs3   v040
	BYTE	W03
	BYTE		        Fs3   v016
	BYTE	W03
	BYTE		N03
	BYTE	W03
	BYTE		        Fs3   v012
	BYTE	W03
	BYTE		        Fs3   v008
	BYTE	W30
	BYTE		        Ds3   v096
	BYTE	W03
	BYTE		        Ds3   v048
	BYTE	W03
	BYTE		        Ds3   v040
	BYTE	W03
	BYTE		        Ds3   v016
	BYTE	W03
	BYTE		N03
	BYTE	W03
	BYTE		        Ds3   v012
	BYTE	W03
	BYTE		        Ds3   v008
	BYTE	W24
	BYTE	W01
	BYTE	W05
	BYTE		        Fn3   v096
	BYTE	W03
	BYTE		        Fn3   v048
	BYTE	W03
	BYTE		        Fn3   v040
	BYTE	W03
	BYTE		        Fn3   v016
	BYTE	W03
	BYTE		N03
	BYTE	W03
	BYTE		        Fn3   v012
	BYTE	W03
	BYTE		        Fn3   v008
	BYTE	W72
	BYTE	W01
	BYTE	W96
	BYTE	W96
	BYTE	W96
	BYTE	W96
	BYTE	W96
	BYTE	W96
	BYTE	W96
	BYTE	W96
	BYTE	W01
	BYTE		VOICE   65
	BYTE		VOL     80*seq_002_mvl/mxv
	BYTE		PAN     c_v+26
	BYTE		BENDR   3
	BYTE		BEND    c_v+0
	BYTE	W92
	BYTE	W03
	BYTE	W96
	BYTE		N05     Cs3   v100
	BYTE	W06
	BYTE		        Ds3 
	BYTE	W06
	BYTE		        Fn3 
	BYTE	W06
	BYTE		        Cs3 
	BYTE	W06
	BYTE		        Gn3 
	BYTE	W06
	BYTE		        Fn3 
	BYTE	W06
	BYTE		        Ds3 
	BYTE	W06
	BYTE		        Cs3 
	BYTE	W06
	BYTE		        Ds3 
	BYTE	W06
	BYTE		        Fn3 
	BYTE	W06
	BYTE		        Cs3 
	BYTE	W06
	BYTE		        Gn3 
	BYTE	W06
	BYTE		        Fn3 
	BYTE	W06
	BYTE		        Ds3 
	BYTE	W06
	BYTE		        Cs3 
	BYTE	W06
	BYTE		        Ds3 
	BYTE	W06
	BYTE	PEND
	BYTE	PATT
	 POIN2	seq_002_5 + 0x2AF
	BYTE		N92     Fs4   v092
	BYTE	W96
	BYTE		N92
	BYTE	W96
	BYTE		N92
	BYTE	W14
	BYTE		VOL     78*seq_002_mvl/mxv
	BYTE	W01
	BYTE		        78*seq_002_mvl/mxv
	BYTE	W01
	BYTE		        77*seq_002_mvl/mxv
	BYTE	W02
	BYTE		        76*seq_002_mvl/mxv
	BYTE	W01
	BYTE		        76*seq_002_mvl/mxv
	BYTE	W01
	BYTE		        75*seq_002_mvl/mxv
	BYTE	W01
	BYTE		        74*seq_002_mvl/mxv
	BYTE	W01
	BYTE		        74*seq_002_mvl/mxv
	BYTE	W01
	BYTE		        73*seq_002_mvl/mxv
	BYTE	W01
	BYTE		        72*seq_002_mvl/mxv
	BYTE	W01
	BYTE		        71*seq_002_mvl/mxv
	BYTE	W01
	BYTE		        70*seq_002_mvl/mxv
	BYTE	W02
	BYTE		        70*seq_002_mvl/mxv
	BYTE	W01
	BYTE		        69*seq_002_mvl/mxv
	BYTE	W01
	BYTE		        68*seq_002_mvl/mxv
	BYTE	W01
	BYTE		        68*seq_002_mvl/mxv
	BYTE	W01
	BYTE		        67*seq_002_mvl/mxv
	BYTE	W01
	BYTE		        66*seq_002_mvl/mxv
	BYTE	W02
	BYTE		        65*seq_002_mvl/mxv
	BYTE	W01
	BYTE		        64*seq_002_mvl/mxv
	BYTE	W02
	BYTE		        64*seq_002_mvl/mxv
	BYTE	W01
	BYTE		        63*seq_002_mvl/mxv
	BYTE	W01
	BYTE		        62*seq_002_mvl/mxv
	BYTE	W01
	BYTE		        62*seq_002_mvl/mxv
	BYTE	W01
	BYTE		        61*seq_002_mvl/mxv
	BYTE	W01
	BYTE		        60*seq_002_mvl/mxv
	BYTE	W02
	BYTE		        60*seq_002_mvl/mxv
	BYTE	W01
	BYTE		        59*seq_002_mvl/mxv
	BYTE	W01
	BYTE		        58*seq_002_mvl/mxv
	BYTE	W01
	BYTE		        58*seq_002_mvl/mxv
	BYTE	W01
	BYTE		        57*seq_002_mvl/mxv
	BYTE	W01
	BYTE		        56*seq_002_mvl/mxv
	BYTE	W01
	BYTE		        56*seq_002_mvl/mxv
	BYTE	W01
	BYTE		        55*seq_002_mvl/mxv
	BYTE	W01
	BYTE		        54*seq_002_mvl/mxv
	BYTE	W02
	BYTE		        54*seq_002_mvl/mxv
	BYTE	W01
	BYTE		        53*seq_002_mvl/mxv
	BYTE	W01
	BYTE		        52*seq_002_mvl/mxv
	BYTE	W01
	BYTE		        52*seq_002_mvl/mxv
	BYTE	W01
	BYTE		        51*seq_002_mvl/mxv
	BYTE	W01
	BYTE		        50*seq_002_mvl/mxv
	BYTE	W01
	BYTE		        50*seq_002_mvl/mxv
	BYTE	W01
	BYTE		        49*seq_002_mvl/mxv
	BYTE	W02
	BYTE		        48*seq_002_mvl/mxv
	BYTE	W01
	BYTE		        47*seq_002_mvl/mxv
	BYTE	W01
	BYTE		        46*seq_002_mvl/mxv
	BYTE	W01
	BYTE		        46*seq_002_mvl/mxv
	BYTE	W01
	BYTE		        45*seq_002_mvl/mxv
	BYTE	W01
	BYTE		        44*seq_002_mvl/mxv
	BYTE	W02
	BYTE		        43*seq_002_mvl/mxv
	BYTE	W01
	BYTE		        42*seq_002_mvl/mxv
	BYTE	W02
	BYTE		        42*seq_002_mvl/mxv
	BYTE	W01
	BYTE		        41*seq_002_mvl/mxv
	BYTE	W01
	BYTE		        40*seq_002_mvl/mxv
	BYTE	W01
	BYTE		        40*seq_002_mvl/mxv
	BYTE	W01
	BYTE		        39*seq_002_mvl/mxv
	BYTE	W01
	BYTE		        38*seq_002_mvl/mxv
	BYTE	W02
	BYTE		        38*seq_002_mvl/mxv
	BYTE	W01
	BYTE		        37*seq_002_mvl/mxv
	BYTE	W01
	BYTE		        36*seq_002_mvl/mxv
	BYTE	W01
	BYTE		        36*seq_002_mvl/mxv
	BYTE	W01
	BYTE		        35*seq_002_mvl/mxv
	BYTE	W01
	BYTE		        34*seq_002_mvl/mxv
	BYTE	W01
	BYTE		        34*seq_002_mvl/mxv
	BYTE	W01
	BYTE		        33*seq_002_mvl/mxv
	BYTE	W01
	BYTE		        32*seq_002_mvl/mxv
	BYTE	W02
	BYTE		        32*seq_002_mvl/mxv
	BYTE	W01
	BYTE		        31*seq_002_mvl/mxv
	BYTE	W01
	BYTE		        30*seq_002_mvl/mxv
	BYTE	W03
	BYTE	W92
	BYTE	W03
	BYTE		VOICE   63
	BYTE		VOL     80*seq_002_mvl/mxv
	BYTE		PAN     c_v-24
	BYTE		BEND    c_v+0
	BYTE	W01
	BYTE	W96
	BYTE		N24     Dn2   v108
	BYTE	W24
	BYTE		N12     Fs1 
	BYTE	W12
	BYTE		        Gn1 
	BYTE	W12
	BYTE		N23     An1 
	BYTE	W24
	BYTE		        En2 
	BYTE	W24
	BYTE		N96     Dn2 
	BYTE	W96
	BYTE	W96
	BYTE	W96
	BYTE	W96
	BYTE	W96
	BYTE	W96
	BYTE	W96
	BYTE	W96
	BYTE	W96
	BYTE		N24     As2   v092
	BYTE	W24
	BYTE		N12     Dn2 
	BYTE	W12
	BYTE		        Ds2 
	BYTE	W12
	BYTE		N36     Fn2 
	BYTE	W36
	BYTE		N12     Ds3 
	BYTE	W12
	BYTE		TIE     As2   v072
	BYTE	W48
	BYTE		VOL     79*seq_002_mvl/mxv
	BYTE	W01
	BYTE		        78*seq_002_mvl/mxv
	BYTE	W02
	BYTE		        78*seq_002_mvl/mxv
	BYTE	W02
	BYTE		        77*seq_002_mvl/mxv
	BYTE	W02
	BYTE		        76*seq_002_mvl/mxv
	BYTE	W01
	BYTE		        76*seq_002_mvl/mxv
	BYTE	W02
	BYTE		        75*seq_002_mvl/mxv
	BYTE	W02
	BYTE		        74*seq_002_mvl/mxv
	BYTE	W02
	BYTE		        74*seq_002_mvl/mxv
	BYTE	W01
	BYTE		        73*seq_002_mvl/mxv
	BYTE	W02
	BYTE		        72*seq_002_mvl/mxv
	BYTE	W02
	BYTE		        71*seq_002_mvl/mxv
	BYTE	W01
	BYTE		        70*seq_002_mvl/mxv
	BYTE	W02
	BYTE		        70*seq_002_mvl/mxv
	BYTE	W01
	BYTE		        69*seq_002_mvl/mxv
	BYTE	W01
	BYTE		        68*seq_002_mvl/mxv
	BYTE	W02
	BYTE		        68*seq_002_mvl/mxv
	BYTE	W02
	BYTE		        67*seq_002_mvl/mxv
	BYTE	W01
	BYTE		        66*seq_002_mvl/mxv
	BYTE	W02
	BYTE		        66*seq_002_mvl/mxv
	BYTE	W01
	BYTE		        65*seq_002_mvl/mxv
	BYTE	W01
	BYTE		        64*seq_002_mvl/mxv
	BYTE	W02
	BYTE		        64*seq_002_mvl/mxv
	BYTE	W01
	BYTE		        63*seq_002_mvl/mxv
	BYTE	W01
	BYTE		        62*seq_002_mvl/mxv
	BYTE	W01
	BYTE		        62*seq_002_mvl/mxv
	BYTE	W02
	BYTE		        61*seq_002_mvl/mxv
	BYTE	W01
	BYTE		        60*seq_002_mvl/mxv
	BYTE	W01
	BYTE		        60*seq_002_mvl/mxv
	BYTE	W02
	BYTE		        59*seq_002_mvl/mxv
	BYTE	W01
	BYTE		        58*seq_002_mvl/mxv
	BYTE	W01
	BYTE		        58*seq_002_mvl/mxv
	BYTE	W01
	BYTE		        57*seq_002_mvl/mxv
	BYTE	W01
	BYTE		        56*seq_002_mvl/mxv
	BYTE	W01
	BYTE		        56*seq_002_mvl/mxv
	BYTE	W02
	BYTE		        55*seq_002_mvl/mxv
	BYTE	W01
	BYTE		        54*seq_002_mvl/mxv
	BYTE	W01
	BYTE		        54*seq_002_mvl/mxv
	BYTE	W01
	BYTE		        53*seq_002_mvl/mxv
	BYTE	W01
	BYTE		        52*seq_002_mvl/mxv
	BYTE	W02
	BYTE		        52*seq_002_mvl/mxv
	BYTE	W01
	BYTE		        51*seq_002_mvl/mxv
	BYTE	W01
	BYTE		        50*seq_002_mvl/mxv
	BYTE	W01
	BYTE		        50*seq_002_mvl/mxv
	BYTE	W01
	BYTE		        49*seq_002_mvl/mxv
	BYTE	W01
	BYTE		        48*seq_002_mvl/mxv
	BYTE	W01
	BYTE		        47*seq_002_mvl/mxv
	BYTE	W01
	BYTE		        46*seq_002_mvl/mxv
	BYTE	W01
	BYTE		        46*seq_002_mvl/mxv
	BYTE	W01
	BYTE		        45*seq_002_mvl/mxv
	BYTE	W01
	BYTE		        44*seq_002_mvl/mxv
	BYTE	W01
	BYTE		        44*seq_002_mvl/mxv
	BYTE	W01
	BYTE		        43*seq_002_mvl/mxv
	BYTE	W01
	BYTE		        42*seq_002_mvl/mxv
	BYTE	W01
	BYTE		        42*seq_002_mvl/mxv
	BYTE	W01
	BYTE		        41*seq_002_mvl/mxv
	BYTE	W01
	BYTE		        40*seq_002_mvl/mxv
	BYTE	W01
	BYTE		        40*seq_002_mvl/mxv
	BYTE	W01
	BYTE		        39*seq_002_mvl/mxv
	BYTE	W01
	BYTE		        38*seq_002_mvl/mxv
	BYTE	W01
	BYTE		        37*seq_002_mvl/mxv
	BYTE	W01
	BYTE		        36*seq_002_mvl/mxv
	BYTE	W01
	BYTE		        36*seq_002_mvl/mxv
	BYTE	W01
	BYTE		        35*seq_002_mvl/mxv
	BYTE	W01
	BYTE		        34*seq_002_mvl/mxv
	BYTE	W01
	BYTE		        34*seq_002_mvl/mxv
	BYTE	W01
	BYTE		        33*seq_002_mvl/mxv
	BYTE	W01
	BYTE		        32*seq_002_mvl/mxv
	BYTE	W01
	BYTE		        31*seq_002_mvl/mxv
	BYTE	W01
	BYTE		        30*seq_002_mvl/mxv
	BYTE	W01
	BYTE		        30*seq_002_mvl/mxv
	BYTE	W01
	BYTE		        28*seq_002_mvl/mxv
	BYTE	W01
	BYTE		        28*seq_002_mvl/mxv
	BYTE	W01
	BYTE		        27*seq_002_mvl/mxv
	BYTE	W01
	BYTE		        26*seq_002_mvl/mxv
	BYTE	W01
	BYTE		        25*seq_002_mvl/mxv
	BYTE	W01
	BYTE		        24*seq_002_mvl/mxv
	BYTE	W01
	BYTE		        23*seq_002_mvl/mxv
	BYTE	W01
	BYTE		        22*seq_002_mvl/mxv
	BYTE	W01
	BYTE		        21*seq_002_mvl/mxv
	BYTE	W01
	BYTE		        20*seq_002_mvl/mxv
	BYTE	W01
	BYTE		        19*seq_002_mvl/mxv
	BYTE	W01
	BYTE		        18*seq_002_mvl/mxv
	BYTE	W01
	BYTE		        18*seq_002_mvl/mxv
	BYTE	W01
	BYTE		        16*seq_002_mvl/mxv
	BYTE	W01
	BYTE		        16*seq_002_mvl/mxv
	BYTE	W01
	BYTE		        14*seq_002_mvl/mxv
	BYTE	W01
	BYTE		        14*seq_002_mvl/mxv
	BYTE	W01
	BYTE		        13*seq_002_mvl/mxv
	BYTE	W01
	BYTE		        12*seq_002_mvl/mxv
	BYTE	W01
	BYTE		        11*seq_002_mvl/mxv
	BYTE	W01
	BYTE		        10*seq_002_mvl/mxv
	BYTE	W01
	BYTE		        8*seq_002_mvl/mxv
	BYTE	W01
	BYTE		        8*seq_002_mvl/mxv
	BYTE	W01
	BYTE		        6*seq_002_mvl/mxv
	BYTE	W01
	BYTE		        6*seq_002_mvl/mxv
	BYTE	W01
	BYTE		        4*seq_002_mvl/mxv
	BYTE	W01
	BYTE		        4*seq_002_mvl/mxv
	BYTE	W01
	BYTE		        2*seq_002_mvl/mxv
	BYTE	W01
	BYTE		        2*seq_002_mvl/mxv
	BYTE	W04
	BYTE		EOT
	BYTE	FINE

//*********************** Track 07 ***********************//

seq_002_6:
	BYTE	KEYSH   seq_002_key+0
	BYTE	W03
	BYTE	W03
	BYTE		VOICE   84
	BYTE		VOL     40*seq_002_mvl/mxv
	BYTE		PAN     c_v-64
	BYTE		BENDR   3
	BYTE		BEND    c_v+0
	BYTE	W92
	BYTE	W01
	BYTE	W96
	BYTE	W96
	BYTE	W96
	BYTE	W06
	BYTE		N42     Dn3   v116
	BYTE	W48
	BYTE		TIE     Bn2   v104
	BYTE	W42
	BYTE	W78
	BYTE		EOT
	BYTE	W18
	BYTE	W05
	BYTE		PAN     c_v+63
	BYTE	W01
	BYTE		N42     Cn3   v116
	BYTE	W48
	BYTE		TIE     An2   v104
	BYTE	W42
	BYTE	W96
	BYTE	W30
	BYTE		EOT
	BYTE	W17
	BYTE		VOICE   66
	BYTE		VOL     73*seq_002_mvl/mxv
	BYTE		PAN     c_v-54
	BYTE		BEND    c_v+0
	BYTE	W01
	BYTE		TIE     As2   v048
	BYTE	W96
	BYTE	W96
	BYTE	W96
	BYTE	W96
	BYTE	W96
	BYTE	W96
	BYTE	W96
	BYTE	W92
	BYTE	W03
	BYTE		EOT
	BYTE	W01
	BYTE		TIE     Cn3   v040
	BYTE	W96
	BYTE	W92
	BYTE	W03
	BYTE		EOT
	BYTE	W01
	BYTE		TIE     Dn3 
	BYTE	W72
	BYTE	W68
	BYTE	W03
	BYTE		EOT
	BYTE	W01
	BYTE		TIE     Fn3 
	BYTE	W48
	BYTE	W02
	BYTE		VOL     71*seq_002_mvl/mxv
	BYTE	W03
	BYTE		        70*seq_002_mvl/mxv
	BYTE	W02
	BYTE		        70*seq_002_mvl/mxv
	BYTE	W01
	BYTE		        69*seq_002_mvl/mxv
	BYTE	W02
	BYTE		        68*seq_002_mvl/mxv
	BYTE	W01
	BYTE		        68*seq_002_mvl/mxv
	BYTE	W01
	BYTE		        67*seq_002_mvl/mxv
	BYTE	W02
	BYTE		        66*seq_002_mvl/mxv
	BYTE	W01
	BYTE		        66*seq_002_mvl/mxv
	BYTE	W02
	BYTE		        65*seq_002_mvl/mxv
	BYTE	W01
	BYTE		        64*seq_002_mvl/mxv
	BYTE	W02
	BYTE		        64*seq_002_mvl/mxv
	BYTE	W01
	BYTE		        63*seq_002_mvl/mxv
	BYTE	W02
	BYTE		        62*seq_002_mvl/mxv
	BYTE	W01
	BYTE	W01
	BYTE		        61*seq_002_mvl/mxv
	BYTE	W01
	BYTE		        60*seq_002_mvl/mxv
	BYTE	W02
	BYTE		        60*seq_002_mvl/mxv
	BYTE	W02
	BYTE		        59*seq_002_mvl/mxv
	BYTE	W01
	BYTE		        58*seq_002_mvl/mxv
	BYTE	W02
	BYTE		        58*seq_002_mvl/mxv
	BYTE	W02
	BYTE		        57*seq_002_mvl/mxv
	BYTE	W01
	BYTE		        56*seq_002_mvl/mxv
	BYTE	W02
	BYTE		        56*seq_002_mvl/mxv
	BYTE	W02
	BYTE		        55*seq_002_mvl/mxv
	BYTE	W01
	BYTE		        54*seq_002_mvl/mxv
	BYTE	W02
	BYTE		        54*seq_002_mvl/mxv
	BYTE	W01
	BYTE		        53*seq_002_mvl/mxv
	BYTE	W02
	BYTE		        52*seq_002_mvl/mxv
	BYTE	W02
	BYTE		        52*seq_002_mvl/mxv
	BYTE	W01
	BYTE		        51*seq_002_mvl/mxv
	BYTE	W02
	BYTE		        50*seq_002_mvl/mxv
	BYTE	W02
	BYTE		        50*seq_002_mvl/mxv
	BYTE	W01
	BYTE		        49*seq_002_mvl/mxv
	BYTE	W02
	BYTE		        48*seq_002_mvl/mxv
	BYTE	W03
	BYTE		        48*seq_002_mvl/mxv
	BYTE	W02
	BYTE		        47*seq_002_mvl/mxv
	BYTE	W01
	BYTE		        46*seq_002_mvl/mxv
	BYTE	W02
	BYTE		        46*seq_002_mvl/mxv
	BYTE	W02
	BYTE		        45*seq_002_mvl/mxv
	BYTE	W02
	BYTE		        44*seq_002_mvl/mxv
	BYTE	W02
	BYTE		        44*seq_002_mvl/mxv
	BYTE	W02
	BYTE		        43*seq_002_mvl/mxv
	BYTE	W02
	BYTE		        42*seq_002_mvl/mxv
	BYTE	W02
	BYTE		        42*seq_002_mvl/mxv
	BYTE	W02
	BYTE		        41*seq_002_mvl/mxv
	BYTE	W02
	BYTE		        40*seq_002_mvl/mxv
	BYTE	W02
	BYTE		        40*seq_002_mvl/mxv
	BYTE	W02
	BYTE		        39*seq_002_mvl/mxv
	BYTE	W03
	BYTE		        38*seq_002_mvl/mxv
	BYTE	W03
	BYTE		        38*seq_002_mvl/mxv
	BYTE	W02
	BYTE		        37*seq_002_mvl/mxv
	BYTE	W02
	BYTE		        36*seq_002_mvl/mxv
	BYTE	W02
	BYTE	W01
	BYTE		        36*seq_002_mvl/mxv
	BYTE	W02
	BYTE		        35*seq_002_mvl/mxv
	BYTE	W04
	BYTE		        34*seq_002_mvl/mxv
	BYTE	W03
	BYTE		        34*seq_002_mvl/mxv
	BYTE	W02
	BYTE		        33*seq_002_mvl/mxv
	BYTE	W02
	BYTE		        32*seq_002_mvl/mxv
	BYTE	W03
	BYTE		        32*seq_002_mvl/mxv
	BYTE	W03
	BYTE		        31*seq_002_mvl/mxv
	BYTE	W03
	BYTE		        30*seq_002_mvl/mxv
	BYTE	W03
	BYTE		        30*seq_002_mvl/mxv
	BYTE	W03
	BYTE		        29*seq_002_mvl/mxv
	BYTE	W03
	BYTE		        28*seq_002_mvl/mxv
	BYTE	W03
	BYTE		        28*seq_002_mvl/mxv
	BYTE	W02
	BYTE		        27*seq_002_mvl/mxv
	BYTE	W03
	BYTE		        26*seq_002_mvl/mxv
	BYTE	W03
	BYTE		        26*seq_002_mvl/mxv
	BYTE	W04
	BYTE		        25*seq_002_mvl/mxv
	BYTE	W03
	BYTE		        24*seq_002_mvl/mxv
	BYTE	W03
	BYTE		        24*seq_002_mvl/mxv
	BYTE	W04
	BYTE		        23*seq_002_mvl/mxv
	BYTE	W03
	BYTE		        22*seq_002_mvl/mxv
	BYTE	W03
	BYTE		        22*seq_002_mvl/mxv
	BYTE	W04
	BYTE		        21*seq_002_mvl/mxv
	BYTE	W03
	BYTE		        20*seq_002_mvl/mxv
	BYTE	W02
	BYTE	W01
	BYTE		        20*seq_002_mvl/mxv
	BYTE	W04
	BYTE		        19*seq_002_mvl/mxv
	BYTE	W04
	BYTE		        18*seq_002_mvl/mxv
	BYTE	W03
	BYTE		        18*seq_002_mvl/mxv
	BYTE	W05
	BYTE		        17*seq_002_mvl/mxv
	BYTE	W03
	BYTE		        16*seq_002_mvl/mxv
	BYTE	W04
	BYTE		        16*seq_002_mvl/mxv
	BYTE	W04
	BYTE		        15*seq_002_mvl/mxv
	BYTE	W04
	BYTE		        14*seq_002_mvl/mxv
	BYTE	W03
	BYTE		        14*seq_002_mvl/mxv
	BYTE	W05
	BYTE		        13*seq_002_mvl/mxv
	BYTE	W04
	BYTE		        12*seq_002_mvl/mxv
	BYTE	W04
	BYTE		        12*seq_002_mvl/mxv
	BYTE	W05
	BYTE		        11*seq_002_mvl/mxv
	BYTE	W05
	BYTE		        10*seq_002_mvl/mxv
	BYTE	W04
	BYTE		        10*seq_002_mvl/mxv
	BYTE	W04
	BYTE		        9*seq_002_mvl/mxv
	BYTE	W04
	BYTE		EOT
	BYTE	W01
	BYTE		VOL     80*seq_002_mvl/mxv
	BYTE	W01
	BYTE		N23     An2   v127
	BYTE	W24
	BYTE		        Fs2 
	BYTE	W24
	BYTE		N36     Fn2 
	BYTE	W36
	BYTE		N12     Ds2 
	BYTE	W12
	BYTE		N92     Fn2 
	BYTE	W96
	BYTE		N32     Fn2   v120
	BYTE	W36
	BYTE		N11     En2   v124
	BYTE	W12
	BYTE		N44     Cs3   v108
	BYTE	W48
	BYTE		N36     En2   v120
	BYTE	W36
	BYTE		N12     Ds2   v108
	BYTE	W12
	BYTE		N44     Cn3   v100
	BYTE	W48
	BYTE		N32     Cn3   v120
	BYTE	W36
	BYTE		N11     Cs3 
	BYTE	W12
	BYTE		        Ds3 
	BYTE	W12
	BYTE		        Cn3 
	BYTE	W12
	BYTE		        Cs3 
	BYTE	W12
	BYTE		        Ds3 
	BYTE	W12
	BYTE		N23     Fn3 
	BYTE	W24
	BYTE		N10     Fs3 
	BYTE	W12
	BYTE		        Gs3 
	BYTE	W12
	BYTE		N44     Fn3 
	BYTE	W48
	BYTE		N23
	BYTE	W24
	BYTE		N11     Fs3 
	BYTE	W12
	BYTE		        Gs3 
	BYTE	W12
	BYTE		N23     Fn3 
	BYTE	W24
	BYTE		N11     Gn3 
	BYTE	W12
	BYTE		        An3 
	BYTE	W12
	BYTE		N23     As3 
	BYTE	W24
	BYTE		N11     Cn4 
	BYTE	W12
	BYTE		        As3 
	BYTE	W12
	BYTE		N44     Cs4 
	BYTE	W48
	BYTE		N23     Cs4   v100
	BYTE	W24
	BYTE		N11     As3   v116
	BYTE	W12
	BYTE		        Fs3   v120
	BYTE	W12
	BYTE		N23     Fn3 
	BYTE	W24
	BYTE		        Ds3 
	BYTE	W24
	BYTE		N92     Fn3   v112
	BYTE	W96
	BYTE		N23     Fn3   v120
	BYTE	W24
	BYTE		N11     As2 
	BYTE	W12
	BYTE		        Cn3 
	BYTE	W12
	BYTE		        Ds3 
	BYTE	W12
	BYTE		        Cs3   v116
	BYTE	W12
	BYTE		        Cn3   v112
	BYTE	W12
	BYTE		        As2   v108
	BYTE	W12
	BYTE		N92     Cn3   v088
	BYTE	W96
	BYTE	W96
	BYTE	W96
	BYTE	W96
	BYTE	W96
	BYTE	W44
	BYTE	W03
	BYTE		VOICE   84
	BYTE		VOL     80*seq_002_mvl/mxv
	BYTE		PAN     c_v+0
	BYTE		BENDR   3
	BYTE		BEND    c_v+0
	BYTE	W01
	BYTE		TIE     As2   v068
	BYTE	W48
	BYTE	W36
	BYTE	W02
	BYTE		VOL     79*seq_002_mvl/mxv
	BYTE	W02
	BYTE		        78*seq_002_mvl/mxv
	BYTE	W04
	BYTE		        78*seq_002_mvl/mxv
	BYTE	W04
	BYTE		        77*seq_002_mvl/mxv
	BYTE	W04
	BYTE		        76*seq_002_mvl/mxv
	BYTE	W05
	BYTE		        76*seq_002_mvl/mxv
	BYTE	W03
	BYTE		        75*seq_002_mvl/mxv
	BYTE	W05
	BYTE		        74*seq_002_mvl/mxv
	BYTE	W03
	BYTE		        74*seq_002_mvl/mxv
	BYTE	W04
	BYTE		        73*seq_002_mvl/mxv
	BYTE	W05
	BYTE		        72*seq_002_mvl/mxv
	BYTE	W03
	BYTE		        72*seq_002_mvl/mxv
	BYTE	W05
	BYTE		        71*seq_002_mvl/mxv
	BYTE	W08
	BYTE		        70*seq_002_mvl/mxv
	BYTE	W03
	BYTE		        70*seq_002_mvl/mxv
	BYTE	W04
	BYTE		        69*seq_002_mvl/mxv
	BYTE	W03
	BYTE		        68*seq_002_mvl/mxv
	BYTE	W03
	BYTE		        68*seq_002_mvl/mxv
	BYTE	W04
	BYTE		        67*seq_002_mvl/mxv
	BYTE	W04
	BYTE		        66*seq_002_mvl/mxv
	BYTE	W03
	BYTE		        66*seq_002_mvl/mxv
	BYTE	W04
	BYTE		        65*seq_002_mvl/mxv
	BYTE	W03
	BYTE		        64*seq_002_mvl/mxv
	BYTE	W03
	BYTE		        64*seq_002_mvl/mxv
	BYTE	W04
	BYTE		        63*seq_002_mvl/mxv
	BYTE	W03
	BYTE		        62*seq_002_mvl/mxv
	BYTE	W04
	BYTE		        62*seq_002_mvl/mxv
	BYTE	W04
	BYTE		        61*seq_002_mvl/mxv
	BYTE	W02
	BYTE		        60*seq_002_mvl/mxv
	BYTE	W03
	BYTE		        60*seq_002_mvl/mxv
	BYTE	W03
	BYTE		        59*seq_002_mvl/mxv
	BYTE	W03
	BYTE		        58*seq_002_mvl/mxv
	BYTE	W03
	BYTE		        58*seq_002_mvl/mxv
	BYTE	W04
	BYTE		        57*seq_002_mvl/mxv
	BYTE	W02
	BYTE		        56*seq_002_mvl/mxv
	BYTE	W03
	BYTE		        56*seq_002_mvl/mxv
	BYTE	W03
	BYTE		        55*seq_002_mvl/mxv
	BYTE	W03
	BYTE		        54*seq_002_mvl/mxv
	BYTE	W03
	BYTE		        54*seq_002_mvl/mxv
	BYTE	W03
	BYTE		        53*seq_002_mvl/mxv
	BYTE	W03
	BYTE		        52*seq_002_mvl/mxv
	BYTE	W03
	BYTE		        52*seq_002_mvl/mxv
	BYTE	W03
	BYTE		        51*seq_002_mvl/mxv
	BYTE	W02
	BYTE		        50*seq_002_mvl/mxv
	BYTE	W03
	BYTE		        50*seq_002_mvl/mxv
	BYTE	W01
	BYTE	W01
	BYTE		        49*seq_002_mvl/mxv
	BYTE	W03
	BYTE		        48*seq_002_mvl/mxv
	BYTE	W02
	BYTE		        48*seq_002_mvl/mxv
	BYTE	W03
	BYTE		        47*seq_002_mvl/mxv
	BYTE	W02
	BYTE		        46*seq_002_mvl/mxv
	BYTE	W03
	BYTE		        46*seq_002_mvl/mxv
	BYTE	W02
	BYTE		        45*seq_002_mvl/mxv
	BYTE	W02
	BYTE		        44*seq_002_mvl/mxv
	BYTE	W03
	BYTE		        44*seq_002_mvl/mxv
	BYTE	W02
	BYTE		        43*seq_002_mvl/mxv
	BYTE	W03
	BYTE		        42*seq_002_mvl/mxv
	BYTE	W02
	BYTE		        42*seq_002_mvl/mxv
	BYTE	W02
	BYTE		        41*seq_002_mvl/mxv
	BYTE	W02
	BYTE		        40*seq_002_mvl/mxv
	BYTE	W03
	BYTE		        40*seq_002_mvl/mxv
	BYTE	W02
	BYTE		        39*seq_002_mvl/mxv
	BYTE	W02
	BYTE		        38*seq_002_mvl/mxv
	BYTE	W02
	BYTE		        38*seq_002_mvl/mxv
	BYTE	W02
	BYTE		        37*seq_002_mvl/mxv
	BYTE	W02
	BYTE		        36*seq_002_mvl/mxv
	BYTE	W03
	BYTE		        36*seq_002_mvl/mxv
	BYTE	W02
	BYTE		        35*seq_002_mvl/mxv
	BYTE	W04
	BYTE		        34*seq_002_mvl/mxv
	BYTE	W02
	BYTE		        34*seq_002_mvl/mxv
	BYTE	W02
	BYTE		        33*seq_002_mvl/mxv
	BYTE	W02
	BYTE		        32*seq_002_mvl/mxv
	BYTE	W02
	BYTE		        32*seq_002_mvl/mxv
	BYTE	W01
	BYTE		        31*seq_002_mvl/mxv
	BYTE	W03
	BYTE		        30*seq_002_mvl/mxv
	BYTE	W01
	BYTE		        30*seq_002_mvl/mxv
	BYTE	W02
	BYTE		        29*seq_002_mvl/mxv
	BYTE	W02
	BYTE		        28*seq_002_mvl/mxv
	BYTE	W02
	BYTE		        28*seq_002_mvl/mxv
	BYTE	W02
	BYTE		        27*seq_002_mvl/mxv
	BYTE	W01
	BYTE		        26*seq_002_mvl/mxv
	BYTE	W02
	BYTE		        26*seq_002_mvl/mxv
	BYTE	W03
	BYTE		        25*seq_002_mvl/mxv
	BYTE	W01
	BYTE		        24*seq_002_mvl/mxv
	BYTE	W02
	BYTE		        24*seq_002_mvl/mxv
	BYTE	W02
	BYTE		        23*seq_002_mvl/mxv
	BYTE	W01
	BYTE		        22*seq_002_mvl/mxv
	BYTE	W02
	BYTE		        22*seq_002_mvl/mxv
	BYTE	W02
	BYTE		        21*seq_002_mvl/mxv
	BYTE	W01
	BYTE		        20*seq_002_mvl/mxv
	BYTE	W02
	BYTE		        20*seq_002_mvl/mxv
	BYTE	W01
	BYTE		        19*seq_002_mvl/mxv
	BYTE	W01
	BYTE		        18*seq_002_mvl/mxv
	BYTE	W03
	BYTE		        18*seq_002_mvl/mxv
	BYTE	W01
	BYTE		        17*seq_002_mvl/mxv
	BYTE	W02
	BYTE		        16*seq_002_mvl/mxv
	BYTE	W01
	BYTE		        16*seq_002_mvl/mxv
	BYTE	W01
	BYTE		        15*seq_002_mvl/mxv
	BYTE	W03
	BYTE		        14*seq_002_mvl/mxv
	BYTE	W01
	BYTE		        14*seq_002_mvl/mxv
	BYTE	W01
	BYTE		        13*seq_002_mvl/mxv
	BYTE	W01
	BYTE		        12*seq_002_mvl/mxv
	BYTE	W02
	BYTE		        12*seq_002_mvl/mxv
	BYTE	W01
	BYTE		        11*seq_002_mvl/mxv
	BYTE	W01
	BYTE		        10*seq_002_mvl/mxv
	BYTE	W02
	BYTE		        10*seq_002_mvl/mxv
	BYTE	W01
	BYTE		        9*seq_002_mvl/mxv
	BYTE	W02
	BYTE		        8*seq_002_mvl/mxv
	BYTE	W01
	BYTE		        8*seq_002_mvl/mxv
	BYTE	W01
	BYTE		        7*seq_002_mvl/mxv
	BYTE	W01
	BYTE		        6*seq_002_mvl/mxv
	BYTE	W02
	BYTE		        6*seq_002_mvl/mxv
	BYTE	W01
	BYTE		        5*seq_002_mvl/mxv
	BYTE	W10
	BYTE		EOT
	BYTE	W08
	BYTE		VOL     80*seq_002_mvl/mxv
	BYTE	W01
	BYTE		TIE     As2   v076
	BYTE	W48
	BYTE	W96
	BYTE	W24
	BYTE		EOT
	BYTE	W72
	BYTE	W96
	BYTE	W96
	BYTE	W01
	BYTE		VOICE   48
	BYTE		VOL     60*seq_002_mvl/mxv
	BYTE		PAN     c_v-64
	BYTE		BENDR   3
	BYTE		BEND    c_v+0
	BYTE	W92
	BYTE	W03
	BYTE	W01
	BYTE		N05     As2   v120
	BYTE	W06
	BYTE		        Cn3 
	BYTE	W06
	BYTE		        Cs3 
	BYTE	W06
	BYTE		        As2 
	BYTE	W06
	BYTE		        Ds3 
	BYTE	W06
	BYTE		        Cs3 
	BYTE	W06
	BYTE		        Cn3 
	BYTE	W06
	BYTE		        As2 
	BYTE	W06
	BYTE		        Cn3 
	BYTE	W06
	BYTE		        Cs3 
	BYTE	W06
	BYTE		        As2 
	BYTE	W06
	BYTE		        Ds3 
	BYTE	W06
	BYTE		        Cs3 
	BYTE	W06
	BYTE		        Cn3 
	BYTE	W06
	BYTE		        As2 
	BYTE	W06
	BYTE		        Cn3 
	BYTE	W05
	BYTE	W01
	BYTE		        As2   v112
	BYTE	W06
	BYTE		        Cn3 
	BYTE	W06
	BYTE		        Cs3 
	BYTE	W06
	BYTE		        As2 
	BYTE	W06
	BYTE		        Ds3 
	BYTE	W06
	BYTE		        Cs3 
	BYTE	W06
	BYTE		        Cn3 
	BYTE	W06
	BYTE		        As2 
	BYTE	W06
	BYTE		        Cn3 
	BYTE	W06
	BYTE		        Cs3 
	BYTE	W06
	BYTE		        As2 
	BYTE	W06
	BYTE		        Ds3 
	BYTE	W06
	BYTE		        Cs3 
	BYTE	W06
	BYTE		        Cn3 
	BYTE	W06
	BYTE		        As2 
	BYTE	W06
	BYTE		        Cn3 
	BYTE	W05
	BYTE	W01
	BYTE		        As2 
	BYTE	W06
	BYTE		        Cn3 
	BYTE	W06
	BYTE		        Cs3 
	BYTE	W06
	BYTE		        As2 
	BYTE	W06
	BYTE		        Ds3 
	BYTE	W06
	BYTE		        Cs3 
	BYTE	W06
	BYTE		        Cn3 
	BYTE	W06
	BYTE		        As2 
	BYTE	W06
	BYTE		        Cn3 
	BYTE	W06
	BYTE		        Cs3 
	BYTE	W06
	BYTE		        As2 
	BYTE	W06
	BYTE		        Ds3 
	BYTE	W06
	BYTE		        Cs3 
	BYTE	W06
	BYTE		        Cn3 
	BYTE	W05
	BYTE		N02     Fn5   v127
	BYTE	W01
	BYTE		N05     As2   v112
	BYTE	W01
	BYTE		N02     Gn5   v127
	BYTE	W02
	BYTE		        Gs5 
	BYTE	W02
	BYTE		        As5 
	BYTE	W01
	BYTE		N05     Cn3   v112
	BYTE	W01
	BYTE		N01     Cn6   v127
	BYTE	W01
	BYTE		        Cs6 
	BYTE	W01
	BYTE		        Ds6 
	BYTE	W01
	BYTE		        Fn6 
	BYTE	W01
	BYTE	W01
	BYTE		N92     Fs6   v052
	BYTE	W92
	BYTE	W03
	BYTE	PEND
	BYTE	PATT
	 POIN2	seq_002_6 + 0x338
	BYTE	W01
	BYTE		N92     Fs6   v052
	BYTE	W24
	BYTE		VOL     58*seq_002_mvl/mxv
	BYTE	W02
	BYTE		        58*seq_002_mvl/mxv
	BYTE	W01
	BYTE		        57*seq_002_mvl/mxv
	BYTE	W01
	BYTE		        56*seq_002_mvl/mxv
	BYTE	W02
	BYTE		        56*seq_002_mvl/mxv
	BYTE	W01
	BYTE		        55*seq_002_mvl/mxv
	BYTE	W01
	BYTE		        54*seq_002_mvl/mxv
	BYTE	W02
	BYTE		        54*seq_002_mvl/mxv
	BYTE	W01
	BYTE		        53*seq_002_mvl/mxv
	BYTE	W01
	BYTE		        52*seq_002_mvl/mxv
	BYTE	W02
	BYTE		        52*seq_002_mvl/mxv
	BYTE	W01
	BYTE		        51*seq_002_mvl/mxv
	BYTE	W01
	BYTE		        50*seq_002_mvl/mxv
	BYTE	W01
	BYTE		        50*seq_002_mvl/mxv
	BYTE	W02
	BYTE		        49*seq_002_mvl/mxv
	BYTE	W01
	BYTE		        48*seq_002_mvl/mxv
	BYTE	W02
	BYTE		        47*seq_002_mvl/mxv
	BYTE	W02
	BYTE		        46*seq_002_mvl/mxv
	BYTE	W01
	BYTE		        46*seq_002_mvl/mxv
	BYTE	W02
	BYTE		        45*seq_002_mvl/mxv
	BYTE	W01
	BYTE		        44*seq_002_mvl/mxv
	BYTE	W02
	BYTE		        43*seq_002_mvl/mxv
	BYTE	W02
	BYTE		        42*seq_002_mvl/mxv
	BYTE	W01
	BYTE		        42*seq_002_mvl/mxv
	BYTE	W02
	BYTE		        41*seq_002_mvl/mxv
	BYTE	W01
	BYTE		        40*seq_002_mvl/mxv
	BYTE	W01
	BYTE		        40*seq_002_mvl/mxv
	BYTE	W01
	BYTE		        39*seq_002_mvl/mxv
	BYTE	W02
	BYTE		        38*seq_002_mvl/mxv
	BYTE	W01
	BYTE		        38*seq_002_mvl/mxv
	BYTE	W02
	BYTE		        37*seq_002_mvl/mxv
	BYTE	W01
	BYTE		        36*seq_002_mvl/mxv
	BYTE	W01
	BYTE		        36*seq_002_mvl/mxv
	BYTE	W01
	BYTE		        35*seq_002_mvl/mxv
	BYTE	W03
	BYTE		        34*seq_002_mvl/mxv
	BYTE	W02
	BYTE		        33*seq_002_mvl/mxv
	BYTE	W02
	BYTE		        32*seq_002_mvl/mxv
	BYTE	W01
	BYTE		        32*seq_002_mvl/mxv
	BYTE	W02
	BYTE		        31*seq_002_mvl/mxv
	BYTE	W01
	BYTE		        30*seq_002_mvl/mxv
	BYTE	W01
	BYTE		        30*seq_002_mvl/mxv
	BYTE	W01
	BYTE		        29*seq_002_mvl/mxv
	BYTE	W02
	BYTE		        28*seq_002_mvl/mxv
	BYTE	W01
	BYTE		        28*seq_002_mvl/mxv
	BYTE	W02
	BYTE		        27*seq_002_mvl/mxv
	BYTE	W01
	BYTE		        26*seq_002_mvl/mxv
	BYTE	W06
	BYTE	W92
	BYTE	W03
	BYTE		VOICE   63
	BYTE		VOL     40*seq_002_mvl/mxv
	BYTE		PAN     c_v+63
	BYTE		BEND    c_v+0
	BYTE	W01
	BYTE	W96
	BYTE	W03
	BYTE		N24     Dn2   v108
	BYTE	W24
	BYTE		N12     Fs1 
	BYTE	W12
	BYTE		        Gn1 
	BYTE	W12
	BYTE		N24     An1 
	BYTE	W24
	BYTE		        En2 
	BYTE	W21
	BYTE	W03
	BYTE		N96     Dn2 
	BYTE	W92
	BYTE	W01
	BYTE	W96
	BYTE	W96
	BYTE	W96
	BYTE	W96
	BYTE	W96
	BYTE	W96
	BYTE	W96
	BYTE	W96
	BYTE	W03
	BYTE		N24     As2   v092
	BYTE	W24
	BYTE		N12     Dn2 
	BYTE	W12
	BYTE		        Ds2 
	BYTE	W12
	BYTE		N36     Fn2 
	BYTE	W36
	BYTE		N12     Ds3 
	BYTE	W09
	BYTE	W03
	BYTE		TIE     As2   v072
	BYTE	W84
	BYTE		VOL     40*seq_002_mvl/mxv
	BYTE	W01
	BYTE		        39*seq_002_mvl/mxv
	BYTE	W03
	BYTE		        38*seq_002_mvl/mxv
	BYTE	W02
	BYTE		        38*seq_002_mvl/mxv
	BYTE	W02
	BYTE		        37*seq_002_mvl/mxv
	BYTE	W01
	BYTE	W01
	BYTE		        36*seq_002_mvl/mxv
	BYTE	W03
	BYTE		        36*seq_002_mvl/mxv
	BYTE	W02
	BYTE		        35*seq_002_mvl/mxv
	BYTE	W04
	BYTE		        34*seq_002_mvl/mxv
	BYTE	W03
	BYTE		        34*seq_002_mvl/mxv
	BYTE	W02
	BYTE		        33*seq_002_mvl/mxv
	BYTE	W01
	BYTE		        32*seq_002_mvl/mxv
	BYTE	W02
	BYTE		        32*seq_002_mvl/mxv
	BYTE	W02
	BYTE		        31*seq_002_mvl/mxv
	BYTE	W01
	BYTE		        30*seq_002_mvl/mxv
	BYTE	W02
	BYTE		        30*seq_002_mvl/mxv
	BYTE	W01
	BYTE		        29*seq_002_mvl/mxv
	BYTE	W02
	BYTE		        28*seq_002_mvl/mxv
	BYTE	W01
	BYTE		        28*seq_002_mvl/mxv
	BYTE	W01
	BYTE		        27*seq_002_mvl/mxv
	BYTE	W02
	BYTE		        26*seq_002_mvl/mxv
	BYTE	W01
	BYTE		        26*seq_002_mvl/mxv
	BYTE	W02
	BYTE		        25*seq_002_mvl/mxv
	BYTE	W01
	BYTE		        24*seq_002_mvl/mxv
	BYTE	W02
	BYTE		        24*seq_002_mvl/mxv
	BYTE	W01
	BYTE		        23*seq_002_mvl/mxv
	BYTE	W02
	BYTE		        22*seq_002_mvl/mxv
	BYTE	W02
	BYTE		        21*seq_002_mvl/mxv
	BYTE	W01
	BYTE		        20*seq_002_mvl/mxv
	BYTE	W02
	BYTE		        19*seq_002_mvl/mxv
	BYTE	W02
	BYTE		        18*seq_002_mvl/mxv
	BYTE	W02
	BYTE		        17*seq_002_mvl/mxv
	BYTE	W01
	BYTE		        16*seq_002_mvl/mxv
	BYTE	W01
	BYTE		        16*seq_002_mvl/mxv
	BYTE	W01
	BYTE		        15*seq_002_mvl/mxv
	BYTE	W01
	BYTE		        14*seq_002_mvl/mxv
	BYTE	W02
	BYTE		        13*seq_002_mvl/mxv
	BYTE	W01
	BYTE		        12*seq_002_mvl/mxv
	BYTE	W02
	BYTE		        11*seq_002_mvl/mxv
	BYTE	W01
	BYTE		        10*seq_002_mvl/mxv
	BYTE	W01
	BYTE		        10*seq_002_mvl/mxv
	BYTE	W01
	BYTE		        9*seq_002_mvl/mxv
	BYTE	W01
	BYTE		        8*seq_002_mvl/mxv
	BYTE	W01
	BYTE		        8*seq_002_mvl/mxv
	BYTE	W01
	BYTE		        7*seq_002_mvl/mxv
	BYTE	W01
	BYTE		        6*seq_002_mvl/mxv
	BYTE	W02
	BYTE		        5*seq_002_mvl/mxv
	BYTE	W01
	BYTE		        4*seq_002_mvl/mxv
	BYTE	W01
	BYTE		        3*seq_002_mvl/mxv
	BYTE	W01
	BYTE		        2*seq_002_mvl/mxv
	BYTE	W01
	BYTE		        2*seq_002_mvl/mxv
	BYTE	W01
	BYTE		        1*seq_002_mvl/mxv
	BYTE	W04
	BYTE		EOT
	BYTE	FINE

//*********************** Track 08 ***********************//

seq_002_7:
	BYTE	KEYSH   seq_002_key+0
	BYTE	W03
	BYTE	W09
	BYTE		VOICE   84
	BYTE		VOL     26*seq_002_mvl/mxv
	BYTE		PAN     c_v+63
	BYTE		BENDR   3
	BYTE		BEND    c_v+0
	BYTE	W84
	BYTE	W03
	BYTE	W96
	BYTE	W96
	BYTE	W96
	BYTE	W12
	BYTE		N42     Dn3   v116
	BYTE	W48
	BYTE		TIE     Bn2   v104
	BYTE	W36
	BYTE	W84
	BYTE		EOT
	BYTE	W12
	BYTE	W12
	BYTE		N42     Cn3   v116
	BYTE	W48
	BYTE		TIE     An2   v104
	BYTE	W36
	BYTE	W96
	BYTE	W36
	BYTE		EOT
	BYTE	W11
	BYTE		VOICE   66
	BYTE		VOL     73*seq_002_mvl/mxv
	BYTE		PAN     c_v-24
	BYTE		BEND    c_v+0
	BYTE	W01
	BYTE		TIE     Gn2   v044
	BYTE	W96
	BYTE	W96
	BYTE	W96
	BYTE	W96
	BYTE	W96
	BYTE	W96
	BYTE	W96
	BYTE	W92
	BYTE	W03
	BYTE		EOT
	BYTE	W01
	BYTE		TIE     Gs2   v040
	BYTE	W96
	BYTE	W92
	BYTE	W03
	BYTE		EOT
	BYTE	W01
	BYTE		TIE     As2 
	BYTE	W72
	BYTE	W68
	BYTE	W03
	BYTE		EOT
	BYTE	W01
	BYTE		TIE     Dn3 
	BYTE	W48
	BYTE	W02
	BYTE		VOL     71*seq_002_mvl/mxv
	BYTE	W03
	BYTE		        70*seq_002_mvl/mxv
	BYTE	W02
	BYTE		        70*seq_002_mvl/mxv
	BYTE	W01
	BYTE		        69*seq_002_mvl/mxv
	BYTE	W02
	BYTE		        68*seq_002_mvl/mxv
	BYTE	W01
	BYTE		        68*seq_002_mvl/mxv
	BYTE	W01
	BYTE		        67*seq_002_mvl/mxv
	BYTE	W02
	BYTE		        66*seq_002_mvl/mxv
	BYTE	W01
	BYTE		        66*seq_002_mvl/mxv
	BYTE	W02
	BYTE		        65*seq_002_mvl/mxv
	BYTE	W01
	BYTE		        64*seq_002_mvl/mxv
	BYTE	W02
	BYTE		        64*seq_002_mvl/mxv
	BYTE	W01
	BYTE		        63*seq_002_mvl/mxv
	BYTE	W02
	BYTE		        62*seq_002_mvl/mxv
	BYTE	W01
	BYTE	W01
	BYTE		        61*seq_002_mvl/mxv
	BYTE	W01
	BYTE		        60*seq_002_mvl/mxv
	BYTE	W02
	BYTE		        60*seq_002_mvl/mxv
	BYTE	W02
	BYTE		        59*seq_002_mvl/mxv
	BYTE	W01
	BYTE		        58*seq_002_mvl/mxv
	BYTE	W02
	BYTE		        58*seq_002_mvl/mxv
	BYTE	W02
	BYTE		        57*seq_002_mvl/mxv
	BYTE	W01
	BYTE		        56*seq_002_mvl/mxv
	BYTE	W02
	BYTE		        56*seq_002_mvl/mxv
	BYTE	W02
	BYTE		        55*seq_002_mvl/mxv
	BYTE	W01
	BYTE		        54*seq_002_mvl/mxv
	BYTE	W02
	BYTE		        54*seq_002_mvl/mxv
	BYTE	W01
	BYTE		        53*seq_002_mvl/mxv
	BYTE	W02
	BYTE		        52*seq_002_mvl/mxv
	BYTE	W02
	BYTE		        52*seq_002_mvl/mxv
	BYTE	W01
	BYTE		        51*seq_002_mvl/mxv
	BYTE	W02
	BYTE		        50*seq_002_mvl/mxv
	BYTE	W02
	BYTE		        50*seq_002_mvl/mxv
	BYTE	W01
	BYTE		        49*seq_002_mvl/mxv
	BYTE	W02
	BYTE		        48*seq_002_mvl/mxv
	BYTE	W03
	BYTE		        48*seq_002_mvl/mxv
	BYTE	W02
	BYTE		        47*seq_002_mvl/mxv
	BYTE	W01
	BYTE		        46*seq_002_mvl/mxv
	BYTE	W02
	BYTE		        46*seq_002_mvl/mxv
	BYTE	W02
	BYTE		        45*seq_002_mvl/mxv
	BYTE	W02
	BYTE		        44*seq_002_mvl/mxv
	BYTE	W02
	BYTE		        44*seq_002_mvl/mxv
	BYTE	W02
	BYTE		        43*seq_002_mvl/mxv
	BYTE	W02
	BYTE		        42*seq_002_mvl/mxv
	BYTE	W02
	BYTE		        42*seq_002_mvl/mxv
	BYTE	W02
	BYTE		        41*seq_002_mvl/mxv
	BYTE	W02
	BYTE		        40*seq_002_mvl/mxv
	BYTE	W02
	BYTE		        40*seq_002_mvl/mxv
	BYTE	W02
	BYTE		        39*seq_002_mvl/mxv
	BYTE	W03
	BYTE		        38*seq_002_mvl/mxv
	BYTE	W03
	BYTE		        38*seq_002_mvl/mxv
	BYTE	W02
	BYTE		        37*seq_002_mvl/mxv
	BYTE	W02
	BYTE		        36*seq_002_mvl/mxv
	BYTE	W02
	BYTE	W01
	BYTE		        36*seq_002_mvl/mxv
	BYTE	W02
	BYTE		        35*seq_002_mvl/mxv
	BYTE	W04
	BYTE		        34*seq_002_mvl/mxv
	BYTE	W03
	BYTE		        34*seq_002_mvl/mxv
	BYTE	W02
	BYTE		        33*seq_002_mvl/mxv
	BYTE	W02
	BYTE		        32*seq_002_mvl/mxv
	BYTE	W03
	BYTE		        32*seq_002_mvl/mxv
	BYTE	W03
	BYTE		        31*seq_002_mvl/mxv
	BYTE	W03
	BYTE		        30*seq_002_mvl/mxv
	BYTE	W03
	BYTE		        30*seq_002_mvl/mxv
	BYTE	W03
	BYTE		        29*seq_002_mvl/mxv
	BYTE	W03
	BYTE		        28*seq_002_mvl/mxv
	BYTE	W03
	BYTE		        28*seq_002_mvl/mxv
	BYTE	W02
	BYTE		        27*seq_002_mvl/mxv
	BYTE	W03
	BYTE		        26*seq_002_mvl/mxv
	BYTE	W03
	BYTE		        26*seq_002_mvl/mxv
	BYTE	W04
	BYTE		        25*seq_002_mvl/mxv
	BYTE	W03
	BYTE		        24*seq_002_mvl/mxv
	BYTE	W03
	BYTE		        24*seq_002_mvl/mxv
	BYTE	W04
	BYTE		        23*seq_002_mvl/mxv
	BYTE	W03
	BYTE		        22*seq_002_mvl/mxv
	BYTE	W03
	BYTE		        22*seq_002_mvl/mxv
	BYTE	W04
	BYTE		        21*seq_002_mvl/mxv
	BYTE	W03
	BYTE		        20*seq_002_mvl/mxv
	BYTE	W02
	BYTE	W01
	BYTE		        20*seq_002_mvl/mxv
	BYTE	W04
	BYTE		        19*seq_002_mvl/mxv
	BYTE	W04
	BYTE		        18*seq_002_mvl/mxv
	BYTE	W03
	BYTE		        18*seq_002_mvl/mxv
	BYTE	W05
	BYTE		        17*seq_002_mvl/mxv
	BYTE	W03
	BYTE		        16*seq_002_mvl/mxv
	BYTE	W04
	BYTE		        16*seq_002_mvl/mxv
	BYTE	W04
	BYTE		        15*seq_002_mvl/mxv
	BYTE	W04
	BYTE		        14*seq_002_mvl/mxv
	BYTE	W03
	BYTE		        14*seq_002_mvl/mxv
	BYTE	W05
	BYTE		        13*seq_002_mvl/mxv
	BYTE	W04
	BYTE		        12*seq_002_mvl/mxv
	BYTE	W04
	BYTE		        12*seq_002_mvl/mxv
	BYTE	W05
	BYTE		        11*seq_002_mvl/mxv
	BYTE	W05
	BYTE		        10*seq_002_mvl/mxv
	BYTE	W04
	BYTE		        10*seq_002_mvl/mxv
	BYTE	W04
	BYTE		        9*seq_002_mvl/mxv
	BYTE	W04
	BYTE		EOT
	BYTE	W01
	BYTE		VOL     73*seq_002_mvl/mxv
	BYTE	W01
	BYTE		N44     Ds2   v100
	BYTE	W48
	BYTE		N48     Cn2 
	BYTE	W48
	BYTE		N96     Cs2   v092
	BYTE	W96
	BYTE		N96
	BYTE	W96
	BYTE		        Cn2   v100
	BYTE	W96
	BYTE		N36     Cn2   v127
	BYTE	W36
	BYTE		N12     Cs2 
	BYTE	W12
	BYTE		        Ds2 
	BYTE	W12
	BYTE		        Cn2 
	BYTE	W12
	BYTE		        Cs2 
	BYTE	W12
	BYTE		        Ds2 
	BYTE	W12
	BYTE		N24     Fn2 
	BYTE	W24
	BYTE		N12     Fs2 
	BYTE	W12
	BYTE		        Gs2 
	BYTE	W12
	BYTE		N48     Fn2 
	BYTE	W48
	BYTE		N24
	BYTE	W24
	BYTE		N12     Fs2 
	BYTE	W12
	BYTE		        Gs2 
	BYTE	W12
	BYTE		N24     Fn2 
	BYTE	W24
	BYTE		N12     Gn2 
	BYTE	W12
	BYTE		        An2 
	BYTE	W12
	BYTE		N24     As2 
	BYTE	W24
	BYTE		N12     Cn3 
	BYTE	W12
	BYTE		        As2 
	BYTE	W12
	BYTE		N44     Cs3 
	BYTE	W48
	BYTE		N24
	BYTE	W24
	BYTE		N12     As2   v124
	BYTE	W12
	BYTE		        Fs2 
	BYTE	W12
	BYTE		N24     Fn2 
	BYTE	W24
	BYTE		        Ds2   v120
	BYTE	W24
	BYTE		N96     Fn2 
	BYTE	W96
	BYTE		TIE     Fn2   v100
	BYTE	W96
	BYTE	W96
	BYTE		EOT
	BYTE	W96
	BYTE	W96
	BYTE	W96
	BYTE	W96
	BYTE	W56
	BYTE		VOICE   84
	BYTE		VOL     40*seq_002_mvl/mxv
	BYTE		PAN     c_v+63
	BYTE		BENDR   3
	BYTE		BEND    c_v+0
	BYTE	W01
	BYTE		TIE     As2   v068
	BYTE	W36
	BYTE	W03
	BYTE	W96
	BYTE	W96
	BYTE	W44
	BYTE		VOL     40*seq_002_mvl/mxv
	BYTE	W02
	BYTE		        39*seq_002_mvl/mxv
	BYTE	W02
	BYTE		        38*seq_002_mvl/mxv
	BYTE	W02
	BYTE		        38*seq_002_mvl/mxv
	BYTE	W02
	BYTE		        37*seq_002_mvl/mxv
	BYTE	W02
	BYTE		        36*seq_002_mvl/mxv
	BYTE	W03
	BYTE		        36*seq_002_mvl/mxv
	BYTE	W02
	BYTE		        35*seq_002_mvl/mxv
	BYTE	W04
	BYTE		        34*seq_002_mvl/mxv
	BYTE	W02
	BYTE		        34*seq_002_mvl/mxv
	BYTE	W02
	BYTE		        33*seq_002_mvl/mxv
	BYTE	W02
	BYTE		        32*seq_002_mvl/mxv
	BYTE	W02
	BYTE		        32*seq_002_mvl/mxv
	BYTE	W01
	BYTE		        31*seq_002_mvl/mxv
	BYTE	W03
	BYTE		        30*seq_002_mvl/mxv
	BYTE	W01
	BYTE		        30*seq_002_mvl/mxv
	BYTE	W02
	BYTE		        29*seq_002_mvl/mxv
	BYTE	W02
	BYTE		        28*seq_002_mvl/mxv
	BYTE	W02
	BYTE		        28*seq_002_mvl/mxv
	BYTE	W02
	BYTE		        27*seq_002_mvl/mxv
	BYTE	W01
	BYTE		        26*seq_002_mvl/mxv
	BYTE	W02
	BYTE		        26*seq_002_mvl/mxv
	BYTE	W03
	BYTE		        25*seq_002_mvl/mxv
	BYTE	W01
	BYTE		        24*seq_002_mvl/mxv
	BYTE	W02
	BYTE		        24*seq_002_mvl/mxv
	BYTE	W02
	BYTE		        23*seq_002_mvl/mxv
	BYTE	W01
	BYTE		        22*seq_002_mvl/mxv
	BYTE	W02
	BYTE		        22*seq_002_mvl/mxv
	BYTE	W02
	BYTE		        21*seq_002_mvl/mxv
	BYTE	W01
	BYTE		        20*seq_002_mvl/mxv
	BYTE	W02
	BYTE		        20*seq_002_mvl/mxv
	BYTE	W01
	BYTE		        19*seq_002_mvl/mxv
	BYTE	W01
	BYTE		        18*seq_002_mvl/mxv
	BYTE	W03
	BYTE		        18*seq_002_mvl/mxv
	BYTE	W01
	BYTE		        17*seq_002_mvl/mxv
	BYTE	W02
	BYTE		        16*seq_002_mvl/mxv
	BYTE	W01
	BYTE		        16*seq_002_mvl/mxv
	BYTE	W01
	BYTE		        15*seq_002_mvl/mxv
	BYTE	W03
	BYTE		        14*seq_002_mvl/mxv
	BYTE	W01
	BYTE		        14*seq_002_mvl/mxv
	BYTE	W01
	BYTE		        13*seq_002_mvl/mxv
	BYTE	W01
	BYTE		        12*seq_002_mvl/mxv
	BYTE	W02
	BYTE		        12*seq_002_mvl/mxv
	BYTE	W01
	BYTE		        11*seq_002_mvl/mxv
	BYTE	W01
	BYTE		        10*seq_002_mvl/mxv
	BYTE	W02
	BYTE		        10*seq_002_mvl/mxv
	BYTE	W01
	BYTE		        9*seq_002_mvl/mxv
	BYTE	W02
	BYTE		        8*seq_002_mvl/mxv
	BYTE	W01
	BYTE		        8*seq_002_mvl/mxv
	BYTE	W01
	BYTE		        7*seq_002_mvl/mxv
	BYTE	W01
	BYTE		        6*seq_002_mvl/mxv
	BYTE	W02
	BYTE		        6*seq_002_mvl/mxv
	BYTE	W01
	BYTE		        5*seq_002_mvl/mxv
	BYTE	W10
	BYTE		EOT
	BYTE	W08
	BYTE		VOL     40*seq_002_mvl/mxv
	BYTE	W01
	BYTE		TIE     As2   v076
	BYTE	W36
	BYTE	W03
	BYTE	W96
	BYTE	W32
	BYTE	W01
	BYTE		EOT
	BYTE	W60
	BYTE	W03
	BYTE	W96
	BYTE	W96
	BYTE		VOICE   48
	BYTE		VOL     80*seq_002_mvl/mxv
	BYTE		PAN     c_v+36
	BYTE		BENDR   3
	BYTE		BEND    c_v+0
	BYTE	W96
	BYTE		N05     As2   v120
	BYTE	W06
	BYTE		        Cn3 
	BYTE	W06
	BYTE		        Cs3 
	BYTE	W06
	BYTE		        As2 
	BYTE	W06
	BYTE		        Ds3 
	BYTE	W06
	BYTE		        Cs3 
	BYTE	W06
	BYTE		        Cn3 
	BYTE	W06
	BYTE		        As2 
	BYTE	W06
	BYTE		        Cn3 
	BYTE	W06
	BYTE		        Cs3 
	BYTE	W06
	BYTE		        As2 
	BYTE	W06
	BYTE		        Ds3 
	BYTE	W06
	BYTE		        Cs3 
	BYTE	W06
	BYTE		        Cn3 
	BYTE	W06
	BYTE		        As2 
	BYTE	W06
	BYTE		        Cn3 
	BYTE	W06
	BYTE		N05     As2   v112
	BYTE	W06
	BYTE		        Cn3 
	BYTE	W06
	BYTE		        Cs3 
	BYTE	W06
	BYTE		        As2 
	BYTE	W06
	BYTE		        Ds3 
	BYTE	W06
	BYTE		        Cs3 
	BYTE	W06
	BYTE		        Cn3 
	BYTE	W06
	BYTE		        As2 
	BYTE	W06
	BYTE		        Cn3 
	BYTE	W06
	BYTE		        Cs3 
	BYTE	W06
	BYTE		        As2 
	BYTE	W06
	BYTE		        Ds3 
	BYTE	W06
	BYTE		        Cs3 
	BYTE	W06
	BYTE		        Cn3 
	BYTE	W06
	BYTE		        As2 
	BYTE	W06
	BYTE		        Cn3 
	BYTE	W06
	BYTE	PEND
	BYTE	PATT
	 POIN2	seq_002_7 + 0x236
	BYTE	W96
	BYTE	W96
	BYTE	W48
	BYTE		VOICE   40
	BYTE		VOL     66*seq_002_mvl/mxv
	BYTE		PAN     c_v+16
	BYTE		BENDR   3
	BYTE		BEND    c_v+0
	BYTE	W48
	BYTE		N48     Bn1   v072
	BYTE	W48
	BYTE		        An1 
	BYTE	W48
	BYTE	PEND
	BYTE	PATT
	 POIN2	seq_002_7 + 0x26C
	BYTE	PATT
	 POIN2	seq_002_7 + 0x26C
	BYTE		N48     As1   v072
	BYTE	W48
	BYTE		        Cn2 
	BYTE	W48
	BYTE	PATT
	 POIN2	seq_002_7 + 0x26C
	BYTE		N96     As1   v072
	BYTE	W96
	BYTE		N48     Dn2 
	BYTE	W48
	BYTE		        Cn2 
	BYTE	W48
	BYTE		N96
	BYTE	W96
	BYTE		        Fn2 
	BYTE	W96
	BYTE		N48
	BYTE	W48
	BYTE		        En2 
	BYTE	W48
	BYTE		        En2   v060
	BYTE	W48
	BYTE		        Fs2 
	BYTE	W48
	BYTE		N96     En2 
	BYTE	W96
	BYTE		N48     Ds2 
	BYTE	W48
	BYTE		        Cs2 
	BYTE	W48
	BYTE		TIE
	BYTE	W92
	BYTE	W03
	BYTE		VOL     68*seq_002_mvl/mxv
	BYTE	W01
	BYTE		        66*seq_002_mvl/mxv
	BYTE	W01
	BYTE		        66*seq_002_mvl/mxv
	BYTE	W01
	BYTE		        65*seq_002_mvl/mxv
	BYTE	W01
	BYTE		        64*seq_002_mvl/mxv
	BYTE	W01
	BYTE		        63*seq_002_mvl/mxv
	BYTE	W01
	BYTE		        62*seq_002_mvl/mxv
	BYTE	W01
	BYTE		        61*seq_002_mvl/mxv
	BYTE	W01
	BYTE		        60*seq_002_mvl/mxv
	BYTE	W01
	BYTE		        59*seq_002_mvl/mxv
	BYTE	W01
	BYTE		        58*seq_002_mvl/mxv
	BYTE	W01
	BYTE		        58*seq_002_mvl/mxv
	BYTE	W01
	BYTE		        56*seq_002_mvl/mxv
	BYTE	W01
	BYTE		        55*seq_002_mvl/mxv
	BYTE	W01
	BYTE		        54*seq_002_mvl/mxv
	BYTE	W01
	BYTE		        53*seq_002_mvl/mxv
	BYTE	W01
	BYTE		        52*seq_002_mvl/mxv
	BYTE	W01
	BYTE		        52*seq_002_mvl/mxv
	BYTE	W01
	BYTE		        50*seq_002_mvl/mxv
	BYTE	W01
	BYTE		        50*seq_002_mvl/mxv
	BYTE	W01
	BYTE		        48*seq_002_mvl/mxv
	BYTE	W01
	BYTE		        48*seq_002_mvl/mxv
	BYTE	W01
	BYTE		        46*seq_002_mvl/mxv
	BYTE	W01
	BYTE		        45*seq_002_mvl/mxv
	BYTE	W01
	BYTE		        44*seq_002_mvl/mxv
	BYTE	W01
	BYTE		        44*seq_002_mvl/mxv
	BYTE	W01
	BYTE		        43*seq_002_mvl/mxv
	BYTE	W01
	BYTE		        42*seq_002_mvl/mxv
	BYTE	W01
	BYTE		        41*seq_002_mvl/mxv
	BYTE	W01
	BYTE		        40*seq_002_mvl/mxv
	BYTE	W01
	BYTE		        38*seq_002_mvl/mxv
	BYTE	W01
	BYTE		        38*seq_002_mvl/mxv
	BYTE	W01
	BYTE		        37*seq_002_mvl/mxv
	BYTE	W01
	BYTE		        36*seq_002_mvl/mxv
	BYTE	W01
	BYTE		        34*seq_002_mvl/mxv
	BYTE	W01
	BYTE		        34*seq_002_mvl/mxv
	BYTE	W01
	BYTE		        33*seq_002_mvl/mxv
	BYTE	W01
	BYTE		        32*seq_002_mvl/mxv
	BYTE	W01
	BYTE		        30*seq_002_mvl/mxv
	BYTE	W01
	BYTE		        30*seq_002_mvl/mxv
	BYTE	W01
	BYTE		        29*seq_002_mvl/mxv
	BYTE	W01
	BYTE		        28*seq_002_mvl/mxv
	BYTE	W01
	BYTE		        27*seq_002_mvl/mxv
	BYTE	W01
	BYTE		        26*seq_002_mvl/mxv
	BYTE	W01
	BYTE		        24*seq_002_mvl/mxv
	BYTE	W01
	BYTE		        24*seq_002_mvl/mxv
	BYTE	W01
	BYTE		        23*seq_002_mvl/mxv
	BYTE	W01
	BYTE		        22*seq_002_mvl/mxv
	BYTE	W01
	BYTE		        21*seq_002_mvl/mxv
	BYTE	W01
	BYTE		        20*seq_002_mvl/mxv
	BYTE	W01
	BYTE		        19*seq_002_mvl/mxv
	BYTE	W01
	BYTE		        18*seq_002_mvl/mxv
	BYTE	W01
	BYTE		        17*seq_002_mvl/mxv
	BYTE	W01
	BYTE		        16*seq_002_mvl/mxv
	BYTE	W01
	BYTE		        16*seq_002_mvl/mxv
	BYTE	W01
	BYTE		        14*seq_002_mvl/mxv
	BYTE	W01
	BYTE		        13*seq_002_mvl/mxv
	BYTE	W01
	BYTE		        12*seq_002_mvl/mxv
	BYTE	W01
	BYTE		        12*seq_002_mvl/mxv
	BYTE	W01
	BYTE		        11*seq_002_mvl/mxv
	BYTE	W01
	BYTE		        9*seq_002_mvl/mxv
	BYTE	W01
	BYTE		        8*seq_002_mvl/mxv
	BYTE	W01
	BYTE		        7*seq_002_mvl/mxv
	BYTE	W01
	BYTE		        6*seq_002_mvl/mxv
	BYTE	W01
	BYTE		        6*seq_002_mvl/mxv
	BYTE	W01
	BYTE		        5*seq_002_mvl/mxv
	BYTE	W01
	BYTE		        4*seq_002_mvl/mxv
	BYTE	W01
	BYTE		        2*seq_002_mvl/mxv
	BYTE	W01
	BYTE		        2*seq_002_mvl/mxv
	BYTE	W05
	BYTE		EOT
	BYTE	FINE

//*********************** Track 09 ***********************//

seq_002_8:
	BYTE	KEYSH   seq_002_key+0
	BYTE	W03
	BYTE	W96
	BYTE	W96
	BYTE	W96
	BYTE	W96
	BYTE	W96
	BYTE	W96
	BYTE	W96
	BYTE	W96
	BYTE	W44
	BYTE	W03
	BYTE		VOICE   66
	BYTE		VOL     73*seq_002_mvl/mxv
	BYTE		PAN     c_v+26
	BYTE		BEND    c_v+0
	BYTE	W01
	BYTE		TIE     Dn2   v040
	BYTE	W96
	BYTE	W96
	BYTE	W96
	BYTE	W96
	BYTE		EOT
	BYTE		TIE     Cn2 
	BYTE	W96
	BYTE	W96
	BYTE	W96
	BYTE	W96
	BYTE		EOT
	BYTE		N96     Gn2   v036
	BYTE	W96
	BYTE		        Fn2 
	BYTE	W96
	BYTE		TIE     Gn2 
	BYTE	W72
	BYTE	W68
	BYTE	W03
	BYTE		EOT
	BYTE	W01
	BYTE		TIE     Cn3 
	BYTE	W48
	BYTE	W02
	BYTE		VOL     71*seq_002_mvl/mxv
	BYTE	W03
	BYTE		        70*seq_002_mvl/mxv
	BYTE	W02
	BYTE		        70*seq_002_mvl/mxv
	BYTE	W01
	BYTE		        69*seq_002_mvl/mxv
	BYTE	W02
	BYTE		        68*seq_002_mvl/mxv
	BYTE	W01
	BYTE		        68*seq_002_mvl/mxv
	BYTE	W01
	BYTE		        67*seq_002_mvl/mxv
	BYTE	W02
	BYTE		        66*seq_002_mvl/mxv
	BYTE	W01
	BYTE		        66*seq_002_mvl/mxv
	BYTE	W02
	BYTE		        65*seq_002_mvl/mxv
	BYTE	W01
	BYTE		        64*seq_002_mvl/mxv
	BYTE	W02
	BYTE		        64*seq_002_mvl/mxv
	BYTE	W01
	BYTE		        63*seq_002_mvl/mxv
	BYTE	W02
	BYTE		        62*seq_002_mvl/mxv
	BYTE	W01
	BYTE	W01
	BYTE		        61*seq_002_mvl/mxv
	BYTE	W01
	BYTE		        60*seq_002_mvl/mxv
	BYTE	W02
	BYTE		        60*seq_002_mvl/mxv
	BYTE	W02
	BYTE		        59*seq_002_mvl/mxv
	BYTE	W01
	BYTE		        58*seq_002_mvl/mxv
	BYTE	W02
	BYTE		        58*seq_002_mvl/mxv
	BYTE	W02
	BYTE		        57*seq_002_mvl/mxv
	BYTE	W01
	BYTE		        56*seq_002_mvl/mxv
	BYTE	W02
	BYTE		        56*seq_002_mvl/mxv
	BYTE	W02
	BYTE		        55*seq_002_mvl/mxv
	BYTE	W01
	BYTE		        54*seq_002_mvl/mxv
	BYTE	W02
	BYTE		        54*seq_002_mvl/mxv
	BYTE	W01
	BYTE		        53*seq_002_mvl/mxv
	BYTE	W02
	BYTE		        52*seq_002_mvl/mxv
	BYTE	W02
	BYTE		        52*seq_002_mvl/mxv
	BYTE	W01
	BYTE		        51*seq_002_mvl/mxv
	BYTE	W02
	BYTE		        50*seq_002_mvl/mxv
	BYTE	W02
	BYTE		        50*seq_002_mvl/mxv
	BYTE	W01
	BYTE		        49*seq_002_mvl/mxv
	BYTE	W02
	BYTE		        48*seq_002_mvl/mxv
	BYTE	W03
	BYTE		        48*seq_002_mvl/mxv
	BYTE	W02
	BYTE		        47*seq_002_mvl/mxv
	BYTE	W01
	BYTE		        46*seq_002_mvl/mxv
	BYTE	W02
	BYTE		        46*seq_002_mvl/mxv
	BYTE	W02
	BYTE		        45*seq_002_mvl/mxv
	BYTE	W02
	BYTE		        44*seq_002_mvl/mxv
	BYTE	W02
	BYTE		        44*seq_002_mvl/mxv
	BYTE	W02
	BYTE		        43*seq_002_mvl/mxv
	BYTE	W02
	BYTE		        42*seq_002_mvl/mxv
	BYTE	W02
	BYTE		        42*seq_002_mvl/mxv
	BYTE	W02
	BYTE		        41*seq_002_mvl/mxv
	BYTE	W02
	BYTE		        40*seq_002_mvl/mxv
	BYTE	W02
	BYTE		        40*seq_002_mvl/mxv
	BYTE	W02
	BYTE		        39*seq_002_mvl/mxv
	BYTE	W03
	BYTE		        38*seq_002_mvl/mxv
	BYTE	W03
	BYTE		        38*seq_002_mvl/mxv
	BYTE	W02
	BYTE		        37*seq_002_mvl/mxv
	BYTE	W02
	BYTE		        36*seq_002_mvl/mxv
	BYTE	W02
	BYTE	W01
	BYTE		        36*seq_002_mvl/mxv
	BYTE	W02
	BYTE		        35*seq_002_mvl/mxv
	BYTE	W04
	BYTE		        34*seq_002_mvl/mxv
	BYTE	W03
	BYTE		        34*seq_002_mvl/mxv
	BYTE	W02
	BYTE		        33*seq_002_mvl/mxv
	BYTE	W02
	BYTE		        32*seq_002_mvl/mxv
	BYTE	W03
	BYTE		        32*seq_002_mvl/mxv
	BYTE	W03
	BYTE		        31*seq_002_mvl/mxv
	BYTE	W03
	BYTE		        30*seq_002_mvl/mxv
	BYTE	W03
	BYTE		        30*seq_002_mvl/mxv
	BYTE	W03
	BYTE		        29*seq_002_mvl/mxv
	BYTE	W03
	BYTE		        28*seq_002_mvl/mxv
	BYTE	W03
	BYTE		        28*seq_002_mvl/mxv
	BYTE	W02
	BYTE		        27*seq_002_mvl/mxv
	BYTE	W03
	BYTE		        26*seq_002_mvl/mxv
	BYTE	W03
	BYTE		        26*seq_002_mvl/mxv
	BYTE	W04
	BYTE		        25*seq_002_mvl/mxv
	BYTE	W03
	BYTE		        24*seq_002_mvl/mxv
	BYTE	W03
	BYTE		        24*seq_002_mvl/mxv
	BYTE	W04
	BYTE		        23*seq_002_mvl/mxv
	BYTE	W03
	BYTE		        22*seq_002_mvl/mxv
	BYTE	W03
	BYTE		        22*seq_002_mvl/mxv
	BYTE	W04
	BYTE		        21*seq_002_mvl/mxv
	BYTE	W03
	BYTE		        20*seq_002_mvl/mxv
	BYTE	W02
	BYTE	W01
	BYTE		        20*seq_002_mvl/mxv
	BYTE	W04
	BYTE		        19*seq_002_mvl/mxv
	BYTE	W04
	BYTE		        18*seq_002_mvl/mxv
	BYTE	W03
	BYTE		        18*seq_002_mvl/mxv
	BYTE	W05
	BYTE		        17*seq_002_mvl/mxv
	BYTE	W03
	BYTE		        16*seq_002_mvl/mxv
	BYTE	W04
	BYTE		        16*seq_002_mvl/mxv
	BYTE	W04
	BYTE		        15*seq_002_mvl/mxv
	BYTE	W04
	BYTE		        14*seq_002_mvl/mxv
	BYTE	W03
	BYTE		        14*seq_002_mvl/mxv
	BYTE	W05
	BYTE		        13*seq_002_mvl/mxv
	BYTE	W04
	BYTE		        12*seq_002_mvl/mxv
	BYTE	W04
	BYTE		        12*seq_002_mvl/mxv
	BYTE	W05
	BYTE		        11*seq_002_mvl/mxv
	BYTE	W05
	BYTE		        10*seq_002_mvl/mxv
	BYTE	W04
	BYTE		        10*seq_002_mvl/mxv
	BYTE	W04
	BYTE		        9*seq_002_mvl/mxv
	BYTE	W04
	BYTE		EOT
	BYTE	W01
	BYTE		VOL     73*seq_002_mvl/mxv
	BYTE	W01
	BYTE		N48     Cn2   v072
	BYTE	W48
	BYTE		N24     As1 
	BYTE	W24
	BYTE		        An1 
	BYTE	W24
	BYTE		VOL     10*seq_002_mvl/mxv
	BYTE		N96     Cn2 
	BYTE	W96
	BYTE		        As1 
	BYTE	W96
	BYTE		        An1 
	BYTE	W96
	BYTE		        Gs1 
	BYTE	W96
	BYTE		N72     Cs2 
	BYTE	W72
	BYTE		N24     Cn2 
	BYTE	W24
	BYTE		N48     Cs2 
	BYTE	W48
	BYTE		N24     Cn2 
	BYTE	W24
	BYTE		N12     Fn2 
	BYTE	W12
	BYTE		        Ds2 
	BYTE	W12
	BYTE		N96     Fn2 
	BYTE	W96
	BYTE		N12
	BYTE	W12
	BYTE		        Ds2 
	BYTE	W12
	BYTE		        Cs2 
	BYTE	W12
	BYTE		        As1 
	BYTE	W12
	BYTE		N24     An1 
	BYTE	W24
	BYTE		        Cn2 
	BYTE	W24
	BYTE		N96     Cs2 
	BYTE	W96
	BYTE		N48
	BYTE	W48
	BYTE		TIE     Cn2 
	BYTE	W48
	BYTE	W96
	BYTE		EOT
	BYTE	W96
	BYTE	W96
	BYTE	W96
	BYTE	W96
	BYTE	W96
	BYTE	W96
	BYTE	W96
	BYTE	W96
	BYTE	W96
	BYTE		VOICE   40
	BYTE		VOL     80*seq_002_mvl/mxv
	BYTE		PAN     c_v+0
	BYTE		BENDR   3
	BYTE		BEND    c_v+0
	BYTE	W96
	BYTE	W24
	BYTE		N02     Fn3   v008
	BYTE	W02
	BYTE		        Fn3   v012
	BYTE	W02
	BYTE		        Fn3   v016
	BYTE	W02
	BYTE		        Fn3   v020
	BYTE	W02
	BYTE		        Fn3   v024
	BYTE	W02
	BYTE		        Fn3   v032
	BYTE	W02
	BYTE		        Fn3   v036
	BYTE	W02
	BYTE		        Fn3   v040
	BYTE	W02
	BYTE		        Fn3   v044
	BYTE	W02
	BYTE		        Fn3   v056
	BYTE	W02
	BYTE		        Fn3   v064
	BYTE	W02
	BYTE		        Fn3   v068
	BYTE	W02
	BYTE		        En3   v080
	BYTE	W02
	BYTE		N02
	BYTE	W02
	BYTE		N02
	BYTE	W02
	BYTE		N02
	BYTE	W02
	BYTE		        En3   v076
	BYTE	W02
	BYTE		N02
	BYTE	W02
	BYTE		N02
	BYTE	W02
	BYTE		N02
	BYTE	W02
	BYTE		        En3   v072
	BYTE	W02
	BYTE		N02
	BYTE	W02
	BYTE		N02
	BYTE	W02
	BYTE		N02
	BYTE	W02
	BYTE		N02
	BYTE	W02
	BYTE		        En3   v068
	BYTE	W02
	BYTE		N02
	BYTE	W02
	BYTE		N02
	BYTE	W02
	BYTE		        En3   v064
	BYTE	W02
	BYTE		N02
	BYTE	W02
	BYTE		N02
	BYTE	W02
	BYTE		N02
	BYTE	W02
	BYTE		N02
	BYTE	W02
	BYTE		N02
	BYTE	W02
	BYTE		        En3   v056
	BYTE	W02
	BYTE		        En3   v052
	BYTE	W02
	BYTE		        En3   v044
	BYTE	W02
	BYTE		        En3   v028
	BYTE	W02
	BYTE		        En3   v024
	BYTE	W02
	BYTE		        En3   v020
	BYTE	W02
	BYTE		        En3   v016
	BYTE	W02
	BYTE		        En3   v012
	BYTE	W02
	BYTE		        En3   v016
	BYTE	W02
	BYTE		        En3   v012
	BYTE	W02
	BYTE		N02
	BYTE	W08
	BYTE		        Gs3   v044
	BYTE	W02
	BYTE		        Gs3   v048
	BYTE	W02
	BYTE		        Gs3   v056
	BYTE	W02
	BYTE		        Gs3   v060
	BYTE	W02
	BYTE		        Gs3   v068
	BYTE	W02
	BYTE		        Gs3   v072
	BYTE	W02
	BYTE		        Gs3   v076
	BYTE	W02
	BYTE		        Gs3   v084
	BYTE	W02
	BYTE		        Gs3   v088
	BYTE	W02
	BYTE		        Gs3   v092
	BYTE	W02
	BYTE		        Gs3   v100
	BYTE	W02
	BYTE		        Gs3   v104
	BYTE	W02
	BYTE		        Gn3   v108
	BYTE	W02
	BYTE		        Gn3   v116
	BYTE	W02
	BYTE		        Gn3   v120
	BYTE	W02
	BYTE		        Gn3   v127
	BYTE	W02
	BYTE		N02
	BYTE	W02
	BYTE		N02
	BYTE	W02
	BYTE		N02
	BYTE	W02
	BYTE		N02
	BYTE	W02
	BYTE		N02
	BYTE	W02
	BYTE		N02
	BYTE	W02
	BYTE		N02
	BYTE	W02
	BYTE		        Gn3   v124
	BYTE	W02
	BYTE		        Gn3   v120
	BYTE	W02
	BYTE		        Gn3   v116
	BYTE	W02
	BYTE		        Gn3   v112
	BYTE	W02
	BYTE		        Gn3   v108
	BYTE	W02
	BYTE		        Gn3   v104
	BYTE	W02
	BYTE		        Gn3   v100
	BYTE	W02
	BYTE		        Gn3   v092
	BYTE	W02
	BYTE		        Gn3   v088
	BYTE	W02
	BYTE		        Gn3   v084
	BYTE	W02
	BYTE		        Gn3   v060
	BYTE	W02
	BYTE		        Gn3   v052
	BYTE	W02
	BYTE		        Gn3   v048
	BYTE	W02
	BYTE		        Gn3   v052
	BYTE	W02
	BYTE		        Gn3   v028
	BYTE	W02
	BYTE		        Gn3   v024
	BYTE	W02
	BYTE		        Gn3   v020
	BYTE	W02
	BYTE		        Gn3   v016
	BYTE	W02
	BYTE		        Gn3   v012
	BYTE	W02
	BYTE		        Gn3   v016
	BYTE	W02
	BYTE		        Gn3   v012
	BYTE	W02
	BYTE		N02
	BYTE	W08
	BYTE		        Fn3   v016
	BYTE	W02
	BYTE		        Fn3   v024
	BYTE	W02
	BYTE		        Fn3   v028
	BYTE	W02
	BYTE		        Fn3   v032
	BYTE	W02
	BYTE		        Fn3   v040
	BYTE	W02
	BYTE		        Fn3   v044
	BYTE	W02
	BYTE		        Fn3   v048
	BYTE	W02
	BYTE		        Fn3   v052
	BYTE	W02
	BYTE		        Fn3   v060
	BYTE	W02
	BYTE		        Fn3   v064
	BYTE	W02
	BYTE		        Fn3   v072
	BYTE	W02
	BYTE		        Fn3   v076
	BYTE	W02
	BYTE		        En3 
	BYTE	W02
	BYTE		N02
	BYTE	W02
	BYTE		N02
	BYTE	W02
	BYTE		        En3   v072
	BYTE	W02
	BYTE		N02
	BYTE	W02
	BYTE		N02
	BYTE	W02
	BYTE		N02
	BYTE	W02
	BYTE		N02
	BYTE	W02
	BYTE		N02
	BYTE	W02
	BYTE		N02
	BYTE	W02
	BYTE		N02
	BYTE	W02
	BYTE		        En3   v068
	BYTE	W02
	BYTE		N02
	BYTE	W02
	BYTE		N02
	BYTE	W02
	BYTE		        En3   v064
	BYTE	W02
	BYTE		N02
	BYTE	W02
	BYTE		        En3   v060
	BYTE	W02
	BYTE		N02
	BYTE	W02
	BYTE		        En3   v056
	BYTE	W02
	BYTE		        En3   v052
	BYTE	W02
	BYTE		        En3   v048
	BYTE	W02
	BYTE		N02
	BYTE	W02
	BYTE		        En3   v040
	BYTE	W02
	BYTE		        En3   v036
	BYTE	W02
	BYTE		        En3   v032
	BYTE	W02
	BYTE		        En3   v028
	BYTE	W02
	BYTE		        En3   v024
	BYTE	W02
	BYTE		        En3   v020
	BYTE	W02
	BYTE		        En3   v016
	BYTE	W02
	BYTE		        En3   v012
	BYTE	W02
	BYTE		        En3   v016
	BYTE	W02
	BYTE		        En3   v012
	BYTE	W02
	BYTE		N02
	BYTE	W08
	BYTE		        Gs3   v036
	BYTE	W02
	BYTE		        Gs3   v040
	BYTE	W02
	BYTE		        Gs3   v048
	BYTE	W02
	BYTE		        Gs3   v052
	BYTE	W02
	BYTE		        Gs3   v060
	BYTE	W02
	BYTE		        Gs3   v068
	BYTE	W02
	BYTE		        Gs3   v076
	BYTE	W02
	BYTE		        Gs3   v080
	BYTE	W02
	BYTE		        Gs3   v092
	BYTE	W02
	BYTE		        Gs3   v100
	BYTE	W02
	BYTE		        Gs3   v112
	BYTE	W02
	BYTE		        Gs3   v120
	BYTE	W02
	BYTE		        Gn3   v124
	BYTE	W02
	BYTE		N02
	BYTE	W02
	BYTE		N02
	BYTE	W02
	BYTE		        Gn3   v120
	BYTE	W02
	BYTE		N02
	BYTE	W02
	BYTE		N02
	BYTE	W02
	BYTE		N02
	BYTE	W02
	BYTE		N02
	BYTE	W02
	BYTE		N02
	BYTE	W02
	BYTE		N02
	BYTE	W02
	BYTE		N02
	BYTE	W02
	BYTE		N02
	BYTE	W02
	BYTE		N02
	BYTE	W02
	BYTE		        Gn3   v116
	BYTE	W02
	BYTE		N02
	BYTE	W02
	BYTE		N02
	BYTE	W02
	BYTE		        Gn3   v112
	BYTE	W02
	BYTE		        Gn3   v108
	BYTE	W02
	BYTE		        Gn3   v104
	BYTE	W02
	BYTE		        Gn3   v100
	BYTE	W02
	BYTE		        Gn3   v092
	BYTE	W02
	BYTE		        Gn3   v084
	BYTE	W02
	BYTE		        Gn3   v076
	BYTE	W02
	BYTE		        Gn3   v072
	BYTE	W02
	BYTE		        Gn3   v052
	BYTE	W02
	BYTE		        Gn3   v028
	BYTE	W02
	BYTE		        Gn3   v024
	BYTE	W02
	BYTE		        Gn3   v020
	BYTE	W02
	BYTE		        Gn3   v016
	BYTE	W02
	BYTE		        Gn3   v012
	BYTE	W02
	BYTE		        Gn3   v016
	BYTE	W02
	BYTE		        Gn3   v012
	BYTE	W02
	BYTE		N02
	BYTE	W80
	BYTE	W96
	BYTE		N05     Fn3   v080
	BYTE	W06
	BYTE		        Gn3   v120
	BYTE	W06
	BYTE		        Gs3 
	BYTE	W06
	BYTE		        Fn3   v080
	BYTE	W06
	BYTE		        As3   v120
	BYTE	W06
	BYTE		        Gs3 
	BYTE	W06
	BYTE		        Gn3 
	BYTE	W06
	BYTE		        Fn3   v080
	BYTE	W06
	BYTE		        Gn3   v120
	BYTE	W06
	BYTE		        Gs3 
	BYTE	W06
	BYTE		        Fn3   v080
	BYTE	W06
	BYTE		        As3   v120
	BYTE	W06
	BYTE		        Gs3 
	BYTE	W06
	BYTE		        Gn3 
	BYTE	W06
	BYTE		N02     Fn3   v127
	BYTE	W02
	BYTE		        Gn3 
	BYTE	W02
	BYTE		        Gs3 
	BYTE	W02
	BYTE		        As3 
	BYTE	W02
	BYTE		N01     Cn4 
	BYTE	W01
	BYTE		        Cs4 
	BYTE	W01
	BYTE		        Ds4 
	BYTE	W01
	BYTE		        Fn4 
	BYTE	W01
	BYTE		PAN     c_v-19
	BYTE	W24
	BYTE		N02     Cn3   v056
	BYTE	W02
	BYTE		        Dn3   v060
	BYTE	W02
	BYTE		        Cn3   v064
	BYTE	W02
	BYTE		        Dn3   v072
	BYTE	W02
	BYTE		        Cn3   v076
	BYTE	W02
	BYTE		        Dn3   v080
	BYTE	W02
	BYTE		        Cn3   v088
	BYTE	W02
	BYTE		        Dn3   v092
	BYTE	W02
	BYTE		        Cn3   v096
	BYTE	W02
	BYTE		        Dn3 
	BYTE	W02
	BYTE		        Cn3 
	BYTE	W02
	BYTE		        Dn3 
	BYTE	W02
	BYTE		        Cn3 
	BYTE	W02
	BYTE		        Dn3 
	BYTE	W02
	BYTE		        Cn3   v092
	BYTE	W02
	BYTE		        Dn3 
	BYTE	W02
	BYTE		        Cn3   v088
	BYTE	W02
	BYTE		        Dn3   v084
	BYTE	W02
	BYTE		        Cn3   v080
	BYTE	W02
	BYTE		        Dn3 
	BYTE	W02
	BYTE		        Cn3   v076
	BYTE	W02
	BYTE		        Dn3 
	BYTE	W02
	BYTE		        Cn3   v072
	BYTE	W02
	BYTE		        Dn3   v068
	BYTE	W02
	BYTE		        Cn3   v064
	BYTE	W02
	BYTE		        Dn3 
	BYTE	W02
	BYTE		        Cn3   v060
	BYTE	W02
	BYTE		        Dn3   v056
	BYTE	W02
	BYTE		        Cn3   v052
	BYTE	W02
	BYTE		        Dn3 
	BYTE	W02
	BYTE		        Cn3   v048
	BYTE	W02
	BYTE		        Dn3   v044
	BYTE	W02
	BYTE		        Cn3 
	BYTE	W02
	BYTE		        Dn3   v040
	BYTE	W02
	BYTE		        Cn3   v036
	BYTE	W02
	BYTE		        Dn3 
	BYTE	W02
	BYTE		        Cn3   v024
	BYTE	W02
	BYTE		        Dn3 
	BYTE	W02
	BYTE		        Cn3 
	BYTE	W02
	BYTE		        Dn3   v020
	BYTE	W02
	BYTE		        Cn3 
	BYTE	W02
	BYTE		        Dn3 
	BYTE	W02
	BYTE		        Cn3   v016
	BYTE	W02
	BYTE		        Dn3 
	BYTE	W02
	BYTE		        Cn3 
	BYTE	W02
	BYTE		        Dn3   v012
	BYTE	W02
	BYTE		        Cn3 
	BYTE	W02
	BYTE		        Dn3 
	BYTE	W02
	BYTE		        Cn3   v040
	BYTE	W02
	BYTE		        Dn3   v052
	BYTE	W02
	BYTE		        Cn3   v064
	BYTE	W02
	BYTE		        Dn3   v088
	BYTE	W02
	BYTE		        Cn3 
	BYTE	W02
	BYTE		        Dn3 
	BYTE	W02
	BYTE		        Cn3 
	BYTE	W02
	BYTE		        Dn3 
	BYTE	W02
	BYTE		        Cn3 
	BYTE	W02
	BYTE		        Dn3   v092
	BYTE	W02
	BYTE		        Cn3 
	BYTE	W02
	BYTE		        Dn3 
	BYTE	W02
	BYTE		        Cn3   v088
	BYTE	W02
	BYTE		        Dn3   v080
	BYTE	W02
	BYTE		        Cn3   v076
	BYTE	W02
	BYTE		        Dn3   v072
	BYTE	W02
	BYTE		        Cn3   v068
	BYTE	W02
	BYTE		        Dn3   v064
	BYTE	W02
	BYTE		        Cn3   v060
	BYTE	W02
	BYTE		        Dn3   v056
	BYTE	W02
	BYTE		        Cn3   v052
	BYTE	W02
	BYTE		        Dn3 
	BYTE	W02
	BYTE		        Cn3   v048
	BYTE	W02
	BYTE		        Dn3   v044
	BYTE	W02
	BYTE		        Cn3 
	BYTE	W02
	BYTE		        Dn3   v040
	BYTE	W02
	BYTE		        Cn3 
	BYTE	W02
	BYTE		        Dn3   v036
	BYTE	W02
	BYTE		        Cn3 
	BYTE	W02
	BYTE		        Dn3 
	BYTE	W02
	BYTE		        Cn3   v032
	BYTE	W02
	BYTE		        Dn3 
	BYTE	W02
	BYTE		        Cn3 
	BYTE	W02
	BYTE		        Dn3   v028
	BYTE	W02
	BYTE		        Cn3 
	BYTE	W02
	BYTE		        Dn3   v032
	BYTE	W02
	BYTE		        Cn3   v028
	BYTE	W02
	BYTE		        Dn3   v024
	BYTE	W02
	BYTE		        Cn3 
	BYTE	W02
	BYTE		        Dn3   v020
	BYTE	W02
	BYTE		        Cn3 
	BYTE	W02
	BYTE		        Dn3 
	BYTE	W02
	BYTE		        Cn3   v016
	BYTE	W02
	BYTE		        Dn3 
	BYTE	W02
	BYTE		        Cn3   v012
	BYTE	W02
	BYTE		        Dn3   v008
	BYTE	W02
	BYTE		        Cn3 
	BYTE	W02
	BYTE		        Dn3   v012
	BYTE	W02
	BYTE		        Cn3   v084
	BYTE	W02
	BYTE		        Dn3   v092
	BYTE	W02
	BYTE		        Cn3   v096
	BYTE	W02
	BYTE		        Dn3 
	BYTE	W02
	BYTE		        Cn3   v104
	BYTE	W02
	BYTE		        Dn3 
	BYTE	W02
	BYTE		        Cn3 
	BYTE	W02
	BYTE		        Dn3 
	BYTE	W02
	BYTE		        Cn3 
	BYTE	W02
	BYTE		        Dn3   v108
	BYTE	W02
	BYTE		        Cn3 
	BYTE	W02
	BYTE		        Dn3 
	BYTE	W02
	BYTE		        Cn3 
	BYTE	W02
	BYTE		        Dn3   v104
	BYTE	W02
	BYTE		        Cn3   v100
	BYTE	W02
	BYTE		        Dn3   v096
	BYTE	W02
	BYTE		        Cn3   v092
	BYTE	W02
	BYTE		        Dn3   v088
	BYTE	W02
	BYTE		        Cn3   v084
	BYTE	W02
	BYTE		        Dn3   v080
	BYTE	W02
	BYTE		        Cn3   v076
	BYTE	W02
	BYTE		        Dn3   v072
	BYTE	W02
	BYTE		        Cn3 
	BYTE	W02
	BYTE		        Dn3   v068
	BYTE	W02
	BYTE		        Cn3   v064
	BYTE	W02
	BYTE		        Dn3   v060
	BYTE	W02
	BYTE		        Cn3   v056
	BYTE	W02
	BYTE		        Dn3   v052
	BYTE	W02
	BYTE		        Cn3 
	BYTE	W02
	BYTE		        Dn3   v048
	BYTE	W02
	BYTE		        Cn3   v044
	BYTE	W02
	BYTE		        Dn3   v040
	BYTE	W02
	BYTE		        Cn3   v036
	BYTE	W02
	BYTE		        Dn3 
	BYTE	W02
	BYTE		        Cn3   v032
	BYTE	W02
	BYTE		        Dn3   v028
	BYTE	W02
	BYTE	W96
	BYTE	W96
	BYTE	W96
	BYTE	W96
	BYTE	W96
	BYTE	W96
	BYTE	W96
	BYTE	W44
	BYTE	W03
	BYTE		VOICE   86
	BYTE		VOL     66*seq_002_mvl/mxv
	BYTE		PAN     c_v+0
	BYTE		BENDR   3
	BYTE		BEND    c_v+0
	BYTE	W48
	BYTE		N24     Fn2   v100
	BYTE	W01
	BYTE	W23
	BYTE		        Ds2 
	BYTE	W24
	BYTE		        Dn2 
	BYTE	W24
	BYTE		        Cs2 
	BYTE	W24
	BYTE		N96     Cn2   v080
	BYTE	W01
	BYTE	W60
	BYTE	W03
	BYTE		VOL     66*seq_002_mvl/mxv
	BYTE	W01
	BYTE		        65*seq_002_mvl/mxv
	BYTE	W01
	BYTE		        64*seq_002_mvl/mxv
	BYTE	W02
	BYTE		        64*seq_002_mvl/mxv
	BYTE	W01
	BYTE		        62*seq_002_mvl/mxv
	BYTE	W01
	BYTE		        61*seq_002_mvl/mxv
	BYTE	W01
	BYTE		        60*seq_002_mvl/mxv
	BYTE	W01
	BYTE		        60*seq_002_mvl/mxv
	BYTE	W01
	BYTE		        58*seq_002_mvl/mxv
	BYTE	W01
	BYTE		        57*seq_002_mvl/mxv
	BYTE	W01
	BYTE		        56*seq_002_mvl/mxv
	BYTE	W01
	BYTE		        54*seq_002_mvl/mxv
	BYTE	W01
	BYTE		        52*seq_002_mvl/mxv
	BYTE	W01
	BYTE		        52*seq_002_mvl/mxv
	BYTE	W01
	BYTE		        49*seq_002_mvl/mxv
	BYTE	W01
	BYTE		        48*seq_002_mvl/mxv
	BYTE	W01
	BYTE		        46*seq_002_mvl/mxv
	BYTE	W01
	BYTE		        45*seq_002_mvl/mxv
	BYTE	W01
	BYTE		        42*seq_002_mvl/mxv
	BYTE	W01
	BYTE		        41*seq_002_mvl/mxv
	BYTE	W01
	BYTE		        38*seq_002_mvl/mxv
	BYTE	W01
	BYTE		        37*seq_002_mvl/mxv
	BYTE	W01
	BYTE		        34*seq_002_mvl/mxv
	BYTE	W01
	BYTE		        32*seq_002_mvl/mxv
	BYTE	W01
	BYTE		        29*seq_002_mvl/mxv
	BYTE	W01
	BYTE		        26*seq_002_mvl/mxv
	BYTE	W01
	BYTE		        22*seq_002_mvl/mxv
	BYTE	W01
	BYTE		        18*seq_002_mvl/mxv
	BYTE	W01
	BYTE		        14*seq_002_mvl/mxv
	BYTE	W01
	BYTE		        10*seq_002_mvl/mxv
	BYTE	W01
	BYTE		        5*seq_002_mvl/mxv
	BYTE	W01
	BYTE		        3*seq_002_mvl/mxv
	BYTE	W01
	BYTE	W96
	BYTE	W96
	BYTE	FINE

//*********************** Track 10 ***********************//

seq_002_9:
	BYTE	KEYSH   seq_002_key+0
	BYTE	W03
	BYTE	W96
	BYTE	W96
	BYTE	W96
	BYTE	W96
	BYTE	W96
	BYTE	W96
	BYTE	W96
	BYTE	W96
	BYTE	W44
	BYTE	W03
	BYTE		VOICE   86
	BYTE		VOL     73*seq_002_mvl/mxv
	BYTE		PAN     c_v+46
	BYTE		BEND    c_v+0
	BYTE	W01
	BYTE		TIE     Ds3   v056
	BYTE	W96
	BYTE	W96
	BYTE	W96
	BYTE	W96
	BYTE		EOT
	BYTE		TIE     Gs3   v048
	BYTE	W96
	BYTE	W96
	BYTE	W96
	BYTE	W96
	BYTE		EOT
	BYTE		N96     Ds4   v040
	BYTE	W96
	BYTE		        Dn4   v048
	BYTE	W96
	BYTE		TIE     Ds4 
	BYTE	W72
	BYTE	W68
	BYTE	W03
	BYTE		EOT
	BYTE	W01
	BYTE		TIE     Gn4 
	BYTE	W48
	BYTE	W02
	BYTE		VOL     71*seq_002_mvl/mxv
	BYTE	W03
	BYTE		        70*seq_002_mvl/mxv
	BYTE	W02
	BYTE		        70*seq_002_mvl/mxv
	BYTE	W01
	BYTE		        69*seq_002_mvl/mxv
	BYTE	W02
	BYTE		        68*seq_002_mvl/mxv
	BYTE	W01
	BYTE		        68*seq_002_mvl/mxv
	BYTE	W01
	BYTE		        67*seq_002_mvl/mxv
	BYTE	W02
	BYTE		        66*seq_002_mvl/mxv
	BYTE	W01
	BYTE		        66*seq_002_mvl/mxv
	BYTE	W02
	BYTE		        65*seq_002_mvl/mxv
	BYTE	W01
	BYTE		        64*seq_002_mvl/mxv
	BYTE	W02
	BYTE		        64*seq_002_mvl/mxv
	BYTE	W01
	BYTE		        63*seq_002_mvl/mxv
	BYTE	W02
	BYTE		        62*seq_002_mvl/mxv
	BYTE	W01
	BYTE	W01
	BYTE		        61*seq_002_mvl/mxv
	BYTE	W01
	BYTE		        60*seq_002_mvl/mxv
	BYTE	W02
	BYTE		        60*seq_002_mvl/mxv
	BYTE	W02
	BYTE		        59*seq_002_mvl/mxv
	BYTE	W01
	BYTE		        58*seq_002_mvl/mxv
	BYTE	W02
	BYTE		        58*seq_002_mvl/mxv
	BYTE	W02
	BYTE		        57*seq_002_mvl/mxv
	BYTE	W01
	BYTE		        56*seq_002_mvl/mxv
	BYTE	W02
	BYTE		        56*seq_002_mvl/mxv
	BYTE	W02
	BYTE		        55*seq_002_mvl/mxv
	BYTE	W01
	BYTE		        54*seq_002_mvl/mxv
	BYTE	W02
	BYTE		        54*seq_002_mvl/mxv
	BYTE	W01
	BYTE		        53*seq_002_mvl/mxv
	BYTE	W02
	BYTE		        52*seq_002_mvl/mxv
	BYTE	W02
	BYTE		        52*seq_002_mvl/mxv
	BYTE	W01
	BYTE		        51*seq_002_mvl/mxv
	BYTE	W02
	BYTE		        50*seq_002_mvl/mxv
	BYTE	W02
	BYTE		        50*seq_002_mvl/mxv
	BYTE	W01
	BYTE		        49*seq_002_mvl/mxv
	BYTE	W02
	BYTE		        48*seq_002_mvl/mxv
	BYTE	W03
	BYTE		        48*seq_002_mvl/mxv
	BYTE	W02
	BYTE		        47*seq_002_mvl/mxv
	BYTE	W01
	BYTE		        46*seq_002_mvl/mxv
	BYTE	W02
	BYTE		        46*seq_002_mvl/mxv
	BYTE	W02
	BYTE		        45*seq_002_mvl/mxv
	BYTE	W02
	BYTE		        44*seq_002_mvl/mxv
	BYTE	W02
	BYTE		        44*seq_002_mvl/mxv
	BYTE	W02
	BYTE		        43*seq_002_mvl/mxv
	BYTE	W02
	BYTE		        42*seq_002_mvl/mxv
	BYTE	W02
	BYTE		        42*seq_002_mvl/mxv
	BYTE	W02
	BYTE		        41*seq_002_mvl/mxv
	BYTE	W02
	BYTE		        40*seq_002_mvl/mxv
	BYTE	W02
	BYTE		        40*seq_002_mvl/mxv
	BYTE	W02
	BYTE		        39*seq_002_mvl/mxv
	BYTE	W03
	BYTE		        38*seq_002_mvl/mxv
	BYTE	W03
	BYTE		        38*seq_002_mvl/mxv
	BYTE	W02
	BYTE		        37*seq_002_mvl/mxv
	BYTE	W02
	BYTE		        36*seq_002_mvl/mxv
	BYTE	W02
	BYTE	W01
	BYTE		        36*seq_002_mvl/mxv
	BYTE	W02
	BYTE		        35*seq_002_mvl/mxv
	BYTE	W04
	BYTE		        34*seq_002_mvl/mxv
	BYTE	W03
	BYTE		        34*seq_002_mvl/mxv
	BYTE	W02
	BYTE		        33*seq_002_mvl/mxv
	BYTE	W02
	BYTE		        32*seq_002_mvl/mxv
	BYTE	W03
	BYTE		        32*seq_002_mvl/mxv
	BYTE	W03
	BYTE		        31*seq_002_mvl/mxv
	BYTE	W03
	BYTE		        30*seq_002_mvl/mxv
	BYTE	W03
	BYTE		        30*seq_002_mvl/mxv
	BYTE	W03
	BYTE		        29*seq_002_mvl/mxv
	BYTE	W03
	BYTE		        28*seq_002_mvl/mxv
	BYTE	W03
	BYTE		        28*seq_002_mvl/mxv
	BYTE	W02
	BYTE		        27*seq_002_mvl/mxv
	BYTE	W03
	BYTE		        26*seq_002_mvl/mxv
	BYTE	W03
	BYTE		        26*seq_002_mvl/mxv
	BYTE	W04
	BYTE		        25*seq_002_mvl/mxv
	BYTE	W03
	BYTE		        24*seq_002_mvl/mxv
	BYTE	W03
	BYTE		        24*seq_002_mvl/mxv
	BYTE	W04
	BYTE		        23*seq_002_mvl/mxv
	BYTE	W03
	BYTE		        22*seq_002_mvl/mxv
	BYTE	W03
	BYTE		        22*seq_002_mvl/mxv
	BYTE	W04
	BYTE		        21*seq_002_mvl/mxv
	BYTE	W03
	BYTE		        20*seq_002_mvl/mxv
	BYTE	W02
	BYTE	W01
	BYTE		        20*seq_002_mvl/mxv
	BYTE	W04
	BYTE		        19*seq_002_mvl/mxv
	BYTE	W04
	BYTE		        18*seq_002_mvl/mxv
	BYTE	W03
	BYTE		        18*seq_002_mvl/mxv
	BYTE	W05
	BYTE		        17*seq_002_mvl/mxv
	BYTE	W03
	BYTE		        16*seq_002_mvl/mxv
	BYTE	W04
	BYTE		        16*seq_002_mvl/mxv
	BYTE	W04
	BYTE		        15*seq_002_mvl/mxv
	BYTE	W04
	BYTE		        14*seq_002_mvl/mxv
	BYTE	W03
	BYTE		        14*seq_002_mvl/mxv
	BYTE	W05
	BYTE		        13*seq_002_mvl/mxv
	BYTE	W04
	BYTE		        12*seq_002_mvl/mxv
	BYTE	W04
	BYTE		        12*seq_002_mvl/mxv
	BYTE	W05
	BYTE		        11*seq_002_mvl/mxv
	BYTE	W05
	BYTE		        10*seq_002_mvl/mxv
	BYTE	W04
	BYTE		        10*seq_002_mvl/mxv
	BYTE	W04
	BYTE		        9*seq_002_mvl/mxv
	BYTE	W04
	BYTE		EOT
	BYTE	W01
	BYTE		VOL     73*seq_002_mvl/mxv
	BYTE	W01
	BYTE		N48     An3   v040
	BYTE	W48
	BYTE		        Gn3 
	BYTE	W48
	BYTE		N96     Gs3 
	BYTE	W96
	BYTE		        Gn3 
	BYTE	W96
	BYTE		        Fs3 
	BYTE	W96
	BYTE		        Fn3 
	BYTE	W96
	BYTE		N24     Gs3 
	BYTE	W24
	BYTE		N12     As3 
	BYTE	W12
	BYTE		        Cn4 
	BYTE	W12
	BYTE		N48     Gs3 
	BYTE	W48
	BYTE		N24
	BYTE	W24
	BYTE		        Fs3 
	BYTE	W24
	BYTE		N48     An3 
	BYTE	W48
	BYTE		N24     As3 
	BYTE	W24
	BYTE		        Gs3 
	BYTE	W24
	BYTE		N48     As3 
	BYTE	W48
	BYTE		        Fs3 
	BYTE	W48
	BYTE		        Fn3 
	BYTE	W48
	BYTE		N96
	BYTE	W96
	BYTE		        As3 
	BYTE	W96
	BYTE		        An3 
	BYTE	W96
	BYTE	W96
	BYTE	W96
	BYTE	W96
	BYTE	W96
	BYTE	W96
	BYTE	W96
	BYTE	W96
	BYTE	W96
	BYTE	W96
	BYTE		VOICE   40
	BYTE		VOL     53*seq_002_mvl/mxv
	BYTE		PAN     c_v-34
	BYTE		BENDR   3
	BYTE		BEND    c_v+0
	BYTE	W96
	BYTE	W24
	BYTE		N02     Cs3   v028
	BYTE	W02
	BYTE		        Cs3   v032
	BYTE	W02
	BYTE		        Cs3   v036
	BYTE	W02
	BYTE		        Cs3   v040
	BYTE	W02
	BYTE		        Cs3   v044
	BYTE	W02
	BYTE		N02
	BYTE	W02
	BYTE		        Cs3   v048
	BYTE	W02
	BYTE		        Cs3   v052
	BYTE	W02
	BYTE		        Cs3   v056
	BYTE	W02
	BYTE		        Cs3   v060
	BYTE	W02
	BYTE		        Cs3   v064
	BYTE	W02
	BYTE		        Cs3   v068
	BYTE	W02
	BYTE		        Cn3   v072
	BYTE	W02
	BYTE		        Cn3   v076
	BYTE	W02
	BYTE		N02
	BYTE	W02
	BYTE		N02
	BYTE	W02
	BYTE		N02
	BYTE	W02
	BYTE		N02
	BYTE	W02
	BYTE		N02
	BYTE	W02
	BYTE		N02
	BYTE	W02
	BYTE		N02
	BYTE	W02
	BYTE		N02
	BYTE	W02
	BYTE		        Cn3   v072
	BYTE	W02
	BYTE		N02
	BYTE	W02
	BYTE		N02
	BYTE	W02
	BYTE		N02
	BYTE	W02
	BYTE		N02
	BYTE	W02
	BYTE		N02
	BYTE	W02
	BYTE		        Cn3   v068
	BYTE	W02
	BYTE		N02
	BYTE	W02
	BYTE		N02
	BYTE	W02
	BYTE		        Cn3   v064
	BYTE	W02
	BYTE		N02
	BYTE	W02
	BYTE		        Cn3   v060
	BYTE	W02
	BYTE		        Cn3   v052
	BYTE	W02
	BYTE		        Cn3   v048
	BYTE	W02
	BYTE		        Cn3   v044
	BYTE	W02
	BYTE		        Cn3   v040
	BYTE	W02
	BYTE		        Cn3   v024
	BYTE	W02
	BYTE		        Cn3   v020
	BYTE	W02
	BYTE		        Cn3   v016
	BYTE	W02
	BYTE		        Cn3   v012
	BYTE	W14
	BYTE		        Fn3 
	BYTE	W02
	BYTE		        Fn3   v016
	BYTE	W02
	BYTE		        Fn3   v024
	BYTE	W02
	BYTE		        Fn3   v032
	BYTE	W02
	BYTE		        Fn3   v036
	BYTE	W02
	BYTE		        Fn3   v040
	BYTE	W02
	BYTE		        Fn3   v048
	BYTE	W02
	BYTE		        Fn3   v056
	BYTE	W02
	BYTE		        Fn3   v060
	BYTE	W02
	BYTE		        Fn3   v072
	BYTE	W02
	BYTE		        Fn3   v084
	BYTE	W02
	BYTE		        Fn3   v092
	BYTE	W02
	BYTE		        En3   v104
	BYTE	W02
	BYTE		        En3   v116
	BYTE	W02
	BYTE		        En3   v120
	BYTE	W02
	BYTE		N02
	BYTE	W02
	BYTE		N02
	BYTE	W02
	BYTE		N02
	BYTE	W02
	BYTE		N02
	BYTE	W02
	BYTE		N02
	BYTE	W02
	BYTE		        En3   v124
	BYTE	W02
	BYTE		N02
	BYTE	W02
	BYTE		N02
	BYTE	W02
	BYTE		N02
	BYTE	W02
	BYTE		N02
	BYTE	W02
	BYTE		N02
	BYTE	W02
	BYTE		N02
	BYTE	W02
	BYTE		        En3   v120
	BYTE	W02
	BYTE		        En3   v116
	BYTE	W02
	BYTE		        En3   v108
	BYTE	W02
	BYTE		        En3   v100
	BYTE	W02
	BYTE		        En3   v092
	BYTE	W02
	BYTE		        En3   v084
	BYTE	W02
	BYTE		        En3   v060
	BYTE	W02
	BYTE		        En3   v052
	BYTE	W02
	BYTE		        En3   v048
	BYTE	W02
	BYTE		        En3   v032
	BYTE	W02
	BYTE		        En3   v028
	BYTE	W02
	BYTE		        En3   v024
	BYTE	W02
	BYTE		        En3   v020
	BYTE	W02
	BYTE		        En3   v016
	BYTE	W02
	BYTE		        En3   v012
	BYTE	W14
	BYTE		        Cs3 
	BYTE	W02
	BYTE		        Cs3   v020
	BYTE	W02
	BYTE		        Cs3   v028
	BYTE	W02
	BYTE		        Cs3   v032
	BYTE	W02
	BYTE		        Cs3   v052
	BYTE	W02
	BYTE		        Cs3   v056
	BYTE	W02
	BYTE		        Cs3   v060
	BYTE	W02
	BYTE		        Cs3   v064
	BYTE	W02
	BYTE		        Cs3   v068
	BYTE	W02
	BYTE		N02
	BYTE	W02
	BYTE		N02
	BYTE	W02
	BYTE		N02
	BYTE	W02
	BYTE		        Cn3 
	BYTE	W02
	BYTE		N02
	BYTE	W02
	BYTE		N02
	BYTE	W02
	BYTE		N02
	BYTE	W02
	BYTE		N02
	BYTE	W02
	BYTE		N02
	BYTE	W02
	BYTE		N02
	BYTE	W02
	BYTE		N02
	BYTE	W02
	BYTE		N02
	BYTE	W02
	BYTE		N02
	BYTE	W02
	BYTE		N02
	BYTE	W02
	BYTE		N02
	BYTE	W02
	BYTE		N02
	BYTE	W02
	BYTE		N02
	BYTE	W02
	BYTE		N02
	BYTE	W02
	BYTE		N02
	BYTE	W02
	BYTE		        Cn3   v064
	BYTE	W02
	BYTE		N02
	BYTE	W02
	BYTE		N02
	BYTE	W02
	BYTE		        Cn3   v060
	BYTE	W02
	BYTE		        Cn3   v056
	BYTE	W02
	BYTE		N02
	BYTE	W02
	BYTE		        Cn3   v052
	BYTE	W02
	BYTE		        Cn3   v048
	BYTE	W02
	BYTE		        Cn3   v044
	BYTE	W02
	BYTE		N02
	BYTE	W02
	BYTE		        Cn3   v036
	BYTE	W02
	BYTE		        Cn3   v028
	BYTE	W02
	BYTE		        Cn3   v016
	BYTE	W02
	BYTE		        Cn3   v012
	BYTE	W14
	BYTE		        Fn3 
	BYTE	W02
	BYTE		N02
	BYTE	W02
	BYTE		        Fn3   v016
	BYTE	W02
	BYTE		        Fn3   v020
	BYTE	W02
	BYTE		        Fn3   v024
	BYTE	W02
	BYTE		        Fn3   v028
	BYTE	W02
	BYTE		        Fn3   v032
	BYTE	W02
	BYTE		        Fn3   v036
	BYTE	W02
	BYTE		        Fn3   v044
	BYTE	W02
	BYTE		        Fn3   v052
	BYTE	W02
	BYTE		        Fn3   v060
	BYTE	W02
	BYTE		        Fn3   v072
	BYTE	W02
	BYTE		        En3   v084
	BYTE	W02
	BYTE		        En3   v100
	BYTE	W02
	BYTE		        En3   v108
	BYTE	W02
	BYTE		        En3   v112
	BYTE	W02
	BYTE		N02
	BYTE	W02
	BYTE		N02
	BYTE	W02
	BYTE		        En3   v116
	BYTE	W02
	BYTE		N02
	BYTE	W02
	BYTE		N02
	BYTE	W02
	BYTE		        En3   v120
	BYTE	W02
	BYTE		N02
	BYTE	W02
	BYTE		N02
	BYTE	W02
	BYTE		N02
	BYTE	W02
	BYTE		        En3   v116
	BYTE	W02
	BYTE		N02
	BYTE	W02
	BYTE		N02
	BYTE	W02
	BYTE		        En3   v112
	BYTE	W02
	BYTE		        En3   v108
	BYTE	W02
	BYTE		        En3   v104
	BYTE	W02
	BYTE		        En3   v100
	BYTE	W02
	BYTE		        En3   v092
	BYTE	W02
	BYTE		        En3   v084
	BYTE	W02
	BYTE		        En3   v076
	BYTE	W02
	BYTE		        En3   v072
	BYTE	W02
	BYTE		        En3   v052
	BYTE	W02
	BYTE		        En3   v048
	BYTE	W02
	BYTE		        En3   v040
	BYTE	W02
	BYTE		        En3   v036
	BYTE	W02
	BYTE		        En3   v028
	BYTE	W02
	BYTE		        En3   v024
	BYTE	W84
	BYTE	W02
	BYTE	W96
	BYTE	W96
	BYTE	W96
	BYTE	W96
	BYTE	W48
	BYTE		VOICE   86
	BYTE		VOL     66*seq_002_mvl/mxv
	BYTE		PAN     c_v+56
	BYTE		BENDR   3
	BYTE		BEND    c_v+0
	BYTE	W48
	BYTE		N96     Gn2   v072
	BYTE	W96
	BYTE		N96
	BYTE	W96
	BYTE		N96
	BYTE	W96
	BYTE		N96
	BYTE	W96
	BYTE		N48     Dn2 
	BYTE	W48
	BYTE		        En2 
	BYTE	W48
	BYTE		        Fn2 
	BYTE	W48
	BYTE		        Cn2 
	BYTE	W48
	BYTE		        As2 
	BYTE	W48
	BYTE		        Gn2 
	BYTE	W48
	BYTE		N96     An2 
	BYTE	W96
	BYTE		N24     Fn2   v120
	BYTE	W24
	BYTE		        Ds2 
	BYTE	W24
	BYTE		        Dn2 
	BYTE	W24
	BYTE		N23     Cs2 
	BYTE	W24
	BYTE		N92     Cn2 
	BYTE	W96
	BYTE		N92
	BYTE	W96
	BYTE		        Cn2   v108
	BYTE	W96
	BYTE		N92
	BYTE	W96
	BYTE		TIE     Bn1   v116
	BYTE	W84
	BYTE	W02
	BYTE		VOL     66*seq_002_mvl/mxv
	BYTE	W01
	BYTE		        65*seq_002_mvl/mxv
	BYTE	W01
	BYTE		        64*seq_002_mvl/mxv
	BYTE	W01
	BYTE		        63*seq_002_mvl/mxv
	BYTE	W02
	BYTE		        62*seq_002_mvl/mxv
	BYTE	W01
	BYTE		        61*seq_002_mvl/mxv
	BYTE	W01
	BYTE		        60*seq_002_mvl/mxv
	BYTE	W01
	BYTE		        59*seq_002_mvl/mxv
	BYTE	W01
	BYTE		        58*seq_002_mvl/mxv
	BYTE	W01
	BYTE		        58*seq_002_mvl/mxv
	BYTE	W01
	BYTE		        57*seq_002_mvl/mxv
	BYTE	W01
	BYTE		        56*seq_002_mvl/mxv
	BYTE	W01
	BYTE		        55*seq_002_mvl/mxv
	BYTE	W02
	BYTE		        54*seq_002_mvl/mxv
	BYTE	W01
	BYTE		        53*seq_002_mvl/mxv
	BYTE	W01
	BYTE		        52*seq_002_mvl/mxv
	BYTE	W01
	BYTE		        52*seq_002_mvl/mxv
	BYTE	W01
	BYTE		        51*seq_002_mvl/mxv
	BYTE	W01
	BYTE		        50*seq_002_mvl/mxv
	BYTE	W01
	BYTE		        49*seq_002_mvl/mxv
	BYTE	W01
	BYTE		        48*seq_002_mvl/mxv
	BYTE	W01
	BYTE		        47*seq_002_mvl/mxv
	BYTE	W02
	BYTE		        46*seq_002_mvl/mxv
	BYTE	W01
	BYTE		        45*seq_002_mvl/mxv
	BYTE	W01
	BYTE		        44*seq_002_mvl/mxv
	BYTE	W01
	BYTE		        44*seq_002_mvl/mxv
	BYTE	W01
	BYTE		        43*seq_002_mvl/mxv
	BYTE	W01
	BYTE		        42*seq_002_mvl/mxv
	BYTE	W01
	BYTE		        42*seq_002_mvl/mxv
	BYTE	W01
	BYTE		        41*seq_002_mvl/mxv
	BYTE	W01
	BYTE		        40*seq_002_mvl/mxv
	BYTE	W01
	BYTE		        39*seq_002_mvl/mxv
	BYTE	W01
	BYTE		        38*seq_002_mvl/mxv
	BYTE	W01
	BYTE		        37*seq_002_mvl/mxv
	BYTE	W01
	BYTE		        36*seq_002_mvl/mxv
	BYTE	W01
	BYTE		        36*seq_002_mvl/mxv
	BYTE	W01
	BYTE		        35*seq_002_mvl/mxv
	BYTE	W01
	BYTE		        34*seq_002_mvl/mxv
	BYTE	W01
	BYTE		        33*seq_002_mvl/mxv
	BYTE	W01
	BYTE		        32*seq_002_mvl/mxv
	BYTE	W01
	BYTE		        32*seq_002_mvl/mxv
	BYTE	W02
	BYTE		        31*seq_002_mvl/mxv
	BYTE	W01
	BYTE		        30*seq_002_mvl/mxv
	BYTE	W01
	BYTE		        29*seq_002_mvl/mxv
	BYTE	W01
	BYTE		        28*seq_002_mvl/mxv
	BYTE	W01
	BYTE		        27*seq_002_mvl/mxv
	BYTE	W01
	BYTE		        26*seq_002_mvl/mxv
	BYTE	W01
	BYTE		        25*seq_002_mvl/mxv
	BYTE	W01
	BYTE		        24*seq_002_mvl/mxv
	BYTE	W01
	BYTE		        24*seq_002_mvl/mxv
	BYTE	W01
	BYTE		        22*seq_002_mvl/mxv
	BYTE	W01
	BYTE		        22*seq_002_mvl/mxv
	BYTE	W02
	BYTE		        21*seq_002_mvl/mxv
	BYTE	W01
	BYTE		        20*seq_002_mvl/mxv
	BYTE	W01
	BYTE		        19*seq_002_mvl/mxv
	BYTE	W01
	BYTE		        18*seq_002_mvl/mxv
	BYTE	W01
	BYTE		        17*seq_002_mvl/mxv
	BYTE	W01
	BYTE		        16*seq_002_mvl/mxv
	BYTE	W01
	BYTE		        16*seq_002_mvl/mxv
	BYTE	W01
	BYTE		        14*seq_002_mvl/mxv
	BYTE	W01
	BYTE		        14*seq_002_mvl/mxv
	BYTE	W01
	BYTE		        13*seq_002_mvl/mxv
	BYTE	W01
	BYTE		        12*seq_002_mvl/mxv
	BYTE	W01
	BYTE		        11*seq_002_mvl/mxv
	BYTE	W01
	BYTE		        10*seq_002_mvl/mxv
	BYTE	W01
	BYTE		        10*seq_002_mvl/mxv
	BYTE	W01
	BYTE		        9*seq_002_mvl/mxv
	BYTE	W01
	BYTE		        8*seq_002_mvl/mxv
	BYTE	W01
	BYTE		        8*seq_002_mvl/mxv
	BYTE	W01
	BYTE		        6*seq_002_mvl/mxv
	BYTE	W01
	BYTE		        6*seq_002_mvl/mxv
	BYTE	W01
	BYTE		        5*seq_002_mvl/mxv
	BYTE	W01
	BYTE		        4*seq_002_mvl/mxv
	BYTE	W01
	BYTE		        3*seq_002_mvl/mxv
	BYTE	W04
	BYTE		EOT
	BYTE	FINE

//*********************** Track 11 ***********************//

seq_002_10:
	BYTE	KEYSH   seq_002_key+0
	BYTE	W03
	BYTE	W96
	BYTE	W96
	BYTE	W96
	BYTE	W96
	BYTE	W96
	BYTE	W96
	BYTE	W96
	BYTE	W96
	BYTE	W48
	BYTE	W05
	BYTE		VOICE   66
	BYTE		VOL     40*seq_002_mvl/mxv
	BYTE		PAN     c_v+63
	BYTE		BEND    c_v+0
	BYTE	W01
	BYTE		TIE     As2   v048
	BYTE	W90
	BYTE	W96
	BYTE	W96
	BYTE	W96
	BYTE	W96
	BYTE	W96
	BYTE	W96
	BYTE	W96
	BYTE	W05
	BYTE		EOT
	BYTE	W01
	BYTE		TIE     Cn3   v040
	BYTE	W90
	BYTE	W96
	BYTE	W05
	BYTE		EOT
	BYTE	W01
	BYTE		TIE     Dn3 
	BYTE	W66
	BYTE	W72
	BYTE	W05
	BYTE		EOT
	BYTE	W01
	BYTE		TIE     Fn3 
	BYTE	W66
	BYTE	W56
	BYTE	W02
	BYTE		VOL     40*seq_002_mvl/mxv
	BYTE	W02
	BYTE		        39*seq_002_mvl/mxv
	BYTE	W03
	BYTE		        38*seq_002_mvl/mxv
	BYTE	W03
	BYTE		        38*seq_002_mvl/mxv
	BYTE	W02
	BYTE		        37*seq_002_mvl/mxv
	BYTE	W02
	BYTE		        36*seq_002_mvl/mxv
	BYTE	W02
	BYTE	W01
	BYTE		        36*seq_002_mvl/mxv
	BYTE	W02
	BYTE		        35*seq_002_mvl/mxv
	BYTE	W04
	BYTE		        34*seq_002_mvl/mxv
	BYTE	W03
	BYTE		        34*seq_002_mvl/mxv
	BYTE	W02
	BYTE		        33*seq_002_mvl/mxv
	BYTE	W02
	BYTE		        32*seq_002_mvl/mxv
	BYTE	W03
	BYTE		        32*seq_002_mvl/mxv
	BYTE	W03
	BYTE		        31*seq_002_mvl/mxv
	BYTE	W03
	BYTE		        30*seq_002_mvl/mxv
	BYTE	W03
	BYTE		        30*seq_002_mvl/mxv
	BYTE	W03
	BYTE		        29*seq_002_mvl/mxv
	BYTE	W03
	BYTE		        28*seq_002_mvl/mxv
	BYTE	W03
	BYTE		        28*seq_002_mvl/mxv
	BYTE	W02
	BYTE		        27*seq_002_mvl/mxv
	BYTE	W03
	BYTE		        26*seq_002_mvl/mxv
	BYTE	W03
	BYTE		        26*seq_002_mvl/mxv
	BYTE	W04
	BYTE		        25*seq_002_mvl/mxv
	BYTE	W03
	BYTE		        24*seq_002_mvl/mxv
	BYTE	W03
	BYTE		        24*seq_002_mvl/mxv
	BYTE	W04
	BYTE		        23*seq_002_mvl/mxv
	BYTE	W03
	BYTE		        22*seq_002_mvl/mxv
	BYTE	W03
	BYTE		        22*seq_002_mvl/mxv
	BYTE	W04
	BYTE		        21*seq_002_mvl/mxv
	BYTE	W03
	BYTE		        20*seq_002_mvl/mxv
	BYTE	W02
	BYTE	W01
	BYTE		        20*seq_002_mvl/mxv
	BYTE	W04
	BYTE		        19*seq_002_mvl/mxv
	BYTE	W04
	BYTE		        18*seq_002_mvl/mxv
	BYTE	W03
	BYTE		        18*seq_002_mvl/mxv
	BYTE	W05
	BYTE		        17*seq_002_mvl/mxv
	BYTE	W03
	BYTE		        16*seq_002_mvl/mxv
	BYTE	W04
	BYTE		        16*seq_002_mvl/mxv
	BYTE	W04
	BYTE		        15*seq_002_mvl/mxv
	BYTE	W04
	BYTE		        14*seq_002_mvl/mxv
	BYTE	W03
	BYTE		        14*seq_002_mvl/mxv
	BYTE	W05
	BYTE		        13*seq_002_mvl/mxv
	BYTE	W04
	BYTE		        12*seq_002_mvl/mxv
	BYTE	W04
	BYTE		        12*seq_002_mvl/mxv
	BYTE	W05
	BYTE		        11*seq_002_mvl/mxv
	BYTE	W05
	BYTE		        10*seq_002_mvl/mxv
	BYTE	W04
	BYTE		        10*seq_002_mvl/mxv
	BYTE	W04
	BYTE		        9*seq_002_mvl/mxv
	BYTE	W06
	BYTE	W03
	BYTE		N24     An2   v120
	BYTE	W01
	BYTE		EOT     Fn3 
	BYTE	W01
	BYTE		VOL     23*seq_002_mvl/mxv
	BYTE	W22
	BYTE		N24     Fs2 
	BYTE	W24
	BYTE		N36     Fn2 
	BYTE	W36
	BYTE		N12     Ds2 
	BYTE	W09
	BYTE	W03
	BYTE		N92     Fn2 
	BYTE	W92
	BYTE	W01
	BYTE	W03
	BYTE		N36
	BYTE	W36
	BYTE		N12     En2 
	BYTE	W12
	BYTE		N48     Cs3 
	BYTE	W44
	BYTE	W01
	BYTE	W03
	BYTE		N36     En2 
	BYTE	W36
	BYTE		N12     Ds2 
	BYTE	W12
	BYTE		N48     Cn3 
	BYTE	W44
	BYTE	W01
	BYTE	W03
	BYTE		N36
	BYTE	W36
	BYTE		N12     Cs3 
	BYTE	W12
	BYTE		        Ds3 
	BYTE	W12
	BYTE		        Cn3 
	BYTE	W12
	BYTE		        Cs3 
	BYTE	W12
	BYTE		        Ds3 
	BYTE	W09
	BYTE	W03
	BYTE		N24     Fn3 
	BYTE	W24
	BYTE		N12     Fs3 
	BYTE	W12
	BYTE		        Gs3 
	BYTE	W12
	BYTE		N48     Fn3 
	BYTE	W44
	BYTE	W01
	BYTE	W03
	BYTE		N24
	BYTE	W24
	BYTE		N12     Fs3 
	BYTE	W12
	BYTE		        Gs3 
	BYTE	W12
	BYTE		N24     Fn3 
	BYTE	W24
	BYTE		N12     Gn3 
	BYTE	W12
	BYTE		        An3 
	BYTE	W09
	BYTE	W03
	BYTE		N24     As3 
	BYTE	W24
	BYTE		N12     Cn4 
	BYTE	W12
	BYTE		        As3 
	BYTE	W12
	BYTE		N44     Cs4 
	BYTE	W44
	BYTE	W01
	BYTE	W03
	BYTE		N24
	BYTE	W24
	BYTE		N12     As3 
	BYTE	W12
	BYTE		        Fs3 
	BYTE	W12
	BYTE		N24     Fn3 
	BYTE	W24
	BYTE		        Ds3 
	BYTE	W21
	BYTE	W03
	BYTE		N96     Fn3 
	BYTE	W92
	BYTE	W01
	BYTE	W03
	BYTE		N24
	BYTE	W24
	BYTE		N12     As2 
	BYTE	W12
	BYTE		        Cn3 
	BYTE	W12
	BYTE		        Ds3 
	BYTE	W12
	BYTE		        Cs3 
	BYTE	W12
	BYTE		        Cn3 
	BYTE	W12
	BYTE		        As2 
	BYTE	W09
	BYTE	W03
	BYTE		N96     Cn3 
	BYTE	W92
	BYTE	W01
	BYTE	W96
	BYTE	W96
	BYTE	W96
	BYTE	W96
	BYTE	W96
	BYTE	W96
	BYTE	W96
	BYTE	W96
	BYTE	W96
	BYTE		VOICE   40
	BYTE		VOL     53*seq_002_mvl/mxv
	BYTE		PAN     c_v+36
	BYTE		BENDR   3
	BYTE		BEND    c_v+0
	BYTE	W96
	BYTE	W24
	BYTE		N02     Gs2   v020
	BYTE	W02
	BYTE		        Gs2   v024
	BYTE	W02
	BYTE		        Gs2   v032
	BYTE	W02
	BYTE		        Gs2   v036
	BYTE	W02
	BYTE		        Gs2   v040
	BYTE	W02
	BYTE		        Gs2   v048
	BYTE	W02
	BYTE		        Gs2   v052
	BYTE	W02
	BYTE		        Gs2   v056
	BYTE	W02
	BYTE		        Gs2   v064
	BYTE	W02
	BYTE		        Gs2   v068
	BYTE	W02
	BYTE		        Gs2   v080
	BYTE	W02
	BYTE		N02
	BYTE	W02
	BYTE		        Gn2 
	BYTE	W02
	BYTE		        Gn2   v084
	BYTE	W02
	BYTE		N02
	BYTE	W02
	BYTE		N02
	BYTE	W02
	BYTE		        Gn2   v088
	BYTE	W02
	BYTE		N02
	BYTE	W02
	BYTE		N02
	BYTE	W02
	BYTE		        Gn2   v092
	BYTE	W02
	BYTE		N02
	BYTE	W02
	BYTE		N02
	BYTE	W02
	BYTE		N02
	BYTE	W02
	BYTE		N02
	BYTE	W02
	BYTE		N02
	BYTE	W02
	BYTE		        Gn2   v088
	BYTE	W02
	BYTE		N02
	BYTE	W02
	BYTE		N02
	BYTE	W02
	BYTE		        Gn2   v084
	BYTE	W02
	BYTE		        Gn2   v080
	BYTE	W02
	BYTE		N02
	BYTE	W02
	BYTE		        Gn2   v076
	BYTE	W02
	BYTE		        Gn2   v072
	BYTE	W02
	BYTE		        Gn2   v068
	BYTE	W02
	BYTE		        Gn2   v064
	BYTE	W02
	BYTE		        Gn2   v056
	BYTE	W02
	BYTE		N02
	BYTE	W02
	BYTE		        Gn2   v048
	BYTE	W02
	BYTE		        Gn2   v044
	BYTE	W02
	BYTE		        Gn2   v028
	BYTE	W02
	BYTE		        Gn2   v024
	BYTE	W02
	BYTE		        Gn2   v020
	BYTE	W02
	BYTE		N02
	BYTE	W02
	BYTE		        Gn2   v016
	BYTE	W02
	BYTE		        Gn2   v012
	BYTE	W08
	BYTE		        Cs3   v016
	BYTE	W02
	BYTE		        Cs3   v020
	BYTE	W02
	BYTE		        Cs3   v024
	BYTE	W02
	BYTE		        Cs3   v032
	BYTE	W02
	BYTE		        Cs3   v036
	BYTE	W02
	BYTE		        Cs3   v040
	BYTE	W02
	BYTE		        Cs3   v044
	BYTE	W02
	BYTE		        Cs3   v052
	BYTE	W02
	BYTE		        Cs3   v056
	BYTE	W02
	BYTE		        Cs3   v060
	BYTE	W02
	BYTE		        Cs3   v064
	BYTE	W02
	BYTE		        Cs3   v108
	BYTE	W02
	BYTE		        Cn3   v120
	BYTE	W02
	BYTE		        Cn3   v127
	BYTE	W02
	BYTE		N02
	BYTE	W02
	BYTE		N02
	BYTE	W02
	BYTE		N02
	BYTE	W02
	BYTE		N02
	BYTE	W02
	BYTE		N02
	BYTE	W02
	BYTE		N02
	BYTE	W02
	BYTE		N02
	BYTE	W02
	BYTE		N02
	BYTE	W02
	BYTE		N02
	BYTE	W02
	BYTE		        Cn3   v124
	BYTE	W02
	BYTE		        Cn3   v120
	BYTE	W02
	BYTE		        Cn3   v116
	BYTE	W02
	BYTE		        Cn3   v112
	BYTE	W02
	BYTE		        Cn3   v108
	BYTE	W02
	BYTE		        Cn3   v104
	BYTE	W02
	BYTE		        Cn3   v100
	BYTE	W02
	BYTE		        Cn3   v092
	BYTE	W02
	BYTE		        Cn3   v088
	BYTE	W02
	BYTE		        Cn3   v084
	BYTE	W02
	BYTE		        Cn3   v060
	BYTE	W02
	BYTE		        Cn3   v044
	BYTE	W02
	BYTE		N02
	BYTE	W02
	BYTE		        Cn3   v040
	BYTE	W02
	BYTE		        Cn3   v036
	BYTE	W02
	BYTE		        Cn3   v032
	BYTE	W02
	BYTE		N02
	BYTE	W02
	BYTE		        Cn3   v028
	BYTE	W02
	BYTE		        Cn3   v024
	BYTE	W02
	BYTE		N02
	BYTE	W02
	BYTE		        Cn3   v020
	BYTE	W02
	BYTE		        Cn3   v016
	BYTE	W08
	BYTE		        Gs2   v020
	BYTE	W02
	BYTE		        Gs2   v024
	BYTE	W02
	BYTE		        Gs2   v032
	BYTE	W02
	BYTE		        Gs2   v036
	BYTE	W02
	BYTE		        Gs2   v044
	BYTE	W02
	BYTE		        Gs2   v048
	BYTE	W02
	BYTE		        Gs2   v056
	BYTE	W02
	BYTE		        Gs2   v060
	BYTE	W02
	BYTE		        Gs2   v064
	BYTE	W02
	BYTE		        Gs2   v072
	BYTE	W02
	BYTE		        Gs2   v076
	BYTE	W02
	BYTE		        Gs2   v080
	BYTE	W02
	BYTE		        Gn2 
	BYTE	W02
	BYTE		        Gn2   v084
	BYTE	W02
	BYTE		        Gn2   v088
	BYTE	W02
	BYTE		N02
	BYTE	W02
	BYTE		N02
	BYTE	W02
	BYTE		N02
	BYTE	W02
	BYTE		N02
	BYTE	W02
	BYTE		N02
	BYTE	W02
	BYTE		N02
	BYTE	W02
	BYTE		N02
	BYTE	W02
	BYTE		        Gn2   v084
	BYTE	W02
	BYTE		N02
	BYTE	W02
	BYTE		        Gn2   v080
	BYTE	W02
	BYTE		N02
	BYTE	W02
	BYTE		N02
	BYTE	W02
	BYTE		        Gn2   v076
	BYTE	W02
	BYTE		        Gn2   v072
	BYTE	W02
	BYTE		        Gn2   v068
	BYTE	W02
	BYTE		N02
	BYTE	W02
	BYTE		        Gn2   v064
	BYTE	W02
	BYTE		        Gn2   v060
	BYTE	W02
	BYTE		N02
	BYTE	W02
	BYTE		        Gn2   v056
	BYTE	W02
	BYTE		N02
	BYTE	W02
	BYTE		        Gn2   v052
	BYTE	W02
	BYTE		        Gn2   v040
	BYTE	W02
	BYTE		        Gn2   v032
	BYTE	W02
	BYTE		        Gn2   v028
	BYTE	W02
	BYTE		        Gn2   v024
	BYTE	W02
	BYTE		        Gn2   v020
	BYTE	W02
	BYTE		        Gn2   v016
	BYTE	W02
	BYTE		        Gn2   v012
	BYTE	W02
	BYTE		N02
	BYTE	W08
	BYTE		        Cs3   v024
	BYTE	W02
	BYTE		        Cs3   v028
	BYTE	W02
	BYTE		        Cs3   v032
	BYTE	W02
	BYTE		        Cs3   v036
	BYTE	W02
	BYTE		        Cs3   v040
	BYTE	W02
	BYTE		        Cs3   v048
	BYTE	W02
	BYTE		        Cs3   v056
	BYTE	W02
	BYTE		        Cs3   v064
	BYTE	W02
	BYTE		        Cs3   v072
	BYTE	W02
	BYTE		        Cs3   v080
	BYTE	W02
	BYTE		        Cs3   v088
	BYTE	W02
	BYTE		        Cs3   v096
	BYTE	W02
	BYTE		        Cn3   v104
	BYTE	W02
	BYTE		        Cn3   v112
	BYTE	W02
	BYTE		        Cn3   v120
	BYTE	W02
	BYTE		N02
	BYTE	W02
	BYTE		N02
	BYTE	W02
	BYTE		N02
	BYTE	W02
	BYTE		N02
	BYTE	W02
	BYTE		N02
	BYTE	W02
	BYTE		N02
	BYTE	W02
	BYTE		N02
	BYTE	W02
	BYTE		N02
	BYTE	W02
	BYTE		N02
	BYTE	W02
	BYTE		N02
	BYTE	W02
	BYTE		        Cn3   v116
	BYTE	W02
	BYTE		N02
	BYTE	W02
	BYTE		N02
	BYTE	W02
	BYTE		        Cn3   v112
	BYTE	W02
	BYTE		        Cn3   v108
	BYTE	W02
	BYTE		        Cn3   v104
	BYTE	W02
	BYTE		        Cn3   v100
	BYTE	W02
	BYTE		        Cn3   v092
	BYTE	W02
	BYTE		        Cn3   v084
	BYTE	W02
	BYTE		        Cn3   v076
	BYTE	W02
	BYTE		        Cn3   v072
	BYTE	W02
	BYTE		        Cn3   v052
	BYTE	W02
	BYTE		        Cn3   v048
	BYTE	W02
	BYTE		        Cn3   v040
	BYTE	W02
	BYTE		        Cn3   v036
	BYTE	W02
	BYTE		        Cn3   v028
	BYTE	W02
	BYTE		        Cn3   v020
	BYTE	W02
	BYTE		        Cn3   v016
	BYTE	W02
	BYTE		N02
	BYTE	W02
	BYTE		N02
	BYTE	W80
	BYTE	W96
	BYTE		VOL     80*seq_002_mvl/mxv
	BYTE		PAN     c_v+36
	BYTE	W96
	BYTE		N92     Gn2   v052
	BYTE	W96
	BYTE		N92
	BYTE	W96
	BYTE		N92
	BYTE	W14
	BYTE		VOL     78*seq_002_mvl/mxv
	BYTE	W01
	BYTE		        77*seq_002_mvl/mxv
	BYTE	W01
	BYTE		        76*seq_002_mvl/mxv
	BYTE	W01
	BYTE		        76*seq_002_mvl/mxv
	BYTE	W01
	BYTE		        75*seq_002_mvl/mxv
	BYTE	W02
	BYTE		        74*seq_002_mvl/mxv
	BYTE	W02
	BYTE		        72*seq_002_mvl/mxv
	BYTE	W02
	BYTE		        72*seq_002_mvl/mxv
	BYTE	W01
	BYTE		        71*seq_002_mvl/mxv
	BYTE	W02
	BYTE		        70*seq_002_mvl/mxv
	BYTE	W02
	BYTE		        69*seq_002_mvl/mxv
	BYTE	W01
	BYTE		        68*seq_002_mvl/mxv
	BYTE	W01
	BYTE		        68*seq_002_mvl/mxv
	BYTE	W01
	BYTE		        67*seq_002_mvl/mxv
	BYTE	W01
	BYTE		        66*seq_002_mvl/mxv
	BYTE	W01
	BYTE		        66*seq_002_mvl/mxv
	BYTE	W01
	BYTE		        65*seq_002_mvl/mxv
	BYTE	W01
	BYTE		        64*seq_002_mvl/mxv
	BYTE	W01
	BYTE		        64*seq_002_mvl/mxv
	BYTE	W01
	BYTE		        63*seq_002_mvl/mxv
	BYTE	W01
	BYTE		        62*seq_002_mvl/mxv
	BYTE	W01
	BYTE		        62*seq_002_mvl/mxv
	BYTE	W01
	BYTE		        61*seq_002_mvl/mxv
	BYTE	W02
	BYTE		        60*seq_002_mvl/mxv
	BYTE	W02
	BYTE		        58*seq_002_mvl/mxv
	BYTE	W02
	BYTE		        58*seq_002_mvl/mxv
	BYTE	W01
	BYTE		        56*seq_002_mvl/mxv
	BYTE	W02
	BYTE		        55*seq_002_mvl/mxv
	BYTE	W02
	BYTE		        54*seq_002_mvl/mxv
	BYTE	W01
	BYTE		        54*seq_002_mvl/mxv
	BYTE	W01
	BYTE		        53*seq_002_mvl/mxv
	BYTE	W01
	BYTE		        52*seq_002_mvl/mxv
	BYTE	W01
	BYTE		        52*seq_002_mvl/mxv
	BYTE	W01
	BYTE		        51*seq_002_mvl/mxv
	BYTE	W01
	BYTE		        50*seq_002_mvl/mxv
	BYTE	W01
	BYTE		        50*seq_002_mvl/mxv
	BYTE	W01
	BYTE		        49*seq_002_mvl/mxv
	BYTE	W01
	BYTE		        48*seq_002_mvl/mxv
	BYTE	W01
	BYTE		        48*seq_002_mvl/mxv
	BYTE	W01
	BYTE		        47*seq_002_mvl/mxv
	BYTE	W01
	BYTE		        46*seq_002_mvl/mxv
	BYTE	W02
	BYTE		        45*seq_002_mvl/mxv
	BYTE	W02
	BYTE		        44*seq_002_mvl/mxv
	BYTE	W02
	BYTE		        43*seq_002_mvl/mxv
	BYTE	W01
	BYTE		        42*seq_002_mvl/mxv
	BYTE	W02
	BYTE		        41*seq_002_mvl/mxv
	BYTE	W01
	BYTE		        40*seq_002_mvl/mxv
	BYTE	W01
	BYTE		        40*seq_002_mvl/mxv
	BYTE	W01
	BYTE		        39*seq_002_mvl/mxv
	BYTE	W01
	BYTE		        38*seq_002_mvl/mxv
	BYTE	W01
	BYTE		        38*seq_002_mvl/mxv
	BYTE	W01
	BYTE		        37*seq_002_mvl/mxv
	BYTE	W01
	BYTE		        36*seq_002_mvl/mxv
	BYTE	W01
	BYTE		        36*seq_002_mvl/mxv
	BYTE	W01
	BYTE		        35*seq_002_mvl/mxv
	BYTE	W02
	BYTE		        34*seq_002_mvl/mxv
	BYTE	W01
	BYTE		        34*seq_002_mvl/mxv
	BYTE	W01
	BYTE		        33*seq_002_mvl/mxv
	BYTE	W01
	BYTE		        32*seq_002_mvl/mxv
	BYTE	W02
	BYTE		        31*seq_002_mvl/mxv
	BYTE	W02
	BYTE		        30*seq_002_mvl/mxv
	BYTE	W01
	BYTE		        30*seq_002_mvl/mxv
	BYTE	W04
	BYTE	W01
	BYTE		N92     Gn1   v100
	BYTE	W01
	BYTE		VOICE   48
	BYTE		VOL     40*seq_002_mvl/mxv
	BYTE		PAN     c_v-64
	BYTE		BENDR   3
	BYTE		BEND    c_v+0
	BYTE	W92
	BYTE	W02
	BYTE	W01
	BYTE		N92     Gn1   v100
	BYTE	W92
	BYTE	W03
	BYTE	PEND
	BYTE	PATT
	 POIN2	seq_002_10 + 0x3BB
	BYTE	PATT
	 POIN2	seq_002_10 + 0x3BB
	BYTE	W01
	BYTE		N44     Gn1   v100
	BYTE	W48
	BYTE		N44
	BYTE	W44
	BYTE	W03
	BYTE	PEND
	BYTE	PATT
	 POIN2	seq_002_10 + 0x3CC
	BYTE	W01
	BYTE		N44     As1   v100
	BYTE	W48
	BYTE		        Cn2 
	BYTE	W44
	BYTE	W03
	BYTE	W01
	BYTE		N96     Dn2 
	BYTE	W92
	BYTE	W03
	BYTE	W01
	BYTE		N23     Fn2   v120
	BYTE	W24
	BYTE		        Ds2 
	BYTE	W24
	BYTE		        Dn2 
	BYTE	W24
	BYTE		N24     Cs2 
	BYTE	W23
	BYTE	W01
	BYTE		N92     Cn2   v120
	BYTE	W92
	BYTE	W03
	BYTE	PEND
	BYTE	PATT
	 POIN2	seq_002_10 + 0x3F3
	BYTE	W01
	BYTE		N92     Cn2   v108
	BYTE	W92
	BYTE	W03
	BYTE	PEND
	BYTE	PATT
	 POIN2	seq_002_10 + 0x3FF
	BYTE	W01
	BYTE		TIE     Bn1   v116
	BYTE	W92
	BYTE	W03
	BYTE	W13
	BYTE		VOL     39*seq_002_mvl/mxv
	BYTE	W01
	BYTE		        38*seq_002_mvl/mxv
	BYTE	W01
	BYTE		        37*seq_002_mvl/mxv
	BYTE	W01
	BYTE		        36*seq_002_mvl/mxv
	BYTE	W01
	BYTE		        36*seq_002_mvl/mxv
	BYTE	W01
	BYTE		        34*seq_002_mvl/mxv
	BYTE	W01
	BYTE		        34*seq_002_mvl/mxv
	BYTE	W01
	BYTE		        33*seq_002_mvl/mxv
	BYTE	W01
	BYTE		        32*seq_002_mvl/mxv
	BYTE	W01
	BYTE		        31*seq_002_mvl/mxv
	BYTE	W01
	BYTE		        30*seq_002_mvl/mxv
	BYTE	W01
	BYTE		        29*seq_002_mvl/mxv
	BYTE	W02
	BYTE		        28*seq_002_mvl/mxv
	BYTE	W01
	BYTE		        27*seq_002_mvl/mxv
	BYTE	W01
	BYTE		        26*seq_002_mvl/mxv
	BYTE	W01
	BYTE		        25*seq_002_mvl/mxv
	BYTE	W01
	BYTE		        24*seq_002_mvl/mxv
	BYTE	W01
	BYTE		        24*seq_002_mvl/mxv
	BYTE	W01
	BYTE		        23*seq_002_mvl/mxv
	BYTE	W01
	BYTE		        22*seq_002_mvl/mxv
	BYTE	W01
	BYTE		        21*seq_002_mvl/mxv
	BYTE	W02
	BYTE		        20*seq_002_mvl/mxv
	BYTE	W01
	BYTE		        19*seq_002_mvl/mxv
	BYTE	W02
	BYTE		        18*seq_002_mvl/mxv
	BYTE	W02
	BYTE		        16*seq_002_mvl/mxv
	BYTE	W02
	BYTE		        16*seq_002_mvl/mxv
	BYTE	W01
	BYTE		        15*seq_002_mvl/mxv
	BYTE	W01
	BYTE		        14*seq_002_mvl/mxv
	BYTE	W01
	BYTE		        14*seq_002_mvl/mxv
	BYTE	W02
	BYTE		        13*seq_002_mvl/mxv
	BYTE	W01
	BYTE		        12*seq_002_mvl/mxv
	BYTE	W02
	BYTE		        12*seq_002_mvl/mxv
	BYTE	W01
	BYTE		        11*seq_002_mvl/mxv
	BYTE	W01
	BYTE		        10*seq_002_mvl/mxv
	BYTE	W01
	BYTE		        10*seq_002_mvl/mxv
	BYTE	W02
	BYTE		        9*seq_002_mvl/mxv
	BYTE	W01
	BYTE		        8*seq_002_mvl/mxv
	BYTE	W02
	BYTE		        8*seq_002_mvl/mxv
	BYTE	W02
	BYTE		        7*seq_002_mvl/mxv
	BYTE	W01
	BYTE		        6*seq_002_mvl/mxv
	BYTE	W02
	BYTE		        6*seq_002_mvl/mxv
	BYTE	W02
	BYTE		        5*seq_002_mvl/mxv
	BYTE	W01
	BYTE		        4*seq_002_mvl/mxv
	BYTE	W02
	BYTE		        4*seq_002_mvl/mxv
	BYTE	W02
	BYTE		EOT
	BYTE		VOL     3*seq_002_mvl/mxv
	BYTE	FINE

//*********************** Track 12 ***********************//

seq_002_11:
	BYTE	KEYSH   seq_002_key+0
	BYTE	W03
	BYTE	W96
	BYTE	W96
	BYTE	W96
	BYTE	W96
	BYTE	W96
	BYTE	W96
	BYTE	W96
	BYTE	W96
	BYTE	W48
	BYTE	W02
	BYTE		VOICE   86
	BYTE		VOL     33*seq_002_mvl/mxv
	BYTE		PAN     c_v-64
	BYTE		BEND    c_v+0
	BYTE	W01
	BYTE		TIE     Ds3   v056
	BYTE	W92
	BYTE	W01
	BYTE	W96
	BYTE	W96
	BYTE	W96
	BYTE	W03
	BYTE		EOT
	BYTE		TIE     Gs3 
	BYTE	W92
	BYTE	W01
	BYTE	W96
	BYTE	W96
	BYTE	W96
	BYTE		EOT
	BYTE	W02
	BYTE		N92     Fn2   v100
	BYTE	W92
	BYTE	W02
	BYTE	W02
	BYTE		        Dn2 
	BYTE	W92
	BYTE	W02
	BYTE	W02
	BYTE		N68     Cn2 
	BYTE	W68
	BYTE	W02
	BYTE	W02
	BYTE		        Fn2 
	BYTE	W68
	BYTE	W02
	BYTE	W02
	BYTE		TIE     Ds2 
	BYTE	W68
	BYTE	W02
	BYTE	W72
	BYTE	W24
	BYTE		VOL     33*seq_002_mvl/mxv
	BYTE	W05
	BYTE		        32*seq_002_mvl/mxv
	BYTE	W06
	BYTE		        32*seq_002_mvl/mxv
	BYTE	W05
	BYTE		        31*seq_002_mvl/mxv
	BYTE	W04
	BYTE		        32*seq_002_mvl/mxv
	BYTE	W01
	BYTE		        32*seq_002_mvl/mxv
	BYTE	W08
	BYTE		        31*seq_002_mvl/mxv
	BYTE	W08
	BYTE		        30*seq_002_mvl/mxv
	BYTE	W07
	BYTE		        30*seq_002_mvl/mxv
	BYTE	W04
	BYTE	W04
	BYTE		        29*seq_002_mvl/mxv
	BYTE	W08
	BYTE		        28*seq_002_mvl/mxv
	BYTE	W10
	BYTE		        27*seq_002_mvl/mxv
	BYTE	W08
	BYTE		        27*seq_002_mvl/mxv
	BYTE	W02
	BYTE		        26*seq_002_mvl/mxv
	BYTE	W03
	BYTE		        26*seq_002_mvl/mxv
	BYTE	W03
	BYTE		        25*seq_002_mvl/mxv
	BYTE	W03
	BYTE		        24*seq_002_mvl/mxv
	BYTE	W03
	BYTE		        23*seq_002_mvl/mxv
	BYTE	W02
	BYTE		        22*seq_002_mvl/mxv
	BYTE	W02
	BYTE		        22*seq_002_mvl/mxv
	BYTE	W02
	BYTE		        21*seq_002_mvl/mxv
	BYTE	W02
	BYTE		        20*seq_002_mvl/mxv
	BYTE	W02
	BYTE		        20*seq_002_mvl/mxv
	BYTE	W02
	BYTE		        18*seq_002_mvl/mxv
	BYTE	W02
	BYTE		        18*seq_002_mvl/mxv
	BYTE	W02
	BYTE		        17*seq_002_mvl/mxv
	BYTE	W02
	BYTE		        16*seq_002_mvl/mxv
	BYTE	W01
	BYTE		        16*seq_002_mvl/mxv
	BYTE	W02
	BYTE		        15*seq_002_mvl/mxv
	BYTE	W01
	BYTE		        14*seq_002_mvl/mxv
	BYTE	W02
	BYTE		        13*seq_002_mvl/mxv
	BYTE	W01
	BYTE		        12*seq_002_mvl/mxv
	BYTE	W02
	BYTE		        12*seq_002_mvl/mxv
	BYTE	W01
	BYTE		EOT
	BYTE		VOL     11*seq_002_mvl/mxv
	BYTE	W01
	BYTE		        33*seq_002_mvl/mxv
	BYTE	W01
	BYTE		N44     Fs2   v120
	BYTE	W48
	BYTE		        Fn2 
	BYTE	W44
	BYTE	W02
	BYTE	W02
	BYTE		N48     As2   v120
	BYTE	W48
	BYTE		        Gs2 
	BYTE	W44
	BYTE	W02
	BYTE	PEND
	BYTE	W02
	BYTE		N96     Gn2 
	BYTE	W92
	BYTE	W02
	BYTE	W02
	BYTE		N92     Fs2 
	BYTE	W92
	BYTE	W02
	BYTE	W02
	BYTE		N96     As2 
	BYTE	W92
	BYTE	W02
	BYTE	W02
	BYTE		N72     Cs3 
	BYTE	W72
	BYTE		N24     Cn3 
	BYTE	W22
	BYTE	W02
	BYTE		        As2 
	BYTE	W24
	BYTE		        An2 
	BYTE	W24
	BYTE		        Fn2 
	BYTE	W24
	BYTE		        Ds3 
	BYTE	W22
	BYTE	W02
	BYTE		N12     Cs3 
	BYTE	W12
	BYTE		        Cn3 
	BYTE	W12
	BYTE		        As2 
	BYTE	W12
	BYTE		        Gs2 
	BYTE	W12
	BYTE		N42     Fs2 
	BYTE	W44
	BYTE	W02
	BYTE	W02
	BYTE		N48     Ds2 
	BYTE	W48
	BYTE		        Fn2 
	BYTE	W44
	BYTE	W02
	BYTE	PATT
	 POIN2	seq_002_11 + 0x93
	BYTE	W02
	BYTE		TIE     Fs2   v120
	BYTE	W92
	BYTE	W02
	BYTE	W96
	BYTE	W01
	BYTE		EOT
	BYTE	W92
	BYTE	W03
	BYTE	W96
	BYTE	W96
	BYTE	W96
	BYTE	W96
	BYTE	W96
	BYTE	W96
	BYTE	W96
	BYTE	W96
	BYTE	W03
	BYTE		VOICE   40
	BYTE		VOL     46*seq_002_mvl/mxv
	BYTE		PAN     c_v-64
	BYTE		BENDR   3
	BYTE		BEND    c_v+0
	BYTE	W92
	BYTE	W01
	BYTE	W24
	BYTE	W03
	BYTE		N02     Fn3   v008
	BYTE	W02
	BYTE		        Fn3   v012
	BYTE	W02
	BYTE		        Fn3   v016
	BYTE	W02
	BYTE		        Fn3   v020
	BYTE	W02
	BYTE		        Fn3   v024
	BYTE	W02
	BYTE		        Fn3   v032
	BYTE	W02
	BYTE		        Fn3   v036
	BYTE	W02
	BYTE		        Fn3   v040
	BYTE	W02
	BYTE		        Fn3   v044
	BYTE	W02
	BYTE		        Fn3   v056
	BYTE	W02
	BYTE		        Fn3   v064
	BYTE	W02
	BYTE		        Fn3   v068
	BYTE	W02
	BYTE		        En3   v080
	BYTE	W02
	BYTE		N02
	BYTE	W02
	BYTE		N02
	BYTE	W02
	BYTE		N02
	BYTE	W02
	BYTE		        En3   v076
	BYTE	W02
	BYTE		N02
	BYTE	W02
	BYTE		N02
	BYTE	W02
	BYTE		N02
	BYTE	W02
	BYTE		        En3   v072
	BYTE	W02
	BYTE		N02
	BYTE	W02
	BYTE		N02
	BYTE	W02
	BYTE		N02
	BYTE	W02
	BYTE		N02
	BYTE	W02
	BYTE		        En3   v068
	BYTE	W02
	BYTE		N02
	BYTE	W02
	BYTE		N02
	BYTE	W02
	BYTE		        En3   v064
	BYTE	W02
	BYTE		N02
	BYTE	W02
	BYTE		N02
	BYTE	W02
	BYTE		N02
	BYTE	W02
	BYTE		N02
	BYTE	W02
	BYTE		N02
	BYTE	W02
	BYTE		        En3   v056
	BYTE	W01
	BYTE	W01
	BYTE		        En3   v052
	BYTE	W02
	BYTE		        En3   v044
	BYTE	W02
	BYTE		        En3   v028
	BYTE	W02
	BYTE		        En3   v024
	BYTE	W02
	BYTE		        En3   v020
	BYTE	W02
	BYTE		        En3   v016
	BYTE	W02
	BYTE		        En3   v012
	BYTE	W02
	BYTE		        En3   v016
	BYTE	W02
	BYTE		        En3   v012
	BYTE	W02
	BYTE		N02
	BYTE	W08
	BYTE		        Gs3   v044
	BYTE	W02
	BYTE		        Gs3   v048
	BYTE	W02
	BYTE		        Gs3   v056
	BYTE	W02
	BYTE		        Gs3   v060
	BYTE	W02
	BYTE		        Gs3   v068
	BYTE	W02
	BYTE		        Gs3   v072
	BYTE	W02
	BYTE		        Gs3   v076
	BYTE	W02
	BYTE		        Gs3   v084
	BYTE	W02
	BYTE		        Gs3   v088
	BYTE	W02
	BYTE		        Gs3   v092
	BYTE	W02
	BYTE		        Gs3   v100
	BYTE	W02
	BYTE		        Gs3   v104
	BYTE	W02
	BYTE		        Gn3   v108
	BYTE	W02
	BYTE		        Gn3   v116
	BYTE	W02
	BYTE		        Gn3   v120
	BYTE	W02
	BYTE		        Gn3   v127
	BYTE	W02
	BYTE		N02
	BYTE	W02
	BYTE		N02
	BYTE	W02
	BYTE		N02
	BYTE	W02
	BYTE		N02
	BYTE	W02
	BYTE		N02
	BYTE	W02
	BYTE		N02
	BYTE	W02
	BYTE		N02
	BYTE	W02
	BYTE		        Gn3   v124
	BYTE	W02
	BYTE		        Gn3   v120
	BYTE	W02
	BYTE		        Gn3   v116
	BYTE	W02
	BYTE		        Gn3   v112
	BYTE	W02
	BYTE		        Gn3   v108
	BYTE	W02
	BYTE		        Gn3   v104
	BYTE	W02
	BYTE		        Gn3   v100
	BYTE	W02
	BYTE		        Gn3   v092
	BYTE	W02
	BYTE		        Gn3   v088
	BYTE	W02
	BYTE		        Gn3   v084
	BYTE	W02
	BYTE		        Gn3   v060
	BYTE	W02
	BYTE		        Gn3   v052
	BYTE	W01
	BYTE	W01
	BYTE		        Gn3   v048
	BYTE	W02
	BYTE		        Gn3   v052
	BYTE	W02
	BYTE		        Gn3   v028
	BYTE	W02
	BYTE		        Gn3   v024
	BYTE	W02
	BYTE		        Gn3   v020
	BYTE	W02
	BYTE		        Gn3   v016
	BYTE	W02
	BYTE		        Gn3   v012
	BYTE	W02
	BYTE		        Gn3   v016
	BYTE	W02
	BYTE		        Gn3   v012
	BYTE	W02
	BYTE		N02
	BYTE	W08
	BYTE		        Fn3   v016
	BYTE	W02
	BYTE		        Fn3   v024
	BYTE	W02
	BYTE		        Fn3   v028
	BYTE	W02
	BYTE		        Fn3   v032
	BYTE	W02
	BYTE		        Fn3   v040
	BYTE	W02
	BYTE		        Fn3   v044
	BYTE	W02
	BYTE		        Fn3   v048
	BYTE	W02
	BYTE		        Fn3   v052
	BYTE	W02
	BYTE		        Fn3   v060
	BYTE	W02
	BYTE		        Fn3   v064
	BYTE	W02
	BYTE		        Fn3   v072
	BYTE	W02
	BYTE		        Fn3   v076
	BYTE	W02
	BYTE		        En3 
	BYTE	W02
	BYTE		N02
	BYTE	W02
	BYTE		N02
	BYTE	W02
	BYTE		        En3   v072
	BYTE	W02
	BYTE		N02
	BYTE	W02
	BYTE		N02
	BYTE	W02
	BYTE		N02
	BYTE	W02
	BYTE		N02
	BYTE	W02
	BYTE		N02
	BYTE	W02
	BYTE		N02
	BYTE	W02
	BYTE		N02
	BYTE	W02
	BYTE		        En3   v068
	BYTE	W02
	BYTE		N02
	BYTE	W02
	BYTE		N02
	BYTE	W02
	BYTE		        En3   v064
	BYTE	W02
	BYTE		N02
	BYTE	W02
	BYTE		        En3   v060
	BYTE	W02
	BYTE		N02
	BYTE	W02
	BYTE		        En3   v056
	BYTE	W02
	BYTE		        En3   v052
	BYTE	W02
	BYTE		        En3   v048
	BYTE	W02
	BYTE		N02
	BYTE	W02
	BYTE		        En3   v040
	BYTE	W01
	BYTE	W01
	BYTE		        En3   v036
	BYTE	W02
	BYTE		        En3   v032
	BYTE	W02
	BYTE		        En3   v028
	BYTE	W02
	BYTE		        En3   v024
	BYTE	W02
	BYTE		        En3   v020
	BYTE	W02
	BYTE		        En3   v016
	BYTE	W02
	BYTE		        En3   v012
	BYTE	W02
	BYTE		        En3   v016
	BYTE	W02
	BYTE		        En3   v012
	BYTE	W02
	BYTE		N02
	BYTE	W08
	BYTE		        Gs3   v108
	BYTE	W02
	BYTE		        Gs3   v116
	BYTE	W02
	BYTE		        Gs3   v120
	BYTE	W02
	BYTE		        Gs3   v124
	BYTE	W02
	BYTE		N02
	BYTE	W02
	BYTE		N02
	BYTE	W02
	BYTE		N02
	BYTE	W02
	BYTE		N02
	BYTE	W02
	BYTE		N02
	BYTE	W02
	BYTE		N02
	BYTE	W02
	BYTE		N02
	BYTE	W02
	BYTE		N02
	BYTE	W02
	BYTE		        Gn3 
	BYTE	W02
	BYTE		N02
	BYTE	W02
	BYTE		N02
	BYTE	W02
	BYTE		        Gn3   v120
	BYTE	W02
	BYTE		N02
	BYTE	W02
	BYTE		N02
	BYTE	W02
	BYTE		N02
	BYTE	W02
	BYTE		N02
	BYTE	W02
	BYTE		N02
	BYTE	W02
	BYTE		N02
	BYTE	W02
	BYTE		N02
	BYTE	W02
	BYTE		N02
	BYTE	W02
	BYTE		N02
	BYTE	W02
	BYTE		        Gn3   v116
	BYTE	W02
	BYTE		N02
	BYTE	W02
	BYTE		N02
	BYTE	W02
	BYTE		        Gn3   v112
	BYTE	W02
	BYTE		        Gn3   v108
	BYTE	W02
	BYTE		        Gn3   v104
	BYTE	W02
	BYTE		        Gn3   v100
	BYTE	W02
	BYTE		        Gn3   v092
	BYTE	W02
	BYTE		        Gn3   v084
	BYTE	W02
	BYTE		        Gn3   v076
	BYTE	W01
	BYTE	W01
	BYTE		        Gn3   v072
	BYTE	W02
	BYTE		        Gn3   v052
	BYTE	W02
	BYTE		        Gn3   v028
	BYTE	W02
	BYTE		        Gn3   v024
	BYTE	W02
	BYTE		        Gn3   v020
	BYTE	W02
	BYTE		        Gn3   v016
	BYTE	W02
	BYTE		        Gn3   v012
	BYTE	W02
	BYTE		        Gn3   v016
	BYTE	W02
	BYTE		        Gn3   v012
	BYTE	W02
	BYTE		N02
	BYTE	W76
	BYTE	W01
	BYTE	W96
	BYTE	W02
	BYTE		VOICE   48
	BYTE		VOL     80*seq_002_mvl/mxv
	BYTE		PAN     c_v+63
	BYTE		BENDR   3
	BYTE		BEND    c_v+0
	BYTE	W92
	BYTE	W01
	BYTE		N92     En2   v092
	BYTE	W01
	BYTE	W92
	BYTE	W03
	BYTE		N92     En2   v092
	BYTE	W01
	BYTE	PEND
	BYTE	PATT
	 POIN2	seq_002_11 + 0x2EA
	BYTE	W19
	BYTE		VOL     78*seq_002_mvl/mxv
	BYTE	W01
	BYTE		        78*seq_002_mvl/mxv
	BYTE	W01
	BYTE		        76*seq_002_mvl/mxv
	BYTE	W01
	BYTE		        76*seq_002_mvl/mxv
	BYTE	W01
	BYTE		        75*seq_002_mvl/mxv
	BYTE	W01
	BYTE		        74*seq_002_mvl/mxv
	BYTE	W01
	BYTE		        74*seq_002_mvl/mxv
	BYTE	W01
	BYTE		        72*seq_002_mvl/mxv
	BYTE	W01
	BYTE		        71*seq_002_mvl/mxv
	BYTE	W01
	BYTE		        70*seq_002_mvl/mxv
	BYTE	W01
	BYTE		        70*seq_002_mvl/mxv
	BYTE	W01
	BYTE		        69*seq_002_mvl/mxv
	BYTE	W01
	BYTE		        68*seq_002_mvl/mxv
	BYTE	W01
	BYTE		        67*seq_002_mvl/mxv
	BYTE	W01
	BYTE		        66*seq_002_mvl/mxv
	BYTE	W01
	BYTE		        65*seq_002_mvl/mxv
	BYTE	W01
	BYTE		        64*seq_002_mvl/mxv
	BYTE	W01
	BYTE		        64*seq_002_mvl/mxv
	BYTE	W01
	BYTE		        63*seq_002_mvl/mxv
	BYTE	W01
	BYTE		        61*seq_002_mvl/mxv
	BYTE	W01
	BYTE		        60*seq_002_mvl/mxv
	BYTE	W01
	BYTE		        60*seq_002_mvl/mxv
	BYTE	W01
	BYTE		        59*seq_002_mvl/mxv
	BYTE	W01
	BYTE		        58*seq_002_mvl/mxv
	BYTE	W01
	BYTE		        57*seq_002_mvl/mxv
	BYTE	W01
	BYTE		        56*seq_002_mvl/mxv
	BYTE	W01
	BYTE		        55*seq_002_mvl/mxv
	BYTE	W01
	BYTE		        54*seq_002_mvl/mxv
	BYTE	W01
	BYTE		        54*seq_002_mvl/mxv
	BYTE	W01
	BYTE		        53*seq_002_mvl/mxv
	BYTE	W01
	BYTE		        52*seq_002_mvl/mxv
	BYTE	W01
	BYTE		        50*seq_002_mvl/mxv
	BYTE	W01
	BYTE		        50*seq_002_mvl/mxv
	BYTE	W01
	BYTE		        49*seq_002_mvl/mxv
	BYTE	W01
	BYTE		        48*seq_002_mvl/mxv
	BYTE	W01
	BYTE		        48*seq_002_mvl/mxv
	BYTE	W01
	BYTE		        46*seq_002_mvl/mxv
	BYTE	W01
	BYTE		        45*seq_002_mvl/mxv
	BYTE	W01
	BYTE		        44*seq_002_mvl/mxv
	BYTE	W01
	BYTE		        44*seq_002_mvl/mxv
	BYTE	W01
	BYTE		        43*seq_002_mvl/mxv
	BYTE	W01
	BYTE		        42*seq_002_mvl/mxv
	BYTE	W01
	BYTE		        41*seq_002_mvl/mxv
	BYTE	W01
	BYTE		        40*seq_002_mvl/mxv
	BYTE	W01
	BYTE		        39*seq_002_mvl/mxv
	BYTE	W01
	BYTE		        38*seq_002_mvl/mxv
	BYTE	W01
	BYTE		        38*seq_002_mvl/mxv
	BYTE	W01
	BYTE		        36*seq_002_mvl/mxv
	BYTE	W01
	BYTE		        36*seq_002_mvl/mxv
	BYTE	W01
	BYTE		        34*seq_002_mvl/mxv
	BYTE	W01
	BYTE		        34*seq_002_mvl/mxv
	BYTE	W01
	BYTE		        33*seq_002_mvl/mxv
	BYTE	W01
	BYTE		        32*seq_002_mvl/mxv
	BYTE	W01
	BYTE		        32*seq_002_mvl/mxv
	BYTE	W01
	BYTE		        30*seq_002_mvl/mxv
	BYTE	W01
	BYTE		        29*seq_002_mvl/mxv
	BYTE	W01
	BYTE		        28*seq_002_mvl/mxv
	BYTE	W01
	BYTE		        28*seq_002_mvl/mxv
	BYTE	W01
	BYTE		        27*seq_002_mvl/mxv
	BYTE	W01
	BYTE		        26*seq_002_mvl/mxv
	BYTE	W01
	BYTE		        25*seq_002_mvl/mxv
	BYTE	W01
	BYTE		        24*seq_002_mvl/mxv
	BYTE	W01
	BYTE		        23*seq_002_mvl/mxv
	BYTE	W01
	BYTE		        22*seq_002_mvl/mxv
	BYTE	W01
	BYTE		        22*seq_002_mvl/mxv
	BYTE	W01
	BYTE		        21*seq_002_mvl/mxv
	BYTE	W01
	BYTE		        19*seq_002_mvl/mxv
	BYTE	W01
	BYTE		        18*seq_002_mvl/mxv
	BYTE	W01
	BYTE		        18*seq_002_mvl/mxv
	BYTE	W01
	BYTE		        17*seq_002_mvl/mxv
	BYTE	W01
	BYTE		        16*seq_002_mvl/mxv
	BYTE	W01
	BYTE		        15*seq_002_mvl/mxv
	BYTE	W01
	BYTE		        14*seq_002_mvl/mxv
	BYTE	W01
	BYTE		        13*seq_002_mvl/mxv
	BYTE	W03
	BYTE		        66*seq_002_mvl/mxv
	BYTE	W01
	BYTE		N92     Gn1   v100
	BYTE	W96
	BYTE		N92
	BYTE	W96
	BYTE		N92
	BYTE	W96
	BYTE		N92
	BYTE	W96
	BYTE		N44     Gn1   v100
	BYTE	W48
	BYTE		N44
	BYTE	W48
	BYTE	PEND
	BYTE	PATT
	 POIN2	seq_002_11 + 0x398
	BYTE		N44     As1   v100
	BYTE	W48
	BYTE		        Cn2 
	BYTE	W48
	BYTE		N96     Dn2 
	BYTE	W96
	BYTE		N23     Fn1   v120
	BYTE	W24
	BYTE		        Ds1 
	BYTE	W24
	BYTE		        Dn1 
	BYTE	W24
	BYTE		        Cs1 
	BYTE	W24
	BYTE		N92     Cn1 
	BYTE	W96
	BYTE		N92
	BYTE	W96
	BYTE		        Cn1   v108
	BYTE	W96
	BYTE		N92
	BYTE	W92
	BYTE	W02
	BYTE	FINE

//******************************************************//

	ALIGN 4

seq_002:
	BYTE	12	// NumTrks
	BYTE	0	// NumBlks
	BYTE	seq_002_pri	// Priority
	BYTE	seq_002_rev	// Reverb

	POIN2	seq_002_grp

	POIN2	seq_002_0
	POIN2	seq_002_1
	POIN2	seq_002_2
	POIN2	seq_002_3
	POIN2	seq_002_4
	POIN2	seq_002_5
	POIN2	seq_002_6
	POIN2	seq_002_7
	POIN2	seq_002_8
	POIN2	seq_002_9
	POIN2	seq_002_10
	POIN2	seq_002_11

	
