//Event file generated from Sappy .s format.
// File generated by m4a2s Song-Module
	#include "MPlayDef.event"

	#define	seq_066_grp  bank_000
	#define	seq_066_pri  10
	#define	seq_066_rev  0
	#define	seq_066_mvl  127
	#define	seq_066_key  0

	// .rodata
	//	seq_066
	ALIGN 4

//*********************** Track 01 ***********************//

seq_066_0:
	BYTE	KEYSH   seq_066_key+0
	BYTE	TEMPO   150/2
	BYTE		VOICE   64
	BYTE	W01
	BYTE		VOL     77*seq_066_mvl/mxv
	BYTE	W01
	BYTE		PAN     c_v+0
	BYTE		BEND    c_v+0
	BYTE	W01
	BYTE	TEMPO   84/2
	BYTE	W24
	BYTE		N23     An1   v092
	BYTE	W24
	BYTE		N48     Bn1   v080
	BYTE	W12
	BYTE		VOL     76*seq_066_mvl/mxv
	BYTE	W06
	BYTE		        71*seq_066_mvl/mxv
	BYTE		BEND    c_v+1
	BYTE	W06
	BYTE		VOL     66*seq_066_mvl/mxv
	BYTE	W06
	BYTE		        59*seq_066_mvl/mxv
	BYTE	W06
	BYTE		        48*seq_066_mvl/mxv
	BYTE	W03
	BYTE		        41*seq_066_mvl/mxv
	BYTE	W03
	BYTE		        29*seq_066_mvl/mxv
	BYTE	W03
	BYTE		        20*seq_066_mvl/mxv
	BYTE	W03
	BYTE		BEND    c_v+0
	BYTE	W12
	BYTE		VOL     77*seq_066_mvl/mxv
	BYTE	W12
	BYTE		N23     Cs2   v080
	BYTE	W24
	BYTE		N48     Dn2   v076
	BYTE	W12
	BYTE		VOL     76*seq_066_mvl/mxv
	BYTE	W06
	BYTE		        71*seq_066_mvl/mxv
	BYTE		BEND    c_v+1
	BYTE	W06
	BYTE		VOL     66*seq_066_mvl/mxv
	BYTE	W06
	BYTE		        59*seq_066_mvl/mxv
	BYTE	W06
	BYTE		        48*seq_066_mvl/mxv
	BYTE	W03
	BYTE		        41*seq_066_mvl/mxv
	BYTE	W03
	BYTE		        29*seq_066_mvl/mxv
	BYTE	W03
	BYTE		        20*seq_066_mvl/mxv
	BYTE	W03
	BYTE	PEND
	BYTE		BEND    c_v+0
	BYTE	W12
	BYTE		VOL     77*seq_066_mvl/mxv
	BYTE	W03
	BYTE		BEND    c_v+0
	BYTE	W09
	BYTE		N23     An1   v080
	BYTE	W24
	BYTE		N48     Bn1   v072
	BYTE	W12
	BYTE		VOL     76*seq_066_mvl/mxv
	BYTE	W06
	BYTE		        71*seq_066_mvl/mxv
	BYTE		BEND    c_v+1
	BYTE	W06
	BYTE		VOL     66*seq_066_mvl/mxv
	BYTE	W06
	BYTE		        59*seq_066_mvl/mxv
	BYTE	W06
	BYTE		        48*seq_066_mvl/mxv
	BYTE	W03
	BYTE		        41*seq_066_mvl/mxv
	BYTE	W03
	BYTE		        29*seq_066_mvl/mxv
	BYTE	W03
	BYTE		        20*seq_066_mvl/mxv
	BYTE	W03
	BYTE	PEND
	BYTE		BEND    c_v+0
	BYTE	W12
	BYTE		VOL     77*seq_066_mvl/mxv
	BYTE	W12
	BYTE		N23     Cs2   v076
	BYTE	W24
	BYTE		N24     Dn2   v072
	BYTE	W24
	BYTE		N05     An1   v092
	BYTE	W06
	BYTE		        Bn1   v084
	BYTE	W06
	BYTE		        Cn2   v100
	BYTE	W06
	BYTE		        Dn2   v112
	BYTE	W06
	BYTE		N22     En2   v108
	BYTE	W24
	BYTE		        Gn2   v088
	BYTE	W09
	BYTE		BEND    c_v+1
	BYTE	W15
	BYTE		        c_v+0
	BYTE		N10     Fs2   v100
	BYTE	W12
	BYTE		        En2   v084
	BYTE	W12
	BYTE		        Dn2   v092
	BYTE	W12
	BYTE		        Fs2   v088
	BYTE	W12
	BYTE	PEND
	BYTE		N48     En2   v084
	BYTE	W12
	BYTE		VOL     76*seq_066_mvl/mxv
	BYTE	W06
	BYTE		        71*seq_066_mvl/mxv
	BYTE	W03
	BYTE		BEND    c_v+2
	BYTE	W03
	BYTE		VOL     66*seq_066_mvl/mxv
	BYTE	W06
	BYTE		        59*seq_066_mvl/mxv
	BYTE	W06
	BYTE		        48*seq_066_mvl/mxv
	BYTE	W03
	BYTE		        41*seq_066_mvl/mxv
	BYTE	W03
	BYTE		        29*seq_066_mvl/mxv
	BYTE	W03
	BYTE		        20*seq_066_mvl/mxv
	BYTE	W03
	BYTE		        77*seq_066_mvl/mxv
	BYTE		BEND    c_v+0
	BYTE		N23     An1   v072
	BYTE	W24
	BYTE		N05     An1   v092
	BYTE	W06
	BYTE		        Bn1   v076
	BYTE	W06
	BYTE		        Cn2   v092
	BYTE	W06
	BYTE		        Dn2   v096
	BYTE	W06
	BYTE	PEND
	BYTE		N22     En2   v080
	BYTE	W24
	BYTE		        Gn2   v072
	BYTE	W09
	BYTE		BEND    c_v+1
	BYTE	W15
	BYTE		        c_v+0
	BYTE		N10     Fs2   v092
	BYTE	W12
	BYTE		        En2   v084
	BYTE	W12
	BYTE		        Dn2   v100
	BYTE	W12
	BYTE	TEMPO   80/2
	BYTE		N08     Fs2   v072
	BYTE	W12
	BYTE	TEMPO   84/2
	BYTE		N48     En2   v084
	BYTE	W12
	BYTE		VOL     73*seq_066_mvl/mxv
	BYTE	W06
	BYTE		        70*seq_066_mvl/mxv
	BYTE	W03
	BYTE		BEND    c_v+2
	BYTE	W03
	BYTE		VOL     64*seq_066_mvl/mxv
	BYTE	W03
	BYTE		        57*seq_066_mvl/mxv
	BYTE	W03
	BYTE		        51*seq_066_mvl/mxv
	BYTE	W03
	BYTE		        40*seq_066_mvl/mxv
	BYTE	W03
	BYTE		        33*seq_066_mvl/mxv
	BYTE	W03
	BYTE		        24*seq_066_mvl/mxv
	BYTE	W03
	BYTE		        14*seq_066_mvl/mxv
	BYTE	W03
	BYTE		        5*seq_066_mvl/mxv
	BYTE	W03
	BYTE		BEND    c_v+0
	BYTE	W12
	BYTE		VOL     77*seq_066_mvl/mxv
	BYTE	W36
	BYTE		N22     En2   v116
	BYTE	W24
	BYTE		        Gn2   v096
	BYTE	W09
	BYTE		BEND    c_v+1
	BYTE	W15
	BYTE		        c_v+0
	BYTE		N10     Fs2   v108
	BYTE	W12
	BYTE		        En2   v092
	BYTE	W12
	BYTE		        Dn2   v108
	BYTE	W12
	BYTE		        Fs2   v092
	BYTE	W12
	BYTE	PEND
	BYTE		N44     En2   v104
	BYTE	W12
	BYTE		VOL     76*seq_066_mvl/mxv
	BYTE	W06
	BYTE		        71*seq_066_mvl/mxv
	BYTE	W03
	BYTE		BEND    c_v+2
	BYTE	W03
	BYTE		VOL     66*seq_066_mvl/mxv
	BYTE	W06
	BYTE		        59*seq_066_mvl/mxv
	BYTE	W06
	BYTE		        48*seq_066_mvl/mxv
	BYTE	W03
	BYTE		        41*seq_066_mvl/mxv
	BYTE	W03
	BYTE		        29*seq_066_mvl/mxv
	BYTE	W03
	BYTE		        20*seq_066_mvl/mxv
	BYTE	W03
	BYTE		        77*seq_066_mvl/mxv
	BYTE		BEND    c_v+0
	BYTE		N23     An1   v092
	BYTE	W24
	BYTE		N11     An1   v120
	BYTE	W12
	BYTE		N10     Bn1   v112
	BYTE	W12
	BYTE		N11     Cn2   v108
	BYTE	W12
	BYTE		N10     An1 
	BYTE	W12
	BYTE		N22     En2   v104
	BYTE	W24
	BYTE		        Dn2   v096
	BYTE	W24
	BYTE		N11     Bn1   v088
	BYTE	W12
	BYTE		N10     Gn1   v076
	BYTE	W12
	BYTE		N48     An1   v084
	BYTE	W12
	BYTE		VOL     73*seq_066_mvl/mxv
	BYTE	W06
	BYTE		        70*seq_066_mvl/mxv
	BYTE	W06
	BYTE		        64*seq_066_mvl/mxv
	BYTE	W03
	BYTE		        57*seq_066_mvl/mxv
	BYTE	W03
	BYTE		        51*seq_066_mvl/mxv
	BYTE	W03
	BYTE		        40*seq_066_mvl/mxv
	BYTE	W03
	BYTE		        33*seq_066_mvl/mxv
	BYTE	W03
	BYTE		        24*seq_066_mvl/mxv
	BYTE	W03
	BYTE		        14*seq_066_mvl/mxv
	BYTE	W03
	BYTE		        5*seq_066_mvl/mxv
	BYTE	W15
	BYTE		        77*seq_066_mvl/mxv
	BYTE	W12
	BYTE		N05     An1   v092
	BYTE	W06
	BYTE		        Bn1   v084
	BYTE	W06
	BYTE		        Cn2   v100
	BYTE	W06
	BYTE		        Dn2   v112
	BYTE	W06
	BYTE	PATT
	 POIN2	seq_066_0 + 0x92
	BYTE	PATT
	 POIN2	seq_066_0 + 0xAB
	BYTE		N22     En2   v080
	BYTE	W24
	BYTE		        Gn2   v072
	BYTE	W09
	BYTE		BEND    c_v+1
	BYTE	W15
	BYTE		        c_v+0
	BYTE		N10     Fs2   v092
	BYTE	W12
	BYTE		        En2   v084
	BYTE	W12
	BYTE		        Dn2   v100
	BYTE	W12
	BYTE	TEMPO   80/2
	BYTE		        Fs2   v072
	BYTE	W12
	BYTE	TEMPO   84/2
	BYTE		N48     En2   v092
	BYTE	W12
	BYTE		VOL     73*seq_066_mvl/mxv
	BYTE	W06
	BYTE		        70*seq_066_mvl/mxv
	BYTE	W03
	BYTE		BEND    c_v+2
	BYTE	W03
	BYTE		VOL     64*seq_066_mvl/mxv
	BYTE	W03
	BYTE		        57*seq_066_mvl/mxv
	BYTE	W03
	BYTE		        51*seq_066_mvl/mxv
	BYTE	W03
	BYTE		        40*seq_066_mvl/mxv
	BYTE	W03
	BYTE		        33*seq_066_mvl/mxv
	BYTE	W03
	BYTE		        24*seq_066_mvl/mxv
	BYTE	W03
	BYTE		        14*seq_066_mvl/mxv
	BYTE	W03
	BYTE		        5*seq_066_mvl/mxv
	BYTE	W03
	BYTE		BEND    c_v+0
	BYTE	W12
	BYTE		VOL     77*seq_066_mvl/mxv
	BYTE	W36
	BYTE	PEND
	BYTE	PATT
	 POIN2	seq_066_0 + 0x119
	BYTE		N44     En2   v104
	BYTE	W12
	BYTE		VOL     76*seq_066_mvl/mxv
	BYTE	W06
	BYTE		        71*seq_066_mvl/mxv
	BYTE	W03
	BYTE		BEND    c_v+2
	BYTE	W03
	BYTE		VOL     66*seq_066_mvl/mxv
	BYTE	W06
	BYTE		        59*seq_066_mvl/mxv
	BYTE	W06
	BYTE		        48*seq_066_mvl/mxv
	BYTE	W03
	BYTE		        41*seq_066_mvl/mxv
	BYTE	W03
	BYTE		        29*seq_066_mvl/mxv
	BYTE	W03
	BYTE		        20*seq_066_mvl/mxv
	BYTE	W03
	BYTE		        77*seq_066_mvl/mxv
	BYTE		BEND    c_v+0
	BYTE		N23     An1   v092
	BYTE	W24
	BYTE		N10     An1   v120
	BYTE	W12
	BYTE		        Bn1   v112
	BYTE	W12
	BYTE		N11     Cn2   v108
	BYTE	W12
	BYTE		N10     An1 
	BYTE	W12
	BYTE		N22     En2   v104
	BYTE	W24
	BYTE		        Dn2   v100
	BYTE	W24
	BYTE		N11     Bn1   v092
	BYTE	W12
	BYTE		N10     Gn1   v080
	BYTE	W12
	BYTE		N48     An1   v104
	BYTE	W12
	BYTE		VOL     73*seq_066_mvl/mxv
	BYTE	W06
	BYTE		        70*seq_066_mvl/mxv
	BYTE	W06
	BYTE		        64*seq_066_mvl/mxv
	BYTE	W03
	BYTE		        57*seq_066_mvl/mxv
	BYTE	W03
	BYTE		        51*seq_066_mvl/mxv
	BYTE	W03
	BYTE		        40*seq_066_mvl/mxv
	BYTE	W03
	BYTE		        33*seq_066_mvl/mxv
	BYTE	W03
	BYTE		        24*seq_066_mvl/mxv
	BYTE	W03
	BYTE		        14*seq_066_mvl/mxv
	BYTE	W03
	BYTE		        9*seq_066_mvl/mxv
	BYTE	W01
	BYTE		        3*seq_066_mvl/mxv
	BYTE	W02
	BYTE	TEMPO   70/2
	BYTE	W12
	BYTE		        77*seq_066_mvl/mxv
	BYTE	W12
	BYTE	TEMPO   84/2
	BYTE		N11     An1   v112
	BYTE	W12
	BYTE		        Bn1 
	BYTE	W12
	BYTE		N23     Cs2   v116
	BYTE	W24
	BYTE		        En2   v104
	BYTE	W24
	BYTE		N36     Dn2   v108
	BYTE	W15
	BYTE		VOL     73*seq_066_mvl/mxv
	BYTE		BEND    c_v+1
	BYTE	W06
	BYTE		VOL     70*seq_066_mvl/mxv
	BYTE		BEND    c_v+2
	BYTE	W03
	BYTE		VOL     65*seq_066_mvl/mxv
	BYTE	W03
	BYTE		        57*seq_066_mvl/mxv
	BYTE	W03
	BYTE		        49*seq_066_mvl/mxv
	BYTE	W03
	BYTE		        43*seq_066_mvl/mxv
	BYTE	W03
	BYTE		        77*seq_066_mvl/mxv
	BYTE		BEND    c_v+0
	BYTE		N10     Cs2   v092
	BYTE	W12
	BYTE	PEND
	BYTE		N23     Bn1   v104
	BYTE	W24
	BYTE		N11     An1   v116
	BYTE	W12
	BYTE		        Bn1   v108
	BYTE	W12
	BYTE		N23     Cs2   v084
	BYTE	W24
	BYTE		N10     Cs2   v127
	BYTE	W12
	BYTE		        Dn2   v116
	BYTE	W12
	BYTE	PEND
	BYTE		N22     En2   v127
	BYTE	W24
	BYTE		N10     An2   v104
	BYTE	W12
	BYTE		        Gs2   v096
	BYTE	W12
	BYTE		N36     Fs2   v108
	BYTE	W12
	BYTE		BEND    c_v+2
	BYTE	W03
	BYTE		VOL     73*seq_066_mvl/mxv
	BYTE	W06
	BYTE		        70*seq_066_mvl/mxv
	BYTE	W03
	BYTE		        65*seq_066_mvl/mxv
	BYTE	W03
	BYTE		        57*seq_066_mvl/mxv
	BYTE	W03
	BYTE		        49*seq_066_mvl/mxv
	BYTE	W03
	BYTE		        43*seq_066_mvl/mxv
	BYTE	W03
	BYTE		        77*seq_066_mvl/mxv
	BYTE		BEND    c_v+0
	BYTE		N09     En2   v084
	BYTE	W12
	BYTE		N48     En2   v068
	BYTE	W12
	BYTE		VOL     73*seq_066_mvl/mxv
	BYTE	W06
	BYTE		        70*seq_066_mvl/mxv
	BYTE	W03
	BYTE		BEND    c_v+2
	BYTE	W03
	BYTE		VOL     64*seq_066_mvl/mxv
	BYTE	W03
	BYTE		        57*seq_066_mvl/mxv
	BYTE	W03
	BYTE		        51*seq_066_mvl/mxv
	BYTE	W03
	BYTE		        40*seq_066_mvl/mxv
	BYTE	W03
	BYTE		        33*seq_066_mvl/mxv
	BYTE	W03
	BYTE		        24*seq_066_mvl/mxv
	BYTE	W03
	BYTE		        14*seq_066_mvl/mxv
	BYTE	W03
	BYTE		        5*seq_066_mvl/mxv
	BYTE	W03
	BYTE		BEND    c_v+0
	BYTE	W12
	BYTE		VOL     77*seq_066_mvl/mxv
	BYTE	W36
	BYTE		N10     Fs2   v092
	BYTE	W12
	BYTE		        En2   v080
	BYTE	W12
	BYTE		N22     Fs2 
	BYTE	W09
	BYTE		BEND    c_v+2
	BYTE	W15
	BYTE		        c_v+0
	BYTE		N22     Bn1   v084
	BYTE	W24
	BYTE		N10     Cs2   v108
	BYTE	W12
	BYTE		        Dn2   v112
	BYTE	W12
	BYTE	PEND
	BYTE		N44     En2   v104
	BYTE	W12
	BYTE		VOL     76*seq_066_mvl/mxv
	BYTE	W06
	BYTE		        71*seq_066_mvl/mxv
	BYTE	W03
	BYTE		BEND    c_v+2
	BYTE	W03
	BYTE		VOL     66*seq_066_mvl/mxv
	BYTE	W06
	BYTE		        59*seq_066_mvl/mxv
	BYTE	W06
	BYTE		        48*seq_066_mvl/mxv
	BYTE	W03
	BYTE		        41*seq_066_mvl/mxv
	BYTE	W03
	BYTE		        29*seq_066_mvl/mxv
	BYTE	W03
	BYTE		        20*seq_066_mvl/mxv
	BYTE	W03
	BYTE		        77*seq_066_mvl/mxv
	BYTE		BEND    c_v+0
	BYTE		N44     Cs2   v100
	BYTE	W12
	BYTE		VOL     76*seq_066_mvl/mxv
	BYTE	W06
	BYTE		        71*seq_066_mvl/mxv
	BYTE	W03
	BYTE		BEND    c_v+2
	BYTE	W03
	BYTE		VOL     66*seq_066_mvl/mxv
	BYTE	W06
	BYTE		        59*seq_066_mvl/mxv
	BYTE	W06
	BYTE		        48*seq_066_mvl/mxv
	BYTE	W03
	BYTE		        41*seq_066_mvl/mxv
	BYTE	W03
	BYTE		        29*seq_066_mvl/mxv
	BYTE	W03
	BYTE		        20*seq_066_mvl/mxv
	BYTE	W03
	BYTE	PEND
	BYTE		VOL     77*seq_066_mvl/mxv
	BYTE		BEND    c_v+0
	BYTE		N11     Dn2   v100
	BYTE	W12
	BYTE		        Cs2   v084
	BYTE	W12
	BYTE		        Dn2   v092
	BYTE	W12
	BYTE		N10     An1   v084
	BYTE	W12
	BYTE		N11     Cs2   v088
	BYTE	W12
	BYTE		        Cn2   v076
	BYTE	W12
	BYTE		        Cs2   v084
	BYTE	W12
	BYTE		N10     An1   v072
	BYTE	W12
	BYTE	PEND
	BYTE		N48     Bn1   v076
	BYTE	W12
	BYTE		VOL     73*seq_066_mvl/mxv
	BYTE	W06
	BYTE		        70*seq_066_mvl/mxv
	BYTE		BEND    c_v+2
	BYTE	W06
	BYTE		VOL     64*seq_066_mvl/mxv
	BYTE	W03
	BYTE		        57*seq_066_mvl/mxv
	BYTE	W03
	BYTE		        51*seq_066_mvl/mxv
	BYTE	W03
	BYTE		        40*seq_066_mvl/mxv
	BYTE	W03
	BYTE		        33*seq_066_mvl/mxv
	BYTE	W03
	BYTE		        24*seq_066_mvl/mxv
	BYTE	W03
	BYTE		        14*seq_066_mvl/mxv
	BYTE	W03
	BYTE		        5*seq_066_mvl/mxv
	BYTE	W03
	BYTE		BEND    c_v+0
	BYTE	W12
	BYTE		VOL     77*seq_066_mvl/mxv
	BYTE	W12
	BYTE		N11     An1   v112
	BYTE	W12
	BYTE		        Bn1 
	BYTE	W12
	BYTE	PATT
	 POIN2	seq_066_0 + 0x24C
	BYTE		N23     Bn1   v104
	BYTE	W24
	BYTE		N11     An1   v116
	BYTE	W12
	BYTE		        Bn1   v108
	BYTE	W12
	BYTE		N23     Cs2   v088
	BYTE	W24
	BYTE		N10     Cs2   v127
	BYTE	W12
	BYTE		        Dn2 
	BYTE	W12
	BYTE		N22     En2 
	BYTE	W24
	BYTE		N10     An2   v104
	BYTE	W12
	BYTE		        Gs2   v100
	BYTE	W12
	BYTE		N36     Fs2   v112
	BYTE	W12
	BYTE		BEND    c_v+2
	BYTE	W03
	BYTE		VOL     73*seq_066_mvl/mxv
	BYTE	W06
	BYTE		        70*seq_066_mvl/mxv
	BYTE	W03
	BYTE		        65*seq_066_mvl/mxv
	BYTE	W03
	BYTE		        57*seq_066_mvl/mxv
	BYTE	W03
	BYTE		        49*seq_066_mvl/mxv
	BYTE	W03
	BYTE		        43*seq_066_mvl/mxv
	BYTE	W03
	BYTE		        77*seq_066_mvl/mxv
	BYTE		BEND    c_v+0
	BYTE		N09     En2   v088
	BYTE	W12
	BYTE		N48     En2   v068
	BYTE	W12
	BYTE		VOL     73*seq_066_mvl/mxv
	BYTE	W06
	BYTE		        70*seq_066_mvl/mxv
	BYTE	W03
	BYTE		BEND    c_v+2
	BYTE	W03
	BYTE		VOL     64*seq_066_mvl/mxv
	BYTE	W03
	BYTE		        57*seq_066_mvl/mxv
	BYTE	W03
	BYTE		        51*seq_066_mvl/mxv
	BYTE	W03
	BYTE		        40*seq_066_mvl/mxv
	BYTE	W03
	BYTE		        33*seq_066_mvl/mxv
	BYTE	W03
	BYTE		        24*seq_066_mvl/mxv
	BYTE	W03
	BYTE		        14*seq_066_mvl/mxv
	BYTE	W03
	BYTE		        5*seq_066_mvl/mxv
	BYTE	W03
	BYTE		BEND    c_v+0
	BYTE	W12
	BYTE		VOL     77*seq_066_mvl/mxv
	BYTE	W36
	BYTE		N11     En2   v088
	BYTE	W12
	BYTE		N10     Dn2   v080
	BYTE	W12
	BYTE		N11     Cs2   v092
	BYTE	W12
	BYTE		N10     Bn1   v076
	BYTE	W12
	BYTE		N24     Dn2   v080
	BYTE	W24
	BYTE		N11     Bn1   v108
	BYTE	W12
	BYTE		N10     Cs2   v100
	BYTE	W12
	BYTE	PEND
	BYTE		N11     Dn2   v096
	BYTE	W12
	BYTE		N10     Cs2   v084
	BYTE	W12
	BYTE		N11     Bn1 
	BYTE	W12
	BYTE		N10     An1   v080
	BYTE	W12
	BYTE		N24     Cs2   v088
	BYTE	W24
	BYTE		N11     An1   v112
	BYTE	W12
	BYTE		N10     Bn1 
	BYTE	W12
	BYTE	PEND
	BYTE		N11     Cs2   v108
	BYTE	W12
	BYTE		        Cn2   v100
	BYTE	W12
	BYTE		        Cs2   v127
	BYTE	W12
	BYTE		N10     Fs2   v124
	BYTE	W12
	BYTE		N11     An2   v120
	BYTE	W12
	BYTE		        Gs2   v112
	BYTE	W12
	BYTE		        An2   v120
	BYTE	W12
	BYTE		BEND    c_v+1
	BYTE		N10     Cs3   v124
	BYTE	W12
	BYTE	PEND
	BYTE	TEMPO   82/2
	BYTE		N48     Bn2   v108
	BYTE	W09
	BYTE		BEND    c_v+2
	BYTE	W03
	BYTE		VOL     73*seq_066_mvl/mxv
	BYTE	W03
	BYTE		BEND    c_v+2
	BYTE	W03
	BYTE		VOL     70*seq_066_mvl/mxv
	BYTE	W06
	BYTE		        64*seq_066_mvl/mxv
	BYTE	W03
	BYTE		        57*seq_066_mvl/mxv
	BYTE	W03
	BYTE		        51*seq_066_mvl/mxv
	BYTE	W03
	BYTE		        40*seq_066_mvl/mxv
	BYTE	W03
	BYTE		        33*seq_066_mvl/mxv
	BYTE	W03
	BYTE		        24*seq_066_mvl/mxv
	BYTE	W03
	BYTE		        14*seq_066_mvl/mxv
	BYTE	W03
	BYTE		        5*seq_066_mvl/mxv
	BYTE	W03
	BYTE		BEND    c_v+0
	BYTE	W12
	BYTE		VOL     77*seq_066_mvl/mxv
	BYTE	W12
	BYTE	TEMPO   84/2
	BYTE		N10     Fs2   v068
	BYTE	W12
	BYTE		        Gs2   v060
	BYTE	W12
	BYTE		N44     An2   v076
	BYTE	W12
	BYTE		VOL     76*seq_066_mvl/mxv
	BYTE	W06
	BYTE		        71*seq_066_mvl/mxv
	BYTE		BEND    c_v+1
	BYTE	W06
	BYTE		VOL     66*seq_066_mvl/mxv
	BYTE	W06
	BYTE		        59*seq_066_mvl/mxv
	BYTE	W06
	BYTE		        48*seq_066_mvl/mxv
	BYTE	W03
	BYTE		        41*seq_066_mvl/mxv
	BYTE	W03
	BYTE		        29*seq_066_mvl/mxv
	BYTE	W03
	BYTE		        20*seq_066_mvl/mxv
	BYTE	W03
	BYTE	TEMPO   82/2
	BYTE		        77*seq_066_mvl/mxv
	BYTE		BEND    c_v+0
	BYTE		N44     Gs2   v064
	BYTE	W12
	BYTE		VOL     76*seq_066_mvl/mxv
	BYTE		BEND    c_v+1
	BYTE	W06
	BYTE		VOL     71*seq_066_mvl/mxv
	BYTE	W06
	BYTE		        66*seq_066_mvl/mxv
	BYTE	W06
	BYTE		        59*seq_066_mvl/mxv
	BYTE	W06
	BYTE		        48*seq_066_mvl/mxv
	BYTE	W03
	BYTE		        41*seq_066_mvl/mxv
	BYTE	W03
	BYTE		        29*seq_066_mvl/mxv
	BYTE	W03
	BYTE		        20*seq_066_mvl/mxv
	BYTE	W03
	BYTE	PEND
	BYTE	TEMPO   78/2
	BYTE		VOL     77*seq_066_mvl/mxv
	BYTE		BEND    c_v+0
	BYTE		N44     Fs2   v068
	BYTE	W12
	BYTE		VOL     76*seq_066_mvl/mxv
	BYTE		BEND    c_v+2
	BYTE	W06
	BYTE		VOL     71*seq_066_mvl/mxv
	BYTE	W06
	BYTE		        66*seq_066_mvl/mxv
	BYTE	W06
	BYTE		        59*seq_066_mvl/mxv
	BYTE	W06
	BYTE		        48*seq_066_mvl/mxv
	BYTE	W03
	BYTE		        41*seq_066_mvl/mxv
	BYTE	W03
	BYTE		        29*seq_066_mvl/mxv
	BYTE	W03
	BYTE		        20*seq_066_mvl/mxv
	BYTE	W03
	BYTE	TEMPO   72/2
	BYTE		        77*seq_066_mvl/mxv
	BYTE		BEND    c_v+0
	BYTE		N48     En2   v060
	BYTE	W12
	BYTE		VOL     73*seq_066_mvl/mxv
	BYTE	W06
	BYTE		        70*seq_066_mvl/mxv
	BYTE	W03
	BYTE		BEND    c_v+2
	BYTE	W03
	BYTE		VOL     64*seq_066_mvl/mxv
	BYTE	W03
	BYTE		        57*seq_066_mvl/mxv
	BYTE	W03
	BYTE		        51*seq_066_mvl/mxv
	BYTE	W03
	BYTE		        40*seq_066_mvl/mxv
	BYTE	W03
	BYTE		        33*seq_066_mvl/mxv
	BYTE	W03
	BYTE		        24*seq_066_mvl/mxv
	BYTE	W03
	BYTE		        14*seq_066_mvl/mxv
	BYTE	W03
	BYTE		        5*seq_066_mvl/mxv
	BYTE	W03
	BYTE	PEND
	BYTE	TEMPO   84/2
	BYTE		BEND    c_v+0
	BYTE	W12
	BYTE		VOL     77*seq_066_mvl/mxv
	BYTE	W12
	BYTE		N23     An1   v092
	BYTE	W24
	BYTE		N48     Bn1   v080
	BYTE	W12
	BYTE		VOL     76*seq_066_mvl/mxv
	BYTE	W06
	BYTE		        71*seq_066_mvl/mxv
	BYTE		BEND    c_v+1
	BYTE	W06
	BYTE		VOL     66*seq_066_mvl/mxv
	BYTE	W06
	BYTE		        59*seq_066_mvl/mxv
	BYTE	W06
	BYTE		        48*seq_066_mvl/mxv
	BYTE	W03
	BYTE		        41*seq_066_mvl/mxv
	BYTE	W03
	BYTE		        29*seq_066_mvl/mxv
	BYTE	W03
	BYTE		        20*seq_066_mvl/mxv
	BYTE	W03
	BYTE	PATT
	 POIN2	seq_066_0 + 0x2E
	BYTE	PATT
	 POIN2	seq_066_0 + 0x51
	BYTE		BEND    c_v+0
	BYTE	W12
	BYTE		VOL     77*seq_066_mvl/mxv
	BYTE	W12
	BYTE		N23     Cs2   v076
	BYTE	W24
	BYTE		N24     Dn2   v072
	BYTE	W24
	BYTE		N05     An1   v100
	BYTE	W06
	BYTE		        Bn1   v092
	BYTE	W06
	BYTE		        Cn2   v108
	BYTE	W06
	BYTE		        Dn2   v120
	BYTE	W06
	BYTE		N22     En2   v116
	BYTE	W24
	BYTE		        Gn2   v096
	BYTE	W09
	BYTE		BEND    c_v+1
	BYTE	W15
	BYTE		        c_v+0
	BYTE		N10     Fs2   v108
	BYTE	W12
	BYTE		        En2   v092
	BYTE	W12
	BYTE		        Dn2   v100
	BYTE	W12
	BYTE		        Fs2   v096
	BYTE	W12
	BYTE	PEND
	BYTE		N48     En2   v092
	BYTE	W12
	BYTE		VOL     76*seq_066_mvl/mxv
	BYTE	W06
	BYTE		        71*seq_066_mvl/mxv
	BYTE	W03
	BYTE		BEND    c_v+2
	BYTE	W03
	BYTE		VOL     66*seq_066_mvl/mxv
	BYTE	W06
	BYTE		        59*seq_066_mvl/mxv
	BYTE	W06
	BYTE		        48*seq_066_mvl/mxv
	BYTE	W03
	BYTE		        41*seq_066_mvl/mxv
	BYTE	W03
	BYTE		        29*seq_066_mvl/mxv
	BYTE	W03
	BYTE		        20*seq_066_mvl/mxv
	BYTE	W03
	BYTE		        77*seq_066_mvl/mxv
	BYTE		BEND    c_v+0
	BYTE		N23     An1   v076
	BYTE	W24
	BYTE		N05     An1   v100
	BYTE	W06
	BYTE		        Bn1   v084
	BYTE	W06
	BYTE		        Cn2   v100
	BYTE	W06
	BYTE		        Dn2   v104
	BYTE	W06
	BYTE	PEND
	BYTE		N22     En2   v088
	BYTE	W24
	BYTE		        Gn2   v076
	BYTE	W09
	BYTE		BEND    c_v+1
	BYTE	W15
	BYTE		        c_v+0
	BYTE		N10     Fs2   v100
	BYTE	W12
	BYTE		        En2   v092
	BYTE	W12
	BYTE		        Dn2   v108
	BYTE	W12
	BYTE	TEMPO   80/2
	BYTE		N08     Fs2   v076
	BYTE	W12
	BYTE	PATT
	 POIN2	seq_066_0 + 0x1BC
	BYTE		N22     En2   v127
	BYTE	W24
	BYTE		        Gn2   v104
	BYTE	W09
	BYTE		BEND    c_v+1
	BYTE	W15
	BYTE		        c_v+0
	BYTE		N10     Fs2   v120
	BYTE	W12
	BYTE		        En2   v100
	BYTE	W12
	BYTE		        Dn2   v116
	BYTE	W12
	BYTE		        Fs2   v100
	BYTE	W12
	BYTE	PEND
	BYTE		N44     En2   v112
	BYTE	W12
	BYTE		VOL     76*seq_066_mvl/mxv
	BYTE	W06
	BYTE		        71*seq_066_mvl/mxv
	BYTE	W03
	BYTE		BEND    c_v+2
	BYTE	W03
	BYTE		VOL     66*seq_066_mvl/mxv
	BYTE	W06
	BYTE		        59*seq_066_mvl/mxv
	BYTE	W06
	BYTE		        48*seq_066_mvl/mxv
	BYTE	W03
	BYTE		        41*seq_066_mvl/mxv
	BYTE	W03
	BYTE		        29*seq_066_mvl/mxv
	BYTE	W03
	BYTE		        20*seq_066_mvl/mxv
	BYTE	W03
	BYTE		        77*seq_066_mvl/mxv
	BYTE		BEND    c_v+0
	BYTE		N23     An1   v100
	BYTE	W24
	BYTE		N11     An1   v127
	BYTE	W12
	BYTE		N10     Bn1   v120
	BYTE	W12
	BYTE		N11     Cn2 
	BYTE	W12
	BYTE		N10     An1   v116
	BYTE	W12
	BYTE		N22     En2   v112
	BYTE	W24
	BYTE		        Dn2   v104
	BYTE	W24
	BYTE		N11     Bn1   v096
	BYTE	W12
	BYTE		N10     Gn1   v080
	BYTE	W12
	BYTE		N48     An1   v092
	BYTE	W12
	BYTE		VOL     73*seq_066_mvl/mxv
	BYTE	W06
	BYTE		        70*seq_066_mvl/mxv
	BYTE	W06
	BYTE		        64*seq_066_mvl/mxv
	BYTE	W03
	BYTE		        57*seq_066_mvl/mxv
	BYTE	W03
	BYTE		        51*seq_066_mvl/mxv
	BYTE	W03
	BYTE		        40*seq_066_mvl/mxv
	BYTE	W03
	BYTE		        33*seq_066_mvl/mxv
	BYTE	W03
	BYTE		        24*seq_066_mvl/mxv
	BYTE	W03
	BYTE		        14*seq_066_mvl/mxv
	BYTE	W03
	BYTE		        5*seq_066_mvl/mxv
	BYTE	W03
	BYTE	TEMPO   80/2
	BYTE	W12
	BYTE		        77*seq_066_mvl/mxv
	BYTE	W12
	BYTE	TEMPO   84/2
	BYTE		N05     An1   v100
	BYTE	W06
	BYTE		        Bn1   v092
	BYTE	W06
	BYTE		        Cn2   v108
	BYTE	W06
	BYTE		        Dn2   v120
	BYTE	W06
	BYTE	PATT
	 POIN2	seq_066_0 + 0x515
	BYTE	PATT
	 POIN2	seq_066_0 + 0x52E
	BYTE		N22     En2   v088
	BYTE	W24
	BYTE		        Gn2   v076
	BYTE	W09
	BYTE		BEND    c_v+1
	BYTE	W15
	BYTE		        c_v+0
	BYTE		N10     Fs2   v100
	BYTE	W12
	BYTE		        En2   v092
	BYTE	W12
	BYTE		        Dn2   v108
	BYTE	W12
	BYTE	TEMPO   80/2
	BYTE		        Fs2   v076
	BYTE	W12
	BYTE	TEMPO   84/2
	BYTE		N48     En2   v100
	BYTE	W12
	BYTE		VOL     73*seq_066_mvl/mxv
	BYTE	W06
	BYTE		        70*seq_066_mvl/mxv
	BYTE	W03
	BYTE		BEND    c_v+2
	BYTE	W03
	BYTE		VOL     64*seq_066_mvl/mxv
	BYTE	W03
	BYTE		        57*seq_066_mvl/mxv
	BYTE	W03
	BYTE		        51*seq_066_mvl/mxv
	BYTE	W03
	BYTE		        40*seq_066_mvl/mxv
	BYTE	W03
	BYTE		        33*seq_066_mvl/mxv
	BYTE	W03
	BYTE		        24*seq_066_mvl/mxv
	BYTE	W03
	BYTE		        14*seq_066_mvl/mxv
	BYTE	W03
	BYTE		        5*seq_066_mvl/mxv
	BYTE	W03
	BYTE		BEND    c_v+0
	BYTE	W12
	BYTE		VOL     77*seq_066_mvl/mxv
	BYTE	W36
	BYTE	PATT
	 POIN2	seq_066_0 + 0x57C
	BYTE		N44     En2   v112
	BYTE	W12
	BYTE		VOL     76*seq_066_mvl/mxv
	BYTE	W06
	BYTE		        71*seq_066_mvl/mxv
	BYTE	W03
	BYTE		BEND    c_v+2
	BYTE	W03
	BYTE		VOL     66*seq_066_mvl/mxv
	BYTE	W06
	BYTE		        59*seq_066_mvl/mxv
	BYTE	W06
	BYTE		        48*seq_066_mvl/mxv
	BYTE	W03
	BYTE		        41*seq_066_mvl/mxv
	BYTE	W03
	BYTE		        29*seq_066_mvl/mxv
	BYTE	W03
	BYTE		        20*seq_066_mvl/mxv
	BYTE	W03
	BYTE		        77*seq_066_mvl/mxv
	BYTE		BEND    c_v+0
	BYTE		N23     An1   v100
	BYTE	W24
	BYTE		N10     An1   v127
	BYTE	W12
	BYTE		        Bn1   v120
	BYTE	W12
	BYTE		N11     Cn2 
	BYTE	W12
	BYTE		N10     An1   v116
	BYTE	W12
	BYTE		N22     En2   v112
	BYTE	W24
	BYTE		        Dn2   v108
	BYTE	W24
	BYTE		N11     Bn1   v100
	BYTE	W12
	BYTE		N10     Gn1   v088
	BYTE	W12
	BYTE		N48     An1   v112
	BYTE	W12
	BYTE		VOL     73*seq_066_mvl/mxv
	BYTE	W06
	BYTE		        70*seq_066_mvl/mxv
	BYTE	W06
	BYTE		        64*seq_066_mvl/mxv
	BYTE	W03
	BYTE		        57*seq_066_mvl/mxv
	BYTE	W03
	BYTE		        51*seq_066_mvl/mxv
	BYTE	W03
	BYTE		        40*seq_066_mvl/mxv
	BYTE	W03
	BYTE		        33*seq_066_mvl/mxv
	BYTE	W03
	BYTE		        24*seq_066_mvl/mxv
	BYTE	W03
	BYTE		        14*seq_066_mvl/mxv
	BYTE	W03
	BYTE		        5*seq_066_mvl/mxv
	BYTE	W03
	BYTE	TEMPO   70/2
	BYTE	W12
	BYTE		        77*seq_066_mvl/mxv
	BYTE	W12
	BYTE	TEMPO   84/2
	BYTE		N11
	BYTE	W12
	BYTE		        Bn1 
	BYTE	W12
	BYTE	PATT
	 POIN2	seq_066_0 + 0x24C
	BYTE	PATT
	 POIN2	seq_066_0 + 0x272
	BYTE		N22     En2   v127
	BYTE	W24
	BYTE		N10     An2   v104
	BYTE	W12
	BYTE		        Gs2   v096
	BYTE	W12
	BYTE		N36     Fs2   v108
	BYTE	W12
	BYTE		BEND    c_v+2
	BYTE	W03
	BYTE		VOL     73*seq_066_mvl/mxv
	BYTE	W06
	BYTE		        70*seq_066_mvl/mxv
	BYTE	W03
	BYTE		        65*seq_066_mvl/mxv
	BYTE	W03
	BYTE		        57*seq_066_mvl/mxv
	BYTE	W03
	BYTE		        49*seq_066_mvl/mxv
	BYTE	W03
	BYTE		        43*seq_066_mvl/mxv
	BYTE	W03
	BYTE	TEMPO   78/2
	BYTE		        77*seq_066_mvl/mxv
	BYTE		BEND    c_v+0
	BYTE		N09     En2   v084
	BYTE	W12
	BYTE	TEMPO   84/2
	BYTE		N48     En2   v068
	BYTE	W12
	BYTE		VOL     73*seq_066_mvl/mxv
	BYTE	W06
	BYTE		        70*seq_066_mvl/mxv
	BYTE	W03
	BYTE		BEND    c_v+2
	BYTE	W03
	BYTE		VOL     64*seq_066_mvl/mxv
	BYTE	W03
	BYTE		        57*seq_066_mvl/mxv
	BYTE	W03
	BYTE		        51*seq_066_mvl/mxv
	BYTE	W03
	BYTE		        40*seq_066_mvl/mxv
	BYTE	W03
	BYTE		        33*seq_066_mvl/mxv
	BYTE	W03
	BYTE		        24*seq_066_mvl/mxv
	BYTE	W03
	BYTE		        14*seq_066_mvl/mxv
	BYTE	W03
	BYTE		        5*seq_066_mvl/mxv
	BYTE	W03
	BYTE		BEND    c_v+0
	BYTE	W12
	BYTE		VOL     77*seq_066_mvl/mxv
	BYTE	W36
	BYTE	PEND
	BYTE	PATT
	 POIN2	seq_066_0 + 0x2D2
	BYTE	PATT
	 POIN2	seq_066_0 + 0x2EC
	BYTE	PATT
	 POIN2	seq_066_0 + 0x322
	BYTE	TEMPO   80/2
	BYTE		N48     Bn1   v076
	BYTE	W12
	BYTE		VOL     73*seq_066_mvl/mxv
	BYTE	W06
	BYTE		        70*seq_066_mvl/mxv
	BYTE		BEND    c_v+2
	BYTE	W06
	BYTE		VOL     64*seq_066_mvl/mxv
	BYTE	W03
	BYTE		        57*seq_066_mvl/mxv
	BYTE	W03
	BYTE		        51*seq_066_mvl/mxv
	BYTE	W03
	BYTE		        40*seq_066_mvl/mxv
	BYTE	W03
	BYTE		        33*seq_066_mvl/mxv
	BYTE	W03
	BYTE		        24*seq_066_mvl/mxv
	BYTE	W03
	BYTE		        14*seq_066_mvl/mxv
	BYTE	W03
	BYTE		        5*seq_066_mvl/mxv
	BYTE	W03
	BYTE		BEND    c_v+0
	BYTE	W12
	BYTE		VOL     77*seq_066_mvl/mxv
	BYTE	W12
	BYTE	TEMPO   84/2
	BYTE		N11     An1   v112
	BYTE	W12
	BYTE		        Bn1 
	BYTE	W12
	BYTE	PATT
	 POIN2	seq_066_0 + 0x24C
	BYTE		N23     Bn1   v104
	BYTE	W24
	BYTE		N11     An1   v112
	BYTE	W12
	BYTE		        Bn1   v104
	BYTE	W12
	BYTE		N23     Cs2   v088
	BYTE	W24
	BYTE		N10     Cs2   v127
	BYTE	W12
	BYTE		        Dn2 
	BYTE	W12
	BYTE		N22     En2 
	BYTE	W24
	BYTE		N10     An2   v104
	BYTE	W12
	BYTE		        Gs2   v100
	BYTE	W12
	BYTE		N36     Fs2   v096
	BYTE	W12
	BYTE		BEND    c_v+2
	BYTE	W03
	BYTE		VOL     73*seq_066_mvl/mxv
	BYTE	W06
	BYTE		        70*seq_066_mvl/mxv
	BYTE	W03
	BYTE		        65*seq_066_mvl/mxv
	BYTE	W03
	BYTE		        57*seq_066_mvl/mxv
	BYTE	W03
	BYTE		        49*seq_066_mvl/mxv
	BYTE	W03
	BYTE		        43*seq_066_mvl/mxv
	BYTE	W03
	BYTE	TEMPO   78/2
	BYTE		        77*seq_066_mvl/mxv
	BYTE		BEND    c_v+0
	BYTE		N09     En2   v088
	BYTE	W12
	BYTE	PATT
	 POIN2	seq_066_0 + 0x6E1
	BYTE	PATT
	 POIN2	seq_066_0 + 0x3CD
	BYTE	PATT
	 POIN2	seq_066_0 + 0x3EA
	BYTE	PATT
	 POIN2	seq_066_0 + 0x405
	BYTE		N48     Bn2   v108
	BYTE	W09
	BYTE		BEND    c_v+2
	BYTE	W03
	BYTE		VOL     73*seq_066_mvl/mxv
	BYTE	W03
	BYTE		BEND    c_v+2
	BYTE	W03
	BYTE		VOL     70*seq_066_mvl/mxv
	BYTE	W06
	BYTE		        64*seq_066_mvl/mxv
	BYTE	W03
	BYTE		        57*seq_066_mvl/mxv
	BYTE	W03
	BYTE		        51*seq_066_mvl/mxv
	BYTE	W03
	BYTE		        40*seq_066_mvl/mxv
	BYTE	W03
	BYTE		        33*seq_066_mvl/mxv
	BYTE	W03
	BYTE		        24*seq_066_mvl/mxv
	BYTE	W03
	BYTE		        14*seq_066_mvl/mxv
	BYTE	W03
	BYTE		        5*seq_066_mvl/mxv
	BYTE	W03
	BYTE		BEND    c_v+0
	BYTE	W12
	BYTE		VOL     77*seq_066_mvl/mxv
	BYTE	W12
	BYTE		N10     Fs2   v068
	BYTE	W12
	BYTE		        Gs2   v060
	BYTE	W12
	BYTE	PATT
	 POIN2	seq_066_0 + 0x455
	BYTE	PATT
	 POIN2	seq_066_0 + 0x48B
	BYTE	GoTo
	 POIN2	seq_066_0 + 0x4CC
	BYTE	TEMPO   84/2
	BYTE		BEND    c_v+0
	BYTE	W07
	BYTE	FINE

//*********************** Track 02 ***********************//

seq_066_1:
	BYTE	KEYSH   seq_066_key+0
	BYTE		VOICE   64
	BYTE	W01
	BYTE		VOL     77*seq_066_mvl/mxv
	BYTE	W01
	BYTE		PAN     c_v+6
	BYTE		BEND    c_v+0
	BYTE	W01
	BYTE	W21
	BYTE		N23     En1   v076
	BYTE	W24
	BYTE		N48     Fs1   v068
	BYTE	W12
	BYTE		VOL     76*seq_066_mvl/mxv
	BYTE	W06
	BYTE		        71*seq_066_mvl/mxv
	BYTE	W06
	BYTE		        66*seq_066_mvl/mxv
	BYTE	W06
	BYTE		        59*seq_066_mvl/mxv
	BYTE	W06
	BYTE		        48*seq_066_mvl/mxv
	BYTE	W03
	BYTE		        41*seq_066_mvl/mxv
	BYTE	W03
	BYTE		        29*seq_066_mvl/mxv
	BYTE	W03
	BYTE		        20*seq_066_mvl/mxv
	BYTE	W06
	BYTE	W09
	BYTE		        77*seq_066_mvl/mxv
	BYTE	W12
	BYTE		N23     An1   v056
	BYTE	W24
	BYTE		N48     Bn1   v052
	BYTE	W12
	BYTE		VOL     76*seq_066_mvl/mxv
	BYTE	W03
	BYTE		BEND    c_v+3
	BYTE	W03
	BYTE		VOL     71*seq_066_mvl/mxv
	BYTE	W06
	BYTE		        66*seq_066_mvl/mxv
	BYTE	W06
	BYTE		        59*seq_066_mvl/mxv
	BYTE	W06
	BYTE		        48*seq_066_mvl/mxv
	BYTE	W03
	BYTE		        41*seq_066_mvl/mxv
	BYTE	W03
	BYTE		        29*seq_066_mvl/mxv
	BYTE	W03
	BYTE		        20*seq_066_mvl/mxv
	BYTE	W06
	BYTE		BEND    c_v+0
	BYTE	W09
	BYTE		VOL     77*seq_066_mvl/mxv
	BYTE	W12
	BYTE		N23     En1   v056
	BYTE	W24
	BYTE		N48     Fs1   v052
	BYTE	W12
	BYTE		VOL     76*seq_066_mvl/mxv
	BYTE	W06
	BYTE		        71*seq_066_mvl/mxv
	BYTE	W06
	BYTE		        66*seq_066_mvl/mxv
	BYTE	W06
	BYTE		        59*seq_066_mvl/mxv
	BYTE	W06
	BYTE		        48*seq_066_mvl/mxv
	BYTE	W03
	BYTE		        41*seq_066_mvl/mxv
	BYTE	W03
	BYTE		        29*seq_066_mvl/mxv
	BYTE	W03
	BYTE		        20*seq_066_mvl/mxv
	BYTE	W06
	BYTE	W09
	BYTE		VOL     77*seq_066_mvl/mxv
	BYTE	W12
	BYTE		N23     An1   v048
	BYTE	W24
	BYTE		N48     Bn1   v044
	BYTE	W12
	BYTE		VOL     76*seq_066_mvl/mxv
	BYTE	W03
	BYTE		BEND    c_v+3
	BYTE	W03
	BYTE		VOL     71*seq_066_mvl/mxv
	BYTE	W06
	BYTE		        66*seq_066_mvl/mxv
	BYTE	W06
	BYTE		        59*seq_066_mvl/mxv
	BYTE	W06
	BYTE		        48*seq_066_mvl/mxv
	BYTE	W03
	BYTE		        41*seq_066_mvl/mxv
	BYTE	W03
	BYTE		        29*seq_066_mvl/mxv
	BYTE	W03
	BYTE		        20*seq_066_mvl/mxv
	BYTE	W06
	BYTE	PEND
	BYTE		BEND    c_v+0
	BYTE	W09
	BYTE		VOL     77*seq_066_mvl/mxv
	BYTE	W15
	BYTE		N22     Cn2   v064
	BYTE	W24
	BYTE		N44     An1   v060
	BYTE	W12
	BYTE		VOL     76*seq_066_mvl/mxv
	BYTE	W06
	BYTE		        71*seq_066_mvl/mxv
	BYTE		BEND    c_v+2
	BYTE	W06
	BYTE		VOL     66*seq_066_mvl/mxv
	BYTE	W06
	BYTE		        59*seq_066_mvl/mxv
	BYTE	W06
	BYTE		        48*seq_066_mvl/mxv
	BYTE	W03
	BYTE		        41*seq_066_mvl/mxv
	BYTE	W03
	BYTE		        29*seq_066_mvl/mxv
	BYTE	W03
	BYTE		        20*seq_066_mvl/mxv
	BYTE	W03
	BYTE		BEND    c_v+0
	BYTE	W12
	BYTE		VOL     77*seq_066_mvl/mxv
	BYTE	W12
	BYTE		N22     Gn1   v064
	BYTE	W24
	BYTE		N44     Fs1   v052
	BYTE	W12
	BYTE		VOL     76*seq_066_mvl/mxv
	BYTE	W06
	BYTE		        71*seq_066_mvl/mxv
	BYTE	W06
	BYTE		        66*seq_066_mvl/mxv
	BYTE	W06
	BYTE		        59*seq_066_mvl/mxv
	BYTE	W06
	BYTE		        48*seq_066_mvl/mxv
	BYTE	W03
	BYTE		        41*seq_066_mvl/mxv
	BYTE	W03
	BYTE		        29*seq_066_mvl/mxv
	BYTE	W03
	BYTE		        20*seq_066_mvl/mxv
	BYTE	W03
	BYTE	W12
	BYTE		VOL     77*seq_066_mvl/mxv
	BYTE	W12
	BYTE		N22     Cn2   v060
	BYTE	W24
	BYTE		N40     An1   v056
	BYTE	W12
	BYTE		VOL     76*seq_066_mvl/mxv
	BYTE	W06
	BYTE		        71*seq_066_mvl/mxv
	BYTE		BEND    c_v+2
	BYTE	W06
	BYTE		VOL     66*seq_066_mvl/mxv
	BYTE	W06
	BYTE		        59*seq_066_mvl/mxv
	BYTE	W06
	BYTE		        48*seq_066_mvl/mxv
	BYTE	W03
	BYTE		        41*seq_066_mvl/mxv
	BYTE	W03
	BYTE		        29*seq_066_mvl/mxv
	BYTE	W03
	BYTE		        77*seq_066_mvl/mxv
	BYTE		N24     Bn1   v064
	BYTE	W03
	BYTE	PEND
	BYTE		BEND    c_v+0
	BYTE	W24
	BYTE		N11     Gs1   v060
	BYTE	W12
	BYTE		        An1   v044
	BYTE	W12
	BYTE		N44     Bn1   v040
	BYTE	W12
	BYTE		VOL     73*seq_066_mvl/mxv
	BYTE		BEND    c_v+3
	BYTE	W06
	BYTE		VOL     70*seq_066_mvl/mxv
	BYTE	W06
	BYTE		        64*seq_066_mvl/mxv
	BYTE	W03
	BYTE		        57*seq_066_mvl/mxv
	BYTE	W03
	BYTE		        51*seq_066_mvl/mxv
	BYTE	W03
	BYTE		        40*seq_066_mvl/mxv
	BYTE	W03
	BYTE		        33*seq_066_mvl/mxv
	BYTE	W03
	BYTE		        24*seq_066_mvl/mxv
	BYTE	W03
	BYTE		        14*seq_066_mvl/mxv
	BYTE	W06
	BYTE	PEND
	BYTE		BEND    c_v+0
	BYTE	W12
	BYTE		VOL     77*seq_066_mvl/mxv
	BYTE	W12
	BYTE		N22     Cn2   v072
	BYTE	W24
	BYTE		N44     An1   v060
	BYTE	W12
	BYTE		VOL     76*seq_066_mvl/mxv
	BYTE	W06
	BYTE		        71*seq_066_mvl/mxv
	BYTE		BEND    c_v+2
	BYTE	W06
	BYTE		VOL     66*seq_066_mvl/mxv
	BYTE	W06
	BYTE		        59*seq_066_mvl/mxv
	BYTE	W06
	BYTE		        48*seq_066_mvl/mxv
	BYTE	W03
	BYTE		        41*seq_066_mvl/mxv
	BYTE	W03
	BYTE		        29*seq_066_mvl/mxv
	BYTE	W03
	BYTE		        20*seq_066_mvl/mxv
	BYTE	W03
	BYTE		        77*seq_066_mvl/mxv
	BYTE		BEND    c_v+0
	BYTE		N44     An1   v068
	BYTE	W12
	BYTE		VOL     76*seq_066_mvl/mxv
	BYTE	W06
	BYTE		        71*seq_066_mvl/mxv
	BYTE		BEND    c_v+2
	BYTE	W06
	BYTE		VOL     66*seq_066_mvl/mxv
	BYTE	W06
	BYTE		        59*seq_066_mvl/mxv
	BYTE	W06
	BYTE		        48*seq_066_mvl/mxv
	BYTE	W03
	BYTE		        41*seq_066_mvl/mxv
	BYTE	W03
	BYTE		        29*seq_066_mvl/mxv
	BYTE	W03
	BYTE		        20*seq_066_mvl/mxv
	BYTE	W03
	BYTE		        77*seq_066_mvl/mxv
	BYTE		BEND    c_v+0
	BYTE		N44     Fn1   v056
	BYTE	W12
	BYTE		VOL     76*seq_066_mvl/mxv
	BYTE	W06
	BYTE		        71*seq_066_mvl/mxv
	BYTE	W06
	BYTE		        66*seq_066_mvl/mxv
	BYTE	W06
	BYTE		        59*seq_066_mvl/mxv
	BYTE	W06
	BYTE		        48*seq_066_mvl/mxv
	BYTE	W03
	BYTE		        41*seq_066_mvl/mxv
	BYTE	W03
	BYTE		        29*seq_066_mvl/mxv
	BYTE	W03
	BYTE		        20*seq_066_mvl/mxv
	BYTE	W03
	BYTE		        77*seq_066_mvl/mxv
	BYTE		N22     Fn1   v068
	BYTE	W24
	BYTE		        Cn2   v048
	BYTE	W24
	BYTE		        Gn1   v056
	BYTE	W24
	BYTE		N19     En1 
	BYTE	W22
	BYTE		N48     En1   v064
	BYTE	W02
	BYTE	W12
	BYTE		VOL     73*seq_066_mvl/mxv
	BYTE	W06
	BYTE		        70*seq_066_mvl/mxv
	BYTE	W06
	BYTE		        64*seq_066_mvl/mxv
	BYTE	W03
	BYTE		        57*seq_066_mvl/mxv
	BYTE	W03
	BYTE		        51*seq_066_mvl/mxv
	BYTE	W03
	BYTE		        40*seq_066_mvl/mxv
	BYTE	W03
	BYTE		        33*seq_066_mvl/mxv
	BYTE	W03
	BYTE		        24*seq_066_mvl/mxv
	BYTE	W03
	BYTE		        14*seq_066_mvl/mxv
	BYTE	W03
	BYTE		        5*seq_066_mvl/mxv
	BYTE	W15
	BYTE		        77*seq_066_mvl/mxv
	BYTE	W36
	BYTE	W24
	BYTE		N22     Cn2   v064
	BYTE	W24
	BYTE		N44     An1   v060
	BYTE	W12
	BYTE		VOL     76*seq_066_mvl/mxv
	BYTE	W06
	BYTE		        71*seq_066_mvl/mxv
	BYTE		BEND    c_v+2
	BYTE	W06
	BYTE		VOL     66*seq_066_mvl/mxv
	BYTE	W06
	BYTE		        59*seq_066_mvl/mxv
	BYTE	W06
	BYTE		        48*seq_066_mvl/mxv
	BYTE	W03
	BYTE		        41*seq_066_mvl/mxv
	BYTE	W03
	BYTE		        29*seq_066_mvl/mxv
	BYTE	W03
	BYTE		        20*seq_066_mvl/mxv
	BYTE	W03
	BYTE	PEND
	BYTE		BEND    c_v+0
	BYTE	W12
	BYTE		VOL     77*seq_066_mvl/mxv
	BYTE	W12
	BYTE		N22     Gn1   v064
	BYTE	W24
	BYTE		N44     Fs1   v056
	BYTE	W12
	BYTE		VOL     76*seq_066_mvl/mxv
	BYTE	W06
	BYTE		        71*seq_066_mvl/mxv
	BYTE	W06
	BYTE		        66*seq_066_mvl/mxv
	BYTE	W06
	BYTE		        59*seq_066_mvl/mxv
	BYTE	W06
	BYTE		        48*seq_066_mvl/mxv
	BYTE	W03
	BYTE		        41*seq_066_mvl/mxv
	BYTE	W03
	BYTE		        29*seq_066_mvl/mxv
	BYTE	W03
	BYTE		        20*seq_066_mvl/mxv
	BYTE	W03
	BYTE	PATT
	 POIN2	seq_066_1 + 0xC9
	BYTE	PATT
	 POIN2	seq_066_1 + 0xED
	BYTE		BEND    c_v+0
	BYTE	W12
	BYTE		VOL     77*seq_066_mvl/mxv
	BYTE	W12
	BYTE		N22     Cn2   v076
	BYTE	W24
	BYTE		VOL     77*seq_066_mvl/mxv
	BYTE		N44     An1   v060
	BYTE	W12
	BYTE		VOL     76*seq_066_mvl/mxv
	BYTE	W06
	BYTE		        71*seq_066_mvl/mxv
	BYTE		BEND    c_v+2
	BYTE	W06
	BYTE		VOL     66*seq_066_mvl/mxv
	BYTE	W06
	BYTE		        59*seq_066_mvl/mxv
	BYTE	W06
	BYTE		        48*seq_066_mvl/mxv
	BYTE	W03
	BYTE		        41*seq_066_mvl/mxv
	BYTE	W03
	BYTE		        29*seq_066_mvl/mxv
	BYTE	W03
	BYTE		        20*seq_066_mvl/mxv
	BYTE	W03
	BYTE		        77*seq_066_mvl/mxv
	BYTE		BEND    c_v+0
	BYTE		N44     An1   v064
	BYTE	W12
	BYTE		VOL     76*seq_066_mvl/mxv
	BYTE	W06
	BYTE		        71*seq_066_mvl/mxv
	BYTE		BEND    c_v+2
	BYTE	W06
	BYTE		VOL     66*seq_066_mvl/mxv
	BYTE	W06
	BYTE		        59*seq_066_mvl/mxv
	BYTE	W06
	BYTE		        48*seq_066_mvl/mxv
	BYTE	W03
	BYTE		        41*seq_066_mvl/mxv
	BYTE	W03
	BYTE		        29*seq_066_mvl/mxv
	BYTE	W03
	BYTE		        20*seq_066_mvl/mxv
	BYTE	W03
	BYTE		        77*seq_066_mvl/mxv
	BYTE		BEND    c_v+0
	BYTE		N44     Fn1   v056
	BYTE	W12
	BYTE		VOL     76*seq_066_mvl/mxv
	BYTE	W06
	BYTE		        71*seq_066_mvl/mxv
	BYTE	W06
	BYTE		        66*seq_066_mvl/mxv
	BYTE	W06
	BYTE		        59*seq_066_mvl/mxv
	BYTE	W06
	BYTE		        48*seq_066_mvl/mxv
	BYTE	W03
	BYTE		        41*seq_066_mvl/mxv
	BYTE	W03
	BYTE		        29*seq_066_mvl/mxv
	BYTE	W03
	BYTE		        20*seq_066_mvl/mxv
	BYTE	W03
	BYTE		        77*seq_066_mvl/mxv
	BYTE		N22     Fn1   v068
	BYTE	W24
	BYTE		        Cn2   v052
	BYTE	W24
	BYTE		        Gn1   v064
	BYTE	W24
	BYTE		N19     En1   v068
	BYTE	W21
	BYTE		N48     Fn1   v088
	BYTE	W03
	BYTE	W12
	BYTE		VOL     73*seq_066_mvl/mxv
	BYTE	W06
	BYTE		        70*seq_066_mvl/mxv
	BYTE	W06
	BYTE		        64*seq_066_mvl/mxv
	BYTE	W03
	BYTE		        57*seq_066_mvl/mxv
	BYTE	W03
	BYTE		        51*seq_066_mvl/mxv
	BYTE	W03
	BYTE		        40*seq_066_mvl/mxv
	BYTE	W03
	BYTE		        33*seq_066_mvl/mxv
	BYTE	W03
	BYTE		        24*seq_066_mvl/mxv
	BYTE	W03
	BYTE		        14*seq_066_mvl/mxv
	BYTE	W03
	BYTE		        5*seq_066_mvl/mxv
	BYTE	W15
	BYTE		        77*seq_066_mvl/mxv
	BYTE	W32
	BYTE	W01
	BYTE		N23     An1   v076
	BYTE	W03
	BYTE	W21
	BYTE		N24     Bn1   v076
	BYTE	W24
	BYTE		N48     Fs1 
	BYTE	W15
	BYTE		VOL     76*seq_066_mvl/mxv
	BYTE	W06
	BYTE		        71*seq_066_mvl/mxv
	BYTE	W06
	BYTE		        66*seq_066_mvl/mxv
	BYTE	W06
	BYTE		        59*seq_066_mvl/mxv
	BYTE	W06
	BYTE		        48*seq_066_mvl/mxv
	BYTE	W03
	BYTE		        41*seq_066_mvl/mxv
	BYTE	W03
	BYTE		        29*seq_066_mvl/mxv
	BYTE	W03
	BYTE		        20*seq_066_mvl/mxv
	BYTE	W03
	BYTE	PEND
	BYTE		VOL     77*seq_066_mvl/mxv
	BYTE		N23     En1   v076
	BYTE	W24
	BYTE		N10     Fs1   v092
	BYTE	W12
	BYTE		        Gs1   v084
	BYTE	W12
	BYTE		N44     An1   v068
	BYTE	W12
	BYTE		VOL     73*seq_066_mvl/mxv
	BYTE	W06
	BYTE		        70*seq_066_mvl/mxv
	BYTE		BEND    c_v+2
	BYTE	W06
	BYTE		VOL     64*seq_066_mvl/mxv
	BYTE	W03
	BYTE		        57*seq_066_mvl/mxv
	BYTE	W03
	BYTE		        51*seq_066_mvl/mxv
	BYTE	W03
	BYTE		        40*seq_066_mvl/mxv
	BYTE	W03
	BYTE		        33*seq_066_mvl/mxv
	BYTE	W03
	BYTE		        24*seq_066_mvl/mxv
	BYTE	W03
	BYTE		        14*seq_066_mvl/mxv
	BYTE	W03
	BYTE		        5*seq_066_mvl/mxv
	BYTE	W03
	BYTE	PEND
	BYTE		BEND    c_v+0
	BYTE	W12
	BYTE		VOL     77*seq_066_mvl/mxv
	BYTE	W12
	BYTE		N22     Cs2   v080
	BYTE	W24
	BYTE		N42     Cn2 
	BYTE	W09
	BYTE		BEND    c_v+3
	BYTE	W03
	BYTE		VOL     76*seq_066_mvl/mxv
	BYTE	W06
	BYTE		        71*seq_066_mvl/mxv
	BYTE	W06
	BYTE		        66*seq_066_mvl/mxv
	BYTE	W06
	BYTE		        59*seq_066_mvl/mxv
	BYTE	W06
	BYTE		        48*seq_066_mvl/mxv
	BYTE	W03
	BYTE		        41*seq_066_mvl/mxv
	BYTE	W03
	BYTE		        29*seq_066_mvl/mxv
	BYTE	W03
	BYTE		        77*seq_066_mvl/mxv
	BYTE		BEND    c_v+0
	BYTE	W01
	BYTE		N48     Bn1   v060
	BYTE	W02
	BYTE	W12
	BYTE		VOL     73*seq_066_mvl/mxv
	BYTE		BEND    c_v+3
	BYTE	W06
	BYTE		VOL     70*seq_066_mvl/mxv
	BYTE	W06
	BYTE		        64*seq_066_mvl/mxv
	BYTE	W03
	BYTE		        57*seq_066_mvl/mxv
	BYTE	W03
	BYTE		        51*seq_066_mvl/mxv
	BYTE	W03
	BYTE		        40*seq_066_mvl/mxv
	BYTE	W03
	BYTE		        33*seq_066_mvl/mxv
	BYTE	W03
	BYTE		        24*seq_066_mvl/mxv
	BYTE	W03
	BYTE		        14*seq_066_mvl/mxv
	BYTE	W03
	BYTE		        5*seq_066_mvl/mxv
	BYTE	W03
	BYTE		BEND    c_v+0
	BYTE	W12
	BYTE		VOL     77*seq_066_mvl/mxv
	BYTE	W36
	BYTE	PEND
	BYTE	W24
	BYTE		N22     An1   v064
	BYTE	W24
	BYTE		N44     Gs1   v060
	BYTE	W12
	BYTE		VOL     76*seq_066_mvl/mxv
	BYTE	W06
	BYTE		        71*seq_066_mvl/mxv
	BYTE	W06
	BYTE		        66*seq_066_mvl/mxv
	BYTE	W06
	BYTE		        59*seq_066_mvl/mxv
	BYTE	W06
	BYTE		        48*seq_066_mvl/mxv
	BYTE	W03
	BYTE		        41*seq_066_mvl/mxv
	BYTE	W03
	BYTE		        29*seq_066_mvl/mxv
	BYTE	W03
	BYTE		        20*seq_066_mvl/mxv
	BYTE	W03
	BYTE	PEND
	BYTE		VOL     77*seq_066_mvl/mxv
	BYTE		N44     Cs2   v068
	BYTE	W12
	BYTE		VOL     76*seq_066_mvl/mxv
	BYTE	W03
	BYTE		BEND    c_v+2
	BYTE	W03
	BYTE		VOL     71*seq_066_mvl/mxv
	BYTE	W06
	BYTE		        66*seq_066_mvl/mxv
	BYTE	W06
	BYTE		        59*seq_066_mvl/mxv
	BYTE	W06
	BYTE		        48*seq_066_mvl/mxv
	BYTE	W03
	BYTE		        41*seq_066_mvl/mxv
	BYTE	W03
	BYTE		        29*seq_066_mvl/mxv
	BYTE	W03
	BYTE		        20*seq_066_mvl/mxv
	BYTE	W03
	BYTE		        77*seq_066_mvl/mxv
	BYTE		BEND    c_v+0
	BYTE		N42     As1 
	BYTE	W12
	BYTE		VOL     76*seq_066_mvl/mxv
	BYTE	W06
	BYTE		        71*seq_066_mvl/mxv
	BYTE		BEND    c_v+2
	BYTE	W06
	BYTE		VOL     66*seq_066_mvl/mxv
	BYTE	W06
	BYTE		        59*seq_066_mvl/mxv
	BYTE	W06
	BYTE		        48*seq_066_mvl/mxv
	BYTE	W03
	BYTE		        41*seq_066_mvl/mxv
	BYTE	W03
	BYTE		        29*seq_066_mvl/mxv
	BYTE	W03
	BYTE		        77*seq_066_mvl/mxv
	BYTE		N44     Fs1   v060
	BYTE	W03
	BYTE	PEND
	BYTE		BEND    c_v+0
	BYTE	W09
	BYTE		VOL     76*seq_066_mvl/mxv
	BYTE	W06
	BYTE		        71*seq_066_mvl/mxv
	BYTE	W06
	BYTE		        66*seq_066_mvl/mxv
	BYTE	W06
	BYTE		        59*seq_066_mvl/mxv
	BYTE	W06
	BYTE		        48*seq_066_mvl/mxv
	BYTE	W03
	BYTE		        41*seq_066_mvl/mxv
	BYTE	W03
	BYTE		        29*seq_066_mvl/mxv
	BYTE	W03
	BYTE		        20*seq_066_mvl/mxv
	BYTE	W03
	BYTE		        77*seq_066_mvl/mxv
	BYTE		N44     En1   v052
	BYTE	W12
	BYTE		VOL     76*seq_066_mvl/mxv
	BYTE	W06
	BYTE		        71*seq_066_mvl/mxv
	BYTE	W06
	BYTE		        66*seq_066_mvl/mxv
	BYTE	W06
	BYTE		        59*seq_066_mvl/mxv
	BYTE	W06
	BYTE		        48*seq_066_mvl/mxv
	BYTE	W03
	BYTE		        41*seq_066_mvl/mxv
	BYTE	W03
	BYTE		        29*seq_066_mvl/mxv
	BYTE	W03
	BYTE		        20*seq_066_mvl/mxv
	BYTE	W03
	BYTE		        77*seq_066_mvl/mxv
	BYTE	W01
	BYTE		N48
	BYTE	W02
	BYTE	W12
	BYTE		VOL     73*seq_066_mvl/mxv
	BYTE	W06
	BYTE		        70*seq_066_mvl/mxv
	BYTE	W06
	BYTE		        64*seq_066_mvl/mxv
	BYTE	W03
	BYTE		        57*seq_066_mvl/mxv
	BYTE	W03
	BYTE		        51*seq_066_mvl/mxv
	BYTE	W03
	BYTE		        40*seq_066_mvl/mxv
	BYTE	W03
	BYTE		        33*seq_066_mvl/mxv
	BYTE	W03
	BYTE		        24*seq_066_mvl/mxv
	BYTE	W03
	BYTE		        14*seq_066_mvl/mxv
	BYTE	W03
	BYTE		        5*seq_066_mvl/mxv
	BYTE	W15
	BYTE		        77*seq_066_mvl/mxv
	BYTE	W32
	BYTE	W01
	BYTE		N22     An1   v072
	BYTE	W03
	BYTE	W21
	BYTE		N23     Bn1   v068
	BYTE	W24
	BYTE		N48     Fs1 
	BYTE	W15
	BYTE		VOL     76*seq_066_mvl/mxv
	BYTE	W06
	BYTE		        71*seq_066_mvl/mxv
	BYTE	W06
	BYTE		        66*seq_066_mvl/mxv
	BYTE	W06
	BYTE		        59*seq_066_mvl/mxv
	BYTE	W06
	BYTE		        48*seq_066_mvl/mxv
	BYTE	W03
	BYTE		        41*seq_066_mvl/mxv
	BYTE	W03
	BYTE		        29*seq_066_mvl/mxv
	BYTE	W03
	BYTE		        20*seq_066_mvl/mxv
	BYTE	W03
	BYTE	PEND
	BYTE		        77*seq_066_mvl/mxv
	BYTE		N23     En1   v076
	BYTE	W24
	BYTE		N10     Fs1   v084
	BYTE	W12
	BYTE		        Gs1   v080
	BYTE	W12
	BYTE		N44     An1   v068
	BYTE	W12
	BYTE		VOL     73*seq_066_mvl/mxv
	BYTE	W06
	BYTE		        70*seq_066_mvl/mxv
	BYTE		BEND    c_v+2
	BYTE	W06
	BYTE		VOL     64*seq_066_mvl/mxv
	BYTE	W03
	BYTE		        57*seq_066_mvl/mxv
	BYTE	W03
	BYTE		        51*seq_066_mvl/mxv
	BYTE	W03
	BYTE		        40*seq_066_mvl/mxv
	BYTE	W03
	BYTE		        33*seq_066_mvl/mxv
	BYTE	W03
	BYTE		        24*seq_066_mvl/mxv
	BYTE	W03
	BYTE		        14*seq_066_mvl/mxv
	BYTE	W03
	BYTE		        5*seq_066_mvl/mxv
	BYTE	W03
	BYTE		BEND    c_v+0
	BYTE	W12
	BYTE		VOL     77*seq_066_mvl/mxv
	BYTE	W12
	BYTE		N22     Cs2   v076
	BYTE	W24
	BYTE		N23     Ds2   v088
	BYTE	W24
	BYTE		N18     Bn1   v068
	BYTE	W21
	BYTE		N48     Bn1   v052
	BYTE	W03
	BYTE	PATT
	 POIN2	seq_066_1 + 0x2CA
	BYTE		N22     As1   v064
	BYTE	W24
	BYTE		        Fs1   v060
	BYTE	W24
	BYTE		N44     Fs1   v052
	BYTE	W12
	BYTE		VOL     76*seq_066_mvl/mxv
	BYTE	W06
	BYTE		        71*seq_066_mvl/mxv
	BYTE	W06
	BYTE		        66*seq_066_mvl/mxv
	BYTE	W06
	BYTE		        59*seq_066_mvl/mxv
	BYTE	W06
	BYTE		        48*seq_066_mvl/mxv
	BYTE	W03
	BYTE		        41*seq_066_mvl/mxv
	BYTE	W03
	BYTE		        29*seq_066_mvl/mxv
	BYTE	W03
	BYTE		        20*seq_066_mvl/mxv
	BYTE	W03
	BYTE		        77*seq_066_mvl/mxv
	BYTE		N22     Gs1   v072
	BYTE	W24
	BYTE		        En1   v064
	BYTE	W24
	BYTE		N44     En1   v060
	BYTE	W12
	BYTE		VOL     76*seq_066_mvl/mxv
	BYTE	W06
	BYTE		        71*seq_066_mvl/mxv
	BYTE	W06
	BYTE		        66*seq_066_mvl/mxv
	BYTE	W06
	BYTE		        59*seq_066_mvl/mxv
	BYTE	W06
	BYTE		        48*seq_066_mvl/mxv
	BYTE	W03
	BYTE		        41*seq_066_mvl/mxv
	BYTE	W03
	BYTE		        29*seq_066_mvl/mxv
	BYTE	W03
	BYTE		        20*seq_066_mvl/mxv
	BYTE	W03
	BYTE		VOL     77*seq_066_mvl/mxv
	BYTE		N44     An1   v080
	BYTE	W12
	BYTE		VOL     76*seq_066_mvl/mxv
	BYTE	W06
	BYTE		        71*seq_066_mvl/mxv
	BYTE		BEND    c_v+2
	BYTE	W06
	BYTE		VOL     66*seq_066_mvl/mxv
	BYTE	W06
	BYTE		        59*seq_066_mvl/mxv
	BYTE	W06
	BYTE		        48*seq_066_mvl/mxv
	BYTE	W03
	BYTE		        41*seq_066_mvl/mxv
	BYTE	W03
	BYTE		        29*seq_066_mvl/mxv
	BYTE	W03
	BYTE		        20*seq_066_mvl/mxv
	BYTE	W03
	BYTE		        77*seq_066_mvl/mxv
	BYTE		BEND    c_v+0
	BYTE		N42     Cs2   v088
	BYTE	W12
	BYTE		VOL     76*seq_066_mvl/mxv
	BYTE	W03
	BYTE		BEND    c_v+2
	BYTE	W03
	BYTE		VOL     71*seq_066_mvl/mxv
	BYTE	W06
	BYTE		        66*seq_066_mvl/mxv
	BYTE	W06
	BYTE		        59*seq_066_mvl/mxv
	BYTE	W06
	BYTE		        48*seq_066_mvl/mxv
	BYTE	W03
	BYTE		        41*seq_066_mvl/mxv
	BYTE	W03
	BYTE		        29*seq_066_mvl/mxv
	BYTE	W03
	BYTE		        77*seq_066_mvl/mxv
	BYTE		N48     Fs2   v080
	BYTE	W03
	BYTE	PEND
	BYTE		BEND    c_v+0
	BYTE	W12
	BYTE		VOL     73*seq_066_mvl/mxv
	BYTE	W06
	BYTE		        70*seq_066_mvl/mxv
	BYTE	W06
	BYTE		        64*seq_066_mvl/mxv
	BYTE	W03
	BYTE		        57*seq_066_mvl/mxv
	BYTE	W03
	BYTE		        51*seq_066_mvl/mxv
	BYTE	W03
	BYTE		        40*seq_066_mvl/mxv
	BYTE	W03
	BYTE		        33*seq_066_mvl/mxv
	BYTE	W03
	BYTE		        24*seq_066_mvl/mxv
	BYTE	W03
	BYTE		        14*seq_066_mvl/mxv
	BYTE	W03
	BYTE		        5*seq_066_mvl/mxv
	BYTE	W15
	BYTE		        77*seq_066_mvl/mxv
	BYTE	W32
	BYTE	W01
	BYTE		N44     Fs2   v048
	BYTE	W03
	BYTE	W09
	BYTE		VOL     76*seq_066_mvl/mxv
	BYTE	W06
	BYTE		        71*seq_066_mvl/mxv
	BYTE	W06
	BYTE		        66*seq_066_mvl/mxv
	BYTE	W06
	BYTE		        59*seq_066_mvl/mxv
	BYTE	W06
	BYTE		        48*seq_066_mvl/mxv
	BYTE	W03
	BYTE		        41*seq_066_mvl/mxv
	BYTE	W03
	BYTE		        29*seq_066_mvl/mxv
	BYTE	W03
	BYTE		        20*seq_066_mvl/mxv
	BYTE	W03
	BYTE		        77*seq_066_mvl/mxv
	BYTE		N44     En2   v048
	BYTE	W12
	BYTE		VOL     76*seq_066_mvl/mxv
	BYTE	W03
	BYTE		BEND    c_v+2
	BYTE	W03
	BYTE		VOL     71*seq_066_mvl/mxv
	BYTE	W06
	BYTE		        66*seq_066_mvl/mxv
	BYTE	W06
	BYTE		        59*seq_066_mvl/mxv
	BYTE	W06
	BYTE		        48*seq_066_mvl/mxv
	BYTE	W03
	BYTE		        41*seq_066_mvl/mxv
	BYTE	W03
	BYTE		        29*seq_066_mvl/mxv
	BYTE	W03
	BYTE		        20*seq_066_mvl/mxv
	BYTE	W03
	BYTE		        77*seq_066_mvl/mxv
	BYTE		BEND    c_v+0
	BYTE		N44     Dn2   v044
	BYTE	W03
	BYTE	PEND
	BYTE	W09
	BYTE		VOL     76*seq_066_mvl/mxv
	BYTE	W03
	BYTE		BEND    c_v+2
	BYTE	W03
	BYTE		VOL     71*seq_066_mvl/mxv
	BYTE	W06
	BYTE		        66*seq_066_mvl/mxv
	BYTE	W06
	BYTE		        59*seq_066_mvl/mxv
	BYTE	W06
	BYTE		        48*seq_066_mvl/mxv
	BYTE	W03
	BYTE		        41*seq_066_mvl/mxv
	BYTE	W03
	BYTE		        29*seq_066_mvl/mxv
	BYTE	W03
	BYTE		        20*seq_066_mvl/mxv
	BYTE	W03
	BYTE		        77*seq_066_mvl/mxv
	BYTE		BEND    c_v+0
	BYTE		N48     Bn1   v036
	BYTE	W15
	BYTE		VOL     73*seq_066_mvl/mxv
	BYTE		BEND    c_v+2
	BYTE	W06
	BYTE		VOL     70*seq_066_mvl/mxv
	BYTE	W06
	BYTE		        64*seq_066_mvl/mxv
	BYTE	W03
	BYTE		        57*seq_066_mvl/mxv
	BYTE	W03
	BYTE		        51*seq_066_mvl/mxv
	BYTE	W03
	BYTE		        40*seq_066_mvl/mxv
	BYTE	W03
	BYTE		        33*seq_066_mvl/mxv
	BYTE	W03
	BYTE		        24*seq_066_mvl/mxv
	BYTE	W03
	BYTE		        14*seq_066_mvl/mxv
	BYTE	W03
	BYTE		        5*seq_066_mvl/mxv
	BYTE		BEND    c_v+0
	BYTE	W03
	BYTE	W12
	BYTE		VOL     77*seq_066_mvl/mxv
	BYTE	W09
	BYTE		N23     En1   v076
	BYTE	W24
	BYTE		N48     Fs1   v068
	BYTE	W12
	BYTE		VOL     76*seq_066_mvl/mxv
	BYTE	W06
	BYTE		        71*seq_066_mvl/mxv
	BYTE	W06
	BYTE		        66*seq_066_mvl/mxv
	BYTE	W06
	BYTE		        59*seq_066_mvl/mxv
	BYTE	W06
	BYTE		        48*seq_066_mvl/mxv
	BYTE	W03
	BYTE		        41*seq_066_mvl/mxv
	BYTE	W03
	BYTE		        29*seq_066_mvl/mxv
	BYTE	W03
	BYTE		        20*seq_066_mvl/mxv
	BYTE	W03
	BYTE		PAN     c_v+6
	BYTE	W03
	BYTE	W09
	BYTE		VOL     77*seq_066_mvl/mxv
	BYTE	W12
	BYTE		N23     An1   v056
	BYTE	W24
	BYTE		N48     Bn1   v052
	BYTE	W12
	BYTE		VOL     76*seq_066_mvl/mxv
	BYTE	W03
	BYTE		BEND    c_v+3
	BYTE	W03
	BYTE		VOL     71*seq_066_mvl/mxv
	BYTE	W06
	BYTE		        66*seq_066_mvl/mxv
	BYTE	W06
	BYTE		        59*seq_066_mvl/mxv
	BYTE	W06
	BYTE		        48*seq_066_mvl/mxv
	BYTE	W03
	BYTE		        41*seq_066_mvl/mxv
	BYTE	W03
	BYTE		        29*seq_066_mvl/mxv
	BYTE	W03
	BYTE		        20*seq_066_mvl/mxv
	BYTE	W03
	BYTE		PAN     c_v+6
	BYTE	W03
	BYTE		BEND    c_v+0
	BYTE	W09
	BYTE		VOL     77*seq_066_mvl/mxv
	BYTE	W12
	BYTE		N23     En1   v056
	BYTE	W24
	BYTE		N48     Fs1   v052
	BYTE	W12
	BYTE		VOL     76*seq_066_mvl/mxv
	BYTE	W06
	BYTE		        71*seq_066_mvl/mxv
	BYTE	W06
	BYTE		        66*seq_066_mvl/mxv
	BYTE	W06
	BYTE		        59*seq_066_mvl/mxv
	BYTE	W06
	BYTE		        48*seq_066_mvl/mxv
	BYTE	W03
	BYTE		        41*seq_066_mvl/mxv
	BYTE	W03
	BYTE		        29*seq_066_mvl/mxv
	BYTE	W03
	BYTE		        20*seq_066_mvl/mxv
	BYTE	W03
	BYTE		PAN     c_v+6
	BYTE	W03
	BYTE	PATT
	 POIN2	seq_066_1 + 0x66
	BYTE		PAN     c_v+6
	BYTE		BEND    c_v+0
	BYTE	W09
	BYTE		VOL     77*seq_066_mvl/mxv
	BYTE	W15
	BYTE		N22     Cn2   v064
	BYTE	W24
	BYTE		N44     An1   v060
	BYTE	W12
	BYTE		VOL     76*seq_066_mvl/mxv
	BYTE	W06
	BYTE		        71*seq_066_mvl/mxv
	BYTE		BEND    c_v+2
	BYTE	W06
	BYTE		VOL     66*seq_066_mvl/mxv
	BYTE	W06
	BYTE		        59*seq_066_mvl/mxv
	BYTE	W06
	BYTE		        48*seq_066_mvl/mxv
	BYTE	W03
	BYTE		        41*seq_066_mvl/mxv
	BYTE	W03
	BYTE		        29*seq_066_mvl/mxv
	BYTE	W03
	BYTE		        20*seq_066_mvl/mxv
	BYTE	W03
	BYTE		PAN     c_v+6
	BYTE		BEND    c_v+0
	BYTE	W12
	BYTE		VOL     77*seq_066_mvl/mxv
	BYTE	W12
	BYTE		N22     Gn1   v064
	BYTE	W24
	BYTE		N44     Fs1   v052
	BYTE	W12
	BYTE		VOL     76*seq_066_mvl/mxv
	BYTE	W06
	BYTE		        71*seq_066_mvl/mxv
	BYTE	W06
	BYTE		        66*seq_066_mvl/mxv
	BYTE	W06
	BYTE		        59*seq_066_mvl/mxv
	BYTE	W06
	BYTE		        48*seq_066_mvl/mxv
	BYTE	W03
	BYTE		        41*seq_066_mvl/mxv
	BYTE	W03
	BYTE		        29*seq_066_mvl/mxv
	BYTE	W03
	BYTE		        20*seq_066_mvl/mxv
	BYTE	W03
	BYTE		PAN     c_v+6
	BYTE	W12
	BYTE		VOL     77*seq_066_mvl/mxv
	BYTE	W12
	BYTE		N22     Cn2   v060
	BYTE	W24
	BYTE		N40     An1   v056
	BYTE	W12
	BYTE		VOL     76*seq_066_mvl/mxv
	BYTE	W06
	BYTE		        71*seq_066_mvl/mxv
	BYTE		BEND    c_v+2
	BYTE	W06
	BYTE		VOL     66*seq_066_mvl/mxv
	BYTE	W06
	BYTE		        59*seq_066_mvl/mxv
	BYTE	W06
	BYTE		        48*seq_066_mvl/mxv
	BYTE	W03
	BYTE		        41*seq_066_mvl/mxv
	BYTE	W03
	BYTE		        29*seq_066_mvl/mxv
	BYTE	W03
	BYTE		        77*seq_066_mvl/mxv
	BYTE		N24     Bn1   v064
	BYTE	W03
	BYTE	PEND
	BYTE	PATT
	 POIN2	seq_066_1 + 0xED
	BYTE		PAN     c_v+6
	BYTE		BEND    c_v+0
	BYTE	W12
	BYTE		VOL     77*seq_066_mvl/mxv
	BYTE	W12
	BYTE		N22     Cn2   v072
	BYTE	W24
	BYTE		VOL     77*seq_066_mvl/mxv
	BYTE		N44     An1   v060
	BYTE	W12
	BYTE		VOL     76*seq_066_mvl/mxv
	BYTE	W06
	BYTE		        71*seq_066_mvl/mxv
	BYTE		BEND    c_v+2
	BYTE	W06
	BYTE		VOL     66*seq_066_mvl/mxv
	BYTE	W06
	BYTE		        59*seq_066_mvl/mxv
	BYTE	W06
	BYTE		        48*seq_066_mvl/mxv
	BYTE	W03
	BYTE		        41*seq_066_mvl/mxv
	BYTE	W03
	BYTE		        29*seq_066_mvl/mxv
	BYTE	W03
	BYTE		        20*seq_066_mvl/mxv
	BYTE	W02
	BYTE		PAN     c_v+6
	BYTE	W01
	BYTE		VOL     77*seq_066_mvl/mxv
	BYTE		BEND    c_v+0
	BYTE		N44     An1   v068
	BYTE	W12
	BYTE		VOL     76*seq_066_mvl/mxv
	BYTE	W06
	BYTE		        71*seq_066_mvl/mxv
	BYTE		BEND    c_v+2
	BYTE	W06
	BYTE		VOL     66*seq_066_mvl/mxv
	BYTE	W06
	BYTE		        59*seq_066_mvl/mxv
	BYTE	W06
	BYTE		        48*seq_066_mvl/mxv
	BYTE	W03
	BYTE		        41*seq_066_mvl/mxv
	BYTE	W03
	BYTE		        29*seq_066_mvl/mxv
	BYTE	W03
	BYTE		        20*seq_066_mvl/mxv
	BYTE	W03
	BYTE		        77*seq_066_mvl/mxv
	BYTE		BEND    c_v+0
	BYTE		N44     Fn1   v056
	BYTE	W12
	BYTE		VOL     76*seq_066_mvl/mxv
	BYTE	W06
	BYTE		        71*seq_066_mvl/mxv
	BYTE	W06
	BYTE		        66*seq_066_mvl/mxv
	BYTE	W06
	BYTE		        59*seq_066_mvl/mxv
	BYTE	W06
	BYTE		        48*seq_066_mvl/mxv
	BYTE	W03
	BYTE		        41*seq_066_mvl/mxv
	BYTE	W03
	BYTE		        29*seq_066_mvl/mxv
	BYTE	W03
	BYTE		        20*seq_066_mvl/mxv
	BYTE	W02
	BYTE		PAN     c_v+6
	BYTE	W01
	BYTE		VOL     77*seq_066_mvl/mxv
	BYTE		N22     Fn1   v068
	BYTE	W24
	BYTE		        Cn2   v048
	BYTE	W24
	BYTE		        Gn1   v056
	BYTE	W24
	BYTE		N19     En1 
	BYTE	W20
	BYTE		PAN     c_v+6
	BYTE	W02
	BYTE		N48     En1   v064
	BYTE	W02
	BYTE	W12
	BYTE		VOL     73*seq_066_mvl/mxv
	BYTE	W06
	BYTE		        70*seq_066_mvl/mxv
	BYTE	W06
	BYTE		        64*seq_066_mvl/mxv
	BYTE	W03
	BYTE		        57*seq_066_mvl/mxv
	BYTE	W03
	BYTE		        51*seq_066_mvl/mxv
	BYTE	W03
	BYTE		        40*seq_066_mvl/mxv
	BYTE	W03
	BYTE		        33*seq_066_mvl/mxv
	BYTE	W03
	BYTE		        24*seq_066_mvl/mxv
	BYTE	W03
	BYTE		        14*seq_066_mvl/mxv
	BYTE	W03
	BYTE		        5*seq_066_mvl/mxv
	BYTE	W03
	BYTE		PAN     c_v+6
	BYTE	W12
	BYTE		VOL     77*seq_066_mvl/mxv
	BYTE	W36
	BYTE	PATT
	 POIN2	seq_066_1 + 0x191
	BYTE		PAN     c_v+6
	BYTE		BEND    c_v+0
	BYTE	W12
	BYTE		VOL     77*seq_066_mvl/mxv
	BYTE	W12
	BYTE		N22     Gn1   v064
	BYTE	W24
	BYTE		N44     Fs1   v056
	BYTE	W12
	BYTE		VOL     76*seq_066_mvl/mxv
	BYTE	W06
	BYTE		        71*seq_066_mvl/mxv
	BYTE	W06
	BYTE		        66*seq_066_mvl/mxv
	BYTE	W06
	BYTE		        59*seq_066_mvl/mxv
	BYTE	W06
	BYTE		        48*seq_066_mvl/mxv
	BYTE	W03
	BYTE		        41*seq_066_mvl/mxv
	BYTE	W03
	BYTE		        29*seq_066_mvl/mxv
	BYTE	W03
	BYTE		        20*seq_066_mvl/mxv
	BYTE	W03
	BYTE	PATT
	 POIN2	seq_066_1 + 0x593
	BYTE	PATT
	 POIN2	seq_066_1 + 0xED
	BYTE		PAN     c_v+6
	BYTE		BEND    c_v+0
	BYTE	W12
	BYTE		VOL     77*seq_066_mvl/mxv
	BYTE	W12
	BYTE		N22     Cn2   v076
	BYTE	W24
	BYTE		VOL     77*seq_066_mvl/mxv
	BYTE		N44     An1   v060
	BYTE	W12
	BYTE		VOL     76*seq_066_mvl/mxv
	BYTE	W06
	BYTE		        71*seq_066_mvl/mxv
	BYTE		BEND    c_v+2
	BYTE	W06
	BYTE		VOL     66*seq_066_mvl/mxv
	BYTE	W06
	BYTE		        59*seq_066_mvl/mxv
	BYTE	W06
	BYTE		        48*seq_066_mvl/mxv
	BYTE	W03
	BYTE		        41*seq_066_mvl/mxv
	BYTE	W03
	BYTE		        29*seq_066_mvl/mxv
	BYTE	W03
	BYTE		        20*seq_066_mvl/mxv
	BYTE	W02
	BYTE		PAN     c_v+6
	BYTE	W01
	BYTE		VOL     77*seq_066_mvl/mxv
	BYTE		BEND    c_v+0
	BYTE		N44     An1   v064
	BYTE	W12
	BYTE		VOL     76*seq_066_mvl/mxv
	BYTE	W06
	BYTE		        71*seq_066_mvl/mxv
	BYTE		BEND    c_v+2
	BYTE	W06
	BYTE		VOL     66*seq_066_mvl/mxv
	BYTE	W06
	BYTE		        59*seq_066_mvl/mxv
	BYTE	W06
	BYTE		        48*seq_066_mvl/mxv
	BYTE	W03
	BYTE		        41*seq_066_mvl/mxv
	BYTE	W03
	BYTE		        29*seq_066_mvl/mxv
	BYTE	W03
	BYTE		        20*seq_066_mvl/mxv
	BYTE	W03
	BYTE		        77*seq_066_mvl/mxv
	BYTE		BEND    c_v+0
	BYTE		N44     Fn1   v056
	BYTE	W12
	BYTE		VOL     76*seq_066_mvl/mxv
	BYTE	W06
	BYTE		        71*seq_066_mvl/mxv
	BYTE	W06
	BYTE		        66*seq_066_mvl/mxv
	BYTE	W06
	BYTE		        59*seq_066_mvl/mxv
	BYTE	W06
	BYTE		        48*seq_066_mvl/mxv
	BYTE	W03
	BYTE		        41*seq_066_mvl/mxv
	BYTE	W03
	BYTE		        29*seq_066_mvl/mxv
	BYTE	W03
	BYTE		        20*seq_066_mvl/mxv
	BYTE	W02
	BYTE		PAN     c_v+6
	BYTE	W01
	BYTE		VOL     77*seq_066_mvl/mxv
	BYTE		N22     Fn1   v068
	BYTE	W24
	BYTE		        Cn2   v052
	BYTE	W24
	BYTE		        Gn1   v064
	BYTE	W24
	BYTE		N19     En1   v068
	BYTE	W20
	BYTE		PAN     c_v+6
	BYTE	W01
	BYTE		N48     Fn1   v088
	BYTE	W03
	BYTE	W12
	BYTE		VOL     73*seq_066_mvl/mxv
	BYTE	W06
	BYTE		        70*seq_066_mvl/mxv
	BYTE	W06
	BYTE		        64*seq_066_mvl/mxv
	BYTE	W03
	BYTE		        57*seq_066_mvl/mxv
	BYTE	W03
	BYTE		        51*seq_066_mvl/mxv
	BYTE	W03
	BYTE		        40*seq_066_mvl/mxv
	BYTE	W03
	BYTE		        33*seq_066_mvl/mxv
	BYTE	W03
	BYTE		        24*seq_066_mvl/mxv
	BYTE	W03
	BYTE		        14*seq_066_mvl/mxv
	BYTE	W03
	BYTE		        5*seq_066_mvl/mxv
	BYTE	W03
	BYTE		PAN     c_v+6
	BYTE	W12
	BYTE		VOL     77*seq_066_mvl/mxv
	BYTE	W32
	BYTE	W01
	BYTE		N23     An1   v076
	BYTE	W03
	BYTE	PATT
	 POIN2	seq_066_1 + 0x25F
	BYTE	PATT
	 POIN2	seq_066_1 + 0x279
	BYTE		PAN     c_v+6
	BYTE		BEND    c_v+0
	BYTE	W12
	BYTE		VOL     77*seq_066_mvl/mxv
	BYTE	W12
	BYTE		N22     Cs2   v080
	BYTE	W24
	BYTE		N42     Cn2 
	BYTE	W09
	BYTE		BEND    c_v+3
	BYTE	W03
	BYTE		VOL     76*seq_066_mvl/mxv
	BYTE	W06
	BYTE		        71*seq_066_mvl/mxv
	BYTE	W06
	BYTE		        66*seq_066_mvl/mxv
	BYTE	W06
	BYTE		        59*seq_066_mvl/mxv
	BYTE	W06
	BYTE		        48*seq_066_mvl/mxv
	BYTE	W03
	BYTE		        41*seq_066_mvl/mxv
	BYTE	W03
	BYTE		        29*seq_066_mvl/mxv
	BYTE	W03
	BYTE		        77*seq_066_mvl/mxv
	BYTE		BEND    c_v+0
	BYTE	W01
	BYTE		N48     Bn1   v060
	BYTE	W02
	BYTE	W12
	BYTE		VOL     73*seq_066_mvl/mxv
	BYTE		BEND    c_v+3
	BYTE	W06
	BYTE		VOL     70*seq_066_mvl/mxv
	BYTE	W06
	BYTE		        64*seq_066_mvl/mxv
	BYTE	W03
	BYTE		        57*seq_066_mvl/mxv
	BYTE	W03
	BYTE		        51*seq_066_mvl/mxv
	BYTE	W03
	BYTE		        40*seq_066_mvl/mxv
	BYTE	W03
	BYTE		        33*seq_066_mvl/mxv
	BYTE	W03
	BYTE		        24*seq_066_mvl/mxv
	BYTE	W03
	BYTE		        14*seq_066_mvl/mxv
	BYTE	W03
	BYTE		        5*seq_066_mvl/mxv
	BYTE	W03
	BYTE		PAN     c_v+6
	BYTE		BEND    c_v+0
	BYTE	W12
	BYTE		VOL     77*seq_066_mvl/mxv
	BYTE	W36
	BYTE	PATT
	 POIN2	seq_066_1 + 0x2EA
	BYTE	PATT
	 POIN2	seq_066_1 + 0x305
	BYTE		BEND    c_v+0
	BYTE	W09
	BYTE		VOL     76*seq_066_mvl/mxv
	BYTE	W06
	BYTE		        71*seq_066_mvl/mxv
	BYTE	W06
	BYTE		        66*seq_066_mvl/mxv
	BYTE	W06
	BYTE		        59*seq_066_mvl/mxv
	BYTE	W06
	BYTE		        48*seq_066_mvl/mxv
	BYTE	W03
	BYTE		        41*seq_066_mvl/mxv
	BYTE	W03
	BYTE		        29*seq_066_mvl/mxv
	BYTE	W03
	BYTE		        20*seq_066_mvl/mxv
	BYTE	W03
	BYTE		        77*seq_066_mvl/mxv
	BYTE		N44     En1   v052
	BYTE	W12
	BYTE		VOL     76*seq_066_mvl/mxv
	BYTE	W06
	BYTE		        71*seq_066_mvl/mxv
	BYTE	W06
	BYTE		        66*seq_066_mvl/mxv
	BYTE	W06
	BYTE		        59*seq_066_mvl/mxv
	BYTE	W06
	BYTE		        48*seq_066_mvl/mxv
	BYTE	W03
	BYTE		        41*seq_066_mvl/mxv
	BYTE	W03
	BYTE		        29*seq_066_mvl/mxv
	BYTE	W03
	BYTE		        20*seq_066_mvl/mxv
	BYTE	W02
	BYTE		PAN     c_v+6
	BYTE	W01
	BYTE		VOL     77*seq_066_mvl/mxv
	BYTE	W01
	BYTE		N48
	BYTE	W02
	BYTE	W12
	BYTE		VOL     73*seq_066_mvl/mxv
	BYTE	W06
	BYTE		        70*seq_066_mvl/mxv
	BYTE	W06
	BYTE		        64*seq_066_mvl/mxv
	BYTE	W03
	BYTE		        57*seq_066_mvl/mxv
	BYTE	W03
	BYTE		        51*seq_066_mvl/mxv
	BYTE	W03
	BYTE		        40*seq_066_mvl/mxv
	BYTE	W03
	BYTE		        33*seq_066_mvl/mxv
	BYTE	W03
	BYTE		        24*seq_066_mvl/mxv
	BYTE	W03
	BYTE		        14*seq_066_mvl/mxv
	BYTE	W03
	BYTE		        5*seq_066_mvl/mxv
	BYTE	W03
	BYTE		PAN     c_v+6
	BYTE	W12
	BYTE		VOL     77*seq_066_mvl/mxv
	BYTE	W32
	BYTE	W01
	BYTE		N22     An1   v072
	BYTE	W03
	BYTE	PATT
	 POIN2	seq_066_1 + 0x389
	BYTE	PATT
	 POIN2	seq_066_1 + 0x279
	BYTE		PAN     c_v+6
	BYTE		BEND    c_v+0
	BYTE	W12
	BYTE		VOL     77*seq_066_mvl/mxv
	BYTE	W12
	BYTE		N24     Cs2   v076
	BYTE	W24
	BYTE		N23     Ds2   v068
	BYTE	W24
	BYTE		N18     Bn1 
	BYTE	W20
	BYTE		PAN     c_v+6
	BYTE	W01
	BYTE		N48     Bn1   v052
	BYTE	W03
	BYTE	W12
	BYTE		VOL     73*seq_066_mvl/mxv
	BYTE		BEND    c_v+3
	BYTE	W06
	BYTE		VOL     70*seq_066_mvl/mxv
	BYTE	W06
	BYTE		PAN     c_v+6
	BYTE		VOL     64*seq_066_mvl/mxv
	BYTE	W03
	BYTE		        57*seq_066_mvl/mxv
	BYTE	W03
	BYTE		        51*seq_066_mvl/mxv
	BYTE	W03
	BYTE		        40*seq_066_mvl/mxv
	BYTE	W03
	BYTE		        33*seq_066_mvl/mxv
	BYTE	W03
	BYTE		        24*seq_066_mvl/mxv
	BYTE	W03
	BYTE		        14*seq_066_mvl/mxv
	BYTE	W03
	BYTE		        5*seq_066_mvl/mxv
	BYTE	W03
	BYTE		BEND    c_v+0
	BYTE	W12
	BYTE		VOL     77*seq_066_mvl/mxv
	BYTE	W36
	BYTE		N22     As1   v064
	BYTE	W24
	BYTE		        Fs1   v060
	BYTE	W23
	BYTE		PAN     c_v+6
	BYTE	W01
	BYTE		N44     Fs1   v052
	BYTE	W12
	BYTE		VOL     76*seq_066_mvl/mxv
	BYTE	W06
	BYTE		        71*seq_066_mvl/mxv
	BYTE	W06
	BYTE		        66*seq_066_mvl/mxv
	BYTE	W06
	BYTE		        59*seq_066_mvl/mxv
	BYTE	W06
	BYTE		        48*seq_066_mvl/mxv
	BYTE	W03
	BYTE		        41*seq_066_mvl/mxv
	BYTE	W03
	BYTE		        29*seq_066_mvl/mxv
	BYTE	W03
	BYTE		        20*seq_066_mvl/mxv
	BYTE	W03
	BYTE		        77*seq_066_mvl/mxv
	BYTE		N22     Gs1   v072
	BYTE	W24
	BYTE		        En1   v064
	BYTE	W23
	BYTE		PAN     c_v+6
	BYTE	W01
	BYTE		N44     En1   v060
	BYTE	W12
	BYTE		VOL     76*seq_066_mvl/mxv
	BYTE	W06
	BYTE		        71*seq_066_mvl/mxv
	BYTE	W06
	BYTE		        66*seq_066_mvl/mxv
	BYTE	W06
	BYTE		        59*seq_066_mvl/mxv
	BYTE	W06
	BYTE		        48*seq_066_mvl/mxv
	BYTE	W03
	BYTE		        41*seq_066_mvl/mxv
	BYTE	W03
	BYTE		        29*seq_066_mvl/mxv
	BYTE	W03
	BYTE		        20*seq_066_mvl/mxv
	BYTE	W03
	BYTE	PATT
	 POIN2	seq_066_1 + 0x41F
	BYTE		BEND    c_v+0
	BYTE	W12
	BYTE		VOL     73*seq_066_mvl/mxv
	BYTE	W06
	BYTE		        70*seq_066_mvl/mxv
	BYTE	W06
	BYTE		        64*seq_066_mvl/mxv
	BYTE	W03
	BYTE		        57*seq_066_mvl/mxv
	BYTE	W03
	BYTE		        51*seq_066_mvl/mxv
	BYTE	W03
	BYTE		        40*seq_066_mvl/mxv
	BYTE	W03
	BYTE		        33*seq_066_mvl/mxv
	BYTE	W03
	BYTE		        24*seq_066_mvl/mxv
	BYTE	W03
	BYTE		        14*seq_066_mvl/mxv
	BYTE	W03
	BYTE		        5*seq_066_mvl/mxv
	BYTE	W03
	BYTE		PAN     c_v+6
	BYTE	W12
	BYTE		VOL     77*seq_066_mvl/mxv
	BYTE	W32
	BYTE	W01
	BYTE		N44     Fs2   v048
	BYTE	W03
	BYTE	PATT
	 POIN2	seq_066_1 + 0x478
	BYTE	W09
	BYTE		VOL     76*seq_066_mvl/mxv
	BYTE	W03
	BYTE		BEND    c_v+2
	BYTE	W03
	BYTE		VOL     71*seq_066_mvl/mxv
	BYTE	W06
	BYTE		        66*seq_066_mvl/mxv
	BYTE	W06
	BYTE		        59*seq_066_mvl/mxv
	BYTE	W06
	BYTE		        48*seq_066_mvl/mxv
	BYTE	W03
	BYTE		        41*seq_066_mvl/mxv
	BYTE	W03
	BYTE		        29*seq_066_mvl/mxv
	BYTE	W03
	BYTE		        20*seq_066_mvl/mxv
	BYTE	W03
	BYTE		        77*seq_066_mvl/mxv
	BYTE		BEND    c_v+0
	BYTE		N48     Bn1   v036
	BYTE	W15
	BYTE		VOL     73*seq_066_mvl/mxv
	BYTE		BEND    c_v+2
	BYTE	W06
	BYTE		VOL     70*seq_066_mvl/mxv
	BYTE	W06
	BYTE		        64*seq_066_mvl/mxv
	BYTE	W03
	BYTE		        57*seq_066_mvl/mxv
	BYTE	W03
	BYTE		        51*seq_066_mvl/mxv
	BYTE	W03
	BYTE		        40*seq_066_mvl/mxv
	BYTE	W03
	BYTE		        33*seq_066_mvl/mxv
	BYTE	W03
	BYTE		        24*seq_066_mvl/mxv
	BYTE	W03
	BYTE		        14*seq_066_mvl/mxv
	BYTE	W03
	BYTE		PAN     c_v+6
	BYTE		VOL     5*seq_066_mvl/mxv
	BYTE		BEND    c_v+0
	BYTE	W03
	BYTE	GoTo
	 POIN2	seq_066_1 + 0x4E3
	BYTE	W07
	BYTE	FINE

//*********************** Track 03 ***********************//

seq_066_2:
	BYTE	KEYSH   seq_066_key+0
	BYTE		VOICE   83
	BYTE	W01
	BYTE		VOL     77*seq_066_mvl/mxv
	BYTE	W01
	BYTE		PAN     c_v-4
	BYTE		BEND    c_v+0
	BYTE	W01
	BYTE	W19
	BYTE		N23     Cs2   v092
	BYTE	W24
	BYTE		N48     Dn2   v080
	BYTE	W12
	BYTE		VOL     76*seq_066_mvl/mxv
	BYTE	W06
	BYTE		        71*seq_066_mvl/mxv
	BYTE	W06
	BYTE		        66*seq_066_mvl/mxv
	BYTE	W06
	BYTE		        59*seq_066_mvl/mxv
	BYTE	W06
	BYTE		        48*seq_066_mvl/mxv
	BYTE	W03
	BYTE		        41*seq_066_mvl/mxv
	BYTE	W03
	BYTE		        29*seq_066_mvl/mxv
	BYTE	W03
	BYTE		        20*seq_066_mvl/mxv
	BYTE	W08
	BYTE	W07
	BYTE		        77*seq_066_mvl/mxv
	BYTE	W12
	BYTE		N23     En2 
	BYTE	W24
	BYTE		N48     Fs2   v076
	BYTE	W12
	BYTE		VOL     76*seq_066_mvl/mxv
	BYTE	W06
	BYTE		        71*seq_066_mvl/mxv
	BYTE	W06
	BYTE		        66*seq_066_mvl/mxv
	BYTE	W06
	BYTE		        59*seq_066_mvl/mxv
	BYTE	W06
	BYTE		        48*seq_066_mvl/mxv
	BYTE	W03
	BYTE		        41*seq_066_mvl/mxv
	BYTE	W03
	BYTE		        29*seq_066_mvl/mxv
	BYTE	W03
	BYTE		        20*seq_066_mvl/mxv
	BYTE	W08
	BYTE	W07
	BYTE		        77*seq_066_mvl/mxv
	BYTE	W12
	BYTE		N23     Cs2 
	BYTE	W24
	BYTE		N48     Dn2   v072
	BYTE	W12
	BYTE		VOL     76*seq_066_mvl/mxv
	BYTE	W06
	BYTE		        71*seq_066_mvl/mxv
	BYTE	W06
	BYTE		        66*seq_066_mvl/mxv
	BYTE	W06
	BYTE		        59*seq_066_mvl/mxv
	BYTE	W06
	BYTE		        48*seq_066_mvl/mxv
	BYTE	W03
	BYTE		        41*seq_066_mvl/mxv
	BYTE	W03
	BYTE		        29*seq_066_mvl/mxv
	BYTE	W03
	BYTE		        20*seq_066_mvl/mxv
	BYTE	W08
	BYTE	W07
	BYTE		        77*seq_066_mvl/mxv
	BYTE	W12
	BYTE		N23     En2   v068
	BYTE	W24
	BYTE		N48     Fs2   v060
	BYTE	W12
	BYTE		VOL     76*seq_066_mvl/mxv
	BYTE	W06
	BYTE		        71*seq_066_mvl/mxv
	BYTE	W06
	BYTE		        66*seq_066_mvl/mxv
	BYTE	W06
	BYTE		        59*seq_066_mvl/mxv
	BYTE	W06
	BYTE		        48*seq_066_mvl/mxv
	BYTE	W03
	BYTE		        41*seq_066_mvl/mxv
	BYTE	W03
	BYTE		        29*seq_066_mvl/mxv
	BYTE	W03
	BYTE		        20*seq_066_mvl/mxv
	BYTE	W08
	BYTE	W07
	BYTE		        77*seq_066_mvl/mxv
	BYTE	W17
	BYTE		N22     An2   v080
	BYTE	W72
	BYTE	W24
	BYTE		N22     En2   v068
	BYTE	W24
	BYTE		N44     Dn2   v056
	BYTE	W12
	BYTE		VOL     76*seq_066_mvl/mxv
	BYTE	W06
	BYTE		        71*seq_066_mvl/mxv
	BYTE	W06
	BYTE		        66*seq_066_mvl/mxv
	BYTE	W06
	BYTE		        59*seq_066_mvl/mxv
	BYTE	W06
	BYTE		        48*seq_066_mvl/mxv
	BYTE	W03
	BYTE		        41*seq_066_mvl/mxv
	BYTE	W03
	BYTE		        29*seq_066_mvl/mxv
	BYTE	W03
	BYTE		        20*seq_066_mvl/mxv
	BYTE	W03
	BYTE	PEND
	BYTE	W12
	BYTE		VOL     77*seq_066_mvl/mxv
	BYTE	W12
	BYTE		N22     An2   v076
	BYTE	W66
	BYTE	W01
	BYTE		N24     Gs2   v088
	BYTE	W05
	BYTE	PEND
	BYTE	W24
	BYTE		N11     En2   v088
	BYTE	W12
	BYTE		        Fs2   v068
	BYTE	W12
	BYTE		N44     Gs2   v064
	BYTE	W12
	BYTE		VOL     73*seq_066_mvl/mxv
	BYTE	W06
	BYTE		        70*seq_066_mvl/mxv
	BYTE	W06
	BYTE		        64*seq_066_mvl/mxv
	BYTE	W03
	BYTE		        57*seq_066_mvl/mxv
	BYTE	W03
	BYTE		        51*seq_066_mvl/mxv
	BYTE	W03
	BYTE		        40*seq_066_mvl/mxv
	BYTE	W03
	BYTE		        33*seq_066_mvl/mxv
	BYTE	W03
	BYTE		        24*seq_066_mvl/mxv
	BYTE	W03
	BYTE		        14*seq_066_mvl/mxv
	BYTE	W03
	BYTE		        5*seq_066_mvl/mxv
	BYTE	W03
	BYTE	PEND
	BYTE	W12
	BYTE		VOL     77*seq_066_mvl/mxv
	BYTE	W12
	BYTE		N22     An2   v088
	BYTE	W72
	BYTE	PEND
	BYTE		N44     Fn2   v084
	BYTE	W12
	BYTE		VOL     76*seq_066_mvl/mxv
	BYTE	W06
	BYTE		        71*seq_066_mvl/mxv
	BYTE	W06
	BYTE		        66*seq_066_mvl/mxv
	BYTE	W06
	BYTE		        59*seq_066_mvl/mxv
	BYTE	W06
	BYTE		        48*seq_066_mvl/mxv
	BYTE	W03
	BYTE		        41*seq_066_mvl/mxv
	BYTE	W03
	BYTE		        29*seq_066_mvl/mxv
	BYTE	W03
	BYTE		        20*seq_066_mvl/mxv
	BYTE	W03
	BYTE		        77*seq_066_mvl/mxv
	BYTE		N44     Dn2   v072
	BYTE	W12
	BYTE		VOL     76*seq_066_mvl/mxv
	BYTE	W06
	BYTE		        71*seq_066_mvl/mxv
	BYTE	W06
	BYTE		        66*seq_066_mvl/mxv
	BYTE	W06
	BYTE		        59*seq_066_mvl/mxv
	BYTE	W06
	BYTE		        48*seq_066_mvl/mxv
	BYTE	W03
	BYTE		        41*seq_066_mvl/mxv
	BYTE	W03
	BYTE		        29*seq_066_mvl/mxv
	BYTE	W03
	BYTE		        20*seq_066_mvl/mxv
	BYTE	W03
	BYTE		VOL     77*seq_066_mvl/mxv
	BYTE		N22     Dn2   v088
	BYTE	W24
	BYTE		        An2   v072
	BYTE	W24
	BYTE		        En2   v076
	BYTE	W24
	BYTE		N18     Dn2   v072
	BYTE	W19
	BYTE		PAN     c_v+6
	BYTE	W02
	BYTE		N24     Dn2   v080
	BYTE	W03
	BYTE	PEND
	BYTE	W17
	BYTE		PAN     c_v+6
	BYTE	W07
	BYTE		N11     Bn1   v076
	BYTE	W12
	BYTE		        Dn2   v064
	BYTE	W12
	BYTE		N44     Cn2   v068
	BYTE	W10
	BYTE		VOL     73*seq_066_mvl/mxv
	BYTE	W06
	BYTE		        70*seq_066_mvl/mxv
	BYTE	W06
	BYTE		        64*seq_066_mvl/mxv
	BYTE	W03
	BYTE		        57*seq_066_mvl/mxv
	BYTE	W03
	BYTE		        51*seq_066_mvl/mxv
	BYTE	W03
	BYTE		        40*seq_066_mvl/mxv
	BYTE	W03
	BYTE		        33*seq_066_mvl/mxv
	BYTE	W03
	BYTE		        24*seq_066_mvl/mxv
	BYTE	W03
	BYTE		        14*seq_066_mvl/mxv
	BYTE	W03
	BYTE		        5*seq_066_mvl/mxv
	BYTE	W05
	BYTE		PAN     c_v+6
	BYTE	W10
	BYTE		VOL     77*seq_066_mvl/mxv
	BYTE	W14
	BYTE		N22     An2   v080
	BYTE	W72
	BYTE	W24
	BYTE		N22     En2   v072
	BYTE	W24
	BYTE		N44     Dn2   v064
	BYTE	W12
	BYTE		VOL     76*seq_066_mvl/mxv
	BYTE	W06
	BYTE		        71*seq_066_mvl/mxv
	BYTE	W06
	BYTE		        66*seq_066_mvl/mxv
	BYTE	W06
	BYTE		        59*seq_066_mvl/mxv
	BYTE	W06
	BYTE		        48*seq_066_mvl/mxv
	BYTE	W03
	BYTE		        41*seq_066_mvl/mxv
	BYTE	W03
	BYTE		        29*seq_066_mvl/mxv
	BYTE	W03
	BYTE		        20*seq_066_mvl/mxv
	BYTE	W03
	BYTE	PEND
	BYTE	PATT
	 POIN2	seq_066_2 + 0x9B
	BYTE	PATT
	 POIN2	seq_066_2 + 0xA9
	BYTE	PATT
	 POIN2	seq_066_2 + 0xCB
	BYTE		N44     Fn2   v076
	BYTE	W12
	BYTE		VOL     76*seq_066_mvl/mxv
	BYTE	W06
	BYTE		        71*seq_066_mvl/mxv
	BYTE	W06
	BYTE		        66*seq_066_mvl/mxv
	BYTE	W06
	BYTE		        59*seq_066_mvl/mxv
	BYTE	W06
	BYTE		        48*seq_066_mvl/mxv
	BYTE	W03
	BYTE		        41*seq_066_mvl/mxv
	BYTE	W03
	BYTE		        29*seq_066_mvl/mxv
	BYTE	W03
	BYTE		        20*seq_066_mvl/mxv
	BYTE	W03
	BYTE		        77*seq_066_mvl/mxv
	BYTE		N44     Dn2   v072
	BYTE	W12
	BYTE		VOL     76*seq_066_mvl/mxv
	BYTE	W06
	BYTE		        71*seq_066_mvl/mxv
	BYTE	W06
	BYTE		        66*seq_066_mvl/mxv
	BYTE	W06
	BYTE		        59*seq_066_mvl/mxv
	BYTE	W06
	BYTE		        48*seq_066_mvl/mxv
	BYTE	W03
	BYTE		        41*seq_066_mvl/mxv
	BYTE	W03
	BYTE		        29*seq_066_mvl/mxv
	BYTE	W03
	BYTE		        20*seq_066_mvl/mxv
	BYTE	W03
	BYTE		        77*seq_066_mvl/mxv
	BYTE		N22     Dn2   v088
	BYTE	W24
	BYTE		        An2   v072
	BYTE	W24
	BYTE		        En2   v088
	BYTE	W24
	BYTE		N17     Dn2   v084
	BYTE	W19
	BYTE		N52     Cn2   v112
	BYTE	W05
	BYTE	W10
	BYTE		VOL     73*seq_066_mvl/mxv
	BYTE	W06
	BYTE		        70*seq_066_mvl/mxv
	BYTE	W06
	BYTE		        64*seq_066_mvl/mxv
	BYTE	W03
	BYTE		        57*seq_066_mvl/mxv
	BYTE	W03
	BYTE		        51*seq_066_mvl/mxv
	BYTE	W03
	BYTE		        40*seq_066_mvl/mxv
	BYTE	W03
	BYTE		        33*seq_066_mvl/mxv
	BYTE	W03
	BYTE		        24*seq_066_mvl/mxv
	BYTE	W03
	BYTE		        14*seq_066_mvl/mxv
	BYTE	W03
	BYTE		        5*seq_066_mvl/mxv
	BYTE	W05
	BYTE		PAN     c_v+6
	BYTE	W10
	BYTE		VOL     77*seq_066_mvl/mxv
	BYTE	W32
	BYTE	W01
	BYTE		N23     En2   v088
	BYTE	W05
	BYTE	W19
	BYTE		PAN     c_v+6
	BYTE		N23     En2   v084
	BYTE	W24
	BYTE		N48     Dn2 
	BYTE	W17
	BYTE		VOL     76*seq_066_mvl/mxv
	BYTE	W06
	BYTE		        71*seq_066_mvl/mxv
	BYTE	W06
	BYTE		        66*seq_066_mvl/mxv
	BYTE	W06
	BYTE		        59*seq_066_mvl/mxv
	BYTE	W06
	BYTE		        48*seq_066_mvl/mxv
	BYTE	W03
	BYTE		        41*seq_066_mvl/mxv
	BYTE	W03
	BYTE		        29*seq_066_mvl/mxv
	BYTE	W03
	BYTE		        20*seq_066_mvl/mxv
	BYTE	W02
	BYTE		PAN     c_v+6
	BYTE	W01
	BYTE		        c_v+6
	BYTE		VOL     77*seq_066_mvl/mxv
	BYTE		N22     Dn2   v088
	BYTE	W24
	BYTE		N09     Dn2   v096
	BYTE	W11
	BYTE		PAN     c_v+6
	BYTE	W01
	BYTE		N10     Dn2   v092
	BYTE	W12
	BYTE		N44     Cs2   v080
	BYTE	W12
	BYTE		VOL     76*seq_066_mvl/mxv
	BYTE	W06
	BYTE		        71*seq_066_mvl/mxv
	BYTE	W06
	BYTE		        66*seq_066_mvl/mxv
	BYTE	W06
	BYTE		        59*seq_066_mvl/mxv
	BYTE	W06
	BYTE		        48*seq_066_mvl/mxv
	BYTE	W03
	BYTE		        41*seq_066_mvl/mxv
	BYTE	W03
	BYTE		        29*seq_066_mvl/mxv
	BYTE	W03
	BYTE		        20*seq_066_mvl/mxv
	BYTE	W03
	BYTE	W09
	BYTE		        77*seq_066_mvl/mxv
	BYTE	W15
	BYTE		N22     An2   v100
	BYTE	W24
	BYTE		N40     Fs2   v096
	BYTE	W12
	BYTE		VOL     76*seq_066_mvl/mxv
	BYTE	W06
	BYTE		        71*seq_066_mvl/mxv
	BYTE	W06
	BYTE		        66*seq_066_mvl/mxv
	BYTE	W06
	BYTE		        59*seq_066_mvl/mxv
	BYTE	W06
	BYTE		        48*seq_066_mvl/mxv
	BYTE	W03
	BYTE		        41*seq_066_mvl/mxv
	BYTE	W03
	BYTE		        29*seq_066_mvl/mxv
	BYTE	W01
	BYTE		        77*seq_066_mvl/mxv
	BYTE	W01
	BYTE		N48     An2   v084
	BYTE	W04
	BYTE	W06
	BYTE		BEND    c_v+3
	BYTE	W06
	BYTE		VOL     76*seq_066_mvl/mxv
	BYTE	W06
	BYTE		        71*seq_066_mvl/mxv
	BYTE	W06
	BYTE		        66*seq_066_mvl/mxv
	BYTE	W06
	BYTE		        59*seq_066_mvl/mxv
	BYTE	W06
	BYTE		        48*seq_066_mvl/mxv
	BYTE	W03
	BYTE		        41*seq_066_mvl/mxv
	BYTE	W03
	BYTE		        29*seq_066_mvl/mxv
	BYTE	W03
	BYTE		        20*seq_066_mvl/mxv
	BYTE	W03
	BYTE		PAN     c_v+6
	BYTE		VOL     77*seq_066_mvl/mxv
	BYTE		BEND    c_v+0
	BYTE		N44     Gs2   v048
	BYTE	W15
	BYTE		VOL     73*seq_066_mvl/mxv
	BYTE	W06
	BYTE		        70*seq_066_mvl/mxv
	BYTE	W06
	BYTE		        64*seq_066_mvl/mxv
	BYTE	W03
	BYTE		        57*seq_066_mvl/mxv
	BYTE	W03
	BYTE		        51*seq_066_mvl/mxv
	BYTE	W03
	BYTE		        40*seq_066_mvl/mxv
	BYTE	W03
	BYTE		        33*seq_066_mvl/mxv
	BYTE	W01
	BYTE		PAN     c_v+6
	BYTE	W02
	BYTE		VOL     24*seq_066_mvl/mxv
	BYTE	W03
	BYTE		        14*seq_066_mvl/mxv
	BYTE	W03
	BYTE		        5*seq_066_mvl/mxv
	BYTE	W15
	BYTE		        77*seq_066_mvl/mxv
	BYTE	W09
	BYTE		N22     Fs2   v084
	BYTE	W24
	BYTE		N44     Dn2   v076
	BYTE	W12
	BYTE		VOL     76*seq_066_mvl/mxv
	BYTE	W06
	BYTE		        71*seq_066_mvl/mxv
	BYTE	W06
	BYTE		        66*seq_066_mvl/mxv
	BYTE	W06
	BYTE		        59*seq_066_mvl/mxv
	BYTE	W06
	BYTE		        48*seq_066_mvl/mxv
	BYTE	W03
	BYTE		        41*seq_066_mvl/mxv
	BYTE	W03
	BYTE		        29*seq_066_mvl/mxv
	BYTE	W03
	BYTE		        20*seq_066_mvl/mxv
	BYTE	W03
	BYTE		        77*seq_066_mvl/mxv
	BYTE		N44     An2   v084
	BYTE	W12
	BYTE		VOL     76*seq_066_mvl/mxv
	BYTE		BEND    c_v+3
	BYTE	W06
	BYTE		VOL     71*seq_066_mvl/mxv
	BYTE	W06
	BYTE		        66*seq_066_mvl/mxv
	BYTE	W06
	BYTE		        59*seq_066_mvl/mxv
	BYTE	W06
	BYTE		        48*seq_066_mvl/mxv
	BYTE	W03
	BYTE		        41*seq_066_mvl/mxv
	BYTE	W03
	BYTE		        29*seq_066_mvl/mxv
	BYTE	W03
	BYTE		        20*seq_066_mvl/mxv
	BYTE	W03
	BYTE		        77*seq_066_mvl/mxv
	BYTE		BEND    c_v+0
	BYTE		N40     En2   v080
	BYTE	W12
	BYTE		VOL     76*seq_066_mvl/mxv
	BYTE	W06
	BYTE		        71*seq_066_mvl/mxv
	BYTE	W06
	BYTE		        66*seq_066_mvl/mxv
	BYTE	W06
	BYTE		        59*seq_066_mvl/mxv
	BYTE	W06
	BYTE		        48*seq_066_mvl/mxv
	BYTE	W03
	BYTE		        41*seq_066_mvl/mxv
	BYTE	W03
	BYTE		        29*seq_066_mvl/mxv
	BYTE	W01
	BYTE		        77*seq_066_mvl/mxv
	BYTE		N44     Dn2   v084
	BYTE	W05
	BYTE	W12
	BYTE		VOL     76*seq_066_mvl/mxv
	BYTE	W06
	BYTE		        71*seq_066_mvl/mxv
	BYTE	W06
	BYTE		        66*seq_066_mvl/mxv
	BYTE	W06
	BYTE		        59*seq_066_mvl/mxv
	BYTE	W06
	BYTE		        48*seq_066_mvl/mxv
	BYTE	W03
	BYTE		        41*seq_066_mvl/mxv
	BYTE		PAN     c_v+6
	BYTE	W03
	BYTE		VOL     29*seq_066_mvl/mxv
	BYTE	W01
	BYTE		        77*seq_066_mvl/mxv
	BYTE		N44     Cs2   v076
	BYTE	W17
	BYTE		VOL     76*seq_066_mvl/mxv
	BYTE	W06
	BYTE		        71*seq_066_mvl/mxv
	BYTE	W06
	BYTE		        66*seq_066_mvl/mxv
	BYTE	W06
	BYTE		        59*seq_066_mvl/mxv
	BYTE	W06
	BYTE		        48*seq_066_mvl/mxv
	BYTE	W03
	BYTE		        41*seq_066_mvl/mxv
	BYTE	W03
	BYTE		        29*seq_066_mvl/mxv
	BYTE	W01
	BYTE		        77*seq_066_mvl/mxv
	BYTE	W01
	BYTE		N52     Dn2   v068
	BYTE	W04
	BYTE	W16
	BYTE		VOL     73*seq_066_mvl/mxv
	BYTE	W06
	BYTE		        70*seq_066_mvl/mxv
	BYTE	W06
	BYTE		        64*seq_066_mvl/mxv
	BYTE	W03
	BYTE		        57*seq_066_mvl/mxv
	BYTE	W03
	BYTE		        51*seq_066_mvl/mxv
	BYTE	W03
	BYTE		        40*seq_066_mvl/mxv
	BYTE	W03
	BYTE		        33*seq_066_mvl/mxv
	BYTE	W03
	BYTE		        24*seq_066_mvl/mxv
	BYTE	W02
	BYTE		PAN     c_v+6
	BYTE	W01
	BYTE		VOL     14*seq_066_mvl/mxv
	BYTE	W03
	BYTE		        5*seq_066_mvl/mxv
	BYTE	W15
	BYTE		        77*seq_066_mvl/mxv
	BYTE	W24
	BYTE	W03
	BYTE		N22     En2   v088
	BYTE	W05
	BYTE	W19
	BYTE		PAN     c_v+6
	BYTE		N22     En2   v084
	BYTE	W24
	BYTE		N48     Dn2 
	BYTE	W17
	BYTE		VOL     76*seq_066_mvl/mxv
	BYTE	W06
	BYTE		        71*seq_066_mvl/mxv
	BYTE	W06
	BYTE		        66*seq_066_mvl/mxv
	BYTE	W06
	BYTE		        59*seq_066_mvl/mxv
	BYTE	W06
	BYTE		        48*seq_066_mvl/mxv
	BYTE	W03
	BYTE		        41*seq_066_mvl/mxv
	BYTE	W03
	BYTE		        29*seq_066_mvl/mxv
	BYTE	W03
	BYTE		        20*seq_066_mvl/mxv
	BYTE	W02
	BYTE		PAN     c_v+6
	BYTE	W01
	BYTE		VOL     77*seq_066_mvl/mxv
	BYTE		N22     Dn2   v088
	BYTE	W23
	BYTE		PAN     c_v+6
	BYTE	W01
	BYTE		N09     Dn2   v096
	BYTE	W11
	BYTE		PAN     c_v+6
	BYTE	W01
	BYTE		N10
	BYTE	W12
	BYTE		N44     Cs2   v080
	BYTE	W12
	BYTE		VOL     76*seq_066_mvl/mxv
	BYTE	W06
	BYTE		        71*seq_066_mvl/mxv
	BYTE	W06
	BYTE		        66*seq_066_mvl/mxv
	BYTE	W06
	BYTE		        59*seq_066_mvl/mxv
	BYTE	W06
	BYTE		        48*seq_066_mvl/mxv
	BYTE	W03
	BYTE		        41*seq_066_mvl/mxv
	BYTE	W03
	BYTE		        29*seq_066_mvl/mxv
	BYTE	W03
	BYTE		        20*seq_066_mvl/mxv
	BYTE	W03
	BYTE		PAN     c_v+6
	BYTE	W09
	BYTE		VOL     77*seq_066_mvl/mxv
	BYTE	W15
	BYTE		N22     An2   v096
	BYTE	W24
	BYTE		N23     Bn2   v112
	BYTE	W24
	BYTE		N17     An2   v080
	BYTE	W19
	BYTE		PAN     c_v+6
	BYTE		N52     Gs2   v060
	BYTE	W05
	BYTE	W16
	BYTE		VOL     73*seq_066_mvl/mxv
	BYTE	W06
	BYTE		        70*seq_066_mvl/mxv
	BYTE	W06
	BYTE		        64*seq_066_mvl/mxv
	BYTE	W03
	BYTE		        57*seq_066_mvl/mxv
	BYTE	W03
	BYTE		        51*seq_066_mvl/mxv
	BYTE	W03
	BYTE		        40*seq_066_mvl/mxv
	BYTE	W03
	BYTE		        33*seq_066_mvl/mxv
	BYTE	W03
	BYTE		        24*seq_066_mvl/mxv
	BYTE	W03
	BYTE		        14*seq_066_mvl/mxv
	BYTE	W02
	BYTE		PAN     c_v+6
	BYTE	W01
	BYTE		VOL     5*seq_066_mvl/mxv
	BYTE	W15
	BYTE		        77*seq_066_mvl/mxv
	BYTE	W32
	BYTE		N22     En2   v084
	BYTE	W23
	BYTE		PAN     c_v+6
	BYTE	W01
	BYTE		N22     En2   v080
	BYTE	W24
	BYTE		N44     Dn2   v068
	BYTE	W12
	BYTE		VOL     76*seq_066_mvl/mxv
	BYTE	W06
	BYTE		        71*seq_066_mvl/mxv
	BYTE	W06
	BYTE		        66*seq_066_mvl/mxv
	BYTE	W06
	BYTE		        59*seq_066_mvl/mxv
	BYTE	W06
	BYTE		        48*seq_066_mvl/mxv
	BYTE	W03
	BYTE		        41*seq_066_mvl/mxv
	BYTE	W03
	BYTE		        29*seq_066_mvl/mxv
	BYTE	W03
	BYTE		        20*seq_066_mvl/mxv
	BYTE	W03
	BYTE		VOL     77*seq_066_mvl/mxv
	BYTE		N22     En2   v096
	BYTE	W24
	BYTE		        Dn2   v092
	BYTE	W24
	BYTE		N44     Cs2   v080
	BYTE	W12
	BYTE		VOL     76*seq_066_mvl/mxv
	BYTE	W06
	BYTE		        71*seq_066_mvl/mxv
	BYTE	W06
	BYTE		        66*seq_066_mvl/mxv
	BYTE	W06
	BYTE		        59*seq_066_mvl/mxv
	BYTE	W06
	BYTE		        48*seq_066_mvl/mxv
	BYTE	W03
	BYTE		        41*seq_066_mvl/mxv
	BYTE	W03
	BYTE		        29*seq_066_mvl/mxv
	BYTE	W03
	BYTE		        20*seq_066_mvl/mxv
	BYTE	W03
	BYTE	PEND
	BYTE		        77*seq_066_mvl/mxv
	BYTE		N44     Fs2   v100
	BYTE	W12
	BYTE		VOL     76*seq_066_mvl/mxv
	BYTE	W06
	BYTE		        71*seq_066_mvl/mxv
	BYTE	W06
	BYTE		        66*seq_066_mvl/mxv
	BYTE	W06
	BYTE		        59*seq_066_mvl/mxv
	BYTE	W06
	BYTE		        48*seq_066_mvl/mxv
	BYTE	W03
	BYTE		        41*seq_066_mvl/mxv
	BYTE	W03
	BYTE		        29*seq_066_mvl/mxv
	BYTE	W03
	BYTE		        20*seq_066_mvl/mxv
	BYTE	W03
	BYTE		        77*seq_066_mvl/mxv
	BYTE		N40     An2   v108
	BYTE	W12
	BYTE		VOL     76*seq_066_mvl/mxv
	BYTE		BEND    c_v+3
	BYTE	W06
	BYTE		VOL     71*seq_066_mvl/mxv
	BYTE	W06
	BYTE		        66*seq_066_mvl/mxv
	BYTE	W06
	BYTE		        59*seq_066_mvl/mxv
	BYTE	W06
	BYTE		        48*seq_066_mvl/mxv
	BYTE	W03
	BYTE		        41*seq_066_mvl/mxv
	BYTE	W03
	BYTE		        29*seq_066_mvl/mxv
	BYTE	W01
	BYTE		        77*seq_066_mvl/mxv
	BYTE		BEND    c_v+0
	BYTE		N48     Bn2 
	BYTE	W05
	BYTE	W16
	BYTE		VOL     73*seq_066_mvl/mxv
	BYTE	W06
	BYTE		        70*seq_066_mvl/mxv
	BYTE	W06
	BYTE		        64*seq_066_mvl/mxv
	BYTE	W03
	BYTE		        57*seq_066_mvl/mxv
	BYTE	W03
	BYTE		        51*seq_066_mvl/mxv
	BYTE	W03
	BYTE		        40*seq_066_mvl/mxv
	BYTE	W03
	BYTE		        33*seq_066_mvl/mxv
	BYTE	W03
	BYTE		PAN     c_v+6
	BYTE		VOL     24*seq_066_mvl/mxv
	BYTE	W03
	BYTE		        14*seq_066_mvl/mxv
	BYTE	W03
	BYTE		        5*seq_066_mvl/mxv
	BYTE	W15
	BYTE		        77*seq_066_mvl/mxv
	BYTE	W24
	BYTE	W03
	BYTE		N44     Dn3   v068
	BYTE	W05
	BYTE	W12
	BYTE		VOL     76*seq_066_mvl/mxv
	BYTE	W06
	BYTE		        71*seq_066_mvl/mxv
	BYTE	W06
	BYTE		        66*seq_066_mvl/mxv
	BYTE	W06
	BYTE		        59*seq_066_mvl/mxv
	BYTE	W06
	BYTE		        48*seq_066_mvl/mxv
	BYTE	W03
	BYTE		        41*seq_066_mvl/mxv
	BYTE	W03
	BYTE		        29*seq_066_mvl/mxv
	BYTE	W01
	BYTE		        77*seq_066_mvl/mxv
	BYTE		N44     Bn2   v064
	BYTE	W17
	BYTE		VOL     76*seq_066_mvl/mxv
	BYTE	W06
	BYTE		        71*seq_066_mvl/mxv
	BYTE	W06
	BYTE		        66*seq_066_mvl/mxv
	BYTE	W06
	BYTE		        59*seq_066_mvl/mxv
	BYTE	W06
	BYTE		        48*seq_066_mvl/mxv
	BYTE	W03
	BYTE		        41*seq_066_mvl/mxv
	BYTE	W03
	BYTE		        29*seq_066_mvl/mxv
	BYTE	W01
	BYTE		        77*seq_066_mvl/mxv
	BYTE		N44     An2   v060
	BYTE	W05
	BYTE	PEND
	BYTE	W06
	BYTE		BEND    c_v+3
	BYTE	W06
	BYTE		VOL     76*seq_066_mvl/mxv
	BYTE	W06
	BYTE		        71*seq_066_mvl/mxv
	BYTE	W06
	BYTE		        66*seq_066_mvl/mxv
	BYTE	W06
	BYTE		        59*seq_066_mvl/mxv
	BYTE	W06
	BYTE		        48*seq_066_mvl/mxv
	BYTE	W03
	BYTE		        41*seq_066_mvl/mxv
	BYTE	W03
	BYTE		        29*seq_066_mvl/mxv
	BYTE	W01
	BYTE		        77*seq_066_mvl/mxv
	BYTE		BEND    c_v+0
	BYTE		N48     Gs2 
	BYTE	W21
	BYTE		VOL     73*seq_066_mvl/mxv
	BYTE	W06
	BYTE		        70*seq_066_mvl/mxv
	BYTE	W06
	BYTE		        64*seq_066_mvl/mxv
	BYTE	W03
	BYTE		        57*seq_066_mvl/mxv
	BYTE	W03
	BYTE		        51*seq_066_mvl/mxv
	BYTE	W03
	BYTE		        40*seq_066_mvl/mxv
	BYTE	W03
	BYTE		        33*seq_066_mvl/mxv
	BYTE	W03
	BYTE		PAN     c_v+6
	BYTE		VOL     24*seq_066_mvl/mxv
	BYTE	W01
	BYTE		PAN     c_v+6
	BYTE	W02
	BYTE		VOL     14*seq_066_mvl/mxv
	BYTE	W02
	BYTE	W01
	BYTE		VOL     5*seq_066_mvl/mxv
	BYTE	W15
	BYTE		        77*seq_066_mvl/mxv
	BYTE	W03
	BYTE		N23     Cs2   v092
	BYTE	W24
	BYTE		N48     Dn2   v080
	BYTE	W12
	BYTE		VOL     76*seq_066_mvl/mxv
	BYTE	W06
	BYTE		        71*seq_066_mvl/mxv
	BYTE	W06
	BYTE		        66*seq_066_mvl/mxv
	BYTE	W06
	BYTE		        59*seq_066_mvl/mxv
	BYTE	W06
	BYTE		        48*seq_066_mvl/mxv
	BYTE	W03
	BYTE		        41*seq_066_mvl/mxv
	BYTE	W03
	BYTE		        29*seq_066_mvl/mxv
	BYTE	W03
	BYTE		        20*seq_066_mvl/mxv
	BYTE	W07
	BYTE		PAN     c_v+6
	BYTE	W01
	BYTE	W07
	BYTE		VOL     77*seq_066_mvl/mxv
	BYTE	W12
	BYTE		N23     En2 
	BYTE	W24
	BYTE		N48     Fs2   v076
	BYTE	W12
	BYTE		VOL     76*seq_066_mvl/mxv
	BYTE	W06
	BYTE		        71*seq_066_mvl/mxv
	BYTE	W06
	BYTE		        66*seq_066_mvl/mxv
	BYTE	W06
	BYTE		        59*seq_066_mvl/mxv
	BYTE	W06
	BYTE		        48*seq_066_mvl/mxv
	BYTE	W03
	BYTE		        41*seq_066_mvl/mxv
	BYTE	W03
	BYTE		        29*seq_066_mvl/mxv
	BYTE	W03
	BYTE		        20*seq_066_mvl/mxv
	BYTE	W07
	BYTE		PAN     c_v+6
	BYTE	W01
	BYTE	W07
	BYTE		VOL     77*seq_066_mvl/mxv
	BYTE	W12
	BYTE		N23     Cs2 
	BYTE	W24
	BYTE		N48     Dn2   v072
	BYTE	W12
	BYTE		VOL     76*seq_066_mvl/mxv
	BYTE	W06
	BYTE		        71*seq_066_mvl/mxv
	BYTE	W06
	BYTE		        66*seq_066_mvl/mxv
	BYTE	W06
	BYTE		        59*seq_066_mvl/mxv
	BYTE	W06
	BYTE		        48*seq_066_mvl/mxv
	BYTE	W03
	BYTE		        41*seq_066_mvl/mxv
	BYTE	W03
	BYTE		        29*seq_066_mvl/mxv
	BYTE	W03
	BYTE		        20*seq_066_mvl/mxv
	BYTE	W07
	BYTE		PAN     c_v+6
	BYTE	W01
	BYTE	W07
	BYTE		VOL     77*seq_066_mvl/mxv
	BYTE	W12
	BYTE		N23     En2   v068
	BYTE	W24
	BYTE		N48     Fs2   v060
	BYTE	W12
	BYTE		VOL     76*seq_066_mvl/mxv
	BYTE	W06
	BYTE		        71*seq_066_mvl/mxv
	BYTE	W06
	BYTE		        66*seq_066_mvl/mxv
	BYTE	W06
	BYTE		        59*seq_066_mvl/mxv
	BYTE	W06
	BYTE		        48*seq_066_mvl/mxv
	BYTE	W03
	BYTE		        41*seq_066_mvl/mxv
	BYTE	W03
	BYTE		        29*seq_066_mvl/mxv
	BYTE	W03
	BYTE		        20*seq_066_mvl/mxv
	BYTE	W07
	BYTE		PAN     c_v+6
	BYTE	W01
	BYTE	W07
	BYTE		VOL     77*seq_066_mvl/mxv
	BYTE	W17
	BYTE		N22     An2   v080
	BYTE	W24
	BYTE		PAN     c_v+6
	BYTE	W48
	BYTE	PATT
	 POIN2	seq_066_2 + 0x80
	BYTE		PAN     c_v+6
	BYTE	W12
	BYTE		VOL     77*seq_066_mvl/mxv
	BYTE	W12
	BYTE		N22     An2   v076
	BYTE	W24
	BYTE		PAN     c_v+6
	BYTE	W42
	BYTE	W01
	BYTE		N24     Gs2   v088
	BYTE	W05
	BYTE	PEND
	BYTE	PATT
	 POIN2	seq_066_2 + 0xA9
	BYTE		PAN     c_v+6
	BYTE	W12
	BYTE		VOL     77*seq_066_mvl/mxv
	BYTE	W12
	BYTE		N22     An2   v088
	BYTE	W24
	BYTE		PAN     c_v+6
	BYTE	W48
	BYTE	PEND
	BYTE		N44     Fn2   v084
	BYTE	W12
	BYTE		VOL     76*seq_066_mvl/mxv
	BYTE	W06
	BYTE		        71*seq_066_mvl/mxv
	BYTE	W06
	BYTE		        66*seq_066_mvl/mxv
	BYTE	W06
	BYTE		        59*seq_066_mvl/mxv
	BYTE	W06
	BYTE		        48*seq_066_mvl/mxv
	BYTE	W03
	BYTE		        41*seq_066_mvl/mxv
	BYTE	W03
	BYTE		        29*seq_066_mvl/mxv
	BYTE	W03
	BYTE		        20*seq_066_mvl/mxv
	BYTE	W03
	BYTE		        77*seq_066_mvl/mxv
	BYTE		N44     Dn2   v072
	BYTE	W12
	BYTE		VOL     76*seq_066_mvl/mxv
	BYTE	W06
	BYTE		        71*seq_066_mvl/mxv
	BYTE	W06
	BYTE		        66*seq_066_mvl/mxv
	BYTE	W06
	BYTE		        59*seq_066_mvl/mxv
	BYTE	W06
	BYTE		        48*seq_066_mvl/mxv
	BYTE	W03
	BYTE		        41*seq_066_mvl/mxv
	BYTE	W03
	BYTE		        29*seq_066_mvl/mxv
	BYTE	W03
	BYTE		        20*seq_066_mvl/mxv
	BYTE	W02
	BYTE		PAN     c_v+6
	BYTE	W01
	BYTE	PATT
	 POIN2	seq_066_2 + 0xFF
	BYTE	W23
	BYTE		PAN     c_v+6
	BYTE	W01
	BYTE		N11     Bn1   v076
	BYTE	W12
	BYTE		        Dn2   v064
	BYTE	W12
	BYTE		N44     Cn2   v068
	BYTE	W10
	BYTE		VOL     73*seq_066_mvl/mxv
	BYTE	W06
	BYTE		        70*seq_066_mvl/mxv
	BYTE	W06
	BYTE		        64*seq_066_mvl/mxv
	BYTE	W03
	BYTE		        57*seq_066_mvl/mxv
	BYTE	W03
	BYTE		        51*seq_066_mvl/mxv
	BYTE	W03
	BYTE		        40*seq_066_mvl/mxv
	BYTE	W03
	BYTE		        33*seq_066_mvl/mxv
	BYTE	W03
	BYTE		        24*seq_066_mvl/mxv
	BYTE	W03
	BYTE		        14*seq_066_mvl/mxv
	BYTE	W03
	BYTE		        5*seq_066_mvl/mxv
	BYTE	W05
	BYTE		PAN     c_v+6
	BYTE	W10
	BYTE		VOL     77*seq_066_mvl/mxv
	BYTE	W14
	BYTE		N22     An2   v080
	BYTE	W24
	BYTE		PAN     c_v+6
	BYTE	W48
	BYTE	PATT
	 POIN2	seq_066_2 + 0x145
	BYTE	PATT
	 POIN2	seq_066_2 + 0x500
	BYTE	PATT
	 POIN2	seq_066_2 + 0xA9
	BYTE	PATT
	 POIN2	seq_066_2 + 0x518
	BYTE		N44     Fn2   v076
	BYTE	W12
	BYTE		VOL     76*seq_066_mvl/mxv
	BYTE	W06
	BYTE		        71*seq_066_mvl/mxv
	BYTE	W06
	BYTE		        66*seq_066_mvl/mxv
	BYTE	W06
	BYTE		        59*seq_066_mvl/mxv
	BYTE	W06
	BYTE		        48*seq_066_mvl/mxv
	BYTE	W03
	BYTE		        41*seq_066_mvl/mxv
	BYTE	W03
	BYTE		        29*seq_066_mvl/mxv
	BYTE	W03
	BYTE		        20*seq_066_mvl/mxv
	BYTE	W03
	BYTE		        77*seq_066_mvl/mxv
	BYTE		N44     Dn2   v072
	BYTE	W12
	BYTE		VOL     76*seq_066_mvl/mxv
	BYTE	W06
	BYTE		        71*seq_066_mvl/mxv
	BYTE	W06
	BYTE		        66*seq_066_mvl/mxv
	BYTE	W06
	BYTE		        59*seq_066_mvl/mxv
	BYTE	W06
	BYTE		        48*seq_066_mvl/mxv
	BYTE	W03
	BYTE		        41*seq_066_mvl/mxv
	BYTE	W03
	BYTE		        29*seq_066_mvl/mxv
	BYTE	W03
	BYTE		        20*seq_066_mvl/mxv
	BYTE	W02
	BYTE		PAN     c_v+6
	BYTE	W01
	BYTE		VOL     77*seq_066_mvl/mxv
	BYTE		N22     Dn2   v088
	BYTE	W24
	BYTE		        An2   v072
	BYTE	W24
	BYTE		        En2   v088
	BYTE	W24
	BYTE		N17     Dn2   v084
	BYTE	W19
	BYTE		PAN     c_v+6
	BYTE		N52     Cn2   v112
	BYTE	W05
	BYTE	W10
	BYTE		VOL     73*seq_066_mvl/mxv
	BYTE	W06
	BYTE		        70*seq_066_mvl/mxv
	BYTE	W06
	BYTE		        64*seq_066_mvl/mxv
	BYTE	W03
	BYTE		        57*seq_066_mvl/mxv
	BYTE	W03
	BYTE		        51*seq_066_mvl/mxv
	BYTE	W03
	BYTE		        40*seq_066_mvl/mxv
	BYTE	W03
	BYTE		        33*seq_066_mvl/mxv
	BYTE	W03
	BYTE		        24*seq_066_mvl/mxv
	BYTE	W03
	BYTE		        14*seq_066_mvl/mxv
	BYTE	W03
	BYTE		        5*seq_066_mvl/mxv
	BYTE	W05
	BYTE		PAN     c_v+6
	BYTE	W10
	BYTE		VOL     77*seq_066_mvl/mxv
	BYTE	W32
	BYTE	W01
	BYTE		N23     En2   v088
	BYTE	W05
	BYTE	W19
	BYTE		PAN     c_v+6
	BYTE		N23     En2   v084
	BYTE	W24
	BYTE		N48     Dn2 
	BYTE	W17
	BYTE		VOL     76*seq_066_mvl/mxv
	BYTE	W06
	BYTE		        71*seq_066_mvl/mxv
	BYTE	W06
	BYTE		        66*seq_066_mvl/mxv
	BYTE	W06
	BYTE		        59*seq_066_mvl/mxv
	BYTE	W06
	BYTE		        48*seq_066_mvl/mxv
	BYTE	W03
	BYTE		        41*seq_066_mvl/mxv
	BYTE	W03
	BYTE		        29*seq_066_mvl/mxv
	BYTE	W03
	BYTE		        20*seq_066_mvl/mxv
	BYTE	W02
	BYTE		PAN     c_v+6
	BYTE	W01
	BYTE		VOL     77*seq_066_mvl/mxv
	BYTE		N22     Dn2   v088
	BYTE	W23
	BYTE		PAN     c_v+6
	BYTE	W01
	BYTE		N09     Dn2   v096
	BYTE	W11
	BYTE		PAN     c_v+6
	BYTE	W01
	BYTE		N10     Dn2   v092
	BYTE	W12
	BYTE		N44     Cs2   v080
	BYTE	W12
	BYTE		VOL     76*seq_066_mvl/mxv
	BYTE	W06
	BYTE		        71*seq_066_mvl/mxv
	BYTE	W06
	BYTE		        66*seq_066_mvl/mxv
	BYTE	W06
	BYTE		        59*seq_066_mvl/mxv
	BYTE	W06
	BYTE		        48*seq_066_mvl/mxv
	BYTE	W03
	BYTE		        41*seq_066_mvl/mxv
	BYTE	W03
	BYTE		        29*seq_066_mvl/mxv
	BYTE	W03
	BYTE		        20*seq_066_mvl/mxv
	BYTE	W03
	BYTE		PAN     c_v+6
	BYTE	W09
	BYTE		VOL     77*seq_066_mvl/mxv
	BYTE	W15
	BYTE		N22     An2   v100
	BYTE	W24
	BYTE		N40     Fs2   v096
	BYTE	W12
	BYTE		VOL     76*seq_066_mvl/mxv
	BYTE	W06
	BYTE		        71*seq_066_mvl/mxv
	BYTE	W06
	BYTE		        66*seq_066_mvl/mxv
	BYTE	W06
	BYTE		        59*seq_066_mvl/mxv
	BYTE	W06
	BYTE		        48*seq_066_mvl/mxv
	BYTE	W03
	BYTE		        41*seq_066_mvl/mxv
	BYTE	W03
	BYTE		        29*seq_066_mvl/mxv
	BYTE	W01
	BYTE		        77*seq_066_mvl/mxv
	BYTE	W01
	BYTE		N48     An2   v084
	BYTE	W04
	BYTE	W03
	BYTE		BEND    c_v+3
	BYTE	W09
	BYTE		VOL     76*seq_066_mvl/mxv
	BYTE	W06
	BYTE		        71*seq_066_mvl/mxv
	BYTE	W06
	BYTE		        66*seq_066_mvl/mxv
	BYTE	W06
	BYTE		        59*seq_066_mvl/mxv
	BYTE	W06
	BYTE		        48*seq_066_mvl/mxv
	BYTE	W03
	BYTE		        41*seq_066_mvl/mxv
	BYTE	W03
	BYTE		        29*seq_066_mvl/mxv
	BYTE	W03
	BYTE		        20*seq_066_mvl/mxv
	BYTE		BEND    c_v+0
	BYTE	W03
	BYTE		VOL     77*seq_066_mvl/mxv
	BYTE		N44     Gs2   v048
	BYTE	W15
	BYTE		VOL     73*seq_066_mvl/mxv
	BYTE	W06
	BYTE		        70*seq_066_mvl/mxv
	BYTE	W06
	BYTE		        64*seq_066_mvl/mxv
	BYTE	W03
	BYTE		        57*seq_066_mvl/mxv
	BYTE	W03
	BYTE		        51*seq_066_mvl/mxv
	BYTE	W03
	BYTE		        40*seq_066_mvl/mxv
	BYTE	W03
	BYTE		        33*seq_066_mvl/mxv
	BYTE	W03
	BYTE		        24*seq_066_mvl/mxv
	BYTE	W03
	BYTE		        14*seq_066_mvl/mxv
	BYTE	W03
	BYTE		PAN     c_v+6
	BYTE		VOL     5*seq_066_mvl/mxv
	BYTE	W15
	BYTE		        77*seq_066_mvl/mxv
	BYTE	W09
	BYTE		N22     Fs2   v084
	BYTE	W24
	BYTE		N44     Dn2   v076
	BYTE	W12
	BYTE		VOL     76*seq_066_mvl/mxv
	BYTE	W06
	BYTE		        71*seq_066_mvl/mxv
	BYTE	W06
	BYTE		        66*seq_066_mvl/mxv
	BYTE	W06
	BYTE		        59*seq_066_mvl/mxv
	BYTE	W06
	BYTE		        48*seq_066_mvl/mxv
	BYTE	W03
	BYTE		        41*seq_066_mvl/mxv
	BYTE	W03
	BYTE		        29*seq_066_mvl/mxv
	BYTE	W03
	BYTE		        20*seq_066_mvl/mxv
	BYTE	W03
	BYTE		        77*seq_066_mvl/mxv
	BYTE		N44     An2   v084
	BYTE	W09
	BYTE		BEND    c_v+3
	BYTE	W03
	BYTE		VOL     76*seq_066_mvl/mxv
	BYTE	W06
	BYTE		        71*seq_066_mvl/mxv
	BYTE	W06
	BYTE		        66*seq_066_mvl/mxv
	BYTE	W06
	BYTE		        59*seq_066_mvl/mxv
	BYTE	W06
	BYTE		        48*seq_066_mvl/mxv
	BYTE	W03
	BYTE		        41*seq_066_mvl/mxv
	BYTE	W03
	BYTE		        29*seq_066_mvl/mxv
	BYTE	W03
	BYTE		        20*seq_066_mvl/mxv
	BYTE		BEND    c_v+0
	BYTE	W03
	BYTE		VOL     77*seq_066_mvl/mxv
	BYTE		N40     En2   v080
	BYTE	W12
	BYTE		VOL     76*seq_066_mvl/mxv
	BYTE	W06
	BYTE		        71*seq_066_mvl/mxv
	BYTE	W06
	BYTE		        66*seq_066_mvl/mxv
	BYTE	W06
	BYTE		        59*seq_066_mvl/mxv
	BYTE	W06
	BYTE		        48*seq_066_mvl/mxv
	BYTE	W03
	BYTE		        41*seq_066_mvl/mxv
	BYTE	W03
	BYTE		        29*seq_066_mvl/mxv
	BYTE	W01
	BYTE		        77*seq_066_mvl/mxv
	BYTE		N44     Dn2   v084
	BYTE	W05
	BYTE	W12
	BYTE		VOL     76*seq_066_mvl/mxv
	BYTE	W06
	BYTE		        71*seq_066_mvl/mxv
	BYTE	W06
	BYTE		        66*seq_066_mvl/mxv
	BYTE	W06
	BYTE		        59*seq_066_mvl/mxv
	BYTE	W06
	BYTE		        48*seq_066_mvl/mxv
	BYTE	W03
	BYTE		        41*seq_066_mvl/mxv
	BYTE	W03
	BYTE		        29*seq_066_mvl/mxv
	BYTE	W01
	BYTE		        77*seq_066_mvl/mxv
	BYTE		N44     Cs2   v076
	BYTE	W17
	BYTE		VOL     76*seq_066_mvl/mxv
	BYTE	W06
	BYTE		        71*seq_066_mvl/mxv
	BYTE	W06
	BYTE		        66*seq_066_mvl/mxv
	BYTE	W06
	BYTE		        59*seq_066_mvl/mxv
	BYTE	W06
	BYTE		        48*seq_066_mvl/mxv
	BYTE	W03
	BYTE		        41*seq_066_mvl/mxv
	BYTE	W03
	BYTE		        29*seq_066_mvl/mxv
	BYTE	W01
	BYTE		        77*seq_066_mvl/mxv
	BYTE	W01
	BYTE		N52     Dn2   v068
	BYTE	W04
	BYTE	W16
	BYTE		VOL     73*seq_066_mvl/mxv
	BYTE	W06
	BYTE		        70*seq_066_mvl/mxv
	BYTE	W06
	BYTE		        64*seq_066_mvl/mxv
	BYTE	W03
	BYTE		        57*seq_066_mvl/mxv
	BYTE	W03
	BYTE		        51*seq_066_mvl/mxv
	BYTE	W03
	BYTE		        40*seq_066_mvl/mxv
	BYTE	W03
	BYTE		        33*seq_066_mvl/mxv
	BYTE	W03
	BYTE		        24*seq_066_mvl/mxv
	BYTE	W03
	BYTE		        14*seq_066_mvl/mxv
	BYTE	W01
	BYTE		PAN     c_v+6
	BYTE	W02
	BYTE		VOL     5*seq_066_mvl/mxv
	BYTE	W15
	BYTE		        77*seq_066_mvl/mxv
	BYTE	W24
	BYTE	W03
	BYTE		N22     En2   v088
	BYTE	W05
	BYTE	W19
	BYTE		PAN     c_v+6
	BYTE		N22     En2   v084
	BYTE	W24
	BYTE		N48     Dn2 
	BYTE	W17
	BYTE		VOL     76*seq_066_mvl/mxv
	BYTE	W06
	BYTE		        71*seq_066_mvl/mxv
	BYTE	W06
	BYTE		        66*seq_066_mvl/mxv
	BYTE	W06
	BYTE		        59*seq_066_mvl/mxv
	BYTE	W06
	BYTE		        48*seq_066_mvl/mxv
	BYTE	W03
	BYTE		        41*seq_066_mvl/mxv
	BYTE	W03
	BYTE		        29*seq_066_mvl/mxv
	BYTE	W03
	BYTE		        20*seq_066_mvl/mxv
	BYTE	W02
	BYTE		PAN     c_v+6
	BYTE	W01
	BYTE		VOL     77*seq_066_mvl/mxv
	BYTE		N22     Dn2   v088
	BYTE	W23
	BYTE		PAN     c_v+6
	BYTE	W01
	BYTE		N10     Dn2   v096
	BYTE	W11
	BYTE		PAN     c_v+6
	BYTE	W01
	BYTE		N11     Dn2   v092
	BYTE	W12
	BYTE		N44     Cs2   v080
	BYTE	W12
	BYTE		VOL     76*seq_066_mvl/mxv
	BYTE	W06
	BYTE		        71*seq_066_mvl/mxv
	BYTE	W06
	BYTE		        66*seq_066_mvl/mxv
	BYTE	W06
	BYTE		        59*seq_066_mvl/mxv
	BYTE	W06
	BYTE		        48*seq_066_mvl/mxv
	BYTE	W03
	BYTE		        41*seq_066_mvl/mxv
	BYTE	W03
	BYTE		        29*seq_066_mvl/mxv
	BYTE	W03
	BYTE		        20*seq_066_mvl/mxv
	BYTE	W03
	BYTE		PAN     c_v+6
	BYTE	W09
	BYTE		VOL     77*seq_066_mvl/mxv
	BYTE	W15
	BYTE		N22     An2   v096
	BYTE	W24
	BYTE		N23     Bn2   v088
	BYTE	W24
	BYTE		N17     An2   v080
	BYTE	W19
	BYTE		N52     Gs2   v060
	BYTE	W05
	BYTE	W16
	BYTE		VOL     73*seq_066_mvl/mxv
	BYTE	W06
	BYTE		        70*seq_066_mvl/mxv
	BYTE	W06
	BYTE		        64*seq_066_mvl/mxv
	BYTE	W03
	BYTE		        57*seq_066_mvl/mxv
	BYTE	W03
	BYTE		        51*seq_066_mvl/mxv
	BYTE	W03
	BYTE		        40*seq_066_mvl/mxv
	BYTE	W03
	BYTE		        33*seq_066_mvl/mxv
	BYTE	W03
	BYTE		        24*seq_066_mvl/mxv
	BYTE	W03
	BYTE		        14*seq_066_mvl/mxv
	BYTE	W02
	BYTE		PAN     c_v+6
	BYTE	W01
	BYTE		VOL     5*seq_066_mvl/mxv
	BYTE	W15
	BYTE		        77*seq_066_mvl/mxv
	BYTE	W32
	BYTE		N22     En2   v084
	BYTE	W23
	BYTE		PAN     c_v+6
	BYTE	W01
	BYTE		N22     En2   v080
	BYTE	W24
	BYTE		N44     Dn2   v068
	BYTE	W12
	BYTE		VOL     76*seq_066_mvl/mxv
	BYTE	W06
	BYTE		        71*seq_066_mvl/mxv
	BYTE	W06
	BYTE		        66*seq_066_mvl/mxv
	BYTE	W06
	BYTE		        59*seq_066_mvl/mxv
	BYTE	W06
	BYTE		        48*seq_066_mvl/mxv
	BYTE	W03
	BYTE		        41*seq_066_mvl/mxv
	BYTE	W03
	BYTE		        29*seq_066_mvl/mxv
	BYTE	W03
	BYTE		        20*seq_066_mvl/mxv
	BYTE	W03
	BYTE	PATT
	 POIN2	seq_066_2 + 0x3A1
	BYTE		VOL     77*seq_066_mvl/mxv
	BYTE		N44     Fs2   v100
	BYTE	W12
	BYTE		VOL     76*seq_066_mvl/mxv
	BYTE	W06
	BYTE		        71*seq_066_mvl/mxv
	BYTE	W06
	BYTE		        66*seq_066_mvl/mxv
	BYTE	W06
	BYTE		        59*seq_066_mvl/mxv
	BYTE	W06
	BYTE		        48*seq_066_mvl/mxv
	BYTE	W03
	BYTE		        41*seq_066_mvl/mxv
	BYTE	W03
	BYTE		        29*seq_066_mvl/mxv
	BYTE	W03
	BYTE		        20*seq_066_mvl/mxv
	BYTE	W03
	BYTE		        77*seq_066_mvl/mxv
	BYTE		N40     An2   v108
	BYTE	W09
	BYTE		BEND    c_v+3
	BYTE	W03
	BYTE		VOL     76*seq_066_mvl/mxv
	BYTE	W06
	BYTE		        71*seq_066_mvl/mxv
	BYTE	W06
	BYTE		        66*seq_066_mvl/mxv
	BYTE	W06
	BYTE		        59*seq_066_mvl/mxv
	BYTE	W06
	BYTE		        48*seq_066_mvl/mxv
	BYTE	W03
	BYTE		        41*seq_066_mvl/mxv
	BYTE	W01
	BYTE		BEND    c_v+0
	BYTE	W02
	BYTE		VOL     29*seq_066_mvl/mxv
	BYTE	W01
	BYTE		        77*seq_066_mvl/mxv
	BYTE		N48     Bn2 
	BYTE	W05
	BYTE	W16
	BYTE		VOL     73*seq_066_mvl/mxv
	BYTE	W06
	BYTE		        70*seq_066_mvl/mxv
	BYTE	W06
	BYTE		        64*seq_066_mvl/mxv
	BYTE	W03
	BYTE		        57*seq_066_mvl/mxv
	BYTE	W03
	BYTE		        51*seq_066_mvl/mxv
	BYTE	W03
	BYTE		        40*seq_066_mvl/mxv
	BYTE	W03
	BYTE		        33*seq_066_mvl/mxv
	BYTE	W03
	BYTE		PAN     c_v+6
	BYTE		VOL     24*seq_066_mvl/mxv
	BYTE	W03
	BYTE		        14*seq_066_mvl/mxv
	BYTE	W03
	BYTE		        5*seq_066_mvl/mxv
	BYTE	W15
	BYTE		        77*seq_066_mvl/mxv
	BYTE	W24
	BYTE	W03
	BYTE		N44     Dn3   v068
	BYTE	W05
	BYTE	PATT
	 POIN2	seq_066_2 + 0x413
	BYTE	W03
	BYTE		BEND    c_v+3
	BYTE	W09
	BYTE		VOL     76*seq_066_mvl/mxv
	BYTE	W06
	BYTE		        71*seq_066_mvl/mxv
	BYTE	W06
	BYTE		        66*seq_066_mvl/mxv
	BYTE	W06
	BYTE		        59*seq_066_mvl/mxv
	BYTE	W06
	BYTE		        48*seq_066_mvl/mxv
	BYTE	W03
	BYTE		        41*seq_066_mvl/mxv
	BYTE	W01
	BYTE		BEND    c_v+0
	BYTE	W02
	BYTE		VOL     29*seq_066_mvl/mxv
	BYTE	W01
	BYTE		        77*seq_066_mvl/mxv
	BYTE		N48     Gs2   v060
	BYTE	W21
	BYTE		VOL     73*seq_066_mvl/mxv
	BYTE	W06
	BYTE		        70*seq_066_mvl/mxv
	BYTE	W06
	BYTE		        64*seq_066_mvl/mxv
	BYTE	W03
	BYTE		        57*seq_066_mvl/mxv
	BYTE	W03
	BYTE		        51*seq_066_mvl/mxv
	BYTE	W03
	BYTE		        40*seq_066_mvl/mxv
	BYTE	W03
	BYTE		        33*seq_066_mvl/mxv
	BYTE	W03
	BYTE		PAN     c_v+6
	BYTE		VOL     24*seq_066_mvl/mxv
	BYTE	W03
	BYTE		        14*seq_066_mvl/mxv
	BYTE	W02
	BYTE	GoTo
	 POIN2	seq_066_2 + 0x470
	BYTE	W01
	BYTE		VOL     5*seq_066_mvl/mxv
	BYTE	W06
	BYTE	FINE

//*********************** Track 04 ***********************//

seq_066_3:
	BYTE	KEYSH   seq_066_key+0
	BYTE		VOICE   83
	BYTE	W01
	BYTE		VOL     77*seq_066_mvl/mxv
	BYTE	W01
	BYTE		PAN     c_v-7
	BYTE	W01
	BYTE		N48     An1   v116
	BYTE	W12
	BYTE		VOL     73*seq_066_mvl/mxv
	BYTE	W06
	BYTE		        70*seq_066_mvl/mxv
	BYTE	W06
	BYTE		        64*seq_066_mvl/mxv
	BYTE	W03
	BYTE		        57*seq_066_mvl/mxv
	BYTE	W03
	BYTE		        51*seq_066_mvl/mxv
	BYTE	W03
	BYTE		        40*seq_066_mvl/mxv
	BYTE	W03
	BYTE		        33*seq_066_mvl/mxv
	BYTE	W03
	BYTE		        24*seq_066_mvl/mxv
	BYTE	W03
	BYTE		        14*seq_066_mvl/mxv
	BYTE	W03
	BYTE		        5*seq_066_mvl/mxv
	BYTE	W15
	BYTE		        77*seq_066_mvl/mxv
	BYTE	W36
	BYTE		N48     An1   v112
	BYTE	W12
	BYTE		VOL     73*seq_066_mvl/mxv
	BYTE	W06
	BYTE		        70*seq_066_mvl/mxv
	BYTE	W06
	BYTE		        64*seq_066_mvl/mxv
	BYTE	W03
	BYTE		        57*seq_066_mvl/mxv
	BYTE	W03
	BYTE		        51*seq_066_mvl/mxv
	BYTE	W03
	BYTE		        40*seq_066_mvl/mxv
	BYTE	W03
	BYTE		        33*seq_066_mvl/mxv
	BYTE	W03
	BYTE		        24*seq_066_mvl/mxv
	BYTE	W03
	BYTE		        14*seq_066_mvl/mxv
	BYTE	W03
	BYTE		        5*seq_066_mvl/mxv
	BYTE	W15
	BYTE		        77*seq_066_mvl/mxv
	BYTE	W36
	BYTE	PEND
	BYTE		N48     An1   v100
	BYTE	W12
	BYTE		VOL     73*seq_066_mvl/mxv
	BYTE	W06
	BYTE		        70*seq_066_mvl/mxv
	BYTE	W06
	BYTE		        64*seq_066_mvl/mxv
	BYTE	W03
	BYTE		        57*seq_066_mvl/mxv
	BYTE	W03
	BYTE		        51*seq_066_mvl/mxv
	BYTE	W03
	BYTE		        40*seq_066_mvl/mxv
	BYTE	W03
	BYTE		        33*seq_066_mvl/mxv
	BYTE	W03
	BYTE		        24*seq_066_mvl/mxv
	BYTE	W03
	BYTE		        14*seq_066_mvl/mxv
	BYTE	W03
	BYTE		        5*seq_066_mvl/mxv
	BYTE	W15
	BYTE		        77*seq_066_mvl/mxv
	BYTE	W36
	BYTE	PEND
	BYTE		N48     An1   v096
	BYTE	W12
	BYTE		VOL     73*seq_066_mvl/mxv
	BYTE	W06
	BYTE		        70*seq_066_mvl/mxv
	BYTE	W06
	BYTE		        64*seq_066_mvl/mxv
	BYTE	W03
	BYTE		        57*seq_066_mvl/mxv
	BYTE	W03
	BYTE		        51*seq_066_mvl/mxv
	BYTE	W03
	BYTE		        40*seq_066_mvl/mxv
	BYTE	W03
	BYTE		        33*seq_066_mvl/mxv
	BYTE	W03
	BYTE		        24*seq_066_mvl/mxv
	BYTE	W03
	BYTE		        14*seq_066_mvl/mxv
	BYTE	W03
	BYTE		        5*seq_066_mvl/mxv
	BYTE	W15
	BYTE		        77*seq_066_mvl/mxv
	BYTE	W36
	BYTE	PEND
	BYTE		N44     An1   v116
	BYTE	W12
	BYTE		VOL     76*seq_066_mvl/mxv
	BYTE	W06
	BYTE		        71*seq_066_mvl/mxv
	BYTE	W06
	BYTE		        66*seq_066_mvl/mxv
	BYTE	W06
	BYTE		        59*seq_066_mvl/mxv
	BYTE	W06
	BYTE		        48*seq_066_mvl/mxv
	BYTE	W03
	BYTE		        41*seq_066_mvl/mxv
	BYTE	W03
	BYTE		        29*seq_066_mvl/mxv
	BYTE	W03
	BYTE		        20*seq_066_mvl/mxv
	BYTE	W03
	BYTE		        77*seq_066_mvl/mxv
	BYTE		N44     Dn2   v100
	BYTE	W12
	BYTE		VOL     76*seq_066_mvl/mxv
	BYTE	W06
	BYTE		        71*seq_066_mvl/mxv
	BYTE	W06
	BYTE		        66*seq_066_mvl/mxv
	BYTE	W06
	BYTE		        59*seq_066_mvl/mxv
	BYTE	W06
	BYTE		        48*seq_066_mvl/mxv
	BYTE	W03
	BYTE		        41*seq_066_mvl/mxv
	BYTE	W03
	BYTE		        29*seq_066_mvl/mxv
	BYTE	W03
	BYTE		        20*seq_066_mvl/mxv
	BYTE	W03
	BYTE	PEND
	BYTE		VOL     77*seq_066_mvl/mxv
	BYTE		N48     An1   v112
	BYTE	W12
	BYTE		VOL     73*seq_066_mvl/mxv
	BYTE	W06
	BYTE		        70*seq_066_mvl/mxv
	BYTE	W06
	BYTE		        64*seq_066_mvl/mxv
	BYTE	W03
	BYTE		        57*seq_066_mvl/mxv
	BYTE	W03
	BYTE		        51*seq_066_mvl/mxv
	BYTE	W03
	BYTE		        40*seq_066_mvl/mxv
	BYTE	W03
	BYTE		        33*seq_066_mvl/mxv
	BYTE	W03
	BYTE		        24*seq_066_mvl/mxv
	BYTE	W03
	BYTE		        14*seq_066_mvl/mxv
	BYTE	W03
	BYTE		        5*seq_066_mvl/mxv
	BYTE	W15
	BYTE		        77*seq_066_mvl/mxv
	BYTE	W36
	BYTE	PEND
	BYTE		N44     An1   v112
	BYTE	W12
	BYTE		VOL     76*seq_066_mvl/mxv
	BYTE	W06
	BYTE		        71*seq_066_mvl/mxv
	BYTE	W06
	BYTE		        66*seq_066_mvl/mxv
	BYTE	W06
	BYTE		        59*seq_066_mvl/mxv
	BYTE	W06
	BYTE		        48*seq_066_mvl/mxv
	BYTE	W03
	BYTE		        41*seq_066_mvl/mxv
	BYTE	W03
	BYTE		        29*seq_066_mvl/mxv
	BYTE	W03
	BYTE		        20*seq_066_mvl/mxv
	BYTE	W03
	BYTE		        77*seq_066_mvl/mxv
	BYTE		N36     Dn2   v100
	BYTE	W12
	BYTE		VOL     76*seq_066_mvl/mxv
	BYTE	W06
	BYTE		        71*seq_066_mvl/mxv
	BYTE	W06
	BYTE		        66*seq_066_mvl/mxv
	BYTE	W06
	BYTE		        59*seq_066_mvl/mxv
	BYTE	W06
	BYTE		        48*seq_066_mvl/mxv
	BYTE	W03
	BYTE		        41*seq_066_mvl/mxv
	BYTE	W05
	BYTE		        77*seq_066_mvl/mxv
	BYTE		N48     En1   v116
	BYTE	W04
	BYTE	PEND
	BYTE	W07
	BYTE		VOL     73*seq_066_mvl/mxv
	BYTE	W06
	BYTE		        70*seq_066_mvl/mxv
	BYTE	W06
	BYTE		        64*seq_066_mvl/mxv
	BYTE	W03
	BYTE		        57*seq_066_mvl/mxv
	BYTE	W03
	BYTE		        51*seq_066_mvl/mxv
	BYTE	W03
	BYTE		        40*seq_066_mvl/mxv
	BYTE	W03
	BYTE		        33*seq_066_mvl/mxv
	BYTE	W03
	BYTE		        24*seq_066_mvl/mxv
	BYTE	W03
	BYTE		        14*seq_066_mvl/mxv
	BYTE	W03
	BYTE		        5*seq_066_mvl/mxv
	BYTE	W20
	BYTE		        77*seq_066_mvl/mxv
	BYTE	W36
	BYTE	PEND
	BYTE		N44     An1   v120
	BYTE	W12
	BYTE		VOL     76*seq_066_mvl/mxv
	BYTE	W06
	BYTE		        71*seq_066_mvl/mxv
	BYTE	W06
	BYTE		        66*seq_066_mvl/mxv
	BYTE	W06
	BYTE		        59*seq_066_mvl/mxv
	BYTE	W06
	BYTE		        48*seq_066_mvl/mxv
	BYTE	W03
	BYTE		        41*seq_066_mvl/mxv
	BYTE	W03
	BYTE		        29*seq_066_mvl/mxv
	BYTE	W03
	BYTE		        20*seq_066_mvl/mxv
	BYTE	W03
	BYTE		        77*seq_066_mvl/mxv
	BYTE		N44     Dn2   v116
	BYTE	W12
	BYTE		VOL     76*seq_066_mvl/mxv
	BYTE	W06
	BYTE		        71*seq_066_mvl/mxv
	BYTE	W06
	BYTE		        66*seq_066_mvl/mxv
	BYTE	W06
	BYTE		        59*seq_066_mvl/mxv
	BYTE	W06
	BYTE		        48*seq_066_mvl/mxv
	BYTE	W03
	BYTE		        41*seq_066_mvl/mxv
	BYTE	W03
	BYTE		        29*seq_066_mvl/mxv
	BYTE	W03
	BYTE		        20*seq_066_mvl/mxv
	BYTE	W03
	BYTE	PEND
	BYTE		VOL     77*seq_066_mvl/mxv
	BYTE		N11     Fn1   v120
	BYTE	W12
	BYTE		        Gn1   v116
	BYTE	W12
	BYTE		        An1   v124
	BYTE	W12
	BYTE		        Bn1   v120
	BYTE	W12
	BYTE		N23     Cn2   v116
	BYTE	W24
	BYTE		N11     Fn1 
	BYTE	W12
	BYTE		        En1 
	BYTE	W12
	BYTE	PEND
	BYTE		N32     Dn1   v120
	BYTE	W12
	BYTE		VOL     73*seq_066_mvl/mxv
	BYTE	W06
	BYTE		        64*seq_066_mvl/mxv
	BYTE	W06
	BYTE		        57*seq_066_mvl/mxv
	BYTE	W03
	BYTE		        49*seq_066_mvl/mxv
	BYTE	W03
	BYTE		        39*seq_066_mvl/mxv
	BYTE	W03
	BYTE		        31*seq_066_mvl/mxv
	BYTE	W03
	BYTE		        77*seq_066_mvl/mxv
	BYTE		N10     Ds1   v124
	BYTE	W12
	BYTE		N22     En1 
	BYTE	W24
	BYTE		N19     Bn1   v096
	BYTE	W20
	BYTE		N48     An1   v112
	BYTE	W04
	BYTE	PEND
	BYTE	PATT
	 POIN2	seq_066_3 + 0xF1
	BYTE		N44     An1   v116
	BYTE	W12
	BYTE		VOL     76*seq_066_mvl/mxv
	BYTE	W06
	BYTE		        71*seq_066_mvl/mxv
	BYTE	W06
	BYTE		        66*seq_066_mvl/mxv
	BYTE	W06
	BYTE		        59*seq_066_mvl/mxv
	BYTE	W06
	BYTE		        48*seq_066_mvl/mxv
	BYTE	W03
	BYTE		        41*seq_066_mvl/mxv
	BYTE	W03
	BYTE		        29*seq_066_mvl/mxv
	BYTE	W03
	BYTE		        20*seq_066_mvl/mxv
	BYTE	W03
	BYTE		        77*seq_066_mvl/mxv
	BYTE		N44     Dn2   v112
	BYTE	W12
	BYTE		VOL     76*seq_066_mvl/mxv
	BYTE	W06
	BYTE		        71*seq_066_mvl/mxv
	BYTE	W06
	BYTE		        66*seq_066_mvl/mxv
	BYTE	W06
	BYTE		        59*seq_066_mvl/mxv
	BYTE	W06
	BYTE		        48*seq_066_mvl/mxv
	BYTE	W03
	BYTE		        41*seq_066_mvl/mxv
	BYTE	W03
	BYTE		        29*seq_066_mvl/mxv
	BYTE	W03
	BYTE		        20*seq_066_mvl/mxv
	BYTE	W03
	BYTE	PEND
	BYTE	PATT
	 POIN2	seq_066_3 + 0xA6
	BYTE		N44     An1   v116
	BYTE	W12
	BYTE		VOL     76*seq_066_mvl/mxv
	BYTE	W06
	BYTE		        71*seq_066_mvl/mxv
	BYTE	W06
	BYTE		        66*seq_066_mvl/mxv
	BYTE	W06
	BYTE		        59*seq_066_mvl/mxv
	BYTE	W06
	BYTE		        48*seq_066_mvl/mxv
	BYTE	W03
	BYTE		        41*seq_066_mvl/mxv
	BYTE	W03
	BYTE		        29*seq_066_mvl/mxv
	BYTE	W03
	BYTE		        20*seq_066_mvl/mxv
	BYTE	W03
	BYTE		        77*seq_066_mvl/mxv
	BYTE		N36     Dn2   v104
	BYTE	W12
	BYTE		VOL     76*seq_066_mvl/mxv
	BYTE	W06
	BYTE		        71*seq_066_mvl/mxv
	BYTE	W06
	BYTE		        66*seq_066_mvl/mxv
	BYTE	W06
	BYTE		        59*seq_066_mvl/mxv
	BYTE	W06
	BYTE		        48*seq_066_mvl/mxv
	BYTE	W03
	BYTE		        41*seq_066_mvl/mxv
	BYTE	W05
	BYTE		        77*seq_066_mvl/mxv
	BYTE		N48     En1   v116
	BYTE	W04
	BYTE	PEND
	BYTE	PATT
	 POIN2	seq_066_3 + 0xF1
	BYTE	PATT
	 POIN2	seq_066_3 + 0x10A
	BYTE		VOL     77*seq_066_mvl/mxv
	BYTE		N12     Fn1   v124
	BYTE	W12
	BYTE		N11     Gn1   v120
	BYTE	W12
	BYTE		        An1   v124
	BYTE	W12
	BYTE		        Bn1   v120
	BYTE	W12
	BYTE		N23     Cn2   v116
	BYTE	W24
	BYTE		N11     Fn1 
	BYTE	W12
	BYTE		N10     En1 
	BYTE	W12
	BYTE		N32     Dn1   v124
	BYTE	W12
	BYTE		VOL     73*seq_066_mvl/mxv
	BYTE	W06
	BYTE		        64*seq_066_mvl/mxv
	BYTE	W06
	BYTE		        57*seq_066_mvl/mxv
	BYTE	W03
	BYTE		        49*seq_066_mvl/mxv
	BYTE	W03
	BYTE		        39*seq_066_mvl/mxv
	BYTE	W03
	BYTE		        31*seq_066_mvl/mxv
	BYTE	W03
	BYTE		        77*seq_066_mvl/mxv
	BYTE		N10     Ds1 
	BYTE	W12
	BYTE		N22     En1 
	BYTE	W24
	BYTE		N16     Bn1   v112
	BYTE	W18
	BYTE		N56     Fn1   v127
	BYTE	W06
	BYTE	W07
	BYTE		VOL     73*seq_066_mvl/mxv
	BYTE	W06
	BYTE		        70*seq_066_mvl/mxv
	BYTE	W06
	BYTE		        64*seq_066_mvl/mxv
	BYTE	W03
	BYTE		        57*seq_066_mvl/mxv
	BYTE	W03
	BYTE		        51*seq_066_mvl/mxv
	BYTE	W03
	BYTE		        40*seq_066_mvl/mxv
	BYTE	W03
	BYTE		        33*seq_066_mvl/mxv
	BYTE	W03
	BYTE		        24*seq_066_mvl/mxv
	BYTE	W03
	BYTE		        14*seq_066_mvl/mxv
	BYTE	W03
	BYTE		        5*seq_066_mvl/mxv
	BYTE	W20
	BYTE		        77*seq_066_mvl/mxv
	BYTE	W32
	BYTE		N23     An1   v124
	BYTE	W04
	BYTE	PEND
	BYTE	W20
	BYTE		N23     Gs1   v116
	BYTE	W24
	BYTE		N48     An1   v120
	BYTE	W16
	BYTE		VOL     76*seq_066_mvl/mxv
	BYTE	W06
	BYTE		        71*seq_066_mvl/mxv
	BYTE	W06
	BYTE		        66*seq_066_mvl/mxv
	BYTE	W06
	BYTE		        59*seq_066_mvl/mxv
	BYTE	W06
	BYTE		        48*seq_066_mvl/mxv
	BYTE	W03
	BYTE		        41*seq_066_mvl/mxv
	BYTE	W03
	BYTE		        29*seq_066_mvl/mxv
	BYTE	W03
	BYTE		        20*seq_066_mvl/mxv
	BYTE	W03
	BYTE	PEND
	BYTE		VOL     77*seq_066_mvl/mxv
	BYTE		N22     Gs1   v116
	BYTE	W24
	BYTE		        En1   v112
	BYTE	W24
	BYTE		N44     An1   v104
	BYTE	W12
	BYTE		VOL     76*seq_066_mvl/mxv
	BYTE	W06
	BYTE		        71*seq_066_mvl/mxv
	BYTE	W06
	BYTE		        66*seq_066_mvl/mxv
	BYTE	W06
	BYTE		        59*seq_066_mvl/mxv
	BYTE	W06
	BYTE		        48*seq_066_mvl/mxv
	BYTE	W03
	BYTE		        41*seq_066_mvl/mxv
	BYTE	W03
	BYTE		        29*seq_066_mvl/mxv
	BYTE	W03
	BYTE		        20*seq_066_mvl/mxv
	BYTE	W03
	BYTE	PEND
	BYTE		VOL     77*seq_066_mvl/mxv
	BYTE		N24     An1   v120
	BYTE	W24
	BYTE		N22     En2   v112
	BYTE	W24
	BYTE		N40     Ds2 
	BYTE	W12
	BYTE		VOL     76*seq_066_mvl/mxv
	BYTE	W06
	BYTE		        71*seq_066_mvl/mxv
	BYTE	W06
	BYTE		        66*seq_066_mvl/mxv
	BYTE	W06
	BYTE		        59*seq_066_mvl/mxv
	BYTE	W06
	BYTE		        48*seq_066_mvl/mxv
	BYTE	W03
	BYTE		        41*seq_066_mvl/mxv
	BYTE	W03
	BYTE		        29*seq_066_mvl/mxv
	BYTE		N28     En2   v104
	BYTE	W01
	BYTE		VOL     77*seq_066_mvl/mxv
	BYTE	W05
	BYTE	PEND
	BYTE	W24
	BYTE		N23     Bn1   v100
	BYTE	W24
	BYTE		N48     En1 
	BYTE	W12
	BYTE		VOL     76*seq_066_mvl/mxv
	BYTE	W06
	BYTE		        71*seq_066_mvl/mxv
	BYTE	W06
	BYTE		        66*seq_066_mvl/mxv
	BYTE	W06
	BYTE		        59*seq_066_mvl/mxv
	BYTE	W06
	BYTE		        48*seq_066_mvl/mxv
	BYTE	W03
	BYTE		        41*seq_066_mvl/mxv
	BYTE	W03
	BYTE		        29*seq_066_mvl/mxv
	BYTE	W03
	BYTE		        20*seq_066_mvl/mxv
	BYTE	W03
	BYTE	PEND
	BYTE		VOL     77*seq_066_mvl/mxv
	BYTE		N44     Dn2   v108
	BYTE	W12
	BYTE		VOL     76*seq_066_mvl/mxv
	BYTE	W06
	BYTE		        71*seq_066_mvl/mxv
	BYTE	W06
	BYTE		        66*seq_066_mvl/mxv
	BYTE	W06
	BYTE		        59*seq_066_mvl/mxv
	BYTE	W06
	BYTE		        48*seq_066_mvl/mxv
	BYTE	W03
	BYTE		        41*seq_066_mvl/mxv
	BYTE	W03
	BYTE		        29*seq_066_mvl/mxv
	BYTE	W03
	BYTE		        20*seq_066_mvl/mxv
	BYTE	W03
	BYTE		        77*seq_066_mvl/mxv
	BYTE		N44     En1   v116
	BYTE	W12
	BYTE		VOL     76*seq_066_mvl/mxv
	BYTE	W06
	BYTE		        71*seq_066_mvl/mxv
	BYTE	W06
	BYTE		        66*seq_066_mvl/mxv
	BYTE	W06
	BYTE		        59*seq_066_mvl/mxv
	BYTE	W06
	BYTE		        48*seq_066_mvl/mxv
	BYTE	W03
	BYTE		        41*seq_066_mvl/mxv
	BYTE	W03
	BYTE		        29*seq_066_mvl/mxv
	BYTE	W03
	BYTE		        20*seq_066_mvl/mxv
	BYTE	W03
	BYTE	PEND
	BYTE		        77*seq_066_mvl/mxv
	BYTE		N23     An1   v112
	BYTE	W24
	BYTE		N22     Gs1   v127
	BYTE	W24
	BYTE		N36     Fs1   v124
	BYTE	W12
	BYTE		VOL     76*seq_066_mvl/mxv
	BYTE	W06
	BYTE		        71*seq_066_mvl/mxv
	BYTE	W06
	BYTE		        66*seq_066_mvl/mxv
	BYTE	W06
	BYTE		        59*seq_066_mvl/mxv
	BYTE	W06
	BYTE		        48*seq_066_mvl/mxv
	BYTE	W03
	BYTE		        41*seq_066_mvl/mxv
	BYTE	W03
	BYTE		        77*seq_066_mvl/mxv
	BYTE		N44     Bn1   v108
	BYTE	W06
	BYTE	W10
	BYTE		VOL     76*seq_066_mvl/mxv
	BYTE	W06
	BYTE		        71*seq_066_mvl/mxv
	BYTE	W06
	BYTE		        66*seq_066_mvl/mxv
	BYTE	W06
	BYTE		        59*seq_066_mvl/mxv
	BYTE	W06
	BYTE		        48*seq_066_mvl/mxv
	BYTE	W03
	BYTE		        41*seq_066_mvl/mxv
	BYTE	W03
	BYTE		        29*seq_066_mvl/mxv
	BYTE	W02
	BYTE		        77*seq_066_mvl/mxv
	BYTE		N44     An1   v100
	BYTE	W16
	BYTE		VOL     76*seq_066_mvl/mxv
	BYTE	W06
	BYTE		        71*seq_066_mvl/mxv
	BYTE	W06
	BYTE		        66*seq_066_mvl/mxv
	BYTE	W06
	BYTE		        59*seq_066_mvl/mxv
	BYTE	W06
	BYTE		        48*seq_066_mvl/mxv
	BYTE	W03
	BYTE		        41*seq_066_mvl/mxv
	BYTE	W03
	BYTE		        29*seq_066_mvl/mxv
	BYTE		N56     En1   v112
	BYTE	W02
	BYTE		VOL     77*seq_066_mvl/mxv
	BYTE	W06
	BYTE	W05
	BYTE		        73*seq_066_mvl/mxv
	BYTE	W06
	BYTE		        70*seq_066_mvl/mxv
	BYTE	W06
	BYTE		        64*seq_066_mvl/mxv
	BYTE	W03
	BYTE		        57*seq_066_mvl/mxv
	BYTE	W03
	BYTE		        51*seq_066_mvl/mxv
	BYTE	W03
	BYTE		        40*seq_066_mvl/mxv
	BYTE	W03
	BYTE		        33*seq_066_mvl/mxv
	BYTE	W03
	BYTE		        24*seq_066_mvl/mxv
	BYTE	W03
	BYTE		        14*seq_066_mvl/mxv
	BYTE	W03
	BYTE		        5*seq_066_mvl/mxv
	BYTE	W20
	BYTE		        77*seq_066_mvl/mxv
	BYTE	W32
	BYTE	W02
	BYTE		N24     An1   v124
	BYTE	W04
	BYTE	W20
	BYTE		N22     Gs1   v116
	BYTE	W24
	BYTE		N48     An1   v120
	BYTE	W16
	BYTE		VOL     76*seq_066_mvl/mxv
	BYTE	W06
	BYTE		        71*seq_066_mvl/mxv
	BYTE	W06
	BYTE		        66*seq_066_mvl/mxv
	BYTE	W06
	BYTE		        59*seq_066_mvl/mxv
	BYTE	W06
	BYTE		        48*seq_066_mvl/mxv
	BYTE	W03
	BYTE		        41*seq_066_mvl/mxv
	BYTE	W03
	BYTE		        29*seq_066_mvl/mxv
	BYTE	W03
	BYTE		        20*seq_066_mvl/mxv
	BYTE	W03
	BYTE	PEND
	BYTE	PATT
	 POIN2	seq_066_3 + 0x250
	BYTE		VOL     77*seq_066_mvl/mxv
	BYTE		N44     An1   v124
	BYTE	W12
	BYTE		VOL     76*seq_066_mvl/mxv
	BYTE	W06
	BYTE		        71*seq_066_mvl/mxv
	BYTE	W06
	BYTE		        66*seq_066_mvl/mxv
	BYTE	W06
	BYTE		        59*seq_066_mvl/mxv
	BYTE	W06
	BYTE		        48*seq_066_mvl/mxv
	BYTE	W03
	BYTE		        41*seq_066_mvl/mxv
	BYTE	W03
	BYTE		        29*seq_066_mvl/mxv
	BYTE	W03
	BYTE		        20*seq_066_mvl/mxv
	BYTE	W03
	BYTE		        77*seq_066_mvl/mxv
	BYTE		N36
	BYTE	W12
	BYTE		VOL     76*seq_066_mvl/mxv
	BYTE	W06
	BYTE		        71*seq_066_mvl/mxv
	BYTE	W06
	BYTE		        66*seq_066_mvl/mxv
	BYTE	W06
	BYTE		        59*seq_066_mvl/mxv
	BYTE	W06
	BYTE		        48*seq_066_mvl/mxv
	BYTE	W03
	BYTE		        41*seq_066_mvl/mxv
	BYTE	W03
	BYTE		N56     En1   v104
	BYTE	W02
	BYTE		VOL     77*seq_066_mvl/mxv
	BYTE	W04
	BYTE	PATT
	 POIN2	seq_066_3 + 0xF1
	BYTE		N44     Fs1   v120
	BYTE	W12
	BYTE		VOL     76*seq_066_mvl/mxv
	BYTE	W06
	BYTE		        71*seq_066_mvl/mxv
	BYTE	W06
	BYTE		        66*seq_066_mvl/mxv
	BYTE	W06
	BYTE		        59*seq_066_mvl/mxv
	BYTE	W06
	BYTE		        48*seq_066_mvl/mxv
	BYTE	W03
	BYTE		        41*seq_066_mvl/mxv
	BYTE	W03
	BYTE		        29*seq_066_mvl/mxv
	BYTE	W03
	BYTE		        20*seq_066_mvl/mxv
	BYTE	W03
	BYTE		        77*seq_066_mvl/mxv
	BYTE		N44     Bn1   v100
	BYTE	W12
	BYTE		VOL     76*seq_066_mvl/mxv
	BYTE	W06
	BYTE		        71*seq_066_mvl/mxv
	BYTE	W06
	BYTE		        66*seq_066_mvl/mxv
	BYTE	W06
	BYTE		        59*seq_066_mvl/mxv
	BYTE	W06
	BYTE		        48*seq_066_mvl/mxv
	BYTE	W03
	BYTE		        41*seq_066_mvl/mxv
	BYTE	W03
	BYTE		        29*seq_066_mvl/mxv
	BYTE	W03
	BYTE		        20*seq_066_mvl/mxv
	BYTE	W03
	BYTE	PEND
	BYTE		VOL     77*seq_066_mvl/mxv
	BYTE		N44     En1   v124
	BYTE	W12
	BYTE		VOL     76*seq_066_mvl/mxv
	BYTE	W06
	BYTE		        71*seq_066_mvl/mxv
	BYTE	W06
	BYTE		        66*seq_066_mvl/mxv
	BYTE	W06
	BYTE		        59*seq_066_mvl/mxv
	BYTE	W06
	BYTE		        48*seq_066_mvl/mxv
	BYTE	W03
	BYTE		        41*seq_066_mvl/mxv
	BYTE	W03
	BYTE		        29*seq_066_mvl/mxv
	BYTE	W03
	BYTE		        20*seq_066_mvl/mxv
	BYTE	W03
	BYTE		        77*seq_066_mvl/mxv
	BYTE		N44     An1   v108
	BYTE	W12
	BYTE		VOL     76*seq_066_mvl/mxv
	BYTE	W06
	BYTE		        71*seq_066_mvl/mxv
	BYTE	W06
	BYTE		        66*seq_066_mvl/mxv
	BYTE	W06
	BYTE		        59*seq_066_mvl/mxv
	BYTE	W06
	BYTE		        48*seq_066_mvl/mxv
	BYTE	W03
	BYTE		        41*seq_066_mvl/mxv
	BYTE	W03
	BYTE		        29*seq_066_mvl/mxv
	BYTE	W03
	BYTE		        20*seq_066_mvl/mxv
	BYTE	W03
	BYTE	PEND
	BYTE		        77*seq_066_mvl/mxv
	BYTE		N44     Fs1   v124
	BYTE	W12
	BYTE		VOL     76*seq_066_mvl/mxv
	BYTE	W06
	BYTE		        71*seq_066_mvl/mxv
	BYTE	W06
	BYTE		        66*seq_066_mvl/mxv
	BYTE	W06
	BYTE		        59*seq_066_mvl/mxv
	BYTE	W06
	BYTE		        48*seq_066_mvl/mxv
	BYTE	W03
	BYTE		        41*seq_066_mvl/mxv
	BYTE	W03
	BYTE		        29*seq_066_mvl/mxv
	BYTE	W03
	BYTE		        20*seq_066_mvl/mxv
	BYTE	W03
	BYTE		        77*seq_066_mvl/mxv
	BYTE		N40     En1 
	BYTE	W12
	BYTE		VOL     76*seq_066_mvl/mxv
	BYTE	W06
	BYTE		        71*seq_066_mvl/mxv
	BYTE	W06
	BYTE		        66*seq_066_mvl/mxv
	BYTE	W06
	BYTE		        59*seq_066_mvl/mxv
	BYTE	W06
	BYTE		        48*seq_066_mvl/mxv
	BYTE	W03
	BYTE		        41*seq_066_mvl/mxv
	BYTE	W03
	BYTE		        29*seq_066_mvl/mxv
	BYTE		N56     Ds1 
	BYTE	W02
	BYTE		VOL     77*seq_066_mvl/mxv
	BYTE	W04
	BYTE	W07
	BYTE		        73*seq_066_mvl/mxv
	BYTE	W06
	BYTE		        70*seq_066_mvl/mxv
	BYTE	W06
	BYTE		        64*seq_066_mvl/mxv
	BYTE	W03
	BYTE		        57*seq_066_mvl/mxv
	BYTE	W03
	BYTE		        51*seq_066_mvl/mxv
	BYTE	W03
	BYTE		        40*seq_066_mvl/mxv
	BYTE	W03
	BYTE		        33*seq_066_mvl/mxv
	BYTE	W03
	BYTE		        24*seq_066_mvl/mxv
	BYTE	W03
	BYTE		        14*seq_066_mvl/mxv
	BYTE	W03
	BYTE		        5*seq_066_mvl/mxv
	BYTE	W18
	BYTE		        77*seq_066_mvl/mxv
	BYTE	W32
	BYTE		N44     Dn2   v088
	BYTE	W06
	BYTE	W06
	BYTE		VOL     76*seq_066_mvl/mxv
	BYTE	W06
	BYTE		        71*seq_066_mvl/mxv
	BYTE	W06
	BYTE		        66*seq_066_mvl/mxv
	BYTE	W06
	BYTE		        59*seq_066_mvl/mxv
	BYTE	W06
	BYTE		        48*seq_066_mvl/mxv
	BYTE	W03
	BYTE		        41*seq_066_mvl/mxv
	BYTE	W03
	BYTE		        29*seq_066_mvl/mxv
	BYTE	W03
	BYTE		        20*seq_066_mvl/mxv
	BYTE	W03
	BYTE		        77*seq_066_mvl/mxv
	BYTE		N44     En2   v084
	BYTE	W12
	BYTE		VOL     76*seq_066_mvl/mxv
	BYTE	W06
	BYTE		        71*seq_066_mvl/mxv
	BYTE	W06
	BYTE		        66*seq_066_mvl/mxv
	BYTE	W06
	BYTE		        59*seq_066_mvl/mxv
	BYTE	W06
	BYTE		        48*seq_066_mvl/mxv
	BYTE	W03
	BYTE		        41*seq_066_mvl/mxv
	BYTE	W03
	BYTE		        29*seq_066_mvl/mxv
	BYTE	W03
	BYTE		        20*seq_066_mvl/mxv
	BYTE	W03
	BYTE		        77*seq_066_mvl/mxv
	BYTE		N44     An1   v092
	BYTE	W06
	BYTE	W06
	BYTE		VOL     76*seq_066_mvl/mxv
	BYTE	W06
	BYTE		        71*seq_066_mvl/mxv
	BYTE	W06
	BYTE		        66*seq_066_mvl/mxv
	BYTE	W06
	BYTE		        59*seq_066_mvl/mxv
	BYTE	W06
	BYTE		        48*seq_066_mvl/mxv
	BYTE	W03
	BYTE		        41*seq_066_mvl/mxv
	BYTE	W03
	BYTE		        29*seq_066_mvl/mxv
	BYTE	W03
	BYTE		        20*seq_066_mvl/mxv
	BYTE	W03
	BYTE		        77*seq_066_mvl/mxv
	BYTE		N52     Gs1   v088
	BYTE	W12
	BYTE		VOL     76*seq_066_mvl/mxv
	BYTE	W06
	BYTE		        71*seq_066_mvl/mxv
	BYTE	W06
	BYTE		        66*seq_066_mvl/mxv
	BYTE	W06
	BYTE		        59*seq_066_mvl/mxv
	BYTE	W06
	BYTE		        48*seq_066_mvl/mxv
	BYTE	W03
	BYTE		        41*seq_066_mvl/mxv
	BYTE	W03
	BYTE		        29*seq_066_mvl/mxv
	BYTE	W03
	BYTE		        20*seq_066_mvl/mxv
	BYTE	W09
	BYTE		VOL     77*seq_066_mvl/mxv
	BYTE		N48     An1   v116
	BYTE	W12
	BYTE		VOL     73*seq_066_mvl/mxv
	BYTE	W06
	BYTE		        70*seq_066_mvl/mxv
	BYTE	W06
	BYTE		        64*seq_066_mvl/mxv
	BYTE	W03
	BYTE		        57*seq_066_mvl/mxv
	BYTE	W03
	BYTE		        51*seq_066_mvl/mxv
	BYTE	W03
	BYTE		        40*seq_066_mvl/mxv
	BYTE	W03
	BYTE		        33*seq_066_mvl/mxv
	BYTE	W03
	BYTE		        24*seq_066_mvl/mxv
	BYTE	W03
	BYTE		        14*seq_066_mvl/mxv
	BYTE	W03
	BYTE		        5*seq_066_mvl/mxv
	BYTE	W15
	BYTE		        77*seq_066_mvl/mxv
	BYTE	W36
	BYTE	PATT
	 POIN2	seq_066_3 + 0x26
	BYTE	PATT
	 POIN2	seq_066_3 + 0x42
	BYTE	PATT
	 POIN2	seq_066_3 + 0x5E
	BYTE	PATT
	 POIN2	seq_066_3 + 0x7A
	BYTE	PATT
	 POIN2	seq_066_3 + 0xA6
	BYTE	PATT
	 POIN2	seq_066_3 + 0xC4
	BYTE	PATT
	 POIN2	seq_066_3 + 0xF1
	BYTE	PATT
	 POIN2	seq_066_3 + 0x10A
	BYTE	PATT
	 POIN2	seq_066_3 + 0x136
	BYTE	PATT
	 POIN2	seq_066_3 + 0x14F
	BYTE	PATT
	 POIN2	seq_066_3 + 0xF1
	BYTE	PATT
	 POIN2	seq_066_3 + 0x176
	BYTE	PATT
	 POIN2	seq_066_3 + 0xA6
	BYTE	PATT
	 POIN2	seq_066_3 + 0x1A7
	BYTE	PATT
	 POIN2	seq_066_3 + 0xF1
	BYTE	PATT
	 POIN2	seq_066_3 + 0x10A
	BYTE		VOL     77*seq_066_mvl/mxv
	BYTE		N12     Fn1   v124
	BYTE	W12
	BYTE		N11     Gn1   v120
	BYTE	W12
	BYTE		        An1 
	BYTE	W12
	BYTE		        Bn1 
	BYTE	W12
	BYTE		N23     Cn2   v116
	BYTE	W24
	BYTE		N11     Fn1 
	BYTE	W12
	BYTE		N10     En1 
	BYTE	W12
	BYTE		N32     Dn1   v124
	BYTE	W12
	BYTE		VOL     73*seq_066_mvl/mxv
	BYTE	W06
	BYTE		        64*seq_066_mvl/mxv
	BYTE	W06
	BYTE		        57*seq_066_mvl/mxv
	BYTE	W03
	BYTE		        49*seq_066_mvl/mxv
	BYTE	W03
	BYTE		        39*seq_066_mvl/mxv
	BYTE	W03
	BYTE		        31*seq_066_mvl/mxv
	BYTE	W03
	BYTE		        77*seq_066_mvl/mxv
	BYTE		N10     Ds1 
	BYTE	W12
	BYTE		N22     En1 
	BYTE	W24
	BYTE		N16     Bn1   v112
	BYTE	W18
	BYTE		N56     Fn1   v124
	BYTE	W06
	BYTE	PATT
	 POIN2	seq_066_3 + 0x218
	BYTE	PATT
	 POIN2	seq_066_3 + 0x235
	BYTE	PATT
	 POIN2	seq_066_3 + 0x250
	BYTE	PATT
	 POIN2	seq_066_3 + 0x26F
	BYTE	PATT
	 POIN2	seq_066_3 + 0x292
	BYTE	PATT
	 POIN2	seq_066_3 + 0x2AC
	BYTE		VOL     77*seq_066_mvl/mxv
	BYTE		N23     An1   v112
	BYTE	W24
	BYTE		N22     Gs1   v127
	BYTE	W24
	BYTE		N36     Fs1   v124
	BYTE	W12
	BYTE		VOL     76*seq_066_mvl/mxv
	BYTE	W06
	BYTE		        71*seq_066_mvl/mxv
	BYTE	W06
	BYTE		        66*seq_066_mvl/mxv
	BYTE	W06
	BYTE		        59*seq_066_mvl/mxv
	BYTE	W06
	BYTE		        48*seq_066_mvl/mxv
	BYTE	W03
	BYTE		        41*seq_066_mvl/mxv
	BYTE	W03
	BYTE		        29*seq_066_mvl/mxv
	BYTE		N44     Bn1   v108
	BYTE	W02
	BYTE		VOL     77*seq_066_mvl/mxv
	BYTE	W04
	BYTE	W12
	BYTE		        76*seq_066_mvl/mxv
	BYTE	W06
	BYTE		        71*seq_066_mvl/mxv
	BYTE	W06
	BYTE		        66*seq_066_mvl/mxv
	BYTE	W06
	BYTE		        59*seq_066_mvl/mxv
	BYTE	W06
	BYTE		        48*seq_066_mvl/mxv
	BYTE	W03
	BYTE		        41*seq_066_mvl/mxv
	BYTE	W03
	BYTE		        29*seq_066_mvl/mxv
	BYTE		N44     An1   v100
	BYTE	W02
	BYTE		VOL     77*seq_066_mvl/mxv
	BYTE	W16
	BYTE		        76*seq_066_mvl/mxv
	BYTE	W06
	BYTE		        71*seq_066_mvl/mxv
	BYTE	W06
	BYTE		        66*seq_066_mvl/mxv
	BYTE	W06
	BYTE		        59*seq_066_mvl/mxv
	BYTE	W06
	BYTE		        48*seq_066_mvl/mxv
	BYTE	W03
	BYTE		        41*seq_066_mvl/mxv
	BYTE	W01
	BYTE		N60     En1   v112
	BYTE	W02
	BYTE		VOL     29*seq_066_mvl/mxv
	BYTE	W02
	BYTE		        77*seq_066_mvl/mxv
	BYTE	W04
	BYTE	W07
	BYTE		        73*seq_066_mvl/mxv
	BYTE	W06
	BYTE		        70*seq_066_mvl/mxv
	BYTE	W06
	BYTE		        64*seq_066_mvl/mxv
	BYTE	W03
	BYTE		        57*seq_066_mvl/mxv
	BYTE	W03
	BYTE		        51*seq_066_mvl/mxv
	BYTE	W03
	BYTE		        40*seq_066_mvl/mxv
	BYTE	W03
	BYTE		        33*seq_066_mvl/mxv
	BYTE	W03
	BYTE		        24*seq_066_mvl/mxv
	BYTE	W03
	BYTE		        14*seq_066_mvl/mxv
	BYTE	W03
	BYTE		        5*seq_066_mvl/mxv
	BYTE	W20
	BYTE		        77*seq_066_mvl/mxv
	BYTE	W32
	BYTE		N22     An1   v124
	BYTE	W04
	BYTE	PATT
	 POIN2	seq_066_3 + 0x33F
	BYTE		VOL     77*seq_066_mvl/mxv
	BYTE		N22     Gs1   v116
	BYTE	W24
	BYTE		N24     En1   v112
	BYTE	W24
	BYTE		N44     An1   v104
	BYTE	W12
	BYTE		VOL     76*seq_066_mvl/mxv
	BYTE	W06
	BYTE		        71*seq_066_mvl/mxv
	BYTE	W06
	BYTE		        66*seq_066_mvl/mxv
	BYTE	W06
	BYTE		        59*seq_066_mvl/mxv
	BYTE	W06
	BYTE		        48*seq_066_mvl/mxv
	BYTE	W03
	BYTE		        41*seq_066_mvl/mxv
	BYTE	W03
	BYTE		        29*seq_066_mvl/mxv
	BYTE	W03
	BYTE		        20*seq_066_mvl/mxv
	BYTE	W03
	BYTE		        77*seq_066_mvl/mxv
	BYTE		N44     An1   v116
	BYTE	W12
	BYTE		VOL     76*seq_066_mvl/mxv
	BYTE	W06
	BYTE		        71*seq_066_mvl/mxv
	BYTE	W06
	BYTE		        66*seq_066_mvl/mxv
	BYTE	W06
	BYTE		        59*seq_066_mvl/mxv
	BYTE	W06
	BYTE		        48*seq_066_mvl/mxv
	BYTE	W03
	BYTE		        41*seq_066_mvl/mxv
	BYTE	W03
	BYTE		        29*seq_066_mvl/mxv
	BYTE	W03
	BYTE		        20*seq_066_mvl/mxv
	BYTE	W03
	BYTE		        77*seq_066_mvl/mxv
	BYTE		N36     An1   v112
	BYTE	W12
	BYTE		VOL     76*seq_066_mvl/mxv
	BYTE	W06
	BYTE		        71*seq_066_mvl/mxv
	BYTE	W06
	BYTE		        66*seq_066_mvl/mxv
	BYTE	W06
	BYTE		        59*seq_066_mvl/mxv
	BYTE	W06
	BYTE		        48*seq_066_mvl/mxv
	BYTE	W03
	BYTE		        41*seq_066_mvl/mxv
	BYTE	W03
	BYTE		N56     En1   v104
	BYTE	W02
	BYTE		VOL     77*seq_066_mvl/mxv
	BYTE	W04
	BYTE	PATT
	 POIN2	seq_066_3 + 0xF1
	BYTE	PATT
	 POIN2	seq_066_3 + 0x392
	BYTE	PATT
	 POIN2	seq_066_3 + 0x3BE
	BYTE		VOL     77*seq_066_mvl/mxv
	BYTE		N44     Fs1   v124
	BYTE	W12
	BYTE		VOL     76*seq_066_mvl/mxv
	BYTE	W06
	BYTE		        71*seq_066_mvl/mxv
	BYTE	W06
	BYTE		        66*seq_066_mvl/mxv
	BYTE	W06
	BYTE		        59*seq_066_mvl/mxv
	BYTE	W06
	BYTE		        48*seq_066_mvl/mxv
	BYTE	W03
	BYTE		        41*seq_066_mvl/mxv
	BYTE	W03
	BYTE		        29*seq_066_mvl/mxv
	BYTE	W03
	BYTE		        20*seq_066_mvl/mxv
	BYTE	W03
	BYTE		        77*seq_066_mvl/mxv
	BYTE		N36     En1 
	BYTE	W12
	BYTE		VOL     76*seq_066_mvl/mxv
	BYTE	W06
	BYTE		        71*seq_066_mvl/mxv
	BYTE	W06
	BYTE		        66*seq_066_mvl/mxv
	BYTE	W06
	BYTE		        59*seq_066_mvl/mxv
	BYTE	W06
	BYTE		        48*seq_066_mvl/mxv
	BYTE	W03
	BYTE		        41*seq_066_mvl/mxv
	BYTE	W03
	BYTE		        29*seq_066_mvl/mxv
	BYTE		N56     Ds1 
	BYTE	W02
	BYTE		VOL     77*seq_066_mvl/mxv
	BYTE	W04
	BYTE	W07
	BYTE		        73*seq_066_mvl/mxv
	BYTE	W06
	BYTE		        70*seq_066_mvl/mxv
	BYTE	W06
	BYTE		        64*seq_066_mvl/mxv
	BYTE	W03
	BYTE		        57*seq_066_mvl/mxv
	BYTE	W03
	BYTE		        51*seq_066_mvl/mxv
	BYTE	W03
	BYTE		        40*seq_066_mvl/mxv
	BYTE	W03
	BYTE		        33*seq_066_mvl/mxv
	BYTE	W03
	BYTE		        24*seq_066_mvl/mxv
	BYTE	W03
	BYTE		        14*seq_066_mvl/mxv
	BYTE	W03
	BYTE		        5*seq_066_mvl/mxv
	BYTE	W20
	BYTE		        77*seq_066_mvl/mxv
	BYTE	W30
	BYTE		N44     Dn2   v088
	BYTE	W06
	BYTE	W08
	BYTE		VOL     76*seq_066_mvl/mxv
	BYTE	W06
	BYTE		        71*seq_066_mvl/mxv
	BYTE	W06
	BYTE		        66*seq_066_mvl/mxv
	BYTE	W06
	BYTE		        59*seq_066_mvl/mxv
	BYTE	W06
	BYTE		        48*seq_066_mvl/mxv
	BYTE	W03
	BYTE		        41*seq_066_mvl/mxv
	BYTE	W03
	BYTE		        29*seq_066_mvl/mxv
	BYTE	W03
	BYTE		        20*seq_066_mvl/mxv
	BYTE	W01
	BYTE		N44     En2   v084
	BYTE	W02
	BYTE		VOL     77*seq_066_mvl/mxv
	BYTE	W12
	BYTE		        76*seq_066_mvl/mxv
	BYTE	W06
	BYTE		        71*seq_066_mvl/mxv
	BYTE	W06
	BYTE		        66*seq_066_mvl/mxv
	BYTE	W06
	BYTE		        59*seq_066_mvl/mxv
	BYTE	W06
	BYTE		        48*seq_066_mvl/mxv
	BYTE	W03
	BYTE		        41*seq_066_mvl/mxv
	BYTE	W03
	BYTE		        29*seq_066_mvl/mxv
	BYTE	W03
	BYTE		        20*seq_066_mvl/mxv
	BYTE	W01
	BYTE		N44     An1   v092
	BYTE	W02
	BYTE		VOL     77*seq_066_mvl/mxv
	BYTE	W04
	BYTE	W08
	BYTE		        76*seq_066_mvl/mxv
	BYTE	W06
	BYTE		        71*seq_066_mvl/mxv
	BYTE	W06
	BYTE		        66*seq_066_mvl/mxv
	BYTE	W06
	BYTE		        59*seq_066_mvl/mxv
	BYTE	W06
	BYTE		        48*seq_066_mvl/mxv
	BYTE	W03
	BYTE		        41*seq_066_mvl/mxv
	BYTE	W03
	BYTE		        29*seq_066_mvl/mxv
	BYTE	W03
	BYTE		        20*seq_066_mvl/mxv
	BYTE	W01
	BYTE		N52     Gs1   v088
	BYTE	W02
	BYTE		VOL     77*seq_066_mvl/mxv
	BYTE	W12
	BYTE		        76*seq_066_mvl/mxv
	BYTE	W06
	BYTE		        71*seq_066_mvl/mxv
	BYTE	W06
	BYTE		        66*seq_066_mvl/mxv
	BYTE	W06
	BYTE		        59*seq_066_mvl/mxv
	BYTE	W06
	BYTE		        48*seq_066_mvl/mxv
	BYTE	W03
	BYTE		        41*seq_066_mvl/mxv
	BYTE	W03
	BYTE		        29*seq_066_mvl/mxv
	BYTE	W03
	BYTE		        20*seq_066_mvl/mxv
	BYTE	W06
	BYTE		        77*seq_066_mvl/mxv
	BYTE	W01
	BYTE	GoTo
	 POIN2	seq_066_3 + 0x48A
	BYTE	W07
	BYTE	FINE

//*********************** Track 05 ***********************//

seq_066_4:
	BYTE	KEYSH   seq_066_key+0
	BYTE		VOICE   45
	BYTE	W02
	BYTE		PAN     c_v-14
	BYTE	W01
	BYTE	W96
	BYTE	W96
	BYTE	W96
	BYTE	W96
	BYTE	W96
	BYTE	W96
	BYTE	W96
	BYTE	W96
	BYTE	W96
	BYTE	W96
	BYTE	W96
	BYTE	W96
	BYTE	W96
	BYTE	W96
	BYTE	W96
	BYTE	W96
	BYTE	W96
	BYTE	W96
	BYTE	W96
	BYTE	W96
	BYTE	W96
	BYTE	W96
	BYTE	W96
	BYTE	W96
	BYTE	W96
	BYTE	W96
	BYTE	W96
	BYTE	W96
	BYTE	W96
	BYTE	W96
	BYTE	W96
	BYTE	W96
	BYTE	W96
	BYTE	W96
	BYTE	W96
	BYTE	W96
	BYTE	W96
	BYTE	W96
	BYTE	W12
	BYTE		VOL     70*seq_066_mvl/mxv
	BYTE	W10
	BYTE	W02
	BYTE		N23     An2   v064
	BYTE	W09
	BYTE		VOL     66*seq_066_mvl/mxv
	BYTE	W03
	BYTE		        63*seq_066_mvl/mxv
	BYTE	W03
	BYTE		        60*seq_066_mvl/mxv
	BYTE	W03
	BYTE		        54*seq_066_mvl/mxv
	BYTE	W03
	BYTE		        47*seq_066_mvl/mxv
	BYTE	W03
	BYTE		        70*seq_066_mvl/mxv
	BYTE		N48     Bn2   v060
	BYTE	W03
	BYTE		VOL     69*seq_066_mvl/mxv
	BYTE	W06
	BYTE		        68*seq_066_mvl/mxv
	BYTE	W03
	BYTE		        66*seq_066_mvl/mxv
	BYTE	W03
	BYTE		        64*seq_066_mvl/mxv
	BYTE	W03
	BYTE		        61*seq_066_mvl/mxv
	BYTE	W03
	BYTE		        58*seq_066_mvl/mxv
	BYTE	W03
	BYTE		        54*seq_066_mvl/mxv
	BYTE	W03
	BYTE		        50*seq_066_mvl/mxv
	BYTE	W03
	BYTE		        44*seq_066_mvl/mxv
	BYTE	W03
	BYTE		        38*seq_066_mvl/mxv
	BYTE	W03
	BYTE		        32*seq_066_mvl/mxv
	BYTE	W03
	BYTE		        26*seq_066_mvl/mxv
	BYTE	W03
	BYTE		        19*seq_066_mvl/mxv
	BYTE	W03
	BYTE		        10*seq_066_mvl/mxv
	BYTE	W03
	BYTE	W12
	BYTE		        70*seq_066_mvl/mxv
	BYTE	W12
	BYTE		N23     Cs3   v052
	BYTE	W09
	BYTE		VOL     66*seq_066_mvl/mxv
	BYTE	W03
	BYTE		        63*seq_066_mvl/mxv
	BYTE	W03
	BYTE		        60*seq_066_mvl/mxv
	BYTE	W03
	BYTE		        54*seq_066_mvl/mxv
	BYTE	W03
	BYTE		        47*seq_066_mvl/mxv
	BYTE	W03
	BYTE		        70*seq_066_mvl/mxv
	BYTE		N48     Dn3   v048
	BYTE	W03
	BYTE		VOL     70*seq_066_mvl/mxv
	BYTE	W06
	BYTE		        69*seq_066_mvl/mxv
	BYTE	W03
	BYTE		        68*seq_066_mvl/mxv
	BYTE	W03
	BYTE		        65*seq_066_mvl/mxv
	BYTE	W03
	BYTE		        63*seq_066_mvl/mxv
	BYTE	W03
	BYTE		        59*seq_066_mvl/mxv
	BYTE	W03
	BYTE		        55*seq_066_mvl/mxv
	BYTE	W03
	BYTE		        51*seq_066_mvl/mxv
	BYTE	W03
	BYTE		        46*seq_066_mvl/mxv
	BYTE	W03
	BYTE		        40*seq_066_mvl/mxv
	BYTE	W03
	BYTE		        34*seq_066_mvl/mxv
	BYTE	W03
	BYTE		        27*seq_066_mvl/mxv
	BYTE	W03
	BYTE		        20*seq_066_mvl/mxv
	BYTE	W03
	BYTE		        12*seq_066_mvl/mxv
	BYTE	W03
	BYTE	W12
	BYTE		        70*seq_066_mvl/mxv
	BYTE	W12
	BYTE		N23     An2   v056
	BYTE	W09
	BYTE		VOL     66*seq_066_mvl/mxv
	BYTE	W03
	BYTE		        63*seq_066_mvl/mxv
	BYTE	W03
	BYTE		        60*seq_066_mvl/mxv
	BYTE	W03
	BYTE		        54*seq_066_mvl/mxv
	BYTE	W03
	BYTE		        47*seq_066_mvl/mxv
	BYTE	W03
	BYTE		        70*seq_066_mvl/mxv
	BYTE		N48     Bn2   v048
	BYTE	W03
	BYTE		VOL     70*seq_066_mvl/mxv
	BYTE	W06
	BYTE		        68*seq_066_mvl/mxv
	BYTE	W03
	BYTE		        67*seq_066_mvl/mxv
	BYTE	W03
	BYTE		        64*seq_066_mvl/mxv
	BYTE	W03
	BYTE		        61*seq_066_mvl/mxv
	BYTE	W03
	BYTE		        57*seq_066_mvl/mxv
	BYTE	W03
	BYTE		        53*seq_066_mvl/mxv
	BYTE	W03
	BYTE		        48*seq_066_mvl/mxv
	BYTE	W03
	BYTE		        41*seq_066_mvl/mxv
	BYTE	W03
	BYTE		        35*seq_066_mvl/mxv
	BYTE	W03
	BYTE		        27*seq_066_mvl/mxv
	BYTE	W03
	BYTE		        19*seq_066_mvl/mxv
	BYTE	W03
	BYTE		        11*seq_066_mvl/mxv
	BYTE	W03
	BYTE		        4*seq_066_mvl/mxv
	BYTE	W03
	BYTE	W12
	BYTE		        70*seq_066_mvl/mxv
	BYTE	W12
	BYTE		N23     Cs3 
	BYTE	W09
	BYTE		VOL     66*seq_066_mvl/mxv
	BYTE	W03
	BYTE		        63*seq_066_mvl/mxv
	BYTE	W03
	BYTE		        60*seq_066_mvl/mxv
	BYTE	W03
	BYTE		        54*seq_066_mvl/mxv
	BYTE	W03
	BYTE		        47*seq_066_mvl/mxv
	BYTE	W03
	BYTE		        70*seq_066_mvl/mxv
	BYTE		N44     Dn3   v044
	BYTE	W09
	BYTE		VOL     70*seq_066_mvl/mxv
	BYTE	W03
	BYTE		        68*seq_066_mvl/mxv
	BYTE	W03
	BYTE		        66*seq_066_mvl/mxv
	BYTE	W03
	BYTE		        63*seq_066_mvl/mxv
	BYTE	W03
	BYTE		        60*seq_066_mvl/mxv
	BYTE	W03
	BYTE		        57*seq_066_mvl/mxv
	BYTE	W03
	BYTE		        53*seq_066_mvl/mxv
	BYTE	W03
	BYTE		        48*seq_066_mvl/mxv
	BYTE	W03
	BYTE		        43*seq_066_mvl/mxv
	BYTE	W03
	BYTE		        37*seq_066_mvl/mxv
	BYTE	W03
	BYTE		        31*seq_066_mvl/mxv
	BYTE	W03
	BYTE		        24*seq_066_mvl/mxv
	BYTE	W06
	BYTE		VOL     70*seq_066_mvl/mxv
	BYTE		N04     An2   v072
	BYTE	W06
	BYTE		        An2   v020
	BYTE	W06
	BYTE		N03     Cn3   v060
	BYTE	W06
	BYTE		N04     Cn3   v020
	BYTE	W06
	BYTE		N03     En3   v052
	BYTE	W06
	BYTE		N04     En3   v016
	BYTE	W06
	BYTE		        En3   v008
	BYTE	W24
	BYTE		N03     Cn3   v056
	BYTE	W06
	BYTE		N04     Cn3   v020
	BYTE	W06
	BYTE		N03     An2   v064
	BYTE	W06
	BYTE		N04     An2   v020
	BYTE	W06
	BYTE		N03     Cn3   v056
	BYTE	W06
	BYTE		N04     Cn3   v020
	BYTE	W06
	BYTE	PEND
	BYTE		        An2   v056
	BYTE	W06
	BYTE		        An2   v020
	BYTE	W06
	BYTE		N03     Cn3   v048
	BYTE	W06
	BYTE		N04     Cn3   v020
	BYTE	W06
	BYTE		N03     En3   v044
	BYTE	W06
	BYTE		N04     En3   v012
	BYTE	W06
	BYTE		        En3   v008
	BYTE	W60
	BYTE		N04     An2   v072
	BYTE	W06
	BYTE		        An2   v020
	BYTE	W06
	BYTE		N03     Cn3   v060
	BYTE	W06
	BYTE		N04     Cn3   v020
	BYTE	W06
	BYTE		N03     En3   v052
	BYTE	W06
	BYTE		N04     En3   v016
	BYTE	W06
	BYTE		        En3   v008
	BYTE	W24
	BYTE		N03     Cn3   v056
	BYTE	W06
	BYTE		N04     Cn3   v020
	BYTE	W06
	BYTE		N03     An2   v064
	BYTE	W06
	BYTE		N04     An2   v020
	BYTE	W06
	BYTE		N03     Cn3   v056
	BYTE	W06
	BYTE		N04     Cn3   v020
	BYTE	W06
	BYTE	PEND
	BYTE		N23     Bn2   v060
	BYTE	W09
	BYTE		VOL     66*seq_066_mvl/mxv
	BYTE	W03
	BYTE		        63*seq_066_mvl/mxv
	BYTE	W03
	BYTE		        60*seq_066_mvl/mxv
	BYTE	W03
	BYTE		        54*seq_066_mvl/mxv
	BYTE	W03
	BYTE		        47*seq_066_mvl/mxv
	BYTE	W03
	BYTE		        70*seq_066_mvl/mxv
	BYTE		N12     Gs2   v064
	BYTE	W12
	BYTE		        An2   v056
	BYTE	W12
	BYTE		N23     Bn2   v064
	BYTE	W09
	BYTE		VOL     66*seq_066_mvl/mxv
	BYTE	W03
	BYTE		        63*seq_066_mvl/mxv
	BYTE	W03
	BYTE		        60*seq_066_mvl/mxv
	BYTE	W03
	BYTE		        54*seq_066_mvl/mxv
	BYTE	W03
	BYTE		        47*seq_066_mvl/mxv
	BYTE	W03
	BYTE		        70*seq_066_mvl/mxv
	BYTE		N23     Dn3   v056
	BYTE	W09
	BYTE		VOL     66*seq_066_mvl/mxv
	BYTE	W03
	BYTE		        63*seq_066_mvl/mxv
	BYTE	W03
	BYTE		        60*seq_066_mvl/mxv
	BYTE	W03
	BYTE		        54*seq_066_mvl/mxv
	BYTE	W03
	BYTE		        47*seq_066_mvl/mxv
	BYTE	W03
	BYTE	PEND
	BYTE	PATT
	 POIN2	seq_066_4 + 0xFB
	BYTE		N04     An2   v072
	BYTE	W06
	BYTE		        An2   v020
	BYTE	W06
	BYTE		N03     Cn3   v060
	BYTE	W06
	BYTE		N04     Cn3   v020
	BYTE	W06
	BYTE		N03     En3   v052
	BYTE	W06
	BYTE		N04     En3   v016
	BYTE	W06
	BYTE		        En3   v008
	BYTE	W60
	BYTE	PEND
	BYTE		N44     An2   v056
	BYTE	W09
	BYTE		VOL     68*seq_066_mvl/mxv
	BYTE	W03
	BYTE		        67*seq_066_mvl/mxv
	BYTE	W03
	BYTE		        65*seq_066_mvl/mxv
	BYTE	W03
	BYTE		        63*seq_066_mvl/mxv
	BYTE	W03
	BYTE		        61*seq_066_mvl/mxv
	BYTE	W03
	BYTE		        58*seq_066_mvl/mxv
	BYTE	W03
	BYTE		        55*seq_066_mvl/mxv
	BYTE	W03
	BYTE		        52*seq_066_mvl/mxv
	BYTE	W03
	BYTE		        48*seq_066_mvl/mxv
	BYTE	W03
	BYTE		        44*seq_066_mvl/mxv
	BYTE	W03
	BYTE		        39*seq_066_mvl/mxv
	BYTE	W03
	BYTE		        34*seq_066_mvl/mxv
	BYTE	W03
	BYTE		        29*seq_066_mvl/mxv
	BYTE	W03
	BYTE		        70*seq_066_mvl/mxv
	BYTE		N44     Gn2   v052
	BYTE	W09
	BYTE		VOL     68*seq_066_mvl/mxv
	BYTE	W03
	BYTE		        67*seq_066_mvl/mxv
	BYTE	W03
	BYTE		        65*seq_066_mvl/mxv
	BYTE	W03
	BYTE		        63*seq_066_mvl/mxv
	BYTE	W03
	BYTE		        61*seq_066_mvl/mxv
	BYTE	W03
	BYTE		        58*seq_066_mvl/mxv
	BYTE	W03
	BYTE		        55*seq_066_mvl/mxv
	BYTE	W03
	BYTE		        52*seq_066_mvl/mxv
	BYTE	W03
	BYTE		        48*seq_066_mvl/mxv
	BYTE	W03
	BYTE		        44*seq_066_mvl/mxv
	BYTE	W03
	BYTE		        39*seq_066_mvl/mxv
	BYTE	W03
	BYTE		        34*seq_066_mvl/mxv
	BYTE	W03
	BYTE		        29*seq_066_mvl/mxv
	BYTE	W03
	BYTE		        70*seq_066_mvl/mxv
	BYTE		N68     An2   v048
	BYTE	W06
	BYTE		VOL     70*seq_066_mvl/mxv
	BYTE	W06
	BYTE		        69*seq_066_mvl/mxv
	BYTE	W03
	BYTE		        68*seq_066_mvl/mxv
	BYTE	W03
	BYTE		        67*seq_066_mvl/mxv
	BYTE	W03
	BYTE		        65*seq_066_mvl/mxv
	BYTE	W03
	BYTE		        63*seq_066_mvl/mxv
	BYTE	W03
	BYTE		        61*seq_066_mvl/mxv
	BYTE	W03
	BYTE		        58*seq_066_mvl/mxv
	BYTE	W03
	BYTE		        55*seq_066_mvl/mxv
	BYTE	W03
	BYTE		        52*seq_066_mvl/mxv
	BYTE	W03
	BYTE		        49*seq_066_mvl/mxv
	BYTE	W03
	BYTE		        45*seq_066_mvl/mxv
	BYTE	W03
	BYTE		        41*seq_066_mvl/mxv
	BYTE	W03
	BYTE		        36*seq_066_mvl/mxv
	BYTE	W03
	BYTE		        31*seq_066_mvl/mxv
	BYTE	W03
	BYTE		        25*seq_066_mvl/mxv
	BYTE	W03
	BYTE		        19*seq_066_mvl/mxv
	BYTE	W03
	BYTE		        12*seq_066_mvl/mxv
	BYTE	W03
	BYTE		        8*seq_066_mvl/mxv
	BYTE	W03
	BYTE		        5*seq_066_mvl/mxv
	BYTE	W03
	BYTE		        2*seq_066_mvl/mxv
	BYTE	W18
	BYTE		        70*seq_066_mvl/mxv
	BYTE	W09
	BYTE	PATT
	 POIN2	seq_066_4 + 0x149
	BYTE		N04     An2   v056
	BYTE	W06
	BYTE		        An2   v020
	BYTE	W06
	BYTE		N03     Cn3   v048
	BYTE	W06
	BYTE		N04     Cn3   v020
	BYTE	W06
	BYTE		N03     En3   v044
	BYTE	W06
	BYTE		N04     En3   v012
	BYTE	W06
	BYTE		        En3   v004
	BYTE	W60
	BYTE	PATT
	 POIN2	seq_066_4 + 0x149
	BYTE	PATT
	 POIN2	seq_066_4 + 0x17C
	BYTE	PATT
	 POIN2	seq_066_4 + 0xFB
	BYTE	PATT
	 POIN2	seq_066_4 + 0x1B8
	BYTE		N44     An2   v056
	BYTE	W09
	BYTE		VOL     68*seq_066_mvl/mxv
	BYTE	W03
	BYTE		        67*seq_066_mvl/mxv
	BYTE	W03
	BYTE		        65*seq_066_mvl/mxv
	BYTE	W03
	BYTE		        63*seq_066_mvl/mxv
	BYTE	W03
	BYTE		        61*seq_066_mvl/mxv
	BYTE	W03
	BYTE		        58*seq_066_mvl/mxv
	BYTE	W03
	BYTE		        55*seq_066_mvl/mxv
	BYTE	W03
	BYTE		        52*seq_066_mvl/mxv
	BYTE	W03
	BYTE		        48*seq_066_mvl/mxv
	BYTE	W03
	BYTE		        44*seq_066_mvl/mxv
	BYTE	W03
	BYTE		        39*seq_066_mvl/mxv
	BYTE	W03
	BYTE		        34*seq_066_mvl/mxv
	BYTE	W03
	BYTE		        29*seq_066_mvl/mxv
	BYTE	W03
	BYTE		        70*seq_066_mvl/mxv
	BYTE		N44     Gn2   v052
	BYTE	W09
	BYTE		VOL     72*seq_066_mvl/mxv
	BYTE	W03
	BYTE		        72*seq_066_mvl/mxv
	BYTE	W03
	BYTE		        75*seq_066_mvl/mxv
	BYTE	W03
	BYTE		        77*seq_066_mvl/mxv
	BYTE	W06
	BYTE		        77*seq_066_mvl/mxv
	BYTE	W03
	BYTE		        75*seq_066_mvl/mxv
	BYTE	W03
	BYTE		        74*seq_066_mvl/mxv
	BYTE	W03
	BYTE		        72*seq_066_mvl/mxv
	BYTE	W03
	BYTE		        70*seq_066_mvl/mxv
	BYTE	W03
	BYTE		        68*seq_066_mvl/mxv
	BYTE	W03
	BYTE		        65*seq_066_mvl/mxv
	BYTE	W03
	BYTE		        61*seq_066_mvl/mxv
	BYTE	W03
	BYTE		        70*seq_066_mvl/mxv
	BYTE		N68     An2   v056
	BYTE	W06
	BYTE		VOL     70*seq_066_mvl/mxv
	BYTE	W09
	BYTE		        69*seq_066_mvl/mxv
	BYTE	W03
	BYTE		        68*seq_066_mvl/mxv
	BYTE	W03
	BYTE		        67*seq_066_mvl/mxv
	BYTE	W03
	BYTE		        65*seq_066_mvl/mxv
	BYTE	W03
	BYTE		        63*seq_066_mvl/mxv
	BYTE	W03
	BYTE		        61*seq_066_mvl/mxv
	BYTE	W03
	BYTE		        59*seq_066_mvl/mxv
	BYTE	W03
	BYTE		        56*seq_066_mvl/mxv
	BYTE	W03
	BYTE		        53*seq_066_mvl/mxv
	BYTE	W03
	BYTE		        51*seq_066_mvl/mxv
	BYTE	W03
	BYTE		        46*seq_066_mvl/mxv
	BYTE	W03
	BYTE		        43*seq_066_mvl/mxv
	BYTE	W03
	BYTE		        38*seq_066_mvl/mxv
	BYTE	W03
	BYTE		        33*seq_066_mvl/mxv
	BYTE	W03
	BYTE		        27*seq_066_mvl/mxv
	BYTE	W03
	BYTE		        21*seq_066_mvl/mxv
	BYTE	W03
	BYTE		        14*seq_066_mvl/mxv
	BYTE	W03
	BYTE		        7*seq_066_mvl/mxv
	BYTE	W06
	BYTE		        70*seq_066_mvl/mxv
	BYTE		N11     An2   v096
	BYTE	W12
	BYTE		        Bn2   v092
	BYTE	W12
	BYTE		N23     Cs3   v096
	BYTE	W09
	BYTE		VOL     66*seq_066_mvl/mxv
	BYTE	W03
	BYTE		        63*seq_066_mvl/mxv
	BYTE	W03
	BYTE		        60*seq_066_mvl/mxv
	BYTE	W03
	BYTE		        54*seq_066_mvl/mxv
	BYTE	W03
	BYTE		        47*seq_066_mvl/mxv
	BYTE	W03
	BYTE		        70*seq_066_mvl/mxv
	BYTE		N23     En3   v092
	BYTE	W09
	BYTE		VOL     66*seq_066_mvl/mxv
	BYTE	W03
	BYTE		        63*seq_066_mvl/mxv
	BYTE	W03
	BYTE		        60*seq_066_mvl/mxv
	BYTE	W03
	BYTE		        54*seq_066_mvl/mxv
	BYTE	W03
	BYTE		        47*seq_066_mvl/mxv
	BYTE	W03
	BYTE		        70*seq_066_mvl/mxv
	BYTE		N36     Dn3   v088
	BYTE	W01
	BYTE		VOL     64*seq_066_mvl/mxv
	BYTE	W02
	BYTE		        58*seq_066_mvl/mxv
	BYTE	W03
	BYTE		        63*seq_066_mvl/mxv
	BYTE	W03
	BYTE		        68*seq_066_mvl/mxv
	BYTE	W01
	BYTE		        73*seq_066_mvl/mxv
	BYTE	W02
	BYTE		        78*seq_066_mvl/mxv
	BYTE	W01
	BYTE		        83*seq_066_mvl/mxv
	BYTE	W02
	BYTE		        82*seq_066_mvl/mxv
	BYTE	W03
	BYTE		        80*seq_066_mvl/mxv
	BYTE	W03
	BYTE		        76*seq_066_mvl/mxv
	BYTE	W03
	BYTE		        69*seq_066_mvl/mxv
	BYTE	W03
	BYTE		        59*seq_066_mvl/mxv
	BYTE	W01
	BYTE		        51*seq_066_mvl/mxv
	BYTE	W02
	BYTE		        45*seq_066_mvl/mxv
	BYTE	W01
	BYTE		        39*seq_066_mvl/mxv
	BYTE	W02
	BYTE		        32*seq_066_mvl/mxv
	BYTE	W01
	BYTE		        27*seq_066_mvl/mxv
	BYTE	W02
	BYTE		        70*seq_066_mvl/mxv
	BYTE		N10     Cs3   v060
	BYTE	W12
	BYTE		N23     Bn2   v088
	BYTE	W09
	BYTE		VOL     66*seq_066_mvl/mxv
	BYTE	W03
	BYTE		        63*seq_066_mvl/mxv
	BYTE	W03
	BYTE		        60*seq_066_mvl/mxv
	BYTE	W03
	BYTE		        54*seq_066_mvl/mxv
	BYTE	W03
	BYTE		        47*seq_066_mvl/mxv
	BYTE	W03
	BYTE		        70*seq_066_mvl/mxv
	BYTE		N12     An2 
	BYTE	W12
	BYTE		        Bn2   v076
	BYTE	W12
	BYTE		N23     Cs3   v060
	BYTE	W09
	BYTE		VOL     66*seq_066_mvl/mxv
	BYTE	W03
	BYTE		        63*seq_066_mvl/mxv
	BYTE	W03
	BYTE		        57*seq_066_mvl/mxv
	BYTE	W03
	BYTE		        51*seq_066_mvl/mxv
	BYTE	W03
	BYTE		        43*seq_066_mvl/mxv
	BYTE	W03
	BYTE		        70*seq_066_mvl/mxv
	BYTE		N11     Cs3   v096
	BYTE	W12
	BYTE		        Dn3   v084
	BYTE	W12
	BYTE		N23     En3   v092
	BYTE	W09
	BYTE		VOL     66*seq_066_mvl/mxv
	BYTE	W03
	BYTE		        63*seq_066_mvl/mxv
	BYTE	W03
	BYTE		        60*seq_066_mvl/mxv
	BYTE	W03
	BYTE		        54*seq_066_mvl/mxv
	BYTE	W03
	BYTE		        47*seq_066_mvl/mxv
	BYTE	W03
	BYTE		        70*seq_066_mvl/mxv
	BYTE		N11     An3   v080
	BYTE	W12
	BYTE		        Gs3   v072
	BYTE	W12
	BYTE		N36     Fs3   v092
	BYTE	W01
	BYTE		VOL     64*seq_066_mvl/mxv
	BYTE	W02
	BYTE		        58*seq_066_mvl/mxv
	BYTE	W03
	BYTE		        61*seq_066_mvl/mxv
	BYTE	W03
	BYTE		        63*seq_066_mvl/mxv
	BYTE	W01
	BYTE		        66*seq_066_mvl/mxv
	BYTE	W02
	BYTE		        70*seq_066_mvl/mxv
	BYTE	W01
	BYTE		        75*seq_066_mvl/mxv
	BYTE	W02
	BYTE		        76*seq_066_mvl/mxv
	BYTE	W03
	BYTE		        75*seq_066_mvl/mxv
	BYTE	W03
	BYTE		        72*seq_066_mvl/mxv
	BYTE	W03
	BYTE		        66*seq_066_mvl/mxv
	BYTE	W03
	BYTE		        58*seq_066_mvl/mxv
	BYTE	W01
	BYTE		        53*seq_066_mvl/mxv
	BYTE	W02
	BYTE		        45*seq_066_mvl/mxv
	BYTE	W01
	BYTE		        39*seq_066_mvl/mxv
	BYTE	W02
	BYTE		        32*seq_066_mvl/mxv
	BYTE	W01
	BYTE		        27*seq_066_mvl/mxv
	BYTE	W02
	BYTE		        70*seq_066_mvl/mxv
	BYTE		N10     En3   v068
	BYTE	W12
	BYTE	PEND
	BYTE		N68     En3   v064
	BYTE	W06
	BYTE		VOL     70*seq_066_mvl/mxv
	BYTE	W06
	BYTE		        69*seq_066_mvl/mxv
	BYTE	W03
	BYTE		        68*seq_066_mvl/mxv
	BYTE	W03
	BYTE		        67*seq_066_mvl/mxv
	BYTE	W03
	BYTE		        65*seq_066_mvl/mxv
	BYTE	W03
	BYTE		        63*seq_066_mvl/mxv
	BYTE	W03
	BYTE		        61*seq_066_mvl/mxv
	BYTE	W03
	BYTE		        58*seq_066_mvl/mxv
	BYTE	W03
	BYTE		        55*seq_066_mvl/mxv
	BYTE	W03
	BYTE		        52*seq_066_mvl/mxv
	BYTE	W03
	BYTE		        49*seq_066_mvl/mxv
	BYTE	W03
	BYTE		        45*seq_066_mvl/mxv
	BYTE	W03
	BYTE		        41*seq_066_mvl/mxv
	BYTE	W03
	BYTE		        36*seq_066_mvl/mxv
	BYTE	W03
	BYTE		        31*seq_066_mvl/mxv
	BYTE	W03
	BYTE		        25*seq_066_mvl/mxv
	BYTE	W03
	BYTE		        19*seq_066_mvl/mxv
	BYTE	W03
	BYTE		        12*seq_066_mvl/mxv
	BYTE	W03
	BYTE		        8*seq_066_mvl/mxv
	BYTE	W03
	BYTE		        4*seq_066_mvl/mxv
	BYTE	W03
	BYTE		        2*seq_066_mvl/mxv
	BYTE	W15
	BYTE		        70*seq_066_mvl/mxv
	BYTE	W12
	BYTE	PEND
	BYTE		N11     Fs3   v060
	BYTE	W12
	BYTE		        En3   v052
	BYTE	W12
	BYTE		N23     Fs3   v060
	BYTE	W09
	BYTE		VOL     66*seq_066_mvl/mxv
	BYTE	W03
	BYTE		        63*seq_066_mvl/mxv
	BYTE	W03
	BYTE		        60*seq_066_mvl/mxv
	BYTE	W03
	BYTE		        54*seq_066_mvl/mxv
	BYTE	W03
	BYTE		        47*seq_066_mvl/mxv
	BYTE	W03
	BYTE		        70*seq_066_mvl/mxv
	BYTE		N23     Bn2   v076
	BYTE	W09
	BYTE		VOL     66*seq_066_mvl/mxv
	BYTE	W03
	BYTE		        63*seq_066_mvl/mxv
	BYTE	W03
	BYTE		        60*seq_066_mvl/mxv
	BYTE	W03
	BYTE		        54*seq_066_mvl/mxv
	BYTE	W03
	BYTE		        47*seq_066_mvl/mxv
	BYTE	W03
	BYTE		        70*seq_066_mvl/mxv
	BYTE		N11     Cs3   v096
	BYTE	W12
	BYTE		        Dn3   v092
	BYTE	W12
	BYTE		N48     En3   v084
	BYTE	W09
	BYTE		VOL     68*seq_066_mvl/mxv
	BYTE	W03
	BYTE		        67*seq_066_mvl/mxv
	BYTE	W03
	BYTE		        65*seq_066_mvl/mxv
	BYTE	W03
	BYTE		        63*seq_066_mvl/mxv
	BYTE	W03
	BYTE		        61*seq_066_mvl/mxv
	BYTE	W03
	BYTE		        58*seq_066_mvl/mxv
	BYTE	W03
	BYTE		        55*seq_066_mvl/mxv
	BYTE	W03
	BYTE		        52*seq_066_mvl/mxv
	BYTE	W03
	BYTE		        48*seq_066_mvl/mxv
	BYTE	W03
	BYTE		        44*seq_066_mvl/mxv
	BYTE	W03
	BYTE		        39*seq_066_mvl/mxv
	BYTE	W03
	BYTE		        34*seq_066_mvl/mxv
	BYTE	W03
	BYTE		        29*seq_066_mvl/mxv
	BYTE	W03
	BYTE		        70*seq_066_mvl/mxv
	BYTE		N44     Cs3   v064
	BYTE	W09
	BYTE		VOL     68*seq_066_mvl/mxv
	BYTE	W03
	BYTE		        67*seq_066_mvl/mxv
	BYTE	W03
	BYTE		        65*seq_066_mvl/mxv
	BYTE	W03
	BYTE		        63*seq_066_mvl/mxv
	BYTE	W03
	BYTE		        61*seq_066_mvl/mxv
	BYTE	W03
	BYTE		        58*seq_066_mvl/mxv
	BYTE	W03
	BYTE		        55*seq_066_mvl/mxv
	BYTE	W03
	BYTE		        52*seq_066_mvl/mxv
	BYTE	W03
	BYTE		        48*seq_066_mvl/mxv
	BYTE	W03
	BYTE		        44*seq_066_mvl/mxv
	BYTE	W03
	BYTE		        39*seq_066_mvl/mxv
	BYTE	W03
	BYTE		        34*seq_066_mvl/mxv
	BYTE	W03
	BYTE		        29*seq_066_mvl/mxv
	BYTE	W03
	BYTE		        70*seq_066_mvl/mxv
	BYTE		N11     Dn3   v072
	BYTE	W12
	BYTE		        Cs3   v056
	BYTE	W12
	BYTE		        Dn3   v064
	BYTE	W12
	BYTE		        An2   v052
	BYTE	W12
	BYTE		        Cs3   v072
	BYTE	W12
	BYTE		        Cn3   v052
	BYTE	W12
	BYTE		        Cs3   v060
	BYTE	W12
	BYTE		        An2   v052
	BYTE	W12
	BYTE		N56     Bn2   v060
	BYTE	W03
	BYTE		VOL     71*seq_066_mvl/mxv
	BYTE	W06
	BYTE		        72*seq_066_mvl/mxv
	BYTE	W03
	BYTE		        73*seq_066_mvl/mxv
	BYTE	W03
	BYTE		        75*seq_066_mvl/mxv
	BYTE	W03
	BYTE		        77*seq_066_mvl/mxv
	BYTE	W03
	BYTE		        78*seq_066_mvl/mxv
	BYTE	W03
	BYTE		        77*seq_066_mvl/mxv
	BYTE	W03
	BYTE		        75*seq_066_mvl/mxv
	BYTE	W03
	BYTE		        71*seq_066_mvl/mxv
	BYTE	W03
	BYTE		        65*seq_066_mvl/mxv
	BYTE	W03
	BYTE		        58*seq_066_mvl/mxv
	BYTE	W03
	BYTE		        49*seq_066_mvl/mxv
	BYTE	W03
	BYTE		        38*seq_066_mvl/mxv
	BYTE	W03
	BYTE		        27*seq_066_mvl/mxv
	BYTE	W03
	BYTE		        19*seq_066_mvl/mxv
	BYTE	W03
	BYTE		        13*seq_066_mvl/mxv
	BYTE	W03
	BYTE		        5*seq_066_mvl/mxv
	BYTE	W03
	BYTE		        2*seq_066_mvl/mxv
	BYTE	W12
	BYTE		        70*seq_066_mvl/mxv
	BYTE	W03
	BYTE		N11     An2   v096
	BYTE	W12
	BYTE		        Bn2   v092
	BYTE	W12
	BYTE		N23     Cs3   v096
	BYTE	W09
	BYTE		VOL     66*seq_066_mvl/mxv
	BYTE	W03
	BYTE		        63*seq_066_mvl/mxv
	BYTE	W03
	BYTE		        60*seq_066_mvl/mxv
	BYTE	W03
	BYTE		        54*seq_066_mvl/mxv
	BYTE	W03
	BYTE		        47*seq_066_mvl/mxv
	BYTE	W03
	BYTE		        70*seq_066_mvl/mxv
	BYTE		N23     En3   v092
	BYTE	W09
	BYTE		VOL     66*seq_066_mvl/mxv
	BYTE	W03
	BYTE		        63*seq_066_mvl/mxv
	BYTE	W03
	BYTE		        60*seq_066_mvl/mxv
	BYTE	W03
	BYTE		        54*seq_066_mvl/mxv
	BYTE	W03
	BYTE		        47*seq_066_mvl/mxv
	BYTE	W03
	BYTE		        70*seq_066_mvl/mxv
	BYTE		N36     Dn3   v088
	BYTE	W01
	BYTE		VOL     64*seq_066_mvl/mxv
	BYTE	W02
	BYTE		        58*seq_066_mvl/mxv
	BYTE	W03
	BYTE		        63*seq_066_mvl/mxv
	BYTE	W03
	BYTE		        68*seq_066_mvl/mxv
	BYTE	W01
	BYTE		        73*seq_066_mvl/mxv
	BYTE	W02
	BYTE		        78*seq_066_mvl/mxv
	BYTE	W01
	BYTE		        83*seq_066_mvl/mxv
	BYTE	W02
	BYTE		        82*seq_066_mvl/mxv
	BYTE	W03
	BYTE		        80*seq_066_mvl/mxv
	BYTE	W03
	BYTE		        76*seq_066_mvl/mxv
	BYTE	W03
	BYTE		        69*seq_066_mvl/mxv
	BYTE	W03
	BYTE		        59*seq_066_mvl/mxv
	BYTE	W01
	BYTE		        51*seq_066_mvl/mxv
	BYTE	W02
	BYTE		        45*seq_066_mvl/mxv
	BYTE	W01
	BYTE		        39*seq_066_mvl/mxv
	BYTE	W02
	BYTE		        32*seq_066_mvl/mxv
	BYTE	W01
	BYTE		        27*seq_066_mvl/mxv
	BYTE	W02
	BYTE		        70*seq_066_mvl/mxv
	BYTE		N10     Cs3   v072
	BYTE	W12
	BYTE		N24     Bn2   v088
	BYTE	W09
	BYTE		VOL     66*seq_066_mvl/mxv
	BYTE	W03
	BYTE		        63*seq_066_mvl/mxv
	BYTE	W03
	BYTE		        60*seq_066_mvl/mxv
	BYTE	W03
	BYTE		        54*seq_066_mvl/mxv
	BYTE	W03
	BYTE		        47*seq_066_mvl/mxv
	BYTE	W03
	BYTE		        70*seq_066_mvl/mxv
	BYTE		N12     An2 
	BYTE	W12
	BYTE		N11     Bn2   v076
	BYTE	W11
	BYTE		N23     Cs3   v072
	BYTE	W10
	BYTE		VOL     66*seq_066_mvl/mxv
	BYTE	W03
	BYTE		        63*seq_066_mvl/mxv
	BYTE	W03
	BYTE		        57*seq_066_mvl/mxv
	BYTE	W03
	BYTE		        51*seq_066_mvl/mxv
	BYTE	W03
	BYTE		        43*seq_066_mvl/mxv
	BYTE	W03
	BYTE		        70*seq_066_mvl/mxv
	BYTE		N11     Cs3   v096
	BYTE	W12
	BYTE		        Dn3   v084
	BYTE	W12
	BYTE	PATT
	 POIN2	seq_066_4 + 0x361
	BYTE	PATT
	 POIN2	seq_066_4 + 0x3A5
	BYTE		N11     En3   v080
	BYTE	W12
	BYTE		        Dn3   v072
	BYTE	W12
	BYTE		        Cs3   v076
	BYTE	W12
	BYTE		        Bn2   v072
	BYTE	W12
	BYTE		N23     Dn3 
	BYTE	W09
	BYTE		VOL     66*seq_066_mvl/mxv
	BYTE	W03
	BYTE		        63*seq_066_mvl/mxv
	BYTE	W03
	BYTE		        60*seq_066_mvl/mxv
	BYTE	W03
	BYTE		        54*seq_066_mvl/mxv
	BYTE	W03
	BYTE		        47*seq_066_mvl/mxv
	BYTE	W03
	BYTE		        70*seq_066_mvl/mxv
	BYTE		N11     Bn2   v092
	BYTE	W12
	BYTE		        Cs3   v084
	BYTE	W12
	BYTE		        Dn3   v076
	BYTE	W12
	BYTE		        Cs3   v068
	BYTE	W12
	BYTE		        Bn2   v072
	BYTE	W12
	BYTE		        An2   v064
	BYTE	W12
	BYTE		N23     Cs3 
	BYTE	W09
	BYTE		VOL     66*seq_066_mvl/mxv
	BYTE	W03
	BYTE		        63*seq_066_mvl/mxv
	BYTE	W03
	BYTE		        60*seq_066_mvl/mxv
	BYTE	W03
	BYTE		        54*seq_066_mvl/mxv
	BYTE	W03
	BYTE		        47*seq_066_mvl/mxv
	BYTE	W03
	BYTE		        70*seq_066_mvl/mxv
	BYTE		N11     An2   v096
	BYTE	W12
	BYTE		        Bn2 
	BYTE	W12
	BYTE		        Cs3 
	BYTE	W12
	BYTE		        Cn3   v088
	BYTE	W12
	BYTE		        Cs3   v096
	BYTE	W12
	BYTE		        Fs3 
	BYTE	W12
	BYTE		        An3 
	BYTE	W12
	BYTE		        Gs3 
	BYTE	W12
	BYTE		        An3 
	BYTE	W12
	BYTE		        Cs4   v076
	BYTE	W12
	BYTE		N56     Bn3   v072
	BYTE	W03
	BYTE		VOL     71*seq_066_mvl/mxv
	BYTE	W06
	BYTE		        72*seq_066_mvl/mxv
	BYTE	W06
	BYTE		        72*seq_066_mvl/mxv
	BYTE	W03
	BYTE		        73*seq_066_mvl/mxv
	BYTE	W03
	BYTE		        75*seq_066_mvl/mxv
	BYTE	W03
	BYTE		        75*seq_066_mvl/mxv
	BYTE	W03
	BYTE		        75*seq_066_mvl/mxv
	BYTE	W03
	BYTE		        72*seq_066_mvl/mxv
	BYTE	W03
	BYTE		        68*seq_066_mvl/mxv
	BYTE	W03
	BYTE		        61*seq_066_mvl/mxv
	BYTE	W03
	BYTE		        53*seq_066_mvl/mxv
	BYTE	W03
	BYTE		        44*seq_066_mvl/mxv
	BYTE	W03
	BYTE		        33*seq_066_mvl/mxv
	BYTE	W03
	BYTE		        20*seq_066_mvl/mxv
	BYTE	W03
	BYTE		        11*seq_066_mvl/mxv
	BYTE	W03
	BYTE		        5*seq_066_mvl/mxv
	BYTE	W03
	BYTE		        2*seq_066_mvl/mxv
	BYTE	W12
	BYTE		        70*seq_066_mvl/mxv
	BYTE	W03
	BYTE		N11     Fs3   v056
	BYTE	W12
	BYTE		        Gs3   v052
	BYTE	W12
	BYTE		N44     An3   v060
	BYTE	W09
	BYTE		VOL     68*seq_066_mvl/mxv
	BYTE	W03
	BYTE		        67*seq_066_mvl/mxv
	BYTE	W03
	BYTE		        65*seq_066_mvl/mxv
	BYTE	W03
	BYTE		        63*seq_066_mvl/mxv
	BYTE	W03
	BYTE		        61*seq_066_mvl/mxv
	BYTE	W03
	BYTE		        58*seq_066_mvl/mxv
	BYTE	W03
	BYTE		        55*seq_066_mvl/mxv
	BYTE	W03
	BYTE		        52*seq_066_mvl/mxv
	BYTE	W03
	BYTE		        48*seq_066_mvl/mxv
	BYTE	W03
	BYTE		        44*seq_066_mvl/mxv
	BYTE	W03
	BYTE		        39*seq_066_mvl/mxv
	BYTE	W03
	BYTE		        34*seq_066_mvl/mxv
	BYTE	W03
	BYTE		        29*seq_066_mvl/mxv
	BYTE	W03
	BYTE		        70*seq_066_mvl/mxv
	BYTE		N44     Gs3   v048
	BYTE	W09
	BYTE		VOL     68*seq_066_mvl/mxv
	BYTE	W03
	BYTE		        67*seq_066_mvl/mxv
	BYTE	W03
	BYTE		        65*seq_066_mvl/mxv
	BYTE	W03
	BYTE		        63*seq_066_mvl/mxv
	BYTE	W03
	BYTE		        61*seq_066_mvl/mxv
	BYTE	W03
	BYTE		        58*seq_066_mvl/mxv
	BYTE	W03
	BYTE		        55*seq_066_mvl/mxv
	BYTE	W03
	BYTE		        52*seq_066_mvl/mxv
	BYTE	W03
	BYTE		        48*seq_066_mvl/mxv
	BYTE	W03
	BYTE		        44*seq_066_mvl/mxv
	BYTE	W03
	BYTE		        39*seq_066_mvl/mxv
	BYTE	W03
	BYTE		        34*seq_066_mvl/mxv
	BYTE	W03
	BYTE		        29*seq_066_mvl/mxv
	BYTE	W03
	BYTE		        70*seq_066_mvl/mxv
	BYTE		N44     Fs3 
	BYTE	W09
	BYTE		VOL     68*seq_066_mvl/mxv
	BYTE	W03
	BYTE		        67*seq_066_mvl/mxv
	BYTE	W03
	BYTE		        65*seq_066_mvl/mxv
	BYTE	W03
	BYTE		        63*seq_066_mvl/mxv
	BYTE	W03
	BYTE		        61*seq_066_mvl/mxv
	BYTE	W03
	BYTE		        58*seq_066_mvl/mxv
	BYTE	W03
	BYTE		        55*seq_066_mvl/mxv
	BYTE	W03
	BYTE		        52*seq_066_mvl/mxv
	BYTE	W03
	BYTE		        48*seq_066_mvl/mxv
	BYTE	W03
	BYTE		        44*seq_066_mvl/mxv
	BYTE	W03
	BYTE		        39*seq_066_mvl/mxv
	BYTE	W03
	BYTE		        34*seq_066_mvl/mxv
	BYTE	W03
	BYTE		        29*seq_066_mvl/mxv
	BYTE	W03
	BYTE		        70*seq_066_mvl/mxv
	BYTE		N48     En3   v040
	BYTE	W09
	BYTE		VOL     70*seq_066_mvl/mxv
	BYTE	W03
	BYTE		        69*seq_066_mvl/mxv
	BYTE	W03
	BYTE		        68*seq_066_mvl/mxv
	BYTE	W03
	BYTE		        65*seq_066_mvl/mxv
	BYTE	W03
	BYTE		        63*seq_066_mvl/mxv
	BYTE	W03
	BYTE		        58*seq_066_mvl/mxv
	BYTE	W03
	BYTE		        53*seq_066_mvl/mxv
	BYTE	W03
	BYTE		        47*seq_066_mvl/mxv
	BYTE	W03
	BYTE		        41*seq_066_mvl/mxv
	BYTE	W03
	BYTE		        33*seq_066_mvl/mxv
	BYTE	W01
	BYTE		        29*seq_066_mvl/mxv
	BYTE	W02
	BYTE		        24*seq_066_mvl/mxv
	BYTE	W01
	BYTE		        19*seq_066_mvl/mxv
	BYTE	W02
	BYTE		        14*seq_066_mvl/mxv
	BYTE	W01
	BYTE		        11*seq_066_mvl/mxv
	BYTE	W02
	BYTE		        9*seq_066_mvl/mxv
	BYTE	W01
	BYTE		        7*seq_066_mvl/mxv
	BYTE	W02
	BYTE	GoTo
	 POIN2	seq_066_4 + 0x2E
	BYTE		VOL     4*seq_066_mvl/mxv
	BYTE	W07
	BYTE	FINE

//*********************** Track 06 ***********************//

seq_066_5:
	BYTE	KEYSH   seq_066_key+0
	BYTE		VOICE   45
	BYTE	W02
	BYTE		PAN     c_v-9
	BYTE	W01
	BYTE	W96
	BYTE	W96
	BYTE	W96
	BYTE	W96
	BYTE	W96
	BYTE	W96
	BYTE	W96
	BYTE	W96
	BYTE	W96
	BYTE	W96
	BYTE	W96
	BYTE	W96
	BYTE	W96
	BYTE	W96
	BYTE	W96
	BYTE	W96
	BYTE	W96
	BYTE	W96
	BYTE	W96
	BYTE	W96
	BYTE	W96
	BYTE	W96
	BYTE	W96
	BYTE	W96
	BYTE	W96
	BYTE	W96
	BYTE	W96
	BYTE	W96
	BYTE	W96
	BYTE	W96
	BYTE	W96
	BYTE	W96
	BYTE	W96
	BYTE	W96
	BYTE	W96
	BYTE	W96
	BYTE	W96
	BYTE	W96
	BYTE	W12
	BYTE		VOL     70*seq_066_mvl/mxv
	BYTE	W10
	BYTE	W02
	BYTE		N23     En2   v068
	BYTE	W09
	BYTE		VOL     66*seq_066_mvl/mxv
	BYTE	W03
	BYTE		        63*seq_066_mvl/mxv
	BYTE	W03
	BYTE		        60*seq_066_mvl/mxv
	BYTE	W03
	BYTE		        54*seq_066_mvl/mxv
	BYTE	W03
	BYTE		        47*seq_066_mvl/mxv
	BYTE	W03
	BYTE		        70*seq_066_mvl/mxv
	BYTE		N48     Fs2   v056
	BYTE	W03
	BYTE		VOL     70*seq_066_mvl/mxv
	BYTE	W06
	BYTE		        69*seq_066_mvl/mxv
	BYTE	W03
	BYTE		        68*seq_066_mvl/mxv
	BYTE	W03
	BYTE		        65*seq_066_mvl/mxv
	BYTE	W03
	BYTE		        63*seq_066_mvl/mxv
	BYTE	W03
	BYTE		        59*seq_066_mvl/mxv
	BYTE	W03
	BYTE		        55*seq_066_mvl/mxv
	BYTE	W03
	BYTE		        51*seq_066_mvl/mxv
	BYTE	W03
	BYTE		        46*seq_066_mvl/mxv
	BYTE	W03
	BYTE		        40*seq_066_mvl/mxv
	BYTE	W03
	BYTE		        34*seq_066_mvl/mxv
	BYTE	W03
	BYTE		        26*seq_066_mvl/mxv
	BYTE	W03
	BYTE		        19*seq_066_mvl/mxv
	BYTE	W03
	BYTE		        11*seq_066_mvl/mxv
	BYTE	W03
	BYTE	W12
	BYTE		        70*seq_066_mvl/mxv
	BYTE	W12
	BYTE		N23     An2   v048
	BYTE	W09
	BYTE		VOL     66*seq_066_mvl/mxv
	BYTE	W03
	BYTE		        63*seq_066_mvl/mxv
	BYTE	W03
	BYTE		        60*seq_066_mvl/mxv
	BYTE	W03
	BYTE		        54*seq_066_mvl/mxv
	BYTE	W03
	BYTE		        47*seq_066_mvl/mxv
	BYTE	W03
	BYTE		        70*seq_066_mvl/mxv
	BYTE		N48     Bn2   v044
	BYTE	W03
	BYTE		VOL     70*seq_066_mvl/mxv
	BYTE	W06
	BYTE		        68*seq_066_mvl/mxv
	BYTE	W03
	BYTE		        67*seq_066_mvl/mxv
	BYTE	W03
	BYTE		        64*seq_066_mvl/mxv
	BYTE	W03
	BYTE		        61*seq_066_mvl/mxv
	BYTE	W03
	BYTE		        57*seq_066_mvl/mxv
	BYTE	W03
	BYTE		        52*seq_066_mvl/mxv
	BYTE	W03
	BYTE		        47*seq_066_mvl/mxv
	BYTE	W03
	BYTE		        41*seq_066_mvl/mxv
	BYTE	W03
	BYTE		        34*seq_066_mvl/mxv
	BYTE	W03
	BYTE		        26*seq_066_mvl/mxv
	BYTE	W03
	BYTE		        19*seq_066_mvl/mxv
	BYTE	W03
	BYTE		        9*seq_066_mvl/mxv
	BYTE	W03
	BYTE		        4*seq_066_mvl/mxv
	BYTE	W03
	BYTE	W12
	BYTE		        70*seq_066_mvl/mxv
	BYTE	W12
	BYTE		N23     En2   v056
	BYTE	W09
	BYTE		VOL     66*seq_066_mvl/mxv
	BYTE	W03
	BYTE		        63*seq_066_mvl/mxv
	BYTE	W03
	BYTE		        60*seq_066_mvl/mxv
	BYTE	W03
	BYTE		        54*seq_066_mvl/mxv
	BYTE	W03
	BYTE		        47*seq_066_mvl/mxv
	BYTE	W03
	BYTE		        70*seq_066_mvl/mxv
	BYTE		N48     Fs2   v048
	BYTE	W03
	BYTE		VOL     70*seq_066_mvl/mxv
	BYTE	W03
	BYTE		        69*seq_066_mvl/mxv
	BYTE	W03
	BYTE		        68*seq_066_mvl/mxv
	BYTE	W03
	BYTE		        66*seq_066_mvl/mxv
	BYTE	W03
	BYTE		        63*seq_066_mvl/mxv
	BYTE	W03
	BYTE		        60*seq_066_mvl/mxv
	BYTE	W03
	BYTE		        57*seq_066_mvl/mxv
	BYTE	W03
	BYTE		        52*seq_066_mvl/mxv
	BYTE	W03
	BYTE		        46*seq_066_mvl/mxv
	BYTE	W03
	BYTE		        41*seq_066_mvl/mxv
	BYTE	W03
	BYTE		        34*seq_066_mvl/mxv
	BYTE	W03
	BYTE		        26*seq_066_mvl/mxv
	BYTE	W03
	BYTE		        18*seq_066_mvl/mxv
	BYTE	W03
	BYTE		        9*seq_066_mvl/mxv
	BYTE	W03
	BYTE		        4*seq_066_mvl/mxv
	BYTE	W03
	BYTE	W12
	BYTE		        70*seq_066_mvl/mxv
	BYTE	W12
	BYTE		N23     An2 
	BYTE	W09
	BYTE		VOL     66*seq_066_mvl/mxv
	BYTE	W03
	BYTE		        63*seq_066_mvl/mxv
	BYTE	W03
	BYTE		        60*seq_066_mvl/mxv
	BYTE	W03
	BYTE		        54*seq_066_mvl/mxv
	BYTE	W03
	BYTE		        47*seq_066_mvl/mxv
	BYTE	W03
	BYTE		        70*seq_066_mvl/mxv
	BYTE		N44     Bn2   v040
	BYTE	W09
	BYTE		VOL     70*seq_066_mvl/mxv
	BYTE	W03
	BYTE		        68*seq_066_mvl/mxv
	BYTE	W03
	BYTE		        66*seq_066_mvl/mxv
	BYTE	W03
	BYTE		        63*seq_066_mvl/mxv
	BYTE	W03
	BYTE		        60*seq_066_mvl/mxv
	BYTE	W03
	BYTE		        57*seq_066_mvl/mxv
	BYTE	W03
	BYTE		        53*seq_066_mvl/mxv
	BYTE	W03
	BYTE		        48*seq_066_mvl/mxv
	BYTE	W03
	BYTE		        43*seq_066_mvl/mxv
	BYTE	W03
	BYTE		        37*seq_066_mvl/mxv
	BYTE	W03
	BYTE		        31*seq_066_mvl/mxv
	BYTE	W03
	BYTE		        24*seq_066_mvl/mxv
	BYTE	W06
	BYTE		VOL     70*seq_066_mvl/mxv
	BYTE		N04     En2   v092
	BYTE	W06
	BYTE		        En2   v020
	BYTE	W06
	BYTE		N03     An2   v072
	BYTE	W06
	BYTE		N04     An2   v020
	BYTE	W06
	BYTE		N03     Cn3   v064
	BYTE	W06
	BYTE		N04     Cn3   v016
	BYTE	W06
	BYTE		        Cn3   v008
	BYTE	W24
	BYTE		N03     An2   v068
	BYTE	W06
	BYTE		N04     An2   v020
	BYTE	W06
	BYTE		N03     Fs2   v080
	BYTE	W06
	BYTE		N04     Fs2   v020
	BYTE	W06
	BYTE		N03     An2   v068
	BYTE	W06
	BYTE		N04     An2   v020
	BYTE	W06
	BYTE	PEND
	BYTE		        En2   v076
	BYTE	W06
	BYTE		        En2   v020
	BYTE	W06
	BYTE		N03     An2   v060
	BYTE	W06
	BYTE		N04     An2   v020
	BYTE	W06
	BYTE		N03     Cn3   v052
	BYTE	W06
	BYTE		N04     Cn3   v012
	BYTE	W06
	BYTE		        Cn3   v008
	BYTE	W60
	BYTE		N04     En2   v092
	BYTE	W06
	BYTE		        En2   v020
	BYTE	W06
	BYTE		N03     An2   v072
	BYTE	W06
	BYTE		N04     An2   v020
	BYTE	W06
	BYTE		N03     Cn3   v064
	BYTE	W06
	BYTE		N04     Cn3   v016
	BYTE	W06
	BYTE		        Cn3   v008
	BYTE	W24
	BYTE		N03     An2   v068
	BYTE	W06
	BYTE		N04     An2   v020
	BYTE	W06
	BYTE		N03     Fs2   v080
	BYTE	W06
	BYTE		N04     Fs2   v020
	BYTE	W06
	BYTE		N03     An2   v068
	BYTE	W06
	BYTE		N04     An2   v020
	BYTE	W06
	BYTE	PEND
	BYTE		N23     Gs2   v072
	BYTE	W09
	BYTE		VOL     66*seq_066_mvl/mxv
	BYTE	W03
	BYTE		        63*seq_066_mvl/mxv
	BYTE	W03
	BYTE		        60*seq_066_mvl/mxv
	BYTE	W03
	BYTE		        54*seq_066_mvl/mxv
	BYTE	W03
	BYTE		        47*seq_066_mvl/mxv
	BYTE	W03
	BYTE		        70*seq_066_mvl/mxv
	BYTE		N12     En2   v084
	BYTE	W12
	BYTE		        Fs2   v068
	BYTE	W12
	BYTE		N23     Gs2   v076
	BYTE	W09
	BYTE		VOL     66*seq_066_mvl/mxv
	BYTE	W03
	BYTE		        63*seq_066_mvl/mxv
	BYTE	W03
	BYTE		        60*seq_066_mvl/mxv
	BYTE	W03
	BYTE		        54*seq_066_mvl/mxv
	BYTE	W03
	BYTE		        47*seq_066_mvl/mxv
	BYTE	W03
	BYTE		        70*seq_066_mvl/mxv
	BYTE		N23     Bn2   v068
	BYTE	W09
	BYTE		VOL     66*seq_066_mvl/mxv
	BYTE	W03
	BYTE		        63*seq_066_mvl/mxv
	BYTE	W03
	BYTE		        60*seq_066_mvl/mxv
	BYTE	W03
	BYTE		        54*seq_066_mvl/mxv
	BYTE	W03
	BYTE		        47*seq_066_mvl/mxv
	BYTE	W03
	BYTE	PEND
	BYTE	PATT
	 POIN2	seq_066_5 + 0xFD
	BYTE		N03     Fn2   v092
	BYTE	W06
	BYTE		N04     Fn2   v020
	BYTE	W06
	BYTE		N03     An2   v072
	BYTE	W06
	BYTE		N04     An2   v020
	BYTE	W06
	BYTE		N03     Cn3   v064
	BYTE	W06
	BYTE		N04     Cn3   v016
	BYTE	W06
	BYTE		        Cn3   v008
	BYTE	W60
	BYTE	PEND
	BYTE		N44     Fn2   v068
	BYTE	W09
	BYTE		VOL     68*seq_066_mvl/mxv
	BYTE	W03
	BYTE		        67*seq_066_mvl/mxv
	BYTE	W03
	BYTE		        65*seq_066_mvl/mxv
	BYTE	W03
	BYTE		        63*seq_066_mvl/mxv
	BYTE	W03
	BYTE		        61*seq_066_mvl/mxv
	BYTE	W03
	BYTE		        58*seq_066_mvl/mxv
	BYTE	W03
	BYTE		        55*seq_066_mvl/mxv
	BYTE	W03
	BYTE		        52*seq_066_mvl/mxv
	BYTE	W03
	BYTE		        48*seq_066_mvl/mxv
	BYTE	W03
	BYTE		        44*seq_066_mvl/mxv
	BYTE	W03
	BYTE		        39*seq_066_mvl/mxv
	BYTE	W03
	BYTE		        34*seq_066_mvl/mxv
	BYTE	W03
	BYTE		        29*seq_066_mvl/mxv
	BYTE	W03
	BYTE		        70*seq_066_mvl/mxv
	BYTE		N44     En2   v064
	BYTE	W09
	BYTE		VOL     68*seq_066_mvl/mxv
	BYTE	W03
	BYTE		        67*seq_066_mvl/mxv
	BYTE	W03
	BYTE		        65*seq_066_mvl/mxv
	BYTE	W03
	BYTE		        63*seq_066_mvl/mxv
	BYTE	W03
	BYTE		        61*seq_066_mvl/mxv
	BYTE	W03
	BYTE		        58*seq_066_mvl/mxv
	BYTE	W03
	BYTE		        55*seq_066_mvl/mxv
	BYTE	W03
	BYTE		        52*seq_066_mvl/mxv
	BYTE	W03
	BYTE		        48*seq_066_mvl/mxv
	BYTE	W03
	BYTE		        44*seq_066_mvl/mxv
	BYTE	W03
	BYTE		        39*seq_066_mvl/mxv
	BYTE	W03
	BYTE		        34*seq_066_mvl/mxv
	BYTE	W03
	BYTE		        29*seq_066_mvl/mxv
	BYTE	W03
	BYTE		        70*seq_066_mvl/mxv
	BYTE		N68     En2   v060
	BYTE	W06
	BYTE		VOL     70*seq_066_mvl/mxv
	BYTE	W06
	BYTE		        69*seq_066_mvl/mxv
	BYTE	W03
	BYTE		        68*seq_066_mvl/mxv
	BYTE	W03
	BYTE		        67*seq_066_mvl/mxv
	BYTE	W03
	BYTE		        65*seq_066_mvl/mxv
	BYTE	W03
	BYTE		        63*seq_066_mvl/mxv
	BYTE	W03
	BYTE		        61*seq_066_mvl/mxv
	BYTE	W03
	BYTE		        58*seq_066_mvl/mxv
	BYTE	W03
	BYTE		        55*seq_066_mvl/mxv
	BYTE	W03
	BYTE		        52*seq_066_mvl/mxv
	BYTE	W03
	BYTE		        49*seq_066_mvl/mxv
	BYTE	W03
	BYTE		        45*seq_066_mvl/mxv
	BYTE	W03
	BYTE		        41*seq_066_mvl/mxv
	BYTE	W03
	BYTE		        36*seq_066_mvl/mxv
	BYTE	W03
	BYTE		        31*seq_066_mvl/mxv
	BYTE	W03
	BYTE		        25*seq_066_mvl/mxv
	BYTE	W03
	BYTE		        19*seq_066_mvl/mxv
	BYTE	W03
	BYTE		        12*seq_066_mvl/mxv
	BYTE	W03
	BYTE		        8*seq_066_mvl/mxv
	BYTE	W03
	BYTE		        5*seq_066_mvl/mxv
	BYTE	W03
	BYTE		        2*seq_066_mvl/mxv
	BYTE	W18
	BYTE		        70*seq_066_mvl/mxv
	BYTE	W08
	BYTE	W01
	BYTE	PATT
	 POIN2	seq_066_5 + 0x14B
	BYTE		N04     En2   v076
	BYTE	W06
	BYTE		        En2   v020
	BYTE	W06
	BYTE		N03     An2   v060
	BYTE	W06
	BYTE		N04     An2   v020
	BYTE	W06
	BYTE		N03     Cn3   v052
	BYTE	W06
	BYTE		N04     Cn3   v012
	BYTE	W06
	BYTE		        Cn3   v004
	BYTE	W60
	BYTE	PATT
	 POIN2	seq_066_5 + 0x14B
	BYTE	PATT
	 POIN2	seq_066_5 + 0x17E
	BYTE	PATT
	 POIN2	seq_066_5 + 0xFD
	BYTE	PATT
	 POIN2	seq_066_5 + 0x1BA
	BYTE		N44     Fn2   v068
	BYTE	W09
	BYTE		VOL     68*seq_066_mvl/mxv
	BYTE	W03
	BYTE		        67*seq_066_mvl/mxv
	BYTE	W03
	BYTE		        65*seq_066_mvl/mxv
	BYTE	W03
	BYTE		        63*seq_066_mvl/mxv
	BYTE	W03
	BYTE		        61*seq_066_mvl/mxv
	BYTE	W03
	BYTE		        58*seq_066_mvl/mxv
	BYTE	W03
	BYTE		        55*seq_066_mvl/mxv
	BYTE	W03
	BYTE		        52*seq_066_mvl/mxv
	BYTE	W03
	BYTE		        48*seq_066_mvl/mxv
	BYTE	W03
	BYTE		        44*seq_066_mvl/mxv
	BYTE	W03
	BYTE		        39*seq_066_mvl/mxv
	BYTE	W03
	BYTE		        34*seq_066_mvl/mxv
	BYTE	W03
	BYTE		        29*seq_066_mvl/mxv
	BYTE	W03
	BYTE		        70*seq_066_mvl/mxv
	BYTE		N44     En2   v064
	BYTE	W03
	BYTE		VOL     71*seq_066_mvl/mxv
	BYTE	W06
	BYTE		        72*seq_066_mvl/mxv
	BYTE	W03
	BYTE		        73*seq_066_mvl/mxv
	BYTE	W03
	BYTE		        75*seq_066_mvl/mxv
	BYTE	W03
	BYTE		        76*seq_066_mvl/mxv
	BYTE	W06
	BYTE		        75*seq_066_mvl/mxv
	BYTE	W03
	BYTE		        75*seq_066_mvl/mxv
	BYTE	W03
	BYTE		        73*seq_066_mvl/mxv
	BYTE	W03
	BYTE		        72*seq_066_mvl/mxv
	BYTE	W03
	BYTE		        70*seq_066_mvl/mxv
	BYTE	W03
	BYTE		        68*seq_066_mvl/mxv
	BYTE	W03
	BYTE		        65*seq_066_mvl/mxv
	BYTE	W03
	BYTE		        62*seq_066_mvl/mxv
	BYTE	W03
	BYTE		        70*seq_066_mvl/mxv
	BYTE		N72     Fn2   v068
	BYTE	W06
	BYTE		VOL     69*seq_066_mvl/mxv
	BYTE	W09
	BYTE		        68*seq_066_mvl/mxv
	BYTE	W03
	BYTE		        67*seq_066_mvl/mxv
	BYTE	W03
	BYTE		        66*seq_066_mvl/mxv
	BYTE	W03
	BYTE		        65*seq_066_mvl/mxv
	BYTE	W03
	BYTE		        63*seq_066_mvl/mxv
	BYTE	W03
	BYTE		        61*seq_066_mvl/mxv
	BYTE	W03
	BYTE		        59*seq_066_mvl/mxv
	BYTE	W03
	BYTE		        57*seq_066_mvl/mxv
	BYTE	W03
	BYTE		        54*seq_066_mvl/mxv
	BYTE	W03
	BYTE		        51*seq_066_mvl/mxv
	BYTE	W03
	BYTE		        48*seq_066_mvl/mxv
	BYTE	W03
	BYTE		        44*seq_066_mvl/mxv
	BYTE	W03
	BYTE		        40*seq_066_mvl/mxv
	BYTE	W03
	BYTE		        36*seq_066_mvl/mxv
	BYTE	W03
	BYTE		        30*seq_066_mvl/mxv
	BYTE	W03
	BYTE		        25*seq_066_mvl/mxv
	BYTE	W03
	BYTE		        19*seq_066_mvl/mxv
	BYTE	W03
	BYTE		        12*seq_066_mvl/mxv
	BYTE	W30
	BYTE	W96
	BYTE	W96
	BYTE	W96
	BYTE	W96
	BYTE	W96
	BYTE	W96
	BYTE	W96
	BYTE	W80
	BYTE	W02
	BYTE		        70*seq_066_mvl/mxv
	BYTE	W14
	BYTE		N23     An2   v080
	BYTE	W09
	BYTE		VOL     66*seq_066_mvl/mxv
	BYTE	W03
	BYTE		        63*seq_066_mvl/mxv
	BYTE	W03
	BYTE		        60*seq_066_mvl/mxv
	BYTE	W03
	BYTE		        54*seq_066_mvl/mxv
	BYTE	W03
	BYTE		        47*seq_066_mvl/mxv
	BYTE	W03
	BYTE		        70*seq_066_mvl/mxv
	BYTE		N23     Gs2   v068
	BYTE	W09
	BYTE		VOL     66*seq_066_mvl/mxv
	BYTE	W03
	BYTE		        63*seq_066_mvl/mxv
	BYTE	W03
	BYTE		        60*seq_066_mvl/mxv
	BYTE	W03
	BYTE		        54*seq_066_mvl/mxv
	BYTE	W03
	BYTE		        47*seq_066_mvl/mxv
	BYTE	W03
	BYTE		        70*seq_066_mvl/mxv
	BYTE		N44     Fs2   v056
	BYTE	W03
	BYTE		VOL     72*seq_066_mvl/mxv
	BYTE	W03
	BYTE		        74*seq_066_mvl/mxv
	BYTE	W03
	BYTE		        77*seq_066_mvl/mxv
	BYTE	W03
	BYTE		        80*seq_066_mvl/mxv
	BYTE	W03
	BYTE		        80*seq_066_mvl/mxv
	BYTE	W03
	BYTE		        78*seq_066_mvl/mxv
	BYTE	W03
	BYTE		        76*seq_066_mvl/mxv
	BYTE	W03
	BYTE		        72*seq_066_mvl/mxv
	BYTE	W03
	BYTE		        68*seq_066_mvl/mxv
	BYTE	W03
	BYTE		        63*seq_066_mvl/mxv
	BYTE	W03
	BYTE		        56*seq_066_mvl/mxv
	BYTE	W03
	BYTE		        48*seq_066_mvl/mxv
	BYTE	W03
	BYTE		        40*seq_066_mvl/mxv
	BYTE	W03
	BYTE		        31*seq_066_mvl/mxv
	BYTE	W03
	BYTE		        24*seq_066_mvl/mxv
	BYTE	W03
	BYTE		        70*seq_066_mvl/mxv
	BYTE		N23     En2   v076
	BYTE	W09
	BYTE		VOL     66*seq_066_mvl/mxv
	BYTE	W03
	BYTE		        63*seq_066_mvl/mxv
	BYTE	W03
	BYTE		        60*seq_066_mvl/mxv
	BYTE	W03
	BYTE		        54*seq_066_mvl/mxv
	BYTE	W03
	BYTE		        47*seq_066_mvl/mxv
	BYTE	W03
	BYTE		        70*seq_066_mvl/mxv
	BYTE		N12     Fs2   v080
	BYTE	W12
	BYTE		N11     Gs2   v072
	BYTE	W11
	BYTE		N22     An2   v076
	BYTE	W04
	BYTE		VOL     69*seq_066_mvl/mxv
	BYTE	W03
	BYTE		        68*seq_066_mvl/mxv
	BYTE	W03
	BYTE		        64*seq_066_mvl/mxv
	BYTE	W03
	BYTE		        58*seq_066_mvl/mxv
	BYTE	W03
	BYTE		        49*seq_066_mvl/mxv
	BYTE	W03
	BYTE		        38*seq_066_mvl/mxv
	BYTE	W03
	BYTE		        24*seq_066_mvl/mxv
	BYTE	W10
	BYTE		        70*seq_066_mvl/mxv
	BYTE	W17
	BYTE		N44
	BYTE	W09
	BYTE		VOL     68*seq_066_mvl/mxv
	BYTE	W03
	BYTE		        67*seq_066_mvl/mxv
	BYTE	W03
	BYTE		        65*seq_066_mvl/mxv
	BYTE	W03
	BYTE		        63*seq_066_mvl/mxv
	BYTE	W03
	BYTE		        61*seq_066_mvl/mxv
	BYTE	W03
	BYTE		        58*seq_066_mvl/mxv
	BYTE	W03
	BYTE		        55*seq_066_mvl/mxv
	BYTE	W03
	BYTE		        52*seq_066_mvl/mxv
	BYTE	W03
	BYTE		        48*seq_066_mvl/mxv
	BYTE	W03
	BYTE		        44*seq_066_mvl/mxv
	BYTE	W03
	BYTE		        39*seq_066_mvl/mxv
	BYTE	W03
	BYTE		        34*seq_066_mvl/mxv
	BYTE	W03
	BYTE		        29*seq_066_mvl/mxv
	BYTE	W03
	BYTE		        70*seq_066_mvl/mxv
	BYTE		N44     Bn2   v080
	BYTE	W09
	BYTE		VOL     68*seq_066_mvl/mxv
	BYTE	W03
	BYTE		        67*seq_066_mvl/mxv
	BYTE	W03
	BYTE		        65*seq_066_mvl/mxv
	BYTE	W03
	BYTE		        63*seq_066_mvl/mxv
	BYTE	W03
	BYTE		        61*seq_066_mvl/mxv
	BYTE	W03
	BYTE		        58*seq_066_mvl/mxv
	BYTE	W03
	BYTE		        55*seq_066_mvl/mxv
	BYTE	W03
	BYTE		        52*seq_066_mvl/mxv
	BYTE	W03
	BYTE		        48*seq_066_mvl/mxv
	BYTE	W03
	BYTE		        44*seq_066_mvl/mxv
	BYTE	W03
	BYTE		        39*seq_066_mvl/mxv
	BYTE	W03
	BYTE		        34*seq_066_mvl/mxv
	BYTE	W03
	BYTE		        29*seq_066_mvl/mxv
	BYTE	W03
	BYTE		        70*seq_066_mvl/mxv
	BYTE		N68     Gs2   v060
	BYTE	W06
	BYTE		VOL     70*seq_066_mvl/mxv
	BYTE	W06
	BYTE		        69*seq_066_mvl/mxv
	BYTE	W03
	BYTE		        68*seq_066_mvl/mxv
	BYTE	W03
	BYTE		        67*seq_066_mvl/mxv
	BYTE	W03
	BYTE		        65*seq_066_mvl/mxv
	BYTE	W03
	BYTE		        63*seq_066_mvl/mxv
	BYTE	W03
	BYTE		        61*seq_066_mvl/mxv
	BYTE	W03
	BYTE		        58*seq_066_mvl/mxv
	BYTE	W03
	BYTE		        55*seq_066_mvl/mxv
	BYTE	W03
	BYTE		        52*seq_066_mvl/mxv
	BYTE	W03
	BYTE		        49*seq_066_mvl/mxv
	BYTE	W03
	BYTE		        45*seq_066_mvl/mxv
	BYTE	W03
	BYTE		        41*seq_066_mvl/mxv
	BYTE	W03
	BYTE		        36*seq_066_mvl/mxv
	BYTE	W03
	BYTE		        31*seq_066_mvl/mxv
	BYTE	W03
	BYTE		        25*seq_066_mvl/mxv
	BYTE	W03
	BYTE		        19*seq_066_mvl/mxv
	BYTE	W03
	BYTE		        12*seq_066_mvl/mxv
	BYTE	W03
	BYTE		        8*seq_066_mvl/mxv
	BYTE	W03
	BYTE		        4*seq_066_mvl/mxv
	BYTE	W03
	BYTE		        2*seq_066_mvl/mxv
	BYTE	W15
	BYTE		        70*seq_066_mvl/mxv
	BYTE	W12
	BYTE		N23     As2   v068
	BYTE	W09
	BYTE		VOL     66*seq_066_mvl/mxv
	BYTE	W03
	BYTE		        63*seq_066_mvl/mxv
	BYTE	W03
	BYTE		        60*seq_066_mvl/mxv
	BYTE	W03
	BYTE		        54*seq_066_mvl/mxv
	BYTE	W03
	BYTE		        47*seq_066_mvl/mxv
	BYTE	W03
	BYTE		        70*seq_066_mvl/mxv
	BYTE		N23     Fs2   v060
	BYTE	W09
	BYTE		VOL     66*seq_066_mvl/mxv
	BYTE	W03
	BYTE		        63*seq_066_mvl/mxv
	BYTE	W03
	BYTE		        60*seq_066_mvl/mxv
	BYTE	W03
	BYTE		        54*seq_066_mvl/mxv
	BYTE	W03
	BYTE		        47*seq_066_mvl/mxv
	BYTE	W03
	BYTE		        70*seq_066_mvl/mxv
	BYTE		N44     Dn2 
	BYTE	W09
	BYTE		VOL     68*seq_066_mvl/mxv
	BYTE	W03
	BYTE		        67*seq_066_mvl/mxv
	BYTE	W03
	BYTE		        65*seq_066_mvl/mxv
	BYTE	W03
	BYTE		        63*seq_066_mvl/mxv
	BYTE	W03
	BYTE		        61*seq_066_mvl/mxv
	BYTE	W03
	BYTE		        58*seq_066_mvl/mxv
	BYTE	W03
	BYTE		        55*seq_066_mvl/mxv
	BYTE	W03
	BYTE		        52*seq_066_mvl/mxv
	BYTE	W03
	BYTE		        48*seq_066_mvl/mxv
	BYTE	W03
	BYTE		        44*seq_066_mvl/mxv
	BYTE	W03
	BYTE		        39*seq_066_mvl/mxv
	BYTE	W03
	BYTE		        34*seq_066_mvl/mxv
	BYTE	W03
	BYTE		        29*seq_066_mvl/mxv
	BYTE	W03
	BYTE		        70*seq_066_mvl/mxv
	BYTE		N23     Gs2 
	BYTE	W09
	BYTE		VOL     66*seq_066_mvl/mxv
	BYTE	W03
	BYTE		        63*seq_066_mvl/mxv
	BYTE	W03
	BYTE		        60*seq_066_mvl/mxv
	BYTE	W03
	BYTE		        54*seq_066_mvl/mxv
	BYTE	W03
	BYTE		        47*seq_066_mvl/mxv
	BYTE	W03
	BYTE		        70*seq_066_mvl/mxv
	BYTE		N23     En2   v056
	BYTE	W09
	BYTE		VOL     66*seq_066_mvl/mxv
	BYTE	W03
	BYTE		        63*seq_066_mvl/mxv
	BYTE	W03
	BYTE		        60*seq_066_mvl/mxv
	BYTE	W03
	BYTE		        54*seq_066_mvl/mxv
	BYTE	W03
	BYTE		        47*seq_066_mvl/mxv
	BYTE	W03
	BYTE		        70*seq_066_mvl/mxv
	BYTE		N44     Cs2   v060
	BYTE	W09
	BYTE		VOL     68*seq_066_mvl/mxv
	BYTE	W03
	BYTE		        67*seq_066_mvl/mxv
	BYTE	W03
	BYTE		        65*seq_066_mvl/mxv
	BYTE	W03
	BYTE		        63*seq_066_mvl/mxv
	BYTE	W03
	BYTE		        61*seq_066_mvl/mxv
	BYTE	W03
	BYTE		        58*seq_066_mvl/mxv
	BYTE	W03
	BYTE		        55*seq_066_mvl/mxv
	BYTE	W03
	BYTE		        52*seq_066_mvl/mxv
	BYTE	W03
	BYTE		        48*seq_066_mvl/mxv
	BYTE	W03
	BYTE		        44*seq_066_mvl/mxv
	BYTE	W03
	BYTE		        39*seq_066_mvl/mxv
	BYTE	W03
	BYTE		        34*seq_066_mvl/mxv
	BYTE	W03
	BYTE		        29*seq_066_mvl/mxv
	BYTE	W03
	BYTE		        70*seq_066_mvl/mxv
	BYTE		N44     Fs2   v076
	BYTE	W09
	BYTE		VOL     68*seq_066_mvl/mxv
	BYTE	W03
	BYTE		        67*seq_066_mvl/mxv
	BYTE	W03
	BYTE		        65*seq_066_mvl/mxv
	BYTE	W03
	BYTE		        63*seq_066_mvl/mxv
	BYTE	W03
	BYTE		        61*seq_066_mvl/mxv
	BYTE	W03
	BYTE		        58*seq_066_mvl/mxv
	BYTE	W03
	BYTE		        55*seq_066_mvl/mxv
	BYTE	W03
	BYTE		        52*seq_066_mvl/mxv
	BYTE	W03
	BYTE		        48*seq_066_mvl/mxv
	BYTE	W03
	BYTE		        44*seq_066_mvl/mxv
	BYTE	W03
	BYTE		        39*seq_066_mvl/mxv
	BYTE	W03
	BYTE		        34*seq_066_mvl/mxv
	BYTE	W03
	BYTE		        29*seq_066_mvl/mxv
	BYTE	W03
	BYTE		        70*seq_066_mvl/mxv
	BYTE		N44     En2   v080
	BYTE	W09
	BYTE		VOL     68*seq_066_mvl/mxv
	BYTE	W03
	BYTE		        67*seq_066_mvl/mxv
	BYTE	W03
	BYTE		        65*seq_066_mvl/mxv
	BYTE	W03
	BYTE		        63*seq_066_mvl/mxv
	BYTE	W03
	BYTE		        61*seq_066_mvl/mxv
	BYTE	W03
	BYTE		        58*seq_066_mvl/mxv
	BYTE	W03
	BYTE		        55*seq_066_mvl/mxv
	BYTE	W03
	BYTE		        52*seq_066_mvl/mxv
	BYTE	W03
	BYTE		        48*seq_066_mvl/mxv
	BYTE	W03
	BYTE		        44*seq_066_mvl/mxv
	BYTE	W03
	BYTE		        39*seq_066_mvl/mxv
	BYTE	W03
	BYTE		        34*seq_066_mvl/mxv
	BYTE	W03
	BYTE		        29*seq_066_mvl/mxv
	BYTE	W03
	BYTE		        70*seq_066_mvl/mxv
	BYTE		N56     Ds2   v088
	BYTE	W03
	BYTE		VOL     71*seq_066_mvl/mxv
	BYTE	W03
	BYTE		        72*seq_066_mvl/mxv
	BYTE	W03
	BYTE		        73*seq_066_mvl/mxv
	BYTE	W03
	BYTE		        75*seq_066_mvl/mxv
	BYTE	W03
	BYTE		        74*seq_066_mvl/mxv
	BYTE	W03
	BYTE		        73*seq_066_mvl/mxv
	BYTE	W03
	BYTE		        71*seq_066_mvl/mxv
	BYTE	W03
	BYTE		        68*seq_066_mvl/mxv
	BYTE	W03
	BYTE		        65*seq_066_mvl/mxv
	BYTE	W03
	BYTE		        60*seq_066_mvl/mxv
	BYTE	W03
	BYTE		        55*seq_066_mvl/mxv
	BYTE	W03
	BYTE		        49*seq_066_mvl/mxv
	BYTE	W03
	BYTE		        42*seq_066_mvl/mxv
	BYTE	W03
	BYTE		        35*seq_066_mvl/mxv
	BYTE	W03
	BYTE		        26*seq_066_mvl/mxv
	BYTE	W03
	BYTE		        17*seq_066_mvl/mxv
	BYTE	W03
	BYTE		        11*seq_066_mvl/mxv
	BYTE	W03
	BYTE		        5*seq_066_mvl/mxv
	BYTE	W03
	BYTE		        2*seq_066_mvl/mxv
	BYTE	W12
	BYTE		        70*seq_066_mvl/mxv
	BYTE	W24
	BYTE	W03
	BYTE		N44     Fs3   v048
	BYTE	W09
	BYTE		VOL     68*seq_066_mvl/mxv
	BYTE	W03
	BYTE		        67*seq_066_mvl/mxv
	BYTE	W03
	BYTE		        65*seq_066_mvl/mxv
	BYTE	W03
	BYTE		        63*seq_066_mvl/mxv
	BYTE	W03
	BYTE		        61*seq_066_mvl/mxv
	BYTE	W03
	BYTE		        58*seq_066_mvl/mxv
	BYTE	W03
	BYTE		        55*seq_066_mvl/mxv
	BYTE	W03
	BYTE		        52*seq_066_mvl/mxv
	BYTE	W03
	BYTE		        48*seq_066_mvl/mxv
	BYTE	W03
	BYTE		        44*seq_066_mvl/mxv
	BYTE	W03
	BYTE		        39*seq_066_mvl/mxv
	BYTE	W03
	BYTE		        34*seq_066_mvl/mxv
	BYTE	W03
	BYTE		        29*seq_066_mvl/mxv
	BYTE	W03
	BYTE		        70*seq_066_mvl/mxv
	BYTE		N44     En3   v044
	BYTE	W09
	BYTE		VOL     68*seq_066_mvl/mxv
	BYTE	W03
	BYTE		        67*seq_066_mvl/mxv
	BYTE	W03
	BYTE		        65*seq_066_mvl/mxv
	BYTE	W03
	BYTE		        63*seq_066_mvl/mxv
	BYTE	W03
	BYTE		        61*seq_066_mvl/mxv
	BYTE	W03
	BYTE		        58*seq_066_mvl/mxv
	BYTE	W03
	BYTE		        55*seq_066_mvl/mxv
	BYTE	W03
	BYTE		        52*seq_066_mvl/mxv
	BYTE	W03
	BYTE		        48*seq_066_mvl/mxv
	BYTE	W03
	BYTE		        44*seq_066_mvl/mxv
	BYTE	W03
	BYTE		        39*seq_066_mvl/mxv
	BYTE	W03
	BYTE		        34*seq_066_mvl/mxv
	BYTE	W03
	BYTE		        29*seq_066_mvl/mxv
	BYTE	W03
	BYTE		        70*seq_066_mvl/mxv
	BYTE		N44     Dn3   v040
	BYTE	W09
	BYTE		VOL     68*seq_066_mvl/mxv
	BYTE	W03
	BYTE		        67*seq_066_mvl/mxv
	BYTE	W03
	BYTE		        65*seq_066_mvl/mxv
	BYTE	W03
	BYTE		        63*seq_066_mvl/mxv
	BYTE	W03
	BYTE		        61*seq_066_mvl/mxv
	BYTE	W03
	BYTE		        58*seq_066_mvl/mxv
	BYTE	W03
	BYTE		        55*seq_066_mvl/mxv
	BYTE	W03
	BYTE		        52*seq_066_mvl/mxv
	BYTE	W03
	BYTE		        48*seq_066_mvl/mxv
	BYTE	W03
	BYTE		        44*seq_066_mvl/mxv
	BYTE	W03
	BYTE		        39*seq_066_mvl/mxv
	BYTE	W03
	BYTE		        34*seq_066_mvl/mxv
	BYTE	W03
	BYTE		        29*seq_066_mvl/mxv
	BYTE	W03
	BYTE		        70*seq_066_mvl/mxv
	BYTE		N48     Bn2   v032
	BYTE	W09
	BYTE		VOL     70*seq_066_mvl/mxv
	BYTE	W03
	BYTE		        69*seq_066_mvl/mxv
	BYTE	W03
	BYTE		        68*seq_066_mvl/mxv
	BYTE	W03
	BYTE		        65*seq_066_mvl/mxv
	BYTE	W03
	BYTE		        63*seq_066_mvl/mxv
	BYTE	W03
	BYTE		        58*seq_066_mvl/mxv
	BYTE	W03
	BYTE		        53*seq_066_mvl/mxv
	BYTE	W03
	BYTE		        47*seq_066_mvl/mxv
	BYTE	W03
	BYTE		        41*seq_066_mvl/mxv
	BYTE	W03
	BYTE		        33*seq_066_mvl/mxv
	BYTE	W01
	BYTE		        29*seq_066_mvl/mxv
	BYTE	W02
	BYTE		        24*seq_066_mvl/mxv
	BYTE	W01
	BYTE		        19*seq_066_mvl/mxv
	BYTE	W02
	BYTE		        14*seq_066_mvl/mxv
	BYTE	W01
	BYTE		        11*seq_066_mvl/mxv
	BYTE	W02
	BYTE		        9*seq_066_mvl/mxv
	BYTE	W01
	BYTE		        7*seq_066_mvl/mxv
	BYTE	W02
	BYTE	GoTo
	 POIN2	seq_066_5 + 0x2E
	BYTE		VOL     4*seq_066_mvl/mxv
	BYTE	W07
	BYTE	FINE

//*********************** Track 07 ***********************//

seq_066_6:
	BYTE	KEYSH   seq_066_key+0
	BYTE		VOICE   45
	BYTE	W02
	BYTE		PAN     c_v-14
	BYTE	W01
	BYTE	W96
	BYTE	W96
	BYTE	W96
	BYTE	W96
	BYTE	W96
	BYTE	W96
	BYTE	W96
	BYTE	W96
	BYTE	W96
	BYTE	W96
	BYTE	W96
	BYTE	W96
	BYTE	W96
	BYTE	W96
	BYTE	W96
	BYTE	W96
	BYTE	W96
	BYTE	W96
	BYTE	W96
	BYTE	W96
	BYTE	W96
	BYTE	W96
	BYTE	W96
	BYTE	W96
	BYTE	W96
	BYTE	W96
	BYTE	W96
	BYTE	W96
	BYTE	W96
	BYTE	W96
	BYTE	W96
	BYTE	W96
	BYTE	W96
	BYTE	W96
	BYTE	W96
	BYTE	W96
	BYTE	W96
	BYTE	W96
	BYTE	W12
	BYTE		VOL     70*seq_066_mvl/mxv
	BYTE	W10
	BYTE	W02
	BYTE		N23     Cs2   v068
	BYTE	W09
	BYTE		VOL     66*seq_066_mvl/mxv
	BYTE	W03
	BYTE		        63*seq_066_mvl/mxv
	BYTE	W03
	BYTE		        60*seq_066_mvl/mxv
	BYTE	W03
	BYTE		        54*seq_066_mvl/mxv
	BYTE	W03
	BYTE		        47*seq_066_mvl/mxv
	BYTE	W03
	BYTE		        70*seq_066_mvl/mxv
	BYTE		N48     Dn2   v060
	BYTE	W03
	BYTE		VOL     70*seq_066_mvl/mxv
	BYTE	W06
	BYTE		        69*seq_066_mvl/mxv
	BYTE	W03
	BYTE		        67*seq_066_mvl/mxv
	BYTE	W03
	BYTE		        65*seq_066_mvl/mxv
	BYTE	W03
	BYTE		        62*seq_066_mvl/mxv
	BYTE	W03
	BYTE		        58*seq_066_mvl/mxv
	BYTE	W03
	BYTE		        53*seq_066_mvl/mxv
	BYTE	W03
	BYTE		        48*seq_066_mvl/mxv
	BYTE	W03
	BYTE		        43*seq_066_mvl/mxv
	BYTE	W03
	BYTE		        37*seq_066_mvl/mxv
	BYTE	W03
	BYTE		        30*seq_066_mvl/mxv
	BYTE	W03
	BYTE		        22*seq_066_mvl/mxv
	BYTE	W03
	BYTE		        14*seq_066_mvl/mxv
	BYTE	W03
	BYTE		        7*seq_066_mvl/mxv
	BYTE	W03
	BYTE	W12
	BYTE		        70*seq_066_mvl/mxv
	BYTE	W12
	BYTE		N23     En2   v052
	BYTE	W09
	BYTE		VOL     66*seq_066_mvl/mxv
	BYTE	W03
	BYTE		        63*seq_066_mvl/mxv
	BYTE	W03
	BYTE		        60*seq_066_mvl/mxv
	BYTE	W03
	BYTE		        54*seq_066_mvl/mxv
	BYTE	W03
	BYTE		        47*seq_066_mvl/mxv
	BYTE	W03
	BYTE		        70*seq_066_mvl/mxv
	BYTE		N48     Fs2   v048
	BYTE	W03
	BYTE		VOL     70*seq_066_mvl/mxv
	BYTE	W06
	BYTE		        68*seq_066_mvl/mxv
	BYTE	W03
	BYTE		        67*seq_066_mvl/mxv
	BYTE	W03
	BYTE		        64*seq_066_mvl/mxv
	BYTE	W03
	BYTE		        61*seq_066_mvl/mxv
	BYTE	W03
	BYTE		        58*seq_066_mvl/mxv
	BYTE	W03
	BYTE		        53*seq_066_mvl/mxv
	BYTE	W03
	BYTE		        48*seq_066_mvl/mxv
	BYTE	W03
	BYTE		        42*seq_066_mvl/mxv
	BYTE	W03
	BYTE		        36*seq_066_mvl/mxv
	BYTE	W03
	BYTE		        29*seq_066_mvl/mxv
	BYTE	W03
	BYTE		        21*seq_066_mvl/mxv
	BYTE	W03
	BYTE		        12*seq_066_mvl/mxv
	BYTE	W03
	BYTE		        7*seq_066_mvl/mxv
	BYTE	W03
	BYTE	W12
	BYTE		        70*seq_066_mvl/mxv
	BYTE	W12
	BYTE		N23     Cs2   v056
	BYTE	W09
	BYTE		VOL     66*seq_066_mvl/mxv
	BYTE	W03
	BYTE		        63*seq_066_mvl/mxv
	BYTE	W03
	BYTE		        60*seq_066_mvl/mxv
	BYTE	W03
	BYTE		        54*seq_066_mvl/mxv
	BYTE	W03
	BYTE		        47*seq_066_mvl/mxv
	BYTE	W03
	BYTE		        70*seq_066_mvl/mxv
	BYTE		N48     Dn2   v052
	BYTE	W03
	BYTE		VOL     70*seq_066_mvl/mxv
	BYTE	W03
	BYTE		        69*seq_066_mvl/mxv
	BYTE	W03
	BYTE		        68*seq_066_mvl/mxv
	BYTE	W03
	BYTE		        66*seq_066_mvl/mxv
	BYTE	W03
	BYTE		        63*seq_066_mvl/mxv
	BYTE	W03
	BYTE		        60*seq_066_mvl/mxv
	BYTE	W03
	BYTE		        57*seq_066_mvl/mxv
	BYTE	W03
	BYTE		        52*seq_066_mvl/mxv
	BYTE	W03
	BYTE		        46*seq_066_mvl/mxv
	BYTE	W03
	BYTE		        40*seq_066_mvl/mxv
	BYTE	W03
	BYTE		        34*seq_066_mvl/mxv
	BYTE	W03
	BYTE		        26*seq_066_mvl/mxv
	BYTE	W03
	BYTE		        17*seq_066_mvl/mxv
	BYTE	W03
	BYTE		        9*seq_066_mvl/mxv
	BYTE	W03
	BYTE		        4*seq_066_mvl/mxv
	BYTE	W03
	BYTE	W12
	BYTE		        70*seq_066_mvl/mxv
	BYTE	W12
	BYTE		N23     En2 
	BYTE	W09
	BYTE		VOL     66*seq_066_mvl/mxv
	BYTE	W03
	BYTE		        63*seq_066_mvl/mxv
	BYTE	W03
	BYTE		        60*seq_066_mvl/mxv
	BYTE	W03
	BYTE		        54*seq_066_mvl/mxv
	BYTE	W03
	BYTE		        47*seq_066_mvl/mxv
	BYTE	W03
	BYTE		        70*seq_066_mvl/mxv
	BYTE		N44     Fs2   v044
	BYTE	W09
	BYTE		VOL     70*seq_066_mvl/mxv
	BYTE	W03
	BYTE		        68*seq_066_mvl/mxv
	BYTE	W03
	BYTE		        66*seq_066_mvl/mxv
	BYTE	W03
	BYTE		        63*seq_066_mvl/mxv
	BYTE	W03
	BYTE		        60*seq_066_mvl/mxv
	BYTE	W03
	BYTE		        57*seq_066_mvl/mxv
	BYTE	W03
	BYTE		        53*seq_066_mvl/mxv
	BYTE	W03
	BYTE		        48*seq_066_mvl/mxv
	BYTE	W03
	BYTE		        43*seq_066_mvl/mxv
	BYTE	W03
	BYTE		        37*seq_066_mvl/mxv
	BYTE	W03
	BYTE		        31*seq_066_mvl/mxv
	BYTE	W03
	BYTE		        24*seq_066_mvl/mxv
	BYTE	W06
	BYTE	W30
	BYTE		        70*seq_066_mvl/mxv
	BYTE	W66
	BYTE	W96
	BYTE	W96
	BYTE	W96
	BYTE	W96
	BYTE	W96
	BYTE	W96
	BYTE	W96
	BYTE	W96
	BYTE	W96
	BYTE	W96
	BYTE	W96
	BYTE	W96
	BYTE	W96
	BYTE	W96
	BYTE	W96
	BYTE	W96
	BYTE	W96
	BYTE	W96
	BYTE	W96
	BYTE	W96
	BYTE	W96
	BYTE	W96
	BYTE	W96
	BYTE	W96
	BYTE	W96
	BYTE	W96
	BYTE	W96
	BYTE	W96
	BYTE	W96
	BYTE	W96
	BYTE	W96
	BYTE	W96
	BYTE	W96
	BYTE	GoTo
	 POIN2	seq_066_6 + 0x2E
	BYTE	W07
	BYTE	FINE

//*********************** Track 08 ***********************//

seq_066_7:
	BYTE	KEYSH   seq_066_key+0
	BYTE	W03
	BYTE	W01
	BYTE		VOICE   64
	BYTE	W01
	BYTE		VOL     77*seq_066_mvl/mxv
	BYTE	W01
	BYTE		PAN     c_v-64
	BYTE		BEND    c_v+0
	BYTE	W24
	BYTE	W01
	BYTE		N23     An1   v024
	BYTE	W24
	BYTE		N48     Bn1   v020
	BYTE	W12
	BYTE		VOL     76*seq_066_mvl/mxv
	BYTE	W06
	BYTE		        71*seq_066_mvl/mxv
	BYTE		BEND    c_v+1
	BYTE	W06
	BYTE		VOL     66*seq_066_mvl/mxv
	BYTE	W06
	BYTE		        59*seq_066_mvl/mxv
	BYTE	W06
	BYTE		        48*seq_066_mvl/mxv
	BYTE	W03
	BYTE		        41*seq_066_mvl/mxv
	BYTE	W03
	BYTE		        29*seq_066_mvl/mxv
	BYTE	W02
	BYTE	W04
	BYTE		BEND    c_v+0
	BYTE	W12
	BYTE		VOL     77*seq_066_mvl/mxv
	BYTE	W12
	BYTE		N23     Cs2 
	BYTE	W24
	BYTE		N48     Dn2 
	BYTE	W12
	BYTE		VOL     76*seq_066_mvl/mxv
	BYTE	W06
	BYTE		        71*seq_066_mvl/mxv
	BYTE		BEND    c_v+1
	BYTE	W06
	BYTE		VOL     66*seq_066_mvl/mxv
	BYTE	W06
	BYTE		        59*seq_066_mvl/mxv
	BYTE	W06
	BYTE		        48*seq_066_mvl/mxv
	BYTE	W03
	BYTE		        41*seq_066_mvl/mxv
	BYTE	W03
	BYTE		        29*seq_066_mvl/mxv
	BYTE	W02
	BYTE	W04
	BYTE		BEND    c_v+0
	BYTE	W12
	BYTE		VOL     77*seq_066_mvl/mxv
	BYTE	W03
	BYTE		BEND    c_v+0
	BYTE	W09
	BYTE		N23     An1   v024
	BYTE	W24
	BYTE		N48     Bn1   v020
	BYTE	W12
	BYTE		VOL     76*seq_066_mvl/mxv
	BYTE	W06
	BYTE		        71*seq_066_mvl/mxv
	BYTE		BEND    c_v+1
	BYTE	W06
	BYTE		VOL     66*seq_066_mvl/mxv
	BYTE	W06
	BYTE		        59*seq_066_mvl/mxv
	BYTE	W06
	BYTE		        48*seq_066_mvl/mxv
	BYTE	W03
	BYTE		        41*seq_066_mvl/mxv
	BYTE	W03
	BYTE		        29*seq_066_mvl/mxv
	BYTE	W02
	BYTE	W04
	BYTE		BEND    c_v+0
	BYTE	W12
	BYTE		VOL     77*seq_066_mvl/mxv
	BYTE	W12
	BYTE		N23     Cs2 
	BYTE	W24
	BYTE		N24     Dn2 
	BYTE	W24
	BYTE		N05     An1   v024
	BYTE	W06
	BYTE		        Bn1   v020
	BYTE	W06
	BYTE		        Cn2   v024
	BYTE	W06
	BYTE		        Dn2   v028
	BYTE	W02
	BYTE	W04
	BYTE		N22     En2   v028
	BYTE	W24
	BYTE		        Gn2   v020
	BYTE	W09
	BYTE		BEND    c_v+1
	BYTE	W15
	BYTE		        c_v+0
	BYTE		N10     Fs2   v024
	BYTE	W12
	BYTE		        En2   v020
	BYTE	W12
	BYTE		        Dn2   v024
	BYTE	W12
	BYTE		        Fs2   v016
	BYTE	W08
	BYTE	PEND
	BYTE	W04
	BYTE		N48     En2   v020
	BYTE	W12
	BYTE		VOL     76*seq_066_mvl/mxv
	BYTE	W06
	BYTE		        71*seq_066_mvl/mxv
	BYTE	W03
	BYTE		BEND    c_v+2
	BYTE	W03
	BYTE		VOL     66*seq_066_mvl/mxv
	BYTE	W06
	BYTE		        59*seq_066_mvl/mxv
	BYTE	W06
	BYTE		        48*seq_066_mvl/mxv
	BYTE	W03
	BYTE		        41*seq_066_mvl/mxv
	BYTE	W03
	BYTE		        29*seq_066_mvl/mxv
	BYTE	W06
	BYTE		        77*seq_066_mvl/mxv
	BYTE		BEND    c_v+0
	BYTE		N23     An1   v016
	BYTE	W24
	BYTE		N05     An1   v024
	BYTE	W06
	BYTE		        Bn1   v020
	BYTE	W06
	BYTE		        Cn2 
	BYTE	W06
	BYTE		        Dn2   v024
	BYTE	W02
	BYTE	PEND
	BYTE	W04
	BYTE		N22     En2   v020
	BYTE	W24
	BYTE		        Gn2   v016
	BYTE	W09
	BYTE		BEND    c_v+1
	BYTE	W15
	BYTE		        c_v+0
	BYTE		N10     Fs2   v024
	BYTE	W12
	BYTE		        En2   v020
	BYTE	W12
	BYTE		        Dn2   v024
	BYTE	W12
	BYTE		N08     Fs2   v020
	BYTE	W08
	BYTE	PEND
	BYTE	W04
	BYTE		N48     En2   v020
	BYTE	W12
	BYTE		VOL     73*seq_066_mvl/mxv
	BYTE	W06
	BYTE		        70*seq_066_mvl/mxv
	BYTE	W03
	BYTE		BEND    c_v+2
	BYTE	W03
	BYTE		VOL     64*seq_066_mvl/mxv
	BYTE	W03
	BYTE		        57*seq_066_mvl/mxv
	BYTE	W03
	BYTE		        51*seq_066_mvl/mxv
	BYTE	W03
	BYTE		        40*seq_066_mvl/mxv
	BYTE	W03
	BYTE		        33*seq_066_mvl/mxv
	BYTE	W03
	BYTE		        24*seq_066_mvl/mxv
	BYTE	W09
	BYTE		BEND    c_v+0
	BYTE	W12
	BYTE		VOL     77*seq_066_mvl/mxv
	BYTE	W32
	BYTE	PEND
	BYTE	W04
	BYTE		N22     En2   v028
	BYTE	W24
	BYTE		        Gn2   v024
	BYTE	W09
	BYTE		BEND    c_v+1
	BYTE	W15
	BYTE		        c_v+0
	BYTE		N10     Fs2   v028
	BYTE	W12
	BYTE		        En2   v024
	BYTE	W12
	BYTE		        Dn2   v028
	BYTE	W12
	BYTE		        Fs2   v024
	BYTE	W08
	BYTE	PEND
	BYTE	W04
	BYTE		N44     En2   v024
	BYTE	W12
	BYTE		VOL     76*seq_066_mvl/mxv
	BYTE	W06
	BYTE		        71*seq_066_mvl/mxv
	BYTE	W03
	BYTE		BEND    c_v+2
	BYTE	W03
	BYTE		VOL     66*seq_066_mvl/mxv
	BYTE	W06
	BYTE		        59*seq_066_mvl/mxv
	BYTE	W06
	BYTE		        48*seq_066_mvl/mxv
	BYTE	W03
	BYTE		        41*seq_066_mvl/mxv
	BYTE	W03
	BYTE		        29*seq_066_mvl/mxv
	BYTE	W06
	BYTE		        77*seq_066_mvl/mxv
	BYTE		BEND    c_v+0
	BYTE		N24     An1 
	BYTE	W24
	BYTE		N11     An1   v028
	BYTE	W12
	BYTE		N10     Bn1 
	BYTE	W08
	BYTE	PEND
	BYTE	W04
	BYTE		N11     Cn2   v028
	BYTE	W12
	BYTE		N10     An1 
	BYTE	W12
	BYTE		N22     En2   v024
	BYTE	W24
	BYTE		        Dn2 
	BYTE	W24
	BYTE		N11     Bn1 
	BYTE	W12
	BYTE		N10     Gn1   v020
	BYTE	W08
	BYTE	PEND
	BYTE	W04
	BYTE		N48     An1   v020
	BYTE	W12
	BYTE		VOL     73*seq_066_mvl/mxv
	BYTE	W06
	BYTE		        70*seq_066_mvl/mxv
	BYTE	W06
	BYTE		        64*seq_066_mvl/mxv
	BYTE	W03
	BYTE		        57*seq_066_mvl/mxv
	BYTE	W03
	BYTE		        51*seq_066_mvl/mxv
	BYTE	W03
	BYTE		        40*seq_066_mvl/mxv
	BYTE	W03
	BYTE		        33*seq_066_mvl/mxv
	BYTE	W03
	BYTE		        24*seq_066_mvl/mxv
	BYTE	W21
	BYTE		        77*seq_066_mvl/mxv
	BYTE	W12
	BYTE		N05     An1   v024
	BYTE	W06
	BYTE		        Bn1   v020
	BYTE	W06
	BYTE		        Cn2   v024
	BYTE	W06
	BYTE		        Dn2   v028
	BYTE	W02
	BYTE	PEND
	BYTE	PATT
	 POIN2	seq_066_7 + 0x87
	BYTE	PATT
	 POIN2	seq_066_7 + 0xA1
	BYTE	W04
	BYTE		N22     En2   v020
	BYTE	W24
	BYTE		        Gn2   v016
	BYTE	W09
	BYTE		BEND    c_v+1
	BYTE	W15
	BYTE		        c_v+0
	BYTE		N10     Fs2   v024
	BYTE	W12
	BYTE		        En2   v020
	BYTE	W12
	BYTE		        Dn2   v024
	BYTE	W12
	BYTE		        Fs2   v020
	BYTE	W08
	BYTE	PEND
	BYTE	PATT
	 POIN2	seq_066_7 + 0xE8
	BYTE	PATT
	 POIN2	seq_066_7 + 0x109
	BYTE	W04
	BYTE		N44     En2   v024
	BYTE	W12
	BYTE		VOL     76*seq_066_mvl/mxv
	BYTE	W06
	BYTE		        71*seq_066_mvl/mxv
	BYTE	W03
	BYTE		BEND    c_v+2
	BYTE	W03
	BYTE		VOL     66*seq_066_mvl/mxv
	BYTE	W06
	BYTE		        59*seq_066_mvl/mxv
	BYTE	W06
	BYTE		        48*seq_066_mvl/mxv
	BYTE	W03
	BYTE		        41*seq_066_mvl/mxv
	BYTE	W03
	BYTE		        29*seq_066_mvl/mxv
	BYTE	W06
	BYTE		        77*seq_066_mvl/mxv
	BYTE		BEND    c_v+0
	BYTE		N24     An1 
	BYTE	W24
	BYTE		N10     An1   v028
	BYTE	W12
	BYTE		        Bn1 
	BYTE	W08
	BYTE	PEND
	BYTE	PATT
	 POIN2	seq_066_7 + 0x149
	BYTE	W04
	BYTE		N48     An1   v020
	BYTE	W12
	BYTE		VOL     73*seq_066_mvl/mxv
	BYTE	W06
	BYTE		        70*seq_066_mvl/mxv
	BYTE	W06
	BYTE		        61*seq_066_mvl/mxv
	BYTE	W03
	BYTE		        54*seq_066_mvl/mxv
	BYTE	W03
	BYTE		        48*seq_066_mvl/mxv
	BYTE	W03
	BYTE		        37*seq_066_mvl/mxv
	BYTE	W03
	BYTE		        30*seq_066_mvl/mxv
	BYTE	W03
	BYTE		        21*seq_066_mvl/mxv
	BYTE	W03
	BYTE		        14*seq_066_mvl/mxv
	BYTE	W03
	BYTE		        4*seq_066_mvl/mxv
	BYTE	W15
	BYTE		        77*seq_066_mvl/mxv
	BYTE	W12
	BYTE		N11     An1   v028
	BYTE	W12
	BYTE		        Bn1 
	BYTE	W08
	BYTE	W04
	BYTE		N23     Cs2   v028
	BYTE	W24
	BYTE		        En2   v024
	BYTE	W24
	BYTE		N36     Dn2   v028
	BYTE	W15
	BYTE		VOL     73*seq_066_mvl/mxv
	BYTE		BEND    c_v+1
	BYTE	W06
	BYTE		VOL     70*seq_066_mvl/mxv
	BYTE		BEND    c_v+2
	BYTE	W03
	BYTE		VOL     65*seq_066_mvl/mxv
	BYTE	W03
	BYTE		        57*seq_066_mvl/mxv
	BYTE	W03
	BYTE		        49*seq_066_mvl/mxv
	BYTE	W03
	BYTE		        43*seq_066_mvl/mxv
	BYTE	W03
	BYTE		        77*seq_066_mvl/mxv
	BYTE		BEND    c_v+0
	BYTE		N10     Cs2   v024
	BYTE	W08
	BYTE	PEND
	BYTE	W04
	BYTE		N23     Bn1   v024
	BYTE	W24
	BYTE		N11     An1   v028
	BYTE	W12
	BYTE		        Bn1 
	BYTE	W12
	BYTE		N24     Cs2   v020
	BYTE	W24
	BYTE		N10     Cs2   v032
	BYTE	W12
	BYTE		        Dn2   v028
	BYTE	W08
	BYTE	PEND
	BYTE	W04
	BYTE		N22     En2   v032
	BYTE	W24
	BYTE		N10     An2   v024
	BYTE	W12
	BYTE		        Gs2 
	BYTE	W12
	BYTE		N36     Fs2   v028
	BYTE	W12
	BYTE		BEND    c_v+2
	BYTE	W03
	BYTE		VOL     73*seq_066_mvl/mxv
	BYTE	W06
	BYTE		        70*seq_066_mvl/mxv
	BYTE	W03
	BYTE		        65*seq_066_mvl/mxv
	BYTE	W03
	BYTE		        57*seq_066_mvl/mxv
	BYTE	W03
	BYTE		        49*seq_066_mvl/mxv
	BYTE	W03
	BYTE		        43*seq_066_mvl/mxv
	BYTE	W03
	BYTE		        77*seq_066_mvl/mxv
	BYTE		BEND    c_v+0
	BYTE		N09     En2   v020
	BYTE	W08
	BYTE	PEND
	BYTE	W04
	BYTE		N48     En2   v016
	BYTE	W12
	BYTE		VOL     73*seq_066_mvl/mxv
	BYTE	W06
	BYTE		        70*seq_066_mvl/mxv
	BYTE	W03
	BYTE		BEND    c_v+2
	BYTE	W03
	BYTE		VOL     64*seq_066_mvl/mxv
	BYTE	W03
	BYTE		        57*seq_066_mvl/mxv
	BYTE	W03
	BYTE		        51*seq_066_mvl/mxv
	BYTE	W03
	BYTE		        40*seq_066_mvl/mxv
	BYTE	W03
	BYTE		        33*seq_066_mvl/mxv
	BYTE	W12
	BYTE		BEND    c_v+0
	BYTE	W12
	BYTE		VOL     77*seq_066_mvl/mxv
	BYTE	W32
	BYTE	W04
	BYTE		N10     Fs2   v024
	BYTE	W12
	BYTE		        En2   v020
	BYTE	W12
	BYTE		N22     Fs2 
	BYTE	W09
	BYTE		BEND    c_v+2
	BYTE	W15
	BYTE		        c_v+0
	BYTE		N22     Bn1 
	BYTE	W24
	BYTE		N10     Cs2   v028
	BYTE	W12
	BYTE		        Dn2 
	BYTE	W08
	BYTE	PEND
	BYTE	W04
	BYTE		N44     En2   v024
	BYTE	W12
	BYTE		VOL     76*seq_066_mvl/mxv
	BYTE	W06
	BYTE		        71*seq_066_mvl/mxv
	BYTE	W03
	BYTE		BEND    c_v+2
	BYTE	W03
	BYTE		VOL     66*seq_066_mvl/mxv
	BYTE	W06
	BYTE		        59*seq_066_mvl/mxv
	BYTE	W06
	BYTE		        48*seq_066_mvl/mxv
	BYTE	W03
	BYTE		        41*seq_066_mvl/mxv
	BYTE	W03
	BYTE		        29*seq_066_mvl/mxv
	BYTE	W06
	BYTE		        77*seq_066_mvl/mxv
	BYTE		BEND    c_v+0
	BYTE		N44     Cs2   v020
	BYTE	W12
	BYTE		VOL     76*seq_066_mvl/mxv
	BYTE	W06
	BYTE		        71*seq_066_mvl/mxv
	BYTE	W03
	BYTE		BEND    c_v+2
	BYTE	W03
	BYTE		VOL     66*seq_066_mvl/mxv
	BYTE	W06
	BYTE		        59*seq_066_mvl/mxv
	BYTE	W06
	BYTE		        48*seq_066_mvl/mxv
	BYTE	W03
	BYTE		        41*seq_066_mvl/mxv
	BYTE	W03
	BYTE		        29*seq_066_mvl/mxv
	BYTE	W02
	BYTE	PEND
	BYTE	W04
	BYTE		VOL     77*seq_066_mvl/mxv
	BYTE		BEND    c_v+0
	BYTE		N11     Dn2   v024
	BYTE	W12
	BYTE		        Cs2   v020
	BYTE	W12
	BYTE		        Dn2 
	BYTE	W12
	BYTE		N10     An1 
	BYTE	W12
	BYTE		N11     Cs2   v024
	BYTE	W12
	BYTE		        Cn2   v020
	BYTE	W12
	BYTE		        Cs2 
	BYTE	W12
	BYTE		N10     An1   v016
	BYTE	W08
	BYTE	PEND
	BYTE	W04
	BYTE		N48     Bn1   v020
	BYTE	W12
	BYTE		VOL     73*seq_066_mvl/mxv
	BYTE	W06
	BYTE		        70*seq_066_mvl/mxv
	BYTE		BEND    c_v+2
	BYTE	W06
	BYTE		VOL     64*seq_066_mvl/mxv
	BYTE	W03
	BYTE		        57*seq_066_mvl/mxv
	BYTE	W03
	BYTE		        51*seq_066_mvl/mxv
	BYTE	W03
	BYTE		        40*seq_066_mvl/mxv
	BYTE	W03
	BYTE		        33*seq_066_mvl/mxv
	BYTE	W03
	BYTE		        24*seq_066_mvl/mxv
	BYTE	W09
	BYTE		BEND    c_v+0
	BYTE	W12
	BYTE		VOL     77*seq_066_mvl/mxv
	BYTE	W12
	BYTE		N11     An1   v028
	BYTE	W12
	BYTE		        Bn1 
	BYTE	W08
	BYTE	PEND
	BYTE	PATT
	 POIN2	seq_066_7 + 0x1FF
	BYTE	W04
	BYTE		N23     Bn1   v024
	BYTE	W24
	BYTE		N11     An1   v028
	BYTE	W12
	BYTE		        Bn1 
	BYTE	W12
	BYTE		N23     Cs2   v020
	BYTE	W24
	BYTE		N10     Cs2   v032
	BYTE	W12
	BYTE		        Dn2 
	BYTE	W08
	BYTE	PEND
	BYTE	W04
	BYTE		N22     En2   v032
	BYTE	W24
	BYTE		N10     An2   v024
	BYTE	W12
	BYTE		        Gs2 
	BYTE	W12
	BYTE		N36     Fs2   v028
	BYTE	W12
	BYTE		BEND    c_v+2
	BYTE	W03
	BYTE		VOL     73*seq_066_mvl/mxv
	BYTE	W06
	BYTE		        70*seq_066_mvl/mxv
	BYTE	W03
	BYTE		        65*seq_066_mvl/mxv
	BYTE	W03
	BYTE		        57*seq_066_mvl/mxv
	BYTE	W03
	BYTE		        49*seq_066_mvl/mxv
	BYTE	W03
	BYTE		        43*seq_066_mvl/mxv
	BYTE	W03
	BYTE		        77*seq_066_mvl/mxv
	BYTE		BEND    c_v+0
	BYTE		N09     En2   v024
	BYTE	W08
	BYTE	PEND
	BYTE	W04
	BYTE		N48     En2   v020
	BYTE	W12
	BYTE		VOL     73*seq_066_mvl/mxv
	BYTE	W06
	BYTE		        70*seq_066_mvl/mxv
	BYTE	W03
	BYTE		BEND    c_v+2
	BYTE	W03
	BYTE		VOL     64*seq_066_mvl/mxv
	BYTE	W03
	BYTE		        57*seq_066_mvl/mxv
	BYTE	W03
	BYTE		        51*seq_066_mvl/mxv
	BYTE	W03
	BYTE		        40*seq_066_mvl/mxv
	BYTE	W03
	BYTE		        33*seq_066_mvl/mxv
	BYTE	W03
	BYTE		        24*seq_066_mvl/mxv
	BYTE	W02
	BYTE		        14*seq_066_mvl/mxv
	BYTE	W07
	BYTE		BEND    c_v+0
	BYTE	W12
	BYTE		VOL     77*seq_066_mvl/mxv
	BYTE	W32
	BYTE	W04
	BYTE		N11     En2   v020
	BYTE	W12
	BYTE		N10     Dn2 
	BYTE	W12
	BYTE		N11     Cs2 
	BYTE	W12
	BYTE		N10     Bn1   v016
	BYTE	W12
	BYTE		N24     Dn2   v020
	BYTE	W24
	BYTE		N11     Bn1   v024
	BYTE	W12
	BYTE		N10     Cs2   v020
	BYTE	W08
	BYTE	PEND
	BYTE	W04
	BYTE		N11     Dn2   v020
	BYTE	W12
	BYTE		N10     Cs2   v016
	BYTE	W12
	BYTE		N11     Bn1 
	BYTE	W12
	BYTE		N10     An1 
	BYTE	W12
	BYTE		N24     Cs2 
	BYTE	W24
	BYTE		N11     An1   v028
	BYTE	W12
	BYTE		N10     Bn1 
	BYTE	W08
	BYTE	PEND
	BYTE	W04
	BYTE		N11     Cs2   v028
	BYTE	W12
	BYTE		        Cn2   v024
	BYTE	W12
	BYTE		        Cs2   v032
	BYTE	W12
	BYTE		N10     Fs2 
	BYTE	W12
	BYTE		N11     An2   v028
	BYTE	W12
	BYTE		        Gs2 
	BYTE	W12
	BYTE		        An2 
	BYTE	W12
	BYTE		BEND    c_v+1
	BYTE		N10     Cs3   v032
	BYTE	W08
	BYTE	PEND
	BYTE	W04
	BYTE		N48     Bn2   v028
	BYTE	W09
	BYTE		BEND    c_v+2
	BYTE	W03
	BYTE		VOL     73*seq_066_mvl/mxv
	BYTE	W03
	BYTE		BEND    c_v+2
	BYTE	W03
	BYTE		VOL     70*seq_066_mvl/mxv
	BYTE	W06
	BYTE		        64*seq_066_mvl/mxv
	BYTE	W03
	BYTE		        57*seq_066_mvl/mxv
	BYTE	W03
	BYTE		        51*seq_066_mvl/mxv
	BYTE	W03
	BYTE		        40*seq_066_mvl/mxv
	BYTE	W03
	BYTE		        33*seq_066_mvl/mxv
	BYTE	W03
	BYTE		        24*seq_066_mvl/mxv
	BYTE	W09
	BYTE		BEND    c_v+0
	BYTE	W12
	BYTE		VOL     77*seq_066_mvl/mxv
	BYTE	W12
	BYTE		N10     Fs2   v016
	BYTE	W12
	BYTE		        Gs2   v012
	BYTE	W08
	BYTE	PEND
	BYTE	W04
	BYTE		N44     An2   v016
	BYTE	W12
	BYTE		VOL     76*seq_066_mvl/mxv
	BYTE	W06
	BYTE		        71*seq_066_mvl/mxv
	BYTE		BEND    c_v+1
	BYTE	W06
	BYTE		VOL     66*seq_066_mvl/mxv
	BYTE	W06
	BYTE		        59*seq_066_mvl/mxv
	BYTE	W06
	BYTE		        48*seq_066_mvl/mxv
	BYTE	W03
	BYTE		        41*seq_066_mvl/mxv
	BYTE	W03
	BYTE		        29*seq_066_mvl/mxv
	BYTE	W06
	BYTE		        77*seq_066_mvl/mxv
	BYTE		BEND    c_v+0
	BYTE		N44     Gs2 
	BYTE	W12
	BYTE		VOL     76*seq_066_mvl/mxv
	BYTE		BEND    c_v+1
	BYTE	W06
	BYTE		VOL     71*seq_066_mvl/mxv
	BYTE	W06
	BYTE		        66*seq_066_mvl/mxv
	BYTE	W06
	BYTE		        59*seq_066_mvl/mxv
	BYTE	W06
	BYTE		        48*seq_066_mvl/mxv
	BYTE	W03
	BYTE		        41*seq_066_mvl/mxv
	BYTE	W03
	BYTE		        29*seq_066_mvl/mxv
	BYTE	W02
	BYTE	PEND
	BYTE	W04
	BYTE		VOL     77*seq_066_mvl/mxv
	BYTE		BEND    c_v+0
	BYTE		N44     Fs2   v016
	BYTE	W12
	BYTE		VOL     76*seq_066_mvl/mxv
	BYTE		BEND    c_v+2
	BYTE	W06
	BYTE		VOL     71*seq_066_mvl/mxv
	BYTE	W06
	BYTE		        66*seq_066_mvl/mxv
	BYTE	W06
	BYTE		        59*seq_066_mvl/mxv
	BYTE	W06
	BYTE		        48*seq_066_mvl/mxv
	BYTE	W03
	BYTE		        41*seq_066_mvl/mxv
	BYTE	W03
	BYTE		        29*seq_066_mvl/mxv
	BYTE	W06
	BYTE		        77*seq_066_mvl/mxv
	BYTE		BEND    c_v+0
	BYTE		N48     En2   v012
	BYTE	W12
	BYTE		VOL     73*seq_066_mvl/mxv
	BYTE	W06
	BYTE		        70*seq_066_mvl/mxv
	BYTE	W03
	BYTE		BEND    c_v+2
	BYTE	W03
	BYTE		VOL     64*seq_066_mvl/mxv
	BYTE	W03
	BYTE		        57*seq_066_mvl/mxv
	BYTE	W03
	BYTE		        51*seq_066_mvl/mxv
	BYTE	W03
	BYTE		        40*seq_066_mvl/mxv
	BYTE	W03
	BYTE		        33*seq_066_mvl/mxv
	BYTE	W03
	BYTE		        24*seq_066_mvl/mxv
	BYTE	W05
	BYTE	PEND
	BYTE	W04
	BYTE		BEND    c_v+0
	BYTE	W12
	BYTE		VOL     77*seq_066_mvl/mxv
	BYTE	W12
	BYTE		N23     An1   v024
	BYTE	W24
	BYTE		N48     Bn1   v020
	BYTE	W12
	BYTE		VOL     76*seq_066_mvl/mxv
	BYTE	W06
	BYTE		        71*seq_066_mvl/mxv
	BYTE		BEND    c_v+1
	BYTE	W06
	BYTE		VOL     66*seq_066_mvl/mxv
	BYTE	W06
	BYTE		        59*seq_066_mvl/mxv
	BYTE	W06
	BYTE		        48*seq_066_mvl/mxv
	BYTE	W03
	BYTE		        41*seq_066_mvl/mxv
	BYTE	W03
	BYTE		        29*seq_066_mvl/mxv
	BYTE	W02
	BYTE	W01
	BYTE		        20*seq_066_mvl/mxv
	BYTE	W03
	BYTE		BEND    c_v+0
	BYTE	W12
	BYTE		VOL     77*seq_066_mvl/mxv
	BYTE	W12
	BYTE		N23     Cs2 
	BYTE	W24
	BYTE		N48     Dn2 
	BYTE	W12
	BYTE		VOL     76*seq_066_mvl/mxv
	BYTE	W06
	BYTE		        71*seq_066_mvl/mxv
	BYTE		BEND    c_v+1
	BYTE	W06
	BYTE		VOL     66*seq_066_mvl/mxv
	BYTE	W06
	BYTE		        59*seq_066_mvl/mxv
	BYTE	W06
	BYTE		        48*seq_066_mvl/mxv
	BYTE	W03
	BYTE		        41*seq_066_mvl/mxv
	BYTE	W03
	BYTE		        29*seq_066_mvl/mxv
	BYTE	W02
	BYTE	W01
	BYTE		        20*seq_066_mvl/mxv
	BYTE	W03
	BYTE		BEND    c_v+0
	BYTE	W12
	BYTE		VOL     77*seq_066_mvl/mxv
	BYTE	W03
	BYTE		BEND    c_v+0
	BYTE	W09
	BYTE		N23     An1   v024
	BYTE	W24
	BYTE		N48     Bn1   v020
	BYTE	W12
	BYTE		VOL     76*seq_066_mvl/mxv
	BYTE	W06
	BYTE		        71*seq_066_mvl/mxv
	BYTE		BEND    c_v+1
	BYTE	W06
	BYTE		VOL     66*seq_066_mvl/mxv
	BYTE	W06
	BYTE		        59*seq_066_mvl/mxv
	BYTE	W06
	BYTE		        48*seq_066_mvl/mxv
	BYTE	W03
	BYTE		        41*seq_066_mvl/mxv
	BYTE	W03
	BYTE		        29*seq_066_mvl/mxv
	BYTE	W02
	BYTE	W01
	BYTE		        20*seq_066_mvl/mxv
	BYTE	W03
	BYTE		BEND    c_v+0
	BYTE	W12
	BYTE		VOL     77*seq_066_mvl/mxv
	BYTE	W12
	BYTE		N23     Cs2 
	BYTE	W24
	BYTE		N24     Dn2 
	BYTE	W24
	BYTE		N05     An1   v024
	BYTE	W06
	BYTE		        Bn1   v020
	BYTE	W06
	BYTE		        Cn2   v024
	BYTE	W06
	BYTE		        Dn2   v028
	BYTE	W02
	BYTE	PATT
	 POIN2	seq_066_7 + 0x87
	BYTE	PATT
	 POIN2	seq_066_7 + 0xA1
	BYTE	PATT
	 POIN2	seq_066_7 + 0xCD
	BYTE	PATT
	 POIN2	seq_066_7 + 0xE8
	BYTE	PATT
	 POIN2	seq_066_7 + 0x109
	BYTE	PATT
	 POIN2	seq_066_7 + 0x123
	BYTE	PATT
	 POIN2	seq_066_7 + 0x149
	BYTE	PATT
	 POIN2	seq_066_7 + 0x15F
	BYTE	PATT
	 POIN2	seq_066_7 + 0x87
	BYTE	PATT
	 POIN2	seq_066_7 + 0xA1
	BYTE	PATT
	 POIN2	seq_066_7 + 0x18F
	BYTE	PATT
	 POIN2	seq_066_7 + 0xE8
	BYTE	PATT
	 POIN2	seq_066_7 + 0x109
	BYTE	PATT
	 POIN2	seq_066_7 + 0x1B3
	BYTE	PATT
	 POIN2	seq_066_7 + 0x149
	BYTE	W04
	BYTE		N48     An1   v020
	BYTE	W05
	BYTE		VOL     75*seq_066_mvl/mxv
	BYTE	W03
	BYTE		        75*seq_066_mvl/mxv
	BYTE	W03
	BYTE		        72*seq_066_mvl/mxv
	BYTE	W03
	BYTE		        70*seq_066_mvl/mxv
	BYTE	W03
	BYTE		        65*seq_066_mvl/mxv
	BYTE	W03
	BYTE		        60*seq_066_mvl/mxv
	BYTE	W03
	BYTE		        53*seq_066_mvl/mxv
	BYTE	W03
	BYTE		        44*seq_066_mvl/mxv
	BYTE	W03
	BYTE		        35*seq_066_mvl/mxv
	BYTE	W03
	BYTE		        24*seq_066_mvl/mxv
	BYTE	W28
	BYTE		        77*seq_066_mvl/mxv
	BYTE	W12
	BYTE		N11     An1   v028
	BYTE	W12
	BYTE		        Bn1 
	BYTE	W08
	BYTE	PATT
	 POIN2	seq_066_7 + 0x1FF
	BYTE	PATT
	 POIN2	seq_066_7 + 0x226
	BYTE	PATT
	 POIN2	seq_066_7 + 0x23D
	BYTE	W04
	BYTE		N48     En2   v016
	BYTE	W12
	BYTE		VOL     73*seq_066_mvl/mxv
	BYTE	W06
	BYTE		        70*seq_066_mvl/mxv
	BYTE	W03
	BYTE		BEND    c_v+2
	BYTE	W03
	BYTE		VOL     64*seq_066_mvl/mxv
	BYTE	W03
	BYTE		        57*seq_066_mvl/mxv
	BYTE	W03
	BYTE		        51*seq_066_mvl/mxv
	BYTE	W03
	BYTE		        40*seq_066_mvl/mxv
	BYTE	W03
	BYTE		        33*seq_066_mvl/mxv
	BYTE	W03
	BYTE		        24*seq_066_mvl/mxv
	BYTE	W09
	BYTE		BEND    c_v+0
	BYTE	W12
	BYTE		VOL     77*seq_066_mvl/mxv
	BYTE	W32
	BYTE	PATT
	 POIN2	seq_066_7 + 0x282
	BYTE	PATT
	 POIN2	seq_066_7 + 0x29B
	BYTE	PATT
	 POIN2	seq_066_7 + 0x2CE
	BYTE	PATT
	 POIN2	seq_066_7 + 0x2ED
	BYTE	PATT
	 POIN2	seq_066_7 + 0x1FF
	BYTE	PATT
	 POIN2	seq_066_7 + 0x318
	BYTE	PATT
	 POIN2	seq_066_7 + 0x32E
	BYTE	PATT
	 POIN2	seq_066_7 + 0xE8
	BYTE	PATT
	 POIN2	seq_066_7 + 0x377
	BYTE	PATT
	 POIN2	seq_066_7 + 0x393
	BYTE	PATT
	 POIN2	seq_066_7 + 0x3AD
	BYTE	PATT
	 POIN2	seq_066_7 + 0x3CA
	BYTE	PATT
	 POIN2	seq_066_7 + 0x3F5
	BYTE	PATT
	 POIN2	seq_066_7 + 0x425
	BYTE	GoTo
	 POIN2	seq_066_7 + 0x45D
	BYTE	W04
	BYTE		BEND    c_v+0
	BYTE	W03
	BYTE	FINE

//*********************** Track 09 ***********************//

seq_066_8:
	BYTE	KEYSH   seq_066_key+0
	BYTE	W03
	BYTE	W07
	BYTE		VOICE   64
	BYTE	W01
	BYTE		VOL     77*seq_066_mvl/mxv
	BYTE	W01
	BYTE		PAN     c_v+46
	BYTE		BEND    c_v+0
	BYTE	W24
	BYTE	W01
	BYTE		N23     An1   v016
	BYTE	W24
	BYTE		N48     Bn1 
	BYTE	W12
	BYTE		VOL     76*seq_066_mvl/mxv
	BYTE	W06
	BYTE		        71*seq_066_mvl/mxv
	BYTE		BEND    c_v+1
	BYTE	W06
	BYTE		VOL     66*seq_066_mvl/mxv
	BYTE	W06
	BYTE		        59*seq_066_mvl/mxv
	BYTE	W06
	BYTE		        48*seq_066_mvl/mxv
	BYTE	W02
	BYTE	W01
	BYTE		        41*seq_066_mvl/mxv
	BYTE	W03
	BYTE		        29*seq_066_mvl/mxv
	BYTE	W06
	BYTE		BEND    c_v+0
	BYTE	W12
	BYTE		VOL     77*seq_066_mvl/mxv
	BYTE	W12
	BYTE		N23     Cs2 
	BYTE	W24
	BYTE		N48     Dn2 
	BYTE	W12
	BYTE		VOL     76*seq_066_mvl/mxv
	BYTE	W06
	BYTE		        71*seq_066_mvl/mxv
	BYTE		BEND    c_v+1
	BYTE	W06
	BYTE		VOL     66*seq_066_mvl/mxv
	BYTE	W06
	BYTE		        59*seq_066_mvl/mxv
	BYTE	W06
	BYTE		        48*seq_066_mvl/mxv
	BYTE	W02
	BYTE	W01
	BYTE		        41*seq_066_mvl/mxv
	BYTE	W03
	BYTE		        29*seq_066_mvl/mxv
	BYTE	W06
	BYTE		BEND    c_v+0
	BYTE	W12
	BYTE		VOL     77*seq_066_mvl/mxv
	BYTE	W03
	BYTE		BEND    c_v+0
	BYTE	W09
	BYTE		N23     An1 
	BYTE	W24
	BYTE		N48     Bn1 
	BYTE	W12
	BYTE		VOL     76*seq_066_mvl/mxv
	BYTE	W06
	BYTE		        71*seq_066_mvl/mxv
	BYTE		BEND    c_v+1
	BYTE	W06
	BYTE		VOL     66*seq_066_mvl/mxv
	BYTE	W06
	BYTE		        59*seq_066_mvl/mxv
	BYTE	W06
	BYTE		        48*seq_066_mvl/mxv
	BYTE	W02
	BYTE	W01
	BYTE		        41*seq_066_mvl/mxv
	BYTE	W03
	BYTE		        29*seq_066_mvl/mxv
	BYTE	W06
	BYTE		BEND    c_v+0
	BYTE	W12
	BYTE		VOL     77*seq_066_mvl/mxv
	BYTE	W12
	BYTE		N23     Cs2 
	BYTE	W24
	BYTE		N24     Dn2 
	BYTE	W24
	BYTE		N05     An1   v012
	BYTE	W06
	BYTE		        Bn1 
	BYTE	W06
	BYTE		        Cn2 
	BYTE	W02
	BYTE	W04
	BYTE		N05     Dn2   v016
	BYTE	W06
	BYTE		N22     En2 
	BYTE	W24
	BYTE		        Gn2   v012
	BYTE	W09
	BYTE		BEND    c_v+1
	BYTE	W15
	BYTE		        c_v+0
	BYTE		N10     Fs2   v016
	BYTE	W12
	BYTE		        En2   v012
	BYTE	W12
	BYTE		        Dn2   v016
	BYTE	W12
	BYTE		        Fs2   v008
	BYTE	W02
	BYTE	PEND
	BYTE	W10
	BYTE		N48     En2   v012
	BYTE	W12
	BYTE		VOL     76*seq_066_mvl/mxv
	BYTE	W06
	BYTE		        71*seq_066_mvl/mxv
	BYTE	W03
	BYTE		BEND    c_v+2
	BYTE	W03
	BYTE		VOL     66*seq_066_mvl/mxv
	BYTE	W06
	BYTE		        59*seq_066_mvl/mxv
	BYTE	W06
	BYTE		        48*seq_066_mvl/mxv
	BYTE	W03
	BYTE		        41*seq_066_mvl/mxv
	BYTE	W03
	BYTE		        29*seq_066_mvl/mxv
	BYTE	W06
	BYTE		        77*seq_066_mvl/mxv
	BYTE		BEND    c_v+0
	BYTE		N23     An1 
	BYTE	W24
	BYTE		N05
	BYTE	W06
	BYTE		        Bn1   v008
	BYTE	W06
	BYTE		        Cn2   v012
	BYTE	W02
	BYTE	W04
	BYTE		        Dn2 
	BYTE	W06
	BYTE		N22     En2 
	BYTE	W24
	BYTE		        Gn2 
	BYTE	W09
	BYTE		BEND    c_v+1
	BYTE	W15
	BYTE		        c_v+0
	BYTE		N10     Fs2 
	BYTE	W12
	BYTE		        En2 
	BYTE	W12
	BYTE		        Dn2   v020
	BYTE	W12
	BYTE		N08     Fs2   v012
	BYTE	W02
	BYTE	W10
	BYTE		N48     En2   v012
	BYTE	W12
	BYTE		VOL     73*seq_066_mvl/mxv
	BYTE	W06
	BYTE		        70*seq_066_mvl/mxv
	BYTE	W03
	BYTE		BEND    c_v+2
	BYTE	W03
	BYTE		VOL     64*seq_066_mvl/mxv
	BYTE	W03
	BYTE		        57*seq_066_mvl/mxv
	BYTE	W03
	BYTE		        51*seq_066_mvl/mxv
	BYTE	W03
	BYTE		        40*seq_066_mvl/mxv
	BYTE	W03
	BYTE		        33*seq_066_mvl/mxv
	BYTE	W03
	BYTE		        24*seq_066_mvl/mxv
	BYTE	W09
	BYTE		BEND    c_v+0
	BYTE	W12
	BYTE		VOL     77*seq_066_mvl/mxv
	BYTE	W24
	BYTE	W02
	BYTE	PEND
	BYTE	W10
	BYTE		N22     En2   v016
	BYTE	W24
	BYTE		        Gn2 
	BYTE	W09
	BYTE		BEND    c_v+1
	BYTE	W15
	BYTE		        c_v+0
	BYTE		N10     Fs2 
	BYTE	W12
	BYTE		        En2   v012
	BYTE	W12
	BYTE		        Dn2   v020
	BYTE	W12
	BYTE		        Fs2   v012
	BYTE	W02
	BYTE	PEND
	BYTE	W10
	BYTE		N44     En2   v016
	BYTE	W12
	BYTE		VOL     76*seq_066_mvl/mxv
	BYTE	W06
	BYTE		        71*seq_066_mvl/mxv
	BYTE	W03
	BYTE		BEND    c_v+2
	BYTE	W03
	BYTE		VOL     66*seq_066_mvl/mxv
	BYTE	W06
	BYTE		        59*seq_066_mvl/mxv
	BYTE	W06
	BYTE		        48*seq_066_mvl/mxv
	BYTE	W03
	BYTE		        41*seq_066_mvl/mxv
	BYTE	W03
	BYTE		        29*seq_066_mvl/mxv
	BYTE	W06
	BYTE		        77*seq_066_mvl/mxv
	BYTE		BEND    c_v+0
	BYTE		N23     An1 
	BYTE	W24
	BYTE		N10     An1   v024
	BYTE	W12
	BYTE		        Bn1   v020
	BYTE	W02
	BYTE	PEND
	BYTE	W10
	BYTE		        Cn2 
	BYTE	W12
	BYTE		        An1 
	BYTE	W12
	BYTE		N22     En2   v016
	BYTE	W24
	BYTE		        Dn2   v020
	BYTE	W24
	BYTE		N10     Bn1   v016
	BYTE	W12
	BYTE		N09     Gn1 
	BYTE	W02
	BYTE	W10
	BYTE		N48     An1 
	BYTE	W12
	BYTE		VOL     73*seq_066_mvl/mxv
	BYTE	W06
	BYTE		        70*seq_066_mvl/mxv
	BYTE	W06
	BYTE		        64*seq_066_mvl/mxv
	BYTE	W03
	BYTE		        57*seq_066_mvl/mxv
	BYTE	W03
	BYTE		        51*seq_066_mvl/mxv
	BYTE	W03
	BYTE		        40*seq_066_mvl/mxv
	BYTE	W03
	BYTE		        33*seq_066_mvl/mxv
	BYTE	W03
	BYTE		        24*seq_066_mvl/mxv
	BYTE	W21
	BYTE		        77*seq_066_mvl/mxv
	BYTE	W12
	BYTE		N05     An1   v012
	BYTE	W06
	BYTE		        Bn1 
	BYTE	W06
	BYTE		        Cn2 
	BYTE	W02
	BYTE	PATT
	 POIN2	seq_066_8 + 0x7F
	BYTE	W10
	BYTE		N48     En2   v012
	BYTE	W12
	BYTE		VOL     76*seq_066_mvl/mxv
	BYTE	W06
	BYTE		        71*seq_066_mvl/mxv
	BYTE	W03
	BYTE		BEND    c_v+2
	BYTE	W03
	BYTE		VOL     66*seq_066_mvl/mxv
	BYTE	W06
	BYTE		        59*seq_066_mvl/mxv
	BYTE	W06
	BYTE		        48*seq_066_mvl/mxv
	BYTE	W03
	BYTE		        41*seq_066_mvl/mxv
	BYTE	W03
	BYTE		        29*seq_066_mvl/mxv
	BYTE	W06
	BYTE		        77*seq_066_mvl/mxv
	BYTE		BEND    c_v+0
	BYTE		N23     An1 
	BYTE	W24
	BYTE		N05     An1   v016
	BYTE	W06
	BYTE		        Bn1   v008
	BYTE	W06
	BYTE		        Cn2   v012
	BYTE	W02
	BYTE	W04
	BYTE		        Dn2 
	BYTE	W06
	BYTE		N22     En2 
	BYTE	W24
	BYTE		        Gn2 
	BYTE	W09
	BYTE		BEND    c_v+1
	BYTE	W15
	BYTE		        c_v+0
	BYTE		N10     Fs2 
	BYTE	W12
	BYTE		        En2 
	BYTE	W12
	BYTE		        Dn2   v020
	BYTE	W12
	BYTE		        Fs2   v012
	BYTE	W02
	BYTE	PATT
	 POIN2	seq_066_8 + 0xDA
	BYTE	PATT
	 POIN2	seq_066_8 + 0xFC
	BYTE	PATT
	 POIN2	seq_066_8 + 0x114
	BYTE	W10
	BYTE		N10     Cn2   v020
	BYTE	W12
	BYTE		        An1 
	BYTE	W12
	BYTE		N22     En2   v016
	BYTE	W24
	BYTE		        Dn2   v020
	BYTE	W24
	BYTE		N10     Bn1   v016
	BYTE	W12
	BYTE		        Gn1 
	BYTE	W02
	BYTE	W10
	BYTE		N44     An1   v012
	BYTE	W05
	BYTE		VOL     70*seq_066_mvl/mxv
	BYTE	W07
	BYTE		        69*seq_066_mvl/mxv
	BYTE	W06
	BYTE		        65*seq_066_mvl/mxv
	BYTE	W06
	BYTE		        57*seq_066_mvl/mxv
	BYTE	W03
	BYTE		        50*seq_066_mvl/mxv
	BYTE	W03
	BYTE		        42*seq_066_mvl/mxv
	BYTE	W03
	BYTE		        31*seq_066_mvl/mxv
	BYTE	W03
	BYTE		        24*seq_066_mvl/mxv
	BYTE	W03
	BYTE		        17*seq_066_mvl/mxv
	BYTE	W02
	BYTE		        10*seq_066_mvl/mxv
	BYTE	W01
	BYTE		        2*seq_066_mvl/mxv
	BYTE	W02
	BYTE		        2*seq_066_mvl/mxv
	BYTE	W16
	BYTE		        77*seq_066_mvl/mxv
	BYTE	W12
	BYTE		N10     An1   v020
	BYTE	W12
	BYTE		        Bn1 
	BYTE	W02
	BYTE	W10
	BYTE		N23     Cs2   v024
	BYTE	W24
	BYTE		        En2   v016
	BYTE	W24
	BYTE		N36     Dn2   v020
	BYTE	W15
	BYTE		VOL     73*seq_066_mvl/mxv
	BYTE		BEND    c_v+1
	BYTE	W06
	BYTE		VOL     70*seq_066_mvl/mxv
	BYTE		BEND    c_v+2
	BYTE	W03
	BYTE		VOL     65*seq_066_mvl/mxv
	BYTE	W03
	BYTE		        57*seq_066_mvl/mxv
	BYTE	W03
	BYTE		        49*seq_066_mvl/mxv
	BYTE	W03
	BYTE		        43*seq_066_mvl/mxv
	BYTE	W03
	BYTE		        77*seq_066_mvl/mxv
	BYTE		BEND    c_v+0
	BYTE		N10     Cs2   v016
	BYTE	W02
	BYTE	PEND
	BYTE	W10
	BYTE		N23     Bn1   v020
	BYTE	W24
	BYTE		N10     An1 
	BYTE	W12
	BYTE		        Bn1 
	BYTE	W12
	BYTE		N23     Cs2   v016
	BYTE	W24
	BYTE		N10     Cs2   v024
	BYTE	W12
	BYTE		        Dn2 
	BYTE	W02
	BYTE	PEND
	BYTE	W10
	BYTE		N22     En2   v020
	BYTE	W24
	BYTE		N10     An2   v016
	BYTE	W12
	BYTE		        Gs2 
	BYTE	W12
	BYTE		N36     Fs2 
	BYTE	W12
	BYTE		BEND    c_v+2
	BYTE	W03
	BYTE		VOL     73*seq_066_mvl/mxv
	BYTE	W06
	BYTE		        70*seq_066_mvl/mxv
	BYTE	W03
	BYTE		        65*seq_066_mvl/mxv
	BYTE	W03
	BYTE		        57*seq_066_mvl/mxv
	BYTE	W03
	BYTE		        49*seq_066_mvl/mxv
	BYTE	W03
	BYTE		        43*seq_066_mvl/mxv
	BYTE	W03
	BYTE		        77*seq_066_mvl/mxv
	BYTE		BEND    c_v+0
	BYTE		N09     En2   v012
	BYTE	W02
	BYTE	PATT
	 POIN2	seq_066_8 + 0xDA
	BYTE	W10
	BYTE		N10     Fs2   v012
	BYTE	W12
	BYTE		        En2 
	BYTE	W12
	BYTE		N22     Fs2 
	BYTE	W09
	BYTE		BEND    c_v+2
	BYTE	W15
	BYTE		        c_v+0
	BYTE		N22     Bn1   v016
	BYTE	W24
	BYTE		N10     Cs2   v020
	BYTE	W12
	BYTE		        Dn2 
	BYTE	W02
	BYTE	W10
	BYTE		N44     En2   v016
	BYTE	W12
	BYTE		VOL     76*seq_066_mvl/mxv
	BYTE	W06
	BYTE		        71*seq_066_mvl/mxv
	BYTE	W03
	BYTE		BEND    c_v+2
	BYTE	W03
	BYTE		VOL     66*seq_066_mvl/mxv
	BYTE	W06
	BYTE		        59*seq_066_mvl/mxv
	BYTE	W06
	BYTE		        48*seq_066_mvl/mxv
	BYTE	W03
	BYTE		        41*seq_066_mvl/mxv
	BYTE	W03
	BYTE		        29*seq_066_mvl/mxv
	BYTE	W06
	BYTE		        77*seq_066_mvl/mxv
	BYTE		BEND    c_v+0
	BYTE		N44     Cs2 
	BYTE	W12
	BYTE		VOL     76*seq_066_mvl/mxv
	BYTE	W06
	BYTE		        71*seq_066_mvl/mxv
	BYTE	W03
	BYTE		BEND    c_v+2
	BYTE	W03
	BYTE		VOL     66*seq_066_mvl/mxv
	BYTE	W06
	BYTE		        59*seq_066_mvl/mxv
	BYTE	W06
	BYTE		        48*seq_066_mvl/mxv
	BYTE	W02
	BYTE	W01
	BYTE		        41*seq_066_mvl/mxv
	BYTE	W03
	BYTE		        29*seq_066_mvl/mxv
	BYTE	W06
	BYTE		        77*seq_066_mvl/mxv
	BYTE		BEND    c_v+0
	BYTE		N10     Dn2   v020
	BYTE	W12
	BYTE		        Cs2   v016
	BYTE	W12
	BYTE		        Dn2 
	BYTE	W12
	BYTE		        An1 
	BYTE	W12
	BYTE		        Cs2 
	BYTE	W12
	BYTE		        Cn2 
	BYTE	W12
	BYTE		        Cs2 
	BYTE	W12
	BYTE		        An1 
	BYTE	W02
	BYTE	W10
	BYTE		N48     Bn1 
	BYTE	W12
	BYTE		VOL     73*seq_066_mvl/mxv
	BYTE	W06
	BYTE		        70*seq_066_mvl/mxv
	BYTE		BEND    c_v+2
	BYTE	W06
	BYTE		VOL     64*seq_066_mvl/mxv
	BYTE	W03
	BYTE		        57*seq_066_mvl/mxv
	BYTE	W03
	BYTE		        51*seq_066_mvl/mxv
	BYTE	W03
	BYTE		        40*seq_066_mvl/mxv
	BYTE	W03
	BYTE		        33*seq_066_mvl/mxv
	BYTE	W03
	BYTE		        24*seq_066_mvl/mxv
	BYTE	W09
	BYTE		BEND    c_v+0
	BYTE	W12
	BYTE		VOL     77*seq_066_mvl/mxv
	BYTE	W12
	BYTE		N10     An1   v020
	BYTE	W12
	BYTE		        Bn1 
	BYTE	W02
	BYTE	PATT
	 POIN2	seq_066_8 + 0x1F9
	BYTE	PATT
	 POIN2	seq_066_8 + 0x220
	BYTE	W10
	BYTE		N22     En2   v020
	BYTE	W24
	BYTE		N10     An2   v016
	BYTE	W12
	BYTE		        Gs2 
	BYTE	W12
	BYTE		N36     Fs2 
	BYTE	W12
	BYTE		BEND    c_v+2
	BYTE	W03
	BYTE		VOL     73*seq_066_mvl/mxv
	BYTE	W06
	BYTE		        70*seq_066_mvl/mxv
	BYTE	W03
	BYTE		        65*seq_066_mvl/mxv
	BYTE	W03
	BYTE		        57*seq_066_mvl/mxv
	BYTE	W03
	BYTE		        49*seq_066_mvl/mxv
	BYTE	W03
	BYTE		        43*seq_066_mvl/mxv
	BYTE	W03
	BYTE		        77*seq_066_mvl/mxv
	BYTE		BEND    c_v+0
	BYTE		N09     En2 
	BYTE	W02
	BYTE	W10
	BYTE		N44     En2   v012
	BYTE	W12
	BYTE		VOL     70*seq_066_mvl/mxv
	BYTE	W06
	BYTE		        67*seq_066_mvl/mxv
	BYTE	W03
	BYTE		BEND    c_v+2
	BYTE	W03
	BYTE		VOL     61*seq_066_mvl/mxv
	BYTE	W03
	BYTE		        54*seq_066_mvl/mxv
	BYTE	W03
	BYTE		        46*seq_066_mvl/mxv
	BYTE	W03
	BYTE		        37*seq_066_mvl/mxv
	BYTE	W03
	BYTE		        30*seq_066_mvl/mxv
	BYTE	W03
	BYTE		        21*seq_066_mvl/mxv
	BYTE	W02
	BYTE		        14*seq_066_mvl/mxv
	BYTE	W03
	BYTE		        8*seq_066_mvl/mxv
	BYTE	W04
	BYTE		BEND    c_v+0
	BYTE	W12
	BYTE		VOL     77*seq_066_mvl/mxv
	BYTE	W24
	BYTE	W02
	BYTE	W10
	BYTE		N10
	BYTE	W12
	BYTE		        Dn2   v016
	BYTE	W12
	BYTE		        Cs2 
	BYTE	W12
	BYTE		        Bn1 
	BYTE	W12
	BYTE		N24     Dn2 
	BYTE	W24
	BYTE		N10     Bn1   v020
	BYTE	W12
	BYTE		        Cs2   v016
	BYTE	W02
	BYTE	W10
	BYTE		        Dn2 
	BYTE	W12
	BYTE		        Cs2   v012
	BYTE	W12
	BYTE		        Bn1 
	BYTE	W12
	BYTE		        An1 
	BYTE	W12
	BYTE		N24     Cs2   v016
	BYTE	W24
	BYTE		N10     An1   v020
	BYTE	W12
	BYTE		        Bn1 
	BYTE	W02
	BYTE	W10
	BYTE		        Cs2 
	BYTE	W12
	BYTE		        Cn2 
	BYTE	W12
	BYTE		        Cs2   v024
	BYTE	W12
	BYTE		        Fs2   v020
	BYTE	W12
	BYTE		        An2 
	BYTE	W12
	BYTE		        Gs2   v016
	BYTE	W12
	BYTE		        An2   v020
	BYTE	W12
	BYTE		BEND    c_v+1
	BYTE		N09     Cs3 
	BYTE	W02
	BYTE	W10
	BYTE		N44     Bn2   v012
	BYTE	W09
	BYTE		BEND    c_v+1
	BYTE	W03
	BYTE		VOL     73*seq_066_mvl/mxv
	BYTE	W03
	BYTE		BEND    c_v+2
	BYTE	W03
	BYTE		VOL     70*seq_066_mvl/mxv
	BYTE	W06
	BYTE		        64*seq_066_mvl/mxv
	BYTE	W03
	BYTE		        57*seq_066_mvl/mxv
	BYTE	W03
	BYTE		        51*seq_066_mvl/mxv
	BYTE	W03
	BYTE		        40*seq_066_mvl/mxv
	BYTE	W03
	BYTE		        33*seq_066_mvl/mxv
	BYTE	W03
	BYTE		        24*seq_066_mvl/mxv
	BYTE	W02
	BYTE		        14*seq_066_mvl/mxv
	BYTE	W03
	BYTE		        7*seq_066_mvl/mxv
	BYTE	W04
	BYTE		BEND    c_v+0
	BYTE	W12
	BYTE		VOL     77*seq_066_mvl/mxv
	BYTE	W12
	BYTE		N10     Fs2 
	BYTE	W12
	BYTE		        Gs2   v008
	BYTE	W02
	BYTE	W10
	BYTE		N44     An2   v012
	BYTE	W12
	BYTE		VOL     76*seq_066_mvl/mxv
	BYTE	W06
	BYTE		        71*seq_066_mvl/mxv
	BYTE		BEND    c_v+1
	BYTE	W06
	BYTE		VOL     66*seq_066_mvl/mxv
	BYTE	W06
	BYTE		        59*seq_066_mvl/mxv
	BYTE	W06
	BYTE		        48*seq_066_mvl/mxv
	BYTE	W03
	BYTE		        41*seq_066_mvl/mxv
	BYTE	W03
	BYTE		        29*seq_066_mvl/mxv
	BYTE	W06
	BYTE		        77*seq_066_mvl/mxv
	BYTE		BEND    c_v+0
	BYTE		N44     Gs2   v008
	BYTE	W12
	BYTE		VOL     76*seq_066_mvl/mxv
	BYTE		BEND    c_v+1
	BYTE	W06
	BYTE		VOL     71*seq_066_mvl/mxv
	BYTE	W06
	BYTE		        66*seq_066_mvl/mxv
	BYTE	W06
	BYTE		        59*seq_066_mvl/mxv
	BYTE	W06
	BYTE		        48*seq_066_mvl/mxv
	BYTE	W02
	BYTE	W01
	BYTE		        41*seq_066_mvl/mxv
	BYTE	W03
	BYTE		        29*seq_066_mvl/mxv
	BYTE	W06
	BYTE		        77*seq_066_mvl/mxv
	BYTE		BEND    c_v+0
	BYTE		N44     Fs2   v012
	BYTE	W12
	BYTE		VOL     76*seq_066_mvl/mxv
	BYTE		BEND    c_v+2
	BYTE	W06
	BYTE		VOL     71*seq_066_mvl/mxv
	BYTE	W06
	BYTE		        66*seq_066_mvl/mxv
	BYTE	W06
	BYTE		        59*seq_066_mvl/mxv
	BYTE	W06
	BYTE		        48*seq_066_mvl/mxv
	BYTE	W03
	BYTE		        41*seq_066_mvl/mxv
	BYTE	W03
	BYTE		        29*seq_066_mvl/mxv
	BYTE	W06
	BYTE		        77*seq_066_mvl/mxv
	BYTE		BEND    c_v+0
	BYTE		N48     En2   v008
	BYTE	W12
	BYTE		VOL     73*seq_066_mvl/mxv
	BYTE	W06
	BYTE		        70*seq_066_mvl/mxv
	BYTE	W03
	BYTE		BEND    c_v+2
	BYTE	W03
	BYTE		VOL     64*seq_066_mvl/mxv
	BYTE	W03
	BYTE		        57*seq_066_mvl/mxv
	BYTE	W03
	BYTE		        51*seq_066_mvl/mxv
	BYTE	W03
	BYTE		        40*seq_066_mvl/mxv
	BYTE	W03
	BYTE		        33*seq_066_mvl/mxv
	BYTE	W02
	BYTE	W01
	BYTE		VOL     24*seq_066_mvl/mxv
	BYTE	W09
	BYTE		BEND    c_v+0
	BYTE	W12
	BYTE		VOL     77*seq_066_mvl/mxv
	BYTE	W72
	BYTE	W02
	BYTE	W96
	BYTE	W96
	BYTE	W96
	BYTE	W96
	BYTE	W96
	BYTE	W96
	BYTE	W96
	BYTE	W96
	BYTE	W96
	BYTE	W96
	BYTE	W96
	BYTE	W96
	BYTE	W96
	BYTE	W96
	BYTE	W96
	BYTE	W96
	BYTE	W96
	BYTE	W96
	BYTE	W96
	BYTE	W96
	BYTE	W96
	BYTE	W96
	BYTE	W96
	BYTE	W96
	BYTE	W96
	BYTE	W96
	BYTE	W96
	BYTE	W96
	BYTE	W96
	BYTE	W96
	BYTE	W96
	BYTE	W96
	BYTE	W96
	BYTE	W96
	BYTE	W96
	BYTE	W96
	BYTE	W96
	BYTE	GoTo
	 POIN2	seq_066_8 + 0x407
	BYTE	W07
	BYTE	FINE

//*********************** Track 10 ***********************//

seq_066_9:
	BYTE	KEYSH   seq_066_key+0
	BYTE	W03
	BYTE	W01
	BYTE		VOICE   45
	BYTE	W92
	BYTE	W03
	BYTE	W96
	BYTE	W96
	BYTE	W96
	BYTE	W96
	BYTE	W96
	BYTE	W96
	BYTE	W96
	BYTE	W96
	BYTE	W96
	BYTE	W96
	BYTE	W96
	BYTE	W96
	BYTE	W96
	BYTE	W96
	BYTE	W96
	BYTE	W96
	BYTE	W96
	BYTE	W96
	BYTE	W96
	BYTE	W96
	BYTE	W96
	BYTE	W96
	BYTE	W96
	BYTE	W96
	BYTE	W96
	BYTE	W96
	BYTE	W96
	BYTE	W96
	BYTE	W96
	BYTE	W96
	BYTE	W96
	BYTE	W96
	BYTE	W96
	BYTE	W96
	BYTE	W96
	BYTE	W96
	BYTE	W96
	BYTE	W96
	BYTE	W96
	BYTE	W96
	BYTE	W96
	BYTE	W96
	BYTE	W96
	BYTE	W96
	BYTE	W96
	BYTE	W96
	BYTE	W96
	BYTE	W96
	BYTE	W96
	BYTE	W96
	BYTE	W96
	BYTE	W96
	BYTE	W96
	BYTE	W96
	BYTE	W96
	BYTE	W96
	BYTE	W56
	BYTE	W02
	BYTE		PAN     c_v+56
	BYTE	W10
	BYTE	W07
	BYTE		VOL     70*seq_066_mvl/mxv
	BYTE	W01
	BYTE		N11     An2   v028
	BYTE	W12
	BYTE		        Bn2 
	BYTE	W08
	BYTE	W04
	BYTE		N23     Cs3   v028
	BYTE	W09
	BYTE		VOL     66*seq_066_mvl/mxv
	BYTE	W03
	BYTE		        63*seq_066_mvl/mxv
	BYTE	W03
	BYTE		        60*seq_066_mvl/mxv
	BYTE	W03
	BYTE		        54*seq_066_mvl/mxv
	BYTE	W03
	BYTE		        47*seq_066_mvl/mxv
	BYTE	W03
	BYTE		        70*seq_066_mvl/mxv
	BYTE		N23     En3 
	BYTE	W09
	BYTE		VOL     66*seq_066_mvl/mxv
	BYTE	W03
	BYTE		        63*seq_066_mvl/mxv
	BYTE	W03
	BYTE		        60*seq_066_mvl/mxv
	BYTE	W03
	BYTE		        54*seq_066_mvl/mxv
	BYTE	W03
	BYTE		        47*seq_066_mvl/mxv
	BYTE	W03
	BYTE		        70*seq_066_mvl/mxv
	BYTE		N32     Dn3   v024
	BYTE	W01
	BYTE		VOL     64*seq_066_mvl/mxv
	BYTE	W02
	BYTE		        58*seq_066_mvl/mxv
	BYTE	W03
	BYTE		        63*seq_066_mvl/mxv
	BYTE	W03
	BYTE		        68*seq_066_mvl/mxv
	BYTE	W01
	BYTE		        73*seq_066_mvl/mxv
	BYTE	W02
	BYTE		        78*seq_066_mvl/mxv
	BYTE	W01
	BYTE		        83*seq_066_mvl/mxv
	BYTE	W02
	BYTE		        82*seq_066_mvl/mxv
	BYTE	W03
	BYTE		        80*seq_066_mvl/mxv
	BYTE	W03
	BYTE		        76*seq_066_mvl/mxv
	BYTE	W03
	BYTE		        69*seq_066_mvl/mxv
	BYTE	W03
	BYTE		        59*seq_066_mvl/mxv
	BYTE	W01
	BYTE		        51*seq_066_mvl/mxv
	BYTE	W02
	BYTE		        45*seq_066_mvl/mxv
	BYTE	W01
	BYTE		        39*seq_066_mvl/mxv
	BYTE	W02
	BYTE		        32*seq_066_mvl/mxv
	BYTE	W01
	BYTE		        27*seq_066_mvl/mxv
	BYTE	W02
	BYTE		        70*seq_066_mvl/mxv
	BYTE		N10     Cs3   v020
	BYTE	W08
	BYTE	PEND
	BYTE	W04
	BYTE		N23     Bn2   v024
	BYTE	W09
	BYTE		VOL     66*seq_066_mvl/mxv
	BYTE	W03
	BYTE		        63*seq_066_mvl/mxv
	BYTE	W03
	BYTE		        60*seq_066_mvl/mxv
	BYTE	W03
	BYTE		        54*seq_066_mvl/mxv
	BYTE	W03
	BYTE		        47*seq_066_mvl/mxv
	BYTE	W03
	BYTE		        70*seq_066_mvl/mxv
	BYTE		N11     An2 
	BYTE	W12
	BYTE		        Bn2   v020
	BYTE	W12
	BYTE		N23     Cs3 
	BYTE	W09
	BYTE		VOL     66*seq_066_mvl/mxv
	BYTE	W03
	BYTE		        63*seq_066_mvl/mxv
	BYTE	W03
	BYTE		        57*seq_066_mvl/mxv
	BYTE	W03
	BYTE		        51*seq_066_mvl/mxv
	BYTE	W03
	BYTE		        43*seq_066_mvl/mxv
	BYTE	W03
	BYTE		        70*seq_066_mvl/mxv
	BYTE		N11     Cs3   v028
	BYTE	W12
	BYTE		        Dn3   v024
	BYTE	W08
	BYTE	PEND
	BYTE	W04
	BYTE		N23     En3   v024
	BYTE	W09
	BYTE		VOL     66*seq_066_mvl/mxv
	BYTE	W03
	BYTE		        63*seq_066_mvl/mxv
	BYTE	W03
	BYTE		        60*seq_066_mvl/mxv
	BYTE	W03
	BYTE		        54*seq_066_mvl/mxv
	BYTE	W03
	BYTE		        47*seq_066_mvl/mxv
	BYTE	W03
	BYTE		        70*seq_066_mvl/mxv
	BYTE		N11     An3 
	BYTE	W12
	BYTE		        Gs3   v020
	BYTE	W12
	BYTE		N32     Fs3   v028
	BYTE	W01
	BYTE		VOL     64*seq_066_mvl/mxv
	BYTE	W02
	BYTE		        58*seq_066_mvl/mxv
	BYTE	W03
	BYTE		        63*seq_066_mvl/mxv
	BYTE	W03
	BYTE		        68*seq_066_mvl/mxv
	BYTE	W01
	BYTE		        73*seq_066_mvl/mxv
	BYTE	W02
	BYTE		        78*seq_066_mvl/mxv
	BYTE	W01
	BYTE		        83*seq_066_mvl/mxv
	BYTE	W02
	BYTE		        82*seq_066_mvl/mxv
	BYTE	W03
	BYTE		        80*seq_066_mvl/mxv
	BYTE	W03
	BYTE		        76*seq_066_mvl/mxv
	BYTE	W03
	BYTE		        69*seq_066_mvl/mxv
	BYTE	W03
	BYTE		        59*seq_066_mvl/mxv
	BYTE	W01
	BYTE		        51*seq_066_mvl/mxv
	BYTE	W02
	BYTE		        45*seq_066_mvl/mxv
	BYTE	W01
	BYTE		        39*seq_066_mvl/mxv
	BYTE	W02
	BYTE		        32*seq_066_mvl/mxv
	BYTE	W01
	BYTE		        27*seq_066_mvl/mxv
	BYTE	W02
	BYTE		        70*seq_066_mvl/mxv
	BYTE		N10     En3   v020
	BYTE	W08
	BYTE	PEND
	BYTE	W04
	BYTE		N68     En3   v016
	BYTE	W06
	BYTE		VOL     70*seq_066_mvl/mxv
	BYTE	W06
	BYTE		        69*seq_066_mvl/mxv
	BYTE	W03
	BYTE		        68*seq_066_mvl/mxv
	BYTE	W03
	BYTE		        67*seq_066_mvl/mxv
	BYTE	W03
	BYTE		        65*seq_066_mvl/mxv
	BYTE	W03
	BYTE		        63*seq_066_mvl/mxv
	BYTE	W03
	BYTE		        61*seq_066_mvl/mxv
	BYTE	W03
	BYTE		        58*seq_066_mvl/mxv
	BYTE	W03
	BYTE		        55*seq_066_mvl/mxv
	BYTE	W03
	BYTE		        52*seq_066_mvl/mxv
	BYTE	W03
	BYTE		        49*seq_066_mvl/mxv
	BYTE	W03
	BYTE		        45*seq_066_mvl/mxv
	BYTE	W03
	BYTE		        41*seq_066_mvl/mxv
	BYTE	W03
	BYTE		        36*seq_066_mvl/mxv
	BYTE	W03
	BYTE		        31*seq_066_mvl/mxv
	BYTE	W03
	BYTE		        25*seq_066_mvl/mxv
	BYTE	W03
	BYTE		        19*seq_066_mvl/mxv
	BYTE	W03
	BYTE		        12*seq_066_mvl/mxv
	BYTE	W03
	BYTE		        8*seq_066_mvl/mxv
	BYTE	W03
	BYTE		        4*seq_066_mvl/mxv
	BYTE	W03
	BYTE		        2*seq_066_mvl/mxv
	BYTE	W15
	BYTE		        70*seq_066_mvl/mxv
	BYTE	W08
	BYTE	PEND
	BYTE	W04
	BYTE		N11     Fs3   v020
	BYTE	W12
	BYTE		        En3   v016
	BYTE	W12
	BYTE		N23     Fs3   v020
	BYTE	W09
	BYTE		VOL     66*seq_066_mvl/mxv
	BYTE	W03
	BYTE		        63*seq_066_mvl/mxv
	BYTE	W03
	BYTE		        60*seq_066_mvl/mxv
	BYTE	W03
	BYTE		        54*seq_066_mvl/mxv
	BYTE	W03
	BYTE		        47*seq_066_mvl/mxv
	BYTE	W03
	BYTE		        70*seq_066_mvl/mxv
	BYTE		N23     Bn2 
	BYTE	W09
	BYTE		VOL     66*seq_066_mvl/mxv
	BYTE	W03
	BYTE		        63*seq_066_mvl/mxv
	BYTE	W03
	BYTE		        60*seq_066_mvl/mxv
	BYTE	W03
	BYTE		        54*seq_066_mvl/mxv
	BYTE	W03
	BYTE		        47*seq_066_mvl/mxv
	BYTE	W03
	BYTE		        70*seq_066_mvl/mxv
	BYTE		N11     Cs3   v028
	BYTE	W12
	BYTE		        Dn3 
	BYTE	W08
	BYTE	W04
	BYTE		N44     En3   v024
	BYTE	W09
	BYTE		VOL     68*seq_066_mvl/mxv
	BYTE	W03
	BYTE		        67*seq_066_mvl/mxv
	BYTE	W03
	BYTE		        65*seq_066_mvl/mxv
	BYTE	W03
	BYTE		        63*seq_066_mvl/mxv
	BYTE	W03
	BYTE		        61*seq_066_mvl/mxv
	BYTE	W03
	BYTE		        58*seq_066_mvl/mxv
	BYTE	W03
	BYTE		        55*seq_066_mvl/mxv
	BYTE	W03
	BYTE		        52*seq_066_mvl/mxv
	BYTE	W03
	BYTE		        48*seq_066_mvl/mxv
	BYTE	W03
	BYTE		        44*seq_066_mvl/mxv
	BYTE	W03
	BYTE		        39*seq_066_mvl/mxv
	BYTE	W03
	BYTE		        34*seq_066_mvl/mxv
	BYTE	W03
	BYTE		        29*seq_066_mvl/mxv
	BYTE	W03
	BYTE		        70*seq_066_mvl/mxv
	BYTE		N44     Cs3   v020
	BYTE	W09
	BYTE		VOL     68*seq_066_mvl/mxv
	BYTE	W03
	BYTE		        67*seq_066_mvl/mxv
	BYTE	W03
	BYTE		        65*seq_066_mvl/mxv
	BYTE	W03
	BYTE		        63*seq_066_mvl/mxv
	BYTE	W03
	BYTE		        61*seq_066_mvl/mxv
	BYTE	W03
	BYTE		        58*seq_066_mvl/mxv
	BYTE	W03
	BYTE		        55*seq_066_mvl/mxv
	BYTE	W03
	BYTE		        52*seq_066_mvl/mxv
	BYTE	W03
	BYTE		        48*seq_066_mvl/mxv
	BYTE	W03
	BYTE		        44*seq_066_mvl/mxv
	BYTE	W03
	BYTE		        39*seq_066_mvl/mxv
	BYTE	W03
	BYTE		        34*seq_066_mvl/mxv
	BYTE	W02
	BYTE	W01
	BYTE		        29*seq_066_mvl/mxv
	BYTE	W03
	BYTE		        70*seq_066_mvl/mxv
	BYTE		N11     Dn3 
	BYTE	W12
	BYTE		        Cs3   v016
	BYTE	W12
	BYTE		        Dn3   v020
	BYTE	W12
	BYTE		        An2   v016
	BYTE	W12
	BYTE		        Cs3   v020
	BYTE	W12
	BYTE		        Cn3   v016
	BYTE	W12
	BYTE		        Cs3 
	BYTE	W12
	BYTE		        An2 
	BYTE	W08
	BYTE	W04
	BYTE		N56     Bn2 
	BYTE	W03
	BYTE		VOL     71*seq_066_mvl/mxv
	BYTE	W06
	BYTE		        72*seq_066_mvl/mxv
	BYTE	W03
	BYTE		        73*seq_066_mvl/mxv
	BYTE	W03
	BYTE		        75*seq_066_mvl/mxv
	BYTE	W03
	BYTE		        77*seq_066_mvl/mxv
	BYTE	W03
	BYTE		        78*seq_066_mvl/mxv
	BYTE	W03
	BYTE		        77*seq_066_mvl/mxv
	BYTE	W03
	BYTE		        75*seq_066_mvl/mxv
	BYTE	W03
	BYTE		        71*seq_066_mvl/mxv
	BYTE	W03
	BYTE		        65*seq_066_mvl/mxv
	BYTE	W03
	BYTE		        58*seq_066_mvl/mxv
	BYTE	W03
	BYTE		        49*seq_066_mvl/mxv
	BYTE	W03
	BYTE		        38*seq_066_mvl/mxv
	BYTE	W03
	BYTE		        27*seq_066_mvl/mxv
	BYTE	W03
	BYTE		        19*seq_066_mvl/mxv
	BYTE	W03
	BYTE		        13*seq_066_mvl/mxv
	BYTE	W03
	BYTE		        5*seq_066_mvl/mxv
	BYTE	W03
	BYTE		        2*seq_066_mvl/mxv
	BYTE	W12
	BYTE		        70*seq_066_mvl/mxv
	BYTE	W03
	BYTE		N11     An2   v028
	BYTE	W12
	BYTE		        Bn2 
	BYTE	W08
	BYTE	PATT
	 POIN2	seq_066_9 + 0x4F
	BYTE	PATT
	 POIN2	seq_066_9 + 0x9C
	BYTE	PATT
	 POIN2	seq_066_9 + 0xCA
	BYTE	PATT
	 POIN2	seq_066_9 + 0x10E
	BYTE	W04
	BYTE		N11     En3   v024
	BYTE	W12
	BYTE		        Dn3   v020
	BYTE	W12
	BYTE		        Cs3 
	BYTE	W12
	BYTE		        Bn2 
	BYTE	W12
	BYTE		N23     Dn3 
	BYTE	W09
	BYTE		VOL     66*seq_066_mvl/mxv
	BYTE	W03
	BYTE		        63*seq_066_mvl/mxv
	BYTE	W03
	BYTE		        60*seq_066_mvl/mxv
	BYTE	W03
	BYTE		        54*seq_066_mvl/mxv
	BYTE	W03
	BYTE		        47*seq_066_mvl/mxv
	BYTE	W03
	BYTE		        70*seq_066_mvl/mxv
	BYTE		N11     Bn2   v028
	BYTE	W12
	BYTE		        Cs3   v024
	BYTE	W08
	BYTE	W04
	BYTE		        Dn3   v020
	BYTE	W12
	BYTE		        Cs3 
	BYTE	W12
	BYTE		        Bn2 
	BYTE	W12
	BYTE		        An2   v016
	BYTE	W12
	BYTE		N23     Cs3 
	BYTE	W09
	BYTE		VOL     66*seq_066_mvl/mxv
	BYTE	W03
	BYTE		        63*seq_066_mvl/mxv
	BYTE	W03
	BYTE		        60*seq_066_mvl/mxv
	BYTE	W03
	BYTE		        54*seq_066_mvl/mxv
	BYTE	W03
	BYTE		        47*seq_066_mvl/mxv
	BYTE	W03
	BYTE		        70*seq_066_mvl/mxv
	BYTE		N11     An2   v032
	BYTE	W12
	BYTE		        Bn2 
	BYTE	W08
	BYTE	W04
	BYTE		        Cs3   v028
	BYTE	W12
	BYTE		        Cn3   v024
	BYTE	W12
	BYTE		        Cs3   v032
	BYTE	W12
	BYTE		        Fs3 
	BYTE	W12
	BYTE		        An3   v028
	BYTE	W12
	BYTE		        Gs3 
	BYTE	W12
	BYTE		        An3 
	BYTE	W12
	BYTE		        Cs4   v024
	BYTE	W08
	BYTE	W04
	BYTE		N56     Bn3   v020
	BYTE	W09
	BYTE		VOL     69*seq_066_mvl/mxv
	BYTE	W06
	BYTE		        68*seq_066_mvl/mxv
	BYTE	W03
	BYTE		        66*seq_066_mvl/mxv
	BYTE	W03
	BYTE		        64*seq_066_mvl/mxv
	BYTE	W03
	BYTE		        62*seq_066_mvl/mxv
	BYTE	W03
	BYTE		        58*seq_066_mvl/mxv
	BYTE	W03
	BYTE		        54*seq_066_mvl/mxv
	BYTE	W03
	BYTE		        50*seq_066_mvl/mxv
	BYTE	W03
	BYTE		        44*seq_066_mvl/mxv
	BYTE	W03
	BYTE		        38*seq_066_mvl/mxv
	BYTE	W03
	BYTE		        32*seq_066_mvl/mxv
	BYTE	W03
	BYTE		        25*seq_066_mvl/mxv
	BYTE	W03
	BYTE		        18*seq_066_mvl/mxv
	BYTE	W03
	BYTE		        11*seq_066_mvl/mxv
	BYTE	W03
	BYTE		        5*seq_066_mvl/mxv
	BYTE	W15
	BYTE		        70*seq_066_mvl/mxv
	BYTE	W03
	BYTE		N11     Fs3   v016
	BYTE	W12
	BYTE		        Gs3 
	BYTE	W08
	BYTE	W04
	BYTE		N44     An3 
	BYTE	W09
	BYTE		VOL     68*seq_066_mvl/mxv
	BYTE	W03
	BYTE		        67*seq_066_mvl/mxv
	BYTE	W03
	BYTE		        65*seq_066_mvl/mxv
	BYTE	W03
	BYTE		        63*seq_066_mvl/mxv
	BYTE	W03
	BYTE		        61*seq_066_mvl/mxv
	BYTE	W03
	BYTE		        58*seq_066_mvl/mxv
	BYTE	W03
	BYTE		        55*seq_066_mvl/mxv
	BYTE	W03
	BYTE		        52*seq_066_mvl/mxv
	BYTE	W03
	BYTE		        48*seq_066_mvl/mxv
	BYTE	W03
	BYTE		        44*seq_066_mvl/mxv
	BYTE	W03
	BYTE		        39*seq_066_mvl/mxv
	BYTE	W03
	BYTE		        34*seq_066_mvl/mxv
	BYTE	W03
	BYTE		        29*seq_066_mvl/mxv
	BYTE	W03
	BYTE		        70*seq_066_mvl/mxv
	BYTE		N44     Gs3   v012
	BYTE	W09
	BYTE		VOL     68*seq_066_mvl/mxv
	BYTE	W03
	BYTE		        67*seq_066_mvl/mxv
	BYTE	W03
	BYTE		        65*seq_066_mvl/mxv
	BYTE	W03
	BYTE		        63*seq_066_mvl/mxv
	BYTE	W03
	BYTE		        61*seq_066_mvl/mxv
	BYTE	W03
	BYTE		        58*seq_066_mvl/mxv
	BYTE	W03
	BYTE		        55*seq_066_mvl/mxv
	BYTE	W03
	BYTE		        52*seq_066_mvl/mxv
	BYTE	W03
	BYTE		        48*seq_066_mvl/mxv
	BYTE	W03
	BYTE		        44*seq_066_mvl/mxv
	BYTE	W03
	BYTE		        39*seq_066_mvl/mxv
	BYTE	W03
	BYTE		        34*seq_066_mvl/mxv
	BYTE	W02
	BYTE	W01
	BYTE		        29*seq_066_mvl/mxv
	BYTE	W03
	BYTE		        70*seq_066_mvl/mxv
	BYTE		N44     Fs3 
	BYTE	W09
	BYTE		VOL     68*seq_066_mvl/mxv
	BYTE	W03
	BYTE		        67*seq_066_mvl/mxv
	BYTE	W03
	BYTE		        65*seq_066_mvl/mxv
	BYTE	W03
	BYTE		        63*seq_066_mvl/mxv
	BYTE	W03
	BYTE		        61*seq_066_mvl/mxv
	BYTE	W03
	BYTE		        58*seq_066_mvl/mxv
	BYTE	W03
	BYTE		        55*seq_066_mvl/mxv
	BYTE	W03
	BYTE		        52*seq_066_mvl/mxv
	BYTE	W03
	BYTE		        48*seq_066_mvl/mxv
	BYTE	W03
	BYTE		        44*seq_066_mvl/mxv
	BYTE	W03
	BYTE		        39*seq_066_mvl/mxv
	BYTE	W03
	BYTE		        34*seq_066_mvl/mxv
	BYTE	W03
	BYTE		        29*seq_066_mvl/mxv
	BYTE	W03
	BYTE		        70*seq_066_mvl/mxv
	BYTE		N48     En3 
	BYTE	W09
	BYTE		VOL     70*seq_066_mvl/mxv
	BYTE	W03
	BYTE		        69*seq_066_mvl/mxv
	BYTE	W03
	BYTE		        68*seq_066_mvl/mxv
	BYTE	W03
	BYTE		        65*seq_066_mvl/mxv
	BYTE	W03
	BYTE		        63*seq_066_mvl/mxv
	BYTE	W03
	BYTE		        58*seq_066_mvl/mxv
	BYTE	W03
	BYTE		        53*seq_066_mvl/mxv
	BYTE	W03
	BYTE		        47*seq_066_mvl/mxv
	BYTE	W03
	BYTE		        41*seq_066_mvl/mxv
	BYTE	W03
	BYTE		        33*seq_066_mvl/mxv
	BYTE	W01
	BYTE		        29*seq_066_mvl/mxv
	BYTE	W02
	BYTE		        24*seq_066_mvl/mxv
	BYTE	W01
	BYTE		        19*seq_066_mvl/mxv
	BYTE	W02
	BYTE		        14*seq_066_mvl/mxv
	BYTE	W01
	BYTE		        11*seq_066_mvl/mxv
	BYTE	W01
	BYTE	GoTo
	 POIN2	seq_066_9 + 0x2D
	BYTE	W01
	BYTE		VOL     9*seq_066_mvl/mxv
	BYTE	W01
	BYTE		        7*seq_066_mvl/mxv
	BYTE	W02
	BYTE		        4*seq_066_mvl/mxv
	BYTE	W03
	BYTE	FINE

//******************************************************//

	ALIGN 4

seq_066:
	BYTE	10	// NumTrks
	BYTE	0	// NumBlks
	BYTE	seq_066_pri	// Priority
	BYTE	seq_066_rev	// Reverb

	POIN2	seq_066_grp

	POIN2	seq_066_0
	POIN2	seq_066_1
	POIN2	seq_066_2
	POIN2	seq_066_3
	POIN2	seq_066_4
	POIN2	seq_066_5
	POIN2	seq_066_6
	POIN2	seq_066_7
	POIN2	seq_066_8
	POIN2	seq_066_9

	
