//Event file generated from Sappy .s format.
// File generated by m4a2s Song-Module
	#include "MPlayDef.event"

	#define	seq_067_grp  bank_000
	#define	seq_067_pri  10
	#define	seq_067_rev  0
	#define	seq_067_mvl  127
	#define	seq_067_key  0

	// .rodata
	//	seq_067
	ALIGN 4

//*********************** Track 01 ***********************//

seq_067_0:
	BYTE	KEYSH   seq_067_key+0
	BYTE	TEMPO   150/2
	BYTE		VOICE   73
	BYTE	W01
	BYTE		VOL     62*seq_067_mvl/mxv
	BYTE	W01
	BYTE		PAN     c_v+21
	BYTE	W01
	BYTE	TEMPO   104/2
	BYTE		N12     Cn2   v060
	BYTE	W07
	BYTE		VOL     54*seq_067_mvl/mxv
	BYTE	W02
	BYTE		        47*seq_067_mvl/mxv
	BYTE	W01
	BYTE		        37*seq_067_mvl/mxv
	BYTE	W02
	BYTE		        62*seq_067_mvl/mxv
	BYTE		N12     Dn2   v056
	BYTE	W07
	BYTE		VOL     54*seq_067_mvl/mxv
	BYTE	W02
	BYTE		        47*seq_067_mvl/mxv
	BYTE	W01
	BYTE		        37*seq_067_mvl/mxv
	BYTE	W02
	BYTE		        62*seq_067_mvl/mxv
	BYTE		N12     En2   v060
	BYTE	W07
	BYTE		VOL     54*seq_067_mvl/mxv
	BYTE	W02
	BYTE		        47*seq_067_mvl/mxv
	BYTE	W01
	BYTE		        37*seq_067_mvl/mxv
	BYTE	W02
	BYTE		        62*seq_067_mvl/mxv
	BYTE		N12     Gn2   v052
	BYTE	W07
	BYTE		VOL     54*seq_067_mvl/mxv
	BYTE	W02
	BYTE		        47*seq_067_mvl/mxv
	BYTE	W01
	BYTE		        37*seq_067_mvl/mxv
	BYTE	W02
	BYTE		        62*seq_067_mvl/mxv
	BYTE		N12     Cn3 
	BYTE	W07
	BYTE		VOL     54*seq_067_mvl/mxv
	BYTE	W02
	BYTE		        47*seq_067_mvl/mxv
	BYTE	W01
	BYTE		        37*seq_067_mvl/mxv
	BYTE	W02
	BYTE		        62*seq_067_mvl/mxv
	BYTE		N12     Dn3   v044
	BYTE	W07
	BYTE		VOL     54*seq_067_mvl/mxv
	BYTE	W02
	BYTE		        47*seq_067_mvl/mxv
	BYTE	W01
	BYTE		        37*seq_067_mvl/mxv
	BYTE	W02
	BYTE		        62*seq_067_mvl/mxv
	BYTE		N12     En3   v048
	BYTE	W07
	BYTE		VOL     54*seq_067_mvl/mxv
	BYTE	W02
	BYTE		        47*seq_067_mvl/mxv
	BYTE	W01
	BYTE		        37*seq_067_mvl/mxv
	BYTE	W02
	BYTE		        62*seq_067_mvl/mxv
	BYTE		N12     Gn3   v040
	BYTE	W07
	BYTE		VOL     54*seq_067_mvl/mxv
	BYTE	W02
	BYTE		        47*seq_067_mvl/mxv
	BYTE	W01
	BYTE		        37*seq_067_mvl/mxv
	BYTE	W02
	BYTE		        62*seq_067_mvl/mxv
	BYTE		N54     Cn4 
	BYTE	W06
	BYTE		VOL     61*seq_067_mvl/mxv
	BYTE	W06
	BYTE		        60*seq_067_mvl/mxv
	BYTE	W03
	BYTE		        57*seq_067_mvl/mxv
	BYTE	W03
	BYTE		        54*seq_067_mvl/mxv
	BYTE	W03
	BYTE		        51*seq_067_mvl/mxv
	BYTE	W03
	BYTE		        45*seq_067_mvl/mxv
	BYTE	W03
	BYTE		        40*seq_067_mvl/mxv
	BYTE	W03
	BYTE		        33*seq_067_mvl/mxv
	BYTE	W03
	BYTE		        25*seq_067_mvl/mxv
	BYTE	W03
	BYTE		        22*seq_067_mvl/mxv
	BYTE	W03
	BYTE		        14*seq_067_mvl/mxv
	BYTE	W03
	BYTE		        10*seq_067_mvl/mxv
	BYTE	W03
	BYTE		        8*seq_067_mvl/mxv
	BYTE	W03
	BYTE		        5*seq_067_mvl/mxv
	BYTE	W03
	BYTE		        3*seq_067_mvl/mxv
	BYTE	W03
	BYTE		        1*seq_067_mvl/mxv
	BYTE	W42
	BYTE		        62*seq_067_mvl/mxv
	BYTE		N12     Cn2   v060
	BYTE	W07
	BYTE		VOL     54*seq_067_mvl/mxv
	BYTE	W02
	BYTE		        47*seq_067_mvl/mxv
	BYTE	W01
	BYTE		        37*seq_067_mvl/mxv
	BYTE	W02
	BYTE		        62*seq_067_mvl/mxv
	BYTE		N12     Dn2   v056
	BYTE	W07
	BYTE		VOL     54*seq_067_mvl/mxv
	BYTE	W02
	BYTE		        47*seq_067_mvl/mxv
	BYTE	W01
	BYTE		        37*seq_067_mvl/mxv
	BYTE	W02
	BYTE		        62*seq_067_mvl/mxv
	BYTE		N12     En2   v060
	BYTE	W07
	BYTE		VOL     54*seq_067_mvl/mxv
	BYTE	W02
	BYTE		        47*seq_067_mvl/mxv
	BYTE	W01
	BYTE		        37*seq_067_mvl/mxv
	BYTE	W02
	BYTE		        62*seq_067_mvl/mxv
	BYTE		N12     Gn2   v052
	BYTE	W07
	BYTE		VOL     54*seq_067_mvl/mxv
	BYTE	W02
	BYTE		        47*seq_067_mvl/mxv
	BYTE	W01
	BYTE		        37*seq_067_mvl/mxv
	BYTE	W02
	BYTE		        62*seq_067_mvl/mxv
	BYTE		N12     Cn3 
	BYTE	W07
	BYTE		VOL     54*seq_067_mvl/mxv
	BYTE	W02
	BYTE		        47*seq_067_mvl/mxv
	BYTE	W01
	BYTE		        37*seq_067_mvl/mxv
	BYTE	W02
	BYTE		        62*seq_067_mvl/mxv
	BYTE		N12     Dn3   v044
	BYTE	W07
	BYTE		VOL     54*seq_067_mvl/mxv
	BYTE	W02
	BYTE		        47*seq_067_mvl/mxv
	BYTE	W01
	BYTE		        37*seq_067_mvl/mxv
	BYTE	W02
	BYTE		        62*seq_067_mvl/mxv
	BYTE		N12     En3   v048
	BYTE	W07
	BYTE		VOL     54*seq_067_mvl/mxv
	BYTE	W02
	BYTE		        47*seq_067_mvl/mxv
	BYTE	W01
	BYTE		        37*seq_067_mvl/mxv
	BYTE	W02
	BYTE		        62*seq_067_mvl/mxv
	BYTE		N12     Gn3   v040
	BYTE	W07
	BYTE		VOL     54*seq_067_mvl/mxv
	BYTE	W02
	BYTE		        47*seq_067_mvl/mxv
	BYTE	W01
	BYTE		        37*seq_067_mvl/mxv
	BYTE	W02
	BYTE		        62*seq_067_mvl/mxv
	BYTE		N54     Cn4 
	BYTE	W06
	BYTE		VOL     61*seq_067_mvl/mxv
	BYTE	W06
	BYTE		        60*seq_067_mvl/mxv
	BYTE	W03
	BYTE		        57*seq_067_mvl/mxv
	BYTE	W03
	BYTE		        54*seq_067_mvl/mxv
	BYTE	W03
	BYTE		        51*seq_067_mvl/mxv
	BYTE	W03
	BYTE		        45*seq_067_mvl/mxv
	BYTE	W03
	BYTE		        40*seq_067_mvl/mxv
	BYTE	W03
	BYTE		        33*seq_067_mvl/mxv
	BYTE	W03
	BYTE		        25*seq_067_mvl/mxv
	BYTE	W03
	BYTE		        22*seq_067_mvl/mxv
	BYTE	W03
	BYTE		        14*seq_067_mvl/mxv
	BYTE	W03
	BYTE		        10*seq_067_mvl/mxv
	BYTE	W03
	BYTE		        8*seq_067_mvl/mxv
	BYTE	W03
	BYTE		        5*seq_067_mvl/mxv
	BYTE	W03
	BYTE		        3*seq_067_mvl/mxv
	BYTE	W03
	BYTE		        1*seq_067_mvl/mxv
	BYTE	W18
	BYTE	TEMPO   90/2
	BYTE	W14
	BYTE		VOICE   54
	BYTE	W04
	BYTE		VOL     62*seq_067_mvl/mxv
	BYTE	W06
	BYTE	TEMPO   102/2
	BYTE		N24     Gn2   v064
	BYTE	W24
	BYTE		        Cn3   v048
	BYTE	W24
	BYTE		        Dn3   v052
	BYTE	W24
	BYTE		        Gn2   v056
	BYTE	W24
	BYTE		N48     Fn3   v060
	BYTE	W18
	BYTE		VOL     62*seq_067_mvl/mxv
	BYTE	W03
	BYTE		        61*seq_067_mvl/mxv
	BYTE	W01
	BYTE		        60*seq_067_mvl/mxv
	BYTE	W02
	BYTE		        58*seq_067_mvl/mxv
	BYTE	W01
	BYTE		        56*seq_067_mvl/mxv
	BYTE	W02
	BYTE		        54*seq_067_mvl/mxv
	BYTE	W01
	BYTE		        51*seq_067_mvl/mxv
	BYTE	W02
	BYTE		        48*seq_067_mvl/mxv
	BYTE	W01
	BYTE		        44*seq_067_mvl/mxv
	BYTE	W02
	BYTE		        40*seq_067_mvl/mxv
	BYTE	W01
	BYTE		        35*seq_067_mvl/mxv
	BYTE	W02
	BYTE		        30*seq_067_mvl/mxv
	BYTE	W01
	BYTE		        25*seq_067_mvl/mxv
	BYTE	W02
	BYTE		        19*seq_067_mvl/mxv
	BYTE	W01
	BYTE		        16*seq_067_mvl/mxv
	BYTE	W02
	BYTE		        13*seq_067_mvl/mxv
	BYTE	W01
	BYTE		        11*seq_067_mvl/mxv
	BYTE	W02
	BYTE		        10*seq_067_mvl/mxv
	BYTE	W03
	BYTE		        62*seq_067_mvl/mxv
	BYTE		N24     En3   v056
	BYTE	W24
	BYTE		        Dn3   v036
	BYTE	W24
	BYTE		        Cn3   v052
	BYTE	W24
	BYTE		N12     Bn2   v060
	BYTE	W12
	BYTE		        Cn3   v064
	BYTE	W12
	BYTE		N24     Dn3 
	BYTE	W24
	BYTE		N23     Cn3   v052
	BYTE	W24
	BYTE		N48     Cn3   v048
	BYTE	W18
	BYTE		VOL     62*seq_067_mvl/mxv
	BYTE	W03
	BYTE		        61*seq_067_mvl/mxv
	BYTE	W01
	BYTE		        60*seq_067_mvl/mxv
	BYTE	W02
	BYTE		        58*seq_067_mvl/mxv
	BYTE	W01
	BYTE		        56*seq_067_mvl/mxv
	BYTE	W02
	BYTE		        54*seq_067_mvl/mxv
	BYTE	W01
	BYTE		        51*seq_067_mvl/mxv
	BYTE	W02
	BYTE		        48*seq_067_mvl/mxv
	BYTE	W01
	BYTE		        44*seq_067_mvl/mxv
	BYTE	W02
	BYTE		        40*seq_067_mvl/mxv
	BYTE	W01
	BYTE		        35*seq_067_mvl/mxv
	BYTE	W02
	BYTE		        30*seq_067_mvl/mxv
	BYTE	W01
	BYTE		        25*seq_067_mvl/mxv
	BYTE	W02
	BYTE		        19*seq_067_mvl/mxv
	BYTE	W01
	BYTE		        16*seq_067_mvl/mxv
	BYTE	W02
	BYTE		        13*seq_067_mvl/mxv
	BYTE	W01
	BYTE		        11*seq_067_mvl/mxv
	BYTE	W02
	BYTE		        10*seq_067_mvl/mxv
	BYTE	W03
	BYTE		        62*seq_067_mvl/mxv
	BYTE		N48     Bn2   v044
	BYTE	W18
	BYTE		VOL     62*seq_067_mvl/mxv
	BYTE	W03
	BYTE		        61*seq_067_mvl/mxv
	BYTE	W01
	BYTE		        60*seq_067_mvl/mxv
	BYTE	W02
	BYTE		        58*seq_067_mvl/mxv
	BYTE	W01
	BYTE		        56*seq_067_mvl/mxv
	BYTE	W02
	BYTE		        54*seq_067_mvl/mxv
	BYTE	W01
	BYTE		        51*seq_067_mvl/mxv
	BYTE	W02
	BYTE		        48*seq_067_mvl/mxv
	BYTE	W01
	BYTE		        44*seq_067_mvl/mxv
	BYTE	W02
	BYTE		        40*seq_067_mvl/mxv
	BYTE	W01
	BYTE		        35*seq_067_mvl/mxv
	BYTE	W02
	BYTE		        30*seq_067_mvl/mxv
	BYTE	W01
	BYTE		        25*seq_067_mvl/mxv
	BYTE	W02
	BYTE		        19*seq_067_mvl/mxv
	BYTE	W01
	BYTE		        16*seq_067_mvl/mxv
	BYTE	W02
	BYTE		        13*seq_067_mvl/mxv
	BYTE	W01
	BYTE		        11*seq_067_mvl/mxv
	BYTE	W02
	BYTE		        10*seq_067_mvl/mxv
	BYTE	W03
	BYTE		        62*seq_067_mvl/mxv
	BYTE		N24     An2   v048
	BYTE	W24
	BYTE		        Dn3   v052
	BYTE	W24
	BYTE		        En3   v064
	BYTE	W24
	BYTE		N20     An2   v068
	BYTE	W24
	BYTE		N48     Gn3 
	BYTE	W18
	BYTE		VOL     62*seq_067_mvl/mxv
	BYTE	W03
	BYTE		        61*seq_067_mvl/mxv
	BYTE	W01
	BYTE		        60*seq_067_mvl/mxv
	BYTE	W02
	BYTE		        58*seq_067_mvl/mxv
	BYTE	W01
	BYTE		        56*seq_067_mvl/mxv
	BYTE	W02
	BYTE		        54*seq_067_mvl/mxv
	BYTE	W01
	BYTE		        51*seq_067_mvl/mxv
	BYTE	W02
	BYTE		        48*seq_067_mvl/mxv
	BYTE	W01
	BYTE		        44*seq_067_mvl/mxv
	BYTE	W02
	BYTE		        40*seq_067_mvl/mxv
	BYTE	W01
	BYTE		        35*seq_067_mvl/mxv
	BYTE	W02
	BYTE		        30*seq_067_mvl/mxv
	BYTE	W01
	BYTE		        25*seq_067_mvl/mxv
	BYTE	W02
	BYTE		        19*seq_067_mvl/mxv
	BYTE	W01
	BYTE		        16*seq_067_mvl/mxv
	BYTE	W02
	BYTE		        13*seq_067_mvl/mxv
	BYTE	W01
	BYTE		        11*seq_067_mvl/mxv
	BYTE	W02
	BYTE		        10*seq_067_mvl/mxv
	BYTE	W03
	BYTE		        62*seq_067_mvl/mxv
	BYTE		N24     Fn3   v056
	BYTE	W24
	BYTE		        En3   v032
	BYTE	W24
	BYTE		        Dn3   v052
	BYTE	W24
	BYTE		N12     Cs3 
	BYTE	W12
	BYTE		        En3   v040
	BYTE	W12
	BYTE	TEMPO   100/2
	BYTE		N24     Dn3   v064
	BYTE	W24
	BYTE	TEMPO   94/2
	BYTE		N23     An2   v048
	BYTE	W24
	BYTE		N48     En3   v044
	BYTE	W18
	BYTE		VOL     62*seq_067_mvl/mxv
	BYTE	W03
	BYTE		        61*seq_067_mvl/mxv
	BYTE	W01
	BYTE		        60*seq_067_mvl/mxv
	BYTE	W02
	BYTE	TEMPO   84/2
	BYTE		        58*seq_067_mvl/mxv
	BYTE	W01
	BYTE		        56*seq_067_mvl/mxv
	BYTE	W02
	BYTE		        54*seq_067_mvl/mxv
	BYTE	W01
	BYTE		        51*seq_067_mvl/mxv
	BYTE	W02
	BYTE		        48*seq_067_mvl/mxv
	BYTE	W01
	BYTE		        44*seq_067_mvl/mxv
	BYTE	W02
	BYTE		        40*seq_067_mvl/mxv
	BYTE	W01
	BYTE		        35*seq_067_mvl/mxv
	BYTE	W02
	BYTE		        30*seq_067_mvl/mxv
	BYTE	W01
	BYTE		        25*seq_067_mvl/mxv
	BYTE	W02
	BYTE		        19*seq_067_mvl/mxv
	BYTE	W01
	BYTE		        16*seq_067_mvl/mxv
	BYTE	W02
	BYTE		        13*seq_067_mvl/mxv
	BYTE	W01
	BYTE		        11*seq_067_mvl/mxv
	BYTE	W02
	BYTE		        10*seq_067_mvl/mxv
	BYTE	W03
	BYTE	TEMPO   72/2
	BYTE		        62*seq_067_mvl/mxv
	BYTE		N48     Dn3   v036
	BYTE	W15
	BYTE		VOL     62*seq_067_mvl/mxv
	BYTE	W04
	BYTE		        61*seq_067_mvl/mxv
	BYTE	W03
	BYTE		        60*seq_067_mvl/mxv
	BYTE	W02
	BYTE		        58*seq_067_mvl/mxv
	BYTE	W01
	BYTE		        56*seq_067_mvl/mxv
	BYTE	W02
	BYTE		        54*seq_067_mvl/mxv
	BYTE	W01
	BYTE		        51*seq_067_mvl/mxv
	BYTE	W02
	BYTE		        48*seq_067_mvl/mxv
	BYTE	W01
	BYTE		        44*seq_067_mvl/mxv
	BYTE	W02
	BYTE		        40*seq_067_mvl/mxv
	BYTE	W01
	BYTE		        35*seq_067_mvl/mxv
	BYTE	W02
	BYTE		        30*seq_067_mvl/mxv
	BYTE	W01
	BYTE		        25*seq_067_mvl/mxv
	BYTE	W02
	BYTE		        19*seq_067_mvl/mxv
	BYTE	W01
	BYTE		        16*seq_067_mvl/mxv
	BYTE	W02
	BYTE		        13*seq_067_mvl/mxv
	BYTE	W01
	BYTE		        11*seq_067_mvl/mxv
	BYTE	W02
	BYTE		        10*seq_067_mvl/mxv
	BYTE	W01
	BYTE		        5*seq_067_mvl/mxv
	BYTE	W02
	BYTE	TEMPO   104/2
	BYTE		        62*seq_067_mvl/mxv
	BYTE		N12     Cn2   v056
	BYTE	W12
	BYTE		        En2   v048
	BYTE	W12
	BYTE		        Gn2   v052
	BYTE	W12
	BYTE		        Cn3   v044
	BYTE	W12
	BYTE		        Bn1   v064
	BYTE	W12
	BYTE		        Dn2   v060
	BYTE	W12
	BYTE		        Gn2   v056
	BYTE	W12
	BYTE		        Bn2 
	BYTE	W12
	BYTE		N12     An1   v076
	BYTE	W12
	BYTE		        Cn2   v064
	BYTE	W12
	BYTE		        Fn2 
	BYTE	W12
	BYTE		N11     An2   v060
	BYTE	W12
	BYTE		N12     Gn1   v080
	BYTE	W12
	BYTE		N11     Dn2   v068
	BYTE	W12
	BYTE		N12     Gn2   v064
	BYTE	W12
	BYTE		N11     Bn2   v060
	BYTE	W12
	BYTE	PEND
	BYTE		N12     Fn1   v072
	BYTE	W12
	BYTE		        Cn2 
	BYTE	W12
	BYTE		        Fn2   v068
	BYTE	W12
	BYTE		        An2   v064
	BYTE	W12
	BYTE		        Fs1   v076
	BYTE	W12
	BYTE		        Dn2   v072
	BYTE	W12
	BYTE		        Fs2 
	BYTE	W12
	BYTE		        An2 
	BYTE	W12
	BYTE	PEND
	BYTE		        Gn1 
	BYTE	W12
	BYTE		        Dn2   v060
	BYTE	W12
	BYTE		        Gn2   v056
	BYTE	W12
	BYTE		        Bn2   v044
	BYTE	W12
	BYTE		N48     Dn3   v040
	BYTE	W15
	BYTE		VOL     62*seq_067_mvl/mxv
	BYTE	W03
	BYTE		        61*seq_067_mvl/mxv
	BYTE	W01
	BYTE		        61*seq_067_mvl/mxv
	BYTE	W02
	BYTE		        60*seq_067_mvl/mxv
	BYTE	W01
	BYTE		        59*seq_067_mvl/mxv
	BYTE	W02
	BYTE		        57*seq_067_mvl/mxv
	BYTE	W01
	BYTE		        56*seq_067_mvl/mxv
	BYTE	W02
	BYTE		        54*seq_067_mvl/mxv
	BYTE	W01
	BYTE		        51*seq_067_mvl/mxv
	BYTE	W02
	BYTE		        49*seq_067_mvl/mxv
	BYTE	W01
	BYTE		        46*seq_067_mvl/mxv
	BYTE	W02
	BYTE		        43*seq_067_mvl/mxv
	BYTE	W01
	BYTE		        40*seq_067_mvl/mxv
	BYTE	W02
	BYTE		        36*seq_067_mvl/mxv
	BYTE	W01
	BYTE		        32*seq_067_mvl/mxv
	BYTE	W02
	BYTE		        28*seq_067_mvl/mxv
	BYTE	W01
	BYTE		        24*seq_067_mvl/mxv
	BYTE	W02
	BYTE		        19*seq_067_mvl/mxv
	BYTE	W01
	BYTE		        15*seq_067_mvl/mxv
	BYTE	W02
	BYTE		        10*seq_067_mvl/mxv
	BYTE	W01
	BYTE		        5*seq_067_mvl/mxv
	BYTE	W02
	BYTE		        62*seq_067_mvl/mxv
	BYTE		N12     Dn2   v052
	BYTE	W12
	BYTE		        Fn2   v048
	BYTE	W12
	BYTE		        An2   v044
	BYTE	W12
	BYTE		        Dn3 
	BYTE	W12
	BYTE		        Cs2   v060
	BYTE	W12
	BYTE		N11     En2   v056
	BYTE	W12
	BYTE		N12     An2   v052
	BYTE	W12
	BYTE		N11     Cs3   v048
	BYTE	W12
	BYTE		N12     Dn2   v068
	BYTE	W12
	BYTE		        Fn2   v064
	BYTE	W12
	BYTE		        An2 
	BYTE	W12
	BYTE		N11     Dn3   v060
	BYTE	W12
	BYTE		N12     Cs2   v076
	BYTE	W12
	BYTE		        Gn2   v064
	BYTE	W12
	BYTE		        An2 
	BYTE	W12
	BYTE		        Cs3   v060
	BYTE	W12
	BYTE	PEND
	BYTE		N12     Dn2   v076
	BYTE	W12
	BYTE		        Fn2   v064
	BYTE	W12
	BYTE		        An2 
	BYTE	W12
	BYTE		N11     Dn3   v060
	BYTE	W12
	BYTE		N12     Cn2   v072
	BYTE	W12
	BYTE		        Fs2   v064
	BYTE	W12
	BYTE		        An2 
	BYTE	W12
	BYTE		N11     Cn3   v060
	BYTE	W12
	BYTE	PEND
	BYTE		N12     Gn1   v064
	BYTE	W12
	BYTE		        Bn1   v060
	BYTE	W12
	BYTE		        Dn2   v052
	BYTE	W12
	BYTE		        Gn2 
	BYTE	W12
	BYTE		        Bn2   v056
	BYTE	W12
	BYTE		        Gn2   v052
	BYTE	W12
	BYTE		        Dn2   v044
	BYTE	W12
	BYTE		        Bn1   v040
	BYTE	W12
	BYTE	TEMPO   104/2
	BYTE		        Cn2   v056
	BYTE	W12
	BYTE		N11     En2   v048
	BYTE	W12
	BYTE		N12     Gn2   v052
	BYTE	W12
	BYTE		N10     Cn3   v044
	BYTE	W12
	BYTE		N12     Bn1   v052
	BYTE	W12
	BYTE		        Dn2   v060
	BYTE	W12
	BYTE		        Gn2   v056
	BYTE	W12
	BYTE		        Bn2 
	BYTE	W12
	BYTE		N12     An1   v072
	BYTE	W12
	BYTE		        Cn2 
	BYTE	W12
	BYTE		        Fn2   v064
	BYTE	W12
	BYTE		        An2 
	BYTE	W12
	BYTE		        Gs1   v080
	BYTE	W12
	BYTE		        Bn1   v076
	BYTE	W12
	BYTE		        En2 
	BYTE	W12
	BYTE		        Gs2 
	BYTE	W12
	BYTE	PEND
	BYTE		N12     Fn1   v072
	BYTE	W12
	BYTE		        Cn2 
	BYTE	W12
	BYTE		        Fn2   v064
	BYTE	W12
	BYTE		        An2   v060
	BYTE	W12
	BYTE		        Fs1   v080
	BYTE	W12
	BYTE		        Dn2   v068
	BYTE	W12
	BYTE		        Fs2   v060
	BYTE	W12
	BYTE		        An2 
	BYTE	W12
	BYTE	PEND
	BYTE		        Gn1   v072
	BYTE	W12
	BYTE		        Dn2   v060
	BYTE	W12
	BYTE		        Gn2   v052
	BYTE	W12
	BYTE		        Bn2   v044
	BYTE	W12
	BYTE		VOL     62*seq_067_mvl/mxv
	BYTE		N48     Dn3   v036
	BYTE	W15
	BYTE		VOL     62*seq_067_mvl/mxv
	BYTE	W03
	BYTE		        61*seq_067_mvl/mxv
	BYTE	W01
	BYTE		        61*seq_067_mvl/mxv
	BYTE	W02
	BYTE		        60*seq_067_mvl/mxv
	BYTE	W01
	BYTE		        59*seq_067_mvl/mxv
	BYTE	W02
	BYTE	TEMPO   102/2
	BYTE		        57*seq_067_mvl/mxv
	BYTE	W01
	BYTE		        56*seq_067_mvl/mxv
	BYTE	W02
	BYTE		        54*seq_067_mvl/mxv
	BYTE	W01
	BYTE		        51*seq_067_mvl/mxv
	BYTE	W02
	BYTE		        49*seq_067_mvl/mxv
	BYTE	W01
	BYTE		        46*seq_067_mvl/mxv
	BYTE	W02
	BYTE		        43*seq_067_mvl/mxv
	BYTE	W01
	BYTE		        40*seq_067_mvl/mxv
	BYTE	W02
	BYTE		        36*seq_067_mvl/mxv
	BYTE	W01
	BYTE		        32*seq_067_mvl/mxv
	BYTE	W02
	BYTE		        28*seq_067_mvl/mxv
	BYTE	W01
	BYTE		        24*seq_067_mvl/mxv
	BYTE	W02
	BYTE		        19*seq_067_mvl/mxv
	BYTE	W01
	BYTE		        15*seq_067_mvl/mxv
	BYTE	W02
	BYTE		        10*seq_067_mvl/mxv
	BYTE	W01
	BYTE		        5*seq_067_mvl/mxv
	BYTE	W02
	BYTE	TEMPO   104/2
	BYTE		        62*seq_067_mvl/mxv
	BYTE		N12     Dn2   v052
	BYTE	W12
	BYTE		        Fn2   v048
	BYTE	W12
	BYTE		        An2   v044
	BYTE	W12
	BYTE		        Dn3 
	BYTE	W12
	BYTE		        Cs2   v060
	BYTE	W12
	BYTE		        En2   v056
	BYTE	W12
	BYTE		        An2   v052
	BYTE	W12
	BYTE		        Cs3   v048
	BYTE	W12
	BYTE		        Dn2   v068
	BYTE	W12
	BYTE		        Fn2   v064
	BYTE	W12
	BYTE		        An2 
	BYTE	W12
	BYTE		        Dn3   v060
	BYTE	W12
	BYTE		        Cs2   v076
	BYTE	W12
	BYTE		        Gn2   v064
	BYTE	W12
	BYTE		        An2 
	BYTE	W12
	BYTE		N11     Cs3   v060
	BYTE	W12
	BYTE		N12     Dn2   v076
	BYTE	W12
	BYTE		        Fn2   v064
	BYTE	W12
	BYTE		        An2 
	BYTE	W12
	BYTE		        Dn3   v060
	BYTE	W12
	BYTE		        Cn2   v072
	BYTE	W12
	BYTE		        Fs2   v064
	BYTE	W12
	BYTE		        An2 
	BYTE	W12
	BYTE		        Cn3   v060
	BYTE	W12
	BYTE	PEND
	BYTE		N12     Gn1   v064
	BYTE	W12
	BYTE		        Bn1   v060
	BYTE	W12
	BYTE		        Dn2   v052
	BYTE	W12
	BYTE		        Gn2 
	BYTE	W12
	BYTE	TEMPO   102/2
	BYTE		        Bn2   v056
	BYTE	W12
	BYTE		        Gn2   v052
	BYTE	W12
	BYTE		        Dn2   v044
	BYTE	W12
	BYTE		        Bn1   v040
	BYTE	W12
	BYTE	PEND
	BYTE	TEMPO   104/2
	BYTE		        Fn1   v072
	BYTE	W12
	BYTE		        Cn2   v064
	BYTE	W12
	BYTE		        Fn2   v060
	BYTE	W12
	BYTE		        An2   v052
	BYTE	W12
	BYTE		N48     Cn3   v056
	BYTE	W15
	BYTE		VOL     62*seq_067_mvl/mxv
	BYTE	W03
	BYTE		        61*seq_067_mvl/mxv
	BYTE	W01
	BYTE		        61*seq_067_mvl/mxv
	BYTE	W02
	BYTE		        60*seq_067_mvl/mxv
	BYTE	W01
	BYTE		        59*seq_067_mvl/mxv
	BYTE	W02
	BYTE		        57*seq_067_mvl/mxv
	BYTE	W01
	BYTE		        56*seq_067_mvl/mxv
	BYTE	W02
	BYTE		        54*seq_067_mvl/mxv
	BYTE	W01
	BYTE		        51*seq_067_mvl/mxv
	BYTE	W02
	BYTE		        49*seq_067_mvl/mxv
	BYTE	W01
	BYTE		        46*seq_067_mvl/mxv
	BYTE	W02
	BYTE		        43*seq_067_mvl/mxv
	BYTE	W01
	BYTE		        40*seq_067_mvl/mxv
	BYTE	W02
	BYTE		        36*seq_067_mvl/mxv
	BYTE	W01
	BYTE		        32*seq_067_mvl/mxv
	BYTE	W02
	BYTE		        28*seq_067_mvl/mxv
	BYTE	W01
	BYTE		        24*seq_067_mvl/mxv
	BYTE	W02
	BYTE		        19*seq_067_mvl/mxv
	BYTE	W01
	BYTE		        15*seq_067_mvl/mxv
	BYTE	W02
	BYTE		        10*seq_067_mvl/mxv
	BYTE	W01
	BYTE		        5*seq_067_mvl/mxv
	BYTE	W02
	BYTE	W06
	BYTE		        62*seq_067_mvl/mxv
	BYTE	W06
	BYTE		N12     Cn2   v072
	BYTE	W12
	BYTE		        En2   v056
	BYTE	W12
	BYTE		        Gn2 
	BYTE	W12
	BYTE		N48     Cn3   v052
	BYTE	W15
	BYTE		VOL     62*seq_067_mvl/mxv
	BYTE	W03
	BYTE		        61*seq_067_mvl/mxv
	BYTE	W01
	BYTE		        61*seq_067_mvl/mxv
	BYTE	W02
	BYTE		        60*seq_067_mvl/mxv
	BYTE	W01
	BYTE		        59*seq_067_mvl/mxv
	BYTE	W02
	BYTE		        57*seq_067_mvl/mxv
	BYTE	W01
	BYTE		        56*seq_067_mvl/mxv
	BYTE	W02
	BYTE		        54*seq_067_mvl/mxv
	BYTE	W01
	BYTE		        51*seq_067_mvl/mxv
	BYTE	W02
	BYTE		        49*seq_067_mvl/mxv
	BYTE	W01
	BYTE		        46*seq_067_mvl/mxv
	BYTE	W02
	BYTE		        43*seq_067_mvl/mxv
	BYTE	W01
	BYTE		        40*seq_067_mvl/mxv
	BYTE	W02
	BYTE		        36*seq_067_mvl/mxv
	BYTE	W01
	BYTE		        32*seq_067_mvl/mxv
	BYTE	W02
	BYTE		        28*seq_067_mvl/mxv
	BYTE	W01
	BYTE		        24*seq_067_mvl/mxv
	BYTE	W02
	BYTE		        19*seq_067_mvl/mxv
	BYTE	W01
	BYTE		        15*seq_067_mvl/mxv
	BYTE	W02
	BYTE		        10*seq_067_mvl/mxv
	BYTE	W01
	BYTE		        5*seq_067_mvl/mxv
	BYTE	W02
	BYTE		VOL     62*seq_067_mvl/mxv
	BYTE		N12     As1   v072
	BYTE	W12
	BYTE		        Dn2   v060
	BYTE	W12
	BYTE		        Fn2   v056
	BYTE	W12
	BYTE		N11     As2   v052
	BYTE	W12
	BYTE		N12     An1   v076
	BYTE	W12
	BYTE		        En2   v068
	BYTE	W12
	BYTE		        Gn2 
	BYTE	W12
	BYTE		N11     An2 
	BYTE	W12
	BYTE	PEND
	BYTE		N12     Dn2   v072
	BYTE	W12
	BYTE		        Fn2   v060
	BYTE	W12
	BYTE		N23     An2   v056
	BYTE	W24
	BYTE		N12     Cn2   v076
	BYTE	W12
	BYTE		        Fn2   v072
	BYTE	W12
	BYTE		        An2   v064
	BYTE	W12
	BYTE		        Cn3   v060
	BYTE	W12
	BYTE	PEND
	BYTE	W12
	BYTE		N12     Ds2   v076
	BYTE	W12
	BYTE		        Gn2   v072
	BYTE	W12
	BYTE		        As2   v068
	BYTE	W12
	BYTE		N48     Ds3   v064
	BYTE	W15
	BYTE		VOL     62*seq_067_mvl/mxv
	BYTE	W03
	BYTE		        61*seq_067_mvl/mxv
	BYTE	W01
	BYTE		        61*seq_067_mvl/mxv
	BYTE	W02
	BYTE		        60*seq_067_mvl/mxv
	BYTE	W01
	BYTE		        59*seq_067_mvl/mxv
	BYTE	W02
	BYTE		        57*seq_067_mvl/mxv
	BYTE	W01
	BYTE		        56*seq_067_mvl/mxv
	BYTE	W02
	BYTE		        54*seq_067_mvl/mxv
	BYTE	W01
	BYTE		        51*seq_067_mvl/mxv
	BYTE	W02
	BYTE		        49*seq_067_mvl/mxv
	BYTE	W01
	BYTE		        46*seq_067_mvl/mxv
	BYTE	W02
	BYTE		        43*seq_067_mvl/mxv
	BYTE	W01
	BYTE		        40*seq_067_mvl/mxv
	BYTE	W02
	BYTE		        36*seq_067_mvl/mxv
	BYTE	W01
	BYTE		        32*seq_067_mvl/mxv
	BYTE	W02
	BYTE		        28*seq_067_mvl/mxv
	BYTE	W01
	BYTE		        24*seq_067_mvl/mxv
	BYTE	W02
	BYTE		        19*seq_067_mvl/mxv
	BYTE	W01
	BYTE		        15*seq_067_mvl/mxv
	BYTE	W02
	BYTE		        10*seq_067_mvl/mxv
	BYTE	W01
	BYTE		        5*seq_067_mvl/mxv
	BYTE	W02
	BYTE	PEND
	BYTE		VOL     62*seq_067_mvl/mxv
	BYTE	W12
	BYTE		N12     Dn2   v064
	BYTE	W12
	BYTE		        Fn2   v060
	BYTE	W12
	BYTE		        An2   v056
	BYTE	W12
	BYTE		N48     Dn3   v052
	BYTE	W15
	BYTE		VOL     62*seq_067_mvl/mxv
	BYTE	W03
	BYTE		        61*seq_067_mvl/mxv
	BYTE	W01
	BYTE		        61*seq_067_mvl/mxv
	BYTE	W02
	BYTE		        60*seq_067_mvl/mxv
	BYTE	W01
	BYTE		        59*seq_067_mvl/mxv
	BYTE	W02
	BYTE		        57*seq_067_mvl/mxv
	BYTE	W01
	BYTE		        56*seq_067_mvl/mxv
	BYTE	W02
	BYTE		        54*seq_067_mvl/mxv
	BYTE	W01
	BYTE		        51*seq_067_mvl/mxv
	BYTE	W02
	BYTE		        49*seq_067_mvl/mxv
	BYTE	W01
	BYTE		        46*seq_067_mvl/mxv
	BYTE	W02
	BYTE		        43*seq_067_mvl/mxv
	BYTE	W01
	BYTE		        40*seq_067_mvl/mxv
	BYTE	W02
	BYTE		        36*seq_067_mvl/mxv
	BYTE	W01
	BYTE		        32*seq_067_mvl/mxv
	BYTE	W02
	BYTE		        28*seq_067_mvl/mxv
	BYTE	W01
	BYTE		        24*seq_067_mvl/mxv
	BYTE	W02
	BYTE		        19*seq_067_mvl/mxv
	BYTE	W01
	BYTE		        15*seq_067_mvl/mxv
	BYTE	W02
	BYTE		        10*seq_067_mvl/mxv
	BYTE	W01
	BYTE		        5*seq_067_mvl/mxv
	BYTE	W02
	BYTE	PEND
	BYTE		VOL     62*seq_067_mvl/mxv
	BYTE		N12     Gs1   v064
	BYTE	W12
	BYTE		        Cn2   v060
	BYTE	W12
	BYTE		        Ds2 
	BYTE	W12
	BYTE		        Gn2   v056
	BYTE	W12
	BYTE		        Gs1 
	BYTE	W12
	BYTE		        Cn2   v052
	BYTE	W12
	BYTE		        Ds2 
	BYTE	W12
	BYTE		N11     Gn2   v044
	BYTE	W12
	BYTE	PEND
	BYTE		N12     Gn1   v052
	BYTE	W12
	BYTE		        Bn1   v048
	BYTE	W12
	BYTE		        Dn2   v044
	BYTE	W12
	BYTE		        Gn2   v040
	BYTE	W12
	BYTE		N48     Bn2   v036
	BYTE	W15
	BYTE		VOL     62*seq_067_mvl/mxv
	BYTE	W03
	BYTE		        61*seq_067_mvl/mxv
	BYTE	W01
	BYTE		        61*seq_067_mvl/mxv
	BYTE	W02
	BYTE		        60*seq_067_mvl/mxv
	BYTE	W01
	BYTE		        59*seq_067_mvl/mxv
	BYTE	W02
	BYTE	TEMPO   100/2
	BYTE		        57*seq_067_mvl/mxv
	BYTE	W01
	BYTE		        56*seq_067_mvl/mxv
	BYTE	W02
	BYTE		        54*seq_067_mvl/mxv
	BYTE	W01
	BYTE		        51*seq_067_mvl/mxv
	BYTE	W02
	BYTE		        49*seq_067_mvl/mxv
	BYTE	W01
	BYTE		        46*seq_067_mvl/mxv
	BYTE	W02
	BYTE		        43*seq_067_mvl/mxv
	BYTE	W01
	BYTE		        40*seq_067_mvl/mxv
	BYTE	W02
	BYTE		        36*seq_067_mvl/mxv
	BYTE	W01
	BYTE		        32*seq_067_mvl/mxv
	BYTE	W02
	BYTE		        28*seq_067_mvl/mxv
	BYTE	W01
	BYTE		        24*seq_067_mvl/mxv
	BYTE	W02
	BYTE		        19*seq_067_mvl/mxv
	BYTE	W01
	BYTE		        15*seq_067_mvl/mxv
	BYTE	W02
	BYTE		        10*seq_067_mvl/mxv
	BYTE	W01
	BYTE		        5*seq_067_mvl/mxv
	BYTE	W02
	BYTE	TEMPO   104/2
	BYTE		VOL     62*seq_067_mvl/mxv
	BYTE		N12     Cn2   v056
	BYTE	W12
	BYTE		        En2   v048
	BYTE	W12
	BYTE		        Gn2   v052
	BYTE	W12
	BYTE		        Cn3   v044
	BYTE	W12
	BYTE		        Bn1   v064
	BYTE	W12
	BYTE		        Dn2   v060
	BYTE	W12
	BYTE		        Gn2   v056
	BYTE	W12
	BYTE		        Bn2 
	BYTE	W12
	BYTE	PEND
	BYTE	PATT
	 POIN2	seq_067_0 + 0x28B
	BYTE	PATT
	 POIN2	seq_067_0 + 0x2A9
	BYTE		N12     Gn1   v072
	BYTE	W12
	BYTE		        Dn2   v060
	BYTE	W12
	BYTE		        Gn2   v056
	BYTE	W12
	BYTE		        Bn2   v044
	BYTE	W12
	BYTE		N48     Dn3   v040
	BYTE	W15
	BYTE		VOL     62*seq_067_mvl/mxv
	BYTE	W03
	BYTE		        61*seq_067_mvl/mxv
	BYTE	W01
	BYTE		        61*seq_067_mvl/mxv
	BYTE	W02
	BYTE		        60*seq_067_mvl/mxv
	BYTE	W01
	BYTE		        59*seq_067_mvl/mxv
	BYTE	W02
	BYTE	TEMPO   102/2
	BYTE		        57*seq_067_mvl/mxv
	BYTE	W01
	BYTE		        56*seq_067_mvl/mxv
	BYTE	W02
	BYTE		        54*seq_067_mvl/mxv
	BYTE	W01
	BYTE		        51*seq_067_mvl/mxv
	BYTE	W02
	BYTE		        49*seq_067_mvl/mxv
	BYTE	W01
	BYTE		        46*seq_067_mvl/mxv
	BYTE	W02
	BYTE		        43*seq_067_mvl/mxv
	BYTE	W01
	BYTE		        40*seq_067_mvl/mxv
	BYTE	W02
	BYTE		        36*seq_067_mvl/mxv
	BYTE	W01
	BYTE		        32*seq_067_mvl/mxv
	BYTE	W02
	BYTE		        28*seq_067_mvl/mxv
	BYTE	W01
	BYTE		        24*seq_067_mvl/mxv
	BYTE	W02
	BYTE		        19*seq_067_mvl/mxv
	BYTE	W01
	BYTE		        15*seq_067_mvl/mxv
	BYTE	W02
	BYTE		        10*seq_067_mvl/mxv
	BYTE	W01
	BYTE		        5*seq_067_mvl/mxv
	BYTE	W02
	BYTE	TEMPO   104/2
	BYTE		        62*seq_067_mvl/mxv
	BYTE		N12     Dn2   v052
	BYTE	W12
	BYTE		        Fn2   v048
	BYTE	W12
	BYTE		        An2   v044
	BYTE	W12
	BYTE		        Dn3 
	BYTE	W12
	BYTE		        Cs2   v060
	BYTE	W12
	BYTE		N11     En2   v056
	BYTE	W12
	BYTE		N12     An2   v052
	BYTE	W12
	BYTE		N11     Cs3   v048
	BYTE	W12
	BYTE	PATT
	 POIN2	seq_067_0 + 0x316
	BYTE	PATT
	 POIN2	seq_067_0 + 0x330
	BYTE		N12     Gn1   v064
	BYTE	W12
	BYTE		        Bn1   v060
	BYTE	W12
	BYTE		        Dn2   v052
	BYTE	W12
	BYTE		        Gn2 
	BYTE	W12
	BYTE		        Bn2   v056
	BYTE	W12
	BYTE		        Gn2   v052
	BYTE	W12
	BYTE	TEMPO   102/2
	BYTE		        Dn2   v044
	BYTE	W12
	BYTE		        Bn1   v040
	BYTE	W12
	BYTE	PEND
	BYTE	TEMPO   104/2
	BYTE		N12     Cn2   v056
	BYTE	W12
	BYTE		N11     En2   v048
	BYTE	W12
	BYTE		N12     Gn2   v052
	BYTE	W12
	BYTE		N11     Cn3   v044
	BYTE	W12
	BYTE		N12     Bn1   v064
	BYTE	W12
	BYTE		        Dn2   v060
	BYTE	W12
	BYTE		        Gn2   v056
	BYTE	W12
	BYTE		        Bn2 
	BYTE	W12
	BYTE	PEND
	BYTE	PATT
	 POIN2	seq_067_0 + 0x380
	BYTE	PATT
	 POIN2	seq_067_0 + 0x396
	BYTE		N12     Gn1   v072
	BYTE	W12
	BYTE		        Dn2   v060
	BYTE	W12
	BYTE		        Gn2   v052
	BYTE	W12
	BYTE		        Bn2   v044
	BYTE	W12
	BYTE		N48     Dn3   v036
	BYTE	W15
	BYTE		VOL     62*seq_067_mvl/mxv
	BYTE	W03
	BYTE		        61*seq_067_mvl/mxv
	BYTE	W01
	BYTE		        61*seq_067_mvl/mxv
	BYTE	W02
	BYTE		        60*seq_067_mvl/mxv
	BYTE	W01
	BYTE		        59*seq_067_mvl/mxv
	BYTE	W02
	BYTE		        57*seq_067_mvl/mxv
	BYTE	W01
	BYTE		        56*seq_067_mvl/mxv
	BYTE	W02
	BYTE		        54*seq_067_mvl/mxv
	BYTE	W01
	BYTE		        51*seq_067_mvl/mxv
	BYTE	W02
	BYTE		        49*seq_067_mvl/mxv
	BYTE	W01
	BYTE		        46*seq_067_mvl/mxv
	BYTE	W02
	BYTE		        43*seq_067_mvl/mxv
	BYTE	W01
	BYTE		        40*seq_067_mvl/mxv
	BYTE	W02
	BYTE		        36*seq_067_mvl/mxv
	BYTE	W01
	BYTE		        32*seq_067_mvl/mxv
	BYTE	W02
	BYTE		        28*seq_067_mvl/mxv
	BYTE	W01
	BYTE		        24*seq_067_mvl/mxv
	BYTE	W02
	BYTE		        19*seq_067_mvl/mxv
	BYTE	W01
	BYTE		        15*seq_067_mvl/mxv
	BYTE	W02
	BYTE		        10*seq_067_mvl/mxv
	BYTE	W01
	BYTE		        5*seq_067_mvl/mxv
	BYTE	W02
	BYTE	PEND
	BYTE		VOL     62*seq_067_mvl/mxv
	BYTE		N12     Dn2   v052
	BYTE	W12
	BYTE		        Fn2   v048
	BYTE	W12
	BYTE		        An2   v044
	BYTE	W12
	BYTE		        Dn3 
	BYTE	W12
	BYTE		        Cs2   v060
	BYTE	W12
	BYTE		        En2   v056
	BYTE	W12
	BYTE		        An2   v052
	BYTE	W12
	BYTE		        Cs3   v048
	BYTE	W12
	BYTE	PEND
	BYTE		N12     Dn2   v068
	BYTE	W12
	BYTE		        Fn2   v064
	BYTE	W12
	BYTE		        An2 
	BYTE	W12
	BYTE		        Dn3   v060
	BYTE	W12
	BYTE		        Cs2   v076
	BYTE	W12
	BYTE		        Gn2   v064
	BYTE	W12
	BYTE		        An2 
	BYTE	W12
	BYTE		        Cs3   v060
	BYTE	W12
	BYTE	PEND
	BYTE	PATT
	 POIN2	seq_067_0 + 0x41F
	BYTE	PATT
	 POIN2	seq_067_0 + 0x437
	BYTE	TEMPO   104/2
	BYTE		N12     Fn1   v072
	BYTE	W12
	BYTE		        Cn2   v064
	BYTE	W12
	BYTE		        Fn2   v060
	BYTE	W12
	BYTE		        An2   v052
	BYTE	W12
	BYTE		N48     Cn3   v048
	BYTE	W15
	BYTE		VOL     62*seq_067_mvl/mxv
	BYTE	W03
	BYTE		        61*seq_067_mvl/mxv
	BYTE	W01
	BYTE		        61*seq_067_mvl/mxv
	BYTE	W02
	BYTE		        60*seq_067_mvl/mxv
	BYTE	W01
	BYTE		        59*seq_067_mvl/mxv
	BYTE	W02
	BYTE		        57*seq_067_mvl/mxv
	BYTE	W01
	BYTE		        56*seq_067_mvl/mxv
	BYTE	W02
	BYTE		        54*seq_067_mvl/mxv
	BYTE	W01
	BYTE		        51*seq_067_mvl/mxv
	BYTE	W02
	BYTE		        49*seq_067_mvl/mxv
	BYTE	W01
	BYTE		        46*seq_067_mvl/mxv
	BYTE	W02
	BYTE		        43*seq_067_mvl/mxv
	BYTE	W01
	BYTE		        40*seq_067_mvl/mxv
	BYTE	W02
	BYTE		        36*seq_067_mvl/mxv
	BYTE	W01
	BYTE		        32*seq_067_mvl/mxv
	BYTE	W02
	BYTE		        28*seq_067_mvl/mxv
	BYTE	W01
	BYTE		        24*seq_067_mvl/mxv
	BYTE	W02
	BYTE		        19*seq_067_mvl/mxv
	BYTE	W01
	BYTE		        15*seq_067_mvl/mxv
	BYTE	W02
	BYTE		        10*seq_067_mvl/mxv
	BYTE	W01
	BYTE		        5*seq_067_mvl/mxv
	BYTE	W02
	BYTE		        62*seq_067_mvl/mxv
	BYTE	W12
	BYTE		N12     Cn2   v072
	BYTE	W12
	BYTE		        En2   v056
	BYTE	W12
	BYTE		        Gn2 
	BYTE	W12
	BYTE		N48     Cn3   v052
	BYTE	W15
	BYTE		VOL     62*seq_067_mvl/mxv
	BYTE	W03
	BYTE		        61*seq_067_mvl/mxv
	BYTE	W01
	BYTE		        61*seq_067_mvl/mxv
	BYTE	W02
	BYTE		        60*seq_067_mvl/mxv
	BYTE	W01
	BYTE		        59*seq_067_mvl/mxv
	BYTE	W02
	BYTE	TEMPO   100/2
	BYTE		        57*seq_067_mvl/mxv
	BYTE	W01
	BYTE		        56*seq_067_mvl/mxv
	BYTE	W02
	BYTE		        54*seq_067_mvl/mxv
	BYTE	W01
	BYTE		        51*seq_067_mvl/mxv
	BYTE	W02
	BYTE		        49*seq_067_mvl/mxv
	BYTE	W01
	BYTE		        46*seq_067_mvl/mxv
	BYTE	W02
	BYTE		        43*seq_067_mvl/mxv
	BYTE	W01
	BYTE		        40*seq_067_mvl/mxv
	BYTE	W02
	BYTE		        36*seq_067_mvl/mxv
	BYTE	W01
	BYTE		        32*seq_067_mvl/mxv
	BYTE	W02
	BYTE		        28*seq_067_mvl/mxv
	BYTE	W01
	BYTE		        24*seq_067_mvl/mxv
	BYTE	W02
	BYTE		        19*seq_067_mvl/mxv
	BYTE	W01
	BYTE		        15*seq_067_mvl/mxv
	BYTE	W02
	BYTE		        10*seq_067_mvl/mxv
	BYTE	W01
	BYTE		        5*seq_067_mvl/mxv
	BYTE	W02
	BYTE	TEMPO   104/2
	BYTE		        62*seq_067_mvl/mxv
	BYTE		N12     As1   v072
	BYTE	W12
	BYTE		        Dn2   v060
	BYTE	W12
	BYTE		        Fn2   v056
	BYTE	W12
	BYTE		N11     As2   v052
	BYTE	W12
	BYTE		N12     An1   v076
	BYTE	W12
	BYTE		        En2   v068
	BYTE	W12
	BYTE		        Gn2 
	BYTE	W12
	BYTE		N11     An2 
	BYTE	W12
	BYTE	PATT
	 POIN2	seq_067_0 + 0x4E7
	BYTE	PATT
	 POIN2	seq_067_0 + 0x500
	BYTE	PATT
	 POIN2	seq_067_0 + 0x53B
	BYTE	PATT
	 POIN2	seq_067_0 + 0x578
	BYTE		N12     Gn1   v052
	BYTE	W12
	BYTE		        Bn1   v048
	BYTE	W12
	BYTE		        Dn2   v044
	BYTE	W12
	BYTE		        Gn2   v040
	BYTE	W12
	BYTE		N48     Bn2   v036
	BYTE	W15
	BYTE		VOL     62*seq_067_mvl/mxv
	BYTE	W03
	BYTE		        61*seq_067_mvl/mxv
	BYTE	W01
	BYTE		        61*seq_067_mvl/mxv
	BYTE	W02
	BYTE		        60*seq_067_mvl/mxv
	BYTE	W01
	BYTE		        59*seq_067_mvl/mxv
	BYTE	W02
	BYTE		        57*seq_067_mvl/mxv
	BYTE	W01
	BYTE		        56*seq_067_mvl/mxv
	BYTE	W02
	BYTE		        54*seq_067_mvl/mxv
	BYTE	W01
	BYTE		        51*seq_067_mvl/mxv
	BYTE	W02
	BYTE		        49*seq_067_mvl/mxv
	BYTE	W01
	BYTE		        46*seq_067_mvl/mxv
	BYTE	W02
	BYTE		        43*seq_067_mvl/mxv
	BYTE	W01
	BYTE		        40*seq_067_mvl/mxv
	BYTE	W02
	BYTE		        36*seq_067_mvl/mxv
	BYTE	W01
	BYTE		        32*seq_067_mvl/mxv
	BYTE	W02
	BYTE		        28*seq_067_mvl/mxv
	BYTE	W01
	BYTE		        24*seq_067_mvl/mxv
	BYTE	W02
	BYTE		        19*seq_067_mvl/mxv
	BYTE	W01
	BYTE		        15*seq_067_mvl/mxv
	BYTE	W02
	BYTE		        10*seq_067_mvl/mxv
	BYTE	W01
	BYTE		        5*seq_067_mvl/mxv
	BYTE	W02
	BYTE	PATT
	 POIN2	seq_067_0 + 0x5D0
	BYTE	PATT
	 POIN2	seq_067_0 + 0x28B
	BYTE	PATT
	 POIN2	seq_067_0 + 0x2A9
	BYTE		N12     Gn1   v072
	BYTE	W12
	BYTE		        Dn2   v060
	BYTE	W12
	BYTE		        Gn2   v056
	BYTE	W12
	BYTE		        Bn2   v044
	BYTE	W12
	BYTE	TEMPO   102/2
	BYTE		N48     Dn3   v040
	BYTE	W15
	BYTE		VOL     62*seq_067_mvl/mxv
	BYTE	W03
	BYTE		        61*seq_067_mvl/mxv
	BYTE	W01
	BYTE		        61*seq_067_mvl/mxv
	BYTE	W02
	BYTE		        60*seq_067_mvl/mxv
	BYTE	W01
	BYTE		        59*seq_067_mvl/mxv
	BYTE	W02
	BYTE		        57*seq_067_mvl/mxv
	BYTE	W01
	BYTE		        56*seq_067_mvl/mxv
	BYTE	W02
	BYTE		        54*seq_067_mvl/mxv
	BYTE	W01
	BYTE		        51*seq_067_mvl/mxv
	BYTE	W02
	BYTE		        49*seq_067_mvl/mxv
	BYTE	W01
	BYTE		        46*seq_067_mvl/mxv
	BYTE	W02
	BYTE		        43*seq_067_mvl/mxv
	BYTE	W01
	BYTE		        40*seq_067_mvl/mxv
	BYTE	W02
	BYTE		        36*seq_067_mvl/mxv
	BYTE	W01
	BYTE		        32*seq_067_mvl/mxv
	BYTE	W02
	BYTE		        28*seq_067_mvl/mxv
	BYTE	W01
	BYTE		        24*seq_067_mvl/mxv
	BYTE	W02
	BYTE		        19*seq_067_mvl/mxv
	BYTE	W01
	BYTE		        15*seq_067_mvl/mxv
	BYTE	W02
	BYTE		        10*seq_067_mvl/mxv
	BYTE	W01
	BYTE		        5*seq_067_mvl/mxv
	BYTE	W02
	BYTE	TEMPO   104/2
	BYTE		        62*seq_067_mvl/mxv
	BYTE		N12     Dn2   v052
	BYTE	W12
	BYTE		        Fn2   v048
	BYTE	W12
	BYTE		        An2   v044
	BYTE	W12
	BYTE		        Dn3 
	BYTE	W12
	BYTE		        Cs2   v060
	BYTE	W12
	BYTE		N11     En2   v056
	BYTE	W12
	BYTE		N12     An2   v052
	BYTE	W12
	BYTE		N11     Cs3   v048
	BYTE	W12
	BYTE	PATT
	 POIN2	seq_067_0 + 0x316
	BYTE	PATT
	 POIN2	seq_067_0 + 0x330
	BYTE	PATT
	 POIN2	seq_067_0 + 0x65D
	BYTE	PATT
	 POIN2	seq_067_0 + 0x678
	BYTE	PATT
	 POIN2	seq_067_0 + 0x380
	BYTE	PATT
	 POIN2	seq_067_0 + 0x396
	BYTE	PATT
	 POIN2	seq_067_0 + 0x6A1
	BYTE	PATT
	 POIN2	seq_067_0 + 0x6DE
	BYTE	PATT
	 POIN2	seq_067_0 + 0x6F9
	BYTE	PATT
	 POIN2	seq_067_0 + 0x41F
	BYTE	PATT
	 POIN2	seq_067_0 + 0x437
	BYTE	TEMPO   104/2
	BYTE		N12     Fn1   v072
	BYTE	W12
	BYTE		        Cn2   v064
	BYTE	W12
	BYTE		        Fn2   v060
	BYTE	W12
	BYTE		        An2   v052
	BYTE	W12
	BYTE		N48     Cn3   v056
	BYTE	W15
	BYTE		VOL     62*seq_067_mvl/mxv
	BYTE	W03
	BYTE		        61*seq_067_mvl/mxv
	BYTE	W01
	BYTE		        61*seq_067_mvl/mxv
	BYTE	W02
	BYTE		        60*seq_067_mvl/mxv
	BYTE	W01
	BYTE		        59*seq_067_mvl/mxv
	BYTE	W02
	BYTE		        57*seq_067_mvl/mxv
	BYTE	W01
	BYTE		        56*seq_067_mvl/mxv
	BYTE	W02
	BYTE		        54*seq_067_mvl/mxv
	BYTE	W01
	BYTE		        51*seq_067_mvl/mxv
	BYTE	W02
	BYTE		        49*seq_067_mvl/mxv
	BYTE	W01
	BYTE		        46*seq_067_mvl/mxv
	BYTE	W02
	BYTE		        43*seq_067_mvl/mxv
	BYTE	W01
	BYTE		        40*seq_067_mvl/mxv
	BYTE	W02
	BYTE		        36*seq_067_mvl/mxv
	BYTE	W01
	BYTE		        32*seq_067_mvl/mxv
	BYTE	W02
	BYTE		        28*seq_067_mvl/mxv
	BYTE	W01
	BYTE		        24*seq_067_mvl/mxv
	BYTE	W02
	BYTE		        19*seq_067_mvl/mxv
	BYTE	W01
	BYTE		        15*seq_067_mvl/mxv
	BYTE	W02
	BYTE		        10*seq_067_mvl/mxv
	BYTE	W01
	BYTE		        5*seq_067_mvl/mxv
	BYTE	W02
	BYTE		        62*seq_067_mvl/mxv
	BYTE	W12
	BYTE		N12     Cn2   v072
	BYTE	W12
	BYTE		        En2   v056
	BYTE	W12
	BYTE		        Gn2 
	BYTE	W12
	BYTE		N48     Cn3   v052
	BYTE	W15
	BYTE		VOL     62*seq_067_mvl/mxv
	BYTE	W03
	BYTE		        61*seq_067_mvl/mxv
	BYTE	W01
	BYTE		        61*seq_067_mvl/mxv
	BYTE	W02
	BYTE		        60*seq_067_mvl/mxv
	BYTE	W01
	BYTE		        59*seq_067_mvl/mxv
	BYTE	W02
	BYTE		        57*seq_067_mvl/mxv
	BYTE	W01
	BYTE		        56*seq_067_mvl/mxv
	BYTE	W02
	BYTE		        54*seq_067_mvl/mxv
	BYTE	W01
	BYTE		        51*seq_067_mvl/mxv
	BYTE	W02
	BYTE		        49*seq_067_mvl/mxv
	BYTE	W01
	BYTE		        46*seq_067_mvl/mxv
	BYTE	W02
	BYTE		        43*seq_067_mvl/mxv
	BYTE	W01
	BYTE		        40*seq_067_mvl/mxv
	BYTE	W02
	BYTE		        36*seq_067_mvl/mxv
	BYTE	W01
	BYTE		        32*seq_067_mvl/mxv
	BYTE	W02
	BYTE		        28*seq_067_mvl/mxv
	BYTE	W01
	BYTE		        24*seq_067_mvl/mxv
	BYTE	W02
	BYTE		        19*seq_067_mvl/mxv
	BYTE	W01
	BYTE		        15*seq_067_mvl/mxv
	BYTE	W02
	BYTE		        10*seq_067_mvl/mxv
	BYTE	W01
	BYTE		        5*seq_067_mvl/mxv
	BYTE	W02
	BYTE	PATT
	 POIN2	seq_067_0 + 0x4CA
	BYTE		N12     Dn2   v072
	BYTE	W12
	BYTE		        Fn2   v060
	BYTE	W12
	BYTE		N23     An2   v056
	BYTE	W24
	BYTE		N12     Cn2   v076
	BYTE	W12
	BYTE		        Fn2   v072
	BYTE	W12
	BYTE	TEMPO   102/2
	BYTE		        An2   v064
	BYTE	W12
	BYTE		        Cn3   v060
	BYTE	W12
	BYTE	TEMPO   104/2
	BYTE	W12
	BYTE		        Ds2   v076
	BYTE	W12
	BYTE		        Gn2   v072
	BYTE	W12
	BYTE		        As2   v068
	BYTE	W12
	BYTE		N48     Ds3   v064
	BYTE	W15
	BYTE		VOL     62*seq_067_mvl/mxv
	BYTE	W03
	BYTE		        61*seq_067_mvl/mxv
	BYTE	W01
	BYTE		        61*seq_067_mvl/mxv
	BYTE	W02
	BYTE		        60*seq_067_mvl/mxv
	BYTE	W01
	BYTE		        59*seq_067_mvl/mxv
	BYTE	W02
	BYTE		        57*seq_067_mvl/mxv
	BYTE	W01
	BYTE		        56*seq_067_mvl/mxv
	BYTE	W02
	BYTE		        54*seq_067_mvl/mxv
	BYTE	W01
	BYTE		        51*seq_067_mvl/mxv
	BYTE	W02
	BYTE		        49*seq_067_mvl/mxv
	BYTE	W01
	BYTE		        46*seq_067_mvl/mxv
	BYTE	W02
	BYTE		        43*seq_067_mvl/mxv
	BYTE	W01
	BYTE		        40*seq_067_mvl/mxv
	BYTE	W02
	BYTE		        36*seq_067_mvl/mxv
	BYTE	W01
	BYTE		        32*seq_067_mvl/mxv
	BYTE	W02
	BYTE		        28*seq_067_mvl/mxv
	BYTE	W01
	BYTE		        24*seq_067_mvl/mxv
	BYTE	W02
	BYTE		        19*seq_067_mvl/mxv
	BYTE	W01
	BYTE		        15*seq_067_mvl/mxv
	BYTE	W02
	BYTE		        10*seq_067_mvl/mxv
	BYTE	W01
	BYTE		        5*seq_067_mvl/mxv
	BYTE	W02
	BYTE		        62*seq_067_mvl/mxv
	BYTE	W12
	BYTE		N12     Dn2 
	BYTE	W12
	BYTE		        Fn2   v060
	BYTE	W12
	BYTE		        An2   v056
	BYTE	W12
	BYTE		N48     Dn3   v052
	BYTE	W15
	BYTE		VOL     62*seq_067_mvl/mxv
	BYTE	W03
	BYTE		        61*seq_067_mvl/mxv
	BYTE	W01
	BYTE		        61*seq_067_mvl/mxv
	BYTE	W02
	BYTE		        60*seq_067_mvl/mxv
	BYTE	W01
	BYTE		        59*seq_067_mvl/mxv
	BYTE	W02
	BYTE		        57*seq_067_mvl/mxv
	BYTE	W01
	BYTE		        56*seq_067_mvl/mxv
	BYTE	W02
	BYTE		        54*seq_067_mvl/mxv
	BYTE	W01
	BYTE	TEMPO   100/2
	BYTE		        51*seq_067_mvl/mxv
	BYTE	W02
	BYTE		        49*seq_067_mvl/mxv
	BYTE	W01
	BYTE		        46*seq_067_mvl/mxv
	BYTE	W02
	BYTE		        43*seq_067_mvl/mxv
	BYTE	W01
	BYTE		        40*seq_067_mvl/mxv
	BYTE	W02
	BYTE		        36*seq_067_mvl/mxv
	BYTE	W01
	BYTE		        32*seq_067_mvl/mxv
	BYTE	W02
	BYTE		        28*seq_067_mvl/mxv
	BYTE	W01
	BYTE		        24*seq_067_mvl/mxv
	BYTE	W02
	BYTE		        19*seq_067_mvl/mxv
	BYTE	W01
	BYTE		        15*seq_067_mvl/mxv
	BYTE	W02
	BYTE		        10*seq_067_mvl/mxv
	BYTE	W01
	BYTE		        5*seq_067_mvl/mxv
	BYTE	W02
	BYTE	TEMPO   104/2
	BYTE		        62*seq_067_mvl/mxv
	BYTE		N12     Gs1   v068
	BYTE	W12
	BYTE		        Cn2   v060
	BYTE	W12
	BYTE		        Ds2   v056
	BYTE	W12
	BYTE		        Gn2   v052
	BYTE	W12
	BYTE		        Gs1   v064
	BYTE	W12
	BYTE		        As1   v060
	BYTE	W12
	BYTE	TEMPO   102/2
	BYTE		        Dn2   v052
	BYTE	W12
	BYTE		        Gn2   v044
	BYTE	W12
	BYTE	TEMPO   104/2
	BYTE		        Gs1   v060
	BYTE	W12
	BYTE		        Cn2   v056
	BYTE	W12
	BYTE		        Ds2   v052
	BYTE	W12
	BYTE		        Gn2   v044
	BYTE	W12
	BYTE		        Gs1   v052
	BYTE	W12
	BYTE		        Cn2   v048
	BYTE	W12
	BYTE	TEMPO   102/2
	BYTE		        Ds2   v044
	BYTE	W12
	BYTE		        Gn2   v040
	BYTE	W12
	BYTE	TEMPO   104/2
	BYTE		        Gn1   v060
	BYTE	W12
	BYTE		        Bn1   v052
	BYTE	W12
	BYTE	TEMPO   102/2
	BYTE		        Dn2   v048
	BYTE	W12
	BYTE		        Gn2   v044
	BYTE	W12
	BYTE	TEMPO   100/2
	BYTE		        Gn1   v064
	BYTE	W12
	BYTE		        Bn1   v056
	BYTE	W12
	BYTE	TEMPO   96/2
	BYTE		        Dn2   v052
	BYTE	W12
	BYTE		        Gn2   v044
	BYTE	W12
	BYTE	TEMPO   104/2
	BYTE		        Gn1   v068
	BYTE	W12
	BYTE		        Bn1   v064
	BYTE	W12
	BYTE		        Dn2   v060
	BYTE	W12
	BYTE		        Gn2   v056
	BYTE	W12
	BYTE		        Gn1   v072
	BYTE	W12
	BYTE		        Bn1   v064
	BYTE	W12
	BYTE		        Dn2 
	BYTE	W12
	BYTE		        Gn2   v056
	BYTE	W12
	BYTE		        Cn2   v072
	BYTE	W12
	BYTE		        Dn2   v060
	BYTE	W12
	BYTE		        En2 
	BYTE	W12
	BYTE		        Gn2   v056
	BYTE	W12
	BYTE		        Cn3   v060
	BYTE	W12
	BYTE		        Dn3 
	BYTE	W12
	BYTE		        En3   v056
	BYTE	W12
	BYTE		        Gn3   v052
	BYTE	W12
	BYTE		        Cn4   v044
	BYTE	W12
	BYTE		        Gn3 
	BYTE	W12
	BYTE		        En3   v052
	BYTE	W12
	BYTE		        Dn3   v044
	BYTE	W12
	BYTE		        Cn3   v048
	BYTE	W12
	BYTE		        Gn2 
	BYTE	W12
	BYTE		        En2 
	BYTE	W12
	BYTE		        Dn2   v044
	BYTE	W12
	BYTE		        Cn2   v060
	BYTE	W12
	BYTE		        Dn2   v056
	BYTE	W12
	BYTE		        En2   v064
	BYTE	W12
	BYTE		        Gn2   v060
	BYTE	W12
	BYTE		        Cn3   v064
	BYTE	W12
	BYTE		        Dn3   v056
	BYTE	W12
	BYTE		        En3   v048
	BYTE	W12
	BYTE		        Gn3   v044
	BYTE	W12
	BYTE	TEMPO   100/2
	BYTE		        Cn4 
	BYTE	W12
	BYTE		        Gn3   v040
	BYTE	W12
	BYTE	TEMPO   98/2
	BYTE		        En3   v044
	BYTE	W12
	BYTE		        Dn3   v040
	BYTE	W12
	BYTE	TEMPO   92/2
	BYTE		        Cn3 
	BYTE	W12
	BYTE		        Gn2   v032
	BYTE	W12
	BYTE	TEMPO   86/2
	BYTE		        En2   v036
	BYTE	W12
	BYTE		        Dn2   v032
	BYTE	W12
	BYTE		N48     Cn2 
	BYTE	W15
	BYTE		VOL     62*seq_067_mvl/mxv
	BYTE	W03
	BYTE		        61*seq_067_mvl/mxv
	BYTE	W01
	BYTE		        61*seq_067_mvl/mxv
	BYTE	W02
	BYTE		        60*seq_067_mvl/mxv
	BYTE	W01
	BYTE		        59*seq_067_mvl/mxv
	BYTE	W02
	BYTE		        57*seq_067_mvl/mxv
	BYTE	W01
	BYTE		        56*seq_067_mvl/mxv
	BYTE	W02
	BYTE		        54*seq_067_mvl/mxv
	BYTE	W01
	BYTE		        51*seq_067_mvl/mxv
	BYTE	W02
	BYTE		        49*seq_067_mvl/mxv
	BYTE	W01
	BYTE		        46*seq_067_mvl/mxv
	BYTE	W02
	BYTE		        43*seq_067_mvl/mxv
	BYTE	W01
	BYTE		        40*seq_067_mvl/mxv
	BYTE	W02
	BYTE		        36*seq_067_mvl/mxv
	BYTE	W01
	BYTE		        32*seq_067_mvl/mxv
	BYTE	W02
	BYTE		        28*seq_067_mvl/mxv
	BYTE	W01
	BYTE		        24*seq_067_mvl/mxv
	BYTE	W02
	BYTE		        19*seq_067_mvl/mxv
	BYTE	W01
	BYTE		        15*seq_067_mvl/mxv
	BYTE	W02
	BYTE		        10*seq_067_mvl/mxv
	BYTE	W01
	BYTE		        5*seq_067_mvl/mxv
	BYTE	W08
	BYTE	FINE

//*********************** Track 02 ***********************//

seq_067_1:
	BYTE	KEYSH   seq_067_key+0
	BYTE		VOICE   70
	BYTE	W01
	BYTE		VOL     62*seq_067_mvl/mxv
	BYTE	W01
	BYTE		PAN     c_v+0
	BYTE	W01
	BYTE	W96
	BYTE	W96
	BYTE	W96
	BYTE	W96
	BYTE		N24     Gn3   v052
	BYTE	W12
	BYTE		VOL     60*seq_067_mvl/mxv
	BYTE	W03
	BYTE		        52*seq_067_mvl/mxv
	BYTE	W03
	BYTE		        45*seq_067_mvl/mxv
	BYTE	W03
	BYTE		        37*seq_067_mvl/mxv
	BYTE	W03
	BYTE		        62*seq_067_mvl/mxv
	BYTE		N24     Cn4   v048
	BYTE	W12
	BYTE		VOL     60*seq_067_mvl/mxv
	BYTE	W03
	BYTE		        52*seq_067_mvl/mxv
	BYTE	W03
	BYTE		        45*seq_067_mvl/mxv
	BYTE	W03
	BYTE		        37*seq_067_mvl/mxv
	BYTE	W03
	BYTE		        62*seq_067_mvl/mxv
	BYTE		N24     Dn4   v056
	BYTE	W12
	BYTE		VOL     60*seq_067_mvl/mxv
	BYTE	W03
	BYTE		        52*seq_067_mvl/mxv
	BYTE	W03
	BYTE		        45*seq_067_mvl/mxv
	BYTE	W03
	BYTE		        37*seq_067_mvl/mxv
	BYTE	W03
	BYTE		        62*seq_067_mvl/mxv
	BYTE		N24     Gn3   v052
	BYTE	W12
	BYTE		VOL     60*seq_067_mvl/mxv
	BYTE	W03
	BYTE		        52*seq_067_mvl/mxv
	BYTE	W03
	BYTE		        45*seq_067_mvl/mxv
	BYTE	W03
	BYTE		        37*seq_067_mvl/mxv
	BYTE	W03
	BYTE		        62*seq_067_mvl/mxv
	BYTE		N48     Fn4   v060
	BYTE	W06
	BYTE		VOL     61*seq_067_mvl/mxv
	BYTE	W03
	BYTE		        57*seq_067_mvl/mxv
	BYTE	W03
	BYTE		        54*seq_067_mvl/mxv
	BYTE	W03
	BYTE		        49*seq_067_mvl/mxv
	BYTE	W03
	BYTE		        45*seq_067_mvl/mxv
	BYTE	W03
	BYTE		        42*seq_067_mvl/mxv
	BYTE	W03
	BYTE		        37*seq_067_mvl/mxv
	BYTE	W03
	BYTE		        34*seq_067_mvl/mxv
	BYTE	W03
	BYTE		        30*seq_067_mvl/mxv
	BYTE	W03
	BYTE		        25*seq_067_mvl/mxv
	BYTE	W03
	BYTE		        22*seq_067_mvl/mxv
	BYTE	W03
	BYTE		        18*seq_067_mvl/mxv
	BYTE	W03
	BYTE		        13*seq_067_mvl/mxv
	BYTE	W03
	BYTE		        10*seq_067_mvl/mxv
	BYTE	W03
	BYTE		        62*seq_067_mvl/mxv
	BYTE		N24     En4   v052
	BYTE	W12
	BYTE		VOL     60*seq_067_mvl/mxv
	BYTE	W03
	BYTE		        52*seq_067_mvl/mxv
	BYTE	W03
	BYTE		        45*seq_067_mvl/mxv
	BYTE	W03
	BYTE		        37*seq_067_mvl/mxv
	BYTE	W03
	BYTE		        62*seq_067_mvl/mxv
	BYTE		N24     Dn4 
	BYTE	W12
	BYTE		VOL     60*seq_067_mvl/mxv
	BYTE	W03
	BYTE		        52*seq_067_mvl/mxv
	BYTE	W03
	BYTE		        45*seq_067_mvl/mxv
	BYTE	W03
	BYTE		        37*seq_067_mvl/mxv
	BYTE	W03
	BYTE		        62*seq_067_mvl/mxv
	BYTE		N24     Cn4   v056
	BYTE	W12
	BYTE		VOL     60*seq_067_mvl/mxv
	BYTE	W03
	BYTE		        52*seq_067_mvl/mxv
	BYTE	W03
	BYTE		        45*seq_067_mvl/mxv
	BYTE	W03
	BYTE		        37*seq_067_mvl/mxv
	BYTE	W03
	BYTE		        62*seq_067_mvl/mxv
	BYTE		N12     Bn3   v052
	BYTE	W12
	BYTE		        Cn4   v044
	BYTE	W12
	BYTE		N24     Dn4   v052
	BYTE	W12
	BYTE		VOL     60*seq_067_mvl/mxv
	BYTE	W03
	BYTE		        52*seq_067_mvl/mxv
	BYTE	W03
	BYTE		        45*seq_067_mvl/mxv
	BYTE	W03
	BYTE		        37*seq_067_mvl/mxv
	BYTE	W03
	BYTE		        62*seq_067_mvl/mxv
	BYTE		N23     Cn4   v048
	BYTE	W12
	BYTE		VOL     60*seq_067_mvl/mxv
	BYTE	W03
	BYTE		        52*seq_067_mvl/mxv
	BYTE	W03
	BYTE		        45*seq_067_mvl/mxv
	BYTE	W03
	BYTE		        37*seq_067_mvl/mxv
	BYTE	W03
	BYTE		        62*seq_067_mvl/mxv
	BYTE		N48     Cn4   v044
	BYTE	W06
	BYTE		VOL     61*seq_067_mvl/mxv
	BYTE	W03
	BYTE		        57*seq_067_mvl/mxv
	BYTE	W03
	BYTE		        54*seq_067_mvl/mxv
	BYTE	W03
	BYTE		        49*seq_067_mvl/mxv
	BYTE	W03
	BYTE		        45*seq_067_mvl/mxv
	BYTE	W03
	BYTE		        42*seq_067_mvl/mxv
	BYTE	W03
	BYTE		        37*seq_067_mvl/mxv
	BYTE	W03
	BYTE		        34*seq_067_mvl/mxv
	BYTE	W03
	BYTE		        29*seq_067_mvl/mxv
	BYTE	W03
	BYTE		        25*seq_067_mvl/mxv
	BYTE	W03
	BYTE		        22*seq_067_mvl/mxv
	BYTE	W03
	BYTE		        17*seq_067_mvl/mxv
	BYTE	W03
	BYTE		        13*seq_067_mvl/mxv
	BYTE	W03
	BYTE		        9*seq_067_mvl/mxv
	BYTE	W03
	BYTE		        62*seq_067_mvl/mxv
	BYTE		N48     Bn3   v036
	BYTE	W06
	BYTE		VOL     61*seq_067_mvl/mxv
	BYTE	W03
	BYTE		        57*seq_067_mvl/mxv
	BYTE	W03
	BYTE		        54*seq_067_mvl/mxv
	BYTE	W03
	BYTE		        50*seq_067_mvl/mxv
	BYTE	W03
	BYTE		        45*seq_067_mvl/mxv
	BYTE	W03
	BYTE		        42*seq_067_mvl/mxv
	BYTE	W03
	BYTE		        38*seq_067_mvl/mxv
	BYTE	W03
	BYTE		        34*seq_067_mvl/mxv
	BYTE	W03
	BYTE		        30*seq_067_mvl/mxv
	BYTE	W03
	BYTE		        26*seq_067_mvl/mxv
	BYTE	W03
	BYTE		        22*seq_067_mvl/mxv
	BYTE	W03
	BYTE		        18*seq_067_mvl/mxv
	BYTE	W03
	BYTE		        14*seq_067_mvl/mxv
	BYTE	W03
	BYTE		        10*seq_067_mvl/mxv
	BYTE	W03
	BYTE		        62*seq_067_mvl/mxv
	BYTE		N24     An3   v052
	BYTE	W12
	BYTE		VOL     60*seq_067_mvl/mxv
	BYTE	W03
	BYTE		        52*seq_067_mvl/mxv
	BYTE	W03
	BYTE		        45*seq_067_mvl/mxv
	BYTE	W03
	BYTE		        37*seq_067_mvl/mxv
	BYTE	W03
	BYTE		        62*seq_067_mvl/mxv
	BYTE		N24     Dn4 
	BYTE	W12
	BYTE		VOL     60*seq_067_mvl/mxv
	BYTE	W03
	BYTE		        52*seq_067_mvl/mxv
	BYTE	W03
	BYTE		        45*seq_067_mvl/mxv
	BYTE	W03
	BYTE		        37*seq_067_mvl/mxv
	BYTE	W03
	BYTE		        62*seq_067_mvl/mxv
	BYTE		N24     En4 
	BYTE	W12
	BYTE		VOL     60*seq_067_mvl/mxv
	BYTE	W03
	BYTE		        52*seq_067_mvl/mxv
	BYTE	W03
	BYTE		        45*seq_067_mvl/mxv
	BYTE	W03
	BYTE		        37*seq_067_mvl/mxv
	BYTE	W03
	BYTE		        62*seq_067_mvl/mxv
	BYTE		N24     An3 
	BYTE	W12
	BYTE		VOL     60*seq_067_mvl/mxv
	BYTE	W03
	BYTE		        52*seq_067_mvl/mxv
	BYTE	W03
	BYTE		        45*seq_067_mvl/mxv
	BYTE	W03
	BYTE		        37*seq_067_mvl/mxv
	BYTE	W03
	BYTE		        62*seq_067_mvl/mxv
	BYTE		N48     Gn4 
	BYTE	W06
	BYTE		VOL     61*seq_067_mvl/mxv
	BYTE	W03
	BYTE		        57*seq_067_mvl/mxv
	BYTE	W03
	BYTE		        54*seq_067_mvl/mxv
	BYTE	W03
	BYTE		        50*seq_067_mvl/mxv
	BYTE	W03
	BYTE		        46*seq_067_mvl/mxv
	BYTE	W03
	BYTE		        42*seq_067_mvl/mxv
	BYTE	W03
	BYTE		        39*seq_067_mvl/mxv
	BYTE	W03
	BYTE		        35*seq_067_mvl/mxv
	BYTE	W03
	BYTE		        32*seq_067_mvl/mxv
	BYTE	W03
	BYTE		        28*seq_067_mvl/mxv
	BYTE	W03
	BYTE		        24*seq_067_mvl/mxv
	BYTE	W03
	BYTE		        20*seq_067_mvl/mxv
	BYTE	W03
	BYTE		        17*seq_067_mvl/mxv
	BYTE	W03
	BYTE		        13*seq_067_mvl/mxv
	BYTE	W03
	BYTE		        62*seq_067_mvl/mxv
	BYTE		N24     Fn4   v048
	BYTE	W12
	BYTE		VOL     60*seq_067_mvl/mxv
	BYTE	W03
	BYTE		        52*seq_067_mvl/mxv
	BYTE	W03
	BYTE		        45*seq_067_mvl/mxv
	BYTE	W03
	BYTE		        37*seq_067_mvl/mxv
	BYTE	W03
	BYTE		        62*seq_067_mvl/mxv
	BYTE		N24     En4   v040
	BYTE	W12
	BYTE		VOL     60*seq_067_mvl/mxv
	BYTE	W03
	BYTE		        52*seq_067_mvl/mxv
	BYTE	W03
	BYTE		        45*seq_067_mvl/mxv
	BYTE	W03
	BYTE		        37*seq_067_mvl/mxv
	BYTE	W03
	BYTE		        62*seq_067_mvl/mxv
	BYTE		N24     Dn4   v052
	BYTE	W12
	BYTE		VOL     60*seq_067_mvl/mxv
	BYTE	W03
	BYTE		        52*seq_067_mvl/mxv
	BYTE	W03
	BYTE		        45*seq_067_mvl/mxv
	BYTE	W03
	BYTE		        37*seq_067_mvl/mxv
	BYTE	W03
	BYTE		        62*seq_067_mvl/mxv
	BYTE		N12     Cs4   v048
	BYTE	W12
	BYTE		        En4   v040
	BYTE	W12
	BYTE		N24     Dn4   v056
	BYTE	W12
	BYTE		VOL     60*seq_067_mvl/mxv
	BYTE	W03
	BYTE		        52*seq_067_mvl/mxv
	BYTE	W03
	BYTE		        45*seq_067_mvl/mxv
	BYTE	W03
	BYTE		        37*seq_067_mvl/mxv
	BYTE	W03
	BYTE		        62*seq_067_mvl/mxv
	BYTE		N23     An3   v048
	BYTE	W12
	BYTE		VOL     60*seq_067_mvl/mxv
	BYTE	W03
	BYTE		        52*seq_067_mvl/mxv
	BYTE	W03
	BYTE		        45*seq_067_mvl/mxv
	BYTE	W03
	BYTE		        37*seq_067_mvl/mxv
	BYTE	W03
	BYTE		        62*seq_067_mvl/mxv
	BYTE		N48     En4   v056
	BYTE	W06
	BYTE		VOL     61*seq_067_mvl/mxv
	BYTE	W03
	BYTE		        58*seq_067_mvl/mxv
	BYTE	W03
	BYTE		        54*seq_067_mvl/mxv
	BYTE	W03
	BYTE		        51*seq_067_mvl/mxv
	BYTE	W03
	BYTE		        48*seq_067_mvl/mxv
	BYTE	W03
	BYTE		        44*seq_067_mvl/mxv
	BYTE	W03
	BYTE		        41*seq_067_mvl/mxv
	BYTE	W03
	BYTE		        37*seq_067_mvl/mxv
	BYTE	W03
	BYTE		        34*seq_067_mvl/mxv
	BYTE	W03
	BYTE		        30*seq_067_mvl/mxv
	BYTE	W03
	BYTE		        26*seq_067_mvl/mxv
	BYTE	W03
	BYTE		        22*seq_067_mvl/mxv
	BYTE	W03
	BYTE		        18*seq_067_mvl/mxv
	BYTE	W03
	BYTE		        15*seq_067_mvl/mxv
	BYTE	W03
	BYTE		        62*seq_067_mvl/mxv
	BYTE		N48     Dn4   v052
	BYTE	W06
	BYTE		VOL     61*seq_067_mvl/mxv
	BYTE	W03
	BYTE		        57*seq_067_mvl/mxv
	BYTE	W03
	BYTE		        53*seq_067_mvl/mxv
	BYTE	W03
	BYTE		        49*seq_067_mvl/mxv
	BYTE	W03
	BYTE		        45*seq_067_mvl/mxv
	BYTE	W03
	BYTE		        42*seq_067_mvl/mxv
	BYTE	W03
	BYTE		        37*seq_067_mvl/mxv
	BYTE	W03
	BYTE		        34*seq_067_mvl/mxv
	BYTE	W03
	BYTE		        30*seq_067_mvl/mxv
	BYTE	W03
	BYTE		        26*seq_067_mvl/mxv
	BYTE	W03
	BYTE		        22*seq_067_mvl/mxv
	BYTE	W03
	BYTE		        18*seq_067_mvl/mxv
	BYTE	W03
	BYTE		        14*seq_067_mvl/mxv
	BYTE	W03
	BYTE		        10*seq_067_mvl/mxv
	BYTE	W03
	BYTE	W02
	BYTE	W92
	BYTE	W02
	BYTE	W96
	BYTE	W96
	BYTE	W96
	BYTE	W96
	BYTE	W96
	BYTE	W96
	BYTE	W96
	BYTE	W96
	BYTE	W96
	BYTE	W96
	BYTE	W96
	BYTE	W96
	BYTE	W96
	BYTE	W96
	BYTE	W96
	BYTE	W96
	BYTE	W96
	BYTE	W96
	BYTE	W96
	BYTE	W96
	BYTE	W96
	BYTE	W96
	BYTE		VOICE   45
	BYTE		VOL     62*seq_067_mvl/mxv
	BYTE	W01
	BYTE		PAN     c_v+26
	BYTE	W68
	BYTE	W03
	BYTE		BEND    c_v+1
	BYTE	W22
	BYTE	W02
	BYTE		N24     Gn2   v084
	BYTE	W24
	BYTE		        Cn3   v072
	BYTE	W24
	BYTE		        Dn3   v080
	BYTE	W24
	BYTE		        Gn2   v088
	BYTE	W03
	BYTE		VOL     64*seq_067_mvl/mxv
	BYTE	W03
	BYTE		        64*seq_067_mvl/mxv
	BYTE	W03
	BYTE		        65*seq_067_mvl/mxv
	BYTE	W03
	BYTE		        67*seq_067_mvl/mxv
	BYTE	W06
	BYTE		        66*seq_067_mvl/mxv
	BYTE	W01
	BYTE		        63*seq_067_mvl/mxv
	BYTE	W02
	BYTE		        57*seq_067_mvl/mxv
	BYTE	W01
	BYTE		        50*seq_067_mvl/mxv
	BYTE	W02
	BYTE		VOL     62*seq_067_mvl/mxv
	BYTE		N48     Fn3   v072
	BYTE	W03
	BYTE		VOL     64*seq_067_mvl/mxv
	BYTE	W03
	BYTE		        64*seq_067_mvl/mxv
	BYTE	W03
	BYTE		        67*seq_067_mvl/mxv
	BYTE	W24
	BYTE	W03
	BYTE		        64*seq_067_mvl/mxv
	BYTE	W03
	BYTE		        59*seq_067_mvl/mxv
	BYTE	W03
	BYTE		        56*seq_067_mvl/mxv
	BYTE	W03
	BYTE		        51*seq_067_mvl/mxv
	BYTE	W03
	BYTE		        62*seq_067_mvl/mxv
	BYTE		N23     En3   v064
	BYTE	W24
	BYTE		N24     Dn3   v060
	BYTE	W24
	BYTE	PEND
	BYTE		N23     Cn3   v076
	BYTE	W24
	BYTE		N10     Bn2   v088
	BYTE	W12
	BYTE		N11     Cn3   v080
	BYTE	W12
	BYTE		N24     Dn3   v084
	BYTE	W24
	BYTE		N23     Cn3   v076
	BYTE	W18
	BYTE		VOL     54*seq_067_mvl/mxv
	BYTE	W03
	BYTE		        40*seq_067_mvl/mxv
	BYTE	W03
	BYTE		        62*seq_067_mvl/mxv
	BYTE		N44     Cn3   v072
	BYTE	W18
	BYTE		VOL     62*seq_067_mvl/mxv
	BYTE	W06
	BYTE		        61*seq_067_mvl/mxv
	BYTE	W03
	BYTE		        59*seq_067_mvl/mxv
	BYTE	W03
	BYTE		        58*seq_067_mvl/mxv
	BYTE	W03
	BYTE		        56*seq_067_mvl/mxv
	BYTE	W03
	BYTE		        53*seq_067_mvl/mxv
	BYTE	W03
	BYTE		        50*seq_067_mvl/mxv
	BYTE	W03
	BYTE		        45*seq_067_mvl/mxv
	BYTE	W03
	BYTE		        42*seq_067_mvl/mxv
	BYTE	W03
	BYTE		        62*seq_067_mvl/mxv
	BYTE		N44     Bn2   v060
	BYTE	W24
	BYTE		VOL     62*seq_067_mvl/mxv
	BYTE	W03
	BYTE		        61*seq_067_mvl/mxv
	BYTE	W03
	BYTE		        59*seq_067_mvl/mxv
	BYTE	W03
	BYTE		        56*seq_067_mvl/mxv
	BYTE	W03
	BYTE		        50*seq_067_mvl/mxv
	BYTE	W03
	BYTE		        43*seq_067_mvl/mxv
	BYTE	W03
	BYTE		        35*seq_067_mvl/mxv
	BYTE	W03
	BYTE		        29*seq_067_mvl/mxv
	BYTE	W03
	BYTE		        62*seq_067_mvl/mxv
	BYTE		N24     An2   v072
	BYTE	W24
	BYTE		        Dn3   v080
	BYTE	W24
	BYTE		        En3   v076
	BYTE	W24
	BYTE		        An2   v084
	BYTE	W03
	BYTE		VOL     64*seq_067_mvl/mxv
	BYTE	W03
	BYTE		        64*seq_067_mvl/mxv
	BYTE	W03
	BYTE		        65*seq_067_mvl/mxv
	BYTE	W03
	BYTE		        67*seq_067_mvl/mxv
	BYTE	W06
	BYTE		        66*seq_067_mvl/mxv
	BYTE	W01
	BYTE		        64*seq_067_mvl/mxv
	BYTE	W02
	BYTE		        63*seq_067_mvl/mxv
	BYTE	W01
	BYTE		        61*seq_067_mvl/mxv
	BYTE	W02
	BYTE		VOL     62*seq_067_mvl/mxv
	BYTE		N48     Gn3   v076
	BYTE	W03
	BYTE		VOL     64*seq_067_mvl/mxv
	BYTE	W03
	BYTE		        64*seq_067_mvl/mxv
	BYTE	W03
	BYTE		        67*seq_067_mvl/mxv
	BYTE	W24
	BYTE	W03
	BYTE		        64*seq_067_mvl/mxv
	BYTE	W03
	BYTE		        59*seq_067_mvl/mxv
	BYTE	W03
	BYTE		        56*seq_067_mvl/mxv
	BYTE	W03
	BYTE		        51*seq_067_mvl/mxv
	BYTE	W03
	BYTE		        62*seq_067_mvl/mxv
	BYTE		N23     Fn3   v080
	BYTE	W24
	BYTE		        En3   v068
	BYTE	W24
	BYTE	PEND
	BYTE		N23     Dn3   v088
	BYTE	W24
	BYTE		N12     Cs3   v080
	BYTE	W12
	BYTE		        En3   v084
	BYTE	W12
	BYTE		N23     Dn3   v092
	BYTE	W24
	BYTE		        An2   v076
	BYTE	W24
	BYTE	PEND
	BYTE		N44     Cn3   v068
	BYTE	W18
	BYTE		VOL     62*seq_067_mvl/mxv
	BYTE	W06
	BYTE		        61*seq_067_mvl/mxv
	BYTE	W03
	BYTE		        59*seq_067_mvl/mxv
	BYTE	W03
	BYTE		        58*seq_067_mvl/mxv
	BYTE	W03
	BYTE		        56*seq_067_mvl/mxv
	BYTE	W03
	BYTE		        53*seq_067_mvl/mxv
	BYTE	W03
	BYTE		        50*seq_067_mvl/mxv
	BYTE	W03
	BYTE		        45*seq_067_mvl/mxv
	BYTE	W03
	BYTE		        42*seq_067_mvl/mxv
	BYTE	W03
	BYTE		        62*seq_067_mvl/mxv
	BYTE		N44     Bn2   v052
	BYTE	W24
	BYTE		VOL     62*seq_067_mvl/mxv
	BYTE	W03
	BYTE		        61*seq_067_mvl/mxv
	BYTE	W03
	BYTE		        59*seq_067_mvl/mxv
	BYTE	W03
	BYTE		        56*seq_067_mvl/mxv
	BYTE	W03
	BYTE		        50*seq_067_mvl/mxv
	BYTE	W03
	BYTE		        43*seq_067_mvl/mxv
	BYTE	W03
	BYTE		        35*seq_067_mvl/mxv
	BYTE	W03
	BYTE		        29*seq_067_mvl/mxv
	BYTE	W03
	BYTE	PEND
	BYTE		        62*seq_067_mvl/mxv
	BYTE		N24     Gn2   v084
	BYTE	W24
	BYTE		        Cn3   v072
	BYTE	W24
	BYTE		        Dn3   v080
	BYTE	W24
	BYTE		        Gn2   v088
	BYTE	W03
	BYTE		VOL     64*seq_067_mvl/mxv
	BYTE	W03
	BYTE		        64*seq_067_mvl/mxv
	BYTE	W03
	BYTE		        65*seq_067_mvl/mxv
	BYTE	W03
	BYTE		        67*seq_067_mvl/mxv
	BYTE	W06
	BYTE		        66*seq_067_mvl/mxv
	BYTE	W06
	BYTE	PATT
	 POIN2	seq_067_1 + 0x223
	BYTE		N23     Cn3   v076
	BYTE	W24
	BYTE		N10     Bn2   v088
	BYTE	W12
	BYTE		N11     Cn3   v080
	BYTE	W12
	BYTE		N24     Dn3   v084
	BYTE	W24
	BYTE		N23     Cn3   v076
	BYTE	W24
	BYTE		N44     Cn3   v072
	BYTE	W18
	BYTE		VOL     62*seq_067_mvl/mxv
	BYTE	W06
	BYTE		        61*seq_067_mvl/mxv
	BYTE	W03
	BYTE		        59*seq_067_mvl/mxv
	BYTE	W03
	BYTE		        58*seq_067_mvl/mxv
	BYTE	W03
	BYTE		        56*seq_067_mvl/mxv
	BYTE	W03
	BYTE		        53*seq_067_mvl/mxv
	BYTE	W03
	BYTE		        50*seq_067_mvl/mxv
	BYTE	W03
	BYTE		        45*seq_067_mvl/mxv
	BYTE	W03
	BYTE		        42*seq_067_mvl/mxv
	BYTE	W03
	BYTE		        62*seq_067_mvl/mxv
	BYTE		N44     Bn2   v060
	BYTE	W24
	BYTE		VOL     62*seq_067_mvl/mxv
	BYTE	W03
	BYTE		        61*seq_067_mvl/mxv
	BYTE	W03
	BYTE		        59*seq_067_mvl/mxv
	BYTE	W03
	BYTE		        56*seq_067_mvl/mxv
	BYTE	W03
	BYTE		        50*seq_067_mvl/mxv
	BYTE	W03
	BYTE		        43*seq_067_mvl/mxv
	BYTE	W03
	BYTE		        35*seq_067_mvl/mxv
	BYTE	W03
	BYTE		        29*seq_067_mvl/mxv
	BYTE	W03
	BYTE	PEND
	BYTE		        62*seq_067_mvl/mxv
	BYTE		N24     An2   v072
	BYTE	W24
	BYTE		        Dn3   v080
	BYTE	W24
	BYTE		        En3   v076
	BYTE	W24
	BYTE		        An2   v084
	BYTE	W03
	BYTE		VOL     64*seq_067_mvl/mxv
	BYTE	W03
	BYTE		        64*seq_067_mvl/mxv
	BYTE	W03
	BYTE		        65*seq_067_mvl/mxv
	BYTE	W03
	BYTE		        67*seq_067_mvl/mxv
	BYTE	W06
	BYTE		        66*seq_067_mvl/mxv
	BYTE	W03
	BYTE		        65*seq_067_mvl/mxv
	BYTE	W03
	BYTE	PATT
	 POIN2	seq_067_1 + 0x2A9
	BYTE	PATT
	 POIN2	seq_067_1 + 0x2C8
	BYTE		N44     En3   v072
	BYTE	W18
	BYTE		VOL     62*seq_067_mvl/mxv
	BYTE	W06
	BYTE		        61*seq_067_mvl/mxv
	BYTE	W03
	BYTE		        59*seq_067_mvl/mxv
	BYTE	W03
	BYTE		        58*seq_067_mvl/mxv
	BYTE	W03
	BYTE		        56*seq_067_mvl/mxv
	BYTE	W03
	BYTE		        53*seq_067_mvl/mxv
	BYTE	W03
	BYTE		        50*seq_067_mvl/mxv
	BYTE	W03
	BYTE		        45*seq_067_mvl/mxv
	BYTE	W03
	BYTE		        42*seq_067_mvl/mxv
	BYTE	W03
	BYTE		        62*seq_067_mvl/mxv
	BYTE		N23     Dn3   v056
	BYTE	W24
	BYTE		N06     Dn3   v076
	BYTE	W06
	BYTE		N05     En3 
	BYTE	W06
	BYTE		        Fn3   v080
	BYTE	W06
	BYTE		N06     Gn3 
	BYTE	W06
	BYTE		N68     An3 
	BYTE	W06
	BYTE		VOL     63*seq_067_mvl/mxv
	BYTE	W03
	BYTE		        64*seq_067_mvl/mxv
	BYTE	W03
	BYTE		        64*seq_067_mvl/mxv
	BYTE	W03
	BYTE		        66*seq_067_mvl/mxv
	BYTE	W06
	BYTE		        67*seq_067_mvl/mxv
	BYTE	W21
	BYTE		        65*seq_067_mvl/mxv
	BYTE	W03
	BYTE		        62*seq_067_mvl/mxv
	BYTE	W03
	BYTE		        59*seq_067_mvl/mxv
	BYTE	W03
	BYTE		        56*seq_067_mvl/mxv
	BYTE	W03
	BYTE		        51*seq_067_mvl/mxv
	BYTE	W03
	BYTE		        46*seq_067_mvl/mxv
	BYTE	W03
	BYTE		        42*seq_067_mvl/mxv
	BYTE	W03
	BYTE		        35*seq_067_mvl/mxv
	BYTE	W03
	BYTE		        30*seq_067_mvl/mxv
	BYTE	W03
	BYTE		        23*seq_067_mvl/mxv
	BYTE	W03
	BYTE		        62*seq_067_mvl/mxv
	BYTE		N23     An3   v060
	BYTE	W24
	BYTE		N68     Gn3   v056
	BYTE	W03
	BYTE		VOL     63*seq_067_mvl/mxv
	BYTE	W03
	BYTE		        64*seq_067_mvl/mxv
	BYTE	W09
	BYTE		        64*seq_067_mvl/mxv
	BYTE	W03
	BYTE		        65*seq_067_mvl/mxv
	BYTE	W03
	BYTE		        66*seq_067_mvl/mxv
	BYTE	W21
	BYTE		        64*seq_067_mvl/mxv
	BYTE	W03
	BYTE		        60*seq_067_mvl/mxv
	BYTE	W03
	BYTE		        56*seq_067_mvl/mxv
	BYTE	W03
	BYTE		        51*seq_067_mvl/mxv
	BYTE	W03
	BYTE		        45*seq_067_mvl/mxv
	BYTE	W03
	BYTE		        39*seq_067_mvl/mxv
	BYTE	W03
	BYTE		        32*seq_067_mvl/mxv
	BYTE	W03
	BYTE		        25*seq_067_mvl/mxv
	BYTE	W03
	BYTE		        16*seq_067_mvl/mxv
	BYTE	W03
	BYTE		        11*seq_067_mvl/mxv
	BYTE	W03
	BYTE		        62*seq_067_mvl/mxv
	BYTE		N23     En3   v076
	BYTE	W24
	BYTE		        Fn3   v080
	BYTE	W24
	BYTE		N11
	BYTE	W12
	BYTE		N12     En3   v072
	BYTE	W12
	BYTE		N23     Dn3   v084
	BYTE	W24
	BYTE		        Cs3 
	BYTE	W24
	BYTE		N23     Dn3   v088
	BYTE	W24
	BYTE		N24     En3 
	BYTE	W24
	BYTE		N23     Fn3   v092
	BYTE	W24
	BYTE		        Gn3   v088
	BYTE	W24
	BYTE	PEND
	BYTE		N68     As3   v076
	BYTE	W24
	BYTE		VOL     61*seq_067_mvl/mxv
	BYTE	W06
	BYTE		        61*seq_067_mvl/mxv
	BYTE	W03
	BYTE		        59*seq_067_mvl/mxv
	BYTE	W03
	BYTE		        59*seq_067_mvl/mxv
	BYTE	W03
	BYTE		        57*seq_067_mvl/mxv
	BYTE	W03
	BYTE		        55*seq_067_mvl/mxv
	BYTE	W03
	BYTE		        53*seq_067_mvl/mxv
	BYTE	W03
	BYTE		        50*seq_067_mvl/mxv
	BYTE	W03
	BYTE		        47*seq_067_mvl/mxv
	BYTE	W03
	BYTE		        44*seq_067_mvl/mxv
	BYTE	W03
	BYTE		        40*seq_067_mvl/mxv
	BYTE	W03
	BYTE		        37*seq_067_mvl/mxv
	BYTE	W03
	BYTE		        32*seq_067_mvl/mxv
	BYTE	W03
	BYTE		        28*seq_067_mvl/mxv
	BYTE	W03
	BYTE		        23*seq_067_mvl/mxv
	BYTE	W03
	BYTE		        62*seq_067_mvl/mxv
	BYTE		N23     As3   v068
	BYTE	W24
	BYTE	PEND
	BYTE		N68     An3   v072
	BYTE	W06
	BYTE		VOL     64*seq_067_mvl/mxv
	BYTE	W09
	BYTE		        64*seq_067_mvl/mxv
	BYTE	W03
	BYTE		        65*seq_067_mvl/mxv
	BYTE	W03
	BYTE		        66*seq_067_mvl/mxv
	BYTE	W03
	BYTE		        67*seq_067_mvl/mxv
	BYTE	W18
	BYTE		        64*seq_067_mvl/mxv
	BYTE	W03
	BYTE		        60*seq_067_mvl/mxv
	BYTE	W03
	BYTE		        56*seq_067_mvl/mxv
	BYTE	W03
	BYTE		        51*seq_067_mvl/mxv
	BYTE	W03
	BYTE		        45*seq_067_mvl/mxv
	BYTE	W03
	BYTE		        39*seq_067_mvl/mxv
	BYTE	W03
	BYTE		        32*seq_067_mvl/mxv
	BYTE	W03
	BYTE		        25*seq_067_mvl/mxv
	BYTE	W03
	BYTE		        16*seq_067_mvl/mxv
	BYTE	W03
	BYTE		        11*seq_067_mvl/mxv
	BYTE	W03
	BYTE		        62*seq_067_mvl/mxv
	BYTE		N23     Fn3   v064
	BYTE	W24
	BYTE		N23     Gn3   v076
	BYTE	W24
	BYTE		N11
	BYTE	W12
	BYTE		        Gs3   v068
	BYTE	W12
	BYTE		N23     Gn3 
	BYTE	W24
	BYTE		N11     Gn3   v080
	BYTE	W12
	BYTE		        Gs3   v072
	BYTE	W12
	BYTE	PEND
	BYTE		N23     Gn3   v076
	BYTE	W24
	BYTE		        Fn3   v068
	BYTE	W24
	BYTE		        En3   v060
	BYTE	W24
	BYTE		        Dn3   v052
	BYTE	W24
	BYTE		        Gn2   v084
	BYTE	W24
	BYTE		N24     Cn3   v072
	BYTE	W24
	BYTE		N23     Dn3   v080
	BYTE	W24
	BYTE		        Gn2   v088
	BYTE	W03
	BYTE		VOL     64*seq_067_mvl/mxv
	BYTE	W03
	BYTE		        64*seq_067_mvl/mxv
	BYTE	W03
	BYTE		        65*seq_067_mvl/mxv
	BYTE	W03
	BYTE		        67*seq_067_mvl/mxv
	BYTE	W06
	BYTE		        66*seq_067_mvl/mxv
	BYTE	W06
	BYTE		        62*seq_067_mvl/mxv
	BYTE		N48     Fn3   v072
	BYTE	W03
	BYTE		VOL     64*seq_067_mvl/mxv
	BYTE	W03
	BYTE		        64*seq_067_mvl/mxv
	BYTE	W03
	BYTE		        67*seq_067_mvl/mxv
	BYTE	W24
	BYTE	W03
	BYTE		        64*seq_067_mvl/mxv
	BYTE	W03
	BYTE		        59*seq_067_mvl/mxv
	BYTE	W03
	BYTE		        56*seq_067_mvl/mxv
	BYTE	W03
	BYTE		        51*seq_067_mvl/mxv
	BYTE	W03
	BYTE		        62*seq_067_mvl/mxv
	BYTE		N23     En3   v064
	BYTE	W24
	BYTE		        Dn3   v060
	BYTE	W24
	BYTE		        Cn3   v076
	BYTE	W24
	BYTE		N12     Bn2   v088
	BYTE	W12
	BYTE		        Cn3   v080
	BYTE	W12
	BYTE		N23     Dn3   v084
	BYTE	W24
	BYTE		        Cn3   v076
	BYTE	W24
	BYTE	PATT
	 POIN2	seq_067_1 + 0x33B
	BYTE		VOL     62*seq_067_mvl/mxv
	BYTE		N24     An2   v072
	BYTE	W24
	BYTE		N23     Dn3   v080
	BYTE	W24
	BYTE		        En3   v076
	BYTE	W24
	BYTE		        An2   v084
	BYTE	W03
	BYTE		VOL     64*seq_067_mvl/mxv
	BYTE	W03
	BYTE		        64*seq_067_mvl/mxv
	BYTE	W03
	BYTE		        65*seq_067_mvl/mxv
	BYTE	W03
	BYTE		        67*seq_067_mvl/mxv
	BYTE	W12
	BYTE		N48     Gn3   v076
	BYTE	W36
	BYTE		VOL     64*seq_067_mvl/mxv
	BYTE	W03
	BYTE		        59*seq_067_mvl/mxv
	BYTE	W03
	BYTE		        56*seq_067_mvl/mxv
	BYTE	W03
	BYTE		        51*seq_067_mvl/mxv
	BYTE	W03
	BYTE		        62*seq_067_mvl/mxv
	BYTE		N23     Fn3   v080
	BYTE	W24
	BYTE		        En3   v068
	BYTE	W24
	BYTE	PATT
	 POIN2	seq_067_1 + 0x2C8
	BYTE	PATT
	 POIN2	seq_067_1 + 0x2DB
	BYTE		VOL     62*seq_067_mvl/mxv
	BYTE		N23     Gn2   v084
	BYTE	W24
	BYTE		        Cn3   v072
	BYTE	W24
	BYTE		        Dn3   v076
	BYTE	W24
	BYTE		        Gn2   v088
	BYTE	W03
	BYTE		VOL     64*seq_067_mvl/mxv
	BYTE	W03
	BYTE		        64*seq_067_mvl/mxv
	BYTE	W03
	BYTE		        65*seq_067_mvl/mxv
	BYTE	W03
	BYTE		        67*seq_067_mvl/mxv
	BYTE	W12
	BYTE		N48     Fn3   v068
	BYTE	W36
	BYTE		VOL     64*seq_067_mvl/mxv
	BYTE	W03
	BYTE		        59*seq_067_mvl/mxv
	BYTE	W03
	BYTE		        56*seq_067_mvl/mxv
	BYTE	W03
	BYTE		        51*seq_067_mvl/mxv
	BYTE	W03
	BYTE		        62*seq_067_mvl/mxv
	BYTE		N23     En3   v064
	BYTE	W24
	BYTE		        Dn3   v060
	BYTE	W24
	BYTE		        Cn3   v076
	BYTE	W24
	BYTE		N12     Bn2   v088
	BYTE	W12
	BYTE		        Cn3   v084
	BYTE	W12
	BYTE		N23     Dn3   v088
	BYTE	W24
	BYTE		        Cn3   v076
	BYTE	W24
	BYTE	PATT
	 POIN2	seq_067_1 + 0x33B
	BYTE		VOL     62*seq_067_mvl/mxv
	BYTE		N23     An2   v084
	BYTE	W24
	BYTE		N24     Dn3   v076
	BYTE	W24
	BYTE		        En3   v084
	BYTE	W24
	BYTE		N22     An2   v088
	BYTE	W03
	BYTE		VOL     64*seq_067_mvl/mxv
	BYTE	W03
	BYTE		        64*seq_067_mvl/mxv
	BYTE	W03
	BYTE		        65*seq_067_mvl/mxv
	BYTE	W03
	BYTE		        67*seq_067_mvl/mxv
	BYTE	W12
	BYTE		N48     Gn3   v080
	BYTE	W36
	BYTE		VOL     64*seq_067_mvl/mxv
	BYTE	W03
	BYTE		        59*seq_067_mvl/mxv
	BYTE	W03
	BYTE		        56*seq_067_mvl/mxv
	BYTE	W03
	BYTE		        51*seq_067_mvl/mxv
	BYTE	W03
	BYTE		        62*seq_067_mvl/mxv
	BYTE		N23     Fn3 
	BYTE	W24
	BYTE		        En3   v068
	BYTE	W24
	BYTE	PATT
	 POIN2	seq_067_1 + 0x2C8
	BYTE		N44     En3   v072
	BYTE	W18
	BYTE		VOL     62*seq_067_mvl/mxv
	BYTE	W06
	BYTE		        61*seq_067_mvl/mxv
	BYTE	W03
	BYTE		        59*seq_067_mvl/mxv
	BYTE	W03
	BYTE		        58*seq_067_mvl/mxv
	BYTE	W03
	BYTE		        56*seq_067_mvl/mxv
	BYTE	W03
	BYTE		        53*seq_067_mvl/mxv
	BYTE	W03
	BYTE		        50*seq_067_mvl/mxv
	BYTE	W03
	BYTE		        45*seq_067_mvl/mxv
	BYTE	W03
	BYTE		        42*seq_067_mvl/mxv
	BYTE	W03
	BYTE		        62*seq_067_mvl/mxv
	BYTE		N23     Dn3   v056
	BYTE	W24
	BYTE		N06     Dn3   v088
	BYTE	W06
	BYTE		        En3   v080
	BYTE	W06
	BYTE		        Fn3 
	BYTE	W06
	BYTE		        Gn3   v084
	BYTE	W06
	BYTE		N68     An3   v080
	BYTE	W24
	BYTE		VOL     61*seq_067_mvl/mxv
	BYTE	W06
	BYTE		        61*seq_067_mvl/mxv
	BYTE	W03
	BYTE		        59*seq_067_mvl/mxv
	BYTE	W03
	BYTE		        59*seq_067_mvl/mxv
	BYTE	W03
	BYTE		        57*seq_067_mvl/mxv
	BYTE	W03
	BYTE		        55*seq_067_mvl/mxv
	BYTE	W03
	BYTE		        53*seq_067_mvl/mxv
	BYTE	W03
	BYTE		        50*seq_067_mvl/mxv
	BYTE	W03
	BYTE		        47*seq_067_mvl/mxv
	BYTE	W03
	BYTE		        44*seq_067_mvl/mxv
	BYTE	W03
	BYTE		        40*seq_067_mvl/mxv
	BYTE	W03
	BYTE		        37*seq_067_mvl/mxv
	BYTE	W03
	BYTE		        32*seq_067_mvl/mxv
	BYTE	W03
	BYTE		        28*seq_067_mvl/mxv
	BYTE	W03
	BYTE		        23*seq_067_mvl/mxv
	BYTE	W03
	BYTE		        62*seq_067_mvl/mxv
	BYTE		N23     An3   v060
	BYTE	W24
	BYTE		N68     Gn3   v056
	BYTE	W06
	BYTE		VOL     64*seq_067_mvl/mxv
	BYTE	W15
	BYTE		        66*seq_067_mvl/mxv
	BYTE	W21
	BYTE		        64*seq_067_mvl/mxv
	BYTE	W03
	BYTE		        60*seq_067_mvl/mxv
	BYTE	W03
	BYTE		        56*seq_067_mvl/mxv
	BYTE	W03
	BYTE		        51*seq_067_mvl/mxv
	BYTE	W03
	BYTE		        45*seq_067_mvl/mxv
	BYTE	W03
	BYTE		        39*seq_067_mvl/mxv
	BYTE	W03
	BYTE		        32*seq_067_mvl/mxv
	BYTE	W03
	BYTE		        25*seq_067_mvl/mxv
	BYTE	W03
	BYTE		        16*seq_067_mvl/mxv
	BYTE	W03
	BYTE		        11*seq_067_mvl/mxv
	BYTE	W03
	BYTE		        62*seq_067_mvl/mxv
	BYTE		N23     En3   v076
	BYTE	W24
	BYTE		        Fn3   v080
	BYTE	W24
	BYTE		N11
	BYTE	W12
	BYTE		N12     En3   v072
	BYTE	W12
	BYTE		N23     Dn3   v084
	BYTE	W24
	BYTE		N24     Cs3 
	BYTE	W24
	BYTE	PATT
	 POIN2	seq_067_1 + 0x415
	BYTE	PATT
	 POIN2	seq_067_1 + 0x424
	BYTE		N68     An3   v072
	BYTE	W03
	BYTE		VOL     63*seq_067_mvl/mxv
	BYTE	W03
	BYTE		        64*seq_067_mvl/mxv
	BYTE	W09
	BYTE		        64*seq_067_mvl/mxv
	BYTE	W06
	BYTE		        66*seq_067_mvl/mxv
	BYTE	W21
	BYTE		        64*seq_067_mvl/mxv
	BYTE	W03
	BYTE		        60*seq_067_mvl/mxv
	BYTE	W03
	BYTE		        56*seq_067_mvl/mxv
	BYTE	W03
	BYTE		        51*seq_067_mvl/mxv
	BYTE	W03
	BYTE		        45*seq_067_mvl/mxv
	BYTE	W03
	BYTE		        39*seq_067_mvl/mxv
	BYTE	W03
	BYTE		        32*seq_067_mvl/mxv
	BYTE	W03
	BYTE		        25*seq_067_mvl/mxv
	BYTE	W03
	BYTE		        16*seq_067_mvl/mxv
	BYTE	W03
	BYTE		        11*seq_067_mvl/mxv
	BYTE	W03
	BYTE		        62*seq_067_mvl/mxv
	BYTE		N23     Fn3   v064
	BYTE	W24
	BYTE	PATT
	 POIN2	seq_067_1 + 0x475
	BYTE		N23     Gn3   v076
	BYTE	W24
	BYTE		        Fn3   v068
	BYTE	W24
	BYTE		        Ds3   v072
	BYTE	W24
	BYTE		        Fn3   v064
	BYTE	W24
	BYTE		TIE     Gn3   v056
	BYTE	W36
	BYTE		VOL     62*seq_067_mvl/mxv
	BYTE	W06
	BYTE		        61*seq_067_mvl/mxv
	BYTE	W06
	BYTE		        61*seq_067_mvl/mxv
	BYTE	W03
	BYTE		        59*seq_067_mvl/mxv
	BYTE	W03
	BYTE		        58*seq_067_mvl/mxv
	BYTE	W03
	BYTE		        57*seq_067_mvl/mxv
	BYTE	W03
	BYTE		        56*seq_067_mvl/mxv
	BYTE	W03
	BYTE		        54*seq_067_mvl/mxv
	BYTE	W03
	BYTE		        51*seq_067_mvl/mxv
	BYTE	W03
	BYTE		        49*seq_067_mvl/mxv
	BYTE	W03
	BYTE		        47*seq_067_mvl/mxv
	BYTE	W03
	BYTE		        44*seq_067_mvl/mxv
	BYTE	W03
	BYTE		        41*seq_067_mvl/mxv
	BYTE	W03
	BYTE		        39*seq_067_mvl/mxv
	BYTE	W03
	BYTE		        35*seq_067_mvl/mxv
	BYTE	W03
	BYTE		        31*seq_067_mvl/mxv
	BYTE	W03
	BYTE		        27*seq_067_mvl/mxv
	BYTE	W03
	BYTE		        23*seq_067_mvl/mxv
	BYTE	W03
	BYTE		        19*seq_067_mvl/mxv
	BYTE	W03
	BYTE		        15*seq_067_mvl/mxv
	BYTE	W03
	BYTE		        10*seq_067_mvl/mxv
	BYTE	W05
	BYTE		EOT
	BYTE	W10
	BYTE		VOL     62*seq_067_mvl/mxv
	BYTE	W03
	BYTE		N23     Gn3   v072
	BYTE	W24
	BYTE		        An3   v064
	BYTE	W24
	BYTE		        Bn3   v056
	BYTE	W24
	BYTE		TIE     Cn4   v052
	BYTE	W18
	BYTE		VOL     64*seq_067_mvl/mxv
	BYTE	W06
	BYTE		        66*seq_067_mvl/mxv
	BYTE	W12
	BYTE		        67*seq_067_mvl/mxv
	BYTE	W60
	BYTE	W06
	BYTE		        66*seq_067_mvl/mxv
	BYTE	W06
	BYTE		        64*seq_067_mvl/mxv
	BYTE	W06
	BYTE		        62*seq_067_mvl/mxv
	BYTE	W06
	BYTE		        59*seq_067_mvl/mxv
	BYTE	W06
	BYTE		        57*seq_067_mvl/mxv
	BYTE	W06
	BYTE		        55*seq_067_mvl/mxv
	BYTE	W06
	BYTE		        52*seq_067_mvl/mxv
	BYTE	W06
	BYTE		        49*seq_067_mvl/mxv
	BYTE	W06
	BYTE		        46*seq_067_mvl/mxv
	BYTE	W06
	BYTE		        43*seq_067_mvl/mxv
	BYTE	W06
	BYTE		        39*seq_067_mvl/mxv
	BYTE	W06
	BYTE		        36*seq_067_mvl/mxv
	BYTE	W06
	BYTE		        32*seq_067_mvl/mxv
	BYTE	W06
	BYTE		        28*seq_067_mvl/mxv
	BYTE	W06
	BYTE		        25*seq_067_mvl/mxv
	BYTE	W06
	BYTE		        22*seq_067_mvl/mxv
	BYTE	W06
	BYTE		        18*seq_067_mvl/mxv
	BYTE	W06
	BYTE		        17*seq_067_mvl/mxv
	BYTE	W06
	BYTE		        15*seq_067_mvl/mxv
	BYTE	W06
	BYTE		        14*seq_067_mvl/mxv
	BYTE	W06
	BYTE		        13*seq_067_mvl/mxv
	BYTE	W06
	BYTE		        12*seq_067_mvl/mxv
	BYTE	W06
	BYTE		        11*seq_067_mvl/mxv
	BYTE	W06
	BYTE		        11*seq_067_mvl/mxv
	BYTE	W06
	BYTE		        10*seq_067_mvl/mxv
	BYTE	W06
	BYTE		        8*seq_067_mvl/mxv
	BYTE	W06
	BYTE		        6*seq_067_mvl/mxv
	BYTE	W06
	BYTE		        5*seq_067_mvl/mxv
	BYTE	W06
	BYTE		        4*seq_067_mvl/mxv
	BYTE	W06
	BYTE		        3*seq_067_mvl/mxv
	BYTE	W06
	BYTE		        3*seq_067_mvl/mxv
	BYTE	W06
	BYTE	W06
	BYTE		        1*seq_067_mvl/mxv
	BYTE	W12
	BYTE		        1*seq_067_mvl/mxv
	BYTE	W06
	BYTE		        0*seq_067_mvl/mxv
	BYTE	W12
	BYTE		        0*seq_067_mvl/mxv
	BYTE	W11
	BYTE		EOT
	BYTE	W48
	BYTE	W01
	BYTE	W54
	BYTE	FINE

//*********************** Track 03 ***********************//

seq_067_2:
	BYTE	KEYSH   seq_067_key+0
	BYTE		VOICE   51
	BYTE	W01
	BYTE		VOL     75*seq_067_mvl/mxv
	BYTE	W01
	BYTE		PAN     c_v+0
	BYTE	W01
	BYTE	W96
	BYTE	W96
	BYTE	W96
	BYTE	W96
	BYTE	W96
	BYTE	W96
	BYTE	W96
	BYTE	W96
	BYTE	W96
	BYTE	W96
	BYTE	W96
	BYTE	W72
	BYTE		BEND    c_v+0
	BYTE	W22
	BYTE	W02
	BYTE		N24     Gn2   v120
	BYTE	W24
	BYTE		        Cn3   v112
	BYTE	W24
	BYTE		        Dn3   v120
	BYTE	W24
	BYTE		        Gn2   v116
	BYTE	W24
	BYTE		N48     Fn3   v124
	BYTE	W36
	BYTE	W03
	BYTE		VOL     72*seq_067_mvl/mxv
	BYTE	W03
	BYTE		        70*seq_067_mvl/mxv
	BYTE	W03
	BYTE		        68*seq_067_mvl/mxv
	BYTE	W03
	BYTE		        75*seq_067_mvl/mxv
	BYTE		N24     En3   v120
	BYTE	W24
	BYTE		        Dn3   v116
	BYTE	W24
	BYTE	PEND
	BYTE		N24     Cn3   v116
	BYTE	W24
	BYTE		N12     Bn2   v124
	BYTE	W12
	BYTE		N14     Cn3 
	BYTE	W12
	BYTE		N24     Dn3   v120
	BYTE	W24
	BYTE		N23     Cn3   v116
	BYTE	W24
	BYTE	PEND
	BYTE		N48     Cn3   v120
	BYTE	W36
	BYTE	W03
	BYTE		VOL     73*seq_067_mvl/mxv
	BYTE	W03
	BYTE		        72*seq_067_mvl/mxv
	BYTE	W03
	BYTE		        68*seq_067_mvl/mxv
	BYTE	W03
	BYTE		        75*seq_067_mvl/mxv
	BYTE		N48     Bn2   v108
	BYTE	W36
	BYTE	W03
	BYTE		VOL     73*seq_067_mvl/mxv
	BYTE	W03
	BYTE		        72*seq_067_mvl/mxv
	BYTE	W03
	BYTE		        68*seq_067_mvl/mxv
	BYTE	W03
	BYTE	PEND
	BYTE		VOL     75*seq_067_mvl/mxv
	BYTE		N24     An2   v116
	BYTE	W24
	BYTE		        Dn3   v112
	BYTE	W24
	BYTE		N22     En3   v116
	BYTE	W24
	BYTE		N24     An2   v124
	BYTE	W24
	BYTE	PEND
	BYTE		N48     Gn3   v120
	BYTE	W36
	BYTE	W03
	BYTE		VOL     73*seq_067_mvl/mxv
	BYTE	W03
	BYTE		        68*seq_067_mvl/mxv
	BYTE	W03
	BYTE		        62*seq_067_mvl/mxv
	BYTE	W03
	BYTE		        75*seq_067_mvl/mxv
	BYTE		N24     Fn3 
	BYTE	W24
	BYTE		        En3   v116
	BYTE	W24
	BYTE	PEND
	BYTE		N24     Dn3   v120
	BYTE	W24
	BYTE		N12     Cs3 
	BYTE	W12
	BYTE		N14     En3   v116
	BYTE	W12
	BYTE		N24     Dn3   v124
	BYTE	W24
	BYTE		        An2   v116
	BYTE	W24
	BYTE	PEND
	BYTE		N48     Cn3   v120
	BYTE	W36
	BYTE	W03
	BYTE		VOL     73*seq_067_mvl/mxv
	BYTE	W03
	BYTE		        70*seq_067_mvl/mxv
	BYTE	W03
	BYTE		        66*seq_067_mvl/mxv
	BYTE	W03
	BYTE		        75*seq_067_mvl/mxv
	BYTE		N44     Bn2   v108
	BYTE	W36
	BYTE	W03
	BYTE		VOL     71*seq_067_mvl/mxv
	BYTE	W03
	BYTE		        67*seq_067_mvl/mxv
	BYTE	W03
	BYTE		        62*seq_067_mvl/mxv
	BYTE	W03
	BYTE	PEND
	BYTE		VOL     75*seq_067_mvl/mxv
	BYTE		N24     Gn2   v120
	BYTE	W24
	BYTE		        Cn3   v112
	BYTE	W24
	BYTE		        Dn3   v120
	BYTE	W24
	BYTE		        Gn2   v116
	BYTE	W24
	BYTE	PEND
	BYTE	PATT
	 POIN2	seq_067_2 + 0x28
	BYTE	PATT
	 POIN2	seq_067_2 + 0x3D
	BYTE	PATT
	 POIN2	seq_067_2 + 0x51
	BYTE	PATT
	 POIN2	seq_067_2 + 0x6B
	BYTE	PATT
	 POIN2	seq_067_2 + 0x7D
	BYTE	PATT
	 POIN2	seq_067_2 + 0x91
	BYTE		N48     En3   v112
	BYTE	W36
	BYTE	W03
	BYTE		VOL     73*seq_067_mvl/mxv
	BYTE	W03
	BYTE		        70*seq_067_mvl/mxv
	BYTE	W03
	BYTE		        66*seq_067_mvl/mxv
	BYTE	W03
	BYTE		        75*seq_067_mvl/mxv
	BYTE		N23     Dn3   v120
	BYTE	W24
	BYTE		N08     Dn3   v116
	BYTE	W06
	BYTE		N06     En3   v104
	BYTE	W06
	BYTE		        Fn3 
	BYTE	W06
	BYTE		N07     Gn3   v108
	BYTE	W06
	BYTE	PEND
	BYTE		VOL     69*seq_067_mvl/mxv
	BYTE		N68     An3   v116
	BYTE	W15
	BYTE		VOL     69*seq_067_mvl/mxv
	BYTE	W03
	BYTE		        70*seq_067_mvl/mxv
	BYTE	W03
	BYTE		        71*seq_067_mvl/mxv
	BYTE	W03
	BYTE		        72*seq_067_mvl/mxv
	BYTE	W03
	BYTE		        73*seq_067_mvl/mxv
	BYTE	W03
	BYTE		        74*seq_067_mvl/mxv
	BYTE	W03
	BYTE		        75*seq_067_mvl/mxv
	BYTE	W03
	BYTE		        77*seq_067_mvl/mxv
	BYTE	W09
	BYTE		        76*seq_067_mvl/mxv
	BYTE	W03
	BYTE		        76*seq_067_mvl/mxv
	BYTE	W03
	BYTE		        75*seq_067_mvl/mxv
	BYTE	W03
	BYTE		        74*seq_067_mvl/mxv
	BYTE	W03
	BYTE		        72*seq_067_mvl/mxv
	BYTE	W03
	BYTE		        70*seq_067_mvl/mxv
	BYTE	W03
	BYTE		        68*seq_067_mvl/mxv
	BYTE	W03
	BYTE		        66*seq_067_mvl/mxv
	BYTE	W03
	BYTE		        63*seq_067_mvl/mxv
	BYTE	W03
	BYTE		        75*seq_067_mvl/mxv
	BYTE		N24     An3   v120
	BYTE	W24
	BYTE	PEND
	BYTE		N68     Gn3   v116
	BYTE	W60
	BYTE		VOL     73*seq_067_mvl/mxv
	BYTE	W03
	BYTE		        72*seq_067_mvl/mxv
	BYTE	W03
	BYTE		        69*seq_067_mvl/mxv
	BYTE	W03
	BYTE		        65*seq_067_mvl/mxv
	BYTE	W03
	BYTE		        75*seq_067_mvl/mxv
	BYTE		N23     En3   v100
	BYTE	W24
	BYTE	PEND
	BYTE		N22     Fn3   v116
	BYTE	W24
	BYTE		N11     Fn3   v112
	BYTE	W12
	BYTE		        En3   v108
	BYTE	W12
	BYTE		N24     Dn3   v120
	BYTE	W24
	BYTE		N23     Cs3 
	BYTE	W24
	BYTE	PEND
	BYTE		N24     Dn3   v120
	BYTE	W24
	BYTE		        En3 
	BYTE	W24
	BYTE		        Fn3   v124
	BYTE	W24
	BYTE		        Gn3 
	BYTE	W24
	BYTE	PEND
	BYTE		VOL     69*seq_067_mvl/mxv
	BYTE		N68     As3   v120
	BYTE	W15
	BYTE		VOL     69*seq_067_mvl/mxv
	BYTE	W06
	BYTE		        70*seq_067_mvl/mxv
	BYTE	W03
	BYTE		        71*seq_067_mvl/mxv
	BYTE	W06
	BYTE		        72*seq_067_mvl/mxv
	BYTE	W03
	BYTE		        73*seq_067_mvl/mxv
	BYTE	W03
	BYTE		        74*seq_067_mvl/mxv
	BYTE	W03
	BYTE		        75*seq_067_mvl/mxv
	BYTE	W03
	BYTE		        76*seq_067_mvl/mxv
	BYTE	W03
	BYTE		        78*seq_067_mvl/mxv
	BYTE	W09
	BYTE		        77*seq_067_mvl/mxv
	BYTE	W03
	BYTE		        76*seq_067_mvl/mxv
	BYTE	W03
	BYTE		        74*seq_067_mvl/mxv
	BYTE	W03
	BYTE		        71*seq_067_mvl/mxv
	BYTE	W03
	BYTE		        67*seq_067_mvl/mxv
	BYTE	W03
	BYTE		        62*seq_067_mvl/mxv
	BYTE	W03
	BYTE		        75*seq_067_mvl/mxv
	BYTE		N24
	BYTE	W24
	BYTE	PEND
	BYTE		N72     An3   v116
	BYTE	W60
	BYTE		VOL     73*seq_067_mvl/mxv
	BYTE	W03
	BYTE		        72*seq_067_mvl/mxv
	BYTE	W03
	BYTE		        70*seq_067_mvl/mxv
	BYTE	W03
	BYTE		        66*seq_067_mvl/mxv
	BYTE	W03
	BYTE		        75*seq_067_mvl/mxv
	BYTE		N24     Fn3   v112
	BYTE	W24
	BYTE	PEND
	BYTE		N23     Gn3   v120
	BYTE	W24
	BYTE		N11
	BYTE	W12
	BYTE		N12     Gs3   v116
	BYTE	W12
	BYTE		N23     Gn3   v120
	BYTE	W24
	BYTE		N11
	BYTE	W12
	BYTE		N12     Gs3   v116
	BYTE	W12
	BYTE	PEND
	BYTE		N24     Gn3   v124
	BYTE	W24
	BYTE		        Fn3   v120
	BYTE	W24
	BYTE		        En3 
	BYTE	W24
	BYTE		N23     Dn3   v108
	BYTE	W23
	BYTE		N24     Gn2   v120
	BYTE	W01
	BYTE		VOL     75*seq_067_mvl/mxv
	BYTE	W23
	BYTE		N24     Cn3   v112
	BYTE	W24
	BYTE		        Dn3   v120
	BYTE	W24
	BYTE		        Gn2   v116
	BYTE	W24
	BYTE		N48     Fn3   v124
	BYTE	W01
	BYTE	PEND
	BYTE	W36
	BYTE	W03
	BYTE		VOL     72*seq_067_mvl/mxv
	BYTE	W03
	BYTE		        70*seq_067_mvl/mxv
	BYTE	W03
	BYTE		        68*seq_067_mvl/mxv
	BYTE	W02
	BYTE		N24     En3   v120
	BYTE	W01
	BYTE		VOL     75*seq_067_mvl/mxv
	BYTE	W23
	BYTE		N24     Dn3   v116
	BYTE	W24
	BYTE		        Cn3 
	BYTE	W01
	BYTE	PEND
	BYTE	W23
	BYTE		N12     Bn2   v124
	BYTE	W12
	BYTE		N14     Cn3 
	BYTE	W12
	BYTE		N24     Dn3   v120
	BYTE	W24
	BYTE		N23     Cn3   v116
	BYTE	W24
	BYTE		N48     Cn3   v120
	BYTE	W01
	BYTE	PEND
	BYTE	W36
	BYTE	W03
	BYTE		VOL     73*seq_067_mvl/mxv
	BYTE	W03
	BYTE		        72*seq_067_mvl/mxv
	BYTE	W03
	BYTE		        68*seq_067_mvl/mxv
	BYTE	W02
	BYTE		N48     Bn2   v108
	BYTE	W01
	BYTE		VOL     75*seq_067_mvl/mxv
	BYTE	W36
	BYTE	W03
	BYTE		        73*seq_067_mvl/mxv
	BYTE	W03
	BYTE		        72*seq_067_mvl/mxv
	BYTE	W03
	BYTE		        68*seq_067_mvl/mxv
	BYTE	W02
	BYTE		N24     An2   v116
	BYTE	W01
	BYTE	PEND
	BYTE		VOL     75*seq_067_mvl/mxv
	BYTE	W23
	BYTE		N24     Dn3   v112
	BYTE	W24
	BYTE		N22     En3   v116
	BYTE	W24
	BYTE		N24     An2   v124
	BYTE	W24
	BYTE		N48     Gn3   v120
	BYTE	W01
	BYTE	PEND
	BYTE	W36
	BYTE	W03
	BYTE		VOL     73*seq_067_mvl/mxv
	BYTE	W03
	BYTE		        68*seq_067_mvl/mxv
	BYTE	W03
	BYTE		        62*seq_067_mvl/mxv
	BYTE	W02
	BYTE		N24     Fn3   v120
	BYTE	W01
	BYTE		VOL     75*seq_067_mvl/mxv
	BYTE	W23
	BYTE		N24     En3   v116
	BYTE	W24
	BYTE		        Dn3   v120
	BYTE	W01
	BYTE	PEND
	BYTE	W23
	BYTE		N12     Cs3 
	BYTE	W12
	BYTE		N14     En3   v116
	BYTE	W12
	BYTE		N24     Dn3   v124
	BYTE	W24
	BYTE		        An2   v116
	BYTE	W24
	BYTE		N48     Cn3   v120
	BYTE	W01
	BYTE	W36
	BYTE	W03
	BYTE		VOL     73*seq_067_mvl/mxv
	BYTE	W03
	BYTE		        70*seq_067_mvl/mxv
	BYTE	W03
	BYTE		        66*seq_067_mvl/mxv
	BYTE	W02
	BYTE		N44     Bn2   v108
	BYTE	W01
	BYTE		VOL     75*seq_067_mvl/mxv
	BYTE	W36
	BYTE	W03
	BYTE		        71*seq_067_mvl/mxv
	BYTE	W03
	BYTE		        67*seq_067_mvl/mxv
	BYTE	W03
	BYTE		        62*seq_067_mvl/mxv
	BYTE	W02
	BYTE		N24     Gn2   v120
	BYTE	W01
	BYTE	PATT
	 POIN2	seq_067_2 + 0x1CF
	BYTE	PATT
	 POIN2	seq_067_2 + 0x1E1
	BYTE	PATT
	 POIN2	seq_067_2 + 0x1F8
	BYTE	PATT
	 POIN2	seq_067_2 + 0x20D
	BYTE	PATT
	 POIN2	seq_067_2 + 0x229
	BYTE	PATT
	 POIN2	seq_067_2 + 0x23D
	BYTE	W23
	BYTE		N12     Cs3   v120
	BYTE	W12
	BYTE		N14     En3   v116
	BYTE	W12
	BYTE		N24     Dn3   v124
	BYTE	W24
	BYTE		        An2   v116
	BYTE	W24
	BYTE		N48     En3   v112
	BYTE	W01
	BYTE	W36
	BYTE	W03
	BYTE		VOL     73*seq_067_mvl/mxv
	BYTE	W03
	BYTE		        70*seq_067_mvl/mxv
	BYTE	W03
	BYTE		        66*seq_067_mvl/mxv
	BYTE	W02
	BYTE		N23     Dn3   v120
	BYTE	W01
	BYTE		VOL     75*seq_067_mvl/mxv
	BYTE	W23
	BYTE		N08     Dn3   v116
	BYTE	W06
	BYTE		N06     En3   v104
	BYTE	W06
	BYTE		        Fn3 
	BYTE	W06
	BYTE		N07     Gn3   v108
	BYTE	W06
	BYTE		N68     An3   v116
	BYTE	W01
	BYTE		VOL     69*seq_067_mvl/mxv
	BYTE	W15
	BYTE		        69*seq_067_mvl/mxv
	BYTE	W03
	BYTE		        70*seq_067_mvl/mxv
	BYTE	W03
	BYTE		        71*seq_067_mvl/mxv
	BYTE	W03
	BYTE		        72*seq_067_mvl/mxv
	BYTE	W03
	BYTE		        73*seq_067_mvl/mxv
	BYTE	W03
	BYTE		        74*seq_067_mvl/mxv
	BYTE	W03
	BYTE		        75*seq_067_mvl/mxv
	BYTE	W03
	BYTE		        77*seq_067_mvl/mxv
	BYTE	W09
	BYTE		        76*seq_067_mvl/mxv
	BYTE	W03
	BYTE		        76*seq_067_mvl/mxv
	BYTE	W03
	BYTE		        75*seq_067_mvl/mxv
	BYTE	W03
	BYTE		        74*seq_067_mvl/mxv
	BYTE	W03
	BYTE		        72*seq_067_mvl/mxv
	BYTE	W03
	BYTE		        70*seq_067_mvl/mxv
	BYTE	W03
	BYTE		        68*seq_067_mvl/mxv
	BYTE	W03
	BYTE		        66*seq_067_mvl/mxv
	BYTE	W03
	BYTE		        63*seq_067_mvl/mxv
	BYTE	W02
	BYTE		N24     An3   v120
	BYTE	W01
	BYTE		VOL     75*seq_067_mvl/mxv
	BYTE	W23
	BYTE		N68     Gn3   v116
	BYTE	W01
	BYTE	W60
	BYTE		VOL     73*seq_067_mvl/mxv
	BYTE	W03
	BYTE		        72*seq_067_mvl/mxv
	BYTE	W03
	BYTE		        69*seq_067_mvl/mxv
	BYTE	W03
	BYTE		        65*seq_067_mvl/mxv
	BYTE	W02
	BYTE		N23     En3   v100
	BYTE	W01
	BYTE		VOL     75*seq_067_mvl/mxv
	BYTE	W23
	BYTE		N22     Fn3   v116
	BYTE	W01
	BYTE	W23
	BYTE		N11     Fn3   v112
	BYTE	W12
	BYTE		        En3   v108
	BYTE	W12
	BYTE		N24     Dn3   v120
	BYTE	W24
	BYTE		N23     Cs3 
	BYTE	W24
	BYTE		N24     Dn3 
	BYTE	W01
	BYTE	W23
	BYTE		        En3 
	BYTE	W24
	BYTE		        Fn3   v124
	BYTE	W24
	BYTE		        Gn3 
	BYTE	W24
	BYTE		N68     As3   v120
	BYTE	W01
	BYTE		VOL     69*seq_067_mvl/mxv
	BYTE	W15
	BYTE		        69*seq_067_mvl/mxv
	BYTE	W06
	BYTE		        70*seq_067_mvl/mxv
	BYTE	W03
	BYTE		        71*seq_067_mvl/mxv
	BYTE	W06
	BYTE		        72*seq_067_mvl/mxv
	BYTE	W03
	BYTE		        73*seq_067_mvl/mxv
	BYTE	W03
	BYTE		        74*seq_067_mvl/mxv
	BYTE	W03
	BYTE		        75*seq_067_mvl/mxv
	BYTE	W03
	BYTE		        76*seq_067_mvl/mxv
	BYTE	W03
	BYTE		        78*seq_067_mvl/mxv
	BYTE	W09
	BYTE		        77*seq_067_mvl/mxv
	BYTE	W03
	BYTE		        76*seq_067_mvl/mxv
	BYTE	W03
	BYTE		        74*seq_067_mvl/mxv
	BYTE	W03
	BYTE		        71*seq_067_mvl/mxv
	BYTE	W03
	BYTE		        67*seq_067_mvl/mxv
	BYTE	W03
	BYTE		        62*seq_067_mvl/mxv
	BYTE	W02
	BYTE		N24
	BYTE	W01
	BYTE		VOL     75*seq_067_mvl/mxv
	BYTE	W23
	BYTE		N72     An3   v116
	BYTE	W01
	BYTE	W60
	BYTE		VOL     73*seq_067_mvl/mxv
	BYTE	W03
	BYTE		        72*seq_067_mvl/mxv
	BYTE	W03
	BYTE		        70*seq_067_mvl/mxv
	BYTE	W03
	BYTE		        66*seq_067_mvl/mxv
	BYTE	W02
	BYTE		N24     Fn3   v112
	BYTE	W01
	BYTE		VOL     75*seq_067_mvl/mxv
	BYTE	W23
	BYTE		N23     Gn3   v120
	BYTE	W01
	BYTE	W23
	BYTE		N11
	BYTE	W12
	BYTE		N12     Gs3   v116
	BYTE	W12
	BYTE		N23     Gn3   v120
	BYTE	W24
	BYTE		N11
	BYTE	W12
	BYTE		N12     Gs3   v116
	BYTE	W12
	BYTE		N24     Gn3   v124
	BYTE	W01
	BYTE	W23
	BYTE		        Fn3   v120
	BYTE	W24
	BYTE		        En3 
	BYTE	W24
	BYTE		N23     Dn3   v108
	BYTE	W24
	BYTE	W01
	BYTE	PATT
	 POIN2	seq_067_2 + 0xBE
	BYTE	PATT
	 POIN2	seq_067_2 + 0x28
	BYTE	PATT
	 POIN2	seq_067_2 + 0x3D
	BYTE	PATT
	 POIN2	seq_067_2 + 0x51
	BYTE	PATT
	 POIN2	seq_067_2 + 0x6B
	BYTE	PATT
	 POIN2	seq_067_2 + 0x7D
	BYTE	PATT
	 POIN2	seq_067_2 + 0x91
	BYTE	PATT
	 POIN2	seq_067_2 + 0xA4
	BYTE	PATT
	 POIN2	seq_067_2 + 0xBE
	BYTE	PATT
	 POIN2	seq_067_2 + 0x28
	BYTE	PATT
	 POIN2	seq_067_2 + 0x3D
	BYTE	PATT
	 POIN2	seq_067_2 + 0x51
	BYTE	PATT
	 POIN2	seq_067_2 + 0x6B
	BYTE	PATT
	 POIN2	seq_067_2 + 0x7D
	BYTE	PATT
	 POIN2	seq_067_2 + 0x91
	BYTE	PATT
	 POIN2	seq_067_2 + 0xEC
	BYTE	PATT
	 POIN2	seq_067_2 + 0x10C
	BYTE	PATT
	 POIN2	seq_067_2 + 0x13B
	BYTE	PATT
	 POIN2	seq_067_2 + 0x14E
	BYTE	PATT
	 POIN2	seq_067_2 + 0x161
	BYTE	PATT
	 POIN2	seq_067_2 + 0x16D
	BYTE	PATT
	 POIN2	seq_067_2 + 0x196
	BYTE	PATT
	 POIN2	seq_067_2 + 0x1A9
	BYTE		N24     Gn3   v124
	BYTE	W24
	BYTE		        Fn3   v120
	BYTE	W24
	BYTE		        Ds3   v108
	BYTE	W24
	BYTE		N23     Fn3   v104
	BYTE	W24
	BYTE		VOL     69*seq_067_mvl/mxv
	BYTE		TIE     Gn3 
	BYTE	W09
	BYTE		VOL     69*seq_067_mvl/mxv
	BYTE	W12
	BYTE		        70*seq_067_mvl/mxv
	BYTE	W12
	BYTE		        71*seq_067_mvl/mxv
	BYTE	W06
	BYTE		        71*seq_067_mvl/mxv
	BYTE	W03
	BYTE		        72*seq_067_mvl/mxv
	BYTE	W06
	BYTE		        73*seq_067_mvl/mxv
	BYTE	W03
	BYTE		        73*seq_067_mvl/mxv
	BYTE	W06
	BYTE		        74*seq_067_mvl/mxv
	BYTE	W03
	BYTE		        74*seq_067_mvl/mxv
	BYTE	W03
	BYTE		        75*seq_067_mvl/mxv
	BYTE	W03
	BYTE		        76*seq_067_mvl/mxv
	BYTE	W03
	BYTE		        77*seq_067_mvl/mxv
	BYTE	W03
	BYTE		        76*seq_067_mvl/mxv
	BYTE	W06
	BYTE		        75*seq_067_mvl/mxv
	BYTE	W03
	BYTE		        73*seq_067_mvl/mxv
	BYTE	W03
	BYTE		        69*seq_067_mvl/mxv
	BYTE	W03
	BYTE		        66*seq_067_mvl/mxv
	BYTE	W03
	BYTE		        61*seq_067_mvl/mxv
	BYTE	W03
	BYTE		        55*seq_067_mvl/mxv
	BYTE	W03
	BYTE		        48*seq_067_mvl/mxv
	BYTE	W03
	BYTE		        41*seq_067_mvl/mxv
	BYTE	W03
	BYTE		        34*seq_067_mvl/mxv
	BYTE	W03
	BYTE		        25*seq_067_mvl/mxv
	BYTE	W03
	BYTE		EOT
	BYTE	W04
	BYTE		VOL     75*seq_067_mvl/mxv
	BYTE	W08
	BYTE		N24     Gn3   v116
	BYTE	W24
	BYTE		        Dn3   v108
	BYTE	W24
	BYTE		        Fn3   v104
	BYTE	W24
	BYTE		TIE     En3   v100
	BYTE	W12
	BYTE		VOL     76*seq_067_mvl/mxv
	BYTE	W06
	BYTE		        76*seq_067_mvl/mxv
	BYTE	W78
	BYTE	W24
	BYTE		        76*seq_067_mvl/mxv
	BYTE	W06
	BYTE		        76*seq_067_mvl/mxv
	BYTE	W60
	BYTE		        77*seq_067_mvl/mxv
	BYTE	W06
	BYTE		        77*seq_067_mvl/mxv
	BYTE	W12
	BYTE		        76*seq_067_mvl/mxv
	BYTE	W12
	BYTE		        75*seq_067_mvl/mxv
	BYTE	W06
	BYTE		        74*seq_067_mvl/mxv
	BYTE	W06
	BYTE		        73*seq_067_mvl/mxv
	BYTE	W06
	BYTE		        71*seq_067_mvl/mxv
	BYTE	W06
	BYTE		        69*seq_067_mvl/mxv
	BYTE	W06
	BYTE		        67*seq_067_mvl/mxv
	BYTE	W06
	BYTE		        64*seq_067_mvl/mxv
	BYTE	W06
	BYTE		        62*seq_067_mvl/mxv
	BYTE	W06
	BYTE		        59*seq_067_mvl/mxv
	BYTE	W06
	BYTE		        56*seq_067_mvl/mxv
	BYTE	W06
	BYTE		        52*seq_067_mvl/mxv
	BYTE	W06
	BYTE		        49*seq_067_mvl/mxv
	BYTE	W06
	BYTE		        45*seq_067_mvl/mxv
	BYTE	W06
	BYTE		        40*seq_067_mvl/mxv
	BYTE	W06
	BYTE		        35*seq_067_mvl/mxv
	BYTE	W06
	BYTE		        30*seq_067_mvl/mxv
	BYTE	W06
	BYTE		        25*seq_067_mvl/mxv
	BYTE	W06
	BYTE		        20*seq_067_mvl/mxv
	BYTE	W06
	BYTE		        14*seq_067_mvl/mxv
	BYTE	W06
	BYTE		        8*seq_067_mvl/mxv
	BYTE	W06
	BYTE		EOT
	BYTE	W48
	BYTE	W54
	BYTE	FINE

//*********************** Track 04 ***********************//

seq_067_3:
	BYTE	KEYSH   seq_067_key+0
	BYTE		VOICE   57
	BYTE	W01
	BYTE		VOL     62*seq_067_mvl/mxv
	BYTE	W01
	BYTE		PAN     c_v-24
	BYTE	W01
	BYTE	W96
	BYTE	W96
	BYTE	W96
	BYTE	W96
	BYTE	W96
	BYTE	W96
	BYTE	W96
	BYTE	W96
	BYTE	W96
	BYTE	W96
	BYTE	W96
	BYTE	W92
	BYTE	W01
	BYTE		VOL     47*seq_067_mvl/mxv
	BYTE	W01
	BYTE	W02
	BYTE		        47*seq_067_mvl/mxv
	BYTE		N48     En3   v040
	BYTE	W03
	BYTE		VOL     52*seq_067_mvl/mxv
	BYTE	W03
	BYTE		        62*seq_067_mvl/mxv
	BYTE	W32
	BYTE	W01
	BYTE		        59*seq_067_mvl/mxv
	BYTE	W03
	BYTE		        56*seq_067_mvl/mxv
	BYTE	W03
	BYTE		        52*seq_067_mvl/mxv
	BYTE	W03
	BYTE		        62*seq_067_mvl/mxv
	BYTE		N48     Dn3   v044
	BYTE	W36
	BYTE	W03
	BYTE		VOL     59*seq_067_mvl/mxv
	BYTE	W03
	BYTE		        56*seq_067_mvl/mxv
	BYTE	W03
	BYTE		        52*seq_067_mvl/mxv
	BYTE	W03
	BYTE		VOL     62*seq_067_mvl/mxv
	BYTE		N48     Cn3   v052
	BYTE	W36
	BYTE	W03
	BYTE		VOL     59*seq_067_mvl/mxv
	BYTE	W03
	BYTE		        56*seq_067_mvl/mxv
	BYTE	W03
	BYTE		        52*seq_067_mvl/mxv
	BYTE	W03
	BYTE		        62*seq_067_mvl/mxv
	BYTE		N48     Bn2   v048
	BYTE	W36
	BYTE	W03
	BYTE		VOL     59*seq_067_mvl/mxv
	BYTE	W03
	BYTE		        56*seq_067_mvl/mxv
	BYTE	W03
	BYTE		        52*seq_067_mvl/mxv
	BYTE	W03
	BYTE	PEND
	BYTE		        54*seq_067_mvl/mxv
	BYTE		N48     An2   v052
	BYTE	W06
	BYTE		VOL     55*seq_067_mvl/mxv
	BYTE	W06
	BYTE		        56*seq_067_mvl/mxv
	BYTE	W03
	BYTE		        56*seq_067_mvl/mxv
	BYTE	W03
	BYTE		        57*seq_067_mvl/mxv
	BYTE	W03
	BYTE		        58*seq_067_mvl/mxv
	BYTE	W03
	BYTE		        59*seq_067_mvl/mxv
	BYTE	W03
	BYTE		        61*seq_067_mvl/mxv
	BYTE	W03
	BYTE		        62*seq_067_mvl/mxv
	BYTE	W03
	BYTE		        64*seq_067_mvl/mxv
	BYTE	W03
	BYTE		        66*seq_067_mvl/mxv
	BYTE	W06
	BYTE		        65*seq_067_mvl/mxv
	BYTE	W03
	BYTE		        63*seq_067_mvl/mxv
	BYTE	W03
	BYTE		        62*seq_067_mvl/mxv
	BYTE		N24     Dn3 
	BYTE	W24
	BYTE		N23     Cn3   v056
	BYTE	W24
	BYTE		N48     Cn3   v048
	BYTE	W36
	BYTE	W03
	BYTE		VOL     59*seq_067_mvl/mxv
	BYTE	W03
	BYTE		        56*seq_067_mvl/mxv
	BYTE	W03
	BYTE		        52*seq_067_mvl/mxv
	BYTE	W03
	BYTE		        62*seq_067_mvl/mxv
	BYTE		N48     Bn2   v040
	BYTE	W30
	BYTE		VOL     61*seq_067_mvl/mxv
	BYTE	W03
	BYTE		        58*seq_067_mvl/mxv
	BYTE	W03
	BYTE		        55*seq_067_mvl/mxv
	BYTE	W03
	BYTE		        52*seq_067_mvl/mxv
	BYTE	W03
	BYTE		        48*seq_067_mvl/mxv
	BYTE	W03
	BYTE		        43*seq_067_mvl/mxv
	BYTE	W03
	BYTE	PEND
	BYTE		        62*seq_067_mvl/mxv
	BYTE		N48     Dn3   v044
	BYTE	W36
	BYTE	W03
	BYTE		VOL     59*seq_067_mvl/mxv
	BYTE	W03
	BYTE		        56*seq_067_mvl/mxv
	BYTE	W03
	BYTE		        52*seq_067_mvl/mxv
	BYTE	W03
	BYTE		        62*seq_067_mvl/mxv
	BYTE		N48     Cs3 
	BYTE	W36
	BYTE	W03
	BYTE		VOL     59*seq_067_mvl/mxv
	BYTE	W03
	BYTE		        56*seq_067_mvl/mxv
	BYTE	W03
	BYTE		        52*seq_067_mvl/mxv
	BYTE	W03
	BYTE		VOL     62*seq_067_mvl/mxv
	BYTE		N48     Dn3   v048
	BYTE	W12
	BYTE		VOL     62*seq_067_mvl/mxv
	BYTE	W03
	BYTE		        63*seq_067_mvl/mxv
	BYTE	W03
	BYTE		        64*seq_067_mvl/mxv
	BYTE	W03
	BYTE		        64*seq_067_mvl/mxv
	BYTE	W03
	BYTE		        66*seq_067_mvl/mxv
	BYTE	W06
	BYTE		        66*seq_067_mvl/mxv
	BYTE	W03
	BYTE		        66*seq_067_mvl/mxv
	BYTE	W03
	BYTE		        65*seq_067_mvl/mxv
	BYTE	W03
	BYTE		        64*seq_067_mvl/mxv
	BYTE	W03
	BYTE		        62*seq_067_mvl/mxv
	BYTE	W03
	BYTE		        61*seq_067_mvl/mxv
	BYTE	W03
	BYTE		        62*seq_067_mvl/mxv
	BYTE		N48     En3 
	BYTE	W36
	BYTE	W03
	BYTE		VOL     59*seq_067_mvl/mxv
	BYTE	W03
	BYTE		        56*seq_067_mvl/mxv
	BYTE	W03
	BYTE		        52*seq_067_mvl/mxv
	BYTE	W03
	BYTE	PEND
	BYTE		        62*seq_067_mvl/mxv
	BYTE		N48     Fn3 
	BYTE	W36
	BYTE	W03
	BYTE		VOL     59*seq_067_mvl/mxv
	BYTE	W03
	BYTE		        56*seq_067_mvl/mxv
	BYTE	W03
	BYTE		        52*seq_067_mvl/mxv
	BYTE	W03
	BYTE		        62*seq_067_mvl/mxv
	BYTE		N48     Fs3   v040
	BYTE	W48
	BYTE		N96     Gn3   v040
	BYTE	W21
	BYTE		VOL     61*seq_067_mvl/mxv
	BYTE	W06
	BYTE		        61*seq_067_mvl/mxv
	BYTE	W03
	BYTE		        60*seq_067_mvl/mxv
	BYTE	W06
	BYTE		        58*seq_067_mvl/mxv
	BYTE	W06
	BYTE		        56*seq_067_mvl/mxv
	BYTE	W03
	BYTE		        54*seq_067_mvl/mxv
	BYTE	W03
	BYTE		        52*seq_067_mvl/mxv
	BYTE	W03
	BYTE		        51*seq_067_mvl/mxv
	BYTE	W03
	BYTE		        48*seq_067_mvl/mxv
	BYTE	W03
	BYTE		        45*seq_067_mvl/mxv
	BYTE	W03
	BYTE		        43*seq_067_mvl/mxv
	BYTE	W03
	BYTE		        40*seq_067_mvl/mxv
	BYTE	W03
	BYTE		        37*seq_067_mvl/mxv
	BYTE	W03
	BYTE		        34*seq_067_mvl/mxv
	BYTE	W03
	BYTE		        30*seq_067_mvl/mxv
	BYTE	W03
	BYTE		        27*seq_067_mvl/mxv
	BYTE	W03
	BYTE		        22*seq_067_mvl/mxv
	BYTE	W03
	BYTE		        18*seq_067_mvl/mxv
	BYTE	W03
	BYTE		        14*seq_067_mvl/mxv
	BYTE	W03
	BYTE		        10*seq_067_mvl/mxv
	BYTE	W03
	BYTE		        5*seq_067_mvl/mxv
	BYTE	W06
	BYTE	PEND
	BYTE		        47*seq_067_mvl/mxv
	BYTE		N48     En3   v036
	BYTE	W06
	BYTE		VOL     62*seq_067_mvl/mxv
	BYTE	W32
	BYTE	W01
	BYTE		        59*seq_067_mvl/mxv
	BYTE	W03
	BYTE		        56*seq_067_mvl/mxv
	BYTE	W03
	BYTE		        52*seq_067_mvl/mxv
	BYTE	W03
	BYTE		        62*seq_067_mvl/mxv
	BYTE		N48     Dn3   v040
	BYTE	W36
	BYTE	W03
	BYTE		VOL     59*seq_067_mvl/mxv
	BYTE	W03
	BYTE		        56*seq_067_mvl/mxv
	BYTE	W03
	BYTE		        52*seq_067_mvl/mxv
	BYTE	W03
	BYTE		        62*seq_067_mvl/mxv
	BYTE		N48     Cn3   v048
	BYTE	W36
	BYTE	W03
	BYTE		VOL     59*seq_067_mvl/mxv
	BYTE	W03
	BYTE		        56*seq_067_mvl/mxv
	BYTE	W03
	BYTE		        52*seq_067_mvl/mxv
	BYTE	W03
	BYTE		        62*seq_067_mvl/mxv
	BYTE		N48     Bn2 
	BYTE	W36
	BYTE	W03
	BYTE		VOL     59*seq_067_mvl/mxv
	BYTE	W03
	BYTE		        56*seq_067_mvl/mxv
	BYTE	W03
	BYTE		        52*seq_067_mvl/mxv
	BYTE	W03
	BYTE		        54*seq_067_mvl/mxv
	BYTE		N48     An2   v052
	BYTE	W06
	BYTE		VOL     55*seq_067_mvl/mxv
	BYTE	W06
	BYTE		        56*seq_067_mvl/mxv
	BYTE	W03
	BYTE		        56*seq_067_mvl/mxv
	BYTE	W03
	BYTE		        57*seq_067_mvl/mxv
	BYTE	W03
	BYTE		        58*seq_067_mvl/mxv
	BYTE	W03
	BYTE		        59*seq_067_mvl/mxv
	BYTE	W03
	BYTE		        61*seq_067_mvl/mxv
	BYTE	W03
	BYTE		        62*seq_067_mvl/mxv
	BYTE	W03
	BYTE		        64*seq_067_mvl/mxv
	BYTE	W03
	BYTE		        66*seq_067_mvl/mxv
	BYTE	W06
	BYTE		        65*seq_067_mvl/mxv
	BYTE	W03
	BYTE		        63*seq_067_mvl/mxv
	BYTE	W03
	BYTE		        62*seq_067_mvl/mxv
	BYTE		N24     Dn3 
	BYTE	W24
	BYTE		N23     Cn3 
	BYTE	W24
	BYTE	PATT
	 POIN2	seq_067_3 + 0x7C
	BYTE		VOL     62*seq_067_mvl/mxv
	BYTE		N48     Dn3   v040
	BYTE	W36
	BYTE	W03
	BYTE		VOL     59*seq_067_mvl/mxv
	BYTE	W03
	BYTE		        56*seq_067_mvl/mxv
	BYTE	W03
	BYTE		        52*seq_067_mvl/mxv
	BYTE	W03
	BYTE		        62*seq_067_mvl/mxv
	BYTE		N48     Cs3 
	BYTE	W36
	BYTE	W03
	BYTE		VOL     59*seq_067_mvl/mxv
	BYTE	W03
	BYTE		        56*seq_067_mvl/mxv
	BYTE	W03
	BYTE		        52*seq_067_mvl/mxv
	BYTE	W03
	BYTE		        62*seq_067_mvl/mxv
	BYTE		N48     Dn3   v044
	BYTE	W12
	BYTE		VOL     62*seq_067_mvl/mxv
	BYTE	W03
	BYTE		        63*seq_067_mvl/mxv
	BYTE	W03
	BYTE		        64*seq_067_mvl/mxv
	BYTE	W03
	BYTE		        64*seq_067_mvl/mxv
	BYTE	W03
	BYTE		        66*seq_067_mvl/mxv
	BYTE	W06
	BYTE		        66*seq_067_mvl/mxv
	BYTE	W03
	BYTE		        66*seq_067_mvl/mxv
	BYTE	W03
	BYTE		        65*seq_067_mvl/mxv
	BYTE	W03
	BYTE		        64*seq_067_mvl/mxv
	BYTE	W03
	BYTE		        62*seq_067_mvl/mxv
	BYTE	W03
	BYTE		        61*seq_067_mvl/mxv
	BYTE	W03
	BYTE		        62*seq_067_mvl/mxv
	BYTE		N48     En3 
	BYTE	W36
	BYTE	W03
	BYTE		VOL     59*seq_067_mvl/mxv
	BYTE	W03
	BYTE		        56*seq_067_mvl/mxv
	BYTE	W03
	BYTE		        52*seq_067_mvl/mxv
	BYTE	W03
	BYTE		        62*seq_067_mvl/mxv
	BYTE		N48     Fn3 
	BYTE	W36
	BYTE	W03
	BYTE		VOL     59*seq_067_mvl/mxv
	BYTE	W03
	BYTE		        56*seq_067_mvl/mxv
	BYTE	W03
	BYTE		        52*seq_067_mvl/mxv
	BYTE	W03
	BYTE		        62*seq_067_mvl/mxv
	BYTE		N24     An3   v036
	BYTE	W24
	BYTE		        Fs3   v040
	BYTE	W24
	BYTE	W01
	BYTE		N92     Gn3   v036
	BYTE	W20
	BYTE		VOL     61*seq_067_mvl/mxv
	BYTE	W12
	BYTE		        59*seq_067_mvl/mxv
	BYTE	W06
	BYTE		        57*seq_067_mvl/mxv
	BYTE	W03
	BYTE		        56*seq_067_mvl/mxv
	BYTE	W03
	BYTE		        54*seq_067_mvl/mxv
	BYTE	W03
	BYTE		        52*seq_067_mvl/mxv
	BYTE	W03
	BYTE		        51*seq_067_mvl/mxv
	BYTE	W03
	BYTE		        48*seq_067_mvl/mxv
	BYTE	W03
	BYTE		        45*seq_067_mvl/mxv
	BYTE	W03
	BYTE		        43*seq_067_mvl/mxv
	BYTE	W03
	BYTE		        40*seq_067_mvl/mxv
	BYTE	W03
	BYTE		        37*seq_067_mvl/mxv
	BYTE	W03
	BYTE		        34*seq_067_mvl/mxv
	BYTE	W03
	BYTE		        30*seq_067_mvl/mxv
	BYTE	W03
	BYTE		        27*seq_067_mvl/mxv
	BYTE	W03
	BYTE		        22*seq_067_mvl/mxv
	BYTE	W03
	BYTE		        18*seq_067_mvl/mxv
	BYTE	W03
	BYTE		        14*seq_067_mvl/mxv
	BYTE	W03
	BYTE		        10*seq_067_mvl/mxv
	BYTE	W03
	BYTE		        5*seq_067_mvl/mxv
	BYTE	W06
	BYTE		        62*seq_067_mvl/mxv
	BYTE		N96     Fn3   v040
	BYTE	W72
	BYTE		VOL     58*seq_067_mvl/mxv
	BYTE	W06
	BYTE		        55*seq_067_mvl/mxv
	BYTE	W06
	BYTE		        51*seq_067_mvl/mxv
	BYTE	W06
	BYTE		        44*seq_067_mvl/mxv
	BYTE	W06
	BYTE		        62*seq_067_mvl/mxv
	BYTE		N96     En3   v036
	BYTE	W42
	BYTE		VOL     62*seq_067_mvl/mxv
	BYTE	W06
	BYTE		        61*seq_067_mvl/mxv
	BYTE	W06
	BYTE		        61*seq_067_mvl/mxv
	BYTE	W03
	BYTE		        60*seq_067_mvl/mxv
	BYTE	W03
	BYTE		        59*seq_067_mvl/mxv
	BYTE	W03
	BYTE		        57*seq_067_mvl/mxv
	BYTE	W03
	BYTE		        55*seq_067_mvl/mxv
	BYTE	W03
	BYTE		        52*seq_067_mvl/mxv
	BYTE	W03
	BYTE		        49*seq_067_mvl/mxv
	BYTE	W03
	BYTE		        47*seq_067_mvl/mxv
	BYTE	W03
	BYTE		        43*seq_067_mvl/mxv
	BYTE	W03
	BYTE		        39*seq_067_mvl/mxv
	BYTE	W03
	BYTE		        35*seq_067_mvl/mxv
	BYTE	W03
	BYTE		        30*seq_067_mvl/mxv
	BYTE	W03
	BYTE		        25*seq_067_mvl/mxv
	BYTE	W03
	BYTE		        20*seq_067_mvl/mxv
	BYTE	W03
	BYTE		        62*seq_067_mvl/mxv
	BYTE		N48     Dn3   v040
	BYTE	W48
	BYTE		        En3 
	BYTE	W48
	BYTE		N96     Fn3 
	BYTE	W54
	BYTE		VOL     61*seq_067_mvl/mxv
	BYTE	W03
	BYTE		        61*seq_067_mvl/mxv
	BYTE	W03
	BYTE		        60*seq_067_mvl/mxv
	BYTE	W03
	BYTE		        59*seq_067_mvl/mxv
	BYTE	W03
	BYTE		        57*seq_067_mvl/mxv
	BYTE	W03
	BYTE		        55*seq_067_mvl/mxv
	BYTE	W03
	BYTE		        52*seq_067_mvl/mxv
	BYTE	W03
	BYTE		        49*seq_067_mvl/mxv
	BYTE	W03
	BYTE		        46*seq_067_mvl/mxv
	BYTE	W03
	BYTE		        42*seq_067_mvl/mxv
	BYTE	W03
	BYTE		        37*seq_067_mvl/mxv
	BYTE	W03
	BYTE		        32*seq_067_mvl/mxv
	BYTE	W03
	BYTE		        27*seq_067_mvl/mxv
	BYTE	W03
	BYTE		        22*seq_067_mvl/mxv
	BYTE	W03
	BYTE		        62*seq_067_mvl/mxv
	BYTE		N96     Gn3   v036
	BYTE	W66
	BYTE		VOL     61*seq_067_mvl/mxv
	BYTE	W06
	BYTE		        61*seq_067_mvl/mxv
	BYTE	W06
	BYTE		        58*seq_067_mvl/mxv
	BYTE	W06
	BYTE		        54*seq_067_mvl/mxv
	BYTE	W06
	BYTE		        49*seq_067_mvl/mxv
	BYTE	W06
	BYTE		        62*seq_067_mvl/mxv
	BYTE		N96     Fn3   v040
	BYTE	W66
	BYTE		VOL     61*seq_067_mvl/mxv
	BYTE	W06
	BYTE		        61*seq_067_mvl/mxv
	BYTE	W06
	BYTE		        58*seq_067_mvl/mxv
	BYTE	W06
	BYTE		        54*seq_067_mvl/mxv
	BYTE	W06
	BYTE		        49*seq_067_mvl/mxv
	BYTE	W06
	BYTE		        62*seq_067_mvl/mxv
	BYTE		N48     Ds3 
	BYTE	W48
	BYTE		        Fn3 
	BYTE	W48
	BYTE		N92     Gn3   v032
	BYTE	W44
	BYTE	W01
	BYTE		VOL     60*seq_067_mvl/mxv
	BYTE	W03
	BYTE		        58*seq_067_mvl/mxv
	BYTE	W03
	BYTE		        56*seq_067_mvl/mxv
	BYTE	W03
	BYTE		        54*seq_067_mvl/mxv
	BYTE	W03
	BYTE		        51*seq_067_mvl/mxv
	BYTE	W03
	BYTE		        49*seq_067_mvl/mxv
	BYTE	W03
	BYTE		        46*seq_067_mvl/mxv
	BYTE	W03
	BYTE		        43*seq_067_mvl/mxv
	BYTE	W03
	BYTE		        40*seq_067_mvl/mxv
	BYTE	W03
	BYTE		        37*seq_067_mvl/mxv
	BYTE	W03
	BYTE		        33*seq_067_mvl/mxv
	BYTE	W03
	BYTE		        29*seq_067_mvl/mxv
	BYTE	W03
	BYTE		        25*seq_067_mvl/mxv
	BYTE	W03
	BYTE		        20*seq_067_mvl/mxv
	BYTE	W03
	BYTE		        16*seq_067_mvl/mxv
	BYTE	W03
	BYTE		        11*seq_067_mvl/mxv
	BYTE	W03
	BYTE		        6*seq_067_mvl/mxv
	BYTE	W03
	BYTE		        62*seq_067_mvl/mxv
	BYTE		N48     En3   v040
	BYTE	W36
	BYTE	W03
	BYTE		VOL     59*seq_067_mvl/mxv
	BYTE	W03
	BYTE		        56*seq_067_mvl/mxv
	BYTE	W03
	BYTE		        52*seq_067_mvl/mxv
	BYTE	W03
	BYTE		        62*seq_067_mvl/mxv
	BYTE		N48     Dn3   v044
	BYTE	W36
	BYTE	W03
	BYTE		VOL     59*seq_067_mvl/mxv
	BYTE	W03
	BYTE		        56*seq_067_mvl/mxv
	BYTE	W03
	BYTE		        52*seq_067_mvl/mxv
	BYTE	W03
	BYTE	PATT
	 POIN2	seq_067_3 + 0x3A
	BYTE		VOL     54*seq_067_mvl/mxv
	BYTE		N48     An2   v052
	BYTE	W06
	BYTE		VOL     55*seq_067_mvl/mxv
	BYTE	W06
	BYTE		        56*seq_067_mvl/mxv
	BYTE	W03
	BYTE		        56*seq_067_mvl/mxv
	BYTE	W03
	BYTE		        57*seq_067_mvl/mxv
	BYTE	W03
	BYTE		        58*seq_067_mvl/mxv
	BYTE	W03
	BYTE		        59*seq_067_mvl/mxv
	BYTE	W03
	BYTE		        61*seq_067_mvl/mxv
	BYTE	W03
	BYTE		        62*seq_067_mvl/mxv
	BYTE	W03
	BYTE		        64*seq_067_mvl/mxv
	BYTE	W03
	BYTE		        66*seq_067_mvl/mxv
	BYTE	W06
	BYTE		        65*seq_067_mvl/mxv
	BYTE	W03
	BYTE		        63*seq_067_mvl/mxv
	BYTE	W03
	BYTE		        62*seq_067_mvl/mxv
	BYTE		N24     Dn3   v056
	BYTE	W24
	BYTE		N23     Cn3 
	BYTE	W24
	BYTE	PEND
	BYTE	PATT
	 POIN2	seq_067_3 + 0x7C
	BYTE		VOL     62*seq_067_mvl/mxv
	BYTE		N48     Dn3   v048
	BYTE	W36
	BYTE	W03
	BYTE		VOL     59*seq_067_mvl/mxv
	BYTE	W03
	BYTE		        56*seq_067_mvl/mxv
	BYTE	W03
	BYTE		        52*seq_067_mvl/mxv
	BYTE	W03
	BYTE		        62*seq_067_mvl/mxv
	BYTE		N48     Cs3   v044
	BYTE	W36
	BYTE	W03
	BYTE		VOL     59*seq_067_mvl/mxv
	BYTE	W03
	BYTE		        56*seq_067_mvl/mxv
	BYTE	W03
	BYTE		        52*seq_067_mvl/mxv
	BYTE	W03
	BYTE	PEND
	BYTE	PATT
	 POIN2	seq_067_3 + 0xB4
	BYTE		VOL     62*seq_067_mvl/mxv
	BYTE		N48     Fn3   v048
	BYTE	W36
	BYTE	W03
	BYTE		VOL     59*seq_067_mvl/mxv
	BYTE	W03
	BYTE		        56*seq_067_mvl/mxv
	BYTE	W03
	BYTE		        52*seq_067_mvl/mxv
	BYTE	W03
	BYTE		        62*seq_067_mvl/mxv
	BYTE		N48     Fs3   v044
	BYTE	W48
	BYTE	PEND
	BYTE	PATT
	 POIN2	seq_067_3 + 0xEF
	BYTE		VOL     62*seq_067_mvl/mxv
	BYTE		N48     En3   v040
	BYTE	W36
	BYTE	W03
	BYTE		VOL     59*seq_067_mvl/mxv
	BYTE	W03
	BYTE		        56*seq_067_mvl/mxv
	BYTE	W03
	BYTE		        52*seq_067_mvl/mxv
	BYTE	W03
	BYTE		        62*seq_067_mvl/mxv
	BYTE		N48     Dn3   v048
	BYTE	W36
	BYTE	W03
	BYTE		VOL     59*seq_067_mvl/mxv
	BYTE	W03
	BYTE		        56*seq_067_mvl/mxv
	BYTE	W03
	BYTE		        52*seq_067_mvl/mxv
	BYTE	W03
	BYTE		VOL     62*seq_067_mvl/mxv
	BYTE		N48     Cn3   v052
	BYTE	W36
	BYTE	W03
	BYTE		VOL     59*seq_067_mvl/mxv
	BYTE	W03
	BYTE		        56*seq_067_mvl/mxv
	BYTE	W03
	BYTE		        52*seq_067_mvl/mxv
	BYTE	W03
	BYTE		        62*seq_067_mvl/mxv
	BYTE		N48     Bn2 
	BYTE	W36
	BYTE	W03
	BYTE		VOL     59*seq_067_mvl/mxv
	BYTE	W03
	BYTE		        56*seq_067_mvl/mxv
	BYTE	W03
	BYTE		        52*seq_067_mvl/mxv
	BYTE	W03
	BYTE	PEND
	BYTE	PATT
	 POIN2	seq_067_3 + 0x2CA
	BYTE	PATT
	 POIN2	seq_067_3 + 0x7C
	BYTE	PATT
	 POIN2	seq_067_3 + 0x2F7
	BYTE	PATT
	 POIN2	seq_067_3 + 0xB4
	BYTE		VOL     62*seq_067_mvl/mxv
	BYTE		N48     Fn3   v048
	BYTE	W36
	BYTE	W03
	BYTE		VOL     59*seq_067_mvl/mxv
	BYTE	W03
	BYTE		        56*seq_067_mvl/mxv
	BYTE	W03
	BYTE		        52*seq_067_mvl/mxv
	BYTE	W03
	BYTE		        62*seq_067_mvl/mxv
	BYTE		N24     An3   v040
	BYTE	W24
	BYTE		        Fs3   v044
	BYTE	W24
	BYTE	PEND
	BYTE		N96     Gn3   v040
	BYTE	W21
	BYTE		VOL     61*seq_067_mvl/mxv
	BYTE	W12
	BYTE		        59*seq_067_mvl/mxv
	BYTE	W06
	BYTE		        57*seq_067_mvl/mxv
	BYTE	W03
	BYTE		        56*seq_067_mvl/mxv
	BYTE	W03
	BYTE		        54*seq_067_mvl/mxv
	BYTE	W03
	BYTE		        52*seq_067_mvl/mxv
	BYTE	W03
	BYTE		        51*seq_067_mvl/mxv
	BYTE	W03
	BYTE		        48*seq_067_mvl/mxv
	BYTE	W03
	BYTE		        45*seq_067_mvl/mxv
	BYTE	W03
	BYTE		        43*seq_067_mvl/mxv
	BYTE	W03
	BYTE		        40*seq_067_mvl/mxv
	BYTE	W03
	BYTE		        37*seq_067_mvl/mxv
	BYTE	W03
	BYTE		        34*seq_067_mvl/mxv
	BYTE	W03
	BYTE		        30*seq_067_mvl/mxv
	BYTE	W03
	BYTE		        27*seq_067_mvl/mxv
	BYTE	W03
	BYTE		        22*seq_067_mvl/mxv
	BYTE	W03
	BYTE		        18*seq_067_mvl/mxv
	BYTE	W03
	BYTE		        14*seq_067_mvl/mxv
	BYTE	W03
	BYTE		        10*seq_067_mvl/mxv
	BYTE	W03
	BYTE		        5*seq_067_mvl/mxv
	BYTE	W06
	BYTE	PEND
	BYTE		VOL     62*seq_067_mvl/mxv
	BYTE		N96     Fn3   v048
	BYTE	W72
	BYTE		VOL     58*seq_067_mvl/mxv
	BYTE	W06
	BYTE		        55*seq_067_mvl/mxv
	BYTE	W06
	BYTE		        51*seq_067_mvl/mxv
	BYTE	W06
	BYTE		        44*seq_067_mvl/mxv
	BYTE	W06
	BYTE	PEND
	BYTE		VOL     62*seq_067_mvl/mxv
	BYTE		N96     En3   v040
	BYTE	W42
	BYTE		VOL     62*seq_067_mvl/mxv
	BYTE	W06
	BYTE		        61*seq_067_mvl/mxv
	BYTE	W06
	BYTE		        61*seq_067_mvl/mxv
	BYTE	W03
	BYTE		        60*seq_067_mvl/mxv
	BYTE	W03
	BYTE		        59*seq_067_mvl/mxv
	BYTE	W03
	BYTE		        57*seq_067_mvl/mxv
	BYTE	W03
	BYTE		        55*seq_067_mvl/mxv
	BYTE	W03
	BYTE		        52*seq_067_mvl/mxv
	BYTE	W03
	BYTE		        49*seq_067_mvl/mxv
	BYTE	W03
	BYTE		        47*seq_067_mvl/mxv
	BYTE	W03
	BYTE		        43*seq_067_mvl/mxv
	BYTE	W03
	BYTE		        39*seq_067_mvl/mxv
	BYTE	W03
	BYTE		        35*seq_067_mvl/mxv
	BYTE	W03
	BYTE		        30*seq_067_mvl/mxv
	BYTE	W03
	BYTE		        25*seq_067_mvl/mxv
	BYTE	W03
	BYTE		        20*seq_067_mvl/mxv
	BYTE	W03
	BYTE	PEND
	BYTE		VOL     62*seq_067_mvl/mxv
	BYTE		N48     Dn3   v048
	BYTE	W48
	BYTE		        En3 
	BYTE	W48
	BYTE	PEND
	BYTE		N96     Fn3   v052
	BYTE	W54
	BYTE		VOL     61*seq_067_mvl/mxv
	BYTE	W03
	BYTE		        61*seq_067_mvl/mxv
	BYTE	W03
	BYTE		        60*seq_067_mvl/mxv
	BYTE	W03
	BYTE		        59*seq_067_mvl/mxv
	BYTE	W03
	BYTE		        57*seq_067_mvl/mxv
	BYTE	W03
	BYTE		        55*seq_067_mvl/mxv
	BYTE	W03
	BYTE		        52*seq_067_mvl/mxv
	BYTE	W03
	BYTE		        49*seq_067_mvl/mxv
	BYTE	W03
	BYTE		        46*seq_067_mvl/mxv
	BYTE	W03
	BYTE		        42*seq_067_mvl/mxv
	BYTE	W03
	BYTE		        37*seq_067_mvl/mxv
	BYTE	W03
	BYTE		        32*seq_067_mvl/mxv
	BYTE	W03
	BYTE		        27*seq_067_mvl/mxv
	BYTE	W03
	BYTE		        22*seq_067_mvl/mxv
	BYTE	W03
	BYTE	PEND
	BYTE		VOL     62*seq_067_mvl/mxv
	BYTE		N96     Gn3   v044
	BYTE	W66
	BYTE		VOL     61*seq_067_mvl/mxv
	BYTE	W06
	BYTE		        61*seq_067_mvl/mxv
	BYTE	W06
	BYTE		        58*seq_067_mvl/mxv
	BYTE	W06
	BYTE		        54*seq_067_mvl/mxv
	BYTE	W06
	BYTE		        49*seq_067_mvl/mxv
	BYTE	W06
	BYTE	PEND
	BYTE		        62*seq_067_mvl/mxv
	BYTE		N96     Fn3   v048
	BYTE	W66
	BYTE		VOL     61*seq_067_mvl/mxv
	BYTE	W06
	BYTE		        61*seq_067_mvl/mxv
	BYTE	W06
	BYTE		        58*seq_067_mvl/mxv
	BYTE	W06
	BYTE		        54*seq_067_mvl/mxv
	BYTE	W06
	BYTE		        49*seq_067_mvl/mxv
	BYTE	W06
	BYTE		        62*seq_067_mvl/mxv
	BYTE		N48     Ds3 
	BYTE	W48
	BYTE		        Fn3 
	BYTE	W48
	BYTE		N92     Gn3   v040
	BYTE	W44
	BYTE	W01
	BYTE		VOL     60*seq_067_mvl/mxv
	BYTE	W03
	BYTE		        58*seq_067_mvl/mxv
	BYTE	W03
	BYTE		        56*seq_067_mvl/mxv
	BYTE	W03
	BYTE		        54*seq_067_mvl/mxv
	BYTE	W03
	BYTE		        51*seq_067_mvl/mxv
	BYTE	W03
	BYTE		        49*seq_067_mvl/mxv
	BYTE	W03
	BYTE		        46*seq_067_mvl/mxv
	BYTE	W03
	BYTE		        43*seq_067_mvl/mxv
	BYTE	W03
	BYTE		        40*seq_067_mvl/mxv
	BYTE	W03
	BYTE		        37*seq_067_mvl/mxv
	BYTE	W03
	BYTE		        33*seq_067_mvl/mxv
	BYTE	W03
	BYTE		        29*seq_067_mvl/mxv
	BYTE	W03
	BYTE		        25*seq_067_mvl/mxv
	BYTE	W03
	BYTE		        20*seq_067_mvl/mxv
	BYTE	W03
	BYTE		        16*seq_067_mvl/mxv
	BYTE	W09
	BYTE		        47*seq_067_mvl/mxv
	BYTE		N48     En3 
	BYTE	W03
	BYTE		VOL     52*seq_067_mvl/mxv
	BYTE	W03
	BYTE		        62*seq_067_mvl/mxv
	BYTE	W32
	BYTE	W01
	BYTE		        59*seq_067_mvl/mxv
	BYTE	W03
	BYTE		        56*seq_067_mvl/mxv
	BYTE	W03
	BYTE		        52*seq_067_mvl/mxv
	BYTE	W03
	BYTE		        62*seq_067_mvl/mxv
	BYTE		N48     Dn3   v048
	BYTE	W36
	BYTE	W03
	BYTE		VOL     59*seq_067_mvl/mxv
	BYTE	W03
	BYTE		        56*seq_067_mvl/mxv
	BYTE	W03
	BYTE		        52*seq_067_mvl/mxv
	BYTE	W03
	BYTE	PATT
	 POIN2	seq_067_3 + 0x3A
	BYTE	PATT
	 POIN2	seq_067_3 + 0x2CA
	BYTE	PATT
	 POIN2	seq_067_3 + 0x7C
	BYTE	PATT
	 POIN2	seq_067_3 + 0x2F7
	BYTE	PATT
	 POIN2	seq_067_3 + 0xB4
	BYTE	PATT
	 POIN2	seq_067_3 + 0x318
	BYTE	PATT
	 POIN2	seq_067_3 + 0xEF
	BYTE		VOL     47*seq_067_mvl/mxv
	BYTE		N48     En3   v040
	BYTE	W06
	BYTE		VOL     62*seq_067_mvl/mxv
	BYTE	W32
	BYTE	W01
	BYTE		        59*seq_067_mvl/mxv
	BYTE	W03
	BYTE		        56*seq_067_mvl/mxv
	BYTE	W03
	BYTE		        52*seq_067_mvl/mxv
	BYTE	W03
	BYTE		        62*seq_067_mvl/mxv
	BYTE		N48     Dn3   v048
	BYTE	W36
	BYTE	W03
	BYTE		VOL     59*seq_067_mvl/mxv
	BYTE	W03
	BYTE		        56*seq_067_mvl/mxv
	BYTE	W03
	BYTE		        52*seq_067_mvl/mxv
	BYTE	W03
	BYTE	PATT
	 POIN2	seq_067_3 + 0x34C
	BYTE	PATT
	 POIN2	seq_067_3 + 0x2CA
	BYTE	PATT
	 POIN2	seq_067_3 + 0x7C
	BYTE	PATT
	 POIN2	seq_067_3 + 0x2F7
	BYTE	PATT
	 POIN2	seq_067_3 + 0xB4
	BYTE	PATT
	 POIN2	seq_067_3 + 0x37B
	BYTE	PATT
	 POIN2	seq_067_3 + 0x392
	BYTE	PATT
	 POIN2	seq_067_3 + 0x3C0
	BYTE	PATT
	 POIN2	seq_067_3 + 0x3D0
	BYTE	PATT
	 POIN2	seq_067_3 + 0x3F8
	BYTE	PATT
	 POIN2	seq_067_3 + 0x401
	BYTE	PATT
	 POIN2	seq_067_3 + 0x423
	BYTE		VOL     62*seq_067_mvl/mxv
	BYTE		N96     Fn3   v048
	BYTE	W42
	BYTE		VOL     62*seq_067_mvl/mxv
	BYTE	W06
	BYTE		        61*seq_067_mvl/mxv
	BYTE	W06
	BYTE		        59*seq_067_mvl/mxv
	BYTE	W03
	BYTE		        57*seq_067_mvl/mxv
	BYTE	W03
	BYTE		        56*seq_067_mvl/mxv
	BYTE	W03
	BYTE		        53*seq_067_mvl/mxv
	BYTE	W03
	BYTE		        50*seq_067_mvl/mxv
	BYTE	W03
	BYTE		        47*seq_067_mvl/mxv
	BYTE	W03
	BYTE		        43*seq_067_mvl/mxv
	BYTE	W03
	BYTE		        39*seq_067_mvl/mxv
	BYTE	W03
	BYTE		        35*seq_067_mvl/mxv
	BYTE	W03
	BYTE		        30*seq_067_mvl/mxv
	BYTE	W03
	BYTE		        25*seq_067_mvl/mxv
	BYTE	W03
	BYTE		        19*seq_067_mvl/mxv
	BYTE	W03
	BYTE		        13*seq_067_mvl/mxv
	BYTE	W03
	BYTE		        7*seq_067_mvl/mxv
	BYTE	W03
	BYTE		        62*seq_067_mvl/mxv
	BYTE		N48     Ds3   v044
	BYTE	W48
	BYTE		        Dn3   v052
	BYTE	W48
	BYTE		N96     Cn3   v056
	BYTE	W36
	BYTE	W03
	BYTE		VOL     62*seq_067_mvl/mxv
	BYTE	W06
	BYTE		        60*seq_067_mvl/mxv
	BYTE	W06
	BYTE		        56*seq_067_mvl/mxv
	BYTE	W03
	BYTE		        54*seq_067_mvl/mxv
	BYTE	W03
	BYTE		        51*seq_067_mvl/mxv
	BYTE	W03
	BYTE		        49*seq_067_mvl/mxv
	BYTE	W03
	BYTE		        46*seq_067_mvl/mxv
	BYTE	W03
	BYTE		        43*seq_067_mvl/mxv
	BYTE	W03
	BYTE		        40*seq_067_mvl/mxv
	BYTE	W03
	BYTE		        37*seq_067_mvl/mxv
	BYTE	W03
	BYTE		        33*seq_067_mvl/mxv
	BYTE	W03
	BYTE		        29*seq_067_mvl/mxv
	BYTE	W03
	BYTE		        25*seq_067_mvl/mxv
	BYTE	W03
	BYTE		        20*seq_067_mvl/mxv
	BYTE	W03
	BYTE		        16*seq_067_mvl/mxv
	BYTE	W03
	BYTE		        11*seq_067_mvl/mxv
	BYTE	W03
	BYTE		        6*seq_067_mvl/mxv
	BYTE	W03
	BYTE		        62*seq_067_mvl/mxv
	BYTE		N48     Bn2   v048
	BYTE	W48
	BYTE		        Dn3   v052
	BYTE	W48
	BYTE		        Gn3   v044
	BYTE	W48
	BYTE		        Bn3 
	BYTE	W48
	BYTE		TIE     Cn4   v032
	BYTE	W06
	BYTE		VOL     61*seq_067_mvl/mxv
	BYTE	W06
	BYTE		        56*seq_067_mvl/mxv
	BYTE	W06
	BYTE		        54*seq_067_mvl/mxv
	BYTE	W06
	BYTE		        55*seq_067_mvl/mxv
	BYTE	W06
	BYTE		        57*seq_067_mvl/mxv
	BYTE	W06
	BYTE		        60*seq_067_mvl/mxv
	BYTE	W06
	BYTE		        62*seq_067_mvl/mxv
	BYTE	W18
	BYTE		        62*seq_067_mvl/mxv
	BYTE	W12
	BYTE		        62*seq_067_mvl/mxv
	BYTE	W06
	BYTE		        61*seq_067_mvl/mxv
	BYTE	W12
	BYTE		        60*seq_067_mvl/mxv
	BYTE	W06
	BYTE	W06
	BYTE		        58*seq_067_mvl/mxv
	BYTE	W12
	BYTE		        56*seq_067_mvl/mxv
	BYTE	W12
	BYTE		        54*seq_067_mvl/mxv
	BYTE	W12
	BYTE		        51*seq_067_mvl/mxv
	BYTE	W06
	BYTE		        49*seq_067_mvl/mxv
	BYTE	W06
	BYTE		        47*seq_067_mvl/mxv
	BYTE	W06
	BYTE		        45*seq_067_mvl/mxv
	BYTE	W06
	BYTE		        43*seq_067_mvl/mxv
	BYTE	W06
	BYTE		        41*seq_067_mvl/mxv
	BYTE	W06
	BYTE		        39*seq_067_mvl/mxv
	BYTE	W06
	BYTE		        37*seq_067_mvl/mxv
	BYTE	W06
	BYTE		        35*seq_067_mvl/mxv
	BYTE	W06
	BYTE		        32*seq_067_mvl/mxv
	BYTE	W06
	BYTE		        30*seq_067_mvl/mxv
	BYTE	W06
	BYTE		        27*seq_067_mvl/mxv
	BYTE	W06
	BYTE		        24*seq_067_mvl/mxv
	BYTE	W06
	BYTE		        21*seq_067_mvl/mxv
	BYTE	W06
	BYTE		        18*seq_067_mvl/mxv
	BYTE	W06
	BYTE		        15*seq_067_mvl/mxv
	BYTE	W06
	BYTE		        12*seq_067_mvl/mxv
	BYTE	W06
	BYTE		        9*seq_067_mvl/mxv
	BYTE	W06
	BYTE		        6*seq_067_mvl/mxv
	BYTE	W06
	BYTE		        3*seq_067_mvl/mxv
	BYTE	W06
	BYTE		        1*seq_067_mvl/mxv
	BYTE	W06
	BYTE		EOT
	BYTE	W24
	BYTE	W96
	BYTE	W54
	BYTE	FINE

//*********************** Track 05 ***********************//

seq_067_4:
	BYTE	KEYSH   seq_067_key+0
	BYTE		VOICE   72
	BYTE	W01
	BYTE		VOL     62*seq_067_mvl/mxv
	BYTE	W01
	BYTE		PAN     c_v-14
	BYTE	W01
	BYTE	W96
	BYTE	W96
	BYTE	W96
	BYTE	W96
	BYTE	W96
	BYTE	W96
	BYTE	W96
	BYTE	W96
	BYTE	W96
	BYTE	W96
	BYTE	W96
	BYTE	W92
	BYTE	W01
	BYTE		VOL     47*seq_067_mvl/mxv
	BYTE	W01
	BYTE	W02
	BYTE		N96     Gn3   v076
	BYTE	W03
	BYTE		VOL     52*seq_067_mvl/mxv
	BYTE	W03
	BYTE		        62*seq_067_mvl/mxv
	BYTE	W72
	BYTE		        59*seq_067_mvl/mxv
	BYTE	W06
	BYTE		        54*seq_067_mvl/mxv
	BYTE	W06
	BYTE		        49*seq_067_mvl/mxv
	BYTE	W06
	BYTE		VOL     62*seq_067_mvl/mxv
	BYTE		N92     Fn3   v064
	BYTE	W78
	BYTE		VOL     59*seq_067_mvl/mxv
	BYTE	W06
	BYTE		        54*seq_067_mvl/mxv
	BYTE	W06
	BYTE		        49*seq_067_mvl/mxv
	BYTE	W06
	BYTE	PEND
	BYTE		VOL     62*seq_067_mvl/mxv
	BYTE		N48     Fn3   v076
	BYTE	W48
	BYTE		N44     Dn3 
	BYTE	W48
	BYTE	PEND
	BYTE		N92     Fn3   v064
	BYTE	W60
	BYTE		VOL     61*seq_067_mvl/mxv
	BYTE	W06
	BYTE		        58*seq_067_mvl/mxv
	BYTE	W06
	BYTE		        54*seq_067_mvl/mxv
	BYTE	W06
	BYTE		        47*seq_067_mvl/mxv
	BYTE	W06
	BYTE		        38*seq_067_mvl/mxv
	BYTE	W06
	BYTE		        26*seq_067_mvl/mxv
	BYTE	W06
	BYTE	PEND
	BYTE		VOL     62*seq_067_mvl/mxv
	BYTE		N48     Fn3   v072
	BYTE	W48
	BYTE		        En3   v068
	BYTE	W48
	BYTE	PEND
	BYTE		N48     Fn3   v076
	BYTE	W48
	BYTE		N44     Gn3   v088
	BYTE	W48
	BYTE	PEND
	BYTE		N92     An3   v084
	BYTE	W66
	BYTE		VOL     62*seq_067_mvl/mxv
	BYTE	W06
	BYTE		        60*seq_067_mvl/mxv
	BYTE	W06
	BYTE		        57*seq_067_mvl/mxv
	BYTE	W06
	BYTE		        54*seq_067_mvl/mxv
	BYTE	W06
	BYTE		        48*seq_067_mvl/mxv
	BYTE	W06
	BYTE		        62*seq_067_mvl/mxv
	BYTE		N48     Cn4   v072
	BYTE	W48
	BYTE		        Bn3   v060
	BYTE	W30
	BYTE		VOL     59*seq_067_mvl/mxv
	BYTE	W06
	BYTE		        54*seq_067_mvl/mxv
	BYTE	W06
	BYTE		        49*seq_067_mvl/mxv
	BYTE	W06
	BYTE		        62*seq_067_mvl/mxv
	BYTE		N92     Gn3   v072
	BYTE	W78
	BYTE		VOL     59*seq_067_mvl/mxv
	BYTE	W06
	BYTE		        54*seq_067_mvl/mxv
	BYTE	W06
	BYTE		        49*seq_067_mvl/mxv
	BYTE	W06
	BYTE		        62*seq_067_mvl/mxv
	BYTE		N48     Fn3   v060
	BYTE	W48
	BYTE		        En3   v056
	BYTE	W30
	BYTE		VOL     59*seq_067_mvl/mxv
	BYTE	W06
	BYTE		        54*seq_067_mvl/mxv
	BYTE	W06
	BYTE		        49*seq_067_mvl/mxv
	BYTE	W06
	BYTE		        62*seq_067_mvl/mxv
	BYTE		N48     Fn3   v072
	BYTE	W48
	BYTE		N44     Dn3 
	BYTE	W48
	BYTE		N92     Fn3   v068
	BYTE	W60
	BYTE		VOL     61*seq_067_mvl/mxv
	BYTE	W06
	BYTE		        58*seq_067_mvl/mxv
	BYTE	W06
	BYTE		        54*seq_067_mvl/mxv
	BYTE	W06
	BYTE		        47*seq_067_mvl/mxv
	BYTE	W06
	BYTE		        38*seq_067_mvl/mxv
	BYTE	W06
	BYTE		        26*seq_067_mvl/mxv
	BYTE	W06
	BYTE		        62*seq_067_mvl/mxv
	BYTE		N48     Fn3   v072
	BYTE	W48
	BYTE		        En3   v060
	BYTE	W48
	BYTE		        Fn3   v072
	BYTE	W48
	BYTE		        Gn3   v080
	BYTE	W48
	BYTE		N96     An3   v076
	BYTE	W66
	BYTE		VOL     62*seq_067_mvl/mxv
	BYTE	W06
	BYTE		        60*seq_067_mvl/mxv
	BYTE	W06
	BYTE		        57*seq_067_mvl/mxv
	BYTE	W06
	BYTE		        54*seq_067_mvl/mxv
	BYTE	W06
	BYTE		        48*seq_067_mvl/mxv
	BYTE	W06
	BYTE		        62*seq_067_mvl/mxv
	BYTE		N48     Cn4   v064
	BYTE	W48
	BYTE		        Bn3   v056
	BYTE	W30
	BYTE		VOL     59*seq_067_mvl/mxv
	BYTE	W03
	BYTE		        56*seq_067_mvl/mxv
	BYTE	W03
	BYTE		        52*seq_067_mvl/mxv
	BYTE	W03
	BYTE		        47*seq_067_mvl/mxv
	BYTE	W03
	BYTE		        43*seq_067_mvl/mxv
	BYTE	W03
	BYTE		        38*seq_067_mvl/mxv
	BYTE	W03
	BYTE		        62*seq_067_mvl/mxv
	BYTE		N48     An3   v068
	BYTE	W48
	BYTE		        Bn3   v072
	BYTE	W48
	BYTE		N96     Cn4 
	BYTE	W48
	BYTE	W03
	BYTE		VOL     61*seq_067_mvl/mxv
	BYTE	W03
	BYTE		        59*seq_067_mvl/mxv
	BYTE	W03
	BYTE		        57*seq_067_mvl/mxv
	BYTE	W03
	BYTE		        56*seq_067_mvl/mxv
	BYTE	W03
	BYTE		        53*seq_067_mvl/mxv
	BYTE	W03
	BYTE		        50*seq_067_mvl/mxv
	BYTE	W03
	BYTE		        47*seq_067_mvl/mxv
	BYTE	W03
	BYTE		        43*seq_067_mvl/mxv
	BYTE	W03
	BYTE		        39*seq_067_mvl/mxv
	BYTE	W03
	BYTE		        35*seq_067_mvl/mxv
	BYTE	W03
	BYTE		        30*seq_067_mvl/mxv
	BYTE	W03
	BYTE		        25*seq_067_mvl/mxv
	BYTE	W03
	BYTE		        19*seq_067_mvl/mxv
	BYTE	W03
	BYTE		        13*seq_067_mvl/mxv
	BYTE	W03
	BYTE		        7*seq_067_mvl/mxv
	BYTE	W03
	BYTE		        62*seq_067_mvl/mxv
	BYTE		N48     Fn3   v064
	BYTE	W48
	BYTE		        Gn3 
	BYTE	W48
	BYTE		N96     An3 
	BYTE	W54
	BYTE		VOL     60*seq_067_mvl/mxv
	BYTE	W03
	BYTE		        57*seq_067_mvl/mxv
	BYTE	W03
	BYTE		        54*seq_067_mvl/mxv
	BYTE	W03
	BYTE		        51*seq_067_mvl/mxv
	BYTE	W03
	BYTE		        48*seq_067_mvl/mxv
	BYTE	W03
	BYTE		        44*seq_067_mvl/mxv
	BYTE	W03
	BYTE		        40*seq_067_mvl/mxv
	BYTE	W03
	BYTE		        36*seq_067_mvl/mxv
	BYTE	W03
	BYTE		        32*seq_067_mvl/mxv
	BYTE	W03
	BYTE		        27*seq_067_mvl/mxv
	BYTE	W03
	BYTE		        22*seq_067_mvl/mxv
	BYTE	W03
	BYTE		        17*seq_067_mvl/mxv
	BYTE	W03
	BYTE		        11*seq_067_mvl/mxv
	BYTE	W03
	BYTE		        6*seq_067_mvl/mxv
	BYTE	W03
	BYTE		        62*seq_067_mvl/mxv
	BYTE		N96     As3   v072
	BYTE	W72
	BYTE		VOL     57*seq_067_mvl/mxv
	BYTE	W06
	BYTE		        53*seq_067_mvl/mxv
	BYTE	W06
	BYTE		        47*seq_067_mvl/mxv
	BYTE	W06
	BYTE		        42*seq_067_mvl/mxv
	BYTE	W06
	BYTE		        62*seq_067_mvl/mxv
	BYTE		N96     An3   v068
	BYTE	W72
	BYTE		VOL     57*seq_067_mvl/mxv
	BYTE	W06
	BYTE		        53*seq_067_mvl/mxv
	BYTE	W06
	BYTE		        47*seq_067_mvl/mxv
	BYTE	W06
	BYTE		        42*seq_067_mvl/mxv
	BYTE	W06
	BYTE		        62*seq_067_mvl/mxv
	BYTE		TIE     Cn4   v060
	BYTE	W84
	BYTE		VOL     62*seq_067_mvl/mxv
	BYTE	W12
	BYTE		VOL     61*seq_067_mvl/mxv
	BYTE	W06
	BYTE		        59*seq_067_mvl/mxv
	BYTE	W06
	BYTE		        57*seq_067_mvl/mxv
	BYTE	W06
	BYTE		        55*seq_067_mvl/mxv
	BYTE	W06
	BYTE		        52*seq_067_mvl/mxv
	BYTE	W06
	BYTE		        49*seq_067_mvl/mxv
	BYTE	W06
	BYTE		        44*seq_067_mvl/mxv
	BYTE	W06
	BYTE		        40*seq_067_mvl/mxv
	BYTE	W06
	BYTE	PEND
	BYTE		EOT     Cn4 
	BYTE		VOL     62*seq_067_mvl/mxv
	BYTE		N48     Bn3   v052
	BYTE	W24
	BYTE	W03
	BYTE		VOL     61*seq_067_mvl/mxv
	BYTE	W03
	BYTE		        60*seq_067_mvl/mxv
	BYTE	W03
	BYTE		        58*seq_067_mvl/mxv
	BYTE	W03
	BYTE		        55*seq_067_mvl/mxv
	BYTE	W03
	BYTE		        51*seq_067_mvl/mxv
	BYTE	W03
	BYTE		        46*seq_067_mvl/mxv
	BYTE	W03
	BYTE		        40*seq_067_mvl/mxv
	BYTE	W03
	BYTE		        62*seq_067_mvl/mxv
	BYTE		N96     Gn3   v072
	BYTE	W78
	BYTE		VOL     59*seq_067_mvl/mxv
	BYTE	W06
	BYTE		        54*seq_067_mvl/mxv
	BYTE	W06
	BYTE		        49*seq_067_mvl/mxv
	BYTE	W06
	BYTE	PATT
	 POIN2	seq_067_4 + 0x2B
	BYTE	PATT
	 POIN2	seq_067_4 + 0x39
	BYTE	PATT
	 POIN2	seq_067_4 + 0x43
	BYTE	PATT
	 POIN2	seq_067_4 + 0x55
	BYTE	PATT
	 POIN2	seq_067_4 + 0x5F
	BYTE		N96     An3   v084
	BYTE	W66
	BYTE		VOL     62*seq_067_mvl/mxv
	BYTE	W06
	BYTE		        60*seq_067_mvl/mxv
	BYTE	W06
	BYTE		        57*seq_067_mvl/mxv
	BYTE	W06
	BYTE		        54*seq_067_mvl/mxv
	BYTE	W06
	BYTE		        48*seq_067_mvl/mxv
	BYTE	W06
	BYTE	PEND
	BYTE		        62*seq_067_mvl/mxv
	BYTE		N48     Cn4   v072
	BYTE	W48
	BYTE		        Bn3   v060
	BYTE	W30
	BYTE		VOL     59*seq_067_mvl/mxv
	BYTE	W03
	BYTE		        57*seq_067_mvl/mxv
	BYTE	W03
	BYTE		        54*seq_067_mvl/mxv
	BYTE	W03
	BYTE		        51*seq_067_mvl/mxv
	BYTE	W03
	BYTE		        47*seq_067_mvl/mxv
	BYTE	W03
	BYTE		        44*seq_067_mvl/mxv
	BYTE	W03
	BYTE		VOL     62*seq_067_mvl/mxv
	BYTE		N96     Gn3   v076
	BYTE	W78
	BYTE		VOL     59*seq_067_mvl/mxv
	BYTE	W06
	BYTE		        54*seq_067_mvl/mxv
	BYTE	W06
	BYTE		        49*seq_067_mvl/mxv
	BYTE	W06
	BYTE	PEND
	BYTE		VOL     62*seq_067_mvl/mxv
	BYTE		N48     Fn3   v064
	BYTE	W48
	BYTE		        En3   v060
	BYTE	W30
	BYTE		VOL     59*seq_067_mvl/mxv
	BYTE	W06
	BYTE		        54*seq_067_mvl/mxv
	BYTE	W06
	BYTE		        49*seq_067_mvl/mxv
	BYTE	W06
	BYTE	PEND
	BYTE		VOL     62*seq_067_mvl/mxv
	BYTE		N48     Fn3   v076
	BYTE	W48
	BYTE		        Dn3 
	BYTE	W48
	BYTE	PEND
	BYTE		N92     Fn3   v072
	BYTE	W60
	BYTE		VOL     61*seq_067_mvl/mxv
	BYTE	W06
	BYTE		        58*seq_067_mvl/mxv
	BYTE	W06
	BYTE		        54*seq_067_mvl/mxv
	BYTE	W06
	BYTE		        47*seq_067_mvl/mxv
	BYTE	W06
	BYTE		        38*seq_067_mvl/mxv
	BYTE	W06
	BYTE		        26*seq_067_mvl/mxv
	BYTE	W06
	BYTE		VOL     62*seq_067_mvl/mxv
	BYTE		N48     Fn3   v076
	BYTE	W48
	BYTE		        En3   v060
	BYTE	W48
	BYTE	PEND
	BYTE		N48     Fn3   v076
	BYTE	W48
	BYTE		        Gn3   v088
	BYTE	W48
	BYTE	PEND
	BYTE		N96     An3   v080
	BYTE	W66
	BYTE		VOL     62*seq_067_mvl/mxv
	BYTE	W06
	BYTE		        60*seq_067_mvl/mxv
	BYTE	W06
	BYTE		        57*seq_067_mvl/mxv
	BYTE	W06
	BYTE		        54*seq_067_mvl/mxv
	BYTE	W06
	BYTE		        48*seq_067_mvl/mxv
	BYTE	W06
	BYTE	PEND
	BYTE		        62*seq_067_mvl/mxv
	BYTE		N48     Cn4   v068
	BYTE	W48
	BYTE		        Bn3   v060
	BYTE	W30
	BYTE		VOL     59*seq_067_mvl/mxv
	BYTE	W03
	BYTE		        57*seq_067_mvl/mxv
	BYTE	W03
	BYTE		        54*seq_067_mvl/mxv
	BYTE	W03
	BYTE		        51*seq_067_mvl/mxv
	BYTE	W03
	BYTE		        45*seq_067_mvl/mxv
	BYTE	W03
	BYTE		        40*seq_067_mvl/mxv
	BYTE	W03
	BYTE		VOL     62*seq_067_mvl/mxv
	BYTE		N48     An3   v072
	BYTE	W48
	BYTE		        Bn3   v076
	BYTE	W48
	BYTE	PEND
	BYTE		N96     Cn4   v076
	BYTE	W48
	BYTE	W03
	BYTE		VOL     61*seq_067_mvl/mxv
	BYTE	W03
	BYTE		        59*seq_067_mvl/mxv
	BYTE	W03
	BYTE		        57*seq_067_mvl/mxv
	BYTE	W03
	BYTE		        56*seq_067_mvl/mxv
	BYTE	W03
	BYTE		        53*seq_067_mvl/mxv
	BYTE	W03
	BYTE		        50*seq_067_mvl/mxv
	BYTE	W03
	BYTE		        47*seq_067_mvl/mxv
	BYTE	W03
	BYTE		        43*seq_067_mvl/mxv
	BYTE	W03
	BYTE		        39*seq_067_mvl/mxv
	BYTE	W03
	BYTE		        35*seq_067_mvl/mxv
	BYTE	W03
	BYTE		        30*seq_067_mvl/mxv
	BYTE	W03
	BYTE		        25*seq_067_mvl/mxv
	BYTE	W03
	BYTE		        19*seq_067_mvl/mxv
	BYTE	W03
	BYTE		        13*seq_067_mvl/mxv
	BYTE	W03
	BYTE		        7*seq_067_mvl/mxv
	BYTE	W03
	BYTE	PEND
	BYTE		VOL     62*seq_067_mvl/mxv
	BYTE		N48     Fn3   v068
	BYTE	W48
	BYTE		        Gn3 
	BYTE	W48
	BYTE	PEND
	BYTE		N96     An3   v068
	BYTE	W54
	BYTE		VOL     60*seq_067_mvl/mxv
	BYTE	W03
	BYTE		        57*seq_067_mvl/mxv
	BYTE	W03
	BYTE		        54*seq_067_mvl/mxv
	BYTE	W03
	BYTE		        51*seq_067_mvl/mxv
	BYTE	W03
	BYTE		        48*seq_067_mvl/mxv
	BYTE	W03
	BYTE		        44*seq_067_mvl/mxv
	BYTE	W03
	BYTE		        40*seq_067_mvl/mxv
	BYTE	W03
	BYTE		        36*seq_067_mvl/mxv
	BYTE	W03
	BYTE		        32*seq_067_mvl/mxv
	BYTE	W03
	BYTE		        27*seq_067_mvl/mxv
	BYTE	W03
	BYTE		        22*seq_067_mvl/mxv
	BYTE	W03
	BYTE		        17*seq_067_mvl/mxv
	BYTE	W03
	BYTE		        11*seq_067_mvl/mxv
	BYTE	W03
	BYTE		        6*seq_067_mvl/mxv
	BYTE	W03
	BYTE	PEND
	BYTE		VOL     62*seq_067_mvl/mxv
	BYTE		N96     As3   v076
	BYTE	W72
	BYTE		VOL     57*seq_067_mvl/mxv
	BYTE	W06
	BYTE		        53*seq_067_mvl/mxv
	BYTE	W06
	BYTE		        47*seq_067_mvl/mxv
	BYTE	W06
	BYTE		        42*seq_067_mvl/mxv
	BYTE	W06
	BYTE	PEND
	BYTE		VOL     62*seq_067_mvl/mxv
	BYTE		N96     An3   v072
	BYTE	W72
	BYTE		VOL     57*seq_067_mvl/mxv
	BYTE	W06
	BYTE		        53*seq_067_mvl/mxv
	BYTE	W06
	BYTE		        47*seq_067_mvl/mxv
	BYTE	W06
	BYTE		        42*seq_067_mvl/mxv
	BYTE	W06
	BYTE	PEND
	BYTE		        62*seq_067_mvl/mxv
	BYTE		TIE     Cn4   v064
	BYTE	W84
	BYTE		VOL     62*seq_067_mvl/mxv
	BYTE	W12
	BYTE	PATT
	 POIN2	seq_067_4 + 0x162
	BYTE		EOT     Cn4 
	BYTE		VOL     62*seq_067_mvl/mxv
	BYTE		N48     Bn3   v056
	BYTE	W24
	BYTE	W03
	BYTE		VOL     61*seq_067_mvl/mxv
	BYTE	W03
	BYTE		        60*seq_067_mvl/mxv
	BYTE	W03
	BYTE		        58*seq_067_mvl/mxv
	BYTE	W03
	BYTE		        55*seq_067_mvl/mxv
	BYTE	W03
	BYTE		        51*seq_067_mvl/mxv
	BYTE	W03
	BYTE		        46*seq_067_mvl/mxv
	BYTE	W03
	BYTE		        40*seq_067_mvl/mxv
	BYTE	W03
	BYTE	PATT
	 POIN2	seq_067_4 + 0x1D6
	BYTE	PATT
	 POIN2	seq_067_4 + 0x2B
	BYTE	PATT
	 POIN2	seq_067_4 + 0x39
	BYTE	PATT
	 POIN2	seq_067_4 + 0x43
	BYTE	PATT
	 POIN2	seq_067_4 + 0x55
	BYTE	PATT
	 POIN2	seq_067_4 + 0x5F
	BYTE	PATT
	 POIN2	seq_067_4 + 0x1B1
	BYTE		VOL     62*seq_067_mvl/mxv
	BYTE		N48     Cn4   v072
	BYTE	W48
	BYTE		        Bn3   v060
	BYTE	W30
	BYTE		VOL     59*seq_067_mvl/mxv
	BYTE	W03
	BYTE		        56*seq_067_mvl/mxv
	BYTE	W03
	BYTE		        52*seq_067_mvl/mxv
	BYTE	W03
	BYTE		        49*seq_067_mvl/mxv
	BYTE	W03
	BYTE		        46*seq_067_mvl/mxv
	BYTE	W03
	BYTE		        42*seq_067_mvl/mxv
	BYTE	W03
	BYTE	PATT
	 POIN2	seq_067_4 + 0x1D6
	BYTE	PATT
	 POIN2	seq_067_4 + 0x1E4
	BYTE	PATT
	 POIN2	seq_067_4 + 0x1F5
	BYTE		N92     Fn3   v072
	BYTE	W60
	BYTE		VOL     62*seq_067_mvl/mxv
	BYTE	W03
	BYTE		        61*seq_067_mvl/mxv
	BYTE	W03
	BYTE		        59*seq_067_mvl/mxv
	BYTE	W03
	BYTE		        57*seq_067_mvl/mxv
	BYTE	W03
	BYTE		        54*seq_067_mvl/mxv
	BYTE	W03
	BYTE		        51*seq_067_mvl/mxv
	BYTE	W03
	BYTE		        46*seq_067_mvl/mxv
	BYTE	W03
	BYTE		        41*seq_067_mvl/mxv
	BYTE	W03
	BYTE		        35*seq_067_mvl/mxv
	BYTE	W03
	BYTE		        30*seq_067_mvl/mxv
	BYTE	W03
	BYTE		        22*seq_067_mvl/mxv
	BYTE	W03
	BYTE		        15*seq_067_mvl/mxv
	BYTE	W03
	BYTE	PATT
	 POIN2	seq_067_4 + 0x20F
	BYTE	PATT
	 POIN2	seq_067_4 + 0x219
	BYTE	PATT
	 POIN2	seq_067_4 + 0x221
	BYTE		VOL     62*seq_067_mvl/mxv
	BYTE		N48     Cn4   v068
	BYTE	W48
	BYTE		        Bn3   v060
	BYTE	W30
	BYTE		VOL     59*seq_067_mvl/mxv
	BYTE	W03
	BYTE		        57*seq_067_mvl/mxv
	BYTE	W03
	BYTE		        55*seq_067_mvl/mxv
	BYTE	W03
	BYTE		        52*seq_067_mvl/mxv
	BYTE	W03
	BYTE		        48*seq_067_mvl/mxv
	BYTE	W03
	BYTE		        45*seq_067_mvl/mxv
	BYTE	W03
	BYTE	PATT
	 POIN2	seq_067_4 + 0x246
	BYTE	PATT
	 POIN2	seq_067_4 + 0x250
	BYTE	PATT
	 POIN2	seq_067_4 + 0x275
	BYTE	PATT
	 POIN2	seq_067_4 + 0x27E
	BYTE	PATT
	 POIN2	seq_067_4 + 0x2A0
	BYTE	PATT
	 POIN2	seq_067_4 + 0x2B0
	BYTE		VOL     62*seq_067_mvl/mxv
	BYTE		N48     Cn4   v088
	BYTE	W48
	BYTE		        As3   v096
	BYTE	W48
	BYTE		N96     Gs3 
	BYTE	W48
	BYTE		VOL     61*seq_067_mvl/mxv
	BYTE	W06
	BYTE		        59*seq_067_mvl/mxv
	BYTE	W03
	BYTE		        57*seq_067_mvl/mxv
	BYTE	W03
	BYTE		        56*seq_067_mvl/mxv
	BYTE	W03
	BYTE		        53*seq_067_mvl/mxv
	BYTE	W03
	BYTE		        50*seq_067_mvl/mxv
	BYTE	W03
	BYTE		        47*seq_067_mvl/mxv
	BYTE	W03
	BYTE		        43*seq_067_mvl/mxv
	BYTE	W03
	BYTE		        39*seq_067_mvl/mxv
	BYTE	W03
	BYTE		        35*seq_067_mvl/mxv
	BYTE	W03
	BYTE		        30*seq_067_mvl/mxv
	BYTE	W03
	BYTE		        25*seq_067_mvl/mxv
	BYTE	W03
	BYTE		        19*seq_067_mvl/mxv
	BYTE	W03
	BYTE		        13*seq_067_mvl/mxv
	BYTE	W03
	BYTE		        7*seq_067_mvl/mxv
	BYTE	W03
	BYTE		        62*seq_067_mvl/mxv
	BYTE		N48     Gn3   v100
	BYTE	W48
	BYTE		        Bn3   v096
	BYTE	W48
	BYTE		        Dn4   v092
	BYTE	W48
	BYTE		        Fn4   v084
	BYTE	W48
	BYTE		TIE     En4   v072
	BYTE	W48
	BYTE		VOL     61*seq_067_mvl/mxv
	BYTE	W18
	BYTE		        59*seq_067_mvl/mxv
	BYTE	W12
	BYTE		        58*seq_067_mvl/mxv
	BYTE	W12
	BYTE		        57*seq_067_mvl/mxv
	BYTE	W06
	BYTE	W06
	BYTE		        55*seq_067_mvl/mxv
	BYTE	W12
	BYTE		        52*seq_067_mvl/mxv
	BYTE	W12
	BYTE		        50*seq_067_mvl/mxv
	BYTE	W06
	BYTE		        48*seq_067_mvl/mxv
	BYTE	W12
	BYTE		        45*seq_067_mvl/mxv
	BYTE	W12
	BYTE		        42*seq_067_mvl/mxv
	BYTE	W12
	BYTE		        38*seq_067_mvl/mxv
	BYTE	W06
	BYTE		        36*seq_067_mvl/mxv
	BYTE	W06
	BYTE		        34*seq_067_mvl/mxv
	BYTE	W06
	BYTE		        32*seq_067_mvl/mxv
	BYTE	W06
	BYTE		        30*seq_067_mvl/mxv
	BYTE	W06
	BYTE		        27*seq_067_mvl/mxv
	BYTE	W06
	BYTE		        25*seq_067_mvl/mxv
	BYTE	W06
	BYTE		        22*seq_067_mvl/mxv
	BYTE	W06
	BYTE		        20*seq_067_mvl/mxv
	BYTE	W06
	BYTE		        18*seq_067_mvl/mxv
	BYTE	W06
	BYTE		        15*seq_067_mvl/mxv
	BYTE	W06
	BYTE		        12*seq_067_mvl/mxv
	BYTE	W06
	BYTE		        9*seq_067_mvl/mxv
	BYTE	W06
	BYTE		        6*seq_067_mvl/mxv
	BYTE	W06
	BYTE		        4*seq_067_mvl/mxv
	BYTE	W06
	BYTE		        1*seq_067_mvl/mxv
	BYTE	W06
	BYTE		EOT
	BYTE	W24
	BYTE	W96
	BYTE	W54
	BYTE	FINE

//*********************** Track 06 ***********************//

seq_067_5:
	BYTE	KEYSH   seq_067_key+0
	BYTE		VOICE   72
	BYTE	W01
	BYTE		VOL     62*seq_067_mvl/mxv
	BYTE	W01
	BYTE		PAN     c_v+16
	BYTE	W01
	BYTE	W96
	BYTE	W96
	BYTE	W96
	BYTE	W96
	BYTE	W96
	BYTE	W96
	BYTE	W96
	BYTE	W96
	BYTE	W96
	BYTE	W96
	BYTE	W96
	BYTE	W90
	BYTE		VOL     47*seq_067_mvl/mxv
	BYTE	W04
	BYTE	W02
	BYTE		N48     Cn3   v092
	BYTE	W03
	BYTE		VOL     52*seq_067_mvl/mxv
	BYTE	W03
	BYTE		        62*seq_067_mvl/mxv
	BYTE	W42
	BYTE		N48     Bn2 
	BYTE	W48
	BYTE		N48     An2   v092
	BYTE	W48
	BYTE		        Gn2   v084
	BYTE	W48
	BYTE	PEND
	BYTE		N48     Fn2   v092
	BYTE	W03
	BYTE		VOL     60*seq_067_mvl/mxv
	BYTE	W03
	BYTE		        56*seq_067_mvl/mxv
	BYTE	W03
	BYTE		        56*seq_067_mvl/mxv
	BYTE	W03
	BYTE		        56*seq_067_mvl/mxv
	BYTE	W03
	BYTE		        57*seq_067_mvl/mxv
	BYTE	W03
	BYTE		        57*seq_067_mvl/mxv
	BYTE	W03
	BYTE		        59*seq_067_mvl/mxv
	BYTE	W03
	BYTE		        60*seq_067_mvl/mxv
	BYTE	W03
	BYTE		        62*seq_067_mvl/mxv
	BYTE	W03
	BYTE		        64*seq_067_mvl/mxv
	BYTE	W03
	BYTE		        66*seq_067_mvl/mxv
	BYTE	W03
	BYTE		        69*seq_067_mvl/mxv
	BYTE	W03
	BYTE		        69*seq_067_mvl/mxv
	BYTE	W03
	BYTE		        66*seq_067_mvl/mxv
	BYTE	W03
	BYTE		        64*seq_067_mvl/mxv
	BYTE	W03
	BYTE		        62*seq_067_mvl/mxv
	BYTE		N48     Fs2   v096
	BYTE	W48
	BYTE	PEND
	BYTE		N92     Gn2   v084
	BYTE	W09
	BYTE		VOL     62*seq_067_mvl/mxv
	BYTE	W12
	BYTE		        61*seq_067_mvl/mxv
	BYTE	W03
	BYTE		        61*seq_067_mvl/mxv
	BYTE	W03
	BYTE		        60*seq_067_mvl/mxv
	BYTE	W03
	BYTE		        59*seq_067_mvl/mxv
	BYTE	W03
	BYTE		        58*seq_067_mvl/mxv
	BYTE	W03
	BYTE		        57*seq_067_mvl/mxv
	BYTE	W03
	BYTE		        56*seq_067_mvl/mxv
	BYTE	W03
	BYTE		        55*seq_067_mvl/mxv
	BYTE	W03
	BYTE		        53*seq_067_mvl/mxv
	BYTE	W03
	BYTE		        52*seq_067_mvl/mxv
	BYTE	W03
	BYTE		        50*seq_067_mvl/mxv
	BYTE	W03
	BYTE		        48*seq_067_mvl/mxv
	BYTE	W03
	BYTE		        46*seq_067_mvl/mxv
	BYTE	W03
	BYTE		        44*seq_067_mvl/mxv
	BYTE	W03
	BYTE		        42*seq_067_mvl/mxv
	BYTE	W03
	BYTE		        40*seq_067_mvl/mxv
	BYTE	W03
	BYTE		        37*seq_067_mvl/mxv
	BYTE	W03
	BYTE		        35*seq_067_mvl/mxv
	BYTE	W03
	BYTE		        32*seq_067_mvl/mxv
	BYTE	W03
	BYTE		        29*seq_067_mvl/mxv
	BYTE	W03
	BYTE		        27*seq_067_mvl/mxv
	BYTE	W03
	BYTE		        23*seq_067_mvl/mxv
	BYTE	W03
	BYTE		        20*seq_067_mvl/mxv
	BYTE	W03
	BYTE		        17*seq_067_mvl/mxv
	BYTE	W03
	BYTE		        13*seq_067_mvl/mxv
	BYTE	W03
	BYTE		VOL     62*seq_067_mvl/mxv
	BYTE		TIE     An2   v072
	BYTE	W09
	BYTE		VOL     61*seq_067_mvl/mxv
	BYTE	W03
	BYTE		        60*seq_067_mvl/mxv
	BYTE	W03
	BYTE		        58*seq_067_mvl/mxv
	BYTE	W03
	BYTE		        57*seq_067_mvl/mxv
	BYTE	W03
	BYTE		        56*seq_067_mvl/mxv
	BYTE	W03
	BYTE		        54*seq_067_mvl/mxv
	BYTE	W03
	BYTE		        54*seq_067_mvl/mxv
	BYTE	W03
	BYTE		        53*seq_067_mvl/mxv
	BYTE	W03
	BYTE		        52*seq_067_mvl/mxv
	BYTE	W03
	BYTE		        53*seq_067_mvl/mxv
	BYTE	W09
	BYTE		        54*seq_067_mvl/mxv
	BYTE	W06
	BYTE		        54*seq_067_mvl/mxv
	BYTE	W06
	BYTE		        55*seq_067_mvl/mxv
	BYTE	W03
	BYTE		        56*seq_067_mvl/mxv
	BYTE	W03
	BYTE		        56*seq_067_mvl/mxv
	BYTE	W03
	BYTE		        57*seq_067_mvl/mxv
	BYTE	W03
	BYTE		        57*seq_067_mvl/mxv
	BYTE	W03
	BYTE		        59*seq_067_mvl/mxv
	BYTE	W03
	BYTE		        59*seq_067_mvl/mxv
	BYTE	W03
	BYTE		        61*seq_067_mvl/mxv
	BYTE	W03
	BYTE		        61*seq_067_mvl/mxv
	BYTE	W03
	BYTE		        62*seq_067_mvl/mxv
	BYTE	W12
	BYTE	PEND
	BYTE	W36
	BYTE	W03
	BYTE		VOL     62*seq_067_mvl/mxv
	BYTE	W03
	BYTE		        61*seq_067_mvl/mxv
	BYTE	W03
	BYTE		        59*seq_067_mvl/mxv
	BYTE	W03
	BYTE	PEND
	BYTE		EOT     An2 
	BYTE		VOL     62*seq_067_mvl/mxv
	BYTE		N48     Cs3   v080
	BYTE	W48
	BYTE		N48     Dn3   v088
	BYTE	W48
	BYTE		        An2   v084
	BYTE	W48
	BYTE	PEND
	BYTE		N92     Gn2   v076
	BYTE	W21
	BYTE		VOL     61*seq_067_mvl/mxv
	BYTE	W06
	BYTE		        61*seq_067_mvl/mxv
	BYTE	W03
	BYTE		        60*seq_067_mvl/mxv
	BYTE	W03
	BYTE		        59*seq_067_mvl/mxv
	BYTE	W03
	BYTE		        58*seq_067_mvl/mxv
	BYTE	W03
	BYTE		        57*seq_067_mvl/mxv
	BYTE	W03
	BYTE		        56*seq_067_mvl/mxv
	BYTE	W03
	BYTE		        54*seq_067_mvl/mxv
	BYTE	W03
	BYTE		        52*seq_067_mvl/mxv
	BYTE	W03
	BYTE		        51*seq_067_mvl/mxv
	BYTE	W03
	BYTE		        48*seq_067_mvl/mxv
	BYTE	W03
	BYTE		        45*seq_067_mvl/mxv
	BYTE	W03
	BYTE		        43*seq_067_mvl/mxv
	BYTE	W03
	BYTE		        40*seq_067_mvl/mxv
	BYTE	W03
	BYTE		        37*seq_067_mvl/mxv
	BYTE	W03
	BYTE		        34*seq_067_mvl/mxv
	BYTE	W03
	BYTE		        30*seq_067_mvl/mxv
	BYTE	W03
	BYTE		        27*seq_067_mvl/mxv
	BYTE	W03
	BYTE		        22*seq_067_mvl/mxv
	BYTE	W03
	BYTE		        18*seq_067_mvl/mxv
	BYTE	W03
	BYTE		        14*seq_067_mvl/mxv
	BYTE	W03
	BYTE		        10*seq_067_mvl/mxv
	BYTE	W03
	BYTE		        5*seq_067_mvl/mxv
	BYTE	W06
	BYTE		VOL     62*seq_067_mvl/mxv
	BYTE		N48     Cn3   v084
	BYTE	W48
	BYTE		        Bn2   v088
	BYTE	W48
	BYTE	PEND
	BYTE		        An2   v084
	BYTE	W48
	BYTE		        Gs2   v088
	BYTE	W48
	BYTE		        Fn2   v092
	BYTE	W03
	BYTE		VOL     60*seq_067_mvl/mxv
	BYTE	W03
	BYTE		        56*seq_067_mvl/mxv
	BYTE	W09
	BYTE		        57*seq_067_mvl/mxv
	BYTE	W03
	BYTE		        57*seq_067_mvl/mxv
	BYTE	W03
	BYTE		        59*seq_067_mvl/mxv
	BYTE	W03
	BYTE		        59*seq_067_mvl/mxv
	BYTE	W03
	BYTE		        61*seq_067_mvl/mxv
	BYTE	W03
	BYTE		        63*seq_067_mvl/mxv
	BYTE	W03
	BYTE		        65*seq_067_mvl/mxv
	BYTE	W03
	BYTE		        68*seq_067_mvl/mxv
	BYTE	W03
	BYTE		        66*seq_067_mvl/mxv
	BYTE	W03
	BYTE		        64*seq_067_mvl/mxv
	BYTE	W03
	BYTE		        63*seq_067_mvl/mxv
	BYTE	W03
	BYTE		        62*seq_067_mvl/mxv
	BYTE		N48     Fs2   v096
	BYTE	W48
	BYTE		N92     Gn2 
	BYTE	W09
	BYTE		VOL     62*seq_067_mvl/mxv
	BYTE	W12
	BYTE		        61*seq_067_mvl/mxv
	BYTE	W03
	BYTE		        61*seq_067_mvl/mxv
	BYTE	W03
	BYTE		        60*seq_067_mvl/mxv
	BYTE	W03
	BYTE		        59*seq_067_mvl/mxv
	BYTE	W03
	BYTE		        58*seq_067_mvl/mxv
	BYTE	W03
	BYTE		        57*seq_067_mvl/mxv
	BYTE	W03
	BYTE		        56*seq_067_mvl/mxv
	BYTE	W03
	BYTE		        55*seq_067_mvl/mxv
	BYTE	W03
	BYTE		        53*seq_067_mvl/mxv
	BYTE	W03
	BYTE		        52*seq_067_mvl/mxv
	BYTE	W03
	BYTE		        50*seq_067_mvl/mxv
	BYTE	W03
	BYTE		        48*seq_067_mvl/mxv
	BYTE	W03
	BYTE		        46*seq_067_mvl/mxv
	BYTE	W03
	BYTE		        44*seq_067_mvl/mxv
	BYTE	W03
	BYTE		        42*seq_067_mvl/mxv
	BYTE	W03
	BYTE		        40*seq_067_mvl/mxv
	BYTE	W03
	BYTE		        37*seq_067_mvl/mxv
	BYTE	W03
	BYTE		        35*seq_067_mvl/mxv
	BYTE	W03
	BYTE		        32*seq_067_mvl/mxv
	BYTE	W03
	BYTE		        29*seq_067_mvl/mxv
	BYTE	W03
	BYTE		        27*seq_067_mvl/mxv
	BYTE	W03
	BYTE		        23*seq_067_mvl/mxv
	BYTE	W03
	BYTE		        20*seq_067_mvl/mxv
	BYTE	W03
	BYTE		        17*seq_067_mvl/mxv
	BYTE	W03
	BYTE		        13*seq_067_mvl/mxv
	BYTE	W03
	BYTE		        62*seq_067_mvl/mxv
	BYTE		TIE     An2   v084
	BYTE	W09
	BYTE		VOL     61*seq_067_mvl/mxv
	BYTE	W03
	BYTE		        60*seq_067_mvl/mxv
	BYTE	W03
	BYTE		        58*seq_067_mvl/mxv
	BYTE	W03
	BYTE		        57*seq_067_mvl/mxv
	BYTE	W03
	BYTE		        56*seq_067_mvl/mxv
	BYTE	W03
	BYTE		        54*seq_067_mvl/mxv
	BYTE	W03
	BYTE		        54*seq_067_mvl/mxv
	BYTE	W03
	BYTE		        53*seq_067_mvl/mxv
	BYTE	W03
	BYTE		        52*seq_067_mvl/mxv
	BYTE	W03
	BYTE		        53*seq_067_mvl/mxv
	BYTE	W09
	BYTE		        54*seq_067_mvl/mxv
	BYTE	W06
	BYTE		        54*seq_067_mvl/mxv
	BYTE	W06
	BYTE		        55*seq_067_mvl/mxv
	BYTE	W03
	BYTE		        56*seq_067_mvl/mxv
	BYTE	W03
	BYTE		        56*seq_067_mvl/mxv
	BYTE	W03
	BYTE		        57*seq_067_mvl/mxv
	BYTE	W03
	BYTE		        57*seq_067_mvl/mxv
	BYTE	W03
	BYTE		        59*seq_067_mvl/mxv
	BYTE	W03
	BYTE		        59*seq_067_mvl/mxv
	BYTE	W03
	BYTE		        61*seq_067_mvl/mxv
	BYTE	W03
	BYTE		        61*seq_067_mvl/mxv
	BYTE	W03
	BYTE		        62*seq_067_mvl/mxv
	BYTE	W12
	BYTE	PATT
	 POIN2	seq_067_5 + 0xC5
	BYTE		EOT     An2 
	BYTE		VOL     62*seq_067_mvl/mxv
	BYTE		N48     Cs3   v088
	BYTE	W48
	BYTE		N44     Dn3   v084
	BYTE	W48
	BYTE		N48     An2 
	BYTE	W48
	BYTE		N96     Gn2   v076
	BYTE	W21
	BYTE		VOL     61*seq_067_mvl/mxv
	BYTE	W06
	BYTE		        61*seq_067_mvl/mxv
	BYTE	W03
	BYTE		        60*seq_067_mvl/mxv
	BYTE	W03
	BYTE		        59*seq_067_mvl/mxv
	BYTE	W03
	BYTE		        58*seq_067_mvl/mxv
	BYTE	W03
	BYTE		        57*seq_067_mvl/mxv
	BYTE	W03
	BYTE		        56*seq_067_mvl/mxv
	BYTE	W03
	BYTE		        54*seq_067_mvl/mxv
	BYTE	W03
	BYTE		        52*seq_067_mvl/mxv
	BYTE	W03
	BYTE		        51*seq_067_mvl/mxv
	BYTE	W03
	BYTE		        48*seq_067_mvl/mxv
	BYTE	W03
	BYTE		        45*seq_067_mvl/mxv
	BYTE	W03
	BYTE		        43*seq_067_mvl/mxv
	BYTE	W03
	BYTE		        40*seq_067_mvl/mxv
	BYTE	W03
	BYTE		        37*seq_067_mvl/mxv
	BYTE	W03
	BYTE		        34*seq_067_mvl/mxv
	BYTE	W03
	BYTE		        30*seq_067_mvl/mxv
	BYTE	W03
	BYTE		        27*seq_067_mvl/mxv
	BYTE	W03
	BYTE		        22*seq_067_mvl/mxv
	BYTE	W03
	BYTE		        18*seq_067_mvl/mxv
	BYTE	W03
	BYTE		        14*seq_067_mvl/mxv
	BYTE	W03
	BYTE		        10*seq_067_mvl/mxv
	BYTE	W03
	BYTE		        5*seq_067_mvl/mxv
	BYTE	W06
	BYTE	PEND
	BYTE		        62*seq_067_mvl/mxv
	BYTE		N48     Fn2   v084
	BYTE	W48
	BYTE		        Gn2   v080
	BYTE	W48
	BYTE		N96     Cn3 
	BYTE	W09
	BYTE		VOL     62*seq_067_mvl/mxv
	BYTE	W12
	BYTE		        61*seq_067_mvl/mxv
	BYTE	W03
	BYTE		        61*seq_067_mvl/mxv
	BYTE	W03
	BYTE		        60*seq_067_mvl/mxv
	BYTE	W03
	BYTE		        59*seq_067_mvl/mxv
	BYTE	W03
	BYTE		        58*seq_067_mvl/mxv
	BYTE	W03
	BYTE		        57*seq_067_mvl/mxv
	BYTE	W03
	BYTE		        56*seq_067_mvl/mxv
	BYTE	W03
	BYTE		        55*seq_067_mvl/mxv
	BYTE	W03
	BYTE		        53*seq_067_mvl/mxv
	BYTE	W03
	BYTE		        52*seq_067_mvl/mxv
	BYTE	W03
	BYTE		        50*seq_067_mvl/mxv
	BYTE	W03
	BYTE		        48*seq_067_mvl/mxv
	BYTE	W03
	BYTE		        46*seq_067_mvl/mxv
	BYTE	W03
	BYTE		        44*seq_067_mvl/mxv
	BYTE	W03
	BYTE		        42*seq_067_mvl/mxv
	BYTE	W03
	BYTE		        40*seq_067_mvl/mxv
	BYTE	W03
	BYTE		        37*seq_067_mvl/mxv
	BYTE	W03
	BYTE		        35*seq_067_mvl/mxv
	BYTE	W03
	BYTE		        32*seq_067_mvl/mxv
	BYTE	W03
	BYTE		        29*seq_067_mvl/mxv
	BYTE	W03
	BYTE		        27*seq_067_mvl/mxv
	BYTE	W03
	BYTE		        23*seq_067_mvl/mxv
	BYTE	W03
	BYTE		        20*seq_067_mvl/mxv
	BYTE	W03
	BYTE		        17*seq_067_mvl/mxv
	BYTE	W03
	BYTE		        13*seq_067_mvl/mxv
	BYTE	W03
	BYTE		        62*seq_067_mvl/mxv
	BYTE		N44     As2   v084
	BYTE	W48
	BYTE		N48     An2   v092
	BYTE	W48
	BYTE		        Dn3 
	BYTE	W48
	BYTE		        Cn3 
	BYTE	W30
	BYTE		VOL     62*seq_067_mvl/mxv
	BYTE	W03
	BYTE		        61*seq_067_mvl/mxv
	BYTE	W03
	BYTE		        57*seq_067_mvl/mxv
	BYTE	W03
	BYTE		        52*seq_067_mvl/mxv
	BYTE	W03
	BYTE		        44*seq_067_mvl/mxv
	BYTE	W03
	BYTE		        35*seq_067_mvl/mxv
	BYTE	W03
	BYTE		        62*seq_067_mvl/mxv
	BYTE		N92     Ds3   v096
	BYTE	W09
	BYTE		VOL     62*seq_067_mvl/mxv
	BYTE	W12
	BYTE		        61*seq_067_mvl/mxv
	BYTE	W03
	BYTE		        61*seq_067_mvl/mxv
	BYTE	W03
	BYTE		        60*seq_067_mvl/mxv
	BYTE	W03
	BYTE		        59*seq_067_mvl/mxv
	BYTE	W03
	BYTE		        58*seq_067_mvl/mxv
	BYTE	W03
	BYTE		        57*seq_067_mvl/mxv
	BYTE	W03
	BYTE		        56*seq_067_mvl/mxv
	BYTE	W03
	BYTE		        55*seq_067_mvl/mxv
	BYTE	W03
	BYTE		        53*seq_067_mvl/mxv
	BYTE	W03
	BYTE		        52*seq_067_mvl/mxv
	BYTE	W03
	BYTE		        50*seq_067_mvl/mxv
	BYTE	W03
	BYTE		        48*seq_067_mvl/mxv
	BYTE	W03
	BYTE		        46*seq_067_mvl/mxv
	BYTE	W03
	BYTE		        44*seq_067_mvl/mxv
	BYTE	W03
	BYTE		        42*seq_067_mvl/mxv
	BYTE	W03
	BYTE		        40*seq_067_mvl/mxv
	BYTE	W03
	BYTE		        37*seq_067_mvl/mxv
	BYTE	W03
	BYTE		        35*seq_067_mvl/mxv
	BYTE	W03
	BYTE		        32*seq_067_mvl/mxv
	BYTE	W03
	BYTE		        29*seq_067_mvl/mxv
	BYTE	W03
	BYTE		        27*seq_067_mvl/mxv
	BYTE	W03
	BYTE		        23*seq_067_mvl/mxv
	BYTE	W03
	BYTE		        20*seq_067_mvl/mxv
	BYTE	W03
	BYTE		        17*seq_067_mvl/mxv
	BYTE	W03
	BYTE		        13*seq_067_mvl/mxv
	BYTE	W03
	BYTE		        62*seq_067_mvl/mxv
	BYTE		N92     Dn3   v088
	BYTE	W09
	BYTE		VOL     62*seq_067_mvl/mxv
	BYTE	W12
	BYTE		        61*seq_067_mvl/mxv
	BYTE	W03
	BYTE		        61*seq_067_mvl/mxv
	BYTE	W03
	BYTE		        60*seq_067_mvl/mxv
	BYTE	W03
	BYTE		        59*seq_067_mvl/mxv
	BYTE	W03
	BYTE		        58*seq_067_mvl/mxv
	BYTE	W03
	BYTE		        57*seq_067_mvl/mxv
	BYTE	W03
	BYTE		        56*seq_067_mvl/mxv
	BYTE	W03
	BYTE		        55*seq_067_mvl/mxv
	BYTE	W03
	BYTE		        53*seq_067_mvl/mxv
	BYTE	W03
	BYTE		        52*seq_067_mvl/mxv
	BYTE	W03
	BYTE		        50*seq_067_mvl/mxv
	BYTE	W03
	BYTE		        48*seq_067_mvl/mxv
	BYTE	W03
	BYTE		        46*seq_067_mvl/mxv
	BYTE	W03
	BYTE		        44*seq_067_mvl/mxv
	BYTE	W03
	BYTE		        42*seq_067_mvl/mxv
	BYTE	W03
	BYTE		        40*seq_067_mvl/mxv
	BYTE	W03
	BYTE		        37*seq_067_mvl/mxv
	BYTE	W03
	BYTE		        35*seq_067_mvl/mxv
	BYTE	W03
	BYTE		        32*seq_067_mvl/mxv
	BYTE	W03
	BYTE		        29*seq_067_mvl/mxv
	BYTE	W03
	BYTE		        27*seq_067_mvl/mxv
	BYTE	W03
	BYTE		        23*seq_067_mvl/mxv
	BYTE	W03
	BYTE		        20*seq_067_mvl/mxv
	BYTE	W03
	BYTE		        17*seq_067_mvl/mxv
	BYTE	W03
	BYTE		        13*seq_067_mvl/mxv
	BYTE	W03
	BYTE		        62*seq_067_mvl/mxv
	BYTE		N48     Gs2 
	BYTE	W48
	BYTE		N24     Ds3   v084
	BYTE	W24
	BYTE		        Cn3   v080
	BYTE	W24
	BYTE		N96     Gn2   v076
	BYTE	W09
	BYTE		VOL     62*seq_067_mvl/mxv
	BYTE	W12
	BYTE		        61*seq_067_mvl/mxv
	BYTE	W03
	BYTE		        61*seq_067_mvl/mxv
	BYTE	W03
	BYTE		        60*seq_067_mvl/mxv
	BYTE	W03
	BYTE		        59*seq_067_mvl/mxv
	BYTE	W03
	BYTE		        58*seq_067_mvl/mxv
	BYTE	W03
	BYTE		        57*seq_067_mvl/mxv
	BYTE	W03
	BYTE		        56*seq_067_mvl/mxv
	BYTE	W03
	BYTE		        55*seq_067_mvl/mxv
	BYTE	W03
	BYTE		        53*seq_067_mvl/mxv
	BYTE	W03
	BYTE		        52*seq_067_mvl/mxv
	BYTE	W03
	BYTE		        50*seq_067_mvl/mxv
	BYTE	W03
	BYTE		        48*seq_067_mvl/mxv
	BYTE	W03
	BYTE		        46*seq_067_mvl/mxv
	BYTE	W03
	BYTE		        44*seq_067_mvl/mxv
	BYTE	W03
	BYTE		        42*seq_067_mvl/mxv
	BYTE	W03
	BYTE		        40*seq_067_mvl/mxv
	BYTE	W03
	BYTE		        37*seq_067_mvl/mxv
	BYTE	W03
	BYTE		        35*seq_067_mvl/mxv
	BYTE	W03
	BYTE		        32*seq_067_mvl/mxv
	BYTE	W03
	BYTE		        29*seq_067_mvl/mxv
	BYTE	W03
	BYTE		        27*seq_067_mvl/mxv
	BYTE	W03
	BYTE		        23*seq_067_mvl/mxv
	BYTE	W03
	BYTE		        20*seq_067_mvl/mxv
	BYTE	W03
	BYTE		        17*seq_067_mvl/mxv
	BYTE	W03
	BYTE		        13*seq_067_mvl/mxv
	BYTE	W03
	BYTE	PATT
	 POIN2	seq_067_5 + 0x112
	BYTE	PATT
	 POIN2	seq_067_5 + 0x27
	BYTE	PATT
	 POIN2	seq_067_5 + 0x2F
	BYTE		N96     Gn2   v084
	BYTE	W09
	BYTE		VOL     62*seq_067_mvl/mxv
	BYTE	W12
	BYTE		        61*seq_067_mvl/mxv
	BYTE	W03
	BYTE		        61*seq_067_mvl/mxv
	BYTE	W03
	BYTE		        60*seq_067_mvl/mxv
	BYTE	W03
	BYTE		        59*seq_067_mvl/mxv
	BYTE	W03
	BYTE		        58*seq_067_mvl/mxv
	BYTE	W03
	BYTE		        57*seq_067_mvl/mxv
	BYTE	W03
	BYTE		        56*seq_067_mvl/mxv
	BYTE	W03
	BYTE		        55*seq_067_mvl/mxv
	BYTE	W03
	BYTE		        53*seq_067_mvl/mxv
	BYTE	W03
	BYTE		        52*seq_067_mvl/mxv
	BYTE	W03
	BYTE		        50*seq_067_mvl/mxv
	BYTE	W03
	BYTE		        48*seq_067_mvl/mxv
	BYTE	W03
	BYTE		        46*seq_067_mvl/mxv
	BYTE	W03
	BYTE		        44*seq_067_mvl/mxv
	BYTE	W03
	BYTE		        42*seq_067_mvl/mxv
	BYTE	W03
	BYTE		        40*seq_067_mvl/mxv
	BYTE	W03
	BYTE		        37*seq_067_mvl/mxv
	BYTE	W03
	BYTE		        35*seq_067_mvl/mxv
	BYTE	W03
	BYTE		        32*seq_067_mvl/mxv
	BYTE	W03
	BYTE		        29*seq_067_mvl/mxv
	BYTE	W03
	BYTE		        27*seq_067_mvl/mxv
	BYTE	W03
	BYTE		        23*seq_067_mvl/mxv
	BYTE	W03
	BYTE		        20*seq_067_mvl/mxv
	BYTE	W03
	BYTE		        17*seq_067_mvl/mxv
	BYTE	W03
	BYTE		        13*seq_067_mvl/mxv
	BYTE	W03
	BYTE	PEND
	BYTE	PATT
	 POIN2	seq_067_5 + 0x91
	BYTE	PATT
	 POIN2	seq_067_5 + 0xC5
	BYTE		EOT     An2 
	BYTE		VOL     62*seq_067_mvl/mxv
	BYTE		N48     Cs3   v080
	BYTE	W48
	BYTE	PATT
	 POIN2	seq_067_5 + 0xD7
	BYTE	PATT
	 POIN2	seq_067_5 + 0x1C3
	BYTE		VOL     62*seq_067_mvl/mxv
	BYTE		N48     Cn3   v092
	BYTE	W48
	BYTE		        Bn2 
	BYTE	W48
	BYTE	PEND
	BYTE		N48     An2   v092
	BYTE	W48
	BYTE		        Gs2 
	BYTE	W48
	BYTE	PEND
	BYTE		N48     Fn2   v100
	BYTE	W03
	BYTE		VOL     60*seq_067_mvl/mxv
	BYTE	W03
	BYTE		        56*seq_067_mvl/mxv
	BYTE	W09
	BYTE		        57*seq_067_mvl/mxv
	BYTE	W03
	BYTE		        57*seq_067_mvl/mxv
	BYTE	W03
	BYTE		        59*seq_067_mvl/mxv
	BYTE	W03
	BYTE		        59*seq_067_mvl/mxv
	BYTE	W03
	BYTE		        61*seq_067_mvl/mxv
	BYTE	W03
	BYTE		        63*seq_067_mvl/mxv
	BYTE	W03
	BYTE		        65*seq_067_mvl/mxv
	BYTE	W03
	BYTE		        68*seq_067_mvl/mxv
	BYTE	W03
	BYTE		        66*seq_067_mvl/mxv
	BYTE	W03
	BYTE		        64*seq_067_mvl/mxv
	BYTE	W03
	BYTE		        63*seq_067_mvl/mxv
	BYTE	W03
	BYTE		        62*seq_067_mvl/mxv
	BYTE		N48     Fs2 
	BYTE	W48
	BYTE	PEND
	BYTE		N96     Gn2   v100
	BYTE	W09
	BYTE		VOL     62*seq_067_mvl/mxv
	BYTE	W12
	BYTE		        61*seq_067_mvl/mxv
	BYTE	W03
	BYTE		        61*seq_067_mvl/mxv
	BYTE	W03
	BYTE		        60*seq_067_mvl/mxv
	BYTE	W03
	BYTE		        59*seq_067_mvl/mxv
	BYTE	W03
	BYTE		        58*seq_067_mvl/mxv
	BYTE	W03
	BYTE		        57*seq_067_mvl/mxv
	BYTE	W03
	BYTE		        56*seq_067_mvl/mxv
	BYTE	W03
	BYTE		        55*seq_067_mvl/mxv
	BYTE	W03
	BYTE		        53*seq_067_mvl/mxv
	BYTE	W03
	BYTE		        52*seq_067_mvl/mxv
	BYTE	W03
	BYTE		        50*seq_067_mvl/mxv
	BYTE	W03
	BYTE		        48*seq_067_mvl/mxv
	BYTE	W03
	BYTE		        46*seq_067_mvl/mxv
	BYTE	W03
	BYTE		        44*seq_067_mvl/mxv
	BYTE	W03
	BYTE		        42*seq_067_mvl/mxv
	BYTE	W03
	BYTE		        40*seq_067_mvl/mxv
	BYTE	W03
	BYTE		        37*seq_067_mvl/mxv
	BYTE	W03
	BYTE		        35*seq_067_mvl/mxv
	BYTE	W03
	BYTE		        32*seq_067_mvl/mxv
	BYTE	W03
	BYTE		        29*seq_067_mvl/mxv
	BYTE	W03
	BYTE		        27*seq_067_mvl/mxv
	BYTE	W03
	BYTE		        23*seq_067_mvl/mxv
	BYTE	W03
	BYTE		        20*seq_067_mvl/mxv
	BYTE	W03
	BYTE		        17*seq_067_mvl/mxv
	BYTE	W03
	BYTE		        13*seq_067_mvl/mxv
	BYTE	W03
	BYTE	PEND
	BYTE		VOL     62*seq_067_mvl/mxv
	BYTE		TIE     An2   v092
	BYTE	W09
	BYTE		VOL     61*seq_067_mvl/mxv
	BYTE	W03
	BYTE		        60*seq_067_mvl/mxv
	BYTE	W03
	BYTE		        58*seq_067_mvl/mxv
	BYTE	W03
	BYTE		        57*seq_067_mvl/mxv
	BYTE	W03
	BYTE		        56*seq_067_mvl/mxv
	BYTE	W03
	BYTE		        54*seq_067_mvl/mxv
	BYTE	W03
	BYTE		        54*seq_067_mvl/mxv
	BYTE	W03
	BYTE		        53*seq_067_mvl/mxv
	BYTE	W03
	BYTE		        52*seq_067_mvl/mxv
	BYTE	W03
	BYTE		        53*seq_067_mvl/mxv
	BYTE	W09
	BYTE		        54*seq_067_mvl/mxv
	BYTE	W06
	BYTE		        54*seq_067_mvl/mxv
	BYTE	W06
	BYTE		        55*seq_067_mvl/mxv
	BYTE	W03
	BYTE		        56*seq_067_mvl/mxv
	BYTE	W03
	BYTE		        56*seq_067_mvl/mxv
	BYTE	W03
	BYTE		        57*seq_067_mvl/mxv
	BYTE	W03
	BYTE		        57*seq_067_mvl/mxv
	BYTE	W03
	BYTE		        59*seq_067_mvl/mxv
	BYTE	W03
	BYTE		        59*seq_067_mvl/mxv
	BYTE	W03
	BYTE		        61*seq_067_mvl/mxv
	BYTE	W03
	BYTE		        61*seq_067_mvl/mxv
	BYTE	W03
	BYTE		        62*seq_067_mvl/mxv
	BYTE	W12
	BYTE	PEND
	BYTE	PATT
	 POIN2	seq_067_5 + 0xC5
	BYTE		EOT     An2 
	BYTE		VOL     62*seq_067_mvl/mxv
	BYTE		N48     Cs3   v092
	BYTE	W48
	BYTE		N44     Dn3   v092
	BYTE	W48
	BYTE		N48     An2   v088
	BYTE	W48
	BYTE	PEND
	BYTE		N96     Gn2   v084
	BYTE	W21
	BYTE		VOL     61*seq_067_mvl/mxv
	BYTE	W06
	BYTE		        61*seq_067_mvl/mxv
	BYTE	W03
	BYTE		        60*seq_067_mvl/mxv
	BYTE	W03
	BYTE		        59*seq_067_mvl/mxv
	BYTE	W03
	BYTE		        58*seq_067_mvl/mxv
	BYTE	W03
	BYTE		        57*seq_067_mvl/mxv
	BYTE	W03
	BYTE		        56*seq_067_mvl/mxv
	BYTE	W03
	BYTE		        54*seq_067_mvl/mxv
	BYTE	W03
	BYTE		        52*seq_067_mvl/mxv
	BYTE	W03
	BYTE		        51*seq_067_mvl/mxv
	BYTE	W03
	BYTE		        48*seq_067_mvl/mxv
	BYTE	W03
	BYTE		        45*seq_067_mvl/mxv
	BYTE	W03
	BYTE		        43*seq_067_mvl/mxv
	BYTE	W03
	BYTE		        40*seq_067_mvl/mxv
	BYTE	W03
	BYTE		        37*seq_067_mvl/mxv
	BYTE	W03
	BYTE		        34*seq_067_mvl/mxv
	BYTE	W03
	BYTE		        30*seq_067_mvl/mxv
	BYTE	W03
	BYTE		        27*seq_067_mvl/mxv
	BYTE	W03
	BYTE		        22*seq_067_mvl/mxv
	BYTE	W03
	BYTE		        18*seq_067_mvl/mxv
	BYTE	W03
	BYTE		        14*seq_067_mvl/mxv
	BYTE	W03
	BYTE		        10*seq_067_mvl/mxv
	BYTE	W03
	BYTE		        5*seq_067_mvl/mxv
	BYTE	W06
	BYTE	PEND
	BYTE		VOL     62*seq_067_mvl/mxv
	BYTE		N48     Fn2   v092
	BYTE	W48
	BYTE		        Gn2   v088
	BYTE	W48
	BYTE	PEND
	BYTE		N96     Cn3   v084
	BYTE	W09
	BYTE		VOL     62*seq_067_mvl/mxv
	BYTE	W12
	BYTE		        61*seq_067_mvl/mxv
	BYTE	W03
	BYTE		        61*seq_067_mvl/mxv
	BYTE	W03
	BYTE		        60*seq_067_mvl/mxv
	BYTE	W03
	BYTE		        59*seq_067_mvl/mxv
	BYTE	W03
	BYTE		        58*seq_067_mvl/mxv
	BYTE	W03
	BYTE		        57*seq_067_mvl/mxv
	BYTE	W03
	BYTE		        56*seq_067_mvl/mxv
	BYTE	W03
	BYTE		        55*seq_067_mvl/mxv
	BYTE	W03
	BYTE		        53*seq_067_mvl/mxv
	BYTE	W03
	BYTE		        52*seq_067_mvl/mxv
	BYTE	W03
	BYTE		        50*seq_067_mvl/mxv
	BYTE	W03
	BYTE		        48*seq_067_mvl/mxv
	BYTE	W03
	BYTE		        46*seq_067_mvl/mxv
	BYTE	W03
	BYTE		        44*seq_067_mvl/mxv
	BYTE	W03
	BYTE		        42*seq_067_mvl/mxv
	BYTE	W03
	BYTE		        40*seq_067_mvl/mxv
	BYTE	W03
	BYTE		        37*seq_067_mvl/mxv
	BYTE	W03
	BYTE		        35*seq_067_mvl/mxv
	BYTE	W03
	BYTE		        32*seq_067_mvl/mxv
	BYTE	W03
	BYTE		        29*seq_067_mvl/mxv
	BYTE	W03
	BYTE		        27*seq_067_mvl/mxv
	BYTE	W03
	BYTE		        23*seq_067_mvl/mxv
	BYTE	W03
	BYTE		        20*seq_067_mvl/mxv
	BYTE	W03
	BYTE		        17*seq_067_mvl/mxv
	BYTE	W03
	BYTE		        13*seq_067_mvl/mxv
	BYTE	W03
	BYTE	PEND
	BYTE		        62*seq_067_mvl/mxv
	BYTE		N44     As2   v092
	BYTE	W48
	BYTE		N48     An2   v096
	BYTE	W48
	BYTE		        Dn3 
	BYTE	W48
	BYTE		        Cn3   v100
	BYTE	W48
	BYTE		N92     Ds3 
	BYTE	W09
	BYTE		VOL     62*seq_067_mvl/mxv
	BYTE	W12
	BYTE		        61*seq_067_mvl/mxv
	BYTE	W03
	BYTE		        61*seq_067_mvl/mxv
	BYTE	W03
	BYTE		        60*seq_067_mvl/mxv
	BYTE	W03
	BYTE		        59*seq_067_mvl/mxv
	BYTE	W03
	BYTE		        58*seq_067_mvl/mxv
	BYTE	W03
	BYTE		        57*seq_067_mvl/mxv
	BYTE	W03
	BYTE		        56*seq_067_mvl/mxv
	BYTE	W03
	BYTE		        55*seq_067_mvl/mxv
	BYTE	W03
	BYTE		        53*seq_067_mvl/mxv
	BYTE	W03
	BYTE		        52*seq_067_mvl/mxv
	BYTE	W03
	BYTE		        50*seq_067_mvl/mxv
	BYTE	W03
	BYTE		        48*seq_067_mvl/mxv
	BYTE	W03
	BYTE		        46*seq_067_mvl/mxv
	BYTE	W03
	BYTE		        44*seq_067_mvl/mxv
	BYTE	W03
	BYTE		        42*seq_067_mvl/mxv
	BYTE	W03
	BYTE		        40*seq_067_mvl/mxv
	BYTE	W03
	BYTE		        37*seq_067_mvl/mxv
	BYTE	W03
	BYTE		        35*seq_067_mvl/mxv
	BYTE	W03
	BYTE		        32*seq_067_mvl/mxv
	BYTE	W03
	BYTE		        29*seq_067_mvl/mxv
	BYTE	W03
	BYTE		        27*seq_067_mvl/mxv
	BYTE	W03
	BYTE		        23*seq_067_mvl/mxv
	BYTE	W03
	BYTE		        20*seq_067_mvl/mxv
	BYTE	W03
	BYTE		        17*seq_067_mvl/mxv
	BYTE	W03
	BYTE		        13*seq_067_mvl/mxv
	BYTE	W03
	BYTE		        62*seq_067_mvl/mxv
	BYTE		N92     Dn3   v092
	BYTE	W09
	BYTE		VOL     62*seq_067_mvl/mxv
	BYTE	W12
	BYTE		        61*seq_067_mvl/mxv
	BYTE	W03
	BYTE		        61*seq_067_mvl/mxv
	BYTE	W03
	BYTE		        60*seq_067_mvl/mxv
	BYTE	W03
	BYTE		        59*seq_067_mvl/mxv
	BYTE	W03
	BYTE		        58*seq_067_mvl/mxv
	BYTE	W03
	BYTE		        57*seq_067_mvl/mxv
	BYTE	W03
	BYTE		        56*seq_067_mvl/mxv
	BYTE	W03
	BYTE		        55*seq_067_mvl/mxv
	BYTE	W03
	BYTE		        53*seq_067_mvl/mxv
	BYTE	W03
	BYTE		        52*seq_067_mvl/mxv
	BYTE	W03
	BYTE		        50*seq_067_mvl/mxv
	BYTE	W03
	BYTE		        48*seq_067_mvl/mxv
	BYTE	W03
	BYTE		        46*seq_067_mvl/mxv
	BYTE	W03
	BYTE		        44*seq_067_mvl/mxv
	BYTE	W03
	BYTE		        42*seq_067_mvl/mxv
	BYTE	W03
	BYTE		        40*seq_067_mvl/mxv
	BYTE	W03
	BYTE		        37*seq_067_mvl/mxv
	BYTE	W03
	BYTE		        35*seq_067_mvl/mxv
	BYTE	W03
	BYTE		        32*seq_067_mvl/mxv
	BYTE	W03
	BYTE		        29*seq_067_mvl/mxv
	BYTE	W03
	BYTE		        27*seq_067_mvl/mxv
	BYTE	W03
	BYTE		        23*seq_067_mvl/mxv
	BYTE	W03
	BYTE		        20*seq_067_mvl/mxv
	BYTE	W03
	BYTE		        17*seq_067_mvl/mxv
	BYTE	W03
	BYTE		        13*seq_067_mvl/mxv
	BYTE	W03
	BYTE		        62*seq_067_mvl/mxv
	BYTE		N48     Gs2   v096
	BYTE	W48
	BYTE		N24     Ds3   v092
	BYTE	W24
	BYTE		        Cn3   v084
	BYTE	W24
	BYTE		N96     Gn2   v080
	BYTE	W09
	BYTE		VOL     62*seq_067_mvl/mxv
	BYTE	W12
	BYTE		        61*seq_067_mvl/mxv
	BYTE	W03
	BYTE		        61*seq_067_mvl/mxv
	BYTE	W03
	BYTE		        60*seq_067_mvl/mxv
	BYTE	W03
	BYTE		        59*seq_067_mvl/mxv
	BYTE	W03
	BYTE		        58*seq_067_mvl/mxv
	BYTE	W03
	BYTE		        57*seq_067_mvl/mxv
	BYTE	W03
	BYTE		        56*seq_067_mvl/mxv
	BYTE	W03
	BYTE		        55*seq_067_mvl/mxv
	BYTE	W03
	BYTE		        53*seq_067_mvl/mxv
	BYTE	W03
	BYTE		        52*seq_067_mvl/mxv
	BYTE	W03
	BYTE		        50*seq_067_mvl/mxv
	BYTE	W03
	BYTE		        48*seq_067_mvl/mxv
	BYTE	W03
	BYTE		        46*seq_067_mvl/mxv
	BYTE	W03
	BYTE		        44*seq_067_mvl/mxv
	BYTE	W03
	BYTE		        42*seq_067_mvl/mxv
	BYTE	W03
	BYTE		        40*seq_067_mvl/mxv
	BYTE	W03
	BYTE		        37*seq_067_mvl/mxv
	BYTE	W03
	BYTE		        35*seq_067_mvl/mxv
	BYTE	W03
	BYTE		        32*seq_067_mvl/mxv
	BYTE	W03
	BYTE		        29*seq_067_mvl/mxv
	BYTE	W03
	BYTE		        27*seq_067_mvl/mxv
	BYTE	W03
	BYTE		        23*seq_067_mvl/mxv
	BYTE	W03
	BYTE		        20*seq_067_mvl/mxv
	BYTE	W03
	BYTE		        17*seq_067_mvl/mxv
	BYTE	W03
	BYTE		        13*seq_067_mvl/mxv
	BYTE	W03
	BYTE	PATT
	 POIN2	seq_067_5 + 0x36E
	BYTE	PATT
	 POIN2	seq_067_5 + 0x27
	BYTE	PATT
	 POIN2	seq_067_5 + 0x2F
	BYTE	PATT
	 POIN2	seq_067_5 + 0x318
	BYTE	PATT
	 POIN2	seq_067_5 + 0x91
	BYTE	PATT
	 POIN2	seq_067_5 + 0xC5
	BYTE		EOT     An2 
	BYTE		VOL     62*seq_067_mvl/mxv
	BYTE		N48     Cs3   v080
	BYTE	W48
	BYTE	PATT
	 POIN2	seq_067_5 + 0xD7
	BYTE	PATT
	 POIN2	seq_067_5 + 0x1C3
	BYTE	PATT
	 POIN2	seq_067_5 + 0x36E
	BYTE	PATT
	 POIN2	seq_067_5 + 0x377
	BYTE	PATT
	 POIN2	seq_067_5 + 0x37E
	BYTE	PATT
	 POIN2	seq_067_5 + 0x3A2
	BYTE	PATT
	 POIN2	seq_067_5 + 0x3DC
	BYTE	PATT
	 POIN2	seq_067_5 + 0xC5
	BYTE		EOT     An2 
	BYTE		VOL     62*seq_067_mvl/mxv
	BYTE		N48     Cs3   v092
	BYTE	W48
	BYTE	PATT
	 POIN2	seq_067_5 + 0x41D
	BYTE	PATT
	 POIN2	seq_067_5 + 0x426
	BYTE	PATT
	 POIN2	seq_067_5 + 0x45A
	BYTE	PATT
	 POIN2	seq_067_5 + 0x464
	BYTE		VOL     62*seq_067_mvl/mxv
	BYTE		N48     As2   v092
	BYTE	W48
	BYTE		        An2   v096
	BYTE	W48
	BYTE		        Dn3 
	BYTE	W48
	BYTE		        Cn3   v100
	BYTE	W36
	BYTE		VOL     60*seq_067_mvl/mxv
	BYTE	W03
	BYTE		        58*seq_067_mvl/mxv
	BYTE	W03
	BYTE		        56*seq_067_mvl/mxv
	BYTE	W03
	BYTE		        54*seq_067_mvl/mxv
	BYTE	W03
	BYTE		        62*seq_067_mvl/mxv
	BYTE		N92     Ds3 
	BYTE	W09
	BYTE		VOL     62*seq_067_mvl/mxv
	BYTE	W12
	BYTE		        61*seq_067_mvl/mxv
	BYTE	W03
	BYTE		        61*seq_067_mvl/mxv
	BYTE	W03
	BYTE		        60*seq_067_mvl/mxv
	BYTE	W03
	BYTE		        59*seq_067_mvl/mxv
	BYTE	W03
	BYTE		        58*seq_067_mvl/mxv
	BYTE	W03
	BYTE		        57*seq_067_mvl/mxv
	BYTE	W03
	BYTE		        56*seq_067_mvl/mxv
	BYTE	W03
	BYTE		        55*seq_067_mvl/mxv
	BYTE	W03
	BYTE		        53*seq_067_mvl/mxv
	BYTE	W03
	BYTE		        52*seq_067_mvl/mxv
	BYTE	W03
	BYTE		        50*seq_067_mvl/mxv
	BYTE	W03
	BYTE		        48*seq_067_mvl/mxv
	BYTE	W03
	BYTE		        46*seq_067_mvl/mxv
	BYTE	W03
	BYTE		        44*seq_067_mvl/mxv
	BYTE	W03
	BYTE		        42*seq_067_mvl/mxv
	BYTE	W03
	BYTE		        40*seq_067_mvl/mxv
	BYTE	W03
	BYTE		        37*seq_067_mvl/mxv
	BYTE	W03
	BYTE		        35*seq_067_mvl/mxv
	BYTE	W03
	BYTE		        32*seq_067_mvl/mxv
	BYTE	W03
	BYTE		        29*seq_067_mvl/mxv
	BYTE	W03
	BYTE		        27*seq_067_mvl/mxv
	BYTE	W03
	BYTE		        23*seq_067_mvl/mxv
	BYTE	W03
	BYTE		        20*seq_067_mvl/mxv
	BYTE	W03
	BYTE		        17*seq_067_mvl/mxv
	BYTE	W03
	BYTE		        13*seq_067_mvl/mxv
	BYTE	W03
	BYTE		        62*seq_067_mvl/mxv
	BYTE		N96     Dn3   v092
	BYTE	W09
	BYTE		VOL     62*seq_067_mvl/mxv
	BYTE	W12
	BYTE		        61*seq_067_mvl/mxv
	BYTE	W03
	BYTE		        61*seq_067_mvl/mxv
	BYTE	W03
	BYTE		        60*seq_067_mvl/mxv
	BYTE	W03
	BYTE		        59*seq_067_mvl/mxv
	BYTE	W03
	BYTE		        58*seq_067_mvl/mxv
	BYTE	W03
	BYTE		        57*seq_067_mvl/mxv
	BYTE	W03
	BYTE		        56*seq_067_mvl/mxv
	BYTE	W03
	BYTE		        55*seq_067_mvl/mxv
	BYTE	W03
	BYTE		        53*seq_067_mvl/mxv
	BYTE	W03
	BYTE		        52*seq_067_mvl/mxv
	BYTE	W03
	BYTE		        50*seq_067_mvl/mxv
	BYTE	W03
	BYTE		        48*seq_067_mvl/mxv
	BYTE	W03
	BYTE		        46*seq_067_mvl/mxv
	BYTE	W03
	BYTE		        44*seq_067_mvl/mxv
	BYTE	W03
	BYTE		        42*seq_067_mvl/mxv
	BYTE	W03
	BYTE		        40*seq_067_mvl/mxv
	BYTE	W03
	BYTE		        37*seq_067_mvl/mxv
	BYTE	W03
	BYTE		        35*seq_067_mvl/mxv
	BYTE	W03
	BYTE		        32*seq_067_mvl/mxv
	BYTE	W03
	BYTE		        29*seq_067_mvl/mxv
	BYTE	W03
	BYTE		        27*seq_067_mvl/mxv
	BYTE	W03
	BYTE		        23*seq_067_mvl/mxv
	BYTE	W03
	BYTE		        20*seq_067_mvl/mxv
	BYTE	W03
	BYTE		        17*seq_067_mvl/mxv
	BYTE	W03
	BYTE		        13*seq_067_mvl/mxv
	BYTE	W03
	BYTE		        62*seq_067_mvl/mxv
	BYTE		N48     Gs2   v096
	BYTE	W48
	BYTE		        Ds3   v088
	BYTE	W48
	BYTE		        Cn3 
	BYTE	W48
	BYTE		        Gs2   v084
	BYTE	W36
	BYTE		VOL     62*seq_067_mvl/mxv
	BYTE	W03
	BYTE		        61*seq_067_mvl/mxv
	BYTE	W03
	BYTE		        58*seq_067_mvl/mxv
	BYTE	W03
	BYTE		        54*seq_067_mvl/mxv
	BYTE	W03
	BYTE		        62*seq_067_mvl/mxv
	BYTE		N48     Gn2   v092
	BYTE	W48
	BYTE		        Dn3 
	BYTE	W48
	BYTE		        Bn2 
	BYTE	W48
	BYTE		        Gn2 
	BYTE	W48
	BYTE		TIE     Cn3   v080
	BYTE	W24
	BYTE		VOL     62*seq_067_mvl/mxv
	BYTE	W18
	BYTE		        61*seq_067_mvl/mxv
	BYTE	W12
	BYTE		        61*seq_067_mvl/mxv
	BYTE	W12
	BYTE		        60*seq_067_mvl/mxv
	BYTE	W06
	BYTE		        59*seq_067_mvl/mxv
	BYTE	W06
	BYTE		        59*seq_067_mvl/mxv
	BYTE	W06
	BYTE		        58*seq_067_mvl/mxv
	BYTE	W06
	BYTE		        57*seq_067_mvl/mxv
	BYTE	W06
	BYTE		        56*seq_067_mvl/mxv
	BYTE	W06
	BYTE		        55*seq_067_mvl/mxv
	BYTE	W06
	BYTE		        54*seq_067_mvl/mxv
	BYTE	W06
	BYTE		        53*seq_067_mvl/mxv
	BYTE	W06
	BYTE		        52*seq_067_mvl/mxv
	BYTE	W06
	BYTE		        50*seq_067_mvl/mxv
	BYTE	W06
	BYTE		        49*seq_067_mvl/mxv
	BYTE	W06
	BYTE		        47*seq_067_mvl/mxv
	BYTE	W06
	BYTE		        46*seq_067_mvl/mxv
	BYTE	W06
	BYTE		        44*seq_067_mvl/mxv
	BYTE	W06
	BYTE		        42*seq_067_mvl/mxv
	BYTE	W06
	BYTE		        40*seq_067_mvl/mxv
	BYTE	W06
	BYTE		        39*seq_067_mvl/mxv
	BYTE	W06
	BYTE		        37*seq_067_mvl/mxv
	BYTE	W06
	BYTE		        35*seq_067_mvl/mxv
	BYTE	W06
	BYTE		        32*seq_067_mvl/mxv
	BYTE	W06
	BYTE		        30*seq_067_mvl/mxv
	BYTE	W06
	BYTE		        28*seq_067_mvl/mxv
	BYTE	W06
	BYTE		        26*seq_067_mvl/mxv
	BYTE	W06
	BYTE		        23*seq_067_mvl/mxv
	BYTE	W06
	BYTE		        20*seq_067_mvl/mxv
	BYTE	W06
	BYTE		        18*seq_067_mvl/mxv
	BYTE	W06
	BYTE		        15*seq_067_mvl/mxv
	BYTE	W06
	BYTE		        13*seq_067_mvl/mxv
	BYTE	W06
	BYTE		        10*seq_067_mvl/mxv
	BYTE	W06
	BYTE		        7*seq_067_mvl/mxv
	BYTE	W06
	BYTE		        4*seq_067_mvl/mxv
	BYTE	W06
	BYTE		        1*seq_067_mvl/mxv
	BYTE	W06
	BYTE		EOT
	BYTE	W24
	BYTE	W96
	BYTE	W54
	BYTE	FINE

//*********************** Track 07 ***********************//

seq_067_6:
	BYTE	KEYSH   seq_067_key+0
	BYTE		VOICE   73
	BYTE	W01
	BYTE		VOL     62*seq_067_mvl/mxv
	BYTE	W01
	BYTE		PAN     c_v+21
	BYTE	W01
	BYTE	W96
	BYTE	W96
	BYTE	W96
	BYTE	W90
	BYTE	W01
	BYTE		N30     Cn2   v048
	BYTE	W03
	BYTE		N24     En2 
	BYTE	W02
	BYTE		VOL     62*seq_067_mvl/mxv
	BYTE	W06
	BYTE		        61*seq_067_mvl/mxv
	BYTE	W01
	BYTE		        61*seq_067_mvl/mxv
	BYTE	W02
	BYTE		        59*seq_067_mvl/mxv
	BYTE	W01
	BYTE		        57*seq_067_mvl/mxv
	BYTE	W02
	BYTE		        54*seq_067_mvl/mxv
	BYTE	W01
	BYTE		        51*seq_067_mvl/mxv
	BYTE	W02
	BYTE		        45*seq_067_mvl/mxv
	BYTE	W01
	BYTE		        40*seq_067_mvl/mxv
	BYTE	W02
	BYTE		        34*seq_067_mvl/mxv
	BYTE	W01
	BYTE		        26*seq_067_mvl/mxv
	BYTE	W02
	BYTE		        18*seq_067_mvl/mxv
	BYTE	W01
	BYTE		        9*seq_067_mvl/mxv
	BYTE	W05
	BYTE		        62*seq_067_mvl/mxv
	BYTE	W16
	BYTE		N30     Dn2   v044
	BYTE	W02
	BYTE		N24     Gn2   v036
	BYTE	W01
	BYTE		        Bn2 
	BYTE	W02
	BYTE		VOL     62*seq_067_mvl/mxv
	BYTE	W06
	BYTE		        61*seq_067_mvl/mxv
	BYTE	W01
	BYTE		        61*seq_067_mvl/mxv
	BYTE	W02
	BYTE		        59*seq_067_mvl/mxv
	BYTE	W01
	BYTE		        57*seq_067_mvl/mxv
	BYTE	W02
	BYTE		        54*seq_067_mvl/mxv
	BYTE	W01
	BYTE		        51*seq_067_mvl/mxv
	BYTE	W02
	BYTE		        45*seq_067_mvl/mxv
	BYTE	W01
	BYTE		        40*seq_067_mvl/mxv
	BYTE	W02
	BYTE		        34*seq_067_mvl/mxv
	BYTE	W01
	BYTE		        26*seq_067_mvl/mxv
	BYTE	W02
	BYTE		        18*seq_067_mvl/mxv
	BYTE	W01
	BYTE		        9*seq_067_mvl/mxv
	BYTE	W11
	BYTE		        62*seq_067_mvl/mxv
	BYTE	W10
	BYTE		N30     Fn2   v052
	BYTE	W02
	BYTE		N24     An2   v048
	BYTE	W01
	BYTE		        Cn3   v044
	BYTE	W02
	BYTE		VOL     62*seq_067_mvl/mxv
	BYTE	W06
	BYTE		        61*seq_067_mvl/mxv
	BYTE	W01
	BYTE		        61*seq_067_mvl/mxv
	BYTE	W02
	BYTE		        59*seq_067_mvl/mxv
	BYTE	W01
	BYTE		        57*seq_067_mvl/mxv
	BYTE	W02
	BYTE		        54*seq_067_mvl/mxv
	BYTE	W01
	BYTE		        51*seq_067_mvl/mxv
	BYTE	W02
	BYTE		        45*seq_067_mvl/mxv
	BYTE	W01
	BYTE		        40*seq_067_mvl/mxv
	BYTE	W02
	BYTE		        34*seq_067_mvl/mxv
	BYTE	W01
	BYTE		        26*seq_067_mvl/mxv
	BYTE	W02
	BYTE		        18*seq_067_mvl/mxv
	BYTE	W01
	BYTE		        9*seq_067_mvl/mxv
	BYTE	W12
	BYTE		        62*seq_067_mvl/mxv
	BYTE	W09
	BYTE		N30     Fn2   v040
	BYTE	W02
	BYTE		N24     Gn2   v032
	BYTE	W01
	BYTE		        Bn2 
	BYTE	W02
	BYTE		VOL     62*seq_067_mvl/mxv
	BYTE	W06
	BYTE		        61*seq_067_mvl/mxv
	BYTE	W01
	BYTE		        61*seq_067_mvl/mxv
	BYTE	W02
	BYTE		        59*seq_067_mvl/mxv
	BYTE	W01
	BYTE		        57*seq_067_mvl/mxv
	BYTE	W02
	BYTE		        54*seq_067_mvl/mxv
	BYTE	W01
	BYTE		        51*seq_067_mvl/mxv
	BYTE	W02
	BYTE		        45*seq_067_mvl/mxv
	BYTE	W01
	BYTE		        40*seq_067_mvl/mxv
	BYTE	W02
	BYTE		        34*seq_067_mvl/mxv
	BYTE	W01
	BYTE		        26*seq_067_mvl/mxv
	BYTE	W02
	BYTE		        18*seq_067_mvl/mxv
	BYTE	W01
	BYTE		        9*seq_067_mvl/mxv
	BYTE	W09
	BYTE		        62*seq_067_mvl/mxv
	BYTE	W12
	BYTE		N30     Cn2   v040
	BYTE	W02
	BYTE		N24     Fn2   v036
	BYTE	W01
	BYTE		        An2   v040
	BYTE	W02
	BYTE		VOL     62*seq_067_mvl/mxv
	BYTE	W06
	BYTE		        61*seq_067_mvl/mxv
	BYTE	W01
	BYTE		        61*seq_067_mvl/mxv
	BYTE	W02
	BYTE		        59*seq_067_mvl/mxv
	BYTE	W01
	BYTE		        57*seq_067_mvl/mxv
	BYTE	W02
	BYTE		        54*seq_067_mvl/mxv
	BYTE	W01
	BYTE		        51*seq_067_mvl/mxv
	BYTE	W02
	BYTE		        45*seq_067_mvl/mxv
	BYTE	W01
	BYTE		        40*seq_067_mvl/mxv
	BYTE	W02
	BYTE		        34*seq_067_mvl/mxv
	BYTE	W01
	BYTE		        26*seq_067_mvl/mxv
	BYTE	W02
	BYTE		        18*seq_067_mvl/mxv
	BYTE	W01
	BYTE		        9*seq_067_mvl/mxv
	BYTE	W11
	BYTE		        62*seq_067_mvl/mxv
	BYTE	W10
	BYTE		N30     Dn2   v056
	BYTE	W02
	BYTE		N24     Fs2   v048
	BYTE	W01
	BYTE		        An2   v052
	BYTE	W02
	BYTE		VOL     62*seq_067_mvl/mxv
	BYTE	W06
	BYTE		        61*seq_067_mvl/mxv
	BYTE	W01
	BYTE		        61*seq_067_mvl/mxv
	BYTE	W02
	BYTE		        59*seq_067_mvl/mxv
	BYTE	W01
	BYTE		        57*seq_067_mvl/mxv
	BYTE	W02
	BYTE		        54*seq_067_mvl/mxv
	BYTE	W01
	BYTE		        51*seq_067_mvl/mxv
	BYTE	W02
	BYTE		        45*seq_067_mvl/mxv
	BYTE	W01
	BYTE		        40*seq_067_mvl/mxv
	BYTE	W02
	BYTE		        34*seq_067_mvl/mxv
	BYTE	W01
	BYTE		        26*seq_067_mvl/mxv
	BYTE	W02
	BYTE		        18*seq_067_mvl/mxv
	BYTE	W01
	BYTE		        9*seq_067_mvl/mxv
	BYTE	W09
	BYTE		        62*seq_067_mvl/mxv
	BYTE	W12
	BYTE		N30     Dn2   v036
	BYTE	W02
	BYTE		N24     Fn2   v032
	BYTE	W01
	BYTE		        An2   v036
	BYTE	W02
	BYTE		VOL     62*seq_067_mvl/mxv
	BYTE	W06
	BYTE		        61*seq_067_mvl/mxv
	BYTE	W01
	BYTE		        61*seq_067_mvl/mxv
	BYTE	W02
	BYTE		        59*seq_067_mvl/mxv
	BYTE	W01
	BYTE		        57*seq_067_mvl/mxv
	BYTE	W02
	BYTE		        54*seq_067_mvl/mxv
	BYTE	W01
	BYTE		        51*seq_067_mvl/mxv
	BYTE	W02
	BYTE		        45*seq_067_mvl/mxv
	BYTE	W01
	BYTE		        40*seq_067_mvl/mxv
	BYTE	W02
	BYTE		        34*seq_067_mvl/mxv
	BYTE	W01
	BYTE		        26*seq_067_mvl/mxv
	BYTE	W02
	BYTE		        18*seq_067_mvl/mxv
	BYTE	W01
	BYTE		        9*seq_067_mvl/mxv
	BYTE	W12
	BYTE		        62*seq_067_mvl/mxv
	BYTE	W09
	BYTE		N30     Dn2 
	BYTE	W02
	BYTE		N24     Fn2   v028
	BYTE	W01
	BYTE		        Gn2   v036
	BYTE	W02
	BYTE		VOL     62*seq_067_mvl/mxv
	BYTE	W06
	BYTE		        61*seq_067_mvl/mxv
	BYTE	W01
	BYTE		        61*seq_067_mvl/mxv
	BYTE	W02
	BYTE		        59*seq_067_mvl/mxv
	BYTE	W01
	BYTE		        57*seq_067_mvl/mxv
	BYTE	W02
	BYTE		        54*seq_067_mvl/mxv
	BYTE	W01
	BYTE		        51*seq_067_mvl/mxv
	BYTE	W02
	BYTE		        45*seq_067_mvl/mxv
	BYTE	W01
	BYTE		        40*seq_067_mvl/mxv
	BYTE	W02
	BYTE		        34*seq_067_mvl/mxv
	BYTE	W01
	BYTE		        26*seq_067_mvl/mxv
	BYTE	W02
	BYTE		        18*seq_067_mvl/mxv
	BYTE	W01
	BYTE		        9*seq_067_mvl/mxv
	BYTE	W12
	BYTE		        62*seq_067_mvl/mxv
	BYTE	W10
	BYTE		N30     Dn2 
	BYTE	W02
	BYTE		N24     Fn2   v040
	BYTE	W02
	BYTE		VOL     62*seq_067_mvl/mxv
	BYTE	W06
	BYTE		        61*seq_067_mvl/mxv
	BYTE	W01
	BYTE		        61*seq_067_mvl/mxv
	BYTE	W02
	BYTE		        59*seq_067_mvl/mxv
	BYTE	W01
	BYTE		        57*seq_067_mvl/mxv
	BYTE	W02
	BYTE		        54*seq_067_mvl/mxv
	BYTE	W01
	BYTE		        51*seq_067_mvl/mxv
	BYTE	W02
	BYTE		        45*seq_067_mvl/mxv
	BYTE	W01
	BYTE		        40*seq_067_mvl/mxv
	BYTE	W02
	BYTE		        34*seq_067_mvl/mxv
	BYTE	W01
	BYTE		        26*seq_067_mvl/mxv
	BYTE	W02
	BYTE		        18*seq_067_mvl/mxv
	BYTE	W01
	BYTE		        9*seq_067_mvl/mxv
	BYTE	W12
	BYTE		        62*seq_067_mvl/mxv
	BYTE	W09
	BYTE		N30     Gn2   v048
	BYTE	W02
	BYTE		N24     An2 
	BYTE	W01
	BYTE		        Cs3   v052
	BYTE	W02
	BYTE		VOL     62*seq_067_mvl/mxv
	BYTE	W06
	BYTE		        61*seq_067_mvl/mxv
	BYTE	W01
	BYTE		        61*seq_067_mvl/mxv
	BYTE	W02
	BYTE		        59*seq_067_mvl/mxv
	BYTE	W01
	BYTE		        57*seq_067_mvl/mxv
	BYTE	W02
	BYTE		        54*seq_067_mvl/mxv
	BYTE	W01
	BYTE		        51*seq_067_mvl/mxv
	BYTE	W02
	BYTE		        45*seq_067_mvl/mxv
	BYTE	W01
	BYTE		        40*seq_067_mvl/mxv
	BYTE	W02
	BYTE		        34*seq_067_mvl/mxv
	BYTE	W01
	BYTE		        26*seq_067_mvl/mxv
	BYTE	W02
	BYTE		        18*seq_067_mvl/mxv
	BYTE	W01
	BYTE		        9*seq_067_mvl/mxv
	BYTE	W08
	BYTE		        62*seq_067_mvl/mxv
	BYTE	W13
	BYTE		N30     Fn2   v060
	BYTE	W02
	BYTE		N24     An2   v052
	BYTE	W01
	BYTE		        Dn3   v056
	BYTE	W02
	BYTE		VOL     62*seq_067_mvl/mxv
	BYTE	W06
	BYTE		        61*seq_067_mvl/mxv
	BYTE	W01
	BYTE		        61*seq_067_mvl/mxv
	BYTE	W02
	BYTE		        59*seq_067_mvl/mxv
	BYTE	W01
	BYTE		        57*seq_067_mvl/mxv
	BYTE	W02
	BYTE		        54*seq_067_mvl/mxv
	BYTE	W01
	BYTE		        51*seq_067_mvl/mxv
	BYTE	W02
	BYTE		        45*seq_067_mvl/mxv
	BYTE	W01
	BYTE		        40*seq_067_mvl/mxv
	BYTE	W02
	BYTE		        34*seq_067_mvl/mxv
	BYTE	W01
	BYTE		        26*seq_067_mvl/mxv
	BYTE	W02
	BYTE		        18*seq_067_mvl/mxv
	BYTE	W01
	BYTE		        9*seq_067_mvl/mxv
	BYTE	W14
	BYTE		        62*seq_067_mvl/mxv
	BYTE	W07
	BYTE		N30     Gn2   v048
	BYTE	W02
	BYTE		N24     An2   v040
	BYTE	W01
	BYTE		        Cs3   v044
	BYTE	W02
	BYTE		VOL     62*seq_067_mvl/mxv
	BYTE	W06
	BYTE		        61*seq_067_mvl/mxv
	BYTE	W01
	BYTE		        61*seq_067_mvl/mxv
	BYTE	W02
	BYTE		        59*seq_067_mvl/mxv
	BYTE	W01
	BYTE		        57*seq_067_mvl/mxv
	BYTE	W02
	BYTE		        54*seq_067_mvl/mxv
	BYTE	W01
	BYTE		        51*seq_067_mvl/mxv
	BYTE	W02
	BYTE		        45*seq_067_mvl/mxv
	BYTE	W01
	BYTE		        40*seq_067_mvl/mxv
	BYTE	W02
	BYTE		        34*seq_067_mvl/mxv
	BYTE	W01
	BYTE		        26*seq_067_mvl/mxv
	BYTE	W02
	BYTE		        18*seq_067_mvl/mxv
	BYTE	W01
	BYTE		        9*seq_067_mvl/mxv
	BYTE	W20
	BYTE		        62*seq_067_mvl/mxv
	BYTE	W01
	BYTE		N30     Dn2 
	BYTE	W02
	BYTE		N24     Fn2   v036
	BYTE	W01
	BYTE		        An2   v044
	BYTE	W02
	BYTE		VOL     62*seq_067_mvl/mxv
	BYTE	W06
	BYTE		        61*seq_067_mvl/mxv
	BYTE	W01
	BYTE		        61*seq_067_mvl/mxv
	BYTE	W02
	BYTE		        59*seq_067_mvl/mxv
	BYTE	W01
	BYTE		        57*seq_067_mvl/mxv
	BYTE	W02
	BYTE		        54*seq_067_mvl/mxv
	BYTE	W01
	BYTE		        51*seq_067_mvl/mxv
	BYTE	W02
	BYTE		        45*seq_067_mvl/mxv
	BYTE	W01
	BYTE		        40*seq_067_mvl/mxv
	BYTE	W02
	BYTE		        34*seq_067_mvl/mxv
	BYTE	W01
	BYTE		        26*seq_067_mvl/mxv
	BYTE	W02
	BYTE		        18*seq_067_mvl/mxv
	BYTE	W01
	BYTE		        9*seq_067_mvl/mxv
	BYTE	W17
	BYTE		        62*seq_067_mvl/mxv
	BYTE	W04
	BYTE		N30     Dn2   v052
	BYTE	W02
	BYTE		N24     Fs2   v048
	BYTE	W01
	BYTE		        An2 
	BYTE	W02
	BYTE		VOL     62*seq_067_mvl/mxv
	BYTE	W06
	BYTE		        61*seq_067_mvl/mxv
	BYTE	W01
	BYTE		        61*seq_067_mvl/mxv
	BYTE	W02
	BYTE		        59*seq_067_mvl/mxv
	BYTE	W01
	BYTE		        57*seq_067_mvl/mxv
	BYTE	W02
	BYTE		        54*seq_067_mvl/mxv
	BYTE	W01
	BYTE		        51*seq_067_mvl/mxv
	BYTE	W02
	BYTE		        45*seq_067_mvl/mxv
	BYTE	W01
	BYTE		        40*seq_067_mvl/mxv
	BYTE	W02
	BYTE		        34*seq_067_mvl/mxv
	BYTE	W01
	BYTE		        26*seq_067_mvl/mxv
	BYTE	W02
	BYTE		        18*seq_067_mvl/mxv
	BYTE	W01
	BYTE		        9*seq_067_mvl/mxv
	BYTE	W15
	BYTE		        62*seq_067_mvl/mxv
	BYTE	W06
	BYTE		N30     Fn2   v036
	BYTE	W02
	BYTE		N24     Gn2   v032
	BYTE	W01
	BYTE		        Bn2   v036
	BYTE	W02
	BYTE		VOL     62*seq_067_mvl/mxv
	BYTE	W06
	BYTE		        61*seq_067_mvl/mxv
	BYTE	W01
	BYTE		        61*seq_067_mvl/mxv
	BYTE	W02
	BYTE		        59*seq_067_mvl/mxv
	BYTE	W01
	BYTE		        57*seq_067_mvl/mxv
	BYTE	W02
	BYTE		        54*seq_067_mvl/mxv
	BYTE	W01
	BYTE		        51*seq_067_mvl/mxv
	BYTE	W02
	BYTE		        45*seq_067_mvl/mxv
	BYTE	W01
	BYTE		        40*seq_067_mvl/mxv
	BYTE	W02
	BYTE		        34*seq_067_mvl/mxv
	BYTE	W01
	BYTE		        26*seq_067_mvl/mxv
	BYTE	W02
	BYTE		        18*seq_067_mvl/mxv
	BYTE	W01
	BYTE		        9*seq_067_mvl/mxv
	BYTE	W14
	BYTE		        62*seq_067_mvl/mxv
	BYTE	W07
	BYTE		N44     Fn2   v028
	BYTE	W02
	BYTE		N42     Gn2   v024
	BYTE	W01
	BYTE		        Bn2   v028
	BYTE	W02
	BYTE		VOL     61*seq_067_mvl/mxv
	BYTE	W03
	BYTE		        61*seq_067_mvl/mxv
	BYTE	W03
	BYTE		        57*seq_067_mvl/mxv
	BYTE	W03
	BYTE		        52*seq_067_mvl/mxv
	BYTE	W03
	BYTE		        44*seq_067_mvl/mxv
	BYTE	W03
	BYTE		        34*seq_067_mvl/mxv
	BYTE	W03
	BYTE		        26*seq_067_mvl/mxv
	BYTE	W03
	BYTE		        23*seq_067_mvl/mxv
	BYTE	W03
	BYTE		        18*seq_067_mvl/mxv
	BYTE	W03
	BYTE		        17*seq_067_mvl/mxv
	BYTE	W03
	BYTE		        15*seq_067_mvl/mxv
	BYTE	W03
	BYTE		        12*seq_067_mvl/mxv
	BYTE	W03
	BYTE		        10*seq_067_mvl/mxv
	BYTE	W03
	BYTE		        8*seq_067_mvl/mxv
	BYTE	W03
	BYTE		        6*seq_067_mvl/mxv
	BYTE	W06
	BYTE	W96
	BYTE	W96
	BYTE	W96
	BYTE	W96
	BYTE	W96
	BYTE	W96
	BYTE		VOICE   43
	BYTE		VOL     75*seq_067_mvl/mxv
	BYTE	W01
	BYTE		PAN     c_v+36
	BYTE	W92
	BYTE	W03
	BYTE	W92
	BYTE	W02
	BYTE	W02
	BYTE		N48     Cn3   v108
	BYTE	W42
	BYTE		VOL     69*seq_067_mvl/mxv
	BYTE	W03
	BYTE		        65*seq_067_mvl/mxv
	BYTE	W01
	BYTE		        62*seq_067_mvl/mxv
	BYTE	W02
	BYTE		        75*seq_067_mvl/mxv
	BYTE		N48     Bn2   v112
	BYTE	W42
	BYTE		VOL     69*seq_067_mvl/mxv
	BYTE	W03
	BYTE		        66*seq_067_mvl/mxv
	BYTE	W03
	BYTE		        75*seq_067_mvl/mxv
	BYTE		N48     An2 
	BYTE	W36
	BYTE	W03
	BYTE		VOL     71*seq_067_mvl/mxv
	BYTE	W03
	BYTE		        66*seq_067_mvl/mxv
	BYTE	W03
	BYTE		        60*seq_067_mvl/mxv
	BYTE	W03
	BYTE		        75*seq_067_mvl/mxv
	BYTE		N48     Gs2 
	BYTE	W36
	BYTE	W03
	BYTE		VOL     71*seq_067_mvl/mxv
	BYTE	W03
	BYTE		        65*seq_067_mvl/mxv
	BYTE	W03
	BYTE		        58*seq_067_mvl/mxv
	BYTE	W03
	BYTE		        75*seq_067_mvl/mxv
	BYTE		N48     Fn2   v120
	BYTE	W42
	BYTE		VOL     69*seq_067_mvl/mxv
	BYTE	W03
	BYTE		        61*seq_067_mvl/mxv
	BYTE	W03
	BYTE		        75*seq_067_mvl/mxv
	BYTE		N48     Fs2 
	BYTE	W42
	BYTE		VOL     73*seq_067_mvl/mxv
	BYTE	W03
	BYTE		        70*seq_067_mvl/mxv
	BYTE	W03
	BYTE		        75*seq_067_mvl/mxv
	BYTE		N96     Gn2   v112
	BYTE	W54
	BYTE		VOL     73*seq_067_mvl/mxv
	BYTE	W03
	BYTE		        71*seq_067_mvl/mxv
	BYTE	W03
	BYTE		        69*seq_067_mvl/mxv
	BYTE	W03
	BYTE		        66*seq_067_mvl/mxv
	BYTE	W03
	BYTE		        64*seq_067_mvl/mxv
	BYTE	W03
	BYTE		        61*seq_067_mvl/mxv
	BYTE	W03
	BYTE		        57*seq_067_mvl/mxv
	BYTE	W03
	BYTE		        54*seq_067_mvl/mxv
	BYTE	W03
	BYTE		        49*seq_067_mvl/mxv
	BYTE	W03
	BYTE		        45*seq_067_mvl/mxv
	BYTE	W03
	BYTE		        40*seq_067_mvl/mxv
	BYTE	W03
	BYTE		        36*seq_067_mvl/mxv
	BYTE	W03
	BYTE		        30*seq_067_mvl/mxv
	BYTE	W03
	BYTE		        25*seq_067_mvl/mxv
	BYTE	W03
	BYTE		        69*seq_067_mvl/mxv
	BYTE		TIE     An2 
	BYTE	W03
	BYTE		VOL     65*seq_067_mvl/mxv
	BYTE	W03
	BYTE		        64*seq_067_mvl/mxv
	BYTE	W03
	BYTE		        62*seq_067_mvl/mxv
	BYTE	W03
	BYTE		        61*seq_067_mvl/mxv
	BYTE	W36
	BYTE		        62*seq_067_mvl/mxv
	BYTE	W06
	BYTE		        63*seq_067_mvl/mxv
	BYTE	W06
	BYTE		        64*seq_067_mvl/mxv
	BYTE	W06
	BYTE		        66*seq_067_mvl/mxv
	BYTE	W06
	BYTE		        69*seq_067_mvl/mxv
	BYTE	W06
	BYTE		        72*seq_067_mvl/mxv
	BYTE	W06
	BYTE		        76*seq_067_mvl/mxv
	BYTE	W06
	BYTE		        77*seq_067_mvl/mxv
	BYTE	W06
	BYTE	W30
	BYTE		        76*seq_067_mvl/mxv
	BYTE	W03
	BYTE		        73*seq_067_mvl/mxv
	BYTE	W03
	BYTE		        70*seq_067_mvl/mxv
	BYTE	W03
	BYTE		        66*seq_067_mvl/mxv
	BYTE	W03
	BYTE		        62*seq_067_mvl/mxv
	BYTE	W06
	BYTE		EOT
	BYTE		VOL     75*seq_067_mvl/mxv
	BYTE		N48     Cs3 
	BYTE	W42
	BYTE		VOL     69*seq_067_mvl/mxv
	BYTE	W03
	BYTE		        66*seq_067_mvl/mxv
	BYTE	W03
	BYTE		        75*seq_067_mvl/mxv
	BYTE		N48     Dn3 
	BYTE	W36
	BYTE	W03
	BYTE		VOL     70*seq_067_mvl/mxv
	BYTE	W03
	BYTE		        65*seq_067_mvl/mxv
	BYTE	W03
	BYTE		        58*seq_067_mvl/mxv
	BYTE	W03
	BYTE		        75*seq_067_mvl/mxv
	BYTE		N48     An2   v104
	BYTE	W36
	BYTE	W03
	BYTE		VOL     71*seq_067_mvl/mxv
	BYTE	W03
	BYTE		        66*seq_067_mvl/mxv
	BYTE	W03
	BYTE		        60*seq_067_mvl/mxv
	BYTE	W03
	BYTE		        75*seq_067_mvl/mxv
	BYTE		N96     Gn2   v096
	BYTE	W54
	BYTE		VOL     73*seq_067_mvl/mxv
	BYTE	W03
	BYTE		        71*seq_067_mvl/mxv
	BYTE	W03
	BYTE		        69*seq_067_mvl/mxv
	BYTE	W03
	BYTE		        66*seq_067_mvl/mxv
	BYTE	W03
	BYTE		        64*seq_067_mvl/mxv
	BYTE	W03
	BYTE		        61*seq_067_mvl/mxv
	BYTE	W03
	BYTE		        57*seq_067_mvl/mxv
	BYTE	W03
	BYTE		        54*seq_067_mvl/mxv
	BYTE	W03
	BYTE		        49*seq_067_mvl/mxv
	BYTE	W03
	BYTE		        45*seq_067_mvl/mxv
	BYTE	W03
	BYTE		        40*seq_067_mvl/mxv
	BYTE	W03
	BYTE		        36*seq_067_mvl/mxv
	BYTE	W03
	BYTE		        30*seq_067_mvl/mxv
	BYTE	W03
	BYTE		        25*seq_067_mvl/mxv
	BYTE	W03
	BYTE		        75*seq_067_mvl/mxv
	BYTE		N44     Fn2   v112
	BYTE	W42
	BYTE		VOL     69*seq_067_mvl/mxv
	BYTE	W03
	BYTE		        64*seq_067_mvl/mxv
	BYTE	W03
	BYTE		        75*seq_067_mvl/mxv
	BYTE		N48     Gn2 
	BYTE	W42
	BYTE		VOL     69*seq_067_mvl/mxv
	BYTE	W03
	BYTE		        66*seq_067_mvl/mxv
	BYTE	W03
	BYTE		        75*seq_067_mvl/mxv
	BYTE		N96     Cn3   v108
	BYTE	W54
	BYTE		VOL     73*seq_067_mvl/mxv
	BYTE	W03
	BYTE		        71*seq_067_mvl/mxv
	BYTE	W03
	BYTE		        69*seq_067_mvl/mxv
	BYTE	W03
	BYTE		        66*seq_067_mvl/mxv
	BYTE	W03
	BYTE		        64*seq_067_mvl/mxv
	BYTE	W03
	BYTE		        61*seq_067_mvl/mxv
	BYTE	W03
	BYTE		        57*seq_067_mvl/mxv
	BYTE	W03
	BYTE		        54*seq_067_mvl/mxv
	BYTE	W03
	BYTE		        49*seq_067_mvl/mxv
	BYTE	W03
	BYTE		        45*seq_067_mvl/mxv
	BYTE	W03
	BYTE		        40*seq_067_mvl/mxv
	BYTE	W03
	BYTE		        36*seq_067_mvl/mxv
	BYTE	W03
	BYTE		        30*seq_067_mvl/mxv
	BYTE	W03
	BYTE		        25*seq_067_mvl/mxv
	BYTE	W03
	BYTE		        75*seq_067_mvl/mxv
	BYTE		N48     As2   v112
	BYTE	W42
	BYTE		VOL     69*seq_067_mvl/mxv
	BYTE	W03
	BYTE		        66*seq_067_mvl/mxv
	BYTE	W03
	BYTE		        75*seq_067_mvl/mxv
	BYTE		N48     An2 
	BYTE	W36
	BYTE	W03
	BYTE		VOL     71*seq_067_mvl/mxv
	BYTE	W03
	BYTE		        66*seq_067_mvl/mxv
	BYTE	W03
	BYTE		        60*seq_067_mvl/mxv
	BYTE	W03
	BYTE		        75*seq_067_mvl/mxv
	BYTE		N48     Dn3   v116
	BYTE	W42
	BYTE		VOL     69*seq_067_mvl/mxv
	BYTE	W03
	BYTE		        66*seq_067_mvl/mxv
	BYTE	W03
	BYTE		        75*seq_067_mvl/mxv
	BYTE		N48     Cn3 
	BYTE	W42
	BYTE		VOL     69*seq_067_mvl/mxv
	BYTE	W03
	BYTE		        66*seq_067_mvl/mxv
	BYTE	W03
	BYTE		        75*seq_067_mvl/mxv
	BYTE		N96     Ds3 
	BYTE	W42
	BYTE		VOL     74*seq_067_mvl/mxv
	BYTE	W12
	BYTE		        73*seq_067_mvl/mxv
	BYTE	W06
	BYTE		        71*seq_067_mvl/mxv
	BYTE	W06
	BYTE		        67*seq_067_mvl/mxv
	BYTE	W06
	BYTE		        63*seq_067_mvl/mxv
	BYTE	W06
	BYTE		        57*seq_067_mvl/mxv
	BYTE	W06
	BYTE		        52*seq_067_mvl/mxv
	BYTE	W06
	BYTE		        44*seq_067_mvl/mxv
	BYTE	W06
	BYTE		VOL     75*seq_067_mvl/mxv
	BYTE		N96     Dn3   v112
	BYTE	W42
	BYTE		VOL     74*seq_067_mvl/mxv
	BYTE	W12
	BYTE		        73*seq_067_mvl/mxv
	BYTE	W06
	BYTE		        71*seq_067_mvl/mxv
	BYTE	W06
	BYTE		        67*seq_067_mvl/mxv
	BYTE	W06
	BYTE		        63*seq_067_mvl/mxv
	BYTE	W06
	BYTE		        57*seq_067_mvl/mxv
	BYTE	W06
	BYTE		        52*seq_067_mvl/mxv
	BYTE	W06
	BYTE		        44*seq_067_mvl/mxv
	BYTE	W06
	BYTE	PEND
	BYTE		        75*seq_067_mvl/mxv
	BYTE		N48     Gs2   v120
	BYTE	W42
	BYTE		VOL     69*seq_067_mvl/mxv
	BYTE	W03
	BYTE		        65*seq_067_mvl/mxv
	BYTE	W03
	BYTE		        75*seq_067_mvl/mxv
	BYTE		N24     Ds3   v116
	BYTE	W24
	BYTE		        Cn3   v108
	BYTE	W24
	BYTE		N96     Gn2 
	BYTE	W54
	BYTE		VOL     73*seq_067_mvl/mxv
	BYTE	W03
	BYTE		        71*seq_067_mvl/mxv
	BYTE	W03
	BYTE		        69*seq_067_mvl/mxv
	BYTE	W03
	BYTE		        66*seq_067_mvl/mxv
	BYTE	W03
	BYTE		        64*seq_067_mvl/mxv
	BYTE	W03
	BYTE		        61*seq_067_mvl/mxv
	BYTE	W03
	BYTE		        57*seq_067_mvl/mxv
	BYTE	W03
	BYTE		        54*seq_067_mvl/mxv
	BYTE	W03
	BYTE		        49*seq_067_mvl/mxv
	BYTE	W03
	BYTE		        45*seq_067_mvl/mxv
	BYTE	W03
	BYTE		        40*seq_067_mvl/mxv
	BYTE	W03
	BYTE		        36*seq_067_mvl/mxv
	BYTE	W03
	BYTE		        30*seq_067_mvl/mxv
	BYTE	W03
	BYTE		        25*seq_067_mvl/mxv
	BYTE	W03
	BYTE		VOL     75*seq_067_mvl/mxv
	BYTE		N48     Cn3   v112
	BYTE	W42
	BYTE		VOL     69*seq_067_mvl/mxv
	BYTE	W03
	BYTE		        65*seq_067_mvl/mxv
	BYTE	W03
	BYTE		        75*seq_067_mvl/mxv
	BYTE		N48     Bn2 
	BYTE	W42
	BYTE		VOL     69*seq_067_mvl/mxv
	BYTE	W03
	BYTE		        66*seq_067_mvl/mxv
	BYTE	W03
	BYTE	PEND
	BYTE		VOL     75*seq_067_mvl/mxv
	BYTE		N48     An2   v120
	BYTE	W36
	BYTE	W03
	BYTE		VOL     71*seq_067_mvl/mxv
	BYTE	W03
	BYTE		        66*seq_067_mvl/mxv
	BYTE	W03
	BYTE		        60*seq_067_mvl/mxv
	BYTE	W03
	BYTE		        75*seq_067_mvl/mxv
	BYTE		N48     Gn2 
	BYTE	W36
	BYTE	W03
	BYTE		VOL     71*seq_067_mvl/mxv
	BYTE	W03
	BYTE		        65*seq_067_mvl/mxv
	BYTE	W03
	BYTE		        58*seq_067_mvl/mxv
	BYTE	W03
	BYTE	PEND
	BYTE		        75*seq_067_mvl/mxv
	BYTE		N48     Fn2 
	BYTE	W42
	BYTE		VOL     66*seq_067_mvl/mxv
	BYTE	W03
	BYTE		        53*seq_067_mvl/mxv
	BYTE	W03
	BYTE		        75*seq_067_mvl/mxv
	BYTE		N48     Fs2 
	BYTE	W42
	BYTE		VOL     73*seq_067_mvl/mxv
	BYTE	W03
	BYTE		        70*seq_067_mvl/mxv
	BYTE	W03
	BYTE		VOL     75*seq_067_mvl/mxv
	BYTE		N96     Gn2   v116
	BYTE	W54
	BYTE		VOL     73*seq_067_mvl/mxv
	BYTE	W03
	BYTE		        71*seq_067_mvl/mxv
	BYTE	W03
	BYTE		        69*seq_067_mvl/mxv
	BYTE	W03
	BYTE		        66*seq_067_mvl/mxv
	BYTE	W03
	BYTE		        64*seq_067_mvl/mxv
	BYTE	W03
	BYTE		        61*seq_067_mvl/mxv
	BYTE	W03
	BYTE		        57*seq_067_mvl/mxv
	BYTE	W03
	BYTE		        54*seq_067_mvl/mxv
	BYTE	W03
	BYTE		        49*seq_067_mvl/mxv
	BYTE	W03
	BYTE		        45*seq_067_mvl/mxv
	BYTE	W03
	BYTE		        40*seq_067_mvl/mxv
	BYTE	W03
	BYTE		        36*seq_067_mvl/mxv
	BYTE	W03
	BYTE		        30*seq_067_mvl/mxv
	BYTE	W03
	BYTE		        25*seq_067_mvl/mxv
	BYTE	W03
	BYTE	PEND
	BYTE		VOL     69*seq_067_mvl/mxv
	BYTE		TIE     An2   v108
	BYTE	W03
	BYTE		VOL     65*seq_067_mvl/mxv
	BYTE	W03
	BYTE		        64*seq_067_mvl/mxv
	BYTE	W03
	BYTE		        62*seq_067_mvl/mxv
	BYTE	W03
	BYTE		        61*seq_067_mvl/mxv
	BYTE	W36
	BYTE		        62*seq_067_mvl/mxv
	BYTE	W06
	BYTE		        63*seq_067_mvl/mxv
	BYTE	W06
	BYTE		        64*seq_067_mvl/mxv
	BYTE	W06
	BYTE		        66*seq_067_mvl/mxv
	BYTE	W06
	BYTE		        69*seq_067_mvl/mxv
	BYTE	W06
	BYTE		        72*seq_067_mvl/mxv
	BYTE	W06
	BYTE		        76*seq_067_mvl/mxv
	BYTE	W06
	BYTE		        77*seq_067_mvl/mxv
	BYTE	W06
	BYTE	PEND
	BYTE	W32
	BYTE	W01
	BYTE		VOL     73*seq_067_mvl/mxv
	BYTE	W03
	BYTE		        70*seq_067_mvl/mxv
	BYTE	W03
	BYTE		        66*seq_067_mvl/mxv
	BYTE	W03
	BYTE		        62*seq_067_mvl/mxv
	BYTE	W06
	BYTE	PEND
	BYTE		EOT     An2 
	BYTE		VOL     75*seq_067_mvl/mxv
	BYTE		N48     Cs3   v112
	BYTE	W42
	BYTE		VOL     69*seq_067_mvl/mxv
	BYTE	W03
	BYTE		        66*seq_067_mvl/mxv
	BYTE	W03
	BYTE		VOL     75*seq_067_mvl/mxv
	BYTE		N48     Dn3   v112
	BYTE	W42
	BYTE		VOL     69*seq_067_mvl/mxv
	BYTE	W03
	BYTE		        66*seq_067_mvl/mxv
	BYTE	W03
	BYTE		        75*seq_067_mvl/mxv
	BYTE		N48     An2   v108
	BYTE	W36
	BYTE	W03
	BYTE		VOL     71*seq_067_mvl/mxv
	BYTE	W03
	BYTE		        66*seq_067_mvl/mxv
	BYTE	W03
	BYTE		        60*seq_067_mvl/mxv
	BYTE	W03
	BYTE	PEND
	BYTE		VOL     75*seq_067_mvl/mxv
	BYTE		N96     Gn2   v100
	BYTE	W54
	BYTE		VOL     73*seq_067_mvl/mxv
	BYTE	W03
	BYTE		        71*seq_067_mvl/mxv
	BYTE	W03
	BYTE		        69*seq_067_mvl/mxv
	BYTE	W03
	BYTE		        66*seq_067_mvl/mxv
	BYTE	W03
	BYTE		        64*seq_067_mvl/mxv
	BYTE	W03
	BYTE		        61*seq_067_mvl/mxv
	BYTE	W03
	BYTE		        57*seq_067_mvl/mxv
	BYTE	W03
	BYTE		        54*seq_067_mvl/mxv
	BYTE	W03
	BYTE		        49*seq_067_mvl/mxv
	BYTE	W03
	BYTE		        45*seq_067_mvl/mxv
	BYTE	W03
	BYTE		        40*seq_067_mvl/mxv
	BYTE	W03
	BYTE		        36*seq_067_mvl/mxv
	BYTE	W03
	BYTE		        30*seq_067_mvl/mxv
	BYTE	W03
	BYTE		        25*seq_067_mvl/mxv
	BYTE	W03
	BYTE	PEND
	BYTE		        75*seq_067_mvl/mxv
	BYTE		N48     Cn3   v112
	BYTE	W42
	BYTE		VOL     69*seq_067_mvl/mxv
	BYTE	W03
	BYTE		        64*seq_067_mvl/mxv
	BYTE	W03
	BYTE		        75*seq_067_mvl/mxv
	BYTE		N48     Bn2 
	BYTE	W42
	BYTE		VOL     69*seq_067_mvl/mxv
	BYTE	W03
	BYTE		        66*seq_067_mvl/mxv
	BYTE	W03
	BYTE		        75*seq_067_mvl/mxv
	BYTE		N48     An2   v120
	BYTE	W48
	BYTE		        Gs2 
	BYTE	W06
	BYTE		VOL     73*seq_067_mvl/mxv
	BYTE	W03
	BYTE		        71*seq_067_mvl/mxv
	BYTE	W03
	BYTE		        69*seq_067_mvl/mxv
	BYTE	W03
	BYTE		        66*seq_067_mvl/mxv
	BYTE	W03
	BYTE		        64*seq_067_mvl/mxv
	BYTE	W03
	BYTE		        61*seq_067_mvl/mxv
	BYTE	W03
	BYTE		        57*seq_067_mvl/mxv
	BYTE	W03
	BYTE		        54*seq_067_mvl/mxv
	BYTE	W03
	BYTE		        49*seq_067_mvl/mxv
	BYTE	W03
	BYTE		        45*seq_067_mvl/mxv
	BYTE	W03
	BYTE		        40*seq_067_mvl/mxv
	BYTE	W03
	BYTE		        36*seq_067_mvl/mxv
	BYTE	W03
	BYTE		        30*seq_067_mvl/mxv
	BYTE	W03
	BYTE		        25*seq_067_mvl/mxv
	BYTE	W03
	BYTE		        75*seq_067_mvl/mxv
	BYTE		N48     Fn2 
	BYTE	W42
	BYTE		VOL     69*seq_067_mvl/mxv
	BYTE	W03
	BYTE		        66*seq_067_mvl/mxv
	BYTE	W03
	BYTE		        75*seq_067_mvl/mxv
	BYTE		N48     Fs2 
	BYTE	W36
	BYTE	W03
	BYTE		VOL     71*seq_067_mvl/mxv
	BYTE	W03
	BYTE		        66*seq_067_mvl/mxv
	BYTE	W03
	BYTE		        60*seq_067_mvl/mxv
	BYTE	W03
	BYTE	PATT
	 POIN2	seq_067_6 + 0x465
	BYTE	PATT
	 POIN2	seq_067_6 + 0x489
	BYTE	W24
	BYTE	W03
	BYTE		VOL     76*seq_067_mvl/mxv
	BYTE	W06
	BYTE		        73*seq_067_mvl/mxv
	BYTE	W03
	BYTE		        70*seq_067_mvl/mxv
	BYTE	W03
	BYTE		        66*seq_067_mvl/mxv
	BYTE	W03
	BYTE		        62*seq_067_mvl/mxv
	BYTE	W06
	BYTE		EOT     An2 
	BYTE		VOL     75*seq_067_mvl/mxv
	BYTE		N48     Cs3   v112
	BYTE	W42
	BYTE		VOL     69*seq_067_mvl/mxv
	BYTE	W03
	BYTE		        66*seq_067_mvl/mxv
	BYTE	W03
	BYTE		VOL     75*seq_067_mvl/mxv
	BYTE		N48     Dn3   v112
	BYTE	W42
	BYTE		VOL     69*seq_067_mvl/mxv
	BYTE	W03
	BYTE		        66*seq_067_mvl/mxv
	BYTE	W03
	BYTE		        75*seq_067_mvl/mxv
	BYTE		N44     An2   v108
	BYTE	W36
	BYTE	W03
	BYTE		VOL     71*seq_067_mvl/mxv
	BYTE	W03
	BYTE		        66*seq_067_mvl/mxv
	BYTE	W03
	BYTE		        60*seq_067_mvl/mxv
	BYTE	W03
	BYTE	PEND
	BYTE	PATT
	 POIN2	seq_067_6 + 0x4DB
	BYTE		VOL     75*seq_067_mvl/mxv
	BYTE		N48     Fn2   v116
	BYTE	W42
	BYTE		VOL     69*seq_067_mvl/mxv
	BYTE	W03
	BYTE		        64*seq_067_mvl/mxv
	BYTE	W03
	BYTE		        75*seq_067_mvl/mxv
	BYTE		N48     Gn2   v112
	BYTE	W42
	BYTE		VOL     69*seq_067_mvl/mxv
	BYTE	W03
	BYTE		        66*seq_067_mvl/mxv
	BYTE	W03
	BYTE		VOL     75*seq_067_mvl/mxv
	BYTE		N96     Cn3   v112
	BYTE	W54
	BYTE		VOL     73*seq_067_mvl/mxv
	BYTE	W03
	BYTE		        71*seq_067_mvl/mxv
	BYTE	W03
	BYTE		        69*seq_067_mvl/mxv
	BYTE	W03
	BYTE		        66*seq_067_mvl/mxv
	BYTE	W03
	BYTE		        64*seq_067_mvl/mxv
	BYTE	W03
	BYTE		        61*seq_067_mvl/mxv
	BYTE	W03
	BYTE		        57*seq_067_mvl/mxv
	BYTE	W03
	BYTE		        54*seq_067_mvl/mxv
	BYTE	W03
	BYTE		        49*seq_067_mvl/mxv
	BYTE	W03
	BYTE		        45*seq_067_mvl/mxv
	BYTE	W03
	BYTE		        40*seq_067_mvl/mxv
	BYTE	W03
	BYTE		        36*seq_067_mvl/mxv
	BYTE	W03
	BYTE		        30*seq_067_mvl/mxv
	BYTE	W03
	BYTE		        25*seq_067_mvl/mxv
	BYTE	W03
	BYTE	PEND
	BYTE		VOL     75*seq_067_mvl/mxv
	BYTE		N48     As2   v116
	BYTE	W42
	BYTE		VOL     69*seq_067_mvl/mxv
	BYTE	W03
	BYTE		        66*seq_067_mvl/mxv
	BYTE	W03
	BYTE		        75*seq_067_mvl/mxv
	BYTE		N48     An2   v120
	BYTE	W36
	BYTE	W03
	BYTE		VOL     71*seq_067_mvl/mxv
	BYTE	W03
	BYTE		        66*seq_067_mvl/mxv
	BYTE	W03
	BYTE		        60*seq_067_mvl/mxv
	BYTE	W03
	BYTE	PEND
	BYTE		        75*seq_067_mvl/mxv
	BYTE		N48     Dn3 
	BYTE	W42
	BYTE		VOL     69*seq_067_mvl/mxv
	BYTE	W03
	BYTE		        66*seq_067_mvl/mxv
	BYTE	W03
	BYTE		        75*seq_067_mvl/mxv
	BYTE		N48     Cn3   v116
	BYTE	W42
	BYTE		VOL     69*seq_067_mvl/mxv
	BYTE	W03
	BYTE		        66*seq_067_mvl/mxv
	BYTE	W03
	BYTE		        75*seq_067_mvl/mxv
	BYTE		N96     Ds3   v112
	BYTE	W42
	BYTE		VOL     74*seq_067_mvl/mxv
	BYTE	W12
	BYTE		        73*seq_067_mvl/mxv
	BYTE	W06
	BYTE		        71*seq_067_mvl/mxv
	BYTE	W06
	BYTE		        67*seq_067_mvl/mxv
	BYTE	W06
	BYTE		        63*seq_067_mvl/mxv
	BYTE	W06
	BYTE		        57*seq_067_mvl/mxv
	BYTE	W06
	BYTE		        52*seq_067_mvl/mxv
	BYTE	W06
	BYTE		        44*seq_067_mvl/mxv
	BYTE	W06
	BYTE	PATT
	 POIN2	seq_067_6 + 0x3D9
	BYTE		VOL     75*seq_067_mvl/mxv
	BYTE		N48     Gs2   v116
	BYTE	W42
	BYTE		VOL     69*seq_067_mvl/mxv
	BYTE	W03
	BYTE		        65*seq_067_mvl/mxv
	BYTE	W03
	BYTE		        75*seq_067_mvl/mxv
	BYTE		N24     Ds3 
	BYTE	W24
	BYTE		        Cn3   v108
	BYTE	W24
	BYTE		N96     Gn2   v112
	BYTE	W54
	BYTE		VOL     73*seq_067_mvl/mxv
	BYTE	W03
	BYTE		        71*seq_067_mvl/mxv
	BYTE	W03
	BYTE		        69*seq_067_mvl/mxv
	BYTE	W03
	BYTE		        66*seq_067_mvl/mxv
	BYTE	W03
	BYTE		        64*seq_067_mvl/mxv
	BYTE	W03
	BYTE		        61*seq_067_mvl/mxv
	BYTE	W03
	BYTE		        57*seq_067_mvl/mxv
	BYTE	W03
	BYTE		        54*seq_067_mvl/mxv
	BYTE	W03
	BYTE		        49*seq_067_mvl/mxv
	BYTE	W03
	BYTE		        45*seq_067_mvl/mxv
	BYTE	W03
	BYTE		        40*seq_067_mvl/mxv
	BYTE	W03
	BYTE		        36*seq_067_mvl/mxv
	BYTE	W03
	BYTE		        30*seq_067_mvl/mxv
	BYTE	W03
	BYTE		        25*seq_067_mvl/mxv
	BYTE	W03
	BYTE	PATT
	 POIN2	seq_067_6 + 0x423
	BYTE	PATT
	 POIN2	seq_067_6 + 0x438
	BYTE		VOL     75*seq_067_mvl/mxv
	BYTE		N48     Fn2   v120
	BYTE	W42
	BYTE		VOL     69*seq_067_mvl/mxv
	BYTE	W03
	BYTE		        66*seq_067_mvl/mxv
	BYTE	W03
	BYTE		        75*seq_067_mvl/mxv
	BYTE		N48     Fs2 
	BYTE	W42
	BYTE		VOL     73*seq_067_mvl/mxv
	BYTE	W03
	BYTE		        70*seq_067_mvl/mxv
	BYTE	W03
	BYTE	PATT
	 POIN2	seq_067_6 + 0x465
	BYTE	PATT
	 POIN2	seq_067_6 + 0x489
	BYTE	PATT
	 POIN2	seq_067_6 + 0x4A9
	BYTE		EOT     An2 
	BYTE		VOL     75*seq_067_mvl/mxv
	BYTE		N48     Cs3   v112
	BYTE	W42
	BYTE		VOL     69*seq_067_mvl/mxv
	BYTE	W03
	BYTE		        66*seq_067_mvl/mxv
	BYTE	W03
	BYTE	PATT
	 POIN2	seq_067_6 + 0x4C2
	BYTE	PATT
	 POIN2	seq_067_6 + 0x4DB
	BYTE		VOL     75*seq_067_mvl/mxv
	BYTE		N48     Cn3   v112
	BYTE	W48
	BYTE		        Bn2 
	BYTE	W42
	BYTE		VOL     69*seq_067_mvl/mxv
	BYTE	W03
	BYTE		        66*seq_067_mvl/mxv
	BYTE	W03
	BYTE		        75*seq_067_mvl/mxv
	BYTE		N44     An2   v120
	BYTE	W42
	BYTE		VOL     69*seq_067_mvl/mxv
	BYTE	W03
	BYTE		        62*seq_067_mvl/mxv
	BYTE	W03
	BYTE		        75*seq_067_mvl/mxv
	BYTE		N44     Gs2 
	BYTE	W06
	BYTE		VOL     73*seq_067_mvl/mxv
	BYTE	W03
	BYTE		        71*seq_067_mvl/mxv
	BYTE	W03
	BYTE		        69*seq_067_mvl/mxv
	BYTE	W03
	BYTE		        66*seq_067_mvl/mxv
	BYTE	W03
	BYTE		        64*seq_067_mvl/mxv
	BYTE	W03
	BYTE		        61*seq_067_mvl/mxv
	BYTE	W03
	BYTE		        57*seq_067_mvl/mxv
	BYTE	W03
	BYTE		        54*seq_067_mvl/mxv
	BYTE	W03
	BYTE		        49*seq_067_mvl/mxv
	BYTE	W03
	BYTE		        45*seq_067_mvl/mxv
	BYTE	W03
	BYTE		        40*seq_067_mvl/mxv
	BYTE	W03
	BYTE		        36*seq_067_mvl/mxv
	BYTE	W03
	BYTE		        30*seq_067_mvl/mxv
	BYTE	W03
	BYTE		        25*seq_067_mvl/mxv
	BYTE	W03
	BYTE		        75*seq_067_mvl/mxv
	BYTE		N48     Fn2 
	BYTE	W42
	BYTE		VOL     69*seq_067_mvl/mxv
	BYTE	W03
	BYTE		        66*seq_067_mvl/mxv
	BYTE	W03
	BYTE		        75*seq_067_mvl/mxv
	BYTE		N44     Fs2 
	BYTE	W36
	BYTE	W03
	BYTE		VOL     69*seq_067_mvl/mxv
	BYTE	W03
	BYTE		        62*seq_067_mvl/mxv
	BYTE	W03
	BYTE		        58*seq_067_mvl/mxv
	BYTE	W03
	BYTE		        75*seq_067_mvl/mxv
	BYTE		N96     Gn2   v116
	BYTE	W42
	BYTE		VOL     69*seq_067_mvl/mxv
	BYTE	W03
	BYTE		        66*seq_067_mvl/mxv
	BYTE	W03
	BYTE		        75*seq_067_mvl/mxv
	BYTE	W42
	BYTE		        69*seq_067_mvl/mxv
	BYTE	W03
	BYTE		        66*seq_067_mvl/mxv
	BYTE	W03
	BYTE	PATT
	 POIN2	seq_067_6 + 0x489
	BYTE	PATT
	 POIN2	seq_067_6 + 0x4A9
	BYTE		EOT     An2 
	BYTE		VOL     75*seq_067_mvl/mxv
	BYTE		N48     Cs3   v112
	BYTE	W42
	BYTE		VOL     69*seq_067_mvl/mxv
	BYTE	W03
	BYTE		        66*seq_067_mvl/mxv
	BYTE	W03
	BYTE	PATT
	 POIN2	seq_067_6 + 0x56F
	BYTE	PATT
	 POIN2	seq_067_6 + 0x4DB
	BYTE		VOL     75*seq_067_mvl/mxv
	BYTE		N44     Fn2   v116
	BYTE	W42
	BYTE		VOL     69*seq_067_mvl/mxv
	BYTE	W03
	BYTE		        64*seq_067_mvl/mxv
	BYTE	W03
	BYTE		        75*seq_067_mvl/mxv
	BYTE		N48     Gn2   v112
	BYTE	W42
	BYTE		VOL     69*seq_067_mvl/mxv
	BYTE	W03
	BYTE		        66*seq_067_mvl/mxv
	BYTE	W03
	BYTE	PATT
	 POIN2	seq_067_6 + 0x5A2
	BYTE	PATT
	 POIN2	seq_067_6 + 0x5C6
	BYTE		VOL     75*seq_067_mvl/mxv
	BYTE		N48     Dn3   v116
	BYTE	W42
	BYTE		VOL     69*seq_067_mvl/mxv
	BYTE	W03
	BYTE		        66*seq_067_mvl/mxv
	BYTE	W03
	BYTE		        75*seq_067_mvl/mxv
	BYTE		N48     Cn3   v120
	BYTE	W42
	BYTE		VOL     69*seq_067_mvl/mxv
	BYTE	W03
	BYTE		        66*seq_067_mvl/mxv
	BYTE	W03
	BYTE		        75*seq_067_mvl/mxv
	BYTE		N96     Ds3 
	BYTE	W42
	BYTE		VOL     74*seq_067_mvl/mxv
	BYTE	W12
	BYTE		        73*seq_067_mvl/mxv
	BYTE	W06
	BYTE		        71*seq_067_mvl/mxv
	BYTE	W06
	BYTE		        67*seq_067_mvl/mxv
	BYTE	W06
	BYTE		        63*seq_067_mvl/mxv
	BYTE	W06
	BYTE		        57*seq_067_mvl/mxv
	BYTE	W06
	BYTE		        52*seq_067_mvl/mxv
	BYTE	W06
	BYTE		        44*seq_067_mvl/mxv
	BYTE	W06
	BYTE	PATT
	 POIN2	seq_067_6 + 0x3D9
	BYTE		VOL     75*seq_067_mvl/mxv
	BYTE		N48     Gs2   v120
	BYTE	W48
	BYTE		        Ds3   v116
	BYTE	W48
	BYTE		        Cn3   v108
	BYTE	W48
	BYTE		        Gs2   v112
	BYTE	W48
	BYTE		        Gn2   v116
	BYTE	W48
	BYTE		        Dn3 
	BYTE	W30
	BYTE		VOL     71*seq_067_mvl/mxv
	BYTE	W03
	BYTE		        68*seq_067_mvl/mxv
	BYTE	W03
	BYTE		        62*seq_067_mvl/mxv
	BYTE	W03
	BYTE		        57*seq_067_mvl/mxv
	BYTE	W03
	BYTE		        51*seq_067_mvl/mxv
	BYTE	W03
	BYTE		        40*seq_067_mvl/mxv
	BYTE	W03
	BYTE		        75*seq_067_mvl/mxv
	BYTE		N48     Bn2 
	BYTE	W48
	BYTE		        Gn2   v112
	BYTE	W48
	BYTE		TIE     Cn3   v108
	BYTE	W06
	BYTE		VOL     74*seq_067_mvl/mxv
	BYTE	W06
	BYTE		        69*seq_067_mvl/mxv
	BYTE	W06
	BYTE		        67*seq_067_mvl/mxv
	BYTE	W06
	BYTE		        66*seq_067_mvl/mxv
	BYTE	W12
	BYTE		        67*seq_067_mvl/mxv
	BYTE	W06
	BYTE		        68*seq_067_mvl/mxv
	BYTE	W06
	BYTE		        69*seq_067_mvl/mxv
	BYTE	W06
	BYTE		        71*seq_067_mvl/mxv
	BYTE	W06
	BYTE		        73*seq_067_mvl/mxv
	BYTE	W06
	BYTE		        74*seq_067_mvl/mxv
	BYTE	W12
	BYTE		        76*seq_067_mvl/mxv
	BYTE	W18
	BYTE	W24
	BYTE		        74*seq_067_mvl/mxv
	BYTE	W06
	BYTE		        73*seq_067_mvl/mxv
	BYTE	W06
	BYTE		        71*seq_067_mvl/mxv
	BYTE	W06
	BYTE		        69*seq_067_mvl/mxv
	BYTE	W06
	BYTE		        67*seq_067_mvl/mxv
	BYTE	W06
	BYTE		        65*seq_067_mvl/mxv
	BYTE	W06
	BYTE		        62*seq_067_mvl/mxv
	BYTE	W06
	BYTE		        59*seq_067_mvl/mxv
	BYTE	W06
	BYTE		        56*seq_067_mvl/mxv
	BYTE	W06
	BYTE		        53*seq_067_mvl/mxv
	BYTE	W06
	BYTE		        50*seq_067_mvl/mxv
	BYTE	W06
	BYTE		        47*seq_067_mvl/mxv
	BYTE	W06
	BYTE		        43*seq_067_mvl/mxv
	BYTE	W06
	BYTE		        39*seq_067_mvl/mxv
	BYTE	W06
	BYTE		        35*seq_067_mvl/mxv
	BYTE	W06
	BYTE		        30*seq_067_mvl/mxv
	BYTE	W06
	BYTE		        26*seq_067_mvl/mxv
	BYTE	W06
	BYTE		        22*seq_067_mvl/mxv
	BYTE	W06
	BYTE		        17*seq_067_mvl/mxv
	BYTE	W06
	BYTE		        13*seq_067_mvl/mxv
	BYTE	W06
	BYTE		EOT
	BYTE	W48
	BYTE	W96
	BYTE	W54
	BYTE	FINE

//*********************** Track 08 ***********************//

seq_067_7:
	BYTE	KEYSH   seq_067_key+0
	BYTE	W03
	BYTE	W96
	BYTE	W96
	BYTE	W96
	BYTE	W96
	BYTE	W96
	BYTE	W96
	BYTE	W96
	BYTE	W96
	BYTE	W96
	BYTE	W96
	BYTE	W07
	BYTE		VOICE   51
	BYTE	W01
	BYTE		VOL     75*seq_067_mvl/mxv
	BYTE	W01
	BYTE		PAN     c_v-64
	BYTE	W84
	BYTE	W03
	BYTE	W92
	BYTE	W03
	BYTE		BEND    c_v+0
	BYTE	W01
	BYTE	W05
	BYTE	W02
	BYTE		N24     Gn2   v048
	BYTE	W24
	BYTE		        Cn3   v044
	BYTE	W24
	BYTE		        Dn3   v048
	BYTE	W24
	BYTE		        Gn2   v044
	BYTE	W17
	BYTE	W07
	BYTE		N48     Fn3   v048
	BYTE	W48
	BYTE		N24     En3 
	BYTE	W24
	BYTE		        Dn3   v044
	BYTE	W17
	BYTE	PEND
	BYTE	W07
	BYTE		N24     Cn3   v044
	BYTE	W24
	BYTE		N12     Bn2   v052
	BYTE	W12
	BYTE		        Cn3   v048
	BYTE	W12
	BYTE		N24     Dn3 
	BYTE	W24
	BYTE		N23     Cn3   v044
	BYTE	W17
	BYTE	PEND
	BYTE	W07
	BYTE		N48     Cn3   v048
	BYTE	W48
	BYTE		N44     Bn2   v040
	BYTE	W40
	BYTE	W01
	BYTE	PEND
	BYTE	W07
	BYTE		N24     An2   v044
	BYTE	W24
	BYTE		        Dn3 
	BYTE	W24
	BYTE		        En3 
	BYTE	W24
	BYTE		        An2   v048
	BYTE	W17
	BYTE	W07
	BYTE		N48     Gn3   v048
	BYTE	W48
	BYTE		N24     Fn3 
	BYTE	W24
	BYTE		        En3   v044
	BYTE	W17
	BYTE	PEND
	BYTE	W07
	BYTE		        Dn3   v048
	BYTE	W24
	BYTE		N12     Cs3 
	BYTE	W12
	BYTE		        En3   v044
	BYTE	W12
	BYTE		N24     Dn3   v048
	BYTE	W24
	BYTE		        An2   v044
	BYTE	W17
	BYTE	PATT
	 POIN2	seq_067_7 + 0x4C
	BYTE	W07
	BYTE		N24     Gn2   v048
	BYTE	W24
	BYTE		        Cn3 
	BYTE	W24
	BYTE		        Dn3 
	BYTE	W24
	BYTE		        Gn2   v044
	BYTE	W17
	BYTE	PATT
	 POIN2	seq_067_7 + 0x2C
	BYTE	PATT
	 POIN2	seq_067_7 + 0x38
	BYTE	PATT
	 POIN2	seq_067_7 + 0x4C
	BYTE	W07
	BYTE		N22     An2   v044
	BYTE	W24
	BYTE		N24     Dn3   v040
	BYTE	W24
	BYTE		        En3   v044
	BYTE	W24
	BYTE		        An2   v048
	BYTE	W17
	BYTE	PATT
	 POIN2	seq_067_7 + 0x63
	BYTE	W07
	BYTE		N24     Dn3   v048
	BYTE	W24
	BYTE		N12     Cs3 
	BYTE	W12
	BYTE		        En3   v044
	BYTE	W12
	BYTE		N24     Dn3   v048
	BYTE	W24
	BYTE		        An2   v040
	BYTE	W17
	BYTE	W07
	BYTE		N48     En3   v044
	BYTE	W48
	BYTE		N23     Dn3   v048
	BYTE	W24
	BYTE		N06     Dn3   v044
	BYTE	W06
	BYTE		        En3   v040
	BYTE	W06
	BYTE		        Fn3 
	BYTE	W05
	BYTE	W01
	BYTE		        Gn3 
	BYTE	W06
	BYTE		N68     An3   v044
	BYTE	W72
	BYTE		N24     An3   v048
	BYTE	W17
	BYTE	W07
	BYTE		N68     Gn3   v044
	BYTE	W72
	BYTE		N24     En3   v040
	BYTE	W17
	BYTE	W07
	BYTE		N23     Fn3   v044
	BYTE	W24
	BYTE		N12
	BYTE	W12
	BYTE		        En3   v040
	BYTE	W12
	BYTE		N24     Dn3   v048
	BYTE	W24
	BYTE		        Cs3 
	BYTE	W17
	BYTE	W07
	BYTE		        Dn3 
	BYTE	W24
	BYTE		        En3 
	BYTE	W24
	BYTE		        Fn3 
	BYTE	W24
	BYTE		        Gn3 
	BYTE	W17
	BYTE	W07
	BYTE		N68     As3 
	BYTE	W72
	BYTE		N24
	BYTE	W17
	BYTE	W07
	BYTE		N72     An3   v044
	BYTE	W72
	BYTE		N24     Fn3 
	BYTE	W17
	BYTE	W07
	BYTE		N23     Gn3   v048
	BYTE	W24
	BYTE		N12
	BYTE	W12
	BYTE		        Gs3   v044
	BYTE	W12
	BYTE		N23     Gn3   v048
	BYTE	W24
	BYTE		N12
	BYTE	W12
	BYTE		N11     Gs3   v044
	BYTE	W05
	BYTE	W07
	BYTE		N24     Gn3   v048
	BYTE	W24
	BYTE		        Fn3 
	BYTE	W24
	BYTE		        En3 
	BYTE	W24
	BYTE		N23     Dn3   v040
	BYTE	W17
	BYTE	W03
	BYTE	W92
	BYTE	W01
	BYTE	W96
	BYTE	W96
	BYTE	W96
	BYTE	W96
	BYTE	W96
	BYTE	W96
	BYTE	W96
	BYTE	W96
	BYTE	W96
	BYTE	W96
	BYTE	W96
	BYTE	W96
	BYTE	W96
	BYTE	W96
	BYTE	W96
	BYTE	W96
	BYTE	W96
	BYTE	W96
	BYTE	W96
	BYTE	W96
	BYTE	W96
	BYTE	W96
	BYTE		VOICE   71
	BYTE		VOL     62*seq_067_mvl/mxv
	BYTE	W01
	BYTE		PAN     c_v-34
	BYTE	W76
	BYTE	W01
	BYTE		BEND    c_v+7
	BYTE	W16
	BYTE	W02
	BYTE		N24     Ds2   v116
	BYTE	W24
	BYTE		        Gs2 
	BYTE	W24
	BYTE		        As2   v120
	BYTE	W24
	BYTE		        Ds2 
	BYTE	W24
	BYTE		N48     Cs3 
	BYTE	W12
	BYTE		VOL     61*seq_067_mvl/mxv
	BYTE	W06
	BYTE		        60*seq_067_mvl/mxv
	BYTE	W06
	BYTE		        57*seq_067_mvl/mxv
	BYTE	W06
	BYTE		        52*seq_067_mvl/mxv
	BYTE	W06
	BYTE		        45*seq_067_mvl/mxv
	BYTE	W06
	BYTE		        35*seq_067_mvl/mxv
	BYTE	W06
	BYTE		        62*seq_067_mvl/mxv
	BYTE		N24     Cn3   v112
	BYTE	W24
	BYTE		        As2   v116
	BYTE	W24
	BYTE		        Gs2 
	BYTE	W24
	BYTE		N12     Gn2   v120
	BYTE	W12
	BYTE		        Gs2 
	BYTE	W12
	BYTE		N24     As2 
	BYTE	W24
	BYTE		N23     Gs2 
	BYTE	W24
	BYTE		N48     Gs2   v116
	BYTE	W12
	BYTE		VOL     61*seq_067_mvl/mxv
	BYTE	W06
	BYTE		        61*seq_067_mvl/mxv
	BYTE	W06
	BYTE		        58*seq_067_mvl/mxv
	BYTE	W06
	BYTE		        54*seq_067_mvl/mxv
	BYTE	W06
	BYTE		        49*seq_067_mvl/mxv
	BYTE	W06
	BYTE		        43*seq_067_mvl/mxv
	BYTE	W06
	BYTE		        62*seq_067_mvl/mxv
	BYTE		N48     Gn2 
	BYTE	W12
	BYTE		VOL     61*seq_067_mvl/mxv
	BYTE	W06
	BYTE		        60*seq_067_mvl/mxv
	BYTE	W06
	BYTE		        58*seq_067_mvl/mxv
	BYTE	W06
	BYTE		        55*seq_067_mvl/mxv
	BYTE	W06
	BYTE		        50*seq_067_mvl/mxv
	BYTE	W06
	BYTE		        44*seq_067_mvl/mxv
	BYTE	W06
	BYTE	PEND
	BYTE		        62*seq_067_mvl/mxv
	BYTE		N24     Fn2   v120
	BYTE	W24
	BYTE		        As2 
	BYTE	W24
	BYTE		        Cn3   v116
	BYTE	W24
	BYTE		        Fn2   v120
	BYTE	W24
	BYTE		N48     Ds3 
	BYTE	W12
	BYTE		VOL     61*seq_067_mvl/mxv
	BYTE	W06
	BYTE		        60*seq_067_mvl/mxv
	BYTE	W06
	BYTE		        57*seq_067_mvl/mxv
	BYTE	W06
	BYTE		        52*seq_067_mvl/mxv
	BYTE	W06
	BYTE		        45*seq_067_mvl/mxv
	BYTE	W06
	BYTE		        35*seq_067_mvl/mxv
	BYTE	W06
	BYTE		        62*seq_067_mvl/mxv
	BYTE		N24     Cs3   v116
	BYTE	W24
	BYTE		        Cn3 
	BYTE	W24
	BYTE		        As2 
	BYTE	W24
	BYTE		N12     An2   v120
	BYTE	W12
	BYTE		        Cn3   v116
	BYTE	W12
	BYTE		N24     As2   v120
	BYTE	W24
	BYTE		N23     Fn2   v116
	BYTE	W24
	BYTE	PATT
	 POIN2	seq_067_7 + 0x18B
	BYTE		VOL     62*seq_067_mvl/mxv
	BYTE		N24     Ds2   v116
	BYTE	W23
	BYTE		        Gs2 
	BYTE	W24
	BYTE		        As2   v120
	BYTE	W24
	BYTE		        Ds2 
	BYTE	W24
	BYTE		N48     Cs3 
	BYTE	W01
	BYTE	W12
	BYTE		VOL     61*seq_067_mvl/mxv
	BYTE	W06
	BYTE		        60*seq_067_mvl/mxv
	BYTE	W06
	BYTE		        57*seq_067_mvl/mxv
	BYTE	W06
	BYTE		        52*seq_067_mvl/mxv
	BYTE	W06
	BYTE		        45*seq_067_mvl/mxv
	BYTE	W06
	BYTE		        35*seq_067_mvl/mxv
	BYTE	W05
	BYTE		N24     Cn3   v112
	BYTE	W01
	BYTE		VOL     62*seq_067_mvl/mxv
	BYTE	W23
	BYTE		N24     As2   v116
	BYTE	W24
	BYTE		        Gs2 
	BYTE	W01
	BYTE	W23
	BYTE		N12     Gn2   v120
	BYTE	W12
	BYTE		        Gs2 
	BYTE	W12
	BYTE		N24     As2 
	BYTE	W24
	BYTE		N23     Gs2 
	BYTE	W24
	BYTE		N48     Gs2   v116
	BYTE	W01
	BYTE	W12
	BYTE		VOL     61*seq_067_mvl/mxv
	BYTE	W06
	BYTE		        61*seq_067_mvl/mxv
	BYTE	W06
	BYTE		        58*seq_067_mvl/mxv
	BYTE	W06
	BYTE		        54*seq_067_mvl/mxv
	BYTE	W06
	BYTE		        49*seq_067_mvl/mxv
	BYTE	W06
	BYTE		        43*seq_067_mvl/mxv
	BYTE	W05
	BYTE		N48     Gn2 
	BYTE	W01
	BYTE		VOL     62*seq_067_mvl/mxv
	BYTE	W12
	BYTE		        61*seq_067_mvl/mxv
	BYTE	W06
	BYTE		        60*seq_067_mvl/mxv
	BYTE	W06
	BYTE		        58*seq_067_mvl/mxv
	BYTE	W06
	BYTE		        55*seq_067_mvl/mxv
	BYTE	W06
	BYTE		        50*seq_067_mvl/mxv
	BYTE	W06
	BYTE		        44*seq_067_mvl/mxv
	BYTE	W05
	BYTE		N24     Fn2   v120
	BYTE	W01
	BYTE		VOL     62*seq_067_mvl/mxv
	BYTE	W23
	BYTE		N24     As2 
	BYTE	W24
	BYTE		        Cn3   v116
	BYTE	W24
	BYTE		        Fn2   v120
	BYTE	W24
	BYTE		N48     Ds3 
	BYTE	W01
	BYTE	W12
	BYTE		VOL     61*seq_067_mvl/mxv
	BYTE	W06
	BYTE		        60*seq_067_mvl/mxv
	BYTE	W06
	BYTE		        57*seq_067_mvl/mxv
	BYTE	W06
	BYTE		        52*seq_067_mvl/mxv
	BYTE	W06
	BYTE		        45*seq_067_mvl/mxv
	BYTE	W06
	BYTE		        35*seq_067_mvl/mxv
	BYTE	W05
	BYTE		N24     Cs3   v116
	BYTE	W01
	BYTE		VOL     62*seq_067_mvl/mxv
	BYTE	W23
	BYTE		N24     Cn3 
	BYTE	W24
	BYTE		        As2 
	BYTE	W01
	BYTE	W23
	BYTE		N12     An2   v120
	BYTE	W12
	BYTE		        Cn3   v116
	BYTE	W12
	BYTE		N24     As2   v120
	BYTE	W24
	BYTE		N23     Fn2   v116
	BYTE	W24
	BYTE	W01
	BYTE		N48     Cn3 
	BYTE	W12
	BYTE		VOL     61*seq_067_mvl/mxv
	BYTE	W06
	BYTE		        61*seq_067_mvl/mxv
	BYTE	W06
	BYTE		        58*seq_067_mvl/mxv
	BYTE	W06
	BYTE		        54*seq_067_mvl/mxv
	BYTE	W06
	BYTE		        49*seq_067_mvl/mxv
	BYTE	W06
	BYTE		        43*seq_067_mvl/mxv
	BYTE	W06
	BYTE		        62*seq_067_mvl/mxv
	BYTE		N23     As2 
	BYTE	W24
	BYTE		N06     As2   v120
	BYTE	W06
	BYTE		        Cn3 
	BYTE	W06
	BYTE		        Cs3 
	BYTE	W06
	BYTE		        Ds3 
	BYTE	W06
	BYTE		N68     Fn3 
	BYTE	W06
	BYTE		VOL     61*seq_067_mvl/mxv
	BYTE	W12
	BYTE		        59*seq_067_mvl/mxv
	BYTE	W06
	BYTE		        57*seq_067_mvl/mxv
	BYTE	W06
	BYTE		        55*seq_067_mvl/mxv
	BYTE	W06
	BYTE		        51*seq_067_mvl/mxv
	BYTE	W06
	BYTE		        47*seq_067_mvl/mxv
	BYTE	W06
	BYTE		        42*seq_067_mvl/mxv
	BYTE	W06
	BYTE		        37*seq_067_mvl/mxv
	BYTE	W06
	BYTE		        30*seq_067_mvl/mxv
	BYTE	W06
	BYTE		        23*seq_067_mvl/mxv
	BYTE	W06
	BYTE		        62*seq_067_mvl/mxv
	BYTE		N24
	BYTE	W24
	BYTE		N72     Ds3   v116
	BYTE	W06
	BYTE		VOL     61*seq_067_mvl/mxv
	BYTE	W12
	BYTE		        59*seq_067_mvl/mxv
	BYTE	W06
	BYTE		        57*seq_067_mvl/mxv
	BYTE	W06
	BYTE		        55*seq_067_mvl/mxv
	BYTE	W06
	BYTE		        51*seq_067_mvl/mxv
	BYTE	W06
	BYTE		        47*seq_067_mvl/mxv
	BYTE	W06
	BYTE		        42*seq_067_mvl/mxv
	BYTE	W06
	BYTE		        37*seq_067_mvl/mxv
	BYTE	W06
	BYTE		        30*seq_067_mvl/mxv
	BYTE	W06
	BYTE		        23*seq_067_mvl/mxv
	BYTE	W06
	BYTE		        62*seq_067_mvl/mxv
	BYTE		N24     Cn3   v120
	BYTE	W24
	BYTE		N23     Cs3 
	BYTE	W24
	BYTE		N12
	BYTE	W12
	BYTE		        Cn3   v116
	BYTE	W12
	BYTE		N24     As2   v120
	BYTE	W24
	BYTE		        An2 
	BYTE	W24
	BYTE		        As2 
	BYTE	W24
	BYTE		        Cn3   v116
	BYTE	W24
	BYTE		        Cs3   v120
	BYTE	W24
	BYTE		        Ds3 
	BYTE	W24
	BYTE		N68     Fs3 
	BYTE	W06
	BYTE		VOL     61*seq_067_mvl/mxv
	BYTE	W12
	BYTE		        59*seq_067_mvl/mxv
	BYTE	W06
	BYTE		        57*seq_067_mvl/mxv
	BYTE	W06
	BYTE		        55*seq_067_mvl/mxv
	BYTE	W06
	BYTE		        51*seq_067_mvl/mxv
	BYTE	W06
	BYTE		        47*seq_067_mvl/mxv
	BYTE	W06
	BYTE		        42*seq_067_mvl/mxv
	BYTE	W06
	BYTE		        37*seq_067_mvl/mxv
	BYTE	W06
	BYTE		        30*seq_067_mvl/mxv
	BYTE	W06
	BYTE		        23*seq_067_mvl/mxv
	BYTE	W06
	BYTE		        62*seq_067_mvl/mxv
	BYTE		N24     Fs3   v116
	BYTE	W24
	BYTE		N72     Fn3 
	BYTE	W06
	BYTE		VOL     61*seq_067_mvl/mxv
	BYTE	W12
	BYTE		        59*seq_067_mvl/mxv
	BYTE	W06
	BYTE		        57*seq_067_mvl/mxv
	BYTE	W06
	BYTE		        55*seq_067_mvl/mxv
	BYTE	W06
	BYTE		        51*seq_067_mvl/mxv
	BYTE	W06
	BYTE		        47*seq_067_mvl/mxv
	BYTE	W06
	BYTE		        42*seq_067_mvl/mxv
	BYTE	W06
	BYTE		        37*seq_067_mvl/mxv
	BYTE	W06
	BYTE		        30*seq_067_mvl/mxv
	BYTE	W06
	BYTE		        23*seq_067_mvl/mxv
	BYTE	W06
	BYTE		        62*seq_067_mvl/mxv
	BYTE		N24     Cs3 
	BYTE	W24
	BYTE		N23     Ds3 
	BYTE	W24
	BYTE		N12     Ds3   v120
	BYTE	W12
	BYTE		        En3 
	BYTE	W12
	BYTE		N23     Ds3   v108
	BYTE	W24
	BYTE		N12     Ds3   v120
	BYTE	W12
	BYTE		        En3 
	BYTE	W12
	BYTE		N24     Ds3 
	BYTE	W24
	BYTE		        Cs3 
	BYTE	W24
	BYTE		        Bn2 
	BYTE	W24
	BYTE		        Cs3   v116
	BYTE	W24
	BYTE		VOL     62*seq_067_mvl/mxv
	BYTE		TIE     Ds3   v104
	BYTE	W12
	BYTE		VOL     61*seq_067_mvl/mxv
	BYTE	W06
	BYTE		        59*seq_067_mvl/mxv
	BYTE	W06
	BYTE		        57*seq_067_mvl/mxv
	BYTE	W06
	BYTE		        55*seq_067_mvl/mxv
	BYTE	W06
	BYTE		        52*seq_067_mvl/mxv
	BYTE	W06
	BYTE		        48*seq_067_mvl/mxv
	BYTE	W06
	BYTE		        44*seq_067_mvl/mxv
	BYTE	W06
	BYTE		        39*seq_067_mvl/mxv
	BYTE	W06
	BYTE		        33*seq_067_mvl/mxv
	BYTE	W06
	BYTE		        27*seq_067_mvl/mxv
	BYTE	W06
	BYTE		        20*seq_067_mvl/mxv
	BYTE	W06
	BYTE		        12*seq_067_mvl/mxv
	BYTE	W06
	BYTE		        6*seq_067_mvl/mxv
	BYTE	W06
	BYTE		        3*seq_067_mvl/mxv
	BYTE	W06
	BYTE	W12
	BYTE		EOT
	BYTE	W06
	BYTE		VOL     62*seq_067_mvl/mxv
	BYTE	W06
	BYTE		N24     Ds3   v120
	BYTE	W24
	BYTE		        Fn3   v112
	BYTE	W24
	BYTE		        Gn3   v116
	BYTE	W24
	BYTE		TIE     Gs3   v104
	BYTE	W06
	BYTE		VOL     61*seq_067_mvl/mxv
	BYTE	W12
	BYTE		        61*seq_067_mvl/mxv
	BYTE	W06
	BYTE		        60*seq_067_mvl/mxv
	BYTE	W06
	BYTE		        58*seq_067_mvl/mxv
	BYTE	W06
	BYTE		        57*seq_067_mvl/mxv
	BYTE	W06
	BYTE		        55*seq_067_mvl/mxv
	BYTE	W06
	BYTE		        53*seq_067_mvl/mxv
	BYTE	W06
	BYTE		        50*seq_067_mvl/mxv
	BYTE	W06
	BYTE		        47*seq_067_mvl/mxv
	BYTE	W06
	BYTE		        44*seq_067_mvl/mxv
	BYTE	W06
	BYTE		        41*seq_067_mvl/mxv
	BYTE	W06
	BYTE		        37*seq_067_mvl/mxv
	BYTE	W06
	BYTE		        33*seq_067_mvl/mxv
	BYTE	W06
	BYTE		        28*seq_067_mvl/mxv
	BYTE	W06
	BYTE		        23*seq_067_mvl/mxv
	BYTE	W06
	BYTE		        18*seq_067_mvl/mxv
	BYTE	W06
	BYTE		        12*seq_067_mvl/mxv
	BYTE	W06
	BYTE		        6*seq_067_mvl/mxv
	BYTE	W18
	BYTE		EOT
	BYTE	W60
	BYTE	W96
	BYTE	W96
	BYTE	W54
	BYTE	FINE

//*********************** Track 09 ***********************//

seq_067_8:
	BYTE	KEYSH   seq_067_key+0
	BYTE	W03
	BYTE	W96
	BYTE	W92
	BYTE	W03
	BYTE		VOICE   70
	BYTE	W01
	BYTE		VOL     62*seq_067_mvl/mxv
	BYTE	W01
	BYTE		PAN     c_v-34
	BYTE	W92
	BYTE	W03
	BYTE	W96
	BYTE	W12
	BYTE		N24     Gn3   v012
	BYTE	W24
	BYTE		        Cn4 
	BYTE	W24
	BYTE		        Dn4 
	BYTE	W24
	BYTE		        Gn3 
	BYTE	W12
	BYTE	W12
	BYTE		N48     Fn4 
	BYTE	W48
	BYTE		N24     En4 
	BYTE	W24
	BYTE		        Dn4 
	BYTE	W12
	BYTE	W12
	BYTE		        Cn4 
	BYTE	W24
	BYTE		N12     Bn3 
	BYTE	W12
	BYTE		        Cn4 
	BYTE	W12
	BYTE		N24     Dn4 
	BYTE	W24
	BYTE		N23     Cn4 
	BYTE	W12
	BYTE	W12
	BYTE		N48
	BYTE	W48
	BYTE		        Bn3 
	BYTE	W36
	BYTE	W12
	BYTE		N24     An3 
	BYTE	W24
	BYTE		        Dn4 
	BYTE	W24
	BYTE		        En4 
	BYTE	W24
	BYTE		        An3 
	BYTE	W12
	BYTE	W12
	BYTE		N48     Gn4 
	BYTE	W48
	BYTE		N24     Fn4 
	BYTE	W24
	BYTE		        En4 
	BYTE	W12
	BYTE	W12
	BYTE		        Dn4 
	BYTE	W24
	BYTE		N12     Cs4 
	BYTE	W12
	BYTE		        En4 
	BYTE	W12
	BYTE		N24     Dn4 
	BYTE	W24
	BYTE		N23     An3 
	BYTE	W12
	BYTE	W12
	BYTE		N48     En4 
	BYTE	W48
	BYTE		        Dn4 
	BYTE	W36
	BYTE	W96
	BYTE	W96
	BYTE	W96
	BYTE	W96
	BYTE	W96
	BYTE	W96
	BYTE	W96
	BYTE	W96
	BYTE	W96
	BYTE	W96
	BYTE	W96
	BYTE	W96
	BYTE	W96
	BYTE	W96
	BYTE	W96
	BYTE	W96
	BYTE	W96
	BYTE	W96
	BYTE	W96
	BYTE	W96
	BYTE	W96
	BYTE	W96
	BYTE	W96
	BYTE		VOICE   45
	BYTE	W01
	BYTE		VOL     62*seq_067_mvl/mxv
	BYTE	W01
	BYTE		PAN     c_v-54
	BYTE	W92
	BYTE	W02
	BYTE		BEND    c_v+1
	BYTE	W04
	BYTE	W02
	BYTE		N23     Gn2   v036
	BYTE	W24
	BYTE		        Cn3   v028
	BYTE	W24
	BYTE		        Dn3   v036
	BYTE	W24
	BYTE		        Gn2   v040
	BYTE	W03
	BYTE		VOL     61*seq_067_mvl/mxv
	BYTE	W03
	BYTE		        61*seq_067_mvl/mxv
	BYTE	W03
	BYTE		        62*seq_067_mvl/mxv
	BYTE	W03
	BYTE		        64*seq_067_mvl/mxv
	BYTE	W06
	BYTE		        64*seq_067_mvl/mxv
	BYTE	W06
	BYTE		        62*seq_067_mvl/mxv
	BYTE		N48     Fn3   v032
	BYTE	W03
	BYTE		VOL     61*seq_067_mvl/mxv
	BYTE	W03
	BYTE		        61*seq_067_mvl/mxv
	BYTE	W03
	BYTE		        64*seq_067_mvl/mxv
	BYTE	W06
	BYTE		        66*seq_067_mvl/mxv
	BYTE	W06
	BYTE		        66*seq_067_mvl/mxv
	BYTE	W03
	BYTE		        64*seq_067_mvl/mxv
	BYTE	W12
	BYTE		        61*seq_067_mvl/mxv
	BYTE	W03
	BYTE		        59*seq_067_mvl/mxv
	BYTE	W03
	BYTE		        56*seq_067_mvl/mxv
	BYTE	W03
	BYTE		        51*seq_067_mvl/mxv
	BYTE	W03
	BYTE		        62*seq_067_mvl/mxv
	BYTE		N23     En3   v028
	BYTE	W24
	BYTE		        Dn3   v024
	BYTE	W18
	BYTE	W06
	BYTE		        Cn3   v032
	BYTE	W24
	BYTE		N11     Bn2   v040
	BYTE	W12
	BYTE		        Cn3   v036
	BYTE	W12
	BYTE		N23     Dn3 
	BYTE	W24
	BYTE		        Cn3   v032
	BYTE	W18
	BYTE	W06
	BYTE		N44     Cn3   v032
	BYTE	W18
	BYTE		VOL     62*seq_067_mvl/mxv
	BYTE	W09
	BYTE		        59*seq_067_mvl/mxv
	BYTE	W03
	BYTE		        58*seq_067_mvl/mxv
	BYTE	W03
	BYTE		        56*seq_067_mvl/mxv
	BYTE	W03
	BYTE		        53*seq_067_mvl/mxv
	BYTE	W03
	BYTE		        50*seq_067_mvl/mxv
	BYTE	W03
	BYTE		        45*seq_067_mvl/mxv
	BYTE	W03
	BYTE		        42*seq_067_mvl/mxv
	BYTE	W03
	BYTE		        62*seq_067_mvl/mxv
	BYTE		N44     Bn2   v024
	BYTE	W24
	BYTE		VOL     62*seq_067_mvl/mxv
	BYTE	W06
	BYTE		        59*seq_067_mvl/mxv
	BYTE	W03
	BYTE		        56*seq_067_mvl/mxv
	BYTE	W03
	BYTE		        50*seq_067_mvl/mxv
	BYTE	W03
	BYTE		        43*seq_067_mvl/mxv
	BYTE	W03
	BYTE	PEND
	BYTE		        35*seq_067_mvl/mxv
	BYTE	W03
	BYTE		        29*seq_067_mvl/mxv
	BYTE	W03
	BYTE		        62*seq_067_mvl/mxv
	BYTE		N23     An2   v032
	BYTE	W24
	BYTE		        Dn3 
	BYTE	W24
	BYTE		        En3   v036
	BYTE	W24
	BYTE		        An2   v040
	BYTE	W03
	BYTE		VOL     61*seq_067_mvl/mxv
	BYTE	W03
	BYTE		        61*seq_067_mvl/mxv
	BYTE	W06
	BYTE		        64*seq_067_mvl/mxv
	BYTE	W06
	BYTE		        64*seq_067_mvl/mxv
	BYTE	W06
	BYTE		        62*seq_067_mvl/mxv
	BYTE		N48     Gn3   v036
	BYTE	W03
	BYTE		VOL     61*seq_067_mvl/mxv
	BYTE	W04
	BYTE		        62*seq_067_mvl/mxv
	BYTE	W02
	BYTE		        64*seq_067_mvl/mxv
	BYTE	W24
	BYTE	W03
	BYTE		        61*seq_067_mvl/mxv
	BYTE	W03
	BYTE		        59*seq_067_mvl/mxv
	BYTE	W03
	BYTE		        56*seq_067_mvl/mxv
	BYTE	W03
	BYTE		        51*seq_067_mvl/mxv
	BYTE	W03
	BYTE		        62*seq_067_mvl/mxv
	BYTE		N23     Fn3 
	BYTE	W24
	BYTE		        En3   v028
	BYTE	W18
	BYTE	W06
	BYTE		N23     Dn3   v036
	BYTE	W24
	BYTE		N11     Cs3 
	BYTE	W12
	BYTE		        En3 
	BYTE	W12
	BYTE		N23     Dn3   v040
	BYTE	W24
	BYTE		        An2   v032
	BYTE	W18
	BYTE	PEND
	BYTE	W06
	BYTE		N44     Cn3   v028
	BYTE	W18
	BYTE		VOL     62*seq_067_mvl/mxv
	BYTE	W09
	BYTE		        59*seq_067_mvl/mxv
	BYTE	W03
	BYTE		        58*seq_067_mvl/mxv
	BYTE	W03
	BYTE		        56*seq_067_mvl/mxv
	BYTE	W03
	BYTE		        53*seq_067_mvl/mxv
	BYTE	W03
	BYTE		        50*seq_067_mvl/mxv
	BYTE	W03
	BYTE		        45*seq_067_mvl/mxv
	BYTE	W03
	BYTE		        42*seq_067_mvl/mxv
	BYTE	W03
	BYTE		        62*seq_067_mvl/mxv
	BYTE		N44     Bn2   v020
	BYTE	W24
	BYTE		VOL     62*seq_067_mvl/mxv
	BYTE	W06
	BYTE		        59*seq_067_mvl/mxv
	BYTE	W03
	BYTE		        56*seq_067_mvl/mxv
	BYTE	W03
	BYTE		        50*seq_067_mvl/mxv
	BYTE	W03
	BYTE		        43*seq_067_mvl/mxv
	BYTE	W03
	BYTE		        35*seq_067_mvl/mxv
	BYTE	W03
	BYTE		        29*seq_067_mvl/mxv
	BYTE	W03
	BYTE		        62*seq_067_mvl/mxv
	BYTE		N23     Gn2   v036
	BYTE	W24
	BYTE		        Cn3   v028
	BYTE	W24
	BYTE		        Dn3   v036
	BYTE	W24
	BYTE		        Gn2   v040
	BYTE	W03
	BYTE		VOL     61*seq_067_mvl/mxv
	BYTE	W03
	BYTE		        61*seq_067_mvl/mxv
	BYTE	W03
	BYTE		        62*seq_067_mvl/mxv
	BYTE	W03
	BYTE		        64*seq_067_mvl/mxv
	BYTE	W06
	BYTE	W06
	BYTE		        62*seq_067_mvl/mxv
	BYTE		N48     Fn3   v032
	BYTE	W03
	BYTE		VOL     61*seq_067_mvl/mxv
	BYTE	W03
	BYTE		        61*seq_067_mvl/mxv
	BYTE	W03
	BYTE		        64*seq_067_mvl/mxv
	BYTE	W24
	BYTE	W03
	BYTE		        61*seq_067_mvl/mxv
	BYTE	W03
	BYTE		        59*seq_067_mvl/mxv
	BYTE	W03
	BYTE		        56*seq_067_mvl/mxv
	BYTE	W03
	BYTE		        51*seq_067_mvl/mxv
	BYTE	W03
	BYTE		        62*seq_067_mvl/mxv
	BYTE		N23     En3   v028
	BYTE	W24
	BYTE		        Dn3   v024
	BYTE	W18
	BYTE	W06
	BYTE		        Cn3   v032
	BYTE	W24
	BYTE		N11     Bn2   v040
	BYTE	W12
	BYTE		        Cn3   v036
	BYTE	W12
	BYTE		N23     Dn3   v040
	BYTE	W24
	BYTE		        Cn3   v032
	BYTE	W18
	BYTE	PATT
	 POIN2	seq_067_8 + 0xCF
	BYTE		VOL     35*seq_067_mvl/mxv
	BYTE	W03
	BYTE		        29*seq_067_mvl/mxv
	BYTE	W03
	BYTE		        62*seq_067_mvl/mxv
	BYTE		N23     An2   v036
	BYTE	W24
	BYTE		        Dn3   v032
	BYTE	W24
	BYTE		        En3   v036
	BYTE	W24
	BYTE		        An2   v040
	BYTE	W03
	BYTE		VOL     61*seq_067_mvl/mxv
	BYTE	W03
	BYTE		        61*seq_067_mvl/mxv
	BYTE	W03
	BYTE		        62*seq_067_mvl/mxv
	BYTE	W03
	BYTE		        64*seq_067_mvl/mxv
	BYTE	W06
	BYTE		        64*seq_067_mvl/mxv
	BYTE	W06
	BYTE		        62*seq_067_mvl/mxv
	BYTE		N48     Gn3   v036
	BYTE	W03
	BYTE		VOL     61*seq_067_mvl/mxv
	BYTE	W03
	BYTE		        61*seq_067_mvl/mxv
	BYTE	W01
	BYTE		        62*seq_067_mvl/mxv
	BYTE	W02
	BYTE		        64*seq_067_mvl/mxv
	BYTE	W24
	BYTE	W03
	BYTE		        61*seq_067_mvl/mxv
	BYTE	W03
	BYTE		        59*seq_067_mvl/mxv
	BYTE	W03
	BYTE		        56*seq_067_mvl/mxv
	BYTE	W03
	BYTE		        51*seq_067_mvl/mxv
	BYTE	W03
	BYTE		        62*seq_067_mvl/mxv
	BYTE		N23     Fn3 
	BYTE	W24
	BYTE		        En3   v028
	BYTE	W18
	BYTE	PATT
	 POIN2	seq_067_8 + 0x12C
	BYTE	W06
	BYTE		N44     En3   v032
	BYTE	W18
	BYTE		VOL     62*seq_067_mvl/mxv
	BYTE	W09
	BYTE		        59*seq_067_mvl/mxv
	BYTE	W03
	BYTE		        58*seq_067_mvl/mxv
	BYTE	W03
	BYTE		        56*seq_067_mvl/mxv
	BYTE	W03
	BYTE		        53*seq_067_mvl/mxv
	BYTE	W03
	BYTE		        50*seq_067_mvl/mxv
	BYTE	W03
	BYTE		        45*seq_067_mvl/mxv
	BYTE	W03
	BYTE		        42*seq_067_mvl/mxv
	BYTE	W03
	BYTE		        62*seq_067_mvl/mxv
	BYTE		N23     Dn3   v024
	BYTE	W24
	BYTE		N05     Dn3   v040
	BYTE	W06
	BYTE		        En3 
	BYTE	W06
	BYTE		        Fn3 
	BYTE	W06
	BYTE		        Gn3   v044
	BYTE	W06
	BYTE		N68     An3   v036
	BYTE	W24
	BYTE		VOL     61*seq_067_mvl/mxv
	BYTE	W06
	BYTE		        61*seq_067_mvl/mxv
	BYTE	W03
	BYTE		        59*seq_067_mvl/mxv
	BYTE	W03
	BYTE		        59*seq_067_mvl/mxv
	BYTE	W03
	BYTE		        57*seq_067_mvl/mxv
	BYTE	W03
	BYTE		        55*seq_067_mvl/mxv
	BYTE	W03
	BYTE		        53*seq_067_mvl/mxv
	BYTE	W03
	BYTE		        50*seq_067_mvl/mxv
	BYTE	W03
	BYTE		        47*seq_067_mvl/mxv
	BYTE	W03
	BYTE		        44*seq_067_mvl/mxv
	BYTE	W03
	BYTE		        40*seq_067_mvl/mxv
	BYTE	W03
	BYTE		        37*seq_067_mvl/mxv
	BYTE	W03
	BYTE		        32*seq_067_mvl/mxv
	BYTE	W03
	BYTE		        28*seq_067_mvl/mxv
	BYTE	W03
	BYTE		        23*seq_067_mvl/mxv
	BYTE	W03
	BYTE		        62*seq_067_mvl/mxv
	BYTE		N23     An3   v028
	BYTE	W18
	BYTE	W06
	BYTE		N68     Gn3   v024
	BYTE	W03
	BYTE		VOL     60*seq_067_mvl/mxv
	BYTE	W03
	BYTE		        61*seq_067_mvl/mxv
	BYTE	W09
	BYTE		        61*seq_067_mvl/mxv
	BYTE	W30
	BYTE		        60*seq_067_mvl/mxv
	BYTE	W03
	BYTE		        56*seq_067_mvl/mxv
	BYTE	W03
	BYTE		        51*seq_067_mvl/mxv
	BYTE	W03
	BYTE		        45*seq_067_mvl/mxv
	BYTE	W03
	BYTE		        39*seq_067_mvl/mxv
	BYTE	W03
	BYTE		        32*seq_067_mvl/mxv
	BYTE	W03
	BYTE		        25*seq_067_mvl/mxv
	BYTE	W03
	BYTE		        16*seq_067_mvl/mxv
	BYTE	W03
	BYTE		        11*seq_067_mvl/mxv
	BYTE	W03
	BYTE		        62*seq_067_mvl/mxv
	BYTE		N23     En3   v032
	BYTE	W18
	BYTE	W06
	BYTE		        Fn3   v036
	BYTE	W24
	BYTE		N11
	BYTE	W12
	BYTE		        En3   v032
	BYTE	W12
	BYTE		N23     Dn3   v036
	BYTE	W24
	BYTE		        Cs3 
	BYTE	W18
	BYTE	W06
	BYTE		        Dn3   v040
	BYTE	W24
	BYTE		        En3 
	BYTE	W24
	BYTE		        Fn3   v044
	BYTE	W24
	BYTE		        Gn3   v040
	BYTE	W18
	BYTE	W06
	BYTE		N68     As3   v036
	BYTE	W24
	BYTE		VOL     61*seq_067_mvl/mxv
	BYTE	W06
	BYTE		        61*seq_067_mvl/mxv
	BYTE	W03
	BYTE		        59*seq_067_mvl/mxv
	BYTE	W06
	BYTE		        57*seq_067_mvl/mxv
	BYTE	W03
	BYTE		        55*seq_067_mvl/mxv
	BYTE	W03
	BYTE		        53*seq_067_mvl/mxv
	BYTE	W03
	BYTE		        50*seq_067_mvl/mxv
	BYTE	W03
	BYTE		        47*seq_067_mvl/mxv
	BYTE	W03
	BYTE		        44*seq_067_mvl/mxv
	BYTE	W03
	BYTE		        40*seq_067_mvl/mxv
	BYTE	W03
	BYTE		        37*seq_067_mvl/mxv
	BYTE	W03
	BYTE		        32*seq_067_mvl/mxv
	BYTE	W03
	BYTE		        28*seq_067_mvl/mxv
	BYTE	W03
	BYTE		        23*seq_067_mvl/mxv
	BYTE	W03
	BYTE		        62*seq_067_mvl/mxv
	BYTE		N23     As3   v032
	BYTE	W18
	BYTE	W06
	BYTE		N68     An3 
	BYTE	W03
	BYTE		VOL     60*seq_067_mvl/mxv
	BYTE	W03
	BYTE		        61*seq_067_mvl/mxv
	BYTE	W09
	BYTE		        61*seq_067_mvl/mxv
	BYTE	W03
	BYTE		        62*seq_067_mvl/mxv
	BYTE	W03
	BYTE		        63*seq_067_mvl/mxv
	BYTE	W03
	BYTE		        64*seq_067_mvl/mxv
	BYTE	W15
	BYTE		        63*seq_067_mvl/mxv
	BYTE	W03
	BYTE		        61*seq_067_mvl/mxv
	BYTE	W03
	BYTE		        60*seq_067_mvl/mxv
	BYTE	W03
	BYTE		        56*seq_067_mvl/mxv
	BYTE	W03
	BYTE		        51*seq_067_mvl/mxv
	BYTE	W03
	BYTE		        45*seq_067_mvl/mxv
	BYTE	W03
	BYTE		        39*seq_067_mvl/mxv
	BYTE	W03
	BYTE		        32*seq_067_mvl/mxv
	BYTE	W03
	BYTE		        25*seq_067_mvl/mxv
	BYTE	W03
	BYTE		        16*seq_067_mvl/mxv
	BYTE	W03
	BYTE		        11*seq_067_mvl/mxv
	BYTE	W03
	BYTE		        62*seq_067_mvl/mxv
	BYTE		N23     Fn3 
	BYTE	W18
	BYTE	W06
	BYTE		        Gn3 
	BYTE	W24
	BYTE		N11
	BYTE	W12
	BYTE		        Gs3   v028
	BYTE	W12
	BYTE		N23     Gn3 
	BYTE	W24
	BYTE		N11     Gn3   v036
	BYTE	W12
	BYTE		        Gs3   v032
	BYTE	W06
	BYTE	W06
	BYTE		N23     Gn3 
	BYTE	W24
	BYTE		        Fn3   v028
	BYTE	W24
	BYTE		        En3   v024
	BYTE	W24
	BYTE		        Dn3   v020
	BYTE	W18
	BYTE	W05
	BYTE	W90
	BYTE	W01
	BYTE	W96
	BYTE	W96
	BYTE	W96
	BYTE	W96
	BYTE	W96
	BYTE	W96
	BYTE	W96
	BYTE	W96
	BYTE	W96
	BYTE	W96
	BYTE	W96
	BYTE	W96
	BYTE	W96
	BYTE	W96
	BYTE	W96
	BYTE	W96
	BYTE	W96
	BYTE	W96
	BYTE	W96
	BYTE	W96
	BYTE	W96
	BYTE	W96
	BYTE	W96
	BYTE	W96
	BYTE	W54
	BYTE		VOICE   54
	BYTE	W01
	BYTE		PAN     c_v-64
	BYTE	W01
	BYTE	W40
	BYTE	W07
	BYTE		N12     Cn2 
	BYTE	W11
	BYTE		        Dn2 
	BYTE	W12
	BYTE		        En2   v016
	BYTE	W12
	BYTE		        Gn2 
	BYTE	W12
	BYTE		        Cn3 
	BYTE	W12
	BYTE		        Dn3 
	BYTE	W12
	BYTE		        En3 
	BYTE	W12
	BYTE		        Gn3 
	BYTE	W06
	BYTE	W06
	BYTE		        Cn4   v012
	BYTE	W12
	BYTE		        Gn3 
	BYTE	W12
	BYTE		        En3   v016
	BYTE	W12
	BYTE		        Dn3   v012
	BYTE	W12
	BYTE		        Cn3   v016
	BYTE	W12
	BYTE		        Gn2 
	BYTE	W12
	BYTE		        En2 
	BYTE	W12
	BYTE		        Dn2   v012
	BYTE	W06
	BYTE	W06
	BYTE		        Cn2   v020
	BYTE	W12
	BYTE		        Dn2   v016
	BYTE	W12
	BYTE		        En2   v020
	BYTE	W12
	BYTE		        Gn2   v016
	BYTE	W12
	BYTE		        Cn3   v020
	BYTE	W12
	BYTE		        Dn3   v016
	BYTE	W12
	BYTE		        En3 
	BYTE	W12
	BYTE		        Gn3   v012
	BYTE	W06
	BYTE	W06
	BYTE		        Cn4 
	BYTE	W12
	BYTE		        Gn3 
	BYTE	W12
	BYTE		        En3 
	BYTE	W12
	BYTE		        Dn3 
	BYTE	W12
	BYTE		        Cn3 
	BYTE	W12
	BYTE		        Gn2   v008
	BYTE	W12
	BYTE		        En2   v012
	BYTE	W12
	BYTE		        Dn2   v008
	BYTE	W06
	BYTE	W06
	BYTE		N48     Cn2   v012
	BYTE	W48
	BYTE	FINE

//*********************** Track 10 ***********************//

seq_067_9:
	BYTE	KEYSH   seq_067_key+0
	BYTE	W03
	BYTE	W03
	BYTE		VOICE   73
	BYTE	W01
	BYTE		VOL     62*seq_067_mvl/mxv
	BYTE	W01
	BYTE		PAN     c_v-64
	BYTE	W01
	BYTE		N12     Cn2   v020
	BYTE	W12
	BYTE		        Dn2 
	BYTE	W12
	BYTE		        En2 
	BYTE	W12
	BYTE		        Gn2 
	BYTE	W12
	BYTE		        Cn3   v016
	BYTE	W12
	BYTE		        Dn3 
	BYTE	W12
	BYTE		        En3 
	BYTE	W12
	BYTE		        Gn3 
	BYTE	W06
	BYTE	W06
	BYTE		N54     Cn4   v012
	BYTE	W12
	BYTE		VOL     62*seq_067_mvl/mxv
	BYTE	W06
	BYTE		        61*seq_067_mvl/mxv
	BYTE	W03
	BYTE		        59*seq_067_mvl/mxv
	BYTE	W03
	BYTE		        57*seq_067_mvl/mxv
	BYTE	W03
	BYTE		        54*seq_067_mvl/mxv
	BYTE	W03
	BYTE		        50*seq_067_mvl/mxv
	BYTE	W03
	BYTE		        45*seq_067_mvl/mxv
	BYTE	W03
	BYTE		        40*seq_067_mvl/mxv
	BYTE	W03
	BYTE		        34*seq_067_mvl/mxv
	BYTE	W03
	BYTE		        28*seq_067_mvl/mxv
	BYTE	W03
	BYTE		        21*seq_067_mvl/mxv
	BYTE	W03
	BYTE		        16*seq_067_mvl/mxv
	BYTE	W03
	BYTE		        9*seq_067_mvl/mxv
	BYTE	W03
	BYTE		        6*seq_067_mvl/mxv
	BYTE	W03
	BYTE		        4*seq_067_mvl/mxv
	BYTE	W03
	BYTE		        2*seq_067_mvl/mxv
	BYTE	W03
	BYTE		        0*seq_067_mvl/mxv
	BYTE	W24
	BYTE	W03
	BYTE	W06
	BYTE		        62*seq_067_mvl/mxv
	BYTE		N12     Cn2   v020
	BYTE	W12
	BYTE		        Dn2 
	BYTE	W12
	BYTE		        En2 
	BYTE	W12
	BYTE		        Gn2 
	BYTE	W12
	BYTE		        Cn3   v016
	BYTE	W12
	BYTE		        Dn3 
	BYTE	W12
	BYTE		        En3 
	BYTE	W12
	BYTE		        Gn3 
	BYTE	W06
	BYTE	W06
	BYTE		N54     Cn4   v012
	BYTE	W12
	BYTE		VOL     62*seq_067_mvl/mxv
	BYTE	W06
	BYTE		        61*seq_067_mvl/mxv
	BYTE	W03
	BYTE		        59*seq_067_mvl/mxv
	BYTE	W03
	BYTE		        57*seq_067_mvl/mxv
	BYTE	W03
	BYTE		        54*seq_067_mvl/mxv
	BYTE	W03
	BYTE		        50*seq_067_mvl/mxv
	BYTE	W03
	BYTE		        45*seq_067_mvl/mxv
	BYTE	W03
	BYTE		        40*seq_067_mvl/mxv
	BYTE	W03
	BYTE		        34*seq_067_mvl/mxv
	BYTE	W03
	BYTE		        28*seq_067_mvl/mxv
	BYTE	W03
	BYTE		        21*seq_067_mvl/mxv
	BYTE	W03
	BYTE		        16*seq_067_mvl/mxv
	BYTE	W03
	BYTE		        9*seq_067_mvl/mxv
	BYTE	W03
	BYTE		        6*seq_067_mvl/mxv
	BYTE	W03
	BYTE		        4*seq_067_mvl/mxv
	BYTE	W03
	BYTE		        2*seq_067_mvl/mxv
	BYTE	W03
	BYTE		        0*seq_067_mvl/mxv
	BYTE	W24
	BYTE		        62*seq_067_mvl/mxv
	BYTE	W03
	BYTE	W06
	BYTE		N24     Gn2   v016
	BYTE	W24
	BYTE		N19     Cn3 
	BYTE	W24
	BYTE		N24     Dn3 
	BYTE	W24
	BYTE		N19     Gn2 
	BYTE	W18
	BYTE	W06
	BYTE		N42     Fn3 
	BYTE	W48
	BYTE		N24     En3 
	BYTE	W24
	BYTE		        Dn3 
	BYTE	W18
	BYTE	W06
	BYTE		        Cn3 
	BYTE	W24
	BYTE		N12     Bn2 
	BYTE	W12
	BYTE		        Cn3 
	BYTE	W12
	BYTE		N24     Dn3 
	BYTE	W24
	BYTE		N23     Cn3 
	BYTE	W18
	BYTE	W06
	BYTE		N42
	BYTE	W48
	BYTE		        Bn2 
	BYTE	W42
	BYTE	W06
	BYTE		N24     An2 
	BYTE	W48
	BYTE		        En3 
	BYTE	W24
	BYTE		N20     An2 
	BYTE	W18
	BYTE	W06
	BYTE		N42     Gn3 
	BYTE	W48
	BYTE		N24     Fn3 
	BYTE	W24
	BYTE		        En3 
	BYTE	W18
	BYTE	W06
	BYTE		        Dn3 
	BYTE	W24
	BYTE		N12     Cs3 
	BYTE	W12
	BYTE		        En3 
	BYTE	W12
	BYTE		N24     Dn3 
	BYTE	W24
	BYTE		N23     An2 
	BYTE	W18
	BYTE	W06
	BYTE		N42     En3 
	BYTE	W48
	BYTE		N48     Dn3 
	BYTE	W06
	BYTE		VOL     61*seq_067_mvl/mxv
	BYTE	W06
	BYTE		        60*seq_067_mvl/mxv
	BYTE	W03
	BYTE		        57*seq_067_mvl/mxv
	BYTE	W03
	BYTE		        54*seq_067_mvl/mxv
	BYTE	W03
	BYTE		        50*seq_067_mvl/mxv
	BYTE	W03
	BYTE		        45*seq_067_mvl/mxv
	BYTE	W03
	BYTE		        38*seq_067_mvl/mxv
	BYTE	W03
	BYTE		        31*seq_067_mvl/mxv
	BYTE	W03
	BYTE		        23*seq_067_mvl/mxv
	BYTE	W03
	BYTE		        18*seq_067_mvl/mxv
	BYTE	W03
	BYTE		        13*seq_067_mvl/mxv
	BYTE	W03
	BYTE		        7*seq_067_mvl/mxv
	BYTE	W03
	BYTE		        5*seq_067_mvl/mxv
	BYTE	W03
	BYTE	W90
	BYTE	W96
	BYTE	W96
	BYTE	W96
	BYTE	W96
	BYTE	W96
	BYTE	W01
	BYTE		VOICE   3
	BYTE		VOL     75*seq_067_mvl/mxv
	BYTE	W01
	BYTE		PAN     c_v-64
	BYTE	W92
	BYTE	W02
	BYTE	W92
	BYTE	W03
	BYTE	W01
	BYTE	W01
	BYTE		N48     Cn2   v048
	BYTE	W42
	BYTE		VOL     69*seq_067_mvl/mxv
	BYTE	W03
	BYTE		        65*seq_067_mvl/mxv
	BYTE	W01
	BYTE		        62*seq_067_mvl/mxv
	BYTE	W02
	BYTE		        75*seq_067_mvl/mxv
	BYTE		N48     Bn1 
	BYTE	W42
	BYTE		VOL     69*seq_067_mvl/mxv
	BYTE	W03
	BYTE		        66*seq_067_mvl/mxv
	BYTE	W02
	BYTE	W01
	BYTE		        75*seq_067_mvl/mxv
	BYTE		N48     An1   v052
	BYTE	W36
	BYTE	W03
	BYTE		VOL     71*seq_067_mvl/mxv
	BYTE	W03
	BYTE		        66*seq_067_mvl/mxv
	BYTE	W03
	BYTE		        60*seq_067_mvl/mxv
	BYTE	W03
	BYTE		        75*seq_067_mvl/mxv
	BYTE		N48     Gs1 
	BYTE	W36
	BYTE	W03
	BYTE		VOL     71*seq_067_mvl/mxv
	BYTE	W03
	BYTE		        65*seq_067_mvl/mxv
	BYTE	W03
	BYTE		        58*seq_067_mvl/mxv
	BYTE	W02
	BYTE	W01
	BYTE		        75*seq_067_mvl/mxv
	BYTE		N48     Fn1   v056
	BYTE	W42
	BYTE		VOL     69*seq_067_mvl/mxv
	BYTE	W03
	BYTE		        61*seq_067_mvl/mxv
	BYTE	W03
	BYTE		        75*seq_067_mvl/mxv
	BYTE		N48     Fs1   v052
	BYTE	W42
	BYTE		VOL     73*seq_067_mvl/mxv
	BYTE	W03
	BYTE		        70*seq_067_mvl/mxv
	BYTE	W02
	BYTE	W01
	BYTE		        75*seq_067_mvl/mxv
	BYTE		N96     Gn1   v048
	BYTE	W54
	BYTE		VOL     73*seq_067_mvl/mxv
	BYTE	W03
	BYTE		        71*seq_067_mvl/mxv
	BYTE	W03
	BYTE		        69*seq_067_mvl/mxv
	BYTE	W03
	BYTE		        66*seq_067_mvl/mxv
	BYTE	W03
	BYTE		        64*seq_067_mvl/mxv
	BYTE	W03
	BYTE		        61*seq_067_mvl/mxv
	BYTE	W03
	BYTE		        57*seq_067_mvl/mxv
	BYTE	W03
	BYTE		        54*seq_067_mvl/mxv
	BYTE	W03
	BYTE		        49*seq_067_mvl/mxv
	BYTE	W03
	BYTE		        45*seq_067_mvl/mxv
	BYTE	W03
	BYTE		        40*seq_067_mvl/mxv
	BYTE	W03
	BYTE		        36*seq_067_mvl/mxv
	BYTE	W03
	BYTE		        30*seq_067_mvl/mxv
	BYTE	W03
	BYTE		        25*seq_067_mvl/mxv
	BYTE	W02
	BYTE	W01
	BYTE		VOL     69*seq_067_mvl/mxv
	BYTE		TIE     An1   v048
	BYTE	W03
	BYTE		VOL     65*seq_067_mvl/mxv
	BYTE	W03
	BYTE		        64*seq_067_mvl/mxv
	BYTE	W03
	BYTE		        62*seq_067_mvl/mxv
	BYTE	W03
	BYTE		        61*seq_067_mvl/mxv
	BYTE	W36
	BYTE		        62*seq_067_mvl/mxv
	BYTE	W06
	BYTE		        63*seq_067_mvl/mxv
	BYTE	W06
	BYTE		        64*seq_067_mvl/mxv
	BYTE	W06
	BYTE		        66*seq_067_mvl/mxv
	BYTE	W06
	BYTE		        69*seq_067_mvl/mxv
	BYTE	W06
	BYTE		        72*seq_067_mvl/mxv
	BYTE	W06
	BYTE		        76*seq_067_mvl/mxv
	BYTE	W06
	BYTE		        77*seq_067_mvl/mxv
	BYTE	W05
	BYTE	PEND
	BYTE	W30
	BYTE	W01
	BYTE		        76*seq_067_mvl/mxv
	BYTE	W03
	BYTE		        73*seq_067_mvl/mxv
	BYTE	W03
	BYTE		        70*seq_067_mvl/mxv
	BYTE	W03
	BYTE		        66*seq_067_mvl/mxv
	BYTE	W03
	BYTE		        62*seq_067_mvl/mxv
	BYTE	W06
	BYTE		EOT
	BYTE		VOL     75*seq_067_mvl/mxv
	BYTE		N48     Cs2 
	BYTE	W42
	BYTE		VOL     69*seq_067_mvl/mxv
	BYTE	W03
	BYTE		        66*seq_067_mvl/mxv
	BYTE	W02
	BYTE	W01
	BYTE		        75*seq_067_mvl/mxv
	BYTE		N48     Dn2 
	BYTE	W36
	BYTE	W03
	BYTE		VOL     70*seq_067_mvl/mxv
	BYTE	W03
	BYTE		        65*seq_067_mvl/mxv
	BYTE	W03
	BYTE		        58*seq_067_mvl/mxv
	BYTE	W03
	BYTE		        75*seq_067_mvl/mxv
	BYTE		N48     An1 
	BYTE	W36
	BYTE	W03
	BYTE		VOL     71*seq_067_mvl/mxv
	BYTE	W03
	BYTE		        66*seq_067_mvl/mxv
	BYTE	W03
	BYTE		        60*seq_067_mvl/mxv
	BYTE	W02
	BYTE	W01
	BYTE		VOL     75*seq_067_mvl/mxv
	BYTE		N96     Gn1   v044
	BYTE	W54
	BYTE		VOL     73*seq_067_mvl/mxv
	BYTE	W03
	BYTE		        71*seq_067_mvl/mxv
	BYTE	W03
	BYTE		        69*seq_067_mvl/mxv
	BYTE	W03
	BYTE		        66*seq_067_mvl/mxv
	BYTE	W03
	BYTE		        64*seq_067_mvl/mxv
	BYTE	W03
	BYTE		        61*seq_067_mvl/mxv
	BYTE	W03
	BYTE		        57*seq_067_mvl/mxv
	BYTE	W03
	BYTE		        54*seq_067_mvl/mxv
	BYTE	W03
	BYTE		        49*seq_067_mvl/mxv
	BYTE	W03
	BYTE		        45*seq_067_mvl/mxv
	BYTE	W03
	BYTE		        40*seq_067_mvl/mxv
	BYTE	W03
	BYTE		        36*seq_067_mvl/mxv
	BYTE	W03
	BYTE		        30*seq_067_mvl/mxv
	BYTE	W03
	BYTE		        25*seq_067_mvl/mxv
	BYTE	W02
	BYTE	PEND
	BYTE	W01
	BYTE		        75*seq_067_mvl/mxv
	BYTE		N44     Fn1   v048
	BYTE	W42
	BYTE		VOL     69*seq_067_mvl/mxv
	BYTE	W03
	BYTE		        64*seq_067_mvl/mxv
	BYTE	W03
	BYTE		        75*seq_067_mvl/mxv
	BYTE		N48     Gn1 
	BYTE	W42
	BYTE		VOL     69*seq_067_mvl/mxv
	BYTE	W03
	BYTE		        66*seq_067_mvl/mxv
	BYTE	W02
	BYTE	W01
	BYTE		VOL     75*seq_067_mvl/mxv
	BYTE		N96     Cn2   v048
	BYTE	W54
	BYTE		VOL     73*seq_067_mvl/mxv
	BYTE	W03
	BYTE		        71*seq_067_mvl/mxv
	BYTE	W03
	BYTE		        69*seq_067_mvl/mxv
	BYTE	W03
	BYTE		        66*seq_067_mvl/mxv
	BYTE	W03
	BYTE		        64*seq_067_mvl/mxv
	BYTE	W03
	BYTE		        61*seq_067_mvl/mxv
	BYTE	W03
	BYTE		        57*seq_067_mvl/mxv
	BYTE	W03
	BYTE		        54*seq_067_mvl/mxv
	BYTE	W03
	BYTE		        49*seq_067_mvl/mxv
	BYTE	W03
	BYTE		        45*seq_067_mvl/mxv
	BYTE	W03
	BYTE		        40*seq_067_mvl/mxv
	BYTE	W03
	BYTE		        36*seq_067_mvl/mxv
	BYTE	W03
	BYTE		        30*seq_067_mvl/mxv
	BYTE	W03
	BYTE		        25*seq_067_mvl/mxv
	BYTE	W02
	BYTE	PEND
	BYTE	W01
	BYTE		        75*seq_067_mvl/mxv
	BYTE		N48     As1 
	BYTE	W42
	BYTE		VOL     69*seq_067_mvl/mxv
	BYTE	W03
	BYTE		        66*seq_067_mvl/mxv
	BYTE	W03
	BYTE		        75*seq_067_mvl/mxv
	BYTE		N48     An1   v052
	BYTE	W36
	BYTE	W03
	BYTE		VOL     71*seq_067_mvl/mxv
	BYTE	W03
	BYTE		        66*seq_067_mvl/mxv
	BYTE	W03
	BYTE		        60*seq_067_mvl/mxv
	BYTE	W02
	BYTE	W01
	BYTE		VOL     75*seq_067_mvl/mxv
	BYTE		N48     Dn2   v052
	BYTE	W42
	BYTE		VOL     69*seq_067_mvl/mxv
	BYTE	W03
	BYTE		        66*seq_067_mvl/mxv
	BYTE	W03
	BYTE		        75*seq_067_mvl/mxv
	BYTE		N48     Cn2 
	BYTE	W42
	BYTE		VOL     69*seq_067_mvl/mxv
	BYTE	W03
	BYTE		        66*seq_067_mvl/mxv
	BYTE	W02
	BYTE	PEND
	BYTE	W01
	BYTE		        75*seq_067_mvl/mxv
	BYTE		N96     Ds2 
	BYTE	W42
	BYTE		VOL     74*seq_067_mvl/mxv
	BYTE	W12
	BYTE		        73*seq_067_mvl/mxv
	BYTE	W06
	BYTE		        71*seq_067_mvl/mxv
	BYTE	W06
	BYTE		        67*seq_067_mvl/mxv
	BYTE	W06
	BYTE		        63*seq_067_mvl/mxv
	BYTE	W06
	BYTE		        57*seq_067_mvl/mxv
	BYTE	W06
	BYTE		        52*seq_067_mvl/mxv
	BYTE	W06
	BYTE		        44*seq_067_mvl/mxv
	BYTE	W05
	BYTE	W01
	BYTE		VOL     75*seq_067_mvl/mxv
	BYTE		N96     Dn2   v048
	BYTE	W42
	BYTE		VOL     74*seq_067_mvl/mxv
	BYTE	W12
	BYTE		        73*seq_067_mvl/mxv
	BYTE	W06
	BYTE		        71*seq_067_mvl/mxv
	BYTE	W06
	BYTE		        67*seq_067_mvl/mxv
	BYTE	W06
	BYTE		        63*seq_067_mvl/mxv
	BYTE	W06
	BYTE		        57*seq_067_mvl/mxv
	BYTE	W06
	BYTE		        52*seq_067_mvl/mxv
	BYTE	W06
	BYTE		        44*seq_067_mvl/mxv
	BYTE	W05
	BYTE	PEND
	BYTE	W01
	BYTE		VOL     75*seq_067_mvl/mxv
	BYTE		N48     Gs1   v052
	BYTE	W42
	BYTE		VOL     69*seq_067_mvl/mxv
	BYTE	W03
	BYTE		        65*seq_067_mvl/mxv
	BYTE	W03
	BYTE		        75*seq_067_mvl/mxv
	BYTE		N24     Ds2 
	BYTE	W24
	BYTE		        Cn2   v048
	BYTE	W23
	BYTE	PEND
	BYTE	W01
	BYTE		N96     Gn1   v048
	BYTE	W54
	BYTE		VOL     73*seq_067_mvl/mxv
	BYTE	W03
	BYTE		        71*seq_067_mvl/mxv
	BYTE	W03
	BYTE		        69*seq_067_mvl/mxv
	BYTE	W03
	BYTE		        66*seq_067_mvl/mxv
	BYTE	W03
	BYTE		        64*seq_067_mvl/mxv
	BYTE	W03
	BYTE		        61*seq_067_mvl/mxv
	BYTE	W03
	BYTE		        57*seq_067_mvl/mxv
	BYTE	W03
	BYTE		        54*seq_067_mvl/mxv
	BYTE	W03
	BYTE		        49*seq_067_mvl/mxv
	BYTE	W03
	BYTE		        45*seq_067_mvl/mxv
	BYTE	W03
	BYTE		        40*seq_067_mvl/mxv
	BYTE	W03
	BYTE		        36*seq_067_mvl/mxv
	BYTE	W03
	BYTE		        30*seq_067_mvl/mxv
	BYTE	W03
	BYTE		        25*seq_067_mvl/mxv
	BYTE	W02
	BYTE	PEND
	BYTE	W01
	BYTE		VOL     75*seq_067_mvl/mxv
	BYTE		N48     Cn2   v052
	BYTE	W42
	BYTE		VOL     69*seq_067_mvl/mxv
	BYTE	W03
	BYTE		        65*seq_067_mvl/mxv
	BYTE	W03
	BYTE		        75*seq_067_mvl/mxv
	BYTE		N48     Bn1   v048
	BYTE	W42
	BYTE		VOL     69*seq_067_mvl/mxv
	BYTE	W03
	BYTE		        66*seq_067_mvl/mxv
	BYTE	W02
	BYTE	PEND
	BYTE	W01
	BYTE		VOL     75*seq_067_mvl/mxv
	BYTE		N48     An1   v056
	BYTE	W36
	BYTE	W03
	BYTE		VOL     71*seq_067_mvl/mxv
	BYTE	W03
	BYTE		        66*seq_067_mvl/mxv
	BYTE	W03
	BYTE		        60*seq_067_mvl/mxv
	BYTE	W03
	BYTE		        75*seq_067_mvl/mxv
	BYTE		N48     Gn1 
	BYTE	W36
	BYTE	W03
	BYTE		VOL     71*seq_067_mvl/mxv
	BYTE	W03
	BYTE		        65*seq_067_mvl/mxv
	BYTE	W03
	BYTE		        58*seq_067_mvl/mxv
	BYTE	W02
	BYTE	PEND
	BYTE	W01
	BYTE		        75*seq_067_mvl/mxv
	BYTE		N48     Fn1   v052
	BYTE	W42
	BYTE		VOL     66*seq_067_mvl/mxv
	BYTE	W03
	BYTE		        53*seq_067_mvl/mxv
	BYTE	W03
	BYTE		        75*seq_067_mvl/mxv
	BYTE		N48     Fs1   v056
	BYTE	W42
	BYTE		VOL     73*seq_067_mvl/mxv
	BYTE	W03
	BYTE		        70*seq_067_mvl/mxv
	BYTE	W02
	BYTE	W01
	BYTE		VOL     75*seq_067_mvl/mxv
	BYTE		N96     Gn1   v052
	BYTE	W54
	BYTE		VOL     73*seq_067_mvl/mxv
	BYTE	W03
	BYTE		        71*seq_067_mvl/mxv
	BYTE	W03
	BYTE		        69*seq_067_mvl/mxv
	BYTE	W03
	BYTE		        66*seq_067_mvl/mxv
	BYTE	W03
	BYTE		        64*seq_067_mvl/mxv
	BYTE	W03
	BYTE		        61*seq_067_mvl/mxv
	BYTE	W03
	BYTE		        57*seq_067_mvl/mxv
	BYTE	W03
	BYTE		        54*seq_067_mvl/mxv
	BYTE	W03
	BYTE		        49*seq_067_mvl/mxv
	BYTE	W03
	BYTE		        45*seq_067_mvl/mxv
	BYTE	W03
	BYTE		        40*seq_067_mvl/mxv
	BYTE	W03
	BYTE		        36*seq_067_mvl/mxv
	BYTE	W03
	BYTE		        30*seq_067_mvl/mxv
	BYTE	W03
	BYTE		        25*seq_067_mvl/mxv
	BYTE	W02
	BYTE	PEND
	BYTE	PATT
	 POIN2	seq_067_9 + 0x16E
	BYTE	W32
	BYTE	W02
	BYTE		VOL     73*seq_067_mvl/mxv
	BYTE	W03
	BYTE		        70*seq_067_mvl/mxv
	BYTE	W03
	BYTE		        66*seq_067_mvl/mxv
	BYTE	W03
	BYTE		        62*seq_067_mvl/mxv
	BYTE	W06
	BYTE	PEND
	BYTE		EOT     An1 
	BYTE		VOL     75*seq_067_mvl/mxv
	BYTE		N48     Cs2   v048
	BYTE	W42
	BYTE		VOL     69*seq_067_mvl/mxv
	BYTE	W03
	BYTE		        66*seq_067_mvl/mxv
	BYTE	W02
	BYTE	W01
	BYTE		VOL     75*seq_067_mvl/mxv
	BYTE		N48     Dn2   v048
	BYTE	W42
	BYTE		VOL     69*seq_067_mvl/mxv
	BYTE	W03
	BYTE		        66*seq_067_mvl/mxv
	BYTE	W03
	BYTE		        75*seq_067_mvl/mxv
	BYTE		N48     An1 
	BYTE	W36
	BYTE	W03
	BYTE		VOL     71*seq_067_mvl/mxv
	BYTE	W03
	BYTE		        66*seq_067_mvl/mxv
	BYTE	W03
	BYTE		        60*seq_067_mvl/mxv
	BYTE	W02
	BYTE	PEND
	BYTE	PATT
	 POIN2	seq_067_9 + 0x1BF
	BYTE	W01
	BYTE		VOL     75*seq_067_mvl/mxv
	BYTE		N48     Cn2   v052
	BYTE	W42
	BYTE		VOL     69*seq_067_mvl/mxv
	BYTE	W03
	BYTE		        64*seq_067_mvl/mxv
	BYTE	W03
	BYTE		        75*seq_067_mvl/mxv
	BYTE		N48     Bn1   v048
	BYTE	W42
	BYTE		VOL     69*seq_067_mvl/mxv
	BYTE	W03
	BYTE		        66*seq_067_mvl/mxv
	BYTE	W02
	BYTE	PEND
	BYTE	W01
	BYTE		        75*seq_067_mvl/mxv
	BYTE		N48     An1   v056
	BYTE	W48
	BYTE		        Gs1 
	BYTE	W06
	BYTE		VOL     73*seq_067_mvl/mxv
	BYTE	W03
	BYTE		        71*seq_067_mvl/mxv
	BYTE	W03
	BYTE		        69*seq_067_mvl/mxv
	BYTE	W03
	BYTE		        66*seq_067_mvl/mxv
	BYTE	W03
	BYTE		        64*seq_067_mvl/mxv
	BYTE	W03
	BYTE		        61*seq_067_mvl/mxv
	BYTE	W03
	BYTE		        57*seq_067_mvl/mxv
	BYTE	W03
	BYTE		        54*seq_067_mvl/mxv
	BYTE	W03
	BYTE		        49*seq_067_mvl/mxv
	BYTE	W03
	BYTE		        45*seq_067_mvl/mxv
	BYTE	W03
	BYTE		        40*seq_067_mvl/mxv
	BYTE	W03
	BYTE		        36*seq_067_mvl/mxv
	BYTE	W03
	BYTE		        30*seq_067_mvl/mxv
	BYTE	W03
	BYTE		        25*seq_067_mvl/mxv
	BYTE	W02
	BYTE	W01
	BYTE		        75*seq_067_mvl/mxv
	BYTE		N48     Fn1   v052
	BYTE	W42
	BYTE		VOL     69*seq_067_mvl/mxv
	BYTE	W03
	BYTE		        66*seq_067_mvl/mxv
	BYTE	W03
	BYTE		        75*seq_067_mvl/mxv
	BYTE		N48     Fs1   v056
	BYTE	W36
	BYTE	W03
	BYTE		VOL     71*seq_067_mvl/mxv
	BYTE	W03
	BYTE		        66*seq_067_mvl/mxv
	BYTE	W03
	BYTE		        60*seq_067_mvl/mxv
	BYTE	W02
	BYTE	PATT
	 POIN2	seq_067_9 + 0x2F8
	BYTE	PATT
	 POIN2	seq_067_9 + 0x16E
	BYTE	W28
	BYTE		VOL     76*seq_067_mvl/mxv
	BYTE	W06
	BYTE		        73*seq_067_mvl/mxv
	BYTE	W03
	BYTE		        70*seq_067_mvl/mxv
	BYTE	W03
	BYTE		        66*seq_067_mvl/mxv
	BYTE	W03
	BYTE		        62*seq_067_mvl/mxv
	BYTE	W06
	BYTE		EOT     An1 
	BYTE		VOL     75*seq_067_mvl/mxv
	BYTE		N48     Cs2   v048
	BYTE	W42
	BYTE		VOL     69*seq_067_mvl/mxv
	BYTE	W03
	BYTE		        66*seq_067_mvl/mxv
	BYTE	W02
	BYTE	W01
	BYTE		VOL     75*seq_067_mvl/mxv
	BYTE		N48     Dn2   v048
	BYTE	W42
	BYTE		VOL     69*seq_067_mvl/mxv
	BYTE	W03
	BYTE		        66*seq_067_mvl/mxv
	BYTE	W03
	BYTE		        75*seq_067_mvl/mxv
	BYTE		N44     An1 
	BYTE	W36
	BYTE	W03
	BYTE		VOL     71*seq_067_mvl/mxv
	BYTE	W03
	BYTE		        66*seq_067_mvl/mxv
	BYTE	W03
	BYTE		        60*seq_067_mvl/mxv
	BYTE	W02
	BYTE	PEND
	BYTE	PATT
	 POIN2	seq_067_9 + 0x1BF
	BYTE	W01
	BYTE		VOL     75*seq_067_mvl/mxv
	BYTE		N48     Fn1   v052
	BYTE	W42
	BYTE		VOL     69*seq_067_mvl/mxv
	BYTE	W03
	BYTE		        64*seq_067_mvl/mxv
	BYTE	W03
	BYTE		        75*seq_067_mvl/mxv
	BYTE		N48     Gn1   v048
	BYTE	W42
	BYTE		VOL     69*seq_067_mvl/mxv
	BYTE	W03
	BYTE		        66*seq_067_mvl/mxv
	BYTE	W02
	BYTE	PATT
	 POIN2	seq_067_9 + 0x1F8
	BYTE	W01
	BYTE		VOL     75*seq_067_mvl/mxv
	BYTE		N48     As1   v052
	BYTE	W42
	BYTE		VOL     69*seq_067_mvl/mxv
	BYTE	W03
	BYTE		        66*seq_067_mvl/mxv
	BYTE	W03
	BYTE		        75*seq_067_mvl/mxv
	BYTE		N48     An1   v056
	BYTE	W36
	BYTE	W03
	BYTE		VOL     71*seq_067_mvl/mxv
	BYTE	W03
	BYTE		        66*seq_067_mvl/mxv
	BYTE	W03
	BYTE		        60*seq_067_mvl/mxv
	BYTE	W02
	BYTE	PEND
	BYTE	PATT
	 POIN2	seq_067_9 + 0x234
	BYTE	W01
	BYTE		VOL     75*seq_067_mvl/mxv
	BYTE		N96     Ds2   v048
	BYTE	W42
	BYTE		VOL     74*seq_067_mvl/mxv
	BYTE	W12
	BYTE		        73*seq_067_mvl/mxv
	BYTE	W06
	BYTE		        71*seq_067_mvl/mxv
	BYTE	W06
	BYTE		        67*seq_067_mvl/mxv
	BYTE	W06
	BYTE		        63*seq_067_mvl/mxv
	BYTE	W06
	BYTE		        57*seq_067_mvl/mxv
	BYTE	W06
	BYTE		        52*seq_067_mvl/mxv
	BYTE	W06
	BYTE		        44*seq_067_mvl/mxv
	BYTE	W05
	BYTE	PATT
	 POIN2	seq_067_9 + 0x260
	BYTE	PATT
	 POIN2	seq_067_9 + 0x279
	BYTE	PATT
	 POIN2	seq_067_9 + 0x28D
	BYTE	PATT
	 POIN2	seq_067_9 + 0x2B0
	BYTE	PATT
	 POIN2	seq_067_9 + 0x2C7
	BYTE	W01
	BYTE		VOL     75*seq_067_mvl/mxv
	BYTE		N48     Fn1   v052
	BYTE	W42
	BYTE		VOL     69*seq_067_mvl/mxv
	BYTE	W03
	BYTE		        66*seq_067_mvl/mxv
	BYTE	W03
	BYTE		        75*seq_067_mvl/mxv
	BYTE		N48     Fs1   v056
	BYTE	W42
	BYTE		VOL     73*seq_067_mvl/mxv
	BYTE	W03
	BYTE		        70*seq_067_mvl/mxv
	BYTE	W02
	BYTE	PATT
	 POIN2	seq_067_9 + 0x2F8
	BYTE	PATT
	 POIN2	seq_067_9 + 0x16E
	BYTE	PATT
	 POIN2	seq_067_9 + 0x322
	BYTE		EOT     An1 
	BYTE		VOL     75*seq_067_mvl/mxv
	BYTE		N48     Cs2   v048
	BYTE	W42
	BYTE		VOL     69*seq_067_mvl/mxv
	BYTE	W03
	BYTE		        66*seq_067_mvl/mxv
	BYTE	W02
	BYTE	PATT
	 POIN2	seq_067_9 + 0x33B
	BYTE	PATT
	 POIN2	seq_067_9 + 0x1BF
	BYTE	PATT
	 POIN2	seq_067_9 + 0x359
	BYTE	W01
	BYTE		VOL     75*seq_067_mvl/mxv
	BYTE		N44     An1   v056
	BYTE	W42
	BYTE		VOL     69*seq_067_mvl/mxv
	BYTE	W03
	BYTE		        62*seq_067_mvl/mxv
	BYTE	W03
	BYTE		        75*seq_067_mvl/mxv
	BYTE		N48     Gs1 
	BYTE	W06
	BYTE		VOL     73*seq_067_mvl/mxv
	BYTE	W03
	BYTE		        71*seq_067_mvl/mxv
	BYTE	W03
	BYTE		        69*seq_067_mvl/mxv
	BYTE	W03
	BYTE		        66*seq_067_mvl/mxv
	BYTE	W03
	BYTE		        64*seq_067_mvl/mxv
	BYTE	W03
	BYTE		        61*seq_067_mvl/mxv
	BYTE	W03
	BYTE		        57*seq_067_mvl/mxv
	BYTE	W03
	BYTE		        54*seq_067_mvl/mxv
	BYTE	W03
	BYTE		        49*seq_067_mvl/mxv
	BYTE	W03
	BYTE		        45*seq_067_mvl/mxv
	BYTE	W03
	BYTE		        40*seq_067_mvl/mxv
	BYTE	W03
	BYTE		        36*seq_067_mvl/mxv
	BYTE	W03
	BYTE		        30*seq_067_mvl/mxv
	BYTE	W03
	BYTE		        25*seq_067_mvl/mxv
	BYTE	W02
	BYTE	W01
	BYTE		        75*seq_067_mvl/mxv
	BYTE		N48     Fn1   v052
	BYTE	W42
	BYTE		VOL     69*seq_067_mvl/mxv
	BYTE	W03
	BYTE		        66*seq_067_mvl/mxv
	BYTE	W03
	BYTE		        75*seq_067_mvl/mxv
	BYTE		N44     Fs1   v056
	BYTE	W36
	BYTE	W03
	BYTE		VOL     69*seq_067_mvl/mxv
	BYTE	W03
	BYTE		        62*seq_067_mvl/mxv
	BYTE	W03
	BYTE		        58*seq_067_mvl/mxv
	BYTE	W02
	BYTE	W01
	BYTE		        75*seq_067_mvl/mxv
	BYTE		N96     Gn1   v052
	BYTE	W42
	BYTE		VOL     69*seq_067_mvl/mxv
	BYTE	W03
	BYTE		        66*seq_067_mvl/mxv
	BYTE	W03
	BYTE		        75*seq_067_mvl/mxv
	BYTE	W42
	BYTE		        69*seq_067_mvl/mxv
	BYTE	W03
	BYTE		        66*seq_067_mvl/mxv
	BYTE	W02
	BYTE	PATT
	 POIN2	seq_067_9 + 0x16E
	BYTE	PATT
	 POIN2	seq_067_9 + 0x322
	BYTE		EOT     An1 
	BYTE		VOL     75*seq_067_mvl/mxv
	BYTE		N48     Cs2   v048
	BYTE	W42
	BYTE		VOL     69*seq_067_mvl/mxv
	BYTE	W03
	BYTE		        66*seq_067_mvl/mxv
	BYTE	W02
	BYTE	PATT
	 POIN2	seq_067_9 + 0x3D0
	BYTE	PATT
	 POIN2	seq_067_9 + 0x1BF
	BYTE	W01
	BYTE		VOL     75*seq_067_mvl/mxv
	BYTE		N44     Fn1   v052
	BYTE	W42
	BYTE		VOL     69*seq_067_mvl/mxv
	BYTE	W03
	BYTE		        64*seq_067_mvl/mxv
	BYTE	W03
	BYTE		        75*seq_067_mvl/mxv
	BYTE		N48     Gn1   v048
	BYTE	W42
	BYTE		VOL     69*seq_067_mvl/mxv
	BYTE	W03
	BYTE		        66*seq_067_mvl/mxv
	BYTE	W02
	BYTE	PATT
	 POIN2	seq_067_9 + 0x1F8
	BYTE	PATT
	 POIN2	seq_067_9 + 0x409
	BYTE	PATT
	 POIN2	seq_067_9 + 0x234
	BYTE	W01
	BYTE		VOL     75*seq_067_mvl/mxv
	BYTE		N96     Ds2   v056
	BYTE	W42
	BYTE		VOL     74*seq_067_mvl/mxv
	BYTE	W12
	BYTE		        73*seq_067_mvl/mxv
	BYTE	W06
	BYTE		        71*seq_067_mvl/mxv
	BYTE	W06
	BYTE		        67*seq_067_mvl/mxv
	BYTE	W06
	BYTE		        63*seq_067_mvl/mxv
	BYTE	W06
	BYTE		        57*seq_067_mvl/mxv
	BYTE	W06
	BYTE		        52*seq_067_mvl/mxv
	BYTE	W06
	BYTE		        44*seq_067_mvl/mxv
	BYTE	W05
	BYTE	PATT
	 POIN2	seq_067_9 + 0x260
	BYTE	W01
	BYTE		VOL     75*seq_067_mvl/mxv
	BYTE		N48     Gs1   v056
	BYTE	W48
	BYTE		        Ds2   v052
	BYTE	W44
	BYTE	W03
	BYTE	W01
	BYTE		        Cn2   v048
	BYTE	W48
	BYTE		        Gs1 
	BYTE	W44
	BYTE	W03
	BYTE	W01
	BYTE		        Gn1   v052
	BYTE	W48
	BYTE		        Dn2 
	BYTE	W30
	BYTE		VOL     71*seq_067_mvl/mxv
	BYTE	W03
	BYTE		        68*seq_067_mvl/mxv
	BYTE	W03
	BYTE		        62*seq_067_mvl/mxv
	BYTE	W03
	BYTE		        57*seq_067_mvl/mxv
	BYTE	W03
	BYTE		        51*seq_067_mvl/mxv
	BYTE	W03
	BYTE		        40*seq_067_mvl/mxv
	BYTE	W02
	BYTE	W01
	BYTE		        75*seq_067_mvl/mxv
	BYTE		N48     Bn1 
	BYTE	W48
	BYTE		        Gn1   v048
	BYTE	W44
	BYTE	W03
	BYTE	W01
	BYTE		TIE     Cn2 
	BYTE	W06
	BYTE		VOL     74*seq_067_mvl/mxv
	BYTE	W06
	BYTE		        69*seq_067_mvl/mxv
	BYTE	W06
	BYTE		        67*seq_067_mvl/mxv
	BYTE	W06
	BYTE		        66*seq_067_mvl/mxv
	BYTE	W12
	BYTE		        67*seq_067_mvl/mxv
	BYTE	W06
	BYTE		        68*seq_067_mvl/mxv
	BYTE	W06
	BYTE		        69*seq_067_mvl/mxv
	BYTE	W06
	BYTE		        71*seq_067_mvl/mxv
	BYTE	W06
	BYTE		        73*seq_067_mvl/mxv
	BYTE	W06
	BYTE		        74*seq_067_mvl/mxv
	BYTE	W12
	BYTE		        76*seq_067_mvl/mxv
	BYTE	W17
	BYTE	W24
	BYTE	W01
	BYTE		        74*seq_067_mvl/mxv
	BYTE	W06
	BYTE		        73*seq_067_mvl/mxv
	BYTE	W06
	BYTE		        71*seq_067_mvl/mxv
	BYTE	W06
	BYTE		        69*seq_067_mvl/mxv
	BYTE	W06
	BYTE		        67*seq_067_mvl/mxv
	BYTE	W06
	BYTE		        65*seq_067_mvl/mxv
	BYTE	W06
	BYTE		        62*seq_067_mvl/mxv
	BYTE	W06
	BYTE		        59*seq_067_mvl/mxv
	BYTE	W06
	BYTE		        56*seq_067_mvl/mxv
	BYTE	W06
	BYTE		        53*seq_067_mvl/mxv
	BYTE	W06
	BYTE		        50*seq_067_mvl/mxv
	BYTE	W06
	BYTE		        47*seq_067_mvl/mxv
	BYTE	W05
	BYTE	W01
	BYTE		        43*seq_067_mvl/mxv
	BYTE	W06
	BYTE		        39*seq_067_mvl/mxv
	BYTE	W06
	BYTE		        35*seq_067_mvl/mxv
	BYTE	W06
	BYTE		        30*seq_067_mvl/mxv
	BYTE	W06
	BYTE		        26*seq_067_mvl/mxv
	BYTE	W06
	BYTE		        22*seq_067_mvl/mxv
	BYTE	W06
	BYTE		        17*seq_067_mvl/mxv
	BYTE	W06
	BYTE		        13*seq_067_mvl/mxv
	BYTE	W06
	BYTE		EOT
	BYTE	W44
	BYTE	W03
	BYTE	W96
	BYTE	W54
	BYTE	FINE

//*********************** Track 11 ***********************//

seq_067_10:
	BYTE	KEYSH   seq_067_key+0
	BYTE	W03
	BYTE	W11
	BYTE		VOICE   73
	BYTE	W01
	BYTE		VOL     62*seq_067_mvl/mxv
	BYTE	W01
	BYTE		PAN     c_v+46
	BYTE	W01
	BYTE		N12     Cn2   v008
	BYTE	W12
	BYTE		        Dn2 
	BYTE	W12
	BYTE		        En2 
	BYTE	W12
	BYTE		        Gn2 
	BYTE	W12
	BYTE		        Cn3 
	BYTE	W12
	BYTE		        Dn3 
	BYTE	W12
	BYTE		        En3 
	BYTE	W10
	BYTE	W02
	BYTE		        Gn3 
	BYTE	W92
	BYTE	W02
	BYTE	W14
	BYTE		        Cn2 
	BYTE	W12
	BYTE		        Dn2 
	BYTE	W12
	BYTE		        En2 
	BYTE	W12
	BYTE		        Gn2 
	BYTE	W12
	BYTE		        Cn3 
	BYTE	W12
	BYTE		        Dn3 
	BYTE	W12
	BYTE		        En3 
	BYTE	W10
	BYTE	W02
	BYTE		        Gn3 
	BYTE	W14
	BYTE		VOL     61*seq_067_mvl/mxv
	BYTE	W02
	BYTE		        56*seq_067_mvl/mxv
	BYTE	W01
	BYTE		        51*seq_067_mvl/mxv
	BYTE	W02
	BYTE		        45*seq_067_mvl/mxv
	BYTE	W01
	BYTE		        40*seq_067_mvl/mxv
	BYTE	W02
	BYTE		        35*seq_067_mvl/mxv
	BYTE	W01
	BYTE		        30*seq_067_mvl/mxv
	BYTE	W02
	BYTE		        25*seq_067_mvl/mxv
	BYTE	W01
	BYTE		        20*seq_067_mvl/mxv
	BYTE	W02
	BYTE		        15*seq_067_mvl/mxv
	BYTE	W01
	BYTE		        12*seq_067_mvl/mxv
	BYTE	W02
	BYTE		        10*seq_067_mvl/mxv
	BYTE	W01
	BYTE		        8*seq_067_mvl/mxv
	BYTE	W02
	BYTE		        7*seq_067_mvl/mxv
	BYTE	W01
	BYTE		        6*seq_067_mvl/mxv
	BYTE	W02
	BYTE		        5*seq_067_mvl/mxv
	BYTE	W01
	BYTE		        5*seq_067_mvl/mxv
	BYTE	W02
	BYTE		        4*seq_067_mvl/mxv
	BYTE	W01
	BYTE		        3*seq_067_mvl/mxv
	BYTE	W02
	BYTE		        3*seq_067_mvl/mxv
	BYTE	W01
	BYTE		        1*seq_067_mvl/mxv
	BYTE	W02
	BYTE		        1*seq_067_mvl/mxv
	BYTE	W01
	BYTE		        0*seq_067_mvl/mxv
	BYTE	W02
	BYTE		        0*seq_067_mvl/mxv
	BYTE	W09
	BYTE		        62*seq_067_mvl/mxv
	BYTE	W36
	BYTE	W96
	BYTE	W96
	BYTE	W96
	BYTE	W96
	BYTE	W96
	BYTE	W96
	BYTE	W96
	BYTE	W48
	BYTE		VOICE   74
	BYTE	W01
	BYTE		VOL     75*seq_067_mvl/mxv
	BYTE	W01
	BYTE		PAN     c_v+6
	BYTE	W22
	BYTE		BEND    c_v+0
	BYTE	W22
	BYTE	W02
	BYTE		VOL     75*seq_067_mvl/mxv
	BYTE		N24     Gn1   v080
	BYTE	W24
	BYTE		        Cn2   v076
	BYTE	W24
	BYTE		        Dn2   v084
	BYTE	W24
	BYTE		        Gn1   v080
	BYTE	W24
	BYTE		N48     Fn2   v084
	BYTE	W36
	BYTE	W03
	BYTE		VOL     72*seq_067_mvl/mxv
	BYTE	W03
	BYTE		        70*seq_067_mvl/mxv
	BYTE	W03
	BYTE		        68*seq_067_mvl/mxv
	BYTE	W03
	BYTE		        75*seq_067_mvl/mxv
	BYTE		N24     En2 
	BYTE	W24
	BYTE		        Dn2   v080
	BYTE	W24
	BYTE		        Cn2 
	BYTE	W24
	BYTE		N12     Bn1   v084
	BYTE	W12
	BYTE		        Cn2 
	BYTE	W12
	BYTE		N24     Dn2 
	BYTE	W24
	BYTE		N23     Cn2   v080
	BYTE	W24
	BYTE		N48     Cn2   v084
	BYTE	W36
	BYTE	W03
	BYTE		VOL     73*seq_067_mvl/mxv
	BYTE	W03
	BYTE		        72*seq_067_mvl/mxv
	BYTE	W03
	BYTE		        68*seq_067_mvl/mxv
	BYTE	W03
	BYTE		        75*seq_067_mvl/mxv
	BYTE		N44     Bn1   v076
	BYTE	W36
	BYTE	W03
	BYTE		VOL     73*seq_067_mvl/mxv
	BYTE	W03
	BYTE		        72*seq_067_mvl/mxv
	BYTE	W03
	BYTE		        68*seq_067_mvl/mxv
	BYTE	W03
	BYTE	PEND
	BYTE		        75*seq_067_mvl/mxv
	BYTE		N24     An1   v080
	BYTE	W24
	BYTE		        Dn2   v076
	BYTE	W24
	BYTE		        En2   v080
	BYTE	W24
	BYTE		        An1   v084
	BYTE	W24
	BYTE		N48     Gn2   v084
	BYTE	W36
	BYTE	W03
	BYTE		VOL     73*seq_067_mvl/mxv
	BYTE	W03
	BYTE		        68*seq_067_mvl/mxv
	BYTE	W03
	BYTE		        62*seq_067_mvl/mxv
	BYTE	W03
	BYTE		        75*seq_067_mvl/mxv
	BYTE		N24     Fn2 
	BYTE	W24
	BYTE		        En2   v080
	BYTE	W24
	BYTE	PEND
	BYTE		N24     Dn2   v084
	BYTE	W24
	BYTE		N12     Cs2 
	BYTE	W12
	BYTE		        En2   v080
	BYTE	W12
	BYTE		N24     Dn2   v088
	BYTE	W24
	BYTE		        An1   v080
	BYTE	W24
	BYTE	PEND
	BYTE		N48     Cn2 
	BYTE	W36
	BYTE	W03
	BYTE		VOL     73*seq_067_mvl/mxv
	BYTE	W03
	BYTE		        70*seq_067_mvl/mxv
	BYTE	W03
	BYTE		        66*seq_067_mvl/mxv
	BYTE	W03
	BYTE		        75*seq_067_mvl/mxv
	BYTE		N44     Bn1   v076
	BYTE	W36
	BYTE	W03
	BYTE		VOL     71*seq_067_mvl/mxv
	BYTE	W03
	BYTE		        67*seq_067_mvl/mxv
	BYTE	W03
	BYTE		        62*seq_067_mvl/mxv
	BYTE	W03
	BYTE		        75*seq_067_mvl/mxv
	BYTE		N24     Gn1   v084
	BYTE	W24
	BYTE		        Cn2   v080
	BYTE	W24
	BYTE		        Dn2   v084
	BYTE	W24
	BYTE		        Gn1   v080
	BYTE	W24
	BYTE		N48     Fn2   v084
	BYTE	W36
	BYTE	W03
	BYTE		VOL     72*seq_067_mvl/mxv
	BYTE	W03
	BYTE		        70*seq_067_mvl/mxv
	BYTE	W03
	BYTE		        68*seq_067_mvl/mxv
	BYTE	W03
	BYTE		        75*seq_067_mvl/mxv
	BYTE		N24     En2   v088
	BYTE	W24
	BYTE		        Dn2   v080
	BYTE	W24
	BYTE		        Cn2   v076
	BYTE	W24
	BYTE		N12     Bn1   v084
	BYTE	W12
	BYTE		        Cn2 
	BYTE	W12
	BYTE		N24     Dn2 
	BYTE	W24
	BYTE		N23     Cn2   v080
	BYTE	W24
	BYTE	PATT
	 POIN2	seq_067_10 + 0xAC
	BYTE		VOL     75*seq_067_mvl/mxv
	BYTE		N22     An1   v080
	BYTE	W24
	BYTE		N24     Dn2   v076
	BYTE	W24
	BYTE		        En2   v080
	BYTE	W24
	BYTE		        An1   v084
	BYTE	W24
	BYTE	PATT
	 POIN2	seq_067_10 + 0xD4
	BYTE	PATT
	 POIN2	seq_067_10 + 0xE8
	BYTE		N48     En2   v080
	BYTE	W36
	BYTE	W03
	BYTE		VOL     73*seq_067_mvl/mxv
	BYTE	W03
	BYTE		        70*seq_067_mvl/mxv
	BYTE	W03
	BYTE		        66*seq_067_mvl/mxv
	BYTE	W03
	BYTE		        75*seq_067_mvl/mxv
	BYTE		N23     Dn2   v084
	BYTE	W24
	BYTE		N06     Dn2   v080
	BYTE	W06
	BYTE		        En2   v072
	BYTE	W06
	BYTE		        Fn2 
	BYTE	W06
	BYTE		        Gn2   v076
	BYTE	W06
	BYTE		VOL     69*seq_067_mvl/mxv
	BYTE		N68     An2   v080
	BYTE	W15
	BYTE		VOL     69*seq_067_mvl/mxv
	BYTE	W03
	BYTE		        70*seq_067_mvl/mxv
	BYTE	W03
	BYTE		        71*seq_067_mvl/mxv
	BYTE	W03
	BYTE		        72*seq_067_mvl/mxv
	BYTE	W03
	BYTE		        73*seq_067_mvl/mxv
	BYTE	W03
	BYTE		        74*seq_067_mvl/mxv
	BYTE	W03
	BYTE		        75*seq_067_mvl/mxv
	BYTE	W03
	BYTE		        77*seq_067_mvl/mxv
	BYTE	W09
	BYTE		        76*seq_067_mvl/mxv
	BYTE	W03
	BYTE		        76*seq_067_mvl/mxv
	BYTE	W03
	BYTE		        75*seq_067_mvl/mxv
	BYTE	W03
	BYTE		        74*seq_067_mvl/mxv
	BYTE	W03
	BYTE		        72*seq_067_mvl/mxv
	BYTE	W03
	BYTE		        70*seq_067_mvl/mxv
	BYTE	W03
	BYTE		        68*seq_067_mvl/mxv
	BYTE	W03
	BYTE		        66*seq_067_mvl/mxv
	BYTE	W03
	BYTE		        63*seq_067_mvl/mxv
	BYTE	W03
	BYTE		        75*seq_067_mvl/mxv
	BYTE		N24     An2   v084
	BYTE	W24
	BYTE		N68     Gn2   v080
	BYTE	W60
	BYTE		VOL     73*seq_067_mvl/mxv
	BYTE	W03
	BYTE		        72*seq_067_mvl/mxv
	BYTE	W03
	BYTE		        69*seq_067_mvl/mxv
	BYTE	W03
	BYTE		        65*seq_067_mvl/mxv
	BYTE	W03
	BYTE		        75*seq_067_mvl/mxv
	BYTE		N24     En2   v076
	BYTE	W24
	BYTE		N23     Fn2   v080
	BYTE	W24
	BYTE		N12     Fn2   v076
	BYTE	W12
	BYTE		        En2   v080
	BYTE	W12
	BYTE		N24     Dn2 
	BYTE	W24
	BYTE		        Cs2 
	BYTE	W24
	BYTE		        Dn2   v084
	BYTE	W24
	BYTE		        En2 
	BYTE	W24
	BYTE		        Fn2   v088
	BYTE	W24
	BYTE		        Gn2   v084
	BYTE	W24
	BYTE		VOL     69*seq_067_mvl/mxv
	BYTE		N68     As2 
	BYTE	W15
	BYTE		VOL     69*seq_067_mvl/mxv
	BYTE	W06
	BYTE		        70*seq_067_mvl/mxv
	BYTE	W03
	BYTE		        71*seq_067_mvl/mxv
	BYTE	W06
	BYTE		        72*seq_067_mvl/mxv
	BYTE	W03
	BYTE		        73*seq_067_mvl/mxv
	BYTE	W03
	BYTE		        74*seq_067_mvl/mxv
	BYTE	W03
	BYTE		        75*seq_067_mvl/mxv
	BYTE	W03
	BYTE		        76*seq_067_mvl/mxv
	BYTE	W03
	BYTE		        78*seq_067_mvl/mxv
	BYTE	W09
	BYTE		        77*seq_067_mvl/mxv
	BYTE	W03
	BYTE		        76*seq_067_mvl/mxv
	BYTE	W03
	BYTE		        74*seq_067_mvl/mxv
	BYTE	W03
	BYTE		        71*seq_067_mvl/mxv
	BYTE	W03
	BYTE		        67*seq_067_mvl/mxv
	BYTE	W03
	BYTE		        62*seq_067_mvl/mxv
	BYTE	W03
	BYTE		        75*seq_067_mvl/mxv
	BYTE		N24
	BYTE	W24
	BYTE		N72     An2   v080
	BYTE	W60
	BYTE		VOL     73*seq_067_mvl/mxv
	BYTE	W03
	BYTE		        72*seq_067_mvl/mxv
	BYTE	W03
	BYTE		        70*seq_067_mvl/mxv
	BYTE	W03
	BYTE		        66*seq_067_mvl/mxv
	BYTE	W03
	BYTE		        75*seq_067_mvl/mxv
	BYTE		N24     Fn2   v076
	BYTE	W24
	BYTE		N23     Gn2   v084
	BYTE	W24
	BYTE		N12
	BYTE	W12
	BYTE		        Gs2   v080
	BYTE	W12
	BYTE		N23     Gn2   v084
	BYTE	W24
	BYTE		N12
	BYTE	W12
	BYTE		N11     Gs2   v080
	BYTE	W12
	BYTE		N24     Gn2   v084
	BYTE	W24
	BYTE		        Fn2 
	BYTE	W24
	BYTE		        En2 
	BYTE	W24
	BYTE		N23     Dn2   v076
	BYTE	W24
	BYTE	W96
	BYTE	W96
	BYTE	W96
	BYTE	W96
	BYTE	W96
	BYTE	W96
	BYTE	W96
	BYTE	W96
	BYTE	W96
	BYTE	W96
	BYTE	W96
	BYTE	W96
	BYTE	W96
	BYTE	W96
	BYTE	W96
	BYTE	W96
	BYTE	W96
	BYTE	W96
	BYTE	W96
	BYTE	W96
	BYTE	W96
	BYTE	W96
	BYTE	W96
	BYTE	W05
	BYTE		VOICE   71
	BYTE		VOL     62*seq_067_mvl/mxv
	BYTE	W01
	BYTE		PAN     c_v+46
	BYTE	W76
	BYTE	W01
	BYTE		BEND    c_v+7
	BYTE	W13
	BYTE	W03
	BYTE	W02
	BYTE		N24     Ds2   v024
	BYTE	W24
	BYTE		        Gs2 
	BYTE	W24
	BYTE		        As2 
	BYTE	W24
	BYTE		        Ds2   v028
	BYTE	W19
	BYTE	W05
	BYTE		N48     Cs3   v024
	BYTE	W12
	BYTE		VOL     61*seq_067_mvl/mxv
	BYTE	W06
	BYTE		        60*seq_067_mvl/mxv
	BYTE	W06
	BYTE		        57*seq_067_mvl/mxv
	BYTE	W06
	BYTE		        52*seq_067_mvl/mxv
	BYTE	W06
	BYTE		        45*seq_067_mvl/mxv
	BYTE	W06
	BYTE		        35*seq_067_mvl/mxv
	BYTE	W06
	BYTE		        62*seq_067_mvl/mxv
	BYTE		N24     Cn3 
	BYTE	W24
	BYTE		        As2 
	BYTE	W19
	BYTE	W05
	BYTE		        Gs2 
	BYTE	W24
	BYTE		N12     Gn2 
	BYTE	W12
	BYTE		        Gs2 
	BYTE	W12
	BYTE		N24     As2 
	BYTE	W24
	BYTE		N23     Gs2 
	BYTE	W19
	BYTE	W05
	BYTE		N48     Gs2   v024
	BYTE	W12
	BYTE		VOL     61*seq_067_mvl/mxv
	BYTE	W06
	BYTE		        61*seq_067_mvl/mxv
	BYTE	W06
	BYTE		        58*seq_067_mvl/mxv
	BYTE	W06
	BYTE		        54*seq_067_mvl/mxv
	BYTE	W06
	BYTE		        49*seq_067_mvl/mxv
	BYTE	W06
	BYTE		        43*seq_067_mvl/mxv
	BYTE	W06
	BYTE		        62*seq_067_mvl/mxv
	BYTE		N48     Gn2 
	BYTE	W12
	BYTE		VOL     61*seq_067_mvl/mxv
	BYTE	W06
	BYTE		        60*seq_067_mvl/mxv
	BYTE	W06
	BYTE		        58*seq_067_mvl/mxv
	BYTE	W06
	BYTE		        55*seq_067_mvl/mxv
	BYTE	W06
	BYTE		        50*seq_067_mvl/mxv
	BYTE	W06
	BYTE		        44*seq_067_mvl/mxv
	BYTE	W01
	BYTE	PEND
	BYTE	W05
	BYTE		        62*seq_067_mvl/mxv
	BYTE		N24     Fn2 
	BYTE	W24
	BYTE		        As2 
	BYTE	W24
	BYTE		        Cn3 
	BYTE	W24
	BYTE		        Fn2 
	BYTE	W19
	BYTE	W05
	BYTE		N48     Ds3 
	BYTE	W12
	BYTE		VOL     61*seq_067_mvl/mxv
	BYTE	W06
	BYTE		        60*seq_067_mvl/mxv
	BYTE	W06
	BYTE		        57*seq_067_mvl/mxv
	BYTE	W06
	BYTE		        52*seq_067_mvl/mxv
	BYTE	W06
	BYTE		        45*seq_067_mvl/mxv
	BYTE	W06
	BYTE		        35*seq_067_mvl/mxv
	BYTE	W06
	BYTE		        62*seq_067_mvl/mxv
	BYTE		N24     Cs3 
	BYTE	W24
	BYTE		        Cn3 
	BYTE	W19
	BYTE	W05
	BYTE		        As2 
	BYTE	W24
	BYTE		N12     An2 
	BYTE	W12
	BYTE		        Cn3 
	BYTE	W12
	BYTE		N24     As2 
	BYTE	W24
	BYTE		N23     Fn2 
	BYTE	W19
	BYTE	PATT
	 POIN2	seq_067_10 + 0x28A
	BYTE	W05
	BYTE		VOL     62*seq_067_mvl/mxv
	BYTE		N24     Ds2   v024
	BYTE	W23
	BYTE		        Gs2 
	BYTE	W24
	BYTE		        As2 
	BYTE	W24
	BYTE		        Ds2   v028
	BYTE	W20
	BYTE	W04
	BYTE		N48     Cs3   v024
	BYTE	W13
	BYTE		VOL     61*seq_067_mvl/mxv
	BYTE	W06
	BYTE		        60*seq_067_mvl/mxv
	BYTE	W06
	BYTE		        57*seq_067_mvl/mxv
	BYTE	W06
	BYTE		        52*seq_067_mvl/mxv
	BYTE	W06
	BYTE		        45*seq_067_mvl/mxv
	BYTE	W06
	BYTE		        35*seq_067_mvl/mxv
	BYTE	W05
	BYTE		N24     Cn3 
	BYTE	W01
	BYTE		VOL     62*seq_067_mvl/mxv
	BYTE	W23
	BYTE		N24     As2 
	BYTE	W20
	BYTE	W04
	BYTE		        Gs2 
	BYTE	W24
	BYTE		N12     Gn2 
	BYTE	W12
	BYTE		        Gs2 
	BYTE	W12
	BYTE		N24     As2 
	BYTE	W24
	BYTE		N23     Gs2 
	BYTE	W20
	BYTE	W04
	BYTE		N48
	BYTE	W13
	BYTE		VOL     61*seq_067_mvl/mxv
	BYTE	W06
	BYTE		        61*seq_067_mvl/mxv
	BYTE	W06
	BYTE		        58*seq_067_mvl/mxv
	BYTE	W06
	BYTE		        54*seq_067_mvl/mxv
	BYTE	W06
	BYTE		        49*seq_067_mvl/mxv
	BYTE	W06
	BYTE		        43*seq_067_mvl/mxv
	BYTE	W05
	BYTE		N48     Gn2 
	BYTE	W01
	BYTE		VOL     62*seq_067_mvl/mxv
	BYTE	W12
	BYTE		        61*seq_067_mvl/mxv
	BYTE	W06
	BYTE		        60*seq_067_mvl/mxv
	BYTE	W06
	BYTE		        58*seq_067_mvl/mxv
	BYTE	W06
	BYTE		        55*seq_067_mvl/mxv
	BYTE	W06
	BYTE		        50*seq_067_mvl/mxv
	BYTE	W06
	BYTE		        44*seq_067_mvl/mxv
	BYTE	W01
	BYTE	W04
	BYTE		N24     Fn2 
	BYTE	W01
	BYTE		VOL     62*seq_067_mvl/mxv
	BYTE	W23
	BYTE		N24     As2 
	BYTE	W24
	BYTE		        Cn3 
	BYTE	W24
	BYTE		        Fn2 
	BYTE	W20
	BYTE	W04
	BYTE		N48     Ds3 
	BYTE	W13
	BYTE		VOL     61*seq_067_mvl/mxv
	BYTE	W06
	BYTE		        60*seq_067_mvl/mxv
	BYTE	W06
	BYTE		        57*seq_067_mvl/mxv
	BYTE	W06
	BYTE		        52*seq_067_mvl/mxv
	BYTE	W06
	BYTE		        45*seq_067_mvl/mxv
	BYTE	W06
	BYTE		        35*seq_067_mvl/mxv
	BYTE	W05
	BYTE		N24     Cs3 
	BYTE	W01
	BYTE		VOL     62*seq_067_mvl/mxv
	BYTE	W23
	BYTE		N24     Cn3 
	BYTE	W20
	BYTE	W04
	BYTE		        As2 
	BYTE	W24
	BYTE		N12     An2 
	BYTE	W12
	BYTE		        Cn3 
	BYTE	W12
	BYTE		N24     As2 
	BYTE	W24
	BYTE		N23     Fn2 
	BYTE	W20
	BYTE	W05
	BYTE		N48     Cn3 
	BYTE	W12
	BYTE		VOL     61*seq_067_mvl/mxv
	BYTE	W06
	BYTE		        61*seq_067_mvl/mxv
	BYTE	W06
	BYTE		        58*seq_067_mvl/mxv
	BYTE	W06
	BYTE		        54*seq_067_mvl/mxv
	BYTE	W06
	BYTE		        49*seq_067_mvl/mxv
	BYTE	W06
	BYTE		        43*seq_067_mvl/mxv
	BYTE	W06
	BYTE		        62*seq_067_mvl/mxv
	BYTE		N23     As2 
	BYTE	W24
	BYTE		N06
	BYTE	W06
	BYTE		        Cn3 
	BYTE	W06
	BYTE		        Cs3 
	BYTE	W06
	BYTE		        Ds3 
	BYTE	W01
	BYTE	W05
	BYTE		N68     Fn3 
	BYTE	W06
	BYTE		VOL     61*seq_067_mvl/mxv
	BYTE	W12
	BYTE		        59*seq_067_mvl/mxv
	BYTE	W06
	BYTE		        57*seq_067_mvl/mxv
	BYTE	W06
	BYTE		        55*seq_067_mvl/mxv
	BYTE	W06
	BYTE		        51*seq_067_mvl/mxv
	BYTE	W06
	BYTE		        47*seq_067_mvl/mxv
	BYTE	W06
	BYTE		        42*seq_067_mvl/mxv
	BYTE	W06
	BYTE		        37*seq_067_mvl/mxv
	BYTE	W06
	BYTE		        30*seq_067_mvl/mxv
	BYTE	W06
	BYTE		        23*seq_067_mvl/mxv
	BYTE	W06
	BYTE		        62*seq_067_mvl/mxv
	BYTE		N24
	BYTE	W19
	BYTE	W05
	BYTE		N72     Ds3 
	BYTE	W06
	BYTE		VOL     61*seq_067_mvl/mxv
	BYTE	W12
	BYTE		        59*seq_067_mvl/mxv
	BYTE	W06
	BYTE		        57*seq_067_mvl/mxv
	BYTE	W06
	BYTE		        55*seq_067_mvl/mxv
	BYTE	W06
	BYTE		        51*seq_067_mvl/mxv
	BYTE	W06
	BYTE		        47*seq_067_mvl/mxv
	BYTE	W06
	BYTE		        42*seq_067_mvl/mxv
	BYTE	W06
	BYTE		        37*seq_067_mvl/mxv
	BYTE	W06
	BYTE		        30*seq_067_mvl/mxv
	BYTE	W06
	BYTE		        23*seq_067_mvl/mxv
	BYTE	W06
	BYTE		        62*seq_067_mvl/mxv
	BYTE		N24     Cn3 
	BYTE	W19
	BYTE	W05
	BYTE		N23     Cs3 
	BYTE	W24
	BYTE		N12
	BYTE	W12
	BYTE		        Cn3 
	BYTE	W12
	BYTE		N24     As2 
	BYTE	W24
	BYTE		        An2 
	BYTE	W19
	BYTE	W05
	BYTE		        As2 
	BYTE	W24
	BYTE		        Cn3 
	BYTE	W24
	BYTE		        Cs3 
	BYTE	W24
	BYTE		        Ds3 
	BYTE	W19
	BYTE	W05
	BYTE		N68     Fs3 
	BYTE	W06
	BYTE		VOL     61*seq_067_mvl/mxv
	BYTE	W12
	BYTE		        59*seq_067_mvl/mxv
	BYTE	W06
	BYTE		        57*seq_067_mvl/mxv
	BYTE	W06
	BYTE		        55*seq_067_mvl/mxv
	BYTE	W06
	BYTE		        51*seq_067_mvl/mxv
	BYTE	W06
	BYTE		        47*seq_067_mvl/mxv
	BYTE	W06
	BYTE		        42*seq_067_mvl/mxv
	BYTE	W06
	BYTE		        37*seq_067_mvl/mxv
	BYTE	W06
	BYTE		        30*seq_067_mvl/mxv
	BYTE	W06
	BYTE		        23*seq_067_mvl/mxv
	BYTE	W06
	BYTE		        62*seq_067_mvl/mxv
	BYTE		N24
	BYTE	W19
	BYTE	W05
	BYTE		N72     Fn3 
	BYTE	W06
	BYTE		VOL     61*seq_067_mvl/mxv
	BYTE	W12
	BYTE		        59*seq_067_mvl/mxv
	BYTE	W06
	BYTE		        57*seq_067_mvl/mxv
	BYTE	W06
	BYTE		        55*seq_067_mvl/mxv
	BYTE	W06
	BYTE		        51*seq_067_mvl/mxv
	BYTE	W06
	BYTE		        47*seq_067_mvl/mxv
	BYTE	W06
	BYTE		        42*seq_067_mvl/mxv
	BYTE	W06
	BYTE		        37*seq_067_mvl/mxv
	BYTE	W06
	BYTE		        30*seq_067_mvl/mxv
	BYTE	W06
	BYTE		        23*seq_067_mvl/mxv
	BYTE	W06
	BYTE		        62*seq_067_mvl/mxv
	BYTE		N24     Cs3   v028
	BYTE	W19
	BYTE	W05
	BYTE		N23     Ds3   v020
	BYTE	W24
	BYTE		N12
	BYTE	W12
	BYTE		        En3   v024
	BYTE	W12
	BYTE		N23     Ds3   v020
	BYTE	W24
	BYTE		N12     Ds3   v024
	BYTE	W12
	BYTE		        En3 
	BYTE	W07
	BYTE	W05
	BYTE		N24     Ds3 
	BYTE	W24
	BYTE		        Cs3 
	BYTE	W24
	BYTE		        Bn2 
	BYTE	W24
	BYTE		        Cs3   v020
	BYTE	W19
	BYTE	W05
	BYTE		VOL     62*seq_067_mvl/mxv
	BYTE		TIE     Ds3 
	BYTE	W12
	BYTE		VOL     61*seq_067_mvl/mxv
	BYTE	W06
	BYTE		        59*seq_067_mvl/mxv
	BYTE	W06
	BYTE		        57*seq_067_mvl/mxv
	BYTE	W06
	BYTE		        55*seq_067_mvl/mxv
	BYTE	W06
	BYTE		        52*seq_067_mvl/mxv
	BYTE	W06
	BYTE		        48*seq_067_mvl/mxv
	BYTE	W06
	BYTE		        44*seq_067_mvl/mxv
	BYTE	W06
	BYTE		        39*seq_067_mvl/mxv
	BYTE	W06
	BYTE		        33*seq_067_mvl/mxv
	BYTE	W06
	BYTE		        27*seq_067_mvl/mxv
	BYTE	W06
	BYTE		        20*seq_067_mvl/mxv
	BYTE	W06
	BYTE		        12*seq_067_mvl/mxv
	BYTE	W06
	BYTE		        6*seq_067_mvl/mxv
	BYTE	W06
	BYTE		        3*seq_067_mvl/mxv
	BYTE	W01
	BYTE	W17
	BYTE		EOT
	BYTE	W06
	BYTE		VOL     62*seq_067_mvl/mxv
	BYTE	W06
	BYTE		N24
	BYTE	W24
	BYTE		        Fn3 
	BYTE	W24
	BYTE		        Gn3 
	BYTE	W19
	BYTE	W05
	BYTE		TIE     Gs3 
	BYTE	W06
	BYTE		VOL     61*seq_067_mvl/mxv
	BYTE	W12
	BYTE		        61*seq_067_mvl/mxv
	BYTE	W06
	BYTE		        60*seq_067_mvl/mxv
	BYTE	W06
	BYTE		        58*seq_067_mvl/mxv
	BYTE	W06
	BYTE		        57*seq_067_mvl/mxv
	BYTE	W06
	BYTE		        55*seq_067_mvl/mxv
	BYTE	W06
	BYTE		        53*seq_067_mvl/mxv
	BYTE	W06
	BYTE		        50*seq_067_mvl/mxv
	BYTE	W06
	BYTE		        47*seq_067_mvl/mxv
	BYTE	W06
	BYTE		        44*seq_067_mvl/mxv
	BYTE	W06
	BYTE		        41*seq_067_mvl/mxv
	BYTE	W06
	BYTE		        37*seq_067_mvl/mxv
	BYTE	W06
	BYTE		        33*seq_067_mvl/mxv
	BYTE	W06
	BYTE		        28*seq_067_mvl/mxv
	BYTE	W01
	BYTE	W05
	BYTE		        23*seq_067_mvl/mxv
	BYTE	W06
	BYTE		        18*seq_067_mvl/mxv
	BYTE	W06
	BYTE		        12*seq_067_mvl/mxv
	BYTE	W06
	BYTE		        6*seq_067_mvl/mxv
	BYTE	W18
	BYTE		EOT
	BYTE	W54
	BYTE	W01
	BYTE	W96
	BYTE	W96
	BYTE	W54
	BYTE	FINE

//*********************** Track 12 ***********************//

seq_067_11:
	BYTE	KEYSH   seq_067_key+0
	BYTE	W03
	BYTE	W01
	BYTE		VOICE   70
	BYTE	W01
	BYTE		VOL     62*seq_067_mvl/mxv
	BYTE	W01
	BYTE		PAN     c_v+63
	BYTE	W92
	BYTE	W01
	BYTE	W96
	BYTE	W96
	BYTE	W96
	BYTE	W07
	BYTE		N24     Gn3   v016
	BYTE	W24
	BYTE		        Cn4 
	BYTE	W24
	BYTE		        Dn4   v012
	BYTE	W24
	BYTE		        Gn3   v016
	BYTE	W17
	BYTE	W07
	BYTE		N48     Fn4   v012
	BYTE	W23
	BYTE		VOL     62*seq_067_mvl/mxv
	BYTE	W03
	BYTE		        61*seq_067_mvl/mxv
	BYTE	W03
	BYTE		        61*seq_067_mvl/mxv
	BYTE	W03
	BYTE		        59*seq_067_mvl/mxv
	BYTE	W03
	BYTE		        56*seq_067_mvl/mxv
	BYTE	W03
	BYTE		        53*seq_067_mvl/mxv
	BYTE	W03
	BYTE		        49*seq_067_mvl/mxv
	BYTE	W03
	BYTE		        44*seq_067_mvl/mxv
	BYTE	W04
	BYTE		        62*seq_067_mvl/mxv
	BYTE		N24     En4 
	BYTE	W24
	BYTE		        Dn4 
	BYTE	W17
	BYTE	W07
	BYTE		        Cn4   v016
	BYTE	W24
	BYTE		N12     Bn3 
	BYTE	W12
	BYTE		        Cn4 
	BYTE	W12
	BYTE		N24     Dn4   v012
	BYTE	W24
	BYTE		N23     Cn4   v016
	BYTE	W17
	BYTE	W07
	BYTE		N48
	BYTE	W23
	BYTE		VOL     61*seq_067_mvl/mxv
	BYTE	W03
	BYTE		        61*seq_067_mvl/mxv
	BYTE	W03
	BYTE		        59*seq_067_mvl/mxv
	BYTE	W03
	BYTE		        57*seq_067_mvl/mxv
	BYTE	W03
	BYTE		        54*seq_067_mvl/mxv
	BYTE	W03
	BYTE		        49*seq_067_mvl/mxv
	BYTE	W03
	BYTE		        44*seq_067_mvl/mxv
	BYTE	W03
	BYTE		        38*seq_067_mvl/mxv
	BYTE	W04
	BYTE		        62*seq_067_mvl/mxv
	BYTE		N48     Bn3 
	BYTE	W23
	BYTE		VOL     61*seq_067_mvl/mxv
	BYTE	W03
	BYTE		        61*seq_067_mvl/mxv
	BYTE	W03
	BYTE		        59*seq_067_mvl/mxv
	BYTE	W03
	BYTE		        57*seq_067_mvl/mxv
	BYTE	W03
	BYTE		        54*seq_067_mvl/mxv
	BYTE	W03
	BYTE		        49*seq_067_mvl/mxv
	BYTE	W03
	BYTE		        44*seq_067_mvl/mxv
	BYTE	W03
	BYTE		        38*seq_067_mvl/mxv
	BYTE	W04
	BYTE		        62*seq_067_mvl/mxv
	BYTE		N24     An3 
	BYTE	W24
	BYTE		        Dn4   v012
	BYTE	W24
	BYTE		        En4 
	BYTE	W24
	BYTE		        An3   v016
	BYTE	W17
	BYTE	W07
	BYTE		VOL     62*seq_067_mvl/mxv
	BYTE		N48     Gn4   v012
	BYTE	W23
	BYTE		VOL     61*seq_067_mvl/mxv
	BYTE	W03
	BYTE		        61*seq_067_mvl/mxv
	BYTE	W03
	BYTE		        59*seq_067_mvl/mxv
	BYTE	W03
	BYTE		        57*seq_067_mvl/mxv
	BYTE	W03
	BYTE		        54*seq_067_mvl/mxv
	BYTE	W03
	BYTE		        49*seq_067_mvl/mxv
	BYTE	W03
	BYTE		        44*seq_067_mvl/mxv
	BYTE	W03
	BYTE		        38*seq_067_mvl/mxv
	BYTE	W04
	BYTE		        62*seq_067_mvl/mxv
	BYTE		N24     Fn4 
	BYTE	W24
	BYTE		        En4 
	BYTE	W17
	BYTE	W07
	BYTE		        Dn4 
	BYTE	W24
	BYTE		N12     Cs4 
	BYTE	W12
	BYTE		        En4 
	BYTE	W12
	BYTE		N24     Dn4 
	BYTE	W24
	BYTE		N23     An3   v016
	BYTE	W17
	BYTE	W07
	BYTE		VOL     62*seq_067_mvl/mxv
	BYTE		N48     En4   v012
	BYTE	W23
	BYTE		VOL     61*seq_067_mvl/mxv
	BYTE	W03
	BYTE		        61*seq_067_mvl/mxv
	BYTE	W03
	BYTE		        59*seq_067_mvl/mxv
	BYTE	W03
	BYTE		        57*seq_067_mvl/mxv
	BYTE	W03
	BYTE		        54*seq_067_mvl/mxv
	BYTE	W03
	BYTE		        49*seq_067_mvl/mxv
	BYTE	W03
	BYTE		        44*seq_067_mvl/mxv
	BYTE	W03
	BYTE		        38*seq_067_mvl/mxv
	BYTE	W04
	BYTE		        62*seq_067_mvl/mxv
	BYTE		N48     Dn4 
	BYTE	W03
	BYTE		VOL     61*seq_067_mvl/mxv
	BYTE	W03
	BYTE		        58*seq_067_mvl/mxv
	BYTE	W03
	BYTE		        55*seq_067_mvl/mxv
	BYTE	W03
	BYTE		        52*seq_067_mvl/mxv
	BYTE	W03
	BYTE		        49*seq_067_mvl/mxv
	BYTE	W03
	BYTE		        45*seq_067_mvl/mxv
	BYTE	W03
	BYTE		        42*seq_067_mvl/mxv
	BYTE	W03
	BYTE		        39*seq_067_mvl/mxv
	BYTE	W03
	BYTE		        36*seq_067_mvl/mxv
	BYTE	W03
	BYTE		        33*seq_067_mvl/mxv
	BYTE	W03
	BYTE		        30*seq_067_mvl/mxv
	BYTE	W03
	BYTE		        27*seq_067_mvl/mxv
	BYTE	W03
	BYTE		        23*seq_067_mvl/mxv
	BYTE	W02
	BYTE	W01
	BYTE		        20*seq_067_mvl/mxv
	BYTE	W05
	BYTE	W90
	BYTE	W96
	BYTE	W96
	BYTE	W96
	BYTE	W96
	BYTE	W96
	BYTE	W96
	BYTE	W96
	BYTE	W96
	BYTE	W96
	BYTE	W96
	BYTE	W96
	BYTE	W96
	BYTE	W96
	BYTE	W96
	BYTE	W96
	BYTE	W96
	BYTE	W96
	BYTE	W96
	BYTE	W96
	BYTE	W96
	BYTE	W96
	BYTE	W96
	BYTE	W96
	BYTE	W96
	BYTE	W96
	BYTE	W96
	BYTE	W96
	BYTE	W96
	BYTE	W96
	BYTE	W96
	BYTE	W96
	BYTE	W96
	BYTE	W96
	BYTE	W96
	BYTE	W96
	BYTE	W96
	BYTE	W96
	BYTE	W96
	BYTE	W96
	BYTE	W96
	BYTE	W96
	BYTE	W96
	BYTE	W96
	BYTE	W96
	BYTE	W96
	BYTE	W96
	BYTE	W96
	BYTE	W96
	BYTE	W96
	BYTE	W96
	BYTE	W96
	BYTE	W96
	BYTE	W96
	BYTE	W96
	BYTE	W96
	BYTE	W96
	BYTE	W96
	BYTE	W96
	BYTE	W96
	BYTE	W96
	BYTE	W96
	BYTE	W96
	BYTE	W96
	BYTE	W96
	BYTE	W96
	BYTE	W96
	BYTE	W96
	BYTE	W96
	BYTE	W96
	BYTE	W96
	BYTE	W96
	BYTE	W96
	BYTE	W60
	BYTE	W02
	BYTE		VOICE   54
	BYTE	W01
	BYTE		PAN     c_v+46
	BYTE	W01
	BYTE	W28
	BYTE		VOL     62*seq_067_mvl/mxv
	BYTE	W04
	BYTE	W12
	BYTE		N12     Cn2 
	BYTE	W11
	BYTE		        Dn2 
	BYTE	W12
	BYTE		        En2 
	BYTE	W12
	BYTE		        Gn2 
	BYTE	W12
	BYTE		        Cn3 
	BYTE	W12
	BYTE		        Dn3 
	BYTE	W12
	BYTE		        En3 
	BYTE	W12
	BYTE		        Gn3 
	BYTE	W01
	BYTE	W11
	BYTE		N12     Cn4   v012
	BYTE	W12
	BYTE		        Gn3 
	BYTE	W12
	BYTE		        En3 
	BYTE	W12
	BYTE		        Dn3 
	BYTE	W12
	BYTE		        Cn3 
	BYTE	W12
	BYTE		        Gn2 
	BYTE	W12
	BYTE		        En2 
	BYTE	W12
	BYTE		        Dn2 
	BYTE	W01
	BYTE	PEND
	BYTE	W11
	BYTE		        Cn2 
	BYTE	W12
	BYTE		        Dn2 
	BYTE	W12
	BYTE		        En2 
	BYTE	W12
	BYTE		        Gn2 
	BYTE	W12
	BYTE		        Cn3 
	BYTE	W12
	BYTE		        Dn3 
	BYTE	W12
	BYTE		        En3 
	BYTE	W12
	BYTE		        Gn3 
	BYTE	W01
	BYTE	PATT
	 POIN2	seq_067_11 + 0x14E
	BYTE	W54
	BYTE	FINE

//******************************************************//

	ALIGN 4

seq_067:
	BYTE	12	// NumTrks
	BYTE	0	// NumBlks
	BYTE	seq_067_pri	// Priority
	BYTE	seq_067_rev	// Reverb

	POIN2	seq_067_grp

	POIN2	seq_067_0
	POIN2	seq_067_1
	POIN2	seq_067_2
	POIN2	seq_067_3
	POIN2	seq_067_4
	POIN2	seq_067_5
	POIN2	seq_067_6
	POIN2	seq_067_7
	POIN2	seq_067_8
	POIN2	seq_067_9
	POIN2	seq_067_10
	POIN2	seq_067_11

	
