//Event file generated from Sappy .s format.
// File generated by m4a2s Song-Module
	#include "MPlayDef.event"

	#define	seq_065_grp  bank_000
	#define	seq_065_pri  10
	#define	seq_065_rev  0
	#define	seq_065_mvl  127
	#define	seq_065_key  0

	// .rodata
	//	seq_065
	ALIGN 4

//*********************** Track 01 ***********************//

seq_065_0:
	BYTE	KEYSH   seq_065_key+0
	BYTE	TEMPO   150/2
	BYTE		VOICE   54
	BYTE	W01
	BYTE		PAN     c_v+21
	BYTE		VOL     70*seq_065_mvl/mxv
	BYTE	W01
	BYTE	W01
	BYTE	TEMPO   148/2
	BYTE		N24     En3   v076
	BYTE	W24
	BYTE		        Bn2   v072
	BYTE	W24
	BYTE		        Cn3   v076
	BYTE	W24
	BYTE		        An2   v072
	BYTE	W24
	BYTE	PEND
	BYTE		N24     En2   v084
	BYTE	W24
	BYTE		        Bn1   v080
	BYTE	W24
	BYTE		        Cn2   v084
	BYTE	W24
	BYTE		        An1   v080
	BYTE	W24
	BYTE	PEND
	BYTE		N48     En1   v072
	BYTE	W24
	BYTE		VOL     67*seq_065_mvl/mxv
	BYTE	W03
	BYTE		        65*seq_065_mvl/mxv
	BYTE	W03
	BYTE		        61*seq_065_mvl/mxv
	BYTE	W03
	BYTE		        55*seq_065_mvl/mxv
	BYTE	W03
	BYTE		        45*seq_065_mvl/mxv
	BYTE	W03
	BYTE		        32*seq_065_mvl/mxv
	BYTE	W03
	BYTE		        17*seq_065_mvl/mxv
	BYTE	W03
	BYTE		        9*seq_065_mvl/mxv
	BYTE	W48
	BYTE	W03
	BYTE		        70*seq_065_mvl/mxv
	BYTE	W96
	BYTE		N24     En3   v076
	BYTE	W24
	BYTE		        Bn2   v072
	BYTE	W24
	BYTE		        Cn3   v076
	BYTE	W24
	BYTE		        An2   v072
	BYTE	W24
	BYTE	PEND
	BYTE	PATT
	 POIN2	seq_065_0 + 0x1D
	BYTE		N48     En1   v080
	BYTE	W24
	BYTE		VOL     67*seq_065_mvl/mxv
	BYTE	W03
	BYTE		        65*seq_065_mvl/mxv
	BYTE	W03
	BYTE		        61*seq_065_mvl/mxv
	BYTE	W03
	BYTE		        55*seq_065_mvl/mxv
	BYTE	W03
	BYTE		        45*seq_065_mvl/mxv
	BYTE	W03
	BYTE		        32*seq_065_mvl/mxv
	BYTE	W03
	BYTE		        17*seq_065_mvl/mxv
	BYTE	W03
	BYTE		        9*seq_065_mvl/mxv
	BYTE	W48
	BYTE	W03
	BYTE	PEND
	BYTE		        70*seq_065_mvl/mxv
	BYTE	W96
	BYTE		N24     An3   v072
	BYTE	W24
	BYTE		        En3   v068
	BYTE	W24
	BYTE		        Fn3   v076
	BYTE	W24
	BYTE		        Dn3   v068
	BYTE	W24
	BYTE	PEND
	BYTE		N24     An2   v080
	BYTE	W24
	BYTE		        En2   v076
	BYTE	W24
	BYTE		        Fn2   v084
	BYTE	W24
	BYTE		        Dn2   v076
	BYTE	W24
	BYTE	PEND
	BYTE		N48     An1   v076
	BYTE	W24
	BYTE		VOL     67*seq_065_mvl/mxv
	BYTE	W03
	BYTE		        65*seq_065_mvl/mxv
	BYTE	W03
	BYTE		        61*seq_065_mvl/mxv
	BYTE	W03
	BYTE		        55*seq_065_mvl/mxv
	BYTE	W03
	BYTE		        45*seq_065_mvl/mxv
	BYTE	W03
	BYTE		        32*seq_065_mvl/mxv
	BYTE	W03
	BYTE		        17*seq_065_mvl/mxv
	BYTE	W03
	BYTE		        9*seq_065_mvl/mxv
	BYTE	W48
	BYTE	W03
	BYTE	PEND
	BYTE		        70*seq_065_mvl/mxv
	BYTE	W96
	BYTE	PATT
	 POIN2	seq_065_0 + 0x6F
	BYTE	PATT
	 POIN2	seq_065_0 + 0x7D
	BYTE	PATT
	 POIN2	seq_065_0 + 0x8B
	BYTE	W96
	BYTE		VOL     70*seq_065_mvl/mxv
	BYTE		N24     En3   v076
	BYTE	W24
	BYTE		        Bn2   v072
	BYTE	W24
	BYTE		        Cn3   v076
	BYTE	W24
	BYTE		        An2   v072
	BYTE	W24
	BYTE	PEND
	BYTE	PATT
	 POIN2	seq_065_0 + 0x1D
	BYTE	PATT
	 POIN2	seq_065_0 + 0x56
	BYTE		VOL     70*seq_065_mvl/mxv
	BYTE	W96
	BYTE	PATT
	 POIN2	seq_065_0 + 0x43
	BYTE	PATT
	 POIN2	seq_065_0 + 0x1D
	BYTE	PATT
	 POIN2	seq_065_0 + 0x56
	BYTE		VOL     70*seq_065_mvl/mxv
	BYTE	W96
	BYTE	PATT
	 POIN2	seq_065_0 + 0x6F
	BYTE	PATT
	 POIN2	seq_065_0 + 0x7D
	BYTE	PATT
	 POIN2	seq_065_0 + 0x8B
	BYTE		VOL     70*seq_065_mvl/mxv
	BYTE	W96
	BYTE	PATT
	 POIN2	seq_065_0 + 0x6F
	BYTE	PATT
	 POIN2	seq_065_0 + 0x7D
	BYTE		N48     An1   v076
	BYTE	W24
	BYTE		VOL     67*seq_065_mvl/mxv
	BYTE	W03
	BYTE		        65*seq_065_mvl/mxv
	BYTE	W03
	BYTE		        61*seq_065_mvl/mxv
	BYTE	W03
	BYTE		        55*seq_065_mvl/mxv
	BYTE	W03
	BYTE		        45*seq_065_mvl/mxv
	BYTE	W03
	BYTE		        32*seq_065_mvl/mxv
	BYTE	W03
	BYTE		        17*seq_065_mvl/mxv
	BYTE	W03
	BYTE		        9*seq_065_mvl/mxv
	BYTE	W36
	BYTE		        70*seq_065_mvl/mxv
	BYTE	W03
	BYTE		PAN     c_v-34
	BYTE	W12
	BYTE	W12
	BYTE		VOICE   54
	BYTE	W01
	BYTE		PAN     c_v-34
	BYTE		VOL     70*seq_065_mvl/mxv
	BYTE	W80
	BYTE	W03
	BYTE		N24     Cn1   v092
	BYTE	W24
	BYTE		        Gn1   v084
	BYTE	W24
	BYTE		N72     Cn2   v092
	BYTE	W24
	BYTE		VOL     67*seq_065_mvl/mxv
	BYTE	W06
	BYTE		        64*seq_065_mvl/mxv
	BYTE	W06
	BYTE		        60*seq_065_mvl/mxv
	BYTE	W06
	BYTE		        53*seq_065_mvl/mxv
	BYTE	W06
	BYTE	PEND
	BYTE		VOL     44*seq_065_mvl/mxv
	BYTE	W06
	BYTE		        32*seq_065_mvl/mxv
	BYTE	W06
	BYTE		        18*seq_065_mvl/mxv
	BYTE	W06
	BYTE		        7*seq_065_mvl/mxv
	BYTE	W30
	BYTE		        70*seq_065_mvl/mxv
	BYTE	W48
	BYTE	PEND
	BYTE		N24     Cn1   v100
	BYTE	W24
	BYTE		        An1   v092
	BYTE	W24
	BYTE		N72     Dn2   v100
	BYTE	W24
	BYTE		VOL     67*seq_065_mvl/mxv
	BYTE	W06
	BYTE		        64*seq_065_mvl/mxv
	BYTE	W06
	BYTE		        60*seq_065_mvl/mxv
	BYTE	W06
	BYTE		        53*seq_065_mvl/mxv
	BYTE	W06
	BYTE	PEND
	BYTE	PATT
	 POIN2	seq_065_0 + 0x138
	BYTE		N24     Cn1   v104
	BYTE	W24
	BYTE		        Gn1   v100
	BYTE	W24
	BYTE		N72     Ds2   v104
	BYTE	W24
	BYTE		VOL     67*seq_065_mvl/mxv
	BYTE	W06
	BYTE		        64*seq_065_mvl/mxv
	BYTE	W06
	BYTE		        60*seq_065_mvl/mxv
	BYTE	W06
	BYTE		        53*seq_065_mvl/mxv
	BYTE	W06
	BYTE	PEND
	BYTE	PATT
	 POIN2	seq_065_0 + 0x138
	BYTE		N24     Ds1   v100
	BYTE	W24
	BYTE	TEMPO   142/2
	BYTE		        As1   v096
	BYTE	W24
	BYTE	TEMPO   140/2
	BYTE		N48     Ds2   v088
	BYTE	W24
	BYTE	TEMPO   132/2
	BYTE		VOL     67*seq_065_mvl/mxv
	BYTE	W03
	BYTE		        65*seq_065_mvl/mxv
	BYTE	W03
	BYTE		        61*seq_065_mvl/mxv
	BYTE	W03
	BYTE		        55*seq_065_mvl/mxv
	BYTE	W03
	BYTE		        45*seq_065_mvl/mxv
	BYTE	W03
	BYTE		        32*seq_065_mvl/mxv
	BYTE	W03
	BYTE		        17*seq_065_mvl/mxv
	BYTE	W03
	BYTE		        9*seq_065_mvl/mxv
	BYTE	W03
	BYTE	TEMPO   130/2
	BYTE		        70*seq_065_mvl/mxv
	BYTE		N24     Fn1   v096
	BYTE	W24
	BYTE	TEMPO   128/2
	BYTE		        Cn2   v084
	BYTE	W24
	BYTE	TEMPO   126/2
	BYTE		N44     Ds2   v072
	BYTE	W24
	BYTE	TEMPO   120/2
	BYTE		VOL     67*seq_065_mvl/mxv
	BYTE	W03
	BYTE		        65*seq_065_mvl/mxv
	BYTE	W03
	BYTE		        61*seq_065_mvl/mxv
	BYTE	W03
	BYTE		        55*seq_065_mvl/mxv
	BYTE	W03
	BYTE		        45*seq_065_mvl/mxv
	BYTE	W03
	BYTE		        32*seq_065_mvl/mxv
	BYTE	W01
	BYTE		        24*seq_065_mvl/mxv
	BYTE	W02
	BYTE		        17*seq_065_mvl/mxv
	BYTE	W01
	BYTE		        7*seq_065_mvl/mxv
	BYTE	W03
	BYTE		PAN     c_v+21
	BYTE	W02
	BYTE	TEMPO   148/2
	BYTE		VOL     70*seq_065_mvl/mxv
	BYTE		N24     En3   v076
	BYTE	W24
	BYTE		        Bn2   v072
	BYTE	W24
	BYTE		        Cn3   v076
	BYTE	W24
	BYTE		        An2   v072
	BYTE	W24
	BYTE	PATT
	 POIN2	seq_065_0 + 0x1D
	BYTE	PATT
	 POIN2	seq_065_0 + 0x56
	BYTE		VOL     70*seq_065_mvl/mxv
	BYTE	W96
	BYTE	PATT
	 POIN2	seq_065_0 + 0x43
	BYTE	PATT
	 POIN2	seq_065_0 + 0x1D
	BYTE	PATT
	 POIN2	seq_065_0 + 0x56
	BYTE		VOL     70*seq_065_mvl/mxv
	BYTE	W96
	BYTE	PATT
	 POIN2	seq_065_0 + 0x6F
	BYTE	PATT
	 POIN2	seq_065_0 + 0x7D
	BYTE	PATT
	 POIN2	seq_065_0 + 0x8B
	BYTE		VOL     70*seq_065_mvl/mxv
	BYTE	W96
	BYTE	PATT
	 POIN2	seq_065_0 + 0x6F
	BYTE	PATT
	 POIN2	seq_065_0 + 0x7D
	BYTE	PATT
	 POIN2	seq_065_0 + 0x8B
	BYTE	W96
	BYTE	PATT
	 POIN2	seq_065_0 + 0xB4
	BYTE	PATT
	 POIN2	seq_065_0 + 0x1D
	BYTE	PATT
	 POIN2	seq_065_0 + 0x56
	BYTE		VOL     70*seq_065_mvl/mxv
	BYTE	W96
	BYTE	PATT
	 POIN2	seq_065_0 + 0x43
	BYTE	PATT
	 POIN2	seq_065_0 + 0x1D
	BYTE	PATT
	 POIN2	seq_065_0 + 0x56
	BYTE		VOL     70*seq_065_mvl/mxv
	BYTE	W96
	BYTE	PATT
	 POIN2	seq_065_0 + 0x6F
	BYTE	PATT
	 POIN2	seq_065_0 + 0x7D
	BYTE	PATT
	 POIN2	seq_065_0 + 0x8B
	BYTE		VOL     70*seq_065_mvl/mxv
	BYTE	W96
	BYTE	PATT
	 POIN2	seq_065_0 + 0x6F
	BYTE	PATT
	 POIN2	seq_065_0 + 0x7D
	BYTE	PATT
	 POIN2	seq_065_0 + 0x8B
	BYTE		VOL     70*seq_065_mvl/mxv
	BYTE	W92
	BYTE	W03
	BYTE		PAN     c_v-34
	BYTE	W01
	BYTE	PATT
	 POIN2	seq_065_0 + 0x123
	BYTE	PATT
	 POIN2	seq_065_0 + 0x138
	BYTE	PATT
	 POIN2	seq_065_0 + 0x144
	BYTE	PATT
	 POIN2	seq_065_0 + 0x138
	BYTE	PATT
	 POIN2	seq_065_0 + 0x15E
	BYTE	PATT
	 POIN2	seq_065_0 + 0x138
	BYTE		N24     Ds1   v100
	BYTE	W24
	BYTE	TEMPO   142/2
	BYTE		        As1   v096
	BYTE	W24
	BYTE	TEMPO   138/2
	BYTE		N48     Ds2   v088
	BYTE	W24
	BYTE	TEMPO   132/2
	BYTE		VOL     67*seq_065_mvl/mxv
	BYTE	W03
	BYTE		        65*seq_065_mvl/mxv
	BYTE	W03
	BYTE		        61*seq_065_mvl/mxv
	BYTE	W03
	BYTE		        55*seq_065_mvl/mxv
	BYTE	W03
	BYTE		        45*seq_065_mvl/mxv
	BYTE	W03
	BYTE		        32*seq_065_mvl/mxv
	BYTE	W03
	BYTE		        17*seq_065_mvl/mxv
	BYTE	W03
	BYTE		        9*seq_065_mvl/mxv
	BYTE	W03
	BYTE	TEMPO   128/2
	BYTE		        70*seq_065_mvl/mxv
	BYTE		N24     Fn1   v096
	BYTE	W24
	BYTE	TEMPO   128/2
	BYTE		        Cn2   v084
	BYTE	W24
	BYTE	TEMPO   126/2
	BYTE		N44     Ds2   v072
	BYTE	W24
	BYTE	TEMPO   120/2
	BYTE		VOL     67*seq_065_mvl/mxv
	BYTE	W03
	BYTE		        65*seq_065_mvl/mxv
	BYTE	W03
	BYTE		        61*seq_065_mvl/mxv
	BYTE	W03
	BYTE		        55*seq_065_mvl/mxv
	BYTE	W03
	BYTE		        45*seq_065_mvl/mxv
	BYTE	W03
	BYTE		        32*seq_065_mvl/mxv
	BYTE	W01
	BYTE		        24*seq_065_mvl/mxv
	BYTE	W02
	BYTE		        17*seq_065_mvl/mxv
	BYTE	W01
	BYTE		        7*seq_065_mvl/mxv
	BYTE	W05
	BYTE	TEMPO   146/2
	BYTE		        70*seq_065_mvl/mxv
	BYTE		N24     Gs1   v076
	BYTE	W24
	BYTE		        Cn2   v060
	BYTE	W24
	BYTE		        Ds2   v080
	BYTE	W24
	BYTE		        Cn2   v076
	BYTE	W24
	BYTE		N24     Ds2   v092
	BYTE	W24
	BYTE		        Dn2   v084
	BYTE	W24
	BYTE		        Ds2   v100
	BYTE	W24
	BYTE		        Cn2   v092
	BYTE	W24
	BYTE	PEND
	BYTE		        Gn1   v100
	BYTE	W24
	BYTE		        Bn1   v092
	BYTE	W24
	BYTE		        Dn2 
	BYTE	W24
	BYTE		        Bn1   v080
	BYTE	W24
	BYTE	TEMPO   148/2
	BYTE		        Dn2   v084
	BYTE	W24
	BYTE		        Cn2   v064
	BYTE	W24
	BYTE		        Dn2   v072
	BYTE	W24
	BYTE		        Bn1   v060
	BYTE	W24
	BYTE	TEMPO   146/2
	BYTE		        Gs1   v076
	BYTE	W24
	BYTE		        Cn2   v060
	BYTE	W24
	BYTE		        Ds2   v080
	BYTE	W24
	BYTE		        Cn2   v076
	BYTE	W24
	BYTE	PATT
	 POIN2	seq_065_0 + 0x2D9
	BYTE		N24     Gn1   v100
	BYTE	W24
	BYTE		        Bn1   v092
	BYTE	W24
	BYTE		        Dn2 
	BYTE	W24
	BYTE		        Bn1   v072
	BYTE	W24
	BYTE	TEMPO   142/2
	BYTE		N68     Gn1   v068
	BYTE	W24
	BYTE		VOL     67*seq_065_mvl/mxv
	BYTE	W06
	BYTE		        64*seq_065_mvl/mxv
	BYTE	W06
	BYTE		        60*seq_065_mvl/mxv
	BYTE	W06
	BYTE		        53*seq_065_mvl/mxv
	BYTE	W06
	BYTE	TEMPO   140/2
	BYTE		        44*seq_065_mvl/mxv
	BYTE	W06
	BYTE		        32*seq_065_mvl/mxv
	BYTE	W06
	BYTE		        18*seq_065_mvl/mxv
	BYTE	W06
	BYTE		        7*seq_065_mvl/mxv
	BYTE	W04
	BYTE	W24
	BYTE	W02
	BYTE	TEMPO   130/2
	BYTE		        70*seq_065_mvl/mxv
	BYTE	W96
	BYTE	W96
	BYTE	W96
	BYTE	W96
	BYTE	W96
	BYTE	W96
	BYTE	W96
	BYTE	W96
	BYTE	W96
	BYTE	W96
	BYTE	W96
	BYTE	W96
	BYTE	W96
	BYTE	W96
	BYTE	TEMPO   128/2
	BYTE	W48
	BYTE	TEMPO   124/2
	BYTE	W48
	BYTE	TEMPO   130/2
	BYTE	W96
	BYTE	W36
	BYTE		PAN     c_v+21
	BYTE	W56
	BYTE	W03
	BYTE	W01
	BYTE	PATT
	 POIN2	seq_065_0 + 0xD
	BYTE	PATT
	 POIN2	seq_065_0 + 0x1D
	BYTE	PATT
	 POIN2	seq_065_0 + 0x56
	BYTE		VOL     70*seq_065_mvl/mxv
	BYTE	W96
	BYTE	PATT
	 POIN2	seq_065_0 + 0x43
	BYTE	PATT
	 POIN2	seq_065_0 + 0x1D
	BYTE	PATT
	 POIN2	seq_065_0 + 0x56
	BYTE		VOL     70*seq_065_mvl/mxv
	BYTE	W96
	BYTE	PATT
	 POIN2	seq_065_0 + 0x6F
	BYTE	PATT
	 POIN2	seq_065_0 + 0x7D
	BYTE	PATT
	 POIN2	seq_065_0 + 0x8B
	BYTE		VOL     70*seq_065_mvl/mxv
	BYTE	W96
	BYTE	PATT
	 POIN2	seq_065_0 + 0x6F
	BYTE	PATT
	 POIN2	seq_065_0 + 0x7D
	BYTE	PATT
	 POIN2	seq_065_0 + 0x8B
	BYTE	W96
	BYTE	PATT
	 POIN2	seq_065_0 + 0xB4
	BYTE	PATT
	 POIN2	seq_065_0 + 0x1D
	BYTE	PATT
	 POIN2	seq_065_0 + 0x56
	BYTE		VOL     70*seq_065_mvl/mxv
	BYTE	W96
	BYTE	PATT
	 POIN2	seq_065_0 + 0x43
	BYTE	PATT
	 POIN2	seq_065_0 + 0x1D
	BYTE	PATT
	 POIN2	seq_065_0 + 0x56
	BYTE		VOL     70*seq_065_mvl/mxv
	BYTE	W96
	BYTE	PATT
	 POIN2	seq_065_0 + 0x6F
	BYTE	PATT
	 POIN2	seq_065_0 + 0x7D
	BYTE	PATT
	 POIN2	seq_065_0 + 0x8B
	BYTE		VOL     70*seq_065_mvl/mxv
	BYTE	W96
	BYTE	PATT
	 POIN2	seq_065_0 + 0x6F
	BYTE	PATT
	 POIN2	seq_065_0 + 0x7D
	BYTE	PATT
	 POIN2	seq_065_0 + 0x8B
	BYTE		VOL     70*seq_065_mvl/mxv
	BYTE	W24
	BYTE		PAN     c_v+26
	BYTE	W48
	BYTE	TEMPO   134/2
	BYTE	W24
	BYTE	TEMPO   130/2
	BYTE		N12     En3   v056
	BYTE	W12
	BYTE		        Gn2   v064
	BYTE	W12
	BYTE		        Cn3   v060
	BYTE	W12
	BYTE		        Gn2 
	BYTE	W12
	BYTE		        Gn3   v052
	BYTE	W12
	BYTE		        Gn2   v064
	BYTE	W12
	BYTE		        Cn3   v060
	BYTE	W12
	BYTE		        Gn2 
	BYTE	W12
	BYTE		N12     Fs3   v048
	BYTE	W12
	BYTE		        Fs2   v060
	BYTE	W12
	BYTE		        An2 
	BYTE	W12
	BYTE		        Fs2   v056
	BYTE	W12
	BYTE		        Dn3 
	BYTE	W12
	BYTE		        Fs2   v060
	BYTE	W12
	BYTE		        An2 
	BYTE	W12
	BYTE		        Fs2   v056
	BYTE	W12
	BYTE	PEND
	BYTE		        Fn3   v048
	BYTE	W12
	BYTE		        Fn2   v064
	BYTE	W12
	BYTE		        As2 
	BYTE	W12
	BYTE		        Fn2   v060
	BYTE	W12
	BYTE		        Dn3   v056
	BYTE	W12
	BYTE		        Fn2   v064
	BYTE	W12
	BYTE		        As2 
	BYTE	W12
	BYTE		        Fn2   v060
	BYTE	W12
	BYTE		        En3   v048
	BYTE	W12
	BYTE		        En2   v056
	BYTE	W12
	BYTE		        Gn2   v060
	BYTE	W12
	BYTE		        En2   v052
	BYTE	W12
	BYTE		        Cn3 
	BYTE	W12
	BYTE		        En2   v056
	BYTE	W12
	BYTE		        Gn2   v060
	BYTE	W12
	BYTE		        En2   v052
	BYTE	W12
	BYTE		        En3   v056
	BYTE	W12
	BYTE		        Gn2   v064
	BYTE	W12
	BYTE		        Cn3   v060
	BYTE	W12
	BYTE		        Gn2   v064
	BYTE	W12
	BYTE		N14     Gn3   v052
	BYTE	W12
	BYTE		N12     Gn2   v064
	BYTE	W12
	BYTE		        Cn3   v060
	BYTE	W12
	BYTE		        Gn2 
	BYTE	W12
	BYTE	PATT
	 POIN2	seq_065_0 + 0x407
	BYTE		N12     Fn3   v048
	BYTE	W12
	BYTE		        Fn2   v064
	BYTE	W12
	BYTE		        As2 
	BYTE	W12
	BYTE		        Fn2   v060
	BYTE	W12
	BYTE		        Dn3   v056
	BYTE	W12
	BYTE		        Fn2   v052
	BYTE	W12
	BYTE		        As2   v056
	BYTE	W12
	BYTE		        Fn2   v052
	BYTE	W12
	BYTE		N48     En3   v040
	BYTE	W24
	BYTE		VOL     67*seq_065_mvl/mxv
	BYTE	W03
	BYTE		        65*seq_065_mvl/mxv
	BYTE	W03
	BYTE		        61*seq_065_mvl/mxv
	BYTE	W03
	BYTE		        55*seq_065_mvl/mxv
	BYTE	W03
	BYTE		        45*seq_065_mvl/mxv
	BYTE	W03
	BYTE		        32*seq_065_mvl/mxv
	BYTE	W03
	BYTE		        17*seq_065_mvl/mxv
	BYTE	W03
	BYTE		        9*seq_065_mvl/mxv
	BYTE	W48
	BYTE	W03
	BYTE		        70*seq_065_mvl/mxv
	BYTE		N12     En3   v060
	BYTE	W12
	BYTE		        Gn2   v064
	BYTE	W12
	BYTE		        Cn3   v060
	BYTE	W12
	BYTE		        Gn2 
	BYTE	W12
	BYTE		N14     Gn3 
	BYTE	W12
	BYTE		N12     Gn2   v064
	BYTE	W12
	BYTE		        Cn3   v060
	BYTE	W12
	BYTE		        Gn2 
	BYTE	W12
	BYTE		N12     Fs3   v048
	BYTE	W12
	BYTE		        Fs2   v060
	BYTE	W12
	BYTE		        An2 
	BYTE	W12
	BYTE		        Fs2   v056
	BYTE	W12
	BYTE		        Dn3   v060
	BYTE	W12
	BYTE		        Fs2 
	BYTE	W12
	BYTE		        An2 
	BYTE	W12
	BYTE		        Fs2   v056
	BYTE	W12
	BYTE	PEND
	BYTE		        Fn3 
	BYTE	W12
	BYTE		        Fn2   v064
	BYTE	W12
	BYTE		        As2 
	BYTE	W12
	BYTE		        Fn2   v060
	BYTE	W12
	BYTE		        Dn3 
	BYTE	W12
	BYTE		        Fn2   v064
	BYTE	W12
	BYTE		        As2 
	BYTE	W12
	BYTE		        Fn2   v060
	BYTE	W12
	BYTE		        En3   v052
	BYTE	W12
	BYTE		        En2   v056
	BYTE	W12
	BYTE		        Gn2   v060
	BYTE	W12
	BYTE		        En2   v052
	BYTE	W12
	BYTE		        Cn3   v056
	BYTE	W12
	BYTE		        En2 
	BYTE	W12
	BYTE		        Gn2   v060
	BYTE	W12
	BYTE		        En2   v052
	BYTE	W12
	BYTE		        En3   v060
	BYTE	W12
	BYTE		        Gn2   v064
	BYTE	W12
	BYTE		        Cn3   v060
	BYTE	W12
	BYTE		        Gn2   v064
	BYTE	W12
	BYTE		N14     Gn3   v060
	BYTE	W12
	BYTE		N12     Gn2   v064
	BYTE	W12
	BYTE		        Cn3   v060
	BYTE	W12
	BYTE		        Gn2 
	BYTE	W12
	BYTE	PATT
	 POIN2	seq_065_0 + 0x4B0
	BYTE		N12     Fn3   v056
	BYTE	W12
	BYTE		        Fn2   v064
	BYTE	W12
	BYTE		        As2 
	BYTE	W12
	BYTE		        Fn2   v060
	BYTE	W12
	BYTE		        Dn3   v056
	BYTE	W12
	BYTE		        Fn2   v052
	BYTE	W12
	BYTE		        As2   v056
	BYTE	W12
	BYTE		        Fn2   v052
	BYTE	W12
	BYTE	TEMPO   134/2
	BYTE		N48     En3   v048
	BYTE	W24
	BYTE		VOL     67*seq_065_mvl/mxv
	BYTE	W03
	BYTE		        65*seq_065_mvl/mxv
	BYTE	W03
	BYTE		        61*seq_065_mvl/mxv
	BYTE	W03
	BYTE		        55*seq_065_mvl/mxv
	BYTE	W03
	BYTE		        45*seq_065_mvl/mxv
	BYTE	W03
	BYTE		        32*seq_065_mvl/mxv
	BYTE	W03
	BYTE		        17*seq_065_mvl/mxv
	BYTE	W03
	BYTE		        9*seq_065_mvl/mxv
	BYTE	W03
	BYTE	TEMPO   120/2
	BYTE	W24
	BYTE	TEMPO   96/2
	BYTE		        70*seq_065_mvl/mxv
	BYTE	W24
	BYTE	TEMPO   86/2
	BYTE		N12     Cn2   v072
	BYTE	W12
	BYTE		        Ds2   v060
	BYTE	W12
	BYTE		        Cn2   v068
	BYTE	W12
	BYTE		        Ds2 
	BYTE	W12
	BYTE		        Cn2   v084
	BYTE	W12
	BYTE		        Ds2   v076
	BYTE	W12
	BYTE		        Cn2   v084
	BYTE	W12
	BYTE		        Ds2   v076
	BYTE	W12
	BYTE		N12     Dn2   v076
	BYTE	W12
	BYTE		        Fn2   v072
	BYTE	W12
	BYTE		        Dn2 
	BYTE	W12
	BYTE		        Fn2   v064
	BYTE	W12
	BYTE		        Dn2   v072
	BYTE	W12
	BYTE		        Fn2   v060
	BYTE	W12
	BYTE		        Dn2   v064
	BYTE	W12
	BYTE		        Fn2   v056
	BYTE	W12
	BYTE	PEND
	BYTE		N12     Cn2   v072
	BYTE	W12
	BYTE		        Ds2   v060
	BYTE	W12
	BYTE		        Cn2   v068
	BYTE	W12
	BYTE		        Ds2 
	BYTE	W12
	BYTE		        Cn2   v084
	BYTE	W12
	BYTE		        Ds2   v076
	BYTE	W12
	BYTE		        Cn2   v084
	BYTE	W12
	BYTE		        Ds2   v076
	BYTE	W12
	BYTE	PEND
	BYTE		N12     As1   v084
	BYTE	W12
	BYTE		        Dn2   v076
	BYTE	W12
	BYTE		        As1   v080
	BYTE	W12
	BYTE		        Dn2   v068
	BYTE	W12
	BYTE		        As1   v072
	BYTE	W12
	BYTE		        Dn2   v060
	BYTE	W12
	BYTE		        As1   v064
	BYTE	W12
	BYTE		        Dn2   v056
	BYTE	W12
	BYTE	PEND
	BYTE	PATT
	 POIN2	seq_065_0 + 0x579
	BYTE	PATT
	 POIN2	seq_065_0 + 0x560
	BYTE	PATT
	 POIN2	seq_065_0 + 0x579
	BYTE	PATT
	 POIN2	seq_065_0 + 0x592
	BYTE		N06     Cn3   v056
	BYTE	W06
	BYTE		        Bn2   v052
	BYTE	W06
	BYTE		        An2   v056
	BYTE	W06
	BYTE		        Gn2   v048
	BYTE	W06
	BYTE		        Cn3   v056
	BYTE	W06
	BYTE		        Bn2   v048
	BYTE	W06
	BYTE		        An2   v052
	BYTE	W06
	BYTE		        Gn2   v048
	BYTE	W06
	BYTE		        Cn3   v056
	BYTE	W06
	BYTE		        Bn2   v048
	BYTE	W06
	BYTE		        An2   v052
	BYTE	W06
	BYTE		        Gn2   v048
	BYTE	W06
	BYTE		        Cn3 
	BYTE	W06
	BYTE		        Bn2 
	BYTE	W06
	BYTE		        An2 
	BYTE	W06
	BYTE		        Gn2   v044
	BYTE	W06
	BYTE	PEND
	BYTE		N06     Cn3   v056
	BYTE	W06
	BYTE		        Bn2   v052
	BYTE	W06
	BYTE		        An2   v056
	BYTE	W06
	BYTE		        Gn2   v052
	BYTE	W06
	BYTE		        Cn3 
	BYTE	W06
	BYTE		        Bn2   v048
	BYTE	W06
	BYTE		        An2 
	BYTE	W06
	BYTE		        Gn2   v044
	BYTE	W06
	BYTE		        Cn3   v052
	BYTE	W06
	BYTE		        Bn2   v048
	BYTE	W06
	BYTE		        An2   v052
	BYTE	W06
	BYTE		        Gn2   v048
	BYTE	W06
	BYTE		        Cn3 
	BYTE	W06
	BYTE		        Bn2   v044
	BYTE	W06
	BYTE		        An2   v048
	BYTE	W06
	BYTE		        Gn2   v040
	BYTE	W06
	BYTE	PEND
	BYTE		N06     Cn3   v056
	BYTE	W06
	BYTE		        As2   v052
	BYTE	W06
	BYTE		        Gs2   v056
	BYTE	W06
	BYTE		        Gn2   v048
	BYTE	W06
	BYTE		        Cn3   v056
	BYTE	W06
	BYTE		        As2   v048
	BYTE	W06
	BYTE		        Gs2   v052
	BYTE	W06
	BYTE		        Gn2   v048
	BYTE	W06
	BYTE		        Cn3   v056
	BYTE	W06
	BYTE		        As2   v048
	BYTE	W06
	BYTE		        Gs2   v052
	BYTE	W06
	BYTE		        Gn2   v048
	BYTE	W06
	BYTE		        Cn3 
	BYTE	W06
	BYTE		        As2 
	BYTE	W06
	BYTE		        Gs2 
	BYTE	W06
	BYTE		        Gn2   v044
	BYTE	W06
	BYTE	PEND
	BYTE		N06     Cn3   v056
	BYTE	W06
	BYTE		        As2   v052
	BYTE	W06
	BYTE		        Gs2   v056
	BYTE	W06
	BYTE		        Gn2   v052
	BYTE	W06
	BYTE		        Cn3 
	BYTE	W06
	BYTE		        As2   v048
	BYTE	W06
	BYTE		        Gs2 
	BYTE	W06
	BYTE		        Gn2   v044
	BYTE	W06
	BYTE		        Cn3   v052
	BYTE	W06
	BYTE		        As2   v048
	BYTE	W06
	BYTE		        Gs2   v052
	BYTE	W06
	BYTE		        Gn2   v048
	BYTE	W06
	BYTE		        Cn3 
	BYTE	W06
	BYTE		        As2   v044
	BYTE	W06
	BYTE		        Gs2   v048
	BYTE	W06
	BYTE		        Gn2   v040
	BYTE	W06
	BYTE	PEND
	BYTE	PATT
	 POIN2	seq_065_0 + 0x5C0
	BYTE	PATT
	 POIN2	seq_065_0 + 0x5EF
	BYTE	PATT
	 POIN2	seq_065_0 + 0x61E
	BYTE		N06     Cn3   v056
	BYTE	W06
	BYTE		        As2   v052
	BYTE	W06
	BYTE		        Gs2   v056
	BYTE	W06
	BYTE		        Gn2   v052
	BYTE	W06
	BYTE		        Cn3 
	BYTE	W06
	BYTE		        As2   v048
	BYTE	W06
	BYTE		        Gs2 
	BYTE	W06
	BYTE		        Gn2   v044
	BYTE	W06
	BYTE		        Cn3   v052
	BYTE	W06
	BYTE		        As2   v048
	BYTE	W06
	BYTE		        Gs2   v052
	BYTE	W06
	BYTE		        Gn2   v048
	BYTE	W06
	BYTE	TEMPO   84/2
	BYTE		        Cn3 
	BYTE	W06
	BYTE		        As2   v044
	BYTE	W06
	BYTE		        Gs2   v048
	BYTE	W06
	BYTE		        Gn2   v040
	BYTE	W06
	BYTE	TEMPO   86/2
	BYTE		        Cn3   v056
	BYTE	W06
	BYTE		        Bn2   v052
	BYTE	W06
	BYTE		        An2   v056
	BYTE	W06
	BYTE		        Gn2   v048
	BYTE	W06
	BYTE		        Cn3   v056
	BYTE	W06
	BYTE		        Bn2   v048
	BYTE	W06
	BYTE		        An2   v052
	BYTE	W06
	BYTE		        Gn2   v048
	BYTE	W06
	BYTE		        Cn3   v056
	BYTE	W06
	BYTE		        Bn2   v048
	BYTE	W06
	BYTE		        An2   v052
	BYTE	W06
	BYTE		        Gn2   v048
	BYTE	W06
	BYTE		        Cn3 
	BYTE	W06
	BYTE		        Bn2 
	BYTE	W06
	BYTE		        An2 
	BYTE	W06
	BYTE		        Gn2   v044
	BYTE	W06
	BYTE	PATT
	 POIN2	seq_065_0 + 0x5EF
	BYTE	PATT
	 POIN2	seq_065_0 + 0x61E
	BYTE	PATT
	 POIN2	seq_065_0 + 0x64D
	BYTE	GoTo
	 POIN2	seq_065_0 + 0x67C
	BYTE	W07
	BYTE	FINE

//*********************** Track 02 ***********************//

seq_065_1:
	BYTE	KEYSH   seq_065_key+0
	BYTE		VOICE   45
	BYTE	W01
	BYTE		PAN     c_v-4
	BYTE		VOL     70*seq_065_mvl/mxv
	BYTE	W01
	BYTE		BENDR   12
	BYTE	W01
	BYTE	W96
	BYTE	W96
	BYTE	W96
	BYTE	W96
	BYTE	W96
	BYTE	W96
	BYTE	W96
	BYTE	W96
	BYTE	W96
	BYTE	W96
	BYTE	W96
	BYTE	W96
	BYTE	W96
	BYTE	W96
	BYTE	W96
	BYTE	W96
	BYTE	W96
	BYTE	W96
	BYTE	W96
	BYTE	W96
	BYTE	W96
	BYTE	W96
	BYTE	W96
	BYTE	W96
	BYTE	W96
	BYTE	W96
	BYTE	W96
	BYTE	W96
	BYTE	W96
	BYTE	W96
	BYTE	W96
	BYTE	W44
	BYTE	W03
	BYTE	W01
	BYTE		N23     Cn3   v076
	BYTE	W24
	BYTE		        Dn3   v088
	BYTE	W24
	BYTE		N48     En3   v076
	BYTE	W48
	BYTE		N68     Cn3   v056
	BYTE	W09
	BYTE		VOL     72*seq_065_mvl/mxv
	BYTE	W06
	BYTE		        72*seq_065_mvl/mxv
	BYTE	W06
	BYTE		        74*seq_065_mvl/mxv
	BYTE	W03
	BYTE		        75*seq_065_mvl/mxv
	BYTE	W03
	BYTE		        77*seq_065_mvl/mxv
	BYTE	W03
	BYTE		        78*seq_065_mvl/mxv
	BYTE	W03
	BYTE		        80*seq_065_mvl/mxv
	BYTE	W06
	BYTE		        79*seq_065_mvl/mxv
	BYTE	W03
	BYTE		        78*seq_065_mvl/mxv
	BYTE	W03
	BYTE		        77*seq_065_mvl/mxv
	BYTE	W03
	BYTE	PEND
	BYTE		VOL     76*seq_065_mvl/mxv
	BYTE	W03
	BYTE		        73*seq_065_mvl/mxv
	BYTE	W03
	BYTE		        70*seq_065_mvl/mxv
	BYTE	W03
	BYTE		        67*seq_065_mvl/mxv
	BYTE	W03
	BYTE		        62*seq_065_mvl/mxv
	BYTE	W03
	BYTE		        57*seq_065_mvl/mxv
	BYTE	W03
	BYTE		        51*seq_065_mvl/mxv
	BYTE	W03
	BYTE		        45*seq_065_mvl/mxv
	BYTE	W03
	BYTE		        70*seq_065_mvl/mxv
	BYTE		N23     Cn3   v084
	BYTE	W24
	BYTE		        En3 
	BYTE	W24
	BYTE		        Gn3   v076
	BYTE	W24
	BYTE	PEND
	BYTE		N23     Fs3   v080
	BYTE	W24
	BYTE		        Dn3   v060
	BYTE	W24
	BYTE		VOL     71*seq_065_mvl/mxv
	BYTE		TIE     An2   v048
	BYTE	W09
	BYTE		VOL     72*seq_065_mvl/mxv
	BYTE	W03
	BYTE		        72*seq_065_mvl/mxv
	BYTE	W06
	BYTE		        73*seq_065_mvl/mxv
	BYTE	W03
	BYTE		        74*seq_065_mvl/mxv
	BYTE	W03
	BYTE		        75*seq_065_mvl/mxv
	BYTE	W03
	BYTE		        76*seq_065_mvl/mxv
	BYTE	W03
	BYTE		        78*seq_065_mvl/mxv
	BYTE	W18
	BYTE	PEND
	BYTE	W03
	BYTE		VOL     77*seq_065_mvl/mxv
	BYTE	W03
	BYTE		        77*seq_065_mvl/mxv
	BYTE	W03
	BYTE		        76*seq_065_mvl/mxv
	BYTE	W03
	BYTE		        75*seq_065_mvl/mxv
	BYTE	W03
	BYTE		        74*seq_065_mvl/mxv
	BYTE	W03
	BYTE		        72*seq_065_mvl/mxv
	BYTE	W03
	BYTE		        72*seq_065_mvl/mxv
	BYTE	W03
	BYTE		        70*seq_065_mvl/mxv
	BYTE	W03
	BYTE		        68*seq_065_mvl/mxv
	BYTE	W03
	BYTE		        67*seq_065_mvl/mxv
	BYTE	W03
	BYTE		        65*seq_065_mvl/mxv
	BYTE	W03
	BYTE		        63*seq_065_mvl/mxv
	BYTE	W03
	BYTE		        61*seq_065_mvl/mxv
	BYTE	W03
	BYTE		        58*seq_065_mvl/mxv
	BYTE	W03
	BYTE		        56*seq_065_mvl/mxv
	BYTE	W03
	BYTE		        53*seq_065_mvl/mxv
	BYTE	W03
	BYTE		        51*seq_065_mvl/mxv
	BYTE	W03
	BYTE		        48*seq_065_mvl/mxv
	BYTE	W03
	BYTE		        45*seq_065_mvl/mxv
	BYTE	W03
	BYTE		        42*seq_065_mvl/mxv
	BYTE	W03
	BYTE		        38*seq_065_mvl/mxv
	BYTE	W03
	BYTE		        35*seq_065_mvl/mxv
	BYTE	W03
	BYTE		        32*seq_065_mvl/mxv
	BYTE	W03
	BYTE		        28*seq_065_mvl/mxv
	BYTE	W03
	BYTE		        24*seq_065_mvl/mxv
	BYTE	W03
	BYTE		        19*seq_065_mvl/mxv
	BYTE	W03
	BYTE		        14*seq_065_mvl/mxv
	BYTE	W03
	BYTE		        10*seq_065_mvl/mxv
	BYTE	W03
	BYTE		        6*seq_065_mvl/mxv
	BYTE	W03
	BYTE		        0*seq_065_mvl/mxv
	BYTE	W02
	BYTE	PEND
	BYTE		EOT     An2 
	BYTE	W04
	BYTE		VOL     70*seq_065_mvl/mxv
	BYTE		N72     As2   v088
	BYTE	W09
	BYTE		VOL     72*seq_065_mvl/mxv
	BYTE	W12
	BYTE		        73*seq_065_mvl/mxv
	BYTE	W06
	BYTE		        74*seq_065_mvl/mxv
	BYTE	W03
	BYTE		        75*seq_065_mvl/mxv
	BYTE	W03
	BYTE		        76*seq_065_mvl/mxv
	BYTE	W03
	BYTE		        77*seq_065_mvl/mxv
	BYTE	W03
	BYTE		        77*seq_065_mvl/mxv
	BYTE	W03
	BYTE		        78*seq_065_mvl/mxv
	BYTE	W03
	BYTE		        80*seq_065_mvl/mxv
	BYTE	W03
	BYTE		        81*seq_065_mvl/mxv
	BYTE	W03
	BYTE		        82*seq_065_mvl/mxv
	BYTE	W03
	BYTE		        83*seq_065_mvl/mxv
	BYTE	W03
	BYTE		        82*seq_065_mvl/mxv
	BYTE	W03
	BYTE		        80*seq_065_mvl/mxv
	BYTE	W03
	BYTE		        77*seq_065_mvl/mxv
	BYTE	W03
	BYTE		        75*seq_065_mvl/mxv
	BYTE	W03
	BYTE		        70*seq_065_mvl/mxv
	BYTE	W03
	BYTE		N23     An2   v068
	BYTE	W24
	BYTE	PEND
	BYTE		N68     Gn2   v064
	BYTE	W21
	BYTE		VOL     70*seq_065_mvl/mxv
	BYTE	W06
	BYTE		        69*seq_065_mvl/mxv
	BYTE	W03
	BYTE		        67*seq_065_mvl/mxv
	BYTE	W03
	BYTE		        65*seq_065_mvl/mxv
	BYTE	W03
	BYTE		        62*seq_065_mvl/mxv
	BYTE	W03
	BYTE		        59*seq_065_mvl/mxv
	BYTE	W03
	BYTE		        55*seq_065_mvl/mxv
	BYTE	W03
	BYTE		        50*seq_065_mvl/mxv
	BYTE	W03
	BYTE		        45*seq_065_mvl/mxv
	BYTE	W03
	BYTE		        39*seq_065_mvl/mxv
	BYTE	W03
	BYTE		        33*seq_065_mvl/mxv
	BYTE	W03
	BYTE		        25*seq_065_mvl/mxv
	BYTE	W03
	BYTE		        16*seq_065_mvl/mxv
	BYTE	W03
	BYTE		        7*seq_065_mvl/mxv
	BYTE	W03
	BYTE		        1*seq_065_mvl/mxv
	BYTE	W06
	BYTE		        70*seq_065_mvl/mxv
	BYTE		N12     Fs2   v092
	BYTE	W12
	BYTE		        Gn2   v076
	BYTE	W12
	BYTE	PEND
	BYTE		N48     Cn3   v084
	BYTE	W48
	BYTE		        As2   v064
	BYTE	W48
	BYTE		N92     An2   v048
	BYTE	W12
	BYTE		VOL     71*seq_065_mvl/mxv
	BYTE	W03
	BYTE		        72*seq_065_mvl/mxv
	BYTE	W03
	BYTE		        72*seq_065_mvl/mxv
	BYTE	W03
	BYTE		        74*seq_065_mvl/mxv
	BYTE	W03
	BYTE		        75*seq_065_mvl/mxv
	BYTE	W03
	BYTE		        77*seq_065_mvl/mxv
	BYTE	W03
	BYTE		        78*seq_065_mvl/mxv
	BYTE	W03
	BYTE		        80*seq_065_mvl/mxv
	BYTE	W03
	BYTE		        83*seq_065_mvl/mxv
	BYTE	W03
	BYTE		        85*seq_065_mvl/mxv
	BYTE	W03
	BYTE		        87*seq_065_mvl/mxv
	BYTE	W03
	BYTE		        86*seq_065_mvl/mxv
	BYTE	W06
	BYTE		        85*seq_065_mvl/mxv
	BYTE	W03
	BYTE		        84*seq_065_mvl/mxv
	BYTE	W03
	BYTE		        81*seq_065_mvl/mxv
	BYTE	W03
	BYTE		        78*seq_065_mvl/mxv
	BYTE	W03
	BYTE		        75*seq_065_mvl/mxv
	BYTE	W03
	BYTE		        70*seq_065_mvl/mxv
	BYTE	W03
	BYTE		        65*seq_065_mvl/mxv
	BYTE	W03
	BYTE		        60*seq_065_mvl/mxv
	BYTE	W03
	BYTE		        53*seq_065_mvl/mxv
	BYTE	W03
	BYTE		        46*seq_065_mvl/mxv
	BYTE	W03
	BYTE		        41*seq_065_mvl/mxv
	BYTE	W01
	BYTE		        37*seq_065_mvl/mxv
	BYTE	W02
	BYTE		        33*seq_065_mvl/mxv
	BYTE	W01
	BYTE		        29*seq_065_mvl/mxv
	BYTE	W02
	BYTE		        24*seq_065_mvl/mxv
	BYTE	W01
	BYTE		        19*seq_065_mvl/mxv
	BYTE	W02
	BYTE		        13*seq_065_mvl/mxv
	BYTE	W01
	BYTE		        8*seq_065_mvl/mxv
	BYTE	W02
	BYTE		        2*seq_065_mvl/mxv
	BYTE	W01
	BYTE		        0*seq_065_mvl/mxv
	BYTE	W01
	BYTE	W01
	BYTE	W96
	BYTE	W96
	BYTE	W96
	BYTE	W96
	BYTE	W96
	BYTE	W96
	BYTE	W96
	BYTE	W96
	BYTE	W96
	BYTE	W96
	BYTE	W96
	BYTE	W96
	BYTE	W96
	BYTE	W96
	BYTE	W96
	BYTE	W96
	BYTE	W96
	BYTE	W96
	BYTE	W96
	BYTE	W96
	BYTE	W96
	BYTE	W96
	BYTE	W96
	BYTE	W96
	BYTE	W96
	BYTE	W96
	BYTE	W96
	BYTE	W96
	BYTE	W96
	BYTE	W96
	BYTE	W96
	BYTE	W44
	BYTE	W03
	BYTE		        70*seq_065_mvl/mxv
	BYTE	W01
	BYTE		N23     Cn3   v076
	BYTE	W24
	BYTE		        Dn3   v088
	BYTE	W24
	BYTE	PATT
	 POIN2	seq_065_1 + 0x36
	BYTE	PATT
	 POIN2	seq_065_1 + 0x54
	BYTE	PATT
	 POIN2	seq_065_1 + 0x70
	BYTE	PATT
	 POIN2	seq_065_1 + 0x8D
	BYTE		EOT     An2 
	BYTE	W04
	BYTE	PATT
	 POIN2	seq_065_1 + 0xCF
	BYTE	PATT
	 POIN2	seq_065_1 + 0xFD
	BYTE		N48     Cn3   v084
	BYTE	W48
	BYTE		        As2   v072
	BYTE	W48
	BYTE		N68     An2 
	BYTE	W06
	BYTE		VOL     72*seq_065_mvl/mxv
	BYTE	W06
	BYTE		        72*seq_065_mvl/mxv
	BYTE	W06
	BYTE		        74*seq_065_mvl/mxv
	BYTE	W03
	BYTE		        75*seq_065_mvl/mxv
	BYTE	W03
	BYTE		        77*seq_065_mvl/mxv
	BYTE	W03
	BYTE		        78*seq_065_mvl/mxv
	BYTE	W03
	BYTE		        80*seq_065_mvl/mxv
	BYTE	W09
	BYTE		        79*seq_065_mvl/mxv
	BYTE	W03
	BYTE		        77*seq_065_mvl/mxv
	BYTE	W03
	BYTE		        75*seq_065_mvl/mxv
	BYTE	W03
	BYTE		        72*seq_065_mvl/mxv
	BYTE	W03
	BYTE		        68*seq_065_mvl/mxv
	BYTE	W03
	BYTE		        63*seq_065_mvl/mxv
	BYTE	W03
	BYTE		        58*seq_065_mvl/mxv
	BYTE	W03
	BYTE		        51*seq_065_mvl/mxv
	BYTE	W03
	BYTE		        43*seq_065_mvl/mxv
	BYTE	W03
	BYTE		        34*seq_065_mvl/mxv
	BYTE	W03
	BYTE		        25*seq_065_mvl/mxv
	BYTE	W03
	BYTE		        70*seq_065_mvl/mxv
	BYTE		N24     Fn2   v052
	BYTE	W24
	BYTE		N12     Gn2   v052
	BYTE	W12
	BYTE		        Gs2   v040
	BYTE	W12
	BYTE		        Gn2   v056
	BYTE	W12
	BYTE		        Gs2   v052
	BYTE	W12
	BYTE		        Gn2   v064
	BYTE	W12
	BYTE		        Gs2   v060
	BYTE	W12
	BYTE		        Gn2   v072
	BYTE	W12
	BYTE		        Gs2   v068
	BYTE	W12
	BYTE	PEND
	BYTE		N12     Gn2   v080
	BYTE	W12
	BYTE		        Gs2   v072
	BYTE	W12
	BYTE		        Gn2   v088
	BYTE	W12
	BYTE		        Gs2   v080
	BYTE	W12
	BYTE		        Gn2   v092
	BYTE	W12
	BYTE		        Gs2   v084
	BYTE	W12
	BYTE		        Gn2   v096
	BYTE	W12
	BYTE		        Gs2   v088
	BYTE	W12
	BYTE	PEND
	BYTE		        Gn2   v092
	BYTE	W12
	BYTE		        Gs2   v088
	BYTE	W12
	BYTE		        Gn2   v092
	BYTE	W12
	BYTE		        Gs2   v080
	BYTE	W12
	BYTE		        Gn2   v088
	BYTE	W12
	BYTE		        Gs2   v072
	BYTE	W12
	BYTE		        Gn2   v080
	BYTE	W12
	BYTE		        Gs2   v068
	BYTE	W12
	BYTE		        Gn2   v076
	BYTE	W12
	BYTE		        Gs2   v064
	BYTE	W12
	BYTE		        Gn2   v072
	BYTE	W12
	BYTE		        Gs2   v056
	BYTE	W12
	BYTE		        Gn2   v064
	BYTE	W12
	BYTE		        Gs2   v052
	BYTE	W12
	BYTE		        Gn2   v056
	BYTE	W12
	BYTE		        Gs2   v040
	BYTE	W12
	BYTE	PATT
	 POIN2	seq_065_1 + 0x1F5
	BYTE	PATT
	 POIN2	seq_065_1 + 0x20F
	BYTE		N12     Gn2   v092
	BYTE	W12
	BYTE		        Gs2   v088
	BYTE	W12
	BYTE		        Gn2   v092
	BYTE	W12
	BYTE		        Gs2   v080
	BYTE	W12
	BYTE		        Gn2 
	BYTE	W12
	BYTE		        Gs2   v072
	BYTE	W12
	BYTE		        Gn2   v076
	BYTE	W12
	BYTE		        Gs2   v060
	BYTE	W12
	BYTE		N90     Gn2   v052
	BYTE	W03
	BYTE		VOL     70*seq_065_mvl/mxv
	BYTE	W03
	BYTE		        71*seq_065_mvl/mxv
	BYTE	W06
	BYTE		        72*seq_065_mvl/mxv
	BYTE	W03
	BYTE		        72*seq_065_mvl/mxv
	BYTE	W06
	BYTE		        74*seq_065_mvl/mxv
	BYTE	W03
	BYTE		        75*seq_065_mvl/mxv
	BYTE	W03
	BYTE		        76*seq_065_mvl/mxv
	BYTE	W03
	BYTE		        77*seq_065_mvl/mxv
	BYTE	W03
	BYTE		        80*seq_065_mvl/mxv
	BYTE	W03
	BYTE		        78*seq_065_mvl/mxv
	BYTE	W06
	BYTE		        77*seq_065_mvl/mxv
	BYTE	W03
	BYTE		        75*seq_065_mvl/mxv
	BYTE	W03
	BYTE		        72*seq_065_mvl/mxv
	BYTE	W03
	BYTE		        68*seq_065_mvl/mxv
	BYTE	W03
	BYTE		        63*seq_065_mvl/mxv
	BYTE	W03
	BYTE		        60*seq_065_mvl/mxv
	BYTE	W03
	BYTE		        56*seq_065_mvl/mxv
	BYTE	W03
	BYTE		        51*seq_065_mvl/mxv
	BYTE	W03
	BYTE		        46*seq_065_mvl/mxv
	BYTE	W03
	BYTE		        41*seq_065_mvl/mxv
	BYTE	W03
	BYTE		        35*seq_065_mvl/mxv
	BYTE	W03
	BYTE		        29*seq_065_mvl/mxv
	BYTE	W03
	BYTE		        22*seq_065_mvl/mxv
	BYTE	W03
	BYTE		        17*seq_065_mvl/mxv
	BYTE	W01
	BYTE		        14*seq_065_mvl/mxv
	BYTE	W02
	BYTE		        10*seq_065_mvl/mxv
	BYTE	W01
	BYTE		        6*seq_065_mvl/mxv
	BYTE	W02
	BYTE		        2*seq_065_mvl/mxv
	BYTE	W01
	BYTE		        0*seq_065_mvl/mxv
	BYTE	W05
	BYTE		VOICE   47
	BYTE	W01
	BYTE		PAN     c_v+16
	BYTE	W01
	BYTE		VOL     55*seq_065_mvl/mxv
	BYTE	W01
	BYTE		N48     En3   v092
	BYTE	W01
	BYTE		VOL     63*seq_065_mvl/mxv
	BYTE	W01
	BYTE		        70*seq_065_mvl/mxv
	BYTE	W44
	BYTE	W02
	BYTE		N48     Gn3   v096
	BYTE	W48
	BYTE		N48     Fs3   v088
	BYTE	W48
	BYTE		        Dn3   v084
	BYTE	W48
	BYTE	PEND
	BYTE		N48     Fn3   v096
	BYTE	W48
	BYTE		        Dn3   v084
	BYTE	W48
	BYTE	PEND
	BYTE		N48     En3   v076
	BYTE	W48
	BYTE		        Cn3   v064
	BYTE	W48
	BYTE	PEND
	BYTE		N48     En3   v100
	BYTE	W48
	BYTE		        Gn3   v096
	BYTE	W48
	BYTE	PEND
	BYTE		N48     Fs3   v084
	BYTE	W48
	BYTE		        Dn3 
	BYTE	W48
	BYTE	PEND
	BYTE		N48     Fn3   v096
	BYTE	W48
	BYTE		        Dn3   v088
	BYTE	W48
	BYTE	PEND
	BYTE		N92     En3   v068
	BYTE	W36
	BYTE		VOL     68*seq_065_mvl/mxv
	BYTE	W09
	BYTE		        66*seq_065_mvl/mxv
	BYTE	W03
	BYTE		        65*seq_065_mvl/mxv
	BYTE	W03
	BYTE		        64*seq_065_mvl/mxv
	BYTE	W03
	BYTE		        62*seq_065_mvl/mxv
	BYTE	W03
	BYTE		        60*seq_065_mvl/mxv
	BYTE	W03
	BYTE		        58*seq_065_mvl/mxv
	BYTE	W03
	BYTE		        55*seq_065_mvl/mxv
	BYTE	W03
	BYTE		        52*seq_065_mvl/mxv
	BYTE	W03
	BYTE		        48*seq_065_mvl/mxv
	BYTE	W03
	BYTE		        45*seq_065_mvl/mxv
	BYTE	W03
	BYTE		        41*seq_065_mvl/mxv
	BYTE	W03
	BYTE		        36*seq_065_mvl/mxv
	BYTE	W03
	BYTE		        32*seq_065_mvl/mxv
	BYTE	W03
	BYTE		        27*seq_065_mvl/mxv
	BYTE	W03
	BYTE		        21*seq_065_mvl/mxv
	BYTE	W03
	BYTE		        16*seq_065_mvl/mxv
	BYTE	W03
	BYTE		        10*seq_065_mvl/mxv
	BYTE	W03
	BYTE		        70*seq_065_mvl/mxv
	BYTE		N48     En3   v092
	BYTE	W48
	BYTE		        Gn3   v096
	BYTE	W48
	BYTE	PATT
	 POIN2	seq_065_1 + 0x2D1
	BYTE	PATT
	 POIN2	seq_065_1 + 0x2D9
	BYTE	PATT
	 POIN2	seq_065_1 + 0x2E1
	BYTE	PATT
	 POIN2	seq_065_1 + 0x2E9
	BYTE	PATT
	 POIN2	seq_065_1 + 0x2F1
	BYTE	PATT
	 POIN2	seq_065_1 + 0x2D9
	BYTE		TIE     En3   v068
	BYTE	W42
	BYTE		VOL     69*seq_065_mvl/mxv
	BYTE	W18
	BYTE		        67*seq_065_mvl/mxv
	BYTE	W06
	BYTE		        65*seq_065_mvl/mxv
	BYTE	W06
	BYTE		        64*seq_065_mvl/mxv
	BYTE	W06
	BYTE		        63*seq_065_mvl/mxv
	BYTE	W06
	BYTE		        61*seq_065_mvl/mxv
	BYTE	W06
	BYTE		        59*seq_065_mvl/mxv
	BYTE	W06
	BYTE		        57*seq_065_mvl/mxv
	BYTE	W06
	BYTE		        55*seq_065_mvl/mxv
	BYTE	W06
	BYTE		        52*seq_065_mvl/mxv
	BYTE	W06
	BYTE		        49*seq_065_mvl/mxv
	BYTE	W06
	BYTE		        47*seq_065_mvl/mxv
	BYTE	W06
	BYTE		        43*seq_065_mvl/mxv
	BYTE	W06
	BYTE		        41*seq_065_mvl/mxv
	BYTE	W06
	BYTE		        36*seq_065_mvl/mxv
	BYTE	W06
	BYTE		        32*seq_065_mvl/mxv
	BYTE	W06
	BYTE		        29*seq_065_mvl/mxv
	BYTE	W06
	BYTE		        24*seq_065_mvl/mxv
	BYTE	W06
	BYTE		        19*seq_065_mvl/mxv
	BYTE	W03
	BYTE		        18*seq_065_mvl/mxv
	BYTE	W03
	BYTE		        15*seq_065_mvl/mxv
	BYTE	W03
	BYTE		        14*seq_065_mvl/mxv
	BYTE	W03
	BYTE		        11*seq_065_mvl/mxv
	BYTE	W03
	BYTE		        9*seq_065_mvl/mxv
	BYTE	W03
	BYTE		        7*seq_065_mvl/mxv
	BYTE	W03
	BYTE		        4*seq_065_mvl/mxv
	BYTE	W03
	BYTE		        3*seq_065_mvl/mxv
	BYTE	W04
	BYTE		EOT
	BYTE	W01
	BYTE	W01
	BYTE	W96
	BYTE	W96
	BYTE	W96
	BYTE	W96
	BYTE	W96
	BYTE	W96
	BYTE	W96
	BYTE	W96
	BYTE	W96
	BYTE	W96
	BYTE	W96
	BYTE	W96
	BYTE	W96
	BYTE	W96
	BYTE	W96
	BYTE	W96
	BYTE	W96
	BYTE	W96
	BYTE	W96
	BYTE	W96
	BYTE	W96
	BYTE	W96
	BYTE	W96
	BYTE	W96
	BYTE	W96
	BYTE	W96
	BYTE	W96
	BYTE	W96
	BYTE	W96
	BYTE	W96
	BYTE	W96
	BYTE	W68
	BYTE	W02
	BYTE	W01
	BYTE		VOL     70*seq_065_mvl/mxv
	BYTE	W01
	BYTE		N06     An2   v092
	BYTE	W06
	BYTE		        Bn2   v088
	BYTE	W06
	BYTE		        Cn3   v100
	BYTE	W06
	BYTE		        Dn3   v092
	BYTE	W06
	BYTE		N48     En3   v104
	BYTE	W48
	BYTE		        Gn3 
	BYTE	W48
	BYTE		        Fs3   v088
	BYTE	W48
	BYTE		        Dn3   v096
	BYTE	W48
	BYTE	PATT
	 POIN2	seq_065_1 + 0x2F8
	BYTE		N48     En3   v080
	BYTE	W48
	BYTE		        Cn3   v072
	BYTE	W48
	BYTE	PEND
	BYTE		        En3   v104
	BYTE	W48
	BYTE		        Gn3 
	BYTE	W48
	BYTE		N48     Fs3   v092
	BYTE	W48
	BYTE		        Dn3 
	BYTE	W48
	BYTE	PEND
	BYTE		N48     Fn3   v100
	BYTE	W48
	BYTE		        Dn3   v088
	BYTE	W48
	BYTE	PEND
	BYTE		N92     En3   v072
	BYTE	W36
	BYTE		VOL     68*seq_065_mvl/mxv
	BYTE	W09
	BYTE		        66*seq_065_mvl/mxv
	BYTE	W03
	BYTE		        65*seq_065_mvl/mxv
	BYTE	W03
	BYTE		        64*seq_065_mvl/mxv
	BYTE	W03
	BYTE		        62*seq_065_mvl/mxv
	BYTE	W03
	BYTE		        60*seq_065_mvl/mxv
	BYTE	W03
	BYTE		        58*seq_065_mvl/mxv
	BYTE	W03
	BYTE		        55*seq_065_mvl/mxv
	BYTE	W03
	BYTE		        52*seq_065_mvl/mxv
	BYTE	W03
	BYTE		        48*seq_065_mvl/mxv
	BYTE	W03
	BYTE		        45*seq_065_mvl/mxv
	BYTE	W03
	BYTE		        41*seq_065_mvl/mxv
	BYTE	W03
	BYTE		        36*seq_065_mvl/mxv
	BYTE	W03
	BYTE		        32*seq_065_mvl/mxv
	BYTE	W03
	BYTE		        27*seq_065_mvl/mxv
	BYTE	W03
	BYTE		        21*seq_065_mvl/mxv
	BYTE	W03
	BYTE		        16*seq_065_mvl/mxv
	BYTE	W03
	BYTE		        10*seq_065_mvl/mxv
	BYTE	W03
	BYTE		        70*seq_065_mvl/mxv
	BYTE		N48     En3   v100
	BYTE	W48
	BYTE		        Gn3   v104
	BYTE	W48
	BYTE		        Fs3   v096
	BYTE	W48
	BYTE		        Dn3 
	BYTE	W48
	BYTE		        Fn3 
	BYTE	W48
	BYTE		N44     Dn3   v088
	BYTE	W48
	BYTE	PATT
	 POIN2	seq_065_1 + 0x3D0
	BYTE		N48     En3   v104
	BYTE	W48
	BYTE		        Gn3 
	BYTE	W48
	BYTE	PATT
	 POIN2	seq_065_1 + 0x3DD
	BYTE	PATT
	 POIN2	seq_065_1 + 0x3E4
	BYTE		N90     En3   v072
	BYTE	W03
	BYTE		VOL     72*seq_065_mvl/mxv
	BYTE	W09
	BYTE		        72*seq_065_mvl/mxv
	BYTE	W03
	BYTE		        73*seq_065_mvl/mxv
	BYTE	W06
	BYTE		        75*seq_065_mvl/mxv
	BYTE	W03
	BYTE		        75*seq_065_mvl/mxv
	BYTE	W03
	BYTE		        76*seq_065_mvl/mxv
	BYTE	W03
	BYTE		        77*seq_065_mvl/mxv
	BYTE	W03
	BYTE		        79*seq_065_mvl/mxv
	BYTE	W03
	BYTE		        80*seq_065_mvl/mxv
	BYTE	W03
	BYTE		        83*seq_065_mvl/mxv
	BYTE	W06
	BYTE		        82*seq_065_mvl/mxv
	BYTE	W03
	BYTE		        82*seq_065_mvl/mxv
	BYTE	W03
	BYTE		        81*seq_065_mvl/mxv
	BYTE	W03
	BYTE		        79*seq_065_mvl/mxv
	BYTE	W03
	BYTE		        77*seq_065_mvl/mxv
	BYTE	W03
	BYTE		        75*seq_065_mvl/mxv
	BYTE	W03
	BYTE		        72*seq_065_mvl/mxv
	BYTE	W03
	BYTE		        68*seq_065_mvl/mxv
	BYTE	W03
	BYTE		        65*seq_065_mvl/mxv
	BYTE	W03
	BYTE		        60*seq_065_mvl/mxv
	BYTE	W03
	BYTE		        55*seq_065_mvl/mxv
	BYTE	W03
	BYTE		        47*seq_065_mvl/mxv
	BYTE	W03
	BYTE		        39*seq_065_mvl/mxv
	BYTE	W01
	BYTE		        31*seq_065_mvl/mxv
	BYTE	W02
	BYTE		        23*seq_065_mvl/mxv
	BYTE	W01
	BYTE		        17*seq_065_mvl/mxv
	BYTE	W02
	BYTE		        11*seq_065_mvl/mxv
	BYTE	W01
	BYTE		        5*seq_065_mvl/mxv
	BYTE	W05
	BYTE		VOICE   45
	BYTE	W01
	BYTE		PAN     c_v+0
	BYTE		VOL     70*seq_065_mvl/mxv
	BYTE	W01
	BYTE		BENDR   12
	BYTE	W01
	BYTE		N06     Gn2   v100
	BYTE	W06
	BYTE		N05     Gs2   v092
	BYTE	W06
	BYTE		N06     Cn3 
	BYTE	W06
	BYTE		        Ds3   v088
	BYTE	W06
	BYTE		N48     Gn3   v092
	BYTE	W21
	BYTE		VOL     72*seq_065_mvl/mxv
	BYTE	W03
	BYTE		        70*seq_065_mvl/mxv
	BYTE	W03
	BYTE		        67*seq_065_mvl/mxv
	BYTE	W03
	BYTE		        63*seq_065_mvl/mxv
	BYTE	W03
	BYTE		        59*seq_065_mvl/mxv
	BYTE	W03
	BYTE		        53*seq_065_mvl/mxv
	BYTE	W03
	BYTE		        48*seq_065_mvl/mxv
	BYTE	W03
	BYTE		        41*seq_065_mvl/mxv
	BYTE	W03
	BYTE		        33*seq_065_mvl/mxv
	BYTE	W03
	BYTE		        73*seq_065_mvl/mxv
	BYTE		N12     Fn3   v084
	BYTE	W12
	BYTE		        Ds3   v076
	BYTE	W12
	BYTE		N07     Dn3   v080
	BYTE	W08
	BYTE		        Ds3   v088
	BYTE	W08
	BYTE		N06     Fn3   v096
	BYTE	W08
	BYTE		N68     As2   v084
	BYTE	W09
	BYTE		VOL     68*seq_065_mvl/mxv
	BYTE	W09
	BYTE		        67*seq_065_mvl/mxv
	BYTE	W03
	BYTE		        66*seq_065_mvl/mxv
	BYTE	W03
	BYTE		        64*seq_065_mvl/mxv
	BYTE	W03
	BYTE		        63*seq_065_mvl/mxv
	BYTE	W03
	BYTE		        60*seq_065_mvl/mxv
	BYTE	W03
	BYTE		        58*seq_065_mvl/mxv
	BYTE	W03
	BYTE		        55*seq_065_mvl/mxv
	BYTE	W03
	BYTE		        51*seq_065_mvl/mxv
	BYTE	W03
	BYTE		        48*seq_065_mvl/mxv
	BYTE	W03
	BYTE		        44*seq_065_mvl/mxv
	BYTE	W03
	BYTE		        40*seq_065_mvl/mxv
	BYTE	W03
	BYTE		        35*seq_065_mvl/mxv
	BYTE	W03
	BYTE		        30*seq_065_mvl/mxv
	BYTE	W03
	BYTE		        25*seq_065_mvl/mxv
	BYTE	W03
	BYTE		        19*seq_065_mvl/mxv
	BYTE	W03
	BYTE		        14*seq_065_mvl/mxv
	BYTE	W01
	BYTE		        10*seq_065_mvl/mxv
	BYTE	W02
	BYTE		        7*seq_065_mvl/mxv
	BYTE	W01
	BYTE		        3*seq_065_mvl/mxv
	BYTE	W02
	BYTE		        0*seq_065_mvl/mxv
	BYTE	W03
	BYTE		        70*seq_065_mvl/mxv
	BYTE		N06     Gn2   v096
	BYTE	W06
	BYTE		N05     Gs2   v092
	BYTE	W06
	BYTE		N06     Cn3   v088
	BYTE	W06
	BYTE		        Ds3 
	BYTE	W06
	BYTE		N36     Gn3 
	BYTE	W36
	BYTE		N12     Fn3   v076
	BYTE	W12
	BYTE		        As3 
	BYTE	W12
	BYTE		        Gn3 
	BYTE	W12
	BYTE		N92     Dn3 
	BYTE	W06
	BYTE		VOL     71*seq_065_mvl/mxv
	BYTE	W06
	BYTE		        72*seq_065_mvl/mxv
	BYTE	W03
	BYTE		        72*seq_065_mvl/mxv
	BYTE	W03
	BYTE		        74*seq_065_mvl/mxv
	BYTE	W03
	BYTE		        76*seq_065_mvl/mxv
	BYTE	W03
	BYTE		        77*seq_065_mvl/mxv
	BYTE	W06
	BYTE		        77*seq_065_mvl/mxv
	BYTE	W03
	BYTE		        76*seq_065_mvl/mxv
	BYTE	W03
	BYTE		        75*seq_065_mvl/mxv
	BYTE	W03
	BYTE		        73*seq_065_mvl/mxv
	BYTE	W03
	BYTE		        72*seq_065_mvl/mxv
	BYTE	W03
	BYTE		        70*seq_065_mvl/mxv
	BYTE	W03
	BYTE		        67*seq_065_mvl/mxv
	BYTE	W03
	BYTE		        65*seq_065_mvl/mxv
	BYTE	W03
	BYTE		        61*seq_065_mvl/mxv
	BYTE	W03
	BYTE		        58*seq_065_mvl/mxv
	BYTE	W03
	BYTE		        54*seq_065_mvl/mxv
	BYTE	W03
	BYTE		        50*seq_065_mvl/mxv
	BYTE	W03
	BYTE		        46*seq_065_mvl/mxv
	BYTE	W03
	BYTE		        41*seq_065_mvl/mxv
	BYTE	W03
	BYTE		        36*seq_065_mvl/mxv
	BYTE	W03
	BYTE		        31*seq_065_mvl/mxv
	BYTE	W03
	BYTE		        25*seq_065_mvl/mxv
	BYTE	W03
	BYTE		        19*seq_065_mvl/mxv
	BYTE	W01
	BYTE		        16*seq_065_mvl/mxv
	BYTE	W02
	BYTE		        12*seq_065_mvl/mxv
	BYTE	W01
	BYTE		        9*seq_065_mvl/mxv
	BYTE	W02
	BYTE		        7*seq_065_mvl/mxv
	BYTE	W01
	BYTE		        3*seq_065_mvl/mxv
	BYTE	W02
	BYTE		        1*seq_065_mvl/mxv
	BYTE	W01
	BYTE		        0*seq_065_mvl/mxv
	BYTE	W02
	BYTE		        0*seq_065_mvl/mxv
	BYTE	W03
	BYTE		        70*seq_065_mvl/mxv
	BYTE		N06     Gn2   v096
	BYTE	W06
	BYTE		N05     Gs2   v092
	BYTE	W06
	BYTE		N06     Cn3 
	BYTE	W06
	BYTE		        Ds3   v088
	BYTE	W06
	BYTE		N48     Gn3   v100
	BYTE	W48
	BYTE		N12     Fn3   v092
	BYTE	W12
	BYTE		        Ds3   v084
	BYTE	W12
	BYTE		N07     Dn3   v092
	BYTE	W08
	BYTE		        Ds3   v104
	BYTE	W08
	BYTE		N06     Fn3 
	BYTE	W08
	BYTE		N68     As2   v096
	BYTE	W09
	BYTE		VOL     68*seq_065_mvl/mxv
	BYTE	W09
	BYTE		        67*seq_065_mvl/mxv
	BYTE	W03
	BYTE		        66*seq_065_mvl/mxv
	BYTE	W03
	BYTE		        64*seq_065_mvl/mxv
	BYTE	W03
	BYTE		        63*seq_065_mvl/mxv
	BYTE	W03
	BYTE		        60*seq_065_mvl/mxv
	BYTE	W03
	BYTE		        58*seq_065_mvl/mxv
	BYTE	W03
	BYTE		        55*seq_065_mvl/mxv
	BYTE	W03
	BYTE		        51*seq_065_mvl/mxv
	BYTE	W03
	BYTE		        48*seq_065_mvl/mxv
	BYTE	W03
	BYTE		        44*seq_065_mvl/mxv
	BYTE	W03
	BYTE		        40*seq_065_mvl/mxv
	BYTE	W03
	BYTE		        35*seq_065_mvl/mxv
	BYTE	W03
	BYTE		        30*seq_065_mvl/mxv
	BYTE	W03
	BYTE		        25*seq_065_mvl/mxv
	BYTE	W03
	BYTE		        19*seq_065_mvl/mxv
	BYTE	W03
	BYTE		        14*seq_065_mvl/mxv
	BYTE	W01
	BYTE		        10*seq_065_mvl/mxv
	BYTE	W02
	BYTE		        7*seq_065_mvl/mxv
	BYTE	W01
	BYTE		        3*seq_065_mvl/mxv
	BYTE	W02
	BYTE		        0*seq_065_mvl/mxv
	BYTE	W03
	BYTE		        70*seq_065_mvl/mxv
	BYTE		N06     Gn2 
	BYTE	W06
	BYTE		N05     Gs2   v092
	BYTE	W06
	BYTE		N06     Cn3   v096
	BYTE	W06
	BYTE		        Ds3   v100
	BYTE	W06
	BYTE		N36     Gn3   v092
	BYTE	W36
	BYTE		N12     Fn3   v088
	BYTE	W12
	BYTE		        As3   v080
	BYTE	W12
	BYTE		        Gn3   v076
	BYTE	W12
	BYTE		N72     Dn3   v072
	BYTE	W04
	BYTE		VOL     72*seq_065_mvl/mxv
	BYTE	W02
	BYTE		        72*seq_065_mvl/mxv
	BYTE	W09
	BYTE		        73*seq_065_mvl/mxv
	BYTE	W03
	BYTE		        74*seq_065_mvl/mxv
	BYTE	W03
	BYTE		        75*seq_065_mvl/mxv
	BYTE	W01
	BYTE		        75*seq_065_mvl/mxv
	BYTE	W02
	BYTE		        76*seq_065_mvl/mxv
	BYTE	W01
	BYTE		        77*seq_065_mvl/mxv
	BYTE	W02
	BYTE		        77*seq_065_mvl/mxv
	BYTE	W01
	BYTE		        78*seq_065_mvl/mxv
	BYTE	W02
	BYTE		        79*seq_065_mvl/mxv
	BYTE	W01
	BYTE		        80*seq_065_mvl/mxv
	BYTE	W02
	BYTE		        80*seq_065_mvl/mxv
	BYTE	W01
	BYTE		        81*seq_065_mvl/mxv
	BYTE	W02
	BYTE		        82*seq_065_mvl/mxv
	BYTE	W01
	BYTE		        83*seq_065_mvl/mxv
	BYTE	W02
	BYTE		        84*seq_065_mvl/mxv
	BYTE	W01
	BYTE		        85*seq_065_mvl/mxv
	BYTE	W05
	BYTE		        85*seq_065_mvl/mxv
	BYTE	W03
	BYTE		        84*seq_065_mvl/mxv
	BYTE	W03
	BYTE		        83*seq_065_mvl/mxv
	BYTE	W01
	BYTE		        82*seq_065_mvl/mxv
	BYTE	W02
	BYTE		        81*seq_065_mvl/mxv
	BYTE	W03
	BYTE		        80*seq_065_mvl/mxv
	BYTE	W01
	BYTE		        79*seq_065_mvl/mxv
	BYTE	W02
	BYTE		        77*seq_065_mvl/mxv
	BYTE	W01
	BYTE		        76*seq_065_mvl/mxv
	BYTE	W02
	BYTE		        75*seq_065_mvl/mxv
	BYTE	W01
	BYTE		        73*seq_065_mvl/mxv
	BYTE	W02
	BYTE		        72*seq_065_mvl/mxv
	BYTE	W01
	BYTE		        70*seq_065_mvl/mxv
	BYTE	W05
	BYTE		N11     As2   v080
	BYTE	W12
	BYTE		        Dn3   v076
	BYTE	W12
	BYTE		TIE     Cn3 
	BYTE	W03
	BYTE		VOL     71*seq_065_mvl/mxv
	BYTE	W06
	BYTE		        72*seq_065_mvl/mxv
	BYTE	W03
	BYTE		        72*seq_065_mvl/mxv
	BYTE	W03
	BYTE		        73*seq_065_mvl/mxv
	BYTE	W03
	BYTE		        74*seq_065_mvl/mxv
	BYTE	W03
	BYTE		        75*seq_065_mvl/mxv
	BYTE	W03
	BYTE		        77*seq_065_mvl/mxv
	BYTE	W03
	BYTE		        80*seq_065_mvl/mxv
	BYTE	W03
	BYTE		        81*seq_065_mvl/mxv
	BYTE	W03
	BYTE		        82*seq_065_mvl/mxv
	BYTE	W03
	BYTE		        83*seq_065_mvl/mxv
	BYTE	W03
	BYTE		        82*seq_065_mvl/mxv
	BYTE	W03
	BYTE		        82*seq_065_mvl/mxv
	BYTE	W03
	BYTE		        81*seq_065_mvl/mxv
	BYTE	W03
	BYTE		        80*seq_065_mvl/mxv
	BYTE	W03
	BYTE		        79*seq_065_mvl/mxv
	BYTE	W03
	BYTE		        78*seq_065_mvl/mxv
	BYTE	W03
	BYTE		        77*seq_065_mvl/mxv
	BYTE	W03
	BYTE		        75*seq_065_mvl/mxv
	BYTE	W03
	BYTE		        73*seq_065_mvl/mxv
	BYTE	W03
	BYTE		        72*seq_065_mvl/mxv
	BYTE	W03
	BYTE		        70*seq_065_mvl/mxv
	BYTE	W03
	BYTE		        68*seq_065_mvl/mxv
	BYTE	W03
	BYTE		        66*seq_065_mvl/mxv
	BYTE	W03
	BYTE		        65*seq_065_mvl/mxv
	BYTE	W03
	BYTE		        63*seq_065_mvl/mxv
	BYTE	W03
	BYTE		        60*seq_065_mvl/mxv
	BYTE	W03
	BYTE		        58*seq_065_mvl/mxv
	BYTE	W03
	BYTE		        55*seq_065_mvl/mxv
	BYTE	W03
	BYTE		        53*seq_065_mvl/mxv
	BYTE	W03
	BYTE		        50*seq_065_mvl/mxv
	BYTE	W03
	BYTE		        47*seq_065_mvl/mxv
	BYTE	W03
	BYTE		        44*seq_065_mvl/mxv
	BYTE	W03
	BYTE		        41*seq_065_mvl/mxv
	BYTE	W03
	BYTE		        38*seq_065_mvl/mxv
	BYTE	W03
	BYTE		        34*seq_065_mvl/mxv
	BYTE	W03
	BYTE		        31*seq_065_mvl/mxv
	BYTE	W03
	BYTE		        27*seq_065_mvl/mxv
	BYTE	W03
	BYTE		        24*seq_065_mvl/mxv
	BYTE	W03
	BYTE		        20*seq_065_mvl/mxv
	BYTE	W03
	BYTE		        16*seq_065_mvl/mxv
	BYTE	W03
	BYTE		        12*seq_065_mvl/mxv
	BYTE	W03
	BYTE		        8*seq_065_mvl/mxv
	BYTE	W03
	BYTE		        4*seq_065_mvl/mxv
	BYTE	W03
	BYTE		        1*seq_065_mvl/mxv
	BYTE	W04
	BYTE		EOT
	BYTE	W02
	BYTE		VOL     70*seq_065_mvl/mxv
	BYTE		N24     Cn3   v088
	BYTE	W24
	BYTE		        Dn3   v096
	BYTE	W15
	BYTE		VOL     70*seq_065_mvl/mxv
	BYTE	W03
	BYTE		        68*seq_065_mvl/mxv
	BYTE	W03
	BYTE		        65*seq_065_mvl/mxv
	BYTE	W03
	BYTE		TIE     Ds3 
	BYTE	W09
	BYTE		VOL     65*seq_065_mvl/mxv
	BYTE	W03
	BYTE		        66*seq_065_mvl/mxv
	BYTE	W03
	BYTE		        67*seq_065_mvl/mxv
	BYTE	W03
	BYTE		        69*seq_065_mvl/mxv
	BYTE	W03
	BYTE		        70*seq_065_mvl/mxv
	BYTE	W03
	BYTE		        73*seq_065_mvl/mxv
	BYTE	W03
	BYTE		        76*seq_065_mvl/mxv
	BYTE	W03
	BYTE		        77*seq_065_mvl/mxv
	BYTE	W03
	BYTE		        78*seq_065_mvl/mxv
	BYTE	W03
	BYTE		        80*seq_065_mvl/mxv
	BYTE	W03
	BYTE		        81*seq_065_mvl/mxv
	BYTE	W03
	BYTE		        82*seq_065_mvl/mxv
	BYTE	W06
	BYTE		        82*seq_065_mvl/mxv
	BYTE	W06
	BYTE		        81*seq_065_mvl/mxv
	BYTE	W03
	BYTE		        80*seq_065_mvl/mxv
	BYTE	W03
	BYTE		        79*seq_065_mvl/mxv
	BYTE	W03
	BYTE		        77*seq_065_mvl/mxv
	BYTE	W03
	BYTE		        76*seq_065_mvl/mxv
	BYTE	W03
	BYTE		        75*seq_065_mvl/mxv
	BYTE	W03
	BYTE		        72*seq_065_mvl/mxv
	BYTE	W03
	BYTE		        71*seq_065_mvl/mxv
	BYTE	W03
	BYTE		        68*seq_065_mvl/mxv
	BYTE	W03
	BYTE		        66*seq_065_mvl/mxv
	BYTE	W03
	BYTE		        63*seq_065_mvl/mxv
	BYTE	W03
	BYTE		        60*seq_065_mvl/mxv
	BYTE	W03
	BYTE		        58*seq_065_mvl/mxv
	BYTE	W03
	BYTE		        54*seq_065_mvl/mxv
	BYTE	W03
	BYTE		VOL     51*seq_065_mvl/mxv
	BYTE	W03
	BYTE		        47*seq_065_mvl/mxv
	BYTE	W03
	BYTE		        43*seq_065_mvl/mxv
	BYTE	W03
	BYTE		        39*seq_065_mvl/mxv
	BYTE	W03
	BYTE		        35*seq_065_mvl/mxv
	BYTE	W03
	BYTE		        31*seq_065_mvl/mxv
	BYTE	W03
	BYTE		        26*seq_065_mvl/mxv
	BYTE	W03
	BYTE		        21*seq_065_mvl/mxv
	BYTE	W03
	BYTE		        16*seq_065_mvl/mxv
	BYTE	W03
	BYTE		        11*seq_065_mvl/mxv
	BYTE	W03
	BYTE		        6*seq_065_mvl/mxv
	BYTE	W04
	BYTE	PEND
	BYTE		EOT     Ds3 
	BYTE	W02
	BYTE		VOL     70*seq_065_mvl/mxv
	BYTE		N11     Ds3   v084
	BYTE	W12
	BYTE		N18     Fn3   v096
	BYTE	W18
	BYTE		        Ds3 
	BYTE	W18
	BYTE		N11     Fn3   v100
	BYTE	W12
	BYTE		N48     Gn3   v100
	BYTE	W24
	BYTE		VOL     69*seq_065_mvl/mxv
	BYTE	W06
	BYTE		        68*seq_065_mvl/mxv
	BYTE	W03
	BYTE		        67*seq_065_mvl/mxv
	BYTE	W03
	BYTE		        64*seq_065_mvl/mxv
	BYTE	W03
	BYTE		        61*seq_065_mvl/mxv
	BYTE	W03
	BYTE		        58*seq_065_mvl/mxv
	BYTE	W03
	BYTE		        53*seq_065_mvl/mxv
	BYTE	W03
	BYTE		        70*seq_065_mvl/mxv
	BYTE		N80     En3   v072
	BYTE	W03
	BYTE		VOL     71*seq_065_mvl/mxv
	BYTE	W03
	BYTE		        72*seq_065_mvl/mxv
	BYTE	W03
	BYTE		        72*seq_065_mvl/mxv
	BYTE	W03
	BYTE		        74*seq_065_mvl/mxv
	BYTE	W03
	BYTE		        76*seq_065_mvl/mxv
	BYTE	W03
	BYTE		        79*seq_065_mvl/mxv
	BYTE	W12
	BYTE		        78*seq_065_mvl/mxv
	BYTE	W03
	BYTE		        77*seq_065_mvl/mxv
	BYTE	W03
	BYTE		        75*seq_065_mvl/mxv
	BYTE	W03
	BYTE		        73*seq_065_mvl/mxv
	BYTE	W03
	BYTE		        71*seq_065_mvl/mxv
	BYTE	W03
	BYTE		        68*seq_065_mvl/mxv
	BYTE	W03
	BYTE		        65*seq_065_mvl/mxv
	BYTE	W03
	BYTE		        62*seq_065_mvl/mxv
	BYTE	W03
	BYTE		        58*seq_065_mvl/mxv
	BYTE	W03
	BYTE		        53*seq_065_mvl/mxv
	BYTE	W03
	BYTE		        48*seq_065_mvl/mxv
	BYTE	W03
	BYTE		        43*seq_065_mvl/mxv
	BYTE	W03
	BYTE		        38*seq_065_mvl/mxv
	BYTE	W03
	BYTE		        32*seq_065_mvl/mxv
	BYTE	W03
	BYTE		        28*seq_065_mvl/mxv
	BYTE	W01
	BYTE		        24*seq_065_mvl/mxv
	BYTE	W02
	BYTE		        19*seq_065_mvl/mxv
	BYTE	W01
	BYTE		        15*seq_065_mvl/mxv
	BYTE	W02
	BYTE		        9*seq_065_mvl/mxv
	BYTE	W01
	BYTE		        5*seq_065_mvl/mxv
	BYTE	W02
	BYTE		        2*seq_065_mvl/mxv
	BYTE	W03
	BYTE		        70*seq_065_mvl/mxv
	BYTE		N11     En3   v084
	BYTE	W12
	BYTE		N18     Fn3   v096
	BYTE	W18
	BYTE		        En3 
	BYTE	W18
	BYTE		N11     Fn3   v100
	BYTE	W12
	BYTE		BEND    c_v-27
	BYTE		TIE     Cn4 
	BYTE	W06
	BYTE		VOL     69*seq_065_mvl/mxv
	BYTE	W06
	BYTE		        68*seq_065_mvl/mxv
	BYTE	W06
	BYTE		        65*seq_065_mvl/mxv
	BYTE	W03
	BYTE		        63*seq_065_mvl/mxv
	BYTE	W03
	BYTE		        58*seq_065_mvl/mxv
	BYTE	W03
	BYTE		        53*seq_065_mvl/mxv
	BYTE	W03
	BYTE		        48*seq_065_mvl/mxv
	BYTE	W03
	BYTE		        46*seq_065_mvl/mxv
	BYTE	W03
	BYTE		        41*seq_065_mvl/mxv
	BYTE	W03
	BYTE		        39*seq_065_mvl/mxv
	BYTE	W02
	BYTE		BEND    c_v-25
	BYTE	W01
	BYTE		VOL     35*seq_065_mvl/mxv
	BYTE		BEND    c_v-20
	BYTE	W01
	BYTE		        c_v-16
	BYTE	W01
	BYTE		        c_v-12
	BYTE	W01
	BYTE		VOL     32*seq_065_mvl/mxv
	BYTE		BEND    c_v-10
	BYTE	W01
	BYTE		        c_v-6
	BYTE	W01
	BYTE		        c_v-4
	BYTE	W01
	BYTE		        c_v+0
	BYTE	W03
	BYTE		VOL     34*seq_065_mvl/mxv
	BYTE	W06
	BYTE		        38*seq_065_mvl/mxv
	BYTE	W06
	BYTE		        41*seq_065_mvl/mxv
	BYTE	W09
	BYTE		        44*seq_065_mvl/mxv
	BYTE	W03
	BYTE		        46*seq_065_mvl/mxv
	BYTE	W03
	BYTE		        47*seq_065_mvl/mxv
	BYTE	W03
	BYTE		        49*seq_065_mvl/mxv
	BYTE	W03
	BYTE		        51*seq_065_mvl/mxv
	BYTE	W03
	BYTE		        53*seq_065_mvl/mxv
	BYTE	W03
	BYTE		        55*seq_065_mvl/mxv
	BYTE	W03
	BYTE		        55*seq_065_mvl/mxv
	BYTE	W03
	BYTE	W03
	BYTE		        55*seq_065_mvl/mxv
	BYTE	W03
	BYTE		        54*seq_065_mvl/mxv
	BYTE	W03
	BYTE		        53*seq_065_mvl/mxv
	BYTE	W03
	BYTE		        51*seq_065_mvl/mxv
	BYTE	W03
	BYTE		        48*seq_065_mvl/mxv
	BYTE	W03
	BYTE		        46*seq_065_mvl/mxv
	BYTE	W03
	BYTE		        43*seq_065_mvl/mxv
	BYTE	W03
	BYTE		        39*seq_065_mvl/mxv
	BYTE	W03
	BYTE		        35*seq_065_mvl/mxv
	BYTE	W03
	BYTE		        31*seq_065_mvl/mxv
	BYTE	W03
	BYTE		        28*seq_065_mvl/mxv
	BYTE	W01
	BYTE		        24*seq_065_mvl/mxv
	BYTE	W02
	BYTE		        21*seq_065_mvl/mxv
	BYTE	W01
	BYTE		        17*seq_065_mvl/mxv
	BYTE	W02
	BYTE		        14*seq_065_mvl/mxv
	BYTE	W01
	BYTE		        10*seq_065_mvl/mxv
	BYTE	W02
	BYTE		        7*seq_065_mvl/mxv
	BYTE	W01
	BYTE		        3*seq_065_mvl/mxv
	BYTE	W02
	BYTE		        0*seq_065_mvl/mxv
	BYTE	W01
	BYTE		EOT
	BYTE	W02
	BYTE		VOL     70*seq_065_mvl/mxv
	BYTE		N17     As3   v084
	BYTE	W18
	BYTE		        Gs3   v076
	BYTE	W18
	BYTE		N11     As3 
	BYTE	W12
	BYTE		N48     Gn3 
	BYTE	W48
	BYTE		N92     En3   v068
	BYTE	W03
	BYTE		VOL     72*seq_065_mvl/mxv
	BYTE	W03
	BYTE		        72*seq_065_mvl/mxv
	BYTE	W06
	BYTE		        74*seq_065_mvl/mxv
	BYTE	W03
	BYTE		        75*seq_065_mvl/mxv
	BYTE	W03
	BYTE		        77*seq_065_mvl/mxv
	BYTE	W03
	BYTE		        80*seq_065_mvl/mxv
	BYTE	W03
	BYTE		        81*seq_065_mvl/mxv
	BYTE	W09
	BYTE		        80*seq_065_mvl/mxv
	BYTE	W03
	BYTE		        79*seq_065_mvl/mxv
	BYTE	W03
	BYTE		        77*seq_065_mvl/mxv
	BYTE	W03
	BYTE		        76*seq_065_mvl/mxv
	BYTE	W03
	BYTE		        74*seq_065_mvl/mxv
	BYTE	W03
	BYTE		        72*seq_065_mvl/mxv
	BYTE	W03
	BYTE		        70*seq_065_mvl/mxv
	BYTE	W03
	BYTE		        67*seq_065_mvl/mxv
	BYTE	W03
	BYTE		        64*seq_065_mvl/mxv
	BYTE	W03
	BYTE		        60*seq_065_mvl/mxv
	BYTE	W03
	BYTE		        57*seq_065_mvl/mxv
	BYTE	W03
	BYTE		        53*seq_065_mvl/mxv
	BYTE	W03
	BYTE		        49*seq_065_mvl/mxv
	BYTE	W03
	BYTE		        45*seq_065_mvl/mxv
	BYTE	W03
	BYTE		        40*seq_065_mvl/mxv
	BYTE	W03
	BYTE		        35*seq_065_mvl/mxv
	BYTE	W03
	BYTE		        30*seq_065_mvl/mxv
	BYTE	W03
	BYTE		        24*seq_065_mvl/mxv
	BYTE	W03
	BYTE		        19*seq_065_mvl/mxv
	BYTE	W03
	BYTE		        12*seq_065_mvl/mxv
	BYTE	W03
	BYTE		        6*seq_065_mvl/mxv
	BYTE	W03
	BYTE		        70*seq_065_mvl/mxv
	BYTE		N24     Cn3   v084
	BYTE	W24
	BYTE		        Dn3   v096
	BYTE	W15
	BYTE		VOL     70*seq_065_mvl/mxv
	BYTE	W03
	BYTE		        68*seq_065_mvl/mxv
	BYTE	W03
	BYTE		        65*seq_065_mvl/mxv
	BYTE	W03
	BYTE		        63*seq_065_mvl/mxv
	BYTE		TIE     Ds3   v104
	BYTE	W03
	BYTE		VOL     64*seq_065_mvl/mxv
	BYTE	W06
	BYTE		        65*seq_065_mvl/mxv
	BYTE	W03
	BYTE		        66*seq_065_mvl/mxv
	BYTE	W03
	BYTE		        67*seq_065_mvl/mxv
	BYTE	W03
	BYTE		        69*seq_065_mvl/mxv
	BYTE	W03
	BYTE		        70*seq_065_mvl/mxv
	BYTE	W03
	BYTE		        73*seq_065_mvl/mxv
	BYTE	W03
	BYTE		        76*seq_065_mvl/mxv
	BYTE	W03
	BYTE		        77*seq_065_mvl/mxv
	BYTE	W03
	BYTE		        78*seq_065_mvl/mxv
	BYTE	W03
	BYTE		        80*seq_065_mvl/mxv
	BYTE	W03
	BYTE		        81*seq_065_mvl/mxv
	BYTE	W03
	BYTE		        82*seq_065_mvl/mxv
	BYTE	W06
	BYTE		        82*seq_065_mvl/mxv
	BYTE	W06
	BYTE		        81*seq_065_mvl/mxv
	BYTE	W03
	BYTE		        80*seq_065_mvl/mxv
	BYTE	W03
	BYTE		        79*seq_065_mvl/mxv
	BYTE	W03
	BYTE		        77*seq_065_mvl/mxv
	BYTE	W03
	BYTE		        76*seq_065_mvl/mxv
	BYTE	W03
	BYTE		        75*seq_065_mvl/mxv
	BYTE	W03
	BYTE		        72*seq_065_mvl/mxv
	BYTE	W03
	BYTE		        71*seq_065_mvl/mxv
	BYTE	W03
	BYTE		        68*seq_065_mvl/mxv
	BYTE	W03
	BYTE		        66*seq_065_mvl/mxv
	BYTE	W03
	BYTE		        63*seq_065_mvl/mxv
	BYTE	W03
	BYTE		        60*seq_065_mvl/mxv
	BYTE	W03
	BYTE		        58*seq_065_mvl/mxv
	BYTE	W03
	BYTE		        54*seq_065_mvl/mxv
	BYTE	W03
	BYTE	PATT
	 POIN2	seq_065_1 + 0x6AE
	BYTE		EOT     Ds3 
	BYTE	W02
	BYTE		VOL     70*seq_065_mvl/mxv
	BYTE		N11     Ds3   v084
	BYTE	W12
	BYTE		N18     Fn3   v096
	BYTE	W18
	BYTE		        Ds3 
	BYTE	W18
	BYTE		N11     Fn3   v088
	BYTE	W12
	BYTE	GoTo
	 POIN2	seq_065_1 + 0x6D9
	BYTE	W07
	BYTE	FINE

//*********************** Track 03 ***********************//

seq_065_2:
	BYTE	KEYSH   seq_065_key+0
	BYTE		VOICE   42
	BYTE	W01
	BYTE		PAN     c_v-34
	BYTE		VOL     70*seq_065_mvl/mxv
	BYTE	W02
	BYTE	W96
	BYTE	W96
	BYTE	W96
	BYTE	W96
	BYTE	W96
	BYTE	W96
	BYTE	W96
	BYTE	W96
	BYTE	W96
	BYTE	W96
	BYTE	W96
	BYTE	W96
	BYTE	W96
	BYTE	W96
	BYTE	W96
	BYTE	W96
	BYTE	W96
	BYTE	W96
	BYTE	W96
	BYTE	W96
	BYTE	W96
	BYTE	W96
	BYTE	W96
	BYTE	W96
	BYTE	W96
	BYTE	W96
	BYTE	W96
	BYTE	W96
	BYTE	W96
	BYTE	W96
	BYTE	W96
	BYTE	W96
	BYTE	W96
	BYTE	W96
	BYTE	W96
	BYTE	W96
	BYTE	W96
	BYTE	W96
	BYTE	W96
	BYTE	W96
	BYTE	W96
	BYTE	W96
	BYTE	W96
	BYTE	W96
	BYTE	W96
	BYTE	W96
	BYTE	W96
	BYTE	W96
	BYTE	W96
	BYTE	W96
	BYTE	W96
	BYTE	W96
	BYTE	W96
	BYTE	W96
	BYTE	W96
	BYTE	W96
	BYTE	W96
	BYTE	W96
	BYTE	W96
	BYTE	W96
	BYTE	W96
	BYTE	W96
	BYTE	W96
	BYTE	W96
	BYTE	W96
	BYTE	W96
	BYTE	W96
	BYTE	W96
	BYTE	W96
	BYTE	W96
	BYTE	W96
	BYTE	W96
	BYTE	W96
	BYTE	W96
	BYTE	W96
	BYTE	W96
	BYTE	W96
	BYTE	W96
	BYTE	W96
	BYTE	W96
	BYTE	W96
	BYTE	W96
	BYTE	W96
	BYTE	W96
	BYTE	W96
	BYTE	W96
	BYTE	W96
	BYTE	W92
	BYTE	W02
	BYTE	W01
	BYTE		        53*seq_065_mvl/mxv
	BYTE	W01
	BYTE		N48     En3   v032
	BYTE	W03
	BYTE		VOL     55*seq_065_mvl/mxv
	BYTE	W03
	BYTE		        57*seq_065_mvl/mxv
	BYTE	W03
	BYTE		        59*seq_065_mvl/mxv
	BYTE	W03
	BYTE		        63*seq_065_mvl/mxv
	BYTE	W03
	BYTE		        67*seq_065_mvl/mxv
	BYTE	W03
	BYTE		        70*seq_065_mvl/mxv
	BYTE	W30
	BYTE		N48     Gn3 
	BYTE	W48
	BYTE		N48     Fs3   v032
	BYTE	W48
	BYTE		        Dn3 
	BYTE	W48
	BYTE	PEND
	BYTE		N48     Fn3   v032
	BYTE	W48
	BYTE		        Dn3 
	BYTE	W48
	BYTE	PEND
	BYTE		        En3 
	BYTE	W48
	BYTE		        Cn3   v024
	BYTE	W48
	BYTE		        En3   v032
	BYTE	W48
	BYTE		        Gn3 
	BYTE	W48
	BYTE	PATT
	 POIN2	seq_065_2 + 0x7A
	BYTE	PATT
	 POIN2	seq_065_2 + 0x81
	BYTE		VOL     70*seq_065_mvl/mxv
	BYTE		N92     En3   v028
	BYTE	W03
	BYTE		VOL     71*seq_065_mvl/mxv
	BYTE	W03
	BYTE		        72*seq_065_mvl/mxv
	BYTE	W03
	BYTE		        72*seq_065_mvl/mxv
	BYTE	W06
	BYTE		        74*seq_065_mvl/mxv
	BYTE	W03
	BYTE		        75*seq_065_mvl/mxv
	BYTE	W03
	BYTE		        76*seq_065_mvl/mxv
	BYTE	W03
	BYTE		        80*seq_065_mvl/mxv
	BYTE	W09
	BYTE		        79*seq_065_mvl/mxv
	BYTE	W03
	BYTE		        78*seq_065_mvl/mxv
	BYTE	W03
	BYTE		        77*seq_065_mvl/mxv
	BYTE	W03
	BYTE		        75*seq_065_mvl/mxv
	BYTE	W03
	BYTE		        72*seq_065_mvl/mxv
	BYTE	W03
	BYTE		        70*seq_065_mvl/mxv
	BYTE	W03
	BYTE		        68*seq_065_mvl/mxv
	BYTE	W03
	BYTE		        65*seq_065_mvl/mxv
	BYTE	W03
	BYTE		        61*seq_065_mvl/mxv
	BYTE	W03
	BYTE		        57*seq_065_mvl/mxv
	BYTE	W03
	BYTE		        53*seq_065_mvl/mxv
	BYTE	W03
	BYTE		        49*seq_065_mvl/mxv
	BYTE	W03
	BYTE		        44*seq_065_mvl/mxv
	BYTE	W03
	BYTE		        39*seq_065_mvl/mxv
	BYTE	W03
	BYTE		        34*seq_065_mvl/mxv
	BYTE	W03
	BYTE		        28*seq_065_mvl/mxv
	BYTE	W03
	BYTE		        22*seq_065_mvl/mxv
	BYTE	W03
	BYTE		        16*seq_065_mvl/mxv
	BYTE	W03
	BYTE		        9*seq_065_mvl/mxv
	BYTE	W03
	BYTE		        3*seq_065_mvl/mxv
	BYTE	W06
	BYTE		        70*seq_065_mvl/mxv
	BYTE		N48     En3   v032
	BYTE	W48
	BYTE		        Gn3 
	BYTE	W48
	BYTE	PATT
	 POIN2	seq_065_2 + 0x7A
	BYTE	PATT
	 POIN2	seq_065_2 + 0x81
	BYTE		N48     En3   v024
	BYTE	W48
	BYTE		        Cn3 
	BYTE	W48
	BYTE		        En3   v032
	BYTE	W48
	BYTE		        Gn3 
	BYTE	W48
	BYTE	PATT
	 POIN2	seq_065_2 + 0x7A
	BYTE	PATT
	 POIN2	seq_065_2 + 0x81
	BYTE		VOL     70*seq_065_mvl/mxv
	BYTE		TIE     En3   v028
	BYTE	W03
	BYTE		VOL     72*seq_065_mvl/mxv
	BYTE	W15
	BYTE		        72*seq_065_mvl/mxv
	BYTE	W03
	BYTE		        73*seq_065_mvl/mxv
	BYTE	W06
	BYTE		        74*seq_065_mvl/mxv
	BYTE	W03
	BYTE		        75*seq_065_mvl/mxv
	BYTE	W06
	BYTE		        76*seq_065_mvl/mxv
	BYTE	W06
	BYTE		        77*seq_065_mvl/mxv
	BYTE	W03
	BYTE		        78*seq_065_mvl/mxv
	BYTE	W03
	BYTE		        79*seq_065_mvl/mxv
	BYTE	W03
	BYTE		        80*seq_065_mvl/mxv
	BYTE	W03
	BYTE		        81*seq_065_mvl/mxv
	BYTE	W03
	BYTE		        81*seq_065_mvl/mxv
	BYTE	W03
	BYTE		        81*seq_065_mvl/mxv
	BYTE	W12
	BYTE		        80*seq_065_mvl/mxv
	BYTE	W06
	BYTE		        78*seq_065_mvl/mxv
	BYTE	W03
	BYTE		        77*seq_065_mvl/mxv
	BYTE	W03
	BYTE		        76*seq_065_mvl/mxv
	BYTE	W03
	BYTE		        75*seq_065_mvl/mxv
	BYTE	W03
	BYTE		        72*seq_065_mvl/mxv
	BYTE	W03
	BYTE		        70*seq_065_mvl/mxv
	BYTE	W03
	BYTE		        68*seq_065_mvl/mxv
	BYTE	W03
	BYTE		        67*seq_065_mvl/mxv
	BYTE	W03
	BYTE		        64*seq_065_mvl/mxv
	BYTE	W03
	BYTE		        61*seq_065_mvl/mxv
	BYTE	W03
	BYTE		        59*seq_065_mvl/mxv
	BYTE	W03
	BYTE		        56*seq_065_mvl/mxv
	BYTE	W03
	BYTE		        53*seq_065_mvl/mxv
	BYTE	W03
	BYTE		        51*seq_065_mvl/mxv
	BYTE	W03
	BYTE		        49*seq_065_mvl/mxv
	BYTE	W03
	BYTE		        47*seq_065_mvl/mxv
	BYTE	W03
	BYTE		        45*seq_065_mvl/mxv
	BYTE	W03
	BYTE		        43*seq_065_mvl/mxv
	BYTE	W03
	BYTE		        41*seq_065_mvl/mxv
	BYTE	W03
	BYTE		        39*seq_065_mvl/mxv
	BYTE	W03
	BYTE		        37*seq_065_mvl/mxv
	BYTE	W03
	BYTE		        35*seq_065_mvl/mxv
	BYTE	W03
	BYTE		        34*seq_065_mvl/mxv
	BYTE	W03
	BYTE		        31*seq_065_mvl/mxv
	BYTE	W03
	BYTE		        29*seq_065_mvl/mxv
	BYTE	W03
	BYTE		        27*seq_065_mvl/mxv
	BYTE	W03
	BYTE		        26*seq_065_mvl/mxv
	BYTE	W03
	BYTE		        24*seq_065_mvl/mxv
	BYTE	W03
	BYTE		        21*seq_065_mvl/mxv
	BYTE	W03
	BYTE		        19*seq_065_mvl/mxv
	BYTE	W03
	BYTE		        18*seq_065_mvl/mxv
	BYTE	W03
	BYTE		        16*seq_065_mvl/mxv
	BYTE	W03
	BYTE		        14*seq_065_mvl/mxv
	BYTE	W03
	BYTE		        10*seq_065_mvl/mxv
	BYTE	W03
	BYTE		        6*seq_065_mvl/mxv
	BYTE	W03
	BYTE		        2*seq_065_mvl/mxv
	BYTE	W03
	BYTE		        0*seq_065_mvl/mxv
	BYTE	W04
	BYTE		EOT
	BYTE	W01
	BYTE	W01
	BYTE	W96
	BYTE	W96
	BYTE	W96
	BYTE	W96
	BYTE	W96
	BYTE	W96
	BYTE	W96
	BYTE	W96
	BYTE	W96
	BYTE	W96
	BYTE	W96
	BYTE	W96
	BYTE	W96
	BYTE	W96
	BYTE	W96
	BYTE	W96
	BYTE	W96
	BYTE	W96
	BYTE	W96
	BYTE	W96
	BYTE	W96
	BYTE	W96
	BYTE	W96
	BYTE	W96
	BYTE	W96
	BYTE	W96
	BYTE	W96
	BYTE	W96
	BYTE	W96
	BYTE	W96
	BYTE	W96
	BYTE	W68
	BYTE	W02
	BYTE	W01
	BYTE		VOL     70*seq_065_mvl/mxv
	BYTE	W01
	BYTE		N06     An2   v040
	BYTE	W06
	BYTE		        Bn2   v036
	BYTE	W06
	BYTE		        Cn3   v044
	BYTE	W06
	BYTE		        Dn3   v040
	BYTE	W06
	BYTE		N48     En3   v036
	BYTE	W48
	BYTE		        Gn3 
	BYTE	W48
	BYTE		N48     Fs3   v036
	BYTE	W48
	BYTE		        Dn3   v032
	BYTE	W48
	BYTE	PEND
	BYTE	PATT
	 POIN2	seq_065_2 + 0x81
	BYTE		N48     En3   v020
	BYTE	W48
	BYTE		        Cn3   v024
	BYTE	W48
	BYTE	PEND
	BYTE		        En3   v036
	BYTE	W48
	BYTE		        Gn3 
	BYTE	W48
	BYTE	PATT
	 POIN2	seq_065_2 + 0x1A7
	BYTE		N48     Fn3   v036
	BYTE	W48
	BYTE		        Dn3   v032
	BYTE	W48
	BYTE	PEND
	BYTE		N92     En3   v024
	BYTE	W03
	BYTE		VOL     71*seq_065_mvl/mxv
	BYTE	W03
	BYTE		        72*seq_065_mvl/mxv
	BYTE	W03
	BYTE		        72*seq_065_mvl/mxv
	BYTE	W06
	BYTE		        74*seq_065_mvl/mxv
	BYTE	W03
	BYTE		        75*seq_065_mvl/mxv
	BYTE	W03
	BYTE		        76*seq_065_mvl/mxv
	BYTE	W03
	BYTE		        80*seq_065_mvl/mxv
	BYTE	W09
	BYTE		        79*seq_065_mvl/mxv
	BYTE	W03
	BYTE		        78*seq_065_mvl/mxv
	BYTE	W03
	BYTE		        77*seq_065_mvl/mxv
	BYTE	W03
	BYTE		        75*seq_065_mvl/mxv
	BYTE	W03
	BYTE		        72*seq_065_mvl/mxv
	BYTE	W03
	BYTE		        70*seq_065_mvl/mxv
	BYTE	W03
	BYTE		        68*seq_065_mvl/mxv
	BYTE	W03
	BYTE		        65*seq_065_mvl/mxv
	BYTE	W03
	BYTE		        61*seq_065_mvl/mxv
	BYTE	W03
	BYTE		        57*seq_065_mvl/mxv
	BYTE	W03
	BYTE		        53*seq_065_mvl/mxv
	BYTE	W03
	BYTE		        49*seq_065_mvl/mxv
	BYTE	W03
	BYTE		        44*seq_065_mvl/mxv
	BYTE	W03
	BYTE		        39*seq_065_mvl/mxv
	BYTE	W03
	BYTE		        34*seq_065_mvl/mxv
	BYTE	W03
	BYTE		        28*seq_065_mvl/mxv
	BYTE	W03
	BYTE		        22*seq_065_mvl/mxv
	BYTE	W03
	BYTE		        16*seq_065_mvl/mxv
	BYTE	W03
	BYTE		        9*seq_065_mvl/mxv
	BYTE	W03
	BYTE		        3*seq_065_mvl/mxv
	BYTE	W06
	BYTE		        70*seq_065_mvl/mxv
	BYTE		N48     En3   v036
	BYTE	W48
	BYTE		        Gn3 
	BYTE	W48
	BYTE	PATT
	 POIN2	seq_065_2 + 0x1A7
	BYTE	PATT
	 POIN2	seq_065_2 + 0x81
	BYTE	PATT
	 POIN2	seq_065_2 + 0x1B4
	BYTE		N48     En3   v036
	BYTE	W48
	BYTE		        Gn3 
	BYTE	W48
	BYTE	PATT
	 POIN2	seq_065_2 + 0x1A7
	BYTE	PATT
	 POIN2	seq_065_2 + 0x1C6
	BYTE		N96     En3   v028
	BYTE	W09
	BYTE		VOL     71*seq_065_mvl/mxv
	BYTE	W12
	BYTE		        72*seq_065_mvl/mxv
	BYTE	W09
	BYTE		        72*seq_065_mvl/mxv
	BYTE	W03
	BYTE		        73*seq_065_mvl/mxv
	BYTE	W06
	BYTE		        74*seq_065_mvl/mxv
	BYTE	W03
	BYTE		        75*seq_065_mvl/mxv
	BYTE	W06
	BYTE		        75*seq_065_mvl/mxv
	BYTE	W03
	BYTE		        77*seq_065_mvl/mxv
	BYTE	W03
	BYTE		        78*seq_065_mvl/mxv
	BYTE	W06
	BYTE		        77*seq_065_mvl/mxv
	BYTE	W03
	BYTE		        75*seq_065_mvl/mxv
	BYTE	W03
	BYTE		        73*seq_065_mvl/mxv
	BYTE	W03
	BYTE		        70*seq_065_mvl/mxv
	BYTE	W03
	BYTE		        67*seq_065_mvl/mxv
	BYTE	W03
	BYTE		        62*seq_065_mvl/mxv
	BYTE	W03
	BYTE		        56*seq_065_mvl/mxv
	BYTE	W03
	BYTE		        48*seq_065_mvl/mxv
	BYTE	W03
	BYTE		        41*seq_065_mvl/mxv
	BYTE	W03
	BYTE		        31*seq_065_mvl/mxv
	BYTE	W01
	BYTE		        26*seq_065_mvl/mxv
	BYTE	W02
	BYTE		        19*seq_065_mvl/mxv
	BYTE	W01
	BYTE		        14*seq_065_mvl/mxv
	BYTE	W02
	BYTE		        9*seq_065_mvl/mxv
	BYTE	W01
	BYTE		        3*seq_065_mvl/mxv
	BYTE	W02
	BYTE		VOL     70*seq_065_mvl/mxv
	BYTE		N96     Cn3   v036
	BYTE	W06
	BYTE		VOL     71*seq_065_mvl/mxv
	BYTE	W03
	BYTE		        72*seq_065_mvl/mxv
	BYTE	W09
	BYTE		        73*seq_065_mvl/mxv
	BYTE	W03
	BYTE		        74*seq_065_mvl/mxv
	BYTE	W03
	BYTE		        75*seq_065_mvl/mxv
	BYTE	W03
	BYTE		        76*seq_065_mvl/mxv
	BYTE	W03
	BYTE		        77*seq_065_mvl/mxv
	BYTE	W03
	BYTE		        79*seq_065_mvl/mxv
	BYTE	W03
	BYTE		        81*seq_065_mvl/mxv
	BYTE	W03
	BYTE		        83*seq_065_mvl/mxv
	BYTE	W03
	BYTE		        85*seq_065_mvl/mxv
	BYTE	W09
	BYTE		        85*seq_065_mvl/mxv
	BYTE	W09
	BYTE		        84*seq_065_mvl/mxv
	BYTE	W03
	BYTE		        83*seq_065_mvl/mxv
	BYTE	W03
	BYTE		        82*seq_065_mvl/mxv
	BYTE	W03
	BYTE		        81*seq_065_mvl/mxv
	BYTE	W03
	BYTE		        79*seq_065_mvl/mxv
	BYTE	W03
	BYTE		        77*seq_065_mvl/mxv
	BYTE	W03
	BYTE		        75*seq_065_mvl/mxv
	BYTE	W03
	BYTE		        73*seq_065_mvl/mxv
	BYTE	W03
	BYTE		        70*seq_065_mvl/mxv
	BYTE	W03
	BYTE		        68*seq_065_mvl/mxv
	BYTE	W03
	BYTE		        65*seq_065_mvl/mxv
	BYTE	W03
	BYTE		        63*seq_065_mvl/mxv
	BYTE	W03
	BYTE	PEND
	BYTE		VOL     72*seq_065_mvl/mxv
	BYTE		N96     Dn3   v036
	BYTE	W06
	BYTE		VOL     72*seq_065_mvl/mxv
	BYTE	W03
	BYTE		        73*seq_065_mvl/mxv
	BYTE	W03
	BYTE		        75*seq_065_mvl/mxv
	BYTE	W03
	BYTE		        76*seq_065_mvl/mxv
	BYTE	W03
	BYTE		        77*seq_065_mvl/mxv
	BYTE	W03
	BYTE		        80*seq_065_mvl/mxv
	BYTE	W03
	BYTE		        84*seq_065_mvl/mxv
	BYTE	W09
	BYTE		        82*seq_065_mvl/mxv
	BYTE	W06
	BYTE		        81*seq_065_mvl/mxv
	BYTE	W03
	BYTE		        80*seq_065_mvl/mxv
	BYTE	W03
	BYTE		        79*seq_065_mvl/mxv
	BYTE	W03
	BYTE		        77*seq_065_mvl/mxv
	BYTE	W03
	BYTE		        75*seq_065_mvl/mxv
	BYTE	W03
	BYTE		        73*seq_065_mvl/mxv
	BYTE	W03
	BYTE		        71*seq_065_mvl/mxv
	BYTE	W03
	BYTE		        69*seq_065_mvl/mxv
	BYTE	W03
	BYTE		        66*seq_065_mvl/mxv
	BYTE	W03
	BYTE		        63*seq_065_mvl/mxv
	BYTE	W03
	BYTE		        60*seq_065_mvl/mxv
	BYTE	W03
	BYTE		        57*seq_065_mvl/mxv
	BYTE	W03
	BYTE		        53*seq_065_mvl/mxv
	BYTE	W03
	BYTE		        50*seq_065_mvl/mxv
	BYTE	W03
	BYTE		        46*seq_065_mvl/mxv
	BYTE	W03
	BYTE		        42*seq_065_mvl/mxv
	BYTE	W03
	BYTE		        38*seq_065_mvl/mxv
	BYTE	W03
	BYTE		        34*seq_065_mvl/mxv
	BYTE	W06
	BYTE	PEND
	BYTE		VOL     70*seq_065_mvl/mxv
	BYTE		N96     Cn3   v032
	BYTE	W06
	BYTE		VOL     71*seq_065_mvl/mxv
	BYTE	W03
	BYTE		        72*seq_065_mvl/mxv
	BYTE	W09
	BYTE		        73*seq_065_mvl/mxv
	BYTE	W03
	BYTE		        74*seq_065_mvl/mxv
	BYTE	W03
	BYTE		        75*seq_065_mvl/mxv
	BYTE	W03
	BYTE		        76*seq_065_mvl/mxv
	BYTE	W03
	BYTE		        77*seq_065_mvl/mxv
	BYTE	W03
	BYTE		        79*seq_065_mvl/mxv
	BYTE	W03
	BYTE		        81*seq_065_mvl/mxv
	BYTE	W03
	BYTE		        83*seq_065_mvl/mxv
	BYTE	W03
	BYTE		        85*seq_065_mvl/mxv
	BYTE	W09
	BYTE		        85*seq_065_mvl/mxv
	BYTE	W09
	BYTE		        84*seq_065_mvl/mxv
	BYTE	W03
	BYTE		        83*seq_065_mvl/mxv
	BYTE	W03
	BYTE		        82*seq_065_mvl/mxv
	BYTE	W03
	BYTE		        81*seq_065_mvl/mxv
	BYTE	W03
	BYTE		        79*seq_065_mvl/mxv
	BYTE	W03
	BYTE		        77*seq_065_mvl/mxv
	BYTE	W03
	BYTE		        75*seq_065_mvl/mxv
	BYTE	W03
	BYTE		        73*seq_065_mvl/mxv
	BYTE	W03
	BYTE		        70*seq_065_mvl/mxv
	BYTE	W03
	BYTE		        68*seq_065_mvl/mxv
	BYTE	W03
	BYTE		        65*seq_065_mvl/mxv
	BYTE	W03
	BYTE		        63*seq_065_mvl/mxv
	BYTE	W03
	BYTE	PEND
	BYTE		        72*seq_065_mvl/mxv
	BYTE		N96     Dn3 
	BYTE	W06
	BYTE		VOL     72*seq_065_mvl/mxv
	BYTE	W03
	BYTE		        73*seq_065_mvl/mxv
	BYTE	W03
	BYTE		        75*seq_065_mvl/mxv
	BYTE	W03
	BYTE		        76*seq_065_mvl/mxv
	BYTE	W03
	BYTE		        77*seq_065_mvl/mxv
	BYTE	W03
	BYTE		        80*seq_065_mvl/mxv
	BYTE	W03
	BYTE		        84*seq_065_mvl/mxv
	BYTE	W09
	BYTE		        82*seq_065_mvl/mxv
	BYTE	W06
	BYTE		        81*seq_065_mvl/mxv
	BYTE	W03
	BYTE		        80*seq_065_mvl/mxv
	BYTE	W03
	BYTE		        79*seq_065_mvl/mxv
	BYTE	W03
	BYTE		        77*seq_065_mvl/mxv
	BYTE	W03
	BYTE		        75*seq_065_mvl/mxv
	BYTE	W03
	BYTE		        73*seq_065_mvl/mxv
	BYTE	W03
	BYTE		        71*seq_065_mvl/mxv
	BYTE	W03
	BYTE		        69*seq_065_mvl/mxv
	BYTE	W03
	BYTE		        66*seq_065_mvl/mxv
	BYTE	W03
	BYTE		        63*seq_065_mvl/mxv
	BYTE	W03
	BYTE		        60*seq_065_mvl/mxv
	BYTE	W03
	BYTE		        57*seq_065_mvl/mxv
	BYTE	W03
	BYTE		        53*seq_065_mvl/mxv
	BYTE	W03
	BYTE		        50*seq_065_mvl/mxv
	BYTE	W03
	BYTE		        46*seq_065_mvl/mxv
	BYTE	W03
	BYTE		        42*seq_065_mvl/mxv
	BYTE	W03
	BYTE		        38*seq_065_mvl/mxv
	BYTE	W03
	BYTE		        34*seq_065_mvl/mxv
	BYTE	W06
	BYTE	PATT
	 POIN2	seq_065_2 + 0x264
	BYTE	PATT
	 POIN2	seq_065_2 + 0x29C
	BYTE	PATT
	 POIN2	seq_065_2 + 0x2D8
	BYTE		VOL     72*seq_065_mvl/mxv
	BYTE		N96     Dn3   v036
	BYTE	W03
	BYTE		VOL     75*seq_065_mvl/mxv
	BYTE	W03
	BYTE		        77*seq_065_mvl/mxv
	BYTE	W03
	BYTE		        82*seq_065_mvl/mxv
	BYTE	W06
	BYTE		        80*seq_065_mvl/mxv
	BYTE	W03
	BYTE		        76*seq_065_mvl/mxv
	BYTE	W03
	BYTE		        72*seq_065_mvl/mxv
	BYTE	W03
	BYTE		        66*seq_065_mvl/mxv
	BYTE	W03
	BYTE		        62*seq_065_mvl/mxv
	BYTE	W03
	BYTE		        60*seq_065_mvl/mxv
	BYTE	W09
	BYTE		        60*seq_065_mvl/mxv
	BYTE	W03
	BYTE		        61*seq_065_mvl/mxv
	BYTE	W06
	BYTE		        62*seq_065_mvl/mxv
	BYTE	W03
	BYTE		        63*seq_065_mvl/mxv
	BYTE	W03
	BYTE		        64*seq_065_mvl/mxv
	BYTE	W03
	BYTE		        65*seq_065_mvl/mxv
	BYTE	W03
	BYTE		        66*seq_065_mvl/mxv
	BYTE	W03
	BYTE		        68*seq_065_mvl/mxv
	BYTE	W03
	BYTE		        69*seq_065_mvl/mxv
	BYTE	W03
	BYTE		        70*seq_065_mvl/mxv
	BYTE	W03
	BYTE		        72*seq_065_mvl/mxv
	BYTE	W03
	BYTE		        74*seq_065_mvl/mxv
	BYTE	W03
	BYTE		        76*seq_065_mvl/mxv
	BYTE	W03
	BYTE		        78*seq_065_mvl/mxv
	BYTE	W03
	BYTE		        80*seq_065_mvl/mxv
	BYTE	W03
	BYTE		        80*seq_065_mvl/mxv
	BYTE	W03
	BYTE		        79*seq_065_mvl/mxv
	BYTE	W03
	BYTE		        76*seq_065_mvl/mxv
	BYTE	W03
	BYTE		        70*seq_065_mvl/mxv
	BYTE		TIE     En3   v028
	BYTE	W03
	BYTE		VOL     72*seq_065_mvl/mxv
	BYTE	W03
	BYTE		        72*seq_065_mvl/mxv
	BYTE	W12
	BYTE		        73*seq_065_mvl/mxv
	BYTE	W09
	BYTE		        74*seq_065_mvl/mxv
	BYTE	W06
	BYTE		        75*seq_065_mvl/mxv
	BYTE	W06
	BYTE		        76*seq_065_mvl/mxv
	BYTE	W06
	BYTE		        77*seq_065_mvl/mxv
	BYTE	W03
	BYTE		        77*seq_065_mvl/mxv
	BYTE	W03
	BYTE		        78*seq_065_mvl/mxv
	BYTE	W03
	BYTE		        79*seq_065_mvl/mxv
	BYTE	W03
	BYTE		        80*seq_065_mvl/mxv
	BYTE	W03
	BYTE		        80*seq_065_mvl/mxv
	BYTE	W03
	BYTE		        81*seq_065_mvl/mxv
	BYTE	W03
	BYTE		        82*seq_065_mvl/mxv
	BYTE	W03
	BYTE		        83*seq_065_mvl/mxv
	BYTE	W03
	BYTE		        84*seq_065_mvl/mxv
	BYTE	W03
	BYTE		        85*seq_065_mvl/mxv
	BYTE	W15
	BYTE		        84*seq_065_mvl/mxv
	BYTE	W06
	BYTE	W09
	BYTE		        83*seq_065_mvl/mxv
	BYTE	W03
	BYTE		        82*seq_065_mvl/mxv
	BYTE	W03
	BYTE		        82*seq_065_mvl/mxv
	BYTE	W03
	BYTE		        81*seq_065_mvl/mxv
	BYTE	W03
	BYTE		        80*seq_065_mvl/mxv
	BYTE	W03
	BYTE		        80*seq_065_mvl/mxv
	BYTE	W03
	BYTE		        79*seq_065_mvl/mxv
	BYTE	W03
	BYTE		        77*seq_065_mvl/mxv
	BYTE	W03
	BYTE		        76*seq_065_mvl/mxv
	BYTE	W03
	BYTE		        75*seq_065_mvl/mxv
	BYTE	W03
	BYTE		        74*seq_065_mvl/mxv
	BYTE	W03
	BYTE		        72*seq_065_mvl/mxv
	BYTE	W03
	BYTE		        70*seq_065_mvl/mxv
	BYTE	W03
	BYTE		        69*seq_065_mvl/mxv
	BYTE	W03
	BYTE		        68*seq_065_mvl/mxv
	BYTE	W03
	BYTE		        65*seq_065_mvl/mxv
	BYTE	W03
	BYTE		        63*seq_065_mvl/mxv
	BYTE	W03
	BYTE		        61*seq_065_mvl/mxv
	BYTE	W03
	BYTE		        60*seq_065_mvl/mxv
	BYTE	W03
	BYTE		        58*seq_065_mvl/mxv
	BYTE	W03
	BYTE		        55*seq_065_mvl/mxv
	BYTE	W03
	BYTE		        52*seq_065_mvl/mxv
	BYTE	W03
	BYTE		        50*seq_065_mvl/mxv
	BYTE	W03
	BYTE		        47*seq_065_mvl/mxv
	BYTE	W03
	BYTE		        45*seq_065_mvl/mxv
	BYTE	W03
	BYTE		        42*seq_065_mvl/mxv
	BYTE	W03
	BYTE		        39*seq_065_mvl/mxv
	BYTE	W03
	BYTE		        36*seq_065_mvl/mxv
	BYTE	W03
	BYTE		        33*seq_065_mvl/mxv
	BYTE	W03
	BYTE		EOT
	BYTE		VOL     70*seq_065_mvl/mxv
	BYTE		TIE     Ds3 
	BYTE	W03
	BYTE		VOL     72*seq_065_mvl/mxv
	BYTE	W03
	BYTE		        72*seq_065_mvl/mxv
	BYTE	W12
	BYTE		        73*seq_065_mvl/mxv
	BYTE	W09
	BYTE		        74*seq_065_mvl/mxv
	BYTE	W06
	BYTE		        75*seq_065_mvl/mxv
	BYTE	W06
	BYTE		        76*seq_065_mvl/mxv
	BYTE	W06
	BYTE		        77*seq_065_mvl/mxv
	BYTE	W03
	BYTE		        77*seq_065_mvl/mxv
	BYTE	W03
	BYTE		        78*seq_065_mvl/mxv
	BYTE	W03
	BYTE		        79*seq_065_mvl/mxv
	BYTE	W03
	BYTE		        80*seq_065_mvl/mxv
	BYTE	W03
	BYTE		        80*seq_065_mvl/mxv
	BYTE	W03
	BYTE		        81*seq_065_mvl/mxv
	BYTE	W03
	BYTE		        82*seq_065_mvl/mxv
	BYTE	W03
	BYTE		        83*seq_065_mvl/mxv
	BYTE	W03
	BYTE		        84*seq_065_mvl/mxv
	BYTE	W03
	BYTE		        85*seq_065_mvl/mxv
	BYTE	W15
	BYTE		        85*seq_065_mvl/mxv
	BYTE	W06
	BYTE	W03
	BYTE		        84*seq_065_mvl/mxv
	BYTE	W06
	BYTE		        83*seq_065_mvl/mxv
	BYTE	W03
	BYTE		        82*seq_065_mvl/mxv
	BYTE	W03
	BYTE		        82*seq_065_mvl/mxv
	BYTE	W03
	BYTE		        81*seq_065_mvl/mxv
	BYTE	W03
	BYTE		        80*seq_065_mvl/mxv
	BYTE	W03
	BYTE		        79*seq_065_mvl/mxv
	BYTE	W03
	BYTE		        77*seq_065_mvl/mxv
	BYTE	W03
	BYTE		        76*seq_065_mvl/mxv
	BYTE	W03
	BYTE		        75*seq_065_mvl/mxv
	BYTE	W03
	BYTE		        73*seq_065_mvl/mxv
	BYTE	W03
	BYTE		        72*seq_065_mvl/mxv
	BYTE	W03
	BYTE		        70*seq_065_mvl/mxv
	BYTE	W03
	BYTE		        68*seq_065_mvl/mxv
	BYTE	W03
	BYTE		        66*seq_065_mvl/mxv
	BYTE	W03
	BYTE		        64*seq_065_mvl/mxv
	BYTE	W03
	BYTE		        61*seq_065_mvl/mxv
	BYTE	W03
	BYTE		        59*seq_065_mvl/mxv
	BYTE	W03
	BYTE		        57*seq_065_mvl/mxv
	BYTE	W03
	BYTE		        54*seq_065_mvl/mxv
	BYTE	W03
	BYTE		        51*seq_065_mvl/mxv
	BYTE	W03
	BYTE		        48*seq_065_mvl/mxv
	BYTE	W03
	BYTE		        46*seq_065_mvl/mxv
	BYTE	W03
	BYTE		        43*seq_065_mvl/mxv
	BYTE	W03
	BYTE		        39*seq_065_mvl/mxv
	BYTE	W03
	BYTE		        36*seq_065_mvl/mxv
	BYTE	W03
	BYTE		        33*seq_065_mvl/mxv
	BYTE	W03
	BYTE		        29*seq_065_mvl/mxv
	BYTE	W03
	BYTE		        26*seq_065_mvl/mxv
	BYTE	W03
	BYTE		        21*seq_065_mvl/mxv
	BYTE	W03
	BYTE		EOT
	BYTE		VOL     70*seq_065_mvl/mxv
	BYTE		N06     En3   v044
	BYTE	W06
	BYTE		        Dn3   v040
	BYTE	W06
	BYTE		        Cn3   v044
	BYTE	W06
	BYTE		        Bn2   v040
	BYTE	W06
	BYTE		        En3 
	BYTE	W06
	BYTE		        Dn3   v036
	BYTE	W06
	BYTE		        Cn3   v040
	BYTE	W06
	BYTE		        Bn2   v036
	BYTE	W06
	BYTE		        En3   v040
	BYTE	W06
	BYTE		        Dn3 
	BYTE	W06
	BYTE		        Cn3 
	BYTE	W06
	BYTE		        Bn2   v036
	BYTE	W06
	BYTE		        En3   v040
	BYTE	W06
	BYTE		        Dn3   v036
	BYTE	W06
	BYTE		        Cn3 
	BYTE	W06
	BYTE		        Bn2   v032
	BYTE	W06
	BYTE		N06     En3   v040
	BYTE	W06
	BYTE		        Dn3   v036
	BYTE	W06
	BYTE		        Cn3   v040
	BYTE	W06
	BYTE		        Bn2   v036
	BYTE	W06
	BYTE		        En3 
	BYTE	W06
	BYTE		        Dn3   v032
	BYTE	W06
	BYTE		        Cn3   v036
	BYTE	W06
	BYTE		        Bn2   v028
	BYTE	W06
	BYTE		        En3   v036
	BYTE	W06
	BYTE		        Dn3   v032
	BYTE	W06
	BYTE		        Cn3   v036
	BYTE	W06
	BYTE		        Bn2   v032
	BYTE	W06
	BYTE		        En3 
	BYTE	W06
	BYTE		        Dn3   v028
	BYTE	W06
	BYTE		        Cn3   v032
	BYTE	W06
	BYTE		        Bn2   v028
	BYTE	W06
	BYTE	PEND
	BYTE		N06     Ds3   v040
	BYTE	W06
	BYTE		        Dn3   v036
	BYTE	W06
	BYTE		        Cn3 
	BYTE	W06
	BYTE		        As2 
	BYTE	W06
	BYTE		        Ds3 
	BYTE	W06
	BYTE		        Dn3   v032
	BYTE	W06
	BYTE		        Cn3 
	BYTE	W06
	BYTE		        As2 
	BYTE	W06
	BYTE		        Ds3   v040
	BYTE	W06
	BYTE		        Dn3   v036
	BYTE	W06
	BYTE		        Cn3 
	BYTE	W06
	BYTE		        As2   v032
	BYTE	W06
	BYTE		        Ds3   v036
	BYTE	W06
	BYTE		        Dn3   v032
	BYTE	W06
	BYTE		        Cn3 
	BYTE	W06
	BYTE		        As2   v028
	BYTE	W06
	BYTE	PEND
	BYTE		N06     Ds3   v036
	BYTE	W06
	BYTE		        Dn3   v032
	BYTE	W06
	BYTE		        Cn3 
	BYTE	W06
	BYTE		        As2   v028
	BYTE	W06
	BYTE		        Ds3   v032
	BYTE	W06
	BYTE		        Dn3   v028
	BYTE	W06
	BYTE		        Cn3 
	BYTE	W06
	BYTE		        As2   v024
	BYTE	W06
	BYTE		        Ds3   v032
	BYTE	W06
	BYTE		        Dn3   v028
	BYTE	W06
	BYTE		        Cn3 
	BYTE	W06
	BYTE		        As2 
	BYTE	W06
	BYTE		        Ds3 
	BYTE	W06
	BYTE		        Dn3   v024
	BYTE	W06
	BYTE		        Cn3   v028
	BYTE	W06
	BYTE		        As2   v024
	BYTE	W06
	BYTE	PEND
	BYTE		        En3   v044
	BYTE	W06
	BYTE		        Dn3   v040
	BYTE	W06
	BYTE		        Cn3   v044
	BYTE	W06
	BYTE		        Bn2   v040
	BYTE	W06
	BYTE		        En3 
	BYTE	W06
	BYTE		        Dn3   v036
	BYTE	W06
	BYTE		        Cn3   v040
	BYTE	W06
	BYTE		        Bn2   v036
	BYTE	W06
	BYTE		        En3   v040
	BYTE	W06
	BYTE		        Dn3 
	BYTE	W06
	BYTE		        Cn3 
	BYTE	W06
	BYTE		        Bn2   v036
	BYTE	W06
	BYTE		        En3   v040
	BYTE	W06
	BYTE		        Dn3   v036
	BYTE	W06
	BYTE		        Cn3 
	BYTE	W06
	BYTE		        Bn2   v032
	BYTE	W06
	BYTE	PATT
	 POIN2	seq_065_2 + 0x492
	BYTE	PATT
	 POIN2	seq_065_2 + 0x4C2
	BYTE	PATT
	 POIN2	seq_065_2 + 0x4ED
	BYTE	GoTo
	 POIN2	seq_065_2 + 0x463
	BYTE	W07
	BYTE	FINE

//*********************** Track 04 ***********************//

seq_065_3:
	BYTE	KEYSH   seq_065_key+0
	BYTE		VOICE   43
	BYTE	W01
	BYTE		PAN     c_v+36
	BYTE		VOL     70*seq_065_mvl/mxv
	BYTE	W02
	BYTE	W96
	BYTE	W96
	BYTE	W96
	BYTE	W96
	BYTE	W96
	BYTE	W96
	BYTE	W96
	BYTE	W96
	BYTE	W96
	BYTE	W96
	BYTE	W96
	BYTE	W96
	BYTE	W96
	BYTE	W96
	BYTE	W96
	BYTE	W96
	BYTE	W96
	BYTE	W96
	BYTE	W96
	BYTE	W96
	BYTE	W96
	BYTE	W96
	BYTE	W96
	BYTE	W96
	BYTE	W96
	BYTE	W96
	BYTE	W96
	BYTE	W96
	BYTE	W96
	BYTE	W96
	BYTE	W96
	BYTE	W96
	BYTE	W96
	BYTE	W96
	BYTE	W96
	BYTE	W96
	BYTE	W96
	BYTE	W96
	BYTE	W96
	BYTE	W96
	BYTE	W96
	BYTE	W96
	BYTE	W96
	BYTE	W96
	BYTE	W96
	BYTE	W96
	BYTE	W96
	BYTE	W96
	BYTE	W96
	BYTE	W96
	BYTE	W96
	BYTE	W96
	BYTE	W96
	BYTE	W96
	BYTE	W96
	BYTE	W96
	BYTE	W96
	BYTE	W96
	BYTE	W96
	BYTE	W96
	BYTE	W96
	BYTE	W96
	BYTE	W96
	BYTE	W96
	BYTE	W96
	BYTE	W96
	BYTE	W96
	BYTE	W96
	BYTE	W96
	BYTE	W96
	BYTE	W96
	BYTE	W96
	BYTE	W96
	BYTE	W96
	BYTE	W96
	BYTE	W96
	BYTE	W96
	BYTE	W96
	BYTE	W96
	BYTE	W96
	BYTE	W96
	BYTE	W96
	BYTE	W96
	BYTE	W96
	BYTE	W96
	BYTE	W96
	BYTE	W96
	BYTE	W92
	BYTE	W02
	BYTE	W01
	BYTE		        52*seq_065_mvl/mxv
	BYTE	W01
	BYTE		TIE     Cn3   v096
	BYTE	W06
	BYTE		VOL     53*seq_065_mvl/mxv
	BYTE	W06
	BYTE		        53*seq_065_mvl/mxv
	BYTE	W06
	BYTE		        55*seq_065_mvl/mxv
	BYTE	W06
	BYTE		        56*seq_065_mvl/mxv
	BYTE	W06
	BYTE		        58*seq_065_mvl/mxv
	BYTE	W06
	BYTE		        60*seq_065_mvl/mxv
	BYTE	W06
	BYTE		        62*seq_065_mvl/mxv
	BYTE	W06
	BYTE		        64*seq_065_mvl/mxv
	BYTE	W06
	BYTE		        68*seq_065_mvl/mxv
	BYTE	W06
	BYTE		        70*seq_065_mvl/mxv
	BYTE	W36
	BYTE	W90
	BYTE		        68*seq_065_mvl/mxv
	BYTE	W06
	BYTE	W12
	BYTE		VOL     67*seq_065_mvl/mxv
	BYTE	W06
	BYTE		        66*seq_065_mvl/mxv
	BYTE	W12
	BYTE		        65*seq_065_mvl/mxv
	BYTE	W06
	BYTE		        64*seq_065_mvl/mxv
	BYTE	W06
	BYTE		        63*seq_065_mvl/mxv
	BYTE	W06
	BYTE		        62*seq_065_mvl/mxv
	BYTE	W06
	BYTE		        61*seq_065_mvl/mxv
	BYTE	W06
	BYTE		        60*seq_065_mvl/mxv
	BYTE	W06
	BYTE		        58*seq_065_mvl/mxv
	BYTE	W06
	BYTE		        56*seq_065_mvl/mxv
	BYTE	W06
	BYTE		        55*seq_065_mvl/mxv
	BYTE	W06
	BYTE		        53*seq_065_mvl/mxv
	BYTE	W06
	BYTE		        51*seq_065_mvl/mxv
	BYTE	W06
	BYTE	PEND
	BYTE		VOL     48*seq_065_mvl/mxv
	BYTE	W06
	BYTE		        46*seq_065_mvl/mxv
	BYTE	W06
	BYTE		        43*seq_065_mvl/mxv
	BYTE	W06
	BYTE		        41*seq_065_mvl/mxv
	BYTE	W06
	BYTE		        38*seq_065_mvl/mxv
	BYTE	W06
	BYTE		        36*seq_065_mvl/mxv
	BYTE	W06
	BYTE		        33*seq_065_mvl/mxv
	BYTE	W06
	BYTE		        29*seq_065_mvl/mxv
	BYTE	W06
	BYTE		        26*seq_065_mvl/mxv
	BYTE	W06
	BYTE		        23*seq_065_mvl/mxv
	BYTE	W06
	BYTE		        19*seq_065_mvl/mxv
	BYTE	W06
	BYTE		        16*seq_065_mvl/mxv
	BYTE	W06
	BYTE		        12*seq_065_mvl/mxv
	BYTE	W06
	BYTE		        8*seq_065_mvl/mxv
	BYTE	W06
	BYTE		        4*seq_065_mvl/mxv
	BYTE	W06
	BYTE		        2*seq_065_mvl/mxv
	BYTE	W06
	BYTE	PEND
	BYTE		EOT     Cn3 
	BYTE		VOL     70*seq_065_mvl/mxv
	BYTE		TIE     Cn3   v096
	BYTE	W96
	BYTE	PEND
	BYTE	W90
	BYTE		VOL     68*seq_065_mvl/mxv
	BYTE	W06
	BYTE	PATT
	 POIN2	seq_065_3 + 0x82
	BYTE		VOL     48*seq_065_mvl/mxv
	BYTE	W06
	BYTE		        46*seq_065_mvl/mxv
	BYTE	W06
	BYTE		        43*seq_065_mvl/mxv
	BYTE	W06
	BYTE		        41*seq_065_mvl/mxv
	BYTE	W06
	BYTE		        38*seq_065_mvl/mxv
	BYTE	W06
	BYTE		        36*seq_065_mvl/mxv
	BYTE	W06
	BYTE		        33*seq_065_mvl/mxv
	BYTE	W06
	BYTE		        29*seq_065_mvl/mxv
	BYTE	W06
	BYTE		        26*seq_065_mvl/mxv
	BYTE	W06
	BYTE		        23*seq_065_mvl/mxv
	BYTE	W06
	BYTE		        19*seq_065_mvl/mxv
	BYTE	W06
	BYTE		        16*seq_065_mvl/mxv
	BYTE	W06
	BYTE		        12*seq_065_mvl/mxv
	BYTE	W06
	BYTE		        8*seq_065_mvl/mxv
	BYTE	W06
	BYTE		        4*seq_065_mvl/mxv
	BYTE	W06
	BYTE		        2*seq_065_mvl/mxv
	BYTE	W05
	BYTE		EOT     Cn3 
	BYTE	W01
	BYTE	PATT
	 POIN2	seq_065_3 + 0xC3
	BYTE	W90
	BYTE		VOL     68*seq_065_mvl/mxv
	BYTE	W06
	BYTE	PATT
	 POIN2	seq_065_3 + 0x82
	BYTE	PATT
	 POIN2	seq_065_3 + 0x9F
	BYTE		EOT     Cn3 
	BYTE	PATT
	 POIN2	seq_065_3 + 0xC3
	BYTE	W96
	BYTE	W12
	BYTE		VOL     70*seq_065_mvl/mxv
	BYTE	W24
	BYTE		        69*seq_065_mvl/mxv
	BYTE	W18
	BYTE		        68*seq_065_mvl/mxv
	BYTE	W06
	BYTE		        68*seq_065_mvl/mxv
	BYTE	W06
	BYTE		        67*seq_065_mvl/mxv
	BYTE	W06
	BYTE		        66*seq_065_mvl/mxv
	BYTE	W06
	BYTE		        65*seq_065_mvl/mxv
	BYTE	W06
	BYTE		        64*seq_065_mvl/mxv
	BYTE	W06
	BYTE		        63*seq_065_mvl/mxv
	BYTE	W06
	BYTE		        63*seq_065_mvl/mxv
	BYTE	W06
	BYTE		        61*seq_065_mvl/mxv
	BYTE	W06
	BYTE		        60*seq_065_mvl/mxv
	BYTE	W06
	BYTE		        59*seq_065_mvl/mxv
	BYTE	W06
	BYTE		        58*seq_065_mvl/mxv
	BYTE	W06
	BYTE		        56*seq_065_mvl/mxv
	BYTE	W06
	BYTE		        55*seq_065_mvl/mxv
	BYTE	W06
	BYTE		        53*seq_065_mvl/mxv
	BYTE	W06
	BYTE		        52*seq_065_mvl/mxv
	BYTE	W06
	BYTE		        50*seq_065_mvl/mxv
	BYTE	W06
	BYTE		        48*seq_065_mvl/mxv
	BYTE	W06
	BYTE		        46*seq_065_mvl/mxv
	BYTE	W06
	BYTE		        44*seq_065_mvl/mxv
	BYTE	W06
	BYTE		        43*seq_065_mvl/mxv
	BYTE	W06
	BYTE		        40*seq_065_mvl/mxv
	BYTE	W06
	BYTE		        38*seq_065_mvl/mxv
	BYTE	W06
	BYTE		        36*seq_065_mvl/mxv
	BYTE	W06
	BYTE		        34*seq_065_mvl/mxv
	BYTE	W06
	BYTE		        31*seq_065_mvl/mxv
	BYTE	W06
	BYTE		        29*seq_065_mvl/mxv
	BYTE	W06
	BYTE		        26*seq_065_mvl/mxv
	BYTE	W06
	BYTE		        24*seq_065_mvl/mxv
	BYTE	W06
	BYTE		        21*seq_065_mvl/mxv
	BYTE	W06
	BYTE		        19*seq_065_mvl/mxv
	BYTE	W06
	BYTE		        16*seq_065_mvl/mxv
	BYTE	W06
	BYTE		        13*seq_065_mvl/mxv
	BYTE	W06
	BYTE		        10*seq_065_mvl/mxv
	BYTE	W06
	BYTE		        7*seq_065_mvl/mxv
	BYTE	W06
	BYTE		        4*seq_065_mvl/mxv
	BYTE	W06
	BYTE		        1*seq_065_mvl/mxv
	BYTE	W06
	BYTE		        0*seq_065_mvl/mxv
	BYTE	W10
	BYTE		EOT     Cn3 
	BYTE	W02
	BYTE	W96
	BYTE	W96
	BYTE	W96
	BYTE	W96
	BYTE	W96
	BYTE	W96
	BYTE	W96
	BYTE	W96
	BYTE	W96
	BYTE	W96
	BYTE	W96
	BYTE	W96
	BYTE	W96
	BYTE	W96
	BYTE	W96
	BYTE	W96
	BYTE	W96
	BYTE	W96
	BYTE	W96
	BYTE	W96
	BYTE	W96
	BYTE	W96
	BYTE	W96
	BYTE	W96
	BYTE	W96
	BYTE	W96
	BYTE	W96
	BYTE	W96
	BYTE	W96
	BYTE	W96
	BYTE	W96
	BYTE	W92
	BYTE	W02
	BYTE	W01
	BYTE		VOL     70*seq_065_mvl/mxv
	BYTE	W01
	BYTE		TIE     Cn3   v096
	BYTE	W96
	BYTE	W84
	BYTE		VOL     68*seq_065_mvl/mxv
	BYTE	W12
	BYTE	W12
	BYTE		VOL     67*seq_065_mvl/mxv
	BYTE	W12
	BYTE		        65*seq_065_mvl/mxv
	BYTE	W06
	BYTE		        65*seq_065_mvl/mxv
	BYTE	W06
	BYTE		        64*seq_065_mvl/mxv
	BYTE	W06
	BYTE		        63*seq_065_mvl/mxv
	BYTE	W06
	BYTE		        61*seq_065_mvl/mxv
	BYTE	W06
	BYTE		        60*seq_065_mvl/mxv
	BYTE	W06
	BYTE		        58*seq_065_mvl/mxv
	BYTE	W06
	BYTE		        57*seq_065_mvl/mxv
	BYTE	W06
	BYTE		        55*seq_065_mvl/mxv
	BYTE	W06
	BYTE		        53*seq_065_mvl/mxv
	BYTE	W06
	BYTE		        51*seq_065_mvl/mxv
	BYTE	W06
	BYTE		        48*seq_065_mvl/mxv
	BYTE	W06
	BYTE	PEND
	BYTE		VOL     46*seq_065_mvl/mxv
	BYTE	W06
	BYTE		        43*seq_065_mvl/mxv
	BYTE	W06
	BYTE		        41*seq_065_mvl/mxv
	BYTE	W06
	BYTE		        38*seq_065_mvl/mxv
	BYTE	W06
	BYTE		        35*seq_065_mvl/mxv
	BYTE	W06
	BYTE		        32*seq_065_mvl/mxv
	BYTE	W06
	BYTE		        29*seq_065_mvl/mxv
	BYTE	W06
	BYTE		        26*seq_065_mvl/mxv
	BYTE	W06
	BYTE		        22*seq_065_mvl/mxv
	BYTE	W06
	BYTE		        19*seq_065_mvl/mxv
	BYTE	W06
	BYTE		        15*seq_065_mvl/mxv
	BYTE	W06
	BYTE		        11*seq_065_mvl/mxv
	BYTE	W06
	BYTE	PEND
	BYTE		EOT     Cn3 
	BYTE		VOL     70*seq_065_mvl/mxv
	BYTE		N24     Gn2   v096
	BYTE	W24
	BYTE		TIE     Cn3 
	BYTE	W96
	BYTE	W84
	BYTE		VOL     68*seq_065_mvl/mxv
	BYTE	W12
	BYTE	PATT
	 POIN2	seq_065_3 + 0x194
	BYTE	PATT
	 POIN2	seq_065_3 + 0x1B1
	BYTE		EOT     Cn3 
	BYTE		VOL     70*seq_065_mvl/mxv
	BYTE		N06     Gn2   v096
	BYTE	W08
	BYTE		        Gn2   v088
	BYTE	W08
	BYTE		        Gn2   v080
	BYTE	W08
	BYTE		TIE     Cn3   v096
	BYTE	W96
	BYTE	W84
	BYTE		VOL     68*seq_065_mvl/mxv
	BYTE	W12
	BYTE	PATT
	 POIN2	seq_065_3 + 0x194
	BYTE	PATT
	 POIN2	seq_065_3 + 0x1B1
	BYTE		EOT     Cn3 
	BYTE		VOL     70*seq_065_mvl/mxv
	BYTE		N24     Gn2   v096
	BYTE	W24
	BYTE		TIE     Cn3 
	BYTE	W96
	BYTE	W72
	BYTE		VOL     69*seq_065_mvl/mxv
	BYTE	W18
	BYTE		        68*seq_065_mvl/mxv
	BYTE	W06
	BYTE	W06
	BYTE		        67*seq_065_mvl/mxv
	BYTE	W06
	BYTE		        66*seq_065_mvl/mxv
	BYTE	W06
	BYTE		        65*seq_065_mvl/mxv
	BYTE	W06
	BYTE		        64*seq_065_mvl/mxv
	BYTE	W06
	BYTE		        63*seq_065_mvl/mxv
	BYTE	W06
	BYTE		        61*seq_065_mvl/mxv
	BYTE	W06
	BYTE		        60*seq_065_mvl/mxv
	BYTE	W06
	BYTE		        58*seq_065_mvl/mxv
	BYTE	W06
	BYTE		        55*seq_065_mvl/mxv
	BYTE	W06
	BYTE		        53*seq_065_mvl/mxv
	BYTE	W06
	BYTE		        51*seq_065_mvl/mxv
	BYTE	W06
	BYTE		        48*seq_065_mvl/mxv
	BYTE	W06
	BYTE		        46*seq_065_mvl/mxv
	BYTE	W06
	BYTE		        43*seq_065_mvl/mxv
	BYTE	W06
	BYTE		        40*seq_065_mvl/mxv
	BYTE	W06
	BYTE		        37*seq_065_mvl/mxv
	BYTE	W06
	BYTE		        34*seq_065_mvl/mxv
	BYTE	W06
	BYTE		        31*seq_065_mvl/mxv
	BYTE	W06
	BYTE		        27*seq_065_mvl/mxv
	BYTE	W06
	BYTE		        24*seq_065_mvl/mxv
	BYTE	W06
	BYTE		        20*seq_065_mvl/mxv
	BYTE	W06
	BYTE		        16*seq_065_mvl/mxv
	BYTE	W06
	BYTE		        12*seq_065_mvl/mxv
	BYTE	W05
	BYTE		EOT
	BYTE	W01
	BYTE		VOL     70*seq_065_mvl/mxv
	BYTE		N24
	BYTE	W24
	BYTE		        As2   v104
	BYTE	W24
	BYTE		N12     Gs2   v092
	BYTE	W12
	BYTE		        Ds3   v076
	BYTE	W12
	BYTE		N72     Gs3   v080
	BYTE	W30
	BYTE		VOL     68*seq_065_mvl/mxv
	BYTE	W06
	BYTE		        67*seq_065_mvl/mxv
	BYTE	W03
	BYTE		        66*seq_065_mvl/mxv
	BYTE	W03
	BYTE		        65*seq_065_mvl/mxv
	BYTE	W03
	BYTE		        65*seq_065_mvl/mxv
	BYTE	W03
	BYTE		        63*seq_065_mvl/mxv
	BYTE	W03
	BYTE		        61*seq_065_mvl/mxv
	BYTE	W03
	BYTE		        60*seq_065_mvl/mxv
	BYTE	W03
	BYTE		        57*seq_065_mvl/mxv
	BYTE	W03
	BYTE		        55*seq_065_mvl/mxv
	BYTE	W03
	BYTE		        52*seq_065_mvl/mxv
	BYTE	W03
	BYTE		        49*seq_065_mvl/mxv
	BYTE	W03
	BYTE		        46*seq_065_mvl/mxv
	BYTE		N12     As2   v096
	BYTE	W03
	BYTE		VOL     70*seq_065_mvl/mxv
	BYTE	W12
	BYTE		N12     Fn3   v088
	BYTE	W12
	BYTE		N72     As3   v084
	BYTE	W30
	BYTE		VOL     68*seq_065_mvl/mxv
	BYTE	W06
	BYTE		        67*seq_065_mvl/mxv
	BYTE	W03
	BYTE		        66*seq_065_mvl/mxv
	BYTE	W03
	BYTE		        65*seq_065_mvl/mxv
	BYTE	W03
	BYTE		        65*seq_065_mvl/mxv
	BYTE	W03
	BYTE		        63*seq_065_mvl/mxv
	BYTE	W03
	BYTE		        61*seq_065_mvl/mxv
	BYTE	W03
	BYTE		        60*seq_065_mvl/mxv
	BYTE	W03
	BYTE		        57*seq_065_mvl/mxv
	BYTE	W03
	BYTE		        55*seq_065_mvl/mxv
	BYTE	W03
	BYTE		        52*seq_065_mvl/mxv
	BYTE	W03
	BYTE		        49*seq_065_mvl/mxv
	BYTE	W03
	BYTE		        46*seq_065_mvl/mxv
	BYTE	W03
	BYTE		        70*seq_065_mvl/mxv
	BYTE		N12     Gs2   v092
	BYTE	W12
	BYTE		        Ds3   v076
	BYTE	W12
	BYTE		N72     Gs3   v080
	BYTE	W30
	BYTE		VOL     68*seq_065_mvl/mxv
	BYTE	W06
	BYTE		        67*seq_065_mvl/mxv
	BYTE	W03
	BYTE		        66*seq_065_mvl/mxv
	BYTE	W03
	BYTE		        65*seq_065_mvl/mxv
	BYTE	W03
	BYTE		        65*seq_065_mvl/mxv
	BYTE	W03
	BYTE		        63*seq_065_mvl/mxv
	BYTE	W03
	BYTE		        61*seq_065_mvl/mxv
	BYTE	W03
	BYTE		        60*seq_065_mvl/mxv
	BYTE	W03
	BYTE		        57*seq_065_mvl/mxv
	BYTE	W03
	BYTE		        55*seq_065_mvl/mxv
	BYTE	W03
	BYTE		        52*seq_065_mvl/mxv
	BYTE	W03
	BYTE		        49*seq_065_mvl/mxv
	BYTE	W03
	BYTE		        46*seq_065_mvl/mxv
	BYTE	W03
	BYTE		VOL     70*seq_065_mvl/mxv
	BYTE		N12     Gn2   v088
	BYTE	W12
	BYTE		        Dn3   v084
	BYTE	W12
	BYTE		N72     Gn3 
	BYTE	W30
	BYTE		VOL     68*seq_065_mvl/mxv
	BYTE	W06
	BYTE		        67*seq_065_mvl/mxv
	BYTE	W03
	BYTE		        66*seq_065_mvl/mxv
	BYTE	W03
	BYTE		        65*seq_065_mvl/mxv
	BYTE	W03
	BYTE		        65*seq_065_mvl/mxv
	BYTE	W03
	BYTE		        63*seq_065_mvl/mxv
	BYTE	W03
	BYTE		        61*seq_065_mvl/mxv
	BYTE	W03
	BYTE		        60*seq_065_mvl/mxv
	BYTE	W03
	BYTE		        57*seq_065_mvl/mxv
	BYTE	W03
	BYTE		        55*seq_065_mvl/mxv
	BYTE	W03
	BYTE		        52*seq_065_mvl/mxv
	BYTE	W03
	BYTE		        49*seq_065_mvl/mxv
	BYTE	W03
	BYTE		        46*seq_065_mvl/mxv
	BYTE	W03
	BYTE	PEND
	BYTE		        70*seq_065_mvl/mxv
	BYTE		N12     Gs2   v092
	BYTE	W12
	BYTE		        Ds3   v072
	BYTE	W12
	BYTE		N72     Gs3   v080
	BYTE	W30
	BYTE		VOL     68*seq_065_mvl/mxv
	BYTE	W06
	BYTE		        67*seq_065_mvl/mxv
	BYTE	W03
	BYTE		        66*seq_065_mvl/mxv
	BYTE	W03
	BYTE		        65*seq_065_mvl/mxv
	BYTE	W03
	BYTE		        65*seq_065_mvl/mxv
	BYTE	W03
	BYTE		        63*seq_065_mvl/mxv
	BYTE	W03
	BYTE		        61*seq_065_mvl/mxv
	BYTE	W03
	BYTE		        60*seq_065_mvl/mxv
	BYTE	W03
	BYTE		        57*seq_065_mvl/mxv
	BYTE	W03
	BYTE		        55*seq_065_mvl/mxv
	BYTE	W03
	BYTE		        52*seq_065_mvl/mxv
	BYTE	W03
	BYTE		        49*seq_065_mvl/mxv
	BYTE	W03
	BYTE		        46*seq_065_mvl/mxv
	BYTE	W03
	BYTE		        70*seq_065_mvl/mxv
	BYTE		N12     As2   v096
	BYTE	W12
	BYTE		        Fn3   v088
	BYTE	W12
	BYTE		N72     As3   v084
	BYTE	W30
	BYTE		VOL     68*seq_065_mvl/mxv
	BYTE	W06
	BYTE		        67*seq_065_mvl/mxv
	BYTE	W03
	BYTE		        66*seq_065_mvl/mxv
	BYTE	W03
	BYTE		        65*seq_065_mvl/mxv
	BYTE	W03
	BYTE		        65*seq_065_mvl/mxv
	BYTE	W03
	BYTE		        63*seq_065_mvl/mxv
	BYTE	W03
	BYTE		        61*seq_065_mvl/mxv
	BYTE	W03
	BYTE		        60*seq_065_mvl/mxv
	BYTE	W03
	BYTE		        57*seq_065_mvl/mxv
	BYTE	W03
	BYTE		        55*seq_065_mvl/mxv
	BYTE	W03
	BYTE		        52*seq_065_mvl/mxv
	BYTE	W03
	BYTE		        49*seq_065_mvl/mxv
	BYTE	W03
	BYTE		        46*seq_065_mvl/mxv
	BYTE	W03
	BYTE		        70*seq_065_mvl/mxv
	BYTE		N12     Gs2   v092
	BYTE	W12
	BYTE		        Ds3   v076
	BYTE	W12
	BYTE		N72     Gs3   v084
	BYTE	W30
	BYTE		VOL     68*seq_065_mvl/mxv
	BYTE	W06
	BYTE		        67*seq_065_mvl/mxv
	BYTE	W03
	BYTE		        66*seq_065_mvl/mxv
	BYTE	W03
	BYTE		        65*seq_065_mvl/mxv
	BYTE	W03
	BYTE		        65*seq_065_mvl/mxv
	BYTE	W03
	BYTE		        63*seq_065_mvl/mxv
	BYTE	W03
	BYTE		        61*seq_065_mvl/mxv
	BYTE	W03
	BYTE		        60*seq_065_mvl/mxv
	BYTE	W03
	BYTE		        57*seq_065_mvl/mxv
	BYTE	W03
	BYTE		        55*seq_065_mvl/mxv
	BYTE	W03
	BYTE		        52*seq_065_mvl/mxv
	BYTE	W03
	BYTE		        49*seq_065_mvl/mxv
	BYTE	W03
	BYTE		        46*seq_065_mvl/mxv
	BYTE	W03
	BYTE	PATT
	 POIN2	seq_065_3 + 0x2C3
	BYTE		VOL     70*seq_065_mvl/mxv
	BYTE		N72     Cn3   v092
	BYTE	W42
	BYTE		VOL     68*seq_065_mvl/mxv
	BYTE	W06
	BYTE		        66*seq_065_mvl/mxv
	BYTE	W03
	BYTE		        65*seq_065_mvl/mxv
	BYTE	W03
	BYTE		        63*seq_065_mvl/mxv
	BYTE	W03
	BYTE		        61*seq_065_mvl/mxv
	BYTE	W03
	BYTE		        58*seq_065_mvl/mxv
	BYTE	W03
	BYTE		        55*seq_065_mvl/mxv
	BYTE	W03
	BYTE		        51*seq_065_mvl/mxv
	BYTE	W03
	BYTE		        46*seq_065_mvl/mxv
	BYTE	W03
	BYTE		        70*seq_065_mvl/mxv
	BYTE		N24     Gn3   v088
	BYTE	W24
	BYTE	PEND
	BYTE		N72     Cn4   v084
	BYTE	W03
	BYTE		VOL     72*seq_065_mvl/mxv
	BYTE	W03
	BYTE		        73*seq_065_mvl/mxv
	BYTE	W03
	BYTE		        76*seq_065_mvl/mxv
	BYTE	W03
	BYTE		        83*seq_065_mvl/mxv
	BYTE	W12
	BYTE		        82*seq_065_mvl/mxv
	BYTE	W09
	BYTE		        81*seq_065_mvl/mxv
	BYTE	W03
	BYTE		        80*seq_065_mvl/mxv
	BYTE	W03
	BYTE		        80*seq_065_mvl/mxv
	BYTE	W03
	BYTE		        78*seq_065_mvl/mxv
	BYTE	W03
	BYTE		        77*seq_065_mvl/mxv
	BYTE	W03
	BYTE		        75*seq_065_mvl/mxv
	BYTE	W03
	BYTE		        73*seq_065_mvl/mxv
	BYTE	W03
	BYTE		        71*seq_065_mvl/mxv
	BYTE	W03
	BYTE		        69*seq_065_mvl/mxv
	BYTE	W03
	BYTE		        66*seq_065_mvl/mxv
	BYTE	W03
	BYTE		        63*seq_065_mvl/mxv
	BYTE	W03
	BYTE		        61*seq_065_mvl/mxv
	BYTE	W03
	BYTE		        58*seq_065_mvl/mxv
	BYTE	W03
	BYTE		        70*seq_065_mvl/mxv
	BYTE		N24     Gn3   v080
	BYTE	W24
	BYTE	PEND
	BYTE		N72     Gs2   v096
	BYTE	W42
	BYTE		VOL     68*seq_065_mvl/mxv
	BYTE	W06
	BYTE		        66*seq_065_mvl/mxv
	BYTE	W03
	BYTE		        65*seq_065_mvl/mxv
	BYTE	W03
	BYTE		        63*seq_065_mvl/mxv
	BYTE	W03
	BYTE		        61*seq_065_mvl/mxv
	BYTE	W03
	BYTE		        58*seq_065_mvl/mxv
	BYTE	W03
	BYTE		        55*seq_065_mvl/mxv
	BYTE	W03
	BYTE		        51*seq_065_mvl/mxv
	BYTE	W03
	BYTE		        46*seq_065_mvl/mxv
	BYTE	W03
	BYTE		        70*seq_065_mvl/mxv
	BYTE		N24     Ds3   v092
	BYTE	W24
	BYTE	PEND
	BYTE		N96     Gs3   v084
	BYTE	W03
	BYTE		VOL     72*seq_065_mvl/mxv
	BYTE	W03
	BYTE		        73*seq_065_mvl/mxv
	BYTE	W03
	BYTE		        76*seq_065_mvl/mxv
	BYTE	W03
	BYTE		        83*seq_065_mvl/mxv
	BYTE	W12
	BYTE		        82*seq_065_mvl/mxv
	BYTE	W09
	BYTE		        82*seq_065_mvl/mxv
	BYTE	W06
	BYTE		        80*seq_065_mvl/mxv
	BYTE	W03
	BYTE		        79*seq_065_mvl/mxv
	BYTE	W03
	BYTE		        77*seq_065_mvl/mxv
	BYTE	W03
	BYTE		        76*seq_065_mvl/mxv
	BYTE	W03
	BYTE		        75*seq_065_mvl/mxv
	BYTE	W03
	BYTE		        72*seq_065_mvl/mxv
	BYTE	W03
	BYTE		        70*seq_065_mvl/mxv
	BYTE	W03
	BYTE		        68*seq_065_mvl/mxv
	BYTE	W03
	BYTE		        65*seq_065_mvl/mxv
	BYTE	W03
	BYTE		        62*seq_065_mvl/mxv
	BYTE	W03
	BYTE		        59*seq_065_mvl/mxv
	BYTE	W03
	BYTE		        55*seq_065_mvl/mxv
	BYTE	W03
	BYTE		        52*seq_065_mvl/mxv
	BYTE	W03
	BYTE		        48*seq_065_mvl/mxv
	BYTE	W03
	BYTE		        45*seq_065_mvl/mxv
	BYTE	W03
	BYTE		        41*seq_065_mvl/mxv
	BYTE	W03
	BYTE		        36*seq_065_mvl/mxv
	BYTE	W03
	BYTE		        31*seq_065_mvl/mxv
	BYTE	W03
	BYTE		        26*seq_065_mvl/mxv
	BYTE	W03
	BYTE	PEND
	BYTE	PATT
	 POIN2	seq_065_3 + 0x365
	BYTE	PATT
	 POIN2	seq_065_3 + 0x384
	BYTE	PATT
	 POIN2	seq_065_3 + 0x3B3
	BYTE	PATT
	 POIN2	seq_065_3 + 0x3D0
	BYTE	PATT
	 POIN2	seq_065_3 + 0x365
	BYTE	PATT
	 POIN2	seq_065_3 + 0x384
	BYTE	PATT
	 POIN2	seq_065_3 + 0x3B3
	BYTE	PATT
	 POIN2	seq_065_3 + 0x3D0
	BYTE	GoTo
	 POIN2	seq_065_3 + 0x408
	BYTE		VOL     70*seq_065_mvl/mxv
	BYTE	W07
	BYTE	FINE

//*********************** Track 05 ***********************//

seq_065_4:
	BYTE	KEYSH   seq_065_key+0
	BYTE	W03
	BYTE	W04
	BYTE		VOICE   54
	BYTE	W01
	BYTE		VOL     70*seq_065_mvl/mxv
	BYTE		PAN     c_v+36
	BYTE	W90
	BYTE	W01
	BYTE	W96
	BYTE	W96
	BYTE	W96
	BYTE	W96
	BYTE	W96
	BYTE	W96
	BYTE	W96
	BYTE	W96
	BYTE	W96
	BYTE	W96
	BYTE	W96
	BYTE	W96
	BYTE	W96
	BYTE	W96
	BYTE	W96
	BYTE	W96
	BYTE	W96
	BYTE	W96
	BYTE	W96
	BYTE	W96
	BYTE	W96
	BYTE	W96
	BYTE	W96
	BYTE	W96
	BYTE	W96
	BYTE	W96
	BYTE	W96
	BYTE	W96
	BYTE	W96
	BYTE	W96
	BYTE	W07
	BYTE		VOL     70*seq_065_mvl/mxv
	BYTE	W88
	BYTE	W01
	BYTE	W07
	BYTE		N24     Cn1   v020
	BYTE	W24
	BYTE		        Gn1 
	BYTE	W24
	BYTE		N72     Cn2 
	BYTE	W24
	BYTE		VOL     67*seq_065_mvl/mxv
	BYTE	W06
	BYTE		        64*seq_065_mvl/mxv
	BYTE	W06
	BYTE		        60*seq_065_mvl/mxv
	BYTE	W05
	BYTE	PEND
	BYTE	W01
	BYTE		VOL     53*seq_065_mvl/mxv
	BYTE	W06
	BYTE		        44*seq_065_mvl/mxv
	BYTE	W06
	BYTE		        32*seq_065_mvl/mxv
	BYTE	W06
	BYTE		        18*seq_065_mvl/mxv
	BYTE	W06
	BYTE		        7*seq_065_mvl/mxv
	BYTE	W30
	BYTE		        70*seq_065_mvl/mxv
	BYTE	W40
	BYTE	W01
	BYTE	PEND
	BYTE	W07
	BYTE		N24     Cn1   v020
	BYTE	W24
	BYTE		        An1 
	BYTE	W24
	BYTE		N72     Dn2 
	BYTE	W24
	BYTE		VOL     67*seq_065_mvl/mxv
	BYTE	W06
	BYTE		        64*seq_065_mvl/mxv
	BYTE	W06
	BYTE		        60*seq_065_mvl/mxv
	BYTE	W05
	BYTE	PEND
	BYTE	PATT
	 POIN2	seq_065_4 + 0x42
	BYTE	W07
	BYTE		N24     Cn1   v020
	BYTE	W24
	BYTE		        Gn1 
	BYTE	W24
	BYTE		N72     Ds2 
	BYTE	W24
	BYTE		VOL     67*seq_065_mvl/mxv
	BYTE	W06
	BYTE		        64*seq_065_mvl/mxv
	BYTE	W06
	BYTE		        60*seq_065_mvl/mxv
	BYTE	W05
	BYTE	PEND
	BYTE	PATT
	 POIN2	seq_065_4 + 0x42
	BYTE	W07
	BYTE		N24     Ds1   v020
	BYTE	W24
	BYTE		        As1 
	BYTE	W24
	BYTE		N48     Ds2 
	BYTE	W24
	BYTE		VOL     67*seq_065_mvl/mxv
	BYTE	W03
	BYTE		        65*seq_065_mvl/mxv
	BYTE	W03
	BYTE		        61*seq_065_mvl/mxv
	BYTE	W03
	BYTE		        55*seq_065_mvl/mxv
	BYTE	W03
	BYTE		        45*seq_065_mvl/mxv
	BYTE	W03
	BYTE		        32*seq_065_mvl/mxv
	BYTE	W02
	BYTE	PEND
	BYTE	W01
	BYTE		VOL     17*seq_065_mvl/mxv
	BYTE	W03
	BYTE		        9*seq_065_mvl/mxv
	BYTE	W03
	BYTE		        70*seq_065_mvl/mxv
	BYTE		N24     Fn1   v020
	BYTE	W24
	BYTE		        Cn2 
	BYTE	W24
	BYTE		N44     Ds2 
	BYTE	W24
	BYTE		VOL     67*seq_065_mvl/mxv
	BYTE	W03
	BYTE		        65*seq_065_mvl/mxv
	BYTE	W03
	BYTE		        61*seq_065_mvl/mxv
	BYTE	W03
	BYTE		        55*seq_065_mvl/mxv
	BYTE	W03
	BYTE		        45*seq_065_mvl/mxv
	BYTE	W03
	BYTE		        32*seq_065_mvl/mxv
	BYTE	W02
	BYTE	PEND
	BYTE		        24*seq_065_mvl/mxv
	BYTE	W01
	BYTE		        17*seq_065_mvl/mxv
	BYTE	W02
	BYTE		        7*seq_065_mvl/mxv
	BYTE	W02
	BYTE	W02
	BYTE		        70*seq_065_mvl/mxv
	BYTE	W88
	BYTE	W01
	BYTE	W96
	BYTE	W96
	BYTE	W96
	BYTE	W96
	BYTE	W96
	BYTE	W96
	BYTE	W96
	BYTE	W96
	BYTE	W96
	BYTE	W96
	BYTE	W96
	BYTE	W96
	BYTE	W96
	BYTE	W96
	BYTE	W96
	BYTE	W96
	BYTE	W96
	BYTE	W96
	BYTE	W96
	BYTE	W96
	BYTE	W96
	BYTE	W96
	BYTE	W96
	BYTE	W96
	BYTE	W96
	BYTE	W96
	BYTE	W96
	BYTE	W96
	BYTE	W96
	BYTE	W96
	BYTE	W96
	BYTE	PATT
	 POIN2	seq_065_4 + 0x30
	BYTE	PATT
	 POIN2	seq_065_4 + 0x42
	BYTE	PATT
	 POIN2	seq_065_4 + 0x52
	BYTE	PATT
	 POIN2	seq_065_4 + 0x42
	BYTE	PATT
	 POIN2	seq_065_4 + 0x69
	BYTE	PATT
	 POIN2	seq_065_4 + 0x42
	BYTE	PATT
	 POIN2	seq_065_4 + 0x80
	BYTE	PATT
	 POIN2	seq_065_4 + 0x98
	BYTE		VOL     24*seq_065_mvl/mxv
	BYTE	W01
	BYTE		        17*seq_065_mvl/mxv
	BYTE	W02
	BYTE		        7*seq_065_mvl/mxv
	BYTE	W04
	BYTE		        70*seq_065_mvl/mxv
	BYTE		N24     Gs1   v024
	BYTE	W24
	BYTE		        Cn2 
	BYTE	W24
	BYTE		        Ds2 
	BYTE	W24
	BYTE		        Cn2 
	BYTE	W17
	BYTE	W07
	BYTE		N24     Ds2   v024
	BYTE	W24
	BYTE		        Dn2 
	BYTE	W24
	BYTE		        Ds2 
	BYTE	W24
	BYTE		        Cn2 
	BYTE	W17
	BYTE	PEND
	BYTE	W07
	BYTE		N24     Gn1   v024
	BYTE	W24
	BYTE		        Bn1 
	BYTE	W24
	BYTE		        Dn2 
	BYTE	W24
	BYTE		        Bn1 
	BYTE	W17
	BYTE	PEND
	BYTE	W07
	BYTE		        Dn2 
	BYTE	W24
	BYTE		        Cn2 
	BYTE	W24
	BYTE		        Dn2 
	BYTE	W24
	BYTE		        Bn1 
	BYTE	W17
	BYTE	W07
	BYTE		        Gs1 
	BYTE	W24
	BYTE		        Cn2 
	BYTE	W24
	BYTE		        Ds2 
	BYTE	W24
	BYTE		        Cn2 
	BYTE	W17
	BYTE	PATT
	 POIN2	seq_065_4 + 0x119
	BYTE	PATT
	 POIN2	seq_065_4 + 0x125
	BYTE	W07
	BYTE		N72     Gn1   v016
	BYTE	W24
	BYTE		VOL     67*seq_065_mvl/mxv
	BYTE	W06
	BYTE		        64*seq_065_mvl/mxv
	BYTE	W06
	BYTE		        60*seq_065_mvl/mxv
	BYTE	W06
	BYTE		        53*seq_065_mvl/mxv
	BYTE	W06
	BYTE		        44*seq_065_mvl/mxv
	BYTE	W06
	BYTE		        32*seq_065_mvl/mxv
	BYTE	W06
	BYTE		        18*seq_065_mvl/mxv
	BYTE	W06
	BYTE		        7*seq_065_mvl/mxv
	BYTE	W07
	BYTE	W16
	BYTE	W96
	BYTE	W96
	BYTE	W96
	BYTE	W96
	BYTE	W96
	BYTE	W96
	BYTE	W96
	BYTE	W96
	BYTE	W96
	BYTE	W96
	BYTE	W96
	BYTE	W96
	BYTE	W96
	BYTE	W96
	BYTE	W96
	BYTE	W96
	BYTE	W96
	BYTE	W96
	BYTE	W96
	BYTE	W96
	BYTE	W96
	BYTE	W96
	BYTE	W96
	BYTE	W96
	BYTE	W96
	BYTE	W96
	BYTE	W96
	BYTE	W96
	BYTE	W96
	BYTE	W96
	BYTE	W96
	BYTE	W96
	BYTE	W96
	BYTE	W96
	BYTE	W96
	BYTE	W96
	BYTE	W96
	BYTE	W96
	BYTE	W96
	BYTE	W96
	BYTE	W96
	BYTE	W96
	BYTE	W96
	BYTE	W96
	BYTE	W96
	BYTE	W96
	BYTE	W96
	BYTE	W96
	BYTE	W92
	BYTE	W02
	BYTE		VOICE   49
	BYTE		PAN     c_v-14
	BYTE	W01
	BYTE		BENDR   12
	BYTE		VOL     70*seq_065_mvl/mxv
	BYTE	W01
	BYTE		TIE     Cn1   v084
	BYTE	W96
	BYTE		VOL     69*seq_065_mvl/mxv
	BYTE	W12
	BYTE		        68*seq_065_mvl/mxv
	BYTE	W06
	BYTE		        67*seq_065_mvl/mxv
	BYTE	W06
	BYTE		        65*seq_065_mvl/mxv
	BYTE	W06
	BYTE		        62*seq_065_mvl/mxv
	BYTE	W06
	BYTE		        58*seq_065_mvl/mxv
	BYTE	W06
	BYTE		        54*seq_065_mvl/mxv
	BYTE	W06
	BYTE		        49*seq_065_mvl/mxv
	BYTE	W06
	BYTE		        44*seq_065_mvl/mxv
	BYTE	W06
	BYTE		        38*seq_065_mvl/mxv
	BYTE	W06
	BYTE		        31*seq_065_mvl/mxv
	BYTE	W06
	BYTE		        24*seq_065_mvl/mxv
	BYTE	W06
	BYTE		        17*seq_065_mvl/mxv
	BYTE	W06
	BYTE		        8*seq_065_mvl/mxv
	BYTE	W06
	BYTE		        3*seq_065_mvl/mxv
	BYTE	W06
	BYTE	PEND
	BYTE		EOT     Cn1 
	BYTE	W12
	BYTE		VOL     61*seq_065_mvl/mxv
	BYTE	W84
	BYTE	W66
	BYTE		BEND    c_v-27
	BYTE	W06
	BYTE		TIE     Cn1   v084
	BYTE	W06
	BYTE		VOL     62*seq_065_mvl/mxv
	BYTE	W06
	BYTE		        63*seq_065_mvl/mxv
	BYTE	W03
	BYTE		BEND    c_v-24
	BYTE	W01
	BYTE		        c_v-21
	BYTE	W02
	BYTE		VOL     67*seq_065_mvl/mxv
	BYTE		BEND    c_v-19
	BYTE	W01
	BYTE		        c_v-14
	BYTE	W02
	BYTE		        c_v-9
	BYTE	W01
	BYTE		        c_v-4
	BYTE	W02
	BYTE		VOL     70*seq_065_mvl/mxv
	BYTE		BEND    c_v+0
	BYTE	W96
	BYTE		VOL     68*seq_065_mvl/mxv
	BYTE	W12
	BYTE		        67*seq_065_mvl/mxv
	BYTE	W06
	BYTE		        65*seq_065_mvl/mxv
	BYTE	W06
	BYTE		        63*seq_065_mvl/mxv
	BYTE	W06
	BYTE		        60*seq_065_mvl/mxv
	BYTE	W06
	BYTE		        56*seq_065_mvl/mxv
	BYTE	W06
	BYTE		        52*seq_065_mvl/mxv
	BYTE	W06
	BYTE		        46*seq_065_mvl/mxv
	BYTE	W06
	BYTE		        41*seq_065_mvl/mxv
	BYTE	W06
	BYTE		        34*seq_065_mvl/mxv
	BYTE	W06
	BYTE		        27*seq_065_mvl/mxv
	BYTE	W06
	BYTE		        19*seq_065_mvl/mxv
	BYTE	W06
	BYTE		        11*seq_065_mvl/mxv
	BYTE	W06
	BYTE		        5*seq_065_mvl/mxv
	BYTE	W06
	BYTE		        1*seq_065_mvl/mxv
	BYTE	W06
	BYTE	PEND
	BYTE		EOT     Cn1 
	BYTE	W30
	BYTE		VOL     70*seq_065_mvl/mxv
	BYTE	W66
	BYTE	W72
	BYTE		N05     Gn0   v072
	BYTE	W08
	BYTE		N04     Gn0   v064
	BYTE	W08
	BYTE		        Gn0   v060
	BYTE	W08
	BYTE		TIE     Cn1   v076
	BYTE	W96
	BYTE	PATT
	 POIN2	seq_065_4 + 0x1A4
	BYTE		EOT     Cn1 
	BYTE	W12
	BYTE		VOL     61*seq_065_mvl/mxv
	BYTE	W84
	BYTE	W68
	BYTE	W01
	BYTE		BEND    c_v-27
	BYTE	W03
	BYTE		TIE     Cn1   v076
	BYTE	W06
	BYTE		VOL     62*seq_065_mvl/mxv
	BYTE	W06
	BYTE		        63*seq_065_mvl/mxv
	BYTE	W03
	BYTE		BEND    c_v-24
	BYTE	W01
	BYTE		        c_v-21
	BYTE	W02
	BYTE		VOL     67*seq_065_mvl/mxv
	BYTE		BEND    c_v-19
	BYTE	W01
	BYTE		        c_v-14
	BYTE	W02
	BYTE		        c_v-9
	BYTE	W01
	BYTE		        c_v-4
	BYTE	W02
	BYTE		VOL     70*seq_065_mvl/mxv
	BYTE		BEND    c_v+0
	BYTE	W96
	BYTE	PATT
	 POIN2	seq_065_4 + 0x1EC
	BYTE		EOT     Cn1 
	BYTE	W30
	BYTE		VOL     70*seq_065_mvl/mxv
	BYTE	W66
	BYTE	W48
	BYTE		N24     Cn1   v100
	BYTE	W24
	BYTE		        As0   v104
	BYTE	W24
	BYTE		N80     Gs0   v096
	BYTE	W44
	BYTE	W01
	BYTE		VOL     68*seq_065_mvl/mxv
	BYTE	W06
	BYTE		        68*seq_065_mvl/mxv
	BYTE	W03
	BYTE		        67*seq_065_mvl/mxv
	BYTE	W03
	BYTE		        65*seq_065_mvl/mxv
	BYTE	W03
	BYTE		        64*seq_065_mvl/mxv
	BYTE	W03
	BYTE		        63*seq_065_mvl/mxv
	BYTE	W03
	BYTE		        60*seq_065_mvl/mxv
	BYTE	W03
	BYTE		        58*seq_065_mvl/mxv
	BYTE	W03
	BYTE		        55*seq_065_mvl/mxv
	BYTE	W03
	BYTE		        52*seq_065_mvl/mxv
	BYTE	W03
	BYTE		        48*seq_065_mvl/mxv
	BYTE	W03
	BYTE		        45*seq_065_mvl/mxv
	BYTE	W03
	BYTE		        70*seq_065_mvl/mxv
	BYTE		N12     Gs0   v084
	BYTE	W12
	BYTE		N96     As0   v092
	BYTE	W36
	BYTE		VOL     70*seq_065_mvl/mxv
	BYTE	W06
	BYTE		        69*seq_065_mvl/mxv
	BYTE	W06
	BYTE		        68*seq_065_mvl/mxv
	BYTE	W03
	BYTE		        68*seq_065_mvl/mxv
	BYTE	W03
	BYTE		        67*seq_065_mvl/mxv
	BYTE	W03
	BYTE		        65*seq_065_mvl/mxv
	BYTE	W03
	BYTE		        64*seq_065_mvl/mxv
	BYTE	W03
	BYTE		        63*seq_065_mvl/mxv
	BYTE	W03
	BYTE		        61*seq_065_mvl/mxv
	BYTE	W03
	BYTE		        59*seq_065_mvl/mxv
	BYTE	W03
	BYTE		        58*seq_065_mvl/mxv
	BYTE	W03
	BYTE		        55*seq_065_mvl/mxv
	BYTE	W03
	BYTE		        53*seq_065_mvl/mxv
	BYTE	W03
	BYTE		        51*seq_065_mvl/mxv
	BYTE	W03
	BYTE		        48*seq_065_mvl/mxv
	BYTE	W03
	BYTE		        45*seq_065_mvl/mxv
	BYTE	W03
	BYTE		        42*seq_065_mvl/mxv
	BYTE	W03
	BYTE		        38*seq_065_mvl/mxv
	BYTE	W03
	BYTE	PEND
	BYTE		VOL     70*seq_065_mvl/mxv
	BYTE		N80     Gs0   v096
	BYTE	W44
	BYTE	W01
	BYTE		VOL     68*seq_065_mvl/mxv
	BYTE	W06
	BYTE		        68*seq_065_mvl/mxv
	BYTE	W03
	BYTE		        67*seq_065_mvl/mxv
	BYTE	W03
	BYTE		        65*seq_065_mvl/mxv
	BYTE	W03
	BYTE		        64*seq_065_mvl/mxv
	BYTE	W03
	BYTE		        63*seq_065_mvl/mxv
	BYTE	W03
	BYTE		        60*seq_065_mvl/mxv
	BYTE	W03
	BYTE		        58*seq_065_mvl/mxv
	BYTE	W03
	BYTE		        55*seq_065_mvl/mxv
	BYTE	W03
	BYTE		        52*seq_065_mvl/mxv
	BYTE	W03
	BYTE		        48*seq_065_mvl/mxv
	BYTE	W03
	BYTE		        45*seq_065_mvl/mxv
	BYTE	W03
	BYTE		        70*seq_065_mvl/mxv
	BYTE		N12     Gs0   v092
	BYTE	W12
	BYTE	PEND
	BYTE		N96     Gn0   v084
	BYTE	W36
	BYTE		VOL     70*seq_065_mvl/mxv
	BYTE	W06
	BYTE		        69*seq_065_mvl/mxv
	BYTE	W06
	BYTE		        68*seq_065_mvl/mxv
	BYTE	W03
	BYTE		        68*seq_065_mvl/mxv
	BYTE	W03
	BYTE		        67*seq_065_mvl/mxv
	BYTE	W03
	BYTE		        65*seq_065_mvl/mxv
	BYTE	W03
	BYTE		        64*seq_065_mvl/mxv
	BYTE	W03
	BYTE		        63*seq_065_mvl/mxv
	BYTE	W03
	BYTE		        61*seq_065_mvl/mxv
	BYTE	W03
	BYTE		        59*seq_065_mvl/mxv
	BYTE	W03
	BYTE		        58*seq_065_mvl/mxv
	BYTE	W03
	BYTE		        55*seq_065_mvl/mxv
	BYTE	W03
	BYTE		        53*seq_065_mvl/mxv
	BYTE	W03
	BYTE		        51*seq_065_mvl/mxv
	BYTE	W03
	BYTE		        48*seq_065_mvl/mxv
	BYTE	W03
	BYTE		        45*seq_065_mvl/mxv
	BYTE	W03
	BYTE		        42*seq_065_mvl/mxv
	BYTE	W03
	BYTE		        38*seq_065_mvl/mxv
	BYTE	W03
	BYTE	PEND
	BYTE		        70*seq_065_mvl/mxv
	BYTE		N80     Gs0   v096
	BYTE	W44
	BYTE	W01
	BYTE		VOL     68*seq_065_mvl/mxv
	BYTE	W06
	BYTE		        68*seq_065_mvl/mxv
	BYTE	W03
	BYTE		        67*seq_065_mvl/mxv
	BYTE	W03
	BYTE		        65*seq_065_mvl/mxv
	BYTE	W03
	BYTE		        64*seq_065_mvl/mxv
	BYTE	W03
	BYTE		        63*seq_065_mvl/mxv
	BYTE	W03
	BYTE		        60*seq_065_mvl/mxv
	BYTE	W03
	BYTE		        58*seq_065_mvl/mxv
	BYTE	W03
	BYTE		        55*seq_065_mvl/mxv
	BYTE	W03
	BYTE		        52*seq_065_mvl/mxv
	BYTE	W03
	BYTE		        48*seq_065_mvl/mxv
	BYTE	W03
	BYTE		        45*seq_065_mvl/mxv
	BYTE	W03
	BYTE		        70*seq_065_mvl/mxv
	BYTE		N12     Gs0   v084
	BYTE	W12
	BYTE	PATT
	 POIN2	seq_065_4 + 0x286
	BYTE	PATT
	 POIN2	seq_065_4 + 0x2B0
	BYTE	PATT
	 POIN2	seq_065_4 + 0x2D6
	BYTE		VOL     70*seq_065_mvl/mxv
	BYTE		N72     Cn1   v092
	BYTE	W42
	BYTE		VOL     69*seq_065_mvl/mxv
	BYTE	W06
	BYTE		        68*seq_065_mvl/mxv
	BYTE	W03
	BYTE		        68*seq_065_mvl/mxv
	BYTE	W03
	BYTE		        67*seq_065_mvl/mxv
	BYTE	W03
	BYTE		        66*seq_065_mvl/mxv
	BYTE	W03
	BYTE		        65*seq_065_mvl/mxv
	BYTE	W03
	BYTE		        63*seq_065_mvl/mxv
	BYTE	W03
	BYTE		        61*seq_065_mvl/mxv
	BYTE	W03
	BYTE		        59*seq_065_mvl/mxv
	BYTE	W02
	BYTE		BEND    c_v+0
	BYTE	W01
	BYTE		VOL     61*seq_065_mvl/mxv
	BYTE		BEND    c_v-27
	BYTE		N96     Cn2   v072
	BYTE	W06
	BYTE		VOL     62*seq_065_mvl/mxv
	BYTE	W06
	BYTE		        63*seq_065_mvl/mxv
	BYTE	W03
	BYTE		BEND    c_v-24
	BYTE	W01
	BYTE		        c_v-21
	BYTE	W02
	BYTE		VOL     67*seq_065_mvl/mxv
	BYTE		BEND    c_v-19
	BYTE	W01
	BYTE		        c_v-14
	BYTE	W02
	BYTE		        c_v-9
	BYTE	W01
	BYTE		        c_v-4
	BYTE	W02
	BYTE		VOL     70*seq_065_mvl/mxv
	BYTE		BEND    c_v+0
	BYTE	W24
	BYTE	W03
	BYTE		VOL     69*seq_065_mvl/mxv
	BYTE	W09
	BYTE		        68*seq_065_mvl/mxv
	BYTE	W03
	BYTE		        67*seq_065_mvl/mxv
	BYTE	W03
	BYTE		        65*seq_065_mvl/mxv
	BYTE	W03
	BYTE		        64*seq_065_mvl/mxv
	BYTE	W03
	BYTE		        62*seq_065_mvl/mxv
	BYTE	W03
	BYTE		        60*seq_065_mvl/mxv
	BYTE	W03
	BYTE		        58*seq_065_mvl/mxv
	BYTE	W03
	BYTE		        55*seq_065_mvl/mxv
	BYTE	W03
	BYTE		        52*seq_065_mvl/mxv
	BYTE	W03
	BYTE		        48*seq_065_mvl/mxv
	BYTE	W03
	BYTE		        45*seq_065_mvl/mxv
	BYTE	W06
	BYTE		        70*seq_065_mvl/mxv
	BYTE		N24     Gn1   v060
	BYTE	W24
	BYTE	PEND
	BYTE		N72     Gs0   v096
	BYTE	W42
	BYTE		VOL     69*seq_065_mvl/mxv
	BYTE	W06
	BYTE		        68*seq_065_mvl/mxv
	BYTE	W03
	BYTE		        68*seq_065_mvl/mxv
	BYTE	W03
	BYTE		        67*seq_065_mvl/mxv
	BYTE	W03
	BYTE		        66*seq_065_mvl/mxv
	BYTE	W03
	BYTE		        65*seq_065_mvl/mxv
	BYTE	W03
	BYTE		        63*seq_065_mvl/mxv
	BYTE	W03
	BYTE		        61*seq_065_mvl/mxv
	BYTE	W03
	BYTE		        59*seq_065_mvl/mxv
	BYTE	W03
	BYTE		        61*seq_065_mvl/mxv
	BYTE		BEND    c_v-27
	BYTE		TIE     Gs1   v080
	BYTE	W06
	BYTE		VOL     62*seq_065_mvl/mxv
	BYTE	W06
	BYTE		        63*seq_065_mvl/mxv
	BYTE	W03
	BYTE		BEND    c_v-24
	BYTE	W01
	BYTE		        c_v-21
	BYTE	W02
	BYTE		VOL     67*seq_065_mvl/mxv
	BYTE		BEND    c_v-19
	BYTE	W01
	BYTE		        c_v-14
	BYTE	W02
	BYTE		        c_v-9
	BYTE	W01
	BYTE		        c_v-4
	BYTE	W02
	BYTE	PEND
	BYTE		VOL     70*seq_065_mvl/mxv
	BYTE		BEND    c_v+0
	BYTE	W24
	BYTE	W03
	BYTE		VOL     70*seq_065_mvl/mxv
	BYTE	W09
	BYTE		        69*seq_065_mvl/mxv
	BYTE	W06
	BYTE		        68*seq_065_mvl/mxv
	BYTE	W03
	BYTE		        67*seq_065_mvl/mxv
	BYTE	W03
	BYTE		        66*seq_065_mvl/mxv
	BYTE	W03
	BYTE		        65*seq_065_mvl/mxv
	BYTE	W03
	BYTE		        64*seq_065_mvl/mxv
	BYTE	W03
	BYTE		        62*seq_065_mvl/mxv
	BYTE	W03
	BYTE		        60*seq_065_mvl/mxv
	BYTE	W03
	BYTE		        59*seq_065_mvl/mxv
	BYTE	W03
	BYTE		        58*seq_065_mvl/mxv
	BYTE	W03
	BYTE		        55*seq_065_mvl/mxv
	BYTE	W03
	BYTE		        53*seq_065_mvl/mxv
	BYTE	W03
	BYTE		        51*seq_065_mvl/mxv
	BYTE	W03
	BYTE		        48*seq_065_mvl/mxv
	BYTE	W03
	BYTE		        46*seq_065_mvl/mxv
	BYTE	W03
	BYTE		        43*seq_065_mvl/mxv
	BYTE	W03
	BYTE		        40*seq_065_mvl/mxv
	BYTE	W03
	BYTE		        37*seq_065_mvl/mxv
	BYTE	W03
	BYTE		        34*seq_065_mvl/mxv
	BYTE	W03
	BYTE	PEND
	BYTE		EOT     Gs1 
	BYTE		VOL     70*seq_065_mvl/mxv
	BYTE		N72     Cn1   v092
	BYTE	W42
	BYTE		VOL     69*seq_065_mvl/mxv
	BYTE	W06
	BYTE		        68*seq_065_mvl/mxv
	BYTE	W03
	BYTE		        68*seq_065_mvl/mxv
	BYTE	W03
	BYTE		        67*seq_065_mvl/mxv
	BYTE	W03
	BYTE		        66*seq_065_mvl/mxv
	BYTE	W03
	BYTE		        65*seq_065_mvl/mxv
	BYTE	W03
	BYTE		        63*seq_065_mvl/mxv
	BYTE	W03
	BYTE		        61*seq_065_mvl/mxv
	BYTE	W03
	BYTE		        59*seq_065_mvl/mxv
	BYTE	W03
	BYTE		        61*seq_065_mvl/mxv
	BYTE		BEND    c_v-27
	BYTE		N96     Cn2   v072
	BYTE	W06
	BYTE		VOL     62*seq_065_mvl/mxv
	BYTE	W06
	BYTE		        63*seq_065_mvl/mxv
	BYTE	W03
	BYTE		BEND    c_v-24
	BYTE	W01
	BYTE		        c_v-21
	BYTE	W02
	BYTE		VOL     67*seq_065_mvl/mxv
	BYTE		BEND    c_v-19
	BYTE	W01
	BYTE		        c_v-14
	BYTE	W02
	BYTE		        c_v-9
	BYTE	W01
	BYTE		        c_v-4
	BYTE	W02
	BYTE	PEND
	BYTE	PATT
	 POIN2	seq_065_4 + 0x36C
	BYTE	PATT
	 POIN2	seq_065_4 + 0x391
	BYTE	PATT
	 POIN2	seq_065_4 + 0x3C5
	BYTE		EOT     Gs1 
	BYTE	PATT
	 POIN2	seq_065_4 + 0x3F7
	BYTE	PATT
	 POIN2	seq_065_4 + 0x36C
	BYTE	PATT
	 POIN2	seq_065_4 + 0x391
	BYTE		VOL     70*seq_065_mvl/mxv
	BYTE		BEND    c_v+0
	BYTE	W24
	BYTE	W03
	BYTE		VOL     70*seq_065_mvl/mxv
	BYTE	W09
	BYTE		        69*seq_065_mvl/mxv
	BYTE	W06
	BYTE		        68*seq_065_mvl/mxv
	BYTE	W03
	BYTE		        67*seq_065_mvl/mxv
	BYTE	W03
	BYTE		        66*seq_065_mvl/mxv
	BYTE	W03
	BYTE		        65*seq_065_mvl/mxv
	BYTE	W03
	BYTE		        64*seq_065_mvl/mxv
	BYTE	W03
	BYTE		        62*seq_065_mvl/mxv
	BYTE	W03
	BYTE		        60*seq_065_mvl/mxv
	BYTE	W03
	BYTE		        59*seq_065_mvl/mxv
	BYTE	W03
	BYTE		        58*seq_065_mvl/mxv
	BYTE	W03
	BYTE		        55*seq_065_mvl/mxv
	BYTE	W03
	BYTE		        53*seq_065_mvl/mxv
	BYTE	W03
	BYTE		        51*seq_065_mvl/mxv
	BYTE	W03
	BYTE		        48*seq_065_mvl/mxv
	BYTE	W03
	BYTE		        46*seq_065_mvl/mxv
	BYTE	W03
	BYTE		        43*seq_065_mvl/mxv
	BYTE	W03
	BYTE		        40*seq_065_mvl/mxv
	BYTE	W03
	BYTE		        37*seq_065_mvl/mxv
	BYTE	W03
	BYTE		        34*seq_065_mvl/mxv
	BYTE	W02
	BYTE		        70*seq_065_mvl/mxv
	BYTE	W01
	BYTE		EOT     Gs1 
	BYTE	GoTo
	 POIN2	seq_065_4 + 0x3F7
	BYTE	W07
	BYTE	FINE

//*********************** Track 06 ***********************//

seq_065_5:
	BYTE	KEYSH   seq_065_key+0
	BYTE		VOICE   42
	BYTE	W01
	BYTE		PAN     c_v-19
	BYTE		VOL     70*seq_065_mvl/mxv
	BYTE	W02
	BYTE	W96
	BYTE	W96
	BYTE	W96
	BYTE	W96
	BYTE	W96
	BYTE	W96
	BYTE	W96
	BYTE	W96
	BYTE	W96
	BYTE	W96
	BYTE	W96
	BYTE	W96
	BYTE	W96
	BYTE	W96
	BYTE	W96
	BYTE	W96
	BYTE	W96
	BYTE	W96
	BYTE	W96
	BYTE	W96
	BYTE	W96
	BYTE	W96
	BYTE	W96
	BYTE	W96
	BYTE	W96
	BYTE	W96
	BYTE	W96
	BYTE	W96
	BYTE	W96
	BYTE	W96
	BYTE	W96
	BYTE	W96
	BYTE	W96
	BYTE	W96
	BYTE	W96
	BYTE	W96
	BYTE	W96
	BYTE	W96
	BYTE	W96
	BYTE	W96
	BYTE	W96
	BYTE	W96
	BYTE	W96
	BYTE	W96
	BYTE	W96
	BYTE	W96
	BYTE	W96
	BYTE	W96
	BYTE	W96
	BYTE	W96
	BYTE	W96
	BYTE	W96
	BYTE	W96
	BYTE	W96
	BYTE	W96
	BYTE	W96
	BYTE	W96
	BYTE	W96
	BYTE	W96
	BYTE	W96
	BYTE	W96
	BYTE	W96
	BYTE	W96
	BYTE	W96
	BYTE	W96
	BYTE	W96
	BYTE	W96
	BYTE	W96
	BYTE	W96
	BYTE	W96
	BYTE	W96
	BYTE	W96
	BYTE	W96
	BYTE	W96
	BYTE	W96
	BYTE	W96
	BYTE	W96
	BYTE	W96
	BYTE	W96
	BYTE	W96
	BYTE	W96
	BYTE	W96
	BYTE	W96
	BYTE	W96
	BYTE	W96
	BYTE	W96
	BYTE	W96
	BYTE	W92
	BYTE	W02
	BYTE	W01
	BYTE		        53*seq_065_mvl/mxv
	BYTE	W01
	BYTE		N48     Cn3   v040
	BYTE	W03
	BYTE		VOL     55*seq_065_mvl/mxv
	BYTE	W03
	BYTE		        57*seq_065_mvl/mxv
	BYTE	W03
	BYTE		        59*seq_065_mvl/mxv
	BYTE	W03
	BYTE		        63*seq_065_mvl/mxv
	BYTE	W03
	BYTE		        67*seq_065_mvl/mxv
	BYTE	W03
	BYTE		        70*seq_065_mvl/mxv
	BYTE	W30
	BYTE		N48     En3   v036
	BYTE	W48
	BYTE		N48     Dn3   v040
	BYTE	W48
	BYTE		        An2 
	BYTE	W48
	BYTE	PEND
	BYTE		N44     As2   v044
	BYTE	W48
	BYTE		N48     As2   v036
	BYTE	W48
	BYTE	PEND
	BYTE		N48     Cn3   v036
	BYTE	W48
	BYTE		        Gn2   v032
	BYTE	W48
	BYTE	PEND
	BYTE		N48     Cn3   v040
	BYTE	W48
	BYTE		        En3   v036
	BYTE	W48
	BYTE	PEND
	BYTE	PATT
	 POIN2	seq_065_5 + 0x7B
	BYTE	PATT
	 POIN2	seq_065_5 + 0x82
	BYTE		VOL     70*seq_065_mvl/mxv
	BYTE		N92     Cn3   v032
	BYTE	W03
	BYTE		VOL     71*seq_065_mvl/mxv
	BYTE	W03
	BYTE		        72*seq_065_mvl/mxv
	BYTE	W03
	BYTE		        72*seq_065_mvl/mxv
	BYTE	W06
	BYTE		        74*seq_065_mvl/mxv
	BYTE	W03
	BYTE		        75*seq_065_mvl/mxv
	BYTE	W03
	BYTE		        76*seq_065_mvl/mxv
	BYTE	W03
	BYTE		        80*seq_065_mvl/mxv
	BYTE	W09
	BYTE		        79*seq_065_mvl/mxv
	BYTE	W03
	BYTE		        78*seq_065_mvl/mxv
	BYTE	W03
	BYTE		        77*seq_065_mvl/mxv
	BYTE	W03
	BYTE		        75*seq_065_mvl/mxv
	BYTE	W03
	BYTE		        72*seq_065_mvl/mxv
	BYTE	W03
	BYTE		        70*seq_065_mvl/mxv
	BYTE	W03
	BYTE		        68*seq_065_mvl/mxv
	BYTE	W03
	BYTE		        65*seq_065_mvl/mxv
	BYTE	W03
	BYTE		        61*seq_065_mvl/mxv
	BYTE	W03
	BYTE		        57*seq_065_mvl/mxv
	BYTE	W03
	BYTE		        53*seq_065_mvl/mxv
	BYTE	W03
	BYTE		        49*seq_065_mvl/mxv
	BYTE	W03
	BYTE		        44*seq_065_mvl/mxv
	BYTE	W03
	BYTE		        39*seq_065_mvl/mxv
	BYTE	W03
	BYTE		        34*seq_065_mvl/mxv
	BYTE	W03
	BYTE		        28*seq_065_mvl/mxv
	BYTE	W03
	BYTE		        22*seq_065_mvl/mxv
	BYTE	W03
	BYTE		        16*seq_065_mvl/mxv
	BYTE	W03
	BYTE		        9*seq_065_mvl/mxv
	BYTE	W03
	BYTE		        3*seq_065_mvl/mxv
	BYTE	W06
	BYTE		VOL     70*seq_065_mvl/mxv
	BYTE		N48     Cn3   v040
	BYTE	W48
	BYTE		        En3   v036
	BYTE	W48
	BYTE	PEND
	BYTE	PATT
	 POIN2	seq_065_5 + 0x7B
	BYTE	PATT
	 POIN2	seq_065_5 + 0x82
	BYTE	PATT
	 POIN2	seq_065_5 + 0x8B
	BYTE	PATT
	 POIN2	seq_065_5 + 0x93
	BYTE	PATT
	 POIN2	seq_065_5 + 0x7B
	BYTE	PATT
	 POIN2	seq_065_5 + 0x82
	BYTE		VOL     70*seq_065_mvl/mxv
	BYTE		TIE     Cn3   v032
	BYTE	W03
	BYTE		VOL     72*seq_065_mvl/mxv
	BYTE	W15
	BYTE		        72*seq_065_mvl/mxv
	BYTE	W03
	BYTE		        73*seq_065_mvl/mxv
	BYTE	W06
	BYTE		        74*seq_065_mvl/mxv
	BYTE	W03
	BYTE		        75*seq_065_mvl/mxv
	BYTE	W06
	BYTE		        76*seq_065_mvl/mxv
	BYTE	W06
	BYTE		        77*seq_065_mvl/mxv
	BYTE	W03
	BYTE		        78*seq_065_mvl/mxv
	BYTE	W03
	BYTE		        79*seq_065_mvl/mxv
	BYTE	W03
	BYTE		        80*seq_065_mvl/mxv
	BYTE	W03
	BYTE		        81*seq_065_mvl/mxv
	BYTE	W03
	BYTE		        81*seq_065_mvl/mxv
	BYTE	W03
	BYTE		        81*seq_065_mvl/mxv
	BYTE	W12
	BYTE		        80*seq_065_mvl/mxv
	BYTE	W06
	BYTE		        78*seq_065_mvl/mxv
	BYTE	W03
	BYTE		        77*seq_065_mvl/mxv
	BYTE	W03
	BYTE		        76*seq_065_mvl/mxv
	BYTE	W03
	BYTE		        75*seq_065_mvl/mxv
	BYTE	W03
	BYTE		        72*seq_065_mvl/mxv
	BYTE	W03
	BYTE		        70*seq_065_mvl/mxv
	BYTE	W03
	BYTE		        68*seq_065_mvl/mxv
	BYTE	W03
	BYTE		        67*seq_065_mvl/mxv
	BYTE	W03
	BYTE		        64*seq_065_mvl/mxv
	BYTE	W03
	BYTE		        61*seq_065_mvl/mxv
	BYTE	W03
	BYTE		        59*seq_065_mvl/mxv
	BYTE	W03
	BYTE		        56*seq_065_mvl/mxv
	BYTE	W03
	BYTE		        53*seq_065_mvl/mxv
	BYTE	W03
	BYTE		        51*seq_065_mvl/mxv
	BYTE	W03
	BYTE		        49*seq_065_mvl/mxv
	BYTE	W03
	BYTE		        47*seq_065_mvl/mxv
	BYTE	W03
	BYTE		        45*seq_065_mvl/mxv
	BYTE	W03
	BYTE		        43*seq_065_mvl/mxv
	BYTE	W03
	BYTE		        41*seq_065_mvl/mxv
	BYTE	W03
	BYTE		        39*seq_065_mvl/mxv
	BYTE	W03
	BYTE		        37*seq_065_mvl/mxv
	BYTE	W03
	BYTE		        35*seq_065_mvl/mxv
	BYTE	W03
	BYTE		        34*seq_065_mvl/mxv
	BYTE	W03
	BYTE		        31*seq_065_mvl/mxv
	BYTE	W03
	BYTE		        29*seq_065_mvl/mxv
	BYTE	W03
	BYTE		        27*seq_065_mvl/mxv
	BYTE	W03
	BYTE		        26*seq_065_mvl/mxv
	BYTE	W03
	BYTE		        24*seq_065_mvl/mxv
	BYTE	W03
	BYTE		        21*seq_065_mvl/mxv
	BYTE	W03
	BYTE		        19*seq_065_mvl/mxv
	BYTE	W03
	BYTE		        18*seq_065_mvl/mxv
	BYTE	W03
	BYTE		        16*seq_065_mvl/mxv
	BYTE	W03
	BYTE		        14*seq_065_mvl/mxv
	BYTE	W03
	BYTE		        10*seq_065_mvl/mxv
	BYTE	W03
	BYTE		        6*seq_065_mvl/mxv
	BYTE	W03
	BYTE		        2*seq_065_mvl/mxv
	BYTE	W03
	BYTE		        0*seq_065_mvl/mxv
	BYTE	W04
	BYTE		EOT
	BYTE	W02
	BYTE	W96
	BYTE	W96
	BYTE	W96
	BYTE	W96
	BYTE	W96
	BYTE	W96
	BYTE	W96
	BYTE	W96
	BYTE	W96
	BYTE	W96
	BYTE	W96
	BYTE	W96
	BYTE	W96
	BYTE	W96
	BYTE	W96
	BYTE	W96
	BYTE	W96
	BYTE	W96
	BYTE	W96
	BYTE	W96
	BYTE	W96
	BYTE	W96
	BYTE	W96
	BYTE	W96
	BYTE	W96
	BYTE	W96
	BYTE	W96
	BYTE	W96
	BYTE	W96
	BYTE	W96
	BYTE	W96
	BYTE	W68
	BYTE	W02
	BYTE	W01
	BYTE		VOL     70*seq_065_mvl/mxv
	BYTE	W01
	BYTE		N06     Fn2   v056
	BYTE	W06
	BYTE		        Gn2   v048
	BYTE	W06
	BYTE		        An2   v056
	BYTE	W06
	BYTE		N05     Bn2   v052
	BYTE	W06
	BYTE		N48     Cn3   v040
	BYTE	W48
	BYTE		        En3 
	BYTE	W48
	BYTE	PEND
	BYTE	PATT
	 POIN2	seq_065_5 + 0x7B
	BYTE		N44     As2   v040
	BYTE	W48
	BYTE		N48     As2   v036
	BYTE	W48
	BYTE	PEND
	BYTE	PATT
	 POIN2	seq_065_5 + 0x8B
	BYTE	PATT
	 POIN2	seq_065_5 + 0x1AC
	BYTE	PATT
	 POIN2	seq_065_5 + 0x7B
	BYTE	PATT
	 POIN2	seq_065_5 + 0x82
	BYTE		VOL     70*seq_065_mvl/mxv
	BYTE		N92     Cn3   v036
	BYTE	W03
	BYTE		VOL     71*seq_065_mvl/mxv
	BYTE	W03
	BYTE		        72*seq_065_mvl/mxv
	BYTE	W03
	BYTE		        72*seq_065_mvl/mxv
	BYTE	W06
	BYTE		        74*seq_065_mvl/mxv
	BYTE	W03
	BYTE		        75*seq_065_mvl/mxv
	BYTE	W03
	BYTE		        76*seq_065_mvl/mxv
	BYTE	W03
	BYTE		        80*seq_065_mvl/mxv
	BYTE	W09
	BYTE		        79*seq_065_mvl/mxv
	BYTE	W03
	BYTE		        78*seq_065_mvl/mxv
	BYTE	W03
	BYTE		        77*seq_065_mvl/mxv
	BYTE	W03
	BYTE		        75*seq_065_mvl/mxv
	BYTE	W03
	BYTE		        72*seq_065_mvl/mxv
	BYTE	W03
	BYTE		        70*seq_065_mvl/mxv
	BYTE	W03
	BYTE		        68*seq_065_mvl/mxv
	BYTE	W03
	BYTE		        65*seq_065_mvl/mxv
	BYTE	W03
	BYTE		        61*seq_065_mvl/mxv
	BYTE	W03
	BYTE		        57*seq_065_mvl/mxv
	BYTE	W03
	BYTE		        53*seq_065_mvl/mxv
	BYTE	W03
	BYTE		        49*seq_065_mvl/mxv
	BYTE	W03
	BYTE		        44*seq_065_mvl/mxv
	BYTE	W03
	BYTE		        39*seq_065_mvl/mxv
	BYTE	W03
	BYTE		        34*seq_065_mvl/mxv
	BYTE	W03
	BYTE		        28*seq_065_mvl/mxv
	BYTE	W03
	BYTE		        22*seq_065_mvl/mxv
	BYTE	W03
	BYTE		        16*seq_065_mvl/mxv
	BYTE	W03
	BYTE		        9*seq_065_mvl/mxv
	BYTE	W03
	BYTE		        3*seq_065_mvl/mxv
	BYTE	W06
	BYTE	PATT
	 POIN2	seq_065_5 + 0xE2
	BYTE	PATT
	 POIN2	seq_065_5 + 0x7B
	BYTE	PATT
	 POIN2	seq_065_5 + 0x1B8
	BYTE	PATT
	 POIN2	seq_065_5 + 0x8B
	BYTE	PATT
	 POIN2	seq_065_5 + 0x1AC
	BYTE	PATT
	 POIN2	seq_065_5 + 0x7B
	BYTE	PATT
	 POIN2	seq_065_5 + 0x82
	BYTE		N96     Cn3   v032
	BYTE	W03
	BYTE		VOL     70*seq_065_mvl/mxv
	BYTE	W03
	BYTE		        71*seq_065_mvl/mxv
	BYTE	W06
	BYTE		        72*seq_065_mvl/mxv
	BYTE	W06
	BYTE		        72*seq_065_mvl/mxv
	BYTE	W03
	BYTE		        73*seq_065_mvl/mxv
	BYTE	W03
	BYTE		        74*seq_065_mvl/mxv
	BYTE	W03
	BYTE		        75*seq_065_mvl/mxv
	BYTE	W03
	BYTE		        76*seq_065_mvl/mxv
	BYTE	W03
	BYTE		        77*seq_065_mvl/mxv
	BYTE	W03
	BYTE		        79*seq_065_mvl/mxv
	BYTE	W03
	BYTE		        80*seq_065_mvl/mxv
	BYTE	W03
	BYTE		        82*seq_065_mvl/mxv
	BYTE	W03
	BYTE		        85*seq_065_mvl/mxv
	BYTE	W06
	BYTE		        85*seq_065_mvl/mxv
	BYTE	W03
	BYTE		        83*seq_065_mvl/mxv
	BYTE	W03
	BYTE		        81*seq_065_mvl/mxv
	BYTE	W03
	BYTE		        79*seq_065_mvl/mxv
	BYTE	W03
	BYTE		        76*seq_065_mvl/mxv
	BYTE	W03
	BYTE		        72*seq_065_mvl/mxv
	BYTE	W03
	BYTE		        68*seq_065_mvl/mxv
	BYTE	W03
	BYTE		        63*seq_065_mvl/mxv
	BYTE	W03
	BYTE		        57*seq_065_mvl/mxv
	BYTE	W03
	BYTE		        49*seq_065_mvl/mxv
	BYTE	W03
	BYTE		        41*seq_065_mvl/mxv
	BYTE	W03
	BYTE		        34*seq_065_mvl/mxv
	BYTE	W01
	BYTE		        26*seq_065_mvl/mxv
	BYTE	W02
	BYTE		        21*seq_065_mvl/mxv
	BYTE	W01
	BYTE		        15*seq_065_mvl/mxv
	BYTE	W02
	BYTE		        10*seq_065_mvl/mxv
	BYTE	W01
	BYTE		        6*seq_065_mvl/mxv
	BYTE	W02
	BYTE		        2*seq_065_mvl/mxv
	BYTE	W01
	BYTE		        0*seq_065_mvl/mxv
	BYTE	W02
	BYTE		        69*seq_065_mvl/mxv
	BYTE		N92     Gn2   v036
	BYTE	W06
	BYTE		VOL     70*seq_065_mvl/mxv
	BYTE	W03
	BYTE		        72*seq_065_mvl/mxv
	BYTE	W09
	BYTE		        73*seq_065_mvl/mxv
	BYTE	W03
	BYTE		        74*seq_065_mvl/mxv
	BYTE	W03
	BYTE		        75*seq_065_mvl/mxv
	BYTE	W03
	BYTE		        76*seq_065_mvl/mxv
	BYTE	W03
	BYTE		        77*seq_065_mvl/mxv
	BYTE	W03
	BYTE		        79*seq_065_mvl/mxv
	BYTE	W03
	BYTE		        81*seq_065_mvl/mxv
	BYTE	W03
	BYTE		        83*seq_065_mvl/mxv
	BYTE	W03
	BYTE		        85*seq_065_mvl/mxv
	BYTE	W09
	BYTE		        85*seq_065_mvl/mxv
	BYTE	W09
	BYTE		        84*seq_065_mvl/mxv
	BYTE	W03
	BYTE		        83*seq_065_mvl/mxv
	BYTE	W03
	BYTE		        82*seq_065_mvl/mxv
	BYTE	W03
	BYTE		        81*seq_065_mvl/mxv
	BYTE	W03
	BYTE		        79*seq_065_mvl/mxv
	BYTE	W03
	BYTE		        77*seq_065_mvl/mxv
	BYTE	W03
	BYTE		        75*seq_065_mvl/mxv
	BYTE	W03
	BYTE		        73*seq_065_mvl/mxv
	BYTE	W03
	BYTE		        70*seq_065_mvl/mxv
	BYTE	W03
	BYTE		        68*seq_065_mvl/mxv
	BYTE	W03
	BYTE		        65*seq_065_mvl/mxv
	BYTE	W03
	BYTE		        63*seq_065_mvl/mxv
	BYTE	W03
	BYTE		VOL     72*seq_065_mvl/mxv
	BYTE		N92     Gn2   v036
	BYTE	W06
	BYTE		VOL     72*seq_065_mvl/mxv
	BYTE	W03
	BYTE		        73*seq_065_mvl/mxv
	BYTE	W03
	BYTE		        75*seq_065_mvl/mxv
	BYTE	W03
	BYTE		        76*seq_065_mvl/mxv
	BYTE	W03
	BYTE		        77*seq_065_mvl/mxv
	BYTE	W03
	BYTE		        80*seq_065_mvl/mxv
	BYTE	W03
	BYTE		        84*seq_065_mvl/mxv
	BYTE	W09
	BYTE		        82*seq_065_mvl/mxv
	BYTE	W06
	BYTE		        81*seq_065_mvl/mxv
	BYTE	W03
	BYTE		        80*seq_065_mvl/mxv
	BYTE	W03
	BYTE		        79*seq_065_mvl/mxv
	BYTE	W03
	BYTE		        77*seq_065_mvl/mxv
	BYTE	W03
	BYTE		        75*seq_065_mvl/mxv
	BYTE	W03
	BYTE		        73*seq_065_mvl/mxv
	BYTE	W03
	BYTE		        71*seq_065_mvl/mxv
	BYTE	W03
	BYTE		        69*seq_065_mvl/mxv
	BYTE	W03
	BYTE		        66*seq_065_mvl/mxv
	BYTE	W03
	BYTE		        63*seq_065_mvl/mxv
	BYTE	W03
	BYTE		        60*seq_065_mvl/mxv
	BYTE	W03
	BYTE		        57*seq_065_mvl/mxv
	BYTE	W03
	BYTE		        53*seq_065_mvl/mxv
	BYTE	W03
	BYTE		        50*seq_065_mvl/mxv
	BYTE	W03
	BYTE		        46*seq_065_mvl/mxv
	BYTE	W03
	BYTE		        42*seq_065_mvl/mxv
	BYTE	W03
	BYTE		        38*seq_065_mvl/mxv
	BYTE	W03
	BYTE		        34*seq_065_mvl/mxv
	BYTE	W06
	BYTE	PEND
	BYTE		VOL     70*seq_065_mvl/mxv
	BYTE		N96     Gn2   v036
	BYTE	W06
	BYTE		VOL     71*seq_065_mvl/mxv
	BYTE	W03
	BYTE		        72*seq_065_mvl/mxv
	BYTE	W09
	BYTE		        73*seq_065_mvl/mxv
	BYTE	W03
	BYTE		        74*seq_065_mvl/mxv
	BYTE	W03
	BYTE		        75*seq_065_mvl/mxv
	BYTE	W03
	BYTE		        76*seq_065_mvl/mxv
	BYTE	W03
	BYTE		        77*seq_065_mvl/mxv
	BYTE	W03
	BYTE		        79*seq_065_mvl/mxv
	BYTE	W03
	BYTE		        81*seq_065_mvl/mxv
	BYTE	W03
	BYTE		        83*seq_065_mvl/mxv
	BYTE	W03
	BYTE		        85*seq_065_mvl/mxv
	BYTE	W09
	BYTE		        85*seq_065_mvl/mxv
	BYTE	W09
	BYTE		        84*seq_065_mvl/mxv
	BYTE	W03
	BYTE		        83*seq_065_mvl/mxv
	BYTE	W03
	BYTE		        82*seq_065_mvl/mxv
	BYTE	W03
	BYTE		        81*seq_065_mvl/mxv
	BYTE	W03
	BYTE		        79*seq_065_mvl/mxv
	BYTE	W03
	BYTE		        77*seq_065_mvl/mxv
	BYTE	W03
	BYTE		        75*seq_065_mvl/mxv
	BYTE	W03
	BYTE		        73*seq_065_mvl/mxv
	BYTE	W03
	BYTE		        70*seq_065_mvl/mxv
	BYTE	W03
	BYTE		        68*seq_065_mvl/mxv
	BYTE	W03
	BYTE		        65*seq_065_mvl/mxv
	BYTE	W03
	BYTE		        63*seq_065_mvl/mxv
	BYTE	W03
	BYTE	PEND
	BYTE		        72*seq_065_mvl/mxv
	BYTE		N96     As2 
	BYTE	W06
	BYTE		VOL     72*seq_065_mvl/mxv
	BYTE	W03
	BYTE		        73*seq_065_mvl/mxv
	BYTE	W03
	BYTE		        75*seq_065_mvl/mxv
	BYTE	W03
	BYTE		        76*seq_065_mvl/mxv
	BYTE	W03
	BYTE		        77*seq_065_mvl/mxv
	BYTE	W03
	BYTE		        80*seq_065_mvl/mxv
	BYTE	W03
	BYTE		        84*seq_065_mvl/mxv
	BYTE	W09
	BYTE		        82*seq_065_mvl/mxv
	BYTE	W06
	BYTE		        81*seq_065_mvl/mxv
	BYTE	W03
	BYTE		        80*seq_065_mvl/mxv
	BYTE	W03
	BYTE		        79*seq_065_mvl/mxv
	BYTE	W03
	BYTE		        77*seq_065_mvl/mxv
	BYTE	W03
	BYTE		        75*seq_065_mvl/mxv
	BYTE	W03
	BYTE		        73*seq_065_mvl/mxv
	BYTE	W03
	BYTE		        71*seq_065_mvl/mxv
	BYTE	W03
	BYTE		        69*seq_065_mvl/mxv
	BYTE	W03
	BYTE		        66*seq_065_mvl/mxv
	BYTE	W03
	BYTE		        63*seq_065_mvl/mxv
	BYTE	W03
	BYTE		        60*seq_065_mvl/mxv
	BYTE	W03
	BYTE		        57*seq_065_mvl/mxv
	BYTE	W03
	BYTE		        53*seq_065_mvl/mxv
	BYTE	W03
	BYTE		        50*seq_065_mvl/mxv
	BYTE	W03
	BYTE		        46*seq_065_mvl/mxv
	BYTE	W03
	BYTE		        42*seq_065_mvl/mxv
	BYTE	W03
	BYTE		        38*seq_065_mvl/mxv
	BYTE	W03
	BYTE		        34*seq_065_mvl/mxv
	BYTE	W06
	BYTE		        69*seq_065_mvl/mxv
	BYTE		N92     Gn2   v040
	BYTE	W06
	BYTE		VOL     70*seq_065_mvl/mxv
	BYTE	W03
	BYTE		        72*seq_065_mvl/mxv
	BYTE	W09
	BYTE		        73*seq_065_mvl/mxv
	BYTE	W03
	BYTE		        74*seq_065_mvl/mxv
	BYTE	W03
	BYTE		        75*seq_065_mvl/mxv
	BYTE	W03
	BYTE		        76*seq_065_mvl/mxv
	BYTE	W03
	BYTE		        77*seq_065_mvl/mxv
	BYTE	W03
	BYTE		        79*seq_065_mvl/mxv
	BYTE	W03
	BYTE		        81*seq_065_mvl/mxv
	BYTE	W03
	BYTE		        83*seq_065_mvl/mxv
	BYTE	W03
	BYTE		        85*seq_065_mvl/mxv
	BYTE	W09
	BYTE		        85*seq_065_mvl/mxv
	BYTE	W09
	BYTE		        84*seq_065_mvl/mxv
	BYTE	W03
	BYTE		        83*seq_065_mvl/mxv
	BYTE	W03
	BYTE		        82*seq_065_mvl/mxv
	BYTE	W03
	BYTE		        81*seq_065_mvl/mxv
	BYTE	W03
	BYTE		        79*seq_065_mvl/mxv
	BYTE	W03
	BYTE		        77*seq_065_mvl/mxv
	BYTE	W03
	BYTE		        75*seq_065_mvl/mxv
	BYTE	W03
	BYTE		        73*seq_065_mvl/mxv
	BYTE	W03
	BYTE		        70*seq_065_mvl/mxv
	BYTE	W03
	BYTE		        68*seq_065_mvl/mxv
	BYTE	W03
	BYTE		        65*seq_065_mvl/mxv
	BYTE	W03
	BYTE		        63*seq_065_mvl/mxv
	BYTE	W03
	BYTE	PATT
	 POIN2	seq_065_5 + 0x2B0
	BYTE	PATT
	 POIN2	seq_065_5 + 0x2EC
	BYTE		VOL     70*seq_065_mvl/mxv
	BYTE		N96     As2   v040
	BYTE	W03
	BYTE		VOL     72*seq_065_mvl/mxv
	BYTE	W03
	BYTE		        77*seq_065_mvl/mxv
	BYTE	W03
	BYTE		        80*seq_065_mvl/mxv
	BYTE	W06
	BYTE		        79*seq_065_mvl/mxv
	BYTE	W03
	BYTE		        77*seq_065_mvl/mxv
	BYTE	W03
	BYTE		        76*seq_065_mvl/mxv
	BYTE	W03
	BYTE		        73*seq_065_mvl/mxv
	BYTE	W03
	BYTE		        70*seq_065_mvl/mxv
	BYTE	W03
	BYTE		        68*seq_065_mvl/mxv
	BYTE	W03
	BYTE		        64*seq_065_mvl/mxv
	BYTE	W03
	BYTE		        63*seq_065_mvl/mxv
	BYTE	W03
	BYTE		        64*seq_065_mvl/mxv
	BYTE	W09
	BYTE		        65*seq_065_mvl/mxv
	BYTE	W03
	BYTE		        65*seq_065_mvl/mxv
	BYTE	W03
	BYTE		        66*seq_065_mvl/mxv
	BYTE	W03
	BYTE		        67*seq_065_mvl/mxv
	BYTE	W03
	BYTE		        68*seq_065_mvl/mxv
	BYTE	W03
	BYTE		        69*seq_065_mvl/mxv
	BYTE	W03
	BYTE		        70*seq_065_mvl/mxv
	BYTE	W03
	BYTE		        72*seq_065_mvl/mxv
	BYTE	W03
	BYTE		        73*seq_065_mvl/mxv
	BYTE	W03
	BYTE		        75*seq_065_mvl/mxv
	BYTE	W03
	BYTE		        76*seq_065_mvl/mxv
	BYTE	W03
	BYTE		        78*seq_065_mvl/mxv
	BYTE	W03
	BYTE		        80*seq_065_mvl/mxv
	BYTE	W03
	BYTE		        82*seq_065_mvl/mxv
	BYTE	W03
	BYTE		        81*seq_065_mvl/mxv
	BYTE	W03
	BYTE		        77*seq_065_mvl/mxv
	BYTE	W03
	BYTE		        70*seq_065_mvl/mxv
	BYTE		TIE     Cn3   v036
	BYTE	W03
	BYTE		VOL     72*seq_065_mvl/mxv
	BYTE	W03
	BYTE		        72*seq_065_mvl/mxv
	BYTE	W12
	BYTE		        73*seq_065_mvl/mxv
	BYTE	W09
	BYTE		        74*seq_065_mvl/mxv
	BYTE	W06
	BYTE		        75*seq_065_mvl/mxv
	BYTE	W06
	BYTE		        76*seq_065_mvl/mxv
	BYTE	W06
	BYTE		        77*seq_065_mvl/mxv
	BYTE	W03
	BYTE		        77*seq_065_mvl/mxv
	BYTE	W03
	BYTE		        78*seq_065_mvl/mxv
	BYTE	W03
	BYTE		        79*seq_065_mvl/mxv
	BYTE	W03
	BYTE		        80*seq_065_mvl/mxv
	BYTE	W03
	BYTE		        80*seq_065_mvl/mxv
	BYTE	W03
	BYTE		        81*seq_065_mvl/mxv
	BYTE	W03
	BYTE		        82*seq_065_mvl/mxv
	BYTE	W03
	BYTE		        83*seq_065_mvl/mxv
	BYTE	W03
	BYTE		        84*seq_065_mvl/mxv
	BYTE	W03
	BYTE		        85*seq_065_mvl/mxv
	BYTE	W15
	BYTE		        84*seq_065_mvl/mxv
	BYTE	W06
	BYTE	W09
	BYTE		        83*seq_065_mvl/mxv
	BYTE	W03
	BYTE		        82*seq_065_mvl/mxv
	BYTE	W03
	BYTE		        82*seq_065_mvl/mxv
	BYTE	W03
	BYTE		        81*seq_065_mvl/mxv
	BYTE	W03
	BYTE		        80*seq_065_mvl/mxv
	BYTE	W03
	BYTE		        80*seq_065_mvl/mxv
	BYTE	W03
	BYTE		        79*seq_065_mvl/mxv
	BYTE	W03
	BYTE		        77*seq_065_mvl/mxv
	BYTE	W03
	BYTE		        76*seq_065_mvl/mxv
	BYTE	W03
	BYTE		        75*seq_065_mvl/mxv
	BYTE	W03
	BYTE		        74*seq_065_mvl/mxv
	BYTE	W03
	BYTE		        72*seq_065_mvl/mxv
	BYTE	W03
	BYTE		        70*seq_065_mvl/mxv
	BYTE	W03
	BYTE		        69*seq_065_mvl/mxv
	BYTE	W03
	BYTE		        68*seq_065_mvl/mxv
	BYTE	W03
	BYTE		        65*seq_065_mvl/mxv
	BYTE	W03
	BYTE		        63*seq_065_mvl/mxv
	BYTE	W03
	BYTE		        61*seq_065_mvl/mxv
	BYTE	W03
	BYTE		        60*seq_065_mvl/mxv
	BYTE	W03
	BYTE		        58*seq_065_mvl/mxv
	BYTE	W03
	BYTE		        55*seq_065_mvl/mxv
	BYTE	W03
	BYTE		        52*seq_065_mvl/mxv
	BYTE	W03
	BYTE		        50*seq_065_mvl/mxv
	BYTE	W03
	BYTE		        47*seq_065_mvl/mxv
	BYTE	W03
	BYTE		        45*seq_065_mvl/mxv
	BYTE	W03
	BYTE		        42*seq_065_mvl/mxv
	BYTE	W03
	BYTE		        39*seq_065_mvl/mxv
	BYTE	W03
	BYTE		        36*seq_065_mvl/mxv
	BYTE	W03
	BYTE		        33*seq_065_mvl/mxv
	BYTE	W02
	BYTE		EOT
	BYTE	W01
	BYTE		VOL     70*seq_065_mvl/mxv
	BYTE		N06     Cn3   v048
	BYTE	W06
	BYTE		        As2   v044
	BYTE	W06
	BYTE		        Gs2 
	BYTE	W06
	BYTE		        Gn2   v040
	BYTE	W06
	BYTE		        Cn3   v044
	BYTE	W06
	BYTE		        As2   v040
	BYTE	W06
	BYTE		        Gs2 
	BYTE	W06
	BYTE		        Gn2 
	BYTE	W06
	BYTE		        Cn3   v044
	BYTE	W06
	BYTE		        As2   v040
	BYTE	W06
	BYTE		        Gs2   v044
	BYTE	W06
	BYTE		        Gn2   v040
	BYTE	W06
	BYTE		        Cn3 
	BYTE	W06
	BYTE		        As2 
	BYTE	W06
	BYTE		        Gs2 
	BYTE	W06
	BYTE		        Gn2   v036
	BYTE	W06
	BYTE		        Cn3   v040
	BYTE	W06
	BYTE		        As2 
	BYTE	W06
	BYTE		        Gs2 
	BYTE	W06
	BYTE		        Gn2   v036
	BYTE	W06
	BYTE		        Cn3 
	BYTE	W06
	BYTE		        As2 
	BYTE	W06
	BYTE		        Gs2 
	BYTE	W06
	BYTE		        Gn2   v032
	BYTE	W06
	BYTE		        Cn3   v040
	BYTE	W06
	BYTE		        As2   v036
	BYTE	W06
	BYTE		        Gs2 
	BYTE	W06
	BYTE		        Gn2 
	BYTE	W06
	BYTE		        Cn3 
	BYTE	W06
	BYTE		        As2   v032
	BYTE	W06
	BYTE		        Gs2   v036
	BYTE	W06
	BYTE		        Gn2   v028
	BYTE	W06
	BYTE		N06     Cn3   v044
	BYTE	W06
	BYTE		        Bn2   v040
	BYTE	W06
	BYTE		        An2 
	BYTE	W06
	BYTE		        Gn2 
	BYTE	W06
	BYTE		        Cn3 
	BYTE	W06
	BYTE		        Bn2   v036
	BYTE	W06
	BYTE		        An2 
	BYTE	W06
	BYTE		        Gn2 
	BYTE	W06
	BYTE		        Cn3   v040
	BYTE	W06
	BYTE		        Bn2   v036
	BYTE	W06
	BYTE		        An2 
	BYTE	W06
	BYTE		        Gn2 
	BYTE	W06
	BYTE		        Cn3   v040
	BYTE	W06
	BYTE		        Bn2   v032
	BYTE	W06
	BYTE		        An2 
	BYTE	W06
	BYTE		        Gn2 
	BYTE	W06
	BYTE	PEND
	BYTE		N06     Cn3   v040
	BYTE	W06
	BYTE		        Bn2   v032
	BYTE	W06
	BYTE		        An2   v036
	BYTE	W06
	BYTE		        Gn2   v032
	BYTE	W06
	BYTE		        Cn3   v036
	BYTE	W06
	BYTE		        Bn2   v028
	BYTE	W06
	BYTE		        An2 
	BYTE	W06
	BYTE		        Gn2 
	BYTE	W06
	BYTE		        Cn3   v036
	BYTE	W06
	BYTE		        Bn2   v028
	BYTE	W06
	BYTE		        An2 
	BYTE	W06
	BYTE		        Gn2 
	BYTE	W06
	BYTE		        Cn3   v032
	BYTE	W06
	BYTE		        Bn2   v028
	BYTE	W06
	BYTE		        An2 
	BYTE	W06
	BYTE		        Gn2 
	BYTE	W06
	BYTE	PEND
	BYTE		N06     Cn3   v044
	BYTE	W06
	BYTE		        As2   v040
	BYTE	W06
	BYTE		N05     Gs2 
	BYTE	W06
	BYTE		N06     Gn2 
	BYTE	W06
	BYTE		        Cn3 
	BYTE	W06
	BYTE		        As2   v036
	BYTE	W06
	BYTE		N05     Gs2 
	BYTE	W06
	BYTE		N06     Gn2 
	BYTE	W06
	BYTE		        Cn3   v040
	BYTE	W06
	BYTE		        As2 
	BYTE	W06
	BYTE		N05     Gs2 
	BYTE	W06
	BYTE		N06     Gn2   v036
	BYTE	W06
	BYTE		        Cn3   v040
	BYTE	W06
	BYTE		        As2   v036
	BYTE	W06
	BYTE		N05     Gs2 
	BYTE	W06
	BYTE		N06     Gn2   v032
	BYTE	W06
	BYTE	PEND
	BYTE		N06     Cn3   v040
	BYTE	W06
	BYTE		        As2   v036
	BYTE	W06
	BYTE		N05     Gs2 
	BYTE	W06
	BYTE		N06     Gn2   v032
	BYTE	W06
	BYTE		        Cn3   v036
	BYTE	W06
	BYTE		        As2   v032
	BYTE	W06
	BYTE		N05     Gs2   v028
	BYTE	W06
	BYTE		N06     Gn2   v024
	BYTE	W06
	BYTE		        Cn3   v036
	BYTE	W06
	BYTE		        As2   v032
	BYTE	W06
	BYTE		N05     Gs2 
	BYTE	W06
	BYTE		N06     Gn2   v028
	BYTE	W06
	BYTE		        Cn3   v032
	BYTE	W06
	BYTE		        As2   v028
	BYTE	W06
	BYTE		N05     Gs2 
	BYTE	W06
	BYTE		N06     Gn2 
	BYTE	W06
	BYTE	PEND
	BYTE	PATT
	 POIN2	seq_065_5 + 0x498
	BYTE	PATT
	 POIN2	seq_065_5 + 0x4C1
	BYTE	PATT
	 POIN2	seq_065_5 + 0x4ED
	BYTE	PATT
	 POIN2	seq_065_5 + 0x51F
	BYTE	GoTo
	 POIN2	seq_065_5 + 0x498
	BYTE	W07
	BYTE	FINE

//*********************** Track 07 ***********************//

seq_065_6:
	BYTE	KEYSH   seq_065_key+0
	BYTE		VOICE   42
	BYTE	W01
	BYTE		PAN     c_v+6
	BYTE		VOL     70*seq_065_mvl/mxv
	BYTE	W02
	BYTE	W96
	BYTE	W96
	BYTE	W96
	BYTE	W96
	BYTE	W96
	BYTE	W96
	BYTE	W96
	BYTE	W96
	BYTE	W96
	BYTE	W96
	BYTE	W96
	BYTE	W96
	BYTE	W96
	BYTE	W96
	BYTE	W96
	BYTE	W96
	BYTE	W96
	BYTE	W96
	BYTE	W96
	BYTE	W96
	BYTE	W96
	BYTE	W96
	BYTE	W96
	BYTE	W96
	BYTE	W96
	BYTE	W96
	BYTE	W96
	BYTE	W96
	BYTE	W96
	BYTE	W96
	BYTE	W96
	BYTE	W96
	BYTE	W96
	BYTE	W96
	BYTE	W96
	BYTE	W96
	BYTE	W96
	BYTE	W96
	BYTE	W96
	BYTE	W96
	BYTE	W96
	BYTE	W96
	BYTE	W96
	BYTE	W96
	BYTE	W96
	BYTE	W96
	BYTE	W96
	BYTE	W96
	BYTE	W96
	BYTE	W96
	BYTE	W96
	BYTE	W96
	BYTE	W96
	BYTE	W96
	BYTE	W96
	BYTE	W96
	BYTE	W96
	BYTE	W96
	BYTE	W96
	BYTE	W96
	BYTE	W96
	BYTE	W96
	BYTE	W96
	BYTE	W96
	BYTE	W96
	BYTE	W96
	BYTE	W96
	BYTE	W96
	BYTE	W96
	BYTE	W96
	BYTE	W96
	BYTE	W96
	BYTE	W96
	BYTE	W96
	BYTE	W96
	BYTE	W96
	BYTE	W96
	BYTE	W96
	BYTE	W96
	BYTE	W96
	BYTE	W96
	BYTE	W96
	BYTE	W96
	BYTE	W96
	BYTE	W96
	BYTE	W96
	BYTE	W96
	BYTE	W92
	BYTE	W02
	BYTE	W01
	BYTE		        53*seq_065_mvl/mxv
	BYTE	W01
	BYTE		N48     Gn2   v044
	BYTE	W03
	BYTE		VOL     55*seq_065_mvl/mxv
	BYTE	W03
	BYTE		        57*seq_065_mvl/mxv
	BYTE	W03
	BYTE		        59*seq_065_mvl/mxv
	BYTE	W03
	BYTE		        63*seq_065_mvl/mxv
	BYTE	W03
	BYTE		        67*seq_065_mvl/mxv
	BYTE	W03
	BYTE		        70*seq_065_mvl/mxv
	BYTE	W30
	BYTE		N48     Bn2   v040
	BYTE	W48
	BYTE		N48     An2   v044
	BYTE	W48
	BYTE		        Fs2   v040
	BYTE	W48
	BYTE	PEND
	BYTE		N48     An2   v044
	BYTE	W48
	BYTE		N44     Fn2   v040
	BYTE	W48
	BYTE	PEND
	BYTE		N48     Gn2   v036
	BYTE	W48
	BYTE		        En2   v032
	BYTE	W48
	BYTE	PEND
	BYTE		N48     Gn2   v044
	BYTE	W48
	BYTE		        Bn2   v040
	BYTE	W48
	BYTE	PEND
	BYTE	PATT
	 POIN2	seq_065_6 + 0x7B
	BYTE	PATT
	 POIN2	seq_065_6 + 0x83
	BYTE		N92     Gn2   v032
	BYTE	W03
	BYTE		VOL     71*seq_065_mvl/mxv
	BYTE	W03
	BYTE		        72*seq_065_mvl/mxv
	BYTE	W03
	BYTE		        72*seq_065_mvl/mxv
	BYTE	W06
	BYTE		        74*seq_065_mvl/mxv
	BYTE	W03
	BYTE		        75*seq_065_mvl/mxv
	BYTE	W03
	BYTE		        76*seq_065_mvl/mxv
	BYTE	W03
	BYTE		        80*seq_065_mvl/mxv
	BYTE	W09
	BYTE		        79*seq_065_mvl/mxv
	BYTE	W03
	BYTE		        78*seq_065_mvl/mxv
	BYTE	W03
	BYTE		        77*seq_065_mvl/mxv
	BYTE	W03
	BYTE		        75*seq_065_mvl/mxv
	BYTE	W03
	BYTE		        72*seq_065_mvl/mxv
	BYTE	W03
	BYTE		        70*seq_065_mvl/mxv
	BYTE	W03
	BYTE		        68*seq_065_mvl/mxv
	BYTE	W03
	BYTE		        65*seq_065_mvl/mxv
	BYTE	W03
	BYTE		        61*seq_065_mvl/mxv
	BYTE	W03
	BYTE		        57*seq_065_mvl/mxv
	BYTE	W03
	BYTE		        53*seq_065_mvl/mxv
	BYTE	W03
	BYTE		        49*seq_065_mvl/mxv
	BYTE	W03
	BYTE		        44*seq_065_mvl/mxv
	BYTE	W03
	BYTE		        39*seq_065_mvl/mxv
	BYTE	W03
	BYTE		        34*seq_065_mvl/mxv
	BYTE	W03
	BYTE		        28*seq_065_mvl/mxv
	BYTE	W03
	BYTE		        22*seq_065_mvl/mxv
	BYTE	W03
	BYTE		        16*seq_065_mvl/mxv
	BYTE	W03
	BYTE		        9*seq_065_mvl/mxv
	BYTE	W03
	BYTE		        3*seq_065_mvl/mxv
	BYTE	W06
	BYTE		VOL     70*seq_065_mvl/mxv
	BYTE		N48     Gn2   v044
	BYTE	W48
	BYTE		        Bn2   v040
	BYTE	W48
	BYTE	PEND
	BYTE	PATT
	 POIN2	seq_065_6 + 0x7B
	BYTE	PATT
	 POIN2	seq_065_6 + 0x83
	BYTE	PATT
	 POIN2	seq_065_6 + 0x8C
	BYTE	PATT
	 POIN2	seq_065_6 + 0x94
	BYTE	PATT
	 POIN2	seq_065_6 + 0x7B
	BYTE	PATT
	 POIN2	seq_065_6 + 0x83
	BYTE		TIE     Gn2   v032
	BYTE	W03
	BYTE		VOL     72*seq_065_mvl/mxv
	BYTE	W15
	BYTE		        72*seq_065_mvl/mxv
	BYTE	W03
	BYTE		        73*seq_065_mvl/mxv
	BYTE	W06
	BYTE		        74*seq_065_mvl/mxv
	BYTE	W03
	BYTE		        75*seq_065_mvl/mxv
	BYTE	W06
	BYTE		        76*seq_065_mvl/mxv
	BYTE	W06
	BYTE		        77*seq_065_mvl/mxv
	BYTE	W03
	BYTE		        78*seq_065_mvl/mxv
	BYTE	W03
	BYTE		        79*seq_065_mvl/mxv
	BYTE	W03
	BYTE		        80*seq_065_mvl/mxv
	BYTE	W03
	BYTE		        81*seq_065_mvl/mxv
	BYTE	W03
	BYTE		        81*seq_065_mvl/mxv
	BYTE	W03
	BYTE		        81*seq_065_mvl/mxv
	BYTE	W12
	BYTE		        80*seq_065_mvl/mxv
	BYTE	W06
	BYTE		        78*seq_065_mvl/mxv
	BYTE	W03
	BYTE		        77*seq_065_mvl/mxv
	BYTE	W03
	BYTE		        76*seq_065_mvl/mxv
	BYTE	W03
	BYTE		        75*seq_065_mvl/mxv
	BYTE	W03
	BYTE		        72*seq_065_mvl/mxv
	BYTE	W03
	BYTE		        70*seq_065_mvl/mxv
	BYTE	W03
	BYTE		        68*seq_065_mvl/mxv
	BYTE	W03
	BYTE		        67*seq_065_mvl/mxv
	BYTE	W03
	BYTE		        64*seq_065_mvl/mxv
	BYTE	W03
	BYTE		        61*seq_065_mvl/mxv
	BYTE	W03
	BYTE		        59*seq_065_mvl/mxv
	BYTE	W03
	BYTE		        56*seq_065_mvl/mxv
	BYTE	W03
	BYTE		        53*seq_065_mvl/mxv
	BYTE	W03
	BYTE		        51*seq_065_mvl/mxv
	BYTE	W03
	BYTE		        49*seq_065_mvl/mxv
	BYTE	W03
	BYTE		        47*seq_065_mvl/mxv
	BYTE	W03
	BYTE		        45*seq_065_mvl/mxv
	BYTE	W03
	BYTE		        43*seq_065_mvl/mxv
	BYTE	W03
	BYTE		        41*seq_065_mvl/mxv
	BYTE	W03
	BYTE		        39*seq_065_mvl/mxv
	BYTE	W03
	BYTE		        37*seq_065_mvl/mxv
	BYTE	W03
	BYTE		        35*seq_065_mvl/mxv
	BYTE	W03
	BYTE		        34*seq_065_mvl/mxv
	BYTE	W03
	BYTE		        31*seq_065_mvl/mxv
	BYTE	W03
	BYTE		        29*seq_065_mvl/mxv
	BYTE	W03
	BYTE		        27*seq_065_mvl/mxv
	BYTE	W03
	BYTE		        26*seq_065_mvl/mxv
	BYTE	W03
	BYTE		        24*seq_065_mvl/mxv
	BYTE	W03
	BYTE		        21*seq_065_mvl/mxv
	BYTE	W03
	BYTE		        19*seq_065_mvl/mxv
	BYTE	W03
	BYTE		        18*seq_065_mvl/mxv
	BYTE	W03
	BYTE		        16*seq_065_mvl/mxv
	BYTE	W03
	BYTE		        14*seq_065_mvl/mxv
	BYTE	W03
	BYTE		        10*seq_065_mvl/mxv
	BYTE	W03
	BYTE		        6*seq_065_mvl/mxv
	BYTE	W03
	BYTE		        2*seq_065_mvl/mxv
	BYTE	W03
	BYTE		        0*seq_065_mvl/mxv
	BYTE	W04
	BYTE	W01
	BYTE		EOT
	BYTE	W01
	BYTE	W96
	BYTE	W96
	BYTE	W96
	BYTE	W96
	BYTE	W96
	BYTE	W96
	BYTE	W96
	BYTE	W96
	BYTE	W96
	BYTE	W96
	BYTE	W96
	BYTE	W96
	BYTE	W96
	BYTE	W96
	BYTE	W96
	BYTE	W96
	BYTE	W96
	BYTE	W96
	BYTE	W96
	BYTE	W96
	BYTE	W96
	BYTE	W96
	BYTE	W96
	BYTE	W96
	BYTE	W96
	BYTE	W96
	BYTE	W96
	BYTE	W96
	BYTE	W96
	BYTE	W96
	BYTE	W96
	BYTE	W92
	BYTE	W02
	BYTE	W01
	BYTE		VOL     70*seq_065_mvl/mxv
	BYTE	W01
	BYTE	PATT
	 POIN2	seq_065_6 + 0x94
	BYTE	PATT
	 POIN2	seq_065_6 + 0x7B
	BYTE		N48     An2   v040
	BYTE	W48
	BYTE		N44     Fn2 
	BYTE	W48
	BYTE	PEND
	BYTE	PATT
	 POIN2	seq_065_6 + 0x8C
	BYTE	PATT
	 POIN2	seq_065_6 + 0x94
	BYTE	PATT
	 POIN2	seq_065_6 + 0x7B
	BYTE	PATT
	 POIN2	seq_065_6 + 0x83
	BYTE		N92     Gn2   v032
	BYTE	W06
	BYTE		VOL     72*seq_065_mvl/mxv
	BYTE	W06
	BYTE		        74*seq_065_mvl/mxv
	BYTE	W03
	BYTE		        75*seq_065_mvl/mxv
	BYTE	W03
	BYTE		        76*seq_065_mvl/mxv
	BYTE	W03
	BYTE		        80*seq_065_mvl/mxv
	BYTE	W09
	BYTE		        79*seq_065_mvl/mxv
	BYTE	W03
	BYTE		        78*seq_065_mvl/mxv
	BYTE	W03
	BYTE		        77*seq_065_mvl/mxv
	BYTE	W03
	BYTE		        75*seq_065_mvl/mxv
	BYTE	W03
	BYTE		        72*seq_065_mvl/mxv
	BYTE	W03
	BYTE		        70*seq_065_mvl/mxv
	BYTE	W03
	BYTE		        68*seq_065_mvl/mxv
	BYTE	W03
	BYTE		        65*seq_065_mvl/mxv
	BYTE	W03
	BYTE		        61*seq_065_mvl/mxv
	BYTE	W03
	BYTE		        57*seq_065_mvl/mxv
	BYTE	W03
	BYTE		        53*seq_065_mvl/mxv
	BYTE	W03
	BYTE		        49*seq_065_mvl/mxv
	BYTE	W03
	BYTE		        44*seq_065_mvl/mxv
	BYTE	W03
	BYTE		        39*seq_065_mvl/mxv
	BYTE	W03
	BYTE		        34*seq_065_mvl/mxv
	BYTE	W03
	BYTE		        28*seq_065_mvl/mxv
	BYTE	W03
	BYTE		        22*seq_065_mvl/mxv
	BYTE	W03
	BYTE		        16*seq_065_mvl/mxv
	BYTE	W03
	BYTE		        9*seq_065_mvl/mxv
	BYTE	W03
	BYTE		        3*seq_065_mvl/mxv
	BYTE	W09
	BYTE	PATT
	 POIN2	seq_065_6 + 0xE1
	BYTE	PATT
	 POIN2	seq_065_6 + 0x7B
	BYTE	PATT
	 POIN2	seq_065_6 + 0x1A6
	BYTE	PATT
	 POIN2	seq_065_6 + 0x8C
	BYTE	PATT
	 POIN2	seq_065_6 + 0x94
	BYTE	PATT
	 POIN2	seq_065_6 + 0x7B
	BYTE	PATT
	 POIN2	seq_065_6 + 0x83
	BYTE		N96     Gn2   v032
	BYTE	W06
	BYTE		VOL     73*seq_065_mvl/mxv
	BYTE	W03
	BYTE		        74*seq_065_mvl/mxv
	BYTE	W06
	BYTE		        75*seq_065_mvl/mxv
	BYTE	W06
	BYTE		        75*seq_065_mvl/mxv
	BYTE	W03
	BYTE		        76*seq_065_mvl/mxv
	BYTE	W03
	BYTE		        77*seq_065_mvl/mxv
	BYTE	W03
	BYTE		        78*seq_065_mvl/mxv
	BYTE	W03
	BYTE		        80*seq_065_mvl/mxv
	BYTE	W03
	BYTE		        81*seq_065_mvl/mxv
	BYTE	W03
	BYTE		        84*seq_065_mvl/mxv
	BYTE	W06
	BYTE		        83*seq_065_mvl/mxv
	BYTE	W03
	BYTE		        82*seq_065_mvl/mxv
	BYTE	W03
	BYTE		        81*seq_065_mvl/mxv
	BYTE	W03
	BYTE		        79*seq_065_mvl/mxv
	BYTE	W03
	BYTE		        77*seq_065_mvl/mxv
	BYTE	W03
	BYTE		        74*seq_065_mvl/mxv
	BYTE	W03
	BYTE		        70*seq_065_mvl/mxv
	BYTE	W03
	BYTE		        68*seq_065_mvl/mxv
	BYTE	W03
	BYTE		        63*seq_065_mvl/mxv
	BYTE	W03
	BYTE		        59*seq_065_mvl/mxv
	BYTE	W03
	BYTE		        53*seq_065_mvl/mxv
	BYTE	W03
	BYTE		        46*seq_065_mvl/mxv
	BYTE	W03
	BYTE		        38*seq_065_mvl/mxv
	BYTE	W03
	BYTE		        32*seq_065_mvl/mxv
	BYTE	W01
	BYTE		        27*seq_065_mvl/mxv
	BYTE	W02
	BYTE		        21*seq_065_mvl/mxv
	BYTE	W01
	BYTE		        17*seq_065_mvl/mxv
	BYTE	W02
	BYTE		        12*seq_065_mvl/mxv
	BYTE	W01
	BYTE		        8*seq_065_mvl/mxv
	BYTE	W02
	BYTE		        4*seq_065_mvl/mxv
	BYTE	W01
	BYTE		        0*seq_065_mvl/mxv
	BYTE	W02
	BYTE		        69*seq_065_mvl/mxv
	BYTE		N96     Ds2   v040
	BYTE	W06
	BYTE		VOL     70*seq_065_mvl/mxv
	BYTE	W03
	BYTE		        72*seq_065_mvl/mxv
	BYTE	W09
	BYTE		        73*seq_065_mvl/mxv
	BYTE	W03
	BYTE		        74*seq_065_mvl/mxv
	BYTE	W03
	BYTE		        75*seq_065_mvl/mxv
	BYTE	W03
	BYTE		        76*seq_065_mvl/mxv
	BYTE	W03
	BYTE		        77*seq_065_mvl/mxv
	BYTE	W03
	BYTE		        79*seq_065_mvl/mxv
	BYTE	W03
	BYTE		        81*seq_065_mvl/mxv
	BYTE	W03
	BYTE		        83*seq_065_mvl/mxv
	BYTE	W03
	BYTE		        85*seq_065_mvl/mxv
	BYTE	W09
	BYTE		        85*seq_065_mvl/mxv
	BYTE	W09
	BYTE		        84*seq_065_mvl/mxv
	BYTE	W03
	BYTE		        83*seq_065_mvl/mxv
	BYTE	W03
	BYTE		        82*seq_065_mvl/mxv
	BYTE	W03
	BYTE		        81*seq_065_mvl/mxv
	BYTE	W03
	BYTE		        79*seq_065_mvl/mxv
	BYTE	W03
	BYTE		        77*seq_065_mvl/mxv
	BYTE	W03
	BYTE		        75*seq_065_mvl/mxv
	BYTE	W03
	BYTE		        73*seq_065_mvl/mxv
	BYTE	W03
	BYTE		        70*seq_065_mvl/mxv
	BYTE	W03
	BYTE		        68*seq_065_mvl/mxv
	BYTE	W03
	BYTE		        65*seq_065_mvl/mxv
	BYTE	W03
	BYTE		        63*seq_065_mvl/mxv
	BYTE	W03
	BYTE		VOL     72*seq_065_mvl/mxv
	BYTE		N96     Fn2   v048
	BYTE	W06
	BYTE		VOL     72*seq_065_mvl/mxv
	BYTE	W03
	BYTE		        73*seq_065_mvl/mxv
	BYTE	W03
	BYTE		        75*seq_065_mvl/mxv
	BYTE	W03
	BYTE		        76*seq_065_mvl/mxv
	BYTE	W03
	BYTE		        77*seq_065_mvl/mxv
	BYTE	W03
	BYTE		        80*seq_065_mvl/mxv
	BYTE	W03
	BYTE		        84*seq_065_mvl/mxv
	BYTE	W09
	BYTE		        82*seq_065_mvl/mxv
	BYTE	W06
	BYTE		        81*seq_065_mvl/mxv
	BYTE	W03
	BYTE		        80*seq_065_mvl/mxv
	BYTE	W03
	BYTE		        79*seq_065_mvl/mxv
	BYTE	W03
	BYTE		        77*seq_065_mvl/mxv
	BYTE	W03
	BYTE		        75*seq_065_mvl/mxv
	BYTE	W03
	BYTE		        73*seq_065_mvl/mxv
	BYTE	W03
	BYTE		        71*seq_065_mvl/mxv
	BYTE	W03
	BYTE		        69*seq_065_mvl/mxv
	BYTE	W03
	BYTE		        66*seq_065_mvl/mxv
	BYTE	W03
	BYTE		        63*seq_065_mvl/mxv
	BYTE	W03
	BYTE		        60*seq_065_mvl/mxv
	BYTE	W03
	BYTE		        57*seq_065_mvl/mxv
	BYTE	W03
	BYTE		        53*seq_065_mvl/mxv
	BYTE	W03
	BYTE		        50*seq_065_mvl/mxv
	BYTE	W03
	BYTE		        46*seq_065_mvl/mxv
	BYTE	W03
	BYTE		        42*seq_065_mvl/mxv
	BYTE	W03
	BYTE		        38*seq_065_mvl/mxv
	BYTE	W03
	BYTE		        34*seq_065_mvl/mxv
	BYTE	W06
	BYTE	PEND
	BYTE		VOL     70*seq_065_mvl/mxv
	BYTE		N96     Ds2   v040
	BYTE	W06
	BYTE		VOL     71*seq_065_mvl/mxv
	BYTE	W03
	BYTE		        72*seq_065_mvl/mxv
	BYTE	W09
	BYTE		        73*seq_065_mvl/mxv
	BYTE	W03
	BYTE		        74*seq_065_mvl/mxv
	BYTE	W03
	BYTE		        75*seq_065_mvl/mxv
	BYTE	W03
	BYTE		        76*seq_065_mvl/mxv
	BYTE	W03
	BYTE		        77*seq_065_mvl/mxv
	BYTE	W03
	BYTE		        79*seq_065_mvl/mxv
	BYTE	W03
	BYTE		        81*seq_065_mvl/mxv
	BYTE	W03
	BYTE		        83*seq_065_mvl/mxv
	BYTE	W03
	BYTE		        85*seq_065_mvl/mxv
	BYTE	W09
	BYTE		        85*seq_065_mvl/mxv
	BYTE	W09
	BYTE		        84*seq_065_mvl/mxv
	BYTE	W03
	BYTE		        83*seq_065_mvl/mxv
	BYTE	W03
	BYTE		        82*seq_065_mvl/mxv
	BYTE	W03
	BYTE		        81*seq_065_mvl/mxv
	BYTE	W03
	BYTE		        79*seq_065_mvl/mxv
	BYTE	W03
	BYTE		        77*seq_065_mvl/mxv
	BYTE	W03
	BYTE		        75*seq_065_mvl/mxv
	BYTE	W03
	BYTE		        73*seq_065_mvl/mxv
	BYTE	W03
	BYTE		        70*seq_065_mvl/mxv
	BYTE	W03
	BYTE		        68*seq_065_mvl/mxv
	BYTE	W03
	BYTE		        65*seq_065_mvl/mxv
	BYTE	W03
	BYTE		        63*seq_065_mvl/mxv
	BYTE	W03
	BYTE	PEND
	BYTE		        72*seq_065_mvl/mxv
	BYTE		N96     Fn2 
	BYTE	W06
	BYTE		VOL     72*seq_065_mvl/mxv
	BYTE	W03
	BYTE		        73*seq_065_mvl/mxv
	BYTE	W03
	BYTE		        75*seq_065_mvl/mxv
	BYTE	W03
	BYTE		        76*seq_065_mvl/mxv
	BYTE	W03
	BYTE		        77*seq_065_mvl/mxv
	BYTE	W03
	BYTE		        80*seq_065_mvl/mxv
	BYTE	W03
	BYTE		        84*seq_065_mvl/mxv
	BYTE	W09
	BYTE		        82*seq_065_mvl/mxv
	BYTE	W06
	BYTE		        81*seq_065_mvl/mxv
	BYTE	W03
	BYTE		        80*seq_065_mvl/mxv
	BYTE	W03
	BYTE		        79*seq_065_mvl/mxv
	BYTE	W03
	BYTE		        77*seq_065_mvl/mxv
	BYTE	W03
	BYTE		        75*seq_065_mvl/mxv
	BYTE	W03
	BYTE		        73*seq_065_mvl/mxv
	BYTE	W03
	BYTE		        71*seq_065_mvl/mxv
	BYTE	W03
	BYTE		        69*seq_065_mvl/mxv
	BYTE	W03
	BYTE		        66*seq_065_mvl/mxv
	BYTE	W03
	BYTE		        63*seq_065_mvl/mxv
	BYTE	W03
	BYTE		        60*seq_065_mvl/mxv
	BYTE	W03
	BYTE		        57*seq_065_mvl/mxv
	BYTE	W03
	BYTE		        53*seq_065_mvl/mxv
	BYTE	W03
	BYTE		        50*seq_065_mvl/mxv
	BYTE	W03
	BYTE		        46*seq_065_mvl/mxv
	BYTE	W03
	BYTE		        42*seq_065_mvl/mxv
	BYTE	W03
	BYTE		        38*seq_065_mvl/mxv
	BYTE	W03
	BYTE		        34*seq_065_mvl/mxv
	BYTE	W06
	BYTE		        69*seq_065_mvl/mxv
	BYTE		N96     Ds2   v048
	BYTE	W06
	BYTE		VOL     70*seq_065_mvl/mxv
	BYTE	W03
	BYTE		        72*seq_065_mvl/mxv
	BYTE	W09
	BYTE		        73*seq_065_mvl/mxv
	BYTE	W03
	BYTE		        74*seq_065_mvl/mxv
	BYTE	W03
	BYTE		        75*seq_065_mvl/mxv
	BYTE	W03
	BYTE		        76*seq_065_mvl/mxv
	BYTE	W03
	BYTE		        77*seq_065_mvl/mxv
	BYTE	W03
	BYTE		        79*seq_065_mvl/mxv
	BYTE	W03
	BYTE		        81*seq_065_mvl/mxv
	BYTE	W03
	BYTE		        83*seq_065_mvl/mxv
	BYTE	W03
	BYTE		        85*seq_065_mvl/mxv
	BYTE	W09
	BYTE		        85*seq_065_mvl/mxv
	BYTE	W09
	BYTE		        84*seq_065_mvl/mxv
	BYTE	W03
	BYTE		        83*seq_065_mvl/mxv
	BYTE	W03
	BYTE		        82*seq_065_mvl/mxv
	BYTE	W03
	BYTE		        81*seq_065_mvl/mxv
	BYTE	W03
	BYTE		        79*seq_065_mvl/mxv
	BYTE	W03
	BYTE		        77*seq_065_mvl/mxv
	BYTE	W03
	BYTE		        75*seq_065_mvl/mxv
	BYTE	W03
	BYTE		        73*seq_065_mvl/mxv
	BYTE	W03
	BYTE		        70*seq_065_mvl/mxv
	BYTE	W03
	BYTE		        68*seq_065_mvl/mxv
	BYTE	W03
	BYTE		        65*seq_065_mvl/mxv
	BYTE	W03
	BYTE		        63*seq_065_mvl/mxv
	BYTE	W03
	BYTE	PATT
	 POIN2	seq_065_6 + 0x295
	BYTE	PATT
	 POIN2	seq_065_6 + 0x2D1
	BYTE		VOL     70*seq_065_mvl/mxv
	BYTE		N96     Fn2   v044
	BYTE	W03
	BYTE		VOL     72*seq_065_mvl/mxv
	BYTE	W03
	BYTE		        77*seq_065_mvl/mxv
	BYTE	W03
	BYTE		        80*seq_065_mvl/mxv
	BYTE	W06
	BYTE		        79*seq_065_mvl/mxv
	BYTE	W03
	BYTE		        77*seq_065_mvl/mxv
	BYTE	W03
	BYTE		        76*seq_065_mvl/mxv
	BYTE	W03
	BYTE		        73*seq_065_mvl/mxv
	BYTE	W03
	BYTE		        70*seq_065_mvl/mxv
	BYTE	W03
	BYTE		        68*seq_065_mvl/mxv
	BYTE	W03
	BYTE		        64*seq_065_mvl/mxv
	BYTE	W03
	BYTE		        63*seq_065_mvl/mxv
	BYTE	W03
	BYTE		        64*seq_065_mvl/mxv
	BYTE	W09
	BYTE		        65*seq_065_mvl/mxv
	BYTE	W03
	BYTE		        65*seq_065_mvl/mxv
	BYTE	W03
	BYTE		        66*seq_065_mvl/mxv
	BYTE	W03
	BYTE		        67*seq_065_mvl/mxv
	BYTE	W03
	BYTE		        68*seq_065_mvl/mxv
	BYTE	W03
	BYTE		        69*seq_065_mvl/mxv
	BYTE	W03
	BYTE		        70*seq_065_mvl/mxv
	BYTE	W03
	BYTE		        72*seq_065_mvl/mxv
	BYTE	W03
	BYTE		        73*seq_065_mvl/mxv
	BYTE	W03
	BYTE		        75*seq_065_mvl/mxv
	BYTE	W03
	BYTE		        76*seq_065_mvl/mxv
	BYTE	W03
	BYTE		        78*seq_065_mvl/mxv
	BYTE	W03
	BYTE		        80*seq_065_mvl/mxv
	BYTE	W03
	BYTE		        82*seq_065_mvl/mxv
	BYTE	W03
	BYTE		        81*seq_065_mvl/mxv
	BYTE	W03
	BYTE		        77*seq_065_mvl/mxv
	BYTE	W03
	BYTE		        70*seq_065_mvl/mxv
	BYTE		TIE     En2 
	BYTE	W03
	BYTE		VOL     72*seq_065_mvl/mxv
	BYTE	W03
	BYTE		        72*seq_065_mvl/mxv
	BYTE	W12
	BYTE		        73*seq_065_mvl/mxv
	BYTE	W09
	BYTE		        74*seq_065_mvl/mxv
	BYTE	W06
	BYTE		        75*seq_065_mvl/mxv
	BYTE	W06
	BYTE		        76*seq_065_mvl/mxv
	BYTE	W06
	BYTE		        77*seq_065_mvl/mxv
	BYTE	W03
	BYTE		        77*seq_065_mvl/mxv
	BYTE	W03
	BYTE		        78*seq_065_mvl/mxv
	BYTE	W03
	BYTE		        79*seq_065_mvl/mxv
	BYTE	W03
	BYTE		        80*seq_065_mvl/mxv
	BYTE	W03
	BYTE		        80*seq_065_mvl/mxv
	BYTE	W03
	BYTE		        81*seq_065_mvl/mxv
	BYTE	W03
	BYTE		        82*seq_065_mvl/mxv
	BYTE	W03
	BYTE		        83*seq_065_mvl/mxv
	BYTE	W03
	BYTE		        84*seq_065_mvl/mxv
	BYTE	W03
	BYTE		        85*seq_065_mvl/mxv
	BYTE	W15
	BYTE		        84*seq_065_mvl/mxv
	BYTE	W06
	BYTE	W09
	BYTE		        83*seq_065_mvl/mxv
	BYTE	W03
	BYTE		        82*seq_065_mvl/mxv
	BYTE	W03
	BYTE		        82*seq_065_mvl/mxv
	BYTE	W03
	BYTE		        81*seq_065_mvl/mxv
	BYTE	W03
	BYTE		        80*seq_065_mvl/mxv
	BYTE	W03
	BYTE		        80*seq_065_mvl/mxv
	BYTE	W03
	BYTE		        79*seq_065_mvl/mxv
	BYTE	W03
	BYTE		        77*seq_065_mvl/mxv
	BYTE	W03
	BYTE		        76*seq_065_mvl/mxv
	BYTE	W03
	BYTE		        75*seq_065_mvl/mxv
	BYTE	W03
	BYTE		        74*seq_065_mvl/mxv
	BYTE	W03
	BYTE		        72*seq_065_mvl/mxv
	BYTE	W03
	BYTE		        70*seq_065_mvl/mxv
	BYTE	W03
	BYTE		        69*seq_065_mvl/mxv
	BYTE	W03
	BYTE		        68*seq_065_mvl/mxv
	BYTE	W03
	BYTE		        65*seq_065_mvl/mxv
	BYTE	W03
	BYTE		        63*seq_065_mvl/mxv
	BYTE	W03
	BYTE		        61*seq_065_mvl/mxv
	BYTE	W03
	BYTE		        60*seq_065_mvl/mxv
	BYTE	W03
	BYTE		        58*seq_065_mvl/mxv
	BYTE	W03
	BYTE		        55*seq_065_mvl/mxv
	BYTE	W03
	BYTE		        52*seq_065_mvl/mxv
	BYTE	W03
	BYTE		        50*seq_065_mvl/mxv
	BYTE	W03
	BYTE		        47*seq_065_mvl/mxv
	BYTE	W03
	BYTE		        45*seq_065_mvl/mxv
	BYTE	W03
	BYTE		        42*seq_065_mvl/mxv
	BYTE	W03
	BYTE		        39*seq_065_mvl/mxv
	BYTE	W03
	BYTE		        36*seq_065_mvl/mxv
	BYTE	W03
	BYTE		        33*seq_065_mvl/mxv
	BYTE	W03
	BYTE		EOT
	BYTE		VOL     70*seq_065_mvl/mxv
	BYTE		TIE     Ds2   v040
	BYTE	W92
	BYTE	W01
	BYTE		VOL     70*seq_065_mvl/mxv
	BYTE	W03
	BYTE	W09
	BYTE		VOL     69*seq_065_mvl/mxv
	BYTE	W09
	BYTE		        68*seq_065_mvl/mxv
	BYTE	W06
	BYTE		        68*seq_065_mvl/mxv
	BYTE	W03
	BYTE		        67*seq_065_mvl/mxv
	BYTE	W03
	BYTE		        66*seq_065_mvl/mxv
	BYTE	W03
	BYTE		        65*seq_065_mvl/mxv
	BYTE	W03
	BYTE		        64*seq_065_mvl/mxv
	BYTE	W03
	BYTE		        63*seq_065_mvl/mxv
	BYTE	W03
	BYTE		        63*seq_065_mvl/mxv
	BYTE	W03
	BYTE		        61*seq_065_mvl/mxv
	BYTE	W03
	BYTE		        60*seq_065_mvl/mxv
	BYTE	W03
	BYTE		        59*seq_065_mvl/mxv
	BYTE	W03
	BYTE		        58*seq_065_mvl/mxv
	BYTE	W03
	BYTE		        56*seq_065_mvl/mxv
	BYTE	W03
	BYTE		        55*seq_065_mvl/mxv
	BYTE	W03
	BYTE		        53*seq_065_mvl/mxv
	BYTE	W03
	BYTE		        52*seq_065_mvl/mxv
	BYTE	W03
	BYTE		        51*seq_065_mvl/mxv
	BYTE	W03
	BYTE		        49*seq_065_mvl/mxv
	BYTE	W03
	BYTE		        47*seq_065_mvl/mxv
	BYTE	W03
	BYTE		        46*seq_065_mvl/mxv
	BYTE	W03
	BYTE		        44*seq_065_mvl/mxv
	BYTE	W03
	BYTE		        41*seq_065_mvl/mxv
	BYTE	W03
	BYTE		        40*seq_065_mvl/mxv
	BYTE	W03
	BYTE		        38*seq_065_mvl/mxv
	BYTE	W03
	BYTE		        36*seq_065_mvl/mxv
	BYTE	W03
	BYTE	PEND
	BYTE		EOT     Ds2 
	BYTE		VOL     70*seq_065_mvl/mxv
	BYTE		TIE     En2   v044
	BYTE	W15
	BYTE		VOL     71*seq_065_mvl/mxv
	BYTE	W03
	BYTE		        72*seq_065_mvl/mxv
	BYTE	W12
	BYTE		        72*seq_065_mvl/mxv
	BYTE	W03
	BYTE		        73*seq_065_mvl/mxv
	BYTE	W03
	BYTE		        74*seq_065_mvl/mxv
	BYTE	W03
	BYTE		        75*seq_065_mvl/mxv
	BYTE	W03
	BYTE		        76*seq_065_mvl/mxv
	BYTE	W03
	BYTE		        77*seq_065_mvl/mxv
	BYTE	W03
	BYTE		        77*seq_065_mvl/mxv
	BYTE	W03
	BYTE		        79*seq_065_mvl/mxv
	BYTE	W03
	BYTE		        80*seq_065_mvl/mxv
	BYTE	W03
	BYTE		        82*seq_065_mvl/mxv
	BYTE	W15
	BYTE		        83*seq_065_mvl/mxv
	BYTE	W12
	BYTE		        82*seq_065_mvl/mxv
	BYTE	W06
	BYTE		        82*seq_065_mvl/mxv
	BYTE	W03
	BYTE		        81*seq_065_mvl/mxv
	BYTE	W03
	BYTE	PEND
	BYTE		VOL     80*seq_065_mvl/mxv
	BYTE	W03
	BYTE		        80*seq_065_mvl/mxv
	BYTE	W03
	BYTE		        79*seq_065_mvl/mxv
	BYTE	W03
	BYTE		        78*seq_065_mvl/mxv
	BYTE	W03
	BYTE		        77*seq_065_mvl/mxv
	BYTE	W03
	BYTE		        76*seq_065_mvl/mxv
	BYTE	W03
	BYTE		        75*seq_065_mvl/mxv
	BYTE	W03
	BYTE		        73*seq_065_mvl/mxv
	BYTE	W03
	BYTE		        72*seq_065_mvl/mxv
	BYTE	W03
	BYTE		        70*seq_065_mvl/mxv
	BYTE	W03
	BYTE		        69*seq_065_mvl/mxv
	BYTE	W03
	BYTE		        68*seq_065_mvl/mxv
	BYTE	W03
	BYTE		        66*seq_065_mvl/mxv
	BYTE	W03
	BYTE		        64*seq_065_mvl/mxv
	BYTE	W03
	BYTE		        63*seq_065_mvl/mxv
	BYTE	W03
	BYTE		        60*seq_065_mvl/mxv
	BYTE	W03
	BYTE		        58*seq_065_mvl/mxv
	BYTE	W03
	BYTE		        56*seq_065_mvl/mxv
	BYTE	W03
	BYTE		        54*seq_065_mvl/mxv
	BYTE	W03
	BYTE		        52*seq_065_mvl/mxv
	BYTE	W03
	BYTE		        49*seq_065_mvl/mxv
	BYTE	W03
	BYTE		        47*seq_065_mvl/mxv
	BYTE	W03
	BYTE		        44*seq_065_mvl/mxv
	BYTE	W03
	BYTE		        41*seq_065_mvl/mxv
	BYTE	W03
	BYTE		        39*seq_065_mvl/mxv
	BYTE	W03
	BYTE		        36*seq_065_mvl/mxv
	BYTE	W03
	BYTE		        33*seq_065_mvl/mxv
	BYTE	W03
	BYTE		        30*seq_065_mvl/mxv
	BYTE	W03
	BYTE		        27*seq_065_mvl/mxv
	BYTE	W03
	BYTE		        24*seq_065_mvl/mxv
	BYTE	W03
	BYTE		        20*seq_065_mvl/mxv
	BYTE	W03
	BYTE		        17*seq_065_mvl/mxv
	BYTE	W03
	BYTE	PEND
	BYTE		EOT     En2 
	BYTE		VOL     70*seq_065_mvl/mxv
	BYTE		TIE     Ds2   v044
	BYTE	W92
	BYTE	W01
	BYTE		VOL     70*seq_065_mvl/mxv
	BYTE	W03
	BYTE	PEND
	BYTE	PATT
	 POIN2	seq_065_6 + 0x430
	BYTE		EOT     Ds2 
	BYTE	PATT
	 POIN2	seq_065_6 + 0x469
	BYTE	PATT
	 POIN2	seq_065_6 + 0x491
	BYTE		EOT     En2 
	BYTE	PATT
	 POIN2	seq_065_6 + 0x4D5
	BYTE	W09
	BYTE		VOL     69*seq_065_mvl/mxv
	BYTE	W09
	BYTE		        68*seq_065_mvl/mxv
	BYTE	W06
	BYTE		        68*seq_065_mvl/mxv
	BYTE	W03
	BYTE		        67*seq_065_mvl/mxv
	BYTE	W03
	BYTE		        66*seq_065_mvl/mxv
	BYTE	W03
	BYTE		        65*seq_065_mvl/mxv
	BYTE	W03
	BYTE		        64*seq_065_mvl/mxv
	BYTE	W03
	BYTE		        63*seq_065_mvl/mxv
	BYTE	W03
	BYTE		        63*seq_065_mvl/mxv
	BYTE	W03
	BYTE		        61*seq_065_mvl/mxv
	BYTE	W03
	BYTE		        60*seq_065_mvl/mxv
	BYTE	W03
	BYTE		        59*seq_065_mvl/mxv
	BYTE	W03
	BYTE		        58*seq_065_mvl/mxv
	BYTE	W03
	BYTE		        56*seq_065_mvl/mxv
	BYTE	W03
	BYTE		        55*seq_065_mvl/mxv
	BYTE	W03
	BYTE		        53*seq_065_mvl/mxv
	BYTE	W03
	BYTE		        52*seq_065_mvl/mxv
	BYTE	W03
	BYTE		        51*seq_065_mvl/mxv
	BYTE	W03
	BYTE		        49*seq_065_mvl/mxv
	BYTE	W03
	BYTE		        47*seq_065_mvl/mxv
	BYTE	W03
	BYTE		        46*seq_065_mvl/mxv
	BYTE	W03
	BYTE		        44*seq_065_mvl/mxv
	BYTE	W03
	BYTE		        41*seq_065_mvl/mxv
	BYTE	W03
	BYTE		        40*seq_065_mvl/mxv
	BYTE	W03
	BYTE		        38*seq_065_mvl/mxv
	BYTE	W05
	BYTE		EOT     Ds2 
	BYTE		VOL     70*seq_065_mvl/mxv
	BYTE	W01
	BYTE	GoTo
	 POIN2	seq_065_6 + 0x469
	BYTE	W07
	BYTE	FINE

//*********************** Track 08 ***********************//

seq_065_7:
	BYTE	KEYSH   seq_065_key+0
	BYTE	W03
	BYTE	W96
	BYTE	W96
	BYTE	W96
	BYTE	W96
	BYTE	W96
	BYTE	W96
	BYTE	W96
	BYTE	W96
	BYTE	W96
	BYTE	W96
	BYTE	W96
	BYTE	W96
	BYTE	W96
	BYTE	W96
	BYTE	W96
	BYTE	W96
	BYTE	W96
	BYTE	W96
	BYTE	W96
	BYTE	W96
	BYTE	W96
	BYTE	W96
	BYTE	W96
	BYTE	W96
	BYTE	W96
	BYTE	W96
	BYTE	W96
	BYTE	W96
	BYTE	W96
	BYTE	W96
	BYTE	W96
	BYTE	W48
	BYTE		VOICE   62
	BYTE	W01
	BYTE		VOL     70*seq_065_mvl/mxv
	BYTE		PAN     c_v+46
	BYTE	W01
	BYTE		BENDR   12
	BYTE	W09
	BYTE	W01
	BYTE		N23     Cn3   v016
	BYTE	W24
	BYTE		        Dn3 
	BYTE	W12
	BYTE	W12
	BYTE		N48     En3   v016
	BYTE	W48
	BYTE		N68     Cn3 
	BYTE	W09
	BYTE		VOL     72*seq_065_mvl/mxv
	BYTE	W06
	BYTE		        72*seq_065_mvl/mxv
	BYTE	W06
	BYTE		        74*seq_065_mvl/mxv
	BYTE	W03
	BYTE		        75*seq_065_mvl/mxv
	BYTE	W03
	BYTE		        77*seq_065_mvl/mxv
	BYTE	W03
	BYTE		        78*seq_065_mvl/mxv
	BYTE	W03
	BYTE		        80*seq_065_mvl/mxv
	BYTE	W03
	BYTE	PEND
	BYTE	W03
	BYTE		VOL     79*seq_065_mvl/mxv
	BYTE	W03
	BYTE		        78*seq_065_mvl/mxv
	BYTE	W03
	BYTE		        77*seq_065_mvl/mxv
	BYTE	W03
	BYTE		        76*seq_065_mvl/mxv
	BYTE	W03
	BYTE		        73*seq_065_mvl/mxv
	BYTE	W03
	BYTE		        70*seq_065_mvl/mxv
	BYTE	W03
	BYTE		        67*seq_065_mvl/mxv
	BYTE	W03
	BYTE		        62*seq_065_mvl/mxv
	BYTE	W03
	BYTE		        57*seq_065_mvl/mxv
	BYTE	W03
	BYTE		        51*seq_065_mvl/mxv
	BYTE	W03
	BYTE		        45*seq_065_mvl/mxv
	BYTE	W03
	BYTE		        70*seq_065_mvl/mxv
	BYTE		N23     Cn3   v020
	BYTE	W24
	BYTE		        En3 
	BYTE	W24
	BYTE		        Gn3   v016
	BYTE	W12
	BYTE	PEND
	BYTE	W12
	BYTE		N23     Fs3   v016
	BYTE	W24
	BYTE		        Dn3 
	BYTE	W24
	BYTE		VOL     71*seq_065_mvl/mxv
	BYTE		TIE     An2 
	BYTE	W09
	BYTE		VOL     72*seq_065_mvl/mxv
	BYTE	W03
	BYTE		        72*seq_065_mvl/mxv
	BYTE	W06
	BYTE		        73*seq_065_mvl/mxv
	BYTE	W03
	BYTE		        74*seq_065_mvl/mxv
	BYTE	W03
	BYTE		        75*seq_065_mvl/mxv
	BYTE	W03
	BYTE		        76*seq_065_mvl/mxv
	BYTE	W03
	BYTE		        78*seq_065_mvl/mxv
	BYTE	W06
	BYTE	PEND
	BYTE	W15
	BYTE		VOL     77*seq_065_mvl/mxv
	BYTE	W03
	BYTE		        77*seq_065_mvl/mxv
	BYTE	W03
	BYTE		        76*seq_065_mvl/mxv
	BYTE	W03
	BYTE		        75*seq_065_mvl/mxv
	BYTE	W03
	BYTE		        74*seq_065_mvl/mxv
	BYTE	W03
	BYTE		        72*seq_065_mvl/mxv
	BYTE	W03
	BYTE		        72*seq_065_mvl/mxv
	BYTE	W03
	BYTE		        70*seq_065_mvl/mxv
	BYTE	W03
	BYTE		        68*seq_065_mvl/mxv
	BYTE	W03
	BYTE		        67*seq_065_mvl/mxv
	BYTE	W03
	BYTE		        65*seq_065_mvl/mxv
	BYTE	W03
	BYTE		        63*seq_065_mvl/mxv
	BYTE	W03
	BYTE		        61*seq_065_mvl/mxv
	BYTE	W03
	BYTE		        58*seq_065_mvl/mxv
	BYTE	W03
	BYTE		        56*seq_065_mvl/mxv
	BYTE	W03
	BYTE		        53*seq_065_mvl/mxv
	BYTE	W03
	BYTE		        51*seq_065_mvl/mxv
	BYTE	W03
	BYTE		        48*seq_065_mvl/mxv
	BYTE	W03
	BYTE		        45*seq_065_mvl/mxv
	BYTE	W03
	BYTE		        42*seq_065_mvl/mxv
	BYTE	W03
	BYTE		        38*seq_065_mvl/mxv
	BYTE	W03
	BYTE		        35*seq_065_mvl/mxv
	BYTE	W03
	BYTE		        32*seq_065_mvl/mxv
	BYTE	W03
	BYTE		        28*seq_065_mvl/mxv
	BYTE	W03
	BYTE		        24*seq_065_mvl/mxv
	BYTE	W03
	BYTE		        21*seq_065_mvl/mxv
	BYTE	W03
	BYTE		        16*seq_065_mvl/mxv
	BYTE	W03
	BYTE	PEND
	BYTE		VOL     12*seq_065_mvl/mxv
	BYTE	W03
	BYTE		        8*seq_065_mvl/mxv
	BYTE	W03
	BYTE		        3*seq_065_mvl/mxv
	BYTE	W04
	BYTE	PEND
	BYTE		EOT     An2 
	BYTE	W02
	BYTE		VOL     70*seq_065_mvl/mxv
	BYTE		N72     As2   v020
	BYTE	W09
	BYTE		VOL     72*seq_065_mvl/mxv
	BYTE	W12
	BYTE		        73*seq_065_mvl/mxv
	BYTE	W06
	BYTE		        74*seq_065_mvl/mxv
	BYTE	W03
	BYTE		        75*seq_065_mvl/mxv
	BYTE	W03
	BYTE		        76*seq_065_mvl/mxv
	BYTE	W03
	BYTE		        77*seq_065_mvl/mxv
	BYTE	W03
	BYTE		        77*seq_065_mvl/mxv
	BYTE	W03
	BYTE		        78*seq_065_mvl/mxv
	BYTE	W03
	BYTE		        80*seq_065_mvl/mxv
	BYTE	W03
	BYTE		        81*seq_065_mvl/mxv
	BYTE	W03
	BYTE		        82*seq_065_mvl/mxv
	BYTE	W03
	BYTE		        83*seq_065_mvl/mxv
	BYTE	W03
	BYTE		        82*seq_065_mvl/mxv
	BYTE	W03
	BYTE		        80*seq_065_mvl/mxv
	BYTE	W03
	BYTE		        77*seq_065_mvl/mxv
	BYTE	W03
	BYTE		        75*seq_065_mvl/mxv
	BYTE	W03
	BYTE		        70*seq_065_mvl/mxv
	BYTE	W03
	BYTE		N23     An2   v016
	BYTE	W12
	BYTE	W12
	BYTE		N72     Gn2   v020
	BYTE	W21
	BYTE		VOL     70*seq_065_mvl/mxv
	BYTE	W06
	BYTE		        69*seq_065_mvl/mxv
	BYTE	W03
	BYTE		        67*seq_065_mvl/mxv
	BYTE	W03
	BYTE		        65*seq_065_mvl/mxv
	BYTE	W03
	BYTE		        62*seq_065_mvl/mxv
	BYTE	W03
	BYTE		        59*seq_065_mvl/mxv
	BYTE	W03
	BYTE		        55*seq_065_mvl/mxv
	BYTE	W03
	BYTE		        50*seq_065_mvl/mxv
	BYTE	W03
	BYTE		        45*seq_065_mvl/mxv
	BYTE	W03
	BYTE		        39*seq_065_mvl/mxv
	BYTE	W03
	BYTE		        33*seq_065_mvl/mxv
	BYTE	W03
	BYTE		        26*seq_065_mvl/mxv
	BYTE	W03
	BYTE		        18*seq_065_mvl/mxv
	BYTE	W03
	BYTE		        9*seq_065_mvl/mxv
	BYTE	W03
	BYTE		        2*seq_065_mvl/mxv
	BYTE	W06
	BYTE		        70*seq_065_mvl/mxv
	BYTE		N12     Fs2 
	BYTE	W12
	BYTE	PEND
	BYTE		N12     Gn2   v020
	BYTE	W12
	BYTE		N48     Cn3 
	BYTE	W48
	BYTE		        As2 
	BYTE	W36
	BYTE	PEND
	BYTE	W12
	BYTE		N96     An2   v012
	BYTE	W03
	BYTE		VOL     70*seq_065_mvl/mxv
	BYTE	W03
	BYTE		        70*seq_065_mvl/mxv
	BYTE	W06
	BYTE		        71*seq_065_mvl/mxv
	BYTE	W03
	BYTE		        72*seq_065_mvl/mxv
	BYTE	W03
	BYTE		        72*seq_065_mvl/mxv
	BYTE	W03
	BYTE		        74*seq_065_mvl/mxv
	BYTE	W03
	BYTE		        75*seq_065_mvl/mxv
	BYTE	W03
	BYTE		        77*seq_065_mvl/mxv
	BYTE	W03
	BYTE		        78*seq_065_mvl/mxv
	BYTE	W03
	BYTE		        80*seq_065_mvl/mxv
	BYTE	W03
	BYTE		        83*seq_065_mvl/mxv
	BYTE	W03
	BYTE		        85*seq_065_mvl/mxv
	BYTE	W03
	BYTE		        87*seq_065_mvl/mxv
	BYTE	W03
	BYTE		        86*seq_065_mvl/mxv
	BYTE	W06
	BYTE		        85*seq_065_mvl/mxv
	BYTE	W03
	BYTE		        84*seq_065_mvl/mxv
	BYTE	W03
	BYTE		        81*seq_065_mvl/mxv
	BYTE	W03
	BYTE		        78*seq_065_mvl/mxv
	BYTE	W03
	BYTE		        75*seq_065_mvl/mxv
	BYTE	W03
	BYTE		        70*seq_065_mvl/mxv
	BYTE	W03
	BYTE		        65*seq_065_mvl/mxv
	BYTE	W03
	BYTE		        60*seq_065_mvl/mxv
	BYTE	W03
	BYTE		        53*seq_065_mvl/mxv
	BYTE	W03
	BYTE		        46*seq_065_mvl/mxv
	BYTE	W03
	BYTE		        41*seq_065_mvl/mxv
	BYTE	W01
	BYTE		        37*seq_065_mvl/mxv
	BYTE	W02
	BYTE		        33*seq_065_mvl/mxv
	BYTE	W01
	BYTE		        29*seq_065_mvl/mxv
	BYTE	W02
	BYTE		        24*seq_065_mvl/mxv
	BYTE	W01
	BYTE		        19*seq_065_mvl/mxv
	BYTE	W02
	BYTE		        13*seq_065_mvl/mxv
	BYTE	W01
	BYTE		        8*seq_065_mvl/mxv
	BYTE	W02
	BYTE		        4*seq_065_mvl/mxv
	BYTE	W01
	BYTE		        0*seq_065_mvl/mxv
	BYTE	W02
	BYTE	W44
	BYTE	W02
	BYTE		        70*seq_065_mvl/mxv
	BYTE	W36
	BYTE	W02
	BYTE	W96
	BYTE	W96
	BYTE	W96
	BYTE	W96
	BYTE	W96
	BYTE	W96
	BYTE	W96
	BYTE	W96
	BYTE	W96
	BYTE	W96
	BYTE	W96
	BYTE	W96
	BYTE	W96
	BYTE	W96
	BYTE	W96
	BYTE	W96
	BYTE	W96
	BYTE	W96
	BYTE	W96
	BYTE	W96
	BYTE	W96
	BYTE	W96
	BYTE	W96
	BYTE	W96
	BYTE	W96
	BYTE	W96
	BYTE	W96
	BYTE	W96
	BYTE	W96
	BYTE	W96
	BYTE	W56
	BYTE	W03
	BYTE	W01
	BYTE		N23     Cn3   v016
	BYTE	W24
	BYTE		        Dn3 
	BYTE	W12
	BYTE	PATT
	 POIN2	seq_065_7 + 0x35
	BYTE	PATT
	 POIN2	seq_065_7 + 0x4D
	BYTE	PATT
	 POIN2	seq_065_7 + 0x70
	BYTE	PATT
	 POIN2	seq_065_7 + 0x8C
	BYTE	PATT
	 POIN2	seq_065_7 + 0xC5
	BYTE		EOT     An2 
	BYTE	W02
	BYTE		VOL     70*seq_065_mvl/mxv
	BYTE		N72     As2   v020
	BYTE	W09
	BYTE		VOL     72*seq_065_mvl/mxv
	BYTE	W12
	BYTE		        73*seq_065_mvl/mxv
	BYTE	W06
	BYTE		        74*seq_065_mvl/mxv
	BYTE	W03
	BYTE		        75*seq_065_mvl/mxv
	BYTE	W03
	BYTE		        76*seq_065_mvl/mxv
	BYTE	W03
	BYTE		        77*seq_065_mvl/mxv
	BYTE	W03
	BYTE		        77*seq_065_mvl/mxv
	BYTE	W03
	BYTE		        78*seq_065_mvl/mxv
	BYTE	W03
	BYTE		        80*seq_065_mvl/mxv
	BYTE	W03
	BYTE		        81*seq_065_mvl/mxv
	BYTE	W03
	BYTE		        82*seq_065_mvl/mxv
	BYTE	W03
	BYTE		        83*seq_065_mvl/mxv
	BYTE	W03
	BYTE		        82*seq_065_mvl/mxv
	BYTE	W03
	BYTE		        80*seq_065_mvl/mxv
	BYTE	W03
	BYTE		        77*seq_065_mvl/mxv
	BYTE	W03
	BYTE		        75*seq_065_mvl/mxv
	BYTE	W03
	BYTE		        70*seq_065_mvl/mxv
	BYTE	W03
	BYTE		N23     An2   v016
	BYTE	W12
	BYTE	PATT
	 POIN2	seq_065_7 + 0xFD
	BYTE	PATT
	 POIN2	seq_065_7 + 0x126
	BYTE	W12
	BYTE		N68     An2   v016
	BYTE	W06
	BYTE		VOL     72*seq_065_mvl/mxv
	BYTE	W06
	BYTE		        72*seq_065_mvl/mxv
	BYTE	W06
	BYTE		        74*seq_065_mvl/mxv
	BYTE	W03
	BYTE		        75*seq_065_mvl/mxv
	BYTE	W03
	BYTE		        77*seq_065_mvl/mxv
	BYTE	W03
	BYTE		        78*seq_065_mvl/mxv
	BYTE	W03
	BYTE		        80*seq_065_mvl/mxv
	BYTE	W09
	BYTE		        79*seq_065_mvl/mxv
	BYTE	W03
	BYTE		        77*seq_065_mvl/mxv
	BYTE	W03
	BYTE		        75*seq_065_mvl/mxv
	BYTE	W03
	BYTE		        72*seq_065_mvl/mxv
	BYTE	W03
	BYTE		        68*seq_065_mvl/mxv
	BYTE	W03
	BYTE		        63*seq_065_mvl/mxv
	BYTE	W03
	BYTE		        58*seq_065_mvl/mxv
	BYTE	W03
	BYTE		        51*seq_065_mvl/mxv
	BYTE	W03
	BYTE		        43*seq_065_mvl/mxv
	BYTE	W03
	BYTE		        34*seq_065_mvl/mxv
	BYTE	W03
	BYTE		        25*seq_065_mvl/mxv
	BYTE	W03
	BYTE		        70*seq_065_mvl/mxv
	BYTE		N24     Fn2 
	BYTE	W12
	BYTE	W12
	BYTE		N12     Gn2   v012
	BYTE	W12
	BYTE		        Gs2   v008
	BYTE	W12
	BYTE		        Gn2   v012
	BYTE	W12
	BYTE		        Gs2 
	BYTE	W12
	BYTE		        Gn2   v016
	BYTE	W12
	BYTE		        Gs2   v012
	BYTE	W12
	BYTE		        Gn2   v016
	BYTE	W12
	BYTE		N12     Gs2   v016
	BYTE	W12
	BYTE		        Gn2 
	BYTE	W12
	BYTE		        Gs2 
	BYTE	W12
	BYTE		        Gn2   v020
	BYTE	W12
	BYTE		        Gs2 
	BYTE	W12
	BYTE		        Gn2 
	BYTE	W12
	BYTE		        Gs2 
	BYTE	W12
	BYTE		        Gn2 
	BYTE	W12
	BYTE	PEND
	BYTE		        Gs2 
	BYTE	W12
	BYTE		        Gn2 
	BYTE	W12
	BYTE		        Gs2 
	BYTE	W12
	BYTE		        Gn2 
	BYTE	W12
	BYTE		        Gs2 
	BYTE	W12
	BYTE		        Gn2 
	BYTE	W12
	BYTE		        Gs2   v016
	BYTE	W12
	BYTE		        Gn2   v020
	BYTE	W12
	BYTE		        Gs2   v016
	BYTE	W12
	BYTE		        Gn2 
	BYTE	W12
	BYTE		        Gs2 
	BYTE	W12
	BYTE		        Gn2 
	BYTE	W12
	BYTE		        Gs2   v012
	BYTE	W12
	BYTE		        Gn2   v016
	BYTE	W12
	BYTE		        Gs2   v012
	BYTE	W12
	BYTE		        Gn2 
	BYTE	W12
	BYTE		        Gs2   v008
	BYTE	W12
	BYTE		        Gn2   v012
	BYTE	W12
	BYTE		        Gs2   v008
	BYTE	W12
	BYTE		        Gn2   v012
	BYTE	W12
	BYTE		        Gs2 
	BYTE	W12
	BYTE		        Gn2   v016
	BYTE	W12
	BYTE		        Gs2   v012
	BYTE	W12
	BYTE		        Gn2   v016
	BYTE	W12
	BYTE	PATT
	 POIN2	seq_065_7 + 0x23D
	BYTE		N12     Gs2   v020
	BYTE	W12
	BYTE		        Gn2 
	BYTE	W12
	BYTE		        Gs2 
	BYTE	W12
	BYTE		        Gn2 
	BYTE	W12
	BYTE		        Gs2   v016
	BYTE	W12
	BYTE		        Gn2 
	BYTE	W12
	BYTE		        Gs2 
	BYTE	W12
	BYTE		        Gn2 
	BYTE	W12
	BYTE		        Gs2 
	BYTE	W12
	BYTE		N80     Gn2 
	BYTE	W03
	BYTE		VOL     70*seq_065_mvl/mxv
	BYTE	W03
	BYTE		        71*seq_065_mvl/mxv
	BYTE	W06
	BYTE		        72*seq_065_mvl/mxv
	BYTE	W03
	BYTE		        72*seq_065_mvl/mxv
	BYTE	W06
	BYTE		        74*seq_065_mvl/mxv
	BYTE	W03
	BYTE		        75*seq_065_mvl/mxv
	BYTE	W03
	BYTE		        76*seq_065_mvl/mxv
	BYTE	W03
	BYTE		        77*seq_065_mvl/mxv
	BYTE	W03
	BYTE		        78*seq_065_mvl/mxv
	BYTE	W03
	BYTE		        77*seq_065_mvl/mxv
	BYTE	W03
	BYTE		        77*seq_065_mvl/mxv
	BYTE	W03
	BYTE		        75*seq_065_mvl/mxv
	BYTE	W03
	BYTE		        72*seq_065_mvl/mxv
	BYTE	W03
	BYTE		        70*seq_065_mvl/mxv
	BYTE	W03
	BYTE		        65*seq_065_mvl/mxv
	BYTE	W03
	BYTE		        61*seq_065_mvl/mxv
	BYTE	W03
	BYTE		        56*seq_065_mvl/mxv
	BYTE	W03
	BYTE		        50*seq_065_mvl/mxv
	BYTE	W03
	BYTE		        43*seq_065_mvl/mxv
	BYTE	W03
	BYTE		        36*seq_065_mvl/mxv
	BYTE	W03
	BYTE		        28*seq_065_mvl/mxv
	BYTE	W03
	BYTE		        19*seq_065_mvl/mxv
	BYTE	W03
	BYTE		        10*seq_065_mvl/mxv
	BYTE	W03
	BYTE		        1*seq_065_mvl/mxv
	BYTE	W04
	BYTE		VOICE   4
	BYTE	W01
	BYTE		VOL     70*seq_065_mvl/mxv
	BYTE		PAN     c_v-54
	BYTE		BENDR   12
	BYTE	W01
	BYTE		VOL     46*seq_065_mvl/mxv
	BYTE	W01
	BYTE		TIE     Cn2   v056
	BYTE	W01
	BYTE		VOL     51*seq_065_mvl/mxv
	BYTE	W01
	BYTE		        54*seq_065_mvl/mxv
	BYTE	W01
	BYTE		        60*seq_065_mvl/mxv
	BYTE	W01
	BYTE		        65*seq_065_mvl/mxv
	BYTE	W01
	BYTE		        70*seq_065_mvl/mxv
	BYTE	W90
	BYTE	W90
	BYTE	W01
	BYTE		VOL     68*seq_065_mvl/mxv
	BYTE	W05
	BYTE	PEND
	BYTE	W19
	BYTE		VOL     66*seq_065_mvl/mxv
	BYTE	W18
	BYTE		        64*seq_065_mvl/mxv
	BYTE	W12
	BYTE		        62*seq_065_mvl/mxv
	BYTE	W12
	BYTE		        60*seq_065_mvl/mxv
	BYTE	W12
	BYTE		        56*seq_065_mvl/mxv
	BYTE	W12
	BYTE		        53*seq_065_mvl/mxv
	BYTE	W11
	BYTE	PEND
	BYTE	W01
	BYTE		VOL     48*seq_065_mvl/mxv
	BYTE	W12
	BYTE		        43*seq_065_mvl/mxv
	BYTE	W12
	BYTE		        38*seq_065_mvl/mxv
	BYTE	W12
	BYTE		        33*seq_065_mvl/mxv
	BYTE	W12
	BYTE		        26*seq_065_mvl/mxv
	BYTE	W12
	BYTE		        19*seq_065_mvl/mxv
	BYTE	W12
	BYTE		        12*seq_065_mvl/mxv
	BYTE	W12
	BYTE		        4*seq_065_mvl/mxv
	BYTE	W11
	BYTE	PEND
	BYTE		EOT     Cn2 
	BYTE		VOL     70*seq_065_mvl/mxv
	BYTE	W01
	BYTE		TIE     Cn2   v056
	BYTE	W92
	BYTE	W03
	BYTE	PEND
	BYTE	PATT
	 POIN2	seq_065_7 + 0x2F8
	BYTE	PATT
	 POIN2	seq_065_7 + 0x2FE
	BYTE	PATT
	 POIN2	seq_065_7 + 0x30D
	BYTE		EOT     Cn2 
	BYTE	PATT
	 POIN2	seq_065_7 + 0x322
	BYTE	PATT
	 POIN2	seq_065_7 + 0x2F8
	BYTE	PATT
	 POIN2	seq_065_7 + 0x2FE
	BYTE	PATT
	 POIN2	seq_065_7 + 0x30D
	BYTE		EOT     Cn2 
	BYTE	PATT
	 POIN2	seq_065_7 + 0x322
	BYTE	W96
	BYTE		VOL     69*seq_065_mvl/mxv
	BYTE	W24
	BYTE		        68*seq_065_mvl/mxv
	BYTE	W24
	BYTE		        67*seq_065_mvl/mxv
	BYTE	W12
	BYTE		        65*seq_065_mvl/mxv
	BYTE	W12
	BYTE		        64*seq_065_mvl/mxv
	BYTE	W12
	BYTE		        63*seq_065_mvl/mxv
	BYTE	W12
	BYTE		        60*seq_065_mvl/mxv
	BYTE	W12
	BYTE		        58*seq_065_mvl/mxv
	BYTE	W12
	BYTE		        56*seq_065_mvl/mxv
	BYTE	W12
	BYTE		        53*seq_065_mvl/mxv
	BYTE	W12
	BYTE		        50*seq_065_mvl/mxv
	BYTE	W12
	BYTE		        47*seq_065_mvl/mxv
	BYTE	W12
	BYTE		        43*seq_065_mvl/mxv
	BYTE	W12
	BYTE		        39*seq_065_mvl/mxv
	BYTE	W12
	BYTE		        36*seq_065_mvl/mxv
	BYTE	W12
	BYTE		        31*seq_065_mvl/mxv
	BYTE	W12
	BYTE		        27*seq_065_mvl/mxv
	BYTE	W12
	BYTE		        21*seq_065_mvl/mxv
	BYTE	W12
	BYTE		        17*seq_065_mvl/mxv
	BYTE	W12
	BYTE		        12*seq_065_mvl/mxv
	BYTE	W12
	BYTE		        6*seq_065_mvl/mxv
	BYTE	W12
	BYTE		        0*seq_065_mvl/mxv
	BYTE	W12
	BYTE		EOT     Cn2 
	BYTE	W96
	BYTE	W96
	BYTE	W96
	BYTE	W96
	BYTE	W96
	BYTE	W96
	BYTE	W96
	BYTE	W96
	BYTE	W96
	BYTE	W96
	BYTE	W96
	BYTE	W96
	BYTE	W96
	BYTE	W96
	BYTE	W96
	BYTE	W96
	BYTE	W96
	BYTE	W96
	BYTE	W96
	BYTE	W96
	BYTE	W96
	BYTE	W96
	BYTE	W96
	BYTE	W96
	BYTE	W96
	BYTE	W96
	BYTE	W96
	BYTE	W96
	BYTE	W96
	BYTE	W96
	BYTE	W96
	BYTE	W96
	BYTE		VOL     70*seq_065_mvl/mxv
	BYTE	W01
	BYTE		TIE     Cn2   v056
	BYTE	W36
	BYTE		VOL     70*seq_065_mvl/mxv
	BYTE	W12
	BYTE		        69*seq_065_mvl/mxv
	BYTE	W12
	BYTE		        68*seq_065_mvl/mxv
	BYTE	W12
	BYTE		        65*seq_065_mvl/mxv
	BYTE	W12
	BYTE		        63*seq_065_mvl/mxv
	BYTE	W11
	BYTE	W01
	BYTE		        59*seq_065_mvl/mxv
	BYTE	W12
	BYTE		        54*seq_065_mvl/mxv
	BYTE	W12
	BYTE		        48*seq_065_mvl/mxv
	BYTE	W12
	BYTE		        42*seq_065_mvl/mxv
	BYTE	W12
	BYTE		        34*seq_065_mvl/mxv
	BYTE	W12
	BYTE		        31*seq_065_mvl/mxv
	BYTE	W11
	BYTE		        26*seq_065_mvl/mxv
	BYTE	W11
	BYTE		        21*seq_065_mvl/mxv
	BYTE	W13
	BYTE	W01
	BYTE		EOT
	BYTE	W30
	BYTE		VOL     70*seq_065_mvl/mxv
	BYTE	W64
	BYTE	W01
	BYTE	W66
	BYTE	W01
	BYTE		BEND    c_v-27
	BYTE	W06
	BYTE		TIE     Cn2   v064
	BYTE	W15
	BYTE		BEND    c_v-24
	BYTE	W01
	BYTE		        c_v-21
	BYTE	W02
	BYTE		        c_v-19
	BYTE	W01
	BYTE		        c_v-14
	BYTE	W02
	BYTE		        c_v-9
	BYTE	W01
	BYTE		        c_v-4
	BYTE	W01
	BYTE	W01
	BYTE		BEND    c_v+0
	BYTE	W36
	BYTE		VOL     70*seq_065_mvl/mxv
	BYTE	W12
	BYTE		        69*seq_065_mvl/mxv
	BYTE	W12
	BYTE		        68*seq_065_mvl/mxv
	BYTE	W12
	BYTE		        65*seq_065_mvl/mxv
	BYTE	W12
	BYTE		        63*seq_065_mvl/mxv
	BYTE	W11
	BYTE	PEND
	BYTE	W01
	BYTE		VOL     59*seq_065_mvl/mxv
	BYTE	W12
	BYTE		        54*seq_065_mvl/mxv
	BYTE	W12
	BYTE		        48*seq_065_mvl/mxv
	BYTE	W12
	BYTE		        42*seq_065_mvl/mxv
	BYTE	W12
	BYTE		        34*seq_065_mvl/mxv
	BYTE	W12
	BYTE		        26*seq_065_mvl/mxv
	BYTE	W09
	BYTE		        21*seq_065_mvl/mxv
	BYTE	W24
	BYTE	W02
	BYTE	PEND
	BYTE	W01
	BYTE		EOT     Cn2 
	BYTE	W30
	BYTE		VOL     70*seq_065_mvl/mxv
	BYTE	W64
	BYTE	W01
	BYTE	W72
	BYTE	W01
	BYTE		N05     Gn1   v064
	BYTE	W08
	BYTE		N04     Gn1   v060
	BYTE	W08
	BYTE		        Gn1   v052
	BYTE	W07
	BYTE	W01
	BYTE		TIE     Cn2   v056
	BYTE	W36
	BYTE		VOL     70*seq_065_mvl/mxv
	BYTE	W12
	BYTE		        69*seq_065_mvl/mxv
	BYTE	W12
	BYTE		        68*seq_065_mvl/mxv
	BYTE	W12
	BYTE		        65*seq_065_mvl/mxv
	BYTE	W12
	BYTE		        63*seq_065_mvl/mxv
	BYTE	W11
	BYTE	PATT
	 POIN2	seq_065_7 + 0x3F7
	BYTE	W01
	BYTE		EOT     Cn2 
	BYTE	W30
	BYTE		VOL     70*seq_065_mvl/mxv
	BYTE	W64
	BYTE	W01
	BYTE	W68
	BYTE	W02
	BYTE		BEND    c_v-27
	BYTE	W03
	BYTE		TIE     Cn2   v056
	BYTE	W15
	BYTE		BEND    c_v-24
	BYTE	W01
	BYTE		        c_v-21
	BYTE	W02
	BYTE		        c_v-19
	BYTE	W01
	BYTE		        c_v-14
	BYTE	W02
	BYTE		        c_v-9
	BYTE	W01
	BYTE		        c_v-4
	BYTE	W01
	BYTE	PATT
	 POIN2	seq_065_7 + 0x3E7
	BYTE	PATT
	 POIN2	seq_065_7 + 0x3F7
	BYTE	W01
	BYTE		EOT     Cn2 
	BYTE	W30
	BYTE		VOL     70*seq_065_mvl/mxv
	BYTE	W64
	BYTE	W01
	BYTE	W48
	BYTE	W01
	BYTE		N24     Cn2   v056
	BYTE	W24
	BYTE		        As1   v060
	BYTE	W23
	BYTE	W01
	BYTE		N80     Gs1   v076
	BYTE	W44
	BYTE	W01
	BYTE		VOL     68*seq_065_mvl/mxv
	BYTE	W06
	BYTE		        68*seq_065_mvl/mxv
	BYTE	W03
	BYTE		        67*seq_065_mvl/mxv
	BYTE	W03
	BYTE		        65*seq_065_mvl/mxv
	BYTE	W03
	BYTE		        64*seq_065_mvl/mxv
	BYTE	W03
	BYTE		        63*seq_065_mvl/mxv
	BYTE	W03
	BYTE		        60*seq_065_mvl/mxv
	BYTE	W03
	BYTE		        58*seq_065_mvl/mxv
	BYTE	W03
	BYTE		        55*seq_065_mvl/mxv
	BYTE	W03
	BYTE		        52*seq_065_mvl/mxv
	BYTE	W03
	BYTE		        48*seq_065_mvl/mxv
	BYTE	W03
	BYTE		        45*seq_065_mvl/mxv
	BYTE	W03
	BYTE		        70*seq_065_mvl/mxv
	BYTE		N12     Gs1   v060
	BYTE	W11
	BYTE	W01
	BYTE		N96     As1   v068
	BYTE	W36
	BYTE		VOL     70*seq_065_mvl/mxv
	BYTE	W06
	BYTE		        69*seq_065_mvl/mxv
	BYTE	W06
	BYTE		        68*seq_065_mvl/mxv
	BYTE	W03
	BYTE		        68*seq_065_mvl/mxv
	BYTE	W03
	BYTE		        67*seq_065_mvl/mxv
	BYTE	W03
	BYTE		        65*seq_065_mvl/mxv
	BYTE	W03
	BYTE		        64*seq_065_mvl/mxv
	BYTE	W03
	BYTE		        63*seq_065_mvl/mxv
	BYTE	W03
	BYTE		        61*seq_065_mvl/mxv
	BYTE	W03
	BYTE		        59*seq_065_mvl/mxv
	BYTE	W03
	BYTE		        58*seq_065_mvl/mxv
	BYTE	W03
	BYTE		        55*seq_065_mvl/mxv
	BYTE	W03
	BYTE		        53*seq_065_mvl/mxv
	BYTE	W03
	BYTE		        51*seq_065_mvl/mxv
	BYTE	W03
	BYTE		        48*seq_065_mvl/mxv
	BYTE	W03
	BYTE		        45*seq_065_mvl/mxv
	BYTE	W03
	BYTE		        42*seq_065_mvl/mxv
	BYTE	W03
	BYTE		        38*seq_065_mvl/mxv
	BYTE	W02
	BYTE	PEND
	BYTE	W01
	BYTE		VOL     70*seq_065_mvl/mxv
	BYTE		N80     Gs1   v076
	BYTE	W44
	BYTE	W01
	BYTE		VOL     68*seq_065_mvl/mxv
	BYTE	W06
	BYTE		        68*seq_065_mvl/mxv
	BYTE	W03
	BYTE		        67*seq_065_mvl/mxv
	BYTE	W03
	BYTE		        65*seq_065_mvl/mxv
	BYTE	W03
	BYTE		        64*seq_065_mvl/mxv
	BYTE	W03
	BYTE		        63*seq_065_mvl/mxv
	BYTE	W03
	BYTE		        60*seq_065_mvl/mxv
	BYTE	W03
	BYTE		        58*seq_065_mvl/mxv
	BYTE	W03
	BYTE		        55*seq_065_mvl/mxv
	BYTE	W03
	BYTE		        52*seq_065_mvl/mxv
	BYTE	W03
	BYTE		        48*seq_065_mvl/mxv
	BYTE	W03
	BYTE		        45*seq_065_mvl/mxv
	BYTE	W03
	BYTE		        70*seq_065_mvl/mxv
	BYTE		N12     Gs1   v064
	BYTE	W11
	BYTE	PEND
	BYTE	W01
	BYTE		N96     Gn1   v052
	BYTE	W36
	BYTE		VOL     70*seq_065_mvl/mxv
	BYTE	W06
	BYTE		        69*seq_065_mvl/mxv
	BYTE	W06
	BYTE		        68*seq_065_mvl/mxv
	BYTE	W03
	BYTE		        68*seq_065_mvl/mxv
	BYTE	W03
	BYTE		        67*seq_065_mvl/mxv
	BYTE	W03
	BYTE		        65*seq_065_mvl/mxv
	BYTE	W03
	BYTE		        64*seq_065_mvl/mxv
	BYTE	W03
	BYTE		        63*seq_065_mvl/mxv
	BYTE	W03
	BYTE		        61*seq_065_mvl/mxv
	BYTE	W03
	BYTE		        59*seq_065_mvl/mxv
	BYTE	W03
	BYTE		        58*seq_065_mvl/mxv
	BYTE	W03
	BYTE		        55*seq_065_mvl/mxv
	BYTE	W03
	BYTE		        53*seq_065_mvl/mxv
	BYTE	W03
	BYTE		        51*seq_065_mvl/mxv
	BYTE	W03
	BYTE		        48*seq_065_mvl/mxv
	BYTE	W03
	BYTE		        45*seq_065_mvl/mxv
	BYTE	W03
	BYTE		        42*seq_065_mvl/mxv
	BYTE	W03
	BYTE		        38*seq_065_mvl/mxv
	BYTE	W02
	BYTE	PEND
	BYTE	W01
	BYTE		        70*seq_065_mvl/mxv
	BYTE		N80     Gs1   v076
	BYTE	W44
	BYTE	W01
	BYTE		VOL     68*seq_065_mvl/mxv
	BYTE	W06
	BYTE		        68*seq_065_mvl/mxv
	BYTE	W03
	BYTE		        67*seq_065_mvl/mxv
	BYTE	W03
	BYTE		        65*seq_065_mvl/mxv
	BYTE	W03
	BYTE		        64*seq_065_mvl/mxv
	BYTE	W03
	BYTE		        63*seq_065_mvl/mxv
	BYTE	W03
	BYTE		        60*seq_065_mvl/mxv
	BYTE	W03
	BYTE		        58*seq_065_mvl/mxv
	BYTE	W03
	BYTE		        55*seq_065_mvl/mxv
	BYTE	W03
	BYTE		        52*seq_065_mvl/mxv
	BYTE	W03
	BYTE		        48*seq_065_mvl/mxv
	BYTE	W03
	BYTE		        45*seq_065_mvl/mxv
	BYTE	W03
	BYTE		        70*seq_065_mvl/mxv
	BYTE		N12     Gs1   v060
	BYTE	W11
	BYTE	PATT
	 POIN2	seq_065_7 + 0x490
	BYTE	PATT
	 POIN2	seq_065_7 + 0x4BB
	BYTE	PATT
	 POIN2	seq_065_7 + 0x4E2
	BYTE	W01
	BYTE		VOL     70*seq_065_mvl/mxv
	BYTE		N72     Cn2   v052
	BYTE	W42
	BYTE		VOL     69*seq_065_mvl/mxv
	BYTE	W06
	BYTE		        68*seq_065_mvl/mxv
	BYTE	W03
	BYTE		        68*seq_065_mvl/mxv
	BYTE	W03
	BYTE		        67*seq_065_mvl/mxv
	BYTE	W03
	BYTE		        66*seq_065_mvl/mxv
	BYTE	W03
	BYTE		        65*seq_065_mvl/mxv
	BYTE	W03
	BYTE		        63*seq_065_mvl/mxv
	BYTE	W03
	BYTE		        61*seq_065_mvl/mxv
	BYTE	W03
	BYTE		        59*seq_065_mvl/mxv
	BYTE	W03
	BYTE		        70*seq_065_mvl/mxv
	BYTE		BEND    c_v-27
	BYTE		N96     Cn3   v040
	BYTE	W15
	BYTE		BEND    c_v-24
	BYTE	W01
	BYTE		        c_v-21
	BYTE	W02
	BYTE		        c_v-19
	BYTE	W01
	BYTE		        c_v-14
	BYTE	W02
	BYTE		        c_v-9
	BYTE	W01
	BYTE		        c_v-4
	BYTE	W01
	BYTE	W01
	BYTE		BEND    c_v+0
	BYTE	W24
	BYTE	W03
	BYTE		VOL     69*seq_065_mvl/mxv
	BYTE	W09
	BYTE		        68*seq_065_mvl/mxv
	BYTE	W03
	BYTE		        67*seq_065_mvl/mxv
	BYTE	W03
	BYTE		        65*seq_065_mvl/mxv
	BYTE	W03
	BYTE		        64*seq_065_mvl/mxv
	BYTE	W03
	BYTE		        62*seq_065_mvl/mxv
	BYTE	W03
	BYTE		        60*seq_065_mvl/mxv
	BYTE	W03
	BYTE		        58*seq_065_mvl/mxv
	BYTE	W03
	BYTE		        55*seq_065_mvl/mxv
	BYTE	W03
	BYTE		        52*seq_065_mvl/mxv
	BYTE	W03
	BYTE		        48*seq_065_mvl/mxv
	BYTE	W03
	BYTE		        45*seq_065_mvl/mxv
	BYTE	W06
	BYTE		        70*seq_065_mvl/mxv
	BYTE		N24     Gn2   v056
	BYTE	W23
	BYTE	PEND
	BYTE	W01
	BYTE		N72     Gs1   v068
	BYTE	W42
	BYTE		VOL     69*seq_065_mvl/mxv
	BYTE	W06
	BYTE		        68*seq_065_mvl/mxv
	BYTE	W03
	BYTE		        68*seq_065_mvl/mxv
	BYTE	W03
	BYTE		        67*seq_065_mvl/mxv
	BYTE	W03
	BYTE		        66*seq_065_mvl/mxv
	BYTE	W03
	BYTE		        65*seq_065_mvl/mxv
	BYTE	W03
	BYTE		        63*seq_065_mvl/mxv
	BYTE	W03
	BYTE		        61*seq_065_mvl/mxv
	BYTE	W03
	BYTE		        59*seq_065_mvl/mxv
	BYTE	W03
	BYTE		        70*seq_065_mvl/mxv
	BYTE		BEND    c_v-27
	BYTE		TIE     Gs2   v048
	BYTE	W15
	BYTE		BEND    c_v-24
	BYTE	W01
	BYTE		        c_v-21
	BYTE	W02
	BYTE		        c_v-19
	BYTE	W01
	BYTE		        c_v-14
	BYTE	W02
	BYTE		        c_v-9
	BYTE	W01
	BYTE		        c_v-4
	BYTE	W01
	BYTE	PEND
	BYTE	W01
	BYTE		BEND    c_v+0
	BYTE	W24
	BYTE	W03
	BYTE		VOL     70*seq_065_mvl/mxv
	BYTE	W09
	BYTE		        69*seq_065_mvl/mxv
	BYTE	W06
	BYTE		        68*seq_065_mvl/mxv
	BYTE	W03
	BYTE		        67*seq_065_mvl/mxv
	BYTE	W03
	BYTE		        66*seq_065_mvl/mxv
	BYTE	W03
	BYTE		        65*seq_065_mvl/mxv
	BYTE	W03
	BYTE		        64*seq_065_mvl/mxv
	BYTE	W03
	BYTE		        62*seq_065_mvl/mxv
	BYTE	W03
	BYTE		        60*seq_065_mvl/mxv
	BYTE	W03
	BYTE		        59*seq_065_mvl/mxv
	BYTE	W03
	BYTE		        58*seq_065_mvl/mxv
	BYTE	W03
	BYTE		        55*seq_065_mvl/mxv
	BYTE	W03
	BYTE		        53*seq_065_mvl/mxv
	BYTE	W03
	BYTE		        51*seq_065_mvl/mxv
	BYTE	W03
	BYTE		        48*seq_065_mvl/mxv
	BYTE	W03
	BYTE		        46*seq_065_mvl/mxv
	BYTE	W03
	BYTE		        43*seq_065_mvl/mxv
	BYTE	W03
	BYTE		        40*seq_065_mvl/mxv
	BYTE	W03
	BYTE		        37*seq_065_mvl/mxv
	BYTE	W03
	BYTE		        34*seq_065_mvl/mxv
	BYTE	W02
	BYTE	PEND
	BYTE	W01
	BYTE		EOT     Gs2 
	BYTE		VOL     70*seq_065_mvl/mxv
	BYTE		N72     Cn2   v052
	BYTE	W42
	BYTE		VOL     69*seq_065_mvl/mxv
	BYTE	W06
	BYTE		        68*seq_065_mvl/mxv
	BYTE	W03
	BYTE		        68*seq_065_mvl/mxv
	BYTE	W03
	BYTE		        67*seq_065_mvl/mxv
	BYTE	W03
	BYTE		        66*seq_065_mvl/mxv
	BYTE	W03
	BYTE		        65*seq_065_mvl/mxv
	BYTE	W03
	BYTE		        63*seq_065_mvl/mxv
	BYTE	W03
	BYTE		        61*seq_065_mvl/mxv
	BYTE	W03
	BYTE		        59*seq_065_mvl/mxv
	BYTE	W03
	BYTE		        70*seq_065_mvl/mxv
	BYTE		BEND    c_v-27
	BYTE		N96     Cn3   v040
	BYTE	W15
	BYTE		BEND    c_v-24
	BYTE	W01
	BYTE		        c_v-21
	BYTE	W02
	BYTE		        c_v-19
	BYTE	W01
	BYTE		        c_v-14
	BYTE	W02
	BYTE		        c_v-9
	BYTE	W01
	BYTE		        c_v-4
	BYTE	W01
	BYTE	PATT
	 POIN2	seq_065_7 + 0x56F
	BYTE	PATT
	 POIN2	seq_065_7 + 0x593
	BYTE	PATT
	 POIN2	seq_065_7 + 0x5C0
	BYTE	W01
	BYTE		EOT     Gs2 
	BYTE		VOL     70*seq_065_mvl/mxv
	BYTE		N72     Cn2   v052
	BYTE	W42
	BYTE		VOL     69*seq_065_mvl/mxv
	BYTE	W06
	BYTE		        68*seq_065_mvl/mxv
	BYTE	W03
	BYTE		        68*seq_065_mvl/mxv
	BYTE	W03
	BYTE		        67*seq_065_mvl/mxv
	BYTE	W03
	BYTE		        66*seq_065_mvl/mxv
	BYTE	W03
	BYTE		        65*seq_065_mvl/mxv
	BYTE	W03
	BYTE		        63*seq_065_mvl/mxv
	BYTE	W03
	BYTE		        61*seq_065_mvl/mxv
	BYTE	W03
	BYTE		        59*seq_065_mvl/mxv
	BYTE	W03
	BYTE		        70*seq_065_mvl/mxv
	BYTE		BEND    c_v-27
	BYTE		N96     Cn3   v040
	BYTE	W15
	BYTE		BEND    c_v-24
	BYTE	W01
	BYTE		        c_v-21
	BYTE	W02
	BYTE		        c_v-19
	BYTE	W01
	BYTE		        c_v-14
	BYTE	W02
	BYTE		        c_v-9
	BYTE	W01
	BYTE		        c_v-4
	BYTE	W01
	BYTE	PATT
	 POIN2	seq_065_7 + 0x56F
	BYTE	PATT
	 POIN2	seq_065_7 + 0x593
	BYTE	W01
	BYTE		BEND    c_v+0
	BYTE	W24
	BYTE	W03
	BYTE		VOL     70*seq_065_mvl/mxv
	BYTE	W09
	BYTE		        69*seq_065_mvl/mxv
	BYTE	W06
	BYTE		        68*seq_065_mvl/mxv
	BYTE	W03
	BYTE		        67*seq_065_mvl/mxv
	BYTE	W03
	BYTE		        66*seq_065_mvl/mxv
	BYTE	W03
	BYTE		        65*seq_065_mvl/mxv
	BYTE	W03
	BYTE		        64*seq_065_mvl/mxv
	BYTE	W03
	BYTE		        62*seq_065_mvl/mxv
	BYTE	W03
	BYTE		        60*seq_065_mvl/mxv
	BYTE	W03
	BYTE		        59*seq_065_mvl/mxv
	BYTE	W03
	BYTE		        58*seq_065_mvl/mxv
	BYTE	W03
	BYTE		        55*seq_065_mvl/mxv
	BYTE	W03
	BYTE		        53*seq_065_mvl/mxv
	BYTE	W03
	BYTE		        51*seq_065_mvl/mxv
	BYTE	W03
	BYTE		        48*seq_065_mvl/mxv
	BYTE	W03
	BYTE		        46*seq_065_mvl/mxv
	BYTE	W03
	BYTE		        43*seq_065_mvl/mxv
	BYTE	W03
	BYTE		        40*seq_065_mvl/mxv
	BYTE	W03
	BYTE		        37*seq_065_mvl/mxv
	BYTE	W05
	BYTE		EOT     Gs2 
	BYTE	GoTo
	 POIN2	seq_065_7 + 0x5EF
	BYTE		VOL     70*seq_065_mvl/mxv
	BYTE	W07
	BYTE	FINE

//*********************** Track 09 ***********************//

seq_065_8:
	BYTE	KEYSH   seq_065_key+0
	BYTE	W03
	BYTE	W05
	BYTE		VOICE   62
	BYTE	W01
	BYTE		PAN     c_v-64
	BYTE		VOL     70*seq_065_mvl/mxv
	BYTE	W01
	BYTE		BENDR   12
	BYTE	W88
	BYTE	W01
	BYTE	W96
	BYTE	W96
	BYTE	W96
	BYTE	W96
	BYTE	W96
	BYTE	W96
	BYTE	W96
	BYTE	W96
	BYTE	W96
	BYTE	W96
	BYTE	W96
	BYTE	W96
	BYTE	W96
	BYTE	W96
	BYTE	W96
	BYTE	W96
	BYTE	W96
	BYTE	W96
	BYTE	W96
	BYTE	W96
	BYTE	W96
	BYTE	W96
	BYTE	W96
	BYTE	W96
	BYTE	W96
	BYTE	W96
	BYTE	W96
	BYTE	W96
	BYTE	W96
	BYTE	W96
	BYTE	W54
	BYTE	W01
	BYTE	W01
	BYTE		N23     Cn3   v020
	BYTE	W24
	BYTE		        Dn3 
	BYTE	W16
	BYTE	PEND
	BYTE	W08
	BYTE		N48     En3   v020
	BYTE	W48
	BYTE		N68     Cn3 
	BYTE	W09
	BYTE		VOL     72*seq_065_mvl/mxv
	BYTE	W06
	BYTE		        72*seq_065_mvl/mxv
	BYTE	W06
	BYTE		        74*seq_065_mvl/mxv
	BYTE	W03
	BYTE		        75*seq_065_mvl/mxv
	BYTE	W03
	BYTE		        77*seq_065_mvl/mxv
	BYTE	W03
	BYTE		        78*seq_065_mvl/mxv
	BYTE	W03
	BYTE		        80*seq_065_mvl/mxv
	BYTE	W06
	BYTE		        79*seq_065_mvl/mxv
	BYTE	W01
	BYTE	PEND
	BYTE	W02
	BYTE		VOL     78*seq_065_mvl/mxv
	BYTE	W03
	BYTE		        77*seq_065_mvl/mxv
	BYTE	W03
	BYTE		        76*seq_065_mvl/mxv
	BYTE	W03
	BYTE		        73*seq_065_mvl/mxv
	BYTE	W03
	BYTE		        70*seq_065_mvl/mxv
	BYTE	W03
	BYTE		        67*seq_065_mvl/mxv
	BYTE	W03
	BYTE		        62*seq_065_mvl/mxv
	BYTE	W03
	BYTE		        57*seq_065_mvl/mxv
	BYTE	W03
	BYTE		        51*seq_065_mvl/mxv
	BYTE	W03
	BYTE		        45*seq_065_mvl/mxv
	BYTE	W03
	BYTE		        70*seq_065_mvl/mxv
	BYTE		N23     Cn3   v024
	BYTE	W24
	BYTE		        En3 
	BYTE	W24
	BYTE		        Gn3   v020
	BYTE	W16
	BYTE	PEND
	BYTE	W08
	BYTE		N23     Fs3   v020
	BYTE	W24
	BYTE		        Dn3 
	BYTE	W24
	BYTE		VOL     71*seq_065_mvl/mxv
	BYTE		TIE     An2 
	BYTE	W09
	BYTE		VOL     72*seq_065_mvl/mxv
	BYTE	W03
	BYTE		        72*seq_065_mvl/mxv
	BYTE	W06
	BYTE		        73*seq_065_mvl/mxv
	BYTE	W03
	BYTE		        74*seq_065_mvl/mxv
	BYTE	W03
	BYTE		        75*seq_065_mvl/mxv
	BYTE	W03
	BYTE		        76*seq_065_mvl/mxv
	BYTE	W03
	BYTE		        78*seq_065_mvl/mxv
	BYTE	W10
	BYTE	PEND
	BYTE	W11
	BYTE		VOL     77*seq_065_mvl/mxv
	BYTE	W03
	BYTE		        77*seq_065_mvl/mxv
	BYTE	W03
	BYTE		        76*seq_065_mvl/mxv
	BYTE	W03
	BYTE		        75*seq_065_mvl/mxv
	BYTE	W03
	BYTE		        74*seq_065_mvl/mxv
	BYTE	W03
	BYTE		        72*seq_065_mvl/mxv
	BYTE	W03
	BYTE		        72*seq_065_mvl/mxv
	BYTE	W03
	BYTE		        70*seq_065_mvl/mxv
	BYTE	W03
	BYTE		        68*seq_065_mvl/mxv
	BYTE	W03
	BYTE		        67*seq_065_mvl/mxv
	BYTE	W03
	BYTE		        65*seq_065_mvl/mxv
	BYTE	W03
	BYTE		        63*seq_065_mvl/mxv
	BYTE	W03
	BYTE		        61*seq_065_mvl/mxv
	BYTE	W03
	BYTE		        58*seq_065_mvl/mxv
	BYTE	W03
	BYTE		        56*seq_065_mvl/mxv
	BYTE	W03
	BYTE		        53*seq_065_mvl/mxv
	BYTE	W03
	BYTE		        51*seq_065_mvl/mxv
	BYTE	W03
	BYTE		        48*seq_065_mvl/mxv
	BYTE	W03
	BYTE		        45*seq_065_mvl/mxv
	BYTE	W03
	BYTE		        42*seq_065_mvl/mxv
	BYTE	W03
	BYTE		        38*seq_065_mvl/mxv
	BYTE	W03
	BYTE		        35*seq_065_mvl/mxv
	BYTE	W03
	BYTE		        32*seq_065_mvl/mxv
	BYTE	W03
	BYTE		        28*seq_065_mvl/mxv
	BYTE	W03
	BYTE		        24*seq_065_mvl/mxv
	BYTE	W03
	BYTE		        21*seq_065_mvl/mxv
	BYTE	W03
	BYTE		        16*seq_065_mvl/mxv
	BYTE	W03
	BYTE		        12*seq_065_mvl/mxv
	BYTE	W03
	BYTE		        8*seq_065_mvl/mxv
	BYTE	W01
	BYTE	PEND
	BYTE	W02
	BYTE		        3*seq_065_mvl/mxv
	BYTE	W04
	BYTE		EOT     An2 
	BYTE	W02
	BYTE		VOL     70*seq_065_mvl/mxv
	BYTE		N72     As2   v024
	BYTE	W09
	BYTE		VOL     72*seq_065_mvl/mxv
	BYTE	W12
	BYTE		        73*seq_065_mvl/mxv
	BYTE	W06
	BYTE		        74*seq_065_mvl/mxv
	BYTE	W03
	BYTE		        75*seq_065_mvl/mxv
	BYTE	W03
	BYTE		        76*seq_065_mvl/mxv
	BYTE	W03
	BYTE		        77*seq_065_mvl/mxv
	BYTE	W03
	BYTE		        77*seq_065_mvl/mxv
	BYTE	W03
	BYTE		        78*seq_065_mvl/mxv
	BYTE	W03
	BYTE		        80*seq_065_mvl/mxv
	BYTE	W03
	BYTE		        81*seq_065_mvl/mxv
	BYTE	W03
	BYTE		        82*seq_065_mvl/mxv
	BYTE	W03
	BYTE		        83*seq_065_mvl/mxv
	BYTE	W03
	BYTE		        82*seq_065_mvl/mxv
	BYTE	W03
	BYTE		        80*seq_065_mvl/mxv
	BYTE	W03
	BYTE		        77*seq_065_mvl/mxv
	BYTE	W03
	BYTE		        75*seq_065_mvl/mxv
	BYTE	W03
	BYTE		        70*seq_065_mvl/mxv
	BYTE	W03
	BYTE		N23     An2   v020
	BYTE	W16
	BYTE	W08
	BYTE		N72     Gn2   v024
	BYTE	W21
	BYTE		VOL     70*seq_065_mvl/mxv
	BYTE	W06
	BYTE		        69*seq_065_mvl/mxv
	BYTE	W03
	BYTE		        67*seq_065_mvl/mxv
	BYTE	W03
	BYTE		        65*seq_065_mvl/mxv
	BYTE	W03
	BYTE		        62*seq_065_mvl/mxv
	BYTE	W03
	BYTE		        59*seq_065_mvl/mxv
	BYTE	W03
	BYTE		        55*seq_065_mvl/mxv
	BYTE	W03
	BYTE		        50*seq_065_mvl/mxv
	BYTE	W03
	BYTE		        45*seq_065_mvl/mxv
	BYTE	W03
	BYTE		        39*seq_065_mvl/mxv
	BYTE	W03
	BYTE		        33*seq_065_mvl/mxv
	BYTE	W03
	BYTE		        26*seq_065_mvl/mxv
	BYTE	W03
	BYTE		        18*seq_065_mvl/mxv
	BYTE	W03
	BYTE		        9*seq_065_mvl/mxv
	BYTE	W03
	BYTE		        2*seq_065_mvl/mxv
	BYTE	W06
	BYTE		        70*seq_065_mvl/mxv
	BYTE		N12     Fs2 
	BYTE	W12
	BYTE		        Gn2 
	BYTE	W04
	BYTE	PEND
	BYTE	W08
	BYTE		N48     Cn3   v024
	BYTE	W48
	BYTE		        As2 
	BYTE	W40
	BYTE	PEND
	BYTE	W08
	BYTE		N96     An2   v016
	BYTE	W03
	BYTE		VOL     70*seq_065_mvl/mxv
	BYTE	W03
	BYTE		        70*seq_065_mvl/mxv
	BYTE	W06
	BYTE		        71*seq_065_mvl/mxv
	BYTE	W03
	BYTE		        72*seq_065_mvl/mxv
	BYTE	W03
	BYTE		        72*seq_065_mvl/mxv
	BYTE	W03
	BYTE		        74*seq_065_mvl/mxv
	BYTE	W03
	BYTE		        75*seq_065_mvl/mxv
	BYTE	W03
	BYTE		        77*seq_065_mvl/mxv
	BYTE	W03
	BYTE		        78*seq_065_mvl/mxv
	BYTE	W03
	BYTE		        80*seq_065_mvl/mxv
	BYTE	W03
	BYTE		        83*seq_065_mvl/mxv
	BYTE	W03
	BYTE		        85*seq_065_mvl/mxv
	BYTE	W03
	BYTE		        87*seq_065_mvl/mxv
	BYTE	W03
	BYTE		        86*seq_065_mvl/mxv
	BYTE	W06
	BYTE		        85*seq_065_mvl/mxv
	BYTE	W03
	BYTE		        84*seq_065_mvl/mxv
	BYTE	W03
	BYTE		        81*seq_065_mvl/mxv
	BYTE	W03
	BYTE		        78*seq_065_mvl/mxv
	BYTE	W03
	BYTE		        75*seq_065_mvl/mxv
	BYTE	W03
	BYTE		        70*seq_065_mvl/mxv
	BYTE	W03
	BYTE		        65*seq_065_mvl/mxv
	BYTE	W03
	BYTE		        60*seq_065_mvl/mxv
	BYTE	W03
	BYTE		        53*seq_065_mvl/mxv
	BYTE	W03
	BYTE		        46*seq_065_mvl/mxv
	BYTE	W03
	BYTE		        41*seq_065_mvl/mxv
	BYTE	W01
	BYTE		        37*seq_065_mvl/mxv
	BYTE	W02
	BYTE		        33*seq_065_mvl/mxv
	BYTE	W01
	BYTE		        29*seq_065_mvl/mxv
	BYTE	W02
	BYTE		        24*seq_065_mvl/mxv
	BYTE	W01
	BYTE		        19*seq_065_mvl/mxv
	BYTE	W02
	BYTE		        13*seq_065_mvl/mxv
	BYTE	W01
	BYTE		        8*seq_065_mvl/mxv
	BYTE	W02
	BYTE		        4*seq_065_mvl/mxv
	BYTE	W01
	BYTE		        0*seq_065_mvl/mxv
	BYTE	W02
	BYTE	W44
	BYTE	W02
	BYTE		        70*seq_065_mvl/mxv
	BYTE	W42
	BYTE	W96
	BYTE	W96
	BYTE	W96
	BYTE	W96
	BYTE	W96
	BYTE	W96
	BYTE	W96
	BYTE	W96
	BYTE	W96
	BYTE	W96
	BYTE	W96
	BYTE	W96
	BYTE	W96
	BYTE	W96
	BYTE	W96
	BYTE	W96
	BYTE	W96
	BYTE	W96
	BYTE	W96
	BYTE	W96
	BYTE	W96
	BYTE	W96
	BYTE	W96
	BYTE	W96
	BYTE	W96
	BYTE	W96
	BYTE	W96
	BYTE	W96
	BYTE	W96
	BYTE	W96
	BYTE	PATT
	 POIN2	seq_065_8 + 0x2E
	BYTE	PATT
	 POIN2	seq_065_8 + 0x38
	BYTE	PATT
	 POIN2	seq_065_8 + 0x52
	BYTE	PATT
	 POIN2	seq_065_8 + 0x73
	BYTE	PATT
	 POIN2	seq_065_8 + 0x8F
	BYTE	W02
	BYTE		VOL     3*seq_065_mvl/mxv
	BYTE	W04
	BYTE		EOT     An2 
	BYTE	W02
	BYTE		VOL     70*seq_065_mvl/mxv
	BYTE		N72     As2   v024
	BYTE	W09
	BYTE		VOL     72*seq_065_mvl/mxv
	BYTE	W12
	BYTE		        73*seq_065_mvl/mxv
	BYTE	W06
	BYTE		        74*seq_065_mvl/mxv
	BYTE	W03
	BYTE		        75*seq_065_mvl/mxv
	BYTE	W03
	BYTE		        76*seq_065_mvl/mxv
	BYTE	W03
	BYTE		        77*seq_065_mvl/mxv
	BYTE	W03
	BYTE		        77*seq_065_mvl/mxv
	BYTE	W03
	BYTE		        78*seq_065_mvl/mxv
	BYTE	W03
	BYTE		        80*seq_065_mvl/mxv
	BYTE	W03
	BYTE		        81*seq_065_mvl/mxv
	BYTE	W03
	BYTE		        82*seq_065_mvl/mxv
	BYTE	W03
	BYTE		        83*seq_065_mvl/mxv
	BYTE	W03
	BYTE		        82*seq_065_mvl/mxv
	BYTE	W03
	BYTE		        80*seq_065_mvl/mxv
	BYTE	W03
	BYTE		        77*seq_065_mvl/mxv
	BYTE	W03
	BYTE		        75*seq_065_mvl/mxv
	BYTE	W03
	BYTE		        70*seq_065_mvl/mxv
	BYTE	W03
	BYTE		N23     An2   v020
	BYTE	W16
	BYTE	PATT
	 POIN2	seq_065_8 + 0xFF
	BYTE	PATT
	 POIN2	seq_065_8 + 0x12A
	BYTE	W08
	BYTE		N68     An2   v020
	BYTE	W06
	BYTE		VOL     72*seq_065_mvl/mxv
	BYTE	W06
	BYTE		        72*seq_065_mvl/mxv
	BYTE	W06
	BYTE		        74*seq_065_mvl/mxv
	BYTE	W03
	BYTE		        75*seq_065_mvl/mxv
	BYTE	W03
	BYTE		        77*seq_065_mvl/mxv
	BYTE	W03
	BYTE		        78*seq_065_mvl/mxv
	BYTE	W03
	BYTE		        80*seq_065_mvl/mxv
	BYTE	W09
	BYTE		        79*seq_065_mvl/mxv
	BYTE	W03
	BYTE		        77*seq_065_mvl/mxv
	BYTE	W03
	BYTE		        75*seq_065_mvl/mxv
	BYTE	W03
	BYTE		        72*seq_065_mvl/mxv
	BYTE	W03
	BYTE		        68*seq_065_mvl/mxv
	BYTE	W03
	BYTE		        63*seq_065_mvl/mxv
	BYTE	W03
	BYTE		        58*seq_065_mvl/mxv
	BYTE	W03
	BYTE		        51*seq_065_mvl/mxv
	BYTE	W03
	BYTE		        43*seq_065_mvl/mxv
	BYTE	W03
	BYTE		        34*seq_065_mvl/mxv
	BYTE	W03
	BYTE		        25*seq_065_mvl/mxv
	BYTE	W03
	BYTE		        70*seq_065_mvl/mxv
	BYTE		N24     Fn2 
	BYTE	W16
	BYTE	W08
	BYTE		N12     Gn2   v016
	BYTE	W12
	BYTE		        Gs2   v012
	BYTE	W12
	BYTE		        Gn2   v016
	BYTE	W12
	BYTE		        Gs2 
	BYTE	W12
	BYTE		        Gn2   v020
	BYTE	W12
	BYTE		        Gs2   v016
	BYTE	W12
	BYTE		        Gn2   v020
	BYTE	W12
	BYTE		        Gs2 
	BYTE	W04
	BYTE	PEND
	BYTE	W08
	BYTE		N12     Gn2   v020
	BYTE	W12
	BYTE		        Gs2 
	BYTE	W12
	BYTE		        Gn2   v024
	BYTE	W12
	BYTE		        Gs2 
	BYTE	W12
	BYTE		        Gn2   v028
	BYTE	W12
	BYTE		        Gs2   v024
	BYTE	W12
	BYTE		        Gn2   v028
	BYTE	W12
	BYTE		        Gs2   v024
	BYTE	W04
	BYTE	PEND
	BYTE	W08
	BYTE		        Gn2   v028
	BYTE	W12
	BYTE		        Gs2   v024
	BYTE	W12
	BYTE		        Gn2   v028
	BYTE	W12
	BYTE		        Gs2   v024
	BYTE	W12
	BYTE		        Gn2 
	BYTE	W12
	BYTE		        Gs2   v020
	BYTE	W12
	BYTE		        Gn2   v024
	BYTE	W12
	BYTE		        Gs2   v020
	BYTE	W04
	BYTE	W08
	BYTE		        Gn2 
	BYTE	W12
	BYTE		        Gs2 
	BYTE	W12
	BYTE		        Gn2 
	BYTE	W12
	BYTE		        Gs2   v016
	BYTE	W12
	BYTE		        Gn2   v020
	BYTE	W12
	BYTE		        Gs2   v016
	BYTE	W12
	BYTE		        Gn2 
	BYTE	W12
	BYTE		        Gs2   v008
	BYTE	W04
	BYTE	PATT
	 POIN2	seq_065_8 + 0x223
	BYTE	PATT
	 POIN2	seq_065_8 + 0x23C
	BYTE	W08
	BYTE		N12     Gn2   v028
	BYTE	W12
	BYTE		        Gs2   v024
	BYTE	W12
	BYTE		        Gn2   v028
	BYTE	W12
	BYTE		        Gs2   v020
	BYTE	W12
	BYTE		        Gn2 
	BYTE	W12
	BYTE		        Gs2 
	BYTE	W12
	BYTE		        Gn2 
	BYTE	W12
	BYTE		        Gs2 
	BYTE	W04
	BYTE	W08
	BYTE		N90     Gn2 
	BYTE	W03
	BYTE		VOL     70*seq_065_mvl/mxv
	BYTE	W03
	BYTE		        71*seq_065_mvl/mxv
	BYTE	W06
	BYTE		        72*seq_065_mvl/mxv
	BYTE	W03
	BYTE		        72*seq_065_mvl/mxv
	BYTE	W06
	BYTE		        74*seq_065_mvl/mxv
	BYTE	W03
	BYTE		        75*seq_065_mvl/mxv
	BYTE	W03
	BYTE		        76*seq_065_mvl/mxv
	BYTE	W03
	BYTE		        77*seq_065_mvl/mxv
	BYTE	W03
	BYTE		        80*seq_065_mvl/mxv
	BYTE	W03
	BYTE		        78*seq_065_mvl/mxv
	BYTE	W06
	BYTE		        77*seq_065_mvl/mxv
	BYTE	W03
	BYTE		        75*seq_065_mvl/mxv
	BYTE	W03
	BYTE		        72*seq_065_mvl/mxv
	BYTE	W03
	BYTE		        68*seq_065_mvl/mxv
	BYTE	W03
	BYTE		        63*seq_065_mvl/mxv
	BYTE	W03
	BYTE		        60*seq_065_mvl/mxv
	BYTE	W03
	BYTE		        56*seq_065_mvl/mxv
	BYTE	W03
	BYTE		        51*seq_065_mvl/mxv
	BYTE	W03
	BYTE		        46*seq_065_mvl/mxv
	BYTE	W03
	BYTE		        41*seq_065_mvl/mxv
	BYTE	W03
	BYTE		        35*seq_065_mvl/mxv
	BYTE	W03
	BYTE		        29*seq_065_mvl/mxv
	BYTE	W03
	BYTE		        22*seq_065_mvl/mxv
	BYTE	W03
	BYTE		        17*seq_065_mvl/mxv
	BYTE	W01
	BYTE		        14*seq_065_mvl/mxv
	BYTE	W02
	BYTE		        10*seq_065_mvl/mxv
	BYTE	W01
	BYTE		        6*seq_065_mvl/mxv
	BYTE	W02
	BYTE		        2*seq_065_mvl/mxv
	BYTE	W01
	BYTE		        0*seq_065_mvl/mxv
	BYTE	W06
	BYTE		VOICE   63
	BYTE	W01
	BYTE		VOL     52*seq_065_mvl/mxv
	BYTE		PAN     c_v-64
	BYTE	W01
	BYTE	W01
	BYTE		N48     En3   v036
	BYTE	W01
	BYTE		VOL     61*seq_065_mvl/mxv
	BYTE	W01
	BYTE		        70*seq_065_mvl/mxv
	BYTE	W44
	BYTE	W02
	BYTE		N48     Gn3 
	BYTE	W36
	BYTE	W03
	BYTE	W09
	BYTE		N48     Fs3   v036
	BYTE	W48
	BYTE		        Dn3 
	BYTE	W36
	BYTE	W03
	BYTE	PEND
	BYTE	W09
	BYTE		N48     Fn3   v040
	BYTE	W48
	BYTE		        Dn3   v036
	BYTE	W36
	BYTE	W03
	BYTE	PEND
	BYTE	W09
	BYTE		N48     En3   v036
	BYTE	W48
	BYTE		        Cn3   v028
	BYTE	W36
	BYTE	W03
	BYTE	PEND
	BYTE	W09
	BYTE		N48     En3   v040
	BYTE	W48
	BYTE		        Gn3   v036
	BYTE	W36
	BYTE	W03
	BYTE	PEND
	BYTE	PATT
	 POIN2	seq_065_8 + 0x2F8
	BYTE	PATT
	 POIN2	seq_065_8 + 0x301
	BYTE	W09
	BYTE		N92     En3   v032
	BYTE	W36
	BYTE		VOL     68*seq_065_mvl/mxv
	BYTE	W09
	BYTE		        66*seq_065_mvl/mxv
	BYTE	W03
	BYTE		        65*seq_065_mvl/mxv
	BYTE	W03
	BYTE		        64*seq_065_mvl/mxv
	BYTE	W03
	BYTE		        62*seq_065_mvl/mxv
	BYTE	W03
	BYTE		        60*seq_065_mvl/mxv
	BYTE	W03
	BYTE		        58*seq_065_mvl/mxv
	BYTE	W03
	BYTE		        55*seq_065_mvl/mxv
	BYTE	W03
	BYTE		        52*seq_065_mvl/mxv
	BYTE	W03
	BYTE		        48*seq_065_mvl/mxv
	BYTE	W03
	BYTE		        45*seq_065_mvl/mxv
	BYTE	W03
	BYTE		        41*seq_065_mvl/mxv
	BYTE	W03
	BYTE		        36*seq_065_mvl/mxv
	BYTE	W03
	BYTE		        32*seq_065_mvl/mxv
	BYTE	W03
	BYTE		        27*seq_065_mvl/mxv
	BYTE	W03
	BYTE		VOL     21*seq_065_mvl/mxv
	BYTE	W03
	BYTE		        16*seq_065_mvl/mxv
	BYTE	W03
	BYTE		        10*seq_065_mvl/mxv
	BYTE	W03
	BYTE		        70*seq_065_mvl/mxv
	BYTE		N48     En3   v036
	BYTE	W48
	BYTE		        Gn3 
	BYTE	W36
	BYTE	W03
	BYTE	PEND
	BYTE	PATT
	 POIN2	seq_065_8 + 0x2F8
	BYTE	PATT
	 POIN2	seq_065_8 + 0x301
	BYTE	PATT
	 POIN2	seq_065_8 + 0x30B
	BYTE	PATT
	 POIN2	seq_065_8 + 0x315
	BYTE	PATT
	 POIN2	seq_065_8 + 0x2F8
	BYTE	PATT
	 POIN2	seq_065_8 + 0x301
	BYTE	W09
	BYTE		TIE     En3   v032
	BYTE	W42
	BYTE		VOL     69*seq_065_mvl/mxv
	BYTE	W18
	BYTE		        67*seq_065_mvl/mxv
	BYTE	W06
	BYTE		        65*seq_065_mvl/mxv
	BYTE	W06
	BYTE		        64*seq_065_mvl/mxv
	BYTE	W06
	BYTE		        63*seq_065_mvl/mxv
	BYTE	W06
	BYTE		        61*seq_065_mvl/mxv
	BYTE	W03
	BYTE	W03
	BYTE		        59*seq_065_mvl/mxv
	BYTE	W06
	BYTE		        57*seq_065_mvl/mxv
	BYTE	W06
	BYTE		        55*seq_065_mvl/mxv
	BYTE	W06
	BYTE		        52*seq_065_mvl/mxv
	BYTE	W06
	BYTE		        49*seq_065_mvl/mxv
	BYTE	W06
	BYTE		        47*seq_065_mvl/mxv
	BYTE	W06
	BYTE		        43*seq_065_mvl/mxv
	BYTE	W06
	BYTE		        41*seq_065_mvl/mxv
	BYTE	W06
	BYTE		        36*seq_065_mvl/mxv
	BYTE	W06
	BYTE		        32*seq_065_mvl/mxv
	BYTE	W06
	BYTE		        29*seq_065_mvl/mxv
	BYTE	W06
	BYTE		        24*seq_065_mvl/mxv
	BYTE	W06
	BYTE		        19*seq_065_mvl/mxv
	BYTE	W03
	BYTE		        18*seq_065_mvl/mxv
	BYTE	W03
	BYTE		        15*seq_065_mvl/mxv
	BYTE	W03
	BYTE		        14*seq_065_mvl/mxv
	BYTE	W03
	BYTE		        11*seq_065_mvl/mxv
	BYTE	W03
	BYTE		        9*seq_065_mvl/mxv
	BYTE	W03
	BYTE		        7*seq_065_mvl/mxv
	BYTE	W03
	BYTE		        4*seq_065_mvl/mxv
	BYTE	W03
	BYTE		        3*seq_065_mvl/mxv
	BYTE	W03
	BYTE	W01
	BYTE		EOT
	BYTE	W88
	BYTE	W01
	BYTE	W68
	BYTE	W01
	BYTE		VOL     70*seq_065_mvl/mxv
	BYTE	W24
	BYTE	W03
	BYTE	W96
	BYTE	W96
	BYTE	W96
	BYTE	W96
	BYTE	W96
	BYTE	W96
	BYTE	W96
	BYTE	W96
	BYTE	W96
	BYTE	W96
	BYTE	W96
	BYTE	W96
	BYTE	W96
	BYTE	W96
	BYTE	W96
	BYTE	W96
	BYTE	W96
	BYTE	W96
	BYTE	W96
	BYTE	W96
	BYTE	W96
	BYTE	W96
	BYTE	W96
	BYTE	W96
	BYTE	W96
	BYTE	W96
	BYTE	W96
	BYTE	W96
	BYTE	W96
	BYTE	W80
	BYTE	W01
	BYTE		N06     An2 
	BYTE	W06
	BYTE		        Bn2 
	BYTE	W06
	BYTE		        Cn3   v036
	BYTE	W03
	BYTE	W03
	BYTE		        Dn3   v032
	BYTE	W06
	BYTE		N48     En3   v036
	BYTE	W48
	BYTE		        Gn3 
	BYTE	W36
	BYTE	W03
	BYTE	W09
	BYTE		N48     Fs3   v032
	BYTE	W48
	BYTE		        Dn3   v036
	BYTE	W36
	BYTE	W03
	BYTE	PEND
	BYTE	PATT
	 POIN2	seq_065_8 + 0x301
	BYTE	W09
	BYTE		N48     En3   v032
	BYTE	W48
	BYTE		        Cn3   v028
	BYTE	W36
	BYTE	W03
	BYTE	PEND
	BYTE	PATT
	 POIN2	seq_065_8 + 0x315
	BYTE	W09
	BYTE		N48     Fs3   v032
	BYTE	W48
	BYTE		        Dn3 
	BYTE	W36
	BYTE	W03
	BYTE	PEND
	BYTE	W09
	BYTE		N48     Fn3   v040
	BYTE	W48
	BYTE		N44     Dn3   v032
	BYTE	W36
	BYTE	W03
	BYTE	PEND
	BYTE	W09
	BYTE		N92     En3   v028
	BYTE	W36
	BYTE		VOL     68*seq_065_mvl/mxv
	BYTE	W09
	BYTE		        66*seq_065_mvl/mxv
	BYTE	W03
	BYTE		        65*seq_065_mvl/mxv
	BYTE	W03
	BYTE		        64*seq_065_mvl/mxv
	BYTE	W03
	BYTE		        62*seq_065_mvl/mxv
	BYTE	W03
	BYTE		        60*seq_065_mvl/mxv
	BYTE	W03
	BYTE		        58*seq_065_mvl/mxv
	BYTE	W03
	BYTE		        55*seq_065_mvl/mxv
	BYTE	W03
	BYTE		        52*seq_065_mvl/mxv
	BYTE	W03
	BYTE		        48*seq_065_mvl/mxv
	BYTE	W03
	BYTE		        45*seq_065_mvl/mxv
	BYTE	W03
	BYTE		        41*seq_065_mvl/mxv
	BYTE	W03
	BYTE		        36*seq_065_mvl/mxv
	BYTE	W03
	BYTE		        32*seq_065_mvl/mxv
	BYTE	W03
	BYTE		        27*seq_065_mvl/mxv
	BYTE	W03
	BYTE	PATT
	 POIN2	seq_065_8 + 0x34D
	BYTE	PATT
	 POIN2	seq_065_8 + 0x3F4
	BYTE	W09
	BYTE		N48     Fn3   v040
	BYTE	W48
	BYTE		N44     Dn3   v036
	BYTE	W36
	BYTE	W03
	BYTE	PATT
	 POIN2	seq_065_8 + 0x403
	BYTE	PATT
	 POIN2	seq_065_8 + 0x315
	BYTE	PATT
	 POIN2	seq_065_8 + 0x412
	BYTE	PATT
	 POIN2	seq_065_8 + 0x41B
	BYTE	W09
	BYTE		N90     En3   v028
	BYTE	W03
	BYTE		VOL     72*seq_065_mvl/mxv
	BYTE	W09
	BYTE		        72*seq_065_mvl/mxv
	BYTE	W03
	BYTE		        73*seq_065_mvl/mxv
	BYTE	W06
	BYTE		        75*seq_065_mvl/mxv
	BYTE	W03
	BYTE		        75*seq_065_mvl/mxv
	BYTE	W03
	BYTE		        76*seq_065_mvl/mxv
	BYTE	W03
	BYTE		        77*seq_065_mvl/mxv
	BYTE	W03
	BYTE		        79*seq_065_mvl/mxv
	BYTE	W03
	BYTE		        80*seq_065_mvl/mxv
	BYTE	W03
	BYTE		        83*seq_065_mvl/mxv
	BYTE	W06
	BYTE		        82*seq_065_mvl/mxv
	BYTE	W03
	BYTE		        82*seq_065_mvl/mxv
	BYTE	W03
	BYTE		        81*seq_065_mvl/mxv
	BYTE	W03
	BYTE		        79*seq_065_mvl/mxv
	BYTE	W03
	BYTE		        77*seq_065_mvl/mxv
	BYTE	W03
	BYTE		        75*seq_065_mvl/mxv
	BYTE	W03
	BYTE		        72*seq_065_mvl/mxv
	BYTE	W03
	BYTE		        68*seq_065_mvl/mxv
	BYTE	W03
	BYTE		        65*seq_065_mvl/mxv
	BYTE	W03
	BYTE		        60*seq_065_mvl/mxv
	BYTE	W03
	BYTE		        55*seq_065_mvl/mxv
	BYTE	W03
	BYTE		        47*seq_065_mvl/mxv
	BYTE	W03
	BYTE		        39*seq_065_mvl/mxv
	BYTE	W01
	BYTE		        31*seq_065_mvl/mxv
	BYTE	W02
	BYTE		        23*seq_065_mvl/mxv
	BYTE	W01
	BYTE		        17*seq_065_mvl/mxv
	BYTE	W02
	BYTE		        11*seq_065_mvl/mxv
	BYTE	W01
	BYTE		        5*seq_065_mvl/mxv
	BYTE	W05
	BYTE		VOICE   62
	BYTE		VOL     73*seq_065_mvl/mxv
	BYTE	W01
	BYTE		PAN     c_v-64
	BYTE		VOL     70*seq_065_mvl/mxv
	BYTE	W01
	BYTE		BENDR   12
	BYTE		N06     Gn2   v032
	BYTE	W06
	BYTE		        Gs2   v028
	BYTE	W06
	BYTE		        Cn3 
	BYTE	W06
	BYTE		        Ds3   v024
	BYTE	W06
	BYTE		N48     Gn3   v020
	BYTE	W48
	BYTE		N12     Fn3 
	BYTE	W12
	BYTE		        Ds3   v024
	BYTE	W04
	BYTE	W08
	BYTE		N07     Dn3   v024
	BYTE	W08
	BYTE		        Ds3 
	BYTE	W08
	BYTE		        Fn3 
	BYTE	W08
	BYTE		N68     As2   v020
	BYTE	W09
	BYTE		VOL     68*seq_065_mvl/mxv
	BYTE	W09
	BYTE		        67*seq_065_mvl/mxv
	BYTE	W03
	BYTE		        66*seq_065_mvl/mxv
	BYTE	W03
	BYTE		        64*seq_065_mvl/mxv
	BYTE	W03
	BYTE		        63*seq_065_mvl/mxv
	BYTE	W03
	BYTE		        60*seq_065_mvl/mxv
	BYTE	W03
	BYTE		        58*seq_065_mvl/mxv
	BYTE	W03
	BYTE		        55*seq_065_mvl/mxv
	BYTE	W03
	BYTE		        51*seq_065_mvl/mxv
	BYTE	W03
	BYTE		        48*seq_065_mvl/mxv
	BYTE	W03
	BYTE		        44*seq_065_mvl/mxv
	BYTE	W03
	BYTE		        40*seq_065_mvl/mxv
	BYTE	W03
	BYTE		        35*seq_065_mvl/mxv
	BYTE	W03
	BYTE		        30*seq_065_mvl/mxv
	BYTE	W03
	BYTE		        25*seq_065_mvl/mxv
	BYTE	W03
	BYTE		        19*seq_065_mvl/mxv
	BYTE	W03
	BYTE		        14*seq_065_mvl/mxv
	BYTE	W01
	BYTE	PEND
	BYTE		VOL     10*seq_065_mvl/mxv
	BYTE	W02
	BYTE		        7*seq_065_mvl/mxv
	BYTE	W01
	BYTE		        3*seq_065_mvl/mxv
	BYTE	W02
	BYTE		        0*seq_065_mvl/mxv
	BYTE	W03
	BYTE		        70*seq_065_mvl/mxv
	BYTE		N06     Gn2   v028
	BYTE	W06
	BYTE		        Gs2   v024
	BYTE	W06
	BYTE		        Cn3 
	BYTE	W06
	BYTE		        Ds3 
	BYTE	W06
	BYTE		N36     Gn3   v020
	BYTE	W36
	BYTE		N12     Fn3 
	BYTE	W12
	BYTE		        As3 
	BYTE	W12
	BYTE		        Gn3 
	BYTE	W04
	BYTE	PEND
	BYTE	W08
	BYTE		N92     Dn3 
	BYTE	W06
	BYTE		VOL     71*seq_065_mvl/mxv
	BYTE	W06
	BYTE		        72*seq_065_mvl/mxv
	BYTE	W03
	BYTE		        72*seq_065_mvl/mxv
	BYTE	W03
	BYTE		        74*seq_065_mvl/mxv
	BYTE	W03
	BYTE		        76*seq_065_mvl/mxv
	BYTE	W03
	BYTE		        77*seq_065_mvl/mxv
	BYTE	W06
	BYTE		        77*seq_065_mvl/mxv
	BYTE	W03
	BYTE		        76*seq_065_mvl/mxv
	BYTE	W03
	BYTE		        75*seq_065_mvl/mxv
	BYTE	W03
	BYTE		        73*seq_065_mvl/mxv
	BYTE	W03
	BYTE		        72*seq_065_mvl/mxv
	BYTE	W03
	BYTE		        70*seq_065_mvl/mxv
	BYTE	W03
	BYTE		        67*seq_065_mvl/mxv
	BYTE	W03
	BYTE		        65*seq_065_mvl/mxv
	BYTE	W03
	BYTE		        61*seq_065_mvl/mxv
	BYTE	W03
	BYTE		        58*seq_065_mvl/mxv
	BYTE	W03
	BYTE		        54*seq_065_mvl/mxv
	BYTE	W03
	BYTE		        50*seq_065_mvl/mxv
	BYTE	W03
	BYTE		        46*seq_065_mvl/mxv
	BYTE	W03
	BYTE		        41*seq_065_mvl/mxv
	BYTE	W03
	BYTE		        36*seq_065_mvl/mxv
	BYTE	W03
	BYTE		        31*seq_065_mvl/mxv
	BYTE	W03
	BYTE		        25*seq_065_mvl/mxv
	BYTE	W03
	BYTE		        19*seq_065_mvl/mxv
	BYTE	W01
	BYTE		        16*seq_065_mvl/mxv
	BYTE	W02
	BYTE		        12*seq_065_mvl/mxv
	BYTE	W01
	BYTE		        9*seq_065_mvl/mxv
	BYTE	W02
	BYTE		        7*seq_065_mvl/mxv
	BYTE	W01
	BYTE		        3*seq_065_mvl/mxv
	BYTE	W02
	BYTE		        1*seq_065_mvl/mxv
	BYTE	W01
	BYTE		        0*seq_065_mvl/mxv
	BYTE	W02
	BYTE		        0*seq_065_mvl/mxv
	BYTE	W03
	BYTE		        70*seq_065_mvl/mxv
	BYTE		N06     Gn2   v028
	BYTE	W06
	BYTE		        Gs2   v024
	BYTE	W06
	BYTE		        Cn3 
	BYTE	W06
	BYTE		        Ds3 
	BYTE	W06
	BYTE		N48     Gn3   v020
	BYTE	W48
	BYTE		N12     Fn3 
	BYTE	W12
	BYTE		        Ds3   v024
	BYTE	W04
	BYTE	PATT
	 POIN2	seq_065_8 + 0x4D2
	BYTE	PATT
	 POIN2	seq_065_8 + 0x503
	BYTE	W08
	BYTE		N72     Dn3   v020
	BYTE	W04
	BYTE		VOL     72*seq_065_mvl/mxv
	BYTE	W02
	BYTE		        72*seq_065_mvl/mxv
	BYTE	W09
	BYTE		        73*seq_065_mvl/mxv
	BYTE	W03
	BYTE		        74*seq_065_mvl/mxv
	BYTE	W03
	BYTE		        75*seq_065_mvl/mxv
	BYTE	W01
	BYTE		        75*seq_065_mvl/mxv
	BYTE	W02
	BYTE		        76*seq_065_mvl/mxv
	BYTE	W01
	BYTE		        77*seq_065_mvl/mxv
	BYTE	W02
	BYTE		        77*seq_065_mvl/mxv
	BYTE	W01
	BYTE		        78*seq_065_mvl/mxv
	BYTE	W02
	BYTE		        79*seq_065_mvl/mxv
	BYTE	W01
	BYTE		        80*seq_065_mvl/mxv
	BYTE	W02
	BYTE		        80*seq_065_mvl/mxv
	BYTE	W01
	BYTE		        81*seq_065_mvl/mxv
	BYTE	W02
	BYTE		        82*seq_065_mvl/mxv
	BYTE	W01
	BYTE		        83*seq_065_mvl/mxv
	BYTE	W02
	BYTE		        84*seq_065_mvl/mxv
	BYTE	W01
	BYTE		        85*seq_065_mvl/mxv
	BYTE	W05
	BYTE		        85*seq_065_mvl/mxv
	BYTE	W03
	BYTE		        84*seq_065_mvl/mxv
	BYTE	W03
	BYTE		        83*seq_065_mvl/mxv
	BYTE	W01
	BYTE		        82*seq_065_mvl/mxv
	BYTE	W02
	BYTE		        81*seq_065_mvl/mxv
	BYTE	W03
	BYTE		        80*seq_065_mvl/mxv
	BYTE	W01
	BYTE		        79*seq_065_mvl/mxv
	BYTE	W02
	BYTE		        77*seq_065_mvl/mxv
	BYTE	W01
	BYTE		        76*seq_065_mvl/mxv
	BYTE	W02
	BYTE		        75*seq_065_mvl/mxv
	BYTE	W01
	BYTE		        73*seq_065_mvl/mxv
	BYTE	W02
	BYTE		        72*seq_065_mvl/mxv
	BYTE	W01
	BYTE		        70*seq_065_mvl/mxv
	BYTE	W05
	BYTE		N11     As2 
	BYTE	W12
	BYTE		        Dn3 
	BYTE	W04
	BYTE	W08
	BYTE		TIE     Cn3 
	BYTE	W03
	BYTE		VOL     71*seq_065_mvl/mxv
	BYTE	W06
	BYTE		        72*seq_065_mvl/mxv
	BYTE	W03
	BYTE		        72*seq_065_mvl/mxv
	BYTE	W03
	BYTE		        73*seq_065_mvl/mxv
	BYTE	W03
	BYTE		        74*seq_065_mvl/mxv
	BYTE	W03
	BYTE		        75*seq_065_mvl/mxv
	BYTE	W03
	BYTE		        77*seq_065_mvl/mxv
	BYTE	W03
	BYTE		        80*seq_065_mvl/mxv
	BYTE	W03
	BYTE		        81*seq_065_mvl/mxv
	BYTE	W03
	BYTE		        82*seq_065_mvl/mxv
	BYTE	W03
	BYTE		        83*seq_065_mvl/mxv
	BYTE	W03
	BYTE		        82*seq_065_mvl/mxv
	BYTE	W03
	BYTE		        82*seq_065_mvl/mxv
	BYTE	W03
	BYTE		        81*seq_065_mvl/mxv
	BYTE	W03
	BYTE		        80*seq_065_mvl/mxv
	BYTE	W03
	BYTE		        79*seq_065_mvl/mxv
	BYTE	W03
	BYTE		        78*seq_065_mvl/mxv
	BYTE	W03
	BYTE		        77*seq_065_mvl/mxv
	BYTE	W03
	BYTE		        75*seq_065_mvl/mxv
	BYTE	W03
	BYTE		        73*seq_065_mvl/mxv
	BYTE	W03
	BYTE		        72*seq_065_mvl/mxv
	BYTE	W03
	BYTE		        70*seq_065_mvl/mxv
	BYTE	W03
	BYTE		        68*seq_065_mvl/mxv
	BYTE	W03
	BYTE		        66*seq_065_mvl/mxv
	BYTE	W03
	BYTE		        65*seq_065_mvl/mxv
	BYTE	W03
	BYTE		        63*seq_065_mvl/mxv
	BYTE	W03
	BYTE		        60*seq_065_mvl/mxv
	BYTE	W03
	BYTE		        58*seq_065_mvl/mxv
	BYTE	W01
	BYTE	W02
	BYTE		        55*seq_065_mvl/mxv
	BYTE	W03
	BYTE		        53*seq_065_mvl/mxv
	BYTE	W03
	BYTE		        50*seq_065_mvl/mxv
	BYTE	W03
	BYTE		        47*seq_065_mvl/mxv
	BYTE	W03
	BYTE		        44*seq_065_mvl/mxv
	BYTE	W03
	BYTE		        41*seq_065_mvl/mxv
	BYTE	W03
	BYTE		        38*seq_065_mvl/mxv
	BYTE	W03
	BYTE		        34*seq_065_mvl/mxv
	BYTE	W03
	BYTE		        31*seq_065_mvl/mxv
	BYTE	W03
	BYTE		        27*seq_065_mvl/mxv
	BYTE	W03
	BYTE		        24*seq_065_mvl/mxv
	BYTE	W03
	BYTE		        20*seq_065_mvl/mxv
	BYTE	W03
	BYTE		        16*seq_065_mvl/mxv
	BYTE	W03
	BYTE		        12*seq_065_mvl/mxv
	BYTE	W03
	BYTE		        8*seq_065_mvl/mxv
	BYTE	W03
	BYTE		        4*seq_065_mvl/mxv
	BYTE	W03
	BYTE		        1*seq_065_mvl/mxv
	BYTE	W04
	BYTE		EOT
	BYTE	W02
	BYTE		VOL     70*seq_065_mvl/mxv
	BYTE		N24     Cn3   v024
	BYTE	W24
	BYTE		        Dn3 
	BYTE	W15
	BYTE		VOL     70*seq_065_mvl/mxv
	BYTE	W01
	BYTE	W02
	BYTE		VOL     68*seq_065_mvl/mxv
	BYTE	W03
	BYTE		        65*seq_065_mvl/mxv
	BYTE	W03
	BYTE		        63*seq_065_mvl/mxv
	BYTE		TIE     Ds3   v024
	BYTE	W03
	BYTE		VOL     64*seq_065_mvl/mxv
	BYTE	W06
	BYTE		        65*seq_065_mvl/mxv
	BYTE	W03
	BYTE		        66*seq_065_mvl/mxv
	BYTE	W03
	BYTE		        67*seq_065_mvl/mxv
	BYTE	W03
	BYTE		        69*seq_065_mvl/mxv
	BYTE	W03
	BYTE		        70*seq_065_mvl/mxv
	BYTE	W03
	BYTE		        73*seq_065_mvl/mxv
	BYTE	W03
	BYTE		        76*seq_065_mvl/mxv
	BYTE	W03
	BYTE		        77*seq_065_mvl/mxv
	BYTE	W03
	BYTE		        78*seq_065_mvl/mxv
	BYTE	W03
	BYTE		        80*seq_065_mvl/mxv
	BYTE	W03
	BYTE		        81*seq_065_mvl/mxv
	BYTE	W03
	BYTE		        82*seq_065_mvl/mxv
	BYTE	W06
	BYTE		        82*seq_065_mvl/mxv
	BYTE	W06
	BYTE		        81*seq_065_mvl/mxv
	BYTE	W03
	BYTE		        80*seq_065_mvl/mxv
	BYTE	W03
	BYTE		        79*seq_065_mvl/mxv
	BYTE	W03
	BYTE		        77*seq_065_mvl/mxv
	BYTE	W03
	BYTE		        76*seq_065_mvl/mxv
	BYTE	W03
	BYTE		        75*seq_065_mvl/mxv
	BYTE	W03
	BYTE		        72*seq_065_mvl/mxv
	BYTE	W03
	BYTE		        71*seq_065_mvl/mxv
	BYTE	W03
	BYTE		        68*seq_065_mvl/mxv
	BYTE	W03
	BYTE		        66*seq_065_mvl/mxv
	BYTE	W03
	BYTE		        63*seq_065_mvl/mxv
	BYTE	W03
	BYTE		        60*seq_065_mvl/mxv
	BYTE	W01
	BYTE	PEND
	BYTE	W02
	BYTE		VOL     58*seq_065_mvl/mxv
	BYTE	W03
	BYTE		        54*seq_065_mvl/mxv
	BYTE	W03
	BYTE		        51*seq_065_mvl/mxv
	BYTE	W03
	BYTE		        47*seq_065_mvl/mxv
	BYTE	W03
	BYTE		        43*seq_065_mvl/mxv
	BYTE	W03
	BYTE		        39*seq_065_mvl/mxv
	BYTE	W03
	BYTE		        35*seq_065_mvl/mxv
	BYTE	W03
	BYTE		        31*seq_065_mvl/mxv
	BYTE	W03
	BYTE		        26*seq_065_mvl/mxv
	BYTE	W03
	BYTE		        21*seq_065_mvl/mxv
	BYTE	W03
	BYTE		        16*seq_065_mvl/mxv
	BYTE	W03
	BYTE		        11*seq_065_mvl/mxv
	BYTE	W03
	BYTE		        6*seq_065_mvl/mxv
	BYTE	W04
	BYTE	PEND
	BYTE		EOT     Ds3 
	BYTE	W02
	BYTE		VOL     70*seq_065_mvl/mxv
	BYTE		N11     Ds3   v020
	BYTE	W12
	BYTE		N18     Fn3   v024
	BYTE	W18
	BYTE		        Ds3 
	BYTE	W18
	BYTE		N11     Fn3 
	BYTE	W04
	BYTE	W08
	BYTE		N48     Gn3   v020
	BYTE	W48
	BYTE		N80     En3 
	BYTE	W03
	BYTE		VOL     71*seq_065_mvl/mxv
	BYTE	W03
	BYTE		        72*seq_065_mvl/mxv
	BYTE	W03
	BYTE		        72*seq_065_mvl/mxv
	BYTE	W03
	BYTE		        74*seq_065_mvl/mxv
	BYTE	W03
	BYTE		        76*seq_065_mvl/mxv
	BYTE	W03
	BYTE		        79*seq_065_mvl/mxv
	BYTE	W12
	BYTE		        78*seq_065_mvl/mxv
	BYTE	W03
	BYTE		        77*seq_065_mvl/mxv
	BYTE	W03
	BYTE		        75*seq_065_mvl/mxv
	BYTE	W03
	BYTE		        73*seq_065_mvl/mxv
	BYTE	W01
	BYTE	W02
	BYTE		        71*seq_065_mvl/mxv
	BYTE	W03
	BYTE		        68*seq_065_mvl/mxv
	BYTE	W03
	BYTE		        65*seq_065_mvl/mxv
	BYTE	W03
	BYTE		        62*seq_065_mvl/mxv
	BYTE	W03
	BYTE		        58*seq_065_mvl/mxv
	BYTE	W03
	BYTE		        53*seq_065_mvl/mxv
	BYTE	W03
	BYTE		        48*seq_065_mvl/mxv
	BYTE	W03
	BYTE		        43*seq_065_mvl/mxv
	BYTE	W03
	BYTE		        38*seq_065_mvl/mxv
	BYTE	W03
	BYTE		        32*seq_065_mvl/mxv
	BYTE	W03
	BYTE		        28*seq_065_mvl/mxv
	BYTE	W01
	BYTE		        24*seq_065_mvl/mxv
	BYTE	W02
	BYTE		        19*seq_065_mvl/mxv
	BYTE	W01
	BYTE		        15*seq_065_mvl/mxv
	BYTE	W02
	BYTE		        9*seq_065_mvl/mxv
	BYTE	W01
	BYTE		        5*seq_065_mvl/mxv
	BYTE	W02
	BYTE		        2*seq_065_mvl/mxv
	BYTE	W03
	BYTE		        70*seq_065_mvl/mxv
	BYTE		N11
	BYTE	W12
	BYTE		N18     Fn3   v024
	BYTE	W18
	BYTE		        En3 
	BYTE	W18
	BYTE		N11     Fn3 
	BYTE	W04
	BYTE	W08
	BYTE		BEND    c_v-27
	BYTE		TIE     Cn4   v020
	BYTE	W06
	BYTE		VOL     69*seq_065_mvl/mxv
	BYTE	W06
	BYTE		        68*seq_065_mvl/mxv
	BYTE	W06
	BYTE		        65*seq_065_mvl/mxv
	BYTE	W03
	BYTE		        63*seq_065_mvl/mxv
	BYTE	W03
	BYTE		        58*seq_065_mvl/mxv
	BYTE	W03
	BYTE		        53*seq_065_mvl/mxv
	BYTE	W03
	BYTE		        48*seq_065_mvl/mxv
	BYTE	W03
	BYTE		        46*seq_065_mvl/mxv
	BYTE	W03
	BYTE		        41*seq_065_mvl/mxv
	BYTE	W03
	BYTE		        39*seq_065_mvl/mxv
	BYTE	W02
	BYTE		BEND    c_v-25
	BYTE	W01
	BYTE		VOL     35*seq_065_mvl/mxv
	BYTE		BEND    c_v-20
	BYTE	W01
	BYTE		        c_v-16
	BYTE	W01
	BYTE		        c_v-12
	BYTE	W01
	BYTE		VOL     32*seq_065_mvl/mxv
	BYTE		BEND    c_v-10
	BYTE	W01
	BYTE		        c_v-6
	BYTE	W01
	BYTE		        c_v-4
	BYTE	W01
	BYTE		        c_v+0
	BYTE	W03
	BYTE		VOL     34*seq_065_mvl/mxv
	BYTE	W06
	BYTE		        38*seq_065_mvl/mxv
	BYTE	W06
	BYTE		        41*seq_065_mvl/mxv
	BYTE	W09
	BYTE		        44*seq_065_mvl/mxv
	BYTE	W03
	BYTE		        46*seq_065_mvl/mxv
	BYTE	W03
	BYTE		        47*seq_065_mvl/mxv
	BYTE	W03
	BYTE		        49*seq_065_mvl/mxv
	BYTE	W03
	BYTE		        51*seq_065_mvl/mxv
	BYTE	W03
	BYTE		        53*seq_065_mvl/mxv
	BYTE	W01
	BYTE	W02
	BYTE		        55*seq_065_mvl/mxv
	BYTE	W03
	BYTE		        55*seq_065_mvl/mxv
	BYTE	W06
	BYTE		        55*seq_065_mvl/mxv
	BYTE	W03
	BYTE		        54*seq_065_mvl/mxv
	BYTE	W03
	BYTE		        53*seq_065_mvl/mxv
	BYTE	W03
	BYTE		        51*seq_065_mvl/mxv
	BYTE	W03
	BYTE		        48*seq_065_mvl/mxv
	BYTE	W03
	BYTE		        46*seq_065_mvl/mxv
	BYTE	W03
	BYTE		        43*seq_065_mvl/mxv
	BYTE	W03
	BYTE		        39*seq_065_mvl/mxv
	BYTE	W03
	BYTE		        35*seq_065_mvl/mxv
	BYTE	W03
	BYTE		        31*seq_065_mvl/mxv
	BYTE	W03
	BYTE		        28*seq_065_mvl/mxv
	BYTE	W01
	BYTE		        24*seq_065_mvl/mxv
	BYTE	W02
	BYTE		        21*seq_065_mvl/mxv
	BYTE	W01
	BYTE		        17*seq_065_mvl/mxv
	BYTE	W02
	BYTE		        14*seq_065_mvl/mxv
	BYTE	W01
	BYTE		        10*seq_065_mvl/mxv
	BYTE	W02
	BYTE		        7*seq_065_mvl/mxv
	BYTE	W01
	BYTE		        3*seq_065_mvl/mxv
	BYTE	W02
	BYTE		        0*seq_065_mvl/mxv
	BYTE	W01
	BYTE		EOT
	BYTE	W02
	BYTE		VOL     70*seq_065_mvl/mxv
	BYTE		N17     As3 
	BYTE	W18
	BYTE		        Gs3 
	BYTE	W18
	BYTE		N11     As3 
	BYTE	W04
	BYTE	W08
	BYTE		N48     Gn3 
	BYTE	W48
	BYTE		N92     En3   v016
	BYTE	W03
	BYTE		VOL     72*seq_065_mvl/mxv
	BYTE	W03
	BYTE		        72*seq_065_mvl/mxv
	BYTE	W06
	BYTE		        74*seq_065_mvl/mxv
	BYTE	W03
	BYTE		        75*seq_065_mvl/mxv
	BYTE	W03
	BYTE		        77*seq_065_mvl/mxv
	BYTE	W03
	BYTE		        80*seq_065_mvl/mxv
	BYTE	W03
	BYTE		        81*seq_065_mvl/mxv
	BYTE	W09
	BYTE		        80*seq_065_mvl/mxv
	BYTE	W03
	BYTE		        79*seq_065_mvl/mxv
	BYTE	W03
	BYTE		        77*seq_065_mvl/mxv
	BYTE	W01
	BYTE	W02
	BYTE		        76*seq_065_mvl/mxv
	BYTE	W03
	BYTE		        74*seq_065_mvl/mxv
	BYTE	W03
	BYTE		        72*seq_065_mvl/mxv
	BYTE	W03
	BYTE		        70*seq_065_mvl/mxv
	BYTE	W03
	BYTE		        67*seq_065_mvl/mxv
	BYTE	W03
	BYTE		        64*seq_065_mvl/mxv
	BYTE	W03
	BYTE		        60*seq_065_mvl/mxv
	BYTE	W03
	BYTE		        57*seq_065_mvl/mxv
	BYTE	W03
	BYTE		        53*seq_065_mvl/mxv
	BYTE	W03
	BYTE		        49*seq_065_mvl/mxv
	BYTE	W03
	BYTE		        45*seq_065_mvl/mxv
	BYTE	W03
	BYTE		        40*seq_065_mvl/mxv
	BYTE	W03
	BYTE		        35*seq_065_mvl/mxv
	BYTE	W03
	BYTE		        30*seq_065_mvl/mxv
	BYTE	W03
	BYTE		        24*seq_065_mvl/mxv
	BYTE	W03
	BYTE		        19*seq_065_mvl/mxv
	BYTE	W03
	BYTE		        12*seq_065_mvl/mxv
	BYTE	W03
	BYTE		        6*seq_065_mvl/mxv
	BYTE	W03
	BYTE		        70*seq_065_mvl/mxv
	BYTE		N24     Cn3   v024
	BYTE	W24
	BYTE		        Dn3 
	BYTE	W15
	BYTE		VOL     70*seq_065_mvl/mxv
	BYTE	W01
	BYTE	PATT
	 POIN2	seq_065_8 + 0x63F
	BYTE	PATT
	 POIN2	seq_065_8 + 0x680
	BYTE		EOT     Ds3 
	BYTE	W02
	BYTE		VOL     70*seq_065_mvl/mxv
	BYTE		N11     Ds3   v020
	BYTE	W12
	BYTE		N18     Fn3   v024
	BYTE	W18
	BYTE		        Ds3 
	BYTE	W18
	BYTE		N11     Fn3 
	BYTE	W04
	BYTE	GoTo
	 POIN2	seq_065_8 + 0x6AF
	BYTE	W07
	BYTE	FINE

//*********************** Track 10 ***********************//

seq_065_9:
	BYTE	KEYSH   seq_065_key+0
	BYTE	W03
	BYTE	W08
	BYTE		VOL     70*seq_065_mvl/mxv
	BYTE	W07
	BYTE		VOICE   59
	BYTE	W01
	BYTE		PAN     c_v-6
	BYTE		N24     En3   v036
	BYTE	W01
	BYTE	W23
	BYTE		        Bn2 
	BYTE	W24
	BYTE		        Cn3   v040
	BYTE	W24
	BYTE		        An2   v036
	BYTE	W08
	BYTE	W16
	BYTE		N24     En2   v048
	BYTE	W24
	BYTE		        Bn1 
	BYTE	W24
	BYTE		        Cn2   v052
	BYTE	W24
	BYTE		        An1   v044
	BYTE	W08
	BYTE	PEND
	BYTE	W16
	BYTE		N48     En1   v048
	BYTE	W24
	BYTE		VOL     67*seq_065_mvl/mxv
	BYTE	W03
	BYTE		        65*seq_065_mvl/mxv
	BYTE	W03
	BYTE		        61*seq_065_mvl/mxv
	BYTE	W03
	BYTE		        55*seq_065_mvl/mxv
	BYTE	W03
	BYTE		        45*seq_065_mvl/mxv
	BYTE	W03
	BYTE		        32*seq_065_mvl/mxv
	BYTE	W03
	BYTE		        17*seq_065_mvl/mxv
	BYTE	W03
	BYTE		        9*seq_065_mvl/mxv
	BYTE	W32
	BYTE	W03
	BYTE	PEND
	BYTE	W16
	BYTE		        70*seq_065_mvl/mxv
	BYTE	W80
	BYTE	W16
	BYTE		N24     En3   v036
	BYTE	W24
	BYTE		        Bn2 
	BYTE	W24
	BYTE		        Cn3   v040
	BYTE	W24
	BYTE		        An2   v036
	BYTE	W08
	BYTE	PEND
	BYTE	PATT
	 POIN2	seq_065_9 + 0x19
	BYTE	PATT
	 POIN2	seq_065_9 + 0x27
	BYTE	W16
	BYTE		VOL     70*seq_065_mvl/mxv
	BYTE	W80
	BYTE	W16
	BYTE		N24     An3   v032
	BYTE	W24
	BYTE		        En3   v036
	BYTE	W24
	BYTE		        Fn3 
	BYTE	W24
	BYTE		        Dn3 
	BYTE	W08
	BYTE	PEND
	BYTE	W16
	BYTE		N24     An2   v044
	BYTE	W24
	BYTE		        En2   v048
	BYTE	W24
	BYTE		        Fn2 
	BYTE	W24
	BYTE		        Dn2   v040
	BYTE	W08
	BYTE	PEND
	BYTE	W16
	BYTE		N48     An1   v048
	BYTE	W24
	BYTE		VOL     67*seq_065_mvl/mxv
	BYTE	W03
	BYTE		        65*seq_065_mvl/mxv
	BYTE	W03
	BYTE		        61*seq_065_mvl/mxv
	BYTE	W03
	BYTE		        55*seq_065_mvl/mxv
	BYTE	W03
	BYTE		        45*seq_065_mvl/mxv
	BYTE	W03
	BYTE		        32*seq_065_mvl/mxv
	BYTE	W03
	BYTE		        17*seq_065_mvl/mxv
	BYTE	W03
	BYTE		        9*seq_065_mvl/mxv
	BYTE	W32
	BYTE	W03
	BYTE	PEND
	BYTE	W16
	BYTE		        70*seq_065_mvl/mxv
	BYTE	W80
	BYTE	PATT
	 POIN2	seq_065_9 + 0x5E
	BYTE	PATT
	 POIN2	seq_065_9 + 0x6B
	BYTE	PATT
	 POIN2	seq_065_9 + 0x79
	BYTE	W96
	BYTE	W16
	BYTE		VOL     70*seq_065_mvl/mxv
	BYTE		N24     En3   v036
	BYTE	W24
	BYTE		        Bn2 
	BYTE	W24
	BYTE		        Cn3   v040
	BYTE	W24
	BYTE		        An2   v036
	BYTE	W08
	BYTE	PEND
	BYTE	PATT
	 POIN2	seq_065_9 + 0x19
	BYTE	PATT
	 POIN2	seq_065_9 + 0x27
	BYTE	W16
	BYTE		VOL     70*seq_065_mvl/mxv
	BYTE	W80
	BYTE	PATT
	 POIN2	seq_065_9 + 0x42
	BYTE	PATT
	 POIN2	seq_065_9 + 0x19
	BYTE	PATT
	 POIN2	seq_065_9 + 0x27
	BYTE	W16
	BYTE		VOL     70*seq_065_mvl/mxv
	BYTE	W80
	BYTE	PATT
	 POIN2	seq_065_9 + 0x5E
	BYTE	PATT
	 POIN2	seq_065_9 + 0x6B
	BYTE	PATT
	 POIN2	seq_065_9 + 0x79
	BYTE	W16
	BYTE		VOL     70*seq_065_mvl/mxv
	BYTE	W80
	BYTE	PATT
	 POIN2	seq_065_9 + 0x5E
	BYTE	PATT
	 POIN2	seq_065_9 + 0x6B
	BYTE	PATT
	 POIN2	seq_065_9 + 0x79
	BYTE	W16
	BYTE		VOL     70*seq_065_mvl/mxv
	BYTE	W80
	BYTE	W19
	BYTE		N24     Cn1   v020
	BYTE	W24
	BYTE		        Gn1 
	BYTE	W24
	BYTE		        Cn2   v012
	BYTE	W28
	BYTE	W01
	BYTE	PEND
	BYTE	W96
	BYTE	W19
	BYTE		N24     Cn1   v028
	BYTE	W24
	BYTE		        An1   v024
	BYTE	W24
	BYTE		        Dn2   v016
	BYTE	W28
	BYTE	W01
	BYTE	PEND
	BYTE	W96
	BYTE	W19
	BYTE		N24     Cn1   v028
	BYTE	W24
	BYTE		        Gn1   v024
	BYTE	W24
	BYTE		        Ds2   v016
	BYTE	W28
	BYTE	W01
	BYTE	PEND
	BYTE	W96
	BYTE	W19
	BYTE		N24     Ds1   v028
	BYTE	W24
	BYTE		        As1   v024
	BYTE	W24
	BYTE		        Ds2   v012
	BYTE	W28
	BYTE	W01
	BYTE	PEND
	BYTE	W19
	BYTE		N24     Fn1   v024
	BYTE	W24
	BYTE		        Cn2   v020
	BYTE	W24
	BYTE		N21     Ds2   v008
	BYTE	W28
	BYTE	W01
	BYTE	PEND
	BYTE	PATT
	 POIN2	seq_065_9 + 0x42
	BYTE	PATT
	 POIN2	seq_065_9 + 0x19
	BYTE	PATT
	 POIN2	seq_065_9 + 0x27
	BYTE	W16
	BYTE		VOL     70*seq_065_mvl/mxv
	BYTE	W80
	BYTE	PATT
	 POIN2	seq_065_9 + 0x42
	BYTE	PATT
	 POIN2	seq_065_9 + 0x19
	BYTE	PATT
	 POIN2	seq_065_9 + 0x27
	BYTE	W16
	BYTE		VOL     70*seq_065_mvl/mxv
	BYTE	W80
	BYTE	PATT
	 POIN2	seq_065_9 + 0x5E
	BYTE	PATT
	 POIN2	seq_065_9 + 0x6B
	BYTE	PATT
	 POIN2	seq_065_9 + 0x79
	BYTE	W16
	BYTE		VOL     70*seq_065_mvl/mxv
	BYTE	W80
	BYTE	PATT
	 POIN2	seq_065_9 + 0x5E
	BYTE	PATT
	 POIN2	seq_065_9 + 0x6B
	BYTE	PATT
	 POIN2	seq_065_9 + 0x79
	BYTE	W96
	BYTE	PATT
	 POIN2	seq_065_9 + 0xA4
	BYTE	PATT
	 POIN2	seq_065_9 + 0x19
	BYTE	PATT
	 POIN2	seq_065_9 + 0x27
	BYTE	W16
	BYTE		VOL     70*seq_065_mvl/mxv
	BYTE	W80
	BYTE	PATT
	 POIN2	seq_065_9 + 0x42
	BYTE	PATT
	 POIN2	seq_065_9 + 0x19
	BYTE	PATT
	 POIN2	seq_065_9 + 0x27
	BYTE	W16
	BYTE		VOL     70*seq_065_mvl/mxv
	BYTE	W80
	BYTE	PATT
	 POIN2	seq_065_9 + 0x5E
	BYTE	PATT
	 POIN2	seq_065_9 + 0x6B
	BYTE	PATT
	 POIN2	seq_065_9 + 0x79
	BYTE	W16
	BYTE		VOL     70*seq_065_mvl/mxv
	BYTE	W80
	BYTE	PATT
	 POIN2	seq_065_9 + 0x5E
	BYTE	PATT
	 POIN2	seq_065_9 + 0x6B
	BYTE	PATT
	 POIN2	seq_065_9 + 0x79
	BYTE	W96
	BYTE	PATT
	 POIN2	seq_065_9 + 0xFB
	BYTE	W96
	BYTE	PATT
	 POIN2	seq_065_9 + 0x108
	BYTE	W96
	BYTE	PATT
	 POIN2	seq_065_9 + 0x116
	BYTE	W96
	BYTE	PATT
	 POIN2	seq_065_9 + 0x124
	BYTE	PATT
	 POIN2	seq_065_9 + 0x131
	BYTE	W19
	BYTE		N24     Gs1   v012
	BYTE	W24
	BYTE		        Cn2   v008
	BYTE	W24
	BYTE		        Ds2   v016
	BYTE	W24
	BYTE		        Cn2   v012
	BYTE	W05
	BYTE	PEND
	BYTE	W19
	BYTE		N24     Ds2   v020
	BYTE	W24
	BYTE		        Dn2   v016
	BYTE	W24
	BYTE		        Ds2   v028
	BYTE	W24
	BYTE		        Cn2   v020
	BYTE	W05
	BYTE	PEND
	BYTE	W19
	BYTE		        Gn1   v024
	BYTE	W24
	BYTE		        Bn1   v020
	BYTE	W24
	BYTE		        Dn2 
	BYTE	W24
	BYTE		        Bn1   v016
	BYTE	W05
	BYTE	W19
	BYTE		        Dn2 
	BYTE	W24
	BYTE		        Cn2   v008
	BYTE	W24
	BYTE		        Dn2   v012
	BYTE	W24
	BYTE		        Bn1   v008
	BYTE	W05
	BYTE	PATT
	 POIN2	seq_065_9 + 0x1ED
	BYTE	PATT
	 POIN2	seq_065_9 + 0x1FC
	BYTE	W19
	BYTE		N24     Gn1   v024
	BYTE	W24
	BYTE		        Bn1   v020
	BYTE	W24
	BYTE		        Dn2 
	BYTE	W24
	BYTE		        Bn1   v012
	BYTE	W05
	BYTE	W12
	BYTE		        Gn1 
	BYTE	W24
	BYTE	W03
	BYTE	W56
	BYTE	W01
	BYTE	W96
	BYTE	W96
	BYTE	W96
	BYTE	W96
	BYTE	W96
	BYTE	W96
	BYTE	W96
	BYTE	W96
	BYTE	W96
	BYTE	W96
	BYTE	W96
	BYTE	W96
	BYTE	W96
	BYTE	W96
	BYTE	W96
	BYTE	W96
	BYTE	W96
	BYTE	W14
	BYTE	W01
	BYTE		VOL     70*seq_065_mvl/mxv
	BYTE	W01
	BYTE		N24     En3   v036
	BYTE	W24
	BYTE		        Bn2 
	BYTE	W24
	BYTE		        Cn3   v040
	BYTE	W24
	BYTE		        An2   v036
	BYTE	W08
	BYTE	PATT
	 POIN2	seq_065_9 + 0x19
	BYTE	PATT
	 POIN2	seq_065_9 + 0x27
	BYTE	W16
	BYTE		VOL     70*seq_065_mvl/mxv
	BYTE	W80
	BYTE	PATT
	 POIN2	seq_065_9 + 0x42
	BYTE	PATT
	 POIN2	seq_065_9 + 0x19
	BYTE	PATT
	 POIN2	seq_065_9 + 0x27
	BYTE	W16
	BYTE		VOL     70*seq_065_mvl/mxv
	BYTE	W80
	BYTE	PATT
	 POIN2	seq_065_9 + 0x5E
	BYTE	PATT
	 POIN2	seq_065_9 + 0x6B
	BYTE	PATT
	 POIN2	seq_065_9 + 0x79
	BYTE	W16
	BYTE		VOL     70*seq_065_mvl/mxv
	BYTE	W80
	BYTE	PATT
	 POIN2	seq_065_9 + 0x5E
	BYTE	PATT
	 POIN2	seq_065_9 + 0x6B
	BYTE	PATT
	 POIN2	seq_065_9 + 0x79
	BYTE	W96
	BYTE	PATT
	 POIN2	seq_065_9 + 0xA4
	BYTE	PATT
	 POIN2	seq_065_9 + 0x19
	BYTE	PATT
	 POIN2	seq_065_9 + 0x27
	BYTE	W16
	BYTE		VOL     70*seq_065_mvl/mxv
	BYTE	W80
	BYTE	PATT
	 POIN2	seq_065_9 + 0x42
	BYTE	PATT
	 POIN2	seq_065_9 + 0x19
	BYTE	PATT
	 POIN2	seq_065_9 + 0x27
	BYTE	W16
	BYTE		VOL     70*seq_065_mvl/mxv
	BYTE	W80
	BYTE	PATT
	 POIN2	seq_065_9 + 0x5E
	BYTE	PATT
	 POIN2	seq_065_9 + 0x6B
	BYTE	PATT
	 POIN2	seq_065_9 + 0x79
	BYTE	W16
	BYTE		VOL     70*seq_065_mvl/mxv
	BYTE	W80
	BYTE	PATT
	 POIN2	seq_065_9 + 0x5E
	BYTE	PATT
	 POIN2	seq_065_9 + 0x6B
	BYTE	W16
	BYTE		N48     An1   v048
	BYTE	W24
	BYTE		VOL     67*seq_065_mvl/mxv
	BYTE	W03
	BYTE		        65*seq_065_mvl/mxv
	BYTE	W03
	BYTE		        61*seq_065_mvl/mxv
	BYTE	W03
	BYTE		        55*seq_065_mvl/mxv
	BYTE	W03
	BYTE		        45*seq_065_mvl/mxv
	BYTE	W03
	BYTE		        32*seq_065_mvl/mxv
	BYTE	W03
	BYTE		        17*seq_065_mvl/mxv
	BYTE	W03
	BYTE		        9*seq_065_mvl/mxv
	BYTE	W03
	BYTE	W32
	BYTE	W96
	BYTE	W96
	BYTE	W96
	BYTE	W96
	BYTE	W96
	BYTE	W96
	BYTE	W96
	BYTE	W96
	BYTE	W96
	BYTE	W96
	BYTE	W96
	BYTE	W96
	BYTE	W96
	BYTE	W96
	BYTE	W96
	BYTE	W96
	BYTE	W96
	BYTE	W96
	BYTE	W96
	BYTE	W96
	BYTE	W96
	BYTE	W96
	BYTE	W96
	BYTE	W96
	BYTE	W96
	BYTE	W96
	BYTE	W96
	BYTE	W96
	BYTE	W96
	BYTE	W96
	BYTE	W96
	BYTE	W96
	BYTE	W96
	BYTE	W96
	BYTE	W96
	BYTE	W96
	BYTE	W96
	BYTE	GoTo
	 POIN2	seq_065_9 + 0x31D
	BYTE	W07
	BYTE	FINE

//*********************** Track 11 ***********************//

seq_065_10:
	BYTE	KEYSH   seq_065_key+0
	BYTE	W03
	BYTE		VOL     70*seq_065_mvl/mxv
	BYTE	W15
	BYTE		VOICE   59
	BYTE	W01
	BYTE		PAN     c_v-44
	BYTE	W01
	BYTE	W15
	BYTE		N24     En3   v024
	BYTE	W24
	BYTE		        Bn2 
	BYTE	W24
	BYTE		        Cn3 
	BYTE	W16
	BYTE	W08
	BYTE		N24     An2   v024
	BYTE	W24
	BYTE		        En2   v028
	BYTE	W24
	BYTE		        Bn1 
	BYTE	W24
	BYTE		        Cn2   v032
	BYTE	W16
	BYTE	PEND
	BYTE	W08
	BYTE		N24     An1   v028
	BYTE	W24
	BYTE		N15     En1 
	BYTE	W16
	BYTE		        En1   v024
	BYTE	W16
	BYTE		N15
	BYTE	W16
	BYTE		N15
	BYTE	W16
	BYTE	PEND
	BYTE		N15     En1   v020
	BYTE	W16
	BYTE		        En1   v016
	BYTE	W16
	BYTE		        En1   v012
	BYTE	W16
	BYTE		N15
	BYTE	W16
	BYTE		        En1   v008
	BYTE	W16
	BYTE		        En1   v004
	BYTE	W16
	BYTE	PEND
	BYTE	W32
	BYTE		N24     En3   v024
	BYTE	W24
	BYTE		        Bn2 
	BYTE	W24
	BYTE		        Cn3 
	BYTE	W16
	BYTE	PEND
	BYTE	PATT
	 POIN2	seq_065_10 + 0x15
	BYTE	PATT
	 POIN2	seq_065_10 + 0x23
	BYTE	PATT
	 POIN2	seq_065_10 + 0x33
	BYTE	W32
	BYTE		N24     An3   v024
	BYTE	W24
	BYTE		        En3 
	BYTE	W24
	BYTE		        Fn3 
	BYTE	W16
	BYTE	PEND
	BYTE	W08
	BYTE		N24     Dn3   v024
	BYTE	W24
	BYTE		        An2   v028
	BYTE	W24
	BYTE		        En2 
	BYTE	W24
	BYTE		        Fn2 
	BYTE	W16
	BYTE	PEND
	BYTE	W08
	BYTE		N24     Dn2   v028
	BYTE	W24
	BYTE		N15     An1 
	BYTE	W16
	BYTE		        An1   v024
	BYTE	W16
	BYTE		        An1   v020
	BYTE	W16
	BYTE		N15
	BYTE	W16
	BYTE	PEND
	BYTE		N15     An1   v020
	BYTE	W16
	BYTE		        An1   v016
	BYTE	W16
	BYTE		        An1   v012
	BYTE	W16
	BYTE		N15
	BYTE	W16
	BYTE		        An1   v008
	BYTE	W16
	BYTE		        An1   v004
	BYTE	W16
	BYTE	PEND
	BYTE	PATT
	 POIN2	seq_065_10 + 0x5F
	BYTE	PATT
	 POIN2	seq_065_10 + 0x69
	BYTE	PATT
	 POIN2	seq_065_10 + 0x76
	BYTE	PATT
	 POIN2	seq_065_10 + 0x87
	BYTE	PATT
	 POIN2	seq_065_10 + 0x46
	BYTE	PATT
	 POIN2	seq_065_10 + 0x15
	BYTE	PATT
	 POIN2	seq_065_10 + 0x23
	BYTE	PATT
	 POIN2	seq_065_10 + 0x33
	BYTE	PATT
	 POIN2	seq_065_10 + 0x46
	BYTE	PATT
	 POIN2	seq_065_10 + 0x15
	BYTE	PATT
	 POIN2	seq_065_10 + 0x23
	BYTE	PATT
	 POIN2	seq_065_10 + 0x33
	BYTE	PATT
	 POIN2	seq_065_10 + 0x5F
	BYTE	PATT
	 POIN2	seq_065_10 + 0x69
	BYTE	PATT
	 POIN2	seq_065_10 + 0x76
	BYTE	PATT
	 POIN2	seq_065_10 + 0x87
	BYTE	PATT
	 POIN2	seq_065_10 + 0x5F
	BYTE	PATT
	 POIN2	seq_065_10 + 0x69
	BYTE	PATT
	 POIN2	seq_065_10 + 0x76
	BYTE	PATT
	 POIN2	seq_065_10 + 0x87
	BYTE	W96
	BYTE	W96
	BYTE	W96
	BYTE	W96
	BYTE	W96
	BYTE	W96
	BYTE	W96
	BYTE	W96
	BYTE	PATT
	 POIN2	seq_065_10 + 0x46
	BYTE	PATT
	 POIN2	seq_065_10 + 0x15
	BYTE	PATT
	 POIN2	seq_065_10 + 0x23
	BYTE	PATT
	 POIN2	seq_065_10 + 0x33
	BYTE	PATT
	 POIN2	seq_065_10 + 0x46
	BYTE	PATT
	 POIN2	seq_065_10 + 0x15
	BYTE	PATT
	 POIN2	seq_065_10 + 0x23
	BYTE	PATT
	 POIN2	seq_065_10 + 0x33
	BYTE	PATT
	 POIN2	seq_065_10 + 0x5F
	BYTE	PATT
	 POIN2	seq_065_10 + 0x69
	BYTE	PATT
	 POIN2	seq_065_10 + 0x76
	BYTE	PATT
	 POIN2	seq_065_10 + 0x87
	BYTE	PATT
	 POIN2	seq_065_10 + 0x5F
	BYTE	PATT
	 POIN2	seq_065_10 + 0x69
	BYTE	PATT
	 POIN2	seq_065_10 + 0x76
	BYTE	PATT
	 POIN2	seq_065_10 + 0x87
	BYTE	PATT
	 POIN2	seq_065_10 + 0x46
	BYTE	PATT
	 POIN2	seq_065_10 + 0x15
	BYTE	PATT
	 POIN2	seq_065_10 + 0x23
	BYTE	PATT
	 POIN2	seq_065_10 + 0x33
	BYTE	PATT
	 POIN2	seq_065_10 + 0x46
	BYTE	PATT
	 POIN2	seq_065_10 + 0x15
	BYTE	PATT
	 POIN2	seq_065_10 + 0x23
	BYTE	PATT
	 POIN2	seq_065_10 + 0x33
	BYTE	PATT
	 POIN2	seq_065_10 + 0x5F
	BYTE	PATT
	 POIN2	seq_065_10 + 0x69
	BYTE	PATT
	 POIN2	seq_065_10 + 0x76
	BYTE	PATT
	 POIN2	seq_065_10 + 0x87
	BYTE	PATT
	 POIN2	seq_065_10 + 0x5F
	BYTE	PATT
	 POIN2	seq_065_10 + 0x69
	BYTE	PATT
	 POIN2	seq_065_10 + 0x76
	BYTE		N15     An1   v020
	BYTE	W16
	BYTE		        An1   v016
	BYTE	W16
	BYTE		        An1   v012
	BYTE	W16
	BYTE		N15
	BYTE	W16
	BYTE		        An1   v008
	BYTE	W16
	BYTE		        An1   v004
	BYTE	W15
	BYTE	W01
	BYTE	PEND
	BYTE	W96
	BYTE	W96
	BYTE	W96
	BYTE	W96
	BYTE	W96
	BYTE	W96
	BYTE	W96
	BYTE	W96
	BYTE	W96
	BYTE	W96
	BYTE	W96
	BYTE	W96
	BYTE	W96
	BYTE	W96
	BYTE	W96
	BYTE	W96
	BYTE	W96
	BYTE	W96
	BYTE	W96
	BYTE	W96
	BYTE	W96
	BYTE	W96
	BYTE	W96
	BYTE	W96
	BYTE	W96
	BYTE	W96
	BYTE	W96
	BYTE	W96
	BYTE	W96
	BYTE	W96
	BYTE	W96
	BYTE	W96
	BYTE	W96
	BYTE	W30
	BYTE	W01
	BYTE	W01
	BYTE		N24     En3   v024
	BYTE	W24
	BYTE		        Bn2 
	BYTE	W24
	BYTE		        Cn3 
	BYTE	W16
	BYTE	PATT
	 POIN2	seq_065_10 + 0x15
	BYTE	PATT
	 POIN2	seq_065_10 + 0x23
	BYTE	PATT
	 POIN2	seq_065_10 + 0x33
	BYTE	PATT
	 POIN2	seq_065_10 + 0x46
	BYTE	PATT
	 POIN2	seq_065_10 + 0x15
	BYTE	PATT
	 POIN2	seq_065_10 + 0x23
	BYTE	PATT
	 POIN2	seq_065_10 + 0x33
	BYTE	PATT
	 POIN2	seq_065_10 + 0x5F
	BYTE	PATT
	 POIN2	seq_065_10 + 0x69
	BYTE	PATT
	 POIN2	seq_065_10 + 0x76
	BYTE	PATT
	 POIN2	seq_065_10 + 0x87
	BYTE	PATT
	 POIN2	seq_065_10 + 0x5F
	BYTE	PATT
	 POIN2	seq_065_10 + 0x69
	BYTE	PATT
	 POIN2	seq_065_10 + 0x76
	BYTE	PATT
	 POIN2	seq_065_10 + 0x87
	BYTE	PATT
	 POIN2	seq_065_10 + 0x46
	BYTE	PATT
	 POIN2	seq_065_10 + 0x15
	BYTE	PATT
	 POIN2	seq_065_10 + 0x23
	BYTE	PATT
	 POIN2	seq_065_10 + 0x33
	BYTE	PATT
	 POIN2	seq_065_10 + 0x46
	BYTE	PATT
	 POIN2	seq_065_10 + 0x15
	BYTE	PATT
	 POIN2	seq_065_10 + 0x23
	BYTE	PATT
	 POIN2	seq_065_10 + 0x33
	BYTE	PATT
	 POIN2	seq_065_10 + 0x5F
	BYTE	PATT
	 POIN2	seq_065_10 + 0x69
	BYTE	PATT
	 POIN2	seq_065_10 + 0x76
	BYTE	PATT
	 POIN2	seq_065_10 + 0x87
	BYTE	PATT
	 POIN2	seq_065_10 + 0x5F
	BYTE	PATT
	 POIN2	seq_065_10 + 0x69
	BYTE	PATT
	 POIN2	seq_065_10 + 0x76
	BYTE	PATT
	 POIN2	seq_065_10 + 0x1A1
	BYTE	W96
	BYTE	W96
	BYTE	W96
	BYTE	W96
	BYTE	W96
	BYTE	W96
	BYTE	W96
	BYTE	W96
	BYTE	W96
	BYTE	W96
	BYTE	W96
	BYTE	W96
	BYTE	W96
	BYTE	W96
	BYTE	W96
	BYTE	W96
	BYTE	W96
	BYTE	W96
	BYTE	W96
	BYTE	W96
	BYTE	W96
	BYTE	W96
	BYTE	W96
	BYTE	W96
	BYTE	W96
	BYTE	W96
	BYTE	W96
	BYTE	W96
	BYTE	W96
	BYTE	W96
	BYTE	W96
	BYTE	W96
	BYTE	W96
	BYTE	W96
	BYTE	W96
	BYTE	W96
	BYTE	GoTo
	 POIN2	seq_065_10 + 0x298
	BYTE	W07
	BYTE	FINE

//*********************** Track 12 ***********************//

seq_065_11:
	BYTE	KEYSH   seq_065_key+0
	BYTE	W03
	BYTE	W96
	BYTE	W96
	BYTE	W96
	BYTE	W96
	BYTE	W96
	BYTE	W96
	BYTE	W96
	BYTE	W96
	BYTE	W96
	BYTE	W96
	BYTE	W96
	BYTE	W96
	BYTE	W96
	BYTE	W96
	BYTE	W96
	BYTE	W96
	BYTE	W96
	BYTE	W96
	BYTE	W96
	BYTE	W96
	BYTE	W96
	BYTE	W96
	BYTE	W96
	BYTE	W96
	BYTE	W96
	BYTE	W96
	BYTE	W96
	BYTE	W96
	BYTE	W96
	BYTE	W96
	BYTE	W96
	BYTE	W96
	BYTE	W96
	BYTE	W96
	BYTE	W96
	BYTE	W96
	BYTE	W96
	BYTE	W96
	BYTE	W96
	BYTE	W96
	BYTE	W96
	BYTE	W96
	BYTE	W96
	BYTE	W96
	BYTE	W96
	BYTE	W96
	BYTE	W96
	BYTE	W96
	BYTE	W96
	BYTE	W96
	BYTE	W96
	BYTE	W96
	BYTE	W96
	BYTE	W96
	BYTE	W96
	BYTE	W96
	BYTE	W96
	BYTE	W96
	BYTE	W96
	BYTE	W96
	BYTE	W96
	BYTE	W96
	BYTE	W96
	BYTE	W96
	BYTE	W96
	BYTE	W96
	BYTE	W96
	BYTE	W96
	BYTE	W96
	BYTE	W96
	BYTE	W96
	BYTE	W96
	BYTE	W96
	BYTE	W96
	BYTE	W96
	BYTE	W96
	BYTE	W96
	BYTE	W96
	BYTE	W96
	BYTE	W96
	BYTE	W96
	BYTE	W96
	BYTE	W96
	BYTE	W96
	BYTE	W96
	BYTE	W96
	BYTE	W96
	BYTE	W84
	BYTE	W02
	BYTE		VOICE   61
	BYTE	W01
	BYTE		PAN     c_v+63
	BYTE	W01
	BYTE	W08
	BYTE	W02
	BYTE		VOL     53*seq_065_mvl/mxv
	BYTE	W03
	BYTE		N48     En3   v016
	BYTE	W03
	BYTE		VOL     55*seq_065_mvl/mxv
	BYTE	W03
	BYTE		        57*seq_065_mvl/mxv
	BYTE	W03
	BYTE		        59*seq_065_mvl/mxv
	BYTE	W03
	BYTE		        63*seq_065_mvl/mxv
	BYTE	W03
	BYTE		        67*seq_065_mvl/mxv
	BYTE	W03
	BYTE		        70*seq_065_mvl/mxv
	BYTE	W30
	BYTE		N48     Gn3 
	BYTE	W42
	BYTE	W01
	BYTE	W05
	BYTE		N48     Fs3   v016
	BYTE	W48
	BYTE		        Dn3 
	BYTE	W42
	BYTE	W01
	BYTE	PEND
	BYTE	W05
	BYTE		N48     Fn3   v016
	BYTE	W48
	BYTE		        Dn3 
	BYTE	W42
	BYTE	W01
	BYTE	PEND
	BYTE	W05
	BYTE		N48     En3   v012
	BYTE	W48
	BYTE		        Cn3 
	BYTE	W42
	BYTE	W01
	BYTE	PEND
	BYTE	W05
	BYTE		N48     En3   v016
	BYTE	W48
	BYTE		        Gn3 
	BYTE	W42
	BYTE	W01
	BYTE	PEND
	BYTE	PATT
	 POIN2	seq_065_11 + 0x7C
	BYTE	W05
	BYTE		N44     Fn3   v016
	BYTE	W48
	BYTE		N48     Dn3 
	BYTE	W42
	BYTE	W01
	BYTE	PEND
	BYTE	W05
	BYTE		VOL     70*seq_065_mvl/mxv
	BYTE		N92     En3 
	BYTE	W03
	BYTE		VOL     71*seq_065_mvl/mxv
	BYTE	W03
	BYTE		        72*seq_065_mvl/mxv
	BYTE	W03
	BYTE		        72*seq_065_mvl/mxv
	BYTE	W06
	BYTE		        74*seq_065_mvl/mxv
	BYTE	W03
	BYTE		        75*seq_065_mvl/mxv
	BYTE	W03
	BYTE		        76*seq_065_mvl/mxv
	BYTE	W03
	BYTE		        80*seq_065_mvl/mxv
	BYTE	W09
	BYTE		        79*seq_065_mvl/mxv
	BYTE	W03
	BYTE		        78*seq_065_mvl/mxv
	BYTE	W03
	BYTE		        77*seq_065_mvl/mxv
	BYTE	W03
	BYTE		        75*seq_065_mvl/mxv
	BYTE	W03
	BYTE		        72*seq_065_mvl/mxv
	BYTE	W03
	BYTE		        70*seq_065_mvl/mxv
	BYTE	W03
	BYTE		        68*seq_065_mvl/mxv
	BYTE	W03
	BYTE		        65*seq_065_mvl/mxv
	BYTE	W03
	BYTE		        61*seq_065_mvl/mxv
	BYTE	W03
	BYTE		        57*seq_065_mvl/mxv
	BYTE	W03
	BYTE		        53*seq_065_mvl/mxv
	BYTE	W03
	BYTE		        49*seq_065_mvl/mxv
	BYTE	W03
	BYTE		        44*seq_065_mvl/mxv
	BYTE	W03
	BYTE		        39*seq_065_mvl/mxv
	BYTE	W03
	BYTE		        34*seq_065_mvl/mxv
	BYTE	W03
	BYTE		        28*seq_065_mvl/mxv
	BYTE	W03
	BYTE		        22*seq_065_mvl/mxv
	BYTE	W03
	BYTE		        16*seq_065_mvl/mxv
	BYTE	W03
	BYTE		        9*seq_065_mvl/mxv
	BYTE	W03
	BYTE		        3*seq_065_mvl/mxv
	BYTE	W01
	BYTE	W05
	BYTE		VOL     70*seq_065_mvl/mxv
	BYTE		N48     En3   v016
	BYTE	W48
	BYTE		        Gn3 
	BYTE	W42
	BYTE	W01
	BYTE	PEND
	BYTE	PATT
	 POIN2	seq_065_11 + 0x7C
	BYTE	PATT
	 POIN2	seq_065_11 + 0xA5
	BYTE	PATT
	 POIN2	seq_065_11 + 0x8E
	BYTE	PATT
	 POIN2	seq_065_11 + 0x97
	BYTE	PATT
	 POIN2	seq_065_11 + 0x7C
	BYTE	PATT
	 POIN2	seq_065_11 + 0xA5
	BYTE	W05
	BYTE		VOL     70*seq_065_mvl/mxv
	BYTE		TIE     En3   v016
	BYTE	W03
	BYTE		VOL     72*seq_065_mvl/mxv
	BYTE	W15
	BYTE		        72*seq_065_mvl/mxv
	BYTE	W03
	BYTE		        73*seq_065_mvl/mxv
	BYTE	W06
	BYTE		        74*seq_065_mvl/mxv
	BYTE	W03
	BYTE		        75*seq_065_mvl/mxv
	BYTE	W06
	BYTE		        76*seq_065_mvl/mxv
	BYTE	W06
	BYTE		        77*seq_065_mvl/mxv
	BYTE	W03
	BYTE		        78*seq_065_mvl/mxv
	BYTE	W03
	BYTE		        79*seq_065_mvl/mxv
	BYTE	W03
	BYTE		        80*seq_065_mvl/mxv
	BYTE	W03
	BYTE		        81*seq_065_mvl/mxv
	BYTE	W03
	BYTE		        81*seq_065_mvl/mxv
	BYTE	W03
	BYTE		        81*seq_065_mvl/mxv
	BYTE	W12
	BYTE		        80*seq_065_mvl/mxv
	BYTE	W06
	BYTE		        78*seq_065_mvl/mxv
	BYTE	W03
	BYTE		        77*seq_065_mvl/mxv
	BYTE	W03
	BYTE		        76*seq_065_mvl/mxv
	BYTE	W03
	BYTE		        75*seq_065_mvl/mxv
	BYTE	W03
	BYTE		        72*seq_065_mvl/mxv
	BYTE	W01
	BYTE	W02
	BYTE		        70*seq_065_mvl/mxv
	BYTE	W03
	BYTE		        68*seq_065_mvl/mxv
	BYTE	W03
	BYTE		        67*seq_065_mvl/mxv
	BYTE	W03
	BYTE		        64*seq_065_mvl/mxv
	BYTE	W03
	BYTE		        61*seq_065_mvl/mxv
	BYTE	W03
	BYTE		        59*seq_065_mvl/mxv
	BYTE	W03
	BYTE		        56*seq_065_mvl/mxv
	BYTE	W03
	BYTE		        53*seq_065_mvl/mxv
	BYTE	W03
	BYTE		        51*seq_065_mvl/mxv
	BYTE	W03
	BYTE		        49*seq_065_mvl/mxv
	BYTE	W03
	BYTE		        47*seq_065_mvl/mxv
	BYTE	W03
	BYTE		        45*seq_065_mvl/mxv
	BYTE	W03
	BYTE		        43*seq_065_mvl/mxv
	BYTE	W03
	BYTE		        41*seq_065_mvl/mxv
	BYTE	W03
	BYTE		        39*seq_065_mvl/mxv
	BYTE	W03
	BYTE		        37*seq_065_mvl/mxv
	BYTE	W03
	BYTE		        35*seq_065_mvl/mxv
	BYTE	W03
	BYTE		        34*seq_065_mvl/mxv
	BYTE	W03
	BYTE		        31*seq_065_mvl/mxv
	BYTE	W03
	BYTE		        29*seq_065_mvl/mxv
	BYTE	W03
	BYTE		        27*seq_065_mvl/mxv
	BYTE	W03
	BYTE		        26*seq_065_mvl/mxv
	BYTE	W03
	BYTE		        24*seq_065_mvl/mxv
	BYTE	W03
	BYTE		        21*seq_065_mvl/mxv
	BYTE	W03
	BYTE		        19*seq_065_mvl/mxv
	BYTE	W03
	BYTE		        18*seq_065_mvl/mxv
	BYTE	W03
	BYTE		        16*seq_065_mvl/mxv
	BYTE	W03
	BYTE		        14*seq_065_mvl/mxv
	BYTE	W03
	BYTE		        10*seq_065_mvl/mxv
	BYTE	W03
	BYTE		        6*seq_065_mvl/mxv
	BYTE	W03
	BYTE		        2*seq_065_mvl/mxv
	BYTE	W03
	BYTE		        0*seq_065_mvl/mxv
	BYTE	W01
	BYTE	W03
	BYTE		EOT
	BYTE	W92
	BYTE	W01
	BYTE	W96
	BYTE	W96
	BYTE	W96
	BYTE	W96
	BYTE	W96
	BYTE	W96
	BYTE	W96
	BYTE	W96
	BYTE	W96
	BYTE	W96
	BYTE	W96
	BYTE	W96
	BYTE	W96
	BYTE	W96
	BYTE	W96
	BYTE	W96
	BYTE	W96
	BYTE	W96
	BYTE	W96
	BYTE	W96
	BYTE	W96
	BYTE	W96
	BYTE	W96
	BYTE	W96
	BYTE	W96
	BYTE	W96
	BYTE	W96
	BYTE	W96
	BYTE	W96
	BYTE	W96
	BYTE	W72
	BYTE	W03
	BYTE	W01
	BYTE		VOL     70*seq_065_mvl/mxv
	BYTE	W01
	BYTE		N06     An2   v020
	BYTE	W06
	BYTE		        Bn2   v016
	BYTE	W06
	BYTE		        Cn3   v020
	BYTE	W06
	BYTE		        Dn3   v016
	BYTE	W01
	BYTE	PATT
	 POIN2	seq_065_11 + 0x97
	BYTE	PATT
	 POIN2	seq_065_11 + 0x7C
	BYTE	PATT
	 POIN2	seq_065_11 + 0x85
	BYTE	PATT
	 POIN2	seq_065_11 + 0x8E
	BYTE	PATT
	 POIN2	seq_065_11 + 0x97
	BYTE	PATT
	 POIN2	seq_065_11 + 0x7C
	BYTE	PATT
	 POIN2	seq_065_11 + 0x85
	BYTE	W05
	BYTE		N92     En3   v012
	BYTE	W03
	BYTE		VOL     71*seq_065_mvl/mxv
	BYTE	W03
	BYTE		        72*seq_065_mvl/mxv
	BYTE	W03
	BYTE		        72*seq_065_mvl/mxv
	BYTE	W06
	BYTE		        74*seq_065_mvl/mxv
	BYTE	W03
	BYTE		        75*seq_065_mvl/mxv
	BYTE	W03
	BYTE		        76*seq_065_mvl/mxv
	BYTE	W03
	BYTE		        80*seq_065_mvl/mxv
	BYTE	W09
	BYTE		        79*seq_065_mvl/mxv
	BYTE	W03
	BYTE		        78*seq_065_mvl/mxv
	BYTE	W03
	BYTE		        77*seq_065_mvl/mxv
	BYTE	W03
	BYTE		        75*seq_065_mvl/mxv
	BYTE	W03
	BYTE		        72*seq_065_mvl/mxv
	BYTE	W03
	BYTE		        70*seq_065_mvl/mxv
	BYTE	W03
	BYTE		        68*seq_065_mvl/mxv
	BYTE	W03
	BYTE		        65*seq_065_mvl/mxv
	BYTE	W03
	BYTE		        61*seq_065_mvl/mxv
	BYTE	W03
	BYTE		        57*seq_065_mvl/mxv
	BYTE	W03
	BYTE		        53*seq_065_mvl/mxv
	BYTE	W03
	BYTE		        49*seq_065_mvl/mxv
	BYTE	W03
	BYTE		        44*seq_065_mvl/mxv
	BYTE	W03
	BYTE		        39*seq_065_mvl/mxv
	BYTE	W03
	BYTE		        34*seq_065_mvl/mxv
	BYTE	W03
	BYTE		        28*seq_065_mvl/mxv
	BYTE	W03
	BYTE		        22*seq_065_mvl/mxv
	BYTE	W03
	BYTE		        16*seq_065_mvl/mxv
	BYTE	W03
	BYTE		        9*seq_065_mvl/mxv
	BYTE	W03
	BYTE		        3*seq_065_mvl/mxv
	BYTE	W01
	BYTE	PATT
	 POIN2	seq_065_11 + 0xEC
	BYTE	PATT
	 POIN2	seq_065_11 + 0x7C
	BYTE	PATT
	 POIN2	seq_065_11 + 0x85
	BYTE	PATT
	 POIN2	seq_065_11 + 0x8E
	BYTE	PATT
	 POIN2	seq_065_11 + 0x97
	BYTE	PATT
	 POIN2	seq_065_11 + 0x7C
	BYTE	PATT
	 POIN2	seq_065_11 + 0x85
	BYTE	W05
	BYTE		N96     En3   v016
	BYTE	W09
	BYTE		VOL     71*seq_065_mvl/mxv
	BYTE	W12
	BYTE		        72*seq_065_mvl/mxv
	BYTE	W09
	BYTE		        72*seq_065_mvl/mxv
	BYTE	W03
	BYTE		        73*seq_065_mvl/mxv
	BYTE	W06
	BYTE		        74*seq_065_mvl/mxv
	BYTE	W03
	BYTE		        75*seq_065_mvl/mxv
	BYTE	W06
	BYTE		        75*seq_065_mvl/mxv
	BYTE	W03
	BYTE		        77*seq_065_mvl/mxv
	BYTE	W03
	BYTE		        78*seq_065_mvl/mxv
	BYTE	W06
	BYTE		        77*seq_065_mvl/mxv
	BYTE	W03
	BYTE		        75*seq_065_mvl/mxv
	BYTE	W03
	BYTE		        73*seq_065_mvl/mxv
	BYTE	W03
	BYTE		        70*seq_065_mvl/mxv
	BYTE	W03
	BYTE		        67*seq_065_mvl/mxv
	BYTE	W03
	BYTE		        62*seq_065_mvl/mxv
	BYTE	W03
	BYTE		        56*seq_065_mvl/mxv
	BYTE	W03
	BYTE		        48*seq_065_mvl/mxv
	BYTE	W03
	BYTE		        41*seq_065_mvl/mxv
	BYTE	W03
	BYTE		        31*seq_065_mvl/mxv
	BYTE	W01
	BYTE		        26*seq_065_mvl/mxv
	BYTE	W02
	BYTE		        19*seq_065_mvl/mxv
	BYTE	W01
	BYTE		        14*seq_065_mvl/mxv
	BYTE	W02
	BYTE		        9*seq_065_mvl/mxv
	BYTE	W01
	BYTE		        3*seq_065_mvl/mxv
	BYTE	W02
	BYTE		        70*seq_065_mvl/mxv
	BYTE		N96     Cn3 
	BYTE	W06
	BYTE		VOL     71*seq_065_mvl/mxv
	BYTE	W03
	BYTE		        72*seq_065_mvl/mxv
	BYTE	W09
	BYTE		        73*seq_065_mvl/mxv
	BYTE	W03
	BYTE		        74*seq_065_mvl/mxv
	BYTE	W03
	BYTE		        75*seq_065_mvl/mxv
	BYTE	W03
	BYTE		        76*seq_065_mvl/mxv
	BYTE	W03
	BYTE		        77*seq_065_mvl/mxv
	BYTE	W03
	BYTE		        79*seq_065_mvl/mxv
	BYTE	W03
	BYTE		        81*seq_065_mvl/mxv
	BYTE	W03
	BYTE		        83*seq_065_mvl/mxv
	BYTE	W03
	BYTE		        85*seq_065_mvl/mxv
	BYTE	W09
	BYTE		        85*seq_065_mvl/mxv
	BYTE	W09
	BYTE		        84*seq_065_mvl/mxv
	BYTE	W03
	BYTE		        83*seq_065_mvl/mxv
	BYTE	W03
	BYTE		        82*seq_065_mvl/mxv
	BYTE	W03
	BYTE		        81*seq_065_mvl/mxv
	BYTE	W03
	BYTE		        79*seq_065_mvl/mxv
	BYTE	W03
	BYTE		        77*seq_065_mvl/mxv
	BYTE	W03
	BYTE		        75*seq_065_mvl/mxv
	BYTE	W03
	BYTE		        73*seq_065_mvl/mxv
	BYTE	W03
	BYTE		        70*seq_065_mvl/mxv
	BYTE	W03
	BYTE		        68*seq_065_mvl/mxv
	BYTE	W03
	BYTE		        65*seq_065_mvl/mxv
	BYTE	W01
	BYTE	W02
	BYTE		VOL     63*seq_065_mvl/mxv
	BYTE	W03
	BYTE		        72*seq_065_mvl/mxv
	BYTE		N96     Dn3   v016
	BYTE	W06
	BYTE		VOL     72*seq_065_mvl/mxv
	BYTE	W03
	BYTE		        73*seq_065_mvl/mxv
	BYTE	W03
	BYTE		        75*seq_065_mvl/mxv
	BYTE	W03
	BYTE		        76*seq_065_mvl/mxv
	BYTE	W03
	BYTE		        77*seq_065_mvl/mxv
	BYTE	W03
	BYTE		        80*seq_065_mvl/mxv
	BYTE	W03
	BYTE		        84*seq_065_mvl/mxv
	BYTE	W09
	BYTE		        82*seq_065_mvl/mxv
	BYTE	W06
	BYTE		        81*seq_065_mvl/mxv
	BYTE	W03
	BYTE		        80*seq_065_mvl/mxv
	BYTE	W03
	BYTE		        79*seq_065_mvl/mxv
	BYTE	W03
	BYTE		        77*seq_065_mvl/mxv
	BYTE	W03
	BYTE		        75*seq_065_mvl/mxv
	BYTE	W03
	BYTE		        73*seq_065_mvl/mxv
	BYTE	W03
	BYTE		        71*seq_065_mvl/mxv
	BYTE	W03
	BYTE		        69*seq_065_mvl/mxv
	BYTE	W03
	BYTE		        66*seq_065_mvl/mxv
	BYTE	W03
	BYTE		        63*seq_065_mvl/mxv
	BYTE	W03
	BYTE		        60*seq_065_mvl/mxv
	BYTE	W03
	BYTE		        57*seq_065_mvl/mxv
	BYTE	W03
	BYTE		        53*seq_065_mvl/mxv
	BYTE	W03
	BYTE		        50*seq_065_mvl/mxv
	BYTE	W03
	BYTE		        46*seq_065_mvl/mxv
	BYTE	W03
	BYTE		        42*seq_065_mvl/mxv
	BYTE	W03
	BYTE		        38*seq_065_mvl/mxv
	BYTE	W03
	BYTE		        34*seq_065_mvl/mxv
	BYTE	W01
	BYTE	PEND
	BYTE	W05
	BYTE		VOL     70*seq_065_mvl/mxv
	BYTE		N96     Cn3   v016
	BYTE	W06
	BYTE		VOL     71*seq_065_mvl/mxv
	BYTE	W03
	BYTE		        72*seq_065_mvl/mxv
	BYTE	W09
	BYTE		        73*seq_065_mvl/mxv
	BYTE	W03
	BYTE		        74*seq_065_mvl/mxv
	BYTE	W03
	BYTE		        75*seq_065_mvl/mxv
	BYTE	W03
	BYTE		        76*seq_065_mvl/mxv
	BYTE	W03
	BYTE		        77*seq_065_mvl/mxv
	BYTE	W03
	BYTE		        79*seq_065_mvl/mxv
	BYTE	W03
	BYTE		        81*seq_065_mvl/mxv
	BYTE	W03
	BYTE		        83*seq_065_mvl/mxv
	BYTE	W03
	BYTE		        85*seq_065_mvl/mxv
	BYTE	W09
	BYTE		        85*seq_065_mvl/mxv
	BYTE	W09
	BYTE		        84*seq_065_mvl/mxv
	BYTE	W03
	BYTE		        83*seq_065_mvl/mxv
	BYTE	W03
	BYTE		        82*seq_065_mvl/mxv
	BYTE	W03
	BYTE		        81*seq_065_mvl/mxv
	BYTE	W03
	BYTE		        79*seq_065_mvl/mxv
	BYTE	W03
	BYTE		        77*seq_065_mvl/mxv
	BYTE	W03
	BYTE		        75*seq_065_mvl/mxv
	BYTE	W03
	BYTE		        73*seq_065_mvl/mxv
	BYTE	W03
	BYTE		        70*seq_065_mvl/mxv
	BYTE	W03
	BYTE		        68*seq_065_mvl/mxv
	BYTE	W03
	BYTE		        65*seq_065_mvl/mxv
	BYTE	W01
	BYTE	PEND
	BYTE	PATT
	 POIN2	seq_065_11 + 0x2A4
	BYTE	PATT
	 POIN2	seq_065_11 + 0x2E3
	BYTE	PATT
	 POIN2	seq_065_11 + 0x2A4
	BYTE	PATT
	 POIN2	seq_065_11 + 0x2E3
	BYTE	W02
	BYTE		VOL     63*seq_065_mvl/mxv
	BYTE	W03
	BYTE		        72*seq_065_mvl/mxv
	BYTE		N96     Dn3   v016
	BYTE	W03
	BYTE		VOL     75*seq_065_mvl/mxv
	BYTE	W03
	BYTE		        77*seq_065_mvl/mxv
	BYTE	W03
	BYTE		        82*seq_065_mvl/mxv
	BYTE	W06
	BYTE		        80*seq_065_mvl/mxv
	BYTE	W03
	BYTE		        76*seq_065_mvl/mxv
	BYTE	W03
	BYTE		        72*seq_065_mvl/mxv
	BYTE	W03
	BYTE		        66*seq_065_mvl/mxv
	BYTE	W03
	BYTE		        62*seq_065_mvl/mxv
	BYTE	W03
	BYTE		        60*seq_065_mvl/mxv
	BYTE	W09
	BYTE		        60*seq_065_mvl/mxv
	BYTE	W03
	BYTE		        61*seq_065_mvl/mxv
	BYTE	W06
	BYTE		        62*seq_065_mvl/mxv
	BYTE	W03
	BYTE		        63*seq_065_mvl/mxv
	BYTE	W03
	BYTE		        64*seq_065_mvl/mxv
	BYTE	W03
	BYTE		        65*seq_065_mvl/mxv
	BYTE	W03
	BYTE		        66*seq_065_mvl/mxv
	BYTE	W03
	BYTE		        68*seq_065_mvl/mxv
	BYTE	W03
	BYTE		        69*seq_065_mvl/mxv
	BYTE	W03
	BYTE		        70*seq_065_mvl/mxv
	BYTE	W03
	BYTE		        72*seq_065_mvl/mxv
	BYTE	W03
	BYTE		        74*seq_065_mvl/mxv
	BYTE	W03
	BYTE		        76*seq_065_mvl/mxv
	BYTE	W03
	BYTE		        78*seq_065_mvl/mxv
	BYTE	W03
	BYTE		        80*seq_065_mvl/mxv
	BYTE	W03
	BYTE		        80*seq_065_mvl/mxv
	BYTE	W03
	BYTE		        79*seq_065_mvl/mxv
	BYTE	W01
	BYTE	W02
	BYTE		        76*seq_065_mvl/mxv
	BYTE	W03
	BYTE		        70*seq_065_mvl/mxv
	BYTE		TIE     En3   v012
	BYTE	W03
	BYTE		VOL     72*seq_065_mvl/mxv
	BYTE	W03
	BYTE		        72*seq_065_mvl/mxv
	BYTE	W12
	BYTE		        73*seq_065_mvl/mxv
	BYTE	W09
	BYTE		        74*seq_065_mvl/mxv
	BYTE	W06
	BYTE		        75*seq_065_mvl/mxv
	BYTE	W06
	BYTE		        76*seq_065_mvl/mxv
	BYTE	W06
	BYTE		        77*seq_065_mvl/mxv
	BYTE	W03
	BYTE		        77*seq_065_mvl/mxv
	BYTE	W03
	BYTE		        78*seq_065_mvl/mxv
	BYTE	W03
	BYTE		        79*seq_065_mvl/mxv
	BYTE	W03
	BYTE		        80*seq_065_mvl/mxv
	BYTE	W03
	BYTE		        80*seq_065_mvl/mxv
	BYTE	W03
	BYTE		        81*seq_065_mvl/mxv
	BYTE	W03
	BYTE		        82*seq_065_mvl/mxv
	BYTE	W03
	BYTE		        83*seq_065_mvl/mxv
	BYTE	W03
	BYTE		        84*seq_065_mvl/mxv
	BYTE	W03
	BYTE		        85*seq_065_mvl/mxv
	BYTE	W15
	BYTE		        84*seq_065_mvl/mxv
	BYTE	W01
	BYTE	W14
	BYTE		        83*seq_065_mvl/mxv
	BYTE	W03
	BYTE		        82*seq_065_mvl/mxv
	BYTE	W03
	BYTE		        82*seq_065_mvl/mxv
	BYTE	W03
	BYTE		        81*seq_065_mvl/mxv
	BYTE	W03
	BYTE		        80*seq_065_mvl/mxv
	BYTE	W03
	BYTE		        80*seq_065_mvl/mxv
	BYTE	W03
	BYTE		        79*seq_065_mvl/mxv
	BYTE	W03
	BYTE		        77*seq_065_mvl/mxv
	BYTE	W03
	BYTE		        76*seq_065_mvl/mxv
	BYTE	W03
	BYTE		        75*seq_065_mvl/mxv
	BYTE	W03
	BYTE		        74*seq_065_mvl/mxv
	BYTE	W03
	BYTE		        72*seq_065_mvl/mxv
	BYTE	W03
	BYTE		        70*seq_065_mvl/mxv
	BYTE	W03
	BYTE		        69*seq_065_mvl/mxv
	BYTE	W03
	BYTE		        68*seq_065_mvl/mxv
	BYTE	W03
	BYTE		        65*seq_065_mvl/mxv
	BYTE	W03
	BYTE		        63*seq_065_mvl/mxv
	BYTE	W03
	BYTE		        61*seq_065_mvl/mxv
	BYTE	W03
	BYTE		        60*seq_065_mvl/mxv
	BYTE	W03
	BYTE		        58*seq_065_mvl/mxv
	BYTE	W03
	BYTE		        55*seq_065_mvl/mxv
	BYTE	W03
	BYTE		        52*seq_065_mvl/mxv
	BYTE	W03
	BYTE		        50*seq_065_mvl/mxv
	BYTE	W03
	BYTE		        47*seq_065_mvl/mxv
	BYTE	W03
	BYTE		        45*seq_065_mvl/mxv
	BYTE	W03
	BYTE		        42*seq_065_mvl/mxv
	BYTE	W03
	BYTE		        39*seq_065_mvl/mxv
	BYTE	W03
	BYTE		        36*seq_065_mvl/mxv
	BYTE	W01
	BYTE	W02
	BYTE		        33*seq_065_mvl/mxv
	BYTE	W03
	BYTE		EOT
	BYTE		VOL     70*seq_065_mvl/mxv
	BYTE		TIE     Ds3 
	BYTE	W03
	BYTE		VOL     72*seq_065_mvl/mxv
	BYTE	W03
	BYTE		        72*seq_065_mvl/mxv
	BYTE	W12
	BYTE		        73*seq_065_mvl/mxv
	BYTE	W09
	BYTE		        74*seq_065_mvl/mxv
	BYTE	W06
	BYTE		        75*seq_065_mvl/mxv
	BYTE	W06
	BYTE		        76*seq_065_mvl/mxv
	BYTE	W06
	BYTE		        77*seq_065_mvl/mxv
	BYTE	W03
	BYTE		        77*seq_065_mvl/mxv
	BYTE	W03
	BYTE		        78*seq_065_mvl/mxv
	BYTE	W03
	BYTE		        79*seq_065_mvl/mxv
	BYTE	W03
	BYTE		        80*seq_065_mvl/mxv
	BYTE	W03
	BYTE		        80*seq_065_mvl/mxv
	BYTE	W03
	BYTE		        81*seq_065_mvl/mxv
	BYTE	W03
	BYTE		        82*seq_065_mvl/mxv
	BYTE	W03
	BYTE		        83*seq_065_mvl/mxv
	BYTE	W03
	BYTE		        84*seq_065_mvl/mxv
	BYTE	W03
	BYTE		        85*seq_065_mvl/mxv
	BYTE	W15
	BYTE		        85*seq_065_mvl/mxv
	BYTE	W01
	BYTE	W08
	BYTE		        84*seq_065_mvl/mxv
	BYTE	W06
	BYTE		        83*seq_065_mvl/mxv
	BYTE	W03
	BYTE		        82*seq_065_mvl/mxv
	BYTE	W03
	BYTE		        82*seq_065_mvl/mxv
	BYTE	W03
	BYTE		        81*seq_065_mvl/mxv
	BYTE	W03
	BYTE		        80*seq_065_mvl/mxv
	BYTE	W03
	BYTE		        79*seq_065_mvl/mxv
	BYTE	W03
	BYTE		        77*seq_065_mvl/mxv
	BYTE	W03
	BYTE		        76*seq_065_mvl/mxv
	BYTE	W03
	BYTE		        75*seq_065_mvl/mxv
	BYTE	W03
	BYTE		        73*seq_065_mvl/mxv
	BYTE	W03
	BYTE		        72*seq_065_mvl/mxv
	BYTE	W03
	BYTE		        70*seq_065_mvl/mxv
	BYTE	W03
	BYTE		        68*seq_065_mvl/mxv
	BYTE	W03
	BYTE		        66*seq_065_mvl/mxv
	BYTE	W03
	BYTE		        64*seq_065_mvl/mxv
	BYTE	W03
	BYTE		        61*seq_065_mvl/mxv
	BYTE	W03
	BYTE		        59*seq_065_mvl/mxv
	BYTE	W03
	BYTE		        57*seq_065_mvl/mxv
	BYTE	W03
	BYTE		        54*seq_065_mvl/mxv
	BYTE	W03
	BYTE		        51*seq_065_mvl/mxv
	BYTE	W03
	BYTE		        48*seq_065_mvl/mxv
	BYTE	W03
	BYTE		        46*seq_065_mvl/mxv
	BYTE	W03
	BYTE		        43*seq_065_mvl/mxv
	BYTE	W03
	BYTE		        39*seq_065_mvl/mxv
	BYTE	W03
	BYTE		        36*seq_065_mvl/mxv
	BYTE	W03
	BYTE		        33*seq_065_mvl/mxv
	BYTE	W03
	BYTE		        29*seq_065_mvl/mxv
	BYTE	W03
	BYTE		        26*seq_065_mvl/mxv
	BYTE	W01
	BYTE	W02
	BYTE		VOL     21*seq_065_mvl/mxv
	BYTE	W03
	BYTE		EOT     Ds3 
	BYTE		VOL     70*seq_065_mvl/mxv
	BYTE		N06     En3   v020
	BYTE	W06
	BYTE		        Dn3   v016
	BYTE	W06
	BYTE		        Cn3   v020
	BYTE	W06
	BYTE		        Bn2   v016
	BYTE	W06
	BYTE		        En3 
	BYTE	W06
	BYTE		        Dn3 
	BYTE	W06
	BYTE		        Cn3 
	BYTE	W06
	BYTE		        Bn2 
	BYTE	W06
	BYTE		        En3 
	BYTE	W06
	BYTE		        Dn3 
	BYTE	W06
	BYTE		        Cn3 
	BYTE	W06
	BYTE		        Bn2 
	BYTE	W06
	BYTE		        En3 
	BYTE	W06
	BYTE		        Dn3 
	BYTE	W06
	BYTE		        Cn3 
	BYTE	W06
	BYTE		        Bn2   v012
	BYTE	W01
	BYTE	W05
	BYTE		N06     En3   v016
	BYTE	W06
	BYTE		        Dn3 
	BYTE	W06
	BYTE		        Cn3 
	BYTE	W06
	BYTE		        Bn2 
	BYTE	W06
	BYTE		        En3 
	BYTE	W06
	BYTE		        Dn3   v012
	BYTE	W06
	BYTE		        Cn3   v016
	BYTE	W06
	BYTE		        Bn2   v012
	BYTE	W06
	BYTE		        En3   v016
	BYTE	W06
	BYTE		        Dn3   v012
	BYTE	W06
	BYTE		        Cn3   v016
	BYTE	W06
	BYTE		        Bn2   v012
	BYTE	W06
	BYTE		        En3 
	BYTE	W06
	BYTE		        Dn3 
	BYTE	W06
	BYTE		        Cn3 
	BYTE	W06
	BYTE		        Bn2 
	BYTE	W01
	BYTE	PEND
	BYTE	W05
	BYTE		N06     Ds3   v016
	BYTE	W06
	BYTE		        Dn3 
	BYTE	W06
	BYTE		        Cn3 
	BYTE	W06
	BYTE		        As2 
	BYTE	W06
	BYTE		        Ds3 
	BYTE	W06
	BYTE		        Dn3   v012
	BYTE	W06
	BYTE		        Cn3 
	BYTE	W06
	BYTE		        As2 
	BYTE	W06
	BYTE		        Ds3   v016
	BYTE	W06
	BYTE		        Dn3 
	BYTE	W06
	BYTE		        Cn3 
	BYTE	W06
	BYTE		        As2   v012
	BYTE	W06
	BYTE		        Ds3   v016
	BYTE	W06
	BYTE		        Dn3   v012
	BYTE	W06
	BYTE		        Cn3 
	BYTE	W06
	BYTE		        As2 
	BYTE	W01
	BYTE	PEND
	BYTE	W05
	BYTE		N06     Ds3   v016
	BYTE	W06
	BYTE		        Dn3   v012
	BYTE	W06
	BYTE		        Cn3 
	BYTE	W06
	BYTE		        As2 
	BYTE	W06
	BYTE		        Ds3 
	BYTE	W06
	BYTE		        Dn3 
	BYTE	W06
	BYTE		        Cn3 
	BYTE	W06
	BYTE		        As2 
	BYTE	W06
	BYTE		        Ds3 
	BYTE	W06
	BYTE		        Dn3 
	BYTE	W06
	BYTE		        Cn3 
	BYTE	W06
	BYTE		        As2 
	BYTE	W06
	BYTE		        Ds3 
	BYTE	W06
	BYTE		        Dn3 
	BYTE	W06
	BYTE		        Cn3 
	BYTE	W06
	BYTE		        As2   v008
	BYTE	W01
	BYTE	PEND
	BYTE	W05
	BYTE		        En3   v020
	BYTE	W06
	BYTE		        Dn3   v016
	BYTE	W06
	BYTE		        Cn3   v020
	BYTE	W06
	BYTE		        Bn2   v016
	BYTE	W06
	BYTE		        En3 
	BYTE	W06
	BYTE		        Dn3 
	BYTE	W06
	BYTE		        Cn3 
	BYTE	W06
	BYTE		        Bn2 
	BYTE	W06
	BYTE		        En3 
	BYTE	W06
	BYTE		        Dn3 
	BYTE	W06
	BYTE		        Cn3 
	BYTE	W06
	BYTE		        Bn2 
	BYTE	W06
	BYTE		        En3 
	BYTE	W06
	BYTE		        Dn3 
	BYTE	W06
	BYTE		        Cn3 
	BYTE	W06
	BYTE		        Bn2   v012
	BYTE	W01
	BYTE	PATT
	 POIN2	seq_065_11 + 0x469
	BYTE	PATT
	 POIN2	seq_065_11 + 0x494
	BYTE	PATT
	 POIN2	seq_065_11 + 0x4BD
	BYTE	GoTo
	 POIN2	seq_065_11 + 0x43B
	BYTE	W07
	BYTE	FINE

//******************************************************//

	ALIGN 4

seq_065:
	BYTE	12	// NumTrks
	BYTE	0	// NumBlks
	BYTE	seq_065_pri	// Priority
	BYTE	seq_065_rev	// Reverb

	POIN2	seq_065_grp

	POIN2	seq_065_0
	POIN2	seq_065_1
	POIN2	seq_065_2
	POIN2	seq_065_3
	POIN2	seq_065_4
	POIN2	seq_065_5
	POIN2	seq_065_6
	POIN2	seq_065_7
	POIN2	seq_065_8
	POIN2	seq_065_9
	POIN2	seq_065_10
	POIN2	seq_065_11

	
