//Event file generated from Sappy .s format.
// File generated by m4a2s Song-Module
	#include "MPlayDef.event"

	#define	seq_025_grp  bank_000
	#define	seq_025_pri  10
	#define	seq_025_rev  0
	#define	seq_025_mvl  127
	#define	seq_025_key  0

	// .rodata
	//	seq_025
	ALIGN 4

//*********************** Track 01 ***********************//

seq_025_0:
	BYTE	KEYSH   seq_025_key+0
	BYTE	TEMPO   150/2
	BYTE		VOICE   42
	BYTE	W01
	BYTE		VOL     37*seq_025_mvl/mxv
	BYTE	W01
	BYTE		PAN     c_v-19
	BYTE	W01
	BYTE	TEMPO   54/2
	BYTE		N24     Dn3   v040
	BYTE	W03
	BYTE		VOL     44*seq_025_mvl/mxv
	BYTE	W03
	BYTE		        50*seq_025_mvl/mxv
	BYTE	W03
	BYTE		        56*seq_025_mvl/mxv
	BYTE	W15
	BYTE		N24     En3   v032
	BYTE	W24
	BYTE		        Dn3   v044
	BYTE	W24
	BYTE		        En3   v036
	BYTE	W24
	BYTE		        Dn3   v048
	BYTE	W24
	BYTE		        En3   v044
	BYTE	W24
	BYTE		N16     Dn3   v048
	BYTE	W02
	BYTE		VOL     57*seq_025_mvl/mxv
	BYTE	W02
	BYTE		        57*seq_025_mvl/mxv
	BYTE	W02
	BYTE		        59*seq_025_mvl/mxv
	BYTE	W02
	BYTE		        62*seq_025_mvl/mxv
	BYTE	W02
	BYTE		        68*seq_025_mvl/mxv
	BYTE	W02
	BYTE		        73*seq_025_mvl/mxv
	BYTE	W02
	BYTE		        78*seq_025_mvl/mxv
	BYTE	W02
	BYTE		        56*seq_025_mvl/mxv
	BYTE		N08     An3   v040
	BYTE	W08
	BYTE		N16     Gn3   v048
	BYTE	W08
	BYTE		VOL     55*seq_025_mvl/mxv
	BYTE	W02
	BYTE		        53*seq_025_mvl/mxv
	BYTE	W02
	BYTE		        47*seq_025_mvl/mxv
	BYTE	W02
	BYTE		        39*seq_025_mvl/mxv
	BYTE	W02
	BYTE		        56*seq_025_mvl/mxv
	BYTE		N08     En3   v036
	BYTE	W08
	BYTE		N24     Dn3   v052
	BYTE	W10
	BYTE		VOL     58*seq_025_mvl/mxv
	BYTE	W02
	BYTE		        59*seq_025_mvl/mxv
	BYTE	W02
	BYTE		        61*seq_025_mvl/mxv
	BYTE	W02
	BYTE		        63*seq_025_mvl/mxv
	BYTE	W02
	BYTE		        68*seq_025_mvl/mxv
	BYTE	W02
	BYTE		        73*seq_025_mvl/mxv
	BYTE	W04
	BYTE		        56*seq_025_mvl/mxv
	BYTE		N24     En3   v040
	BYTE	W14
	BYTE		VOL     53*seq_025_mvl/mxv
	BYTE	W02
	BYTE		        50*seq_025_mvl/mxv
	BYTE	W02
	BYTE		        45*seq_025_mvl/mxv
	BYTE	W02
	BYTE		        38*seq_025_mvl/mxv
	BYTE	W02
	BYTE		        29*seq_025_mvl/mxv
	BYTE	W02
	BYTE		        56*seq_025_mvl/mxv
	BYTE		N24     Bn2   v032
	BYTE	W04
	BYTE		VOL     57*seq_025_mvl/mxv
	BYTE	W02
	BYTE		        59*seq_025_mvl/mxv
	BYTE	W02
	BYTE		        61*seq_025_mvl/mxv
	BYTE	W02
	BYTE		        65*seq_025_mvl/mxv
	BYTE	W02
	BYTE		        69*seq_025_mvl/mxv
	BYTE	W02
	BYTE		        73*seq_025_mvl/mxv
	BYTE	W01
	BYTE		        71*seq_025_mvl/mxv
	BYTE	W01
	BYTE		        70*seq_025_mvl/mxv
	BYTE	W01
	BYTE		        67*seq_025_mvl/mxv
	BYTE	W01
	BYTE		        61*seq_025_mvl/mxv
	BYTE	W01
	BYTE		        53*seq_025_mvl/mxv
	BYTE	W01
	BYTE		        43*seq_025_mvl/mxv
	BYTE	W01
	BYTE		        31*seq_025_mvl/mxv
	BYTE	W01
	BYTE		        19*seq_025_mvl/mxv
	BYTE	W01
	BYTE		        10*seq_025_mvl/mxv
	BYTE	W01
	BYTE		        4*seq_025_mvl/mxv
	BYTE	W01
	BYTE		        0*seq_025_mvl/mxv
	BYTE	W06
	BYTE		        56*seq_025_mvl/mxv
	BYTE	W01
	BYTE		N08     Dn3   v036
	BYTE	W08
	BYTE		        Cn3   v032
	BYTE	W08
	BYTE		N24     Bn2   v040
	BYTE	W24
	BYTE		N16     Gn2   v044
	BYTE	W12
	BYTE		VOL     54*seq_025_mvl/mxv
	BYTE	W01
	BYTE		        50*seq_025_mvl/mxv
	BYTE	W01
	BYTE		        43*seq_025_mvl/mxv
	BYTE	W01
	BYTE		        30*seq_025_mvl/mxv
	BYTE	W01
	BYTE		        56*seq_025_mvl/mxv
	BYTE		N08     An2   v036
	BYTE	W08
	BYTE		N28     Bn2 
	BYTE	W08
	BYTE		VOL     56*seq_025_mvl/mxv
	BYTE	W02
	BYTE		        55*seq_025_mvl/mxv
	BYTE	W02
	BYTE		        53*seq_025_mvl/mxv
	BYTE	W02
	BYTE		        50*seq_025_mvl/mxv
	BYTE	W02
	BYTE		        46*seq_025_mvl/mxv
	BYTE	W02
	BYTE		        40*seq_025_mvl/mxv
	BYTE	W02
	BYTE		        34*seq_025_mvl/mxv
	BYTE	W01
	BYTE		        30*seq_025_mvl/mxv
	BYTE	W01
	BYTE		        25*seq_025_mvl/mxv
	BYTE	W01
	BYTE		        17*seq_025_mvl/mxv
	BYTE	W01
	BYTE		        10*seq_025_mvl/mxv
	BYTE	W01
	BYTE		        5*seq_025_mvl/mxv
	BYTE	W01
	BYTE		        1*seq_025_mvl/mxv
	BYTE	W01
	BYTE		        0*seq_025_mvl/mxv
	BYTE	W03
	BYTE		        56*seq_025_mvl/mxv
	BYTE	W18
	BYTE	PEND
	BYTE		N24     Dn3   v040
	BYTE	W24
	BYTE		        En3   v032
	BYTE	W24
	BYTE		        Dn3   v044
	BYTE	W24
	BYTE		        En3   v036
	BYTE	W24
	BYTE		        Dn3   v048
	BYTE	W24
	BYTE		        En3   v044
	BYTE	W24
	BYTE		N16     Dn3   v048
	BYTE	W02
	BYTE		VOL     57*seq_025_mvl/mxv
	BYTE	W02
	BYTE		        57*seq_025_mvl/mxv
	BYTE	W02
	BYTE		        59*seq_025_mvl/mxv
	BYTE	W02
	BYTE		        62*seq_025_mvl/mxv
	BYTE	W02
	BYTE		        68*seq_025_mvl/mxv
	BYTE	W02
	BYTE		        73*seq_025_mvl/mxv
	BYTE	W02
	BYTE		        78*seq_025_mvl/mxv
	BYTE	W02
	BYTE		        56*seq_025_mvl/mxv
	BYTE		N08     An3   v040
	BYTE	W08
	BYTE		N16     Gn3   v048
	BYTE	W16
	BYTE		N08     En3   v036
	BYTE	W08
	BYTE		N24     Dn3   v052
	BYTE	W24
	BYTE		        En3   v040
	BYTE	W24
	BYTE		        Bn2   v032
	BYTE	W04
	BYTE		VOL     57*seq_025_mvl/mxv
	BYTE	W02
	BYTE		        59*seq_025_mvl/mxv
	BYTE	W02
	BYTE		        61*seq_025_mvl/mxv
	BYTE	W02
	BYTE		        65*seq_025_mvl/mxv
	BYTE	W02
	BYTE		        69*seq_025_mvl/mxv
	BYTE	W02
	BYTE		        73*seq_025_mvl/mxv
	BYTE	W01
	BYTE		        71*seq_025_mvl/mxv
	BYTE	W01
	BYTE		        70*seq_025_mvl/mxv
	BYTE	W01
	BYTE		        67*seq_025_mvl/mxv
	BYTE	W01
	BYTE		        61*seq_025_mvl/mxv
	BYTE	W01
	BYTE		        53*seq_025_mvl/mxv
	BYTE	W01
	BYTE		        43*seq_025_mvl/mxv
	BYTE	W01
	BYTE		        31*seq_025_mvl/mxv
	BYTE	W01
	BYTE		        19*seq_025_mvl/mxv
	BYTE	W01
	BYTE		        10*seq_025_mvl/mxv
	BYTE	W01
	BYTE		        4*seq_025_mvl/mxv
	BYTE	W01
	BYTE		        0*seq_025_mvl/mxv
	BYTE	W06
	BYTE		        56*seq_025_mvl/mxv
	BYTE	W01
	BYTE		N08     Dn3   v036
	BYTE	W08
	BYTE		        Cn3   v032
	BYTE	W08
	BYTE	PATT
	 POIN2	seq_025_0 + 0xA6
	BYTE		N24     En3   v044
	BYTE	W24
	BYTE		        Fn3 
	BYTE	W24
	BYTE		        En3   v052
	BYTE	W24
	BYTE		        Fn3   v048
	BYTE	W24
	BYTE		N24     En3   v056
	BYTE	W24
	BYTE		        Fn3   v052
	BYTE	W24
	BYTE		N16     Dn3   v056
	BYTE	W02
	BYTE		VOL     57*seq_025_mvl/mxv
	BYTE	W02
	BYTE		        58*seq_025_mvl/mxv
	BYTE	W02
	BYTE		        61*seq_025_mvl/mxv
	BYTE	W02
	BYTE		        64*seq_025_mvl/mxv
	BYTE	W02
	BYTE		        69*seq_025_mvl/mxv
	BYTE	W02
	BYTE		        72*seq_025_mvl/mxv
	BYTE	W04
	BYTE		        56*seq_025_mvl/mxv
	BYTE		N08     Fn3   v048
	BYTE	W08
	BYTE		N16     En3   v056
	BYTE	W16
	BYTE		N08     Dn3   v048
	BYTE	W08
	BYTE	PEND
	BYTE		N52     En3   v040
	BYTE	W02
	BYTE		VOL     57*seq_025_mvl/mxv
	BYTE	W04
	BYTE		        59*seq_025_mvl/mxv
	BYTE	W04
	BYTE		        61*seq_025_mvl/mxv
	BYTE	W04
	BYTE		        66*seq_025_mvl/mxv
	BYTE	W02
	BYTE		        70*seq_025_mvl/mxv
	BYTE	W04
	BYTE		        69*seq_025_mvl/mxv
	BYTE	W04
	BYTE		        65*seq_025_mvl/mxv
	BYTE	W04
	BYTE		        59*seq_025_mvl/mxv
	BYTE	W04
	BYTE		        51*seq_025_mvl/mxv
	BYTE	W02
	BYTE		        45*seq_025_mvl/mxv
	BYTE	W02
	BYTE		        39*seq_025_mvl/mxv
	BYTE	W02
	BYTE		        32*seq_025_mvl/mxv
	BYTE	W02
	BYTE		        25*seq_025_mvl/mxv
	BYTE	W02
	BYTE		        17*seq_025_mvl/mxv
	BYTE	W02
	BYTE		        11*seq_025_mvl/mxv
	BYTE	W02
	BYTE		        5*seq_025_mvl/mxv
	BYTE	W02
	BYTE		        1*seq_025_mvl/mxv
	BYTE	W02
	BYTE		        0*seq_025_mvl/mxv
	BYTE	W44
	BYTE	W02
	BYTE	W72
	BYTE		        56*seq_025_mvl/mxv
	BYTE	W24
	BYTE		N24
	BYTE	W24
	BYTE		        Fn3 
	BYTE	W24
	BYTE		        En3   v044
	BYTE	W24
	BYTE		        Fn3   v048
	BYTE	W24
	BYTE	PATT
	 POIN2	seq_025_0 + 0x159
	BYTE		N52     En3   v040
	BYTE	W02
	BYTE		VOL     57*seq_025_mvl/mxv
	BYTE	W04
	BYTE		        59*seq_025_mvl/mxv
	BYTE	W04
	BYTE		        61*seq_025_mvl/mxv
	BYTE	W04
	BYTE		        66*seq_025_mvl/mxv
	BYTE	W02
	BYTE		        70*seq_025_mvl/mxv
	BYTE	W04
	BYTE		        69*seq_025_mvl/mxv
	BYTE	W04
	BYTE		        65*seq_025_mvl/mxv
	BYTE	W04
	BYTE		        59*seq_025_mvl/mxv
	BYTE	W04
	BYTE		        51*seq_025_mvl/mxv
	BYTE	W02
	BYTE		        45*seq_025_mvl/mxv
	BYTE	W02
	BYTE		        39*seq_025_mvl/mxv
	BYTE	W02
	BYTE		        32*seq_025_mvl/mxv
	BYTE	W02
	BYTE		        25*seq_025_mvl/mxv
	BYTE	W02
	BYTE		        17*seq_025_mvl/mxv
	BYTE	W02
	BYTE		        11*seq_025_mvl/mxv
	BYTE	W02
	BYTE		        5*seq_025_mvl/mxv
	BYTE	W02
	BYTE		        1*seq_025_mvl/mxv
	BYTE	W02
	BYTE		        0*seq_025_mvl/mxv
	BYTE	W14
	BYTE		        56*seq_025_mvl/mxv
	BYTE	W32
	BYTE	W96
	BYTE	GoTo
	 POIN2	seq_025_0 + 0xD
	BYTE	W04
	BYTE	FINE

//*********************** Track 02 ***********************//

seq_025_1:
	BYTE	KEYSH   seq_025_key+0
	BYTE		VOICE   47
	BYTE	W01
	BYTE		VOL     69*seq_025_mvl/mxv
	BYTE	W01
	BYTE		PAN     c_v+0
	BYTE	W01
	BYTE		MODT    mod_pan
	BYTE		N24     Dn2   v100
	BYTE	W01
	BYTE		LFOS    45
	BYTE	W23
	BYTE		N24     En2   v088
	BYTE	W24
	BYTE		        Dn2   v104
	BYTE	W24
	BYTE		        En2   v096
	BYTE	W24
	BYTE		N24     Dn2   v127
	BYTE	W24
	BYTE		        En2   v116
	BYTE	W24
	BYTE		N16     Dn2   v127
	BYTE	W02
	BYTE		VOL     69*seq_025_mvl/mxv
	BYTE	W02
	BYTE		        71*seq_025_mvl/mxv
	BYTE	W02
	BYTE		        73*seq_025_mvl/mxv
	BYTE	W02
	BYTE		        76*seq_025_mvl/mxv
	BYTE	W02
	BYTE		        80*seq_025_mvl/mxv
	BYTE	W06
	BYTE		        69*seq_025_mvl/mxv
	BYTE		N07     An2   v108
	BYTE	W08
	BYTE		N16     Gn2   v116
	BYTE	W16
	BYTE		N08     En2   v096
	BYTE	W08
	BYTE	PEND
	BYTE		N24     Dn2   v104
	BYTE	W24
	BYTE		        En2   v096
	BYTE	W24
	BYTE		        Bn1   v080
	BYTE	W04
	BYTE		VOL     70*seq_025_mvl/mxv
	BYTE	W02
	BYTE		        72*seq_025_mvl/mxv
	BYTE	W02
	BYTE		        75*seq_025_mvl/mxv
	BYTE	W02
	BYTE		        76*seq_025_mvl/mxv
	BYTE	W02
	BYTE		        72*seq_025_mvl/mxv
	BYTE	W02
	BYTE		        69*seq_025_mvl/mxv
	BYTE	W02
	BYTE		        63*seq_025_mvl/mxv
	BYTE	W02
	BYTE		        56*seq_025_mvl/mxv
	BYTE	W01
	BYTE		        52*seq_025_mvl/mxv
	BYTE	W01
	BYTE		        46*seq_025_mvl/mxv
	BYTE	W01
	BYTE		        40*seq_025_mvl/mxv
	BYTE	W01
	BYTE		        31*seq_025_mvl/mxv
	BYTE	W01
	BYTE		        25*seq_025_mvl/mxv
	BYTE	W01
	BYTE		        14*seq_025_mvl/mxv
	BYTE	W01
	BYTE		        8*seq_025_mvl/mxv
	BYTE	W05
	BYTE		        69*seq_025_mvl/mxv
	BYTE	W02
	BYTE		N08     Dn2   v100
	BYTE	W08
	BYTE		        Cn2   v092
	BYTE	W08
	BYTE		N23     Bn1   v104
	BYTE	W24
	BYTE		N16     Gn1   v096
	BYTE	W16
	BYTE		N08     An1   v080
	BYTE	W08
	BYTE		N28     Bn1   v088
	BYTE	W08
	BYTE		VOL     67*seq_025_mvl/mxv
	BYTE	W02
	BYTE		        65*seq_025_mvl/mxv
	BYTE	W02
	BYTE		        61*seq_025_mvl/mxv
	BYTE	W02
	BYTE		        57*seq_025_mvl/mxv
	BYTE	W02
	BYTE		        51*seq_025_mvl/mxv
	BYTE	W02
	BYTE		        46*seq_025_mvl/mxv
	BYTE	W02
	BYTE		        40*seq_025_mvl/mxv
	BYTE	W02
	BYTE		        32*seq_025_mvl/mxv
	BYTE	W01
	BYTE		        26*seq_025_mvl/mxv
	BYTE	W01
	BYTE		        20*seq_025_mvl/mxv
	BYTE	W01
	BYTE		        15*seq_025_mvl/mxv
	BYTE	W01
	BYTE		        10*seq_025_mvl/mxv
	BYTE	W01
	BYTE		        7*seq_025_mvl/mxv
	BYTE	W01
	BYTE		        6*seq_025_mvl/mxv
	BYTE	W12
	BYTE		        69*seq_025_mvl/mxv
	BYTE	W08
	BYTE		N24     Dn2   v100
	BYTE	W24
	BYTE		        En2   v088
	BYTE	W24
	BYTE		        Dn2   v104
	BYTE	W24
	BYTE		        En2   v096
	BYTE	W24
	BYTE	PATT
	 POIN2	seq_025_1 + 0x1E
	BYTE		N24     Dn2   v100
	BYTE	W24
	BYTE		        En2   v092
	BYTE	W24
	BYTE		        Bn1   v080
	BYTE	W04
	BYTE		VOL     70*seq_025_mvl/mxv
	BYTE	W02
	BYTE		        72*seq_025_mvl/mxv
	BYTE	W02
	BYTE		        75*seq_025_mvl/mxv
	BYTE	W02
	BYTE		        76*seq_025_mvl/mxv
	BYTE	W02
	BYTE		        72*seq_025_mvl/mxv
	BYTE	W02
	BYTE		        69*seq_025_mvl/mxv
	BYTE	W02
	BYTE		        63*seq_025_mvl/mxv
	BYTE	W02
	BYTE		        56*seq_025_mvl/mxv
	BYTE	W01
	BYTE		        52*seq_025_mvl/mxv
	BYTE	W01
	BYTE		        46*seq_025_mvl/mxv
	BYTE	W01
	BYTE		        40*seq_025_mvl/mxv
	BYTE	W01
	BYTE		        31*seq_025_mvl/mxv
	BYTE	W01
	BYTE		        25*seq_025_mvl/mxv
	BYTE	W01
	BYTE		        14*seq_025_mvl/mxv
	BYTE	W01
	BYTE		        8*seq_025_mvl/mxv
	BYTE	W05
	BYTE		        69*seq_025_mvl/mxv
	BYTE	W02
	BYTE		N08     Dn2   v104
	BYTE	W08
	BYTE		        Cn2   v092
	BYTE	W08
	BYTE		N23     Bn1   v104
	BYTE	W24
	BYTE		N16     Gn1   v096
	BYTE	W16
	BYTE		N08     An1   v080
	BYTE	W08
	BYTE		N28     Bn1   v088
	BYTE	W08
	BYTE		VOL     67*seq_025_mvl/mxv
	BYTE	W02
	BYTE		        65*seq_025_mvl/mxv
	BYTE	W02
	BYTE		        61*seq_025_mvl/mxv
	BYTE	W02
	BYTE		        57*seq_025_mvl/mxv
	BYTE	W02
	BYTE		        51*seq_025_mvl/mxv
	BYTE	W02
	BYTE		        46*seq_025_mvl/mxv
	BYTE	W02
	BYTE		        40*seq_025_mvl/mxv
	BYTE	W02
	BYTE		        32*seq_025_mvl/mxv
	BYTE	W01
	BYTE		        26*seq_025_mvl/mxv
	BYTE	W01
	BYTE		        20*seq_025_mvl/mxv
	BYTE	W01
	BYTE		        15*seq_025_mvl/mxv
	BYTE	W01
	BYTE		        10*seq_025_mvl/mxv
	BYTE	W01
	BYTE		        7*seq_025_mvl/mxv
	BYTE	W01
	BYTE		        6*seq_025_mvl/mxv
	BYTE	W16
	BYTE		        69*seq_025_mvl/mxv
	BYTE	W04
	BYTE		N24     En2   v112
	BYTE	W24
	BYTE		        Fn2   v104
	BYTE	W24
	BYTE		        En2   v124
	BYTE	W24
	BYTE		        Fn2   v116
	BYTE	W24
	BYTE		        En2   v124
	BYTE	W24
	BYTE		        Fn2 
	BYTE	W24
	BYTE		N16     Dn2   v127
	BYTE	W04
	BYTE		VOL     69*seq_025_mvl/mxv
	BYTE	W02
	BYTE		        71*seq_025_mvl/mxv
	BYTE	W02
	BYTE		        72*seq_025_mvl/mxv
	BYTE	W02
	BYTE		        74*seq_025_mvl/mxv
	BYTE	W02
	BYTE		        77*seq_025_mvl/mxv
	BYTE	W02
	BYTE		        78*seq_025_mvl/mxv
	BYTE	W02
	BYTE		        69*seq_025_mvl/mxv
	BYTE		N08     Fn2   v124
	BYTE	W08
	BYTE		N16     En2   v127
	BYTE	W16
	BYTE		N08     Dn2   v120
	BYTE	W08
	BYTE		N52     En2 
	BYTE	W10
	BYTE		VOL     69*seq_025_mvl/mxv
	BYTE	W02
	BYTE		        71*seq_025_mvl/mxv
	BYTE	W02
	BYTE		        72*seq_025_mvl/mxv
	BYTE	W02
	BYTE		        74*seq_025_mvl/mxv
	BYTE	W02
	BYTE		        76*seq_025_mvl/mxv
	BYTE	W02
	BYTE		        78*seq_025_mvl/mxv
	BYTE	W02
	BYTE		        80*seq_025_mvl/mxv
	BYTE	W02
	BYTE		        78*seq_025_mvl/mxv
	BYTE	W02
	BYTE		        77*seq_025_mvl/mxv
	BYTE	W02
	BYTE		        76*seq_025_mvl/mxv
	BYTE	W02
	BYTE		        75*seq_025_mvl/mxv
	BYTE	W02
	BYTE		        73*seq_025_mvl/mxv
	BYTE	W02
	BYTE		        70*seq_025_mvl/mxv
	BYTE	W02
	BYTE		        66*seq_025_mvl/mxv
	BYTE	W02
	BYTE		        61*seq_025_mvl/mxv
	BYTE	W02
	BYTE		        54*seq_025_mvl/mxv
	BYTE	W02
	BYTE		        49*seq_025_mvl/mxv
	BYTE	W01
	BYTE		        43*seq_025_mvl/mxv
	BYTE	W01
	BYTE		        37*seq_025_mvl/mxv
	BYTE	W01
	BYTE		        31*seq_025_mvl/mxv
	BYTE	W01
	BYTE		        25*seq_025_mvl/mxv
	BYTE	W01
	BYTE		        17*seq_025_mvl/mxv
	BYTE	W01
	BYTE		        9*seq_025_mvl/mxv
	BYTE	W01
	BYTE		        5*seq_025_mvl/mxv
	BYTE	W44
	BYTE	W03
	BYTE	W76
	BYTE		        69*seq_025_mvl/mxv
	BYTE	W20
	BYTE		N24     En2   v104
	BYTE	W24
	BYTE		        Fn2   v096
	BYTE	W24
	BYTE		        En2   v112
	BYTE	W24
	BYTE		        Fn2   v104
	BYTE	W24
	BYTE		        En2   v120
	BYTE	W24
	BYTE		        Fn2 
	BYTE	W24
	BYTE		N16     Dn2   v124
	BYTE	W04
	BYTE		VOL     69*seq_025_mvl/mxv
	BYTE	W02
	BYTE		        71*seq_025_mvl/mxv
	BYTE	W02
	BYTE		        72*seq_025_mvl/mxv
	BYTE	W02
	BYTE		        74*seq_025_mvl/mxv
	BYTE	W02
	BYTE		        77*seq_025_mvl/mxv
	BYTE	W02
	BYTE		        78*seq_025_mvl/mxv
	BYTE	W02
	BYTE		        69*seq_025_mvl/mxv
	BYTE		N08     Fn2   v120
	BYTE	W08
	BYTE		N16     En2 
	BYTE	W16
	BYTE		N08     Dn2   v116
	BYTE	W08
	BYTE		N52     En2   v108
	BYTE	W10
	BYTE		VOL     69*seq_025_mvl/mxv
	BYTE	W02
	BYTE		        71*seq_025_mvl/mxv
	BYTE	W02
	BYTE		        72*seq_025_mvl/mxv
	BYTE	W02
	BYTE		        74*seq_025_mvl/mxv
	BYTE	W02
	BYTE		        76*seq_025_mvl/mxv
	BYTE	W02
	BYTE		        78*seq_025_mvl/mxv
	BYTE	W02
	BYTE		        80*seq_025_mvl/mxv
	BYTE	W02
	BYTE		        78*seq_025_mvl/mxv
	BYTE	W02
	BYTE		        77*seq_025_mvl/mxv
	BYTE	W02
	BYTE		        76*seq_025_mvl/mxv
	BYTE	W02
	BYTE		        75*seq_025_mvl/mxv
	BYTE	W02
	BYTE		        73*seq_025_mvl/mxv
	BYTE	W02
	BYTE		        70*seq_025_mvl/mxv
	BYTE	W02
	BYTE		        66*seq_025_mvl/mxv
	BYTE	W02
	BYTE		        61*seq_025_mvl/mxv
	BYTE	W02
	BYTE		        54*seq_025_mvl/mxv
	BYTE	W02
	BYTE		        49*seq_025_mvl/mxv
	BYTE	W01
	BYTE		        43*seq_025_mvl/mxv
	BYTE	W01
	BYTE		        37*seq_025_mvl/mxv
	BYTE	W01
	BYTE		        31*seq_025_mvl/mxv
	BYTE	W01
	BYTE		        25*seq_025_mvl/mxv
	BYTE	W01
	BYTE		        17*seq_025_mvl/mxv
	BYTE	W01
	BYTE		        9*seq_025_mvl/mxv
	BYTE	W01
	BYTE		        5*seq_025_mvl/mxv
	BYTE	W09
	BYTE		        69*seq_025_mvl/mxv
	BYTE	W36
	BYTE	W02
	BYTE	W96
	BYTE	GoTo
	 POIN2	seq_025_1 + 0xB
	BYTE	W04
	BYTE	FINE

//*********************** Track 03 ***********************//

seq_025_2:
	BYTE	KEYSH   seq_025_key+0
	BYTE		VOICE   53
	BYTE	W01
	BYTE		VOL     62*seq_025_mvl/mxv
	BYTE	W01
	BYTE		PAN     c_v-26
	BYTE	W01
	BYTE		VOL     62*seq_025_mvl/mxv
	BYTE		N08     Dn3   v076
	BYTE	W04
	BYTE		VOL     55*seq_025_mvl/mxv
	BYTE	W02
	BYTE		        43*seq_025_mvl/mxv
	BYTE	W02
	BYTE		        62*seq_025_mvl/mxv
	BYTE		N08     Gn2   v068
	BYTE	W04
	BYTE		VOL     55*seq_025_mvl/mxv
	BYTE	W02
	BYTE		        43*seq_025_mvl/mxv
	BYTE	W02
	BYTE		        62*seq_025_mvl/mxv
	BYTE		N08     An2 
	BYTE	W04
	BYTE		VOL     55*seq_025_mvl/mxv
	BYTE	W02
	BYTE		        43*seq_025_mvl/mxv
	BYTE	W02
	BYTE		        62*seq_025_mvl/mxv
	BYTE		N08     En3   v064
	BYTE	W04
	BYTE		VOL     55*seq_025_mvl/mxv
	BYTE	W02
	BYTE		        43*seq_025_mvl/mxv
	BYTE	W02
	BYTE		        62*seq_025_mvl/mxv
	BYTE		N08     Dn3 
	BYTE	W04
	BYTE		VOL     55*seq_025_mvl/mxv
	BYTE	W02
	BYTE		        43*seq_025_mvl/mxv
	BYTE	W02
	BYTE		        62*seq_025_mvl/mxv
	BYTE		N08     Gn2 
	BYTE	W04
	BYTE		VOL     55*seq_025_mvl/mxv
	BYTE	W02
	BYTE		        43*seq_025_mvl/mxv
	BYTE	W02
	BYTE		        62*seq_025_mvl/mxv
	BYTE		N08     An2   v080
	BYTE	W04
	BYTE		VOL     55*seq_025_mvl/mxv
	BYTE	W02
	BYTE		        43*seq_025_mvl/mxv
	BYTE	W02
	BYTE		        62*seq_025_mvl/mxv
	BYTE		N08     En2   v068
	BYTE	W04
	BYTE		VOL     55*seq_025_mvl/mxv
	BYTE	W02
	BYTE		        43*seq_025_mvl/mxv
	BYTE	W02
	BYTE		        62*seq_025_mvl/mxv
	BYTE		N08     Dn3   v060
	BYTE	W04
	BYTE		VOL     55*seq_025_mvl/mxv
	BYTE	W02
	BYTE		        43*seq_025_mvl/mxv
	BYTE	W02
	BYTE		        62*seq_025_mvl/mxv
	BYTE		N08     Gn2   v080
	BYTE	W04
	BYTE		VOL     55*seq_025_mvl/mxv
	BYTE	W02
	BYTE		        43*seq_025_mvl/mxv
	BYTE	W02
	BYTE		        62*seq_025_mvl/mxv
	BYTE		N08     An2 
	BYTE	W04
	BYTE		VOL     55*seq_025_mvl/mxv
	BYTE	W02
	BYTE		        43*seq_025_mvl/mxv
	BYTE	W02
	BYTE		        62*seq_025_mvl/mxv
	BYTE		N08     En3   v076
	BYTE	W04
	BYTE		VOL     55*seq_025_mvl/mxv
	BYTE	W02
	BYTE		        43*seq_025_mvl/mxv
	BYTE	W02
	BYTE		VOL     62*seq_025_mvl/mxv
	BYTE		N08     Dn3   v092
	BYTE	W04
	BYTE		VOL     55*seq_025_mvl/mxv
	BYTE	W02
	BYTE		        43*seq_025_mvl/mxv
	BYTE	W02
	BYTE		        62*seq_025_mvl/mxv
	BYTE		N08     Gn2 
	BYTE	W04
	BYTE		VOL     55*seq_025_mvl/mxv
	BYTE	W02
	BYTE		        43*seq_025_mvl/mxv
	BYTE	W02
	BYTE		        62*seq_025_mvl/mxv
	BYTE		N08     An2   v088
	BYTE	W04
	BYTE		VOL     55*seq_025_mvl/mxv
	BYTE	W02
	BYTE		        43*seq_025_mvl/mxv
	BYTE	W02
	BYTE		        62*seq_025_mvl/mxv
	BYTE		N08     En2   v100
	BYTE	W04
	BYTE		VOL     55*seq_025_mvl/mxv
	BYTE	W02
	BYTE		        43*seq_025_mvl/mxv
	BYTE	W02
	BYTE		        62*seq_025_mvl/mxv
	BYTE		N08     Dn3   v084
	BYTE	W04
	BYTE		VOL     55*seq_025_mvl/mxv
	BYTE	W02
	BYTE		        43*seq_025_mvl/mxv
	BYTE	W02
	BYTE		        62*seq_025_mvl/mxv
	BYTE		N08     Gn2   v088
	BYTE	W04
	BYTE		VOL     55*seq_025_mvl/mxv
	BYTE	W02
	BYTE		        43*seq_025_mvl/mxv
	BYTE	W02
	BYTE		        62*seq_025_mvl/mxv
	BYTE		N08     An2   v096
	BYTE	W04
	BYTE		VOL     55*seq_025_mvl/mxv
	BYTE	W02
	BYTE		        43*seq_025_mvl/mxv
	BYTE	W02
	BYTE		        62*seq_025_mvl/mxv
	BYTE		N08     En3   v084
	BYTE	W04
	BYTE		VOL     55*seq_025_mvl/mxv
	BYTE	W02
	BYTE		        43*seq_025_mvl/mxv
	BYTE	W02
	BYTE		        62*seq_025_mvl/mxv
	BYTE		N08     Dn3   v088
	BYTE	W04
	BYTE		VOL     55*seq_025_mvl/mxv
	BYTE	W02
	BYTE		        43*seq_025_mvl/mxv
	BYTE	W02
	BYTE		        62*seq_025_mvl/mxv
	BYTE		N08     Gn2   v092
	BYTE	W04
	BYTE		VOL     55*seq_025_mvl/mxv
	BYTE	W02
	BYTE		        43*seq_025_mvl/mxv
	BYTE	W02
	BYTE		        62*seq_025_mvl/mxv
	BYTE		N08     An2   v080
	BYTE	W04
	BYTE		VOL     55*seq_025_mvl/mxv
	BYTE	W02
	BYTE		        43*seq_025_mvl/mxv
	BYTE	W02
	BYTE		        62*seq_025_mvl/mxv
	BYTE		N08     En2   v072
	BYTE	W04
	BYTE		VOL     55*seq_025_mvl/mxv
	BYTE	W02
	BYTE		        43*seq_025_mvl/mxv
	BYTE	W02
	BYTE	PEND
	BYTE		VOL     62*seq_025_mvl/mxv
	BYTE		N08     Cn3   v060
	BYTE	W04
	BYTE		VOL     55*seq_025_mvl/mxv
	BYTE	W02
	BYTE		        43*seq_025_mvl/mxv
	BYTE	W02
	BYTE		        62*seq_025_mvl/mxv
	BYTE		N08     Gn2   v068
	BYTE	W04
	BYTE		VOL     55*seq_025_mvl/mxv
	BYTE	W02
	BYTE		        43*seq_025_mvl/mxv
	BYTE	W02
	BYTE		        62*seq_025_mvl/mxv
	BYTE		N08     An2 
	BYTE	W04
	BYTE		VOL     55*seq_025_mvl/mxv
	BYTE	W02
	BYTE		        43*seq_025_mvl/mxv
	BYTE	W02
	BYTE		        62*seq_025_mvl/mxv
	BYTE		N08     En2   v072
	BYTE	W04
	BYTE		VOL     55*seq_025_mvl/mxv
	BYTE	W02
	BYTE		        43*seq_025_mvl/mxv
	BYTE	W02
	BYTE		        62*seq_025_mvl/mxv
	BYTE		N08     Cn3   v064
	BYTE	W04
	BYTE		VOL     55*seq_025_mvl/mxv
	BYTE	W02
	BYTE		        43*seq_025_mvl/mxv
	BYTE	W02
	BYTE		        62*seq_025_mvl/mxv
	BYTE		N08     En2   v072
	BYTE	W04
	BYTE		VOL     55*seq_025_mvl/mxv
	BYTE	W02
	BYTE		        43*seq_025_mvl/mxv
	BYTE	W02
	BYTE		        62*seq_025_mvl/mxv
	BYTE		N08     Fn2   v080
	BYTE	W04
	BYTE		VOL     55*seq_025_mvl/mxv
	BYTE	W02
	BYTE		        43*seq_025_mvl/mxv
	BYTE	W02
	BYTE		        62*seq_025_mvl/mxv
	BYTE		N08     An2   v068
	BYTE	W04
	BYTE		VOL     55*seq_025_mvl/mxv
	BYTE	W02
	BYTE		        43*seq_025_mvl/mxv
	BYTE	W02
	BYTE		        62*seq_025_mvl/mxv
	BYTE		N08     Cn3   v060
	BYTE	W04
	BYTE		VOL     55*seq_025_mvl/mxv
	BYTE	W02
	BYTE		        43*seq_025_mvl/mxv
	BYTE	W02
	BYTE		        62*seq_025_mvl/mxv
	BYTE		N08     Gn2 
	BYTE	W04
	BYTE		VOL     55*seq_025_mvl/mxv
	BYTE	W02
	BYTE		        43*seq_025_mvl/mxv
	BYTE	W02
	BYTE		        62*seq_025_mvl/mxv
	BYTE		N08     An2 
	BYTE	W04
	BYTE		VOL     55*seq_025_mvl/mxv
	BYTE	W02
	BYTE		        43*seq_025_mvl/mxv
	BYTE	W02
	BYTE		        62*seq_025_mvl/mxv
	BYTE		N08     En2 
	BYTE	W04
	BYTE		VOL     55*seq_025_mvl/mxv
	BYTE	W02
	BYTE		        43*seq_025_mvl/mxv
	BYTE	W02
	BYTE	PEND
	BYTE		VOL     62*seq_025_mvl/mxv
	BYTE		N08     Cn3   v064
	BYTE	W04
	BYTE		VOL     55*seq_025_mvl/mxv
	BYTE	W02
	BYTE		        43*seq_025_mvl/mxv
	BYTE	W02
	BYTE		        62*seq_025_mvl/mxv
	BYTE		N08     En2   v068
	BYTE	W04
	BYTE		VOL     55*seq_025_mvl/mxv
	BYTE	W02
	BYTE		        43*seq_025_mvl/mxv
	BYTE	W02
	BYTE		        62*seq_025_mvl/mxv
	BYTE		N08     Fn2 
	BYTE	W04
	BYTE		VOL     55*seq_025_mvl/mxv
	BYTE	W02
	BYTE		        43*seq_025_mvl/mxv
	BYTE	W02
	BYTE		        62*seq_025_mvl/mxv
	BYTE		N08     An2   v080
	BYTE	W04
	BYTE		VOL     55*seq_025_mvl/mxv
	BYTE	W02
	BYTE		        43*seq_025_mvl/mxv
	BYTE	W02
	BYTE		        62*seq_025_mvl/mxv
	BYTE		N08     Cn3   v072
	BYTE	W04
	BYTE		VOL     55*seq_025_mvl/mxv
	BYTE	W02
	BYTE		        43*seq_025_mvl/mxv
	BYTE	W02
	BYTE		        62*seq_025_mvl/mxv
	BYTE		N08     Gn2   v076
	BYTE	W04
	BYTE		VOL     55*seq_025_mvl/mxv
	BYTE	W02
	BYTE		        43*seq_025_mvl/mxv
	BYTE	W02
	BYTE		        62*seq_025_mvl/mxv
	BYTE		N08     An2   v072
	BYTE	W04
	BYTE		VOL     55*seq_025_mvl/mxv
	BYTE	W02
	BYTE		        43*seq_025_mvl/mxv
	BYTE	W02
	BYTE		        62*seq_025_mvl/mxv
	BYTE		N08     En2   v068
	BYTE	W04
	BYTE		VOL     55*seq_025_mvl/mxv
	BYTE	W02
	BYTE		        43*seq_025_mvl/mxv
	BYTE	W02
	BYTE		        62*seq_025_mvl/mxv
	BYTE		N08     Cn3   v060
	BYTE	W04
	BYTE		VOL     55*seq_025_mvl/mxv
	BYTE	W02
	BYTE		        43*seq_025_mvl/mxv
	BYTE	W02
	BYTE		        62*seq_025_mvl/mxv
	BYTE		N08     En2   v076
	BYTE	W04
	BYTE		VOL     55*seq_025_mvl/mxv
	BYTE	W02
	BYTE		        43*seq_025_mvl/mxv
	BYTE	W02
	BYTE		        62*seq_025_mvl/mxv
	BYTE		N08     Fn2   v084
	BYTE	W04
	BYTE		VOL     55*seq_025_mvl/mxv
	BYTE	W02
	BYTE		        43*seq_025_mvl/mxv
	BYTE	W02
	BYTE		        62*seq_025_mvl/mxv
	BYTE		N08     An2   v088
	BYTE	W04
	BYTE		VOL     55*seq_025_mvl/mxv
	BYTE	W02
	BYTE		        43*seq_025_mvl/mxv
	BYTE	W02
	BYTE	PEND
	BYTE		        62*seq_025_mvl/mxv
	BYTE		N08     Dn3   v076
	BYTE	W04
	BYTE		VOL     55*seq_025_mvl/mxv
	BYTE	W02
	BYTE		        43*seq_025_mvl/mxv
	BYTE	W02
	BYTE		        62*seq_025_mvl/mxv
	BYTE		N08     Gn2   v068
	BYTE	W04
	BYTE		VOL     55*seq_025_mvl/mxv
	BYTE	W02
	BYTE		        43*seq_025_mvl/mxv
	BYTE	W02
	BYTE		        62*seq_025_mvl/mxv
	BYTE		N08     An2 
	BYTE	W04
	BYTE		VOL     55*seq_025_mvl/mxv
	BYTE	W02
	BYTE		        43*seq_025_mvl/mxv
	BYTE	W02
	BYTE		        62*seq_025_mvl/mxv
	BYTE		N08     En3   v064
	BYTE	W04
	BYTE		VOL     55*seq_025_mvl/mxv
	BYTE	W02
	BYTE		        43*seq_025_mvl/mxv
	BYTE	W02
	BYTE		        62*seq_025_mvl/mxv
	BYTE		N08     Dn3 
	BYTE	W04
	BYTE		VOL     55*seq_025_mvl/mxv
	BYTE	W02
	BYTE		        43*seq_025_mvl/mxv
	BYTE	W02
	BYTE		        62*seq_025_mvl/mxv
	BYTE		N08     Gn2 
	BYTE	W04
	BYTE		VOL     55*seq_025_mvl/mxv
	BYTE	W02
	BYTE		        43*seq_025_mvl/mxv
	BYTE	W02
	BYTE		        62*seq_025_mvl/mxv
	BYTE		N08     An2   v088
	BYTE	W04
	BYTE		VOL     55*seq_025_mvl/mxv
	BYTE	W02
	BYTE		        43*seq_025_mvl/mxv
	BYTE	W02
	BYTE		        62*seq_025_mvl/mxv
	BYTE		N08     En2   v072
	BYTE	W04
	BYTE		VOL     55*seq_025_mvl/mxv
	BYTE	W02
	BYTE		        43*seq_025_mvl/mxv
	BYTE	W02
	BYTE		        62*seq_025_mvl/mxv
	BYTE		N08     Dn3   v048
	BYTE	W04
	BYTE		VOL     55*seq_025_mvl/mxv
	BYTE	W02
	BYTE		        43*seq_025_mvl/mxv
	BYTE	W02
	BYTE		        62*seq_025_mvl/mxv
	BYTE		N08     Gn2   v088
	BYTE	W04
	BYTE		VOL     55*seq_025_mvl/mxv
	BYTE	W02
	BYTE		        43*seq_025_mvl/mxv
	BYTE	W02
	BYTE		        62*seq_025_mvl/mxv
	BYTE		N08     An2   v084
	BYTE	W04
	BYTE		VOL     55*seq_025_mvl/mxv
	BYTE	W02
	BYTE		        43*seq_025_mvl/mxv
	BYTE	W02
	BYTE		        62*seq_025_mvl/mxv
	BYTE		N08     En3   v076
	BYTE	W04
	BYTE		VOL     55*seq_025_mvl/mxv
	BYTE	W02
	BYTE		        43*seq_025_mvl/mxv
	BYTE	W02
	BYTE	PATT
	 POIN2	seq_025_2 + 0x80
	BYTE	PATT
	 POIN2	seq_025_2 + 0xF9
	BYTE	PATT
	 POIN2	seq_025_2 + 0x16F
	BYTE		VOL     62*seq_025_mvl/mxv
	BYTE		N08     Dn3   v072
	BYTE	W04
	BYTE		VOL     55*seq_025_mvl/mxv
	BYTE	W02
	BYTE		        43*seq_025_mvl/mxv
	BYTE	W02
	BYTE		        62*seq_025_mvl/mxv
	BYTE		N08     Gn2   v080
	BYTE	W04
	BYTE		VOL     55*seq_025_mvl/mxv
	BYTE	W02
	BYTE		        43*seq_025_mvl/mxv
	BYTE	W02
	BYTE		        62*seq_025_mvl/mxv
	BYTE		N08     An2 
	BYTE	W04
	BYTE		VOL     55*seq_025_mvl/mxv
	BYTE	W02
	BYTE		        43*seq_025_mvl/mxv
	BYTE	W02
	BYTE		        62*seq_025_mvl/mxv
	BYTE		N08     En3   v076
	BYTE	W04
	BYTE		VOL     55*seq_025_mvl/mxv
	BYTE	W02
	BYTE		        43*seq_025_mvl/mxv
	BYTE	W02
	BYTE		        62*seq_025_mvl/mxv
	BYTE		N08     Dn3 
	BYTE	W04
	BYTE		VOL     55*seq_025_mvl/mxv
	BYTE	W02
	BYTE		        43*seq_025_mvl/mxv
	BYTE	W02
	BYTE		        62*seq_025_mvl/mxv
	BYTE		N08     Gn2   v072
	BYTE	W04
	BYTE		VOL     55*seq_025_mvl/mxv
	BYTE	W02
	BYTE		        43*seq_025_mvl/mxv
	BYTE	W02
	BYTE		        62*seq_025_mvl/mxv
	BYTE		N08     An2   v096
	BYTE	W04
	BYTE		VOL     55*seq_025_mvl/mxv
	BYTE	W02
	BYTE		        43*seq_025_mvl/mxv
	BYTE	W02
	BYTE		        62*seq_025_mvl/mxv
	BYTE		N08     En2   v084
	BYTE	W04
	BYTE		VOL     55*seq_025_mvl/mxv
	BYTE	W02
	BYTE		        43*seq_025_mvl/mxv
	BYTE	W02
	BYTE		        62*seq_025_mvl/mxv
	BYTE		N08     Dn3 
	BYTE	W04
	BYTE		VOL     55*seq_025_mvl/mxv
	BYTE	W02
	BYTE		        43*seq_025_mvl/mxv
	BYTE	W02
	BYTE		        62*seq_025_mvl/mxv
	BYTE		N08     Gn2   v096
	BYTE	W04
	BYTE		VOL     55*seq_025_mvl/mxv
	BYTE	W02
	BYTE		        43*seq_025_mvl/mxv
	BYTE	W02
	BYTE		        62*seq_025_mvl/mxv
	BYTE		N08     An2   v084
	BYTE	W04
	BYTE		VOL     55*seq_025_mvl/mxv
	BYTE	W02
	BYTE		        43*seq_025_mvl/mxv
	BYTE	W02
	BYTE		        62*seq_025_mvl/mxv
	BYTE		N08     En3   v080
	BYTE	W04
	BYTE		VOL     55*seq_025_mvl/mxv
	BYTE	W02
	BYTE		        43*seq_025_mvl/mxv
	BYTE	W02
	BYTE	PEND
	BYTE		VOL     62*seq_025_mvl/mxv
	BYTE		N08     Cs3   v100
	BYTE	W04
	BYTE		VOL     55*seq_025_mvl/mxv
	BYTE	W02
	BYTE		        43*seq_025_mvl/mxv
	BYTE	W02
	BYTE		        62*seq_025_mvl/mxv
	BYTE		N08     Gn2   v096
	BYTE	W04
	BYTE		VOL     55*seq_025_mvl/mxv
	BYTE	W02
	BYTE		        43*seq_025_mvl/mxv
	BYTE	W02
	BYTE		        62*seq_025_mvl/mxv
	BYTE		N08     An2 
	BYTE	W04
	BYTE		VOL     55*seq_025_mvl/mxv
	BYTE	W02
	BYTE		        43*seq_025_mvl/mxv
	BYTE	W02
	BYTE		        62*seq_025_mvl/mxv
	BYTE		N08     En2   v104
	BYTE	W04
	BYTE		VOL     55*seq_025_mvl/mxv
	BYTE	W02
	BYTE		        43*seq_025_mvl/mxv
	BYTE	W02
	BYTE		        62*seq_025_mvl/mxv
	BYTE		N08     Cs3   v092
	BYTE	W04
	BYTE		VOL     55*seq_025_mvl/mxv
	BYTE	W02
	BYTE		        43*seq_025_mvl/mxv
	BYTE	W02
	BYTE		        62*seq_025_mvl/mxv
	BYTE		N08     Gn2   v096
	BYTE	W04
	BYTE		VOL     55*seq_025_mvl/mxv
	BYTE	W02
	BYTE		        43*seq_025_mvl/mxv
	BYTE	W02
	BYTE		        62*seq_025_mvl/mxv
	BYTE		N08     An2   v104
	BYTE	W04
	BYTE		VOL     55*seq_025_mvl/mxv
	BYTE	W02
	BYTE		        43*seq_025_mvl/mxv
	BYTE	W02
	BYTE		        62*seq_025_mvl/mxv
	BYTE		N08     En3   v088
	BYTE	W04
	BYTE		VOL     55*seq_025_mvl/mxv
	BYTE	W02
	BYTE		        43*seq_025_mvl/mxv
	BYTE	W02
	BYTE		        62*seq_025_mvl/mxv
	BYTE		N08     Cs3   v092
	BYTE	W04
	BYTE		VOL     55*seq_025_mvl/mxv
	BYTE	W02
	BYTE		        43*seq_025_mvl/mxv
	BYTE	W02
	BYTE		        62*seq_025_mvl/mxv
	BYTE		N08     Gn2   v104
	BYTE	W04
	BYTE		VOL     55*seq_025_mvl/mxv
	BYTE	W02
	BYTE		        43*seq_025_mvl/mxv
	BYTE	W02
	BYTE		        62*seq_025_mvl/mxv
	BYTE		N08     An2   v092
	BYTE	W04
	BYTE		VOL     55*seq_025_mvl/mxv
	BYTE	W02
	BYTE		        43*seq_025_mvl/mxv
	BYTE	W02
	BYTE		        62*seq_025_mvl/mxv
	BYTE		N08     En2 
	BYTE	W04
	BYTE		VOL     55*seq_025_mvl/mxv
	BYTE	W02
	BYTE		        43*seq_025_mvl/mxv
	BYTE	W02
	BYTE	PEND
	BYTE		VOL     62*seq_025_mvl/mxv
	BYTE		N08     Dn3   v092
	BYTE	W04
	BYTE		VOL     55*seq_025_mvl/mxv
	BYTE	W02
	BYTE		        43*seq_025_mvl/mxv
	BYTE	W02
	BYTE		        62*seq_025_mvl/mxv
	BYTE		N08     Gn2   v088
	BYTE	W04
	BYTE		VOL     55*seq_025_mvl/mxv
	BYTE	W02
	BYTE		        43*seq_025_mvl/mxv
	BYTE	W02
	BYTE		        62*seq_025_mvl/mxv
	BYTE		N08     An2   v092
	BYTE	W04
	BYTE		VOL     55*seq_025_mvl/mxv
	BYTE	W02
	BYTE		        43*seq_025_mvl/mxv
	BYTE	W02
	BYTE		        62*seq_025_mvl/mxv
	BYTE		N08     En2   v104
	BYTE	W04
	BYTE		VOL     55*seq_025_mvl/mxv
	BYTE	W02
	BYTE		        43*seq_025_mvl/mxv
	BYTE	W02
	BYTE		        62*seq_025_mvl/mxv
	BYTE		N08     Dn3   v088
	BYTE	W04
	BYTE		VOL     55*seq_025_mvl/mxv
	BYTE	W02
	BYTE		        43*seq_025_mvl/mxv
	BYTE	W02
	BYTE		        62*seq_025_mvl/mxv
	BYTE		N08     Gn2   v092
	BYTE	W04
	BYTE		VOL     55*seq_025_mvl/mxv
	BYTE	W02
	BYTE		        43*seq_025_mvl/mxv
	BYTE	W02
	BYTE		        62*seq_025_mvl/mxv
	BYTE		N08     An2   v096
	BYTE	W04
	BYTE		VOL     55*seq_025_mvl/mxv
	BYTE	W02
	BYTE		        43*seq_025_mvl/mxv
	BYTE	W02
	BYTE		        62*seq_025_mvl/mxv
	BYTE		N08     En3   v084
	BYTE	W04
	BYTE		VOL     55*seq_025_mvl/mxv
	BYTE	W02
	BYTE		        43*seq_025_mvl/mxv
	BYTE	W02
	BYTE		        62*seq_025_mvl/mxv
	BYTE		N08     Dn3   v088
	BYTE	W04
	BYTE		VOL     55*seq_025_mvl/mxv
	BYTE	W02
	BYTE		        43*seq_025_mvl/mxv
	BYTE	W02
	BYTE		        62*seq_025_mvl/mxv
	BYTE		N08     Gn2   v100
	BYTE	W04
	BYTE		VOL     55*seq_025_mvl/mxv
	BYTE	W02
	BYTE		        43*seq_025_mvl/mxv
	BYTE	W02
	BYTE		        62*seq_025_mvl/mxv
	BYTE		N08     An2   v088
	BYTE	W04
	BYTE		VOL     55*seq_025_mvl/mxv
	BYTE	W02
	BYTE		        43*seq_025_mvl/mxv
	BYTE	W02
	BYTE		        62*seq_025_mvl/mxv
	BYTE		N08     En2 
	BYTE	W04
	BYTE		VOL     55*seq_025_mvl/mxv
	BYTE	W02
	BYTE		        43*seq_025_mvl/mxv
	BYTE	W02
	BYTE	PEND
	BYTE		        62*seq_025_mvl/mxv
	BYTE		N08     Dn3   v092
	BYTE	W04
	BYTE		VOL     55*seq_025_mvl/mxv
	BYTE	W02
	BYTE		        43*seq_025_mvl/mxv
	BYTE	W02
	BYTE		        62*seq_025_mvl/mxv
	BYTE		N08     Gn2   v088
	BYTE	W04
	BYTE		VOL     55*seq_025_mvl/mxv
	BYTE	W02
	BYTE		        43*seq_025_mvl/mxv
	BYTE	W02
	BYTE		        62*seq_025_mvl/mxv
	BYTE		N08     An2   v092
	BYTE	W04
	BYTE		VOL     55*seq_025_mvl/mxv
	BYTE	W02
	BYTE		        43*seq_025_mvl/mxv
	BYTE	W02
	BYTE		        62*seq_025_mvl/mxv
	BYTE		N08     En3   v084
	BYTE	W04
	BYTE		VOL     55*seq_025_mvl/mxv
	BYTE	W02
	BYTE		        43*seq_025_mvl/mxv
	BYTE	W02
	BYTE		        62*seq_025_mvl/mxv
	BYTE		N08     Dn3   v072
	BYTE	W04
	BYTE		VOL     55*seq_025_mvl/mxv
	BYTE	W02
	BYTE		        43*seq_025_mvl/mxv
	BYTE	W02
	BYTE		        62*seq_025_mvl/mxv
	BYTE		N08     Gn2 
	BYTE	W04
	BYTE		VOL     55*seq_025_mvl/mxv
	BYTE	W02
	BYTE		        43*seq_025_mvl/mxv
	BYTE	W02
	BYTE		        62*seq_025_mvl/mxv
	BYTE		N08     An2   v068
	BYTE	W04
	BYTE		VOL     55*seq_025_mvl/mxv
	BYTE	W02
	BYTE		        43*seq_025_mvl/mxv
	BYTE	W02
	BYTE		        62*seq_025_mvl/mxv
	BYTE		N08     En2 
	BYTE	W04
	BYTE		VOL     55*seq_025_mvl/mxv
	BYTE	W02
	BYTE		        43*seq_025_mvl/mxv
	BYTE	W02
	BYTE		        62*seq_025_mvl/mxv
	BYTE		N08     Dn3   v060
	BYTE	W04
	BYTE		VOL     55*seq_025_mvl/mxv
	BYTE	W02
	BYTE		        43*seq_025_mvl/mxv
	BYTE	W02
	BYTE		        62*seq_025_mvl/mxv
	BYTE		N08     Gn2   v076
	BYTE	W04
	BYTE		VOL     55*seq_025_mvl/mxv
	BYTE	W02
	BYTE		        43*seq_025_mvl/mxv
	BYTE	W02
	BYTE		        62*seq_025_mvl/mxv
	BYTE		N08     An2   v096
	BYTE	W04
	BYTE		VOL     55*seq_025_mvl/mxv
	BYTE	W02
	BYTE		        43*seq_025_mvl/mxv
	BYTE	W02
	BYTE		        62*seq_025_mvl/mxv
	BYTE		N08     En3   v092
	BYTE	W04
	BYTE		VOL     55*seq_025_mvl/mxv
	BYTE	W02
	BYTE		        43*seq_025_mvl/mxv
	BYTE	W02
	BYTE	PATT
	 POIN2	seq_025_2 + 0x26C
	BYTE	PATT
	 POIN2	seq_025_2 + 0x2E3
	BYTE	PATT
	 POIN2	seq_025_2 + 0x35B
	BYTE		VOL     62*seq_025_mvl/mxv
	BYTE		N08     Dn3   v092
	BYTE	W04
	BYTE		VOL     55*seq_025_mvl/mxv
	BYTE	W02
	BYTE		        43*seq_025_mvl/mxv
	BYTE	W02
	BYTE		        62*seq_025_mvl/mxv
	BYTE		N08     Gn2   v088
	BYTE	W04
	BYTE		VOL     55*seq_025_mvl/mxv
	BYTE	W02
	BYTE		        43*seq_025_mvl/mxv
	BYTE	W02
	BYTE		        62*seq_025_mvl/mxv
	BYTE		N08     An2   v092
	BYTE	W04
	BYTE		VOL     55*seq_025_mvl/mxv
	BYTE	W02
	BYTE		        43*seq_025_mvl/mxv
	BYTE	W02
	BYTE		        62*seq_025_mvl/mxv
	BYTE		N08     En3   v084
	BYTE	W04
	BYTE		VOL     55*seq_025_mvl/mxv
	BYTE	W02
	BYTE		        43*seq_025_mvl/mxv
	BYTE	W02
	BYTE		        62*seq_025_mvl/mxv
	BYTE		N08     Dn3   v072
	BYTE	W04
	BYTE		VOL     55*seq_025_mvl/mxv
	BYTE	W02
	BYTE		        43*seq_025_mvl/mxv
	BYTE	W02
	BYTE		        62*seq_025_mvl/mxv
	BYTE		N08     Gn2 
	BYTE	W04
	BYTE		VOL     55*seq_025_mvl/mxv
	BYTE	W02
	BYTE		        43*seq_025_mvl/mxv
	BYTE	W02
	BYTE		        62*seq_025_mvl/mxv
	BYTE		N08     An2   v068
	BYTE	W04
	BYTE		VOL     55*seq_025_mvl/mxv
	BYTE	W02
	BYTE		        43*seq_025_mvl/mxv
	BYTE	W02
	BYTE		        62*seq_025_mvl/mxv
	BYTE		N08     En2 
	BYTE	W04
	BYTE		VOL     55*seq_025_mvl/mxv
	BYTE	W02
	BYTE		        43*seq_025_mvl/mxv
	BYTE	W02
	BYTE		        62*seq_025_mvl/mxv
	BYTE		N08     Dn3   v060
	BYTE	W04
	BYTE		VOL     55*seq_025_mvl/mxv
	BYTE	W02
	BYTE		        43*seq_025_mvl/mxv
	BYTE	W02
	BYTE		        62*seq_025_mvl/mxv
	BYTE		N08     Gn2   v076
	BYTE	W04
	BYTE		VOL     55*seq_025_mvl/mxv
	BYTE	W02
	BYTE		        43*seq_025_mvl/mxv
	BYTE	W02
	BYTE		        62*seq_025_mvl/mxv
	BYTE		N08     An2   v096
	BYTE	W04
	BYTE		VOL     55*seq_025_mvl/mxv
	BYTE	W02
	BYTE		        43*seq_025_mvl/mxv
	BYTE	W02
	BYTE		        62*seq_025_mvl/mxv
	BYTE		N06     En3   v092
	BYTE	W04
	BYTE		VOL     55*seq_025_mvl/mxv
	BYTE	W02
	BYTE		        43*seq_025_mvl/mxv
	BYTE	W01
	BYTE		        62*seq_025_mvl/mxv
	BYTE	W01
	BYTE	GoTo
	 POIN2	seq_025_2 + 0xB
	BYTE	W04
	BYTE	FINE

//*********************** Track 04 ***********************//

seq_025_3:
	BYTE	KEYSH   seq_025_key+0
	BYTE		VOICE   60
	BYTE	W01
	BYTE		VOL     62*seq_025_mvl/mxv
	BYTE	W01
	BYTE		PAN     c_v-34
	BYTE	W01
	BYTE		VOL     62*seq_025_mvl/mxv
	BYTE		N44     Fn2   v048
	BYTE	W08
	BYTE		VOL     61*seq_025_mvl/mxv
	BYTE	W02
	BYTE		        59*seq_025_mvl/mxv
	BYTE	W02
	BYTE		        57*seq_025_mvl/mxv
	BYTE	W02
	BYTE		        54*seq_025_mvl/mxv
	BYTE	W02
	BYTE		        50*seq_025_mvl/mxv
	BYTE	W02
	BYTE		        45*seq_025_mvl/mxv
	BYTE	W02
	BYTE		        40*seq_025_mvl/mxv
	BYTE	W02
	BYTE		        34*seq_025_mvl/mxv
	BYTE	W02
	BYTE		        28*seq_025_mvl/mxv
	BYTE	W02
	BYTE		        20*seq_025_mvl/mxv
	BYTE	W02
	BYTE		        16*seq_025_mvl/mxv
	BYTE	W02
	BYTE		        10*seq_025_mvl/mxv
	BYTE	W02
	BYTE		        8*seq_025_mvl/mxv
	BYTE	W02
	BYTE		        6*seq_025_mvl/mxv
	BYTE	W02
	BYTE		        4*seq_025_mvl/mxv
	BYTE	W02
	BYTE		        2*seq_025_mvl/mxv
	BYTE	W02
	BYTE		        1*seq_025_mvl/mxv
	BYTE	W08
	BYTE		        62*seq_025_mvl/mxv
	BYTE		N44     Fn2   v056
	BYTE	W08
	BYTE		VOL     61*seq_025_mvl/mxv
	BYTE	W02
	BYTE		        59*seq_025_mvl/mxv
	BYTE	W02
	BYTE		        57*seq_025_mvl/mxv
	BYTE	W02
	BYTE		        54*seq_025_mvl/mxv
	BYTE	W02
	BYTE		        50*seq_025_mvl/mxv
	BYTE	W02
	BYTE		        45*seq_025_mvl/mxv
	BYTE	W02
	BYTE		        40*seq_025_mvl/mxv
	BYTE	W02
	BYTE		        34*seq_025_mvl/mxv
	BYTE	W02
	BYTE		        28*seq_025_mvl/mxv
	BYTE	W02
	BYTE		        20*seq_025_mvl/mxv
	BYTE	W02
	BYTE		        16*seq_025_mvl/mxv
	BYTE	W02
	BYTE		        10*seq_025_mvl/mxv
	BYTE	W02
	BYTE		        8*seq_025_mvl/mxv
	BYTE	W02
	BYTE		        6*seq_025_mvl/mxv
	BYTE	W02
	BYTE		        4*seq_025_mvl/mxv
	BYTE	W02
	BYTE		        2*seq_025_mvl/mxv
	BYTE	W02
	BYTE		        1*seq_025_mvl/mxv
	BYTE	W08
	BYTE	PEND
	BYTE		VOL     62*seq_025_mvl/mxv
	BYTE		N44     Fn2   v072
	BYTE	W08
	BYTE		VOL     61*seq_025_mvl/mxv
	BYTE	W02
	BYTE		        59*seq_025_mvl/mxv
	BYTE	W02
	BYTE		        57*seq_025_mvl/mxv
	BYTE	W02
	BYTE		        54*seq_025_mvl/mxv
	BYTE	W02
	BYTE		        50*seq_025_mvl/mxv
	BYTE	W02
	BYTE		        45*seq_025_mvl/mxv
	BYTE	W02
	BYTE		        40*seq_025_mvl/mxv
	BYTE	W02
	BYTE		        34*seq_025_mvl/mxv
	BYTE	W02
	BYTE		        28*seq_025_mvl/mxv
	BYTE	W02
	BYTE		        20*seq_025_mvl/mxv
	BYTE	W02
	BYTE		        16*seq_025_mvl/mxv
	BYTE	W02
	BYTE		        10*seq_025_mvl/mxv
	BYTE	W02
	BYTE		        8*seq_025_mvl/mxv
	BYTE	W02
	BYTE		        6*seq_025_mvl/mxv
	BYTE	W02
	BYTE		        4*seq_025_mvl/mxv
	BYTE	W02
	BYTE		        2*seq_025_mvl/mxv
	BYTE	W02
	BYTE		        1*seq_025_mvl/mxv
	BYTE	W08
	BYTE		        62*seq_025_mvl/mxv
	BYTE		N44     Fn2   v060
	BYTE	W08
	BYTE		VOL     61*seq_025_mvl/mxv
	BYTE	W02
	BYTE		        59*seq_025_mvl/mxv
	BYTE	W02
	BYTE		        57*seq_025_mvl/mxv
	BYTE	W02
	BYTE		        54*seq_025_mvl/mxv
	BYTE	W02
	BYTE		        50*seq_025_mvl/mxv
	BYTE	W02
	BYTE		        45*seq_025_mvl/mxv
	BYTE	W02
	BYTE		        40*seq_025_mvl/mxv
	BYTE	W02
	BYTE		        34*seq_025_mvl/mxv
	BYTE	W02
	BYTE		        28*seq_025_mvl/mxv
	BYTE	W02
	BYTE		        20*seq_025_mvl/mxv
	BYTE	W02
	BYTE		        16*seq_025_mvl/mxv
	BYTE	W02
	BYTE		        10*seq_025_mvl/mxv
	BYTE	W02
	BYTE		        8*seq_025_mvl/mxv
	BYTE	W02
	BYTE		        6*seq_025_mvl/mxv
	BYTE	W02
	BYTE		        4*seq_025_mvl/mxv
	BYTE	W02
	BYTE		        2*seq_025_mvl/mxv
	BYTE	W02
	BYTE		        1*seq_025_mvl/mxv
	BYTE	W08
	BYTE	PEND
	BYTE		VOL     62*seq_025_mvl/mxv
	BYTE		N44     Cn2   v056
	BYTE	W08
	BYTE		VOL     61*seq_025_mvl/mxv
	BYTE	W02
	BYTE		        59*seq_025_mvl/mxv
	BYTE	W02
	BYTE		        57*seq_025_mvl/mxv
	BYTE	W02
	BYTE		        54*seq_025_mvl/mxv
	BYTE	W02
	BYTE		        50*seq_025_mvl/mxv
	BYTE	W02
	BYTE		        45*seq_025_mvl/mxv
	BYTE	W02
	BYTE		        40*seq_025_mvl/mxv
	BYTE	W02
	BYTE		        34*seq_025_mvl/mxv
	BYTE	W02
	BYTE		        28*seq_025_mvl/mxv
	BYTE	W02
	BYTE		        20*seq_025_mvl/mxv
	BYTE	W02
	BYTE		        16*seq_025_mvl/mxv
	BYTE	W02
	BYTE		        10*seq_025_mvl/mxv
	BYTE	W02
	BYTE		        8*seq_025_mvl/mxv
	BYTE	W02
	BYTE		        6*seq_025_mvl/mxv
	BYTE	W02
	BYTE		        4*seq_025_mvl/mxv
	BYTE	W02
	BYTE		        2*seq_025_mvl/mxv
	BYTE	W02
	BYTE		        1*seq_025_mvl/mxv
	BYTE	W08
	BYTE		        62*seq_025_mvl/mxv
	BYTE		N44     Cn2   v052
	BYTE	W08
	BYTE		VOL     61*seq_025_mvl/mxv
	BYTE	W02
	BYTE		        59*seq_025_mvl/mxv
	BYTE	W02
	BYTE		        57*seq_025_mvl/mxv
	BYTE	W02
	BYTE		        54*seq_025_mvl/mxv
	BYTE	W02
	BYTE		        50*seq_025_mvl/mxv
	BYTE	W02
	BYTE		        45*seq_025_mvl/mxv
	BYTE	W02
	BYTE		        40*seq_025_mvl/mxv
	BYTE	W02
	BYTE		        34*seq_025_mvl/mxv
	BYTE	W02
	BYTE		        28*seq_025_mvl/mxv
	BYTE	W02
	BYTE		        20*seq_025_mvl/mxv
	BYTE	W02
	BYTE		        16*seq_025_mvl/mxv
	BYTE	W02
	BYTE		        10*seq_025_mvl/mxv
	BYTE	W02
	BYTE		        8*seq_025_mvl/mxv
	BYTE	W02
	BYTE		        6*seq_025_mvl/mxv
	BYTE	W02
	BYTE		        4*seq_025_mvl/mxv
	BYTE	W02
	BYTE		        2*seq_025_mvl/mxv
	BYTE	W02
	BYTE		        1*seq_025_mvl/mxv
	BYTE	W08
	BYTE	PEND
	BYTE		VOL     62*seq_025_mvl/mxv
	BYTE		N44     Cn2   v056
	BYTE	W08
	BYTE		VOL     61*seq_025_mvl/mxv
	BYTE	W02
	BYTE		        59*seq_025_mvl/mxv
	BYTE	W02
	BYTE		        57*seq_025_mvl/mxv
	BYTE	W02
	BYTE		        54*seq_025_mvl/mxv
	BYTE	W02
	BYTE		        50*seq_025_mvl/mxv
	BYTE	W02
	BYTE		        45*seq_025_mvl/mxv
	BYTE	W02
	BYTE		        40*seq_025_mvl/mxv
	BYTE	W02
	BYTE		        34*seq_025_mvl/mxv
	BYTE	W02
	BYTE		        28*seq_025_mvl/mxv
	BYTE	W02
	BYTE		        20*seq_025_mvl/mxv
	BYTE	W02
	BYTE		        16*seq_025_mvl/mxv
	BYTE	W02
	BYTE		        10*seq_025_mvl/mxv
	BYTE	W02
	BYTE		        8*seq_025_mvl/mxv
	BYTE	W02
	BYTE		        6*seq_025_mvl/mxv
	BYTE	W02
	BYTE		        4*seq_025_mvl/mxv
	BYTE	W02
	BYTE		        2*seq_025_mvl/mxv
	BYTE	W02
	BYTE		        1*seq_025_mvl/mxv
	BYTE	W08
	BYTE		        62*seq_025_mvl/mxv
	BYTE		N44     Cn2   v060
	BYTE	W08
	BYTE		VOL     61*seq_025_mvl/mxv
	BYTE	W02
	BYTE		        59*seq_025_mvl/mxv
	BYTE	W02
	BYTE		        57*seq_025_mvl/mxv
	BYTE	W02
	BYTE		        54*seq_025_mvl/mxv
	BYTE	W02
	BYTE		        50*seq_025_mvl/mxv
	BYTE	W02
	BYTE		        45*seq_025_mvl/mxv
	BYTE	W02
	BYTE		        40*seq_025_mvl/mxv
	BYTE	W02
	BYTE		        34*seq_025_mvl/mxv
	BYTE	W02
	BYTE		        28*seq_025_mvl/mxv
	BYTE	W02
	BYTE		        20*seq_025_mvl/mxv
	BYTE	W02
	BYTE		        16*seq_025_mvl/mxv
	BYTE	W02
	BYTE		        10*seq_025_mvl/mxv
	BYTE	W02
	BYTE		        8*seq_025_mvl/mxv
	BYTE	W02
	BYTE		        6*seq_025_mvl/mxv
	BYTE	W02
	BYTE		        4*seq_025_mvl/mxv
	BYTE	W02
	BYTE		        2*seq_025_mvl/mxv
	BYTE	W02
	BYTE		        1*seq_025_mvl/mxv
	BYTE	W08
	BYTE	PEND
	BYTE	PATT
	 POIN2	seq_025_3 + 0xB
	BYTE	PATT
	 POIN2	seq_025_3 + 0x5D
	BYTE	PATT
	 POIN2	seq_025_3 + 0xAF
	BYTE	PATT
	 POIN2	seq_025_3 + 0x101
	BYTE		VOL     62*seq_025_mvl/mxv
	BYTE		N44     Fn2   v068
	BYTE	W08
	BYTE		VOL     61*seq_025_mvl/mxv
	BYTE	W02
	BYTE		        59*seq_025_mvl/mxv
	BYTE	W02
	BYTE		        57*seq_025_mvl/mxv
	BYTE	W02
	BYTE		        54*seq_025_mvl/mxv
	BYTE	W02
	BYTE		        50*seq_025_mvl/mxv
	BYTE	W02
	BYTE		        45*seq_025_mvl/mxv
	BYTE	W02
	BYTE		        40*seq_025_mvl/mxv
	BYTE	W02
	BYTE		        34*seq_025_mvl/mxv
	BYTE	W02
	BYTE		        28*seq_025_mvl/mxv
	BYTE	W02
	BYTE		        20*seq_025_mvl/mxv
	BYTE	W02
	BYTE		        16*seq_025_mvl/mxv
	BYTE	W02
	BYTE		        10*seq_025_mvl/mxv
	BYTE	W02
	BYTE		        8*seq_025_mvl/mxv
	BYTE	W02
	BYTE		        6*seq_025_mvl/mxv
	BYTE	W02
	BYTE		        4*seq_025_mvl/mxv
	BYTE	W02
	BYTE		        2*seq_025_mvl/mxv
	BYTE	W02
	BYTE		        1*seq_025_mvl/mxv
	BYTE	W08
	BYTE		        62*seq_025_mvl/mxv
	BYTE		N44     Fn2   v060
	BYTE	W08
	BYTE		VOL     61*seq_025_mvl/mxv
	BYTE	W02
	BYTE		        59*seq_025_mvl/mxv
	BYTE	W02
	BYTE		        57*seq_025_mvl/mxv
	BYTE	W02
	BYTE		        54*seq_025_mvl/mxv
	BYTE	W02
	BYTE		        50*seq_025_mvl/mxv
	BYTE	W02
	BYTE		        45*seq_025_mvl/mxv
	BYTE	W02
	BYTE		        40*seq_025_mvl/mxv
	BYTE	W02
	BYTE		        34*seq_025_mvl/mxv
	BYTE	W02
	BYTE		        28*seq_025_mvl/mxv
	BYTE	W02
	BYTE		        20*seq_025_mvl/mxv
	BYTE	W02
	BYTE		        16*seq_025_mvl/mxv
	BYTE	W02
	BYTE		        10*seq_025_mvl/mxv
	BYTE	W02
	BYTE		        8*seq_025_mvl/mxv
	BYTE	W02
	BYTE		        6*seq_025_mvl/mxv
	BYTE	W02
	BYTE		        4*seq_025_mvl/mxv
	BYTE	W02
	BYTE		        2*seq_025_mvl/mxv
	BYTE	W02
	BYTE		        1*seq_025_mvl/mxv
	BYTE	W08
	BYTE	PEND
	BYTE		VOL     62*seq_025_mvl/mxv
	BYTE		N44     Fn2   v072
	BYTE	W08
	BYTE		VOL     61*seq_025_mvl/mxv
	BYTE	W02
	BYTE		        59*seq_025_mvl/mxv
	BYTE	W02
	BYTE		        57*seq_025_mvl/mxv
	BYTE	W02
	BYTE		        54*seq_025_mvl/mxv
	BYTE	W02
	BYTE		        50*seq_025_mvl/mxv
	BYTE	W02
	BYTE		        45*seq_025_mvl/mxv
	BYTE	W02
	BYTE		        40*seq_025_mvl/mxv
	BYTE	W02
	BYTE		        34*seq_025_mvl/mxv
	BYTE	W02
	BYTE		        28*seq_025_mvl/mxv
	BYTE	W02
	BYTE		        20*seq_025_mvl/mxv
	BYTE	W02
	BYTE		        16*seq_025_mvl/mxv
	BYTE	W02
	BYTE		        10*seq_025_mvl/mxv
	BYTE	W02
	BYTE		        8*seq_025_mvl/mxv
	BYTE	W02
	BYTE		        6*seq_025_mvl/mxv
	BYTE	W02
	BYTE		        4*seq_025_mvl/mxv
	BYTE	W02
	BYTE		        2*seq_025_mvl/mxv
	BYTE	W02
	BYTE		        1*seq_025_mvl/mxv
	BYTE	W08
	BYTE		        62*seq_025_mvl/mxv
	BYTE		N44     En2   v080
	BYTE	W08
	BYTE		VOL     61*seq_025_mvl/mxv
	BYTE	W02
	BYTE		        59*seq_025_mvl/mxv
	BYTE	W02
	BYTE		        57*seq_025_mvl/mxv
	BYTE	W02
	BYTE		        54*seq_025_mvl/mxv
	BYTE	W02
	BYTE		        50*seq_025_mvl/mxv
	BYTE	W02
	BYTE		        45*seq_025_mvl/mxv
	BYTE	W02
	BYTE		        40*seq_025_mvl/mxv
	BYTE	W02
	BYTE		        34*seq_025_mvl/mxv
	BYTE	W02
	BYTE		        28*seq_025_mvl/mxv
	BYTE	W02
	BYTE		        20*seq_025_mvl/mxv
	BYTE	W02
	BYTE		        16*seq_025_mvl/mxv
	BYTE	W02
	BYTE		        10*seq_025_mvl/mxv
	BYTE	W02
	BYTE		        8*seq_025_mvl/mxv
	BYTE	W02
	BYTE		        6*seq_025_mvl/mxv
	BYTE	W02
	BYTE		        4*seq_025_mvl/mxv
	BYTE	W02
	BYTE		        2*seq_025_mvl/mxv
	BYTE	W02
	BYTE		        1*seq_025_mvl/mxv
	BYTE	W08
	BYTE	PEND
	BYTE		VOL     62*seq_025_mvl/mxv
	BYTE		N44     An1   v076
	BYTE	W08
	BYTE		VOL     61*seq_025_mvl/mxv
	BYTE	W02
	BYTE		        59*seq_025_mvl/mxv
	BYTE	W02
	BYTE		        57*seq_025_mvl/mxv
	BYTE	W02
	BYTE		        54*seq_025_mvl/mxv
	BYTE	W02
	BYTE		        50*seq_025_mvl/mxv
	BYTE	W02
	BYTE		        45*seq_025_mvl/mxv
	BYTE	W02
	BYTE		        40*seq_025_mvl/mxv
	BYTE	W02
	BYTE		        34*seq_025_mvl/mxv
	BYTE	W02
	BYTE		        28*seq_025_mvl/mxv
	BYTE	W02
	BYTE		        20*seq_025_mvl/mxv
	BYTE	W02
	BYTE		        16*seq_025_mvl/mxv
	BYTE	W02
	BYTE		        10*seq_025_mvl/mxv
	BYTE	W02
	BYTE		        8*seq_025_mvl/mxv
	BYTE	W02
	BYTE		        6*seq_025_mvl/mxv
	BYTE	W02
	BYTE		        4*seq_025_mvl/mxv
	BYTE	W02
	BYTE		        2*seq_025_mvl/mxv
	BYTE	W02
	BYTE		        1*seq_025_mvl/mxv
	BYTE	W08
	BYTE		        62*seq_025_mvl/mxv
	BYTE		N44     An1   v068
	BYTE	W08
	BYTE		VOL     61*seq_025_mvl/mxv
	BYTE	W02
	BYTE		        59*seq_025_mvl/mxv
	BYTE	W02
	BYTE		        57*seq_025_mvl/mxv
	BYTE	W02
	BYTE		        54*seq_025_mvl/mxv
	BYTE	W02
	BYTE		        50*seq_025_mvl/mxv
	BYTE	W02
	BYTE		        45*seq_025_mvl/mxv
	BYTE	W02
	BYTE		        40*seq_025_mvl/mxv
	BYTE	W02
	BYTE		        34*seq_025_mvl/mxv
	BYTE	W02
	BYTE		        28*seq_025_mvl/mxv
	BYTE	W02
	BYTE		        20*seq_025_mvl/mxv
	BYTE	W02
	BYTE		        16*seq_025_mvl/mxv
	BYTE	W02
	BYTE		        10*seq_025_mvl/mxv
	BYTE	W02
	BYTE		        8*seq_025_mvl/mxv
	BYTE	W02
	BYTE		        6*seq_025_mvl/mxv
	BYTE	W02
	BYTE		        4*seq_025_mvl/mxv
	BYTE	W02
	BYTE		        2*seq_025_mvl/mxv
	BYTE	W02
	BYTE		        1*seq_025_mvl/mxv
	BYTE	W08
	BYTE	PEND
	BYTE		        62*seq_025_mvl/mxv
	BYTE		N44     An1   v072
	BYTE	W08
	BYTE		VOL     61*seq_025_mvl/mxv
	BYTE	W02
	BYTE		        59*seq_025_mvl/mxv
	BYTE	W02
	BYTE		        57*seq_025_mvl/mxv
	BYTE	W02
	BYTE		        54*seq_025_mvl/mxv
	BYTE	W02
	BYTE		        50*seq_025_mvl/mxv
	BYTE	W02
	BYTE		        45*seq_025_mvl/mxv
	BYTE	W02
	BYTE		        40*seq_025_mvl/mxv
	BYTE	W02
	BYTE		        34*seq_025_mvl/mxv
	BYTE	W02
	BYTE		        28*seq_025_mvl/mxv
	BYTE	W02
	BYTE		        20*seq_025_mvl/mxv
	BYTE	W02
	BYTE		        16*seq_025_mvl/mxv
	BYTE	W02
	BYTE		        10*seq_025_mvl/mxv
	BYTE	W02
	BYTE		        8*seq_025_mvl/mxv
	BYTE	W02
	BYTE		        6*seq_025_mvl/mxv
	BYTE	W02
	BYTE		        4*seq_025_mvl/mxv
	BYTE	W02
	BYTE		        2*seq_025_mvl/mxv
	BYTE	W02
	BYTE		        1*seq_025_mvl/mxv
	BYTE	W08
	BYTE		        62*seq_025_mvl/mxv
	BYTE		N44     An1   v064
	BYTE	W08
	BYTE		VOL     61*seq_025_mvl/mxv
	BYTE	W02
	BYTE		        59*seq_025_mvl/mxv
	BYTE	W02
	BYTE		        57*seq_025_mvl/mxv
	BYTE	W02
	BYTE		        54*seq_025_mvl/mxv
	BYTE	W02
	BYTE		        50*seq_025_mvl/mxv
	BYTE	W02
	BYTE		        45*seq_025_mvl/mxv
	BYTE	W02
	BYTE		        40*seq_025_mvl/mxv
	BYTE	W02
	BYTE		        34*seq_025_mvl/mxv
	BYTE	W02
	BYTE		        28*seq_025_mvl/mxv
	BYTE	W02
	BYTE		        20*seq_025_mvl/mxv
	BYTE	W02
	BYTE		        16*seq_025_mvl/mxv
	BYTE	W02
	BYTE		        10*seq_025_mvl/mxv
	BYTE	W02
	BYTE		        8*seq_025_mvl/mxv
	BYTE	W02
	BYTE		        6*seq_025_mvl/mxv
	BYTE	W02
	BYTE		        4*seq_025_mvl/mxv
	BYTE	W02
	BYTE		        2*seq_025_mvl/mxv
	BYTE	W02
	BYTE		        1*seq_025_mvl/mxv
	BYTE	W08
	BYTE	PATT
	 POIN2	seq_025_3 + 0x167
	BYTE	PATT
	 POIN2	seq_025_3 + 0x1B9
	BYTE	PATT
	 POIN2	seq_025_3 + 0x20B
	BYTE		VOL     62*seq_025_mvl/mxv
	BYTE		N44     An1   v072
	BYTE	W08
	BYTE		VOL     61*seq_025_mvl/mxv
	BYTE	W02
	BYTE		        59*seq_025_mvl/mxv
	BYTE	W02
	BYTE		        57*seq_025_mvl/mxv
	BYTE	W02
	BYTE		        54*seq_025_mvl/mxv
	BYTE	W02
	BYTE		        50*seq_025_mvl/mxv
	BYTE	W02
	BYTE		        45*seq_025_mvl/mxv
	BYTE	W02
	BYTE		        40*seq_025_mvl/mxv
	BYTE	W02
	BYTE		        34*seq_025_mvl/mxv
	BYTE	W02
	BYTE		        28*seq_025_mvl/mxv
	BYTE	W02
	BYTE		        20*seq_025_mvl/mxv
	BYTE	W02
	BYTE		        16*seq_025_mvl/mxv
	BYTE	W02
	BYTE		        10*seq_025_mvl/mxv
	BYTE	W02
	BYTE		        8*seq_025_mvl/mxv
	BYTE	W02
	BYTE		        6*seq_025_mvl/mxv
	BYTE	W02
	BYTE		        4*seq_025_mvl/mxv
	BYTE	W02
	BYTE		        2*seq_025_mvl/mxv
	BYTE	W02
	BYTE		        1*seq_025_mvl/mxv
	BYTE	W08
	BYTE		        62*seq_025_mvl/mxv
	BYTE		N44     An1   v064
	BYTE	W08
	BYTE		VOL     61*seq_025_mvl/mxv
	BYTE	W02
	BYTE		        59*seq_025_mvl/mxv
	BYTE	W02
	BYTE		        57*seq_025_mvl/mxv
	BYTE	W02
	BYTE		        54*seq_025_mvl/mxv
	BYTE	W02
	BYTE		        50*seq_025_mvl/mxv
	BYTE	W02
	BYTE		        45*seq_025_mvl/mxv
	BYTE	W02
	BYTE		        40*seq_025_mvl/mxv
	BYTE	W02
	BYTE		        34*seq_025_mvl/mxv
	BYTE	W02
	BYTE		        28*seq_025_mvl/mxv
	BYTE	W02
	BYTE		        20*seq_025_mvl/mxv
	BYTE	W02
	BYTE		        16*seq_025_mvl/mxv
	BYTE	W02
	BYTE		        10*seq_025_mvl/mxv
	BYTE	W02
	BYTE		        8*seq_025_mvl/mxv
	BYTE	W02
	BYTE		        6*seq_025_mvl/mxv
	BYTE	W02
	BYTE		        4*seq_025_mvl/mxv
	BYTE	W02
	BYTE		        2*seq_025_mvl/mxv
	BYTE	W02
	BYTE		        1*seq_025_mvl/mxv
	BYTE	W07
	BYTE		        62*seq_025_mvl/mxv
	BYTE	W01
	BYTE	GoTo
	 POIN2	seq_025_3 + 0xB
	BYTE	W04
	BYTE	FINE

//*********************** Track 05 ***********************//

seq_025_4:
	BYTE	KEYSH   seq_025_key+0
	BYTE		VOICE   48
	BYTE	W01
	BYTE		VOL     62*seq_025_mvl/mxv
	BYTE	W01
	BYTE		PAN     c_v+6
	BYTE	W01
	BYTE		MODT    mod_pan
	BYTE		N24     Dn3   v056
	BYTE	W01
	BYTE		LFOS    45
	BYTE	W23
	BYTE		N24     En3   v052
	BYTE	W24
	BYTE		        Dn3 
	BYTE	W12
	BYTE		VOL     62*seq_025_mvl/mxv
	BYTE	W01
	BYTE		        61*seq_025_mvl/mxv
	BYTE	W02
	BYTE		        58*seq_025_mvl/mxv
	BYTE	W01
	BYTE		        52*seq_025_mvl/mxv
	BYTE	W02
	BYTE		        44*seq_025_mvl/mxv
	BYTE	W01
	BYTE		        34*seq_025_mvl/mxv
	BYTE	W02
	BYTE		        22*seq_025_mvl/mxv
	BYTE	W09
	BYTE		        62*seq_025_mvl/mxv
	BYTE	W18
	BYTE		N24     Dn3   v064
	BYTE	W24
	BYTE		        En3   v060
	BYTE	W24
	BYTE		VOL     62*seq_025_mvl/mxv
	BYTE		N24     Dn3   v052
	BYTE	W03
	BYTE		VOL     61*seq_025_mvl/mxv
	BYTE	W03
	BYTE		        60*seq_025_mvl/mxv
	BYTE	W01
	BYTE		        58*seq_025_mvl/mxv
	BYTE	W02
	BYTE		        56*seq_025_mvl/mxv
	BYTE	W01
	BYTE		        52*seq_025_mvl/mxv
	BYTE	W02
	BYTE		        49*seq_025_mvl/mxv
	BYTE	W01
	BYTE		        44*seq_025_mvl/mxv
	BYTE	W02
	BYTE		        39*seq_025_mvl/mxv
	BYTE	W01
	BYTE		        33*seq_025_mvl/mxv
	BYTE	W02
	BYTE		        26*seq_025_mvl/mxv
	BYTE	W01
	BYTE		        19*seq_025_mvl/mxv
	BYTE	W02
	BYTE		        11*seq_025_mvl/mxv
	BYTE	W01
	BYTE		        10*seq_025_mvl/mxv
	BYTE	W08
	BYTE		        62*seq_025_mvl/mxv
	BYTE	W18
	BYTE		N24     Dn3   v068
	BYTE	W24
	BYTE		        En3   v060
	BYTE	W24
	BYTE		        Bn2 
	BYTE	W12
	BYTE		VOL     62*seq_025_mvl/mxv
	BYTE	W01
	BYTE		        61*seq_025_mvl/mxv
	BYTE	W02
	BYTE		        58*seq_025_mvl/mxv
	BYTE	W01
	BYTE		        52*seq_025_mvl/mxv
	BYTE	W02
	BYTE		        44*seq_025_mvl/mxv
	BYTE	W01
	BYTE		        34*seq_025_mvl/mxv
	BYTE	W02
	BYTE		        22*seq_025_mvl/mxv
	BYTE	W09
	BYTE		        62*seq_025_mvl/mxv
	BYTE	W18
	BYTE	PEND
	BYTE		N23     Dn3   v080
	BYTE	W24
	BYTE		N24     En3   v068
	BYTE	W24
	BYTE		        Bn2   v064
	BYTE	W13
	BYTE		VOL     62*seq_025_mvl/mxv
	BYTE	W02
	BYTE		        61*seq_025_mvl/mxv
	BYTE	W01
	BYTE		        58*seq_025_mvl/mxv
	BYTE	W02
	BYTE		        52*seq_025_mvl/mxv
	BYTE	W01
	BYTE		        44*seq_025_mvl/mxv
	BYTE	W02
	BYTE		        34*seq_025_mvl/mxv
	BYTE	W01
	BYTE		        22*seq_025_mvl/mxv
	BYTE	W09
	BYTE		        62*seq_025_mvl/mxv
	BYTE	W17
	BYTE	PEND
	BYTE		N24     Dn3   v056
	BYTE	W24
	BYTE		        En3   v052
	BYTE	W24
	BYTE		        Dn3 
	BYTE	W12
	BYTE		VOL     62*seq_025_mvl/mxv
	BYTE	W01
	BYTE		        61*seq_025_mvl/mxv
	BYTE	W02
	BYTE		        58*seq_025_mvl/mxv
	BYTE	W01
	BYTE		        52*seq_025_mvl/mxv
	BYTE	W02
	BYTE		        44*seq_025_mvl/mxv
	BYTE	W01
	BYTE		        34*seq_025_mvl/mxv
	BYTE	W02
	BYTE		        22*seq_025_mvl/mxv
	BYTE	W09
	BYTE		        62*seq_025_mvl/mxv
	BYTE	W18
	BYTE		N24     Dn3   v064
	BYTE	W24
	BYTE		        En3   v060
	BYTE	W24
	BYTE		VOL     62*seq_025_mvl/mxv
	BYTE		N24     Dn3   v052
	BYTE	W03
	BYTE		VOL     61*seq_025_mvl/mxv
	BYTE	W01
	BYTE		        59*seq_025_mvl/mxv
	BYTE	W02
	BYTE		        57*seq_025_mvl/mxv
	BYTE	W01
	BYTE		        54*seq_025_mvl/mxv
	BYTE	W02
	BYTE		        51*seq_025_mvl/mxv
	BYTE	W01
	BYTE		        46*seq_025_mvl/mxv
	BYTE	W02
	BYTE		        41*seq_025_mvl/mxv
	BYTE	W01
	BYTE		        34*seq_025_mvl/mxv
	BYTE	W02
	BYTE		        28*seq_025_mvl/mxv
	BYTE	W01
	BYTE		        20*seq_025_mvl/mxv
	BYTE	W02
	BYTE		        14*seq_025_mvl/mxv
	BYTE	W01
	BYTE		        8*seq_025_mvl/mxv
	BYTE	W02
	BYTE		        4*seq_025_mvl/mxv
	BYTE	W01
	BYTE		        2*seq_025_mvl/mxv
	BYTE	W08
	BYTE		        62*seq_025_mvl/mxv
	BYTE	W18
	BYTE	PATT
	 POIN2	seq_025_4 + 0x55
	BYTE	PATT
	 POIN2	seq_025_4 + 0x70
	BYTE		N24     En3   v064
	BYTE	W24
	BYTE		        Fn3   v056
	BYTE	W24
	BYTE		        En3   v072
	BYTE	W24
	BYTE		        Fn3   v068
	BYTE	W24
	BYTE	PEND
	BYTE		N24     En3   v084
	BYTE	W24
	BYTE		        Fn3 
	BYTE	W24
	BYTE		N16     Dn3   v092
	BYTE	W16
	BYTE		N08     Fn3   v068
	BYTE	W08
	BYTE		N16     En3   v080
	BYTE	W16
	BYTE		N08     Dn3   v056
	BYTE	W08
	BYTE	PEND
	BYTE		N72     En3   v052
	BYTE	W02
	BYTE		VOL     64*seq_025_mvl/mxv
	BYTE	W04
	BYTE		        65*seq_025_mvl/mxv
	BYTE	W02
	BYTE		        66*seq_025_mvl/mxv
	BYTE	W02
	BYTE		        68*seq_025_mvl/mxv
	BYTE	W02
	BYTE		        70*seq_025_mvl/mxv
	BYTE		MOD     8
	BYTE	W02
	BYTE		VOL     72*seq_025_mvl/mxv
	BYTE	W02
	BYTE		        75*seq_025_mvl/mxv
	BYTE	W02
	BYTE		MOD     13
	BYTE	W02
	BYTE		VOL     74*seq_025_mvl/mxv
	BYTE	W02
	BYTE		        72*seq_025_mvl/mxv
	BYTE	W02
	BYTE		        69*seq_025_mvl/mxv
	BYTE		MOD     22
	BYTE	W02
	BYTE		VOL     66*seq_025_mvl/mxv
	BYTE	W02
	BYTE		        62*seq_025_mvl/mxv
	BYTE	W02
	BYTE		        57*seq_025_mvl/mxv
	BYTE	W02
	BYTE		        51*seq_025_mvl/mxv
	BYTE	W02
	BYTE		        45*seq_025_mvl/mxv
	BYTE	W02
	BYTE		        37*seq_025_mvl/mxv
	BYTE	W02
	BYTE		        30*seq_025_mvl/mxv
	BYTE	W02
	BYTE		        21*seq_025_mvl/mxv
	BYTE	W02
	BYTE		        11*seq_025_mvl/mxv
	BYTE	W02
	BYTE		        5*seq_025_mvl/mxv
	BYTE		MOD     15
	BYTE	W02
	BYTE		VOL     3*seq_025_mvl/mxv
	BYTE	W02
	BYTE		        1*seq_025_mvl/mxv
	BYTE		MOD     4
	BYTE	W02
	BYTE		VOL     0*seq_025_mvl/mxv
	BYTE	W20
	BYTE		MOD     0
	BYTE	W24
	BYTE	W02
	BYTE	W84
	BYTE		VOL     62*seq_025_mvl/mxv
	BYTE	W12
	BYTE	PATT
	 POIN2	seq_025_4 + 0xDD
	BYTE	PATT
	 POIN2	seq_025_4 + 0xEB
	BYTE		N72     En3   v052
	BYTE	W02
	BYTE		VOL     64*seq_025_mvl/mxv
	BYTE	W04
	BYTE		        65*seq_025_mvl/mxv
	BYTE	W02
	BYTE		        66*seq_025_mvl/mxv
	BYTE	W02
	BYTE		        68*seq_025_mvl/mxv
	BYTE	W02
	BYTE		        70*seq_025_mvl/mxv
	BYTE		MOD     8
	BYTE	W02
	BYTE		VOL     72*seq_025_mvl/mxv
	BYTE	W02
	BYTE		        75*seq_025_mvl/mxv
	BYTE	W02
	BYTE		MOD     13
	BYTE	W02
	BYTE		VOL     74*seq_025_mvl/mxv
	BYTE	W02
	BYTE		        72*seq_025_mvl/mxv
	BYTE	W02
	BYTE		        69*seq_025_mvl/mxv
	BYTE		MOD     22
	BYTE	W02
	BYTE		VOL     66*seq_025_mvl/mxv
	BYTE	W02
	BYTE		        62*seq_025_mvl/mxv
	BYTE	W02
	BYTE		        57*seq_025_mvl/mxv
	BYTE	W02
	BYTE		        51*seq_025_mvl/mxv
	BYTE	W02
	BYTE		        45*seq_025_mvl/mxv
	BYTE	W02
	BYTE		        37*seq_025_mvl/mxv
	BYTE	W02
	BYTE		        30*seq_025_mvl/mxv
	BYTE	W02
	BYTE		        21*seq_025_mvl/mxv
	BYTE	W02
	BYTE		        11*seq_025_mvl/mxv
	BYTE	W02
	BYTE		        5*seq_025_mvl/mxv
	BYTE		MOD     15
	BYTE	W02
	BYTE		VOL     3*seq_025_mvl/mxv
	BYTE	W02
	BYTE		        1*seq_025_mvl/mxv
	BYTE		MOD     4
	BYTE	W02
	BYTE		VOL     0*seq_025_mvl/mxv
	BYTE	W24
	BYTE	W02
	BYTE		MOD     0
	BYTE	W06
	BYTE		VOL     62*seq_025_mvl/mxv
	BYTE	W14
	BYTE	W96
	BYTE	GoTo
	 POIN2	seq_025_4 + 0xB
	BYTE	W04
	BYTE	FINE

//*********************** Track 06 ***********************//

seq_025_5:
	BYTE	KEYSH   seq_025_key+0
	BYTE		VOICE   48
	BYTE	W01
	BYTE		VOL     62*seq_025_mvl/mxv
	BYTE	W01
	BYTE		PAN     c_v+16
	BYTE	W01
	BYTE		MODT    mod_pan
	BYTE		N23     Fn2   v052
	BYTE		N23     An2   v048
	BYTE	W01
	BYTE		LFOS    45
	BYTE	W11
	BYTE		VOL     61*seq_025_mvl/mxv
	BYTE	W01
	BYTE		        60*seq_025_mvl/mxv
	BYTE	W02
	BYTE		        59*seq_025_mvl/mxv
	BYTE	W01
	BYTE		        56*seq_025_mvl/mxv
	BYTE	W02
	BYTE		        52*seq_025_mvl/mxv
	BYTE	W01
	BYTE		        47*seq_025_mvl/mxv
	BYTE	W02
	BYTE		        42*seq_025_mvl/mxv
	BYTE	W03
	BYTE		        62*seq_025_mvl/mxv
	BYTE		N23     Fn2 
	BYTE		N23     An2 
	BYTE	W12
	BYTE		VOL     62*seq_025_mvl/mxv
	BYTE	W03
	BYTE		        60*seq_025_mvl/mxv
	BYTE	W01
	BYTE		        58*seq_025_mvl/mxv
	BYTE	W02
	BYTE		        55*seq_025_mvl/mxv
	BYTE	W01
	BYTE		        51*seq_025_mvl/mxv
	BYTE	W02
	BYTE		        45*seq_025_mvl/mxv
	BYTE	W01
	BYTE		        39*seq_025_mvl/mxv
	BYTE	W02
	BYTE		        62*seq_025_mvl/mxv
	BYTE		N24     Fn2   v044
	BYTE		N24     An2 
	BYTE	W09
	BYTE		VOL     62*seq_025_mvl/mxv
	BYTE	W01
	BYTE		        61*seq_025_mvl/mxv
	BYTE	W02
	BYTE		        59*seq_025_mvl/mxv
	BYTE	W01
	BYTE		        56*seq_025_mvl/mxv
	BYTE	W02
	BYTE		        52*seq_025_mvl/mxv
	BYTE	W01
	BYTE		        46*seq_025_mvl/mxv
	BYTE	W02
	BYTE		        40*seq_025_mvl/mxv
	BYTE	W01
	BYTE		        32*seq_025_mvl/mxv
	BYTE	W02
	BYTE		        22*seq_025_mvl/mxv
	BYTE	W01
	BYTE		        11*seq_025_mvl/mxv
	BYTE	W14
	BYTE		        62*seq_025_mvl/mxv
	BYTE	W12
	BYTE		N23     Fn2   v056
	BYTE		N23     An2   v048
	BYTE	W12
	BYTE		VOL     61*seq_025_mvl/mxv
	BYTE	W01
	BYTE		        60*seq_025_mvl/mxv
	BYTE	W02
	BYTE		        59*seq_025_mvl/mxv
	BYTE	W01
	BYTE		        56*seq_025_mvl/mxv
	BYTE	W02
	BYTE		        52*seq_025_mvl/mxv
	BYTE	W01
	BYTE		        47*seq_025_mvl/mxv
	BYTE	W02
	BYTE		        42*seq_025_mvl/mxv
	BYTE	W03
	BYTE		        62*seq_025_mvl/mxv
	BYTE		N23     Fn2   v044
	BYTE		N23     An2 
	BYTE	W12
	BYTE		VOL     62*seq_025_mvl/mxv
	BYTE	W03
	BYTE		        60*seq_025_mvl/mxv
	BYTE	W01
	BYTE		        58*seq_025_mvl/mxv
	BYTE	W02
	BYTE		        55*seq_025_mvl/mxv
	BYTE	W01
	BYTE		        51*seq_025_mvl/mxv
	BYTE	W02
	BYTE		        45*seq_025_mvl/mxv
	BYTE	W01
	BYTE		        39*seq_025_mvl/mxv
	BYTE	W02
	BYTE		        62*seq_025_mvl/mxv
	BYTE		N24     Fn2 
	BYTE		N24     An2 
	BYTE	W03
	BYTE		VOL     61*seq_025_mvl/mxv
	BYTE	W03
	BYTE		        60*seq_025_mvl/mxv
	BYTE	W01
	BYTE		        58*seq_025_mvl/mxv
	BYTE	W02
	BYTE		        56*seq_025_mvl/mxv
	BYTE	W01
	BYTE		        52*seq_025_mvl/mxv
	BYTE	W02
	BYTE		        49*seq_025_mvl/mxv
	BYTE	W01
	BYTE		        44*seq_025_mvl/mxv
	BYTE	W02
	BYTE		        39*seq_025_mvl/mxv
	BYTE	W01
	BYTE		        33*seq_025_mvl/mxv
	BYTE	W02
	BYTE		        26*seq_025_mvl/mxv
	BYTE	W01
	BYTE		        19*seq_025_mvl/mxv
	BYTE	W02
	BYTE		        11*seq_025_mvl/mxv
	BYTE	W01
	BYTE		        10*seq_025_mvl/mxv
	BYTE	W14
	BYTE		        62*seq_025_mvl/mxv
	BYTE	W12
	BYTE		N23     En2   v056
	BYTE		N23     Gn2   v048
	BYTE	W12
	BYTE		VOL     61*seq_025_mvl/mxv
	BYTE	W01
	BYTE		        60*seq_025_mvl/mxv
	BYTE	W02
	BYTE		        59*seq_025_mvl/mxv
	BYTE	W01
	BYTE		        56*seq_025_mvl/mxv
	BYTE	W02
	BYTE		        52*seq_025_mvl/mxv
	BYTE	W01
	BYTE		        47*seq_025_mvl/mxv
	BYTE	W02
	BYTE		        42*seq_025_mvl/mxv
	BYTE	W03
	BYTE		        62*seq_025_mvl/mxv
	BYTE		N23     En2   v044
	BYTE		N23     Gn2   v040
	BYTE	W12
	BYTE		VOL     62*seq_025_mvl/mxv
	BYTE	W03
	BYTE		        60*seq_025_mvl/mxv
	BYTE	W01
	BYTE		        58*seq_025_mvl/mxv
	BYTE	W02
	BYTE		        55*seq_025_mvl/mxv
	BYTE	W01
	BYTE		        51*seq_025_mvl/mxv
	BYTE	W02
	BYTE		        45*seq_025_mvl/mxv
	BYTE	W01
	BYTE		        39*seq_025_mvl/mxv
	BYTE	W02
	BYTE		        62*seq_025_mvl/mxv
	BYTE		N24     En2 
	BYTE		N24     Gn2   v036
	BYTE	W09
	BYTE		VOL     62*seq_025_mvl/mxv
	BYTE	W01
	BYTE		        61*seq_025_mvl/mxv
	BYTE	W02
	BYTE		        59*seq_025_mvl/mxv
	BYTE	W01
	BYTE		        56*seq_025_mvl/mxv
	BYTE	W02
	BYTE		        52*seq_025_mvl/mxv
	BYTE	W01
	BYTE		        46*seq_025_mvl/mxv
	BYTE	W02
	BYTE		        40*seq_025_mvl/mxv
	BYTE	W01
	BYTE		        32*seq_025_mvl/mxv
	BYTE	W02
	BYTE		        22*seq_025_mvl/mxv
	BYTE	W01
	BYTE		        11*seq_025_mvl/mxv
	BYTE	W14
	BYTE		        62*seq_025_mvl/mxv
	BYTE	W12
	BYTE	PEND
	BYTE		N22     En2   v044
	BYTE		N23     Gn2 
	BYTE	W12
	BYTE		VOL     61*seq_025_mvl/mxv
	BYTE	W01
	BYTE		        60*seq_025_mvl/mxv
	BYTE	W02
	BYTE		        59*seq_025_mvl/mxv
	BYTE	W01
	BYTE		        56*seq_025_mvl/mxv
	BYTE	W02
	BYTE		        52*seq_025_mvl/mxv
	BYTE	W01
	BYTE		        47*seq_025_mvl/mxv
	BYTE	W02
	BYTE		        42*seq_025_mvl/mxv
	BYTE	W03
	BYTE		        62*seq_025_mvl/mxv
	BYTE		N23     En2   v036
	BYTE		N23     Gn2 
	BYTE	W12
	BYTE		VOL     62*seq_025_mvl/mxv
	BYTE	W03
	BYTE		        60*seq_025_mvl/mxv
	BYTE	W01
	BYTE		        58*seq_025_mvl/mxv
	BYTE	W02
	BYTE		        55*seq_025_mvl/mxv
	BYTE	W01
	BYTE		        51*seq_025_mvl/mxv
	BYTE	W02
	BYTE		        45*seq_025_mvl/mxv
	BYTE	W01
	BYTE		        39*seq_025_mvl/mxv
	BYTE	W02
	BYTE		        62*seq_025_mvl/mxv
	BYTE		N24     En2 
	BYTE		N24     Gn2 
	BYTE	W09
	BYTE		VOL     62*seq_025_mvl/mxv
	BYTE	W01
	BYTE		        61*seq_025_mvl/mxv
	BYTE	W02
	BYTE		        59*seq_025_mvl/mxv
	BYTE	W01
	BYTE		        56*seq_025_mvl/mxv
	BYTE	W02
	BYTE		        52*seq_025_mvl/mxv
	BYTE	W01
	BYTE		        46*seq_025_mvl/mxv
	BYTE	W02
	BYTE		        40*seq_025_mvl/mxv
	BYTE	W01
	BYTE		        32*seq_025_mvl/mxv
	BYTE	W02
	BYTE		        22*seq_025_mvl/mxv
	BYTE	W01
	BYTE		        11*seq_025_mvl/mxv
	BYTE	W14
	BYTE		        62*seq_025_mvl/mxv
	BYTE	W12
	BYTE	PEND
	BYTE		N23     Fn2   v052
	BYTE		N23     An2   v048
	BYTE	W12
	BYTE		VOL     61*seq_025_mvl/mxv
	BYTE	W01
	BYTE		        60*seq_025_mvl/mxv
	BYTE	W02
	BYTE		        59*seq_025_mvl/mxv
	BYTE	W01
	BYTE		        56*seq_025_mvl/mxv
	BYTE	W02
	BYTE		        52*seq_025_mvl/mxv
	BYTE	W01
	BYTE		        47*seq_025_mvl/mxv
	BYTE	W02
	BYTE		        42*seq_025_mvl/mxv
	BYTE	W03
	BYTE		        62*seq_025_mvl/mxv
	BYTE		N23     Fn2 
	BYTE		N23     An2 
	BYTE	W12
	BYTE		VOL     62*seq_025_mvl/mxv
	BYTE	W03
	BYTE		        60*seq_025_mvl/mxv
	BYTE	W01
	BYTE		        58*seq_025_mvl/mxv
	BYTE	W02
	BYTE		        55*seq_025_mvl/mxv
	BYTE	W01
	BYTE		        51*seq_025_mvl/mxv
	BYTE	W02
	BYTE		        45*seq_025_mvl/mxv
	BYTE	W01
	BYTE		        39*seq_025_mvl/mxv
	BYTE	W02
	BYTE		        62*seq_025_mvl/mxv
	BYTE		N24     Fn2   v044
	BYTE		N24     An2 
	BYTE	W09
	BYTE		VOL     62*seq_025_mvl/mxv
	BYTE	W01
	BYTE		        61*seq_025_mvl/mxv
	BYTE	W02
	BYTE		        59*seq_025_mvl/mxv
	BYTE	W01
	BYTE		        56*seq_025_mvl/mxv
	BYTE	W02
	BYTE		        52*seq_025_mvl/mxv
	BYTE	W01
	BYTE		        46*seq_025_mvl/mxv
	BYTE	W02
	BYTE		        40*seq_025_mvl/mxv
	BYTE	W01
	BYTE		        32*seq_025_mvl/mxv
	BYTE	W02
	BYTE		        22*seq_025_mvl/mxv
	BYTE	W01
	BYTE		        11*seq_025_mvl/mxv
	BYTE	W14
	BYTE		        62*seq_025_mvl/mxv
	BYTE	W12
	BYTE		N23     Fn2   v056
	BYTE		N23     An2   v048
	BYTE	W12
	BYTE		VOL     61*seq_025_mvl/mxv
	BYTE	W01
	BYTE		        60*seq_025_mvl/mxv
	BYTE	W02
	BYTE		        59*seq_025_mvl/mxv
	BYTE	W01
	BYTE		        56*seq_025_mvl/mxv
	BYTE	W02
	BYTE		        52*seq_025_mvl/mxv
	BYTE	W01
	BYTE		        47*seq_025_mvl/mxv
	BYTE	W02
	BYTE		        42*seq_025_mvl/mxv
	BYTE	W03
	BYTE		        62*seq_025_mvl/mxv
	BYTE		N23     Fn2   v044
	BYTE		N23     An2 
	BYTE	W12
	BYTE		VOL     62*seq_025_mvl/mxv
	BYTE	W03
	BYTE		        60*seq_025_mvl/mxv
	BYTE	W01
	BYTE		        58*seq_025_mvl/mxv
	BYTE	W02
	BYTE		        55*seq_025_mvl/mxv
	BYTE	W01
	BYTE		        51*seq_025_mvl/mxv
	BYTE	W02
	BYTE		        45*seq_025_mvl/mxv
	BYTE	W01
	BYTE		        39*seq_025_mvl/mxv
	BYTE	W02
	BYTE		        62*seq_025_mvl/mxv
	BYTE		N24     Fn2 
	BYTE		N24     An2 
	BYTE	W01
	BYTE		VOL     61*seq_025_mvl/mxv
	BYTE	W02
	BYTE		        61*seq_025_mvl/mxv
	BYTE	W01
	BYTE		        59*seq_025_mvl/mxv
	BYTE	W02
	BYTE		        58*seq_025_mvl/mxv
	BYTE	W01
	BYTE		        56*seq_025_mvl/mxv
	BYTE	W02
	BYTE		        52*seq_025_mvl/mxv
	BYTE	W01
	BYTE		        48*seq_025_mvl/mxv
	BYTE	W02
	BYTE		        44*seq_025_mvl/mxv
	BYTE	W01
	BYTE		        39*seq_025_mvl/mxv
	BYTE	W02
	BYTE		        32*seq_025_mvl/mxv
	BYTE	W01
	BYTE		        25*seq_025_mvl/mxv
	BYTE	W02
	BYTE		        18*seq_025_mvl/mxv
	BYTE	W01
	BYTE		        10*seq_025_mvl/mxv
	BYTE	W02
	BYTE		        5*seq_025_mvl/mxv
	BYTE	W01
	BYTE		        2*seq_025_mvl/mxv
	BYTE	W14
	BYTE		        62*seq_025_mvl/mxv
	BYTE	W12
	BYTE	PATT
	 POIN2	seq_025_5 + 0xA8
	BYTE	PATT
	 POIN2	seq_025_5 + 0xF4
	BYTE		N23     Fn2   v056
	BYTE		N23     An2   v048
	BYTE	W12
	BYTE		VOL     61*seq_025_mvl/mxv
	BYTE	W01
	BYTE		        60*seq_025_mvl/mxv
	BYTE	W02
	BYTE		        59*seq_025_mvl/mxv
	BYTE	W01
	BYTE		        56*seq_025_mvl/mxv
	BYTE	W02
	BYTE		        52*seq_025_mvl/mxv
	BYTE	W01
	BYTE		        47*seq_025_mvl/mxv
	BYTE	W02
	BYTE		        42*seq_025_mvl/mxv
	BYTE	W03
	BYTE		        62*seq_025_mvl/mxv
	BYTE		N23     Fn2 
	BYTE		N23     An2 
	BYTE	W12
	BYTE		VOL     62*seq_025_mvl/mxv
	BYTE	W03
	BYTE		        60*seq_025_mvl/mxv
	BYTE	W01
	BYTE		        58*seq_025_mvl/mxv
	BYTE	W02
	BYTE		        55*seq_025_mvl/mxv
	BYTE	W01
	BYTE		        51*seq_025_mvl/mxv
	BYTE	W02
	BYTE		        45*seq_025_mvl/mxv
	BYTE	W01
	BYTE		        39*seq_025_mvl/mxv
	BYTE	W02
	BYTE		        62*seq_025_mvl/mxv
	BYTE		N23     Fn2   v052
	BYTE		N24     An2 
	BYTE	W09
	BYTE		VOL     62*seq_025_mvl/mxv
	BYTE	W01
	BYTE		        61*seq_025_mvl/mxv
	BYTE	W02
	BYTE		        59*seq_025_mvl/mxv
	BYTE	W01
	BYTE		        56*seq_025_mvl/mxv
	BYTE	W02
	BYTE		        52*seq_025_mvl/mxv
	BYTE	W01
	BYTE		        46*seq_025_mvl/mxv
	BYTE	W02
	BYTE		        40*seq_025_mvl/mxv
	BYTE	W01
	BYTE		        32*seq_025_mvl/mxv
	BYTE	W02
	BYTE		        22*seq_025_mvl/mxv
	BYTE	W01
	BYTE		        11*seq_025_mvl/mxv
	BYTE	W14
	BYTE		        62*seq_025_mvl/mxv
	BYTE	W12
	BYTE		N23     Fn2   v060
	BYTE		N23     Gs2   v056
	BYTE	W12
	BYTE		VOL     61*seq_025_mvl/mxv
	BYTE	W01
	BYTE		        60*seq_025_mvl/mxv
	BYTE	W02
	BYTE		        59*seq_025_mvl/mxv
	BYTE	W01
	BYTE		        56*seq_025_mvl/mxv
	BYTE	W02
	BYTE		        52*seq_025_mvl/mxv
	BYTE	W01
	BYTE		        47*seq_025_mvl/mxv
	BYTE	W02
	BYTE		        42*seq_025_mvl/mxv
	BYTE	W03
	BYTE		        62*seq_025_mvl/mxv
	BYTE		N24     Fn2 
	BYTE		N23     Gs2 
	BYTE	W12
	BYTE		VOL     62*seq_025_mvl/mxv
	BYTE	W03
	BYTE		        60*seq_025_mvl/mxv
	BYTE	W01
	BYTE		        58*seq_025_mvl/mxv
	BYTE	W02
	BYTE		        55*seq_025_mvl/mxv
	BYTE	W01
	BYTE		        51*seq_025_mvl/mxv
	BYTE	W02
	BYTE		        45*seq_025_mvl/mxv
	BYTE	W01
	BYTE		        39*seq_025_mvl/mxv
	BYTE	W02
	BYTE		        62*seq_025_mvl/mxv
	BYTE		N24     En2 
	BYTE		N24     Gs2 
	BYTE	W09
	BYTE		VOL     62*seq_025_mvl/mxv
	BYTE	W01
	BYTE		        61*seq_025_mvl/mxv
	BYTE	W02
	BYTE		        59*seq_025_mvl/mxv
	BYTE	W01
	BYTE		        56*seq_025_mvl/mxv
	BYTE	W02
	BYTE		        52*seq_025_mvl/mxv
	BYTE	W01
	BYTE		        46*seq_025_mvl/mxv
	BYTE	W02
	BYTE		        40*seq_025_mvl/mxv
	BYTE	W01
	BYTE		        32*seq_025_mvl/mxv
	BYTE	W02
	BYTE		        22*seq_025_mvl/mxv
	BYTE	W01
	BYTE		        11*seq_025_mvl/mxv
	BYTE	W14
	BYTE		        62*seq_025_mvl/mxv
	BYTE	W12
	BYTE		N40     An2   v072
	BYTE		N40     Cn3 
	BYTE	W02
	BYTE		VOL     61*seq_025_mvl/mxv
	BYTE	W02
	BYTE		        57*seq_025_mvl/mxv
	BYTE	W02
	BYTE		        55*seq_025_mvl/mxv
	BYTE	W02
	BYTE		        55*seq_025_mvl/mxv
	BYTE	W02
	BYTE		        56*seq_025_mvl/mxv
	BYTE		MOD     5
	BYTE	W02
	BYTE		VOL     56*seq_025_mvl/mxv
	BYTE	W02
	BYTE		        57*seq_025_mvl/mxv
	BYTE	W02
	BYTE		        59*seq_025_mvl/mxv
	BYTE	W02
	BYTE		        61*seq_025_mvl/mxv
	BYTE	W02
	BYTE		        64*seq_025_mvl/mxv
	BYTE	W02
	BYTE		        66*seq_025_mvl/mxv
	BYTE		MOD     8
	BYTE	W02
	BYTE		VOL     69*seq_025_mvl/mxv
	BYTE	W02
	BYTE		        73*seq_025_mvl/mxv
	BYTE	W02
	BYTE		        74*seq_025_mvl/mxv
	BYTE	W02
	BYTE		        75*seq_025_mvl/mxv
	BYTE	W02
	BYTE		        78*seq_025_mvl/mxv
	BYTE	W03
	BYTE		        73*seq_025_mvl/mxv
	BYTE	W01
	BYTE		        66*seq_025_mvl/mxv
	BYTE		MOD     3
	BYTE	W01
	BYTE		VOL     57*seq_025_mvl/mxv
	BYTE	W01
	BYTE		        50*seq_025_mvl/mxv
	BYTE	W01
	BYTE		        45*seq_025_mvl/mxv
	BYTE	W01
	BYTE		        62*seq_025_mvl/mxv
	BYTE		MOD     0
	BYTE		N07     Bn2   v064
	BYTE		N08     Dn3 
	BYTE	W08
	BYTE		N24     Cn3   v068
	BYTE		N24     En3 
	BYTE	W04
	BYTE		VOL     64*seq_025_mvl/mxv
	BYTE	W02
	BYTE		        64*seq_025_mvl/mxv
	BYTE	W02
	BYTE		        66*seq_025_mvl/mxv
	BYTE	W02
	BYTE		        68*seq_025_mvl/mxv
	BYTE		MOD     6
	BYTE	W02
	BYTE		VOL     70*seq_025_mvl/mxv
	BYTE	W02
	BYTE		        74*seq_025_mvl/mxv
	BYTE		MOD     10
	BYTE	W02
	BYTE		VOL     77*seq_025_mvl/mxv
	BYTE	W02
	BYTE		        78*seq_025_mvl/mxv
	BYTE	W01
	BYTE		        75*seq_025_mvl/mxv
	BYTE	W01
	BYTE		        73*seq_025_mvl/mxv
	BYTE	W01
	BYTE		        69*seq_025_mvl/mxv
	BYTE	W01
	BYTE		        61*seq_025_mvl/mxv
	BYTE	W01
	BYTE		        52*seq_025_mvl/mxv
	BYTE	W01
	BYTE		        62*seq_025_mvl/mxv
	BYTE		MOD     0
	BYTE		N24     En3   v072
	BYTE		N23     Gn3 
	BYTE	W02
	BYTE		VOL     63*seq_025_mvl/mxv
	BYTE	W02
	BYTE		        64*seq_025_mvl/mxv
	BYTE	W02
	BYTE		        64*seq_025_mvl/mxv
	BYTE	W02
	BYTE		        66*seq_025_mvl/mxv
	BYTE	W02
	BYTE		        68*seq_025_mvl/mxv
	BYTE		MOD     6
	BYTE	W02
	BYTE		VOL     71*seq_025_mvl/mxv
	BYTE	W02
	BYTE		        75*seq_025_mvl/mxv
	BYTE		MOD     10
	BYTE	W02
	BYTE		VOL     78*seq_025_mvl/mxv
	BYTE	W02
	BYTE		        78*seq_025_mvl/mxv
	BYTE	W02
	BYTE		        77*seq_025_mvl/mxv
	BYTE	W02
	BYTE		        73*seq_025_mvl/mxv
	BYTE	W01
	BYTE		        67*seq_025_mvl/mxv
	BYTE	W01
	BYTE		        62*seq_025_mvl/mxv
	BYTE		MOD     0
	BYTE		N48     Gn3   v064
	BYTE		N48     Bn3 
	BYTE	W02
	BYTE		VOL     58*seq_025_mvl/mxv
	BYTE	W06
	BYTE		        59*seq_025_mvl/mxv
	BYTE	W02
	BYTE		        60*seq_025_mvl/mxv
	BYTE		MOD     2
	BYTE	W02
	BYTE		VOL     62*seq_025_mvl/mxv
	BYTE	W02
	BYTE		        64*seq_025_mvl/mxv
	BYTE	W02
	BYTE		        66*seq_025_mvl/mxv
	BYTE	W02
	BYTE		        69*seq_025_mvl/mxv
	BYTE		MOD     7
	BYTE	W02
	BYTE		VOL     72*seq_025_mvl/mxv
	BYTE	W02
	BYTE		        76*seq_025_mvl/mxv
	BYTE	W02
	BYTE		        80*seq_025_mvl/mxv
	BYTE	W02
	BYTE		        78*seq_025_mvl/mxv
	BYTE	W02
	BYTE		        78*seq_025_mvl/mxv
	BYTE	W02
	BYTE		        77*seq_025_mvl/mxv
	BYTE	W02
	BYTE		        74*seq_025_mvl/mxv
	BYTE	W02
	BYTE		        72*seq_025_mvl/mxv
	BYTE		MOD     6
	BYTE	W02
	BYTE		VOL     68*seq_025_mvl/mxv
	BYTE	W02
	BYTE		        64*seq_025_mvl/mxv
	BYTE	W02
	BYTE		        59*seq_025_mvl/mxv
	BYTE	W02
	BYTE		        52*seq_025_mvl/mxv
	BYTE	W02
	BYTE		        45*seq_025_mvl/mxv
	BYTE		MOD     3
	BYTE	W02
	BYTE		VOL     38*seq_025_mvl/mxv
	BYTE	W02
	BYTE		MOD     0
	BYTE		N44     En3   v056
	BYTE		N44     An3 
	BYTE	W12
	BYTE		MOD     5
	BYTE	W06
	BYTE		        7
	BYTE	W06
	BYTE		VOL     37*seq_025_mvl/mxv
	BYTE	W04
	BYTE		        36*seq_025_mvl/mxv
	BYTE	W02
	BYTE		        34*seq_025_mvl/mxv
	BYTE	W02
	BYTE		        32*seq_025_mvl/mxv
	BYTE	W02
	BYTE		        29*seq_025_mvl/mxv
	BYTE		MOD     5
	BYTE	W02
	BYTE		VOL     25*seq_025_mvl/mxv
	BYTE	W02
	BYTE		        21*seq_025_mvl/mxv
	BYTE	W02
	BYTE		        16*seq_025_mvl/mxv
	BYTE		MOD     0
	BYTE	W02
	BYTE		VOL     10*seq_025_mvl/mxv
	BYTE	W02
	BYTE		        3*seq_025_mvl/mxv
	BYTE	W02
	BYTE		        0*seq_025_mvl/mxv
	BYTE	W02
	BYTE		        62*seq_025_mvl/mxv
	BYTE		N23     Fn2 
	BYTE		N23     An2   v048
	BYTE	W18
	BYTE		VOL     59*seq_025_mvl/mxv
	BYTE	W02
	BYTE		        55*seq_025_mvl/mxv
	BYTE	W02
	BYTE		        49*seq_025_mvl/mxv
	BYTE	W02
	BYTE		        62*seq_025_mvl/mxv
	BYTE		N23     Fn2 
	BYTE		N23     An2 
	BYTE	W18
	BYTE		VOL     59*seq_025_mvl/mxv
	BYTE	W02
	BYTE		        55*seq_025_mvl/mxv
	BYTE	W02
	BYTE		        49*seq_025_mvl/mxv
	BYTE	W02
	BYTE		        62*seq_025_mvl/mxv
	BYTE		N24     Fn2   v052
	BYTE		N24     An2 
	BYTE	W09
	BYTE		VOL     62*seq_025_mvl/mxv
	BYTE	W01
	BYTE		        61*seq_025_mvl/mxv
	BYTE	W02
	BYTE		        59*seq_025_mvl/mxv
	BYTE	W01
	BYTE		        56*seq_025_mvl/mxv
	BYTE	W02
	BYTE		        52*seq_025_mvl/mxv
	BYTE	W01
	BYTE		        46*seq_025_mvl/mxv
	BYTE	W02
	BYTE		        40*seq_025_mvl/mxv
	BYTE	W01
	BYTE		        32*seq_025_mvl/mxv
	BYTE	W02
	BYTE		        22*seq_025_mvl/mxv
	BYTE	W01
	BYTE		        11*seq_025_mvl/mxv
	BYTE	W14
	BYTE		        62*seq_025_mvl/mxv
	BYTE	W12
	BYTE		N23     Fn2   v060
	BYTE		N23     Gs2   v056
	BYTE	W18
	BYTE		VOL     59*seq_025_mvl/mxv
	BYTE	W02
	BYTE		        55*seq_025_mvl/mxv
	BYTE	W02
	BYTE		        49*seq_025_mvl/mxv
	BYTE	W02
	BYTE		        62*seq_025_mvl/mxv
	BYTE		N24     Fn2 
	BYTE		N23     Gs2 
	BYTE	W18
	BYTE		VOL     59*seq_025_mvl/mxv
	BYTE	W02
	BYTE		        55*seq_025_mvl/mxv
	BYTE	W02
	BYTE		        49*seq_025_mvl/mxv
	BYTE	W02
	BYTE		        62*seq_025_mvl/mxv
	BYTE		N24     En2 
	BYTE		N24     Gs2 
	BYTE	W09
	BYTE		VOL     62*seq_025_mvl/mxv
	BYTE	W01
	BYTE		        61*seq_025_mvl/mxv
	BYTE	W02
	BYTE		        59*seq_025_mvl/mxv
	BYTE	W01
	BYTE		        56*seq_025_mvl/mxv
	BYTE	W02
	BYTE		        52*seq_025_mvl/mxv
	BYTE	W01
	BYTE		        46*seq_025_mvl/mxv
	BYTE	W02
	BYTE		        40*seq_025_mvl/mxv
	BYTE	W01
	BYTE		        32*seq_025_mvl/mxv
	BYTE	W02
	BYTE		        22*seq_025_mvl/mxv
	BYTE	W01
	BYTE		        11*seq_025_mvl/mxv
	BYTE	W14
	BYTE		        62*seq_025_mvl/mxv
	BYTE	W12
	BYTE		N40     An2   v072
	BYTE		N40     Cn3 
	BYTE	W02
	BYTE		VOL     61*seq_025_mvl/mxv
	BYTE	W02
	BYTE		        57*seq_025_mvl/mxv
	BYTE	W02
	BYTE		        55*seq_025_mvl/mxv
	BYTE	W02
	BYTE		        55*seq_025_mvl/mxv
	BYTE	W02
	BYTE		MOD     5
	BYTE		VOL     56*seq_025_mvl/mxv
	BYTE	W02
	BYTE		        56*seq_025_mvl/mxv
	BYTE	W02
	BYTE		        57*seq_025_mvl/mxv
	BYTE	W02
	BYTE		        59*seq_025_mvl/mxv
	BYTE	W02
	BYTE		        61*seq_025_mvl/mxv
	BYTE	W02
	BYTE		        64*seq_025_mvl/mxv
	BYTE	W02
	BYTE		MOD     12
	BYTE		VOL     66*seq_025_mvl/mxv
	BYTE	W02
	BYTE		        69*seq_025_mvl/mxv
	BYTE	W02
	BYTE		        73*seq_025_mvl/mxv
	BYTE	W02
	BYTE		        74*seq_025_mvl/mxv
	BYTE	W02
	BYTE		        75*seq_025_mvl/mxv
	BYTE	W02
	BYTE		        78*seq_025_mvl/mxv
	BYTE	W03
	BYTE		        73*seq_025_mvl/mxv
	BYTE	W01
	BYTE		MOD     3
	BYTE		VOL     66*seq_025_mvl/mxv
	BYTE	W01
	BYTE		        57*seq_025_mvl/mxv
	BYTE	W01
	BYTE		        50*seq_025_mvl/mxv
	BYTE	W01
	BYTE		        45*seq_025_mvl/mxv
	BYTE	W01
	BYTE		MOD     0
	BYTE		VOL     62*seq_025_mvl/mxv
	BYTE		N07     Bn2   v060
	BYTE		N08     Dn3 
	BYTE	W08
	BYTE		N24     Cn3   v068
	BYTE		N24     En3 
	BYTE	W04
	BYTE		VOL     64*seq_025_mvl/mxv
	BYTE	W02
	BYTE		        64*seq_025_mvl/mxv
	BYTE	W02
	BYTE		        66*seq_025_mvl/mxv
	BYTE	W02
	BYTE		MOD     6
	BYTE		VOL     68*seq_025_mvl/mxv
	BYTE	W02
	BYTE		        70*seq_025_mvl/mxv
	BYTE	W02
	BYTE		MOD     14
	BYTE		VOL     74*seq_025_mvl/mxv
	BYTE	W02
	BYTE		        77*seq_025_mvl/mxv
	BYTE	W02
	BYTE		        78*seq_025_mvl/mxv
	BYTE	W01
	BYTE		        75*seq_025_mvl/mxv
	BYTE	W01
	BYTE		        73*seq_025_mvl/mxv
	BYTE	W01
	BYTE		        69*seq_025_mvl/mxv
	BYTE	W01
	BYTE		        61*seq_025_mvl/mxv
	BYTE	W01
	BYTE		        52*seq_025_mvl/mxv
	BYTE	W01
	BYTE		MOD     0
	BYTE		VOL     62*seq_025_mvl/mxv
	BYTE		N24     En3   v072
	BYTE		N23     Gn3 
	BYTE	W02
	BYTE		VOL     63*seq_025_mvl/mxv
	BYTE	W02
	BYTE		        64*seq_025_mvl/mxv
	BYTE	W02
	BYTE		        64*seq_025_mvl/mxv
	BYTE	W02
	BYTE		        66*seq_025_mvl/mxv
	BYTE	W02
	BYTE		MOD     6
	BYTE		VOL     68*seq_025_mvl/mxv
	BYTE	W02
	BYTE		        71*seq_025_mvl/mxv
	BYTE	W02
	BYTE		MOD     14
	BYTE		VOL     75*seq_025_mvl/mxv
	BYTE	W02
	BYTE		        78*seq_025_mvl/mxv
	BYTE	W02
	BYTE		        78*seq_025_mvl/mxv
	BYTE	W02
	BYTE		        77*seq_025_mvl/mxv
	BYTE	W02
	BYTE		        73*seq_025_mvl/mxv
	BYTE	W01
	BYTE		        67*seq_025_mvl/mxv
	BYTE	W01
	BYTE		MOD     0
	BYTE		VOL     62*seq_025_mvl/mxv
	BYTE		N48     Gn3   v060
	BYTE		N48     Bn3 
	BYTE	W02
	BYTE		VOL     58*seq_025_mvl/mxv
	BYTE	W06
	BYTE		        59*seq_025_mvl/mxv
	BYTE	W02
	BYTE		        60*seq_025_mvl/mxv
	BYTE		MOD     2
	BYTE	W02
	BYTE		VOL     62*seq_025_mvl/mxv
	BYTE	W02
	BYTE		        64*seq_025_mvl/mxv
	BYTE	W02
	BYTE		        66*seq_025_mvl/mxv
	BYTE	W02
	BYTE		MOD     11
	BYTE		VOL     69*seq_025_mvl/mxv
	BYTE	W02
	BYTE		        72*seq_025_mvl/mxv
	BYTE	W02
	BYTE		        76*seq_025_mvl/mxv
	BYTE	W02
	BYTE		        80*seq_025_mvl/mxv
	BYTE	W02
	BYTE		        78*seq_025_mvl/mxv
	BYTE	W02
	BYTE		        78*seq_025_mvl/mxv
	BYTE	W02
	BYTE		        77*seq_025_mvl/mxv
	BYTE	W02
	BYTE		        74*seq_025_mvl/mxv
	BYTE	W02
	BYTE		        72*seq_025_mvl/mxv
	BYTE		MOD     6
	BYTE	W02
	BYTE		VOL     68*seq_025_mvl/mxv
	BYTE	W02
	BYTE		        64*seq_025_mvl/mxv
	BYTE	W02
	BYTE		        59*seq_025_mvl/mxv
	BYTE	W02
	BYTE		        52*seq_025_mvl/mxv
	BYTE	W02
	BYTE		MOD     3
	BYTE		VOL     45*seq_025_mvl/mxv
	BYTE	W02
	BYTE		        38*seq_025_mvl/mxv
	BYTE	W02
	BYTE		MOD     0
	BYTE		N44     En3   v052
	BYTE		N44     An3 
	BYTE	W12
	BYTE		MOD     5
	BYTE	W06
	BYTE		        11
	BYTE	W04
	BYTE		VOL     37*seq_025_mvl/mxv
	BYTE	W04
	BYTE		        36*seq_025_mvl/mxv
	BYTE	W02
	BYTE		        34*seq_025_mvl/mxv
	BYTE	W02
	BYTE		        32*seq_025_mvl/mxv
	BYTE	W02
	BYTE		        29*seq_025_mvl/mxv
	BYTE	W02
	BYTE		MOD     5
	BYTE		VOL     25*seq_025_mvl/mxv
	BYTE	W02
	BYTE		        21*seq_025_mvl/mxv
	BYTE	W02
	BYTE		        16*seq_025_mvl/mxv
	BYTE	W01
	BYTE		        11*seq_025_mvl/mxv
	BYTE	W01
	BYTE		MOD     0
	BYTE		VOL     7*seq_025_mvl/mxv
	BYTE	W02
	BYTE		        3*seq_025_mvl/mxv
	BYTE	W01
	BYTE		        1*seq_025_mvl/mxv
	BYTE	W04
	BYTE		        62*seq_025_mvl/mxv
	BYTE	W01
	BYTE	GoTo
	 POIN2	seq_025_5 + 0xB
	BYTE	W04
	BYTE	FINE

//*********************** Track 07 ***********************//

seq_025_6:
	BYTE	KEYSH   seq_025_key+0
	BYTE	W03
	BYTE	W01
	BYTE		VOICE   47
	BYTE	W01
	BYTE		VOL     56*seq_025_mvl/mxv
	BYTE	W01
	BYTE		PAN     c_v-64
	BYTE	W01
	BYTE		MODT    mod_pan
	BYTE		N24     Dn2   v040
	BYTE	W01
	BYTE		LFOS    45
	BYTE	W23
	BYTE		N24     En2   v036
	BYTE	W24
	BYTE		        Dn2   v040
	BYTE	W24
	BYTE		        En2 
	BYTE	W20
	BYTE	W04
	BYTE		N24     Dn2   v040
	BYTE	W24
	BYTE		        En2 
	BYTE	W24
	BYTE		VOL     57*seq_025_mvl/mxv
	BYTE		N16     Dn2 
	BYTE	W02
	BYTE		VOL     58*seq_025_mvl/mxv
	BYTE	W02
	BYTE		        60*seq_025_mvl/mxv
	BYTE	W02
	BYTE		        62*seq_025_mvl/mxv
	BYTE	W02
	BYTE		        65*seq_025_mvl/mxv
	BYTE	W02
	BYTE		        69*seq_025_mvl/mxv
	BYTE	W02
	BYTE		        74*seq_025_mvl/mxv
	BYTE	W04
	BYTE		        56*seq_025_mvl/mxv
	BYTE		N08     An2 
	BYTE	W08
	BYTE		N16     Gn2 
	BYTE	W16
	BYTE		N08     En2 
	BYTE	W04
	BYTE	PEND
	BYTE	W04
	BYTE		N24     Dn2   v040
	BYTE	W24
	BYTE		        En2 
	BYTE	W24
	BYTE		VOL     57*seq_025_mvl/mxv
	BYTE		N24     Bn1   v044
	BYTE	W02
	BYTE		VOL     58*seq_025_mvl/mxv
	BYTE	W02
	BYTE		        59*seq_025_mvl/mxv
	BYTE	W02
	BYTE		        61*seq_025_mvl/mxv
	BYTE	W02
	BYTE		        64*seq_025_mvl/mxv
	BYTE	W02
	BYTE		        65*seq_025_mvl/mxv
	BYTE	W02
	BYTE		        64*seq_025_mvl/mxv
	BYTE	W02
	BYTE		        62*seq_025_mvl/mxv
	BYTE	W02
	BYTE		        58*seq_025_mvl/mxv
	BYTE	W02
	BYTE		        51*seq_025_mvl/mxv
	BYTE	W01
	BYTE		        47*seq_025_mvl/mxv
	BYTE	W01
	BYTE		        41*seq_025_mvl/mxv
	BYTE	W01
	BYTE		        35*seq_025_mvl/mxv
	BYTE	W01
	BYTE		        26*seq_025_mvl/mxv
	BYTE	W01
	BYTE		        20*seq_025_mvl/mxv
	BYTE	W01
	BYTE		        9*seq_025_mvl/mxv
	BYTE	W01
	BYTE		        3*seq_025_mvl/mxv
	BYTE	W05
	BYTE		        56*seq_025_mvl/mxv
	BYTE	W02
	BYTE		N08     Dn2 
	BYTE	W08
	BYTE		        Cn2   v040
	BYTE	W04
	BYTE	PEND
	BYTE	W04
	BYTE		N24     Bn1   v044
	BYTE	W24
	BYTE		N16     Gn1 
	BYTE	W16
	BYTE		N08     An1   v040
	BYTE	W08
	BYTE		N28     Bn1 
	BYTE	W06
	BYTE		VOL     56*seq_025_mvl/mxv
	BYTE	W02
	BYTE		        54*seq_025_mvl/mxv
	BYTE	W02
	BYTE		        52*seq_025_mvl/mxv
	BYTE	W02
	BYTE		        50*seq_025_mvl/mxv
	BYTE	W02
	BYTE		        47*seq_025_mvl/mxv
	BYTE	W02
	BYTE		        42*seq_025_mvl/mxv
	BYTE	W02
	BYTE		        37*seq_025_mvl/mxv
	BYTE	W02
	BYTE		        31*seq_025_mvl/mxv
	BYTE	W02
	BYTE		        25*seq_025_mvl/mxv
	BYTE	W01
	BYTE		        19*seq_025_mvl/mxv
	BYTE	W01
	BYTE		        13*seq_025_mvl/mxv
	BYTE	W01
	BYTE		        8*seq_025_mvl/mxv
	BYTE	W01
	BYTE		        3*seq_025_mvl/mxv
	BYTE	W01
	BYTE		        0*seq_025_mvl/mxv
	BYTE	W01
	BYTE		        0*seq_025_mvl/mxv
	BYTE	W16
	BYTE	PEND
	BYTE		        56*seq_025_mvl/mxv
	BYTE	W04
	BYTE		N24     Dn2 
	BYTE	W24
	BYTE		        En2   v036
	BYTE	W24
	BYTE		        Dn2   v040
	BYTE	W24
	BYTE		        En2 
	BYTE	W20
	BYTE	PATT
	 POIN2	seq_025_6 + 0x1F
	BYTE	PATT
	 POIN2	seq_025_6 + 0x43
	BYTE	PATT
	 POIN2	seq_025_6 + 0x7A
	BYTE		VOL     56*seq_025_mvl/mxv
	BYTE	W04
	BYTE		        56*seq_025_mvl/mxv
	BYTE		N24     En2   v036
	BYTE	W24
	BYTE		        Fn2 
	BYTE	W24
	BYTE		        En2   v040
	BYTE	W24
	BYTE		        Fn2 
	BYTE	W20
	BYTE	W04
	BYTE		N24     En2   v044
	BYTE	W24
	BYTE		        Fn2 
	BYTE	W24
	BYTE		N16     Dn2 
	BYTE	W02
	BYTE		VOL     56*seq_025_mvl/mxv
	BYTE	W02
	BYTE		        57*seq_025_mvl/mxv
	BYTE	W02
	BYTE		        59*seq_025_mvl/mxv
	BYTE	W02
	BYTE		        64*seq_025_mvl/mxv
	BYTE	W02
	BYTE		        69*seq_025_mvl/mxv
	BYTE	W02
	BYTE		        73*seq_025_mvl/mxv
	BYTE	W02
	BYTE		        76*seq_025_mvl/mxv
	BYTE	W02
	BYTE		        56*seq_025_mvl/mxv
	BYTE		N08     Fn2   v040
	BYTE	W08
	BYTE		N16     En2   v044
	BYTE	W16
	BYTE		N08     Dn2   v040
	BYTE	W04
	BYTE	PEND
	BYTE	W04
	BYTE		N52     En2 
	BYTE	W02
	BYTE		VOL     57*seq_025_mvl/mxv
	BYTE	W02
	BYTE		        58*seq_025_mvl/mxv
	BYTE	W04
	BYTE		        59*seq_025_mvl/mxv
	BYTE	W02
	BYTE		        59*seq_025_mvl/mxv
	BYTE	W02
	BYTE		        61*seq_025_mvl/mxv
	BYTE	W02
	BYTE		        62*seq_025_mvl/mxv
	BYTE	W02
	BYTE		        64*seq_025_mvl/mxv
	BYTE	W02
	BYTE		        66*seq_025_mvl/mxv
	BYTE	W02
	BYTE		        68*seq_025_mvl/mxv
	BYTE	W02
	BYTE		        69*seq_025_mvl/mxv
	BYTE	W02
	BYTE		        73*seq_025_mvl/mxv
	BYTE	W02
	BYTE		        75*seq_025_mvl/mxv
	BYTE	W02
	BYTE		        74*seq_025_mvl/mxv
	BYTE	W02
	BYTE		        73*seq_025_mvl/mxv
	BYTE	W02
	BYTE		        71*seq_025_mvl/mxv
	BYTE	W02
	BYTE		        68*seq_025_mvl/mxv
	BYTE	W02
	BYTE		        64*seq_025_mvl/mxv
	BYTE	W02
	BYTE		        59*seq_025_mvl/mxv
	BYTE	W02
	BYTE		        52*seq_025_mvl/mxv
	BYTE	W02
	BYTE		        47*seq_025_mvl/mxv
	BYTE	W01
	BYTE		        41*seq_025_mvl/mxv
	BYTE	W01
	BYTE		        35*seq_025_mvl/mxv
	BYTE	W01
	BYTE		        29*seq_025_mvl/mxv
	BYTE	W01
	BYTE		        23*seq_025_mvl/mxv
	BYTE	W01
	BYTE		        15*seq_025_mvl/mxv
	BYTE	W01
	BYTE		        7*seq_025_mvl/mxv
	BYTE	W01
	BYTE		        3*seq_025_mvl/mxv
	BYTE	W01
	BYTE		        0*seq_025_mvl/mxv
	BYTE	W42
	BYTE	W88
	BYTE		        56*seq_025_mvl/mxv
	BYTE	W08
	BYTE	W04
	BYTE		N24     En2   v036
	BYTE	W24
	BYTE		        Fn2 
	BYTE	W24
	BYTE		        En2   v040
	BYTE	W24
	BYTE		        Fn2 
	BYTE	W20
	BYTE	PATT
	 POIN2	seq_025_6 + 0xD4
	BYTE	W04
	BYTE		N52     En2   v040
	BYTE	W02
	BYTE		VOL     57*seq_025_mvl/mxv
	BYTE	W02
	BYTE		        58*seq_025_mvl/mxv
	BYTE	W04
	BYTE		        59*seq_025_mvl/mxv
	BYTE	W02
	BYTE		        59*seq_025_mvl/mxv
	BYTE	W02
	BYTE		        61*seq_025_mvl/mxv
	BYTE	W02
	BYTE		        62*seq_025_mvl/mxv
	BYTE	W02
	BYTE		        64*seq_025_mvl/mxv
	BYTE	W02
	BYTE		        66*seq_025_mvl/mxv
	BYTE	W02
	BYTE		        68*seq_025_mvl/mxv
	BYTE	W02
	BYTE		        69*seq_025_mvl/mxv
	BYTE	W02
	BYTE		        73*seq_025_mvl/mxv
	BYTE	W02
	BYTE		        75*seq_025_mvl/mxv
	BYTE	W02
	BYTE		        74*seq_025_mvl/mxv
	BYTE	W02
	BYTE		        73*seq_025_mvl/mxv
	BYTE	W02
	BYTE		        71*seq_025_mvl/mxv
	BYTE	W02
	BYTE		        68*seq_025_mvl/mxv
	BYTE	W02
	BYTE		        64*seq_025_mvl/mxv
	BYTE	W02
	BYTE		        59*seq_025_mvl/mxv
	BYTE	W02
	BYTE		        52*seq_025_mvl/mxv
	BYTE	W02
	BYTE		        47*seq_025_mvl/mxv
	BYTE	W01
	BYTE		        41*seq_025_mvl/mxv
	BYTE	W01
	BYTE		        35*seq_025_mvl/mxv
	BYTE	W01
	BYTE		        29*seq_025_mvl/mxv
	BYTE	W01
	BYTE		        23*seq_025_mvl/mxv
	BYTE	W01
	BYTE		        15*seq_025_mvl/mxv
	BYTE	W01
	BYTE		        7*seq_025_mvl/mxv
	BYTE	W01
	BYTE		        3*seq_025_mvl/mxv
	BYTE	W01
	BYTE		        0*seq_025_mvl/mxv
	BYTE	W15
	BYTE		        56*seq_025_mvl/mxv
	BYTE	W24
	BYTE	W03
	BYTE	W96
	BYTE	GoTo
	 POIN2	seq_025_6 + 0x3
	BYTE	W04
	BYTE	FINE

//*********************** Track 08 ***********************//

seq_025_7:
	BYTE	KEYSH   seq_025_key+0
	BYTE	W03
	BYTE	W02
	BYTE		VOICE   42
	BYTE	W01
	BYTE		VOL     56*seq_025_mvl/mxv
	BYTE	W01
	BYTE		PAN     c_v+63
	BYTE	W01
	BYTE		N24     Dn3   v020
	BYTE	W24
	BYTE		        En3   v016
	BYTE	W24
	BYTE		        Dn3 
	BYTE	W24
	BYTE		        En3 
	BYTE	W19
	BYTE	W05
	BYTE		N24     Dn3   v020
	BYTE	W24
	BYTE		        En3   v016
	BYTE	W24
	BYTE		N16     Dn3   v020
	BYTE	W02
	BYTE		VOL     57*seq_025_mvl/mxv
	BYTE	W02
	BYTE		        57*seq_025_mvl/mxv
	BYTE	W02
	BYTE		        59*seq_025_mvl/mxv
	BYTE	W02
	BYTE		        62*seq_025_mvl/mxv
	BYTE	W02
	BYTE		        68*seq_025_mvl/mxv
	BYTE	W02
	BYTE		        73*seq_025_mvl/mxv
	BYTE	W02
	BYTE		        78*seq_025_mvl/mxv
	BYTE	W02
	BYTE		        56*seq_025_mvl/mxv
	BYTE		N08     An3   v016
	BYTE	W08
	BYTE		N16     Gn3 
	BYTE	W16
	BYTE		N08     En3 
	BYTE	W03
	BYTE	PEND
	BYTE	W05
	BYTE		N24     Dn3   v020
	BYTE	W24
	BYTE		        En3   v016
	BYTE	W24
	BYTE		        Bn2 
	BYTE	W04
	BYTE		VOL     57*seq_025_mvl/mxv
	BYTE	W02
	BYTE		        59*seq_025_mvl/mxv
	BYTE	W02
	BYTE		        61*seq_025_mvl/mxv
	BYTE	W02
	BYTE		        65*seq_025_mvl/mxv
	BYTE	W02
	BYTE		        69*seq_025_mvl/mxv
	BYTE	W02
	BYTE		        73*seq_025_mvl/mxv
	BYTE	W01
	BYTE		        71*seq_025_mvl/mxv
	BYTE	W01
	BYTE		        70*seq_025_mvl/mxv
	BYTE	W01
	BYTE		        67*seq_025_mvl/mxv
	BYTE	W01
	BYTE		        61*seq_025_mvl/mxv
	BYTE	W01
	BYTE		        53*seq_025_mvl/mxv
	BYTE	W01
	BYTE		        43*seq_025_mvl/mxv
	BYTE	W01
	BYTE		        31*seq_025_mvl/mxv
	BYTE	W01
	BYTE		        19*seq_025_mvl/mxv
	BYTE	W01
	BYTE		        10*seq_025_mvl/mxv
	BYTE	W01
	BYTE		        4*seq_025_mvl/mxv
	BYTE	W01
	BYTE		        0*seq_025_mvl/mxv
	BYTE	W06
	BYTE		        56*seq_025_mvl/mxv
	BYTE	W01
	BYTE		N08     Dn3   v020
	BYTE	W08
	BYTE		        Cn3 
	BYTE	W03
	BYTE	PEND
	BYTE	W05
	BYTE		N24     Bn2 
	BYTE	W24
	BYTE		VOL     56*seq_025_mvl/mxv
	BYTE		N16     Gn2 
	BYTE	W12
	BYTE		VOL     54*seq_025_mvl/mxv
	BYTE	W01
	BYTE		        50*seq_025_mvl/mxv
	BYTE	W01
	BYTE		        43*seq_025_mvl/mxv
	BYTE	W01
	BYTE		        30*seq_025_mvl/mxv
	BYTE	W01
	BYTE		        56*seq_025_mvl/mxv
	BYTE		N08     An2   v016
	BYTE	W08
	BYTE		N28     Bn2   v020
	BYTE	W08
	BYTE		VOL     56*seq_025_mvl/mxv
	BYTE	W02
	BYTE		        55*seq_025_mvl/mxv
	BYTE	W02
	BYTE		        53*seq_025_mvl/mxv
	BYTE	W02
	BYTE		        50*seq_025_mvl/mxv
	BYTE	W02
	BYTE		        46*seq_025_mvl/mxv
	BYTE	W02
	BYTE		        40*seq_025_mvl/mxv
	BYTE	W02
	BYTE		        34*seq_025_mvl/mxv
	BYTE	W01
	BYTE		        30*seq_025_mvl/mxv
	BYTE	W01
	BYTE		        25*seq_025_mvl/mxv
	BYTE	W01
	BYTE		        17*seq_025_mvl/mxv
	BYTE	W01
	BYTE		        10*seq_025_mvl/mxv
	BYTE	W01
	BYTE		        5*seq_025_mvl/mxv
	BYTE	W01
	BYTE		        1*seq_025_mvl/mxv
	BYTE	W01
	BYTE		        0*seq_025_mvl/mxv
	BYTE	W03
	BYTE		        56*seq_025_mvl/mxv
	BYTE	W13
	BYTE	W05
	BYTE		N24     Dn3 
	BYTE	W24
	BYTE		        En3   v016
	BYTE	W24
	BYTE		        Dn3 
	BYTE	W24
	BYTE		        En3 
	BYTE	W19
	BYTE	PATT
	 POIN2	seq_025_7 + 0x18
	BYTE	PATT
	 POIN2	seq_025_7 + 0x3F
	BYTE	W05
	BYTE		N24     Bn2   v020
	BYTE	W24
	BYTE		N16     Gn2 
	BYTE	W12
	BYTE		VOL     54*seq_025_mvl/mxv
	BYTE	W01
	BYTE		        50*seq_025_mvl/mxv
	BYTE	W01
	BYTE		        43*seq_025_mvl/mxv
	BYTE	W01
	BYTE		        30*seq_025_mvl/mxv
	BYTE	W01
	BYTE		        56*seq_025_mvl/mxv
	BYTE		N08     An2   v016
	BYTE	W08
	BYTE		N28     Bn2   v020
	BYTE	W08
	BYTE		VOL     56*seq_025_mvl/mxv
	BYTE	W02
	BYTE		        55*seq_025_mvl/mxv
	BYTE	W02
	BYTE		        53*seq_025_mvl/mxv
	BYTE	W02
	BYTE		        50*seq_025_mvl/mxv
	BYTE	W02
	BYTE		        46*seq_025_mvl/mxv
	BYTE	W02
	BYTE		        40*seq_025_mvl/mxv
	BYTE	W02
	BYTE		        34*seq_025_mvl/mxv
	BYTE	W01
	BYTE		        30*seq_025_mvl/mxv
	BYTE	W01
	BYTE		        25*seq_025_mvl/mxv
	BYTE	W01
	BYTE		        17*seq_025_mvl/mxv
	BYTE	W01
	BYTE		        10*seq_025_mvl/mxv
	BYTE	W01
	BYTE		        5*seq_025_mvl/mxv
	BYTE	W01
	BYTE		        1*seq_025_mvl/mxv
	BYTE	W01
	BYTE		        0*seq_025_mvl/mxv
	BYTE	W03
	BYTE		        56*seq_025_mvl/mxv
	BYTE	W13
	BYTE	W05
	BYTE		N24     En3   v016
	BYTE	W24
	BYTE		        Fn3 
	BYTE	W24
	BYTE		        En3   v020
	BYTE	W24
	BYTE		        Fn3 
	BYTE	W19
	BYTE	PEND
	BYTE	W05
	BYTE		N24     En3   v020
	BYTE	W24
	BYTE		        Fn3 
	BYTE	W24
	BYTE		N16     Dn3 
	BYTE	W02
	BYTE		VOL     57*seq_025_mvl/mxv
	BYTE	W02
	BYTE		        58*seq_025_mvl/mxv
	BYTE	W02
	BYTE		        61*seq_025_mvl/mxv
	BYTE	W02
	BYTE		        64*seq_025_mvl/mxv
	BYTE	W02
	BYTE		        69*seq_025_mvl/mxv
	BYTE	W02
	BYTE		        72*seq_025_mvl/mxv
	BYTE	W04
	BYTE		        56*seq_025_mvl/mxv
	BYTE		N08     Fn3 
	BYTE	W08
	BYTE		N16     En3 
	BYTE	W16
	BYTE		N08     Dn3 
	BYTE	W03
	BYTE	PEND
	BYTE	W05
	BYTE		N52     En3 
	BYTE	W02
	BYTE		VOL     57*seq_025_mvl/mxv
	BYTE	W04
	BYTE		        59*seq_025_mvl/mxv
	BYTE	W04
	BYTE		        61*seq_025_mvl/mxv
	BYTE	W04
	BYTE		        66*seq_025_mvl/mxv
	BYTE	W02
	BYTE		        70*seq_025_mvl/mxv
	BYTE	W04
	BYTE		        69*seq_025_mvl/mxv
	BYTE	W04
	BYTE		        65*seq_025_mvl/mxv
	BYTE	W04
	BYTE		        59*seq_025_mvl/mxv
	BYTE	W04
	BYTE		        51*seq_025_mvl/mxv
	BYTE	W02
	BYTE		        45*seq_025_mvl/mxv
	BYTE	W02
	BYTE		        39*seq_025_mvl/mxv
	BYTE	W02
	BYTE		        32*seq_025_mvl/mxv
	BYTE	W02
	BYTE		        25*seq_025_mvl/mxv
	BYTE	W02
	BYTE		        17*seq_025_mvl/mxv
	BYTE	W02
	BYTE		        11*seq_025_mvl/mxv
	BYTE	W02
	BYTE		        5*seq_025_mvl/mxv
	BYTE	W02
	BYTE		        1*seq_025_mvl/mxv
	BYTE	W02
	BYTE		        0*seq_025_mvl/mxv
	BYTE	W40
	BYTE	W01
	BYTE	W76
	BYTE	W01
	BYTE		        56*seq_025_mvl/mxv
	BYTE	W19
	BYTE	PATT
	 POIN2	seq_025_7 + 0xFD
	BYTE	PATT
	 POIN2	seq_025_7 + 0x10A
	BYTE	W05
	BYTE		N52     En3   v020
	BYTE	W02
	BYTE		VOL     57*seq_025_mvl/mxv
	BYTE	W04
	BYTE		        59*seq_025_mvl/mxv
	BYTE	W04
	BYTE		        61*seq_025_mvl/mxv
	BYTE	W04
	BYTE		        66*seq_025_mvl/mxv
	BYTE	W02
	BYTE		        70*seq_025_mvl/mxv
	BYTE	W04
	BYTE		        69*seq_025_mvl/mxv
	BYTE	W04
	BYTE		        65*seq_025_mvl/mxv
	BYTE	W04
	BYTE		        59*seq_025_mvl/mxv
	BYTE	W04
	BYTE		        51*seq_025_mvl/mxv
	BYTE	W02
	BYTE		        45*seq_025_mvl/mxv
	BYTE	W02
	BYTE		        39*seq_025_mvl/mxv
	BYTE	W02
	BYTE		        32*seq_025_mvl/mxv
	BYTE	W02
	BYTE		        25*seq_025_mvl/mxv
	BYTE	W02
	BYTE		        17*seq_025_mvl/mxv
	BYTE	W02
	BYTE		        11*seq_025_mvl/mxv
	BYTE	W02
	BYTE		        5*seq_025_mvl/mxv
	BYTE	W02
	BYTE		        1*seq_025_mvl/mxv
	BYTE	W02
	BYTE		        0*seq_025_mvl/mxv
	BYTE	W14
	BYTE		        56*seq_025_mvl/mxv
	BYTE	W24
	BYTE	W03
	BYTE	W96
	BYTE	GoTo
	 POIN2	seq_025_7 + 0x3
	BYTE	W04
	BYTE	FINE

//*********************** Track 09 ***********************//

seq_025_8:
	BYTE	KEYSH   seq_025_key+0
	BYTE	W03
	BYTE	W01
	BYTE		VOICE   53
	BYTE	W01
	BYTE		VOL     62*seq_025_mvl/mxv
	BYTE	W01
	BYTE		PAN     c_v+46
	BYTE	W01
	BYTE		VOL     62*seq_025_mvl/mxv
	BYTE		N08     Dn3   v016
	BYTE	W08
	BYTE		        Gn2   v020
	BYTE	W08
	BYTE		        An2 
	BYTE	W08
	BYTE		        En3 
	BYTE	W08
	BYTE		        Dn3 
	BYTE	W08
	BYTE		        Gn2 
	BYTE	W08
	BYTE		        An2   v024
	BYTE	W08
	BYTE		        En2   v020
	BYTE	W08
	BYTE		        Dn3 
	BYTE	W08
	BYTE		        Gn2   v024
	BYTE	W08
	BYTE		        An2   v020
	BYTE	W08
	BYTE		        En3 
	BYTE	W04
	BYTE	W04
	BYTE		N08     Dn3   v020
	BYTE	W08
	BYTE		        Gn2 
	BYTE	W08
	BYTE		        An2 
	BYTE	W08
	BYTE		        En2   v024
	BYTE	W08
	BYTE		        Dn3   v020
	BYTE	W08
	BYTE		        Gn2 
	BYTE	W08
	BYTE		        An2   v024
	BYTE	W08
	BYTE		        En3   v020
	BYTE	W08
	BYTE		        Dn3 
	BYTE	W08
	BYTE		        Gn2   v024
	BYTE	W08
	BYTE		        An2   v020
	BYTE	W08
	BYTE		        En2 
	BYTE	W04
	BYTE	PEND
	BYTE	W04
	BYTE		N08     Cn3   v024
	BYTE	W08
	BYTE		        Gn2   v020
	BYTE	W08
	BYTE		        An2 
	BYTE	W08
	BYTE		        En2   v024
	BYTE	W08
	BYTE		        Cn3   v020
	BYTE	W08
	BYTE		        En2   v016
	BYTE	W08
	BYTE		        Fn2 
	BYTE	W08
	BYTE		        An2 
	BYTE	W08
	BYTE		        Cn3   v020
	BYTE	W08
	BYTE		        Gn2   v016
	BYTE	W08
	BYTE		        An2 
	BYTE	W08
	BYTE		        En2 
	BYTE	W04
	BYTE	PEND
	BYTE	W04
	BYTE		N08     Cn3   v024
	BYTE	W08
	BYTE		        En2   v020
	BYTE	W08
	BYTE		        Fn2 
	BYTE	W08
	BYTE		        An2 
	BYTE	W08
	BYTE		        Cn3 
	BYTE	W08
	BYTE		        Gn2 
	BYTE	W08
	BYTE		        An2 
	BYTE	W08
	BYTE		        En2 
	BYTE	W08
	BYTE		        Cn3 
	BYTE	W08
	BYTE		        En2   v016
	BYTE	W08
	BYTE		        Fn2 
	BYTE	W08
	BYTE		        An2 
	BYTE	W04
	BYTE	PEND
	BYTE	W04
	BYTE		        Dn3 
	BYTE	W08
	BYTE		        Gn2   v020
	BYTE	W08
	BYTE		        An2 
	BYTE	W08
	BYTE		        En3 
	BYTE	W08
	BYTE		        Dn3 
	BYTE	W08
	BYTE		        Gn2 
	BYTE	W08
	BYTE		        An2   v024
	BYTE	W08
	BYTE		        En2   v020
	BYTE	W08
	BYTE		        Dn3 
	BYTE	W08
	BYTE		        Gn2   v024
	BYTE	W08
	BYTE		        An2   v020
	BYTE	W08
	BYTE		        En3 
	BYTE	W04
	BYTE	PATT
	 POIN2	seq_025_8 + 0x2E
	BYTE	PATT
	 POIN2	seq_025_8 + 0x50
	BYTE	PATT
	 POIN2	seq_025_8 + 0x72
	BYTE	W04
	BYTE		N08     Dn3   v020
	BYTE	W08
	BYTE		        Gn2 
	BYTE	W08
	BYTE		        An2 
	BYTE	W08
	BYTE		        En3 
	BYTE	W08
	BYTE		        Dn3 
	BYTE	W08
	BYTE		        Gn2 
	BYTE	W08
	BYTE		        An2   v024
	BYTE	W08
	BYTE		        En2   v020
	BYTE	W08
	BYTE		        Dn3 
	BYTE	W08
	BYTE		        Gn2   v024
	BYTE	W08
	BYTE		        An2   v020
	BYTE	W08
	BYTE		        En3 
	BYTE	W04
	BYTE	PEND
	BYTE	W04
	BYTE		N08     Cs3   v024
	BYTE	W08
	BYTE		        Gn2 
	BYTE	W08
	BYTE		        An2 
	BYTE	W08
	BYTE		        En2   v028
	BYTE	W08
	BYTE		        Cs3   v020
	BYTE	W08
	BYTE		        Gn2   v024
	BYTE	W08
	BYTE		        An2 
	BYTE	W08
	BYTE		        En3   v020
	BYTE	W08
	BYTE		        Cs3 
	BYTE	W08
	BYTE		        Gn2   v024
	BYTE	W08
	BYTE		        An2   v020
	BYTE	W08
	BYTE		        En2 
	BYTE	W04
	BYTE	PEND
	BYTE	W04
	BYTE		N08     Dn3   v020
	BYTE	W08
	BYTE		        Gn2 
	BYTE	W08
	BYTE		        An2 
	BYTE	W08
	BYTE		        En2   v024
	BYTE	W08
	BYTE		        Dn3   v020
	BYTE	W08
	BYTE		        Gn2 
	BYTE	W08
	BYTE		        An2 
	BYTE	W08
	BYTE		        En3   v016
	BYTE	W08
	BYTE		        Dn3   v020
	BYTE	W08
	BYTE		        Gn2 
	BYTE	W08
	BYTE		        An2 
	BYTE	W08
	BYTE		        En2 
	BYTE	W04
	BYTE	PEND
	BYTE	W04
	BYTE		N08     Dn3   v020
	BYTE	W08
	BYTE		        Gn2 
	BYTE	W08
	BYTE		        An2 
	BYTE	W08
	BYTE		        En3   v016
	BYTE	W08
	BYTE		        Dn3   v020
	BYTE	W08
	BYTE		        Gn2 
	BYTE	W08
	BYTE		        An2 
	BYTE	W08
	BYTE		        En2 
	BYTE	W08
	BYTE		        Dn3 
	BYTE	W08
	BYTE		        Gn2 
	BYTE	W08
	BYTE		        An2 
	BYTE	W08
	BYTE		        En3   v016
	BYTE	W04
	BYTE	PEND
	BYTE	PATT
	 POIN2	seq_025_8 + 0xBD
	BYTE	PATT
	 POIN2	seq_025_8 + 0xDD
	BYTE	PATT
	 POIN2	seq_025_8 + 0xFF
	BYTE	PATT
	 POIN2	seq_025_8 + 0x11F
	BYTE	GoTo
	 POIN2	seq_025_8 + 0x3
	BYTE	W04
	BYTE	FINE

//*********************** Track 10 ***********************//

seq_025_9:
	BYTE	KEYSH   seq_025_key+0
	BYTE	W03
	BYTE	W01
	BYTE		VOICE   45
	BYTE	W01
	BYTE		VOL     62*seq_025_mvl/mxv
	BYTE	W01
	BYTE		PAN     c_v-54
	BYTE	W01
	BYTE		MODT    mod_pan
	BYTE	W01
	BYTE		LFOS    45
	BYTE	W90
	BYTE	W01
	BYTE	W96
	BYTE	W96
	BYTE	W96
	BYTE	W96
	BYTE	W96
	BYTE	W96
	BYTE	W96
	BYTE	W96
	BYTE	W96
	BYTE	W04
	BYTE		N40     An2   v032
	BYTE		N40     Cn3 
	BYTE	W02
	BYTE		VOL     61*seq_025_mvl/mxv
	BYTE	W02
	BYTE		        57*seq_025_mvl/mxv
	BYTE	W02
	BYTE		        55*seq_025_mvl/mxv
	BYTE	W02
	BYTE		        55*seq_025_mvl/mxv
	BYTE	W02
	BYTE		        56*seq_025_mvl/mxv
	BYTE		MOD     5
	BYTE	W02
	BYTE		VOL     56*seq_025_mvl/mxv
	BYTE	W02
	BYTE		        57*seq_025_mvl/mxv
	BYTE	W02
	BYTE		        59*seq_025_mvl/mxv
	BYTE	W02
	BYTE		        61*seq_025_mvl/mxv
	BYTE	W02
	BYTE		        64*seq_025_mvl/mxv
	BYTE	W02
	BYTE		        66*seq_025_mvl/mxv
	BYTE		MOD     12
	BYTE	W02
	BYTE		VOL     69*seq_025_mvl/mxv
	BYTE	W02
	BYTE		        73*seq_025_mvl/mxv
	BYTE	W02
	BYTE		        74*seq_025_mvl/mxv
	BYTE	W02
	BYTE		        75*seq_025_mvl/mxv
	BYTE	W02
	BYTE		        78*seq_025_mvl/mxv
	BYTE	W04
	BYTE		        74*seq_025_mvl/mxv
	BYTE		MOD     3
	BYTE	W02
	BYTE		VOL     69*seq_025_mvl/mxv
	BYTE	W02
	BYTE		        62*seq_025_mvl/mxv
	BYTE		MOD     0
	BYTE		N08     Bn2   v028
	BYTE		N08     Dn3 
	BYTE	W08
	BYTE		N24     Cn3   v032
	BYTE		N23     En3 
	BYTE	W04
	BYTE		VOL     64*seq_025_mvl/mxv
	BYTE	W02
	BYTE		        64*seq_025_mvl/mxv
	BYTE	W02
	BYTE		        66*seq_025_mvl/mxv
	BYTE	W02
	BYTE		        68*seq_025_mvl/mxv
	BYTE		MOD     6
	BYTE	W02
	BYTE		VOL     70*seq_025_mvl/mxv
	BYTE	W02
	BYTE		        74*seq_025_mvl/mxv
	BYTE		MOD     14
	BYTE	W02
	BYTE		VOL     77*seq_025_mvl/mxv
	BYTE	W02
	BYTE		        78*seq_025_mvl/mxv
	BYTE	W02
	BYTE		        77*seq_025_mvl/mxv
	BYTE	W02
	BYTE		        73*seq_025_mvl/mxv
	BYTE	W01
	BYTE		        67*seq_025_mvl/mxv
	BYTE	W01
	BYTE		        62*seq_025_mvl/mxv
	BYTE		MOD     0
	BYTE		N24     En3   v036
	BYTE		N23     Gn3 
	BYTE	W02
	BYTE		VOL     63*seq_025_mvl/mxv
	BYTE	W02
	BYTE		        64*seq_025_mvl/mxv
	BYTE	W02
	BYTE		        64*seq_025_mvl/mxv
	BYTE	W02
	BYTE		        66*seq_025_mvl/mxv
	BYTE	W02
	BYTE		        68*seq_025_mvl/mxv
	BYTE		MOD     6
	BYTE	W02
	BYTE		VOL     71*seq_025_mvl/mxv
	BYTE	W02
	BYTE		        75*seq_025_mvl/mxv
	BYTE		MOD     14
	BYTE	W02
	BYTE		VOL     78*seq_025_mvl/mxv
	BYTE	W02
	BYTE		        78*seq_025_mvl/mxv
	BYTE	W02
	BYTE		        77*seq_025_mvl/mxv
	BYTE	W02
	BYTE		        73*seq_025_mvl/mxv
	BYTE	W01
	BYTE		        67*seq_025_mvl/mxv
	BYTE	W01
	BYTE		        62*seq_025_mvl/mxv
	BYTE		MOD     0
	BYTE		N48     Gn3   v028
	BYTE		N48     Bn3 
	BYTE	W02
	BYTE		VOL     58*seq_025_mvl/mxv
	BYTE	W06
	BYTE		        59*seq_025_mvl/mxv
	BYTE	W02
	BYTE		        60*seq_025_mvl/mxv
	BYTE		MOD     2
	BYTE	W02
	BYTE		VOL     62*seq_025_mvl/mxv
	BYTE	W02
	BYTE		        64*seq_025_mvl/mxv
	BYTE	W02
	BYTE		        66*seq_025_mvl/mxv
	BYTE	W02
	BYTE		        69*seq_025_mvl/mxv
	BYTE		MOD     11
	BYTE	W02
	BYTE		VOL     72*seq_025_mvl/mxv
	BYTE	W02
	BYTE		        76*seq_025_mvl/mxv
	BYTE	W02
	BYTE		        80*seq_025_mvl/mxv
	BYTE	W04
	BYTE		        78*seq_025_mvl/mxv
	BYTE	W02
	BYTE		        78*seq_025_mvl/mxv
	BYTE	W02
	BYTE		        76*seq_025_mvl/mxv
	BYTE	W02
	BYTE		        75*seq_025_mvl/mxv
	BYTE		MOD     6
	BYTE	W02
	BYTE		VOL     73*seq_025_mvl/mxv
	BYTE	W02
	BYTE		        71*seq_025_mvl/mxv
	BYTE	W02
	BYTE		        68*seq_025_mvl/mxv
	BYTE	W02
	BYTE		        65*seq_025_mvl/mxv
	BYTE	W02
	BYTE		        62*seq_025_mvl/mxv
	BYTE		MOD     3
	BYTE	W01
	BYTE		VOL     62*seq_025_mvl/mxv
	BYTE	W03
	BYTE		MOD     0
	BYTE		N44     En3   v024
	BYTE		N44     An3 
	BYTE	W12
	BYTE		MOD     5
	BYTE	W04
	BYTE		VOL     62*seq_025_mvl/mxv
	BYTE	W02
	BYTE		MOD     11
	BYTE	W03
	BYTE		VOL     61*seq_025_mvl/mxv
	BYTE	W02
	BYTE		        60*seq_025_mvl/mxv
	BYTE	W02
	BYTE		        58*seq_025_mvl/mxv
	BYTE	W02
	BYTE		        56*seq_025_mvl/mxv
	BYTE	W02
	BYTE		        52*seq_025_mvl/mxv
	BYTE	W02
	BYTE		        49*seq_025_mvl/mxv
	BYTE	W02
	BYTE		        45*seq_025_mvl/mxv
	BYTE	W01
	BYTE		MOD     5
	BYTE	W01
	BYTE		VOL     41*seq_025_mvl/mxv
	BYTE	W02
	BYTE		        35*seq_025_mvl/mxv
	BYTE	W02
	BYTE		        30*seq_025_mvl/mxv
	BYTE	W01
	BYTE		MOD     0
	BYTE	W01
	BYTE		VOL     24*seq_025_mvl/mxv
	BYTE	W02
	BYTE		        18*seq_025_mvl/mxv
	BYTE	W01
	BYTE	W01
	BYTE		        10*seq_025_mvl/mxv
	BYTE	W03
	BYTE		        62*seq_025_mvl/mxv
	BYTE	W92
	BYTE	W96
	BYTE	W04
	BYTE		N40     An2   v032
	BYTE		N40     Cn3 
	BYTE	W02
	BYTE		VOL     61*seq_025_mvl/mxv
	BYTE	W02
	BYTE		        57*seq_025_mvl/mxv
	BYTE	W02
	BYTE		        55*seq_025_mvl/mxv
	BYTE	W02
	BYTE		        55*seq_025_mvl/mxv
	BYTE	W02
	BYTE		MOD     5
	BYTE		VOL     56*seq_025_mvl/mxv
	BYTE	W02
	BYTE		        56*seq_025_mvl/mxv
	BYTE	W02
	BYTE		        57*seq_025_mvl/mxv
	BYTE	W02
	BYTE		        59*seq_025_mvl/mxv
	BYTE	W02
	BYTE		        61*seq_025_mvl/mxv
	BYTE	W02
	BYTE		        64*seq_025_mvl/mxv
	BYTE	W02
	BYTE		MOD     12
	BYTE		VOL     66*seq_025_mvl/mxv
	BYTE	W02
	BYTE		        69*seq_025_mvl/mxv
	BYTE	W02
	BYTE		        73*seq_025_mvl/mxv
	BYTE	W02
	BYTE		        74*seq_025_mvl/mxv
	BYTE	W02
	BYTE		        75*seq_025_mvl/mxv
	BYTE	W02
	BYTE		        78*seq_025_mvl/mxv
	BYTE	W04
	BYTE		MOD     3
	BYTE		VOL     74*seq_025_mvl/mxv
	BYTE	W02
	BYTE		        69*seq_025_mvl/mxv
	BYTE	W02
	BYTE		MOD     0
	BYTE		VOL     62*seq_025_mvl/mxv
	BYTE		N08     Bn2   v028
	BYTE		N08     Dn3 
	BYTE	W08
	BYTE		N24     Cn3   v032
	BYTE		N23     En3 
	BYTE	W04
	BYTE		VOL     64*seq_025_mvl/mxv
	BYTE	W02
	BYTE		        64*seq_025_mvl/mxv
	BYTE	W02
	BYTE		        66*seq_025_mvl/mxv
	BYTE	W02
	BYTE		MOD     6
	BYTE		VOL     68*seq_025_mvl/mxv
	BYTE	W02
	BYTE		        70*seq_025_mvl/mxv
	BYTE	W02
	BYTE		MOD     14
	BYTE		VOL     74*seq_025_mvl/mxv
	BYTE	W02
	BYTE		        77*seq_025_mvl/mxv
	BYTE	W02
	BYTE		        78*seq_025_mvl/mxv
	BYTE	W02
	BYTE		        77*seq_025_mvl/mxv
	BYTE	W02
	BYTE		        73*seq_025_mvl/mxv
	BYTE	W01
	BYTE		        67*seq_025_mvl/mxv
	BYTE	W01
	BYTE		MOD     0
	BYTE		VOL     62*seq_025_mvl/mxv
	BYTE		N24     En3   v036
	BYTE		N23     Gn3 
	BYTE	W02
	BYTE		VOL     63*seq_025_mvl/mxv
	BYTE	W02
	BYTE		        64*seq_025_mvl/mxv
	BYTE	W02
	BYTE		        64*seq_025_mvl/mxv
	BYTE	W02
	BYTE		        66*seq_025_mvl/mxv
	BYTE	W02
	BYTE		MOD     6
	BYTE		VOL     68*seq_025_mvl/mxv
	BYTE	W02
	BYTE		        71*seq_025_mvl/mxv
	BYTE	W02
	BYTE		MOD     14
	BYTE		VOL     75*seq_025_mvl/mxv
	BYTE	W02
	BYTE		        78*seq_025_mvl/mxv
	BYTE	W02
	BYTE		        78*seq_025_mvl/mxv
	BYTE	W02
	BYTE		        77*seq_025_mvl/mxv
	BYTE	W02
	BYTE		        73*seq_025_mvl/mxv
	BYTE	W01
	BYTE		        67*seq_025_mvl/mxv
	BYTE	W01
	BYTE		MOD     0
	BYTE		VOL     62*seq_025_mvl/mxv
	BYTE		N48     Gn3   v028
	BYTE		N48     Bn3 
	BYTE	W02
	BYTE		VOL     58*seq_025_mvl/mxv
	BYTE	W06
	BYTE		        59*seq_025_mvl/mxv
	BYTE	W02
	BYTE		        60*seq_025_mvl/mxv
	BYTE		MOD     2
	BYTE	W02
	BYTE		VOL     62*seq_025_mvl/mxv
	BYTE	W02
	BYTE		        64*seq_025_mvl/mxv
	BYTE	W02
	BYTE		        66*seq_025_mvl/mxv
	BYTE	W02
	BYTE		        69*seq_025_mvl/mxv
	BYTE		MOD     11
	BYTE	W02
	BYTE		VOL     72*seq_025_mvl/mxv
	BYTE	W02
	BYTE		        76*seq_025_mvl/mxv
	BYTE	W02
	BYTE		        80*seq_025_mvl/mxv
	BYTE	W04
	BYTE		        78*seq_025_mvl/mxv
	BYTE	W02
	BYTE		        78*seq_025_mvl/mxv
	BYTE	W02
	BYTE		        76*seq_025_mvl/mxv
	BYTE	W02
	BYTE		        75*seq_025_mvl/mxv
	BYTE		MOD     6
	BYTE	W02
	BYTE		VOL     73*seq_025_mvl/mxv
	BYTE	W02
	BYTE		        71*seq_025_mvl/mxv
	BYTE	W02
	BYTE		        68*seq_025_mvl/mxv
	BYTE	W02
	BYTE		        65*seq_025_mvl/mxv
	BYTE	W02
	BYTE		        62*seq_025_mvl/mxv
	BYTE		MOD     3
	BYTE	W04
	BYTE		        0
	BYTE		N42     En3   v024
	BYTE		N42     An3 
	BYTE	W12
	BYTE		MOD     5
	BYTE	W01
	BYTE		VOL     62*seq_025_mvl/mxv
	BYTE	W05
	BYTE		MOD     11
	BYTE		VOL     61*seq_025_mvl/mxv
	BYTE	W02
	BYTE		        60*seq_025_mvl/mxv
	BYTE	W02
	BYTE		        58*seq_025_mvl/mxv
	BYTE	W02
	BYTE		        56*seq_025_mvl/mxv
	BYTE	W02
	BYTE		        52*seq_025_mvl/mxv
	BYTE	W02
	BYTE		        49*seq_025_mvl/mxv
	BYTE	W02
	BYTE		        45*seq_025_mvl/mxv
	BYTE	W02
	BYTE		        41*seq_025_mvl/mxv
	BYTE	W02
	BYTE		MOD     5
	BYTE		VOL     35*seq_025_mvl/mxv
	BYTE	W01
	BYTE		        32*seq_025_mvl/mxv
	BYTE	W01
	BYTE		        27*seq_025_mvl/mxv
	BYTE	W02
	BYTE		        20*seq_025_mvl/mxv
	BYTE	W01
	BYTE		        15*seq_025_mvl/mxv
	BYTE	W01
	BYTE		MOD     0
	BYTE	W02
	BYTE		VOL     62*seq_025_mvl/mxv
	BYTE	W02
	BYTE	GoTo
	 POIN2	seq_025_9 + 0x3
	BYTE	W04
	BYTE	FINE

//******************************************************//

	ALIGN 4

seq_025:
	BYTE	10	// NumTrks
	BYTE	0	// NumBlks
	BYTE	seq_025_pri	// Priority
	BYTE	seq_025_rev	// Reverb

	POIN2	seq_025_grp

	POIN2	seq_025_0
	POIN2	seq_025_1
	POIN2	seq_025_2
	POIN2	seq_025_3
	POIN2	seq_025_4
	POIN2	seq_025_5
	POIN2	seq_025_6
	POIN2	seq_025_7
	POIN2	seq_025_8
	POIN2	seq_025_9

	
