//Event file generated from Sappy .s format.
// File generated by m4a2s Song-Module
	#include "MPlayDef.event"

	#define	seq_064_grp  bank_008
	#define	seq_064_pri  40
	#define	seq_064_rev  0
	#define	seq_064_mvl  127
	#define	seq_064_key  0

	// .rodata
	//	seq_064
	ALIGN 4

//*********************** Track 01 ***********************//

seq_064_0:
	BYTE	KEYSH   seq_064_key+0
	BYTE	TEMPO   240/2
	BYTE		BENDR   12
	BYTE	W01
	BYTE		VOL     40*seq_064_mvl/mxv
	BYTE		PAN     c_v-64
	BYTE	W01
	BYTE		VOICE   113
	BYTE		BEND    c_v+7
	BYTE	W04
	BYTE	TEMPO   166/2
	BYTE	W48
	BYTE		PAN     c_v+50
	BYTE	W24
	BYTE		N08     Fs3   v127
	BYTE	W08
	BYTE		N08
	BYTE	W08
	BYTE		N08
	BYTE	W08
	BYTE		N24     Fs3   v127
	BYTE	W48
	BYTE		PAN     c_v+0
	BYTE	W24
	BYTE		N08     Dn3 
	BYTE	W08
	BYTE		N08
	BYTE	W08
	BYTE		N08
	BYTE	W08
	BYTE	PEND
	BYTE		N24     Dn3   v127
	BYTE	W48
	BYTE		PAN     c_v-50
	BYTE	W24
	BYTE		N08     As2 
	BYTE	W08
	BYTE		N08
	BYTE	W08
	BYTE		N08
	BYTE	W08
	BYTE	PEND
	BYTE		N24
	BYTE	W96
	BYTE	W48
	BYTE		PAN     c_v+50
	BYTE	W24
	BYTE		N08     Fs3 
	BYTE	W08
	BYTE		N08
	BYTE	W08
	BYTE		N08
	BYTE	W08
	BYTE	PATT
	 POIN2	seq_064_0 + 0x1F
	BYTE	PATT
	 POIN2	seq_064_0 + 0x2E
	BYTE		N24     As2   v127
	BYTE	W72
	BYTE		PAN     c_v+63
	BYTE	W24
	BYTE		N07     As2   v060
	BYTE	W08
	BYTE		N07
	BYTE	W08
	BYTE		        As2   v068
	BYTE	W08
	BYTE		N15     As2   v072
	BYTE	W16
	BYTE		N07     As2   v076
	BYTE	W08
	BYTE		N15     As2   v084
	BYTE	W16
	BYTE		N07     As2   v088
	BYTE	W08
	BYTE		N23     As2   v092
	BYTE	W24
	BYTE		N07     As2   v104
	BYTE	W08
	BYTE		N03
	BYTE	W04
	BYTE		        As2   v108
	BYTE	W04
	BYTE		N07
	BYTE	W08
	BYTE		        As2   v112
	BYTE	W08
	BYTE		N07
	BYTE	W08
	BYTE		        As2   v116
	BYTE	W08
	BYTE		        As2   v124
	BYTE	W08
	BYTE		N07
	BYTE	W08
	BYTE		        As2   v127
	BYTE	W08
	BYTE		N15
	BYTE	W16
	BYTE		N07
	BYTE	W08
	BYTE		N07     As2   v127
	BYTE	W08
	BYTE		N07
	BYTE	W08
	BYTE		N07
	BYTE	W08
	BYTE		N15
	BYTE	W16
	BYTE		N07
	BYTE	W08
	BYTE		N15
	BYTE	W16
	BYTE		N07
	BYTE	W08
	BYTE		N23
	BYTE	W24
	BYTE	PEND
	BYTE		N07     As2   v127
	BYTE	W08
	BYTE		N03
	BYTE	W04
	BYTE		N03
	BYTE	W04
	BYTE		N07
	BYTE	W08
	BYTE		N07
	BYTE	W08
	BYTE		N07
	BYTE	W08
	BYTE		N07
	BYTE	W08
	BYTE		N07
	BYTE	W08
	BYTE		N07
	BYTE	W08
	BYTE		N07
	BYTE	W08
	BYTE		N15
	BYTE	W16
	BYTE		N07
	BYTE	W08
	BYTE	PEND
	BYTE	PATT
	 POIN2	seq_064_0 + 0x97
	BYTE	PATT
	 POIN2	seq_064_0 + 0xAA
	BYTE	PATT
	 POIN2	seq_064_0 + 0x97
	BYTE	PATT
	 POIN2	seq_064_0 + 0xAA
	BYTE	PATT
	 POIN2	seq_064_0 + 0x97
	BYTE	PATT
	 POIN2	seq_064_0 + 0xAA
	BYTE	PATT
	 POIN2	seq_064_0 + 0x97
	BYTE	PATT
	 POIN2	seq_064_0 + 0xAA
	BYTE	PATT
	 POIN2	seq_064_0 + 0x97
	BYTE	PATT
	 POIN2	seq_064_0 + 0xAA
	BYTE	PATT
	 POIN2	seq_064_0 + 0x97
	BYTE	PATT
	 POIN2	seq_064_0 + 0xAA
	BYTE	PATT
	 POIN2	seq_064_0 + 0x97
	BYTE	PATT
	 POIN2	seq_064_0 + 0xAA
	BYTE	PATT
	 POIN2	seq_064_0 + 0x97
	BYTE	PATT
	 POIN2	seq_064_0 + 0xAA
	BYTE	PATT
	 POIN2	seq_064_0 + 0x97
	BYTE	PATT
	 POIN2	seq_064_0 + 0xAA
	BYTE	W96
	BYTE	W96
	BYTE	W96
	BYTE	W96
	BYTE	W07
	BYTE		BENDR   12
	BYTE	W02
	BYTE		VOL     72*seq_064_mvl/mxv
	BYTE		PAN     c_v-16
	BYTE	W03
	BYTE		BEND    c_v+0
	BYTE	W03
	BYTE		VOICE   39
	BYTE	W80
	BYTE	W01
	BYTE	PEND
	BYTE	W96
	BYTE	W12
	BYTE		N08     Bn2   v127
	BYTE	W36
	BYTE		N08
	BYTE	W48
	BYTE	PEND
	BYTE		N06     Fn2   v127
	BYTE	W06
	BYTE		N06
	BYTE	W06
	BYTE		N06
	BYTE	W24
	BYTE		N06
	BYTE	W06
	BYTE		N06
	BYTE	W06
	BYTE		N06
	BYTE	W24
	BYTE		N06
	BYTE	W06
	BYTE		N06
	BYTE	W06
	BYTE		N06
	BYTE	W12
	BYTE	PEND
	BYTE	W12
	BYTE		N08     Bn2   v127
	BYTE	W36
	BYTE		N08
	BYTE	W36
	BYTE		N06     Fn2 
	BYTE	W06
	BYTE		N06
	BYTE	W06
	BYTE	PEND
	BYTE		N06     Fn2   v127
	BYTE	W06
	BYTE		N06
	BYTE	W06
	BYTE		N06
	BYTE	W24
	BYTE		N06
	BYTE	W06
	BYTE		N06
	BYTE	W06
	BYTE		N06
	BYTE	W06
	BYTE		N06
	BYTE	W06
	BYTE		N06
	BYTE	W12
	BYTE		N06
	BYTE	W06
	BYTE		N06
	BYTE	W06
	BYTE		N06
	BYTE	W12
	BYTE	PEND
	BYTE	PATT
	 POIN2	seq_064_0 + 0x135
	BYTE	PATT
	 POIN2	seq_064_0 + 0x13D
	BYTE	PATT
	 POIN2	seq_064_0 + 0x152
	BYTE	PATT
	 POIN2	seq_064_0 + 0x15F
	BYTE	W96
	BYTE	W96
	BYTE	W96
	BYTE	W96
	BYTE	W96
	BYTE	W96
	BYTE	W96
	BYTE	W96
	BYTE	W12
	BYTE		N06     Dn2   v120
	BYTE	W36
	BYTE		        Gn2 
	BYTE	W06
	BYTE		N06
	BYTE	W06
	BYTE		        Fs2 
	BYTE	W24
	BYTE		        Cn3 
	BYTE	W06
	BYTE		N06
	BYTE	W06
	BYTE		        Bn2 
	BYTE	W24
	BYTE		        En3 
	BYTE	W06
	BYTE		N06
	BYTE	W06
	BYTE		        Ds3 
	BYTE	W24
	BYTE		        An3 
	BYTE	W06
	BYTE		N06
	BYTE	W06
	BYTE		        Gs3 
	BYTE	W24
	BYTE	W96
	BYTE	W96
	BYTE	W96
	BYTE	W96
	BYTE	W96
	BYTE	W96
	BYTE	W96
	BYTE	W96
	BYTE		N24     An2   v100
	BYTE	W24
	BYTE		N06     Gs2 
	BYTE	W12
	BYTE		        An2 
	BYTE	W12
	BYTE		N24     Cs3 
	BYTE	W24
	BYTE		N06     Bn2 
	BYTE	W12
	BYTE		        Gs2 
	BYTE	W12
	BYTE	PEND
	BYTE		N06     An2   v100
	BYTE	W12
	BYTE		        Cs3 
	BYTE	W12
	BYTE		N36     Bn2 
	BYTE	W36
	BYTE		N06     Gs2 
	BYTE	W12
	BYTE		        An2 
	BYTE	W12
	BYTE		        Cn3 
	BYTE	W12
	BYTE	PEND
	BYTE		N24     Cs3 
	BYTE	W24
	BYTE		N06     Cn3 
	BYTE	W12
	BYTE		        Cs3 
	BYTE	W12
	BYTE		N24     Ds3 
	BYTE	W24
	BYTE		N06     Cs3 
	BYTE	W12
	BYTE		        Cn3 
	BYTE	W12
	BYTE		N24     Cs3 
	BYTE	W24
	BYTE		        Gs2 
	BYTE	W24
	BYTE		N24
	BYTE	W24
	BYTE		        En2 
	BYTE	W24
	BYTE	PATT
	 POIN2	seq_064_0 + 0x1B9
	BYTE	PATT
	 POIN2	seq_064_0 + 0x1CB
	BYTE	W96
	BYTE	W96
	BYTE	W96
	BYTE	W96
	BYTE	W96
	BYTE	W96
	BYTE	W96
	BYTE	W96
	BYTE	W96
	BYTE	W96
	BYTE	W96
	BYTE	W96
	BYTE	W96
	BYTE	W07
	BYTE		BENDR   29
	BYTE	W02
	BYTE		VOL     40*seq_064_mvl/mxv
	BYTE		PAN     c_v-64
	BYTE	W03
	BYTE		BEND    c_v+7
	BYTE	W03
	BYTE		VOICE   113
	BYTE	W80
	BYTE	W01
	BYTE	W96
	BYTE	W42
	BYTE		PAN     c_v+52
	BYTE	W06
	BYTE		N15     Fs3   v127
	BYTE	W16
	BYTE		N07
	BYTE	W08
	BYTE		PAN     c_v+0
	BYTE		N07     Dn3 
	BYTE	W08
	BYTE		N07
	BYTE	W08
	BYTE		N07
	BYTE	W08
	BYTE		PAN     c_v+50
	BYTE		N07     As2 
	BYTE	W08
	BYTE		N07
	BYTE	W08
	BYTE		N07
	BYTE	W08
	BYTE		N15
	BYTE	W16
	BYTE		N07
	BYTE	W08
	BYTE		N15
	BYTE	W16
	BYTE		N07
	BYTE	W08
	BYTE		N23
	BYTE	W24
	BYTE	PATT
	 POIN2	seq_064_0 + 0xAA
	BYTE	PATT
	 POIN2	seq_064_0 + 0x97
	BYTE	PATT
	 POIN2	seq_064_0 + 0xAA
	BYTE	PATT
	 POIN2	seq_064_0 + 0x97
	BYTE	PATT
	 POIN2	seq_064_0 + 0xAA
	BYTE	PATT
	 POIN2	seq_064_0 + 0x97
	BYTE	PATT
	 POIN2	seq_064_0 + 0xAA
	BYTE	PATT
	 POIN2	seq_064_0 + 0x97
	BYTE	PATT
	 POIN2	seq_064_0 + 0xAA
	BYTE	PATT
	 POIN2	seq_064_0 + 0x97
	BYTE	PATT
	 POIN2	seq_064_0 + 0xAA
	BYTE	PATT
	 POIN2	seq_064_0 + 0x97
	BYTE	PATT
	 POIN2	seq_064_0 + 0xAA
	BYTE	PATT
	 POIN2	seq_064_0 + 0x97
	BYTE	PATT
	 POIN2	seq_064_0 + 0xAA
	BYTE	W96
	BYTE	W96
	BYTE	W96
	BYTE	W96
	BYTE	W96
	BYTE	W96
	BYTE	W96
	BYTE	PATT
	 POIN2	seq_064_0 + 0x123
	BYTE	GoTo
	 POIN2	seq_064_0 + 0x18C
	BYTE	FINE

//*********************** Track 02 ***********************//

seq_064_1:
	BYTE	KEYSH   seq_064_key+0
	BYTE		BENDR   12
	BYTE	W01
	BYTE		VOL     40*seq_064_mvl/mxv
	BYTE		PAN     c_v-64
	BYTE	W01
	BYTE		VOICE   113
	BYTE		BEND    c_v-8
	BYTE	W04
	BYTE	W96
	BYTE	W96
	BYTE	W96
	BYTE	W96
	BYTE	W96
	BYTE	W96
	BYTE	W96
	BYTE	W92
	BYTE	W03
	BYTE		N15     Cs3   v060
	BYTE	W01
	BYTE	W15
	BYTE		N07     Cs3   v068
	BYTE	W08
	BYTE		N03     Cs3   v072
	BYTE	W04
	BYTE		N03
	BYTE	W04
	BYTE		N07     Cs3   v076
	BYTE	W08
	BYTE		N07
	BYTE	W08
	BYTE		N15     Cs3   v084
	BYTE	W16
	BYTE		N07     Cs3   v088
	BYTE	W08
	BYTE		N15     Cs3   v092
	BYTE	W16
	BYTE		N07     Cs3   v096
	BYTE	W08
	BYTE		N15     Cs3   v104
	BYTE	W01
	BYTE	W15
	BYTE		N07     Cs3   v108
	BYTE	W08
	BYTE		        Cs3   v112
	BYTE	W08
	BYTE		        Cs3   v116
	BYTE	W08
	BYTE		N15
	BYTE	W16
	BYTE		        Cs3   v124
	BYTE	W16
	BYTE		        Cs3   v127
	BYTE	W16
	BYTE		N07
	BYTE	W08
	BYTE		N15
	BYTE	W01
	BYTE	W15
	BYTE		N07     Cs3   v127
	BYTE	W08
	BYTE		N03
	BYTE	W04
	BYTE		N03
	BYTE	W04
	BYTE		N07
	BYTE	W08
	BYTE		N07
	BYTE	W08
	BYTE		N15
	BYTE	W16
	BYTE		N07
	BYTE	W08
	BYTE		N15
	BYTE	W16
	BYTE		N07
	BYTE	W08
	BYTE		N15
	BYTE	W01
	BYTE	PEND
	BYTE	W15
	BYTE		N07     Cs3   v127
	BYTE	W08
	BYTE		N07
	BYTE	W08
	BYTE		N07
	BYTE	W08
	BYTE		N15
	BYTE	W16
	BYTE		N15
	BYTE	W16
	BYTE		N15
	BYTE	W16
	BYTE		N07
	BYTE	W08
	BYTE		N15
	BYTE	W01
	BYTE	PEND
	BYTE	PATT
	 POIN2	seq_064_1 + 0x58
	BYTE	PATT
	 POIN2	seq_064_1 + 0x70
	BYTE	PATT
	 POIN2	seq_064_1 + 0x58
	BYTE	PATT
	 POIN2	seq_064_1 + 0x70
	BYTE	PATT
	 POIN2	seq_064_1 + 0x58
	BYTE	PATT
	 POIN2	seq_064_1 + 0x70
	BYTE	PATT
	 POIN2	seq_064_1 + 0x58
	BYTE	PATT
	 POIN2	seq_064_1 + 0x70
	BYTE	PATT
	 POIN2	seq_064_1 + 0x58
	BYTE	PATT
	 POIN2	seq_064_1 + 0x70
	BYTE	PATT
	 POIN2	seq_064_1 + 0x58
	BYTE	PATT
	 POIN2	seq_064_1 + 0x70
	BYTE	PATT
	 POIN2	seq_064_1 + 0x58
	BYTE	PATT
	 POIN2	seq_064_1 + 0x70
	BYTE	PATT
	 POIN2	seq_064_1 + 0x58
	BYTE	PATT
	 POIN2	seq_064_1 + 0x70
	BYTE	PATT
	 POIN2	seq_064_1 + 0x58
	BYTE	W15
	BYTE		N07     Cs3   v127
	BYTE	W08
	BYTE		N07
	BYTE	W08
	BYTE		N07
	BYTE	W08
	BYTE		N15
	BYTE	W16
	BYTE		N15
	BYTE	W16
	BYTE		N15
	BYTE	W16
	BYTE		N07
	BYTE	W09
	BYTE	W96
	BYTE	W96
	BYTE	W96
	BYTE	W96
	BYTE	W96
	BYTE	W96
	BYTE		BENDR   12
	BYTE	W01
	BYTE		VOL     72*seq_064_mvl/mxv
	BYTE		PAN     c_v+0
	BYTE	W01
	BYTE		BEND    c_v+0
	BYTE	W03
	BYTE		VOICE   4
	BYTE	W07
	BYTE		N08     Fn3   v060
	BYTE	W36
	BYTE		N08
	BYTE	W48
	BYTE		N06     Bn2   v060
	BYTE	W06
	BYTE		N06
	BYTE	W06
	BYTE		N06
	BYTE	W24
	BYTE		N06
	BYTE	W06
	BYTE		N06
	BYTE	W06
	BYTE		N06
	BYTE	W24
	BYTE		N06
	BYTE	W06
	BYTE		N06
	BYTE	W06
	BYTE		N06
	BYTE	W12
	BYTE	PEND
	BYTE	W12
	BYTE		N08     Fn3   v060
	BYTE	W36
	BYTE		N08
	BYTE	W36
	BYTE		N06     Bn2 
	BYTE	W06
	BYTE		N06
	BYTE	W06
	BYTE	PEND
	BYTE		N06     Bn2   v060
	BYTE	W06
	BYTE		N06
	BYTE	W06
	BYTE		N06
	BYTE	W24
	BYTE		N06
	BYTE	W06
	BYTE		N06
	BYTE	W06
	BYTE		N06
	BYTE	W06
	BYTE		N06
	BYTE	W06
	BYTE		N06
	BYTE	W12
	BYTE		N06
	BYTE	W06
	BYTE		N06
	BYTE	W06
	BYTE		N06
	BYTE	W12
	BYTE	PEND
	BYTE	W12
	BYTE		N08     Fn3 
	BYTE	W36
	BYTE		N08
	BYTE	W48
	BYTE	PATT
	 POIN2	seq_064_1 + 0x104
	BYTE	PATT
	 POIN2	seq_064_1 + 0x119
	BYTE	PATT
	 POIN2	seq_064_1 + 0x126
	BYTE	W96
	BYTE	W96
	BYTE	W96
	BYTE	W96
	BYTE	W96
	BYTE	W96
	BYTE	W96
	BYTE	W96
	BYTE	W12
	BYTE		N06     Gs2   v056
	BYTE	W36
	BYTE		        Cs3 
	BYTE	W06
	BYTE		N06
	BYTE	W06
	BYTE		        Cn3 
	BYTE	W24
	BYTE		        Fs3 
	BYTE	W06
	BYTE		N06
	BYTE	W06
	BYTE		        Fn3 
	BYTE	W24
	BYTE		        As3 
	BYTE	W06
	BYTE		N06
	BYTE	W06
	BYTE		        An3 
	BYTE	W24
	BYTE		        Ds4 
	BYTE	W06
	BYTE		N06
	BYTE	W06
	BYTE		        Dn4 
	BYTE	W24
	BYTE	W96
	BYTE	W96
	BYTE	W96
	BYTE	W96
	BYTE	W96
	BYTE	W96
	BYTE	W96
	BYTE	W96
	BYTE		N12     An3   v032
	BYTE	W12
	BYTE		N06     Bn3 
	BYTE	W06
	BYTE		        Cs4 
	BYTE	W06
	BYTE		        Ds4 
	BYTE	W06
	BYTE		        En4 
	BYTE	W06
	BYTE		        Fs4 
	BYTE	W06
	BYTE		        Gs4 
	BYTE	W06
	BYTE		N36     An4 
	BYTE	W36
	BYTE		N12     Gs4 
	BYTE	W12
	BYTE	PEND
	BYTE		N06     An4   v032
	BYTE	W12
	BYTE		N12     En4 
	BYTE	W12
	BYTE		N06     Fs4 
	BYTE	W12
	BYTE		N12     An3 
	BYTE	W12
	BYTE		N06     Bn3 
	BYTE	W12
	BYTE		N12     Gs3 
	BYTE	W12
	BYTE		N06     An3 
	BYTE	W12
	BYTE		N12     Ds3 
	BYTE	W12
	BYTE	PEND
	BYTE		N06     En3 
	BYTE	W12
	BYTE		N06
	BYTE	W12
	BYTE		N06
	BYTE	W12
	BYTE		N06
	BYTE	W12
	BYTE		        Fs3 
	BYTE	W12
	BYTE		N06
	BYTE	W12
	BYTE		N06
	BYTE	W12
	BYTE		N06
	BYTE	W12
	BYTE		        Gs3 
	BYTE	W12
	BYTE		N06
	BYTE	W12
	BYTE		N06
	BYTE	W12
	BYTE		N06
	BYTE	W12
	BYTE		        En3 
	BYTE	W12
	BYTE		N06
	BYTE	W12
	BYTE		        Ds3 
	BYTE	W12
	BYTE		N06
	BYTE	W12
	BYTE	PATT
	 POIN2	seq_064_1 + 0x181
	BYTE	PATT
	 POIN2	seq_064_1 + 0x199
	BYTE	W96
	BYTE	W96
	BYTE	W96
	BYTE	W96
	BYTE	W96
	BYTE	W96
	BYTE	W96
	BYTE	W96
	BYTE	W96
	BYTE	W96
	BYTE	W96
	BYTE	W96
	BYTE	W96
	BYTE	W07
	BYTE		BENDR   29
	BYTE	W02
	BYTE		VOL     40*seq_064_mvl/mxv
	BYTE		PAN     c_v-64
	BYTE	W03
	BYTE		BEND    c_v-8
	BYTE	W03
	BYTE		VOICE   113
	BYTE	W80
	BYTE	W01
	BYTE	W96
	BYTE	W92
	BYTE	W03
	BYTE		N15     Dn3   v127
	BYTE	W01
	BYTE	W15
	BYTE		N07     Dn3   v127
	BYTE	W08
	BYTE		N03
	BYTE	W04
	BYTE		N03
	BYTE	W04
	BYTE		N07
	BYTE	W08
	BYTE		N07
	BYTE	W08
	BYTE		N15
	BYTE	W16
	BYTE		N07
	BYTE	W08
	BYTE		N15
	BYTE	W16
	BYTE		N07
	BYTE	W08
	BYTE		N15
	BYTE	W01
	BYTE	PEND
	BYTE	W15
	BYTE		N07     Dn3   v127
	BYTE	W08
	BYTE		N07
	BYTE	W08
	BYTE		N07
	BYTE	W08
	BYTE		N15
	BYTE	W16
	BYTE		N15
	BYTE	W16
	BYTE		N15
	BYTE	W16
	BYTE		N07
	BYTE	W08
	BYTE		N15
	BYTE	W01
	BYTE	PEND
	BYTE	PATT
	 POIN2	seq_064_1 + 0x202
	BYTE	PATT
	 POIN2	seq_064_1 + 0x21A
	BYTE	PATT
	 POIN2	seq_064_1 + 0x202
	BYTE	PATT
	 POIN2	seq_064_1 + 0x21A
	BYTE	PATT
	 POIN2	seq_064_1 + 0x202
	BYTE	W15
	BYTE		N07     Dn3   v127
	BYTE	W08
	BYTE		N07
	BYTE	W08
	BYTE		N07
	BYTE	W08
	BYTE		N15
	BYTE	W16
	BYTE		N15
	BYTE	W16
	BYTE		N15
	BYTE	W16
	BYTE		N07
	BYTE	W08
	BYTE		N15     Dn3   v100
	BYTE	W01
	BYTE	W15
	BYTE		N07     Dn3   v100
	BYTE	W08
	BYTE		N03
	BYTE	W04
	BYTE		N03
	BYTE	W04
	BYTE		N07
	BYTE	W08
	BYTE		N07
	BYTE	W08
	BYTE		N15
	BYTE	W16
	BYTE		N07
	BYTE	W08
	BYTE		N15
	BYTE	W16
	BYTE		N07
	BYTE	W08
	BYTE		N15
	BYTE	W01
	BYTE	PEND
	BYTE	W15
	BYTE		N07     Dn3   v100
	BYTE	W08
	BYTE		N07
	BYTE	W08
	BYTE		N07
	BYTE	W08
	BYTE		N15
	BYTE	W16
	BYTE		N15
	BYTE	W16
	BYTE		N15
	BYTE	W16
	BYTE		N07
	BYTE	W08
	BYTE		N15
	BYTE	W01
	BYTE	PEND
	BYTE	PATT
	 POIN2	seq_064_1 + 0x25C
	BYTE	PATT
	 POIN2	seq_064_1 + 0x274
	BYTE	PATT
	 POIN2	seq_064_1 + 0x25C
	BYTE	PATT
	 POIN2	seq_064_1 + 0x274
	BYTE	PATT
	 POIN2	seq_064_1 + 0x25C
	BYTE	W15
	BYTE		N07     Dn3   v100
	BYTE	W08
	BYTE		N07
	BYTE	W08
	BYTE		N07
	BYTE	W08
	BYTE		N15
	BYTE	W16
	BYTE		N15
	BYTE	W16
	BYTE		N15
	BYTE	W16
	BYTE		N07
	BYTE	W09
	BYTE	W96
	BYTE	W96
	BYTE	W96
	BYTE	W96
	BYTE	W96
	BYTE	W96
	BYTE	W96
	BYTE	W07
	BYTE		BENDR   12
	BYTE	W02
	BYTE		VOL     72*seq_064_mvl/mxv
	BYTE		PAN     c_v+0
	BYTE	W03
	BYTE		BEND    c_v+0
	BYTE	W03
	BYTE		VOICE   4
	BYTE	W80
	BYTE	W01
	BYTE	GoTo
	 POIN2	seq_064_1 + 0x154
	BYTE	FINE

//*********************** Track 03 ***********************//

seq_064_2:
	BYTE	KEYSH   seq_064_key+0
	BYTE		BENDR   12
	BYTE	W01
	BYTE		VOL     40*seq_064_mvl/mxv
	BYTE		PAN     c_v+0
	BYTE	W01
	BYTE		VOICE   113
	BYTE		BEND    c_v+0
	BYTE	W04
	BYTE	W96
	BYTE	W96
	BYTE	W96
	BYTE	W96
	BYTE	W96
	BYTE	W96
	BYTE	W96
	BYTE	W96
	BYTE		N14     Fn2   v060
	BYTE	W16
	BYTE		N06     Fn2   v068
	BYTE	W08
	BYTE		N14     Fn2   v072
	BYTE	W16
	BYTE		N06     Fn2   v076
	BYTE	W08
	BYTE		N14     Fn2   v084
	BYTE	W16
	BYTE		N06     Fn2   v088
	BYTE	W08
	BYTE		N14     Fn2   v092
	BYTE	W16
	BYTE		N06     Fn2   v096
	BYTE	W08
	BYTE		N14     Fn2   v104
	BYTE	W16
	BYTE		N06     Fn2   v108
	BYTE	W08
	BYTE		N14     Fn2   v112
	BYTE	W16
	BYTE		N06     Fn2   v116
	BYTE	W08
	BYTE		N14     Fn2   v124
	BYTE	W16
	BYTE		N06     Fn2   v127
	BYTE	W08
	BYTE		N14
	BYTE	W16
	BYTE		N06
	BYTE	W08
	BYTE		N14     Fn2   v127
	BYTE	W16
	BYTE		N06
	BYTE	W08
	BYTE		N14
	BYTE	W16
	BYTE		N06
	BYTE	W08
	BYTE		N14
	BYTE	W16
	BYTE		N06
	BYTE	W08
	BYTE		N14
	BYTE	W16
	BYTE		N06
	BYTE	W08
	BYTE	PEND
	BYTE	PATT
	 POIN2	seq_064_2 + 0x53
	BYTE	PATT
	 POIN2	seq_064_2 + 0x53
	BYTE	PATT
	 POIN2	seq_064_2 + 0x53
	BYTE	PATT
	 POIN2	seq_064_2 + 0x53
	BYTE	PATT
	 POIN2	seq_064_2 + 0x53
	BYTE	PATT
	 POIN2	seq_064_2 + 0x53
	BYTE	PATT
	 POIN2	seq_064_2 + 0x53
	BYTE	PATT
	 POIN2	seq_064_2 + 0x53
	BYTE	PATT
	 POIN2	seq_064_2 + 0x53
	BYTE	PATT
	 POIN2	seq_064_2 + 0x53
	BYTE	PATT
	 POIN2	seq_064_2 + 0x53
	BYTE	PATT
	 POIN2	seq_064_2 + 0x53
	BYTE	PATT
	 POIN2	seq_064_2 + 0x53
	BYTE	PATT
	 POIN2	seq_064_2 + 0x53
	BYTE	PATT
	 POIN2	seq_064_2 + 0x53
	BYTE	PATT
	 POIN2	seq_064_2 + 0x53
	BYTE	PATT
	 POIN2	seq_064_2 + 0x53
	BYTE	PATT
	 POIN2	seq_064_2 + 0x53
	BYTE	PATT
	 POIN2	seq_064_2 + 0x53
	BYTE	W96
	BYTE	W96
	BYTE	W96
	BYTE	W96
	BYTE	W96
	BYTE	W96
	BYTE	W96
	BYTE	W96
	BYTE	W96
	BYTE	W96
	BYTE	W96
	BYTE	W96
	BYTE	W96
	BYTE	W07
	BYTE		VOICE   36
	BYTE		VOL     75*seq_064_mvl/mxv
	BYTE		PAN     c_v-24
	BYTE		BENDR   12
	BYTE		BEND    c_v+0
	BYTE	W76
	BYTE	W01
	BYTE		N06     En1   v100
	BYTE	W06
	BYTE		N06
	BYTE	W06
	BYTE		TIE     En1   v100
	BYTE	W96
	BYTE	W96
	BYTE	W96
	BYTE	W84
	BYTE		EOT
	BYTE		N06
	BYTE	W06
	BYTE		N06
	BYTE	W06
	BYTE		TIE
	BYTE	W96
	BYTE	W96
	BYTE	W96
	BYTE	W96
	BYTE		EOT
	BYTE	W96
	BYTE	W84
	BYTE		N06     Fs1 
	BYTE	W06
	BYTE		N06
	BYTE	W06
	BYTE		TIE
	BYTE	W96
	BYTE	W96
	BYTE	W96
	BYTE	W84
	BYTE		EOT
	BYTE		N06
	BYTE	W06
	BYTE		N06
	BYTE	W06
	BYTE		TIE
	BYTE	W96
	BYTE	W96
	BYTE	W96
	BYTE	W96
	BYTE		EOT
	BYTE	W96
	BYTE	W96
	BYTE	W96
	BYTE	W96
	BYTE	W96
	BYTE	W96
	BYTE		N06     Fn1   v100
	BYTE	W12
	BYTE		N06
	BYTE	W12
	BYTE		N06
	BYTE	W12
	BYTE		N06
	BYTE	W06
	BYTE		N06
	BYTE	W06
	BYTE		N06
	BYTE	W12
	BYTE		N06
	BYTE	W12
	BYTE		N06
	BYTE	W12
	BYTE		N06
	BYTE	W06
	BYTE		N06
	BYTE	W06
	BYTE	PEND
	BYTE	PATT
	 POIN2	seq_064_2 + 0x114
	BYTE		N06     Gn1   v100
	BYTE	W12
	BYTE		N06
	BYTE	W12
	BYTE		N06
	BYTE	W12
	BYTE		N06
	BYTE	W06
	BYTE		N06
	BYTE	W06
	BYTE		N06
	BYTE	W12
	BYTE		N06
	BYTE	W12
	BYTE		N06
	BYTE	W12
	BYTE		N06
	BYTE	W06
	BYTE		N06
	BYTE	W06
	BYTE	PEND
	BYTE	PATT
	 POIN2	seq_064_2 + 0x130
	BYTE	PATT
	 POIN2	seq_064_2 + 0x114
	BYTE	PATT
	 POIN2	seq_064_2 + 0x114
	BYTE		N48     Dn1   v100
	BYTE	W48
	BYTE		        En1 
	BYTE	W48
	BYTE		N96     Fs1 
	BYTE	W96
	BYTE	W96
	BYTE	W96
	BYTE	W96
	BYTE	W96
	BYTE	W96
	BYTE	W07
	BYTE		BENDR   29
	BYTE	W02
	BYTE		VOL     40*seq_064_mvl/mxv
	BYTE		PAN     c_v+0
	BYTE	W03
	BYTE		BEND    c_v+0
	BYTE	W03
	BYTE		VOICE   113
	BYTE	W80
	BYTE	W01
	BYTE	W96
	BYTE	W96
	BYTE		N15     Fn2   v127
	BYTE	W16
	BYTE		N07
	BYTE	W08
	BYTE		N15
	BYTE	W16
	BYTE		N07
	BYTE	W08
	BYTE		N15
	BYTE	W16
	BYTE		N07
	BYTE	W08
	BYTE		N15
	BYTE	W16
	BYTE		N07
	BYTE	W08
	BYTE	PEND
	BYTE	PATT
	 POIN2	seq_064_2 + 0x176
	BYTE	PATT
	 POIN2	seq_064_2 + 0x176
	BYTE	PATT
	 POIN2	seq_064_2 + 0x176
	BYTE	PATT
	 POIN2	seq_064_2 + 0x176
	BYTE	PATT
	 POIN2	seq_064_2 + 0x176
	BYTE	PATT
	 POIN2	seq_064_2 + 0x176
	BYTE	PATT
	 POIN2	seq_064_2 + 0x176
	BYTE	PATT
	 POIN2	seq_064_2 + 0x176
	BYTE	PATT
	 POIN2	seq_064_2 + 0x176
	BYTE	PATT
	 POIN2	seq_064_2 + 0x176
	BYTE	PATT
	 POIN2	seq_064_2 + 0x176
	BYTE	PATT
	 POIN2	seq_064_2 + 0x176
	BYTE	PATT
	 POIN2	seq_064_2 + 0x176
	BYTE	PATT
	 POIN2	seq_064_2 + 0x176
	BYTE		N15     Fn2   v127
	BYTE	W16
	BYTE		N07
	BYTE	W08
	BYTE		N15
	BYTE	W16
	BYTE		N07
	BYTE	W08
	BYTE		N15
	BYTE	W16
	BYTE		N07
	BYTE	W08
	BYTE		N15
	BYTE	W16
	BYTE		N07
	BYTE	W07
	BYTE		VOICE   36
	BYTE		VOL     75*seq_064_mvl/mxv
	BYTE		PAN     c_v-24
	BYTE		BENDR   12
	BYTE		BEND    c_v+0
	BYTE	W01
	BYTE		N48     Gn1   v100
	BYTE	W48
	BYTE		        Fs1 
	BYTE	W48
	BYTE		TIE     Fn1 
	BYTE	W96
	BYTE	W96
	BYTE	W96
	BYTE		EOT
	BYTE		N48
	BYTE	W48
	BYTE		        En1 
	BYTE	W48
	BYTE		TIE     Ds1 
	BYTE	W96
	BYTE	W96
	BYTE	W84
	BYTE		EOT
	BYTE		N06     En1 
	BYTE		N06     Bn1 
	BYTE	W06
	BYTE		N05     En1 
	BYTE		N05     Bn1 
	BYTE	W06
	BYTE	GoTo
	 POIN2	seq_064_2 + 0xE5
	BYTE	FINE

//*********************** Track 04 ***********************//

seq_064_3:
	BYTE	KEYSH   seq_064_key+0
	BYTE		BENDR   12
	BYTE	W01
	BYTE		VOL     80*seq_064_mvl/mxv
	BYTE		PAN     c_v+0
	BYTE	W01
	BYTE		VOICE   122
	BYTE		BEND    c_v+0
	BYTE	W04
	BYTE		N96     Cs1   v127
	BYTE	W96
	BYTE	W96
	BYTE	W96
	BYTE	W96
	BYTE		N96
	BYTE	W96
	BYTE	W96
	BYTE	W96
	BYTE	W96
	BYTE	W96
	BYTE	W96
	BYTE		N02     An1   v028
	BYTE	W02
	BYTE		N14
	BYTE	W14
	BYTE		N08
	BYTE	W08
	BYTE		N16
	BYTE	W16
	BYTE		N08
	BYTE	W08
	BYTE		N16
	BYTE	W16
	BYTE		N08
	BYTE	W08
	BYTE		N16
	BYTE	W16
	BYTE		N08
	BYTE	W08
	BYTE	PEND
	BYTE	PATT
	 POIN2	seq_064_3 + 0x1D
	BYTE	PATT
	 POIN2	seq_064_3 + 0x1D
	BYTE	PATT
	 POIN2	seq_064_3 + 0x1D
	BYTE		N02     An1   v028
	BYTE	W02
	BYTE		N14
	BYTE	W14
	BYTE		N08
	BYTE	W08
	BYTE		N16
	BYTE	W16
	BYTE		N08
	BYTE	W08
	BYTE		N48     Cs1   v127
	BYTE	W48
	BYTE	PEND
	BYTE		N96
	BYTE	W96
	BYTE		N02     An1   v028
	BYTE	W02
	BYTE		N06
	BYTE	W06
	BYTE		N08
	BYTE	W08
	BYTE		N08
	BYTE	W08
	BYTE		N16
	BYTE	W16
	BYTE		N08
	BYTE	W08
	BYTE		N48     Cs1   v127
	BYTE	W48
	BYTE	PEND
	BYTE		N96
	BYTE	W96
	BYTE	PATT
	 POIN2	seq_064_3 + 0x41
	BYTE		N96     Cs1   v127
	BYTE	W96
	BYTE	PATT
	 POIN2	seq_064_3 + 0x54
	BYTE		N96     Cs1   v127
	BYTE	W96
	BYTE	PATT
	 POIN2	seq_064_3 + 0x41
	BYTE		N96     Cs1   v127
	BYTE	W96
	BYTE	PATT
	 POIN2	seq_064_3 + 0x54
	BYTE		N96     Cs1   v127
	BYTE	W96
	BYTE	PATT
	 POIN2	seq_064_3 + 0x41
	BYTE		N96     Cs1   v127
	BYTE	W96
	BYTE	PATT
	 POIN2	seq_064_3 + 0x54
	BYTE		N96     Cs1   v127
	BYTE	W96
	BYTE		N24     Gs1   v127
	BYTE	W24
	BYTE		N24
	BYTE	W24
	BYTE		        Cn1 
	BYTE		N48     Cs1 
	BYTE	W24
	BYTE		N08     Gs1 
	BYTE	W08
	BYTE		N08
	BYTE	W08
	BYTE		N08
	BYTE	W08
	BYTE	PEND
	BYTE		N24
	BYTE	W24
	BYTE		        Cn1 
	BYTE		N48     Cs1 
	BYTE	W24
	BYTE		N08     Gs1 
	BYTE	W08
	BYTE		N08
	BYTE	W08
	BYTE		N08
	BYTE	W08
	BYTE		N24
	BYTE	W24
	BYTE	PATT
	 POIN2	seq_064_3 + 0x9F
	BYTE		N24     Gs1   v127
	BYTE	W24
	BYTE		        Cn1 
	BYTE		N48     Cs1 
	BYTE	W24
	BYTE		N08     Gs1 
	BYTE	W08
	BYTE		N08
	BYTE	W08
	BYTE		N08
	BYTE	W08
	BYTE		N08
	BYTE	W08
	BYTE		N08
	BYTE	W08
	BYTE		N08
	BYTE	W08
	BYTE		N24     Cn1 
	BYTE		N96     Cs1 
	BYTE	W24
	BYTE		N24     Cn1 
	BYTE	W24
	BYTE		N24
	BYTE	W24
	BYTE		N24
	BYTE	W24
	BYTE		N24
	BYTE	W24
	BYTE		N24
	BYTE	W24
	BYTE		N24
	BYTE	W24
	BYTE		N24
	BYTE	W24
	BYTE		N24     Cn1   v127
	BYTE	W12
	BYTE		N23     Gs1 
	BYTE	W12
	BYTE		N24     Cn1 
	BYTE	W24
	BYTE		N24
	BYTE		N23     Gs1 
	BYTE	W24
	BYTE		N24     Cn1 
	BYTE	W24
	BYTE	PEND
	BYTE		N24     Cn1   v127
	BYTE		N05     Gs1 
	BYTE	W06
	BYTE		N05
	BYTE	W06
	BYTE		N11
	BYTE	W12
	BYTE		N24     Cn1 
	BYTE	W12
	BYTE		N05     Gs1 
	BYTE	W06
	BYTE		N05
	BYTE	W06
	BYTE		N24     Cn1 
	BYTE		N11     Gs1 
	BYTE	W24
	BYTE		N24     Cn1 
	BYTE		N05     Gs1 
	BYTE	W06
	BYTE		N05
	BYTE	W06
	BYTE		N11
	BYTE	W12
	BYTE	PEND
	BYTE		N24     Cn1   v127
	BYTE	W12
	BYTE		N23     Gs1 
	BYTE	W12
	BYTE		N24     Cn1 
	BYTE	W24
	BYTE		N24
	BYTE		N23     Gs1 
	BYTE	W24
	BYTE		N24     Cn1 
	BYTE	W12
	BYTE		N05     Gs1 
	BYTE	W06
	BYTE		N05
	BYTE	W06
	BYTE	PEND
	BYTE		N24     Cn1   v127
	BYTE		N05     Gs1 
	BYTE	W06
	BYTE		N05
	BYTE	W06
	BYTE		N05
	BYTE	W12
	BYTE		N24     Cn1 
	BYTE	W12
	BYTE		N05     Gs1 
	BYTE	W06
	BYTE		N05
	BYTE	W06
	BYTE		N24     Cn1 
	BYTE		N05     Gs1 
	BYTE	W06
	BYTE		N05
	BYTE	W06
	BYTE		N05
	BYTE	W12
	BYTE		N24     Cn1 
	BYTE		N05     Gs1 
	BYTE	W06
	BYTE		N05
	BYTE	W06
	BYTE		N11
	BYTE	W12
	BYTE	PEND
	BYTE	PATT
	 POIN2	seq_064_3 + 0xEE
	BYTE	PATT
	 POIN2	seq_064_3 + 0x100
	BYTE	PATT
	 POIN2	seq_064_3 + 0x121
	BYTE	PATT
	 POIN2	seq_064_3 + 0x138
	BYTE		N24     Cn1   v127
	BYTE		N96     Cs1 
	BYTE		N12     Fn1   v028
	BYTE	W12
	BYTE		N06     An1 
	BYTE	W06
	BYTE		N06
	BYTE	W06
	BYTE		N24     Cn1   v127
	BYTE		N12     Fn1   v028
	BYTE	W12
	BYTE		N06     An1 
	BYTE	W06
	BYTE		N06
	BYTE	W06
	BYTE		N24     Cn1   v127
	BYTE		N12     Fn1   v028
	BYTE	W12
	BYTE		N06     An1 
	BYTE	W06
	BYTE		N06
	BYTE	W06
	BYTE		N24     Cn1   v127
	BYTE		N12     Fn1   v028
	BYTE	W12
	BYTE		N06     An1 
	BYTE	W06
	BYTE		N06
	BYTE	W06
	BYTE	PEND
	BYTE		N24     Cn1   v127
	BYTE		N12     Fn1   v028
	BYTE	W12
	BYTE		N06     An1 
	BYTE	W06
	BYTE		N06
	BYTE	W06
	BYTE		N24     Cn1   v127
	BYTE		N12     Fn1   v028
	BYTE	W12
	BYTE		N06     An1 
	BYTE	W06
	BYTE		N06
	BYTE	W06
	BYTE		N24     Cn1   v127
	BYTE		N12     Fn1   v028
	BYTE	W12
	BYTE		N06     An1 
	BYTE	W06
	BYTE		N06
	BYTE	W06
	BYTE		N24     Cn1   v127
	BYTE		N12     Fn1   v028
	BYTE	W12
	BYTE		N06     An1 
	BYTE	W06
	BYTE		N06
	BYTE	W06
	BYTE	PEND
	BYTE	PATT
	 POIN2	seq_064_3 + 0x1A4
	BYTE	PATT
	 POIN2	seq_064_3 + 0x1A4
	BYTE	PATT
	 POIN2	seq_064_3 + 0x1A4
	BYTE	PATT
	 POIN2	seq_064_3 + 0x1A4
	BYTE	PATT
	 POIN2	seq_064_3 + 0x1A4
	BYTE	PATT
	 POIN2	seq_064_3 + 0x1A4
	BYTE		N24     Cn1   v127
	BYTE		N12     Fn1   v028
	BYTE	W12
	BYTE		N24     Gs1   v127
	BYTE		N06     An1   v028
	BYTE	W06
	BYTE		N06
	BYTE	W06
	BYTE		N24     Cn1   v127
	BYTE		N12     Fn1   v028
	BYTE	W12
	BYTE		N06     An1 
	BYTE	W06
	BYTE		N06
	BYTE	W06
	BYTE		N24     Cn1   v127
	BYTE		N12     Fn1   v028
	BYTE		N06     Gs1   v127
	BYTE	W06
	BYTE		N06
	BYTE	W06
	BYTE		N24
	BYTE		N06     An1   v028
	BYTE	W06
	BYTE		N06
	BYTE	W06
	BYTE		N24     Cn1   v127
	BYTE		N12     Fn1   v028
	BYTE	W12
	BYTE		N06     Gs1   v127
	BYTE		N06     An1   v028
	BYTE	W06
	BYTE		        Gs1   v127
	BYTE		N06     An1   v028
	BYTE	W06
	BYTE		N24     Cn1   v127
	BYTE		N12     Fn1   v028
	BYTE		N24     Gs1   v127
	BYTE	W12
	BYTE		N06     An1   v028
	BYTE	W06
	BYTE		N06
	BYTE	W06
	BYTE		N24     Cn1   v127
	BYTE		N12     Fn1   v028
	BYTE		N06     Gs1   v127
	BYTE	W06
	BYTE		N06
	BYTE	W06
	BYTE		N24
	BYTE		N06     An1   v028
	BYTE	W06
	BYTE		N06
	BYTE	W06
	BYTE		N24     Cn1   v127
	BYTE		N12     Fn1   v028
	BYTE	W12
	BYTE		N06     Gs1   v127
	BYTE		N06     An1   v028
	BYTE	W06
	BYTE		        Gs1   v127
	BYTE		N06     An1   v028
	BYTE	W06
	BYTE		N24     Cn1   v127
	BYTE		N12     Fn1   v028
	BYTE		N24     Gs1   v127
	BYTE	W12
	BYTE		N06     An1   v028
	BYTE	W06
	BYTE		N06
	BYTE	W06
	BYTE	PATT
	 POIN2	seq_064_3 + 0x171
	BYTE	PATT
	 POIN2	seq_064_3 + 0x1A4
	BYTE	PATT
	 POIN2	seq_064_3 + 0x1A4
	BYTE	PATT
	 POIN2	seq_064_3 + 0x1A4
	BYTE	PATT
	 POIN2	seq_064_3 + 0x1A4
	BYTE	PATT
	 POIN2	seq_064_3 + 0x1A4
	BYTE	PATT
	 POIN2	seq_064_3 + 0x1A4
	BYTE	PATT
	 POIN2	seq_064_3 + 0x1A4
	BYTE		N24     Cn1   v127
	BYTE		N12     An1   v028
	BYTE	W12
	BYTE		N06
	BYTE	W06
	BYTE		N06
	BYTE	W06
	BYTE		N12     Fn1 
	BYTE	W12
	BYTE		        Cn1   v127
	BYTE		N06     An1   v028
	BYTE	W06
	BYTE		N06
	BYTE	W06
	BYTE		TIE     Cs1   v127
	BYTE		N24     Gs1 
	BYTE		N12     An1   v028
	BYTE	W12
	BYTE		N06
	BYTE	W06
	BYTE		N06
	BYTE	W06
	BYTE		N12     Fn1 
	BYTE	W12
	BYTE		        Cn1   v127
	BYTE		N06     An1   v028
	BYTE	W06
	BYTE		N06
	BYTE	W06
	BYTE	PEND
	BYTE		N12     Cn1   v127
	BYTE		N12     An1   v028
	BYTE	W12
	BYTE		N24     Gs1   v127
	BYTE		N06     An1   v028
	BYTE	W06
	BYTE		N06
	BYTE	W06
	BYTE		N12     Fn1 
	BYTE	W12
	BYTE		        Cn1   v127
	BYTE		N06     An1   v028
	BYTE	W06
	BYTE		N06
	BYTE	W06
	BYTE		N24     Gs1   v127
	BYTE		N12     An1   v028
	BYTE	W12
	BYTE		N06
	BYTE	W06
	BYTE		N06
	BYTE	W06
	BYTE		N12     Fn1 
	BYTE		N12     Gs1   v127
	BYTE	W12
	BYTE		N12
	BYTE		N06     An1   v028
	BYTE	W06
	BYTE		N06
	BYTE	W06
	BYTE	PEND
	BYTE		EOT     Cs1 
	BYTE		N24     Cn1   v127
	BYTE		N48     Cs1 
	BYTE		N12     An1   v028
	BYTE	W12
	BYTE		N06
	BYTE	W06
	BYTE		N06
	BYTE	W06
	BYTE		N12     Fn1 
	BYTE		N24     Gs1   v127
	BYTE	W12
	BYTE		N06     An1   v028
	BYTE	W06
	BYTE		N06
	BYTE	W06
	BYTE		N12     Cn1   v127
	BYTE		N12     An1   v028
	BYTE	W12
	BYTE		        Cn1   v127
	BYTE		N06     An1   v028
	BYTE	W06
	BYTE		N06
	BYTE	W06
	BYTE		N12     Fn1 
	BYTE		N24     Gs1   v127
	BYTE	W12
	BYTE		N06     An1   v028
	BYTE	W06
	BYTE		N06
	BYTE	W06
	BYTE		N24     Cn1   v127
	BYTE		N12     An1   v028
	BYTE	W12
	BYTE		N06
	BYTE	W06
	BYTE		N06
	BYTE	W06
	BYTE		N12     Fn1 
	BYTE		N12     Gs1   v127
	BYTE	W12
	BYTE		N24     Cn1 
	BYTE		N06     An1   v028
	BYTE	W06
	BYTE		N06
	BYTE	W06
	BYTE		N12
	BYTE	W12
	BYTE		N11     Cn1   v127
	BYTE		N06     An1   v028
	BYTE	W06
	BYTE		N06
	BYTE	W06
	BYTE		N12     Fn1 
	BYTE		N24     Gs1   v127
	BYTE	W12
	BYTE		N06     An1   v028
	BYTE	W06
	BYTE		N06
	BYTE	W06
	BYTE	PATT
	 POIN2	seq_064_3 + 0x2A5
	BYTE	PATT
	 POIN2	seq_064_3 + 0x2D4
	BYTE		EOT     Cs1 
	BYTE		N24     Cn1   v127
	BYTE		N72     Cs1 
	BYTE		N12     Fn1   v028
	BYTE	W12
	BYTE		N06     An1 
	BYTE	W06
	BYTE		N06
	BYTE	W06
	BYTE		N12     Fn1 
	BYTE		N12     Gs1   v127
	BYTE	W12
	BYTE		N24     Cn1 
	BYTE		N06     An1   v028
	BYTE	W06
	BYTE		N06
	BYTE	W06
	BYTE		N12     Fn1 
	BYTE	W12
	BYTE		        Cn1   v127
	BYTE		N06     An1   v028
	BYTE	W06
	BYTE		N06
	BYTE	W06
	BYTE		N12     Fn1 
	BYTE		N12     Gs1   v127
	BYTE	W12
	BYTE		        Cn1 
	BYTE		N06     An1   v028
	BYTE	W06
	BYTE		N06
	BYTE	W06
	BYTE		N24     Cn1   v127
	BYTE		N12     Fn1   v028
	BYTE	W12
	BYTE		N06     An1 
	BYTE	W06
	BYTE		N06
	BYTE	W06
	BYTE		N12     Fn1 
	BYTE		N12     Gs1   v127
	BYTE	W12
	BYTE		N24     Cn1 
	BYTE		N06     An1   v028
	BYTE	W06
	BYTE		N06
	BYTE	W06
	BYTE		N12     Fn1 
	BYTE	W12
	BYTE		        Cn1   v127
	BYTE		N06     An1   v028
	BYTE	W06
	BYTE		N06
	BYTE	W06
	BYTE		N12     Fn1 
	BYTE		N12     Gs1   v127
	BYTE	W12
	BYTE		        Cn1 
	BYTE		N06     An1   v028
	BYTE	W06
	BYTE		N06
	BYTE	W06
	BYTE	PEND
	BYTE	PATT
	 POIN2	seq_064_3 + 0x3AE
	BYTE	PATT
	 POIN2	seq_064_3 + 0x3AE
	BYTE	PATT
	 POIN2	seq_064_3 + 0x3AE
	BYTE		N24     Cn1   v127
	BYTE		N12     Fn1   v028
	BYTE	W12
	BYTE		N06     An1 
	BYTE	W06
	BYTE		N06
	BYTE	W06
	BYTE		N12     Fn1 
	BYTE		N12     Gs1   v127
	BYTE	W12
	BYTE		        Cn1 
	BYTE		N06     An1   v028
	BYTE	W06
	BYTE		N06
	BYTE	W06
	BYTE		N12     Fn1 
	BYTE		N12     Gs1   v127
	BYTE	W12
	BYTE		        Cn1 
	BYTE		N06     An1   v028
	BYTE	W06
	BYTE		N06
	BYTE	W06
	BYTE		N12     Fn1 
	BYTE		N12     Gs1   v127
	BYTE	W12
	BYTE		        Cn1 
	BYTE		N06     An1   v028
	BYTE	W06
	BYTE		N06
	BYTE	W06
	BYTE		N24     Cn1   v127
	BYTE		N12     Fn1   v028
	BYTE	W12
	BYTE		N06     An1 
	BYTE	W06
	BYTE		N06
	BYTE	W06
	BYTE		N48     Cs1   v127
	BYTE		N12     Fn1   v028
	BYTE		N12     Gs1   v127
	BYTE	W12
	BYTE		N24     Cn1 
	BYTE		N06     An1   v028
	BYTE	W06
	BYTE		N06
	BYTE	W06
	BYTE		N12     Fn1 
	BYTE	W12
	BYTE		        Cn1   v127
	BYTE		N06     An1   v028
	BYTE	W06
	BYTE		N06
	BYTE	W06
	BYTE		N48     Cs1   v127
	BYTE		N12     Fn1   v028
	BYTE		N12     Gs1   v127
	BYTE	W12
	BYTE		        Cn1 
	BYTE		N06     An1   v028
	BYTE	W06
	BYTE		N06
	BYTE	W06
	BYTE		N24     Cn1   v127
	BYTE		N12     Fn1   v028
	BYTE	W12
	BYTE		N06     An1 
	BYTE	W06
	BYTE		N06
	BYTE	W06
	BYTE		N24     Cs1   v127
	BYTE		N12     Fn1   v028
	BYTE		N12     Gs1   v127
	BYTE	W12
	BYTE		        Cn1 
	BYTE		N06     An1   v028
	BYTE	W06
	BYTE		N06
	BYTE	W06
	BYTE		N48     Cs1   v127
	BYTE		N12     Fn1   v028
	BYTE		N12     Gs1   v127
	BYTE	W12
	BYTE		N06     An1   v028
	BYTE	W06
	BYTE		N06
	BYTE	W06
	BYTE		N12     Fn1 
	BYTE	W12
	BYTE		N06     An1 
	BYTE	W06
	BYTE		N06
	BYTE	W06
	BYTE		N24     Cn1   v127
	BYTE		N96     Cs1   v100
	BYTE		N08     An1   v028
	BYTE	W16
	BYTE		N08
	BYTE	W08
	BYTE		N24     Cn1   v127
	BYTE		N24     Fn1   v028
	BYTE	W24
	BYTE		        Cn1   v127
	BYTE		N08     Fn1   v028
	BYTE	W08
	BYTE		N04     An1 
	BYTE	W04
	BYTE		N04
	BYTE	W04
	BYTE		N08
	BYTE	W08
	BYTE		N24     Cn1   v127
	BYTE		N08     An1   v028
	BYTE	W08
	BYTE		N08
	BYTE	W08
	BYTE		        Fn1 
	BYTE	W08
	BYTE		N24     Cn1   v127
	BYTE		N08     An1   v028
	BYTE	W16
	BYTE		N08
	BYTE	W08
	BYTE		N24     Cn1   v127
	BYTE		N24     Fn1   v028
	BYTE	W24
	BYTE		        Cn1   v127
	BYTE		N08     Fn1   v028
	BYTE	W08
	BYTE		N04     An1 
	BYTE	W04
	BYTE		N04
	BYTE	W04
	BYTE		N08
	BYTE	W08
	BYTE		N24     Cn1   v127
	BYTE		N08     An1   v028
	BYTE	W08
	BYTE		N08
	BYTE	W08
	BYTE		        Fn1 
	BYTE	W08
	BYTE	PEND
	BYTE	PATT
	 POIN2	seq_064_3 + 0x4BD
	BYTE	PATT
	 POIN2	seq_064_3 + 0x4BD
	BYTE	PATT
	 POIN2	seq_064_3 + 0x4BD
	BYTE	PATT
	 POIN2	seq_064_3 + 0x4BD
	BYTE	PATT
	 POIN2	seq_064_3 + 0x4BD
	BYTE	PATT
	 POIN2	seq_064_3 + 0x4BD
	BYTE	W96
	BYTE	W96
	BYTE	W96
	BYTE	W96
	BYTE	W96
	BYTE	W96
	BYTE	W96
	BYTE	W96
	BYTE	W24
	BYTE		N48     Cs1   v072
	BYTE	W48
	BYTE		N48
	BYTE	W24
	BYTE	PEND
	BYTE	PATT
	 POIN2	seq_064_3 + 0x50C
	BYTE	PATT
	 POIN2	seq_064_3 + 0x50C
	BYTE	PATT
	 POIN2	seq_064_3 + 0x50C
	BYTE	PATT
	 POIN2	seq_064_3 + 0x50C
	BYTE	PATT
	 POIN2	seq_064_3 + 0x50C
	BYTE	PATT
	 POIN2	seq_064_3 + 0x50C
	BYTE	W24
	BYTE		N48     Cs1   v072
	BYTE	W48
	BYTE		N24
	BYTE	W24
	BYTE		N24     Cn1   v127
	BYTE		N48     Cs1 
	BYTE		N08     An1   v028
	BYTE	W16
	BYTE		N08
	BYTE	W08
	BYTE		N24     Cn1   v127
	BYTE		N24     Fn1   v028
	BYTE	W24
	BYTE		        Cn1   v127
	BYTE		N48     Cs1 
	BYTE		N08     Fn1   v028
	BYTE	W08
	BYTE		N04     An1 
	BYTE	W04
	BYTE		N04
	BYTE	W04
	BYTE		N08
	BYTE	W08
	BYTE		N24     Cn1   v127
	BYTE		N08     An1   v028
	BYTE	W08
	BYTE		N08
	BYTE	W08
	BYTE		        Fn1 
	BYTE	W08
	BYTE	PEND
	BYTE		N24     Cn1   v127
	BYTE		N96     Cs1 
	BYTE		N08     An1   v028
	BYTE	W16
	BYTE		N08
	BYTE	W08
	BYTE		N24     Cn1   v127
	BYTE		N24     Fn1   v028
	BYTE	W24
	BYTE		        Cn1   v127
	BYTE		N08     Fn1   v028
	BYTE	W08
	BYTE		N04     An1 
	BYTE	W04
	BYTE		N04
	BYTE	W04
	BYTE		N08
	BYTE	W08
	BYTE		N24     Cn1   v127
	BYTE		N08     An1   v028
	BYTE	W08
	BYTE		N08
	BYTE	W08
	BYTE		        Fn1 
	BYTE	W08
	BYTE	PEND
	BYTE	PATT
	 POIN2	seq_064_3 + 0x4BD
	BYTE	PATT
	 POIN2	seq_064_3 + 0x4BD
	BYTE	PATT
	 POIN2	seq_064_3 + 0x539
	BYTE	PATT
	 POIN2	seq_064_3 + 0x566
	BYTE	PATT
	 POIN2	seq_064_3 + 0x4BD
	BYTE		N24     Cn1   v127
	BYTE		N08     An1   v028
	BYTE	W16
	BYTE		N08
	BYTE	W08
	BYTE		N24     Cn1   v127
	BYTE		N24     Fn1   v028
	BYTE	W24
	BYTE		        Cn1   v127
	BYTE		N08     Fn1   v028
	BYTE	W08
	BYTE		N04     An1 
	BYTE	W04
	BYTE		N04
	BYTE	W04
	BYTE		N03     Gs1   v080
	BYTE		N08     An1   v028
	BYTE	W04
	BYTE		N03     Gs1   v080
	BYTE	W04
	BYTE		N23     Cn1   v127
	BYTE		N07     Gs1 
	BYTE		N08     An1   v028
	BYTE	W08
	BYTE		N07     Gs1   v127
	BYTE		N08     An1   v028
	BYTE	W08
	BYTE		N07     Fn1 
	BYTE		N06     Gs1   v127
	BYTE	W08
	BYTE	GoTo
	 POIN2	seq_064_3 + 0x171
	BYTE	FINE

//*********************** Track 05 ***********************//

seq_064_4:
	BYTE	KEYSH   seq_064_key+0
	BYTE		BENDR   12
	BYTE	W01
	BYTE		VOL     56*seq_064_mvl/mxv
	BYTE		PAN     c_v+0
	BYTE	W01
	BYTE		VOICE   38
	BYTE		BEND    c_v+0
	BYTE	W04
	BYTE		TIE     An0   v120
	BYTE	W96
	BYTE	W96
	BYTE	W96
	BYTE	W48
	BYTE		EOT
	BYTE		N24     En1 
	BYTE	W24
	BYTE		N24
	BYTE	W24
	BYTE		TIE     An0 
	BYTE	W96
	BYTE	W96
	BYTE	W96
	BYTE		BEND    c_v+0
	BYTE	W54
	BYTE		        c_v-1
	BYTE	W12
	BYTE		        c_v-2
	BYTE	W06
	BYTE		        c_v-3
	BYTE	W06
	BYTE		        c_v-4
	BYTE	W06
	BYTE		        c_v-5
	BYTE	W06
	BYTE		        c_v-7
	BYTE	W06
	BYTE		        c_v-8
	BYTE	W06
	BYTE		        c_v-11
	BYTE	W90
	BYTE	W90
	BYTE		EOT
	BYTE		BEND    c_v+0
	BYTE	W06
	BYTE		N08     Gn0   v120
	BYTE	W16
	BYTE		N08
	BYTE	W08
	BYTE		N08
	BYTE	W16
	BYTE		N08
	BYTE	W08
	BYTE		N08
	BYTE	W16
	BYTE		N08
	BYTE	W08
	BYTE		N08
	BYTE	W16
	BYTE		N08
	BYTE	W08
	BYTE	PEND
	BYTE	PATT
	 POIN2	seq_064_4 + 0x39
	BYTE	PATT
	 POIN2	seq_064_4 + 0x39
	BYTE	PATT
	 POIN2	seq_064_4 + 0x39
	BYTE		N08     Gn0   v120
	BYTE	W16
	BYTE		N08
	BYTE	W08
	BYTE		N08
	BYTE	W16
	BYTE		N08
	BYTE	W08
	BYTE		N16     Gn1 
	BYTE	W16
	BYTE		N08     Gn0 
	BYTE	W08
	BYTE		N16     Gn1 
	BYTE	W16
	BYTE		N08     As0 
	BYTE	W08
	BYTE	PEND
	BYTE		N08     Gn0   v120
	BYTE	W16
	BYTE		N08
	BYTE	W08
	BYTE		N08
	BYTE	W16
	BYTE		N08
	BYTE	W08
	BYTE		N16     Gn1 
	BYTE	W16
	BYTE		N08     As0 
	BYTE	W08
	BYTE		        Cs1 
	BYTE	W08
	BYTE		        Dn1 
	BYTE	W08
	BYTE		        En1 
	BYTE	W08
	BYTE	PEND
	BYTE	PATT
	 POIN2	seq_064_4 + 0x5B
	BYTE		N08     Gn0   v120
	BYTE	W16
	BYTE		N08
	BYTE	W08
	BYTE		N08
	BYTE	W16
	BYTE		N08
	BYTE	W08
	BYTE		        Gn1 
	BYTE	W08
	BYTE		        Cs1 
	BYTE	W08
	BYTE		        Dn1 
	BYTE	W08
	BYTE		        En1 
	BYTE	W08
	BYTE		        Dn1 
	BYTE	W08
	BYTE		        Cs1 
	BYTE	W08
	BYTE	PEND
	BYTE	PATT
	 POIN2	seq_064_4 + 0x5B
	BYTE	PATT
	 POIN2	seq_064_4 + 0x72
	BYTE	PATT
	 POIN2	seq_064_4 + 0x5B
	BYTE	PATT
	 POIN2	seq_064_4 + 0x8E
	BYTE		N08     Cn1   v120
	BYTE	W16
	BYTE		N08
	BYTE	W08
	BYTE		N08
	BYTE	W16
	BYTE		N08
	BYTE	W08
	BYTE		N16     Cn2 
	BYTE	W16
	BYTE		N08     Cn1 
	BYTE	W08
	BYTE		N16     Cn2 
	BYTE	W16
	BYTE		N08     Ds1 
	BYTE	W08
	BYTE	PEND
	BYTE		N08     Cn1   v120
	BYTE	W16
	BYTE		N08
	BYTE	W08
	BYTE		N08
	BYTE	W16
	BYTE		N08
	BYTE	W08
	BYTE		N16     Cn2 
	BYTE	W16
	BYTE		N08     Ds1 
	BYTE	W08
	BYTE		        Fs1 
	BYTE	W08
	BYTE		        Gn1 
	BYTE	W08
	BYTE		        An1 
	BYTE	W08
	BYTE	PEND
	BYTE	PATT
	 POIN2	seq_064_4 + 0xB9
	BYTE		N08     Cn1   v120
	BYTE	W16
	BYTE		N08
	BYTE	W08
	BYTE		N08
	BYTE	W16
	BYTE		N08
	BYTE	W08
	BYTE		        Cn2 
	BYTE	W08
	BYTE		        Fs1 
	BYTE	W08
	BYTE		        Gn1 
	BYTE	W08
	BYTE		        An1 
	BYTE	W08
	BYTE		        Gn1 
	BYTE	W08
	BYTE		        Fs1 
	BYTE	W08
	BYTE	PEND
	BYTE	PATT
	 POIN2	seq_064_4 + 0xB9
	BYTE	PATT
	 POIN2	seq_064_4 + 0xD0
	BYTE	PATT
	 POIN2	seq_064_4 + 0xB9
	BYTE	PATT
	 POIN2	seq_064_4 + 0xEC
	BYTE		N24     Cn1   v120
	BYTE	W24
	BYTE		N24
	BYTE	W48
	BYTE		N08
	BYTE	W08
	BYTE		N08
	BYTE	W08
	BYTE		N08
	BYTE	W08
	BYTE		N24
	BYTE	W48
	BYTE		N08     As0 
	BYTE	W08
	BYTE		N08
	BYTE	W08
	BYTE		N08
	BYTE	W08
	BYTE		N24
	BYTE	W24
	BYTE		        Bn0 
	BYTE	W24
	BYTE		N24
	BYTE	W48
	BYTE		N08
	BYTE	W08
	BYTE		N08
	BYTE	W08
	BYTE		N08
	BYTE	W08
	BYTE		N24
	BYTE	W48
	BYTE		N08     Fn1 
	BYTE	W08
	BYTE		N08
	BYTE	W08
	BYTE		N08
	BYTE	W08
	BYTE		N08
	BYTE	W08
	BYTE		N08
	BYTE	W08
	BYTE		N07
	BYTE	W08
	BYTE	W96
	BYTE	W96
	BYTE	W96
	BYTE	W96
	BYTE	W96
	BYTE	W96
	BYTE	W96
	BYTE	W96
	BYTE	W96
	BYTE	W96
	BYTE	W96
	BYTE	W96
	BYTE	W96
	BYTE	W96
	BYTE	W96
	BYTE	W96
	BYTE	W96
	BYTE	W96
	BYTE	W96
	BYTE	W96
	BYTE	W96
	BYTE	W96
	BYTE	W96
	BYTE	W96
	BYTE	W96
	BYTE	W96
	BYTE	W96
	BYTE	W96
	BYTE		PAN     c_v+0
	BYTE		N36     An0   v120
	BYTE	W36
	BYTE		N12
	BYTE	W12
	BYTE		N36     An1 
	BYTE	W36
	BYTE		N12     Ds1 
	BYTE	W12
	BYTE		N12     En1   v120
	BYTE	W12
	BYTE		        Gs0 
	BYTE	W12
	BYTE		N36     An0 
	BYTE	W36
	BYTE		N12
	BYTE	W12
	BYTE		        Bn0 
	BYTE	W12
	BYTE		        Ds1 
	BYTE	W12
	BYTE	PEND
	BYTE		        Cs1 
	BYTE	W12
	BYTE		N12
	BYTE	W24
	BYTE		        Gs0 
	BYTE	W12
	BYTE		        Cs1 
	BYTE	W12
	BYTE		N12
	BYTE	W24
	BYTE		        Gs0 
	BYTE	W12
	BYTE		        Cs1 
	BYTE	W12
	BYTE		N12
	BYTE	W24
	BYTE		N24     Gn0 
	BYTE	W24
	BYTE		N12     Gs0 
	BYTE	W12
	BYTE		        Cs1 
	BYTE	W12
	BYTE		        Bn0 
	BYTE	W12
	BYTE		N36     An0 
	BYTE	W36
	BYTE		N12
	BYTE	W12
	BYTE		N36     An1 
	BYTE	W36
	BYTE		N12     Ds1 
	BYTE	W12
	BYTE	PATT
	 POIN2	seq_064_4 + 0x171
	BYTE		N36     Fn0   v120
	BYTE	W36
	BYTE		N24     Fn1 
	BYTE	W24
	BYTE		N12     En1 
	BYTE	W12
	BYTE		        Cn1 
	BYTE	W12
	BYTE		        Gs0 
	BYTE	W12
	BYTE	PEND
	BYTE	PATT
	 POIN2	seq_064_4 + 0x1AB
	BYTE		N36     Gn0   v120
	BYTE	W36
	BYTE		N24     Gn1 
	BYTE	W24
	BYTE		N12     Fs1 
	BYTE	W12
	BYTE		        Dn1 
	BYTE	W12
	BYTE		        As0 
	BYTE	W12
	BYTE	PEND
	BYTE	PATT
	 POIN2	seq_064_4 + 0x1BF
	BYTE	PATT
	 POIN2	seq_064_4 + 0x1AB
	BYTE	PATT
	 POIN2	seq_064_4 + 0x1AB
	BYTE		N24     Bn0   v120
	BYTE	W24
	BYTE		N08     Fs1 
	BYTE	W08
	BYTE		        En1 
	BYTE	W08
	BYTE		        Dn1 
	BYTE	W08
	BYTE		N24     Cs1 
	BYTE	W24
	BYTE		        Gs0 
	BYTE	W24
	BYTE		N96     Fs0 
	BYTE	W96
	BYTE		N08     Bn0   v120
	BYTE	W08
	BYTE		        Cn1 
	BYTE	W08
	BYTE		        Cs1 
	BYTE	W08
	BYTE		        Dn1 
	BYTE	W08
	BYTE		        Cs1 
	BYTE	W08
	BYTE		        Cn1 
	BYTE	W08
	BYTE		        Bn0 
	BYTE	W08
	BYTE		        Cn1 
	BYTE	W08
	BYTE		        Cs1 
	BYTE	W08
	BYTE		        Dn1 
	BYTE	W08
	BYTE		        Cs1 
	BYTE	W08
	BYTE		        Cn1 
	BYTE	W08
	BYTE	PEND
	BYTE	PATT
	 POIN2	seq_064_4 + 0x1F0
	BYTE	PATT
	 POIN2	seq_064_4 + 0x1F0
	BYTE	PATT
	 POIN2	seq_064_4 + 0x1F0
	BYTE	PATT
	 POIN2	seq_064_4 + 0x1F0
	BYTE	PATT
	 POIN2	seq_064_4 + 0x1F0
	BYTE	PATT
	 POIN2	seq_064_4 + 0x1F0
	BYTE	PATT
	 POIN2	seq_064_4 + 0x1F0
	BYTE	PATT
	 POIN2	seq_064_4 + 0x1F0
	BYTE	PATT
	 POIN2	seq_064_4 + 0x1F0
	BYTE	PATT
	 POIN2	seq_064_4 + 0x1F0
	BYTE	PATT
	 POIN2	seq_064_4 + 0x1F0
	BYTE	PATT
	 POIN2	seq_064_4 + 0x1F0
	BYTE	PATT
	 POIN2	seq_064_4 + 0x1F0
	BYTE	PATT
	 POIN2	seq_064_4 + 0x1F0
	BYTE	PATT
	 POIN2	seq_064_4 + 0x1F0
	BYTE	PATT
	 POIN2	seq_064_4 + 0x1F0
	BYTE	PATT
	 POIN2	seq_064_4 + 0x1F0
	BYTE	PATT
	 POIN2	seq_064_4 + 0x1F0
	BYTE	PATT
	 POIN2	seq_064_4 + 0x1F0
	BYTE	PATT
	 POIN2	seq_064_4 + 0x1F0
	BYTE	PATT
	 POIN2	seq_064_4 + 0x1F0
	BYTE	PATT
	 POIN2	seq_064_4 + 0x1F0
	BYTE	PATT
	 POIN2	seq_064_4 + 0x1F0
	BYTE		N48     Gn0   v120
	BYTE	W48
	BYTE		        Fs0 
	BYTE	W48
	BYTE		N72     Fn0 
	BYTE	W72
	BYTE		N24     Dn1 
	BYTE	W24
	BYTE		N72     Gs1 
	BYTE	W72
	BYTE		N08     Bn0 
	BYTE	W08
	BYTE		        Dn1 
	BYTE	W08
	BYTE		        Fn1 
	BYTE	W08
	BYTE		N96     Gs0 
	BYTE	W96
	BYTE		N48     Fn0 
	BYTE	W48
	BYTE		        En0 
	BYTE	W48
	BYTE		N96     Ds0 
	BYTE	W96
	BYTE		N16     Fs0 
	BYTE	W16
	BYTE		N16
	BYTE	W16
	BYTE		        Gs0 
	BYTE	W16
	BYTE		        An0 
	BYTE	W16
	BYTE		N16
	BYTE	W16
	BYTE		        Bn0 
	BYTE	W16
	BYTE		        Cn1 
	BYTE	W16
	BYTE		N16
	BYTE	W16
	BYTE		        Ds1 
	BYTE	W16
	BYTE		N08     Fs1 
	BYTE	W08
	BYTE		        Ds1 
	BYTE	W08
	BYTE		        Cn1 
	BYTE	W08
	BYTE		        An0 
	BYTE	W08
	BYTE		        Fs0 
	BYTE	W08
	BYTE		N07     Ds0 
	BYTE	W08
	BYTE	GoTo
	 POIN2	seq_064_4 + 0x151
	BYTE	FINE

//*********************** Track 06 ***********************//

seq_064_5:
	BYTE	KEYSH   seq_064_key+0
	BYTE		BENDR   12
	BYTE	W01
	BYTE		VOL     53*seq_064_mvl/mxv
	BYTE		PAN     c_v-54
	BYTE	W01
	BYTE		VOICE   52
	BYTE		BEND    c_v+0
	BYTE	W04
	BYTE	W48
	BYTE		N48     An4   v120
	BYTE	W48
	BYTE		N48     Ds4   v120
	BYTE	W48
	BYTE		        Fn4 
	BYTE	W48
	BYTE	PEND
	BYTE		TIE     En4 
	BYTE	W96
	BYTE	W90
	BYTE		VOL     53*seq_064_mvl/mxv
	BYTE	W03
	BYTE		        52*seq_064_mvl/mxv
	BYTE	W03
	BYTE		        51*seq_064_mvl/mxv
	BYTE	W03
	BYTE		        47*seq_064_mvl/mxv
	BYTE	W03
	BYTE		        42*seq_064_mvl/mxv
	BYTE	W03
	BYTE		        36*seq_064_mvl/mxv
	BYTE	W03
	BYTE		        28*seq_064_mvl/mxv
	BYTE	W03
	BYTE		        20*seq_064_mvl/mxv
	BYTE	W03
	BYTE		        10*seq_064_mvl/mxv
	BYTE	W06
	BYTE		EOT
	BYTE	W06
	BYTE		VOL     53*seq_064_mvl/mxv
	BYTE	W18
	BYTE		N48     An4 
	BYTE	W48
	BYTE	PATT
	 POIN2	seq_064_5 + 0x14
	BYTE		TIE     En4   v120
	BYTE	W96
	BYTE		BEND    c_v+0
	BYTE	W54
	BYTE		        c_v-1
	BYTE	W12
	BYTE		        c_v-2
	BYTE	W06
	BYTE		        c_v-3
	BYTE	W06
	BYTE		        c_v-4
	BYTE	W06
	BYTE		        c_v-5
	BYTE	W06
	BYTE		        c_v-7
	BYTE	W06
	BYTE		        c_v-8
	BYTE	W06
	BYTE		        c_v-11
	BYTE	W90
	BYTE	W96
	BYTE		EOT
	BYTE	W18
	BYTE		BEND    c_v+0
	BYTE	W78
	BYTE	W96
	BYTE	W96
	BYTE	W96
	BYTE	W48
	BYTE		N48     Dn4   v100
	BYTE	W48
	BYTE		TIE     Cs4   v100
	BYTE	W92
	BYTE	W01
	BYTE		VOL     52*seq_064_mvl/mxv
	BYTE	W03
	BYTE	PEND
	BYTE	W01
	BYTE		VOL     51*seq_064_mvl/mxv
	BYTE	W04
	BYTE		        47*seq_064_mvl/mxv
	BYTE	W04
	BYTE		        39*seq_064_mvl/mxv
	BYTE	W04
	BYTE		        28*seq_064_mvl/mxv
	BYTE	W04
	BYTE		        15*seq_064_mvl/mxv
	BYTE	W07
	BYTE	PEND
	BYTE		EOT     Cs4 
	BYTE	W12
	BYTE		VOL     53*seq_064_mvl/mxv
	BYTE	W12
	BYTE		N48     Fn4   v100
	BYTE	W48
	BYTE		TIE     En4   v100
	BYTE	W92
	BYTE	W01
	BYTE		VOL     52*seq_064_mvl/mxv
	BYTE	W03
	BYTE	PEND
	BYTE	PATT
	 POIN2	seq_064_5 + 0x6D
	BYTE		EOT     En4 
	BYTE	W12
	BYTE		VOL     53*seq_064_mvl/mxv
	BYTE	W12
	BYTE		N48     Dn4   v100
	BYTE	W48
	BYTE	PATT
	 POIN2	seq_064_5 + 0x64
	BYTE	PATT
	 POIN2	seq_064_5 + 0x6D
	BYTE		EOT     Cs4 
	BYTE	W12
	BYTE		VOL     53*seq_064_mvl/mxv
	BYTE	W12
	BYTE		N48     Fn4   v100
	BYTE	W48
	BYTE	PATT
	 POIN2	seq_064_5 + 0x84
	BYTE	PATT
	 POIN2	seq_064_5 + 0x6D
	BYTE		EOT     En4 
	BYTE	W12
	BYTE		VOL     53*seq_064_mvl/mxv
	BYTE	W12
	BYTE		N48     Gn4   v100
	BYTE	W48
	BYTE		TIE     Fs4   v100
	BYTE	W92
	BYTE	W01
	BYTE		VOL     52*seq_064_mvl/mxv
	BYTE	W03
	BYTE	PEND
	BYTE	PATT
	 POIN2	seq_064_5 + 0x6D
	BYTE		EOT     Fs4 
	BYTE	W12
	BYTE		VOL     53*seq_064_mvl/mxv
	BYTE	W12
	BYTE		N48     As4   v100
	BYTE	W48
	BYTE		TIE     An4 
	BYTE	W92
	BYTE	W01
	BYTE		VOL     52*seq_064_mvl/mxv
	BYTE	W03
	BYTE	PATT
	 POIN2	seq_064_5 + 0x6D
	BYTE		EOT     An4 
	BYTE	W12
	BYTE		VOL     53*seq_064_mvl/mxv
	BYTE	W12
	BYTE		N48     Gn4   v100
	BYTE	W48
	BYTE	PATT
	 POIN2	seq_064_5 + 0xC4
	BYTE	PATT
	 POIN2	seq_064_5 + 0x6D
	BYTE		EOT     Fs4 
	BYTE	W12
	BYTE		VOL     53*seq_064_mvl/mxv
	BYTE	W12
	BYTE		N48     As4   v100
	BYTE	W48
	BYTE		N80     An4 
	BYTE	W84
	BYTE		N03
	BYTE	W03
	BYTE		        As4 
	BYTE	W03
	BYTE		        Cn5 
	BYTE	W03
	BYTE		        Cs5 
	BYTE	W03
	BYTE		N24     Dn5   v100
	BYTE	W24
	BYTE		N24
	BYTE	W24
	BYTE		N12     Dn5   v020
	BYTE	W12
	BYTE		        Dn5   v012
	BYTE	W12
	BYTE		N06     Dn5   v100
	BYTE	W08
	BYTE		N06
	BYTE	W08
	BYTE		N06
	BYTE	W08
	BYTE	PEND
	BYTE		N24
	BYTE	W24
	BYTE		N12     Dn5   v020
	BYTE	W12
	BYTE		        Dn5   v012
	BYTE	W12
	BYTE		N06     Cs5   v100
	BYTE	W08
	BYTE		N06
	BYTE	W08
	BYTE		N06
	BYTE	W08
	BYTE		N24
	BYTE	W24
	BYTE	PATT
	 POIN2	seq_064_5 + 0x111
	BYTE		N24     Dn5   v100
	BYTE	W24
	BYTE		N12     Dn5   v020
	BYTE	W12
	BYTE		        Dn5   v012
	BYTE	W12
	BYTE		N06     Cs5   v100
	BYTE	W08
	BYTE		N06
	BYTE	W08
	BYTE		N06
	BYTE	W08
	BYTE		N06
	BYTE	W08
	BYTE		N06
	BYTE	W08
	BYTE		N06
	BYTE	W08
	BYTE		TIE     Cn5 
	BYTE	W96
	BYTE	W72
	BYTE	W03
	BYTE		VOL     53*seq_064_mvl/mxv
	BYTE	W06
	BYTE		        52*seq_064_mvl/mxv
	BYTE	W03
	BYTE		        50*seq_064_mvl/mxv
	BYTE	W03
	BYTE		        47*seq_064_mvl/mxv
	BYTE	W03
	BYTE		        44*seq_064_mvl/mxv
	BYTE	W03
	BYTE		        40*seq_064_mvl/mxv
	BYTE	W03
	BYTE		        35*seq_064_mvl/mxv
	BYTE	W03
	BYTE		        28*seq_064_mvl/mxv
	BYTE	W03
	BYTE		        22*seq_064_mvl/mxv
	BYTE	W03
	BYTE		        15*seq_064_mvl/mxv
	BYTE	W03
	BYTE		        6*seq_064_mvl/mxv
	BYTE	W12
	BYTE		EOT
	BYTE	W12
	BYTE		VOL     53*seq_064_mvl/mxv
	BYTE	W60
	BYTE	W96
	BYTE	W96
	BYTE	W96
	BYTE	W96
	BYTE	W96
	BYTE	W96
	BYTE	W96
	BYTE		N48     En4   v127
	BYTE	W48
	BYTE		        Fs4 
	BYTE	W48
	BYTE		        Gn4 
	BYTE	W48
	BYTE		        Bn4 
	BYTE	W48
	BYTE		        As4 
	BYTE	W48
	BYTE		        Fs4 
	BYTE	W48
	BYTE		        Dn5 
	BYTE	W48
	BYTE		        Cs5 
	BYTE	W48
	BYTE		        Bn4 
	BYTE	W48
	BYTE		        Gn4 
	BYTE	W48
	BYTE		        En5 
	BYTE	W48
	BYTE		        Dn5 
	BYTE	W48
	BYTE		        Cs5 
	BYTE	W48
	BYTE		        As4 
	BYTE	W48
	BYTE		N96     Bn4 
	BYTE	W96
	BYTE	W96
	BYTE	W96
	BYTE		N48     Fs4 
	BYTE	W48
	BYTE		        Gs4 
	BYTE	W48
	BYTE		        An4 
	BYTE	W48
	BYTE		        Cs5 
	BYTE	W48
	BYTE		        Cn5 
	BYTE	W48
	BYTE		        Gs4 
	BYTE	W48
	BYTE		        En5 
	BYTE	W48
	BYTE		        Ds5 
	BYTE	W48
	BYTE		        Cs5 
	BYTE	W48
	BYTE		        An4 
	BYTE	W48
	BYTE		        Fs5 
	BYTE	W48
	BYTE		        En5 
	BYTE	W48
	BYTE		TIE     Ds5 
	BYTE	W72
	BYTE		VOL     51*seq_064_mvl/mxv
	BYTE	W03
	BYTE		        50*seq_064_mvl/mxv
	BYTE	W03
	BYTE		        49*seq_064_mvl/mxv
	BYTE	W03
	BYTE		        49*seq_064_mvl/mxv
	BYTE	W03
	BYTE		        48*seq_064_mvl/mxv
	BYTE	W03
	BYTE		        47*seq_064_mvl/mxv
	BYTE	W03
	BYTE		        46*seq_064_mvl/mxv
	BYTE	W03
	BYTE		        45*seq_064_mvl/mxv
	BYTE	W03
	BYTE		        44*seq_064_mvl/mxv
	BYTE	W06
	BYTE		        44*seq_064_mvl/mxv
	BYTE	W03
	BYTE		        43*seq_064_mvl/mxv
	BYTE	W03
	BYTE		        42*seq_064_mvl/mxv
	BYTE	W03
	BYTE		        42*seq_064_mvl/mxv
	BYTE	W03
	BYTE		        41*seq_064_mvl/mxv
	BYTE	W03
	BYTE		        40*seq_064_mvl/mxv
	BYTE	W03
	BYTE		        40*seq_064_mvl/mxv
	BYTE	W06
	BYTE		        39*seq_064_mvl/mxv
	BYTE	W03
	BYTE		        38*seq_064_mvl/mxv
	BYTE	W06
	BYTE		        37*seq_064_mvl/mxv
	BYTE	W06
	BYTE		        37*seq_064_mvl/mxv
	BYTE	W03
	BYTE		        36*seq_064_mvl/mxv
	BYTE	W09
	BYTE		        35*seq_064_mvl/mxv
	BYTE	W06
	BYTE		        35*seq_064_mvl/mxv
	BYTE	W09
	BYTE		        34*seq_064_mvl/mxv
	BYTE	W24
	BYTE		EOT
	BYTE	W24
	BYTE		VOL     53*seq_064_mvl/mxv
	BYTE	W72
	BYTE	W96
	BYTE	W96
	BYTE	W96
	BYTE	W96
	BYTE	W12
	BYTE		VOICE   44
	BYTE	W84
	BYTE		N24     En4 
	BYTE	W24
	BYTE		N12     Cn4 
	BYTE	W12
	BYTE		        Gs3 
	BYTE	W12
	BYTE		N68     Fn3 
	BYTE	W44
	BYTE	W01
	BYTE		VOL     52*seq_064_mvl/mxv
	BYTE	W03
	BYTE	W01
	BYTE		VOL     51*seq_064_mvl/mxv
	BYTE	W04
	BYTE		        46*seq_064_mvl/mxv
	BYTE	W04
	BYTE		        39*seq_064_mvl/mxv
	BYTE	W04
	BYTE		        28*seq_064_mvl/mxv
	BYTE	W04
	BYTE		        15*seq_064_mvl/mxv
	BYTE	W07
	BYTE		        53*seq_064_mvl/mxv
	BYTE		N08     Gs3   v127
	BYTE	W08
	BYTE		        Cn4 
	BYTE	W08
	BYTE		        En4 
	BYTE	W08
	BYTE		N24     Gs4 
	BYTE	W24
	BYTE		        Gn4 
	BYTE	W24
	BYTE	PEND
	BYTE		        Fs4 
	BYTE	W24
	BYTE		N12     Dn4 
	BYTE	W12
	BYTE		        As3 
	BYTE	W12
	BYTE		N36     An3 
	BYTE	W36
	BYTE		N12     As3 
	BYTE	W12
	BYTE		        An3 
	BYTE	W12
	BYTE		        As3 
	BYTE	W12
	BYTE		N36     Gn3 
	BYTE	W36
	BYTE		N12     As3 
	BYTE	W12
	BYTE		        Cn4 
	BYTE	W12
	BYTE		        Dn4 
	BYTE	W12
	BYTE		N24     En4 
	BYTE	W24
	BYTE		N12     Cn4 
	BYTE	W12
	BYTE		        Gs3 
	BYTE	W12
	BYTE		N64     Fn3 
	BYTE	W44
	BYTE	W01
	BYTE		VOL     52*seq_064_mvl/mxv
	BYTE	W03
	BYTE	PATT
	 POIN2	seq_064_5 + 0x20C
	BYTE		N24     Fs4   v127
	BYTE	W24
	BYTE		N08     Dn4 
	BYTE	W08
	BYTE		        En4 
	BYTE	W08
	BYTE		        Fs4 
	BYTE	W08
	BYTE		N24     Gs4 
	BYTE	W24
	BYTE		        En4 
	BYTE	W24
	BYTE		N92     Fs4 
	BYTE	W92
	BYTE	W02
	BYTE		VOICE   52
	BYTE	W02
	BYTE		N48     Bn3   v100
	BYTE	W48
	BYTE		        Fn4 
	BYTE	W48
	BYTE	PEND
	BYTE		N48     Fs4   v100
	BYTE	W48
	BYTE		N24     Fn4 
	BYTE	W24
	BYTE		        An4 
	BYTE	W24
	BYTE	PEND
	BYTE		N48     Gs4   v100
	BYTE	W48
	BYTE		N24     Cs4 
	BYTE	W24
	BYTE		        Dn4 
	BYTE	W24
	BYTE	PEND
	BYTE		N48     Fs4 
	BYTE	W48
	BYTE		        Fn4 
	BYTE	W48
	BYTE	PATT
	 POIN2	seq_064_5 + 0x26D
	BYTE	PATT
	 POIN2	seq_064_5 + 0x274
	BYTE	PATT
	 POIN2	seq_064_5 + 0x27E
	BYTE		N96     Fs4   v100
	BYTE	W96
	BYTE		N48     Bn3   v120
	BYTE	W48
	BYTE		        Fn4 
	BYTE	W48
	BYTE	PEND
	BYTE		N48     Fs4   v120
	BYTE	W48
	BYTE		N24     Fn4 
	BYTE	W24
	BYTE		        An4 
	BYTE	W24
	BYTE	PEND
	BYTE		N48     Gs4   v120
	BYTE	W48
	BYTE		N24     Cs4 
	BYTE	W24
	BYTE		        Dn4 
	BYTE	W24
	BYTE	PEND
	BYTE		N48     Fs4 
	BYTE	W48
	BYTE		        Fn4 
	BYTE	W48
	BYTE	PATT
	 POIN2	seq_064_5 + 0x2A0
	BYTE	PATT
	 POIN2	seq_064_5 + 0x2A7
	BYTE	PATT
	 POIN2	seq_064_5 + 0x2B1
	BYTE		N96     Fs4   v120
	BYTE	W96
	BYTE	W96
	BYTE	W96
	BYTE	W96
	BYTE	W96
	BYTE	W96
	BYTE	W96
	BYTE	W96
	BYTE	W96
	BYTE		N48     Gn4 
	BYTE	W48
	BYTE		        Fs4 
	BYTE	W48
	BYTE		TIE     Fn4 
	BYTE	W96
	BYTE	W96
	BYTE	W96
	BYTE		EOT
	BYTE		N48
	BYTE	W48
	BYTE		        En4 
	BYTE	W48
	BYTE		TIE     Ds4 
	BYTE	W96
	BYTE	W96
	BYTE	W96
	BYTE		EOT
	BYTE	GoTo
	 POIN2	seq_064_5 + 0x180
	BYTE	FINE

//*********************** Track 07 ***********************//

seq_064_6:
	BYTE	KEYSH   seq_064_key+0
	BYTE		BENDR   12
	BYTE	W01
	BYTE		VOL     53*seq_064_mvl/mxv
	BYTE		PAN     c_v-29
	BYTE	W01
	BYTE		VOICE   52
	BYTE		BEND    c_v+0
	BYTE	W04
	BYTE	W48
	BYTE		N48     Cn4   v120
	BYTE	W48
	BYTE		N48     Gn3   v120
	BYTE	W48
	BYTE		        Gs3 
	BYTE	W48
	BYTE	PEND
	BYTE		TIE     An3 
	BYTE	W96
	BYTE	W90
	BYTE		VOL     53*seq_064_mvl/mxv
	BYTE	W03
	BYTE		        52*seq_064_mvl/mxv
	BYTE	W03
	BYTE		        51*seq_064_mvl/mxv
	BYTE	W03
	BYTE		        47*seq_064_mvl/mxv
	BYTE	W03
	BYTE		        42*seq_064_mvl/mxv
	BYTE	W03
	BYTE		        36*seq_064_mvl/mxv
	BYTE	W03
	BYTE		        28*seq_064_mvl/mxv
	BYTE	W03
	BYTE		        20*seq_064_mvl/mxv
	BYTE	W03
	BYTE		        10*seq_064_mvl/mxv
	BYTE	W06
	BYTE		EOT
	BYTE	W06
	BYTE		VOL     53*seq_064_mvl/mxv
	BYTE	W18
	BYTE		N48     Cn4 
	BYTE	W48
	BYTE	PATT
	 POIN2	seq_064_6 + 0x14
	BYTE		TIE     An3   v120
	BYTE	W96
	BYTE		BEND    c_v+0
	BYTE	W54
	BYTE		        c_v-1
	BYTE	W12
	BYTE		        c_v-2
	BYTE	W06
	BYTE		        c_v-3
	BYTE	W06
	BYTE		        c_v-4
	BYTE	W06
	BYTE		        c_v-5
	BYTE	W06
	BYTE		        c_v-7
	BYTE	W06
	BYTE		        c_v-8
	BYTE	W06
	BYTE		        c_v-11
	BYTE	W90
	BYTE	W96
	BYTE		EOT
	BYTE	W18
	BYTE		BEND    c_v+0
	BYTE	W78
	BYTE	W96
	BYTE	W96
	BYTE	W96
	BYTE	W48
	BYTE		N48     As3   v100
	BYTE	W48
	BYTE		TIE     An3   v100
	BYTE	W92
	BYTE	W01
	BYTE		VOL     52*seq_064_mvl/mxv
	BYTE	W03
	BYTE	PEND
	BYTE	W01
	BYTE		VOL     51*seq_064_mvl/mxv
	BYTE	W04
	BYTE		        47*seq_064_mvl/mxv
	BYTE	W04
	BYTE		        39*seq_064_mvl/mxv
	BYTE	W04
	BYTE		        28*seq_064_mvl/mxv
	BYTE	W04
	BYTE		        15*seq_064_mvl/mxv
	BYTE	W07
	BYTE	PEND
	BYTE		EOT     An3 
	BYTE	W12
	BYTE		VOL     53*seq_064_mvl/mxv
	BYTE	W12
	BYTE		N48     Dn4   v100
	BYTE	W48
	BYTE		TIE     Cs4   v100
	BYTE	W92
	BYTE	W01
	BYTE		VOL     52*seq_064_mvl/mxv
	BYTE	W03
	BYTE	PEND
	BYTE	PATT
	 POIN2	seq_064_6 + 0x6D
	BYTE		EOT     Cs4 
	BYTE	W12
	BYTE		VOL     53*seq_064_mvl/mxv
	BYTE	W12
	BYTE		N48     As3   v100
	BYTE	W48
	BYTE	PATT
	 POIN2	seq_064_6 + 0x64
	BYTE	PATT
	 POIN2	seq_064_6 + 0x6D
	BYTE		EOT     An3 
	BYTE	W12
	BYTE		VOL     53*seq_064_mvl/mxv
	BYTE	W12
	BYTE		N48     Dn4   v100
	BYTE	W48
	BYTE	PATT
	 POIN2	seq_064_6 + 0x84
	BYTE	PATT
	 POIN2	seq_064_6 + 0x6D
	BYTE		EOT     Cs4 
	BYTE	W12
	BYTE		VOL     53*seq_064_mvl/mxv
	BYTE	W12
	BYTE		N48     Ds4   v100
	BYTE	W48
	BYTE		TIE     Dn4   v100
	BYTE	W92
	BYTE	W01
	BYTE		VOL     52*seq_064_mvl/mxv
	BYTE	W03
	BYTE	PEND
	BYTE	PATT
	 POIN2	seq_064_6 + 0x6D
	BYTE		EOT     Dn4 
	BYTE	W12
	BYTE		VOL     53*seq_064_mvl/mxv
	BYTE	W12
	BYTE		N48     Gn4   v100
	BYTE	W48
	BYTE		TIE     Fs4 
	BYTE	W92
	BYTE	W01
	BYTE		VOL     52*seq_064_mvl/mxv
	BYTE	W03
	BYTE	PATT
	 POIN2	seq_064_6 + 0x6D
	BYTE		EOT     Fs4 
	BYTE	W12
	BYTE		VOL     53*seq_064_mvl/mxv
	BYTE	W12
	BYTE		N48     Ds4   v100
	BYTE	W48
	BYTE	PATT
	 POIN2	seq_064_6 + 0xC4
	BYTE	PATT
	 POIN2	seq_064_6 + 0x6D
	BYTE		EOT     Dn4 
	BYTE	W12
	BYTE		VOL     53*seq_064_mvl/mxv
	BYTE	W12
	BYTE		N48     Gn4   v100
	BYTE	W48
	BYTE		N96     Fs4 
	BYTE	W96
	BYTE		N24
	BYTE	W24
	BYTE		N24
	BYTE	W48
	BYTE		N06
	BYTE	W08
	BYTE		N06
	BYTE	W08
	BYTE		N06
	BYTE	W08
	BYTE		N24
	BYTE	W48
	BYTE		N06     Fn4 
	BYTE	W08
	BYTE		N06
	BYTE	W08
	BYTE		N06
	BYTE	W08
	BYTE		N24
	BYTE	W24
	BYTE		        An4 
	BYTE	W24
	BYTE		N24
	BYTE	W48
	BYTE		N06
	BYTE	W08
	BYTE		N06
	BYTE	W08
	BYTE		N06
	BYTE	W08
	BYTE		N24
	BYTE	W48
	BYTE		N06     Fn4 
	BYTE	W08
	BYTE		N06
	BYTE	W08
	BYTE		N06
	BYTE	W08
	BYTE		N06
	BYTE	W08
	BYTE		N06
	BYTE	W08
	BYTE		N06
	BYTE	W08
	BYTE		TIE     En4 
	BYTE	W96
	BYTE	W72
	BYTE	W03
	BYTE		VOL     53*seq_064_mvl/mxv
	BYTE	W06
	BYTE		        52*seq_064_mvl/mxv
	BYTE	W03
	BYTE		        50*seq_064_mvl/mxv
	BYTE	W03
	BYTE		        47*seq_064_mvl/mxv
	BYTE	W03
	BYTE		        44*seq_064_mvl/mxv
	BYTE	W03
	BYTE		        40*seq_064_mvl/mxv
	BYTE	W03
	BYTE		        35*seq_064_mvl/mxv
	BYTE	W03
	BYTE		        28*seq_064_mvl/mxv
	BYTE	W03
	BYTE		        22*seq_064_mvl/mxv
	BYTE	W03
	BYTE		        15*seq_064_mvl/mxv
	BYTE	W03
	BYTE		        6*seq_064_mvl/mxv
	BYTE	W12
	BYTE		EOT
	BYTE	W12
	BYTE		VOL     53*seq_064_mvl/mxv
	BYTE	W60
	BYTE	W96
	BYTE	W96
	BYTE	W96
	BYTE	W96
	BYTE	W96
	BYTE	W96
	BYTE	W96
	BYTE		N48     Gn3   v127
	BYTE	W48
	BYTE		        An3 
	BYTE	W48
	BYTE		        Bn3 
	BYTE	W48
	BYTE		        En4 
	BYTE	W48
	BYTE		        Cs4 
	BYTE	W48
	BYTE		        As3 
	BYTE	W48
	BYTE		        Gn4 
	BYTE	W48
	BYTE		        Fs4 
	BYTE	W48
	BYTE		        Dn4 
	BYTE	W48
	BYTE		        Bn3 
	BYTE	W48
	BYTE		        Gn4 
	BYTE	W48
	BYTE		N48
	BYTE	W48
	BYTE		        Fs4 
	BYTE	W48
	BYTE		        Cs4 
	BYTE	W48
	BYTE		N96     En4 
	BYTE	W96
	BYTE	W96
	BYTE	W96
	BYTE		N48     An3 
	BYTE	W48
	BYTE		        Bn3 
	BYTE	W48
	BYTE		        Cs4 
	BYTE	W48
	BYTE		        Fs4 
	BYTE	W48
	BYTE		        Ds4 
	BYTE	W48
	BYTE		        Cn4 
	BYTE	W48
	BYTE		        An4 
	BYTE	W48
	BYTE		        Gs4 
	BYTE	W48
	BYTE		        En4 
	BYTE	W48
	BYTE		        Cs4 
	BYTE	W48
	BYTE		        An4 
	BYTE	W48
	BYTE		N48
	BYTE	W48
	BYTE		TIE     Gs4 
	BYTE	W72
	BYTE		VOL     51*seq_064_mvl/mxv
	BYTE	W03
	BYTE		        50*seq_064_mvl/mxv
	BYTE	W03
	BYTE		        49*seq_064_mvl/mxv
	BYTE	W03
	BYTE		        49*seq_064_mvl/mxv
	BYTE	W03
	BYTE		        48*seq_064_mvl/mxv
	BYTE	W03
	BYTE		        47*seq_064_mvl/mxv
	BYTE	W03
	BYTE		        46*seq_064_mvl/mxv
	BYTE	W03
	BYTE		        45*seq_064_mvl/mxv
	BYTE	W03
	BYTE		        44*seq_064_mvl/mxv
	BYTE	W06
	BYTE		        44*seq_064_mvl/mxv
	BYTE	W03
	BYTE		        43*seq_064_mvl/mxv
	BYTE	W03
	BYTE		        42*seq_064_mvl/mxv
	BYTE	W03
	BYTE		        42*seq_064_mvl/mxv
	BYTE	W03
	BYTE		        41*seq_064_mvl/mxv
	BYTE	W03
	BYTE		        40*seq_064_mvl/mxv
	BYTE	W03
	BYTE		        40*seq_064_mvl/mxv
	BYTE	W06
	BYTE		        39*seq_064_mvl/mxv
	BYTE	W03
	BYTE		        38*seq_064_mvl/mxv
	BYTE	W06
	BYTE		        37*seq_064_mvl/mxv
	BYTE	W06
	BYTE		        37*seq_064_mvl/mxv
	BYTE	W03
	BYTE		        36*seq_064_mvl/mxv
	BYTE	W09
	BYTE		        35*seq_064_mvl/mxv
	BYTE	W06
	BYTE		        35*seq_064_mvl/mxv
	BYTE	W09
	BYTE		        34*seq_064_mvl/mxv
	BYTE	W24
	BYTE		EOT
	BYTE	W24
	BYTE		VOL     53*seq_064_mvl/mxv
	BYTE	W72
	BYTE	W96
	BYTE	W96
	BYTE	W96
	BYTE	W96
	BYTE	W96
	BYTE		N08     Cn3   v120
	BYTE	W10
	BYTE		N08
	BYTE	W12
	BYTE		N08
	BYTE	W12
	BYTE		N08
	BYTE	W12
	BYTE		N08
	BYTE	W12
	BYTE		N08
	BYTE	W12
	BYTE		N08
	BYTE	W12
	BYTE		N08
	BYTE	W12
	BYTE		N08
	BYTE	W02
	BYTE	W10
	BYTE		N08     Cn3   v120
	BYTE	W12
	BYTE		N08
	BYTE	W12
	BYTE		N08
	BYTE	W12
	BYTE		N08
	BYTE	W12
	BYTE		N08
	BYTE	W12
	BYTE		N08
	BYTE	W12
	BYTE		N08
	BYTE	W14
	BYTE	PEND
	BYTE	W10
	BYTE		        Dn3 
	BYTE	W12
	BYTE		N08
	BYTE	W12
	BYTE		N08
	BYTE	W12
	BYTE		N08
	BYTE	W12
	BYTE		N08
	BYTE	W12
	BYTE		N08
	BYTE	W12
	BYTE		N08
	BYTE	W12
	BYTE		N08
	BYTE	W02
	BYTE	W10
	BYTE		N08
	BYTE	W12
	BYTE		N08
	BYTE	W12
	BYTE		N08
	BYTE	W12
	BYTE		N08
	BYTE	W12
	BYTE		N08
	BYTE	W12
	BYTE		N08
	BYTE	W12
	BYTE		N08
	BYTE	W14
	BYTE	W10
	BYTE		        Cn3 
	BYTE	W12
	BYTE		N08
	BYTE	W12
	BYTE		N08
	BYTE	W12
	BYTE		N08
	BYTE	W12
	BYTE		N08
	BYTE	W12
	BYTE		N08
	BYTE	W12
	BYTE		N08
	BYTE	W12
	BYTE		N08
	BYTE	W02
	BYTE	PATT
	 POIN2	seq_064_6 + 0x1ED
	BYTE		N48     Fs3   v120
	BYTE	W48
	BYTE		        Gs3 
	BYTE	W48
	BYTE		N12     Gs3   v052
	BYTE	W12
	BYTE		        Gs3   v036
	BYTE	W12
	BYTE		N24     Bn3   v120
	BYTE	W24
	BYTE		N48     As3 
	BYTE	W48
	BYTE		N48     Fn3   v120
	BYTE	W48
	BYTE		        Bn3 
	BYTE	W48
	BYTE	PEND
	BYTE		N48     Bn3   v120
	BYTE	W48
	BYTE		N24
	BYTE	W24
	BYTE		        Dn4 
	BYTE	W24
	BYTE	PEND
	BYTE		N48     Dn4   v120
	BYTE	W48
	BYTE		N24     Gn3 
	BYTE	W24
	BYTE		N24
	BYTE	W24
	BYTE	PEND
	BYTE		N48     Bn3   v120
	BYTE	W48
	BYTE		N48
	BYTE	W48
	BYTE	PEND
	BYTE	PATT
	 POIN2	seq_064_6 + 0x249
	BYTE	PATT
	 POIN2	seq_064_6 + 0x250
	BYTE	PATT
	 POIN2	seq_064_6 + 0x259
	BYTE		N96     Bn3   v120
	BYTE	W96
	BYTE	PATT
	 POIN2	seq_064_6 + 0x249
	BYTE	PATT
	 POIN2	seq_064_6 + 0x250
	BYTE	PATT
	 POIN2	seq_064_6 + 0x259
	BYTE	PATT
	 POIN2	seq_064_6 + 0x263
	BYTE	PATT
	 POIN2	seq_064_6 + 0x249
	BYTE	PATT
	 POIN2	seq_064_6 + 0x250
	BYTE	PATT
	 POIN2	seq_064_6 + 0x259
	BYTE		N96     Bn3   v120
	BYTE	W96
	BYTE	PATT
	 POIN2	seq_064_6 + 0x249
	BYTE	PATT
	 POIN2	seq_064_6 + 0x250
	BYTE	PATT
	 POIN2	seq_064_6 + 0x259
	BYTE	PATT
	 POIN2	seq_064_6 + 0x263
	BYTE	PATT
	 POIN2	seq_064_6 + 0x249
	BYTE	PATT
	 POIN2	seq_064_6 + 0x250
	BYTE	PATT
	 POIN2	seq_064_6 + 0x259
	BYTE		N96     Bn3   v120
	BYTE	W96
	BYTE		N48     Cs4 
	BYTE	W48
	BYTE		        Cn4 
	BYTE	W48
	BYTE		TIE     Bn3 
	BYTE	W96
	BYTE	W96
	BYTE	W96
	BYTE		EOT
	BYTE		N48
	BYTE	W48
	BYTE		        As3 
	BYTE	W48
	BYTE		TIE     An3 
	BYTE	W96
	BYTE	W96
	BYTE	W96
	BYTE		EOT
	BYTE	GoTo
	 POIN2	seq_064_6 + 0x15F
	BYTE	FINE

//*********************** Track 08 ***********************//

seq_064_7:
	BYTE	KEYSH   seq_064_key+0
	BYTE		BENDR   12
	BYTE	W01
	BYTE		VOL     53*seq_064_mvl/mxv
	BYTE		PAN     c_v-4
	BYTE	W01
	BYTE		VOICE   52
	BYTE		BEND    c_v+0
	BYTE	W04
	BYTE	W48
	BYTE		N48     An3   v120
	BYTE	W48
	BYTE		N48     Ds3   v120
	BYTE	W48
	BYTE		        Fn3 
	BYTE	W48
	BYTE	PEND
	BYTE		TIE     En3 
	BYTE	W96
	BYTE	W90
	BYTE		VOL     53*seq_064_mvl/mxv
	BYTE	W03
	BYTE		        52*seq_064_mvl/mxv
	BYTE	W03
	BYTE		        51*seq_064_mvl/mxv
	BYTE	W03
	BYTE		        47*seq_064_mvl/mxv
	BYTE	W03
	BYTE		        42*seq_064_mvl/mxv
	BYTE	W03
	BYTE		        36*seq_064_mvl/mxv
	BYTE	W03
	BYTE		        28*seq_064_mvl/mxv
	BYTE	W03
	BYTE		        20*seq_064_mvl/mxv
	BYTE	W03
	BYTE		        10*seq_064_mvl/mxv
	BYTE	W06
	BYTE		EOT
	BYTE	W06
	BYTE		VOL     53*seq_064_mvl/mxv
	BYTE	W18
	BYTE		N48     An3 
	BYTE	W48
	BYTE	PATT
	 POIN2	seq_064_7 + 0x14
	BYTE		TIE     En3   v120
	BYTE	W96
	BYTE		BEND    c_v+0
	BYTE	W54
	BYTE		        c_v-1
	BYTE	W12
	BYTE		        c_v-2
	BYTE	W06
	BYTE		        c_v-3
	BYTE	W06
	BYTE		        c_v-4
	BYTE	W06
	BYTE		        c_v-5
	BYTE	W06
	BYTE		        c_v-7
	BYTE	W06
	BYTE		        c_v-8
	BYTE	W06
	BYTE		        c_v-11
	BYTE	W90
	BYTE	W96
	BYTE		EOT
	BYTE	W18
	BYTE		BEND    c_v+0
	BYTE	W78
	BYTE	W96
	BYTE	W96
	BYTE	W96
	BYTE	W48
	BYTE		N48     Fn3   v100
	BYTE	W48
	BYTE		TIE     En3   v100
	BYTE	W92
	BYTE	W01
	BYTE		VOL     52*seq_064_mvl/mxv
	BYTE	W03
	BYTE	PEND
	BYTE	W01
	BYTE		VOL     51*seq_064_mvl/mxv
	BYTE	W04
	BYTE		        47*seq_064_mvl/mxv
	BYTE	W04
	BYTE		        39*seq_064_mvl/mxv
	BYTE	W04
	BYTE		        28*seq_064_mvl/mxv
	BYTE	W04
	BYTE		        15*seq_064_mvl/mxv
	BYTE	W07
	BYTE	PEND
	BYTE		EOT     En3 
	BYTE	W12
	BYTE		VOL     53*seq_064_mvl/mxv
	BYTE	W12
	BYTE		N48     As3   v100
	BYTE	W48
	BYTE		TIE     An3   v100
	BYTE	W92
	BYTE	W01
	BYTE		VOL     52*seq_064_mvl/mxv
	BYTE	W03
	BYTE	PEND
	BYTE	PATT
	 POIN2	seq_064_7 + 0x6D
	BYTE		EOT     An3 
	BYTE	W12
	BYTE		VOL     53*seq_064_mvl/mxv
	BYTE	W12
	BYTE		N48     Fn3   v100
	BYTE	W48
	BYTE	PATT
	 POIN2	seq_064_7 + 0x64
	BYTE	PATT
	 POIN2	seq_064_7 + 0x6D
	BYTE		EOT     En3 
	BYTE	W12
	BYTE		VOL     53*seq_064_mvl/mxv
	BYTE	W12
	BYTE		N48     As3   v100
	BYTE	W48
	BYTE	PATT
	 POIN2	seq_064_7 + 0x84
	BYTE	PATT
	 POIN2	seq_064_7 + 0x6D
	BYTE		EOT     An3 
	BYTE	W12
	BYTE		VOL     53*seq_064_mvl/mxv
	BYTE	W12
	BYTE		N48     As3   v100
	BYTE	W48
	BYTE	PATT
	 POIN2	seq_064_7 + 0x84
	BYTE	PATT
	 POIN2	seq_064_7 + 0x6D
	BYTE		EOT     An3 
	BYTE	W12
	BYTE		VOL     53*seq_064_mvl/mxv
	BYTE	W12
	BYTE		N48     Ds4   v100
	BYTE	W48
	BYTE		TIE     Dn4 
	BYTE	W92
	BYTE	W01
	BYTE		VOL     52*seq_064_mvl/mxv
	BYTE	W03
	BYTE	PATT
	 POIN2	seq_064_7 + 0x6D
	BYTE		EOT     Dn4 
	BYTE	W12
	BYTE		VOL     53*seq_064_mvl/mxv
	BYTE	W12
	BYTE		N48     As3   v100
	BYTE	W48
	BYTE	PATT
	 POIN2	seq_064_7 + 0x84
	BYTE	PATT
	 POIN2	seq_064_7 + 0x6D
	BYTE		EOT     An3 
	BYTE	W12
	BYTE		VOL     53*seq_064_mvl/mxv
	BYTE	W12
	BYTE		N48     Ds4   v100
	BYTE	W48
	BYTE		N96     Dn4 
	BYTE	W96
	BYTE		N24
	BYTE	W24
	BYTE		N24
	BYTE	W24
	BYTE		N12     Dn4   v020
	BYTE	W12
	BYTE		        Dn4   v012
	BYTE	W12
	BYTE		N06     Dn4   v100
	BYTE	W08
	BYTE		N06
	BYTE	W08
	BYTE		N06
	BYTE	W08
	BYTE		N24
	BYTE	W24
	BYTE		N12     Dn4   v020
	BYTE	W12
	BYTE		        Dn4   v012
	BYTE	W12
	BYTE		N06     Dn4   v100
	BYTE	W08
	BYTE		N06
	BYTE	W08
	BYTE		N06
	BYTE	W08
	BYTE		N24
	BYTE	W24
	BYTE		        Ds4 
	BYTE	W24
	BYTE		N24
	BYTE	W24
	BYTE		N12     Ds4   v020
	BYTE	W12
	BYTE		        Ds4   v012
	BYTE	W12
	BYTE		N06     Ds4   v100
	BYTE	W08
	BYTE		N06
	BYTE	W08
	BYTE		N06
	BYTE	W08
	BYTE		N24
	BYTE	W24
	BYTE		N12     Ds4   v020
	BYTE	W12
	BYTE		        Ds4   v012
	BYTE	W12
	BYTE		N06     Dn4   v100
	BYTE	W08
	BYTE		N06
	BYTE	W08
	BYTE		N06
	BYTE	W08
	BYTE		N06
	BYTE	W08
	BYTE		N06
	BYTE	W08
	BYTE		N06
	BYTE	W08
	BYTE		TIE     Cn4 
	BYTE	W96
	BYTE	W72
	BYTE	W03
	BYTE		VOL     53*seq_064_mvl/mxv
	BYTE	W06
	BYTE		        52*seq_064_mvl/mxv
	BYTE	W03
	BYTE		        50*seq_064_mvl/mxv
	BYTE	W03
	BYTE		        47*seq_064_mvl/mxv
	BYTE	W03
	BYTE		        44*seq_064_mvl/mxv
	BYTE	W03
	BYTE		        40*seq_064_mvl/mxv
	BYTE	W03
	BYTE		        35*seq_064_mvl/mxv
	BYTE	W03
	BYTE		        28*seq_064_mvl/mxv
	BYTE	W03
	BYTE		        22*seq_064_mvl/mxv
	BYTE	W03
	BYTE		        15*seq_064_mvl/mxv
	BYTE	W03
	BYTE		        6*seq_064_mvl/mxv
	BYTE	W12
	BYTE		EOT
	BYTE	W12
	BYTE		VOL     53*seq_064_mvl/mxv
	BYTE	W60
	BYTE	W96
	BYTE	W96
	BYTE	W96
	BYTE	W96
	BYTE	W96
	BYTE	W96
	BYTE	W96
	BYTE		N48     Bn2   v127
	BYTE	W48
	BYTE		        Dn3 
	BYTE	W48
	BYTE		        En3 
	BYTE	W48
	BYTE		        Gn3 
	BYTE	W48
	BYTE		        Fs3 
	BYTE	W48
	BYTE		        Cs3 
	BYTE	W48
	BYTE		        Bn3 
	BYTE	W48
	BYTE		        As3 
	BYTE	W48
	BYTE		        Gn3 
	BYTE	W48
	BYTE		        En3 
	BYTE	W48
	BYTE		        Bn3 
	BYTE	W48
	BYTE		N48
	BYTE	W48
	BYTE		        As3 
	BYTE	W48
	BYTE		        Fs3 
	BYTE	W48
	BYTE		N96     Gn3 
	BYTE	W96
	BYTE	W96
	BYTE	W96
	BYTE		N48     Cs3 
	BYTE	W48
	BYTE		        En3 
	BYTE	W48
	BYTE		        Fs3 
	BYTE	W48
	BYTE		        An3 
	BYTE	W48
	BYTE		        Gs3 
	BYTE	W48
	BYTE		        Ds3 
	BYTE	W48
	BYTE		        Cs4 
	BYTE	W48
	BYTE		        Cn4 
	BYTE	W48
	BYTE		        An3 
	BYTE	W48
	BYTE		        Fs3 
	BYTE	W48
	BYTE		        Cs4 
	BYTE	W48
	BYTE		N48
	BYTE	W48
	BYTE		TIE     Cn4 
	BYTE	W96
	BYTE	W96
	BYTE		EOT
	BYTE		N12     Cs4   v120
	BYTE	W12
	BYTE		N06     Ds4 
	BYTE	W06
	BYTE		        En4 
	BYTE	W06
	BYTE		        Fs4 
	BYTE	W06
	BYTE		        Gs4 
	BYTE	W06
	BYTE		        An4 
	BYTE	W06
	BYTE		        Bn4 
	BYTE	W06
	BYTE		N36     Cs5 
	BYTE	W36
	BYTE		N12     Cn5 
	BYTE	W12
	BYTE	PEND
	BYTE		N06     Cs5   v120
	BYTE	W12
	BYTE		N12     Gs4 
	BYTE	W12
	BYTE		N06     An4 
	BYTE	W12
	BYTE		N12     Cs4 
	BYTE	W12
	BYTE		N06     Ds4 
	BYTE	W12
	BYTE		N12     Bn3 
	BYTE	W12
	BYTE		N06     Cs4 
	BYTE	W12
	BYTE		N12     Gs3 
	BYTE	W12
	BYTE	PEND
	BYTE		N06     Cs4 
	BYTE	W12
	BYTE		N06
	BYTE	W12
	BYTE		N06
	BYTE	W12
	BYTE		N06
	BYTE	W12
	BYTE		        Ds4 
	BYTE	W12
	BYTE		N06
	BYTE	W12
	BYTE		N06
	BYTE	W12
	BYTE		N06
	BYTE	W12
	BYTE		        En4 
	BYTE	W12
	BYTE		N06
	BYTE	W12
	BYTE		N06
	BYTE	W12
	BYTE		N06
	BYTE	W12
	BYTE		        Cs4 
	BYTE	W12
	BYTE		N06
	BYTE	W12
	BYTE		        Bn3 
	BYTE	W12
	BYTE		N06
	BYTE	W12
	BYTE	PATT
	 POIN2	seq_064_7 + 0x1BE
	BYTE	PATT
	 POIN2	seq_064_7 + 0x1D6
	BYTE		N08     Gs2   v120
	BYTE	W10
	BYTE		N08
	BYTE	W12
	BYTE		N08
	BYTE	W12
	BYTE		N08
	BYTE	W12
	BYTE		N08
	BYTE	W12
	BYTE		N08
	BYTE	W12
	BYTE		N08
	BYTE	W12
	BYTE		N08
	BYTE	W12
	BYTE		N08
	BYTE	W02
	BYTE	W10
	BYTE		N08     Gs2   v120
	BYTE	W12
	BYTE		N08
	BYTE	W12
	BYTE		N08
	BYTE	W12
	BYTE		N08
	BYTE	W12
	BYTE		N08
	BYTE	W12
	BYTE		N08
	BYTE	W12
	BYTE		N08
	BYTE	W14
	BYTE	PEND
	BYTE	W10
	BYTE		        As2 
	BYTE	W12
	BYTE		N08
	BYTE	W12
	BYTE		N08
	BYTE	W12
	BYTE		N08
	BYTE	W12
	BYTE		N08
	BYTE	W12
	BYTE		N08
	BYTE	W12
	BYTE		N08
	BYTE	W12
	BYTE		N08
	BYTE	W02
	BYTE	W10
	BYTE		N08
	BYTE	W12
	BYTE		N08
	BYTE	W12
	BYTE		N08
	BYTE	W12
	BYTE		N08
	BYTE	W12
	BYTE		N08
	BYTE	W12
	BYTE		N08
	BYTE	W12
	BYTE		N08
	BYTE	W14
	BYTE	W10
	BYTE		        Gs2 
	BYTE	W12
	BYTE		N08
	BYTE	W12
	BYTE		N08
	BYTE	W12
	BYTE		N08
	BYTE	W12
	BYTE		N08
	BYTE	W12
	BYTE		N08
	BYTE	W12
	BYTE		N08
	BYTE	W12
	BYTE		N08
	BYTE	W02
	BYTE	PATT
	 POIN2	seq_064_7 + 0x22F
	BYTE		N48     Dn3   v120
	BYTE	W48
	BYTE		        En3 
	BYTE	W48
	BYTE		N12     En3   v052
	BYTE	W12
	BYTE		        En3   v036
	BYTE	W12
	BYTE		N24     Fs3   v120
	BYTE	W24
	BYTE		N48
	BYTE	W48
	BYTE		N48     Bn2   v120
	BYTE	W48
	BYTE		        Fn3 
	BYTE	W48
	BYTE	PEND
	BYTE		N48     Fs3   v120
	BYTE	W48
	BYTE		N24     Fn3 
	BYTE	W24
	BYTE		        An3 
	BYTE	W24
	BYTE	PEND
	BYTE		N48     Gs3   v120
	BYTE	W48
	BYTE		N24     Cs3 
	BYTE	W24
	BYTE		        Dn3 
	BYTE	W24
	BYTE	PEND
	BYTE		N48     Fs3   v120
	BYTE	W48
	BYTE		        Fn3 
	BYTE	W48
	BYTE	PEND
	BYTE	PATT
	 POIN2	seq_064_7 + 0x28A
	BYTE	PATT
	 POIN2	seq_064_7 + 0x291
	BYTE	PATT
	 POIN2	seq_064_7 + 0x29B
	BYTE		N96     Fs3   v120
	BYTE	W96
	BYTE	PATT
	 POIN2	seq_064_7 + 0x28A
	BYTE	PATT
	 POIN2	seq_064_7 + 0x291
	BYTE	PATT
	 POIN2	seq_064_7 + 0x29B
	BYTE	PATT
	 POIN2	seq_064_7 + 0x2A5
	BYTE	PATT
	 POIN2	seq_064_7 + 0x28A
	BYTE	PATT
	 POIN2	seq_064_7 + 0x291
	BYTE	PATT
	 POIN2	seq_064_7 + 0x29B
	BYTE		N96     Fs3   v120
	BYTE	W96
	BYTE	PATT
	 POIN2	seq_064_7 + 0x28A
	BYTE	PATT
	 POIN2	seq_064_7 + 0x291
	BYTE	PATT
	 POIN2	seq_064_7 + 0x29B
	BYTE	PATT
	 POIN2	seq_064_7 + 0x2A5
	BYTE	PATT
	 POIN2	seq_064_7 + 0x28A
	BYTE	PATT
	 POIN2	seq_064_7 + 0x291
	BYTE	PATT
	 POIN2	seq_064_7 + 0x29B
	BYTE		N96     Fs3   v120
	BYTE	W96
	BYTE		N48     Gn3 
	BYTE	W48
	BYTE		        Fs3 
	BYTE	W48
	BYTE		TIE     Fn3 
	BYTE	W96
	BYTE	W96
	BYTE	W96
	BYTE		EOT
	BYTE		N48
	BYTE	W48
	BYTE		        En3 
	BYTE	W48
	BYTE		TIE     Ds3 
	BYTE	W96
	BYTE	W96
	BYTE	W96
	BYTE		EOT
	BYTE	GoTo
	 POIN2	seq_064_7 + 0x17D
	BYTE	FINE

//*********************** Track 09 ***********************//

seq_064_8:
	BYTE	KEYSH   seq_064_key+0
	BYTE		BENDR   12
	BYTE	W01
	BYTE		VOL     75*seq_064_mvl/mxv
	BYTE		PAN     c_v+21
	BYTE	W01
	BYTE		VOICE   52
	BYTE		BEND    c_v+0
	BYTE	W04
	BYTE	W48
	BYTE		N48     En3   v120
	BYTE	W48
	BYTE		N48     As2   v120
	BYTE	W48
	BYTE		        Cs3 
	BYTE	W48
	BYTE	PEND
	BYTE		TIE     Cn3 
	BYTE	W96
	BYTE	W90
	BYTE		VOL     53*seq_064_mvl/mxv
	BYTE	W03
	BYTE		        52*seq_064_mvl/mxv
	BYTE	W03
	BYTE		        51*seq_064_mvl/mxv
	BYTE	W03
	BYTE		        47*seq_064_mvl/mxv
	BYTE	W03
	BYTE		        42*seq_064_mvl/mxv
	BYTE	W03
	BYTE		        36*seq_064_mvl/mxv
	BYTE	W03
	BYTE		        28*seq_064_mvl/mxv
	BYTE	W03
	BYTE		        20*seq_064_mvl/mxv
	BYTE	W03
	BYTE		        10*seq_064_mvl/mxv
	BYTE	W06
	BYTE		EOT
	BYTE	W06
	BYTE		VOL     53*seq_064_mvl/mxv
	BYTE	W18
	BYTE		N48     En3 
	BYTE	W48
	BYTE	PATT
	 POIN2	seq_064_8 + 0x14
	BYTE		TIE     Cn3   v120
	BYTE	W96
	BYTE	W96
	BYTE		EOT
	BYTE	W96
	BYTE	W96
	BYTE	W96
	BYTE	W96
	BYTE	W96
	BYTE	W96
	BYTE	W96
	BYTE	W96
	BYTE	W96
	BYTE	W96
	BYTE	W96
	BYTE	W96
	BYTE	W96
	BYTE	W96
	BYTE	W96
	BYTE	W96
	BYTE	W96
	BYTE	W96
	BYTE	W96
	BYTE	W96
	BYTE	W96
	BYTE	W96
	BYTE		N24     An3   v100
	BYTE	W24
	BYTE		N24
	BYTE	W48
	BYTE		N06
	BYTE	W08
	BYTE		N06
	BYTE	W08
	BYTE		N06
	BYTE	W08
	BYTE	PEND
	BYTE		N24
	BYTE	W48
	BYTE		N06     Gs3 
	BYTE	W08
	BYTE		N06
	BYTE	W08
	BYTE		N06
	BYTE	W08
	BYTE		N24
	BYTE	W24
	BYTE	PATT
	 POIN2	seq_064_8 + 0x5B
	BYTE		N24     An3   v100
	BYTE	W48
	BYTE		N06     Gs3 
	BYTE	W08
	BYTE		N06
	BYTE	W08
	BYTE		N06
	BYTE	W08
	BYTE		N06
	BYTE	W08
	BYTE		N06
	BYTE	W08
	BYTE		N06
	BYTE	W08
	BYTE		TIE
	BYTE	W96
	BYTE	W96
	BYTE		EOT
	BYTE		BENDR   12
	BYTE	W01
	BYTE		VOL     72*seq_064_mvl/mxv
	BYTE		PAN     c_v-28
	BYTE	W01
	BYTE		VOICE   39
	BYTE		BEND    c_v+0
	BYTE	W10
	BYTE		N08     En3   v127
	BYTE	W24
	BYTE		        En3   v012
	BYTE	W12
	BYTE		        En3   v127
	BYTE	W24
	BYTE		        En3   v012
	BYTE	W24
	BYTE		N06     As2   v127
	BYTE	W06
	BYTE		N06
	BYTE	W06
	BYTE		N06
	BYTE	W12
	BYTE		        As2   v028
	BYTE	W12
	BYTE		        As2   v127
	BYTE	W06
	BYTE		N06
	BYTE	W06
	BYTE		N06
	BYTE	W12
	BYTE		        As2   v028
	BYTE	W12
	BYTE		        As2   v127
	BYTE	W06
	BYTE		N06
	BYTE	W06
	BYTE		N06
	BYTE	W06
	BYTE		        As2   v040
	BYTE	W06
	BYTE	PEND
	BYTE	W12
	BYTE		N08     En3   v127
	BYTE	W24
	BYTE		        En3   v012
	BYTE	W12
	BYTE		        En3   v127
	BYTE	W24
	BYTE		        En3   v012
	BYTE	W12
	BYTE		N06     As2   v127
	BYTE	W06
	BYTE		N06
	BYTE	W06
	BYTE	PEND
	BYTE		N06     As2   v127
	BYTE	W06
	BYTE		N06
	BYTE	W06
	BYTE		N06
	BYTE	W06
	BYTE		        As2   v040
	BYTE	W18
	BYTE		        As2   v127
	BYTE	W06
	BYTE		N06
	BYTE	W06
	BYTE		N06
	BYTE	W06
	BYTE		N06
	BYTE	W06
	BYTE		N06
	BYTE	W06
	BYTE		        As2   v040
	BYTE	W06
	BYTE		        As2   v127
	BYTE	W06
	BYTE		N06
	BYTE	W06
	BYTE		N06
	BYTE	W06
	BYTE		        As2   v040
	BYTE	W06
	BYTE	PEND
	BYTE	W12
	BYTE		N08     En3   v127
	BYTE	W24
	BYTE		        En3   v012
	BYTE	W12
	BYTE		        En3   v127
	BYTE	W24
	BYTE		        En3   v012
	BYTE	W24
	BYTE	PATT
	 POIN2	seq_064_8 + 0xA7
	BYTE	PATT
	 POIN2	seq_064_8 + 0xC7
	BYTE	PATT
	 POIN2	seq_064_8 + 0xDC
	BYTE	W96
	BYTE	W96
	BYTE	W96
	BYTE	W96
	BYTE	W96
	BYTE	W96
	BYTE	W96
	BYTE	W96
	BYTE	W11
	BYTE		N06     Gn2   v120
	BYTE	W36
	BYTE		        Cn3 
	BYTE	W06
	BYTE		N06
	BYTE	W06
	BYTE		        Bn2 
	BYTE	W24
	BYTE		        Fn3 
	BYTE	W06
	BYTE		N06
	BYTE	W06
	BYTE		        En3 
	BYTE	W01
	BYTE	W23
	BYTE		        An3 
	BYTE	W06
	BYTE		N06
	BYTE	W06
	BYTE		        Gs3 
	BYTE	W24
	BYTE		        Dn4 
	BYTE	W06
	BYTE		N06
	BYTE	W06
	BYTE		        Cs4 
	BYTE	W24
	BYTE	W01
	BYTE	W96
	BYTE	W96
	BYTE	W96
	BYTE	W96
	BYTE	W96
	BYTE	W96
	BYTE	W96
	BYTE	W96
	BYTE		N24     Cs3   v112
	BYTE	W24
	BYTE		N06     Bn2 
	BYTE	W12
	BYTE		        Cs3 
	BYTE	W12
	BYTE		N24     En3 
	BYTE	W24
	BYTE		N06     Ds3 
	BYTE	W12
	BYTE		        Bn2 
	BYTE	W12
	BYTE	PEND
	BYTE		N06     Cs3   v112
	BYTE	W12
	BYTE		        En3 
	BYTE	W12
	BYTE		N36     Ds3 
	BYTE	W36
	BYTE		N06     Cn3 
	BYTE	W12
	BYTE		        Cs3 
	BYTE	W12
	BYTE		        Ds3 
	BYTE	W12
	BYTE	PEND
	BYTE		N24     En3 
	BYTE	W24
	BYTE		N06     Ds3 
	BYTE	W12
	BYTE		        En3 
	BYTE	W12
	BYTE		N24     Fs3 
	BYTE	W24
	BYTE		N06     En3 
	BYTE	W12
	BYTE		        Ds3 
	BYTE	W12
	BYTE		N24     En3 
	BYTE	W24
	BYTE		        Cs3 
	BYTE	W24
	BYTE		N24
	BYTE	W24
	BYTE		        Bn2 
	BYTE	W24
	BYTE	PATT
	 POIN2	seq_064_8 + 0x14C
	BYTE	PATT
	 POIN2	seq_064_8 + 0x15E
	BYTE	W96
	BYTE	W96
	BYTE	W96
	BYTE	W96
	BYTE	W96
	BYTE	W96
	BYTE	W96
	BYTE	W96
	BYTE	W96
	BYTE	W96
	BYTE	W96
	BYTE	W96
	BYTE	W96
	BYTE	W96
	BYTE	W96
	BYTE	W96
	BYTE	W96
	BYTE	W96
	BYTE	W96
	BYTE	W96
	BYTE	W96
	BYTE	W96
	BYTE	W96
	BYTE	W96
	BYTE		N24     Bn2   v100
	BYTE	W24
	BYTE		N04
	BYTE	W08
	BYTE		N04
	BYTE	W08
	BYTE		N04
	BYTE	W08
	BYTE		N48     Fn3 
	BYTE	W48
	BYTE	PEND
	BYTE		N24     Fs3   v100
	BYTE	W24
	BYTE		N04
	BYTE	W08
	BYTE		N04
	BYTE	W08
	BYTE		N04
	BYTE	W08
	BYTE		N24     Fn3 
	BYTE	W24
	BYTE		        An3 
	BYTE	W24
	BYTE	PEND
	BYTE		N24     Gs3   v100
	BYTE	W24
	BYTE		N04
	BYTE	W08
	BYTE		N04
	BYTE	W08
	BYTE		N04
	BYTE	W08
	BYTE		N24     Cs3 
	BYTE	W24
	BYTE		        Dn3 
	BYTE	W24
	BYTE	PEND
	BYTE		N48     Fs3 
	BYTE	W48
	BYTE		        Fn3 
	BYTE	W48
	BYTE	PATT
	 POIN2	seq_064_8 + 0x1AA
	BYTE	PATT
	 POIN2	seq_064_8 + 0x1B8
	BYTE	PATT
	 POIN2	seq_064_8 + 0x1C8
	BYTE		N96     Fs3   v100
	BYTE	W96
	BYTE	W96
	BYTE	W96
	BYTE	W96
	BYTE	W96
	BYTE	W96
	BYTE	W96
	BYTE	W96
	BYTE	W96
	BYTE	GoTo
	 POIN2	seq_064_8 + 0x11D
	BYTE	FINE

//*********************** Track 10 ***********************//

seq_064_9:
	BYTE	KEYSH   seq_064_key+0
	BYTE		BENDR   12
	BYTE	W01
	BYTE		VOL     50*seq_064_mvl/mxv
	BYTE		PAN     c_v+36
	BYTE	W01
	BYTE		VOICE   47
	BYTE		BEND    c_v+0
	BYTE	W04
	BYTE		TIE     An2   v127
	BYTE	W96
	BYTE	W96
	BYTE	W96
	BYTE	W48
	BYTE		EOT
	BYTE		N24     En3 
	BYTE	W24
	BYTE		N24
	BYTE	W24
	BYTE		TIE     An2 
	BYTE	W96
	BYTE	W96
	BYTE	W96
	BYTE		BEND    c_v+0
	BYTE	W54
	BYTE		        c_v-1
	BYTE	W12
	BYTE		        c_v-2
	BYTE	W06
	BYTE		        c_v-3
	BYTE	W06
	BYTE		        c_v-4
	BYTE	W06
	BYTE		        c_v-5
	BYTE	W06
	BYTE		        c_v-7
	BYTE	W06
	BYTE		EOT
	BYTE		BEND    c_v-8
	BYTE	W06
	BYTE		        c_v-11
	BYTE	W90
	BYTE	W96
	BYTE	W96
	BYTE	W07
	BYTE		BENDR   12
	BYTE	W02
	BYTE		VOL     72*seq_064_mvl/mxv
	BYTE		PAN     c_v+32
	BYTE	W03
	BYTE		BEND    c_v+0
	BYTE	W03
	BYTE		VOICE   39
	BYTE	W80
	BYTE	W01
	BYTE	PEND
	BYTE	W96
	BYTE	W96
	BYTE	W96
	BYTE	W96
	BYTE	W96
	BYTE	W96
	BYTE	W96
	BYTE	W96
	BYTE	W96
	BYTE	W96
	BYTE	W96
	BYTE	W96
	BYTE	W96
	BYTE	W96
	BYTE	W96
	BYTE	W96
	BYTE	W96
	BYTE	W96
	BYTE		N24     Dn3   v100
	BYTE	W24
	BYTE		N24
	BYTE	W48
	BYTE		N04
	BYTE	W08
	BYTE		N04
	BYTE	W08
	BYTE		N04
	BYTE	W08
	BYTE	PEND
	BYTE		N24
	BYTE	W48
	BYTE		N04     Cs3 
	BYTE	W08
	BYTE		N04
	BYTE	W08
	BYTE		N04
	BYTE	W08
	BYTE		N24
	BYTE	W24
	BYTE	PATT
	 POIN2	seq_064_9 + 0x5B
	BYTE		N24     Dn3   v100
	BYTE	W48
	BYTE		N04     Cs3 
	BYTE	W08
	BYTE		N04
	BYTE	W08
	BYTE		N04
	BYTE	W08
	BYTE		N04
	BYTE	W08
	BYTE		N04
	BYTE	W08
	BYTE		N04
	BYTE	W08
	BYTE		TIE     Cn3 
	BYTE	W96
	BYTE	W96
	BYTE		EOT
	BYTE		BENDR   12
	BYTE		VOL     50*seq_064_mvl/mxv
	BYTE	W01
	BYTE		PAN     c_v+16
	BYTE		BEND    c_v+0
	BYTE	W01
	BYTE		VOICE   60
	BYTE	W10
	BYTE		N07     En4   v127
	BYTE	W36
	BYTE		N07
	BYTE	W48
	BYTE		N05     As3   v127
	BYTE	W06
	BYTE		N05
	BYTE	W06
	BYTE		N05
	BYTE	W24
	BYTE		N05
	BYTE	W06
	BYTE		N05
	BYTE	W06
	BYTE		N05
	BYTE	W24
	BYTE		N05
	BYTE	W06
	BYTE		N05
	BYTE	W06
	BYTE		N05
	BYTE	W12
	BYTE	PEND
	BYTE	W12
	BYTE		N07     En4   v127
	BYTE	W36
	BYTE		N07
	BYTE	W36
	BYTE		N05     As3 
	BYTE	W06
	BYTE		N05
	BYTE	W06
	BYTE	PEND
	BYTE		N05     As3   v127
	BYTE	W06
	BYTE		N05
	BYTE	W06
	BYTE		N05
	BYTE	W24
	BYTE		N05
	BYTE	W06
	BYTE		N05
	BYTE	W06
	BYTE		N05
	BYTE	W06
	BYTE		N05
	BYTE	W06
	BYTE		N05
	BYTE	W12
	BYTE		N05
	BYTE	W06
	BYTE		N05
	BYTE	W06
	BYTE		N05
	BYTE	W12
	BYTE	PEND
	BYTE	W12
	BYTE		N07     En4 
	BYTE	W36
	BYTE		N07
	BYTE	W48
	BYTE	PATT
	 POIN2	seq_064_9 + 0xA1
	BYTE	PATT
	 POIN2	seq_064_9 + 0xB6
	BYTE	PATT
	 POIN2	seq_064_9 + 0xC3
	BYTE	W96
	BYTE	W96
	BYTE	W96
	BYTE	W96
	BYTE	W96
	BYTE	PATT
	 POIN2	seq_064_9 + 0x38
	BYTE	W96
	BYTE	W96
	BYTE	W96
	BYTE	W96
	BYTE	W96
	BYTE	W96
	BYTE	W96
	BYTE	W96
	BYTE	W96
	BYTE	W96
	BYTE	W96
	BYTE	W96
	BYTE		N24     Cs2   v040
	BYTE	W24
	BYTE		N06     Bn1 
	BYTE	W12
	BYTE		        Cs2 
	BYTE	W12
	BYTE		N24     En2 
	BYTE	W24
	BYTE		N06     Ds2 
	BYTE	W12
	BYTE		        Bn1 
	BYTE	W12
	BYTE	PEND
	BYTE		N06     Cs2   v040
	BYTE	W12
	BYTE		        En2 
	BYTE	W12
	BYTE		N36     Ds2 
	BYTE	W36
	BYTE		N06     Cn2 
	BYTE	W12
	BYTE		        Cs2 
	BYTE	W12
	BYTE		        Ds2 
	BYTE	W12
	BYTE	PEND
	BYTE		N24     En2 
	BYTE	W24
	BYTE		N06     Ds2 
	BYTE	W12
	BYTE		        En2 
	BYTE	W12
	BYTE		N24     Fs2 
	BYTE	W24
	BYTE		N06     En2 
	BYTE	W12
	BYTE		        Ds2 
	BYTE	W12
	BYTE		N24     En2 
	BYTE	W24
	BYTE		        Cs2 
	BYTE	W24
	BYTE		N24
	BYTE	W24
	BYTE		        Bn1 
	BYTE	W24
	BYTE	PATT
	 POIN2	seq_064_9 + 0x107
	BYTE	PATT
	 POIN2	seq_064_9 + 0x119
	BYTE	W06
	BYTE		BENDR   12
	BYTE		VOL     25*seq_064_mvl/mxv
	BYTE	W01
	BYTE		PAN     c_v+0
	BYTE		BEND    c_v+0
	BYTE	W01
	BYTE		VOICE   44
	BYTE	W04
	BYTE		N24     En4   v100
	BYTE	W24
	BYTE		N12     Cn4 
	BYTE	W12
	BYTE		        Gs3 
	BYTE	W12
	BYTE		N48     Fn3 
	BYTE	W36
	BYTE	W36
	BYTE		N08     Gs3   v100
	BYTE	W08
	BYTE		        Cn4 
	BYTE	W08
	BYTE		        En4 
	BYTE	W08
	BYTE		N24     Gs4 
	BYTE	W24
	BYTE		        Gn4 
	BYTE	W12
	BYTE	PEND
	BYTE	W12
	BYTE		        Fs4 
	BYTE	W24
	BYTE		N12     Dn4 
	BYTE	W12
	BYTE		        As3 
	BYTE	W12
	BYTE		N36     An3 
	BYTE	W36
	BYTE		N12     As3 
	BYTE	W12
	BYTE		        An3 
	BYTE	W12
	BYTE		        As3 
	BYTE	W12
	BYTE		N36     Gn3 
	BYTE	W36
	BYTE		N12     As3 
	BYTE	W12
	BYTE		        Cn4 
	BYTE	W12
	BYTE		        Dn4 
	BYTE	W12
	BYTE		N24     En4 
	BYTE	W24
	BYTE		N12     Cn4 
	BYTE	W12
	BYTE		        Gs3 
	BYTE	W12
	BYTE		N48     Fn3 
	BYTE	W36
	BYTE	PATT
	 POIN2	seq_064_9 + 0x167
	BYTE	W12
	BYTE		N24     Fs4   v100
	BYTE	W24
	BYTE		N08     Dn4 
	BYTE	W08
	BYTE		        En4 
	BYTE	W08
	BYTE		        Fs4 
	BYTE	W08
	BYTE		N24     Gs4 
	BYTE	W24
	BYTE		        En4 
	BYTE	W12
	BYTE	W12
	BYTE		N92     Fs4 
	BYTE	W84
	BYTE	W96
	BYTE	W96
	BYTE	W96
	BYTE	W96
	BYTE	W96
	BYTE	W96
	BYTE	W96
	BYTE	W96
	BYTE	W96
	BYTE	W96
	BYTE	W96
	BYTE	W96
	BYTE	W96
	BYTE	W96
	BYTE	W96
	BYTE	W30
	BYTE		BENDR   12
	BYTE		VOL     50*seq_064_mvl/mxv
	BYTE	W01
	BYTE		PAN     c_v+16
	BYTE		BEND    c_v+0
	BYTE	W01
	BYTE		VOICE   39
	BYTE	W64
	BYTE		N24     Bn1   v124
	BYTE	W24
	BYTE		N04
	BYTE	W08
	BYTE		N04
	BYTE	W08
	BYTE		N04
	BYTE	W08
	BYTE		N48     Fn2 
	BYTE	W48
	BYTE	PEND
	BYTE		N24     Fs2   v124
	BYTE	W24
	BYTE		N04
	BYTE	W08
	BYTE		N04
	BYTE	W08
	BYTE		N04
	BYTE	W08
	BYTE		N24     Fn2 
	BYTE	W24
	BYTE		        An2 
	BYTE	W24
	BYTE	PEND
	BYTE		N24     Gs2   v124
	BYTE	W24
	BYTE		N04
	BYTE	W08
	BYTE		N04
	BYTE	W08
	BYTE		N04
	BYTE	W08
	BYTE		N24     Cs2 
	BYTE	W24
	BYTE		        Dn2 
	BYTE	W24
	BYTE	PEND
	BYTE		N48     Fs2 
	BYTE	W48
	BYTE		        Fn2 
	BYTE	W48
	BYTE	PATT
	 POIN2	seq_064_9 + 0x1D4
	BYTE	PATT
	 POIN2	seq_064_9 + 0x1E2
	BYTE	PATT
	 POIN2	seq_064_9 + 0x1F2
	BYTE		N96     Fs2   v124
	BYTE	W96
	BYTE	W96
	BYTE	W96
	BYTE	W96
	BYTE	W96
	BYTE	W96
	BYTE	W96
	BYTE	W96
	BYTE	W96
	BYTE	GoTo
	 POIN2	seq_064_9 + 0xF1
	BYTE	FINE

//*********************** Track 11 ***********************//

seq_064_10:
	BYTE	KEYSH   seq_064_key+0
	BYTE		BENDR   12
	BYTE	W01
	BYTE		VOL     80*seq_064_mvl/mxv
	BYTE		PAN     c_v+0
	BYTE	W01
	BYTE		VOICE   16
	BYTE		BEND    c_v+0
	BYTE	W04
	BYTE		TIE     An1   v127
	BYTE	W96
	BYTE	W96
	BYTE	W96
	BYTE	W48
	BYTE		EOT
	BYTE		N24     En2 
	BYTE	W24
	BYTE		N24
	BYTE	W24
	BYTE		TIE     An1 
	BYTE	W96
	BYTE	W96
	BYTE	W96
	BYTE		BEND    c_v+0
	BYTE	W54
	BYTE		        c_v-1
	BYTE	W12
	BYTE		        c_v-2
	BYTE	W06
	BYTE		        c_v-3
	BYTE	W06
	BYTE		        c_v-4
	BYTE	W06
	BYTE		        c_v-5
	BYTE	W06
	BYTE		        c_v-7
	BYTE	W06
	BYTE		        c_v-8
	BYTE	W06
	BYTE		        c_v-11
	BYTE	W90
	BYTE	W90
	BYTE		EOT
	BYTE		BEND    c_v+0
	BYTE	W06
	BYTE		N08     Gn1   v127
	BYTE	W16
	BYTE		N08
	BYTE	W08
	BYTE		N08
	BYTE	W16
	BYTE		N08
	BYTE	W08
	BYTE		N08
	BYTE	W16
	BYTE		N08
	BYTE	W08
	BYTE		N08
	BYTE	W16
	BYTE		N08
	BYTE	W08
	BYTE	PEND
	BYTE	PATT
	 POIN2	seq_064_10 + 0x39
	BYTE	PATT
	 POIN2	seq_064_10 + 0x39
	BYTE	PATT
	 POIN2	seq_064_10 + 0x39
	BYTE		N08     Gn1   v127
	BYTE	W16
	BYTE		N08
	BYTE	W08
	BYTE		N08
	BYTE	W16
	BYTE		N08
	BYTE	W08
	BYTE		N16     Gn2 
	BYTE	W16
	BYTE		N08     Gn1 
	BYTE	W08
	BYTE		N16     Gn2 
	BYTE	W16
	BYTE		N08     As1 
	BYTE	W08
	BYTE	PEND
	BYTE		N08     Gn1   v127
	BYTE	W16
	BYTE		N08
	BYTE	W08
	BYTE		N08
	BYTE	W16
	BYTE		N08
	BYTE	W08
	BYTE		N16     Gn2 
	BYTE	W16
	BYTE		N08     As1 
	BYTE	W08
	BYTE		        Cs2 
	BYTE	W08
	BYTE		        Dn2 
	BYTE	W08
	BYTE		        En2 
	BYTE	W08
	BYTE	PEND
	BYTE	PATT
	 POIN2	seq_064_10 + 0x5B
	BYTE		N08     Gn1   v127
	BYTE	W16
	BYTE		N08
	BYTE	W08
	BYTE		N08
	BYTE	W16
	BYTE		N08
	BYTE	W08
	BYTE		        Gn2 
	BYTE	W08
	BYTE		        Cs2 
	BYTE	W08
	BYTE		        Dn2 
	BYTE	W08
	BYTE		        En2 
	BYTE	W08
	BYTE		        Dn2 
	BYTE	W08
	BYTE		        Cs2 
	BYTE	W08
	BYTE	PEND
	BYTE	PATT
	 POIN2	seq_064_10 + 0x5B
	BYTE	PATT
	 POIN2	seq_064_10 + 0x72
	BYTE	PATT
	 POIN2	seq_064_10 + 0x5B
	BYTE	PATT
	 POIN2	seq_064_10 + 0x8E
	BYTE		N08     Cn2   v127
	BYTE	W16
	BYTE		N08
	BYTE	W08
	BYTE		N08
	BYTE	W16
	BYTE		N08
	BYTE	W08
	BYTE		N16     Cn3 
	BYTE	W16
	BYTE		N08     Cn2 
	BYTE	W08
	BYTE		N16     Cn3 
	BYTE	W16
	BYTE		N08     Ds2 
	BYTE	W08
	BYTE	PEND
	BYTE		N08     Cn2   v127
	BYTE	W16
	BYTE		N08
	BYTE	W08
	BYTE		N08
	BYTE	W16
	BYTE		N08
	BYTE	W08
	BYTE		N16     Cn3 
	BYTE	W16
	BYTE		N08     Ds2 
	BYTE	W08
	BYTE		        Fs2 
	BYTE	W08
	BYTE		        Gn2 
	BYTE	W08
	BYTE		        An2 
	BYTE	W08
	BYTE	PEND
	BYTE	PATT
	 POIN2	seq_064_10 + 0xB9
	BYTE		N08     Cn2   v127
	BYTE	W16
	BYTE		N08
	BYTE	W08
	BYTE		N08
	BYTE	W16
	BYTE		N08
	BYTE	W08
	BYTE		        Cn3 
	BYTE	W08
	BYTE		        Fs2 
	BYTE	W08
	BYTE		        Gn2 
	BYTE	W08
	BYTE		        An2 
	BYTE	W08
	BYTE		        Gn2 
	BYTE	W08
	BYTE		        Fs2 
	BYTE	W08
	BYTE	PEND
	BYTE	PATT
	 POIN2	seq_064_10 + 0xB9
	BYTE	PATT
	 POIN2	seq_064_10 + 0xD0
	BYTE	PATT
	 POIN2	seq_064_10 + 0xB9
	BYTE	PATT
	 POIN2	seq_064_10 + 0xEC
	BYTE		N24     Cn2   v127
	BYTE	W24
	BYTE		N24
	BYTE	W48
	BYTE		N08
	BYTE	W08
	BYTE		N08
	BYTE	W08
	BYTE		N08
	BYTE	W08
	BYTE		N24
	BYTE	W48
	BYTE		N08     As1 
	BYTE	W08
	BYTE		N08
	BYTE	W08
	BYTE		N08
	BYTE	W08
	BYTE		N24
	BYTE	W24
	BYTE		        Bn1 
	BYTE	W24
	BYTE		N24
	BYTE	W48
	BYTE		N08
	BYTE	W08
	BYTE		N08
	BYTE	W08
	BYTE		N08
	BYTE	W08
	BYTE		N24
	BYTE	W48
	BYTE		N08     Fn2 
	BYTE	W08
	BYTE		N08
	BYTE	W08
	BYTE		N08
	BYTE	W08
	BYTE		N08
	BYTE	W08
	BYTE		N08
	BYTE	W08
	BYTE		N07
	BYTE	W07
	BYTE		VOICE   9
	BYTE	W01
	BYTE		PAN     c_v+6
	BYTE		N06     En2   v127
	BYTE	W06
	BYTE		N07
	BYTE	W06
	BYTE		PAN     c_v-40
	BYTE		N05     Dn2 
	BYTE	W06
	BYTE		N05
	BYTE	W06
	BYTE		PAN     c_v-6
	BYTE		N05     Fn2 
	BYTE	W06
	BYTE		N05
	BYTE	W06
	BYTE		PAN     c_v+40
	BYTE		N05     Gn2 
	BYTE	W06
	BYTE		N05
	BYTE	W06
	BYTE		PAN     c_v+6
	BYTE		N05     En2 
	BYTE	W06
	BYTE		N05
	BYTE	W06
	BYTE		PAN     c_v-40
	BYTE		N05     Dn2 
	BYTE	W06
	BYTE		N05
	BYTE	W06
	BYTE		PAN     c_v-6
	BYTE		N05     Fn2 
	BYTE	W06
	BYTE		N05
	BYTE	W06
	BYTE		PAN     c_v+40
	BYTE		N05     Gn2 
	BYTE	W06
	BYTE		N05
	BYTE	W06
	BYTE	PEND
	BYTE	PATT
	 POIN2	seq_064_10 + 0x14A
	BYTE	PATT
	 POIN2	seq_064_10 + 0x14A
	BYTE	PATT
	 POIN2	seq_064_10 + 0x14A
	BYTE	PATT
	 POIN2	seq_064_10 + 0x14A
	BYTE	PATT
	 POIN2	seq_064_10 + 0x14A
	BYTE	PATT
	 POIN2	seq_064_10 + 0x14A
	BYTE	PATT
	 POIN2	seq_064_10 + 0x14A
	BYTE	PATT
	 POIN2	seq_064_10 + 0x14A
	BYTE	PATT
	 POIN2	seq_064_10 + 0x14A
	BYTE		PAN     c_v+6
	BYTE		N05     En2   v127
	BYTE	W06
	BYTE		N05
	BYTE	W06
	BYTE		PAN     c_v-40
	BYTE		N05     Dn2 
	BYTE	W06
	BYTE		N05
	BYTE	W06
	BYTE		PAN     c_v-6
	BYTE		N05     Fs2 
	BYTE	W06
	BYTE		N05
	BYTE	W06
	BYTE		PAN     c_v+40
	BYTE		N05     Gn2 
	BYTE	W06
	BYTE		N05
	BYTE	W06
	BYTE		PAN     c_v+6
	BYTE		N05     En2 
	BYTE	W06
	BYTE		N05
	BYTE	W06
	BYTE		PAN     c_v-40
	BYTE		N05     Dn2 
	BYTE	W06
	BYTE		N05
	BYTE	W06
	BYTE		PAN     c_v-6
	BYTE		N05     Fs2 
	BYTE	W06
	BYTE		N05
	BYTE	W06
	BYTE		PAN     c_v+40
	BYTE		N05     Gn2 
	BYTE	W06
	BYTE		N05
	BYTE	W06
	BYTE	PEND
	BYTE	PATT
	 POIN2	seq_064_10 + 0x1B1
	BYTE	PATT
	 POIN2	seq_064_10 + 0x1B1
	BYTE	PATT
	 POIN2	seq_064_10 + 0x1B1
	BYTE	PATT
	 POIN2	seq_064_10 + 0x1B1
	BYTE	PATT
	 POIN2	seq_064_10 + 0x1B1
	BYTE	PATT
	 POIN2	seq_064_10 + 0x1B1
	BYTE	PATT
	 POIN2	seq_064_10 + 0x1B1
	BYTE	PATT
	 POIN2	seq_064_10 + 0x1B1
	BYTE	PATT
	 POIN2	seq_064_10 + 0x1B1
	BYTE		PAN     c_v+6
	BYTE		N05     Fs2   v127
	BYTE	W06
	BYTE		N05
	BYTE	W06
	BYTE		PAN     c_v-40
	BYTE		N05     En2 
	BYTE	W06
	BYTE		N05
	BYTE	W06
	BYTE		PAN     c_v-6
	BYTE		N05     Gs2 
	BYTE	W06
	BYTE		N05
	BYTE	W06
	BYTE		PAN     c_v+40
	BYTE		N05     An2 
	BYTE	W06
	BYTE		N05
	BYTE	W06
	BYTE		PAN     c_v+6
	BYTE		N05     Fs2 
	BYTE	W06
	BYTE		N05
	BYTE	W06
	BYTE		PAN     c_v-40
	BYTE		N05     En2 
	BYTE	W06
	BYTE		N05
	BYTE	W06
	BYTE		PAN     c_v-6
	BYTE		N05     Gs2 
	BYTE	W06
	BYTE		N05
	BYTE	W06
	BYTE		PAN     c_v+40
	BYTE		N05     An2 
	BYTE	W06
	BYTE		N05
	BYTE	W06
	BYTE	PEND
	BYTE	PATT
	 POIN2	seq_064_10 + 0x218
	BYTE	PATT
	 POIN2	seq_064_10 + 0x218
	BYTE	PATT
	 POIN2	seq_064_10 + 0x218
	BYTE	PATT
	 POIN2	seq_064_10 + 0x218
	BYTE	PATT
	 POIN2	seq_064_10 + 0x218
	BYTE	PATT
	 POIN2	seq_064_10 + 0x218
	BYTE		PAN     c_v+6
	BYTE		N05     Fs2   v127
	BYTE	W06
	BYTE		N05
	BYTE	W06
	BYTE		PAN     c_v-40
	BYTE		N05     En2 
	BYTE	W06
	BYTE		N05
	BYTE	W06
	BYTE		PAN     c_v-6
	BYTE		N05     Gs2 
	BYTE	W06
	BYTE		N05
	BYTE	W06
	BYTE		PAN     c_v+40
	BYTE		N05     An2 
	BYTE	W06
	BYTE		N05
	BYTE	W06
	BYTE		PAN     c_v+6
	BYTE		N05     Fs2 
	BYTE	W06
	BYTE		N05
	BYTE	W06
	BYTE		PAN     c_v-40
	BYTE		N05     En2 
	BYTE	W06
	BYTE		N05
	BYTE	W06
	BYTE		PAN     c_v-6
	BYTE		N05     Cs3 
	BYTE	W06
	BYTE		        Cn3 
	BYTE	W06
	BYTE		PAN     c_v+40
	BYTE		N05     Bn2 
	BYTE	W06
	BYTE		N04     As2 
	BYTE	W05
	BYTE		VOICE   16
	BYTE	W01
	BYTE		PAN     c_v+0
	BYTE		N36     An1 
	BYTE	W36
	BYTE		N12
	BYTE	W12
	BYTE		N36     An2 
	BYTE	W36
	BYTE		N12     Ds2 
	BYTE	W12
	BYTE		N12     En2   v127
	BYTE	W12
	BYTE		        Gs1 
	BYTE	W12
	BYTE		N36     An1 
	BYTE	W36
	BYTE		N12
	BYTE	W12
	BYTE		        Bn1 
	BYTE	W12
	BYTE		        Ds2 
	BYTE	W12
	BYTE	PEND
	BYTE		        Cs2 
	BYTE	W12
	BYTE		N12
	BYTE	W24
	BYTE		        Gs1 
	BYTE	W12
	BYTE		        Cs2 
	BYTE	W12
	BYTE		N12
	BYTE	W24
	BYTE		        Gs1 
	BYTE	W12
	BYTE		        Cs2 
	BYTE	W12
	BYTE		N12
	BYTE	W24
	BYTE		N24     Gn1 
	BYTE	W24
	BYTE		N12     Gs1 
	BYTE	W12
	BYTE		        Cs2 
	BYTE	W12
	BYTE		        Bn1 
	BYTE	W12
	BYTE		N36     An1 
	BYTE	W36
	BYTE		N12
	BYTE	W12
	BYTE		N36     An2 
	BYTE	W36
	BYTE		N12     Ds2 
	BYTE	W12
	BYTE	PATT
	 POIN2	seq_064_10 + 0x2BA
	BYTE		N36     Fn1   v127
	BYTE	W36
	BYTE		N24     Fn2 
	BYTE	W24
	BYTE		N12     En2 
	BYTE	W12
	BYTE		        Cn2 
	BYTE	W12
	BYTE		        Gs1 
	BYTE	W12
	BYTE	PEND
	BYTE	PATT
	 POIN2	seq_064_10 + 0x2F4
	BYTE		N36     Gn1   v127
	BYTE	W36
	BYTE		N24     Gn2 
	BYTE	W24
	BYTE		N12     Fs2 
	BYTE	W12
	BYTE		        Dn2 
	BYTE	W12
	BYTE		        As1 
	BYTE	W12
	BYTE	PEND
	BYTE	PATT
	 POIN2	seq_064_10 + 0x308
	BYTE	PATT
	 POIN2	seq_064_10 + 0x2F4
	BYTE	PATT
	 POIN2	seq_064_10 + 0x2F4
	BYTE		N24     Bn1   v127
	BYTE	W24
	BYTE		N08     Fs2 
	BYTE	W08
	BYTE		        En2 
	BYTE	W08
	BYTE		        Dn2 
	BYTE	W08
	BYTE		N24     Cs2 
	BYTE	W24
	BYTE		        Gs1 
	BYTE	W24
	BYTE		N96     Fs1 
	BYTE	W96
	BYTE		N08     Bn1   v127
	BYTE	W08
	BYTE		        Cn2 
	BYTE	W08
	BYTE		        Cs2 
	BYTE	W08
	BYTE		        Dn2 
	BYTE	W08
	BYTE		        Cs2 
	BYTE	W08
	BYTE		        Cn2 
	BYTE	W08
	BYTE		        Bn1 
	BYTE	W08
	BYTE		        Cn2 
	BYTE	W08
	BYTE		        Cs2 
	BYTE	W08
	BYTE		        Dn2 
	BYTE	W08
	BYTE		        Cs2 
	BYTE	W08
	BYTE		        Cn2 
	BYTE	W08
	BYTE	PEND
	BYTE	PATT
	 POIN2	seq_064_10 + 0x339
	BYTE	PATT
	 POIN2	seq_064_10 + 0x339
	BYTE	PATT
	 POIN2	seq_064_10 + 0x339
	BYTE	PATT
	 POIN2	seq_064_10 + 0x339
	BYTE	PATT
	 POIN2	seq_064_10 + 0x339
	BYTE	PATT
	 POIN2	seq_064_10 + 0x339
	BYTE	PATT
	 POIN2	seq_064_10 + 0x339
	BYTE	PATT
	 POIN2	seq_064_10 + 0x339
	BYTE	PATT
	 POIN2	seq_064_10 + 0x339
	BYTE	PATT
	 POIN2	seq_064_10 + 0x339
	BYTE	PATT
	 POIN2	seq_064_10 + 0x339
	BYTE	PATT
	 POIN2	seq_064_10 + 0x339
	BYTE	PATT
	 POIN2	seq_064_10 + 0x339
	BYTE	PATT
	 POIN2	seq_064_10 + 0x339
	BYTE	PATT
	 POIN2	seq_064_10 + 0x339
	BYTE	PATT
	 POIN2	seq_064_10 + 0x339
	BYTE	PATT
	 POIN2	seq_064_10 + 0x339
	BYTE	PATT
	 POIN2	seq_064_10 + 0x339
	BYTE	PATT
	 POIN2	seq_064_10 + 0x339
	BYTE	PATT
	 POIN2	seq_064_10 + 0x339
	BYTE	PATT
	 POIN2	seq_064_10 + 0x339
	BYTE	PATT
	 POIN2	seq_064_10 + 0x339
	BYTE	PATT
	 POIN2	seq_064_10 + 0x339
	BYTE		N48     Gn1   v127
	BYTE	W48
	BYTE		        Fs1 
	BYTE	W48
	BYTE		N72     Fn1 
	BYTE	W72
	BYTE		N24     Dn2 
	BYTE	W24
	BYTE		N72     Gs2 
	BYTE	W72
	BYTE		N08     Bn1 
	BYTE	W08
	BYTE		        Dn2 
	BYTE	W08
	BYTE		        Fn2 
	BYTE	W08
	BYTE		N96     Gs1 
	BYTE	W96
	BYTE		N48     Fn1 
	BYTE	W48
	BYTE		        En1 
	BYTE	W48
	BYTE		N96     Ds1 
	BYTE	W96
	BYTE		N16     Fs1 
	BYTE	W16
	BYTE		N16
	BYTE	W16
	BYTE		        Gs1 
	BYTE	W16
	BYTE		        An1 
	BYTE	W16
	BYTE		N16
	BYTE	W16
	BYTE		        Bn1 
	BYTE	W16
	BYTE		        Cn2 
	BYTE	W16
	BYTE		N16
	BYTE	W16
	BYTE		        Ds2 
	BYTE	W16
	BYTE		N08     Fs2 
	BYTE	W08
	BYTE		        Ds2 
	BYTE	W08
	BYTE		        Cn2 
	BYTE	W08
	BYTE		        An1 
	BYTE	W08
	BYTE		        Fs1 
	BYTE	W08
	BYTE		N07     Ds1 
	BYTE	W07
	BYTE		VOICE   16
	BYTE	W01
	BYTE	GoTo
	 POIN2	seq_064_10 + 0x1B1
	BYTE	FINE

//*********************** Track 12 ***********************//

seq_064_11:
	BYTE	KEYSH   seq_064_key+0
	BYTE		BENDR   12
	BYTE	W01
	BYTE		VOL     31*seq_064_mvl/mxv
	BYTE		PAN     c_v+0
	BYTE	W01
	BYTE		VOICE   52
	BYTE		BEND    c_v+0
	BYTE	W04
	BYTE	W60
	BYTE		N48     An4   v100
	BYTE	W36
	BYTE	W12
	BYTE		N48     Ds4   v100
	BYTE	W48
	BYTE		        Fn4 
	BYTE	W36
	BYTE	PEND
	BYTE	W12
	BYTE		TIE     En4   v100
	BYTE	W84
	BYTE	PEND
	BYTE	W96
	BYTE	W12
	BYTE		EOT
	BYTE	W48
	BYTE		N48     An4 
	BYTE	W36
	BYTE	PATT
	 POIN2	seq_064_11 + 0x14
	BYTE	PATT
	 POIN2	seq_064_11 + 0x1C
	BYTE	W12
	BYTE		BEND    c_v+0
	BYTE	W54
	BYTE		        c_v+0
	BYTE	W12
	BYTE		        c_v-1
	BYTE	W06
	BYTE		        c_v-2
	BYTE	W06
	BYTE		        c_v-4
	BYTE	W06
	BYTE		        c_v-5
	BYTE	W06
	BYTE		        c_v-6
	BYTE	W06
	BYTE		        c_v-7
	BYTE	W06
	BYTE		        c_v-11
	BYTE	W78
	BYTE	W96
	BYTE	W12
	BYTE		EOT     En4 
	BYTE	W18
	BYTE		BEND    c_v+0
	BYTE	W66
	BYTE	W96
	BYTE	W96
	BYTE	W96
	BYTE	W60
	BYTE		N48     Dn4   v100
	BYTE	W36
	BYTE	W12
	BYTE		N96     Cs4 
	BYTE	W84
	BYTE	W60
	BYTE		N48     Fn4 
	BYTE	W36
	BYTE	W12
	BYTE		N96     En4 
	BYTE	W84
	BYTE	W60
	BYTE		N48     Dn4 
	BYTE	W36
	BYTE	W12
	BYTE		N96     Cs4 
	BYTE	W84
	BYTE	W60
	BYTE		N48     Fn4 
	BYTE	W36
	BYTE	W12
	BYTE		N96     En4 
	BYTE	W84
	BYTE	W60
	BYTE		N48     Gn4 
	BYTE	W36
	BYTE	W12
	BYTE		N96     Fs4 
	BYTE	W84
	BYTE	W60
	BYTE		N48     As4 
	BYTE	W36
	BYTE	W12
	BYTE		N96     An4 
	BYTE	W84
	BYTE	W60
	BYTE		N48     Gn4 
	BYTE	W36
	BYTE	W12
	BYTE		N96     Fs4 
	BYTE	W84
	BYTE	W60
	BYTE		N48     As4 
	BYTE	W36
	BYTE	W12
	BYTE		N80     An4 
	BYTE	W84
	BYTE	W06
	BYTE		BENDR   12
	BYTE		VOL     25*seq_064_mvl/mxv
	BYTE	W01
	BYTE		PAN     c_v+0
	BYTE		BEND    c_v+0
	BYTE	W01
	BYTE		VOICE   39
	BYTE	W88
	BYTE	W96
	BYTE	W96
	BYTE	W96
	BYTE	W96
	BYTE	W96
	BYTE	W24
	BYTE		N06     En3 
	BYTE	W36
	BYTE		N06
	BYTE	W36
	BYTE	W12
	BYTE		N04     As2   v100
	BYTE	W06
	BYTE		N04
	BYTE	W06
	BYTE		N04
	BYTE	W24
	BYTE		N04
	BYTE	W06
	BYTE		N04
	BYTE	W06
	BYTE		N04
	BYTE	W24
	BYTE		N04
	BYTE	W06
	BYTE		N04
	BYTE	W06
	BYTE	PEND
	BYTE		N04     As2   v100
	BYTE	W24
	BYTE		N06     En3 
	BYTE	W36
	BYTE		N06
	BYTE	W36
	BYTE	PEND
	BYTE		N04     As2   v100
	BYTE	W06
	BYTE		N04
	BYTE	W06
	BYTE		N04
	BYTE	W06
	BYTE		N04
	BYTE	W06
	BYTE		N04
	BYTE	W24
	BYTE		N04
	BYTE	W06
	BYTE		N04
	BYTE	W06
	BYTE		N04
	BYTE	W06
	BYTE		N04
	BYTE	W06
	BYTE		N04
	BYTE	W12
	BYTE		N04
	BYTE	W06
	BYTE		N04
	BYTE	W06
	BYTE	PEND
	BYTE	PATT
	 POIN2	seq_064_11 + 0xC0
	BYTE	PATT
	 POIN2	seq_064_11 + 0xAC
	BYTE	PATT
	 POIN2	seq_064_11 + 0xC0
	BYTE	PATT
	 POIN2	seq_064_11 + 0xCA
	BYTE	W04
	BYTE		BENDR   12
	BYTE		VOL     25*seq_064_mvl/mxv
	BYTE	W01
	BYTE		PAN     c_v+0
	BYTE		BEND    c_v+0
	BYTE	W01
	BYTE		VOICE   52
	BYTE	W06
	BYTE		N48     En4   v100
	BYTE	W48
	BYTE		        Fs4 
	BYTE	W36
	BYTE	W12
	BYTE		        Gn4 
	BYTE	W48
	BYTE		        Bn4 
	BYTE	W36
	BYTE	W12
	BYTE		        As4 
	BYTE	W48
	BYTE		        Fs4 
	BYTE	W36
	BYTE	W12
	BYTE		        Dn5 
	BYTE	W48
	BYTE		        Cs5 
	BYTE	W36
	BYTE	W12
	BYTE		        Bn4 
	BYTE	W48
	BYTE		        Gn4 
	BYTE	W36
	BYTE	W12
	BYTE		        En5 
	BYTE	W48
	BYTE		        Dn5 
	BYTE	W36
	BYTE	W12
	BYTE		        Cs5 
	BYTE	W48
	BYTE		        As4 
	BYTE	W36
	BYTE	W12
	BYTE		N90     Bn4 
	BYTE	W84
	BYTE	W12
	BYTE		BENDR   12
	BYTE		VOL     25*seq_064_mvl/mxv
	BYTE	W01
	BYTE		PAN     c_v+0
	BYTE		BEND    c_v+0
	BYTE	W01
	BYTE		VOICE   39
	BYTE	W10
	BYTE		N06     Gn2 
	BYTE	W36
	BYTE		        Cn3 
	BYTE	W06
	BYTE		N06
	BYTE	W06
	BYTE		        Bn2 
	BYTE	W24
	BYTE		        Fn3 
	BYTE	W06
	BYTE		N06
	BYTE	W06
	BYTE		        En3 
	BYTE	W24
	BYTE		        An3 
	BYTE	W06
	BYTE		N06
	BYTE	W06
	BYTE		        Gs3 
	BYTE	W24
	BYTE		        Dn4 
	BYTE	W06
	BYTE		N06
	BYTE	W06
	BYTE		        Cs4 
	BYTE	W06
	BYTE		BENDR   12
	BYTE		VOL     25*seq_064_mvl/mxv
	BYTE	W01
	BYTE		PAN     c_v+0
	BYTE		BEND    c_v+0
	BYTE	W01
	BYTE		VOICE   52
	BYTE	W04
	BYTE	W12
	BYTE		N48     Fs4 
	BYTE	W48
	BYTE		        Gs4 
	BYTE	W36
	BYTE	W12
	BYTE		        An4 
	BYTE	W48
	BYTE		        Cs5 
	BYTE	W36
	BYTE	W12
	BYTE		        Cn5 
	BYTE	W48
	BYTE		        Gs4 
	BYTE	W36
	BYTE	W12
	BYTE		        En5 
	BYTE	W48
	BYTE		        Ds5 
	BYTE	W36
	BYTE	W12
	BYTE		        Cs5 
	BYTE	W48
	BYTE		        An4 
	BYTE	W36
	BYTE	W12
	BYTE		        Fs5 
	BYTE	W48
	BYTE		        En5 
	BYTE	W36
	BYTE	W12
	BYTE		TIE     Ds5 
	BYTE	W84
	BYTE	W96
	BYTE		EOT
	BYTE	W06
	BYTE		BENDR   12
	BYTE		VOL     25*seq_064_mvl/mxv
	BYTE	W01
	BYTE		PAN     c_v+0
	BYTE		BEND    c_v+0
	BYTE	W01
	BYTE		VOICE   39
	BYTE	W04
	BYTE		N24     Cs3 
	BYTE	W24
	BYTE		N06     Bn2 
	BYTE	W12
	BYTE		        Cs3 
	BYTE	W12
	BYTE		N24     En3 
	BYTE	W24
	BYTE		N06     Ds3 
	BYTE	W12
	BYTE		N06     Bn2   v100
	BYTE	W12
	BYTE		        Cs3 
	BYTE	W12
	BYTE		        En3 
	BYTE	W12
	BYTE		N36     Ds3 
	BYTE	W36
	BYTE		N06     Cn3 
	BYTE	W12
	BYTE		        Cs3 
	BYTE	W12
	BYTE	PEND
	BYTE		        Ds3 
	BYTE	W12
	BYTE		N24     En3 
	BYTE	W24
	BYTE		N06     Ds3 
	BYTE	W12
	BYTE		        En3 
	BYTE	W12
	BYTE		N24     Fs3 
	BYTE	W24
	BYTE		N06     En3 
	BYTE	W12
	BYTE		        Ds3 
	BYTE	W12
	BYTE		N24     En3 
	BYTE	W24
	BYTE		        Cs3 
	BYTE	W24
	BYTE		N24
	BYTE	W24
	BYTE		        Bn2 
	BYTE	W12
	BYTE	W12
	BYTE		        Cs3 
	BYTE	W24
	BYTE		N06     Bn2 
	BYTE	W12
	BYTE		        Cs3 
	BYTE	W12
	BYTE		N24     En3 
	BYTE	W24
	BYTE		N06     Ds3 
	BYTE	W12
	BYTE	PATT
	 POIN2	seq_064_11 + 0x1A6
	BYTE		N06     Ds3   v100
	BYTE	W96
	BYTE	W96
	BYTE	W96
	BYTE	W96
	BYTE	W96
	BYTE		BENDR   12
	BYTE		VOL     25*seq_064_mvl/mxv
	BYTE	W01
	BYTE		PAN     c_v+0
	BYTE		BEND    c_v+0
	BYTE	W01
	BYTE		VOICE   52
	BYTE	W92
	BYTE	W02
	BYTE	W96
	BYTE	W96
	BYTE	W13
	BYTE		        c_v-12
	BYTE	W02
	BYTE		N48     Bn3 
	BYTE	W48
	BYTE		        Fn4 
	BYTE	W32
	BYTE	W01
	BYTE	W15
	BYTE		N48     Fs4   v100
	BYTE	W48
	BYTE		N24     Fn4 
	BYTE	W24
	BYTE		        An4 
	BYTE	W09
	BYTE	PEND
	BYTE	W15
	BYTE		N48     Gs4   v100
	BYTE	W48
	BYTE		N24     Cs4 
	BYTE	W24
	BYTE		        Dn4 
	BYTE	W09
	BYTE	PEND
	BYTE	W15
	BYTE		N48     Fs4   v100
	BYTE	W48
	BYTE		        Fn4 
	BYTE	W32
	BYTE	W01
	BYTE	PEND
	BYTE	W15
	BYTE		N48     Bn3   v100
	BYTE	W48
	BYTE		        Fn4 
	BYTE	W32
	BYTE	W01
	BYTE	PEND
	BYTE	PATT
	 POIN2	seq_064_11 + 0x206
	BYTE	PATT
	 POIN2	seq_064_11 + 0x211
	BYTE	W15
	BYTE		N96     Fs4   v100
	BYTE	W80
	BYTE	W01
	BYTE	PEND
	BYTE	PATT
	 POIN2	seq_064_11 + 0x225
	BYTE	PATT
	 POIN2	seq_064_11 + 0x206
	BYTE	PATT
	 POIN2	seq_064_11 + 0x211
	BYTE	PATT
	 POIN2	seq_064_11 + 0x21C
	BYTE	PATT
	 POIN2	seq_064_11 + 0x225
	BYTE	PATT
	 POIN2	seq_064_11 + 0x206
	BYTE	PATT
	 POIN2	seq_064_11 + 0x211
	BYTE	PATT
	 POIN2	seq_064_11 + 0x238
	BYTE	W96
	BYTE	W96
	BYTE	W96
	BYTE	W96
	BYTE	W96
	BYTE	W96
	BYTE	W96
	BYTE	W96
	BYTE	W12
	BYTE		N48     Gn4   v100
	BYTE	W48
	BYTE		        Fs4 
	BYTE	W36
	BYTE	W12
	BYTE		TIE     Fn4 
	BYTE	W84
	BYTE	W96
	BYTE	W96
	BYTE	W12
	BYTE		EOT
	BYTE		N48
	BYTE	W48
	BYTE		        En4 
	BYTE	W36
	BYTE	W12
	BYTE		TIE     Ds4 
	BYTE	W84
	BYTE	W96
	BYTE	W92
	BYTE	W03
	BYTE		EOT
	BYTE	W01
	BYTE	GoTo
	 POIN2	seq_064_11 + 0xF9
	BYTE	FINE

//******************************************************//

	ALIGN 4

seq_064:
	BYTE	12	// NumTrks
	BYTE	0	// NumBlks
	BYTE	seq_064_pri	// Priority
	BYTE	seq_064_rev	// Reverb

	POIN2	seq_064_grp

	POIN2	seq_064_0
	POIN2	seq_064_1
	POIN2	seq_064_2
	POIN2	seq_064_3
	POIN2	seq_064_4
	POIN2	seq_064_5
	POIN2	seq_064_6
	POIN2	seq_064_7
	POIN2	seq_064_8
	POIN2	seq_064_9
	POIN2	seq_064_10
	POIN2	seq_064_11

	
