//Event file generated from Sappy .s format.
// File generated by m4a2s Song-Module
	#include "MPlayDef.event"

	#define	seq_068_grp  bank_000
	#define	seq_068_pri  10
	#define	seq_068_rev  0
	#define	seq_068_mvl  127
	#define	seq_068_key  0

	// .rodata
	//	seq_068
	ALIGN 4

//*********************** Track 01 ***********************//

seq_068_0:
	BYTE	KEYSH   seq_068_key+0
	BYTE	TEMPO   150/2
	BYTE		VOICE   42
	BYTE	W01
	BYTE		PAN     c_v-14
	BYTE	W01
	BYTE		VOL     73*seq_068_mvl/mxv
	BYTE	W01
	BYTE		N05     Gn3   v064
	BYTE	W03
	BYTE	TEMPO   148/2
	BYTE	W03
	BYTE		N06     Fs3 
	BYTE	W06
	BYTE		        En3   v068
	BYTE	W06
	BYTE		        Fs3   v060
	BYTE	W06
	BYTE		        Gn3   v068
	BYTE	W06
	BYTE		        Cn4   v064
	BYTE	W06
	BYTE		        Bn3   v056
	BYTE	W06
	BYTE		        An3 
	BYTE	W06
	BYTE		        Bn3   v064
	BYTE	W06
	BYTE		        Gn3 
	BYTE	W06
	BYTE		        Fs3   v068
	BYTE	W06
	BYTE		        Gn3   v060
	BYTE	W06
	BYTE		        Bn3   v064
	BYTE	W06
	BYTE		        An3   v060
	BYTE	W06
	BYTE		        Gn3   v064
	BYTE	W06
	BYTE		        Fs3   v060
	BYTE	W06
	BYTE		N06     Gn3   v064
	BYTE	W06
	BYTE		        Fs3   v060
	BYTE	W06
	BYTE		        En3   v064
	BYTE	W06
	BYTE		        Fs3   v056
	BYTE	W06
	BYTE		        Gn3   v064
	BYTE	W06
	BYTE		        Cn4   v056
	BYTE	W06
	BYTE		        Bn3 
	BYTE	W06
	BYTE		        An3 
	BYTE	W06
	BYTE		        Bn3 
	BYTE	W06
	BYTE		        Gn3   v060
	BYTE	W06
	BYTE		        Fs3   v064
	BYTE	W06
	BYTE		        Gn3   v056
	BYTE	W06
	BYTE		        Bn3 
	BYTE	W06
	BYTE		        An3 
	BYTE	W06
	BYTE		        Gn3   v064
	BYTE	W06
	BYTE		        Fs3   v056
	BYTE	W06
	BYTE	PEND
	BYTE		N06     Gn3   v064
	BYTE	W06
	BYTE		        Fs3 
	BYTE	W06
	BYTE		        En3 
	BYTE	W06
	BYTE		        Fs3   v060
	BYTE	W06
	BYTE		        Gn3   v068
	BYTE	W06
	BYTE		        Cn4   v060
	BYTE	W06
	BYTE		        Bn3   v056
	BYTE	W06
	BYTE		        An3 
	BYTE	W06
	BYTE		        Bn3   v060
	BYTE	W06
	BYTE		        Gn3 
	BYTE	W06
	BYTE		        Fs3   v064
	BYTE	W06
	BYTE		        Gn3   v056
	BYTE	W06
	BYTE		        Bn3   v060
	BYTE	W06
	BYTE		        An3   v056
	BYTE	W06
	BYTE		        Gn3   v064
	BYTE	W06
	BYTE		        Fs3   v060
	BYTE	W06
	BYTE	PEND
	BYTE		N06     Gn3   v060
	BYTE	W06
	BYTE		        Fs3 
	BYTE	W06
	BYTE		        En3 
	BYTE	W06
	BYTE		        Fs3   v056
	BYTE	W06
	BYTE		        Gn3   v064
	BYTE	W06
	BYTE		        Cn4   v056
	BYTE	W06
	BYTE		        Bn3   v052
	BYTE	W06
	BYTE		        An3 
	BYTE	W06
	BYTE		        Bn3   v056
	BYTE	W06
	BYTE		        Gn3 
	BYTE	W06
	BYTE		        Fs3   v060
	BYTE	W06
	BYTE		        Gn3   v052
	BYTE	W06
	BYTE		        Bn3   v056
	BYTE	W06
	BYTE		        An3   v052
	BYTE	W06
	BYTE		        Gn3   v060
	BYTE	W06
	BYTE		        Fs3   v056
	BYTE	W06
	BYTE	PEND
	BYTE	PATT
	 POIN2	seq_068_0 + 0x9A
	BYTE		N06     Gn3   v056
	BYTE	W06
	BYTE		        Fs3 
	BYTE	W06
	BYTE		        En3 
	BYTE	W06
	BYTE		        Fs3   v052
	BYTE	W06
	BYTE		        Gn3   v060
	BYTE	W06
	BYTE		        Cn4   v052
	BYTE	W06
	BYTE		        Bn3   v048
	BYTE	W06
	BYTE		        An3 
	BYTE	W06
	BYTE		        Bn3   v052
	BYTE	W06
	BYTE		        Gn3 
	BYTE	W06
	BYTE		        Fs3   v056
	BYTE	W06
	BYTE		        Gn3   v048
	BYTE	W06
	BYTE		        Bn3   v052
	BYTE	W06
	BYTE		        An3   v048
	BYTE	W06
	BYTE		        Gn3   v056
	BYTE	W06
	BYTE		        Fs3   v052
	BYTE	W06
	BYTE		        Gn3   v056
	BYTE	W06
	BYTE		        Fs3 
	BYTE	W06
	BYTE		        En3   v060
	BYTE	W06
	BYTE		        Fs3   v052
	BYTE	W06
	BYTE		        Gn3   v060
	BYTE	W06
	BYTE		        Cn4   v052
	BYTE	W06
	BYTE		        Bn3   v048
	BYTE	W06
	BYTE		        An3 
	BYTE	W06
	BYTE		        Bn3   v052
	BYTE	W06
	BYTE		        Gn3   v056
	BYTE	W06
	BYTE		        Fs3   v060
	BYTE	W06
	BYTE		        Gn3   v052
	BYTE	W06
	BYTE		        Bn3 
	BYTE	W06
	BYTE		        An3 
	BYTE	W06
	BYTE		        Gn3   v056
	BYTE	W06
	BYTE		        Fs3   v052
	BYTE	W06
	BYTE		        Gn3 
	BYTE	W06
	BYTE		        Fs3 
	BYTE	W06
	BYTE		        En3   v056
	BYTE	W06
	BYTE		        Fs3   v048
	BYTE	W06
	BYTE		        Gn3   v056
	BYTE	W06
	BYTE		        Cn4   v048
	BYTE	W06
	BYTE		        Bn3 
	BYTE	W06
	BYTE		        An3 
	BYTE	W06
	BYTE		        Bn3 
	BYTE	W06
	BYTE		        Gn3   v052
	BYTE	W06
	BYTE		        Fs3   v056
	BYTE	W06
	BYTE		        Gn3   v048
	BYTE	W06
	BYTE		        Bn3 
	BYTE	W06
	BYTE		        An3 
	BYTE	W06
	BYTE		        Gn3   v052
	BYTE	W06
	BYTE		        Fs3   v048
	BYTE	W06
	BYTE	TEMPO   146/2
	BYTE		        Gn3   v060
	BYTE	W06
	BYTE		        Fs3   v064
	BYTE	W06
	BYTE		        En3   v068
	BYTE	W06
	BYTE		        Fs3   v060
	BYTE	W06
	BYTE		        Gn3   v068
	BYTE	W06
	BYTE		        Cn4   v064
	BYTE	W06
	BYTE		        Bn3   v056
	BYTE	W06
	BYTE		        An3 
	BYTE	W06
	BYTE		        Bn3   v064
	BYTE	W06
	BYTE		        Gn3 
	BYTE	W06
	BYTE		        Fs3   v068
	BYTE	W06
	BYTE		        Gn3   v060
	BYTE	W06
	BYTE		        Bn3   v064
	BYTE	W06
	BYTE		        An3   v060
	BYTE	W06
	BYTE		        Gn3   v064
	BYTE	W06
	BYTE		        Fs3   v060
	BYTE	W06
	BYTE	PATT
	 POIN2	seq_068_0 + 0x3F
	BYTE	PATT
	 POIN2	seq_068_0 + 0x6C
	BYTE	PATT
	 POIN2	seq_068_0 + 0x9A
	BYTE	TEMPO   146/2
	BYTE		N06     Dn2   v072
	BYTE	W06
	BYTE		        Gn2   v064
	BYTE	W06
	BYTE		        Bn2 
	BYTE	W06
	BYTE		        Dn3   v060
	BYTE	W06
	BYTE		        Bn2   v064
	BYTE	W06
	BYTE		        Gn2 
	BYTE	W06
	BYTE		        Dn2   v072
	BYTE	W06
	BYTE		        Gn2   v064
	BYTE	W06
	BYTE		        En2   v068
	BYTE	W06
	BYTE		        Gn2   v064
	BYTE	W06
	BYTE		        Cn3 
	BYTE	W06
	BYTE		        En3   v056
	BYTE	W06
	BYTE		        Gn3   v052
	BYTE	W06
	BYTE		        En3   v056
	BYTE	W06
	BYTE		        Cn3   v064
	BYTE	W06
	BYTE		        Gn2 
	BYTE	W06
	BYTE	PEND
	BYTE		N06     Dn2   v072
	BYTE	W06
	BYTE		        Gn2   v060
	BYTE	W06
	BYTE		        Bn2 
	BYTE	W06
	BYTE		        Dn3   v056
	BYTE	W06
	BYTE		        Bn2   v060
	BYTE	W06
	BYTE		        Gn2 
	BYTE	W06
	BYTE		        Dn2   v072
	BYTE	W06
	BYTE		        Gn2   v060
	BYTE	W06
	BYTE		        Dn2   v072
	BYTE	W06
	BYTE		        Gn2   v060
	BYTE	W06
	BYTE		        Bn2 
	BYTE	W06
	BYTE		        Dn3   v056
	BYTE	W06
	BYTE		        Gn3   v048
	BYTE	W06
	BYTE		        Dn3   v056
	BYTE	W06
	BYTE		        Bn2   v060
	BYTE	W06
	BYTE		        Gn2 
	BYTE	W06
	BYTE	PEND
	BYTE		N06     En2   v064
	BYTE	W06
	BYTE		        Gn2 
	BYTE	W06
	BYTE		        Bn2 
	BYTE	W06
	BYTE		        En3   v056
	BYTE	W06
	BYTE		        Bn2   v064
	BYTE	W06
	BYTE		        Gn2 
	BYTE	W06
	BYTE		        En2 
	BYTE	W06
	BYTE		        Gn2 
	BYTE	W06
	BYTE		        En2 
	BYTE	W06
	BYTE		        Gn2 
	BYTE	W06
	BYTE		        Bn2 
	BYTE	W06
	BYTE		        En3   v056
	BYTE	W06
	BYTE		        Gn3   v048
	BYTE	W06
	BYTE		        En3   v056
	BYTE	W06
	BYTE		        Bn2   v064
	BYTE	W06
	BYTE		        Gn2 
	BYTE	W06
	BYTE	PEND
	BYTE		N06     En2   v064
	BYTE	W06
	BYTE		        Gn2   v060
	BYTE	W06
	BYTE		        Bn2 
	BYTE	W06
	BYTE		        En3   v052
	BYTE	W06
	BYTE		        Bn2   v060
	BYTE	W06
	BYTE		        Gn2 
	BYTE	W06
	BYTE		        En2   v064
	BYTE	W06
	BYTE		        Gn2   v060
	BYTE	W06
	BYTE		        En2   v064
	BYTE	W06
	BYTE		        Gn2   v060
	BYTE	W06
	BYTE		        Bn2 
	BYTE	W06
	BYTE		        En3   v052
	BYTE	W06
	BYTE		        Gn3   v048
	BYTE	W06
	BYTE		        En3   v052
	BYTE	W06
	BYTE		        Bn2   v060
	BYTE	W06
	BYTE		        Gn2 
	BYTE	W06
	BYTE	PEND
	BYTE		N06     Dn2   v072
	BYTE	W06
	BYTE		        Fs2   v068
	BYTE	W06
	BYTE		        Bn2   v064
	BYTE	W06
	BYTE		        Dn3 
	BYTE	W06
	BYTE		        Bn2 
	BYTE	W06
	BYTE		        Fs2   v068
	BYTE	W06
	BYTE		        Dn2   v072
	BYTE	W06
	BYTE		        Fs2   v068
	BYTE	W06
	BYTE		        Dn2   v072
	BYTE	W06
	BYTE		        Fs2   v068
	BYTE	W06
	BYTE		        Bn2   v064
	BYTE	W06
	BYTE		        Dn3 
	BYTE	W06
	BYTE		        Fs3   v056
	BYTE	W06
	BYTE		        Dn3   v064
	BYTE	W06
	BYTE		        Bn2 
	BYTE	W06
	BYTE		        Fs2   v068
	BYTE	W06
	BYTE	PEND
	BYTE		N06     Dn2   v068
	BYTE	W06
	BYTE		        Fs2   v064
	BYTE	W06
	BYTE		        Bn2 
	BYTE	W06
	BYTE		        Dn3   v060
	BYTE	W06
	BYTE		        Bn2   v064
	BYTE	W06
	BYTE		        Fs2 
	BYTE	W06
	BYTE		        Dn2   v068
	BYTE	W06
	BYTE		        Fs2   v064
	BYTE	W06
	BYTE		        Dn2   v068
	BYTE	W06
	BYTE		        Fs2   v064
	BYTE	W06
	BYTE		        Bn2 
	BYTE	W06
	BYTE		        Dn3   v060
	BYTE	W06
	BYTE		        Fs3 
	BYTE	W06
	BYTE		        Dn3   v064
	BYTE	W06
	BYTE		        Bn2 
	BYTE	W06
	BYTE		        Fs2   v068
	BYTE	W06
	BYTE	PEND
	BYTE		N06     Dn2   v072
	BYTE	W06
	BYTE		        Fs2   v068
	BYTE	W06
	BYTE		        An2   v064
	BYTE	W06
	BYTE		        Dn3 
	BYTE	W06
	BYTE		        An2 
	BYTE	W06
	BYTE		        Fs2   v068
	BYTE	W06
	BYTE		        Dn2   v072
	BYTE	W06
	BYTE		        Fs2   v068
	BYTE	W06
	BYTE		        Dn2   v072
	BYTE	W06
	BYTE		        Fs2   v068
	BYTE	W06
	BYTE		        An2   v064
	BYTE	W06
	BYTE		        Dn3 
	BYTE	W06
	BYTE		        Fs3   v056
	BYTE	W06
	BYTE		        Dn3   v064
	BYTE	W06
	BYTE		        An2 
	BYTE	W06
	BYTE		        Fs2   v068
	BYTE	W06
	BYTE	PEND
	BYTE		N11     Dn3   v072
	BYTE	W12
	BYTE		        An2   v068
	BYTE	W12
	BYTE		        Gn2   v072
	BYTE	W12
	BYTE		        Gs2   v080
	BYTE	W12
	BYTE		        An2 
	BYTE	W12
	BYTE		        Dn2   v072
	BYTE	W12
	BYTE	TEMPO   146/2
	BYTE		        En2   v080
	BYTE	W12
	BYTE		        Fs2   v084
	BYTE	W12
	BYTE	PEND
	BYTE	PATT
	 POIN2	seq_068_0 + 0x18E
	BYTE	PATT
	 POIN2	seq_068_0 + 0x1BE
	BYTE	PATT
	 POIN2	seq_068_0 + 0x1EC
	BYTE	PATT
	 POIN2	seq_068_0 + 0x215
	BYTE	PATT
	 POIN2	seq_068_0 + 0x243
	BYTE	PATT
	 POIN2	seq_068_0 + 0x271
	BYTE	PATT
	 POIN2	seq_068_0 + 0x29E
	BYTE		N05     Dn2   v076
	BYTE	W06
	BYTE		N06     Dn2   v036
	BYTE		N05     Fs2   v072
	BYTE	W06
	BYTE		N06     Fs2   v036
	BYTE		N05     An2   v068
	BYTE	W06
	BYTE		N06     An2   v036
	BYTE		N05     Dn3   v064
	BYTE	W06
	BYTE		        Fs2   v076
	BYTE		N06     Dn3   v036
	BYTE	W06
	BYTE		        Fs2 
	BYTE		N05     An2   v076
	BYTE	W06
	BYTE		N06     An2   v036
	BYTE		N05     Dn3   v072
	BYTE	W06
	BYTE		N06     Dn3   v036
	BYTE		N05     Fs3   v068
	BYTE	W06
	BYTE		        An2   v080
	BYTE		N06     Fs3   v036
	BYTE	W06
	BYTE		        An2 
	BYTE		N05     Dn3   v076
	BYTE	W06
	BYTE		N06     Dn3   v036
	BYTE		N05     Fs3   v072
	BYTE	W06
	BYTE		N06     Fs3   v036
	BYTE		N05     An3   v068
	BYTE	W06
	BYTE		        Dn3   v080
	BYTE		N06     An3   v036
	BYTE	W06
	BYTE		        Dn3 
	BYTE		N05     Fs3   v076
	BYTE	W06
	BYTE		N06     Fs3   v036
	BYTE		N05     An3   v072
	BYTE	W06
	BYTE		N06     An3   v036
	BYTE		N05     Bn3   v068
	BYTE	W06
	BYTE	TEMPO   148/2
	BYTE		N06     Bn3   v036
	BYTE		N48     Cn4   v060
	BYTE	W30
	BYTE		VOL     72*seq_068_mvl/mxv
	BYTE	W03
	BYTE		        70*seq_068_mvl/mxv
	BYTE	W03
	BYTE		        68*seq_068_mvl/mxv
	BYTE	W03
	BYTE		        67*seq_068_mvl/mxv
	BYTE	W03
	BYTE		        64*seq_068_mvl/mxv
	BYTE	W03
	BYTE		        62*seq_068_mvl/mxv
	BYTE	W03
	BYTE		        73*seq_068_mvl/mxv
	BYTE		N24     Bn3   v064
	BYTE	W24
	BYTE		        Cn4   v060
	BYTE	W24
	BYTE		N24     Bn3   v056
	BYTE	W24
	BYTE		N72     An3 
	BYTE	W42
	BYTE		VOL     72*seq_068_mvl/mxv
	BYTE	W06
	BYTE		        71*seq_068_mvl/mxv
	BYTE	W03
	BYTE		        69*seq_068_mvl/mxv
	BYTE	W03
	BYTE		        67*seq_068_mvl/mxv
	BYTE	W03
	BYTE		        64*seq_068_mvl/mxv
	BYTE	W03
	BYTE		        60*seq_068_mvl/mxv
	BYTE	W03
	BYTE		        56*seq_068_mvl/mxv
	BYTE	W03
	BYTE		        51*seq_068_mvl/mxv
	BYTE	W03
	BYTE		        45*seq_068_mvl/mxv
	BYTE	W03
	BYTE	PEND
	BYTE		VOL     73*seq_068_mvl/mxv
	BYTE		N06     Cn3   v060
	BYTE	W06
	BYTE		        En3   v056
	BYTE	W06
	BYTE		        An3   v052
	BYTE	W06
	BYTE		        Cn4 
	BYTE	W06
	BYTE		        En4   v048
	BYTE	W06
	BYTE		        Cn4   v052
	BYTE	W06
	BYTE		        An3 
	BYTE	W06
	BYTE		        En3 
	BYTE	W06
	BYTE		        En4   v048
	BYTE	W06
	BYTE		        Cn4   v052
	BYTE	W06
	BYTE		        An3 
	BYTE	W06
	BYTE		        En3 
	BYTE	W06
	BYTE		        Cn4   v044
	BYTE	W06
	BYTE		        An3   v048
	BYTE	W06
	BYTE		        En3   v052
	BYTE	W06
	BYTE		        Cn3   v048
	BYTE	W06
	BYTE	PEND
	BYTE		N06     An2   v060
	BYTE	W06
	BYTE		        Dn3 
	BYTE	W06
	BYTE		        Fs3 
	BYTE	W06
	BYTE		        An3 
	BYTE	W06
	BYTE		        Dn4   v052
	BYTE	W06
	BYTE		        An3 
	BYTE	W06
	BYTE		        Fs3 
	BYTE	W06
	BYTE		        Dn3 
	BYTE	W06
	BYTE		        Fs4   v060
	BYTE	W06
	BYTE		        Dn4   v052
	BYTE	W06
	BYTE		        An3 
	BYTE	W06
	BYTE		        Fs3 
	BYTE	W06
	BYTE		        Dn4   v044
	BYTE	W06
	BYTE		        An3   v048
	BYTE	W06
	BYTE		        Fs3   v052
	BYTE	W06
	BYTE		        Dn3   v048
	BYTE	W06
	BYTE	PEND
	BYTE		N48     Cn4   v068
	BYTE	W30
	BYTE		VOL     72*seq_068_mvl/mxv
	BYTE	W03
	BYTE		        70*seq_068_mvl/mxv
	BYTE	W03
	BYTE		        68*seq_068_mvl/mxv
	BYTE	W03
	BYTE		        67*seq_068_mvl/mxv
	BYTE	W03
	BYTE		        64*seq_068_mvl/mxv
	BYTE	W03
	BYTE		        62*seq_068_mvl/mxv
	BYTE	W03
	BYTE		        73*seq_068_mvl/mxv
	BYTE		N24     Bn3   v064
	BYTE	W24
	BYTE		        Cn4   v060
	BYTE	W24
	BYTE	PEND
	BYTE	PATT
	 POIN2	seq_068_0 + 0x38C
	BYTE	PATT
	 POIN2	seq_068_0 + 0x3A7
	BYTE	PATT
	 POIN2	seq_068_0 + 0x3D6
	BYTE		N48     Bn3   v052
	BYTE	W48
	BYTE		        An3   v056
	BYTE	W48
	BYTE		N48     Gs3   v060
	BYTE	W48
	BYTE		        Fs3   v056
	BYTE	W48
	BYTE	PEND
	BYTE		        En3 
	BYTE	W48
	BYTE		        Dn3   v052
	BYTE	W07
	BYTE	TEMPO   148/2
	BYTE	W40
	BYTE	W01
	BYTE		        Cs3   v044
	BYTE	W48
	BYTE		        Bn2 
	BYTE	W24
	BYTE	W03
	BYTE		VOL     71*seq_068_mvl/mxv
	BYTE	W03
	BYTE		        70*seq_068_mvl/mxv
	BYTE	W03
	BYTE		        69*seq_068_mvl/mxv
	BYTE	W03
	BYTE		        66*seq_068_mvl/mxv
	BYTE	W03
	BYTE		        61*seq_068_mvl/mxv
	BYTE	W03
	BYTE		        56*seq_068_mvl/mxv
	BYTE	W03
	BYTE		        49*seq_068_mvl/mxv
	BYTE	W03
	BYTE	TEMPO   146/2
	BYTE		VOL     73*seq_068_mvl/mxv
	BYTE		N06     Dn2   v072
	BYTE	W06
	BYTE		        Gn2   v064
	BYTE	W06
	BYTE		        Bn2 
	BYTE	W06
	BYTE		        Dn3   v060
	BYTE	W06
	BYTE		        Bn2   v064
	BYTE	W06
	BYTE		        Gn2 
	BYTE	W06
	BYTE		        Dn2   v072
	BYTE	W06
	BYTE		        Gn2   v064
	BYTE	W06
	BYTE		        En2   v068
	BYTE	W06
	BYTE		        Gn2   v064
	BYTE	W06
	BYTE		        Cn3 
	BYTE	W06
	BYTE		        En3   v056
	BYTE	W06
	BYTE		        Gn3   v052
	BYTE	W06
	BYTE		        En3   v056
	BYTE	W06
	BYTE		        Cn3   v064
	BYTE	W06
	BYTE		        Gn2 
	BYTE	W06
	BYTE	PEND
	BYTE	PATT
	 POIN2	seq_068_0 + 0x1BE
	BYTE	PATT
	 POIN2	seq_068_0 + 0x1EC
	BYTE	PATT
	 POIN2	seq_068_0 + 0x215
	BYTE	PATT
	 POIN2	seq_068_0 + 0x243
	BYTE	PATT
	 POIN2	seq_068_0 + 0x271
	BYTE	PATT
	 POIN2	seq_068_0 + 0x29E
	BYTE	PATT
	 POIN2	seq_068_0 + 0x2CC
	BYTE	PATT
	 POIN2	seq_068_0 + 0x18E
	BYTE	PATT
	 POIN2	seq_068_0 + 0x1BE
	BYTE	PATT
	 POIN2	seq_068_0 + 0x1EC
	BYTE	PATT
	 POIN2	seq_068_0 + 0x215
	BYTE	PATT
	 POIN2	seq_068_0 + 0x243
	BYTE	PATT
	 POIN2	seq_068_0 + 0x271
	BYTE	PATT
	 POIN2	seq_068_0 + 0x29E
	BYTE		N05     Dn2   v084
	BYTE	W06
	BYTE		N06     Dn2   v036
	BYTE		N05     Fs2   v080
	BYTE	W06
	BYTE		N06     Fs2   v036
	BYTE		N05     An2   v076
	BYTE	W06
	BYTE		N06     An2   v036
	BYTE		N05     Dn3   v072
	BYTE	W06
	BYTE		        Fs2   v088
	BYTE		N06     Dn3   v036
	BYTE	W06
	BYTE		        Fs2 
	BYTE		N05     An2   v084
	BYTE	W06
	BYTE		N06     An2   v036
	BYTE		N05     Dn3   v080
	BYTE	W06
	BYTE		N06     Dn3   v036
	BYTE		N05     Fs3   v076
	BYTE	W06
	BYTE		        An2   v088
	BYTE		N06     Fs3   v036
	BYTE	W06
	BYTE		        An2 
	BYTE		N05     Dn3   v084
	BYTE	W06
	BYTE		N06     Dn3   v036
	BYTE		N05     Fs3   v080
	BYTE	W06
	BYTE		N06     Fs3   v036
	BYTE		N05     An3   v076
	BYTE	W06
	BYTE		        Dn3   v088
	BYTE		N06     An3   v036
	BYTE	W06
	BYTE		        Dn3 
	BYTE		N05     Fs3   v084
	BYTE	W06
	BYTE		N06     Fs3   v036
	BYTE		N05     An3   v080
	BYTE	W06
	BYTE		N06     An3   v036
	BYTE		N05     Bn3   v076
	BYTE	W06
	BYTE	PEND
	BYTE	TEMPO   148/2
	BYTE		N06     Bn3   v036
	BYTE		N48     Cn4   v068
	BYTE	W30
	BYTE		VOL     72*seq_068_mvl/mxv
	BYTE	W03
	BYTE		        70*seq_068_mvl/mxv
	BYTE	W03
	BYTE		        68*seq_068_mvl/mxv
	BYTE	W03
	BYTE		        67*seq_068_mvl/mxv
	BYTE	W03
	BYTE		        64*seq_068_mvl/mxv
	BYTE	W03
	BYTE		        62*seq_068_mvl/mxv
	BYTE	W03
	BYTE		        73*seq_068_mvl/mxv
	BYTE		N24     Bn3   v064
	BYTE	W24
	BYTE		        Cn4   v060
	BYTE	W24
	BYTE	PEND
	BYTE	PATT
	 POIN2	seq_068_0 + 0x38C
	BYTE	PATT
	 POIN2	seq_068_0 + 0x3A7
	BYTE	PATT
	 POIN2	seq_068_0 + 0x3D6
	BYTE	PATT
	 POIN2	seq_068_0 + 0x400
	BYTE	PATT
	 POIN2	seq_068_0 + 0x38C
	BYTE	PATT
	 POIN2	seq_068_0 + 0x3A7
	BYTE	PATT
	 POIN2	seq_068_0 + 0x3D6
	BYTE	TEMPO   148/2
	BYTE		N48     Bn3   v052
	BYTE	W48
	BYTE		        An3   v056
	BYTE	W48
	BYTE	PATT
	 POIN2	seq_068_0 + 0x430
	BYTE		N48     En3   v056
	BYTE	W48
	BYTE		        Dn3   v052
	BYTE	W48
	BYTE	TEMPO   148/2
	BYTE		        Cs3   v044
	BYTE	W48
	BYTE		        Bn2 
	BYTE	W24
	BYTE	W03
	BYTE		VOL     71*seq_068_mvl/mxv
	BYTE	W03
	BYTE		        70*seq_068_mvl/mxv
	BYTE	W03
	BYTE		        69*seq_068_mvl/mxv
	BYTE	W03
	BYTE		        66*seq_068_mvl/mxv
	BYTE	W03
	BYTE		        61*seq_068_mvl/mxv
	BYTE	W03
	BYTE		        56*seq_068_mvl/mxv
	BYTE	W03
	BYTE		        49*seq_068_mvl/mxv
	BYTE	W03
	BYTE	PATT
	 POIN2	seq_068_0 + 0x456
	BYTE	PATT
	 POIN2	seq_068_0 + 0x1BE
	BYTE	PATT
	 POIN2	seq_068_0 + 0x1EC
	BYTE	PATT
	 POIN2	seq_068_0 + 0x215
	BYTE	PATT
	 POIN2	seq_068_0 + 0x243
	BYTE	PATT
	 POIN2	seq_068_0 + 0x271
	BYTE	PATT
	 POIN2	seq_068_0 + 0x29E
	BYTE	PATT
	 POIN2	seq_068_0 + 0x2CC
	BYTE	PATT
	 POIN2	seq_068_0 + 0x18E
	BYTE	PATT
	 POIN2	seq_068_0 + 0x1BE
	BYTE	PATT
	 POIN2	seq_068_0 + 0x1EC
	BYTE	PATT
	 POIN2	seq_068_0 + 0x215
	BYTE	PATT
	 POIN2	seq_068_0 + 0x243
	BYTE	PATT
	 POIN2	seq_068_0 + 0x271
	BYTE	PATT
	 POIN2	seq_068_0 + 0x29E
	BYTE	PATT
	 POIN2	seq_068_0 + 0x4CE
	BYTE	PATT
	 POIN2	seq_068_0 + 0x533
	BYTE	PATT
	 POIN2	seq_068_0 + 0x38C
	BYTE	PATT
	 POIN2	seq_068_0 + 0x3A7
	BYTE	PATT
	 POIN2	seq_068_0 + 0x3D6
	BYTE	PATT
	 POIN2	seq_068_0 + 0x400
	BYTE	PATT
	 POIN2	seq_068_0 + 0x38C
	BYTE	PATT
	 POIN2	seq_068_0 + 0x3A7
	BYTE	PATT
	 POIN2	seq_068_0 + 0x3D6
	BYTE	TEMPO   146/2
	BYTE		N48     Bn3   v052
	BYTE	W48
	BYTE	TEMPO   146/2
	BYTE		        An3   v056
	BYTE	W48
	BYTE	PATT
	 POIN2	seq_068_0 + 0x430
	BYTE	TEMPO   142/2
	BYTE		N48     En3   v056
	BYTE	W48
	BYTE	TEMPO   132/2
	BYTE		        Dn3   v052
	BYTE	W48
	BYTE	TEMPO   106/2
	BYTE		        Cs3   v044
	BYTE	W48
	BYTE	TEMPO   106/2
	BYTE		        Bn2 
	BYTE	W24
	BYTE	W03
	BYTE		VOL     71*seq_068_mvl/mxv
	BYTE	W03
	BYTE		        70*seq_068_mvl/mxv
	BYTE	W03
	BYTE		        69*seq_068_mvl/mxv
	BYTE	W03
	BYTE		        66*seq_068_mvl/mxv
	BYTE	W03
	BYTE		        61*seq_068_mvl/mxv
	BYTE	W03
	BYTE		        56*seq_068_mvl/mxv
	BYTE	W03
	BYTE		        49*seq_068_mvl/mxv
	BYTE	W03
	BYTE	TEMPO   98/2
	BYTE		        73*seq_068_mvl/mxv
	BYTE	W03
	BYTE	W92
	BYTE	W01
	BYTE	W96
	BYTE	W96
	BYTE	W92
	BYTE	W01
	BYTE	W01
	BYTE		PAN     c_v-24
	BYTE	W02
	BYTE		N48     Cs4   v048
	BYTE	W48
	BYTE		        Fs4   v044
	BYTE	W48
	BYTE		TIE     En4   v040
	BYTE	W90
	BYTE		VOL     72*seq_068_mvl/mxv
	BYTE	W06
	BYTE	W18
	BYTE		        72*seq_068_mvl/mxv
	BYTE	W06
	BYTE		        71*seq_068_mvl/mxv
	BYTE	W06
	BYTE		        70*seq_068_mvl/mxv
	BYTE	W06
	BYTE		        69*seq_068_mvl/mxv
	BYTE	W06
	BYTE		        68*seq_068_mvl/mxv
	BYTE	W06
	BYTE		        66*seq_068_mvl/mxv
	BYTE	W06
	BYTE		        65*seq_068_mvl/mxv
	BYTE	W06
	BYTE		        64*seq_068_mvl/mxv
	BYTE	W06
	BYTE		        62*seq_068_mvl/mxv
	BYTE	W06
	BYTE		        60*seq_068_mvl/mxv
	BYTE	W06
	BYTE		        58*seq_068_mvl/mxv
	BYTE	W06
	BYTE		        56*seq_068_mvl/mxv
	BYTE	W06
	BYTE		        53*seq_068_mvl/mxv
	BYTE	W06
	BYTE		        50*seq_068_mvl/mxv
	BYTE	W06
	BYTE		        48*seq_068_mvl/mxv
	BYTE	W06
	BYTE		        45*seq_068_mvl/mxv
	BYTE	W06
	BYTE		        42*seq_068_mvl/mxv
	BYTE	W06
	BYTE		        39*seq_068_mvl/mxv
	BYTE	W06
	BYTE		        36*seq_068_mvl/mxv
	BYTE	W06
	BYTE		        32*seq_068_mvl/mxv
	BYTE	W06
	BYTE		        28*seq_068_mvl/mxv
	BYTE	W06
	BYTE		        24*seq_068_mvl/mxv
	BYTE	W06
	BYTE		        20*seq_068_mvl/mxv
	BYTE	W06
	BYTE		        16*seq_068_mvl/mxv
	BYTE	W06
	BYTE		        12*seq_068_mvl/mxv
	BYTE	W06
	BYTE		        8*seq_068_mvl/mxv
	BYTE	W06
	BYTE		        4*seq_068_mvl/mxv
	BYTE	W06
	BYTE		        1*seq_068_mvl/mxv
	BYTE	W06
	BYTE		EOT
	BYTE	W03
	BYTE	W03
	BYTE	W96
	BYTE	W96
	BYTE	W96
	BYTE	W96
	BYTE	W96
	BYTE	W96
	BYTE	W96
	BYTE	W96
	BYTE	W96
	BYTE	W96
	BYTE	TEMPO   96/2
	BYTE	W84
	BYTE	W01
	BYTE		PAN     c_v-29
	BYTE	W05
	BYTE		VOL     8*seq_068_mvl/mxv
	BYTE	W06
	BYTE	TEMPO   94/2
	BYTE		N96     Dn3   v080
	BYTE	W06
	BYTE		VOL     9*seq_068_mvl/mxv
	BYTE	W06
	BYTE		        10*seq_068_mvl/mxv
	BYTE	W03
	BYTE		        12*seq_068_mvl/mxv
	BYTE	W03
	BYTE		        15*seq_068_mvl/mxv
	BYTE	W03
	BYTE		        18*seq_068_mvl/mxv
	BYTE	W03
	BYTE		        22*seq_068_mvl/mxv
	BYTE	W03
	BYTE		        26*seq_068_mvl/mxv
	BYTE	W03
	BYTE		        31*seq_068_mvl/mxv
	BYTE	W03
	BYTE		        37*seq_068_mvl/mxv
	BYTE	W03
	BYTE		        44*seq_068_mvl/mxv
	BYTE	W03
	BYTE		        51*seq_068_mvl/mxv
	BYTE	W03
	BYTE		        59*seq_068_mvl/mxv
	BYTE	W03
	BYTE		        68*seq_068_mvl/mxv
	BYTE	W03
	BYTE		        73*seq_068_mvl/mxv
	BYTE	W18
	BYTE		        72*seq_068_mvl/mxv
	BYTE	W06
	BYTE		        71*seq_068_mvl/mxv
	BYTE	W03
	BYTE		        70*seq_068_mvl/mxv
	BYTE	W03
	BYTE		        70*seq_068_mvl/mxv
	BYTE	W03
	BYTE		        68*seq_068_mvl/mxv
	BYTE	W01
	BYTE		        67*seq_068_mvl/mxv
	BYTE	W02
	BYTE		        66*seq_068_mvl/mxv
	BYTE	W01
	BYTE		        64*seq_068_mvl/mxv
	BYTE	W02
	BYTE		        61*seq_068_mvl/mxv
	BYTE	W01
	BYTE		        58*seq_068_mvl/mxv
	BYTE	W02
	BYTE		        53*seq_068_mvl/mxv
	BYTE	W01
	BYTE		        48*seq_068_mvl/mxv
	BYTE	W02
	BYTE		        42*seq_068_mvl/mxv
	BYTE	W01
	BYTE		        36*seq_068_mvl/mxv
	BYTE	W02
	BYTE	TEMPO   130/2
	BYTE		        73*seq_068_mvl/mxv
	BYTE		N05     Gn2 
	BYTE	W06
	BYTE		        Gn2   v012
	BYTE	W06
	BYTE		        Gn2   v008
	BYTE	W12
	BYTE		        As2   v076
	BYTE	W06
	BYTE		        As2   v012
	BYTE	W06
	BYTE		        As2   v008
	BYTE	W12
	BYTE		        Cn3   v068
	BYTE	W06
	BYTE		        Cn3   v012
	BYTE	W06
	BYTE		        Cn3   v008
	BYTE	W12
	BYTE		        As2   v068
	BYTE	W06
	BYTE		        As2   v012
	BYTE	W06
	BYTE		        As2   v008
	BYTE	W12
	BYTE		N05     Gn2   v068
	BYTE	W06
	BYTE		        Gn2   v012
	BYTE	W06
	BYTE		        Gn2   v008
	BYTE	W12
	BYTE		        As2   v064
	BYTE	W06
	BYTE		        As2   v012
	BYTE	W06
	BYTE		        As2   v008
	BYTE	W12
	BYTE		        Cn3   v060
	BYTE	W06
	BYTE		        Cn3   v012
	BYTE	W06
	BYTE		        Cn3   v008
	BYTE	W12
	BYTE		        As2   v056
	BYTE	W06
	BYTE		        As2   v012
	BYTE	W06
	BYTE		        As2   v008
	BYTE	W12
	BYTE	PEND
	BYTE		        Gn2   v080
	BYTE	W06
	BYTE		        Gn2   v012
	BYTE	W06
	BYTE		        Gn2   v008
	BYTE	W12
	BYTE		        As2   v076
	BYTE	W06
	BYTE		        As2   v012
	BYTE	W06
	BYTE		        As2   v008
	BYTE	W12
	BYTE		        Cn3   v068
	BYTE	W06
	BYTE		        Cn3   v012
	BYTE	W06
	BYTE		        Cn3   v008
	BYTE	W12
	BYTE		        As2   v068
	BYTE	W06
	BYTE		        As2   v012
	BYTE	W06
	BYTE		        As2   v008
	BYTE	W12
	BYTE	PATT
	 POIN2	seq_068_0 + 0x71F
	BYTE		N05     Gn2   v076
	BYTE	W06
	BYTE		        Gn2   v012
	BYTE	W06
	BYTE		        Gn2   v008
	BYTE	W12
	BYTE		        As2   v072
	BYTE	W06
	BYTE		        As2   v012
	BYTE	W06
	BYTE		        As2   v008
	BYTE	W12
	BYTE		        Cn3   v064
	BYTE	W06
	BYTE		        Cn3   v012
	BYTE	W06
	BYTE		        Cn3   v008
	BYTE	W12
	BYTE		        As2   v060
	BYTE	W06
	BYTE		        As2   v012
	BYTE	W06
	BYTE		        As2   v008
	BYTE	W12
	BYTE	PEND
	BYTE		N05     Gn2   v064
	BYTE	W06
	BYTE		        Gn2   v012
	BYTE	W06
	BYTE		        Gn2   v008
	BYTE	W12
	BYTE		        As2   v060
	BYTE	W06
	BYTE		        As2   v012
	BYTE	W06
	BYTE		        As2   v008
	BYTE	W12
	BYTE		        Cn3   v056
	BYTE	W06
	BYTE		        Cn3   v012
	BYTE	W06
	BYTE		        Cn3   v008
	BYTE	W12
	BYTE		        As2   v052
	BYTE	W06
	BYTE		        As2   v012
	BYTE	W06
	BYTE		        As2   v008
	BYTE	W12
	BYTE	PEND
	BYTE	PATT
	 POIN2	seq_068_0 + 0x76E
	BYTE	PATT
	 POIN2	seq_068_0 + 0x794
	BYTE	TEMPO   128/2
	BYTE		N05     Gn2   v076
	BYTE	W06
	BYTE		        Gn2   v012
	BYTE	W06
	BYTE		        Gn2   v008
	BYTE	W12
	BYTE		        As2   v072
	BYTE	W06
	BYTE		        As2   v012
	BYTE	W06
	BYTE		        As2   v008
	BYTE	W12
	BYTE		        Cn3   v064
	BYTE	W06
	BYTE		        Cn3   v012
	BYTE	W06
	BYTE		        Cn3   v008
	BYTE	W12
	BYTE		        As2   v060
	BYTE	W06
	BYTE		        As2   v012
	BYTE	W06
	BYTE		        As2   v008
	BYTE	W12
	BYTE	PEND
	BYTE	PATT
	 POIN2	seq_068_0 + 0x794
	BYTE	TEMPO   130/2
	BYTE		N05     Gn2   v076
	BYTE	W06
	BYTE		        Gn2   v012
	BYTE	W06
	BYTE		        Gn2   v008
	BYTE	W12
	BYTE		        As2   v072
	BYTE	W06
	BYTE		        As2   v012
	BYTE	W06
	BYTE		        As2   v008
	BYTE	W12
	BYTE		        Cn3   v064
	BYTE	W06
	BYTE		        Cn3   v012
	BYTE	W06
	BYTE		        Cn3   v008
	BYTE	W12
	BYTE		        As2   v060
	BYTE	W06
	BYTE		        As2   v012
	BYTE	W06
	BYTE		        As2   v008
	BYTE	W12
	BYTE	PATT
	 POIN2	seq_068_0 + 0x794
	BYTE	PATT
	 POIN2	seq_068_0 + 0x76E
	BYTE	PATT
	 POIN2	seq_068_0 + 0x794
	BYTE	PATT
	 POIN2	seq_068_0 + 0x7C4
	BYTE	PATT
	 POIN2	seq_068_0 + 0x794
	BYTE	W96
	BYTE	W96
	BYTE	W96
	BYTE	W96
	BYTE	W96
	BYTE	W96
	BYTE	W96
	BYTE	W96
	BYTE	TEMPO   134/2
	BYTE		N06     Fn2   v084
	BYTE	W08
	BYTE		        Fn2   v028
	BYTE	W08
	BYTE		        Fn2   v016
	BYTE	W08
	BYTE		N08     As2   v084
	BYTE	W08
	BYTE		        Fn2   v080
	BYTE	W08
	BYTE		        As2 
	BYTE	W08
	BYTE		        Dn3   v084
	BYTE	W08
	BYTE		        An2   v076
	BYTE	W08
	BYTE		        Dn3 
	BYTE	W08
	BYTE		N24     Fn3   v068
	BYTE	W09
	BYTE		VOL     71*seq_068_mvl/mxv
	BYTE	W03
	BYTE		        70*seq_068_mvl/mxv
	BYTE	W03
	BYTE		        67*seq_068_mvl/mxv
	BYTE	W03
	BYTE		        62*seq_068_mvl/mxv
	BYTE	W03
	BYTE		        54*seq_068_mvl/mxv
	BYTE	W03
	BYTE		VOL     73*seq_068_mvl/mxv
	BYTE		N06     En2   v080
	BYTE	W08
	BYTE		        En2   v028
	BYTE	W08
	BYTE		        En2   v016
	BYTE	W08
	BYTE		N08     Gn2   v080
	BYTE	W08
	BYTE		        En2   v076
	BYTE	W08
	BYTE		        Gn2   v072
	BYTE	W08
	BYTE		        Cn3   v080
	BYTE	W08
	BYTE		        Gn2   v072
	BYTE	W08
	BYTE		        Cn3 
	BYTE	W08
	BYTE		N24     En3   v064
	BYTE	W09
	BYTE		VOL     71*seq_068_mvl/mxv
	BYTE	W03
	BYTE		        70*seq_068_mvl/mxv
	BYTE	W03
	BYTE		        67*seq_068_mvl/mxv
	BYTE	W03
	BYTE		        62*seq_068_mvl/mxv
	BYTE	W06
	BYTE	PEND
	BYTE		VOL     73*seq_068_mvl/mxv
	BYTE		N06     Fn2   v084
	BYTE	W08
	BYTE		        Fn2   v028
	BYTE	W08
	BYTE		        Fn2   v016
	BYTE	W08
	BYTE		N08     As2   v084
	BYTE	W08
	BYTE		        Fn2   v080
	BYTE	W08
	BYTE		        As2 
	BYTE	W08
	BYTE		        Cs3   v084
	BYTE	W08
	BYTE		        As2   v076
	BYTE	W08
	BYTE		        Cs3 
	BYTE	W08
	BYTE		N24     Fn3   v068
	BYTE	W09
	BYTE		VOL     71*seq_068_mvl/mxv
	BYTE	W03
	BYTE		        70*seq_068_mvl/mxv
	BYTE	W03
	BYTE		        67*seq_068_mvl/mxv
	BYTE	W03
	BYTE		        62*seq_068_mvl/mxv
	BYTE	W03
	BYTE		        54*seq_068_mvl/mxv
	BYTE	W03
	BYTE	PEND
	BYTE		VOL     73*seq_068_mvl/mxv
	BYTE		N06     Gn2   v088
	BYTE	W08
	BYTE		        Gn2   v028
	BYTE	W08
	BYTE		        Gn2   v016
	BYTE	W08
	BYTE		N08     As2   v088
	BYTE	W08
	BYTE		        Gn2   v084
	BYTE	W08
	BYTE		        As2   v080
	BYTE	W08
	BYTE		        Ds3   v088
	BYTE	W08
	BYTE		        As2   v080
	BYTE	W08
	BYTE		        Ds3 
	BYTE	W08
	BYTE		N24     Gn3   v072
	BYTE	W09
	BYTE		VOL     71*seq_068_mvl/mxv
	BYTE	W03
	BYTE		        70*seq_068_mvl/mxv
	BYTE	W03
	BYTE		        67*seq_068_mvl/mxv
	BYTE	W03
	BYTE		        62*seq_068_mvl/mxv
	BYTE	W03
	BYTE		        54*seq_068_mvl/mxv
	BYTE	W03
	BYTE	PEND
	BYTE		VOL     73*seq_068_mvl/mxv
	BYTE		N12     Fn3   v076
	BYTE	W12
	BYTE		N04     En3 
	BYTE	W04
	BYTE		        Ds3   v072
	BYTE	W04
	BYTE		        Dn3   v068
	BYTE	W04
	BYTE		        Cs3   v064
	BYTE	W06
	BYTE		        Cs3   v028
	BYTE	W06
	BYTE		        Fn3   v064
	BYTE	W06
	BYTE		        Fn3   v028
	BYTE	W06
	BYTE		        As3   v072
	BYTE	W06
	BYTE		        As3   v028
	BYTE	W06
	BYTE		        Fn3   v060
	BYTE	W06
	BYTE		        Fn3   v028
	BYTE	W06
	BYTE		        Cs3   v068
	BYTE	W06
	BYTE		        Cs3   v028
	BYTE	W06
	BYTE		        Fn3   v072
	BYTE	W06
	BYTE		        Fn3   v028
	BYTE	W06
	BYTE	PEND
	BYTE		N12     Gn3   v076
	BYTE	W12
	BYTE		N04     Fs3 
	BYTE	W04
	BYTE		        Fn3   v072
	BYTE	W04
	BYTE		        En3   v068
	BYTE	W04
	BYTE		        Ds3   v064
	BYTE	W06
	BYTE		        Ds3   v028
	BYTE	W06
	BYTE		        Gn3   v064
	BYTE	W06
	BYTE		        Gn3   v028
	BYTE	W06
	BYTE		N12     As3   v072
	BYTE	W12
	BYTE		N06     Gn3 
	BYTE	W06
	BYTE		        Ds3 
	BYTE	W06
	BYTE		        As2   v080
	BYTE	W06
	BYTE		        Gn2   v076
	BYTE	W06
	BYTE		        Ds2   v080
	BYTE	W06
	BYTE		        As1   v072
	BYTE	W06
	BYTE	PEND
	BYTE		N12     Fn3   v076
	BYTE	W12
	BYTE		N04     En3 
	BYTE	W04
	BYTE		        Ds3   v072
	BYTE	W04
	BYTE		        Dn3   v068
	BYTE	W04
	BYTE		        Cs3   v064
	BYTE	W06
	BYTE		        Cs3   v028
	BYTE	W06
	BYTE		        Fn3   v064
	BYTE	W06
	BYTE		        Fn3   v028
	BYTE	W06
	BYTE		        Gs3   v072
	BYTE	W06
	BYTE		        Gs3   v028
	BYTE	W06
	BYTE		        Fn3   v060
	BYTE	W06
	BYTE		        Fn3   v028
	BYTE	W06
	BYTE		        Cs3   v068
	BYTE	W06
	BYTE		        Cs3   v028
	BYTE	W06
	BYTE		        Fn3   v072
	BYTE	W06
	BYTE		        Fn3   v028
	BYTE	W06
	BYTE	PEND
	BYTE	PATT
	 POIN2	seq_068_0 + 0x920
	BYTE		N06     Fn2   v084
	BYTE	W08
	BYTE		        Fn2   v028
	BYTE	W08
	BYTE		        Fn2   v016
	BYTE	W08
	BYTE		N08     As2   v084
	BYTE	W08
	BYTE		        Fn2   v080
	BYTE	W08
	BYTE		        As2 
	BYTE	W08
	BYTE		        Dn3   v084
	BYTE	W08
	BYTE		        An2   v076
	BYTE	W08
	BYTE		        Dn3 
	BYTE	W08
	BYTE		N24     Fn3   v068
	BYTE	W24
	BYTE	PEND
	BYTE		N06     En2   v080
	BYTE	W08
	BYTE		        En2   v028
	BYTE	W08
	BYTE		        En2   v016
	BYTE	W08
	BYTE		N08     Gn2   v080
	BYTE	W08
	BYTE		        En2   v076
	BYTE	W08
	BYTE		        Gn2   v072
	BYTE	W08
	BYTE		        Cn3   v080
	BYTE	W08
	BYTE		        Gn2   v072
	BYTE	W08
	BYTE		        Cn3 
	BYTE	W08
	BYTE		N24     En3   v064
	BYTE	W24
	BYTE	PEND
	BYTE		N06     Fn2   v084
	BYTE	W08
	BYTE		        Fn2   v028
	BYTE	W08
	BYTE		        Fn2   v016
	BYTE	W08
	BYTE		N08     As2   v084
	BYTE	W08
	BYTE		        Fn2   v080
	BYTE	W08
	BYTE		        As2 
	BYTE	W08
	BYTE		        Cs3   v084
	BYTE	W08
	BYTE		        As2   v076
	BYTE	W08
	BYTE		        Cs3 
	BYTE	W08
	BYTE		N24     Fn3   v068
	BYTE	W24
	BYTE	PEND
	BYTE		N06     Gn2   v088
	BYTE	W08
	BYTE		        Gn2   v028
	BYTE	W08
	BYTE		        Gn2   v016
	BYTE	W08
	BYTE		N08     As2   v088
	BYTE	W08
	BYTE		        Gn2   v084
	BYTE	W08
	BYTE		        As2   v080
	BYTE	W08
	BYTE		        Ds3   v088
	BYTE	W08
	BYTE		        As2   v080
	BYTE	W08
	BYTE		        Ds3 
	BYTE	W08
	BYTE		N24     Gn3   v072
	BYTE	W24
	BYTE	PEND
	BYTE		N24     Fn3   v060
	BYTE	W24
	BYTE		        Ds3   v064
	BYTE	W24
	BYTE		        Cs3   v072
	BYTE	W24
	BYTE		        Fn3   v064
	BYTE	W24
	BYTE	PEND
	BYTE		N24     Gn3   v068
	BYTE	W24
	BYTE		        Fn3 
	BYTE	W24
	BYTE		        Ds3   v076
	BYTE	W24
	BYTE		        Gn3   v064
	BYTE	W24
	BYTE	PEND
	BYTE		VOL     73*seq_068_mvl/mxv
	BYTE		N72     Fn3   v060
	BYTE	W03
	BYTE		VOL     73*seq_068_mvl/mxv
	BYTE	W03
	BYTE		        74*seq_068_mvl/mxv
	BYTE	W06
	BYTE		        74*seq_068_mvl/mxv
	BYTE	W03
	BYTE		        75*seq_068_mvl/mxv
	BYTE	W03
	BYTE		        77*seq_068_mvl/mxv
	BYTE	W03
	BYTE		        78*seq_068_mvl/mxv
	BYTE	W03
	BYTE		        78*seq_068_mvl/mxv
	BYTE	W09
	BYTE		        77*seq_068_mvl/mxv
	BYTE	W03
	BYTE		        76*seq_068_mvl/mxv
	BYTE	W03
	BYTE		        75*seq_068_mvl/mxv
	BYTE	W03
	BYTE		        74*seq_068_mvl/mxv
	BYTE	W03
	BYTE		        72*seq_068_mvl/mxv
	BYTE	W03
	BYTE		        70*seq_068_mvl/mxv
	BYTE	W03
	BYTE		        68*seq_068_mvl/mxv
	BYTE	W03
	BYTE		        66*seq_068_mvl/mxv
	BYTE	W03
	BYTE		        63*seq_068_mvl/mxv
	BYTE	W03
	BYTE		        61*seq_068_mvl/mxv
	BYTE	W03
	BYTE		        58*seq_068_mvl/mxv
	BYTE	W03
	BYTE		        54*seq_068_mvl/mxv
	BYTE	W03
	BYTE		        51*seq_068_mvl/mxv
	BYTE	W03
	BYTE		        73*seq_068_mvl/mxv
	BYTE		N24     As3   v052
	BYTE	W24
	BYTE	PEND
	BYTE		N92     Cn4   v056
	BYTE	W32
	BYTE	W01
	BYTE		VOL     71*seq_068_mvl/mxv
	BYTE	W06
	BYTE		        70*seq_068_mvl/mxv
	BYTE	W03
	BYTE		        70*seq_068_mvl/mxv
	BYTE	W03
	BYTE		        68*seq_068_mvl/mxv
	BYTE	W03
	BYTE		        67*seq_068_mvl/mxv
	BYTE	W03
	BYTE		        65*seq_068_mvl/mxv
	BYTE	W03
	BYTE		        62*seq_068_mvl/mxv
	BYTE	W03
	BYTE		        60*seq_068_mvl/mxv
	BYTE	W03
	BYTE		        57*seq_068_mvl/mxv
	BYTE	W03
	BYTE		        53*seq_068_mvl/mxv
	BYTE	W03
	BYTE		        50*seq_068_mvl/mxv
	BYTE	W03
	BYTE		        45*seq_068_mvl/mxv
	BYTE	W03
	BYTE		        41*seq_068_mvl/mxv
	BYTE	W03
	BYTE		        36*seq_068_mvl/mxv
	BYTE	W03
	BYTE		        30*seq_068_mvl/mxv
	BYTE	W03
	BYTE		        25*seq_068_mvl/mxv
	BYTE	W03
	BYTE		        19*seq_068_mvl/mxv
	BYTE	W03
	BYTE		        12*seq_068_mvl/mxv
	BYTE	W03
	BYTE		        6*seq_068_mvl/mxv
	BYTE	W03
	BYTE		        2*seq_068_mvl/mxv
	BYTE	W03
	BYTE	PEND
	BYTE	TEMPO   134/2
	BYTE		VOL     73*seq_068_mvl/mxv
	BYTE		TIE     Cs3   v060
	BYTE	W12
	BYTE		VOL     74*seq_068_mvl/mxv
	BYTE	W06
	BYTE		        74*seq_068_mvl/mxv
	BYTE	W36
	BYTE		        75*seq_068_mvl/mxv
	BYTE	W18
	BYTE		        76*seq_068_mvl/mxv
	BYTE	W18
	BYTE		        77*seq_068_mvl/mxv
	BYTE	W06
	BYTE	PEND
	BYTE	W06
	BYTE		VOL     78*seq_068_mvl/mxv
	BYTE	W24
	BYTE		        76*seq_068_mvl/mxv
	BYTE	W06
	BYTE		        75*seq_068_mvl/mxv
	BYTE	W06
	BYTE		        73*seq_068_mvl/mxv
	BYTE	W06
	BYTE		        70*seq_068_mvl/mxv
	BYTE	W06
	BYTE		        68*seq_068_mvl/mxv
	BYTE	W06
	BYTE		        64*seq_068_mvl/mxv
	BYTE	W06
	BYTE		        60*seq_068_mvl/mxv
	BYTE	W06
	BYTE		        55*seq_068_mvl/mxv
	BYTE	W06
	BYTE		        49*seq_068_mvl/mxv
	BYTE	W06
	BYTE		        43*seq_068_mvl/mxv
	BYTE	W06
	BYTE		        37*seq_068_mvl/mxv
	BYTE	W06
	BYTE	PEND
	BYTE		EOT     Cs3 
	BYTE		VOL     73*seq_068_mvl/mxv
	BYTE		TIE     Ds3   v060
	BYTE	W12
	BYTE		VOL     74*seq_068_mvl/mxv
	BYTE	W06
	BYTE		        74*seq_068_mvl/mxv
	BYTE	W36
	BYTE		        75*seq_068_mvl/mxv
	BYTE	W18
	BYTE		        76*seq_068_mvl/mxv
	BYTE	W18
	BYTE		        77*seq_068_mvl/mxv
	BYTE	W06
	BYTE	PEND
	BYTE	PATT
	 POIN2	seq_068_0 + 0xA9B
	BYTE		EOT     Ds3 
	BYTE		VOL     73*seq_068_mvl/mxv
	BYTE		N05     Cs2   v112
	BYTE	W12
	BYTE		        En2   v104
	BYTE	W12
	BYTE		N24     Ds2   v100
	BYTE	W12
	BYTE		VOL     72*seq_068_mvl/mxv
	BYTE	W03
	BYTE		        72*seq_068_mvl/mxv
	BYTE	W03
	BYTE		        68*seq_068_mvl/mxv
	BYTE	W03
	BYTE		        62*seq_068_mvl/mxv
	BYTE	W03
	BYTE		        73*seq_068_mvl/mxv
	BYTE		N05     Cs2   v116
	BYTE	W12
	BYTE		        En2   v108
	BYTE	W12
	BYTE		N12     Ds2   v116
	BYTE	W12
	BYTE		N06     Cs2   v108
	BYTE	W06
	BYTE		        Bn1   v104
	BYTE	W06
	BYTE	PEND
	BYTE		N12     Cs2   v120
	BYTE	W12
	BYTE		N06     Ds2 
	BYTE	W06
	BYTE		        En2   v127
	BYTE	W06
	BYTE		N05     Ds2   v120
	BYTE	W12
	BYTE		        Bn1   v100
	BYTE	W12
	BYTE		N11     Cs2   v112
	BYTE	W12
	BYTE		N06     Cs2   v108
	BYTE	W06
	BYTE		        Bn1 
	BYTE	W06
	BYTE		        Cs2   v112
	BYTE	W06
	BYTE		        Ds2   v120
	BYTE	W06
	BYTE		        En2   v124
	BYTE	W06
	BYTE		        Fs2 
	BYTE	W06
	BYTE	PEND
	BYTE		N05     Gn2   v104
	BYTE	W12
	BYTE		        As2   v096
	BYTE	W12
	BYTE		N24     An2   v092
	BYTE	W24
	BYTE		N05     Gn2   v108
	BYTE	W12
	BYTE		        As2   v100
	BYTE	W12
	BYTE		N12     An2   v104
	BYTE	W12
	BYTE		N06     Gn2   v100
	BYTE	W06
	BYTE		        Fn2   v096
	BYTE	W06
	BYTE	PEND
	BYTE		N12     Gn2   v096
	BYTE	W12
	BYTE		N06     An2   v100
	BYTE	W06
	BYTE		        As2   v104
	BYTE	W06
	BYTE		N05     An2   v096
	BYTE	W12
	BYTE		        Fn2   v092
	BYTE	W12
	BYTE		N11     Gn2   v096
	BYTE	W12
	BYTE		N06
	BYTE	W06
	BYTE		        Fn2   v088
	BYTE	W06
	BYTE		        Gn2   v096
	BYTE	W06
	BYTE		        An2 
	BYTE	W06
	BYTE		        As2   v100
	BYTE	W06
	BYTE		        Cn3   v108
	BYTE	W06
	BYTE	PEND
	BYTE		N84     Cs3   v080
	BYTE	W48
	BYTE		VOL     72*seq_068_mvl/mxv
	BYTE	W09
	BYTE		        71*seq_068_mvl/mxv
	BYTE	W03
	BYTE		        70*seq_068_mvl/mxv
	BYTE	W03
	BYTE		        68*seq_068_mvl/mxv
	BYTE	W03
	BYTE		        66*seq_068_mvl/mxv
	BYTE	W03
	BYTE		        64*seq_068_mvl/mxv
	BYTE	W03
	BYTE		        61*seq_068_mvl/mxv
	BYTE	W03
	BYTE		        58*seq_068_mvl/mxv
	BYTE	W03
	BYTE		        55*seq_068_mvl/mxv
	BYTE	W03
	BYTE		        53*seq_068_mvl/mxv
	BYTE	W03
	BYTE		        73*seq_068_mvl/mxv
	BYTE		N06     Cn3   v084
	BYTE	W06
	BYTE		        Cs3   v088
	BYTE	W06
	BYTE	PEND
	BYTE		N84     Ds3   v084
	BYTE	W48
	BYTE		VOL     72*seq_068_mvl/mxv
	BYTE	W09
	BYTE		        71*seq_068_mvl/mxv
	BYTE	W03
	BYTE		        70*seq_068_mvl/mxv
	BYTE	W03
	BYTE		        68*seq_068_mvl/mxv
	BYTE	W03
	BYTE		        66*seq_068_mvl/mxv
	BYTE	W03
	BYTE		        64*seq_068_mvl/mxv
	BYTE	W03
	BYTE		        61*seq_068_mvl/mxv
	BYTE	W03
	BYTE		        58*seq_068_mvl/mxv
	BYTE	W03
	BYTE		        55*seq_068_mvl/mxv
	BYTE	W03
	BYTE		        53*seq_068_mvl/mxv
	BYTE	W03
	BYTE		        73*seq_068_mvl/mxv
	BYTE		N06     Cs3 
	BYTE	W06
	BYTE		        Ds3   v088
	BYTE	W06
	BYTE	PEND
	BYTE		TIE     Fn3   v088
	BYTE	W21
	BYTE		VOL     74*seq_068_mvl/mxv
	BYTE	W09
	BYTE		        74*seq_068_mvl/mxv
	BYTE	W03
	BYTE		        75*seq_068_mvl/mxv
	BYTE	W06
	BYTE		        76*seq_068_mvl/mxv
	BYTE	W03
	BYTE		        76*seq_068_mvl/mxv
	BYTE	W03
	BYTE		        77*seq_068_mvl/mxv
	BYTE	W03
	BYTE		        78*seq_068_mvl/mxv
	BYTE	W03
	BYTE		        79*seq_068_mvl/mxv
	BYTE	W03
	BYTE		        80*seq_068_mvl/mxv
	BYTE	W06
	BYTE		        79*seq_068_mvl/mxv
	BYTE	W15
	BYTE		        78*seq_068_mvl/mxv
	BYTE	W06
	BYTE		        78*seq_068_mvl/mxv
	BYTE	W03
	BYTE		        77*seq_068_mvl/mxv
	BYTE	W03
	BYTE		        76*seq_068_mvl/mxv
	BYTE	W03
	BYTE		        76*seq_068_mvl/mxv
	BYTE	W03
	BYTE		        75*seq_068_mvl/mxv
	BYTE	W03
	BYTE	PEND
	BYTE		VOL     74*seq_068_mvl/mxv
	BYTE	W03
	BYTE		        73*seq_068_mvl/mxv
	BYTE	W03
	BYTE		        72*seq_068_mvl/mxv
	BYTE	W03
	BYTE		        71*seq_068_mvl/mxv
	BYTE	W03
	BYTE		        70*seq_068_mvl/mxv
	BYTE	W03
	BYTE		        68*seq_068_mvl/mxv
	BYTE	W03
	BYTE		        67*seq_068_mvl/mxv
	BYTE	W03
	BYTE		        66*seq_068_mvl/mxv
	BYTE	W03
	BYTE		        64*seq_068_mvl/mxv
	BYTE	W03
	BYTE		        63*seq_068_mvl/mxv
	BYTE	W03
	BYTE		        61*seq_068_mvl/mxv
	BYTE	W03
	BYTE		        60*seq_068_mvl/mxv
	BYTE	W03
	BYTE		        58*seq_068_mvl/mxv
	BYTE	W03
	BYTE		        56*seq_068_mvl/mxv
	BYTE	W03
	BYTE		        54*seq_068_mvl/mxv
	BYTE	W03
	BYTE		        52*seq_068_mvl/mxv
	BYTE	W03
	BYTE		        50*seq_068_mvl/mxv
	BYTE	W03
	BYTE		        48*seq_068_mvl/mxv
	BYTE	W03
	BYTE		        46*seq_068_mvl/mxv
	BYTE	W03
	BYTE		        43*seq_068_mvl/mxv
	BYTE	W03
	BYTE		        41*seq_068_mvl/mxv
	BYTE	W03
	BYTE		        38*seq_068_mvl/mxv
	BYTE	W03
	BYTE		        36*seq_068_mvl/mxv
	BYTE	W03
	BYTE		        34*seq_068_mvl/mxv
	BYTE	W03
	BYTE		        30*seq_068_mvl/mxv
	BYTE	W03
	BYTE		        28*seq_068_mvl/mxv
	BYTE	W03
	BYTE		        25*seq_068_mvl/mxv
	BYTE	W03
	BYTE		        22*seq_068_mvl/mxv
	BYTE	W03
	BYTE		        19*seq_068_mvl/mxv
	BYTE	W03
	BYTE		        16*seq_068_mvl/mxv
	BYTE	W03
	BYTE		        13*seq_068_mvl/mxv
	BYTE	W03
	BYTE	PEND
	BYTE		EOT     Fn3 
	BYTE	W03
	BYTE	TEMPO   134/2
	BYTE		VOL     73*seq_068_mvl/mxv
	BYTE		N06     Fn2   v084
	BYTE	W08
	BYTE		        Fn2   v028
	BYTE	W08
	BYTE		        Fn2   v016
	BYTE	W08
	BYTE		N08     As2   v084
	BYTE	W08
	BYTE		        Fn2   v080
	BYTE	W08
	BYTE		        As2 
	BYTE	W08
	BYTE		        Dn3   v084
	BYTE	W08
	BYTE		        An2   v076
	BYTE	W08
	BYTE		        Dn3 
	BYTE	W08
	BYTE		N24     Fn3   v068
	BYTE	W09
	BYTE		VOL     71*seq_068_mvl/mxv
	BYTE	W03
	BYTE		        70*seq_068_mvl/mxv
	BYTE	W03
	BYTE		        67*seq_068_mvl/mxv
	BYTE	W03
	BYTE		        62*seq_068_mvl/mxv
	BYTE	W03
	BYTE		        54*seq_068_mvl/mxv
	BYTE	W03
	BYTE	PEND
	BYTE	PATT
	 POIN2	seq_068_0 + 0x865
	BYTE	PATT
	 POIN2	seq_068_0 + 0x891
	BYTE	PATT
	 POIN2	seq_068_0 + 0x8BE
	BYTE	PATT
	 POIN2	seq_068_0 + 0x8EC
	BYTE	PATT
	 POIN2	seq_068_0 + 0x920
	BYTE	PATT
	 POIN2	seq_068_0 + 0x94F
	BYTE	PATT
	 POIN2	seq_068_0 + 0x920
	BYTE	PATT
	 POIN2	seq_068_0 + 0x986
	BYTE	PATT
	 POIN2	seq_068_0 + 0x9A6
	BYTE	PATT
	 POIN2	seq_068_0 + 0x9C7
	BYTE	PATT
	 POIN2	seq_068_0 + 0x9E7
	BYTE	PATT
	 POIN2	seq_068_0 + 0xA08
	BYTE	PATT
	 POIN2	seq_068_0 + 0xA16
	BYTE	PATT
	 POIN2	seq_068_0 + 0xA23
	BYTE	PATT
	 POIN2	seq_068_0 + 0xA58
	BYTE	PATT
	 POIN2	seq_068_0 + 0xA87
	BYTE	PATT
	 POIN2	seq_068_0 + 0xA9B
	BYTE		EOT     Cs3 
	BYTE	PATT
	 POIN2	seq_068_0 + 0xAB8
	BYTE	PATT
	 POIN2	seq_068_0 + 0xA9B
	BYTE		EOT     Ds3 
	BYTE	PATT
	 POIN2	seq_068_0 + 0xAD1
	BYTE	PATT
	 POIN2	seq_068_0 + 0xAFB
	BYTE	PATT
	 POIN2	seq_068_0 + 0xB22
	BYTE	PATT
	 POIN2	seq_068_0 + 0xB40
	BYTE	PATT
	 POIN2	seq_068_0 + 0xB67
	BYTE	PATT
	 POIN2	seq_068_0 + 0xB89
	BYTE	PATT
	 POIN2	seq_068_0 + 0xBAA
	BYTE	PATT
	 POIN2	seq_068_0 + 0xBD0
	BYTE		EOT     Fn3 
	BYTE	W03
	BYTE	PATT
	 POIN2	seq_068_0 + 0xC13
	BYTE	PATT
	 POIN2	seq_068_0 + 0x865
	BYTE	PATT
	 POIN2	seq_068_0 + 0x891
	BYTE	PATT
	 POIN2	seq_068_0 + 0x8BE
	BYTE	PATT
	 POIN2	seq_068_0 + 0x8EC
	BYTE	PATT
	 POIN2	seq_068_0 + 0x920
	BYTE	PATT
	 POIN2	seq_068_0 + 0x94F
	BYTE	PATT
	 POIN2	seq_068_0 + 0x920
	BYTE	PATT
	 POIN2	seq_068_0 + 0x986
	BYTE	PATT
	 POIN2	seq_068_0 + 0x9A6
	BYTE	PATT
	 POIN2	seq_068_0 + 0x9C7
	BYTE	PATT
	 POIN2	seq_068_0 + 0x9E7
	BYTE	PATT
	 POIN2	seq_068_0 + 0xA08
	BYTE	PATT
	 POIN2	seq_068_0 + 0xA16
	BYTE	PATT
	 POIN2	seq_068_0 + 0xA23
	BYTE	PATT
	 POIN2	seq_068_0 + 0xA58
	BYTE	PATT
	 POIN2	seq_068_0 + 0xA87
	BYTE	PATT
	 POIN2	seq_068_0 + 0xA9B
	BYTE		EOT     Cs3 
	BYTE	PATT
	 POIN2	seq_068_0 + 0xAB8
	BYTE	PATT
	 POIN2	seq_068_0 + 0xA9B
	BYTE		EOT     Ds3 
	BYTE	PATT
	 POIN2	seq_068_0 + 0xAD1
	BYTE	PATT
	 POIN2	seq_068_0 + 0xAFB
	BYTE	PATT
	 POIN2	seq_068_0 + 0xB22
	BYTE	PATT
	 POIN2	seq_068_0 + 0xB40
	BYTE	PATT
	 POIN2	seq_068_0 + 0xB67
	BYTE	PATT
	 POIN2	seq_068_0 + 0xB89
	BYTE	PATT
	 POIN2	seq_068_0 + 0xBAA
	BYTE	PATT
	 POIN2	seq_068_0 + 0xBD0
	BYTE		EOT     Fn3 
	BYTE	W03
	BYTE	PATT
	 POIN2	seq_068_0 + 0xC13
	BYTE	PATT
	 POIN2	seq_068_0 + 0x865
	BYTE	PATT
	 POIN2	seq_068_0 + 0x891
	BYTE	PATT
	 POIN2	seq_068_0 + 0x8BE
	BYTE	PATT
	 POIN2	seq_068_0 + 0x8EC
	BYTE	PATT
	 POIN2	seq_068_0 + 0x920
	BYTE	PATT
	 POIN2	seq_068_0 + 0x94F
	BYTE	PATT
	 POIN2	seq_068_0 + 0x920
	BYTE	PATT
	 POIN2	seq_068_0 + 0x986
	BYTE	PATT
	 POIN2	seq_068_0 + 0x9A6
	BYTE	PATT
	 POIN2	seq_068_0 + 0x9C7
	BYTE	PATT
	 POIN2	seq_068_0 + 0x9E7
	BYTE	PATT
	 POIN2	seq_068_0 + 0xA08
	BYTE	PATT
	 POIN2	seq_068_0 + 0xA16
	BYTE	PATT
	 POIN2	seq_068_0 + 0xA23
	BYTE	PATT
	 POIN2	seq_068_0 + 0xA58
	BYTE	TEMPO   146/2
	BYTE		VOL     73*seq_068_mvl/mxv
	BYTE		N06     As3   v064
	BYTE	W06
	BYTE		        An3 
	BYTE	W06
	BYTE		        Gn3   v068
	BYTE	W06
	BYTE		        An3   v060
	BYTE	W06
	BYTE		        As3   v068
	BYTE	W06
	BYTE		        Ds4   v064
	BYTE	W06
	BYTE		        Dn4   v056
	BYTE	W06
	BYTE		        Cn4 
	BYTE	W06
	BYTE		        Dn4   v064
	BYTE	W06
	BYTE		        As3 
	BYTE	W06
	BYTE		        An3   v068
	BYTE	W06
	BYTE		        As3   v060
	BYTE	W06
	BYTE		        Dn4   v064
	BYTE	W06
	BYTE		        Cn4   v060
	BYTE	W06
	BYTE		        As3   v064
	BYTE	W06
	BYTE		        An3   v060
	BYTE	W06
	BYTE		N06     As3   v060
	BYTE	W06
	BYTE		        An3 
	BYTE	W06
	BYTE		        Gn3   v064
	BYTE	W06
	BYTE		        An3   v060
	BYTE	W06
	BYTE		        As3   v064
	BYTE	W06
	BYTE		        Ds4   v060
	BYTE	W06
	BYTE		        Dn4   v056
	BYTE	W06
	BYTE		        Cn4 
	BYTE	W06
	BYTE		        Dn4   v060
	BYTE	W06
	BYTE		        As3 
	BYTE	W06
	BYTE		        An3   v064
	BYTE	W06
	BYTE		        As3   v056
	BYTE	W06
	BYTE		        Dn4   v060
	BYTE	W06
	BYTE		        Cn4   v056
	BYTE	W06
	BYTE		        As3   v060
	BYTE	W06
	BYTE		        An3 
	BYTE	W06
	BYTE	PEND
	BYTE	TEMPO   146/2
	BYTE		        As3   v064
	BYTE	W06
	BYTE		        An3 
	BYTE	W06
	BYTE		        Gn3   v068
	BYTE	W06
	BYTE		        An3   v060
	BYTE	W06
	BYTE		        As3   v068
	BYTE	W06
	BYTE		        Ds4   v064
	BYTE	W06
	BYTE		        Dn4   v056
	BYTE	W06
	BYTE		        Cn4 
	BYTE	W06
	BYTE		        Dn4   v064
	BYTE	W06
	BYTE		        As3 
	BYTE	W06
	BYTE		        An3   v068
	BYTE	W06
	BYTE		        As3   v060
	BYTE	W06
	BYTE		        Dn4   v064
	BYTE	W06
	BYTE		        Cn4   v060
	BYTE	W06
	BYTE		        As3   v064
	BYTE	W06
	BYTE		        An3   v060
	BYTE	W06
	BYTE	PATT
	 POIN2	seq_068_0 + 0xDE5
	BYTE		N06     As3   v064
	BYTE	W06
	BYTE		        An3 
	BYTE	W06
	BYTE		        Gn3   v068
	BYTE	W06
	BYTE		        An3   v060
	BYTE	W06
	BYTE		        As3   v068
	BYTE	W06
	BYTE		        En4   v064
	BYTE	W06
	BYTE		        Dn4   v056
	BYTE	W06
	BYTE		        Cn4 
	BYTE	W06
	BYTE		        Dn4   v064
	BYTE	W06
	BYTE		        As3 
	BYTE	W06
	BYTE		        An3   v068
	BYTE	W06
	BYTE		        As3   v060
	BYTE	W06
	BYTE		        Dn4   v064
	BYTE	W06
	BYTE		        Cn4   v060
	BYTE	W06
	BYTE		        As3   v064
	BYTE	W06
	BYTE		        An3   v060
	BYTE	W06
	BYTE	PEND
	BYTE		N06     As3   v060
	BYTE	W06
	BYTE		        An3 
	BYTE	W06
	BYTE		        Gn3   v064
	BYTE	W06
	BYTE		        An3   v060
	BYTE	W06
	BYTE		        As3   v064
	BYTE	W06
	BYTE		        En4   v060
	BYTE	W06
	BYTE		        Dn4   v056
	BYTE	W06
	BYTE		        Cn4 
	BYTE	W06
	BYTE		        Dn4   v060
	BYTE	W06
	BYTE		        As3 
	BYTE	W06
	BYTE		        An3   v064
	BYTE	W06
	BYTE		        As3   v056
	BYTE	W06
	BYTE		        Dn4   v060
	BYTE	W06
	BYTE		        Cn4   v056
	BYTE	W06
	BYTE		        As3   v060
	BYTE	W06
	BYTE		        An3 
	BYTE	W06
	BYTE	PEND
	BYTE		N06     As3   v064
	BYTE	W06
	BYTE		        Gs3 
	BYTE	W06
	BYTE		        Gn3   v068
	BYTE	W06
	BYTE		        Gs3   v060
	BYTE	W06
	BYTE		        As3   v068
	BYTE	W06
	BYTE		        Ds4   v064
	BYTE	W06
	BYTE		        Cs4   v056
	BYTE	W06
	BYTE		        Cn4 
	BYTE	W06
	BYTE		        Cs4   v064
	BYTE	W06
	BYTE		        As3 
	BYTE	W06
	BYTE		        Gs3   v068
	BYTE	W06
	BYTE		        As3   v060
	BYTE	W06
	BYTE		        Cs4   v064
	BYTE	W06
	BYTE		        Cn4   v060
	BYTE	W06
	BYTE		        As3   v064
	BYTE	W06
	BYTE		        Gs3   v060
	BYTE	W06
	BYTE	PEND
	BYTE		N06     As3   v064
	BYTE	W06
	BYTE		        Gs3 
	BYTE	W06
	BYTE		        Gn3 
	BYTE	W06
	BYTE		        Gs3 
	BYTE	W06
	BYTE		        As3 
	BYTE	W06
	BYTE		        Ds4   v060
	BYTE	W06
	BYTE		        Cs4 
	BYTE	W06
	BYTE		        Cn4   v064
	BYTE	W06
	BYTE		        Cs4   v060
	BYTE	W06
	BYTE		        As3   v064
	BYTE	W06
	BYTE		        Gs3 
	BYTE	W06
	BYTE		        As3 
	BYTE	W06
	BYTE		        Cs4   v060
	BYTE	W06
	BYTE		        Cn4   v064
	BYTE	W06
	BYTE		        As3 
	BYTE	W06
	BYTE		        Gs3 
	BYTE	W06
	BYTE	PEND
	BYTE		N06     As3   v064
	BYTE	W06
	BYTE		        Gs3 
	BYTE	W06
	BYTE		        Gn3 
	BYTE	W06
	BYTE		        Gs3 
	BYTE	W06
	BYTE		        As3 
	BYTE	W06
	BYTE		        Ds4   v060
	BYTE	W06
	BYTE		        Cs4 
	BYTE	W06
	BYTE		        Cn4   v064
	BYTE	W06
	BYTE		        Cs4   v060
	BYTE	W06
	BYTE		        As3   v064
	BYTE	W06
	BYTE		        Gn3 
	BYTE	W06
	BYTE		        As3 
	BYTE	W06
	BYTE		        Cs4   v060
	BYTE	W06
	BYTE		        Cn4   v064
	BYTE	W06
	BYTE		        As3 
	BYTE	W06
	BYTE		        Gn3 
	BYTE	W06
	BYTE	PEND
	BYTE	PATT
	 POIN2	seq_068_0 + 0xEFC
	BYTE	TEMPO   146/2
	BYTE		N06     As3   v064
	BYTE	W06
	BYTE		        An3 
	BYTE	W06
	BYTE		        Gn3   v068
	BYTE	W06
	BYTE		        An3   v060
	BYTE	W06
	BYTE		        As3   v068
	BYTE	W06
	BYTE		        Ds4   v064
	BYTE	W06
	BYTE		        Dn4   v056
	BYTE	W06
	BYTE		        Cn4 
	BYTE	W06
	BYTE		        Dn4   v064
	BYTE	W06
	BYTE		        As3 
	BYTE	W06
	BYTE		        An3   v068
	BYTE	W06
	BYTE		        As3   v060
	BYTE	W06
	BYTE		        Dn4   v064
	BYTE	W06
	BYTE		        Cn4   v060
	BYTE	W06
	BYTE		        As3   v064
	BYTE	W06
	BYTE		        An3   v060
	BYTE	W06
	BYTE	PATT
	 POIN2	seq_068_0 + 0xDE5
	BYTE	PATT
	 POIN2	seq_068_0 + 0xE47
	BYTE	PATT
	 POIN2	seq_068_0 + 0xE76
	BYTE	PATT
	 POIN2	seq_068_0 + 0xEA4
	BYTE	PATT
	 POIN2	seq_068_0 + 0xED3
	BYTE	PATT
	 POIN2	seq_068_0 + 0xEFC
	BYTE	PATT
	 POIN2	seq_068_0 + 0xEFC
	BYTE	TEMPO   144/2
	BYTE		N24     As3   v060
	BYTE	W24
	BYTE		        Ds4   v056
	BYTE	W24
	BYTE		        Dn4 
	BYTE	W24
	BYTE		        Cn4 
	BYTE	W24
	BYTE		N24     As3   v056
	BYTE	W24
	BYTE		        Ds4   v052
	BYTE	W24
	BYTE		        Dn4 
	BYTE	W24
	BYTE		        Cn4 
	BYTE	W24
	BYTE	PEND
	BYTE		N05     Fs3   v068
	BYTE	W06
	BYTE		N04     Fs3   v016
	BYTE	W06
	BYTE		        Fn3   v064
	BYTE	W06
	BYTE		        Fn3   v016
	BYTE	W06
	BYTE		        Ds3   v068
	BYTE	W06
	BYTE		        Ds3   v016
	BYTE	W06
	BYTE		        Fn3   v064
	BYTE	W06
	BYTE		        Fn3   v016
	BYTE	W06
	BYTE		N05     Fs3   v068
	BYTE	W06
	BYTE		N04     Fs3   v016
	BYTE	W06
	BYTE		        Gs3   v064
	BYTE	W06
	BYTE		        Gs3   v016
	BYTE	W06
	BYTE		        As3   v064
	BYTE	W06
	BYTE		        As3   v016
	BYTE	W06
	BYTE		        Cn4   v064
	BYTE	W06
	BYTE		        Cn4   v016
	BYTE	W06
	BYTE	PEND
	BYTE		N05     Cs4   v064
	BYTE	W06
	BYTE		N04     Cs4   v016
	BYTE	W06
	BYTE		        Cn4   v060
	BYTE	W06
	BYTE		        Cn4   v016
	BYTE	W06
	BYTE		        As3   v064
	BYTE	W06
	BYTE		        As3   v016
	BYTE	W06
	BYTE		        Cn4   v064
	BYTE	W06
	BYTE		        Cn4   v016
	BYTE	W06
	BYTE		N05     Cs4   v064
	BYTE	W06
	BYTE		N04     Cs4   v016
	BYTE	W06
	BYTE		        Ds4   v064
	BYTE	W06
	BYTE		        Ds4   v016
	BYTE	W06
	BYTE		        Fn4   v068
	BYTE	W06
	BYTE		        Fn4   v016
	BYTE	W06
	BYTE		        Fs4   v064
	BYTE	W06
	BYTE		        Fs4   v016
	BYTE	W06
	BYTE	PEND
	BYTE		N24     As3   v060
	BYTE	W24
	BYTE		        Ds4   v056
	BYTE	W24
	BYTE		        Dn4 
	BYTE	W24
	BYTE		        Cn4 
	BYTE	W24
	BYTE	PATT
	 POIN2	seq_068_0 + 0xF8A
	BYTE	PATT
	 POIN2	seq_068_0 + 0xF96
	BYTE	PATT
	 POIN2	seq_068_0 + 0xFCB
	BYTE	TEMPO   142/2
	BYTE		N05     As3   v064
	BYTE	W06
	BYTE		N04     As3   v016
	BYTE	W06
	BYTE		        Fn3   v060
	BYTE	W06
	BYTE		        Fn3   v016
	BYTE	W06
	BYTE		        As3   v064
	BYTE	W06
	BYTE		        As3   v016
	BYTE	W06
	BYTE		        Fn3   v060
	BYTE	W06
	BYTE		        Fn3   v016
	BYTE	W06
	BYTE		N05     As3   v064
	BYTE	W06
	BYTE		N04     As3   v016
	BYTE	W06
	BYTE		        Fn3   v060
	BYTE	W06
	BYTE		        Fn3   v016
	BYTE	W06
	BYTE		        As3   v064
	BYTE	W06
	BYTE		        As3   v016
	BYTE	W06
	BYTE		        Fn3   v060
	BYTE	W06
	BYTE		        Fn3   v016
	BYTE	W06
	BYTE		N05     As3   v068
	BYTE	W06
	BYTE		N04     As3   v016
	BYTE	W06
	BYTE		        Fn3   v064
	BYTE	W06
	BYTE		        Fn3   v016
	BYTE	W06
	BYTE		        As3   v064
	BYTE	W06
	BYTE		        As3   v016
	BYTE	W06
	BYTE		        Fn3   v064
	BYTE	W06
	BYTE		        Fn3   v016
	BYTE	W06
	BYTE		N05     As3   v068
	BYTE	W06
	BYTE		N04     As3   v016
	BYTE	W06
	BYTE		        Fs3   v064
	BYTE	W06
	BYTE		        Fn3   v016
	BYTE	W06
	BYTE		        As3   v068
	BYTE	W06
	BYTE		        As3   v016
	BYTE	W06
	BYTE		        Fs3   v064
	BYTE	W06
	BYTE		        Fn3   v016
	BYTE	W06
	BYTE	PEND
	BYTE		N05     As3   v064
	BYTE	W06
	BYTE		N04     As3   v016
	BYTE	W06
	BYTE		        Fn3   v060
	BYTE	W06
	BYTE		        Fn3   v016
	BYTE	W06
	BYTE		        As3   v064
	BYTE	W06
	BYTE		        As3   v016
	BYTE	W06
	BYTE		        Fn3   v060
	BYTE	W06
	BYTE		        Fn3   v016
	BYTE	W06
	BYTE		N05     As3   v064
	BYTE	W06
	BYTE		N04     As3   v016
	BYTE	W06
	BYTE		        Fn3   v060
	BYTE	W06
	BYTE		        Fn3   v016
	BYTE	W06
	BYTE		        As3   v064
	BYTE	W06
	BYTE		        As3   v016
	BYTE	W06
	BYTE		        Fn3   v060
	BYTE	W06
	BYTE		        Fn3   v016
	BYTE	W06
	BYTE	PATT
	 POIN2	seq_068_0 + 0x1050
	BYTE		N23     As3   v064
	BYTE	W24
	BYTE		N23
	BYTE	W24
	BYTE		        As3   v068
	BYTE	W24
	BYTE		        As3   v072
	BYTE	W24
	BYTE		N17     As3   v068
	BYTE	W18
	BYTE		N06     As3   v020
	BYTE	W30
	BYTE		N17     As3   v064
	BYTE	W18
	BYTE		N06     As3   v020
	BYTE	W30
	BYTE	TEMPO   120/2
	BYTE		N48     As2   v076
	BYTE	W48
	BYTE	TEMPO   94/2
	BYTE		        As2   v080
	BYTE	W48
	BYTE		TIE
	BYTE	W06
	BYTE		VOL     74*seq_068_mvl/mxv
	BYTE	W06
	BYTE		        74*seq_068_mvl/mxv
	BYTE	W06
	BYTE		        78*seq_068_mvl/mxv
	BYTE	W06
	BYTE		        79*seq_068_mvl/mxv
	BYTE	W36
	BYTE		        78*seq_068_mvl/mxv
	BYTE	W12
	BYTE		        78*seq_068_mvl/mxv
	BYTE	W06
	BYTE		        76*seq_068_mvl/mxv
	BYTE	W06
	BYTE		        75*seq_068_mvl/mxv
	BYTE	W06
	BYTE		        74*seq_068_mvl/mxv
	BYTE	W06
	BYTE		        73*seq_068_mvl/mxv
	BYTE	W06
	BYTE		        71*seq_068_mvl/mxv
	BYTE	W06
	BYTE		        69*seq_068_mvl/mxv
	BYTE	W06
	BYTE		        68*seq_068_mvl/mxv
	BYTE	W06
	BYTE		        65*seq_068_mvl/mxv
	BYTE	W06
	BYTE		        62*seq_068_mvl/mxv
	BYTE	W06
	BYTE		        58*seq_068_mvl/mxv
	BYTE	W06
	BYTE		        54*seq_068_mvl/mxv
	BYTE	W06
	BYTE		        51*seq_068_mvl/mxv
	BYTE	W06
	BYTE		        48*seq_068_mvl/mxv
	BYTE	W06
	BYTE		        44*seq_068_mvl/mxv
	BYTE	W06
	BYTE		        40*seq_068_mvl/mxv
	BYTE	W06
	BYTE		        37*seq_068_mvl/mxv
	BYTE	W06
	BYTE		        34*seq_068_mvl/mxv
	BYTE	W06
	BYTE		        30*seq_068_mvl/mxv
	BYTE	W06
	BYTE		        27*seq_068_mvl/mxv
	BYTE	W06
	BYTE		        23*seq_068_mvl/mxv
	BYTE	W06
	BYTE		        20*seq_068_mvl/mxv
	BYTE	W06
	BYTE		        18*seq_068_mvl/mxv
	BYTE	W06
	BYTE		        17*seq_068_mvl/mxv
	BYTE	W06
	BYTE		        16*seq_068_mvl/mxv
	BYTE	W06
	BYTE		        15*seq_068_mvl/mxv
	BYTE	W06
	BYTE		        14*seq_068_mvl/mxv
	BYTE	W06
	BYTE		        14*seq_068_mvl/mxv
	BYTE	W06
	BYTE		        12*seq_068_mvl/mxv
	BYTE	W06
	BYTE		        12*seq_068_mvl/mxv
	BYTE	W06
	BYTE		        11*seq_068_mvl/mxv
	BYTE	W06
	BYTE		        10*seq_068_mvl/mxv
	BYTE	W06
	BYTE		        9*seq_068_mvl/mxv
	BYTE	W06
	BYTE		        8*seq_068_mvl/mxv
	BYTE	W06
	BYTE		        7*seq_068_mvl/mxv
	BYTE	W06
	BYTE		        6*seq_068_mvl/mxv
	BYTE	W06
	BYTE		        6*seq_068_mvl/mxv
	BYTE	W06
	BYTE		        5*seq_068_mvl/mxv
	BYTE	W06
	BYTE		        4*seq_068_mvl/mxv
	BYTE	W06
	BYTE		        3*seq_068_mvl/mxv
	BYTE	W06
	BYTE		        2*seq_068_mvl/mxv
	BYTE	W06
	BYTE		        2*seq_068_mvl/mxv
	BYTE	W06
	BYTE		        0*seq_068_mvl/mxv
	BYTE	W06
	BYTE		        0*seq_068_mvl/mxv
	BYTE	W06
	BYTE		EOT
	BYTE	FINE

//*********************** Track 02 ***********************//

seq_068_1:
	BYTE	KEYSH   seq_068_key+0
	BYTE		VOICE   42
	BYTE	W01
	BYTE		PAN     c_v+46
	BYTE	W01
	BYTE		VOL     73*seq_068_mvl/mxv
	BYTE	W01
	BYTE	W05
	BYTE		N06     Gn3   v024
	BYTE	W06
	BYTE		        Fs3 
	BYTE	W06
	BYTE		        En3 
	BYTE	W06
	BYTE		        Fs3   v020
	BYTE	W06
	BYTE		        Gn3   v024
	BYTE	W06
	BYTE		        Cn4 
	BYTE	W06
	BYTE		        Bn3   v020
	BYTE	W06
	BYTE		        An3 
	BYTE	W06
	BYTE		        Bn3   v024
	BYTE	W06
	BYTE		        Gn3 
	BYTE	W06
	BYTE		        Fs3 
	BYTE	W06
	BYTE		        Gn3   v020
	BYTE	W06
	BYTE		        Bn3   v024
	BYTE	W06
	BYTE		        An3   v020
	BYTE	W06
	BYTE		        Gn3   v024
	BYTE	W06
	BYTE		        Fs3   v020
	BYTE	W01
	BYTE	W05
	BYTE		        Gn3   v024
	BYTE	W06
	BYTE		        Fs3   v020
	BYTE	W06
	BYTE		        En3   v024
	BYTE	W06
	BYTE		        Fs3   v020
	BYTE	W06
	BYTE		        Gn3   v024
	BYTE	W06
	BYTE		        Cn4   v020
	BYTE	W06
	BYTE		        Bn3 
	BYTE	W06
	BYTE		        An3 
	BYTE	W06
	BYTE		        Bn3 
	BYTE	W06
	BYTE		        Gn3 
	BYTE	W06
	BYTE		        Fs3   v024
	BYTE	W06
	BYTE		        Gn3   v020
	BYTE	W06
	BYTE		        Bn3 
	BYTE	W06
	BYTE		        An3 
	BYTE	W06
	BYTE		        Gn3   v024
	BYTE	W06
	BYTE		        Fs3   v020
	BYTE	W01
	BYTE	W05
	BYTE		        Gn3   v024
	BYTE	W06
	BYTE		        Fs3 
	BYTE	W06
	BYTE		        En3 
	BYTE	W06
	BYTE		        Fs3   v020
	BYTE	W06
	BYTE		        Gn3   v024
	BYTE	W06
	BYTE		        Cn4   v020
	BYTE	W06
	BYTE		        Bn3 
	BYTE	W06
	BYTE		        An3 
	BYTE	W06
	BYTE		        Bn3 
	BYTE	W06
	BYTE		        Gn3 
	BYTE	W06
	BYTE		        Fs3   v024
	BYTE	W06
	BYTE		        Gn3   v020
	BYTE	W06
	BYTE		        Bn3 
	BYTE	W06
	BYTE		        An3 
	BYTE	W06
	BYTE		        Gn3   v024
	BYTE	W06
	BYTE		        Fs3   v020
	BYTE	W01
	BYTE	W05
	BYTE		        Gn3 
	BYTE	W06
	BYTE		        Fs3 
	BYTE	W06
	BYTE		        En3 
	BYTE	W06
	BYTE		        Fs3 
	BYTE	W06
	BYTE		        Gn3   v024
	BYTE	W06
	BYTE		        Cn4   v020
	BYTE	W06
	BYTE		        Bn3 
	BYTE	W06
	BYTE		        An3 
	BYTE	W06
	BYTE		        Bn3 
	BYTE	W06
	BYTE		        Gn3 
	BYTE	W06
	BYTE		        Fs3 
	BYTE	W06
	BYTE		        Gn3 
	BYTE	W06
	BYTE		        Bn3 
	BYTE	W06
	BYTE		        An3 
	BYTE	W06
	BYTE		        Gn3 
	BYTE	W06
	BYTE		        Fs3 
	BYTE	W01
	BYTE	W09
	BYTE	W42
	BYTE	W01
	BYTE		VOICE   51
	BYTE	W01
	BYTE		PAN     c_v+63
	BYTE	W01
	BYTE		VOL     73*seq_068_mvl/mxv
	BYTE	W32
	BYTE	W02
	BYTE		N03     Dn4   v032
	BYTE	W06
	BYTE		N02     Dn4   v028
	BYTE	W02
	BYTE	W04
	BYTE		N48     Dn4   v032
	BYTE	W48
	BYTE		        Cs4   v028
	BYTE	W44
	BYTE	W04
	BYTE		TIE     Dn4   v032
	BYTE	W06
	BYTE		VOL     72*seq_068_mvl/mxv
	BYTE	W12
	BYTE		        70*seq_068_mvl/mxv
	BYTE	W06
	BYTE		        70*seq_068_mvl/mxv
	BYTE	W24
	BYTE		        71*seq_068_mvl/mxv
	BYTE	W12
	BYTE		        72*seq_068_mvl/mxv
	BYTE	W06
	BYTE		        72*seq_068_mvl/mxv
	BYTE	W06
	BYTE		        73*seq_068_mvl/mxv
	BYTE	W06
	BYTE		        74*seq_068_mvl/mxv
	BYTE	W06
	BYTE		        74*seq_068_mvl/mxv
	BYTE	W06
	BYTE		        75*seq_068_mvl/mxv
	BYTE	W02
	BYTE	W04
	BYTE		        76*seq_068_mvl/mxv
	BYTE	W06
	BYTE		        77*seq_068_mvl/mxv
	BYTE	W06
	BYTE		        78*seq_068_mvl/mxv
	BYTE	W06
	BYTE		        80*seq_068_mvl/mxv
	BYTE	W06
	BYTE		        80*seq_068_mvl/mxv
	BYTE	W48
	BYTE		        79*seq_068_mvl/mxv
	BYTE	W06
	BYTE		        78*seq_068_mvl/mxv
	BYTE	W06
	BYTE		        74*seq_068_mvl/mxv
	BYTE	W06
	BYTE		        67*seq_068_mvl/mxv
	BYTE	W02
	BYTE	W04
	BYTE		EOT
	BYTE	W04
	BYTE	W88
	BYTE	W96
	BYTE	W96
	BYTE	W96
	BYTE	W96
	BYTE	W28
	BYTE		N24     Dn3   v032
	BYTE	W24
	BYTE		        En3   v036
	BYTE	W24
	BYTE		        Fs3 
	BYTE	W20
	BYTE	PEND
	BYTE	W04
	BYTE		N96     Gn3 
	BYTE	W92
	BYTE	W04
	BYTE		        En3   v032
	BYTE	W92
	BYTE	W04
	BYTE		TIE     Fs3   v032
	BYTE	W92
	BYTE	PEND
	BYTE	W96
	BYTE	W04
	BYTE		EOT
	BYTE		N96     An3   v028
	BYTE	W92
	BYTE	W96
	BYTE	W96
	BYTE	PATT
	 POIN2	seq_068_1 + 0x100
	BYTE	W04
	BYTE		N96     Gn3   v036
	BYTE	W92
	BYTE	W04
	BYTE		        En3   v032
	BYTE	W92
	BYTE	PATT
	 POIN2	seq_068_1 + 0x113
	BYTE	W96
	BYTE	W04
	BYTE		EOT     Fs3 
	BYTE		N92     An3   v028
	BYTE	W92
	BYTE	W96
	BYTE	W96
	BYTE	W96
	BYTE	W96
	BYTE	W96
	BYTE	W96
	BYTE	W96
	BYTE	W96
	BYTE	W96
	BYTE	W96
	BYTE	W96
	BYTE	W96
	BYTE	W96
	BYTE	W96
	BYTE	W28
	BYTE		N24     Dn3   v032
	BYTE	W24
	BYTE		        En3   v040
	BYTE	W24
	BYTE		        Fs3 
	BYTE	W20
	BYTE	PEND
	BYTE	W04
	BYTE		N96     Gn3   v036
	BYTE	W92
	BYTE	W04
	BYTE		        En3   v032
	BYTE	W92
	BYTE	W04
	BYTE		TIE     Fs3   v028
	BYTE	W92
	BYTE	PEND
	BYTE	W96
	BYTE	W04
	BYTE		EOT
	BYTE		N96     An3   v024
	BYTE	W92
	BYTE	W96
	BYTE	W96
	BYTE	PATT
	 POIN2	seq_068_1 + 0x14B
	BYTE	W04
	BYTE		N96     Gn3   v036
	BYTE	W92
	BYTE	W04
	BYTE		        En3   v032
	BYTE	W92
	BYTE	PATT
	 POIN2	seq_068_1 + 0x15F
	BYTE	W96
	BYTE	W04
	BYTE		EOT     Fs3 
	BYTE		N92     An3   v024
	BYTE	W92
	BYTE	W96
	BYTE	W96
	BYTE	W96
	BYTE	W96
	BYTE	W96
	BYTE	W96
	BYTE	W96
	BYTE	W96
	BYTE	W96
	BYTE	W96
	BYTE	W96
	BYTE	W96
	BYTE	W96
	BYTE	W96
	BYTE	PATT
	 POIN2	seq_068_1 + 0x14B
	BYTE	W04
	BYTE		N96     Gn3   v036
	BYTE	W92
	BYTE	W04
	BYTE		        En3   v032
	BYTE	W92
	BYTE	PATT
	 POIN2	seq_068_1 + 0x15F
	BYTE	W96
	BYTE	W04
	BYTE		EOT     Fs3 
	BYTE		N96     An3   v024
	BYTE	W92
	BYTE	W96
	BYTE	W96
	BYTE	PATT
	 POIN2	seq_068_1 + 0x14B
	BYTE	W04
	BYTE		N96     Gn3   v036
	BYTE	W92
	BYTE	W04
	BYTE		        En3   v032
	BYTE	W92
	BYTE	PATT
	 POIN2	seq_068_1 + 0x15F
	BYTE	W96
	BYTE	W04
	BYTE		EOT     Fs3 
	BYTE		N92     An3   v024
	BYTE	W92
	BYTE	W96
	BYTE	W96
	BYTE	W96
	BYTE	W96
	BYTE	W96
	BYTE	W96
	BYTE	W96
	BYTE	W96
	BYTE	W96
	BYTE	W96
	BYTE	W96
	BYTE	W96
	BYTE	W90
	BYTE		VOICE   57
	BYTE		PAN     c_v-14
	BYTE	W01
	BYTE	W01
	BYTE		VOL     73*seq_068_mvl/mxv
	BYTE	W04
	BYTE		N48     An2   v072
	BYTE	W48
	BYTE		        Dn3   v064
	BYTE	W48
	BYTE		TIE     Cs3 
	BYTE	W03
	BYTE		VOL     74*seq_068_mvl/mxv
	BYTE	W06
	BYTE		        74*seq_068_mvl/mxv
	BYTE	W03
	BYTE		        75*seq_068_mvl/mxv
	BYTE	W03
	BYTE		        76*seq_068_mvl/mxv
	BYTE	W03
	BYTE		        77*seq_068_mvl/mxv
	BYTE	W03
	BYTE		        79*seq_068_mvl/mxv
	BYTE	W03
	BYTE		        80*seq_068_mvl/mxv
	BYTE	W06
	BYTE		        80*seq_068_mvl/mxv
	BYTE	W06
	BYTE		        78*seq_068_mvl/mxv
	BYTE	W03
	BYTE		        77*seq_068_mvl/mxv
	BYTE	W03
	BYTE		        76*seq_068_mvl/mxv
	BYTE	W03
	BYTE		        75*seq_068_mvl/mxv
	BYTE	W03
	BYTE		        72*seq_068_mvl/mxv
	BYTE	W03
	BYTE		        71*seq_068_mvl/mxv
	BYTE	W03
	BYTE		        68*seq_068_mvl/mxv
	BYTE	W03
	BYTE		        66*seq_068_mvl/mxv
	BYTE	W03
	BYTE		        63*seq_068_mvl/mxv
	BYTE	W03
	BYTE		        60*seq_068_mvl/mxv
	BYTE	W03
	BYTE		        57*seq_068_mvl/mxv
	BYTE	W03
	BYTE		        54*seq_068_mvl/mxv
	BYTE	W03
	BYTE		        50*seq_068_mvl/mxv
	BYTE	W03
	BYTE		        46*seq_068_mvl/mxv
	BYTE	W03
	BYTE		        42*seq_068_mvl/mxv
	BYTE	W03
	BYTE		        38*seq_068_mvl/mxv
	BYTE	W03
	BYTE		        32*seq_068_mvl/mxv
	BYTE	W03
	BYTE		        28*seq_068_mvl/mxv
	BYTE	W03
	BYTE		        22*seq_068_mvl/mxv
	BYTE	W03
	BYTE		        17*seq_068_mvl/mxv
	BYTE	W03
	BYTE		        12*seq_068_mvl/mxv
	BYTE	W03
	BYTE		        6*seq_068_mvl/mxv
	BYTE	W03
	BYTE		EOT
	BYTE	W15
	BYTE		VOL     73*seq_068_mvl/mxv
	BYTE	W03
	BYTE		N24     An2   v072
	BYTE	W24
	BYTE		        Dn3   v068
	BYTE	W24
	BYTE		        Cs3   v072
	BYTE	W24
	BYTE		        Bn2   v076
	BYTE	W24
	BYTE		        An2 
	BYTE	W24
	BYTE		N48     Fs3   v068
	BYTE	W48
	BYTE		TIE     En3   v056
	BYTE	W06
	BYTE		VOL     74*seq_068_mvl/mxv
	BYTE	W18
	BYTE		        74*seq_068_mvl/mxv
	BYTE	W06
	BYTE		        75*seq_068_mvl/mxv
	BYTE	W12
	BYTE		        76*seq_068_mvl/mxv
	BYTE	W06
	BYTE		        76*seq_068_mvl/mxv
	BYTE	W06
	BYTE		        77*seq_068_mvl/mxv
	BYTE	W06
	BYTE		        78*seq_068_mvl/mxv
	BYTE	W06
	BYTE		        80*seq_068_mvl/mxv
	BYTE	W06
	BYTE		        80*seq_068_mvl/mxv
	BYTE	W06
	BYTE		        81*seq_068_mvl/mxv
	BYTE	W18
	BYTE	W06
	BYTE		        80*seq_068_mvl/mxv
	BYTE	W18
	BYTE		        80*seq_068_mvl/mxv
	BYTE	W12
	BYTE		        78*seq_068_mvl/mxv
	BYTE	W12
	BYTE		        77*seq_068_mvl/mxv
	BYTE	W12
	BYTE		        76*seq_068_mvl/mxv
	BYTE	W06
	BYTE		        75*seq_068_mvl/mxv
	BYTE	W06
	BYTE		        74*seq_068_mvl/mxv
	BYTE	W06
	BYTE		        73*seq_068_mvl/mxv
	BYTE	W06
	BYTE		        72*seq_068_mvl/mxv
	BYTE	W06
	BYTE		        71*seq_068_mvl/mxv
	BYTE	W06
	BYTE		        70*seq_068_mvl/mxv
	BYTE	W06
	BYTE		        68*seq_068_mvl/mxv
	BYTE	W06
	BYTE		        67*seq_068_mvl/mxv
	BYTE	W06
	BYTE		        66*seq_068_mvl/mxv
	BYTE	W06
	BYTE		        64*seq_068_mvl/mxv
	BYTE	W06
	BYTE		        63*seq_068_mvl/mxv
	BYTE	W06
	BYTE		        61*seq_068_mvl/mxv
	BYTE	W06
	BYTE		        60*seq_068_mvl/mxv
	BYTE	W06
	BYTE		        58*seq_068_mvl/mxv
	BYTE	W06
	BYTE		        56*seq_068_mvl/mxv
	BYTE	W06
	BYTE		        54*seq_068_mvl/mxv
	BYTE	W06
	BYTE		        53*seq_068_mvl/mxv
	BYTE	W06
	BYTE		        50*seq_068_mvl/mxv
	BYTE	W06
	BYTE		        48*seq_068_mvl/mxv
	BYTE	W06
	BYTE		        47*seq_068_mvl/mxv
	BYTE	W06
	BYTE		        44*seq_068_mvl/mxv
	BYTE	W06
	BYTE		        42*seq_068_mvl/mxv
	BYTE	W06
	BYTE		        40*seq_068_mvl/mxv
	BYTE	W06
	BYTE		        38*seq_068_mvl/mxv
	BYTE	W06
	BYTE		        35*seq_068_mvl/mxv
	BYTE	W06
	BYTE		        33*seq_068_mvl/mxv
	BYTE	W06
	BYTE		        30*seq_068_mvl/mxv
	BYTE	W06
	BYTE		        28*seq_068_mvl/mxv
	BYTE	W06
	BYTE		        25*seq_068_mvl/mxv
	BYTE	W06
	BYTE		        22*seq_068_mvl/mxv
	BYTE	W06
	BYTE		        20*seq_068_mvl/mxv
	BYTE	W06
	BYTE		        17*seq_068_mvl/mxv
	BYTE	W06
	BYTE		        14*seq_068_mvl/mxv
	BYTE	W06
	BYTE		        10*seq_068_mvl/mxv
	BYTE	W06
	BYTE		        6*seq_068_mvl/mxv
	BYTE	W06
	BYTE		        2*seq_068_mvl/mxv
	BYTE	W06
	BYTE		EOT
	BYTE	W03
	BYTE	W03
	BYTE	W96
	BYTE	W96
	BYTE	W96
	BYTE	W96
	BYTE	W96
	BYTE	W96
	BYTE	W96
	BYTE	W96
	BYTE	W96
	BYTE	W96
	BYTE	W48
	BYTE		VOL     8*seq_068_mvl/mxv
	BYTE	W02
	BYTE	W01
	BYTE		VOICE   72
	BYTE	W01
	BYTE		PAN     c_v-24
	BYTE	W44
	BYTE		N96     Bn3   v080
	BYTE	W03
	BYTE		VOL     8*seq_068_mvl/mxv
	BYTE	W03
	BYTE		        8*seq_068_mvl/mxv
	BYTE	W03
	BYTE		        9*seq_068_mvl/mxv
	BYTE	W03
	BYTE		        11*seq_068_mvl/mxv
	BYTE	W03
	BYTE		        12*seq_068_mvl/mxv
	BYTE	W03
	BYTE		        15*seq_068_mvl/mxv
	BYTE	W03
	BYTE		        18*seq_068_mvl/mxv
	BYTE	W03
	BYTE		        22*seq_068_mvl/mxv
	BYTE	W03
	BYTE		        26*seq_068_mvl/mxv
	BYTE	W03
	BYTE		        31*seq_068_mvl/mxv
	BYTE	W03
	BYTE		        36*seq_068_mvl/mxv
	BYTE	W03
	BYTE		        42*seq_068_mvl/mxv
	BYTE	W03
	BYTE		        49*seq_068_mvl/mxv
	BYTE	W03
	BYTE		        56*seq_068_mvl/mxv
	BYTE	W03
	BYTE		        65*seq_068_mvl/mxv
	BYTE	W03
	BYTE		        67*seq_068_mvl/mxv
	BYTE	W18
	BYTE		        65*seq_068_mvl/mxv
	BYTE	W06
	BYTE		        64*seq_068_mvl/mxv
	BYTE	W03
	BYTE		        64*seq_068_mvl/mxv
	BYTE	W03
	BYTE		        62*seq_068_mvl/mxv
	BYTE	W03
	BYTE		        62*seq_068_mvl/mxv
	BYTE	W01
	BYTE		        60*seq_068_mvl/mxv
	BYTE	W02
	BYTE		        58*seq_068_mvl/mxv
	BYTE	W01
	BYTE		        56*seq_068_mvl/mxv
	BYTE	W02
	BYTE		        54*seq_068_mvl/mxv
	BYTE	W01
	BYTE		        50*seq_068_mvl/mxv
	BYTE	W02
	BYTE		        46*seq_068_mvl/mxv
	BYTE	W01
	BYTE		        42*seq_068_mvl/mxv
	BYTE	W02
	BYTE		        37*seq_068_mvl/mxv
	BYTE	W01
	BYTE		        32*seq_068_mvl/mxv
	BYTE	W02
	BYTE		        73*seq_068_mvl/mxv
	BYTE		N05     En3   v088
	BYTE	W06
	BYTE		        En3   v012
	BYTE	W06
	BYTE		        En3   v008
	BYTE	W12
	BYTE		        Gn3   v080
	BYTE	W06
	BYTE		        Gn3   v012
	BYTE	W06
	BYTE		        Gn3   v008
	BYTE	W12
	BYTE		        An3   v072
	BYTE	W06
	BYTE		        An3   v012
	BYTE	W06
	BYTE		        An3   v008
	BYTE	W12
	BYTE		        Gn3   v068
	BYTE	W06
	BYTE		        Gn3   v012
	BYTE	W06
	BYTE		        Gn3   v008
	BYTE	W12
	BYTE		N05     En3   v072
	BYTE	W06
	BYTE		        En3   v012
	BYTE	W06
	BYTE		        En3   v008
	BYTE	W12
	BYTE		        Gn3   v068
	BYTE	W06
	BYTE		        Gn3   v012
	BYTE	W06
	BYTE		        Gn3   v008
	BYTE	W12
	BYTE		        An3   v064
	BYTE	W06
	BYTE		        An3   v012
	BYTE	W06
	BYTE		        An3   v008
	BYTE	W12
	BYTE		        Gn3   v060
	BYTE	W06
	BYTE		        Gn3   v012
	BYTE	W06
	BYTE		        Gn3   v008
	BYTE	W12
	BYTE	PEND
	BYTE		        En3   v088
	BYTE	W06
	BYTE		        En3   v012
	BYTE	W06
	BYTE		        En3   v008
	BYTE	W12
	BYTE		        Gn3   v080
	BYTE	W06
	BYTE		        Gn3   v012
	BYTE	W06
	BYTE		        Gn3   v008
	BYTE	W12
	BYTE		        An3   v072
	BYTE	W06
	BYTE		        An3   v012
	BYTE	W06
	BYTE		        An3   v008
	BYTE	W12
	BYTE		        Gn3   v068
	BYTE	W06
	BYTE		        Gn3   v012
	BYTE	W06
	BYTE		        Gn3   v008
	BYTE	W12
	BYTE	PATT
	 POIN2	seq_068_1 + 0x32F
	BYTE		N05     En3   v080
	BYTE	W06
	BYTE		        En3   v012
	BYTE	W06
	BYTE		        En3   v008
	BYTE	W12
	BYTE		        Gn3   v076
	BYTE	W06
	BYTE		        Gn3   v012
	BYTE	W06
	BYTE		        Gn3   v008
	BYTE	W12
	BYTE		        An3   v068
	BYTE	W06
	BYTE		        An3   v012
	BYTE	W06
	BYTE		        An3   v008
	BYTE	W12
	BYTE		        Gn3   v064
	BYTE	W06
	BYTE		        Gn3   v012
	BYTE	W06
	BYTE		        Gn3   v008
	BYTE	W12
	BYTE	PEND
	BYTE		N05     En3   v068
	BYTE	W06
	BYTE		        En3   v012
	BYTE	W06
	BYTE		        En3   v008
	BYTE	W12
	BYTE		        Gn3   v060
	BYTE	W06
	BYTE		        Gn3   v012
	BYTE	W06
	BYTE		        Gn3   v008
	BYTE	W12
	BYTE		        An3   v060
	BYTE	W06
	BYTE		        An3   v012
	BYTE	W06
	BYTE		        An3   v008
	BYTE	W12
	BYTE		        Gn3   v056
	BYTE	W06
	BYTE		        Gn3   v012
	BYTE	W06
	BYTE		        Gn3   v008
	BYTE	W12
	BYTE	PEND
	BYTE	PATT
	 POIN2	seq_068_1 + 0x37E
	BYTE	PATT
	 POIN2	seq_068_1 + 0x3A4
	BYTE	PATT
	 POIN2	seq_068_1 + 0x37E
	BYTE	PATT
	 POIN2	seq_068_1 + 0x3A4
	BYTE	PATT
	 POIN2	seq_068_1 + 0x37E
	BYTE	PATT
	 POIN2	seq_068_1 + 0x3A4
	BYTE	PATT
	 POIN2	seq_068_1 + 0x37E
	BYTE	PATT
	 POIN2	seq_068_1 + 0x3A4
	BYTE	PATT
	 POIN2	seq_068_1 + 0x37E
	BYTE	PATT
	 POIN2	seq_068_1 + 0x3A4
	BYTE	W96
	BYTE	W96
	BYTE	W96
	BYTE	W96
	BYTE	W96
	BYTE	W96
	BYTE	W96
	BYTE	W96
	BYTE		N06     Dn3   v084
	BYTE	W08
	BYTE		        Dn3   v028
	BYTE	W08
	BYTE		        Dn3   v016
	BYTE	W08
	BYTE		N08     Fn3   v084
	BYTE	W09
	BYTE		        Dn3   v080
	BYTE	W07
	BYTE		        Fn3 
	BYTE	W08
	BYTE		        An3   v084
	BYTE	W08
	BYTE		        Fn3   v076
	BYTE	W08
	BYTE		        An3 
	BYTE	W08
	BYTE		N24     Dn4   v068
	BYTE	W24
	BYTE	PEND
	BYTE		N06     Cn3   v080
	BYTE	W08
	BYTE		        Cn3   v028
	BYTE	W08
	BYTE		        Cn3   v016
	BYTE	W08
	BYTE		N08     En3   v080
	BYTE	W09
	BYTE		        Cn3   v076
	BYTE	W07
	BYTE		        En3   v072
	BYTE	W08
	BYTE		        Gn3   v080
	BYTE	W08
	BYTE		        En3   v072
	BYTE	W08
	BYTE		        Gn3 
	BYTE	W08
	BYTE		N24     Cn4   v064
	BYTE	W24
	BYTE	PEND
	BYTE		N06     Cs3   v084
	BYTE	W08
	BYTE		        Cs3   v028
	BYTE	W08
	BYTE		        Cs3   v016
	BYTE	W08
	BYTE		N08     Fn3   v084
	BYTE	W09
	BYTE		        Cs3   v080
	BYTE	W07
	BYTE		        Fn3 
	BYTE	W08
	BYTE		        As3   v084
	BYTE	W08
	BYTE		        Fn3   v076
	BYTE	W08
	BYTE		        As3 
	BYTE	W08
	BYTE		N24     Cs4   v068
	BYTE	W24
	BYTE	PEND
	BYTE		N06     Ds3   v088
	BYTE	W08
	BYTE		        Ds3   v028
	BYTE	W08
	BYTE		        Ds3   v016
	BYTE	W08
	BYTE		N08     Gn3   v088
	BYTE	W09
	BYTE		        Ds3   v084
	BYTE	W07
	BYTE		        Gn3   v080
	BYTE	W08
	BYTE		        As3   v088
	BYTE	W08
	BYTE		        Gn3   v080
	BYTE	W08
	BYTE		        As3 
	BYTE	W08
	BYTE		N24     Ds4   v072
	BYTE	W24
	BYTE	PEND
	BYTE		N12     Cs4   v088
	BYTE	W12
	BYTE		N04     Cn4   v084
	BYTE	W04
	BYTE		        Bn3   v080
	BYTE	W04
	BYTE		        As3   v072
	BYTE	W04
	BYTE		        Gs3 
	BYTE	W06
	BYTE		        Gs3   v028
	BYTE	W06
	BYTE		        Cs4   v064
	BYTE	W06
	BYTE		        Cs4   v028
	BYTE	W06
	BYTE		        Fn4   v068
	BYTE	W06
	BYTE		        Fn4   v028
	BYTE	W06
	BYTE		        Cs4   v072
	BYTE	W06
	BYTE		        Cs4   v028
	BYTE	W06
	BYTE		        Gs3   v068
	BYTE	W06
	BYTE		        Gs3   v028
	BYTE	W06
	BYTE		        Cs4   v064
	BYTE	W06
	BYTE		        Cs4   v028
	BYTE	W06
	BYTE	PEND
	BYTE		N12     Ds4   v088
	BYTE	W12
	BYTE		N04     Dn4   v084
	BYTE	W04
	BYTE		        Cs4   v076
	BYTE	W04
	BYTE		        Cn4   v072
	BYTE	W04
	BYTE		        As3 
	BYTE	W06
	BYTE		        As3   v028
	BYTE	W06
	BYTE		        Ds4   v072
	BYTE	W06
	BYTE		        Ds4   v028
	BYTE	W06
	BYTE		N12     Gn4   v076
	BYTE	W12
	BYTE		N06     Ds4 
	BYTE	W06
	BYTE		        As3   v068
	BYTE	W06
	BYTE		        Gn3   v076
	BYTE	W06
	BYTE		        Ds3   v072
	BYTE	W06
	BYTE		        As2 
	BYTE	W06
	BYTE		        Gn2   v068
	BYTE	W06
	BYTE	PEND
	BYTE		N12     Cs4   v088
	BYTE	W12
	BYTE		N04     Cn4   v084
	BYTE	W04
	BYTE		        Bn3   v080
	BYTE	W04
	BYTE		        As3   v072
	BYTE	W04
	BYTE		        Cs4 
	BYTE	W06
	BYTE		        Cs4   v028
	BYTE	W06
	BYTE		        Cs4   v064
	BYTE	W06
	BYTE		        Cs4   v028
	BYTE	W06
	BYTE		        Fn4   v068
	BYTE	W06
	BYTE		        Fn4   v028
	BYTE	W06
	BYTE		        Cs4   v072
	BYTE	W06
	BYTE		        Cs4   v028
	BYTE	W06
	BYTE		        Gs3   v068
	BYTE	W06
	BYTE		        Gs3   v028
	BYTE	W06
	BYTE		        Cs4   v064
	BYTE	W06
	BYTE		        Cs4   v028
	BYTE	W06
	BYTE	PEND
	BYTE		N12     Ds4   v088
	BYTE	W12
	BYTE		N04     Dn4   v084
	BYTE	W04
	BYTE		        Cs4   v076
	BYTE	W04
	BYTE		        Cn4   v072
	BYTE	W04
	BYTE		        Ds4 
	BYTE	W06
	BYTE		        Ds4   v028
	BYTE	W06
	BYTE		        Ds4   v072
	BYTE	W06
	BYTE		        Ds4   v028
	BYTE	W06
	BYTE		N12     Gn4   v076
	BYTE	W12
	BYTE		N06     Ds4 
	BYTE	W06
	BYTE		        As3   v068
	BYTE	W06
	BYTE		        Gn3   v076
	BYTE	W06
	BYTE		        Ds3   v072
	BYTE	W06
	BYTE		        As2 
	BYTE	W06
	BYTE		        Gn2   v068
	BYTE	W06
	BYTE	PEND
	BYTE	PATT
	 POIN2	seq_068_1 + 0x404
	BYTE	PATT
	 POIN2	seq_068_1 + 0x424
	BYTE	PATT
	 POIN2	seq_068_1 + 0x445
	BYTE	PATT
	 POIN2	seq_068_1 + 0x465
	BYTE		N24     Cs4   v084
	BYTE	W24
	BYTE		        Gs3   v088
	BYTE	W24
	BYTE		        Fn3   v096
	BYTE	W24
	BYTE		        Cs4   v092
	BYTE	W24
	BYTE	PEND
	BYTE		N24     Ds4   v092
	BYTE	W24
	BYTE		        As3   v096
	BYTE	W24
	BYTE		        Gn3 
	BYTE	W24
	BYTE		        Ds4   v088
	BYTE	W24
	BYTE	PEND
	BYTE		N72     Cn4   v084
	BYTE	W06
	BYTE		VOL     74*seq_068_mvl/mxv
	BYTE	W06
	BYTE		        74*seq_068_mvl/mxv
	BYTE	W03
	BYTE		        75*seq_068_mvl/mxv
	BYTE	W03
	BYTE		        77*seq_068_mvl/mxv
	BYTE	W03
	BYTE		        78*seq_068_mvl/mxv
	BYTE	W03
	BYTE		        78*seq_068_mvl/mxv
	BYTE	W09
	BYTE		        77*seq_068_mvl/mxv
	BYTE	W03
	BYTE		        76*seq_068_mvl/mxv
	BYTE	W03
	BYTE		        75*seq_068_mvl/mxv
	BYTE	W03
	BYTE		        74*seq_068_mvl/mxv
	BYTE	W03
	BYTE		        72*seq_068_mvl/mxv
	BYTE	W03
	BYTE		        70*seq_068_mvl/mxv
	BYTE	W03
	BYTE		        68*seq_068_mvl/mxv
	BYTE	W03
	BYTE		        66*seq_068_mvl/mxv
	BYTE	W03
	BYTE		        63*seq_068_mvl/mxv
	BYTE	W03
	BYTE		        61*seq_068_mvl/mxv
	BYTE	W03
	BYTE		        58*seq_068_mvl/mxv
	BYTE	W03
	BYTE		        54*seq_068_mvl/mxv
	BYTE	W03
	BYTE		        51*seq_068_mvl/mxv
	BYTE	W03
	BYTE		        73*seq_068_mvl/mxv
	BYTE		N24     Fn4   v076
	BYTE	W24
	BYTE	PEND
	BYTE		N92     An4   v064
	BYTE	W32
	BYTE	W01
	BYTE		VOL     71*seq_068_mvl/mxv
	BYTE	W06
	BYTE		        70*seq_068_mvl/mxv
	BYTE	W03
	BYTE		        70*seq_068_mvl/mxv
	BYTE	W03
	BYTE		        68*seq_068_mvl/mxv
	BYTE	W03
	BYTE		        67*seq_068_mvl/mxv
	BYTE	W03
	BYTE		        65*seq_068_mvl/mxv
	BYTE	W03
	BYTE		        62*seq_068_mvl/mxv
	BYTE	W03
	BYTE		        60*seq_068_mvl/mxv
	BYTE	W03
	BYTE		        57*seq_068_mvl/mxv
	BYTE	W03
	BYTE		        53*seq_068_mvl/mxv
	BYTE	W03
	BYTE		        50*seq_068_mvl/mxv
	BYTE	W03
	BYTE		        45*seq_068_mvl/mxv
	BYTE	W03
	BYTE		        41*seq_068_mvl/mxv
	BYTE	W03
	BYTE		        36*seq_068_mvl/mxv
	BYTE	W03
	BYTE		        30*seq_068_mvl/mxv
	BYTE	W03
	BYTE		        25*seq_068_mvl/mxv
	BYTE	W03
	BYTE		        19*seq_068_mvl/mxv
	BYTE	W03
	BYTE		        12*seq_068_mvl/mxv
	BYTE	W03
	BYTE		        6*seq_068_mvl/mxv
	BYTE	W03
	BYTE		        2*seq_068_mvl/mxv
	BYTE	W03
	BYTE	PEND
	BYTE		VOL     73*seq_068_mvl/mxv
	BYTE		TIE     Fn3   v076
	BYTE	W12
	BYTE		VOL     74*seq_068_mvl/mxv
	BYTE	W06
	BYTE		        74*seq_068_mvl/mxv
	BYTE	W36
	BYTE		        75*seq_068_mvl/mxv
	BYTE	W18
	BYTE		        76*seq_068_mvl/mxv
	BYTE	W18
	BYTE		        77*seq_068_mvl/mxv
	BYTE	W06
	BYTE	PEND
	BYTE	W06
	BYTE		VOL     78*seq_068_mvl/mxv
	BYTE	W24
	BYTE		        76*seq_068_mvl/mxv
	BYTE	W06
	BYTE		        75*seq_068_mvl/mxv
	BYTE	W06
	BYTE		        73*seq_068_mvl/mxv
	BYTE	W06
	BYTE		        70*seq_068_mvl/mxv
	BYTE	W06
	BYTE		        68*seq_068_mvl/mxv
	BYTE	W06
	BYTE		        64*seq_068_mvl/mxv
	BYTE	W06
	BYTE		        60*seq_068_mvl/mxv
	BYTE	W06
	BYTE		        55*seq_068_mvl/mxv
	BYTE	W06
	BYTE		        49*seq_068_mvl/mxv
	BYTE	W06
	BYTE		        43*seq_068_mvl/mxv
	BYTE	W06
	BYTE		        37*seq_068_mvl/mxv
	BYTE	W06
	BYTE	PEND
	BYTE		EOT     Fn3 
	BYTE		VOL     73*seq_068_mvl/mxv
	BYTE		TIE     Fs3   v076
	BYTE	W12
	BYTE		VOL     74*seq_068_mvl/mxv
	BYTE	W06
	BYTE		        74*seq_068_mvl/mxv
	BYTE	W36
	BYTE		        75*seq_068_mvl/mxv
	BYTE	W18
	BYTE		        76*seq_068_mvl/mxv
	BYTE	W18
	BYTE		        77*seq_068_mvl/mxv
	BYTE	W06
	BYTE	PEND
	BYTE	PATT
	 POIN2	seq_068_1 + 0x5E9
	BYTE		EOT     Fs3 
	BYTE		VOL     73*seq_068_mvl/mxv
	BYTE	W24
	BYTE		N23     En2   v084
	BYTE	W24
	BYTE		N05     En2   v032
	BYTE	W06
	BYTE		        En2   v020
	BYTE	W06
	BYTE		        En2   v012
	BYTE	W12
	BYTE		N23     En2   v076
	BYTE	W24
	BYTE	PEND
	BYTE		N05     En2   v032
	BYTE	W06
	BYTE		        En2   v020
	BYTE	W06
	BYTE		        En2   v012
	BYTE	W12
	BYTE		N23     En2   v084
	BYTE	W24
	BYTE		N05     En2   v032
	BYTE	W06
	BYTE		        En2   v020
	BYTE	W06
	BYTE		        En2   v012
	BYTE	W12
	BYTE		N23     En2   v080
	BYTE	W24
	BYTE	PEND
	BYTE		N05     En2   v032
	BYTE	W06
	BYTE		        En2   v020
	BYTE	W06
	BYTE		        En2   v012
	BYTE	W12
	BYTE		N23     As2   v084
	BYTE	W24
	BYTE		N05     As2   v032
	BYTE	W06
	BYTE		        As2   v020
	BYTE	W06
	BYTE		        As2   v012
	BYTE	W12
	BYTE		N23     As2   v080
	BYTE	W24
	BYTE	PEND
	BYTE		N05     As2   v032
	BYTE	W06
	BYTE		        As2   v020
	BYTE	W06
	BYTE		        As2   v012
	BYTE	W12
	BYTE		N23     As2   v084
	BYTE	W24
	BYTE		N05     As2   v032
	BYTE	W06
	BYTE		        As2   v020
	BYTE	W06
	BYTE		        As2   v012
	BYTE	W12
	BYTE		N23     As2   v080
	BYTE	W24
	BYTE	PEND
	BYTE		N05     As2   v032
	BYTE	W06
	BYTE		        As2   v020
	BYTE	W06
	BYTE		        As2   v012
	BYTE	W12
	BYTE		        Cs3   v084
	BYTE	W08
	BYTE		        Cs3   v080
	BYTE	W08
	BYTE		        Cs3   v076
	BYTE	W08
	BYTE		N44     Cs3   v084
	BYTE	W48
	BYTE	PEND
	BYTE		N05     Cs3   v032
	BYTE	W06
	BYTE		        Cs3   v020
	BYTE	W06
	BYTE		        Cs3   v012
	BYTE	W12
	BYTE		        Cs3   v088
	BYTE	W08
	BYTE		        Cs3   v080
	BYTE	W08
	BYTE		        Cs3   v076
	BYTE	W08
	BYTE		N44     Cs3   v088
	BYTE	W48
	BYTE	PEND
	BYTE		N05     Cs3   v032
	BYTE	W06
	BYTE		        Cs3   v020
	BYTE	W06
	BYTE		        Cs3   v012
	BYTE	W12
	BYTE		        Ds3   v088
	BYTE	W08
	BYTE		        Ds3   v080
	BYTE	W08
	BYTE		        Ds3   v076
	BYTE	W08
	BYTE		N48     Ds3   v088
	BYTE	W48
	BYTE	PEND
	BYTE		N24     Fn3   v080
	BYTE	W24
	BYTE		        Ds3   v076
	BYTE	W24
	BYTE		        Dn3   v080
	BYTE	W24
	BYTE		        Cn3   v076
	BYTE	W24
	BYTE	PEND
	BYTE	PATT
	 POIN2	seq_068_1 + 0x404
	BYTE	PATT
	 POIN2	seq_068_1 + 0x424
	BYTE	PATT
	 POIN2	seq_068_1 + 0x445
	BYTE	PATT
	 POIN2	seq_068_1 + 0x465
	BYTE	PATT
	 POIN2	seq_068_1 + 0x486
	BYTE	PATT
	 POIN2	seq_068_1 + 0x4B8
	BYTE	PATT
	 POIN2	seq_068_1 + 0x4E7
	BYTE	PATT
	 POIN2	seq_068_1 + 0x519
	BYTE	PATT
	 POIN2	seq_068_1 + 0x404
	BYTE	PATT
	 POIN2	seq_068_1 + 0x424
	BYTE	PATT
	 POIN2	seq_068_1 + 0x445
	BYTE	PATT
	 POIN2	seq_068_1 + 0x465
	BYTE	PATT
	 POIN2	seq_068_1 + 0x55C
	BYTE	PATT
	 POIN2	seq_068_1 + 0x56A
	BYTE	PATT
	 POIN2	seq_068_1 + 0x577
	BYTE	PATT
	 POIN2	seq_068_1 + 0x5A8
	BYTE	PATT
	 POIN2	seq_068_1 + 0x5D7
	BYTE	PATT
	 POIN2	seq_068_1 + 0x5E9
	BYTE		EOT     Fn3 
	BYTE	PATT
	 POIN2	seq_068_1 + 0x606
	BYTE	PATT
	 POIN2	seq_068_1 + 0x5E9
	BYTE		EOT     Fs3 
	BYTE	PATT
	 POIN2	seq_068_1 + 0x61F
	BYTE	PATT
	 POIN2	seq_068_1 + 0x635
	BYTE	PATT
	 POIN2	seq_068_1 + 0x652
	BYTE	PATT
	 POIN2	seq_068_1 + 0x66F
	BYTE	PATT
	 POIN2	seq_068_1 + 0x68C
	BYTE	PATT
	 POIN2	seq_068_1 + 0x6A4
	BYTE	PATT
	 POIN2	seq_068_1 + 0x6BC
	BYTE	PATT
	 POIN2	seq_068_1 + 0x6D4
	BYTE	PATT
	 POIN2	seq_068_1 + 0x404
	BYTE	PATT
	 POIN2	seq_068_1 + 0x424
	BYTE	PATT
	 POIN2	seq_068_1 + 0x445
	BYTE	PATT
	 POIN2	seq_068_1 + 0x465
	BYTE	PATT
	 POIN2	seq_068_1 + 0x486
	BYTE	PATT
	 POIN2	seq_068_1 + 0x4B8
	BYTE	PATT
	 POIN2	seq_068_1 + 0x4E7
	BYTE	PATT
	 POIN2	seq_068_1 + 0x519
	BYTE	PATT
	 POIN2	seq_068_1 + 0x404
	BYTE	PATT
	 POIN2	seq_068_1 + 0x424
	BYTE	PATT
	 POIN2	seq_068_1 + 0x445
	BYTE	PATT
	 POIN2	seq_068_1 + 0x465
	BYTE	PATT
	 POIN2	seq_068_1 + 0x55C
	BYTE	PATT
	 POIN2	seq_068_1 + 0x56A
	BYTE	PATT
	 POIN2	seq_068_1 + 0x577
	BYTE	PATT
	 POIN2	seq_068_1 + 0x5A8
	BYTE	PATT
	 POIN2	seq_068_1 + 0x5D7
	BYTE	PATT
	 POIN2	seq_068_1 + 0x5E9
	BYTE		EOT     Fn3 
	BYTE	PATT
	 POIN2	seq_068_1 + 0x606
	BYTE	PATT
	 POIN2	seq_068_1 + 0x5E9
	BYTE		EOT     Fs3 
	BYTE	PATT
	 POIN2	seq_068_1 + 0x61F
	BYTE	PATT
	 POIN2	seq_068_1 + 0x635
	BYTE	PATT
	 POIN2	seq_068_1 + 0x652
	BYTE	PATT
	 POIN2	seq_068_1 + 0x66F
	BYTE	PATT
	 POIN2	seq_068_1 + 0x68C
	BYTE	PATT
	 POIN2	seq_068_1 + 0x6A4
	BYTE	PATT
	 POIN2	seq_068_1 + 0x6BC
	BYTE	PATT
	 POIN2	seq_068_1 + 0x6D4
	BYTE	PATT
	 POIN2	seq_068_1 + 0x404
	BYTE	PATT
	 POIN2	seq_068_1 + 0x424
	BYTE	PATT
	 POIN2	seq_068_1 + 0x445
	BYTE	PATT
	 POIN2	seq_068_1 + 0x465
	BYTE	PATT
	 POIN2	seq_068_1 + 0x486
	BYTE	PATT
	 POIN2	seq_068_1 + 0x4B8
	BYTE	PATT
	 POIN2	seq_068_1 + 0x4E7
	BYTE	PATT
	 POIN2	seq_068_1 + 0x519
	BYTE	PATT
	 POIN2	seq_068_1 + 0x404
	BYTE	PATT
	 POIN2	seq_068_1 + 0x424
	BYTE	PATT
	 POIN2	seq_068_1 + 0x445
	BYTE	PATT
	 POIN2	seq_068_1 + 0x465
	BYTE	PATT
	 POIN2	seq_068_1 + 0x55C
	BYTE	PATT
	 POIN2	seq_068_1 + 0x56A
	BYTE	PATT
	 POIN2	seq_068_1 + 0x577
	BYTE	PATT
	 POIN2	seq_068_1 + 0x5A8
	BYTE		VOL     73*seq_068_mvl/mxv
	BYTE		N06     Dn4   v068
	BYTE	W06
	BYTE		        Cn4   v064
	BYTE	W06
	BYTE		        As3   v068
	BYTE	W06
	BYTE		        Cn4   v064
	BYTE	W06
	BYTE		        Dn4   v072
	BYTE	W06
	BYTE		        Gn4   v060
	BYTE	W06
	BYTE		        Fn4 
	BYTE	W06
	BYTE		        Ds4 
	BYTE	W06
	BYTE		        Fn4   v064
	BYTE	W06
	BYTE		        Dn4 
	BYTE	W06
	BYTE		        Cn4   v068
	BYTE	W06
	BYTE		        Dn4   v060
	BYTE	W06
	BYTE		        Fn4   v064
	BYTE	W06
	BYTE		        Ds4   v060
	BYTE	W06
	BYTE		        Dn4   v068
	BYTE	W06
	BYTE		        Cn4   v064
	BYTE	W06
	BYTE		N06     Dn4   v064
	BYTE	W06
	BYTE		        Cn4   v060
	BYTE	W06
	BYTE		        As3   v064
	BYTE	W06
	BYTE		        Cn4   v060
	BYTE	W06
	BYTE		        Dn4   v068
	BYTE	W06
	BYTE		        Gn4   v060
	BYTE	W06
	BYTE		        Fn4   v056
	BYTE	W06
	BYTE		        Ds4 
	BYTE	W06
	BYTE		        Fn4   v060
	BYTE	W06
	BYTE		        Dn4 
	BYTE	W06
	BYTE		        Cn4   v064
	BYTE	W06
	BYTE		        Dn4   v056
	BYTE	W06
	BYTE		        Fn4   v060
	BYTE	W06
	BYTE		        Ds4 
	BYTE	W06
	BYTE		        Dn4   v064
	BYTE	W06
	BYTE		        Cn4   v060
	BYTE	W06
	BYTE	PEND
	BYTE		N06     Dn4   v068
	BYTE	W06
	BYTE		        Cn4   v064
	BYTE	W06
	BYTE		        As3   v068
	BYTE	W06
	BYTE		        Cn4   v064
	BYTE	W06
	BYTE		        Dn4   v072
	BYTE	W06
	BYTE		        Gn4   v060
	BYTE	W06
	BYTE		        Fn4 
	BYTE	W06
	BYTE		        Ds4 
	BYTE	W06
	BYTE		        Fn4   v064
	BYTE	W06
	BYTE		        Dn4 
	BYTE	W06
	BYTE		        Cn4   v068
	BYTE	W06
	BYTE		        Dn4   v060
	BYTE	W06
	BYTE		        Fn4   v064
	BYTE	W06
	BYTE		        Ds4   v060
	BYTE	W06
	BYTE		        Dn4   v068
	BYTE	W06
	BYTE		        Cn4   v064
	BYTE	W06
	BYTE	PEND
	BYTE	PATT
	 POIN2	seq_068_1 + 0x882
	BYTE		N06     En4   v068
	BYTE	W06
	BYTE		        Cn4   v064
	BYTE	W06
	BYTE		        As3   v068
	BYTE	W06
	BYTE		        Cn4   v064
	BYTE	W06
	BYTE		        En4   v072
	BYTE	W06
	BYTE		        Gn4   v060
	BYTE	W06
	BYTE		        Fn4 
	BYTE	W06
	BYTE		        En4 
	BYTE	W06
	BYTE		        Fn4   v064
	BYTE	W06
	BYTE		        Dn4 
	BYTE	W06
	BYTE		        Cn4   v068
	BYTE	W06
	BYTE		        Dn4   v060
	BYTE	W06
	BYTE		        Fn4   v064
	BYTE	W06
	BYTE		        En4   v060
	BYTE	W06
	BYTE		        Dn4   v068
	BYTE	W06
	BYTE		        Cn4   v064
	BYTE	W06
	BYTE	PEND
	BYTE		N06     En4   v064
	BYTE	W06
	BYTE		        Cn4   v060
	BYTE	W06
	BYTE		        As3   v064
	BYTE	W06
	BYTE		        Cn4   v060
	BYTE	W06
	BYTE		        En4   v068
	BYTE	W06
	BYTE		        Gn4   v060
	BYTE	W06
	BYTE		        Fn4   v056
	BYTE	W06
	BYTE		        En4 
	BYTE	W06
	BYTE		        Fn4   v060
	BYTE	W06
	BYTE		        Dn4 
	BYTE	W06
	BYTE		        Cn4   v064
	BYTE	W06
	BYTE		        Dn4   v056
	BYTE	W06
	BYTE		        Fn4   v060
	BYTE	W06
	BYTE		        En4 
	BYTE	W06
	BYTE		        Dn4   v064
	BYTE	W06
	BYTE		        Cn4   v060
	BYTE	W06
	BYTE	PEND
	BYTE		N06     Cs4   v068
	BYTE	W06
	BYTE		        Cn4   v064
	BYTE	W06
	BYTE		        As3   v068
	BYTE	W06
	BYTE		        Cn4   v064
	BYTE	W06
	BYTE		        Cs4   v072
	BYTE	W06
	BYTE		        Gn4   v060
	BYTE	W06
	BYTE		        Fn4 
	BYTE	W06
	BYTE		        Ds4 
	BYTE	W06
	BYTE		        Fn4   v064
	BYTE	W06
	BYTE		        Cs4 
	BYTE	W06
	BYTE		        Cn4   v068
	BYTE	W06
	BYTE		        Cs4   v060
	BYTE	W06
	BYTE		        Fn4   v064
	BYTE	W06
	BYTE		        Ds4   v060
	BYTE	W06
	BYTE		        Cs4   v068
	BYTE	W06
	BYTE		        Cn4   v064
	BYTE	W06
	BYTE	PEND
	BYTE		N06     Cs4   v064
	BYTE	W06
	BYTE		        Cn4   v060
	BYTE	W06
	BYTE		        As3   v064
	BYTE	W06
	BYTE		        Cn4   v060
	BYTE	W06
	BYTE		        Cs4   v068
	BYTE	W06
	BYTE		        Gn4   v060
	BYTE	W06
	BYTE		        Fn4   v056
	BYTE	W06
	BYTE		        Ds4 
	BYTE	W06
	BYTE		        Fn4   v060
	BYTE	W06
	BYTE		        Cs4 
	BYTE	W06
	BYTE		        Cn4   v064
	BYTE	W06
	BYTE		        Cs4   v056
	BYTE	W06
	BYTE		        Fn4   v060
	BYTE	W06
	BYTE		        Ds4 
	BYTE	W06
	BYTE		        Cs4   v064
	BYTE	W06
	BYTE		        Cn4   v060
	BYTE	W06
	BYTE	PEND
	BYTE		N06     Cs4   v068
	BYTE	W06
	BYTE		        Cn4   v064
	BYTE	W06
	BYTE		        As3   v068
	BYTE	W06
	BYTE		        Cn4   v064
	BYTE	W06
	BYTE		        Cs4   v072
	BYTE	W06
	BYTE		        Gn4   v060
	BYTE	W06
	BYTE		        Fn4 
	BYTE	W06
	BYTE		        Ds4 
	BYTE	W06
	BYTE		        Fn4   v064
	BYTE	W06
	BYTE		        Cs4 
	BYTE	W06
	BYTE		        As3   v068
	BYTE	W06
	BYTE		        Cs4   v060
	BYTE	W06
	BYTE		        Fn4   v064
	BYTE	W06
	BYTE		        Ds4   v060
	BYTE	W06
	BYTE		        Cs4   v068
	BYTE	W06
	BYTE		        As3   v064
	BYTE	W06
	BYTE	PEND
	BYTE		N06     Cs4   v064
	BYTE	W06
	BYTE		        Cn4   v060
	BYTE	W06
	BYTE		        As3   v064
	BYTE	W06
	BYTE		        Cn4   v060
	BYTE	W06
	BYTE		        Cs4   v068
	BYTE	W06
	BYTE		        Gn4   v060
	BYTE	W06
	BYTE		        Fn4   v056
	BYTE	W06
	BYTE		        Ds4 
	BYTE	W06
	BYTE		        Fn4   v060
	BYTE	W06
	BYTE		        Cs4 
	BYTE	W06
	BYTE		        As3   v064
	BYTE	W06
	BYTE		        Cs4   v056
	BYTE	W06
	BYTE		        Fn4   v060
	BYTE	W06
	BYTE		        Ds4 
	BYTE	W06
	BYTE		        Cs4   v064
	BYTE	W06
	BYTE		        As3   v060
	BYTE	W06
	BYTE	PEND
	BYTE	PATT
	 POIN2	seq_068_1 + 0x8B1
	BYTE	PATT
	 POIN2	seq_068_1 + 0x882
	BYTE	PATT
	 POIN2	seq_068_1 + 0x8E5
	BYTE	PATT
	 POIN2	seq_068_1 + 0x914
	BYTE	PATT
	 POIN2	seq_068_1 + 0x943
	BYTE	PATT
	 POIN2	seq_068_1 + 0x972
	BYTE	PATT
	 POIN2	seq_068_1 + 0x9A1
	BYTE	PATT
	 POIN2	seq_068_1 + 0x9D0
	BYTE		N24     Dn4   v068
	BYTE	W24
	BYTE		        Gn4   v064
	BYTE	W24
	BYTE		        Fn4 
	BYTE	W24
	BYTE		        Ds4   v060
	BYTE	W24
	BYTE	PEND
	BYTE		N24     Dn4   v064
	BYTE	W24
	BYTE		        Gn4   v060
	BYTE	W24
	BYTE		        Fn4 
	BYTE	W24
	BYTE		        Ds4 
	BYTE	W24
	BYTE	PEND
	BYTE		N05     As3   v072
	BYTE	W06
	BYTE		N04     As3   v020
	BYTE	W06
	BYTE		        Gs3   v060
	BYTE	W06
	BYTE		        Gs3   v020
	BYTE	W06
	BYTE		        Fs3   v068
	BYTE	W06
	BYTE		        Fs3   v020
	BYTE	W06
	BYTE		        Gs3   v064
	BYTE	W06
	BYTE		        Gs3   v020
	BYTE	W06
	BYTE		N05     As3   v076
	BYTE	W06
	BYTE		N04     As3   v020
	BYTE	W06
	BYTE		        Cn4   v068
	BYTE	W06
	BYTE		        Cn4   v020
	BYTE	W06
	BYTE		        Cs4   v076
	BYTE	W06
	BYTE		        Cs4   v020
	BYTE	W06
	BYTE		        Ds4   v072
	BYTE	W06
	BYTE		        Ds4   v020
	BYTE	W06
	BYTE	PEND
	BYTE		N05     Fn4   v076
	BYTE	W06
	BYTE		N04     Fn4   v020
	BYTE	W06
	BYTE		        Ds4   v068
	BYTE	W06
	BYTE		        Ds4   v020
	BYTE	W06
	BYTE		        Cs4   v076
	BYTE	W06
	BYTE		        Cs4   v020
	BYTE	W06
	BYTE		        Ds4   v072
	BYTE	W06
	BYTE		        Ds4   v020
	BYTE	W06
	BYTE		N05     Fn4   v076
	BYTE	W06
	BYTE		N04     Fn4   v020
	BYTE	W06
	BYTE		        Fs4   v068
	BYTE	W06
	BYTE		        Fs4   v020
	BYTE	W06
	BYTE		        Gs4   v076
	BYTE	W06
	BYTE		        Gs4   v020
	BYTE	W06
	BYTE		        As4   v072
	BYTE	W06
	BYTE		        As4   v020
	BYTE	W06
	BYTE	PEND
	BYTE	PATT
	 POIN2	seq_068_1 + 0xA27
	BYTE	PATT
	 POIN2	seq_068_1 + 0xA34
	BYTE	PATT
	 POIN2	seq_068_1 + 0xA40
	BYTE	PATT
	 POIN2	seq_068_1 + 0xA75
	BYTE		N05     Dn4   v084
	BYTE	W06
	BYTE		N04     Dn4   v020
	BYTE	W06
	BYTE		        As3   v076
	BYTE	W06
	BYTE		        As3   v020
	BYTE	W06
	BYTE		        Dn4   v080
	BYTE	W06
	BYTE		        Dn4   v020
	BYTE	W06
	BYTE		        As3   v072
	BYTE	W06
	BYTE		        As3   v020
	BYTE	W06
	BYTE		N05     Dn4   v076
	BYTE	W06
	BYTE		N04     Dn4   v020
	BYTE	W06
	BYTE		        As3   v072
	BYTE	W06
	BYTE		        As3   v020
	BYTE	W06
	BYTE		        Dn4   v076
	BYTE	W06
	BYTE		        Dn4   v020
	BYTE	W06
	BYTE		        As3   v068
	BYTE	W06
	BYTE		        As3   v020
	BYTE	W06
	BYTE		N05     Dn4   v084
	BYTE	W06
	BYTE		N04     Dn4   v020
	BYTE	W06
	BYTE		        As3   v076
	BYTE	W06
	BYTE		        As3   v020
	BYTE	W06
	BYTE		        Dn4   v080
	BYTE	W06
	BYTE		        Dn4   v020
	BYTE	W06
	BYTE		        As3   v072
	BYTE	W06
	BYTE		        As3   v020
	BYTE	W06
	BYTE		N05     Cs4   v088
	BYTE	W06
	BYTE		N04     Cs4   v020
	BYTE	W06
	BYTE		        As3   v080
	BYTE	W06
	BYTE		        As3   v020
	BYTE	W06
	BYTE		        Cs4   v084
	BYTE	W06
	BYTE		        Cs4   v020
	BYTE	W06
	BYTE		        As3   v076
	BYTE	W06
	BYTE		        As3   v020
	BYTE	W06
	BYTE		N05     Dn4   v088
	BYTE	W06
	BYTE		N04     Dn4   v024
	BYTE	W06
	BYTE		        As3   v080
	BYTE	W06
	BYTE		        As3   v024
	BYTE	W06
	BYTE		        Dn4   v084
	BYTE	W06
	BYTE		        Dn4   v024
	BYTE	W06
	BYTE		        As3   v076
	BYTE	W06
	BYTE		        As3   v024
	BYTE	W06
	BYTE		N05     Dn4   v080
	BYTE	W06
	BYTE		N04     Dn4   v024
	BYTE	W06
	BYTE		        As3   v076
	BYTE	W06
	BYTE		        As3   v024
	BYTE	W06
	BYTE		        Dn4   v080
	BYTE	W06
	BYTE		        Dn4   v024
	BYTE	W06
	BYTE		        As3   v072
	BYTE	W06
	BYTE		        As3   v024
	BYTE	W06
	BYTE		N05     Dn4   v088
	BYTE	W06
	BYTE		N04     Dn4   v024
	BYTE	W06
	BYTE		        As3   v080
	BYTE	W06
	BYTE		        As3   v024
	BYTE	W06
	BYTE		        Dn4   v084
	BYTE	W06
	BYTE		        Dn4   v024
	BYTE	W06
	BYTE		        As3   v076
	BYTE	W06
	BYTE		        As3   v024
	BYTE	W06
	BYTE		N05     Cs4   v092
	BYTE	W06
	BYTE		N04     Cs4   v024
	BYTE	W06
	BYTE		        As3   v080
	BYTE	W06
	BYTE		        As3   v024
	BYTE	W06
	BYTE		        Cs4   v088
	BYTE	W06
	BYTE		        Cs4   v024
	BYTE	W06
	BYTE		        As3   v080
	BYTE	W06
	BYTE		        As3   v024
	BYTE	W06
	BYTE		N23     Dn4   v084
	BYTE	W24
	BYTE		N23
	BYTE	W24
	BYTE		N23
	BYTE	W24
	BYTE		N23
	BYTE	W24
	BYTE		N17
	BYTE	W18
	BYTE		N06     Dn4   v020
	BYTE	W30
	BYTE		N17     Dn4   v080
	BYTE	W18
	BYTE		N06     Dn4   v020
	BYTE	W30
	BYTE		N44     As2   v084
	BYTE	W48
	BYTE		        As2   v088
	BYTE	W48
	BYTE		TIE
	BYTE	W06
	BYTE		VOL     74*seq_068_mvl/mxv
	BYTE	W12
	BYTE		        75*seq_068_mvl/mxv
	BYTE	W06
	BYTE		        77*seq_068_mvl/mxv
	BYTE	W06
	BYTE		        80*seq_068_mvl/mxv
	BYTE	W06
	BYTE		        81*seq_068_mvl/mxv
	BYTE	W18
	BYTE		        80*seq_068_mvl/mxv
	BYTE	W06
	BYTE		        80*seq_068_mvl/mxv
	BYTE	W12
	BYTE		        78*seq_068_mvl/mxv
	BYTE	W06
	BYTE		        78*seq_068_mvl/mxv
	BYTE	W06
	BYTE		        77*seq_068_mvl/mxv
	BYTE	W06
	BYTE		        76*seq_068_mvl/mxv
	BYTE	W06
	BYTE		        74*seq_068_mvl/mxv
	BYTE	W06
	BYTE		        73*seq_068_mvl/mxv
	BYTE	W06
	BYTE		        72*seq_068_mvl/mxv
	BYTE	W06
	BYTE		        70*seq_068_mvl/mxv
	BYTE	W06
	BYTE		        68*seq_068_mvl/mxv
	BYTE	W06
	BYTE		        66*seq_068_mvl/mxv
	BYTE	W06
	BYTE		        64*seq_068_mvl/mxv
	BYTE	W06
	BYTE		        62*seq_068_mvl/mxv
	BYTE	W06
	BYTE		        60*seq_068_mvl/mxv
	BYTE	W06
	BYTE		        58*seq_068_mvl/mxv
	BYTE	W06
	BYTE		        55*seq_068_mvl/mxv
	BYTE	W06
	BYTE		        51*seq_068_mvl/mxv
	BYTE	W06
	BYTE		        48*seq_068_mvl/mxv
	BYTE	W06
	BYTE		        46*seq_068_mvl/mxv
	BYTE	W06
	BYTE		        42*seq_068_mvl/mxv
	BYTE	W06
	BYTE		        40*seq_068_mvl/mxv
	BYTE	W06
	BYTE		        36*seq_068_mvl/mxv
	BYTE	W06
	BYTE		        34*seq_068_mvl/mxv
	BYTE	W06
	BYTE		        31*seq_068_mvl/mxv
	BYTE	W06
	BYTE		        28*seq_068_mvl/mxv
	BYTE	W06
	BYTE		        25*seq_068_mvl/mxv
	BYTE	W06
	BYTE		        22*seq_068_mvl/mxv
	BYTE	W06
	BYTE		        19*seq_068_mvl/mxv
	BYTE	W06
	BYTE		        16*seq_068_mvl/mxv
	BYTE	W06
	BYTE		        13*seq_068_mvl/mxv
	BYTE	W06
	BYTE		        12*seq_068_mvl/mxv
	BYTE	W06
	BYTE		        11*seq_068_mvl/mxv
	BYTE	W06
	BYTE		        10*seq_068_mvl/mxv
	BYTE	W06
	BYTE		        10*seq_068_mvl/mxv
	BYTE	W06
	BYTE		        8*seq_068_mvl/mxv
	BYTE	W06
	BYTE		        8*seq_068_mvl/mxv
	BYTE	W06
	BYTE		        6*seq_068_mvl/mxv
	BYTE	W06
	BYTE		        6*seq_068_mvl/mxv
	BYTE	W06
	BYTE		        5*seq_068_mvl/mxv
	BYTE	W06
	BYTE		        4*seq_068_mvl/mxv
	BYTE	W06
	BYTE		        3*seq_068_mvl/mxv
	BYTE	W06
	BYTE		        2*seq_068_mvl/mxv
	BYTE	W06
	BYTE		        1*seq_068_mvl/mxv
	BYTE	W06
	BYTE		        0*seq_068_mvl/mxv
	BYTE	W06
	BYTE		        0*seq_068_mvl/mxv
	BYTE	W06
	BYTE		EOT
	BYTE	FINE

//*********************** Track 03 ***********************//

seq_068_2:
	BYTE	KEYSH   seq_068_key+0
	BYTE		VOICE   72
	BYTE	W01
	BYTE		PAN     c_v-9
	BYTE	W01
	BYTE		VOL     73*seq_068_mvl/mxv
	BYTE	W01
	BYTE		N05     Bn3   v068
	BYTE	W06
	BYTE		N06     An3   v064
	BYTE	W06
	BYTE		        Gn3   v068
	BYTE	W06
	BYTE		        An3   v064
	BYTE	W06
	BYTE		        Bn3   v072
	BYTE	W06
	BYTE		        En4   v060
	BYTE	W06
	BYTE		        Dn4 
	BYTE	W06
	BYTE		        Cn4 
	BYTE	W06
	BYTE		        Dn4   v064
	BYTE	W06
	BYTE		        Bn3 
	BYTE	W06
	BYTE		        An3   v068
	BYTE	W06
	BYTE		        Bn3   v060
	BYTE	W06
	BYTE		        Dn4   v064
	BYTE	W06
	BYTE		        Cn4   v060
	BYTE	W06
	BYTE		        Bn3   v068
	BYTE	W06
	BYTE		        An3   v064
	BYTE	W06
	BYTE		N06     Bn3   v064
	BYTE	W06
	BYTE		        An3 
	BYTE	W06
	BYTE		        Gn3 
	BYTE	W06
	BYTE		        An3   v060
	BYTE	W06
	BYTE		        Bn3   v064
	BYTE	W06
	BYTE		        En4   v056
	BYTE	W06
	BYTE		        Dn4 
	BYTE	W06
	BYTE		        Cn4 
	BYTE	W06
	BYTE		        Dn4   v060
	BYTE	W06
	BYTE		        Bn3 
	BYTE	W06
	BYTE		        An3   v064
	BYTE	W06
	BYTE		        Bn3   v056
	BYTE	W06
	BYTE		        Dn4   v060
	BYTE	W06
	BYTE		        Cn4   v056
	BYTE	W06
	BYTE		        Bn3   v064
	BYTE	W06
	BYTE		        An3   v060
	BYTE	W06
	BYTE	PEND
	BYTE		N06     Bn3   v064
	BYTE	W06
	BYTE		        An3 
	BYTE	W06
	BYTE		        Gn3 
	BYTE	W06
	BYTE		        An3   v060
	BYTE	W06
	BYTE		        Bn3   v068
	BYTE	W06
	BYTE		        En4   v060
	BYTE	W06
	BYTE		        Dn4   v056
	BYTE	W06
	BYTE		        Cn4 
	BYTE	W06
	BYTE		        Dn4   v064
	BYTE	W06
	BYTE		        Bn3   v060
	BYTE	W06
	BYTE		        An3   v064
	BYTE	W06
	BYTE		        Bn3   v056
	BYTE	W06
	BYTE		        Dn4   v064
	BYTE	W06
	BYTE		        Cn4   v060
	BYTE	W06
	BYTE		        Bn3   v064
	BYTE	W06
	BYTE		        An3   v060
	BYTE	W06
	BYTE	PEND
	BYTE		N06     Bn3   v060
	BYTE	W06
	BYTE		        An3 
	BYTE	W06
	BYTE		        Gn3 
	BYTE	W06
	BYTE		        An3   v056
	BYTE	W06
	BYTE		        Bn3   v064
	BYTE	W06
	BYTE		        En4   v056
	BYTE	W06
	BYTE		        Dn4   v052
	BYTE	W06
	BYTE		        Cn4 
	BYTE	W06
	BYTE		        Dn4   v060
	BYTE	W06
	BYTE		        Bn3   v056
	BYTE	W06
	BYTE		        An3   v060
	BYTE	W06
	BYTE		        Bn3   v052
	BYTE	W06
	BYTE		        Dn4   v060
	BYTE	W06
	BYTE		        Cn4   v056
	BYTE	W06
	BYTE		        Bn3   v060
	BYTE	W06
	BYTE		        An3   v056
	BYTE	W06
	BYTE	PEND
	BYTE	PATT
	 POIN2	seq_068_2 + 0x96
	BYTE		N06     Bn3   v056
	BYTE	W06
	BYTE		        An3 
	BYTE	W06
	BYTE		        Gn3   v060
	BYTE	W06
	BYTE		        An3   v052
	BYTE	W06
	BYTE		        Bn3   v060
	BYTE	W06
	BYTE		        En4   v052
	BYTE	W06
	BYTE		        Dn4   v048
	BYTE	W06
	BYTE		        Cn4   v052
	BYTE	W06
	BYTE		        Dn4   v056
	BYTE	W06
	BYTE		        Bn3   v052
	BYTE	W06
	BYTE		        An3   v056
	BYTE	W06
	BYTE		        Bn3   v052
	BYTE	W06
	BYTE		        Dn4   v056
	BYTE	W06
	BYTE		        Cn4   v052
	BYTE	W06
	BYTE		        Bn3   v056
	BYTE	W06
	BYTE		        An3   v052
	BYTE	W06
	BYTE		        Bn3   v060
	BYTE	W06
	BYTE		        An3   v056
	BYTE	W06
	BYTE		        Gn3   v060
	BYTE	W06
	BYTE		        An3   v052
	BYTE	W06
	BYTE		        Bn3   v060
	BYTE	W06
	BYTE		        En4   v052
	BYTE	W06
	BYTE		        Dn4 
	BYTE	W06
	BYTE		        Cn4 
	BYTE	W06
	BYTE		        Dn4   v056
	BYTE	W06
	BYTE		        Bn3 
	BYTE	W06
	BYTE		        An3   v060
	BYTE	W06
	BYTE		        Bn3   v052
	BYTE	W06
	BYTE		        Dn4   v056
	BYTE	W06
	BYTE		        Cn4   v052
	BYTE	W06
	BYTE		        Bn3   v060
	BYTE	W06
	BYTE		        An3   v052
	BYTE	W06
	BYTE		        Bn3 
	BYTE	W06
	BYTE		        An3 
	BYTE	W06
	BYTE		        Gn3   v056
	BYTE	W06
	BYTE		        An3   v048
	BYTE	W06
	BYTE		        Bn3   v056
	BYTE	W06
	BYTE		        En4   v048
	BYTE	W06
	BYTE		        Dn4 
	BYTE	W06
	BYTE		        Cn4 
	BYTE	W06
	BYTE		        Dn4   v052
	BYTE	W06
	BYTE		        Bn3 
	BYTE	W06
	BYTE		        An3 
	BYTE	W06
	BYTE		        Bn3   v048
	BYTE	W06
	BYTE		        Dn4   v052
	BYTE	W06
	BYTE		        Cn4   v048
	BYTE	W06
	BYTE		        Bn3   v052
	BYTE	W06
	BYTE		        An3   v048
	BYTE	W06
	BYTE		        Bn3   v068
	BYTE	W06
	BYTE		        An3   v064
	BYTE	W06
	BYTE		        Gn3   v068
	BYTE	W06
	BYTE		        An3   v064
	BYTE	W06
	BYTE		        Bn3   v072
	BYTE	W06
	BYTE		        En4   v060
	BYTE	W06
	BYTE		        Dn4 
	BYTE	W06
	BYTE		        Cn4 
	BYTE	W06
	BYTE		        Dn4   v064
	BYTE	W06
	BYTE		        Bn3 
	BYTE	W06
	BYTE		        An3   v068
	BYTE	W06
	BYTE		        Bn3   v060
	BYTE	W06
	BYTE		        Dn4   v064
	BYTE	W06
	BYTE		        Cn4   v060
	BYTE	W06
	BYTE		        Bn3   v068
	BYTE	W06
	BYTE		        An3   v064
	BYTE	W06
	BYTE	PATT
	 POIN2	seq_068_2 + 0x3A
	BYTE	PATT
	 POIN2	seq_068_2 + 0x67
	BYTE	PATT
	 POIN2	seq_068_2 + 0x96
	BYTE		N10     Bn2   v080
	BYTE	W12
	BYTE		N04     Bn2   v036
	BYTE	W12
	BYTE		N08     Bn2   v076
	BYTE	W12
	BYTE		N04     Bn2   v036
	BYTE	W12
	BYTE		        Bn2   v020
	BYTE	W12
	BYTE		N17     Cn3   v068
	BYTE	W18
	BYTE		        Cn3   v072
	BYTE	W18
	BYTE		N10     Bn2   v080
	BYTE	W12
	BYTE		N04     Bn2   v036
	BYTE	W12
	BYTE		N08     Bn2   v076
	BYTE	W12
	BYTE		N04     Bn2   v036
	BYTE	W12
	BYTE		        Bn2   v020
	BYTE	W12
	BYTE		N18     Bn2   v072
	BYTE	W18
	BYTE		        An2   v076
	BYTE	W18
	BYTE	PEND
	BYTE		N10     Gn2   v084
	BYTE	W12
	BYTE		N04     Gn2   v036
	BYTE	W12
	BYTE		N08     Gn2   v080
	BYTE	W12
	BYTE		N04     Gn2   v036
	BYTE	W12
	BYTE		        Gn2   v020
	BYTE	W12
	BYTE		N17     Gn2   v072
	BYTE	W18
	BYTE		N17
	BYTE	W18
	BYTE	PEND
	BYTE		N10     Gn2   v076
	BYTE	W12
	BYTE		N04     Gn2   v036
	BYTE	W12
	BYTE		N08     Gn2   v076
	BYTE	W12
	BYTE		N04     Gn2   v036
	BYTE	W12
	BYTE		        Gn2   v020
	BYTE	W12
	BYTE		N17     Gn2   v068
	BYTE	W18
	BYTE		N17
	BYTE	W18
	BYTE	PEND
	BYTE		N10     Fs2   v084
	BYTE	W12
	BYTE		N04     Fs2   v036
	BYTE	W12
	BYTE		N08     Fs2   v080
	BYTE	W12
	BYTE		N04     Fs2   v036
	BYTE	W12
	BYTE		        Fs2   v020
	BYTE	W12
	BYTE		N17     Fs2   v072
	BYTE	W18
	BYTE		N17
	BYTE	W18
	BYTE	PEND
	BYTE		N10     Fs2   v076
	BYTE	W12
	BYTE		N04     Fs2   v036
	BYTE	W12
	BYTE		N08     Fs2   v076
	BYTE	W12
	BYTE		N04     Fs2   v036
	BYTE	W12
	BYTE		        Fs2   v020
	BYTE	W12
	BYTE		N17     Fs2   v068
	BYTE	W18
	BYTE		N17
	BYTE	W18
	BYTE	PEND
	BYTE	PATT
	 POIN2	seq_068_2 + 0x1F6
	BYTE		N11     Dn3   v064
	BYTE	W12
	BYTE		        An2 
	BYTE	W12
	BYTE		        Gn2   v076
	BYTE	W12
	BYTE		        Gs2   v084
	BYTE	W12
	BYTE		        An2   v076
	BYTE	W12
	BYTE		        Dn2   v080
	BYTE	W12
	BYTE		        En2 
	BYTE	W12
	BYTE		        Fs2   v084
	BYTE	W12
	BYTE	PEND
	BYTE		N12     Bn2   v080
	BYTE	W24
	BYTE		N12
	BYTE	W36
	BYTE		N17     Cn3   v076
	BYTE	W18
	BYTE		N18
	BYTE	W18
	BYTE	PEND
	BYTE		N12     Bn2   v080
	BYTE	W24
	BYTE		N12
	BYTE	W36
	BYTE		N18
	BYTE	W18
	BYTE		        An2 
	BYTE	W18
	BYTE	PEND
	BYTE		N12     Gn2   v080
	BYTE	W24
	BYTE		N12
	BYTE	W36
	BYTE		N17
	BYTE	W18
	BYTE		N17
	BYTE	W18
	BYTE	PEND
	BYTE	PATT
	 POIN2	seq_068_2 + 0x25F
	BYTE		N12     Fs2   v084
	BYTE	W24
	BYTE		N12
	BYTE	W36
	BYTE		N17
	BYTE	W18
	BYTE		N17
	BYTE	W18
	BYTE	PEND
	BYTE	PATT
	 POIN2	seq_068_2 + 0x26F
	BYTE	PATT
	 POIN2	seq_068_2 + 0x26F
	BYTE		N06     Fs2   v084
	BYTE	W06
	BYTE		        An2   v080
	BYTE	W06
	BYTE		        Dn3   v072
	BYTE	W06
	BYTE		N05     Fs3 
	BYTE	W06
	BYTE		N06     An2   v080
	BYTE		N06     Fs3   v040
	BYTE	W06
	BYTE		        Dn3   v072
	BYTE	W06
	BYTE		        Fs3 
	BYTE	W06
	BYTE		N05     An3   v068
	BYTE	W06
	BYTE		N06     Dn3   v072
	BYTE		N06     An3   v040
	BYTE	W06
	BYTE		        Fs3   v072
	BYTE	W06
	BYTE		        An3   v068
	BYTE	W06
	BYTE		N05     Dn4   v064
	BYTE	W06
	BYTE		N06     Fs3   v072
	BYTE		N06     Dn4   v036
	BYTE	W06
	BYTE		        An3   v068
	BYTE	W06
	BYTE		        Dn4   v064
	BYTE	W06
	BYTE		N05     Fs4 
	BYTE	W06
	BYTE	PEND
	BYTE		N06     Cn3   v080
	BYTE		N06     Fs4   v036
	BYTE	W06
	BYTE		        En3   v072
	BYTE	W06
	BYTE		        An3 
	BYTE	W06
	BYTE		        Cn4   v064
	BYTE	W06
	BYTE		N05     En4   v060
	BYTE	W06
	BYTE		        En4   v036
	BYTE	W06
	BYTE		N06     Cn3   v072
	BYTE	W06
	BYTE		        En3   v064
	BYTE	W06
	BYTE		        An3 
	BYTE	W06
	BYTE		        Cn4   v060
	BYTE	W06
	BYTE		N05     En4   v056
	BYTE	W06
	BYTE		        En4   v036
	BYTE	W30
	BYTE	PEND
	BYTE		N06     Cn3   v080
	BYTE	W06
	BYTE		        Fn3   v072
	BYTE	W06
	BYTE		        An3 
	BYTE	W06
	BYTE		        Cn4   v064
	BYTE	W06
	BYTE		N05     Fn4   v060
	BYTE	W06
	BYTE		        Fn4   v036
	BYTE	W06
	BYTE		N06     Cn3   v072
	BYTE	W06
	BYTE		        Fn3   v064
	BYTE	W06
	BYTE		        An3 
	BYTE	W06
	BYTE		        Cn4   v060
	BYTE	W06
	BYTE		N05     Fn4   v056
	BYTE	W06
	BYTE		        Fn4   v036
	BYTE	W30
	BYTE	PEND
	BYTE		VOL     73*seq_068_mvl/mxv
	BYTE		N48     An3   v076
	BYTE	W24
	BYTE	W03
	BYTE		VOL     72*seq_068_mvl/mxv
	BYTE	W06
	BYTE		        70*seq_068_mvl/mxv
	BYTE	W03
	BYTE		        69*seq_068_mvl/mxv
	BYTE	W03
	BYTE		        66*seq_068_mvl/mxv
	BYTE	W03
	BYTE		        64*seq_068_mvl/mxv
	BYTE	W03
	BYTE		        60*seq_068_mvl/mxv
	BYTE	W03
	BYTE		        73*seq_068_mvl/mxv
	BYTE		N48     En3   v084
	BYTE	W24
	BYTE	W03
	BYTE		VOL     72*seq_068_mvl/mxv
	BYTE	W06
	BYTE		        70*seq_068_mvl/mxv
	BYTE	W03
	BYTE		        69*seq_068_mvl/mxv
	BYTE	W03
	BYTE		        66*seq_068_mvl/mxv
	BYTE	W03
	BYTE		        64*seq_068_mvl/mxv
	BYTE	W03
	BYTE		        60*seq_068_mvl/mxv
	BYTE	W03
	BYTE		VOL     73*seq_068_mvl/mxv
	BYTE		N48     Dn3   v088
	BYTE	W24
	BYTE	W03
	BYTE		VOL     72*seq_068_mvl/mxv
	BYTE	W06
	BYTE		        70*seq_068_mvl/mxv
	BYTE	W03
	BYTE		        69*seq_068_mvl/mxv
	BYTE	W03
	BYTE		        66*seq_068_mvl/mxv
	BYTE	W03
	BYTE		        64*seq_068_mvl/mxv
	BYTE	W03
	BYTE		        60*seq_068_mvl/mxv
	BYTE	W03
	BYTE		        73*seq_068_mvl/mxv
	BYTE		N44     Cn3   v076
	BYTE	W24
	BYTE	W03
	BYTE		VOL     72*seq_068_mvl/mxv
	BYTE	W06
	BYTE		        70*seq_068_mvl/mxv
	BYTE	W03
	BYTE		        69*seq_068_mvl/mxv
	BYTE	W03
	BYTE		        66*seq_068_mvl/mxv
	BYTE	W03
	BYTE		        64*seq_068_mvl/mxv
	BYTE	W03
	BYTE		        60*seq_068_mvl/mxv
	BYTE	W03
	BYTE	PEND
	BYTE		VOL     73*seq_068_mvl/mxv
	BYTE		N06     Cn3   v080
	BYTE	W06
	BYTE		        En3   v072
	BYTE	W06
	BYTE		        An3 
	BYTE	W06
	BYTE		        Cn4   v064
	BYTE	W06
	BYTE		N05     En4   v060
	BYTE	W06
	BYTE		        En4   v036
	BYTE	W06
	BYTE		N06     Cn3   v072
	BYTE	W06
	BYTE		        En3   v064
	BYTE	W06
	BYTE		        An3 
	BYTE	W06
	BYTE		        Cn4   v060
	BYTE	W06
	BYTE		N05     En4   v056
	BYTE	W06
	BYTE		        En4   v036
	BYTE	W30
	BYTE	PEND
	BYTE	PATT
	 POIN2	seq_068_2 + 0x2ED
	BYTE		N48     An3   v076
	BYTE	W24
	BYTE	W03
	BYTE		VOL     72*seq_068_mvl/mxv
	BYTE	W06
	BYTE		        70*seq_068_mvl/mxv
	BYTE	W03
	BYTE		        69*seq_068_mvl/mxv
	BYTE	W03
	BYTE		        66*seq_068_mvl/mxv
	BYTE	W03
	BYTE		        64*seq_068_mvl/mxv
	BYTE	W03
	BYTE		        60*seq_068_mvl/mxv
	BYTE	W03
	BYTE		        73*seq_068_mvl/mxv
	BYTE		N48     En3   v084
	BYTE	W24
	BYTE	W03
	BYTE		VOL     72*seq_068_mvl/mxv
	BYTE	W06
	BYTE		        70*seq_068_mvl/mxv
	BYTE	W03
	BYTE		        69*seq_068_mvl/mxv
	BYTE	W03
	BYTE		        66*seq_068_mvl/mxv
	BYTE	W03
	BYTE		        64*seq_068_mvl/mxv
	BYTE	W03
	BYTE		        60*seq_068_mvl/mxv
	BYTE	W03
	BYTE	PEND
	BYTE	PATT
	 POIN2	seq_068_2 + 0x33B
	BYTE		VOL     73*seq_068_mvl/mxv
	BYTE		N12     Bn2   v084
	BYTE	W12
	BYTE		        An2   v076
	BYTE	W12
	BYTE		        Bn2   v080
	BYTE	W12
	BYTE		        Cs3   v084
	BYTE	W12
	BYTE		        Ds3   v088
	BYTE	W12
	BYTE		        Cs3   v080
	BYTE	W12
	BYTE		        Ds3   v084
	BYTE	W12
	BYTE		        En3   v088
	BYTE	W12
	BYTE	PEND
	BYTE		N12     Fs3   v096
	BYTE	W12
	BYTE		        En3 
	BYTE	W12
	BYTE		        Fs3 
	BYTE	W12
	BYTE		        Gs3 
	BYTE	W12
	BYTE		        An3 
	BYTE	W12
	BYTE		        Gs3   v088
	BYTE	W12
	BYTE		        An3   v092
	BYTE	W12
	BYTE		        Bn3 
	BYTE	W12
	BYTE	PEND
	BYTE		N96     An3   v080
	BYTE	W78
	BYTE		VOL     72*seq_068_mvl/mxv
	BYTE	W03
	BYTE		        71*seq_068_mvl/mxv
	BYTE	W03
	BYTE		        70*seq_068_mvl/mxv
	BYTE	W03
	BYTE		        68*seq_068_mvl/mxv
	BYTE	W03
	BYTE		        64*seq_068_mvl/mxv
	BYTE	W03
	BYTE		        60*seq_068_mvl/mxv
	BYTE	W03
	BYTE	PEND
	BYTE		VOL     73*seq_068_mvl/mxv
	BYTE		N96     Gs3   v064
	BYTE	W32
	BYTE	W01
	BYTE		VOL     72*seq_068_mvl/mxv
	BYTE	W09
	BYTE		        70*seq_068_mvl/mxv
	BYTE	W03
	BYTE		        69*seq_068_mvl/mxv
	BYTE	W03
	BYTE		        68*seq_068_mvl/mxv
	BYTE	W03
	BYTE		        66*seq_068_mvl/mxv
	BYTE	W03
	BYTE		        64*seq_068_mvl/mxv
	BYTE	W03
	BYTE		        62*seq_068_mvl/mxv
	BYTE	W03
	BYTE		        59*seq_068_mvl/mxv
	BYTE	W03
	BYTE		        56*seq_068_mvl/mxv
	BYTE	W03
	BYTE		        52*seq_068_mvl/mxv
	BYTE	W03
	BYTE		        49*seq_068_mvl/mxv
	BYTE	W03
	BYTE		        44*seq_068_mvl/mxv
	BYTE	W03
	BYTE		        40*seq_068_mvl/mxv
	BYTE	W03
	BYTE		        36*seq_068_mvl/mxv
	BYTE	W03
	BYTE		        31*seq_068_mvl/mxv
	BYTE	W03
	BYTE		        25*seq_068_mvl/mxv
	BYTE	W03
	BYTE		        20*seq_068_mvl/mxv
	BYTE	W03
	BYTE		        14*seq_068_mvl/mxv
	BYTE	W03
	BYTE		        7*seq_068_mvl/mxv
	BYTE	W03
	BYTE	PEND
	BYTE		VOL     73*seq_068_mvl/mxv
	BYTE		N10     Bn2   v080
	BYTE	W12
	BYTE		N04     Bn2   v036
	BYTE	W12
	BYTE		N08     Bn2   v076
	BYTE	W12
	BYTE		N04     Bn2   v036
	BYTE	W12
	BYTE		        Bn2   v020
	BYTE	W12
	BYTE		N17     Cn3   v068
	BYTE	W18
	BYTE		        Cn3   v072
	BYTE	W18
	BYTE	PEND
	BYTE	PATT
	 POIN2	seq_068_2 + 0x1A7
	BYTE	PATT
	 POIN2	seq_068_2 + 0x1C2
	BYTE	PATT
	 POIN2	seq_068_2 + 0x1DC
	BYTE	PATT
	 POIN2	seq_068_2 + 0x1F6
	BYTE	PATT
	 POIN2	seq_068_2 + 0x210
	BYTE	PATT
	 POIN2	seq_068_2 + 0x1F6
	BYTE	PATT
	 POIN2	seq_068_2 + 0x22F
	BYTE	PATT
	 POIN2	seq_068_2 + 0x247
	BYTE	PATT
	 POIN2	seq_068_2 + 0x254
	BYTE	PATT
	 POIN2	seq_068_2 + 0x25F
	BYTE	PATT
	 POIN2	seq_068_2 + 0x25F
	BYTE	PATT
	 POIN2	seq_068_2 + 0x26F
	BYTE	PATT
	 POIN2	seq_068_2 + 0x26F
	BYTE	PATT
	 POIN2	seq_068_2 + 0x26F
	BYTE	PATT
	 POIN2	seq_068_2 + 0x284
	BYTE	PATT
	 POIN2	seq_068_2 + 0x2C3
	BYTE	PATT
	 POIN2	seq_068_2 + 0x2ED
	BYTE	PATT
	 POIN2	seq_068_2 + 0x391
	BYTE	PATT
	 POIN2	seq_068_2 + 0x33B
	BYTE	PATT
	 POIN2	seq_068_2 + 0x363
	BYTE	PATT
	 POIN2	seq_068_2 + 0x2ED
	BYTE	PATT
	 POIN2	seq_068_2 + 0x391
	BYTE	PATT
	 POIN2	seq_068_2 + 0x33B
	BYTE	PATT
	 POIN2	seq_068_2 + 0x3BC
	BYTE	PATT
	 POIN2	seq_068_2 + 0x3D8
	BYTE	PATT
	 POIN2	seq_068_2 + 0x3ED
	BYTE	PATT
	 POIN2	seq_068_2 + 0x3FF
	BYTE	PATT
	 POIN2	seq_068_2 + 0x42E
	BYTE	PATT
	 POIN2	seq_068_2 + 0x1A7
	BYTE	PATT
	 POIN2	seq_068_2 + 0x1C2
	BYTE	PATT
	 POIN2	seq_068_2 + 0x1DC
	BYTE	PATT
	 POIN2	seq_068_2 + 0x1F6
	BYTE	PATT
	 POIN2	seq_068_2 + 0x210
	BYTE	PATT
	 POIN2	seq_068_2 + 0x1F6
	BYTE	PATT
	 POIN2	seq_068_2 + 0x22F
	BYTE	PATT
	 POIN2	seq_068_2 + 0x247
	BYTE	PATT
	 POIN2	seq_068_2 + 0x254
	BYTE	PATT
	 POIN2	seq_068_2 + 0x25F
	BYTE	PATT
	 POIN2	seq_068_2 + 0x25F
	BYTE	PATT
	 POIN2	seq_068_2 + 0x26F
	BYTE	PATT
	 POIN2	seq_068_2 + 0x26F
	BYTE	PATT
	 POIN2	seq_068_2 + 0x26F
	BYTE	PATT
	 POIN2	seq_068_2 + 0x284
	BYTE	PATT
	 POIN2	seq_068_2 + 0x2C3
	BYTE	PATT
	 POIN2	seq_068_2 + 0x2ED
	BYTE	PATT
	 POIN2	seq_068_2 + 0x391
	BYTE	PATT
	 POIN2	seq_068_2 + 0x33B
	BYTE	PATT
	 POIN2	seq_068_2 + 0x363
	BYTE	PATT
	 POIN2	seq_068_2 + 0x2ED
	BYTE	PATT
	 POIN2	seq_068_2 + 0x391
	BYTE	PATT
	 POIN2	seq_068_2 + 0x33B
	BYTE	PATT
	 POIN2	seq_068_2 + 0x3BC
	BYTE	PATT
	 POIN2	seq_068_2 + 0x3D8
	BYTE	PATT
	 POIN2	seq_068_2 + 0x3ED
	BYTE		VOL     73*seq_068_mvl/mxv
	BYTE		N92     Gs3   v064
	BYTE	W32
	BYTE	W01
	BYTE		VOL     72*seq_068_mvl/mxv
	BYTE	W09
	BYTE		        70*seq_068_mvl/mxv
	BYTE	W03
	BYTE		        69*seq_068_mvl/mxv
	BYTE	W03
	BYTE		        68*seq_068_mvl/mxv
	BYTE	W03
	BYTE		        66*seq_068_mvl/mxv
	BYTE	W03
	BYTE		        64*seq_068_mvl/mxv
	BYTE	W03
	BYTE		        62*seq_068_mvl/mxv
	BYTE	W03
	BYTE		        59*seq_068_mvl/mxv
	BYTE	W03
	BYTE		        56*seq_068_mvl/mxv
	BYTE	W03
	BYTE		        52*seq_068_mvl/mxv
	BYTE	W03
	BYTE		        49*seq_068_mvl/mxv
	BYTE	W03
	BYTE		        44*seq_068_mvl/mxv
	BYTE	W03
	BYTE		        40*seq_068_mvl/mxv
	BYTE	W03
	BYTE		        36*seq_068_mvl/mxv
	BYTE	W03
	BYTE		        31*seq_068_mvl/mxv
	BYTE	W03
	BYTE		        25*seq_068_mvl/mxv
	BYTE	W03
	BYTE		        20*seq_068_mvl/mxv
	BYTE	W03
	BYTE		        14*seq_068_mvl/mxv
	BYTE	W03
	BYTE		        7*seq_068_mvl/mxv
	BYTE	W02
	BYTE		PAN     c_v+6
	BYTE	W01
	BYTE		VOL     53*seq_068_mvl/mxv
	BYTE		N48     En3   v052
	BYTE	W01
	BYTE		VOL     54*seq_068_mvl/mxv
	BYTE	W02
	BYTE		        56*seq_068_mvl/mxv
	BYTE	W01
	BYTE		        60*seq_068_mvl/mxv
	BYTE	W02
	BYTE		        64*seq_068_mvl/mxv
	BYTE	W01
	BYTE		        70*seq_068_mvl/mxv
	BYTE	W02
	BYTE		        73*seq_068_mvl/mxv
	BYTE	W36
	BYTE	W03
	BYTE		N48     Fs3   v056
	BYTE	W48
	BYTE		N96     Gs3 
	BYTE	W48
	BYTE	W03
	BYTE		VOL     72*seq_068_mvl/mxv
	BYTE	W06
	BYTE		        72*seq_068_mvl/mxv
	BYTE	W03
	BYTE		        71*seq_068_mvl/mxv
	BYTE	W03
	BYTE		        70*seq_068_mvl/mxv
	BYTE	W03
	BYTE		        68*seq_068_mvl/mxv
	BYTE	W03
	BYTE		        66*seq_068_mvl/mxv
	BYTE	W03
	BYTE		        63*seq_068_mvl/mxv
	BYTE	W03
	BYTE		        61*seq_068_mvl/mxv
	BYTE	W03
	BYTE		        57*seq_068_mvl/mxv
	BYTE	W03
	BYTE		        54*seq_068_mvl/mxv
	BYTE	W03
	BYTE		        50*seq_068_mvl/mxv
	BYTE	W03
	BYTE		        46*seq_068_mvl/mxv
	BYTE	W03
	BYTE		        41*seq_068_mvl/mxv
	BYTE	W03
	BYTE		        36*seq_068_mvl/mxv
	BYTE	W03
	BYTE		        73*seq_068_mvl/mxv
	BYTE		N48     An2   v064
	BYTE	W48
	BYTE		        Bn2 
	BYTE	W48
	BYTE		        Cs3   v068
	BYTE	W48
	BYTE		        Ds3 
	BYTE	W48
	BYTE		        En3   v072
	BYTE	W48
	BYTE		        Fs3 
	BYTE	W48
	BYTE		        Gs3   v064
	BYTE	W48
	BYTE		        Fs3   v056
	BYTE	W48
	BYTE		TIE     En3   v048
	BYTE	W01
	BYTE	W23
	BYTE		VOL     74*seq_068_mvl/mxv
	BYTE	W12
	BYTE		        75*seq_068_mvl/mxv
	BYTE	W06
	BYTE		        76*seq_068_mvl/mxv
	BYTE	W06
	BYTE		        77*seq_068_mvl/mxv
	BYTE	W06
	BYTE		        78*seq_068_mvl/mxv
	BYTE	W06
	BYTE		        79*seq_068_mvl/mxv
	BYTE	W12
	BYTE		        78*seq_068_mvl/mxv
	BYTE	W06
	BYTE		        78*seq_068_mvl/mxv
	BYTE	W06
	BYTE		        76*seq_068_mvl/mxv
	BYTE	W06
	BYTE		        75*seq_068_mvl/mxv
	BYTE	W06
	BYTE		        73*seq_068_mvl/mxv
	BYTE	W06
	BYTE		        71*seq_068_mvl/mxv
	BYTE	W06
	BYTE		        68*seq_068_mvl/mxv
	BYTE	W06
	BYTE		        66*seq_068_mvl/mxv
	BYTE	W06
	BYTE		        62*seq_068_mvl/mxv
	BYTE	W06
	BYTE		        59*seq_068_mvl/mxv
	BYTE	W06
	BYTE		        56*seq_068_mvl/mxv
	BYTE	W06
	BYTE		        51*seq_068_mvl/mxv
	BYTE	W06
	BYTE		        47*seq_068_mvl/mxv
	BYTE	W06
	BYTE		        42*seq_068_mvl/mxv
	BYTE	W06
	BYTE		        37*seq_068_mvl/mxv
	BYTE	W06
	BYTE		        29*seq_068_mvl/mxv
	BYTE	W06
	BYTE		        21*seq_068_mvl/mxv
	BYTE	W06
	BYTE		        13*seq_068_mvl/mxv
	BYTE	W06
	BYTE		        6*seq_068_mvl/mxv
	BYTE	W06
	BYTE		EOT
	BYTE	W03
	BYTE	W03
	BYTE	W96
	BYTE	W96
	BYTE	W96
	BYTE	W96
	BYTE	W96
	BYTE	W96
	BYTE	W96
	BYTE	W96
	BYTE	W96
	BYTE	W96
	BYTE	W90
	BYTE		VOL     18*seq_068_mvl/mxv
	BYTE	W01
	BYTE		PAN     c_v-14
	BYTE	W02
	BYTE	W03
	BYTE		N96     Dn3   v104
	BYTE	W06
	BYTE		VOL     19*seq_068_mvl/mxv
	BYTE	W06
	BYTE		        20*seq_068_mvl/mxv
	BYTE	W03
	BYTE		        22*seq_068_mvl/mxv
	BYTE	W03
	BYTE		        25*seq_068_mvl/mxv
	BYTE	W03
	BYTE		        28*seq_068_mvl/mxv
	BYTE	W03
	BYTE		        33*seq_068_mvl/mxv
	BYTE	W03
	BYTE		        38*seq_068_mvl/mxv
	BYTE	W03
	BYTE		        43*seq_068_mvl/mxv
	BYTE	W03
	BYTE		        50*seq_068_mvl/mxv
	BYTE	W03
	BYTE		        56*seq_068_mvl/mxv
	BYTE	W03
	BYTE		        64*seq_068_mvl/mxv
	BYTE	W03
	BYTE		        70*seq_068_mvl/mxv
	BYTE	W03
	BYTE		        72*seq_068_mvl/mxv
	BYTE	W03
	BYTE		        73*seq_068_mvl/mxv
	BYTE	W18
	BYTE		        72*seq_068_mvl/mxv
	BYTE	W06
	BYTE		        71*seq_068_mvl/mxv
	BYTE	W03
	BYTE		        70*seq_068_mvl/mxv
	BYTE	W03
	BYTE		        70*seq_068_mvl/mxv
	BYTE	W03
	BYTE		        68*seq_068_mvl/mxv
	BYTE	W01
	BYTE		        67*seq_068_mvl/mxv
	BYTE	W02
	BYTE		        66*seq_068_mvl/mxv
	BYTE	W01
	BYTE		        64*seq_068_mvl/mxv
	BYTE	W02
	BYTE		        61*seq_068_mvl/mxv
	BYTE	W01
	BYTE		        58*seq_068_mvl/mxv
	BYTE	W02
	BYTE		        53*seq_068_mvl/mxv
	BYTE	W01
	BYTE		        48*seq_068_mvl/mxv
	BYTE	W02
	BYTE		        42*seq_068_mvl/mxv
	BYTE	W01
	BYTE		        36*seq_068_mvl/mxv
	BYTE	W02
	BYTE		        73*seq_068_mvl/mxv
	BYTE		N05     Cn3   v100
	BYTE	W06
	BYTE		        Cn3   v012
	BYTE	W06
	BYTE		        Cn3   v008
	BYTE	W12
	BYTE		        Ds3   v092
	BYTE	W06
	BYTE		        Ds3   v012
	BYTE	W06
	BYTE		        Ds3   v008
	BYTE	W12
	BYTE		        Fn3   v088
	BYTE	W06
	BYTE		        Fn3   v012
	BYTE	W06
	BYTE		        Fn3   v008
	BYTE	W12
	BYTE		        Ds3   v084
	BYTE	W06
	BYTE		        Ds3   v012
	BYTE	W06
	BYTE		        Ds3   v008
	BYTE	W12
	BYTE		N05     Cn3   v084
	BYTE	W06
	BYTE		        Cn3   v012
	BYTE	W06
	BYTE		        Cn3   v008
	BYTE	W12
	BYTE		        Ds3   v080
	BYTE	W06
	BYTE		        Ds3   v012
	BYTE	W06
	BYTE		        Ds3   v008
	BYTE	W12
	BYTE		        Fn3   v076
	BYTE	W06
	BYTE		        Fn3   v012
	BYTE	W06
	BYTE		        Fn3   v008
	BYTE	W12
	BYTE		        Ds3   v072
	BYTE	W06
	BYTE		        Ds3   v012
	BYTE	W06
	BYTE		        Ds3   v008
	BYTE	W12
	BYTE	PEND
	BYTE		        Cn3   v100
	BYTE	W06
	BYTE		        Cn3   v012
	BYTE	W06
	BYTE		        Cn3   v008
	BYTE	W12
	BYTE		        Ds3   v092
	BYTE	W06
	BYTE		        Ds3   v012
	BYTE	W06
	BYTE		        Ds3   v008
	BYTE	W12
	BYTE		        Fn3   v088
	BYTE	W06
	BYTE		        Fn3   v012
	BYTE	W06
	BYTE		        Fn3   v008
	BYTE	W12
	BYTE		        Ds3   v084
	BYTE	W06
	BYTE		        Ds3   v012
	BYTE	W06
	BYTE		        Ds3   v008
	BYTE	W12
	BYTE	PATT
	 POIN2	seq_068_2 + 0x68A
	BYTE		N05     Cn3   v096
	BYTE	W06
	BYTE		        Cn3   v012
	BYTE	W06
	BYTE		        Cn3   v008
	BYTE	W12
	BYTE		        Ds3   v088
	BYTE	W06
	BYTE		        Ds3   v012
	BYTE	W06
	BYTE		        Ds3   v008
	BYTE	W12
	BYTE		        Fn3   v080
	BYTE	W06
	BYTE		        Fn3   v012
	BYTE	W06
	BYTE		        Fn3   v008
	BYTE	W12
	BYTE		        Ds3   v076
	BYTE	W06
	BYTE		        Ds3   v012
	BYTE	W06
	BYTE		        Ds3   v008
	BYTE	W12
	BYTE	PEND
	BYTE		N05     Cn3   v080
	BYTE	W06
	BYTE		        Cn3   v012
	BYTE	W06
	BYTE		        Cn3   v008
	BYTE	W12
	BYTE		        Ds3   v076
	BYTE	W06
	BYTE		        Ds3   v012
	BYTE	W06
	BYTE		        Ds3   v008
	BYTE	W12
	BYTE		        Fn3   v072
	BYTE	W06
	BYTE		        Fn3   v012
	BYTE	W06
	BYTE		        Fn3   v008
	BYTE	W12
	BYTE		        Ds3   v068
	BYTE	W06
	BYTE		        Ds3   v012
	BYTE	W06
	BYTE		        Ds3   v008
	BYTE	W12
	BYTE	PEND
	BYTE	PATT
	 POIN2	seq_068_2 + 0x6D9
	BYTE	PATT
	 POIN2	seq_068_2 + 0x6FF
	BYTE	PATT
	 POIN2	seq_068_2 + 0x6D9
	BYTE	PATT
	 POIN2	seq_068_2 + 0x6FF
	BYTE	PATT
	 POIN2	seq_068_2 + 0x6D9
	BYTE	PATT
	 POIN2	seq_068_2 + 0x6FF
	BYTE	PATT
	 POIN2	seq_068_2 + 0x6D9
	BYTE	PATT
	 POIN2	seq_068_2 + 0x6FF
	BYTE	PATT
	 POIN2	seq_068_2 + 0x6D9
	BYTE		N05     Cn3   v080
	BYTE	W06
	BYTE		        Cn3   v012
	BYTE	W06
	BYTE		        Cn3   v008
	BYTE	W12
	BYTE		        Ds3   v076
	BYTE	W06
	BYTE		        Ds3   v012
	BYTE	W06
	BYTE		        Ds3   v008
	BYTE	W12
	BYTE		        Fn3   v072
	BYTE	W06
	BYTE		        Fn3   v012
	BYTE	W06
	BYTE		        Fn3   v008
	BYTE	W12
	BYTE		        Ds3   v068
	BYTE	W06
	BYTE		        Ds3   v012
	BYTE	W06
	BYTE		        Ds3   v008
	BYTE	W08
	BYTE		VOICE   80
	BYTE	W01
	BYTE		PAN     c_v-14
	BYTE	W01
	BYTE		VOL     73*seq_068_mvl/mxv
	BYTE	W02
	BYTE		N72     Dn2   v092
	BYTE	W56
	BYTE	W02
	BYTE		VOL     65*seq_068_mvl/mxv
	BYTE	W03
	BYTE		        58*seq_068_mvl/mxv
	BYTE	W03
	BYTE		        52*seq_068_mvl/mxv
	BYTE	W03
	BYTE		        44*seq_068_mvl/mxv
	BYTE	W09
	BYTE		        73*seq_068_mvl/mxv
	BYTE	W20
	BYTE	PEND
	BYTE	W96
	BYTE	PATT
	 POIN2	seq_068_2 + 0x780
	BYTE	W96
	BYTE	PATT
	 POIN2	seq_068_2 + 0x780
	BYTE		N72     Dn2   v096
	BYTE	W56
	BYTE	W02
	BYTE		VOL     65*seq_068_mvl/mxv
	BYTE	W03
	BYTE		        58*seq_068_mvl/mxv
	BYTE	W03
	BYTE		        52*seq_068_mvl/mxv
	BYTE	W03
	BYTE		        44*seq_068_mvl/mxv
	BYTE	W09
	BYTE		        73*seq_068_mvl/mxv
	BYTE	W20
	BYTE		N72
	BYTE	W56
	BYTE	W02
	BYTE		VOL     65*seq_068_mvl/mxv
	BYTE	W03
	BYTE		        58*seq_068_mvl/mxv
	BYTE	W03
	BYTE		        52*seq_068_mvl/mxv
	BYTE	W03
	BYTE		        44*seq_068_mvl/mxv
	BYTE	W09
	BYTE		        73*seq_068_mvl/mxv
	BYTE	W01
	BYTE	W19
	BYTE	W96
	BYTE	W96
	BYTE	W96
	BYTE	W96
	BYTE	W96
	BYTE	W96
	BYTE	W96
	BYTE	W96
	BYTE	W96
	BYTE	W96
	BYTE	W96
	BYTE	W96
	BYTE	W96
	BYTE	W96
	BYTE	W96
	BYTE	W96
	BYTE	W92
	BYTE	W01
	BYTE	W03
	BYTE		N72     Dn2   v100
	BYTE	W56
	BYTE	W02
	BYTE		VOL     65*seq_068_mvl/mxv
	BYTE	W03
	BYTE		        58*seq_068_mvl/mxv
	BYTE	W03
	BYTE		        52*seq_068_mvl/mxv
	BYTE	W03
	BYTE		        44*seq_068_mvl/mxv
	BYTE	W09
	BYTE		        73*seq_068_mvl/mxv
	BYTE	W20
	BYTE	W96
	BYTE	W96
	BYTE	W88
	BYTE	W01
	BYTE		VOICE   42
	BYTE	W01
	BYTE		PAN     c_v+63
	BYTE	W01
	BYTE		VOL     73*seq_068_mvl/mxv
	BYTE	W05
	BYTE	W05
	BYTE		N05     Cs2   v016
	BYTE	W12
	BYTE		        En2 
	BYTE	W12
	BYTE		N24     Ds2 
	BYTE	W12
	BYTE		VOL     72*seq_068_mvl/mxv
	BYTE	W03
	BYTE		        72*seq_068_mvl/mxv
	BYTE	W03
	BYTE		        68*seq_068_mvl/mxv
	BYTE	W03
	BYTE		        62*seq_068_mvl/mxv
	BYTE	W03
	BYTE		        73*seq_068_mvl/mxv
	BYTE		N05     Cs2 
	BYTE	W12
	BYTE		        En2 
	BYTE	W12
	BYTE		N12     Ds2 
	BYTE	W12
	BYTE		N06     Cs2 
	BYTE	W06
	BYTE		        Bn1 
	BYTE	W01
	BYTE	W05
	BYTE		N12     Cs2   v016
	BYTE	W12
	BYTE		N06     Ds2 
	BYTE	W06
	BYTE		        En2 
	BYTE	W06
	BYTE		N05     Ds2 
	BYTE	W12
	BYTE		        Bn1 
	BYTE	W12
	BYTE		N11     Cs2 
	BYTE	W12
	BYTE		N06
	BYTE	W06
	BYTE		        Bn1 
	BYTE	W06
	BYTE		        Cs2 
	BYTE	W06
	BYTE		        Ds2 
	BYTE	W06
	BYTE		        En2 
	BYTE	W06
	BYTE		        Fs2 
	BYTE	W01
	BYTE	PEND
	BYTE	W05
	BYTE		N05     Gn2   v016
	BYTE	W12
	BYTE		        As2 
	BYTE	W12
	BYTE		N24     An2 
	BYTE	W24
	BYTE		N05     Gn2 
	BYTE	W12
	BYTE		        As2 
	BYTE	W12
	BYTE		N12     An2 
	BYTE	W12
	BYTE		N06     Gn2 
	BYTE	W06
	BYTE		        Fn2 
	BYTE	W01
	BYTE	PEND
	BYTE	W05
	BYTE		N12     Gn2   v016
	BYTE	W12
	BYTE		N06     An2 
	BYTE	W06
	BYTE		        As2 
	BYTE	W06
	BYTE		N05     An2 
	BYTE	W12
	BYTE		        Fn2 
	BYTE	W12
	BYTE		N11     Gn2 
	BYTE	W12
	BYTE		N06
	BYTE	W06
	BYTE		        Fn2 
	BYTE	W06
	BYTE		        Gn2 
	BYTE	W06
	BYTE		        An2 
	BYTE	W06
	BYTE		        As2 
	BYTE	W06
	BYTE		        Cn3 
	BYTE	W01
	BYTE	PEND
	BYTE	W05
	BYTE		N84     Cs3   v020
	BYTE	W48
	BYTE		VOL     72*seq_068_mvl/mxv
	BYTE	W09
	BYTE		        71*seq_068_mvl/mxv
	BYTE	W03
	BYTE		        70*seq_068_mvl/mxv
	BYTE	W03
	BYTE		        68*seq_068_mvl/mxv
	BYTE	W03
	BYTE		        66*seq_068_mvl/mxv
	BYTE	W03
	BYTE		        64*seq_068_mvl/mxv
	BYTE	W03
	BYTE		        61*seq_068_mvl/mxv
	BYTE	W03
	BYTE		        58*seq_068_mvl/mxv
	BYTE	W03
	BYTE		        55*seq_068_mvl/mxv
	BYTE	W03
	BYTE		        53*seq_068_mvl/mxv
	BYTE	W03
	BYTE		        73*seq_068_mvl/mxv
	BYTE		N06     Cn3 
	BYTE	W06
	BYTE		        Cs3 
	BYTE	W01
	BYTE	PEND
	BYTE	W05
	BYTE		N84     Ds3   v020
	BYTE	W48
	BYTE		VOL     72*seq_068_mvl/mxv
	BYTE	W09
	BYTE		        71*seq_068_mvl/mxv
	BYTE	W03
	BYTE		        70*seq_068_mvl/mxv
	BYTE	W03
	BYTE		        68*seq_068_mvl/mxv
	BYTE	W03
	BYTE		        66*seq_068_mvl/mxv
	BYTE	W03
	BYTE		        64*seq_068_mvl/mxv
	BYTE	W03
	BYTE		        61*seq_068_mvl/mxv
	BYTE	W03
	BYTE		        58*seq_068_mvl/mxv
	BYTE	W03
	BYTE		        55*seq_068_mvl/mxv
	BYTE	W03
	BYTE		        53*seq_068_mvl/mxv
	BYTE	W03
	BYTE		        73*seq_068_mvl/mxv
	BYTE		N06     Cs3 
	BYTE	W06
	BYTE		        Ds3 
	BYTE	W01
	BYTE	PEND
	BYTE	W05
	BYTE		TIE     Fn3   v020
	BYTE	W21
	BYTE		VOL     74*seq_068_mvl/mxv
	BYTE	W09
	BYTE		        74*seq_068_mvl/mxv
	BYTE	W03
	BYTE		        75*seq_068_mvl/mxv
	BYTE	W06
	BYTE		        76*seq_068_mvl/mxv
	BYTE	W03
	BYTE		        76*seq_068_mvl/mxv
	BYTE	W03
	BYTE		        77*seq_068_mvl/mxv
	BYTE	W03
	BYTE		        78*seq_068_mvl/mxv
	BYTE	W03
	BYTE		        79*seq_068_mvl/mxv
	BYTE	W03
	BYTE		        80*seq_068_mvl/mxv
	BYTE	W06
	BYTE		        79*seq_068_mvl/mxv
	BYTE	W15
	BYTE		        78*seq_068_mvl/mxv
	BYTE	W06
	BYTE		        78*seq_068_mvl/mxv
	BYTE	W03
	BYTE		        77*seq_068_mvl/mxv
	BYTE	W03
	BYTE		        76*seq_068_mvl/mxv
	BYTE	W03
	BYTE		        76*seq_068_mvl/mxv
	BYTE	W01
	BYTE	PEND
	BYTE	W02
	BYTE		VOL     75*seq_068_mvl/mxv
	BYTE	W03
	BYTE		        74*seq_068_mvl/mxv
	BYTE	W03
	BYTE		        73*seq_068_mvl/mxv
	BYTE	W03
	BYTE		        72*seq_068_mvl/mxv
	BYTE	W03
	BYTE		        71*seq_068_mvl/mxv
	BYTE	W03
	BYTE		        70*seq_068_mvl/mxv
	BYTE	W03
	BYTE		        68*seq_068_mvl/mxv
	BYTE	W03
	BYTE		        67*seq_068_mvl/mxv
	BYTE	W03
	BYTE		        66*seq_068_mvl/mxv
	BYTE	W03
	BYTE		        64*seq_068_mvl/mxv
	BYTE	W03
	BYTE		        63*seq_068_mvl/mxv
	BYTE	W03
	BYTE		        61*seq_068_mvl/mxv
	BYTE	W03
	BYTE		        60*seq_068_mvl/mxv
	BYTE	W03
	BYTE		        58*seq_068_mvl/mxv
	BYTE	W03
	BYTE		        56*seq_068_mvl/mxv
	BYTE	W03
	BYTE		        54*seq_068_mvl/mxv
	BYTE	W03
	BYTE		        52*seq_068_mvl/mxv
	BYTE	W03
	BYTE		        50*seq_068_mvl/mxv
	BYTE	W03
	BYTE		        48*seq_068_mvl/mxv
	BYTE	W03
	BYTE		        46*seq_068_mvl/mxv
	BYTE	W03
	BYTE		        43*seq_068_mvl/mxv
	BYTE	W03
	BYTE		        41*seq_068_mvl/mxv
	BYTE	W03
	BYTE		        38*seq_068_mvl/mxv
	BYTE	W03
	BYTE		        36*seq_068_mvl/mxv
	BYTE	W03
	BYTE		        34*seq_068_mvl/mxv
	BYTE	W03
	BYTE		        30*seq_068_mvl/mxv
	BYTE	W03
	BYTE		        28*seq_068_mvl/mxv
	BYTE	W03
	BYTE		        25*seq_068_mvl/mxv
	BYTE	W03
	BYTE		        22*seq_068_mvl/mxv
	BYTE	W03
	BYTE		        19*seq_068_mvl/mxv
	BYTE	W03
	BYTE		        16*seq_068_mvl/mxv
	BYTE	W03
	BYTE		        13*seq_068_mvl/mxv
	BYTE	W01
	BYTE	PEND
	BYTE	W02
	BYTE		EOT     Fn3 
	BYTE	W03
	BYTE		VOL     73*seq_068_mvl/mxv
	BYTE	W80
	BYTE	W01
	BYTE		        71*seq_068_mvl/mxv
	BYTE	W03
	BYTE		        70*seq_068_mvl/mxv
	BYTE	W03
	BYTE		        67*seq_068_mvl/mxv
	BYTE	W03
	BYTE		        62*seq_068_mvl/mxv
	BYTE	W01
	BYTE	W02
	BYTE		VOL     54*seq_068_mvl/mxv
	BYTE	W03
	BYTE		        73*seq_068_mvl/mxv
	BYTE	W80
	BYTE	W01
	BYTE		        71*seq_068_mvl/mxv
	BYTE	W03
	BYTE		        70*seq_068_mvl/mxv
	BYTE	W03
	BYTE		        67*seq_068_mvl/mxv
	BYTE	W03
	BYTE		        62*seq_068_mvl/mxv
	BYTE	W01
	BYTE	PEND
	BYTE	W05
	BYTE		VOL     73*seq_068_mvl/mxv
	BYTE	W80
	BYTE	W01
	BYTE		        71*seq_068_mvl/mxv
	BYTE	W03
	BYTE		        70*seq_068_mvl/mxv
	BYTE	W03
	BYTE		        67*seq_068_mvl/mxv
	BYTE	W03
	BYTE		        62*seq_068_mvl/mxv
	BYTE	W01
	BYTE	PEND
	BYTE	PATT
	 POIN2	seq_068_2 + 0x91D
	BYTE	W02
	BYTE		VOL     54*seq_068_mvl/mxv
	BYTE	W03
	BYTE		        73*seq_068_mvl/mxv
	BYTE	W90
	BYTE	W01
	BYTE	PEND
	BYTE	W96
	BYTE	W96
	BYTE	W96
	BYTE	W96
	BYTE	W96
	BYTE	W96
	BYTE	W96
	BYTE	W96
	BYTE	W96
	BYTE	W05
	BYTE		VOL     73*seq_068_mvl/mxv
	BYTE	W03
	BYTE		        73*seq_068_mvl/mxv
	BYTE	W03
	BYTE		        74*seq_068_mvl/mxv
	BYTE	W06
	BYTE		        74*seq_068_mvl/mxv
	BYTE	W03
	BYTE		        75*seq_068_mvl/mxv
	BYTE	W03
	BYTE		        77*seq_068_mvl/mxv
	BYTE	W03
	BYTE		        78*seq_068_mvl/mxv
	BYTE	W03
	BYTE		        78*seq_068_mvl/mxv
	BYTE	W09
	BYTE		        77*seq_068_mvl/mxv
	BYTE	W03
	BYTE		        76*seq_068_mvl/mxv
	BYTE	W03
	BYTE		        75*seq_068_mvl/mxv
	BYTE	W03
	BYTE		        74*seq_068_mvl/mxv
	BYTE	W03
	BYTE		        72*seq_068_mvl/mxv
	BYTE	W03
	BYTE		        70*seq_068_mvl/mxv
	BYTE	W03
	BYTE		        68*seq_068_mvl/mxv
	BYTE	W03
	BYTE		        66*seq_068_mvl/mxv
	BYTE	W03
	BYTE		        63*seq_068_mvl/mxv
	BYTE	W03
	BYTE		        61*seq_068_mvl/mxv
	BYTE	W03
	BYTE		        58*seq_068_mvl/mxv
	BYTE	W03
	BYTE		        54*seq_068_mvl/mxv
	BYTE	W03
	BYTE		        51*seq_068_mvl/mxv
	BYTE	W03
	BYTE		        73*seq_068_mvl/mxv
	BYTE	W19
	BYTE	PEND
	BYTE	W36
	BYTE	W02
	BYTE		VOL     71*seq_068_mvl/mxv
	BYTE	W06
	BYTE		        70*seq_068_mvl/mxv
	BYTE	W03
	BYTE		        70*seq_068_mvl/mxv
	BYTE	W03
	BYTE		        68*seq_068_mvl/mxv
	BYTE	W03
	BYTE		        67*seq_068_mvl/mxv
	BYTE	W03
	BYTE		        65*seq_068_mvl/mxv
	BYTE	W03
	BYTE		        62*seq_068_mvl/mxv
	BYTE	W03
	BYTE		        60*seq_068_mvl/mxv
	BYTE	W03
	BYTE		        57*seq_068_mvl/mxv
	BYTE	W03
	BYTE		        53*seq_068_mvl/mxv
	BYTE	W03
	BYTE		        50*seq_068_mvl/mxv
	BYTE	W03
	BYTE		        45*seq_068_mvl/mxv
	BYTE	W03
	BYTE		        41*seq_068_mvl/mxv
	BYTE	W03
	BYTE		        36*seq_068_mvl/mxv
	BYTE	W03
	BYTE		        30*seq_068_mvl/mxv
	BYTE	W03
	BYTE		        25*seq_068_mvl/mxv
	BYTE	W03
	BYTE		        19*seq_068_mvl/mxv
	BYTE	W03
	BYTE		        12*seq_068_mvl/mxv
	BYTE	W03
	BYTE		        6*seq_068_mvl/mxv
	BYTE	W01
	BYTE	PEND
	BYTE	W02
	BYTE		VOL     2*seq_068_mvl/mxv
	BYTE	W03
	BYTE		        73*seq_068_mvl/mxv
	BYTE	W12
	BYTE		        74*seq_068_mvl/mxv
	BYTE	W06
	BYTE		        74*seq_068_mvl/mxv
	BYTE	W36
	BYTE		        75*seq_068_mvl/mxv
	BYTE	W18
	BYTE		        76*seq_068_mvl/mxv
	BYTE	W18
	BYTE		        77*seq_068_mvl/mxv
	BYTE	W01
	BYTE	PEND
	BYTE	W11
	BYTE		VOL     78*seq_068_mvl/mxv
	BYTE	W24
	BYTE		        76*seq_068_mvl/mxv
	BYTE	W06
	BYTE		        75*seq_068_mvl/mxv
	BYTE	W06
	BYTE		        73*seq_068_mvl/mxv
	BYTE	W06
	BYTE		        70*seq_068_mvl/mxv
	BYTE	W06
	BYTE		        68*seq_068_mvl/mxv
	BYTE	W06
	BYTE		        64*seq_068_mvl/mxv
	BYTE	W06
	BYTE		        60*seq_068_mvl/mxv
	BYTE	W06
	BYTE		        55*seq_068_mvl/mxv
	BYTE	W06
	BYTE		        49*seq_068_mvl/mxv
	BYTE	W06
	BYTE		        43*seq_068_mvl/mxv
	BYTE	W06
	BYTE		        37*seq_068_mvl/mxv
	BYTE	W01
	BYTE	PEND
	BYTE	W05
	BYTE		VOL     73*seq_068_mvl/mxv
	BYTE	W12
	BYTE		        74*seq_068_mvl/mxv
	BYTE	W06
	BYTE		        74*seq_068_mvl/mxv
	BYTE	W36
	BYTE		        75*seq_068_mvl/mxv
	BYTE	W18
	BYTE		        76*seq_068_mvl/mxv
	BYTE	W18
	BYTE		        77*seq_068_mvl/mxv
	BYTE	W01
	BYTE	PEND
	BYTE	PATT
	 POIN2	seq_068_2 + 0x9BB
	BYTE	W05
	BYTE		VOL     73*seq_068_mvl/mxv
	BYTE		N05     Cs2   v016
	BYTE	W12
	BYTE		        En2 
	BYTE	W12
	BYTE		N24     Ds2 
	BYTE	W12
	BYTE		VOL     72*seq_068_mvl/mxv
	BYTE	W03
	BYTE		        72*seq_068_mvl/mxv
	BYTE	W03
	BYTE		        68*seq_068_mvl/mxv
	BYTE	W03
	BYTE		        62*seq_068_mvl/mxv
	BYTE	W03
	BYTE		        73*seq_068_mvl/mxv
	BYTE		N05     Cs2 
	BYTE	W12
	BYTE		        En2 
	BYTE	W12
	BYTE		N12     Ds2 
	BYTE	W12
	BYTE		N06     Cs2 
	BYTE	W06
	BYTE		        Bn1 
	BYTE	W01
	BYTE	PEND
	BYTE	PATT
	 POIN2	seq_068_2 + 0x80D
	BYTE	PATT
	 POIN2	seq_068_2 + 0x82C
	BYTE	PATT
	 POIN2	seq_068_2 + 0x844
	BYTE	PATT
	 POIN2	seq_068_2 + 0x863
	BYTE	PATT
	 POIN2	seq_068_2 + 0x884
	BYTE	PATT
	 POIN2	seq_068_2 + 0x8A5
	BYTE	PATT
	 POIN2	seq_068_2 + 0x8CA
	BYTE	W02
	BYTE		EOT     Fn3 
	BYTE	W03
	BYTE		VOL     73*seq_068_mvl/mxv
	BYTE	W80
	BYTE	W01
	BYTE		        71*seq_068_mvl/mxv
	BYTE	W03
	BYTE		        70*seq_068_mvl/mxv
	BYTE	W03
	BYTE		        67*seq_068_mvl/mxv
	BYTE	W03
	BYTE		        62*seq_068_mvl/mxv
	BYTE	W01
	BYTE	PATT
	 POIN2	seq_068_2 + 0x91D
	BYTE	PATT
	 POIN2	seq_068_2 + 0x92D
	BYTE	PATT
	 POIN2	seq_068_2 + 0x91D
	BYTE	PATT
	 POIN2	seq_068_2 + 0x940
	BYTE	W96
	BYTE	W96
	BYTE	W96
	BYTE	W96
	BYTE	W96
	BYTE	W96
	BYTE	W96
	BYTE	W96
	BYTE	W96
	BYTE	PATT
	 POIN2	seq_068_2 + 0x951
	BYTE	PATT
	 POIN2	seq_068_2 + 0x980
	BYTE	PATT
	 POIN2	seq_068_2 + 0x9AA
	BYTE	PATT
	 POIN2	seq_068_2 + 0x9BB
	BYTE	PATT
	 POIN2	seq_068_2 + 0x9D6
	BYTE	PATT
	 POIN2	seq_068_2 + 0x9BB
	BYTE	PATT
	 POIN2	seq_068_2 + 0x9EA
	BYTE	PATT
	 POIN2	seq_068_2 + 0x80D
	BYTE	PATT
	 POIN2	seq_068_2 + 0x82C
	BYTE	PATT
	 POIN2	seq_068_2 + 0x844
	BYTE	PATT
	 POIN2	seq_068_2 + 0x863
	BYTE	PATT
	 POIN2	seq_068_2 + 0x884
	BYTE	PATT
	 POIN2	seq_068_2 + 0x8A5
	BYTE	PATT
	 POIN2	seq_068_2 + 0x8CA
	BYTE	W02
	BYTE		EOT     Fn3 
	BYTE	W92
	BYTE	W02
	BYTE	W96
	BYTE	W96
	BYTE	W96
	BYTE	W96
	BYTE	W96
	BYTE	W96
	BYTE	W96
	BYTE	W96
	BYTE	W96
	BYTE	W96
	BYTE	W96
	BYTE	W96
	BYTE	W96
	BYTE	W96
	BYTE	W96
	BYTE	W96
	BYTE	W96
	BYTE	W96
	BYTE	W96
	BYTE	W96
	BYTE	W96
	BYTE	W96
	BYTE	W96
	BYTE	W96
	BYTE	W96
	BYTE	W96
	BYTE	W96
	BYTE	W96
	BYTE	W96
	BYTE	W96
	BYTE	W96
	BYTE	W96
	BYTE	W96
	BYTE	W96
	BYTE	W96
	BYTE	W96
	BYTE	W96
	BYTE	W96
	BYTE	W96
	BYTE	W96
	BYTE	W96
	BYTE	W96
	BYTE	W96
	BYTE	W96
	BYTE	W96
	BYTE	W96
	BYTE	W96
	BYTE	W96
	BYTE	W96
	BYTE	W96
	BYTE	W96
	BYTE	W48
	BYTE	FINE

//*********************** Track 04 ***********************//

seq_068_3:
	BYTE	KEYSH   seq_068_key+0
	BYTE		VOICE   57
	BYTE	W01
	BYTE		PAN     c_v+63
	BYTE	W01
	BYTE		VOL     73*seq_068_mvl/mxv
	BYTE	W01
	BYTE	W05
	BYTE		N06     Bn2   v024
	BYTE	W06
	BYTE		        An2 
	BYTE	W06
	BYTE		        Gn2 
	BYTE	W06
	BYTE		        An2 
	BYTE	W06
	BYTE		        Bn2 
	BYTE	W06
	BYTE		        En3   v020
	BYTE	W06
	BYTE		        Dn3 
	BYTE	W06
	BYTE		        Cn3 
	BYTE	W06
	BYTE		        Dn3   v024
	BYTE	W06
	BYTE		        Bn2 
	BYTE	W06
	BYTE		        An2 
	BYTE	W06
	BYTE		        Bn2   v020
	BYTE	W06
	BYTE		        Dn3   v024
	BYTE	W06
	BYTE		        Cn3   v020
	BYTE	W06
	BYTE		        Bn2   v024
	BYTE	W06
	BYTE		        An2 
	BYTE	W01
	BYTE	W05
	BYTE		        Bn2 
	BYTE	W06
	BYTE		        An2 
	BYTE	W06
	BYTE		        Gn2 
	BYTE	W06
	BYTE		        An2   v020
	BYTE	W06
	BYTE		        Bn2   v024
	BYTE	W06
	BYTE		        En3   v020
	BYTE	W06
	BYTE		        Dn3 
	BYTE	W06
	BYTE		        Cn3 
	BYTE	W06
	BYTE		        Dn3 
	BYTE	W06
	BYTE		        Bn2 
	BYTE	W06
	BYTE		        An2   v024
	BYTE	W06
	BYTE		        Bn2   v020
	BYTE	W06
	BYTE		        Dn3 
	BYTE	W06
	BYTE		        Cn3 
	BYTE	W06
	BYTE		        Bn2   v024
	BYTE	W06
	BYTE		        An2   v020
	BYTE	W01
	BYTE	W05
	BYTE		        Bn2   v024
	BYTE	W06
	BYTE		        An2 
	BYTE	W06
	BYTE		        Gn2 
	BYTE	W06
	BYTE		        An2   v020
	BYTE	W06
	BYTE		        Bn2   v024
	BYTE	W06
	BYTE		        En3   v020
	BYTE	W06
	BYTE		        Dn3 
	BYTE	W06
	BYTE		        Cn3 
	BYTE	W06
	BYTE		        Dn3   v024
	BYTE	W06
	BYTE		        Bn2   v020
	BYTE	W06
	BYTE		        An2   v024
	BYTE	W06
	BYTE		        Bn2   v020
	BYTE	W06
	BYTE		        Dn3   v024
	BYTE	W06
	BYTE		        Cn3   v020
	BYTE	W06
	BYTE		        Bn2   v024
	BYTE	W06
	BYTE		        An2   v020
	BYTE	W01
	BYTE	W05
	BYTE		        Bn2 
	BYTE	W06
	BYTE		        An2 
	BYTE	W06
	BYTE		        Gn2 
	BYTE	W06
	BYTE		        An2 
	BYTE	W06
	BYTE		        Bn2   v024
	BYTE	W06
	BYTE		        En3   v020
	BYTE	W06
	BYTE		        Dn3 
	BYTE	W06
	BYTE		        Cn3 
	BYTE	W06
	BYTE		        Dn3 
	BYTE	W06
	BYTE		        Bn2 
	BYTE	W06
	BYTE		        An2 
	BYTE	W06
	BYTE		        Bn2 
	BYTE	W04
	BYTE	W16
	BYTE		VOICE   80
	BYTE	W01
	BYTE		PAN     c_v-14
	BYTE	W04
	BYTE		VOL     73*seq_068_mvl/mxv
	BYTE		N72     Dn2   v108
	BYTE	W60
	BYTE	W01
	BYTE		VOL     65*seq_068_mvl/mxv
	BYTE	W03
	BYTE		        58*seq_068_mvl/mxv
	BYTE	W03
	BYTE		        52*seq_068_mvl/mxv
	BYTE	W03
	BYTE		        44*seq_068_mvl/mxv
	BYTE	W09
	BYTE		        73*seq_068_mvl/mxv
	BYTE	W17
	BYTE	W48
	BYTE		N44
	BYTE	W48
	BYTE		N72     Dn2   v108
	BYTE	W60
	BYTE	W01
	BYTE		VOL     65*seq_068_mvl/mxv
	BYTE	W03
	BYTE		        58*seq_068_mvl/mxv
	BYTE	W03
	BYTE		        52*seq_068_mvl/mxv
	BYTE	W03
	BYTE		        44*seq_068_mvl/mxv
	BYTE	W09
	BYTE		        73*seq_068_mvl/mxv
	BYTE	W17
	BYTE	PEND
	BYTE	W96
	BYTE	W96
	BYTE	W96
	BYTE	W96
	BYTE	W96
	BYTE	PATT
	 POIN2	seq_068_3 + 0xC0
	BYTE	W96
	BYTE	W96
	BYTE	W96
	BYTE	W96
	BYTE	W96
	BYTE	W96
	BYTE	W96
	BYTE	PATT
	 POIN2	seq_068_3 + 0xC0
	BYTE	W96
	BYTE	W96
	BYTE	W96
	BYTE	W96
	BYTE	W96
	BYTE	W96
	BYTE	W90
	BYTE		VOICE   42
	BYTE	W01
	BYTE		PAN     c_v+63
	BYTE	W05
	BYTE	W04
	BYTE		VOL     73*seq_068_mvl/mxv
	BYTE	W04
	BYTE		N48     Cn4   v020
	BYTE	W30
	BYTE		VOL     72*seq_068_mvl/mxv
	BYTE	W03
	BYTE		        70*seq_068_mvl/mxv
	BYTE	W03
	BYTE		        68*seq_068_mvl/mxv
	BYTE	W03
	BYTE		        67*seq_068_mvl/mxv
	BYTE	W03
	BYTE		        64*seq_068_mvl/mxv
	BYTE	W03
	BYTE		        62*seq_068_mvl/mxv
	BYTE	W03
	BYTE		        73*seq_068_mvl/mxv
	BYTE		N24     Bn3 
	BYTE	W24
	BYTE		        Cn4   v016
	BYTE	W16
	BYTE	W08
	BYTE		N24     Bn3   v016
	BYTE	W24
	BYTE		N72     An3 
	BYTE	W42
	BYTE		VOL     72*seq_068_mvl/mxv
	BYTE	W06
	BYTE		        71*seq_068_mvl/mxv
	BYTE	W03
	BYTE		        69*seq_068_mvl/mxv
	BYTE	W03
	BYTE		        67*seq_068_mvl/mxv
	BYTE	W03
	BYTE		        64*seq_068_mvl/mxv
	BYTE	W03
	BYTE		        60*seq_068_mvl/mxv
	BYTE	W03
	BYTE		        56*seq_068_mvl/mxv
	BYTE	W01
	BYTE	PEND
	BYTE	W02
	BYTE		VOL     51*seq_068_mvl/mxv
	BYTE	W03
	BYTE		        45*seq_068_mvl/mxv
	BYTE	W36
	BYTE	W03
	BYTE		        73*seq_068_mvl/mxv
	BYTE	W52
	BYTE	PEND
	BYTE	W96
	BYTE	W08
	BYTE		N48     Cn4   v020
	BYTE	W30
	BYTE		VOL     72*seq_068_mvl/mxv
	BYTE	W03
	BYTE		        70*seq_068_mvl/mxv
	BYTE	W03
	BYTE		        68*seq_068_mvl/mxv
	BYTE	W03
	BYTE		        67*seq_068_mvl/mxv
	BYTE	W03
	BYTE		        64*seq_068_mvl/mxv
	BYTE	W03
	BYTE		        62*seq_068_mvl/mxv
	BYTE	W03
	BYTE		        73*seq_068_mvl/mxv
	BYTE		N24     Bn3 
	BYTE	W24
	BYTE		        Cn4   v016
	BYTE	W16
	BYTE	PEND
	BYTE	PATT
	 POIN2	seq_068_3 + 0x110
	BYTE	W02
	BYTE		VOL     51*seq_068_mvl/mxv
	BYTE	W03
	BYTE		        45*seq_068_mvl/mxv
	BYTE	W24
	BYTE		        73*seq_068_mvl/mxv
	BYTE	W66
	BYTE	W01
	BYTE	W96
	BYTE	W96
	BYTE	W96
	BYTE	W96
	BYTE	W96
	BYTE	W96
	BYTE	W96
	BYTE	W96
	BYTE	W96
	BYTE	W96
	BYTE	W96
	BYTE	W96
	BYTE	W96
	BYTE	W96
	BYTE	W96
	BYTE	W96
	BYTE	W96
	BYTE	W96
	BYTE	W96
	BYTE	W96
	BYTE	W96
	BYTE	PATT
	 POIN2	seq_068_3 + 0x133
	BYTE	PATT
	 POIN2	seq_068_3 + 0x110
	BYTE	PATT
	 POIN2	seq_068_3 + 0x128
	BYTE	W96
	BYTE	PATT
	 POIN2	seq_068_3 + 0x133
	BYTE	PATT
	 POIN2	seq_068_3 + 0x110
	BYTE	W02
	BYTE		VOL     51*seq_068_mvl/mxv
	BYTE	W03
	BYTE		        45*seq_068_mvl/mxv
	BYTE	W72
	BYTE		        73*seq_068_mvl/mxv
	BYTE	W19
	BYTE	W96
	BYTE	W96
	BYTE	W96
	BYTE	W96
	BYTE	W96
	BYTE	W96
	BYTE	W96
	BYTE	W96
	BYTE	W96
	BYTE	W96
	BYTE	W96
	BYTE	W96
	BYTE	W96
	BYTE	W96
	BYTE	W96
	BYTE	W96
	BYTE	W96
	BYTE	W96
	BYTE	W96
	BYTE	W96
	BYTE	W96
	BYTE	PATT
	 POIN2	seq_068_3 + 0x133
	BYTE	PATT
	 POIN2	seq_068_3 + 0x110
	BYTE	W02
	BYTE		VOL     51*seq_068_mvl/mxv
	BYTE	W03
	BYTE		        45*seq_068_mvl/mxv
	BYTE	W36
	BYTE		        73*seq_068_mvl/mxv
	BYTE	W54
	BYTE	W01
	BYTE	W96
	BYTE	PATT
	 POIN2	seq_068_3 + 0x133
	BYTE	PATT
	 POIN2	seq_068_3 + 0x110
	BYTE	W02
	BYTE		VOL     51*seq_068_mvl/mxv
	BYTE	W03
	BYTE		        45*seq_068_mvl/mxv
	BYTE	W30
	BYTE		        73*seq_068_mvl/mxv
	BYTE	W60
	BYTE	W01
	BYTE	W96
	BYTE	W96
	BYTE	W96
	BYTE	W96
	BYTE	W84
	BYTE	W02
	BYTE		VOICE   72
	BYTE	W01
	BYTE		VOL     73*seq_068_mvl/mxv
	BYTE		PAN     c_v-3
	BYTE	W08
	BYTE		N48     Cs3   v072
	BYTE	W01
	BYTE	W44
	BYTE	W03
	BYTE		        Dn3 
	BYTE	W48
	BYTE		N96     En3   v076
	BYTE	W01
	BYTE	W44
	BYTE	W03
	BYTE		VOL     72*seq_068_mvl/mxv
	BYTE	W06
	BYTE		        71*seq_068_mvl/mxv
	BYTE	W03
	BYTE		        69*seq_068_mvl/mxv
	BYTE	W03
	BYTE		        67*seq_068_mvl/mxv
	BYTE	W03
	BYTE		        64*seq_068_mvl/mxv
	BYTE	W03
	BYTE		        61*seq_068_mvl/mxv
	BYTE	W03
	BYTE		        56*seq_068_mvl/mxv
	BYTE	W03
	BYTE		        52*seq_068_mvl/mxv
	BYTE	W03
	BYTE		        47*seq_068_mvl/mxv
	BYTE	W03
	BYTE		        41*seq_068_mvl/mxv
	BYTE	W03
	BYTE		        34*seq_068_mvl/mxv
	BYTE	W03
	BYTE		        27*seq_068_mvl/mxv
	BYTE	W03
	BYTE		        19*seq_068_mvl/mxv
	BYTE	W03
	BYTE		        11*seq_068_mvl/mxv
	BYTE	W03
	BYTE		        5*seq_068_mvl/mxv
	BYTE	W03
	BYTE		        73*seq_068_mvl/mxv
	BYTE		N48     Fs2   v072
	BYTE	W01
	BYTE	W44
	BYTE	W03
	BYTE		        Gn2   v080
	BYTE	W48
	BYTE		N44     An2 
	BYTE	W01
	BYTE	W44
	BYTE	W03
	BYTE		N48
	BYTE	W48
	BYTE		        Cs3   v076
	BYTE	W01
	BYTE	W44
	BYTE	W03
	BYTE		        Dn3 
	BYTE	W48
	BYTE		        En3   v072
	BYTE	W01
	BYTE	W44
	BYTE	W03
	BYTE		        Dn3   v068
	BYTE	W48
	BYTE		TIE     Cs3   v064
	BYTE	W01
	BYTE	W11
	BYTE		VOL     74*seq_068_mvl/mxv
	BYTE	W12
	BYTE		        74*seq_068_mvl/mxv
	BYTE	W06
	BYTE		        75*seq_068_mvl/mxv
	BYTE	W06
	BYTE		        76*seq_068_mvl/mxv
	BYTE	W06
	BYTE		        78*seq_068_mvl/mxv
	BYTE	W06
	BYTE		        79*seq_068_mvl/mxv
	BYTE	W12
	BYTE		        78*seq_068_mvl/mxv
	BYTE	W06
	BYTE		        78*seq_068_mvl/mxv
	BYTE	W06
	BYTE		        77*seq_068_mvl/mxv
	BYTE	W06
	BYTE		        76*seq_068_mvl/mxv
	BYTE	W06
	BYTE		        74*seq_068_mvl/mxv
	BYTE	W06
	BYTE		        72*seq_068_mvl/mxv
	BYTE	W06
	BYTE		        70*seq_068_mvl/mxv
	BYTE	W01
	BYTE	W05
	BYTE		        67*seq_068_mvl/mxv
	BYTE	W06
	BYTE		        64*seq_068_mvl/mxv
	BYTE	W06
	BYTE		        61*seq_068_mvl/mxv
	BYTE	W06
	BYTE		        58*seq_068_mvl/mxv
	BYTE	W06
	BYTE		        54*seq_068_mvl/mxv
	BYTE	W06
	BYTE		        50*seq_068_mvl/mxv
	BYTE	W06
	BYTE		        46*seq_068_mvl/mxv
	BYTE	W06
	BYTE		        41*seq_068_mvl/mxv
	BYTE	W06
	BYTE		        36*seq_068_mvl/mxv
	BYTE	W06
	BYTE		        32*seq_068_mvl/mxv
	BYTE	W06
	BYTE		        26*seq_068_mvl/mxv
	BYTE	W06
	BYTE		        20*seq_068_mvl/mxv
	BYTE	W06
	BYTE		        14*seq_068_mvl/mxv
	BYTE	W06
	BYTE		        8*seq_068_mvl/mxv
	BYTE	W06
	BYTE		EOT
	BYTE	W04
	BYTE	W03
	BYTE	W06
	BYTE		VOICE   54
	BYTE	W01
	BYTE		PAN     c_v-24
	BYTE	W01
	BYTE		VOL     73*seq_068_mvl/mxv
	BYTE	W04
	BYTE		N12     Fn1   v020
	BYTE	W12
	BYTE		        Cn2 
	BYTE	W12
	BYTE		        Fn2 
	BYTE	W12
	BYTE		        An2   v016
	BYTE	W12
	BYTE		        Cn3 
	BYTE	W36
	BYTE	W12
	BYTE		        Fn1   v020
	BYTE	W12
	BYTE		        Cn2   v016
	BYTE	W12
	BYTE		        Fn2 
	BYTE	W12
	BYTE		        An2   v012
	BYTE	W12
	BYTE		        Cn3 
	BYTE	W36
	BYTE	W12
	BYTE		        Dn1   v020
	BYTE	W12
	BYTE		        An1 
	BYTE	W12
	BYTE		        Dn2   v016
	BYTE	W12
	BYTE		        Fn2 
	BYTE	W12
	BYTE		        An2 
	BYTE	W36
	BYTE	W12
	BYTE		        Dn1   v020
	BYTE	W12
	BYTE		        An1   v016
	BYTE	W12
	BYTE		        Dn2 
	BYTE	W12
	BYTE		        Fn2   v012
	BYTE	W12
	BYTE		        An2 
	BYTE	W36
	BYTE	W12
	BYTE		        As0   v020
	BYTE	W12
	BYTE		        Fn1 
	BYTE	W12
	BYTE		        As1   v016
	BYTE	W12
	BYTE		        Dn2 
	BYTE	W12
	BYTE		        Fn2 
	BYTE	W36
	BYTE	W12
	BYTE		        As0   v020
	BYTE	W12
	BYTE		        Fn1   v016
	BYTE	W12
	BYTE		        As1 
	BYTE	W12
	BYTE		        Dn2   v012
	BYTE	W12
	BYTE		        Fn2 
	BYTE	W36
	BYTE	W12
	BYTE		        Ds1   v020
	BYTE	W12
	BYTE		        As1 
	BYTE	W12
	BYTE		        Ds2 
	BYTE	W12
	BYTE		        Gn2   v016
	BYTE	W12
	BYTE		        As2 
	BYTE	W36
	BYTE	W12
	BYTE		        Ds1   v020
	BYTE	W12
	BYTE		        As1   v016
	BYTE	W12
	BYTE		        Ds2 
	BYTE	W12
	BYTE		        Gn2 
	BYTE	W12
	BYTE		        As2   v012
	BYTE	W36
	BYTE	W12
	BYTE		        Cn1   v020
	BYTE	W12
	BYTE		        Gn1 
	BYTE	W12
	BYTE		        Cn2   v016
	BYTE	W12
	BYTE		        Ds2 
	BYTE	W12
	BYTE		        Gn2 
	BYTE	W36
	BYTE	W12
	BYTE		        Cn1   v020
	BYTE	W12
	BYTE		        Gn1 
	BYTE	W12
	BYTE		        Cn2 
	BYTE	W12
	BYTE		        Ds2 
	BYTE	W12
	BYTE		        Gn2 
	BYTE	W36
	BYTE	W12
	BYTE		        Gn0 
	BYTE	W12
	BYTE		        Gn1 
	BYTE	W12
	BYTE		        Bn1   v016
	BYTE	W12
	BYTE		        Dn2 
	BYTE	W12
	BYTE		        Gn2 
	BYTE	W36
	BYTE	W12
	BYTE		        Gn0 
	BYTE	W12
	BYTE		        Gn1 
	BYTE	W12
	BYTE		        Bn1 
	BYTE	W12
	BYTE		        Dn2   v012
	BYTE	W12
	BYTE		        Gn2 
	BYTE	W20
	BYTE	W16
	BYTE	W96
	BYTE	W96
	BYTE	W96
	BYTE	W96
	BYTE	W96
	BYTE	W96
	BYTE	W96
	BYTE	W96
	BYTE	W32
	BYTE	W02
	BYTE		VOICE   41
	BYTE	W01
	BYTE		PAN     c_v+26
	BYTE	W01
	BYTE		BENDR   6
	BYTE		VOL     73*seq_068_mvl/mxv
	BYTE	W12
	BYTE		N23     As2   v084
	BYTE	W15
	BYTE		BEND    c_v-6
	BYTE	W01
	BYTE		        c_v-10
	BYTE	W01
	BYTE		        c_v-15
	BYTE	W01
	BYTE		        c_v-20
	BYTE	W01
	BYTE		        c_v-24
	BYTE	W01
	BYTE		        c_v-29
	BYTE	W01
	BYTE		        c_v-33
	BYTE	W03
	BYTE		N05     As2   v020
	BYTE	W23
	BYTE		BEND    c_v+1
	BYTE	W01
	BYTE	W48
	BYTE		N23     As2   v076
	BYTE	W14
	BYTE		BEND    c_v-2
	BYTE	W01
	BYTE		        c_v-6
	BYTE	W01
	BYTE		        c_v-10
	BYTE	W01
	BYTE		        c_v-15
	BYTE	W01
	BYTE		        c_v-20
	BYTE	W01
	BYTE		        c_v-24
	BYTE	W01
	BYTE		        c_v-29
	BYTE	W01
	BYTE		        c_v-33
	BYTE	W03
	BYTE		N05     As2   v020
	BYTE	W01
	BYTE	W22
	BYTE		BEND    c_v+1
	BYTE	W01
	BYTE	W96
	BYTE	W96
	BYTE	W96
	BYTE	W96
	BYTE	W42
	BYTE	W06
	BYTE		N23     As2   v084
	BYTE	W14
	BYTE		BEND    c_v-2
	BYTE	W01
	BYTE		        c_v-6
	BYTE	W01
	BYTE		        c_v-10
	BYTE	W01
	BYTE		        c_v-15
	BYTE	W01
	BYTE		        c_v-20
	BYTE	W01
	BYTE		        c_v-24
	BYTE	W01
	BYTE		        c_v-29
	BYTE	W01
	BYTE		        c_v-33
	BYTE	W03
	BYTE		N05     As2   v020
	BYTE	W23
	BYTE		BEND    c_v+1
	BYTE	W01
	BYTE	W48
	BYTE		N23     As2   v084
	BYTE	W14
	BYTE		BEND    c_v-2
	BYTE	W01
	BYTE		        c_v-6
	BYTE	W01
	BYTE		        c_v-10
	BYTE	W01
	BYTE		        c_v-15
	BYTE	W01
	BYTE		        c_v-20
	BYTE	W01
	BYTE		        c_v-24
	BYTE	W01
	BYTE		        c_v-29
	BYTE	W01
	BYTE		        c_v-33
	BYTE	W03
	BYTE		N05     As2   v020
	BYTE	W06
	BYTE		PAN     c_v-16
	BYTE	W06
	BYTE		BEND    c_v+1
	BYTE	W12
	BYTE		N23     An2   v084
	BYTE	W24
	BYTE		N05
	BYTE	W08
	BYTE		N04     An2   v076
	BYTE	W08
	BYTE		N04
	BYTE	W08
	BYTE		N09     Cn3 
	BYTE	W12
	BYTE		N06     Cn3   v012
	BYTE	W12
	BYTE		N09     Cn3   v068
	BYTE	W12
	BYTE		N06     Cn3   v012
	BYTE	W12
	BYTE		N48     Ds3   v076
	BYTE	W48
	BYTE		N22     Gn3   v080
	BYTE	W24
	BYTE		N24     Gn3   v072
	BYTE	W24
	BYTE		VOL     65*seq_068_mvl/mxv
	BYTE		N68     Cs3 
	BYTE	W09
	BYTE		VOL     66*seq_068_mvl/mxv
	BYTE	W06
	BYTE		        66*seq_068_mvl/mxv
	BYTE	W06
	BYTE		        67*seq_068_mvl/mxv
	BYTE	W03
	BYTE		        68*seq_068_mvl/mxv
	BYTE	W03
	BYTE		        70*seq_068_mvl/mxv
	BYTE	W03
	BYTE		        70*seq_068_mvl/mxv
	BYTE	W03
	BYTE		        72*seq_068_mvl/mxv
	BYTE	W03
	BYTE		        74*seq_068_mvl/mxv
	BYTE	W03
	BYTE		        75*seq_068_mvl/mxv
	BYTE	W03
	BYTE		        77*seq_068_mvl/mxv
	BYTE	W03
	BYTE		        80*seq_068_mvl/mxv
	BYTE	W09
	BYTE		        78*seq_068_mvl/mxv
	BYTE	W03
	BYTE		        78*seq_068_mvl/mxv
	BYTE	W03
	BYTE		        77*seq_068_mvl/mxv
	BYTE	W03
	BYTE		        76*seq_068_mvl/mxv
	BYTE	W03
	BYTE		        75*seq_068_mvl/mxv
	BYTE	W03
	BYTE		        74*seq_068_mvl/mxv
	BYTE	W03
	BYTE		        73*seq_068_mvl/mxv
	BYTE		N23
	BYTE	W24
	BYTE		N92
	BYTE	W44
	BYTE	W01
	BYTE		VOL     72*seq_068_mvl/mxv
	BYTE	W09
	BYTE		        72*seq_068_mvl/mxv
	BYTE	W03
	BYTE		        71*seq_068_mvl/mxv
	BYTE	W03
	BYTE		        70*seq_068_mvl/mxv
	BYTE	W03
	BYTE		        70*seq_068_mvl/mxv
	BYTE	W03
	BYTE		        69*seq_068_mvl/mxv
	BYTE	W03
	BYTE		        68*seq_068_mvl/mxv
	BYTE	W03
	BYTE		        67*seq_068_mvl/mxv
	BYTE	W03
	BYTE		        66*seq_068_mvl/mxv
	BYTE	W03
	BYTE		        65*seq_068_mvl/mxv
	BYTE	W03
	BYTE		        63*seq_068_mvl/mxv
	BYTE	W03
	BYTE		        62*seq_068_mvl/mxv
	BYTE	W03
	BYTE		        60*seq_068_mvl/mxv
	BYTE	W03
	BYTE		        58*seq_068_mvl/mxv
	BYTE	W03
	BYTE		        56*seq_068_mvl/mxv
	BYTE	W03
	BYTE		        73*seq_068_mvl/mxv
	BYTE		N44     As2 
	BYTE	W48
	BYTE		N23     As2   v080
	BYTE	W24
	BYTE		        As2   v084
	BYTE	W24
	BYTE		N44
	BYTE	W48
	BYTE		N23     As2   v080
	BYTE	W24
	BYTE		        As2   v084
	BYTE	W24
	BYTE		N96
	BYTE	W60
	BYTE		VOL     72*seq_068_mvl/mxv
	BYTE	W06
	BYTE		        71*seq_068_mvl/mxv
	BYTE	W06
	BYTE		        68*seq_068_mvl/mxv
	BYTE	W06
	BYTE		        64*seq_068_mvl/mxv
	BYTE	W06
	BYTE		        59*seq_068_mvl/mxv
	BYTE	W06
	BYTE		        52*seq_068_mvl/mxv
	BYTE	W06
	BYTE		        73*seq_068_mvl/mxv
	BYTE		N96     An2   v076
	BYTE	W48
	BYTE		VOL     72*seq_068_mvl/mxv
	BYTE	W06
	BYTE		        71*seq_068_mvl/mxv
	BYTE	W06
	BYTE		        68*seq_068_mvl/mxv
	BYTE	W06
	BYTE		        64*seq_068_mvl/mxv
	BYTE	W06
	BYTE		        59*seq_068_mvl/mxv
	BYTE	W06
	BYTE		        52*seq_068_mvl/mxv
	BYTE	W06
	BYTE		        43*seq_068_mvl/mxv
	BYTE	W06
	BYTE		        32*seq_068_mvl/mxv
	BYTE	W06
	BYTE	W12
	BYTE	W84
	BYTE	W96
	BYTE	W96
	BYTE	W96
	BYTE	W96
	BYTE	W96
	BYTE	W96
	BYTE	W96
	BYTE	W96
	BYTE	W96
	BYTE	W96
	BYTE	W96
	BYTE	W96
	BYTE	W96
	BYTE	W92
	BYTE	W02
	BYTE		VOICE   45
	BYTE		BEND    c_v+0
	BYTE	W01
	BYTE		PAN     c_v-64
	BYTE	W01
	BYTE		VOL     73*seq_068_mvl/mxv
	BYTE	W90
	BYTE	W06
	BYTE	W06
	BYTE		N04     Fn4   v028
	BYTE	W12
	BYTE		        Gs4   v024
	BYTE	W12
	BYTE		N12     Gn4   v028
	BYTE	W12
	BYTE		N06     Gs4   v024
	BYTE	W06
	BYTE		        As4   v020
	BYTE	W06
	BYTE		N04     Gs4   v028
	BYTE	W12
	BYTE		        Fn4   v024
	BYTE	W12
	BYTE		        Gn4   v028
	BYTE	W12
	BYTE		N12     As4   v020
	BYTE	W06
	BYTE	W06
	BYTE		N04     Gs4   v028
	BYTE	W12
	BYTE		        Fn4   v024
	BYTE	W12
	BYTE		        Gn4   v028
	BYTE	W12
	BYTE		        Ds4   v024
	BYTE	W12
	BYTE		N48     Fn4 
	BYTE	W15
	BYTE		VOL     70*seq_068_mvl/mxv
	BYTE	W03
	BYTE		        70*seq_068_mvl/mxv
	BYTE	W03
	BYTE		        68*seq_068_mvl/mxv
	BYTE	W03
	BYTE		        66*seq_068_mvl/mxv
	BYTE	W03
	BYTE		        62*seq_068_mvl/mxv
	BYTE	W03
	BYTE		        57*seq_068_mvl/mxv
	BYTE	W03
	BYTE		        50*seq_068_mvl/mxv
	BYTE	W03
	BYTE		        44*seq_068_mvl/mxv
	BYTE	W03
	BYTE		        35*seq_068_mvl/mxv
	BYTE	W03
	BYTE		        26*seq_068_mvl/mxv
	BYTE	W03
	BYTE		        15*seq_068_mvl/mxv
	BYTE	W07
	BYTE	W84
	BYTE	W02
	BYTE	W96
	BYTE	W03
	BYTE		VOICE   80
	BYTE	W01
	BYTE		PAN     c_v-14
	BYTE	W08
	BYTE		VOL     73*seq_068_mvl/mxv
	BYTE	W12
	BYTE		N44     Dn2   v080
	BYTE	W48
	BYTE		N44
	BYTE	W24
	BYTE	W24
	BYTE		N44
	BYTE	W48
	BYTE		        Dn2   v084
	BYTE	W24
	BYTE	W24
	BYTE		N44     Dn2   v084
	BYTE	W48
	BYTE		N44
	BYTE	W24
	BYTE	PEND
	BYTE	PATT
	 POIN2	seq_068_3 + 0x4CC
	BYTE	W48
	BYTE		N72     Dn2   v088
	BYTE	W48
	BYTE	W11
	BYTE		VOL     65*seq_068_mvl/mxv
	BYTE	W03
	BYTE		        58*seq_068_mvl/mxv
	BYTE	W03
	BYTE		        52*seq_068_mvl/mxv
	BYTE	W03
	BYTE		        44*seq_068_mvl/mxv
	BYTE	W09
	BYTE		        73*seq_068_mvl/mxv
	BYTE	W19
	BYTE		N72     Dn2   v092
	BYTE	W48
	BYTE	W11
	BYTE		VOL     65*seq_068_mvl/mxv
	BYTE	W03
	BYTE		        58*seq_068_mvl/mxv
	BYTE	W03
	BYTE		        52*seq_068_mvl/mxv
	BYTE	W03
	BYTE		        44*seq_068_mvl/mxv
	BYTE	W09
	BYTE		        73*seq_068_mvl/mxv
	BYTE	W19
	BYTE		N68
	BYTE	W48
	BYTE	W11
	BYTE		VOL     65*seq_068_mvl/mxv
	BYTE	W03
	BYTE		        58*seq_068_mvl/mxv
	BYTE	W03
	BYTE		        52*seq_068_mvl/mxv
	BYTE	W03
	BYTE		        44*seq_068_mvl/mxv
	BYTE	W04
	BYTE		N44
	BYTE	W05
	BYTE		VOL     73*seq_068_mvl/mxv
	BYTE	W42
	BYTE	W01
	BYTE		N72     Dn2   v088
	BYTE	W24
	BYTE	W32
	BYTE	W03
	BYTE		VOL     65*seq_068_mvl/mxv
	BYTE	W03
	BYTE		        58*seq_068_mvl/mxv
	BYTE	W03
	BYTE		        52*seq_068_mvl/mxv
	BYTE	W03
	BYTE		        44*seq_068_mvl/mxv
	BYTE	W03
	BYTE	W48
	BYTE	W01
	BYTE	W96
	BYTE	W96
	BYTE	W96
	BYTE	W96
	BYTE	W96
	BYTE	W96
	BYTE	W96
	BYTE	W96
	BYTE	W96
	BYTE	W96
	BYTE	W96
	BYTE	W96
	BYTE	W96
	BYTE	W96
	BYTE	W96
	BYTE	W01
	BYTE		VOICE   45
	BYTE	W01
	BYTE		PAN     c_v-64
	BYTE	W01
	BYTE		VOL     73*seq_068_mvl/mxv
	BYTE	W02
	BYTE		N04     Fn4   v028
	BYTE	W12
	BYTE		        Gs4   v024
	BYTE	W12
	BYTE		N12     Gn4   v028
	BYTE	W12
	BYTE		N06     Gs4   v024
	BYTE	W06
	BYTE		        As4   v020
	BYTE	W06
	BYTE		N04     Gs4   v028
	BYTE	W12
	BYTE		        Fn4   v024
	BYTE	W12
	BYTE		        Gn4   v028
	BYTE	W12
	BYTE		N12     As4   v020
	BYTE	W07
	BYTE	PEND
	BYTE	W05
	BYTE		N04     Gs4   v028
	BYTE	W12
	BYTE		        Fn4   v024
	BYTE	W12
	BYTE		        Gn4   v028
	BYTE	W12
	BYTE		        Ds4   v024
	BYTE	W12
	BYTE		N48     Fn4 
	BYTE	W15
	BYTE		VOL     70*seq_068_mvl/mxv
	BYTE	W03
	BYTE		        70*seq_068_mvl/mxv
	BYTE	W03
	BYTE		        68*seq_068_mvl/mxv
	BYTE	W03
	BYTE		        66*seq_068_mvl/mxv
	BYTE	W03
	BYTE		        62*seq_068_mvl/mxv
	BYTE	W03
	BYTE		        57*seq_068_mvl/mxv
	BYTE	W03
	BYTE		        50*seq_068_mvl/mxv
	BYTE	W03
	BYTE		        44*seq_068_mvl/mxv
	BYTE	W03
	BYTE		        35*seq_068_mvl/mxv
	BYTE	W03
	BYTE		        26*seq_068_mvl/mxv
	BYTE	W01
	BYTE	PEND
	BYTE	W02
	BYTE		        15*seq_068_mvl/mxv
	BYTE	W05
	BYTE	W88
	BYTE	W01
	BYTE	W96
	BYTE	W12
	BYTE	W01
	BYTE		VOICE   80
	BYTE	W01
	BYTE		VOL     73*seq_068_mvl/mxv
	BYTE	W01
	BYTE		PAN     c_v-14
	BYTE	W09
	BYTE		N44     Dn2   v092
	BYTE	W48
	BYTE		N44
	BYTE	W24
	BYTE	PEND
	BYTE	W24
	BYTE		N44     Dn2   v092
	BYTE	W48
	BYTE		N44
	BYTE	W24
	BYTE	PEND
	BYTE	PATT
	 POIN2	seq_068_3 + 0x596
	BYTE	W24
	BYTE		N44     Dn2   v096
	BYTE	W48
	BYTE		N44
	BYTE	W24
	BYTE	PEND
	BYTE	W48
	BYTE		N72     Dn2   v100
	BYTE	W48
	BYTE	W10
	BYTE		VOL     65*seq_068_mvl/mxv
	BYTE	W03
	BYTE		        58*seq_068_mvl/mxv
	BYTE	W03
	BYTE		        52*seq_068_mvl/mxv
	BYTE	W03
	BYTE		        44*seq_068_mvl/mxv
	BYTE	W09
	BYTE		        73*seq_068_mvl/mxv
	BYTE	W20
	BYTE		N72     Dn2   v100
	BYTE	W48
	BYTE	PEND
	BYTE	W10
	BYTE		VOL     65*seq_068_mvl/mxv
	BYTE	W03
	BYTE		        58*seq_068_mvl/mxv
	BYTE	W03
	BYTE		        52*seq_068_mvl/mxv
	BYTE	W03
	BYTE		        44*seq_068_mvl/mxv
	BYTE	W09
	BYTE		        73*seq_068_mvl/mxv
	BYTE	W20
	BYTE		N68     Dn2   v104
	BYTE	W48
	BYTE	PEND
	BYTE	W10
	BYTE		VOL     65*seq_068_mvl/mxv
	BYTE	W03
	BYTE		        58*seq_068_mvl/mxv
	BYTE	W03
	BYTE		        52*seq_068_mvl/mxv
	BYTE	W03
	BYTE		        44*seq_068_mvl/mxv
	BYTE	W05
	BYTE		N44     Dn2   v100
	BYTE	W04
	BYTE		VOL     73*seq_068_mvl/mxv
	BYTE	W44
	BYTE		N72     Dn2   v096
	BYTE	W24
	BYTE	PEND
	BYTE	W32
	BYTE	W02
	BYTE		VOL     65*seq_068_mvl/mxv
	BYTE	W03
	BYTE		        58*seq_068_mvl/mxv
	BYTE	W03
	BYTE		        52*seq_068_mvl/mxv
	BYTE	W03
	BYTE		        44*seq_068_mvl/mxv
	BYTE	W12
	BYTE	W40
	BYTE	W01
	BYTE	W96
	BYTE	W96
	BYTE	W96
	BYTE	W96
	BYTE	W96
	BYTE	W96
	BYTE	W96
	BYTE	W96
	BYTE	W96
	BYTE	W96
	BYTE	W96
	BYTE	W96
	BYTE	W96
	BYTE	W96
	BYTE	W96
	BYTE	PATT
	 POIN2	seq_068_3 + 0x52C
	BYTE	PATT
	 POIN2	seq_068_3 + 0x557
	BYTE	W02
	BYTE		VOL     15*seq_068_mvl/mxv
	BYTE	W04
	BYTE	W90
	BYTE	W96
	BYTE	PATT
	 POIN2	seq_068_3 + 0x584
	BYTE	PATT
	 POIN2	seq_068_3 + 0x596
	BYTE	PATT
	 POIN2	seq_068_3 + 0x596
	BYTE	PATT
	 POIN2	seq_068_3 + 0x5A3
	BYTE	W48
	BYTE		N72     Dn2   v100
	BYTE	W48
	BYTE	PATT
	 POIN2	seq_068_3 + 0x5B0
	BYTE	PATT
	 POIN2	seq_068_3 + 0x5C1
	BYTE	PATT
	 POIN2	seq_068_3 + 0x5D2
	BYTE	W32
	BYTE	W02
	BYTE		VOL     65*seq_068_mvl/mxv
	BYTE	W03
	BYTE		        58*seq_068_mvl/mxv
	BYTE	W03
	BYTE		        52*seq_068_mvl/mxv
	BYTE	W03
	BYTE		        44*seq_068_mvl/mxv
	BYTE	W11
	BYTE	W42
	BYTE	W96
	BYTE	W96
	BYTE	W96
	BYTE	W96
	BYTE	W96
	BYTE	W96
	BYTE	W96
	BYTE	W96
	BYTE	W96
	BYTE	W96
	BYTE	W96
	BYTE	W96
	BYTE	W96
	BYTE	W96
	BYTE	W78
	BYTE	W01
	BYTE	W14
	BYTE		        73*seq_068_mvl/mxv
	BYTE	W03
	BYTE		N72     Dn2   v100
	BYTE	W56
	BYTE	W02
	BYTE		VOL     65*seq_068_mvl/mxv
	BYTE	W03
	BYTE		        58*seq_068_mvl/mxv
	BYTE	W03
	BYTE		        52*seq_068_mvl/mxv
	BYTE	W03
	BYTE		        44*seq_068_mvl/mxv
	BYTE	W28
	BYTE	W01
	BYTE	PEND
	BYTE	W92
	BYTE	W01
	BYTE		VOL     73*seq_068_mvl/mxv
	BYTE	W03
	BYTE	PEND
	BYTE		VOL     73*seq_068_mvl/mxv
	BYTE		N72     Dn2   v100
	BYTE	W56
	BYTE	W02
	BYTE		VOL     65*seq_068_mvl/mxv
	BYTE	W03
	BYTE		        58*seq_068_mvl/mxv
	BYTE	W03
	BYTE		        52*seq_068_mvl/mxv
	BYTE	W03
	BYTE		        44*seq_068_mvl/mxv
	BYTE	W28
	BYTE	W01
	BYTE	PEND
	BYTE	PATT
	 POIN2	seq_068_3 + 0x66B
	BYTE	PATT
	 POIN2	seq_068_3 + 0x671
	BYTE	PATT
	 POIN2	seq_068_3 + 0x66B
	BYTE	PATT
	 POIN2	seq_068_3 + 0x65B
	BYTE	PATT
	 POIN2	seq_068_3 + 0x66B
	BYTE	PATT
	 POIN2	seq_068_3 + 0x65B
	BYTE	PATT
	 POIN2	seq_068_3 + 0x66B
	BYTE	PATT
	 POIN2	seq_068_3 + 0x65B
	BYTE	PATT
	 POIN2	seq_068_3 + 0x66B
	BYTE	PATT
	 POIN2	seq_068_3 + 0x65B
	BYTE	PATT
	 POIN2	seq_068_3 + 0x66B
	BYTE	PATT
	 POIN2	seq_068_3 + 0x65B
	BYTE	PATT
	 POIN2	seq_068_3 + 0x66B
	BYTE	PATT
	 POIN2	seq_068_3 + 0x65B
	BYTE	PATT
	 POIN2	seq_068_3 + 0x66B
	BYTE	W24
	BYTE		N44     Dn2   v100
	BYTE	W48
	BYTE		        Dn2   v092
	BYTE	W24
	BYTE	PEND
	BYTE	W24
	BYTE		N44     Dn2   v096
	BYTE	W48
	BYTE		N72     Dn2   v088
	BYTE	W24
	BYTE	PEND
	BYTE	W36
	BYTE	W01
	BYTE		VOL     65*seq_068_mvl/mxv
	BYTE	W03
	BYTE		        58*seq_068_mvl/mxv
	BYTE	W03
	BYTE		        52*seq_068_mvl/mxv
	BYTE	W03
	BYTE		        44*seq_068_mvl/mxv
	BYTE	W48
	BYTE	W02
	BYTE	PEND
	BYTE	W72
	BYTE		        73*seq_068_mvl/mxv
	BYTE	W24
	BYTE	PATT
	 POIN2	seq_068_3 + 0x6CE
	BYTE	PATT
	 POIN2	seq_068_3 + 0x6D7
	BYTE	PATT
	 POIN2	seq_068_3 + 0x6E1
	BYTE	W72
	BYTE		VOL     73*seq_068_mvl/mxv
	BYTE	W24
	BYTE		N72     Dn2   v100
	BYTE	W60
	BYTE	W01
	BYTE		VOL     65*seq_068_mvl/mxv
	BYTE	W03
	BYTE		        58*seq_068_mvl/mxv
	BYTE	W03
	BYTE		        52*seq_068_mvl/mxv
	BYTE	W03
	BYTE		        44*seq_068_mvl/mxv
	BYTE	W24
	BYTE	W02
	BYTE	PEND
	BYTE	W42
	BYTE		VOL     73*seq_068_mvl/mxv
	BYTE	W06
	BYTE		N23     Dn2   v096
	BYTE	W24
	BYTE		N23
	BYTE	W24
	BYTE	PEND
	BYTE	PATT
	 POIN2	seq_068_3 + 0x704
	BYTE	PATT
	 POIN2	seq_068_3 + 0x714
	BYTE		N72     Dn2   v100
	BYTE	W60
	BYTE	W01
	BYTE		VOL     65*seq_068_mvl/mxv
	BYTE	W03
	BYTE		        58*seq_068_mvl/mxv
	BYTE	W03
	BYTE		        52*seq_068_mvl/mxv
	BYTE	W03
	BYTE		        44*seq_068_mvl/mxv
	BYTE	W20
	BYTE		        73*seq_068_mvl/mxv
	BYTE	W06
	BYTE		N48
	BYTE	W48
	BYTE		N48
	BYTE	W48
	BYTE		N72     Dn2   v108
	BYTE	W60
	BYTE	W01
	BYTE		VOL     65*seq_068_mvl/mxv
	BYTE	W03
	BYTE		        58*seq_068_mvl/mxv
	BYTE	W03
	BYTE		        52*seq_068_mvl/mxv
	BYTE	W03
	BYTE		        44*seq_068_mvl/mxv
	BYTE	W24
	BYTE	W02
	BYTE	W96
	BYTE	W96
	BYTE	W96
	BYTE	W48
	BYTE	FINE

//*********************** Track 05 ***********************//

seq_068_4:
	BYTE	KEYSH   seq_068_key+0
	BYTE	W03
	BYTE	W96
	BYTE	W96
	BYTE	W96
	BYTE	W92
	BYTE	W01
	BYTE		VOICE   43
	BYTE	W01
	BYTE		PAN     c_v+16
	BYTE	W01
	BYTE		VOL     73*seq_068_mvl/mxv
	BYTE	W01
	BYTE		TIE     Gn3   v096
	BYTE	W96
	BYTE	W12
	BYTE		VOL     72*seq_068_mvl/mxv
	BYTE	W12
	BYTE		        71*seq_068_mvl/mxv
	BYTE	W06
	BYTE		        69*seq_068_mvl/mxv
	BYTE	W06
	BYTE		        66*seq_068_mvl/mxv
	BYTE	W06
	BYTE		        62*seq_068_mvl/mxv
	BYTE	W06
	BYTE		EOT
	BYTE		VOL     73*seq_068_mvl/mxv
	BYTE		N48     Cs3   v100
	BYTE	W48
	BYTE		TIE     Dn3 
	BYTE	W96
	BYTE	W36
	BYTE		VOL     72*seq_068_mvl/mxv
	BYTE	W12
	BYTE		        71*seq_068_mvl/mxv
	BYTE	W06
	BYTE		        69*seq_068_mvl/mxv
	BYTE	W06
	BYTE		        66*seq_068_mvl/mxv
	BYTE	W06
	BYTE		        63*seq_068_mvl/mxv
	BYTE	W06
	BYTE		EOT
	BYTE		VOL     73*seq_068_mvl/mxv
	BYTE		N06     Dn4   v112
	BYTE	W06
	BYTE		        Cn4   v104
	BYTE	W06
	BYTE		        Bn3 
	BYTE	W06
	BYTE		        An3   v100
	BYTE	W06
	BYTE		N05     Gn3   v124
	BYTE	W06
	BYTE		N04     Gn3   v108
	BYTE	W06
	BYTE		        Gn3   v116
	BYTE	W06
	BYTE		        Gn3   v040
	BYTE	W06
	BYTE		        Gn3   v032
	BYTE	W06
	BYTE		        Gn3   v028
	BYTE	W06
	BYTE		        Gn3   v124
	BYTE	W06
	BYTE		        Gn3   v112
	BYTE	W06
	BYTE		N05     Gn3   v124
	BYTE	W06
	BYTE		N04     Gn3   v040
	BYTE	W06
	BYTE		N23     Gn3   v060
	BYTE	W24
	BYTE		N04     Gn3   v124
	BYTE	W06
	BYTE		        Gn3   v112
	BYTE	W06
	BYTE	PEND
	BYTE	PATT
	 POIN2	seq_068_4 + 0x46
	BYTE	PATT
	 POIN2	seq_068_4 + 0x46
	BYTE	PATT
	 POIN2	seq_068_4 + 0x46
	BYTE		N10     Gn2   v112
	BYTE	W12
	BYTE		N06     Gn2   v040
	BYTE	W12
	BYTE		N08     Gn2   v100
	BYTE	W12
	BYTE		N06     Gn2   v040
	BYTE	W12
	BYTE		        Gn2   v032
	BYTE	W12
	BYTE		N17     Gn2   v104
	BYTE	W18
	BYTE		        Gn2   v100
	BYTE	W18
	BYTE	PEND
	BYTE		N10     Gn2   v112
	BYTE	W12
	BYTE		N06     Gn2   v040
	BYTE	W12
	BYTE		N08     Gn2   v100
	BYTE	W12
	BYTE		N06     Gn2   v040
	BYTE	W12
	BYTE		        Gn2   v032
	BYTE	W12
	BYTE		N18     Gn2   v104
	BYTE	W18
	BYTE		N17     Fs2   v108
	BYTE	W18
	BYTE	PEND
	BYTE		N10     En2   v116
	BYTE	W12
	BYTE		N06     En2   v040
	BYTE	W12
	BYTE		N08     En2   v104
	BYTE	W12
	BYTE		N06     En2   v040
	BYTE	W12
	BYTE		        En2   v032
	BYTE	W12
	BYTE		N17     En2   v108
	BYTE	W18
	BYTE		        En2   v100
	BYTE	W18
	BYTE	PEND
	BYTE		N10     En2   v116
	BYTE	W12
	BYTE		N06     En2   v040
	BYTE	W12
	BYTE		N08     En2   v104
	BYTE	W12
	BYTE		N06     En2   v040
	BYTE	W12
	BYTE		        En2   v032
	BYTE	W12
	BYTE		N18     Fs2   v104
	BYTE	W18
	BYTE		N17     Gn2   v108
	BYTE	W18
	BYTE	PEND
	BYTE		N10     Bn2   v108
	BYTE	W12
	BYTE		N06     Bn2   v040
	BYTE	W12
	BYTE		N08     Bn2   v100
	BYTE	W12
	BYTE		N06     Bn2   v040
	BYTE	W12
	BYTE		        Bn2   v032
	BYTE	W12
	BYTE		N17     Bn2   v100
	BYTE	W18
	BYTE		        Bn2   v096
	BYTE	W18
	BYTE	PEND
	BYTE		N10     Bn2   v108
	BYTE	W12
	BYTE		N06     Bn2   v040
	BYTE	W12
	BYTE		N08     Bn2   v100
	BYTE	W12
	BYTE		N06     Bn2   v040
	BYTE	W12
	BYTE		        Bn2   v032
	BYTE	W12
	BYTE		N17     Bn2   v100
	BYTE	W18
	BYTE		        Cs3   v104
	BYTE	W18
	BYTE	PEND
	BYTE		N10     Dn3   v104
	BYTE	W12
	BYTE		N06     Dn3   v040
	BYTE	W12
	BYTE		N08     Dn3   v096
	BYTE	W12
	BYTE		N06     Dn3   v040
	BYTE	W12
	BYTE		        Dn3   v032
	BYTE	W12
	BYTE		N17     Dn3   v100
	BYTE	W18
	BYTE		        Dn3   v092
	BYTE	W18
	BYTE	PEND
	BYTE		N11     Dn3   v108
	BYTE	W12
	BYTE		        An2 
	BYTE	W12
	BYTE		        Gn2   v112
	BYTE	W12
	BYTE		        Gs2   v116
	BYTE	W12
	BYTE		        An2 
	BYTE	W12
	BYTE		        Dn2 
	BYTE	W12
	BYTE		        En2 
	BYTE	W12
	BYTE		        Fs2 
	BYTE	W12
	BYTE	PEND
	BYTE	PATT
	 POIN2	seq_068_4 + 0x83
	BYTE	PATT
	 POIN2	seq_068_4 + 0x9E
	BYTE	PATT
	 POIN2	seq_068_4 + 0xBA
	BYTE	PATT
	 POIN2	seq_068_4 + 0xD5
	BYTE	PATT
	 POIN2	seq_068_4 + 0xF1
	BYTE	PATT
	 POIN2	seq_068_4 + 0x10C
	BYTE	PATT
	 POIN2	seq_068_4 + 0x127
	BYTE		N24     Dn3   v104
	BYTE	W24
	BYTE		        Cn3   v108
	BYTE	W24
	BYTE		        An2   v112
	BYTE	W24
	BYTE		        Fs2 
	BYTE	W24
	BYTE	PEND
	BYTE		N48     An2   v108
	BYTE	W48
	BYTE		        Gn2   v104
	BYTE	W48
	BYTE	PEND
	BYTE		N44     Fn2   v104
	BYTE	W48
	BYTE		N24     Fn2   v112
	BYTE	W24
	BYTE		        Gn2   v108
	BYTE	W24
	BYTE	PEND
	BYTE		N96     An2   v108
	BYTE	W60
	BYTE	W03
	BYTE		VOL     72*seq_068_mvl/mxv
	BYTE	W09
	BYTE		        70*seq_068_mvl/mxv
	BYTE	W03
	BYTE		        69*seq_068_mvl/mxv
	BYTE	W03
	BYTE		        67*seq_068_mvl/mxv
	BYTE	W03
	BYTE		        65*seq_068_mvl/mxv
	BYTE	W03
	BYTE		        63*seq_068_mvl/mxv
	BYTE	W03
	BYTE		        60*seq_068_mvl/mxv
	BYTE	W03
	BYTE		        57*seq_068_mvl/mxv
	BYTE	W03
	BYTE		        54*seq_068_mvl/mxv
	BYTE	W03
	BYTE	PEND
	BYTE		VOL     73*seq_068_mvl/mxv
	BYTE		N48     Dn3   v104
	BYTE	W48
	BYTE		N24     Fs2   v112
	BYTE	W24
	BYTE		        Gn2   v116
	BYTE	W24
	BYTE	PEND
	BYTE	PATT
	 POIN2	seq_068_4 + 0x187
	BYTE	PATT
	 POIN2	seq_068_4 + 0x18F
	BYTE	PATT
	 POIN2	seq_068_4 + 0x19B
	BYTE		VOL     73*seq_068_mvl/mxv
	BYTE		N48     Dn3   v104
	BYTE	W48
	BYTE		N24     Fs2   v108
	BYTE	W24
	BYTE		        Gn2 
	BYTE	W24
	BYTE	PEND
	BYTE		N12     Bn2   v104
	BYTE	W12
	BYTE		        An2 
	BYTE	W12
	BYTE		        Bn2 
	BYTE	W12
	BYTE		        Cs3 
	BYTE	W12
	BYTE		        Ds3 
	BYTE	W12
	BYTE		        Cs3 
	BYTE	W12
	BYTE		        Ds3 
	BYTE	W12
	BYTE		        En3   v100
	BYTE	W12
	BYTE	PEND
	BYTE		N12     Fs3   v108
	BYTE	W12
	BYTE		        En3   v104
	BYTE	W12
	BYTE		        Fs3 
	BYTE	W12
	BYTE		        Gs3 
	BYTE	W12
	BYTE		        An3 
	BYTE	W12
	BYTE		        Gs3   v100
	BYTE	W12
	BYTE		        An3   v104
	BYTE	W12
	BYTE		        Bn3   v096
	BYTE	W12
	BYTE	PEND
	BYTE		N48     En3   v096
	BYTE	W48
	BYTE		        Dn3   v092
	BYTE	W48
	BYTE	PEND
	BYTE		N48     Bn2   v084
	BYTE	W48
	BYTE		        Gs2   v076
	BYTE	W48
	BYTE	PEND
	BYTE	PATT
	 POIN2	seq_068_4 + 0x83
	BYTE	PATT
	 POIN2	seq_068_4 + 0x9E
	BYTE	PATT
	 POIN2	seq_068_4 + 0xBA
	BYTE	PATT
	 POIN2	seq_068_4 + 0xD5
	BYTE	PATT
	 POIN2	seq_068_4 + 0xF1
	BYTE	PATT
	 POIN2	seq_068_4 + 0x10C
	BYTE	PATT
	 POIN2	seq_068_4 + 0x127
	BYTE	PATT
	 POIN2	seq_068_4 + 0x142
	BYTE	PATT
	 POIN2	seq_068_4 + 0x83
	BYTE	PATT
	 POIN2	seq_068_4 + 0x9E
	BYTE	PATT
	 POIN2	seq_068_4 + 0xBA
	BYTE	PATT
	 POIN2	seq_068_4 + 0xD5
	BYTE	PATT
	 POIN2	seq_068_4 + 0xF1
	BYTE	PATT
	 POIN2	seq_068_4 + 0x10C
	BYTE	PATT
	 POIN2	seq_068_4 + 0x127
	BYTE	PATT
	 POIN2	seq_068_4 + 0x17A
	BYTE	PATT
	 POIN2	seq_068_4 + 0x187
	BYTE	PATT
	 POIN2	seq_068_4 + 0x18F
	BYTE	PATT
	 POIN2	seq_068_4 + 0x19B
	BYTE	PATT
	 POIN2	seq_068_4 + 0x1B4
	BYTE	PATT
	 POIN2	seq_068_4 + 0x187
	BYTE	PATT
	 POIN2	seq_068_4 + 0x18F
	BYTE	PATT
	 POIN2	seq_068_4 + 0x19B
	BYTE	PATT
	 POIN2	seq_068_4 + 0x1D1
	BYTE	PATT
	 POIN2	seq_068_4 + 0x1DE
	BYTE	PATT
	 POIN2	seq_068_4 + 0x1F2
	BYTE	PATT
	 POIN2	seq_068_4 + 0x209
	BYTE	PATT
	 POIN2	seq_068_4 + 0x211
	BYTE	PATT
	 POIN2	seq_068_4 + 0x83
	BYTE	PATT
	 POIN2	seq_068_4 + 0x9E
	BYTE	PATT
	 POIN2	seq_068_4 + 0xBA
	BYTE	PATT
	 POIN2	seq_068_4 + 0xD5
	BYTE	PATT
	 POIN2	seq_068_4 + 0xF1
	BYTE	PATT
	 POIN2	seq_068_4 + 0x10C
	BYTE	PATT
	 POIN2	seq_068_4 + 0x127
	BYTE	PATT
	 POIN2	seq_068_4 + 0x142
	BYTE	PATT
	 POIN2	seq_068_4 + 0x83
	BYTE	PATT
	 POIN2	seq_068_4 + 0x9E
	BYTE	PATT
	 POIN2	seq_068_4 + 0xBA
	BYTE	PATT
	 POIN2	seq_068_4 + 0xD5
	BYTE	PATT
	 POIN2	seq_068_4 + 0xF1
	BYTE	PATT
	 POIN2	seq_068_4 + 0x10C
	BYTE	PATT
	 POIN2	seq_068_4 + 0x127
	BYTE	PATT
	 POIN2	seq_068_4 + 0x17A
	BYTE	PATT
	 POIN2	seq_068_4 + 0x187
	BYTE	PATT
	 POIN2	seq_068_4 + 0x18F
	BYTE	PATT
	 POIN2	seq_068_4 + 0x19B
	BYTE	PATT
	 POIN2	seq_068_4 + 0x1B4
	BYTE	PATT
	 POIN2	seq_068_4 + 0x187
	BYTE	PATT
	 POIN2	seq_068_4 + 0x18F
	BYTE	PATT
	 POIN2	seq_068_4 + 0x19B
	BYTE	PATT
	 POIN2	seq_068_4 + 0x1D1
	BYTE	PATT
	 POIN2	seq_068_4 + 0x1DE
	BYTE	PATT
	 POIN2	seq_068_4 + 0x1F2
	BYTE	PATT
	 POIN2	seq_068_4 + 0x209
	BYTE	PATT
	 POIN2	seq_068_4 + 0x211
	BYTE		TIE     An2   v088
	BYTE	W96
	BYTE	W36
	BYTE		VOL     72*seq_068_mvl/mxv
	BYTE	W06
	BYTE		        70*seq_068_mvl/mxv
	BYTE	W06
	BYTE		        68*seq_068_mvl/mxv
	BYTE	W06
	BYTE		        66*seq_068_mvl/mxv
	BYTE	W06
	BYTE		        63*seq_068_mvl/mxv
	BYTE	W06
	BYTE		        59*seq_068_mvl/mxv
	BYTE	W06
	BYTE		        54*seq_068_mvl/mxv
	BYTE	W06
	BYTE		        50*seq_068_mvl/mxv
	BYTE	W06
	BYTE		        44*seq_068_mvl/mxv
	BYTE	W06
	BYTE		        38*seq_068_mvl/mxv
	BYTE	W06
	BYTE		EOT
	BYTE		VOL     73*seq_068_mvl/mxv
	BYTE		TIE     Dn3   v084
	BYTE	W90
	BYTE		VOL     72*seq_068_mvl/mxv
	BYTE	W06
	BYTE	W06
	BYTE		        71*seq_068_mvl/mxv
	BYTE	W06
	BYTE		        70*seq_068_mvl/mxv
	BYTE	W06
	BYTE		        67*seq_068_mvl/mxv
	BYTE	W06
	BYTE		        64*seq_068_mvl/mxv
	BYTE	W06
	BYTE		        61*seq_068_mvl/mxv
	BYTE	W06
	BYTE		        56*seq_068_mvl/mxv
	BYTE	W06
	BYTE		        52*seq_068_mvl/mxv
	BYTE	W06
	BYTE		EOT
	BYTE		VOL     73*seq_068_mvl/mxv
	BYTE		N48     Cn3   v088
	BYTE	W48
	BYTE		TIE     An2   v084
	BYTE	W18
	BYTE		VOL     74*seq_068_mvl/mxv
	BYTE	W24
	BYTE		        74*seq_068_mvl/mxv
	BYTE	W12
	BYTE		        75*seq_068_mvl/mxv
	BYTE	W12
	BYTE		        76*seq_068_mvl/mxv
	BYTE	W12
	BYTE		        76*seq_068_mvl/mxv
	BYTE	W06
	BYTE		        78*seq_068_mvl/mxv
	BYTE	W12
	BYTE	W12
	BYTE		        77*seq_068_mvl/mxv
	BYTE	W18
	BYTE		        76*seq_068_mvl/mxv
	BYTE	W06
	BYTE		        76*seq_068_mvl/mxv
	BYTE	W06
	BYTE		        75*seq_068_mvl/mxv
	BYTE	W12
	BYTE		        74*seq_068_mvl/mxv
	BYTE	W06
	BYTE		        73*seq_068_mvl/mxv
	BYTE	W06
	BYTE		        72*seq_068_mvl/mxv
	BYTE	W06
	BYTE		        71*seq_068_mvl/mxv
	BYTE	W06
	BYTE		        70*seq_068_mvl/mxv
	BYTE	W06
	BYTE		        70*seq_068_mvl/mxv
	BYTE	W06
	BYTE		        68*seq_068_mvl/mxv
	BYTE	W06
	BYTE		        67*seq_068_mvl/mxv
	BYTE	W06
	BYTE		        66*seq_068_mvl/mxv
	BYTE	W06
	BYTE		        65*seq_068_mvl/mxv
	BYTE	W06
	BYTE		        63*seq_068_mvl/mxv
	BYTE	W06
	BYTE		        62*seq_068_mvl/mxv
	BYTE	W06
	BYTE		        61*seq_068_mvl/mxv
	BYTE	W06
	BYTE		        59*seq_068_mvl/mxv
	BYTE	W06
	BYTE		        57*seq_068_mvl/mxv
	BYTE	W06
	BYTE		        56*seq_068_mvl/mxv
	BYTE	W06
	BYTE		        54*seq_068_mvl/mxv
	BYTE	W06
	BYTE		        52*seq_068_mvl/mxv
	BYTE	W06
	BYTE		        50*seq_068_mvl/mxv
	BYTE	W06
	BYTE		        48*seq_068_mvl/mxv
	BYTE	W06
	BYTE		        46*seq_068_mvl/mxv
	BYTE	W06
	BYTE		        44*seq_068_mvl/mxv
	BYTE	W06
	BYTE		        42*seq_068_mvl/mxv
	BYTE	W06
	BYTE		        40*seq_068_mvl/mxv
	BYTE	W06
	BYTE		        38*seq_068_mvl/mxv
	BYTE	W06
	BYTE		        35*seq_068_mvl/mxv
	BYTE	W06
	BYTE		        33*seq_068_mvl/mxv
	BYTE	W06
	BYTE		        30*seq_068_mvl/mxv
	BYTE	W06
	BYTE		        28*seq_068_mvl/mxv
	BYTE	W06
	BYTE		        26*seq_068_mvl/mxv
	BYTE	W06
	BYTE		        22*seq_068_mvl/mxv
	BYTE	W06
	BYTE		        20*seq_068_mvl/mxv
	BYTE	W06
	BYTE		        17*seq_068_mvl/mxv
	BYTE	W06
	BYTE		        14*seq_068_mvl/mxv
	BYTE	W06
	BYTE		        12*seq_068_mvl/mxv
	BYTE	W06
	BYTE		        7*seq_068_mvl/mxv
	BYTE	W06
	BYTE		        3*seq_068_mvl/mxv
	BYTE	W06
	BYTE		        0*seq_068_mvl/mxv
	BYTE	W06
	BYTE		EOT
	BYTE	W03
	BYTE	W03
	BYTE	W96
	BYTE	W96
	BYTE	W96
	BYTE	W96
	BYTE	W96
	BYTE	W96
	BYTE	W96
	BYTE	W96
	BYTE	W96
	BYTE	W96
	BYTE	W92
	BYTE		PAN     c_v+21
	BYTE	W01
	BYTE		VOL     18*seq_068_mvl/mxv
	BYTE	W03
	BYTE		N96     Gn2   v112
	BYTE	W09
	BYTE		VOL     18*seq_068_mvl/mxv
	BYTE	W03
	BYTE		        19*seq_068_mvl/mxv
	BYTE	W03
	BYTE		        20*seq_068_mvl/mxv
	BYTE	W03
	BYTE		        22*seq_068_mvl/mxv
	BYTE	W03
	BYTE		        24*seq_068_mvl/mxv
	BYTE	W03
	BYTE		        26*seq_068_mvl/mxv
	BYTE	W03
	BYTE		        30*seq_068_mvl/mxv
	BYTE	W03
	BYTE		        34*seq_068_mvl/mxv
	BYTE	W03
	BYTE		        38*seq_068_mvl/mxv
	BYTE	W03
	BYTE		        44*seq_068_mvl/mxv
	BYTE	W03
	BYTE		        49*seq_068_mvl/mxv
	BYTE	W03
	BYTE		        56*seq_068_mvl/mxv
	BYTE	W03
	BYTE		        62*seq_068_mvl/mxv
	BYTE	W03
	BYTE		        69*seq_068_mvl/mxv
	BYTE	W03
	BYTE		        73*seq_068_mvl/mxv
	BYTE	W18
	BYTE		        72*seq_068_mvl/mxv
	BYTE	W06
	BYTE		        71*seq_068_mvl/mxv
	BYTE	W03
	BYTE		        70*seq_068_mvl/mxv
	BYTE	W03
	BYTE		        70*seq_068_mvl/mxv
	BYTE	W03
	BYTE		        68*seq_068_mvl/mxv
	BYTE	W01
	BYTE		        67*seq_068_mvl/mxv
	BYTE	W02
	BYTE		        66*seq_068_mvl/mxv
	BYTE	W01
	BYTE		        64*seq_068_mvl/mxv
	BYTE	W02
	BYTE		        61*seq_068_mvl/mxv
	BYTE	W01
	BYTE		        58*seq_068_mvl/mxv
	BYTE	W02
	BYTE		        53*seq_068_mvl/mxv
	BYTE	W01
	BYTE		        48*seq_068_mvl/mxv
	BYTE	W02
	BYTE		        76*seq_068_mvl/mxv
	BYTE		N05     Cn3   v120
	BYTE	W06
	BYTE		        Cn3   v028
	BYTE	W06
	BYTE		        Gn2   v112
	BYTE	W06
	BYTE		        Gn2   v028
	BYTE	W06
	BYTE		        Cs3   v116
	BYTE	W06
	BYTE		        Cs3   v028
	BYTE	W06
	BYTE		        As2   v108
	BYTE	W06
	BYTE		        As2   v028
	BYTE	W06
	BYTE		        Cn3   v124
	BYTE	W06
	BYTE		        Cn3   v028
	BYTE	W06
	BYTE		        Fn2   v116
	BYTE	W06
	BYTE		        Fn2   v028
	BYTE	W06
	BYTE		        Gs2   v120
	BYTE	W06
	BYTE		        Gs2   v028
	BYTE	W06
	BYTE		        Cs3   v116
	BYTE	W06
	BYTE		        Cs3   v028
	BYTE	W06
	BYTE		N05     Cn3   v112
	BYTE	W06
	BYTE		        Cn3   v028
	BYTE	W06
	BYTE		        Gn2   v108
	BYTE	W06
	BYTE		        Gn2   v028
	BYTE	W06
	BYTE		        Cs3   v108
	BYTE	W06
	BYTE		        Cs3   v028
	BYTE	W06
	BYTE		        As2   v104
	BYTE	W06
	BYTE		        As2   v028
	BYTE	W06
	BYTE		        Cn3   v116
	BYTE	W06
	BYTE		        Cn3   v028
	BYTE	W06
	BYTE		        Fn2   v108
	BYTE	W06
	BYTE		        Fn2   v028
	BYTE	W06
	BYTE		        Gs2   v112
	BYTE	W06
	BYTE		        Gs2   v028
	BYTE	W06
	BYTE		        Cs3   v108
	BYTE	W06
	BYTE		        Cs3   v028
	BYTE	W06
	BYTE	PEND
	BYTE		N05     Cn3   v120
	BYTE	W06
	BYTE		        Cn3   v028
	BYTE	W06
	BYTE		        Gn2   v112
	BYTE	W06
	BYTE		        Gn2   v028
	BYTE	W06
	BYTE		        Cs3   v116
	BYTE	W06
	BYTE		        Cs3   v028
	BYTE	W06
	BYTE		        As2   v108
	BYTE	W06
	BYTE		        As2   v028
	BYTE	W06
	BYTE		        Cn3   v124
	BYTE	W06
	BYTE		        Cn3   v028
	BYTE	W06
	BYTE		        Fn2   v116
	BYTE	W06
	BYTE		        Fn2   v028
	BYTE	W06
	BYTE		        Gs2   v120
	BYTE	W06
	BYTE		        Gs2   v028
	BYTE	W06
	BYTE		        Cs3   v116
	BYTE	W06
	BYTE		        Cs3   v028
	BYTE	W06
	BYTE	PEND
	BYTE	PATT
	 POIN2	seq_068_4 + 0x452
	BYTE	PATT
	 POIN2	seq_068_4 + 0x484
	BYTE	PATT
	 POIN2	seq_068_4 + 0x452
	BYTE	PATT
	 POIN2	seq_068_4 + 0x484
	BYTE	PATT
	 POIN2	seq_068_4 + 0x452
	BYTE	PATT
	 POIN2	seq_068_4 + 0x484
	BYTE	PATT
	 POIN2	seq_068_4 + 0x452
	BYTE	PATT
	 POIN2	seq_068_4 + 0x484
	BYTE	PATT
	 POIN2	seq_068_4 + 0x452
	BYTE	PATT
	 POIN2	seq_068_4 + 0x484
	BYTE	PATT
	 POIN2	seq_068_4 + 0x452
	BYTE	PATT
	 POIN2	seq_068_4 + 0x484
	BYTE	PATT
	 POIN2	seq_068_4 + 0x452
	BYTE		VOL     73*seq_068_mvl/mxv
	BYTE		N23     Ds3   v104
	BYTE	W24
	BYTE		N05
	BYTE	W08
	BYTE		        Ds3   v092
	BYTE	W08
	BYTE		N05
	BYTE	W08
	BYTE		N07     Ds3   v104
	BYTE	W08
	BYTE		N06     Ds3   v032
	BYTE	W08
	BYTE		        Ds3   v020
	BYTE	W08
	BYTE		N07     Ds3   v096
	BYTE	W08
	BYTE		N06     Ds3   v032
	BYTE	W08
	BYTE		        Ds3   v020
	BYTE	W08
	BYTE		N44     Gs3   v100
	BYTE	W48
	BYTE		N23     Gs3   v096
	BYTE	W24
	BYTE		        Gs3   v088
	BYTE	W24
	BYTE		N68     Fs3   v092
	BYTE	W72
	BYTE		N23     Fs3   v084
	BYTE	W24
	BYTE		N92     Fs3   v088
	BYTE	W44
	BYTE	W01
	BYTE		VOL     72*seq_068_mvl/mxv
	BYTE	W06
	BYTE		        71*seq_068_mvl/mxv
	BYTE	W03
	BYTE		        70*seq_068_mvl/mxv
	BYTE	W03
	BYTE		        70*seq_068_mvl/mxv
	BYTE	W03
	BYTE		        68*seq_068_mvl/mxv
	BYTE	W03
	BYTE		        67*seq_068_mvl/mxv
	BYTE	W03
	BYTE		        66*seq_068_mvl/mxv
	BYTE	W03
	BYTE		        64*seq_068_mvl/mxv
	BYTE	W03
	BYTE		        62*seq_068_mvl/mxv
	BYTE	W03
	BYTE		        59*seq_068_mvl/mxv
	BYTE	W03
	BYTE		        56*seq_068_mvl/mxv
	BYTE	W03
	BYTE		        54*seq_068_mvl/mxv
	BYTE	W03
	BYTE		        50*seq_068_mvl/mxv
	BYTE	W03
	BYTE		        47*seq_068_mvl/mxv
	BYTE	W03
	BYTE		        44*seq_068_mvl/mxv
	BYTE	W03
	BYTE		        41*seq_068_mvl/mxv
	BYTE	W03
	BYTE		        73*seq_068_mvl/mxv
	BYTE		N44     Ds3 
	BYTE	W48
	BYTE		N23     Ds3   v092
	BYTE	W24
	BYTE		N24     Ds3   v088
	BYTE	W24
	BYTE		N44     Bn2   v092
	BYTE	W48
	BYTE		N23     Bn2   v096
	BYTE	W24
	BYTE		N24     Bn2   v100
	BYTE	W24
	BYTE		N96     Cn3   v096
	BYTE	W15
	BYTE		VOL     74*seq_068_mvl/mxv
	BYTE	W12
	BYTE		        74*seq_068_mvl/mxv
	BYTE	W03
	BYTE		        75*seq_068_mvl/mxv
	BYTE	W06
	BYTE		        76*seq_068_mvl/mxv
	BYTE	W03
	BYTE		        76*seq_068_mvl/mxv
	BYTE	W06
	BYTE		        77*seq_068_mvl/mxv
	BYTE	W03
	BYTE		        78*seq_068_mvl/mxv
	BYTE	W03
	BYTE		        79*seq_068_mvl/mxv
	BYTE	W03
	BYTE		        80*seq_068_mvl/mxv
	BYTE	W09
	BYTE		        79*seq_068_mvl/mxv
	BYTE	W03
	BYTE		        78*seq_068_mvl/mxv
	BYTE	W03
	BYTE		        77*seq_068_mvl/mxv
	BYTE	W03
	BYTE		        76*seq_068_mvl/mxv
	BYTE	W03
	BYTE		        74*seq_068_mvl/mxv
	BYTE	W03
	BYTE		        72*seq_068_mvl/mxv
	BYTE	W03
	BYTE		        69*seq_068_mvl/mxv
	BYTE	W03
	BYTE		        66*seq_068_mvl/mxv
	BYTE	W03
	BYTE		        64*seq_068_mvl/mxv
	BYTE	W03
	BYTE		        60*seq_068_mvl/mxv
	BYTE	W03
	BYTE		        56*seq_068_mvl/mxv
	BYTE	W03
	BYTE		        73*seq_068_mvl/mxv
	BYTE		N96     Fn3   v092
	BYTE	W44
	BYTE	W01
	BYTE		VOL     72*seq_068_mvl/mxv
	BYTE	W06
	BYTE		        71*seq_068_mvl/mxv
	BYTE	W03
	BYTE		        70*seq_068_mvl/mxv
	BYTE	W03
	BYTE		        68*seq_068_mvl/mxv
	BYTE	W03
	BYTE		        67*seq_068_mvl/mxv
	BYTE	W03
	BYTE		        64*seq_068_mvl/mxv
	BYTE	W03
	BYTE		        62*seq_068_mvl/mxv
	BYTE	W03
	BYTE		        58*seq_068_mvl/mxv
	BYTE	W03
	BYTE		        54*seq_068_mvl/mxv
	BYTE	W03
	BYTE		        50*seq_068_mvl/mxv
	BYTE	W03
	BYTE		        46*seq_068_mvl/mxv
	BYTE	W03
	BYTE		        41*seq_068_mvl/mxv
	BYTE	W03
	BYTE		        36*seq_068_mvl/mxv
	BYTE	W03
	BYTE		        30*seq_068_mvl/mxv
	BYTE	W03
	BYTE		        23*seq_068_mvl/mxv
	BYTE	W03
	BYTE		        17*seq_068_mvl/mxv
	BYTE	W03
	BYTE		VOL     73*seq_068_mvl/mxv
	BYTE		N07     As2   v120
	BYTE	W08
	BYTE		N06     As2   v040
	BYTE	W08
	BYTE		        As2   v032
	BYTE	W08
	BYTE		N16     Fn2   v124
	BYTE	W16
	BYTE		N04     Gn2 
	BYTE	W04
	BYTE		        An2   v120
	BYTE	W04
	BYTE		N07     As2 
	BYTE	W08
	BYTE		N06     As2   v040
	BYTE	W08
	BYTE		        As2   v032
	BYTE	W08
	BYTE		N24     Fn2   v108
	BYTE	W12
	BYTE		VOL     71*seq_068_mvl/mxv
	BYTE	W03
	BYTE		        70*seq_068_mvl/mxv
	BYTE	W03
	BYTE		        66*seq_068_mvl/mxv
	BYTE	W03
	BYTE		        58*seq_068_mvl/mxv
	BYTE	W03
	BYTE	PEND
	BYTE		VOL     73*seq_068_mvl/mxv
	BYTE		N07     As2   v112
	BYTE	W08
	BYTE		N06     As2   v040
	BYTE	W08
	BYTE		        As2   v032
	BYTE	W08
	BYTE		N16     Gn2   v116
	BYTE	W16
	BYTE		N04     Gs2 
	BYTE	W04
	BYTE		        An2   v112
	BYTE	W04
	BYTE		N07     As2   v116
	BYTE	W08
	BYTE		N06     As2   v040
	BYTE	W08
	BYTE		        As2   v032
	BYTE	W08
	BYTE		N24     Gn2   v104
	BYTE	W12
	BYTE		VOL     71*seq_068_mvl/mxv
	BYTE	W03
	BYTE		        70*seq_068_mvl/mxv
	BYTE	W03
	BYTE		        66*seq_068_mvl/mxv
	BYTE	W03
	BYTE		        58*seq_068_mvl/mxv
	BYTE	W03
	BYTE	PEND
	BYTE	PATT
	 POIN2	seq_068_4 + 0x5BF
	BYTE	PATT
	 POIN2	seq_068_4 + 0x5EE
	BYTE		VOL     73*seq_068_mvl/mxv
	BYTE		N07     Cs3   v120
	BYTE	W08
	BYTE		N06     Cs3   v040
	BYTE	W08
	BYTE		        Cs3   v032
	BYTE	W08
	BYTE		N16     Gs2   v124
	BYTE	W16
	BYTE		N04     As2 
	BYTE	W04
	BYTE		        Cn3   v120
	BYTE	W04
	BYTE		N07     Cs3 
	BYTE	W08
	BYTE		N06     Cs3   v040
	BYTE	W08
	BYTE		        Cs3   v032
	BYTE	W08
	BYTE		N24     Gs2   v108
	BYTE	W12
	BYTE		VOL     71*seq_068_mvl/mxv
	BYTE	W03
	BYTE		        70*seq_068_mvl/mxv
	BYTE	W03
	BYTE		        66*seq_068_mvl/mxv
	BYTE	W03
	BYTE		        58*seq_068_mvl/mxv
	BYTE	W03
	BYTE	PEND
	BYTE		VOL     73*seq_068_mvl/mxv
	BYTE		N07     Ds3   v112
	BYTE	W08
	BYTE		N06     Ds3   v040
	BYTE	W08
	BYTE		        Ds3   v032
	BYTE	W08
	BYTE		N16     As2   v116
	BYTE	W16
	BYTE		N04     Cn3 
	BYTE	W04
	BYTE		        Dn3   v112
	BYTE	W04
	BYTE		N07     Ds3   v116
	BYTE	W08
	BYTE		N06     Ds3   v040
	BYTE	W08
	BYTE		        Ds3   v032
	BYTE	W08
	BYTE		N24     As2   v104
	BYTE	W12
	BYTE		VOL     71*seq_068_mvl/mxv
	BYTE	W03
	BYTE		        70*seq_068_mvl/mxv
	BYTE	W03
	BYTE		        66*seq_068_mvl/mxv
	BYTE	W03
	BYTE		        58*seq_068_mvl/mxv
	BYTE	W03
	BYTE	PEND
	BYTE	PATT
	 POIN2	seq_068_4 + 0x628
	BYTE		VOL     73*seq_068_mvl/mxv
	BYTE		N07     Ds3   v112
	BYTE	W08
	BYTE		N06     Ds3   v040
	BYTE	W08
	BYTE		        Ds3   v032
	BYTE	W08
	BYTE		N16     As2   v116
	BYTE	W16
	BYTE		N04     Cn3 
	BYTE	W04
	BYTE		        Dn3   v112
	BYTE	W04
	BYTE		N07     Ds3   v116
	BYTE	W08
	BYTE		N06     Ds3   v040
	BYTE	W08
	BYTE		        Ds3   v032
	BYTE	W08
	BYTE		N24     Gn2   v108
	BYTE	W12
	BYTE		VOL     71*seq_068_mvl/mxv
	BYTE	W03
	BYTE		        70*seq_068_mvl/mxv
	BYTE	W03
	BYTE		        66*seq_068_mvl/mxv
	BYTE	W03
	BYTE		        58*seq_068_mvl/mxv
	BYTE	W03
	BYTE	PEND
	BYTE	PATT
	 POIN2	seq_068_4 + 0x5BF
	BYTE	PATT
	 POIN2	seq_068_4 + 0x5EE
	BYTE	PATT
	 POIN2	seq_068_4 + 0x5BF
	BYTE	PATT
	 POIN2	seq_068_4 + 0x5EE
	BYTE	PATT
	 POIN2	seq_068_4 + 0x628
	BYTE	PATT
	 POIN2	seq_068_4 + 0x657
	BYTE		VOL     73*seq_068_mvl/mxv
	BYTE		N07     Fn3   v120
	BYTE	W08
	BYTE		N06     Fn3   v040
	BYTE	W08
	BYTE		        Fn3   v032
	BYTE	W08
	BYTE		N16     Cn3   v124
	BYTE	W16
	BYTE		N04     Dn3 
	BYTE	W04
	BYTE		        En3   v120
	BYTE	W04
	BYTE		N07     Fn3 
	BYTE	W08
	BYTE		N06     Fn3   v040
	BYTE	W08
	BYTE		        Fn3   v032
	BYTE	W08
	BYTE		N24     Cn3   v108
	BYTE	W12
	BYTE		VOL     71*seq_068_mvl/mxv
	BYTE	W03
	BYTE		        70*seq_068_mvl/mxv
	BYTE	W03
	BYTE		        66*seq_068_mvl/mxv
	BYTE	W03
	BYTE		        58*seq_068_mvl/mxv
	BYTE	W03
	BYTE	PEND
	BYTE		VOL     73*seq_068_mvl/mxv
	BYTE		N07     Fn2   v120
	BYTE	W08
	BYTE		N06     Fn2   v040
	BYTE	W08
	BYTE		        Fn2   v032
	BYTE	W08
	BYTE		N16     Cn3   v116
	BYTE	W16
	BYTE		N04     Dn3 
	BYTE	W04
	BYTE		        En3   v112
	BYTE	W04
	BYTE		N07     Fn3   v116
	BYTE	W08
	BYTE		N06     Fn3   v040
	BYTE	W08
	BYTE		        Fn3   v032
	BYTE	W08
	BYTE		N24     Cn3   v104
	BYTE	W12
	BYTE		VOL     71*seq_068_mvl/mxv
	BYTE	W03
	BYTE		        70*seq_068_mvl/mxv
	BYTE	W03
	BYTE		        66*seq_068_mvl/mxv
	BYTE	W03
	BYTE		        58*seq_068_mvl/mxv
	BYTE	W03
	BYTE	PEND
	BYTE		VOL     73*seq_068_mvl/mxv
	BYTE		TIE     Cs3   v096
	BYTE	W06
	BYTE		VOL     74*seq_068_mvl/mxv
	BYTE	W30
	BYTE		        74*seq_068_mvl/mxv
	BYTE	W12
	BYTE		        75*seq_068_mvl/mxv
	BYTE	W18
	BYTE		        76*seq_068_mvl/mxv
	BYTE	W06
	BYTE		        76*seq_068_mvl/mxv
	BYTE	W12
	BYTE		        77*seq_068_mvl/mxv
	BYTE	W06
	BYTE		        78*seq_068_mvl/mxv
	BYTE	W06
	BYTE	PEND
	BYTE		VOL     78*seq_068_mvl/mxv
	BYTE	W06
	BYTE		        78*seq_068_mvl/mxv
	BYTE	W12
	BYTE		        77*seq_068_mvl/mxv
	BYTE	W06
	BYTE		        76*seq_068_mvl/mxv
	BYTE	W06
	BYTE		        74*seq_068_mvl/mxv
	BYTE	W06
	BYTE		        72*seq_068_mvl/mxv
	BYTE	W06
	BYTE		        68*seq_068_mvl/mxv
	BYTE	W06
	BYTE		        65*seq_068_mvl/mxv
	BYTE	W06
	BYTE		        62*seq_068_mvl/mxv
	BYTE	W06
	BYTE		        57*seq_068_mvl/mxv
	BYTE	W06
	BYTE		        52*seq_068_mvl/mxv
	BYTE	W06
	BYTE		        47*seq_068_mvl/mxv
	BYTE	W06
	BYTE		        41*seq_068_mvl/mxv
	BYTE	W06
	BYTE		        34*seq_068_mvl/mxv
	BYTE	W06
	BYTE		        28*seq_068_mvl/mxv
	BYTE	W06
	BYTE	PEND
	BYTE		EOT     Cs3 
	BYTE		VOL     73*seq_068_mvl/mxv
	BYTE		TIE     Bn2   v104
	BYTE	W06
	BYTE		VOL     74*seq_068_mvl/mxv
	BYTE	W30
	BYTE		        74*seq_068_mvl/mxv
	BYTE	W12
	BYTE		        75*seq_068_mvl/mxv
	BYTE	W18
	BYTE		        76*seq_068_mvl/mxv
	BYTE	W06
	BYTE		        76*seq_068_mvl/mxv
	BYTE	W12
	BYTE		        77*seq_068_mvl/mxv
	BYTE	W06
	BYTE		        78*seq_068_mvl/mxv
	BYTE	W06
	BYTE	PEND
	BYTE	PATT
	 POIN2	seq_068_4 + 0x74F
	BYTE		EOT     Bn2 
	BYTE	W18
	BYTE		VOL     73*seq_068_mvl/mxv
	BYTE	W06
	BYTE		N23     An2   v108
	BYTE	W24
	BYTE		N05     An2   v028
	BYTE	W06
	BYTE		        An2   v016
	BYTE	W06
	BYTE		        An2   v008
	BYTE	W12
	BYTE		N23     An2   v104
	BYTE	W24
	BYTE	PEND
	BYTE		N05     An2   v028
	BYTE	W06
	BYTE		        An2   v016
	BYTE	W06
	BYTE		        An2   v008
	BYTE	W12
	BYTE		N23     An2   v108
	BYTE	W24
	BYTE		N05     An2   v028
	BYTE	W06
	BYTE		        An2   v016
	BYTE	W06
	BYTE		        An2   v008
	BYTE	W12
	BYTE		N23     An2   v108
	BYTE	W24
	BYTE	PEND
	BYTE		N05     An2   v028
	BYTE	W06
	BYTE		        An2   v016
	BYTE	W06
	BYTE		        An2   v008
	BYTE	W12
	BYTE		N23     Ds3   v108
	BYTE	W24
	BYTE		N05     Ds3   v028
	BYTE	W06
	BYTE		        Ds3   v016
	BYTE	W06
	BYTE		        Ds3   v008
	BYTE	W12
	BYTE		N23     Ds3   v100
	BYTE	W24
	BYTE	PEND
	BYTE		N05     Ds3   v028
	BYTE	W06
	BYTE		        Ds3   v016
	BYTE	W06
	BYTE		        Ds3   v008
	BYTE	W12
	BYTE		N23     Ds3   v108
	BYTE	W24
	BYTE		N05     Ds3   v028
	BYTE	W06
	BYTE		        Ds3   v016
	BYTE	W06
	BYTE		        Ds3   v008
	BYTE	W12
	BYTE		N23     Ds3   v104
	BYTE	W24
	BYTE	PEND
	BYTE		N05     Ds3   v028
	BYTE	W06
	BYTE		        Ds3   v016
	BYTE	W06
	BYTE		        Ds3   v008
	BYTE	W12
	BYTE		        Fs3   v100
	BYTE	W08
	BYTE		N04     Fs3   v092
	BYTE	W08
	BYTE		        Fs3   v084
	BYTE	W08
	BYTE		N44
	BYTE	W06
	BYTE		VOL     74*seq_068_mvl/mxv
	BYTE	W03
	BYTE		        74*seq_068_mvl/mxv
	BYTE	W06
	BYTE		        75*seq_068_mvl/mxv
	BYTE	W06
	BYTE		        76*seq_068_mvl/mxv
	BYTE	W06
	BYTE		        77*seq_068_mvl/mxv
	BYTE	W03
	BYTE		        76*seq_068_mvl/mxv
	BYTE	W06
	BYTE		        76*seq_068_mvl/mxv
	BYTE	W03
	BYTE		        74*seq_068_mvl/mxv
	BYTE	W03
	BYTE		        74*seq_068_mvl/mxv
	BYTE	W03
	BYTE		        73*seq_068_mvl/mxv
	BYTE	W03
	BYTE	PEND
	BYTE		N05     Fs3   v028
	BYTE	W06
	BYTE		        Fs3   v016
	BYTE	W06
	BYTE		        Fs3   v008
	BYTE	W12
	BYTE		        Ds3   v108
	BYTE	W08
	BYTE		N04     Ds3   v096
	BYTE	W08
	BYTE		        Ds3   v088
	BYTE	W08
	BYTE		N44
	BYTE	W06
	BYTE		VOL     74*seq_068_mvl/mxv
	BYTE	W03
	BYTE		        74*seq_068_mvl/mxv
	BYTE	W06
	BYTE		        75*seq_068_mvl/mxv
	BYTE	W06
	BYTE		        76*seq_068_mvl/mxv
	BYTE	W06
	BYTE		        77*seq_068_mvl/mxv
	BYTE	W03
	BYTE		        76*seq_068_mvl/mxv
	BYTE	W06
	BYTE		        76*seq_068_mvl/mxv
	BYTE	W03
	BYTE		        74*seq_068_mvl/mxv
	BYTE	W03
	BYTE		        74*seq_068_mvl/mxv
	BYTE	W03
	BYTE		        73*seq_068_mvl/mxv
	BYTE	W03
	BYTE	PEND
	BYTE		N05     Ds3   v028
	BYTE	W06
	BYTE		        Ds3   v016
	BYTE	W06
	BYTE		        Ds3   v008
	BYTE	W12
	BYTE		        Cn3   v108
	BYTE	W08
	BYTE		N04     Cn3   v096
	BYTE	W08
	BYTE		        Cn3   v088
	BYTE	W08
	BYTE		N48
	BYTE	W06
	BYTE		VOL     74*seq_068_mvl/mxv
	BYTE	W03
	BYTE		        74*seq_068_mvl/mxv
	BYTE	W06
	BYTE		        75*seq_068_mvl/mxv
	BYTE	W06
	BYTE		        76*seq_068_mvl/mxv
	BYTE	W06
	BYTE		        77*seq_068_mvl/mxv
	BYTE	W03
	BYTE		        76*seq_068_mvl/mxv
	BYTE	W06
	BYTE		        76*seq_068_mvl/mxv
	BYTE	W03
	BYTE		        74*seq_068_mvl/mxv
	BYTE	W03
	BYTE		        74*seq_068_mvl/mxv
	BYTE	W03
	BYTE		        73*seq_068_mvl/mxv
	BYTE	W03
	BYTE	PEND
	BYTE		N24     Fn3   v088
	BYTE	W24
	BYTE		        Cn3 
	BYTE	W24
	BYTE		        Fn3 
	BYTE	W24
	BYTE		        Cn3   v092
	BYTE	W24
	BYTE	PEND
	BYTE		N07     As2   v120
	BYTE	W08
	BYTE		N06     As2   v040
	BYTE	W08
	BYTE		        As2   v032
	BYTE	W08
	BYTE		N16     Fn2   v124
	BYTE	W16
	BYTE		N04     Gn2 
	BYTE	W04
	BYTE		        An2   v120
	BYTE	W04
	BYTE		N07     As2 
	BYTE	W08
	BYTE		N06     As2   v040
	BYTE	W08
	BYTE		        As2   v032
	BYTE	W08
	BYTE		N24     Fn2   v108
	BYTE	W12
	BYTE		VOL     71*seq_068_mvl/mxv
	BYTE	W03
	BYTE		        70*seq_068_mvl/mxv
	BYTE	W03
	BYTE		        66*seq_068_mvl/mxv
	BYTE	W03
	BYTE		        58*seq_068_mvl/mxv
	BYTE	W03
	BYTE	PATT
	 POIN2	seq_068_4 + 0x5EE
	BYTE	PATT
	 POIN2	seq_068_4 + 0x5BF
	BYTE	PATT
	 POIN2	seq_068_4 + 0x5EE
	BYTE	PATT
	 POIN2	seq_068_4 + 0x628
	BYTE	PATT
	 POIN2	seq_068_4 + 0x657
	BYTE	PATT
	 POIN2	seq_068_4 + 0x628
	BYTE	PATT
	 POIN2	seq_068_4 + 0x68C
	BYTE	PATT
	 POIN2	seq_068_4 + 0x5BF
	BYTE	PATT
	 POIN2	seq_068_4 + 0x5EE
	BYTE	PATT
	 POIN2	seq_068_4 + 0x5BF
	BYTE	PATT
	 POIN2	seq_068_4 + 0x5EE
	BYTE	PATT
	 POIN2	seq_068_4 + 0x628
	BYTE	PATT
	 POIN2	seq_068_4 + 0x657
	BYTE	PATT
	 POIN2	seq_068_4 + 0x6DA
	BYTE	PATT
	 POIN2	seq_068_4 + 0x709
	BYTE	PATT
	 POIN2	seq_068_4 + 0x739
	BYTE	PATT
	 POIN2	seq_068_4 + 0x74F
	BYTE		EOT     Cs3 
	BYTE	PATT
	 POIN2	seq_068_4 + 0x771
	BYTE	PATT
	 POIN2	seq_068_4 + 0x74F
	BYTE		EOT     Bn2 
	BYTE	PATT
	 POIN2	seq_068_4 + 0x78E
	BYTE	PATT
	 POIN2	seq_068_4 + 0x7A5
	BYTE	PATT
	 POIN2	seq_068_4 + 0x7C2
	BYTE	PATT
	 POIN2	seq_068_4 + 0x7DF
	BYTE	PATT
	 POIN2	seq_068_4 + 0x7FC
	BYTE	PATT
	 POIN2	seq_068_4 + 0x828
	BYTE	PATT
	 POIN2	seq_068_4 + 0x854
	BYTE	PATT
	 POIN2	seq_068_4 + 0x880
	BYTE	PATT
	 POIN2	seq_068_4 + 0x5BF
	BYTE	PATT
	 POIN2	seq_068_4 + 0x5EE
	BYTE	PATT
	 POIN2	seq_068_4 + 0x5BF
	BYTE	PATT
	 POIN2	seq_068_4 + 0x5EE
	BYTE	PATT
	 POIN2	seq_068_4 + 0x628
	BYTE	PATT
	 POIN2	seq_068_4 + 0x657
	BYTE	PATT
	 POIN2	seq_068_4 + 0x628
	BYTE	PATT
	 POIN2	seq_068_4 + 0x68C
	BYTE	PATT
	 POIN2	seq_068_4 + 0x5BF
	BYTE	PATT
	 POIN2	seq_068_4 + 0x5EE
	BYTE	PATT
	 POIN2	seq_068_4 + 0x5BF
	BYTE	PATT
	 POIN2	seq_068_4 + 0x5EE
	BYTE	PATT
	 POIN2	seq_068_4 + 0x628
	BYTE	PATT
	 POIN2	seq_068_4 + 0x657
	BYTE	PATT
	 POIN2	seq_068_4 + 0x6DA
	BYTE	PATT
	 POIN2	seq_068_4 + 0x709
	BYTE	PATT
	 POIN2	seq_068_4 + 0x739
	BYTE	PATT
	 POIN2	seq_068_4 + 0x74F
	BYTE		EOT     Cs3 
	BYTE	PATT
	 POIN2	seq_068_4 + 0x771
	BYTE	PATT
	 POIN2	seq_068_4 + 0x74F
	BYTE		EOT     Bn2 
	BYTE	PATT
	 POIN2	seq_068_4 + 0x78E
	BYTE	PATT
	 POIN2	seq_068_4 + 0x7A5
	BYTE	PATT
	 POIN2	seq_068_4 + 0x7C2
	BYTE	PATT
	 POIN2	seq_068_4 + 0x7DF
	BYTE	PATT
	 POIN2	seq_068_4 + 0x7FC
	BYTE	PATT
	 POIN2	seq_068_4 + 0x828
	BYTE	PATT
	 POIN2	seq_068_4 + 0x854
	BYTE	PATT
	 POIN2	seq_068_4 + 0x880
	BYTE	PATT
	 POIN2	seq_068_4 + 0x5BF
	BYTE	PATT
	 POIN2	seq_068_4 + 0x5EE
	BYTE	PATT
	 POIN2	seq_068_4 + 0x5BF
	BYTE	PATT
	 POIN2	seq_068_4 + 0x5EE
	BYTE	PATT
	 POIN2	seq_068_4 + 0x628
	BYTE	PATT
	 POIN2	seq_068_4 + 0x657
	BYTE	PATT
	 POIN2	seq_068_4 + 0x628
	BYTE	PATT
	 POIN2	seq_068_4 + 0x68C
	BYTE	PATT
	 POIN2	seq_068_4 + 0x5BF
	BYTE	PATT
	 POIN2	seq_068_4 + 0x5EE
	BYTE	PATT
	 POIN2	seq_068_4 + 0x5BF
	BYTE	PATT
	 POIN2	seq_068_4 + 0x5EE
	BYTE	PATT
	 POIN2	seq_068_4 + 0x628
	BYTE	PATT
	 POIN2	seq_068_4 + 0x657
	BYTE	PATT
	 POIN2	seq_068_4 + 0x6DA
	BYTE	PATT
	 POIN2	seq_068_4 + 0x709
	BYTE	W96
	BYTE		VOL     73*seq_068_mvl/mxv
	BYTE	W96
	BYTE		TIE     As2   v096
	BYTE	W24
	BYTE		VOL     74*seq_068_mvl/mxv
	BYTE	W30
	BYTE		        74*seq_068_mvl/mxv
	BYTE	W06
	BYTE		        75*seq_068_mvl/mxv
	BYTE	W12
	BYTE		        76*seq_068_mvl/mxv
	BYTE	W12
	BYTE		        76*seq_068_mvl/mxv
	BYTE	W06
	BYTE		        77*seq_068_mvl/mxv
	BYTE	W06
	BYTE		VOL     78*seq_068_mvl/mxv
	BYTE	W06
	BYTE		        77*seq_068_mvl/mxv
	BYTE	W12
	BYTE		        76*seq_068_mvl/mxv
	BYTE	W06
	BYTE		        76*seq_068_mvl/mxv
	BYTE	W06
	BYTE		        75*seq_068_mvl/mxv
	BYTE	W06
	BYTE		        74*seq_068_mvl/mxv
	BYTE	W06
	BYTE		        72*seq_068_mvl/mxv
	BYTE	W06
	BYTE		        71*seq_068_mvl/mxv
	BYTE	W06
	BYTE		        70*seq_068_mvl/mxv
	BYTE	W06
	BYTE		        68*seq_068_mvl/mxv
	BYTE	W06
	BYTE		        65*seq_068_mvl/mxv
	BYTE	W06
	BYTE		        63*seq_068_mvl/mxv
	BYTE	W06
	BYTE		        60*seq_068_mvl/mxv
	BYTE	W06
	BYTE		        57*seq_068_mvl/mxv
	BYTE	W06
	BYTE		        54*seq_068_mvl/mxv
	BYTE	W05
	BYTE	PEND
	BYTE		EOT     As2 
	BYTE	W01
	BYTE		VOL     73*seq_068_mvl/mxv
	BYTE		TIE     As2   v100
	BYTE	W24
	BYTE		VOL     74*seq_068_mvl/mxv
	BYTE	W30
	BYTE		        74*seq_068_mvl/mxv
	BYTE	W06
	BYTE		        75*seq_068_mvl/mxv
	BYTE	W12
	BYTE		        76*seq_068_mvl/mxv
	BYTE	W12
	BYTE		        76*seq_068_mvl/mxv
	BYTE	W06
	BYTE		        77*seq_068_mvl/mxv
	BYTE	W06
	BYTE	PEND
	BYTE	PATT
	 POIN2	seq_068_4 + 0xA38
	BYTE		EOT     As2 
	BYTE	W01
	BYTE	PATT
	 POIN2	seq_068_4 + 0xA5B
	BYTE	PATT
	 POIN2	seq_068_4 + 0xA38
	BYTE		EOT     As2 
	BYTE	W01
	BYTE		VOL     73*seq_068_mvl/mxv
	BYTE		TIE     As2   v104
	BYTE	W24
	BYTE		VOL     74*seq_068_mvl/mxv
	BYTE	W30
	BYTE		        74*seq_068_mvl/mxv
	BYTE	W06
	BYTE		        75*seq_068_mvl/mxv
	BYTE	W12
	BYTE		        76*seq_068_mvl/mxv
	BYTE	W12
	BYTE		        76*seq_068_mvl/mxv
	BYTE	W06
	BYTE		        77*seq_068_mvl/mxv
	BYTE	W06
	BYTE	PEND
	BYTE	PATT
	 POIN2	seq_068_4 + 0xA38
	BYTE		EOT     As2 
	BYTE	W01
	BYTE	PATT
	 POIN2	seq_068_4 + 0xA5B
	BYTE	PATT
	 POIN2	seq_068_4 + 0xA38
	BYTE		EOT     As2 
	BYTE	W01
	BYTE	PATT
	 POIN2	seq_068_4 + 0xA84
	BYTE	PATT
	 POIN2	seq_068_4 + 0xA38
	BYTE		EOT     As2 
	BYTE	W01
	BYTE	PATT
	 POIN2	seq_068_4 + 0xA84
	BYTE	PATT
	 POIN2	seq_068_4 + 0xA38
	BYTE		EOT     As2 
	BYTE	W01
	BYTE		VOL     73*seq_068_mvl/mxv
	BYTE		TIE     As2   v108
	BYTE	W24
	BYTE		VOL     74*seq_068_mvl/mxv
	BYTE	W30
	BYTE		        74*seq_068_mvl/mxv
	BYTE	W06
	BYTE		        75*seq_068_mvl/mxv
	BYTE	W12
	BYTE		        76*seq_068_mvl/mxv
	BYTE	W12
	BYTE		        76*seq_068_mvl/mxv
	BYTE	W06
	BYTE		        77*seq_068_mvl/mxv
	BYTE	W06
	BYTE	PATT
	 POIN2	seq_068_4 + 0xA38
	BYTE		EOT     As2 
	BYTE	W01
	BYTE		VOL     73*seq_068_mvl/mxv
	BYTE		N10     As2   v104
	BYTE	W12
	BYTE		N08     As2   v096
	BYTE	W12
	BYTE		N06     As2   v032
	BYTE	W12
	BYTE		        As2   v020
	BYTE	W12
	BYTE		N10     As2   v108
	BYTE	W12
	BYTE		N08     As2   v100
	BYTE	W12
	BYTE		N06     As2   v032
	BYTE	W12
	BYTE		        As2   v020
	BYTE	W12
	BYTE		N10     As2   v112
	BYTE	W12
	BYTE		N08     As2   v104
	BYTE	W12
	BYTE		N06     As2   v032
	BYTE	W12
	BYTE		        As2   v020
	BYTE	W12
	BYTE		N10     As2   v120
	BYTE	W12
	BYTE		N08     As2   v108
	BYTE	W12
	BYTE		N06     As2   v032
	BYTE	W12
	BYTE		        As2   v020
	BYTE	W12
	BYTE	PEND
	BYTE		N10     Fs2   v108
	BYTE	W12
	BYTE		N08     Fs2   v100
	BYTE	W12
	BYTE		N06     Fs2   v032
	BYTE	W12
	BYTE		        Fs2   v020
	BYTE	W12
	BYTE		N10     Fs2   v112
	BYTE	W12
	BYTE		N08     Fs2   v104
	BYTE	W12
	BYTE		N06     Fs2   v032
	BYTE	W12
	BYTE		        Fs2   v020
	BYTE	W12
	BYTE	PEND
	BYTE		N10     Fs2   v120
	BYTE	W12
	BYTE		N08     Fs2   v108
	BYTE	W12
	BYTE		N06     Fs2   v032
	BYTE	W12
	BYTE		        Fs2   v020
	BYTE	W12
	BYTE		N24     Fs2   v108
	BYTE	W24
	BYTE		        Gs2   v112
	BYTE	W24
	BYTE	PEND
	BYTE		N10     As2   v104
	BYTE	W12
	BYTE		N08     As2   v096
	BYTE	W12
	BYTE		N06     As2   v032
	BYTE	W12
	BYTE		        As2   v020
	BYTE	W12
	BYTE		N10     As2   v108
	BYTE	W12
	BYTE		N08     As2   v100
	BYTE	W12
	BYTE		N06     As2   v032
	BYTE	W12
	BYTE		        As2   v020
	BYTE	W12
	BYTE	PATT
	 POIN2	seq_068_4 + 0xB02
	BYTE	PATT
	 POIN2	seq_068_4 + 0xB21
	BYTE	PATT
	 POIN2	seq_068_4 + 0xB40
	BYTE		TIE     As2   v104
	BYTE	W12
	BYTE		VOL     74*seq_068_mvl/mxv
	BYTE	W18
	BYTE		        74*seq_068_mvl/mxv
	BYTE	W06
	BYTE		        75*seq_068_mvl/mxv
	BYTE	W12
	BYTE		        76*seq_068_mvl/mxv
	BYTE	W06
	BYTE		        76*seq_068_mvl/mxv
	BYTE	W06
	BYTE		        77*seq_068_mvl/mxv
	BYTE	W06
	BYTE		        78*seq_068_mvl/mxv
	BYTE	W06
	BYTE		        80*seq_068_mvl/mxv
	BYTE	W18
	BYTE		        79*seq_068_mvl/mxv
	BYTE	W06
	BYTE		VOL     78*seq_068_mvl/mxv
	BYTE	W06
	BYTE		        76*seq_068_mvl/mxv
	BYTE	W06
	BYTE		        74*seq_068_mvl/mxv
	BYTE	W06
	BYTE		        71*seq_068_mvl/mxv
	BYTE	W06
	BYTE		        68*seq_068_mvl/mxv
	BYTE	W06
	BYTE		        65*seq_068_mvl/mxv
	BYTE	W06
	BYTE		        61*seq_068_mvl/mxv
	BYTE	W06
	BYTE		        56*seq_068_mvl/mxv
	BYTE	W06
	BYTE	PEND
	BYTE		EOT     As2 
	BYTE		VOL     73*seq_068_mvl/mxv
	BYTE		N24     Fs2   v100
	BYTE	W24
	BYTE		        Gs2   v108
	BYTE	W24
	BYTE		TIE     As2 
	BYTE	W12
	BYTE		VOL     74*seq_068_mvl/mxv
	BYTE	W18
	BYTE		        74*seq_068_mvl/mxv
	BYTE	W06
	BYTE		        75*seq_068_mvl/mxv
	BYTE	W12
	BYTE		        76*seq_068_mvl/mxv
	BYTE	W06
	BYTE		        76*seq_068_mvl/mxv
	BYTE	W06
	BYTE		        77*seq_068_mvl/mxv
	BYTE	W06
	BYTE		        78*seq_068_mvl/mxv
	BYTE	W06
	BYTE		        80*seq_068_mvl/mxv
	BYTE	W18
	BYTE		        79*seq_068_mvl/mxv
	BYTE	W06
	BYTE	PATT
	 POIN2	seq_068_4 + 0xB9B
	BYTE		EOT     As2 
	BYTE		VOL     73*seq_068_mvl/mxv
	BYTE		N24     Fs2   v108
	BYTE	W24
	BYTE		        Gs2   v112
	BYTE	W24
	BYTE		N23     As2   v108
	BYTE	W24
	BYTE		N23
	BYTE	W24
	BYTE		        As2   v112
	BYTE	W24
	BYTE		        As2   v116
	BYTE	W24
	BYTE		        As2   v108
	BYTE	W48
	BYTE		        As2   v104
	BYTE	W48
	BYTE		N48     As2   v112
	BYTE	W48
	BYTE		N48
	BYTE	W48
	BYTE		TIE     As2   v116
	BYTE	W06
	BYTE		VOL     74*seq_068_mvl/mxv
	BYTE	W12
	BYTE		        75*seq_068_mvl/mxv
	BYTE	W06
	BYTE		        76*seq_068_mvl/mxv
	BYTE	W06
	BYTE		        77*seq_068_mvl/mxv
	BYTE	W06
	BYTE		        79*seq_068_mvl/mxv
	BYTE	W36
	BYTE		        78*seq_068_mvl/mxv
	BYTE	W06
	BYTE		        77*seq_068_mvl/mxv
	BYTE	W06
	BYTE		        76*seq_068_mvl/mxv
	BYTE	W06
	BYTE		        75*seq_068_mvl/mxv
	BYTE	W06
	BYTE		        74*seq_068_mvl/mxv
	BYTE	W06
	BYTE		        71*seq_068_mvl/mxv
	BYTE	W06
	BYTE		        69*seq_068_mvl/mxv
	BYTE	W06
	BYTE		        67*seq_068_mvl/mxv
	BYTE	W06
	BYTE		        65*seq_068_mvl/mxv
	BYTE	W06
	BYTE		        63*seq_068_mvl/mxv
	BYTE	W06
	BYTE		        61*seq_068_mvl/mxv
	BYTE	W06
	BYTE		        58*seq_068_mvl/mxv
	BYTE	W06
	BYTE		        56*seq_068_mvl/mxv
	BYTE	W06
	BYTE		        54*seq_068_mvl/mxv
	BYTE	W06
	BYTE		        51*seq_068_mvl/mxv
	BYTE	W06
	BYTE		        48*seq_068_mvl/mxv
	BYTE	W06
	BYTE		        46*seq_068_mvl/mxv
	BYTE	W06
	BYTE		        43*seq_068_mvl/mxv
	BYTE	W06
	BYTE		        40*seq_068_mvl/mxv
	BYTE	W06
	BYTE		        38*seq_068_mvl/mxv
	BYTE	W06
	BYTE		        35*seq_068_mvl/mxv
	BYTE	W06
	BYTE		        32*seq_068_mvl/mxv
	BYTE	W06
	BYTE		        30*seq_068_mvl/mxv
	BYTE	W06
	BYTE		        27*seq_068_mvl/mxv
	BYTE	W06
	BYTE		        24*seq_068_mvl/mxv
	BYTE	W06
	BYTE		        22*seq_068_mvl/mxv
	BYTE	W06
	BYTE		        19*seq_068_mvl/mxv
	BYTE	W06
	BYTE		        16*seq_068_mvl/mxv
	BYTE	W06
	BYTE		        14*seq_068_mvl/mxv
	BYTE	W06
	BYTE		        13*seq_068_mvl/mxv
	BYTE	W06
	BYTE		        12*seq_068_mvl/mxv
	BYTE	W06
	BYTE		        12*seq_068_mvl/mxv
	BYTE	W06
	BYTE		        10*seq_068_mvl/mxv
	BYTE	W06
	BYTE		        10*seq_068_mvl/mxv
	BYTE	W06
	BYTE		        8*seq_068_mvl/mxv
	BYTE	W06
	BYTE		        8*seq_068_mvl/mxv
	BYTE	W06
	BYTE		        6*seq_068_mvl/mxv
	BYTE	W06
	BYTE		        6*seq_068_mvl/mxv
	BYTE	W06
	BYTE		        5*seq_068_mvl/mxv
	BYTE	W06
	BYTE		        4*seq_068_mvl/mxv
	BYTE	W06
	BYTE		        3*seq_068_mvl/mxv
	BYTE	W06
	BYTE		        2*seq_068_mvl/mxv
	BYTE	W06
	BYTE		        1*seq_068_mvl/mxv
	BYTE	W06
	BYTE		        0*seq_068_mvl/mxv
	BYTE	W06
	BYTE		EOT
	BYTE	FINE

//*********************** Track 06 ***********************//

seq_068_5:
	BYTE	KEYSH   seq_068_key+0
	BYTE	W03
	BYTE	W96
	BYTE	W96
	BYTE	W96
	BYTE	W92
	BYTE	W01
	BYTE		VOICE   43
	BYTE	W01
	BYTE		PAN     c_v+26
	BYTE	W01
	BYTE		VOL     73*seq_068_mvl/mxv
	BYTE	W01
	BYTE		TIE     Gn2   v100
	BYTE	W96
	BYTE	W24
	BYTE		VOL     72*seq_068_mvl/mxv
	BYTE	W06
	BYTE		        71*seq_068_mvl/mxv
	BYTE	W06
	BYTE		        68*seq_068_mvl/mxv
	BYTE	W06
	BYTE		        62*seq_068_mvl/mxv
	BYTE	W06
	BYTE		EOT
	BYTE		VOL     73*seq_068_mvl/mxv
	BYTE		N48     Cs2   v112
	BYTE	W48
	BYTE		TIE     Dn2   v104
	BYTE	W06
	BYTE		VOL     72*seq_068_mvl/mxv
	BYTE	W06
	BYTE		        69*seq_068_mvl/mxv
	BYTE	W30
	BYTE		        70*seq_068_mvl/mxv
	BYTE	W06
	BYTE		        70*seq_068_mvl/mxv
	BYTE	W06
	BYTE		        72*seq_068_mvl/mxv
	BYTE	W06
	BYTE		        73*seq_068_mvl/mxv
	BYTE	W06
	BYTE		        75*seq_068_mvl/mxv
	BYTE	W06
	BYTE		        76*seq_068_mvl/mxv
	BYTE	W06
	BYTE		        78*seq_068_mvl/mxv
	BYTE	W06
	BYTE		        80*seq_068_mvl/mxv
	BYTE	W12
	BYTE	W30
	BYTE		        78*seq_068_mvl/mxv
	BYTE	W12
	BYTE		        77*seq_068_mvl/mxv
	BYTE	W06
	BYTE		        76*seq_068_mvl/mxv
	BYTE	W06
	BYTE		        74*seq_068_mvl/mxv
	BYTE	W06
	BYTE		        70*seq_068_mvl/mxv
	BYTE	W06
	BYTE		        67*seq_068_mvl/mxv
	BYTE	W06
	BYTE		EOT
	BYTE		VOL     73*seq_068_mvl/mxv
	BYTE		N06     Dn3   v116
	BYTE	W06
	BYTE		        Cn3   v108
	BYTE	W06
	BYTE		        Bn2   v112
	BYTE	W06
	BYTE		        An2   v108
	BYTE	W06
	BYTE		N05     Gn2   v124
	BYTE	W06
	BYTE		N04     Gn2   v108
	BYTE	W06
	BYTE		N05     Gn2   v116
	BYTE	W06
	BYTE		N04     Gn2   v040
	BYTE	W06
	BYTE		        Gn2   v032
	BYTE	W06
	BYTE		        Gn2   v028
	BYTE	W06
	BYTE		N05     Gn2   v124
	BYTE	W06
	BYTE		N04     Gn2   v112
	BYTE	W06
	BYTE		N05     Gn2   v124
	BYTE	W06
	BYTE		N04     Gn2   v040
	BYTE	W06
	BYTE		N23     Gn2   v056
	BYTE	W24
	BYTE		N05     Gn2   v124
	BYTE	W06
	BYTE		N04     Gn2   v112
	BYTE	W06
	BYTE	PEND
	BYTE		N05     Gn2   v124
	BYTE	W06
	BYTE		N04     Gn2   v108
	BYTE	W06
	BYTE		N05     Gn2   v116
	BYTE	W06
	BYTE		N04     Gn2   v040
	BYTE	W06
	BYTE		        Gn2   v032
	BYTE	W06
	BYTE		        Gn2   v028
	BYTE	W06
	BYTE		N05     Gn2   v124
	BYTE	W06
	BYTE		N04     Gn2   v112
	BYTE	W06
	BYTE		N05     Gn2   v124
	BYTE	W06
	BYTE		N04     Gn2   v040
	BYTE	W06
	BYTE		N23     Gn2   v060
	BYTE	W24
	BYTE		N05     Gn2   v124
	BYTE	W06
	BYTE		N04     Gn2   v112
	BYTE	W06
	BYTE	PATT
	 POIN2	seq_068_5 + 0x5C
	BYTE		N05     Gn2   v124
	BYTE	W06
	BYTE		N04     Gn2   v116
	BYTE	W06
	BYTE		N05     Gn2   v120
	BYTE	W06
	BYTE		N04     Gn2   v040
	BYTE	W06
	BYTE		        Gn2   v032
	BYTE	W06
	BYTE		        Gn2   v028
	BYTE	W06
	BYTE		N05     Gn2   v127
	BYTE	W06
	BYTE		N04     Gn2   v120
	BYTE	W06
	BYTE		N05     Gn2   v127
	BYTE	W06
	BYTE		N04     Gn2   v040
	BYTE	W06
	BYTE		N23     Gn2   v068
	BYTE	W24
	BYTE		N05     Gn2   v127
	BYTE	W06
	BYTE		N04     Gn2   v124
	BYTE	W06
	BYTE	W01
	BYTE	W92
	BYTE	W03
	BYTE	PEND
	BYTE	W96
	BYTE	W96
	BYTE	W96
	BYTE	W96
	BYTE	W96
	BYTE	W96
	BYTE	W96
	BYTE	W96
	BYTE	W96
	BYTE	W96
	BYTE	W96
	BYTE	W96
	BYTE	W96
	BYTE	W96
	BYTE	W48
	BYTE	W03
	BYTE		VOICE   80
	BYTE	W01
	BYTE		PAN     c_v-14
	BYTE	W01
	BYTE		VOL     73*seq_068_mvl/mxv
	BYTE	W42
	BYTE	W01
	BYTE		N44     Dn2   v084
	BYTE	W48
	BYTE		        Dn2   v088
	BYTE	W48
	BYTE	PEND
	BYTE		N72     Dn2   v088
	BYTE	W56
	BYTE	W02
	BYTE		VOL     65*seq_068_mvl/mxv
	BYTE	W03
	BYTE		        58*seq_068_mvl/mxv
	BYTE	W03
	BYTE		        52*seq_068_mvl/mxv
	BYTE	W03
	BYTE		        44*seq_068_mvl/mxv
	BYTE	W09
	BYTE		        73*seq_068_mvl/mxv
	BYTE	W20
	BYTE	PEND
	BYTE	W96
	BYTE	W96
	BYTE	PATT
	 POIN2	seq_068_5 + 0x116
	BYTE	PATT
	 POIN2	seq_068_5 + 0x11E
	BYTE	W96
	BYTE	W96
	BYTE		N72     Dn2   v080
	BYTE	W56
	BYTE	W02
	BYTE		VOL     65*seq_068_mvl/mxv
	BYTE	W03
	BYTE		        58*seq_068_mvl/mxv
	BYTE	W03
	BYTE		        52*seq_068_mvl/mxv
	BYTE	W03
	BYTE		        44*seq_068_mvl/mxv
	BYTE	W09
	BYTE		        73*seq_068_mvl/mxv
	BYTE	W20
	BYTE	PEND
	BYTE	W96
	BYTE		N72     Dn2   v084
	BYTE	W56
	BYTE	W02
	BYTE		VOL     65*seq_068_mvl/mxv
	BYTE	W03
	BYTE		        58*seq_068_mvl/mxv
	BYTE	W03
	BYTE		        52*seq_068_mvl/mxv
	BYTE	W03
	BYTE		        44*seq_068_mvl/mxv
	BYTE	W09
	BYTE		        73*seq_068_mvl/mxv
	BYTE	W20
	BYTE	PEND
	BYTE	W24
	BYTE		N44     Dn2   v084
	BYTE	W48
	BYTE		N23     Dn2   v076
	BYTE	W24
	BYTE	PEND
	BYTE		N72     Dn2   v092
	BYTE	W56
	BYTE	W02
	BYTE		VOL     65*seq_068_mvl/mxv
	BYTE	W03
	BYTE		        58*seq_068_mvl/mxv
	BYTE	W03
	BYTE		        52*seq_068_mvl/mxv
	BYTE	W03
	BYTE		        44*seq_068_mvl/mxv
	BYTE	W09
	BYTE		        73*seq_068_mvl/mxv
	BYTE	W20
	BYTE	PEND
	BYTE	W96
	BYTE	W96
	BYTE	W96
	BYTE	W96
	BYTE	W96
	BYTE	W96
	BYTE	W96
	BYTE	PATT
	 POIN2	seq_068_5 + 0x16A
	BYTE	W96
	BYTE	W96
	BYTE	W96
	BYTE	W96
	BYTE	W96
	BYTE	W96
	BYTE	W96
	BYTE	PATT
	 POIN2	seq_068_5 + 0x116
	BYTE	PATT
	 POIN2	seq_068_5 + 0x11E
	BYTE	W96
	BYTE	W96
	BYTE	PATT
	 POIN2	seq_068_5 + 0x116
	BYTE	PATT
	 POIN2	seq_068_5 + 0x11E
	BYTE	W96
	BYTE	W96
	BYTE	PATT
	 POIN2	seq_068_5 + 0x13D
	BYTE	W96
	BYTE	PATT
	 POIN2	seq_068_5 + 0x14F
	BYTE	PATT
	 POIN2	seq_068_5 + 0x160
	BYTE	PATT
	 POIN2	seq_068_5 + 0x16A
	BYTE	W96
	BYTE	W96
	BYTE	W96
	BYTE	W96
	BYTE	W96
	BYTE	W96
	BYTE	W96
	BYTE	PATT
	 POIN2	seq_068_5 + 0x16A
	BYTE	W96
	BYTE	W96
	BYTE	W96
	BYTE	W96
	BYTE	W96
	BYTE	W96
	BYTE	W96
	BYTE		N44     Dn2   v080
	BYTE	W48
	BYTE		        Dn2   v088
	BYTE	W48
	BYTE	PEND
	BYTE	PATT
	 POIN2	seq_068_5 + 0x11E
	BYTE	W96
	BYTE	W96
	BYTE	PATT
	 POIN2	seq_068_5 + 0x1CE
	BYTE	PATT
	 POIN2	seq_068_5 + 0x11E
	BYTE	W96
	BYTE	W96
	BYTE	PATT
	 POIN2	seq_068_5 + 0x13D
	BYTE	W96
	BYTE		N72     Dn2   v080
	BYTE	W56
	BYTE	W02
	BYTE		VOL     65*seq_068_mvl/mxv
	BYTE	W03
	BYTE		        58*seq_068_mvl/mxv
	BYTE	W03
	BYTE		        52*seq_068_mvl/mxv
	BYTE	W03
	BYTE		        44*seq_068_mvl/mxv
	BYTE	W15
	BYTE	W14
	BYTE	W96
	BYTE	W96
	BYTE	W96
	BYTE	W96
	BYTE	W96
	BYTE	W96
	BYTE	W96
	BYTE	W96
	BYTE	W66
	BYTE		VOICE   45
	BYTE	W01
	BYTE		PAN     c_v+6
	BYTE	W01
	BYTE		VOL     73*seq_068_mvl/mxv
	BYTE	W04
	BYTE		N06     An2   v072
	BYTE	W06
	BYTE		        Bn2   v068
	BYTE	W06
	BYTE		        Cs3   v076
	BYTE	W06
	BYTE		        Dn3   v072
	BYTE	W06
	BYTE		N96     En3   v064
	BYTE	W03
	BYTE		VOL     72*seq_068_mvl/mxv
	BYTE	W03
	BYTE		        70*seq_068_mvl/mxv
	BYTE	W03
	BYTE		        68*seq_068_mvl/mxv
	BYTE	W03
	BYTE		        70*seq_068_mvl/mxv
	BYTE	W09
	BYTE		        70*seq_068_mvl/mxv
	BYTE	W03
	BYTE		        71*seq_068_mvl/mxv
	BYTE	W03
	BYTE		        72*seq_068_mvl/mxv
	BYTE	W03
	BYTE		        72*seq_068_mvl/mxv
	BYTE	W03
	BYTE		        73*seq_068_mvl/mxv
	BYTE	W03
	BYTE		        74*seq_068_mvl/mxv
	BYTE	W03
	BYTE		        76*seq_068_mvl/mxv
	BYTE	W03
	BYTE		        77*seq_068_mvl/mxv
	BYTE	W03
	BYTE		        78*seq_068_mvl/mxv
	BYTE	W03
	BYTE		        80*seq_068_mvl/mxv
	BYTE	W09
	BYTE		        78*seq_068_mvl/mxv
	BYTE	W03
	BYTE		        77*seq_068_mvl/mxv
	BYTE	W03
	BYTE		        76*seq_068_mvl/mxv
	BYTE	W03
	BYTE		        74*seq_068_mvl/mxv
	BYTE	W03
	BYTE		        72*seq_068_mvl/mxv
	BYTE	W03
	BYTE		        70*seq_068_mvl/mxv
	BYTE	W03
	BYTE		        67*seq_068_mvl/mxv
	BYTE	W03
	BYTE		        64*seq_068_mvl/mxv
	BYTE	W03
	BYTE		        60*seq_068_mvl/mxv
	BYTE	W03
	BYTE		        57*seq_068_mvl/mxv
	BYTE	W03
	BYTE		        53*seq_068_mvl/mxv
	BYTE	W03
	BYTE		        48*seq_068_mvl/mxv
	BYTE	W03
	BYTE		        44*seq_068_mvl/mxv
	BYTE	W03
	BYTE		        73*seq_068_mvl/mxv
	BYTE		N44     An2   v060
	BYTE	W18
	BYTE		VOL     70*seq_068_mvl/mxv
	BYTE	W03
	BYTE		        70*seq_068_mvl/mxv
	BYTE	W03
	BYTE		        68*seq_068_mvl/mxv
	BYTE	W03
	BYTE		        64*seq_068_mvl/mxv
	BYTE	W03
	BYTE		        59*seq_068_mvl/mxv
	BYTE	W03
	BYTE		        52*seq_068_mvl/mxv
	BYTE	W03
	BYTE		        44*seq_068_mvl/mxv
	BYTE	W03
	BYTE		        35*seq_068_mvl/mxv
	BYTE	W03
	BYTE		        24*seq_068_mvl/mxv
	BYTE	W06
	BYTE		        73*seq_068_mvl/mxv
	BYTE		N24     Cn3   v068
	BYTE	W24
	BYTE		        Dn3   v072
	BYTE	W24
	BYTE		N96     Cn3   v064
	BYTE	W06
	BYTE		VOL     74*seq_068_mvl/mxv
	BYTE	W03
	BYTE		        75*seq_068_mvl/mxv
	BYTE	W12
	BYTE		        76*seq_068_mvl/mxv
	BYTE	W09
	BYTE		        76*seq_068_mvl/mxv
	BYTE	W03
	BYTE		        77*seq_068_mvl/mxv
	BYTE	W03
	BYTE		        78*seq_068_mvl/mxv
	BYTE	W06
	BYTE		        78*seq_068_mvl/mxv
	BYTE	W03
	BYTE		        80*seq_068_mvl/mxv
	BYTE	W06
	BYTE		        79*seq_068_mvl/mxv
	BYTE	W06
	BYTE		        78*seq_068_mvl/mxv
	BYTE	W03
	BYTE		        78*seq_068_mvl/mxv
	BYTE	W03
	BYTE		        77*seq_068_mvl/mxv
	BYTE	W03
	BYTE		        76*seq_068_mvl/mxv
	BYTE	W03
	BYTE		        74*seq_068_mvl/mxv
	BYTE	W03
	BYTE		        72*seq_068_mvl/mxv
	BYTE	W03
	BYTE		        70*seq_068_mvl/mxv
	BYTE	W03
	BYTE		        67*seq_068_mvl/mxv
	BYTE	W03
	BYTE		        64*seq_068_mvl/mxv
	BYTE	W03
	BYTE		        61*seq_068_mvl/mxv
	BYTE	W03
	BYTE		        58*seq_068_mvl/mxv
	BYTE	W03
	BYTE		        54*seq_068_mvl/mxv
	BYTE	W03
	BYTE		        50*seq_068_mvl/mxv
	BYTE	W03
	BYTE		        73*seq_068_mvl/mxv
	BYTE		N92     An2   v056
	BYTE	W18
	BYTE		VOL     72*seq_068_mvl/mxv
	BYTE	W09
	BYTE		        72*seq_068_mvl/mxv
	BYTE	W03
	BYTE		        71*seq_068_mvl/mxv
	BYTE	W03
	BYTE		        70*seq_068_mvl/mxv
	BYTE	W03
	BYTE		        68*seq_068_mvl/mxv
	BYTE	W03
	BYTE		        66*seq_068_mvl/mxv
	BYTE	W03
	BYTE		        65*seq_068_mvl/mxv
	BYTE	W03
	BYTE		        63*seq_068_mvl/mxv
	BYTE	W03
	BYTE		        60*seq_068_mvl/mxv
	BYTE	W03
	BYTE		        58*seq_068_mvl/mxv
	BYTE	W03
	BYTE		        55*seq_068_mvl/mxv
	BYTE	W03
	BYTE		        52*seq_068_mvl/mxv
	BYTE	W03
	BYTE		        48*seq_068_mvl/mxv
	BYTE	W03
	BYTE		        45*seq_068_mvl/mxv
	BYTE	W03
	BYTE		        41*seq_068_mvl/mxv
	BYTE	W03
	BYTE		        37*seq_068_mvl/mxv
	BYTE	W03
	BYTE		        33*seq_068_mvl/mxv
	BYTE	W03
	BYTE		        28*seq_068_mvl/mxv
	BYTE	W03
	BYTE		        24*seq_068_mvl/mxv
	BYTE	W03
	BYTE		        18*seq_068_mvl/mxv
	BYTE	W03
	BYTE		        13*seq_068_mvl/mxv
	BYTE	W03
	BYTE		        8*seq_068_mvl/mxv
	BYTE	W09
	BYTE		        73*seq_068_mvl/mxv
	BYTE		N96     An2   v072
	BYTE	W09
	BYTE		VOL     74*seq_068_mvl/mxv
	BYTE	W03
	BYTE		        74*seq_068_mvl/mxv
	BYTE	W15
	BYTE		        75*seq_068_mvl/mxv
	BYTE	W06
	BYTE		        76*seq_068_mvl/mxv
	BYTE	W09
	BYTE		        76*seq_068_mvl/mxv
	BYTE	W06
	BYTE		        77*seq_068_mvl/mxv
	BYTE	W03
	BYTE		        78*seq_068_mvl/mxv
	BYTE	W06
	BYTE		        78*seq_068_mvl/mxv
	BYTE	W03
	BYTE		        78*seq_068_mvl/mxv
	BYTE	W06
	BYTE		        78*seq_068_mvl/mxv
	BYTE	W03
	BYTE		        76*seq_068_mvl/mxv
	BYTE	W03
	BYTE		        74*seq_068_mvl/mxv
	BYTE	W03
	BYTE		        72*seq_068_mvl/mxv
	BYTE	W03
	BYTE		        70*seq_068_mvl/mxv
	BYTE	W03
	BYTE		        66*seq_068_mvl/mxv
	BYTE	W03
	BYTE		        62*seq_068_mvl/mxv
	BYTE	W03
	BYTE		        58*seq_068_mvl/mxv
	BYTE	W03
	BYTE		        54*seq_068_mvl/mxv
	BYTE	W03
	BYTE		        48*seq_068_mvl/mxv
	BYTE	W03
	BYTE		        73*seq_068_mvl/mxv
	BYTE		N44     Fn2   v064
	BYTE	W15
	BYTE		VOL     72*seq_068_mvl/mxv
	BYTE	W03
	BYTE		        71*seq_068_mvl/mxv
	BYTE	W03
	BYTE		        70*seq_068_mvl/mxv
	BYTE	W03
	BYTE		        66*seq_068_mvl/mxv
	BYTE	W03
	BYTE		        62*seq_068_mvl/mxv
	BYTE	W03
	BYTE		        57*seq_068_mvl/mxv
	BYTE	W03
	BYTE		        51*seq_068_mvl/mxv
	BYTE	W03
	BYTE		        44*seq_068_mvl/mxv
	BYTE	W03
	BYTE		        34*seq_068_mvl/mxv
	BYTE	W03
	BYTE		        25*seq_068_mvl/mxv
	BYTE	W06
	BYTE		        73*seq_068_mvl/mxv
	BYTE		N24     An2   v072
	BYTE	W24
	BYTE		        As2   v080
	BYTE	W24
	BYTE		N96     An2   v072
	BYTE	W09
	BYTE		VOL     74*seq_068_mvl/mxv
	BYTE	W15
	BYTE		        74*seq_068_mvl/mxv
	BYTE	W06
	BYTE		        75*seq_068_mvl/mxv
	BYTE	W03
	BYTE		        76*seq_068_mvl/mxv
	BYTE	W06
	BYTE		        77*seq_068_mvl/mxv
	BYTE	W03
	BYTE		        78*seq_068_mvl/mxv
	BYTE	W06
	BYTE		        79*seq_068_mvl/mxv
	BYTE	W03
	BYTE		        80*seq_068_mvl/mxv
	BYTE	W03
	BYTE		        81*seq_068_mvl/mxv
	BYTE	W09
	BYTE		        78*seq_068_mvl/mxv
	BYTE	W03
	BYTE		        77*seq_068_mvl/mxv
	BYTE	W03
	BYTE		        75*seq_068_mvl/mxv
	BYTE	W03
	BYTE		        74*seq_068_mvl/mxv
	BYTE	W03
	BYTE		        71*seq_068_mvl/mxv
	BYTE	W03
	BYTE		        68*seq_068_mvl/mxv
	BYTE	W03
	BYTE		        64*seq_068_mvl/mxv
	BYTE	W03
	BYTE		        61*seq_068_mvl/mxv
	BYTE	W03
	BYTE		        57*seq_068_mvl/mxv
	BYTE	W03
	BYTE		        52*seq_068_mvl/mxv
	BYTE	W03
	BYTE		        47*seq_068_mvl/mxv
	BYTE	W03
	BYTE		        73*seq_068_mvl/mxv
	BYTE		N48     Fn2   v064
	BYTE	W48
	BYTE		N24     Dn2 
	BYTE	W24
	BYTE		        Fn2 
	BYTE	W24
	BYTE		TIE     Gn2   v060
	BYTE	W06
	BYTE		VOL     74*seq_068_mvl/mxv
	BYTE	W66
	BYTE		        74*seq_068_mvl/mxv
	BYTE	W24
	BYTE	W06
	BYTE		        75*seq_068_mvl/mxv
	BYTE	W18
	BYTE		        76*seq_068_mvl/mxv
	BYTE	W36
	BYTE		        75*seq_068_mvl/mxv
	BYTE	W24
	BYTE		        74*seq_068_mvl/mxv
	BYTE	W06
	BYTE		        74*seq_068_mvl/mxv
	BYTE	W06
	BYTE	W06
	BYTE		        72*seq_068_mvl/mxv
	BYTE	W06
	BYTE		        72*seq_068_mvl/mxv
	BYTE	W06
	BYTE		        71*seq_068_mvl/mxv
	BYTE	W06
	BYTE		        70*seq_068_mvl/mxv
	BYTE	W06
	BYTE		        68*seq_068_mvl/mxv
	BYTE	W06
	BYTE		        68*seq_068_mvl/mxv
	BYTE	W06
	BYTE		        66*seq_068_mvl/mxv
	BYTE	W06
	BYTE		        64*seq_068_mvl/mxv
	BYTE	W06
	BYTE		        63*seq_068_mvl/mxv
	BYTE	W06
	BYTE		        62*seq_068_mvl/mxv
	BYTE	W06
	BYTE		        60*seq_068_mvl/mxv
	BYTE	W06
	BYTE		        58*seq_068_mvl/mxv
	BYTE	W06
	BYTE		        56*seq_068_mvl/mxv
	BYTE	W06
	BYTE		        54*seq_068_mvl/mxv
	BYTE	W06
	BYTE		        51*seq_068_mvl/mxv
	BYTE	W06
	BYTE		        48*seq_068_mvl/mxv
	BYTE	W06
	BYTE		        46*seq_068_mvl/mxv
	BYTE	W06
	BYTE		        44*seq_068_mvl/mxv
	BYTE	W06
	BYTE		        41*seq_068_mvl/mxv
	BYTE	W06
	BYTE		        38*seq_068_mvl/mxv
	BYTE	W06
	BYTE		        35*seq_068_mvl/mxv
	BYTE	W06
	BYTE		        32*seq_068_mvl/mxv
	BYTE	W06
	BYTE		        29*seq_068_mvl/mxv
	BYTE	W06
	BYTE		        26*seq_068_mvl/mxv
	BYTE	W06
	BYTE		        22*seq_068_mvl/mxv
	BYTE	W06
	BYTE		        18*seq_068_mvl/mxv
	BYTE	W06
	BYTE		        15*seq_068_mvl/mxv
	BYTE	W06
	BYTE		        11*seq_068_mvl/mxv
	BYTE	W06
	BYTE		        8*seq_068_mvl/mxv
	BYTE	W06
	BYTE		        4*seq_068_mvl/mxv
	BYTE	W06
	BYTE		        2*seq_068_mvl/mxv
	BYTE	W06
	BYTE		EOT
	BYTE	W96
	BYTE	W96
	BYTE	W96
	BYTE	W90
	BYTE		VOL     73*seq_068_mvl/mxv
	BYTE	W06
	BYTE		TIE     Gn3   v076
	BYTE	W06
	BYTE		VOL     74*seq_068_mvl/mxv
	BYTE	W03
	BYTE		        74*seq_068_mvl/mxv
	BYTE	W18
	BYTE		        75*seq_068_mvl/mxv
	BYTE	W06
	BYTE		        76*seq_068_mvl/mxv
	BYTE	W12
	BYTE		        76*seq_068_mvl/mxv
	BYTE	W06
	BYTE		        77*seq_068_mvl/mxv
	BYTE	W03
	BYTE		        78*seq_068_mvl/mxv
	BYTE	W06
	BYTE		        78*seq_068_mvl/mxv
	BYTE	W06
	BYTE		        78*seq_068_mvl/mxv
	BYTE	W06
	BYTE		        76*seq_068_mvl/mxv
	BYTE	W03
	BYTE		        73*seq_068_mvl/mxv
	BYTE	W03
	BYTE		        69*seq_068_mvl/mxv
	BYTE	W03
	BYTE		        64*seq_068_mvl/mxv
	BYTE	W03
	BYTE		        58*seq_068_mvl/mxv
	BYTE	W03
	BYTE		        50*seq_068_mvl/mxv
	BYTE	W03
	BYTE		        42*seq_068_mvl/mxv
	BYTE	W03
	BYTE		        32*seq_068_mvl/mxv
	BYTE	W03
	BYTE	PEND
	BYTE		VOL     24*seq_068_mvl/mxv
	BYTE	W03
	BYTE		        17*seq_068_mvl/mxv
	BYTE	W03
	BYTE		        12*seq_068_mvl/mxv
	BYTE	W03
	BYTE	PEND
	BYTE		EOT     Gn3 
	BYTE	W03
	BYTE		VOL     73*seq_068_mvl/mxv
	BYTE		N06     Gn3   v080
	BYTE	W06
	BYTE		        Fs3   v068
	BYTE	W06
	BYTE		N04     Gn3   v076
	BYTE	W12
	BYTE		        An3   v068
	BYTE	W12
	BYTE		N12     As3   v076
	BYTE	W12
	BYTE		N04     Cn4   v068
	BYTE	W12
	BYTE		        As3 
	BYTE	W12
	BYTE		        An3   v064
	BYTE	W12
	BYTE		N24     Gn3   v076
	BYTE	W24
	BYTE		N04     Fs3   v072
	BYTE	W12
	BYTE		        An3   v068
	BYTE	W12
	BYTE		TIE     Gn3   v064
	BYTE	W21
	BYTE		VOL     72*seq_068_mvl/mxv
	BYTE	W09
	BYTE		        71*seq_068_mvl/mxv
	BYTE	W03
	BYTE		        70*seq_068_mvl/mxv
	BYTE	W03
	BYTE		        70*seq_068_mvl/mxv
	BYTE	W03
	BYTE		        69*seq_068_mvl/mxv
	BYTE	W03
	BYTE		        68*seq_068_mvl/mxv
	BYTE	W03
	BYTE		        67*seq_068_mvl/mxv
	BYTE	W03
	BYTE		        66*seq_068_mvl/mxv
	BYTE	W03
	BYTE		        64*seq_068_mvl/mxv
	BYTE	W03
	BYTE		        63*seq_068_mvl/mxv
	BYTE	W03
	BYTE		        62*seq_068_mvl/mxv
	BYTE	W03
	BYTE		        60*seq_068_mvl/mxv
	BYTE	W03
	BYTE		        58*seq_068_mvl/mxv
	BYTE	W03
	BYTE		        56*seq_068_mvl/mxv
	BYTE	W03
	BYTE		        54*seq_068_mvl/mxv
	BYTE	W03
	BYTE		        52*seq_068_mvl/mxv
	BYTE	W03
	BYTE		        49*seq_068_mvl/mxv
	BYTE	W03
	BYTE		        46*seq_068_mvl/mxv
	BYTE	W03
	BYTE		        44*seq_068_mvl/mxv
	BYTE	W03
	BYTE		        40*seq_068_mvl/mxv
	BYTE	W03
	BYTE		        38*seq_068_mvl/mxv
	BYTE	W03
	BYTE		        34*seq_068_mvl/mxv
	BYTE	W03
	BYTE		        31*seq_068_mvl/mxv
	BYTE	W03
	BYTE		        28*seq_068_mvl/mxv
	BYTE	W03
	BYTE		        24*seq_068_mvl/mxv
	BYTE	W03
	BYTE		        20*seq_068_mvl/mxv
	BYTE	W03
	BYTE		        16*seq_068_mvl/mxv
	BYTE	W03
	BYTE		        12*seq_068_mvl/mxv
	BYTE	W03
	BYTE		        8*seq_068_mvl/mxv
	BYTE	W03
	BYTE		        4*seq_068_mvl/mxv
	BYTE	W03
	BYTE		        1*seq_068_mvl/mxv
	BYTE	W03
	BYTE		EOT
	BYTE	W24
	BYTE	W96
	BYTE	W84
	BYTE		VOL     73*seq_068_mvl/mxv
	BYTE	W12
	BYTE	PATT
	 POIN2	seq_068_5 + 0x3BB
	BYTE	PATT
	 POIN2	seq_068_5 + 0x3E3
	BYTE		EOT     Gn3 
	BYTE	W03
	BYTE		VOL     73*seq_068_mvl/mxv
	BYTE		N06     Gn3   v080
	BYTE	W06
	BYTE		        Fs3   v068
	BYTE	W06
	BYTE		N04     Gn3   v076
	BYTE	W12
	BYTE		        An3   v068
	BYTE	W12
	BYTE		N12     As3   v076
	BYTE	W12
	BYTE		N04     Cn4   v068
	BYTE	W12
	BYTE		        As3 
	BYTE	W12
	BYTE		        An3   v064
	BYTE	W12
	BYTE		N12     Gn3   v076
	BYTE	W12
	BYTE		N06     Fs3   v080
	BYTE	W06
	BYTE		        An3   v072
	BYTE	W06
	BYTE		N04     Gn3   v076
	BYTE	W12
	BYTE		        Ds3   v068
	BYTE	W12
	BYTE		        Fn3   v072
	BYTE	W12
	BYTE		        Ds3   v080
	BYTE	W12
	BYTE		        Dn3   v084
	BYTE	W12
	BYTE		        As2   v080
	BYTE	W12
	BYTE		N96     Cn3   v076
	BYTE	W24
	BYTE		VOL     72*seq_068_mvl/mxv
	BYTE	W09
	BYTE		        71*seq_068_mvl/mxv
	BYTE	W03
	BYTE		        70*seq_068_mvl/mxv
	BYTE	W03
	BYTE		        69*seq_068_mvl/mxv
	BYTE	W03
	BYTE		        68*seq_068_mvl/mxv
	BYTE	W03
	BYTE		        66*seq_068_mvl/mxv
	BYTE	W03
	BYTE		        64*seq_068_mvl/mxv
	BYTE	W03
	BYTE		        62*seq_068_mvl/mxv
	BYTE	W03
	BYTE		        59*seq_068_mvl/mxv
	BYTE	W03
	BYTE		        56*seq_068_mvl/mxv
	BYTE	W03
	BYTE		        53*seq_068_mvl/mxv
	BYTE	W03
	BYTE		        50*seq_068_mvl/mxv
	BYTE	W03
	BYTE		        46*seq_068_mvl/mxv
	BYTE	W03
	BYTE		        42*seq_068_mvl/mxv
	BYTE	W03
	BYTE		        38*seq_068_mvl/mxv
	BYTE	W03
	BYTE		        34*seq_068_mvl/mxv
	BYTE	W03
	BYTE		        29*seq_068_mvl/mxv
	BYTE	W03
	BYTE		        24*seq_068_mvl/mxv
	BYTE	W03
	BYTE		        18*seq_068_mvl/mxv
	BYTE	W03
	BYTE		        13*seq_068_mvl/mxv
	BYTE	W03
	BYTE		        8*seq_068_mvl/mxv
	BYTE	W03
	BYTE		        4*seq_068_mvl/mxv
	BYTE	W03
	BYTE	W08
	BYTE	W88
	BYTE	W92
	BYTE		VOICE   43
	BYTE	W01
	BYTE		PAN     c_v+26
	BYTE	W01
	BYTE		VOL     73*seq_068_mvl/mxv
	BYTE	W02
	BYTE		N23     Ds2   v104
	BYTE	W24
	BYTE		N05
	BYTE	W08
	BYTE		        Ds2   v092
	BYTE	W08
	BYTE		N05
	BYTE	W08
	BYTE		N07     Ds2   v104
	BYTE	W08
	BYTE		N06     Ds2   v032
	BYTE	W08
	BYTE		        Ds2   v020
	BYTE	W08
	BYTE		N07     Ds2   v096
	BYTE	W08
	BYTE		N06     Ds2   v032
	BYTE	W08
	BYTE		        Ds2   v020
	BYTE	W08
	BYTE		N44     Gs2   v100
	BYTE	W48
	BYTE		N23     Gs2   v096
	BYTE	W24
	BYTE		        Gs2   v088
	BYTE	W24
	BYTE		N68     Fs2   v092
	BYTE	W72
	BYTE		N23     Fs2   v084
	BYTE	W24
	BYTE		N96     Fs2   v088
	BYTE	W44
	BYTE	W01
	BYTE		VOL     72*seq_068_mvl/mxv
	BYTE	W06
	BYTE		        71*seq_068_mvl/mxv
	BYTE	W03
	BYTE		        70*seq_068_mvl/mxv
	BYTE	W03
	BYTE		        70*seq_068_mvl/mxv
	BYTE	W03
	BYTE		        68*seq_068_mvl/mxv
	BYTE	W03
	BYTE		        67*seq_068_mvl/mxv
	BYTE	W03
	BYTE		        66*seq_068_mvl/mxv
	BYTE	W03
	BYTE		        64*seq_068_mvl/mxv
	BYTE	W03
	BYTE		        62*seq_068_mvl/mxv
	BYTE	W03
	BYTE		        59*seq_068_mvl/mxv
	BYTE	W03
	BYTE		        56*seq_068_mvl/mxv
	BYTE	W03
	BYTE		        54*seq_068_mvl/mxv
	BYTE	W03
	BYTE		        50*seq_068_mvl/mxv
	BYTE	W03
	BYTE		        47*seq_068_mvl/mxv
	BYTE	W03
	BYTE		        44*seq_068_mvl/mxv
	BYTE	W03
	BYTE		        41*seq_068_mvl/mxv
	BYTE	W03
	BYTE		        73*seq_068_mvl/mxv
	BYTE		N44     Ds2   v092
	BYTE	W48
	BYTE		N23     Ds2   v088
	BYTE	W24
	BYTE		N24     Ds2   v084
	BYTE	W24
	BYTE		N44     Bn1   v092
	BYTE	W48
	BYTE		N23
	BYTE	W24
	BYTE		N24
	BYTE	W24
	BYTE		N96     Cn2   v096
	BYTE	W15
	BYTE		VOL     74*seq_068_mvl/mxv
	BYTE	W12
	BYTE		        74*seq_068_mvl/mxv
	BYTE	W03
	BYTE		        75*seq_068_mvl/mxv
	BYTE	W06
	BYTE		        76*seq_068_mvl/mxv
	BYTE	W03
	BYTE		        76*seq_068_mvl/mxv
	BYTE	W06
	BYTE		        77*seq_068_mvl/mxv
	BYTE	W03
	BYTE		        78*seq_068_mvl/mxv
	BYTE	W03
	BYTE		        79*seq_068_mvl/mxv
	BYTE	W03
	BYTE		        80*seq_068_mvl/mxv
	BYTE	W09
	BYTE		        79*seq_068_mvl/mxv
	BYTE	W03
	BYTE		        78*seq_068_mvl/mxv
	BYTE	W03
	BYTE		        77*seq_068_mvl/mxv
	BYTE	W03
	BYTE		        76*seq_068_mvl/mxv
	BYTE	W03
	BYTE		        74*seq_068_mvl/mxv
	BYTE	W03
	BYTE		        72*seq_068_mvl/mxv
	BYTE	W03
	BYTE		        69*seq_068_mvl/mxv
	BYTE	W03
	BYTE		        66*seq_068_mvl/mxv
	BYTE	W03
	BYTE		        64*seq_068_mvl/mxv
	BYTE	W03
	BYTE		        60*seq_068_mvl/mxv
	BYTE	W03
	BYTE		        56*seq_068_mvl/mxv
	BYTE	W03
	BYTE		        73*seq_068_mvl/mxv
	BYTE		N96     Fn2   v088
	BYTE	W44
	BYTE	W01
	BYTE		VOL     72*seq_068_mvl/mxv
	BYTE	W06
	BYTE		        71*seq_068_mvl/mxv
	BYTE	W03
	BYTE		        70*seq_068_mvl/mxv
	BYTE	W03
	BYTE		        68*seq_068_mvl/mxv
	BYTE	W03
	BYTE		        67*seq_068_mvl/mxv
	BYTE	W03
	BYTE		        64*seq_068_mvl/mxv
	BYTE	W03
	BYTE		        62*seq_068_mvl/mxv
	BYTE	W03
	BYTE		        58*seq_068_mvl/mxv
	BYTE	W03
	BYTE		        54*seq_068_mvl/mxv
	BYTE	W03
	BYTE		        50*seq_068_mvl/mxv
	BYTE	W03
	BYTE		        46*seq_068_mvl/mxv
	BYTE	W03
	BYTE		        41*seq_068_mvl/mxv
	BYTE	W03
	BYTE		        36*seq_068_mvl/mxv
	BYTE	W03
	BYTE		        30*seq_068_mvl/mxv
	BYTE	W03
	BYTE		        23*seq_068_mvl/mxv
	BYTE	W03
	BYTE		        17*seq_068_mvl/mxv
	BYTE	W03
	BYTE	PATT
	 POIN2	seq_068_5 + 0xF8
	BYTE	W96
	BYTE	W96
	BYTE	W96
	BYTE	W96
	BYTE	W96
	BYTE	W96
	BYTE	W96
	BYTE	W96
	BYTE	W96
	BYTE	W96
	BYTE	W96
	BYTE	W96
	BYTE	W96
	BYTE	W88
	BYTE		VOICE   45
	BYTE	W01
	BYTE		PAN     c_v+6
	BYTE	W01
	BYTE		VOL     73*seq_068_mvl/mxv
	BYTE	W06
	BYTE	W84
	BYTE	W12
	BYTE		N04     Fn4   v064
	BYTE	W12
	BYTE		        Gs4   v056
	BYTE	W12
	BYTE		N12     Gn4   v060
	BYTE	W12
	BYTE		N06     Gs4 
	BYTE	W06
	BYTE		        As4   v048
	BYTE	W06
	BYTE		N04     Gs4   v064
	BYTE	W12
	BYTE		        Fn4   v052
	BYTE	W12
	BYTE		        Gn4   v060
	BYTE	W12
	BYTE		N12     As4   v048
	BYTE	W12
	BYTE	PEND
	BYTE		N04     Gs4   v060
	BYTE	W12
	BYTE		        Fn4   v056
	BYTE	W12
	BYTE		        Gn4   v060
	BYTE	W12
	BYTE		        Ds4   v052
	BYTE	W12
	BYTE		N48     Fn4 
	BYTE	W15
	BYTE		VOL     70*seq_068_mvl/mxv
	BYTE	W03
	BYTE		        70*seq_068_mvl/mxv
	BYTE	W03
	BYTE		        68*seq_068_mvl/mxv
	BYTE	W03
	BYTE		        66*seq_068_mvl/mxv
	BYTE	W03
	BYTE		        62*seq_068_mvl/mxv
	BYTE	W03
	BYTE		        57*seq_068_mvl/mxv
	BYTE	W03
	BYTE		        50*seq_068_mvl/mxv
	BYTE	W03
	BYTE		        44*seq_068_mvl/mxv
	BYTE	W03
	BYTE		        35*seq_068_mvl/mxv
	BYTE	W03
	BYTE		        26*seq_068_mvl/mxv
	BYTE	W03
	BYTE		        15*seq_068_mvl/mxv
	BYTE	W03
	BYTE	PEND
	BYTE	W04
	BYTE	W92
	BYTE	W96
	BYTE	W96
	BYTE	W96
	BYTE	W96
	BYTE	W96
	BYTE	W96
	BYTE	W96
	BYTE	W96
	BYTE	W96
	BYTE	W96
	BYTE	W96
	BYTE	W96
	BYTE	W96
	BYTE	W96
	BYTE	W96
	BYTE	W96
	BYTE	W96
	BYTE	W96
	BYTE	W96
	BYTE	W96
	BYTE	W96
	BYTE	W96
	BYTE	W96
	BYTE	W96
	BYTE	W90
	BYTE		VOL     73*seq_068_mvl/mxv
	BYTE	W02
	BYTE	W04
	BYTE	PEND
	BYTE	PATT
	 POIN2	seq_068_5 + 0x5C6
	BYTE	PATT
	 POIN2	seq_068_5 + 0x5E6
	BYTE	W02
	BYTE	W92
	BYTE	W02
	BYTE	W96
	BYTE	W96
	BYTE	W96
	BYTE	W96
	BYTE	W96
	BYTE	W96
	BYTE	W96
	BYTE	W96
	BYTE	W96
	BYTE	W96
	BYTE	W96
	BYTE	W96
	BYTE	W96
	BYTE	W96
	BYTE	W96
	BYTE	W96
	BYTE	W96
	BYTE	W96
	BYTE	W96
	BYTE	W96
	BYTE	W96
	BYTE	W96
	BYTE	W96
	BYTE	W96
	BYTE	PATT
	 POIN2	seq_068_5 + 0x628
	BYTE	PATT
	 POIN2	seq_068_5 + 0x5C6
	BYTE	PATT
	 POIN2	seq_068_5 + 0x5E6
	BYTE	PATT
	 POIN2	seq_068_5 + 0xF8
	BYTE	W96
	BYTE	W96
	BYTE	W96
	BYTE	W96
	BYTE	W96
	BYTE	W96
	BYTE	W96
	BYTE	W96
	BYTE	W96
	BYTE	W96
	BYTE	W96
	BYTE	W96
	BYTE	W96
	BYTE	W96
	BYTE	W96
	BYTE	W96
	BYTE	W96
	BYTE	W96
	BYTE	W96
	BYTE	W96
	BYTE	W96
	BYTE	W96
	BYTE	W96
	BYTE	W96
	BYTE	W96
	BYTE	W96
	BYTE	W96
	BYTE	W96
	BYTE	W96
	BYTE	W96
	BYTE	W96
	BYTE	W96
	BYTE	W96
	BYTE	W96
	BYTE	W96
	BYTE	W96
	BYTE	W96
	BYTE	W96
	BYTE	W96
	BYTE	W96
	BYTE	W96
	BYTE	W96
	BYTE	W96
	BYTE	W96
	BYTE	W96
	BYTE	W96
	BYTE	W96
	BYTE	W96
	BYTE	W96
	BYTE	W96
	BYTE	W96
	BYTE	W96
	BYTE	W96
	BYTE	W96
	BYTE	W96
	BYTE	W96
	BYTE	W96
	BYTE	W96
	BYTE	W96
	BYTE	W96
	BYTE	W96
	BYTE	W48
	BYTE	FINE

//*********************** Track 07 ***********************//

seq_068_6:
	BYTE	KEYSH   seq_068_key+0
	BYTE		VOICE   41
	BYTE	W01
	BYTE		PAN     c_v+21
	BYTE	W01
	BYTE		VOL     73*seq_068_mvl/mxv
	BYTE		BENDR   6
	BYTE	W01
	BYTE	W96
	BYTE	W96
	BYTE	W96
	BYTE	W80
	BYTE	W01
	BYTE		BEND    c_v+0
	BYTE	W05
	BYTE		N03     Gn3   v116
	BYTE	W05
	BYTE		N02     Gn3   v108
	BYTE	W05
	BYTE		VOL     58*seq_068_mvl/mxv
	BYTE		TIE     Gn3   v092
	BYTE	W06
	BYTE		VOL     59*seq_068_mvl/mxv
	BYTE	W06
	BYTE		        60*seq_068_mvl/mxv
	BYTE	W12
	BYTE		        60*seq_068_mvl/mxv
	BYTE	W06
	BYTE		        61*seq_068_mvl/mxv
	BYTE	W06
	BYTE		        62*seq_068_mvl/mxv
	BYTE	W06
	BYTE		        63*seq_068_mvl/mxv
	BYTE	W06
	BYTE		        64*seq_068_mvl/mxv
	BYTE	W06
	BYTE		        66*seq_068_mvl/mxv
	BYTE	W06
	BYTE		        68*seq_068_mvl/mxv
	BYTE	W06
	BYTE		        70*seq_068_mvl/mxv
	BYTE	W06
	BYTE		        72*seq_068_mvl/mxv
	BYTE	W06
	BYTE		        74*seq_068_mvl/mxv
	BYTE	W06
	BYTE		        76*seq_068_mvl/mxv
	BYTE	W06
	BYTE		        80*seq_068_mvl/mxv
	BYTE	W06
	BYTE		        80*seq_068_mvl/mxv
	BYTE	W36
	BYTE		        76*seq_068_mvl/mxv
	BYTE	W06
	BYTE		        74*seq_068_mvl/mxv
	BYTE	W06
	BYTE		EOT
	BYTE		VOL     73*seq_068_mvl/mxv
	BYTE		N48     An3   v088
	BYTE	W48
	BYTE		VOL     60*seq_068_mvl/mxv
	BYTE		TIE     Bn3   v096
	BYTE	W12
	BYTE		VOL     60*seq_068_mvl/mxv
	BYTE	W06
	BYTE		        60*seq_068_mvl/mxv
	BYTE	W12
	BYTE		        61*seq_068_mvl/mxv
	BYTE	W06
	BYTE		        62*seq_068_mvl/mxv
	BYTE	W06
	BYTE		        62*seq_068_mvl/mxv
	BYTE	W06
	BYTE		        64*seq_068_mvl/mxv
	BYTE	W06
	BYTE		        64*seq_068_mvl/mxv
	BYTE	W06
	BYTE		        66*seq_068_mvl/mxv
	BYTE	W06
	BYTE		        68*seq_068_mvl/mxv
	BYTE	W06
	BYTE		        70*seq_068_mvl/mxv
	BYTE	W06
	BYTE		        71*seq_068_mvl/mxv
	BYTE	W06
	BYTE		        74*seq_068_mvl/mxv
	BYTE	W06
	BYTE		        76*seq_068_mvl/mxv
	BYTE	W06
	BYTE		        78*seq_068_mvl/mxv
	BYTE	W88
	BYTE	W01
	BYTE		EOT
	BYTE	W01
	BYTE		N05     Bn3   v044
	BYTE	W05
	BYTE		PAN     c_v-19
	BYTE	W01
	BYTE		VOL     80*seq_068_mvl/mxv
	BYTE		N03     Dn2   v127
	BYTE	W06
	BYTE		        Dn2   v116
	BYTE	W06
	BYTE		        Dn2   v112
	BYTE	W06
	BYTE		        Dn2   v056
	BYTE	W06
	BYTE		        Dn2   v044
	BYTE	W06
	BYTE		        Dn2   v032
	BYTE	W06
	BYTE		        Dn2   v127
	BYTE	W06
	BYTE		        Dn2   v116
	BYTE	W06
	BYTE		N03
	BYTE	W06
	BYTE		        Dn2   v056
	BYTE	W06
	BYTE		BEND    c_v+1
	BYTE		N23     Dn2   v084
	BYTE	W03
	BYTE		BEND    c_v-2
	BYTE	W03
	BYTE		        c_v-2
	BYTE	W18
	BYTE		        c_v+0
	BYTE		N03     Dn2   v116
	BYTE	W06
	BYTE		        Dn2   v056
	BYTE	W06
	BYTE		        Dn2   v127
	BYTE	W06
	BYTE		        Dn2   v116
	BYTE	W06
	BYTE		        Dn2   v112
	BYTE	W06
	BYTE		        Dn2   v056
	BYTE	W06
	BYTE		        Dn2   v044
	BYTE	W06
	BYTE		        Dn2   v032
	BYTE	W06
	BYTE		        Dn2   v127
	BYTE	W06
	BYTE		        Dn2   v116
	BYTE	W06
	BYTE		N03
	BYTE	W06
	BYTE		        Dn2   v056
	BYTE	W06
	BYTE		N23     Dn2   v084
	BYTE	W24
	BYTE		BEND    c_v+0
	BYTE		N03     Dn2   v116
	BYTE	W06
	BYTE		        Dn2   v056
	BYTE	W06
	BYTE		        Dn2   v127
	BYTE	W06
	BYTE		        Dn2   v124
	BYTE	W06
	BYTE		        Dn2   v120
	BYTE	W06
	BYTE		        Dn2   v056
	BYTE	W06
	BYTE		        Dn2   v044
	BYTE	W06
	BYTE		        Dn2   v032
	BYTE	W06
	BYTE		        Dn2   v127
	BYTE	W06
	BYTE		        Dn2   v120
	BYTE	W06
	BYTE		        Dn2   v124
	BYTE	W06
	BYTE		        Dn2   v056
	BYTE	W06
	BYTE		N23     Dn2   v088
	BYTE	W24
	BYTE		BEND    c_v+0
	BYTE		N03     Dn2   v124
	BYTE	W06
	BYTE		        Dn2   v056
	BYTE	W06
	BYTE		        Dn2   v127
	BYTE	W06
	BYTE		        Dn2   v124
	BYTE	W06
	BYTE		        Dn2   v120
	BYTE	W06
	BYTE		        Dn2   v056
	BYTE	W06
	BYTE		        Dn2   v044
	BYTE	W06
	BYTE		        Dn2   v032
	BYTE	W06
	BYTE		        Dn2   v127
	BYTE	W06
	BYTE		        Dn2   v124
	BYTE	W06
	BYTE		        Dn2   v127
	BYTE	W06
	BYTE		        Dn2   v056
	BYTE	W06
	BYTE		BEND    c_v+1
	BYTE		N23     Dn2   v100
	BYTE	W03
	BYTE		BEND    c_v-2
	BYTE	W03
	BYTE		        c_v-2
	BYTE	W18
	BYTE		        c_v+0
	BYTE		N03     Dn2   v127
	BYTE	W06
	BYTE		        Dn2   v056
	BYTE	W06
	BYTE		VOL     73*seq_068_mvl/mxv
	BYTE		N48     Gn2   v112
	BYTE	W48
	BYTE		        Cn3   v104
	BYTE	W48
	BYTE	PEND
	BYTE		N92     Bn2   v104
	BYTE	W12
	BYTE		VOL     74*seq_068_mvl/mxv
	BYTE	W15
	BYTE		        74*seq_068_mvl/mxv
	BYTE	W06
	BYTE		        75*seq_068_mvl/mxv
	BYTE	W09
	BYTE		        76*seq_068_mvl/mxv
	BYTE	W06
	BYTE		        76*seq_068_mvl/mxv
	BYTE	W03
	BYTE		        77*seq_068_mvl/mxv
	BYTE	W03
	BYTE		        78*seq_068_mvl/mxv
	BYTE	W03
	BYTE		        78*seq_068_mvl/mxv
	BYTE	W03
	BYTE		        79*seq_068_mvl/mxv
	BYTE	W03
	BYTE		        80*seq_068_mvl/mxv
	BYTE	W03
	BYTE		        80*seq_068_mvl/mxv
	BYTE	W03
	BYTE		        81*seq_068_mvl/mxv
	BYTE	W03
	BYTE		        82*seq_068_mvl/mxv
	BYTE	W03
	BYTE		        81*seq_068_mvl/mxv
	BYTE	W06
	BYTE		        80*seq_068_mvl/mxv
	BYTE	W03
	BYTE		        78*seq_068_mvl/mxv
	BYTE	W03
	BYTE		        75*seq_068_mvl/mxv
	BYTE	W03
	BYTE		        71*seq_068_mvl/mxv
	BYTE	W03
	BYTE		        66*seq_068_mvl/mxv
	BYTE	W03
	BYTE	PEND
	BYTE		VOL     73*seq_068_mvl/mxv
	BYTE	W24
	BYTE		N24     Gn2   v116
	BYTE	W24
	BYTE		        Cn3   v108
	BYTE	W24
	BYTE		        Bn2   v104
	BYTE	W24
	BYTE	PEND
	BYTE		N24     An2   v108
	BYTE	W24
	BYTE		        Gn2 
	BYTE	W24
	BYTE		N48     En3   v100
	BYTE	W48
	BYTE	PEND
	BYTE		TIE     Dn3   v096
	BYTE	W24
	BYTE		VOL     74*seq_068_mvl/mxv
	BYTE	W06
	BYTE		        74*seq_068_mvl/mxv
	BYTE	W12
	BYTE		        75*seq_068_mvl/mxv
	BYTE	W12
	BYTE		        76*seq_068_mvl/mxv
	BYTE	W06
	BYTE		        76*seq_068_mvl/mxv
	BYTE	W06
	BYTE		        77*seq_068_mvl/mxv
	BYTE	W06
	BYTE		        78*seq_068_mvl/mxv
	BYTE	W06
	BYTE		        80*seq_068_mvl/mxv
	BYTE	W18
	BYTE	PEND
	BYTE	W12
	BYTE		VOL     78*seq_068_mvl/mxv
	BYTE	W12
	BYTE		        76*seq_068_mvl/mxv
	BYTE	W06
	BYTE		        73*seq_068_mvl/mxv
	BYTE	W06
	BYTE		        68*seq_068_mvl/mxv
	BYTE	W06
	BYTE		        63*seq_068_mvl/mxv
	BYTE	W05
	BYTE	PEND
	BYTE		EOT     Dn3 
	BYTE	W01
	BYTE		VOL     73*seq_068_mvl/mxv
	BYTE		N24     Bn2   v104
	BYTE	W24
	BYTE		        Cs3   v112
	BYTE	W24
	BYTE		TIE     Dn3   v100
	BYTE	W06
	BYTE		VOL     73*seq_068_mvl/mxv
	BYTE	W06
	BYTE		        74*seq_068_mvl/mxv
	BYTE	W18
	BYTE		        75*seq_068_mvl/mxv
	BYTE	W06
	BYTE		        76*seq_068_mvl/mxv
	BYTE	W06
	BYTE		        76*seq_068_mvl/mxv
	BYTE	W06
	BYTE		        78*seq_068_mvl/mxv
	BYTE	W06
	BYTE		        79*seq_068_mvl/mxv
	BYTE	W06
	BYTE		        80*seq_068_mvl/mxv
	BYTE	W36
	BYTE	PEND
	BYTE	W42
	BYTE		VOL     78*seq_068_mvl/mxv
	BYTE	W06
	BYTE		        73*seq_068_mvl/mxv
	BYTE	W06
	BYTE		        66*seq_068_mvl/mxv
	BYTE	W06
	BYTE		        57*seq_068_mvl/mxv
	BYTE	W06
	BYTE		        50*seq_068_mvl/mxv
	BYTE	W06
	BYTE	PEND
	BYTE		EOT     Dn3 
	BYTE	W18
	BYTE		VOL     73*seq_068_mvl/mxv
	BYTE	W06
	BYTE	PATT
	 POIN2	seq_068_6 + 0x133
	BYTE	PATT
	 POIN2	seq_068_6 + 0x13D
	BYTE	PATT
	 POIN2	seq_068_6 + 0x169
	BYTE	PATT
	 POIN2	seq_068_6 + 0x177
	BYTE	PATT
	 POIN2	seq_068_6 + 0x182
	BYTE	PATT
	 POIN2	seq_068_6 + 0x198
	BYTE		EOT     Dn3 
	BYTE	W01
	BYTE		VOL     73*seq_068_mvl/mxv
	BYTE		N24     Bn2   v104
	BYTE	W24
	BYTE		        Cs3   v112
	BYTE	W24
	BYTE		TIE     Dn3   v104
	BYTE	W06
	BYTE		VOL     73*seq_068_mvl/mxv
	BYTE	W06
	BYTE		        74*seq_068_mvl/mxv
	BYTE	W18
	BYTE		        75*seq_068_mvl/mxv
	BYTE	W06
	BYTE		        76*seq_068_mvl/mxv
	BYTE	W06
	BYTE		        76*seq_068_mvl/mxv
	BYTE	W06
	BYTE		        78*seq_068_mvl/mxv
	BYTE	W06
	BYTE		        79*seq_068_mvl/mxv
	BYTE	W06
	BYTE		        80*seq_068_mvl/mxv
	BYTE	W36
	BYTE	PEND
	BYTE	PATT
	 POIN2	seq_068_6 + 0x1C7
	BYTE		EOT     Dn3 
	BYTE	W18
	BYTE		VOL     73*seq_068_mvl/mxv
	BYTE	W06
	BYTE		N06     An1   v112
	BYTE	W06
	BYTE		        Cn2   v104
	BYTE	W06
	BYTE		        En2   v100
	BYTE	W06
	BYTE		        An2   v096
	BYTE	W06
	BYTE		N05     Cn3   v088
	BYTE	W06
	BYTE		        Cn3   v040
	BYTE	W06
	BYTE		N06     An1   v100
	BYTE	W06
	BYTE		        Cn2   v092
	BYTE	W06
	BYTE		        En2 
	BYTE	W06
	BYTE		        An2   v084
	BYTE	W06
	BYTE		N05     Cn3   v080
	BYTE	W06
	BYTE		        Cn3   v040
	BYTE	W06
	BYTE		        Cn3   v020
	BYTE	W24
	BYTE	PEND
	BYTE		N06     An1   v112
	BYTE	W06
	BYTE		        Cn2   v104
	BYTE	W06
	BYTE		        Fn2   v100
	BYTE	W06
	BYTE		        An2   v096
	BYTE	W06
	BYTE		N05     Cn3   v088
	BYTE	W06
	BYTE		        Cn3   v040
	BYTE	W06
	BYTE		N06     An1   v100
	BYTE	W06
	BYTE		        Cn2   v092
	BYTE	W06
	BYTE		        Fn2 
	BYTE	W06
	BYTE		        An2   v084
	BYTE	W06
	BYTE		N05     Cn3   v080
	BYTE	W06
	BYTE		        Cn3   v040
	BYTE	W06
	BYTE		        Cn3   v020
	BYTE	W24
	BYTE	PEND
	BYTE	W24
	BYTE		N24     Cn3   v104
	BYTE	W24
	BYTE		        Bn2 
	BYTE	W24
	BYTE		        Cn3   v112
	BYTE	W09
	BYTE		VOL     74*seq_068_mvl/mxv
	BYTE	W03
	BYTE		        77*seq_068_mvl/mxv
	BYTE	W03
	BYTE		        80*seq_068_mvl/mxv
	BYTE	W09
	BYTE	PEND
	BYTE		VOL     73*seq_068_mvl/mxv
	BYTE		N24     En3   v108
	BYTE	W24
	BYTE		        Dn3   v100
	BYTE	W24
	BYTE		        An2 
	BYTE	W24
	BYTE		        Bn2   v092
	BYTE	W24
	BYTE	PEND
	BYTE	PATT
	 POIN2	seq_068_6 + 0x225
	BYTE	PATT
	 POIN2	seq_068_6 + 0x250
	BYTE	W24
	BYTE		N24     Cn3   v104
	BYTE	W24
	BYTE		        Bn2 
	BYTE	W24
	BYTE		        Cn3   v108
	BYTE	W24
	BYTE	PEND
	BYTE		N24     Dn3   v108
	BYTE	W24
	BYTE		        An2 
	BYTE	W24
	BYTE		        Bn2   v112
	BYTE	W24
	BYTE		        Cn3   v116
	BYTE	W24
	BYTE	PEND
	BYTE		TIE     Bn2   v104
	BYTE	W48
	BYTE	W03
	BYTE		VOL     74*seq_068_mvl/mxv
	BYTE	W06
	BYTE		        74*seq_068_mvl/mxv
	BYTE	W03
	BYTE		        75*seq_068_mvl/mxv
	BYTE	W03
	BYTE		        76*seq_068_mvl/mxv
	BYTE	W03
	BYTE		        76*seq_068_mvl/mxv
	BYTE	W03
	BYTE		        77*seq_068_mvl/mxv
	BYTE	W03
	BYTE		        78*seq_068_mvl/mxv
	BYTE	W03
	BYTE		        80*seq_068_mvl/mxv
	BYTE	W03
	BYTE		        80*seq_068_mvl/mxv
	BYTE	W12
	BYTE		        80*seq_068_mvl/mxv
	BYTE	W06
	BYTE	PEND
	BYTE	W03
	BYTE		VOL     78*seq_068_mvl/mxv
	BYTE	W03
	BYTE		        77*seq_068_mvl/mxv
	BYTE	W03
	BYTE		        76*seq_068_mvl/mxv
	BYTE	W03
	BYTE		        74*seq_068_mvl/mxv
	BYTE	W03
	BYTE		        72*seq_068_mvl/mxv
	BYTE	W03
	BYTE		        70*seq_068_mvl/mxv
	BYTE	W03
	BYTE		        67*seq_068_mvl/mxv
	BYTE	W03
	BYTE		        64*seq_068_mvl/mxv
	BYTE	W03
	BYTE		        60*seq_068_mvl/mxv
	BYTE	W03
	BYTE		        56*seq_068_mvl/mxv
	BYTE	W03
	BYTE		        52*seq_068_mvl/mxv
	BYTE	W03
	BYTE		        48*seq_068_mvl/mxv
	BYTE	W03
	BYTE		        44*seq_068_mvl/mxv
	BYTE	W03
	BYTE		        38*seq_068_mvl/mxv
	BYTE	W03
	BYTE		        33*seq_068_mvl/mxv
	BYTE	W03
	BYTE	PEND
	BYTE		EOT     Bn2 
	BYTE		VOL     73*seq_068_mvl/mxv
	BYTE		N24     An2   v100
	BYTE	W24
	BYTE		        Bn2   v092
	BYTE	W24
	BYTE		TIE     En3   v088
	BYTE	W96
	BYTE	W24
	BYTE		VOL     72*seq_068_mvl/mxv
	BYTE	W06
	BYTE		        71*seq_068_mvl/mxv
	BYTE	W03
	BYTE		        69*seq_068_mvl/mxv
	BYTE	W03
	BYTE		        68*seq_068_mvl/mxv
	BYTE	W03
	BYTE		        65*seq_068_mvl/mxv
	BYTE	W03
	BYTE		        62*seq_068_mvl/mxv
	BYTE	W03
	BYTE		        58*seq_068_mvl/mxv
	BYTE	W03
	BYTE		        54*seq_068_mvl/mxv
	BYTE	W03
	BYTE		        49*seq_068_mvl/mxv
	BYTE	W03
	BYTE		        44*seq_068_mvl/mxv
	BYTE	W03
	BYTE		        38*seq_068_mvl/mxv
	BYTE	W03
	BYTE		        31*seq_068_mvl/mxv
	BYTE	W03
	BYTE		        24*seq_068_mvl/mxv
	BYTE	W03
	BYTE		        16*seq_068_mvl/mxv
	BYTE	W03
	BYTE		        8*seq_068_mvl/mxv
	BYTE	W03
	BYTE	PEND
	BYTE		EOT     En3 
	BYTE	W18
	BYTE		VOL     73*seq_068_mvl/mxv
	BYTE	W06
	BYTE		N48     Gn2   v112
	BYTE	W48
	BYTE		        Cn3   v104
	BYTE	W48
	BYTE	PEND
	BYTE	PATT
	 POIN2	seq_068_6 + 0x13D
	BYTE	PATT
	 POIN2	seq_068_6 + 0x169
	BYTE	PATT
	 POIN2	seq_068_6 + 0x177
	BYTE	PATT
	 POIN2	seq_068_6 + 0x182
	BYTE	PATT
	 POIN2	seq_068_6 + 0x198
	BYTE		EOT     Dn3 
	BYTE	W01
	BYTE		VOL     73*seq_068_mvl/mxv
	BYTE		N24     Bn2   v104
	BYTE	W24
	BYTE		        Cs3   v112
	BYTE	W24
	BYTE	PATT
	 POIN2	seq_068_6 + 0x1B1
	BYTE	PATT
	 POIN2	seq_068_6 + 0x1C7
	BYTE		EOT     Dn3 
	BYTE	W18
	BYTE		VOL     73*seq_068_mvl/mxv
	BYTE	W06
	BYTE	PATT
	 POIN2	seq_068_6 + 0x133
	BYTE	PATT
	 POIN2	seq_068_6 + 0x13D
	BYTE	PATT
	 POIN2	seq_068_6 + 0x169
	BYTE	PATT
	 POIN2	seq_068_6 + 0x177
	BYTE	PATT
	 POIN2	seq_068_6 + 0x182
	BYTE	PATT
	 POIN2	seq_068_6 + 0x198
	BYTE		EOT     Dn3 
	BYTE	W01
	BYTE		VOL     73*seq_068_mvl/mxv
	BYTE		N24     Bn2   v104
	BYTE	W24
	BYTE		        Cs3   v112
	BYTE	W24
	BYTE	PATT
	 POIN2	seq_068_6 + 0x204
	BYTE	PATT
	 POIN2	seq_068_6 + 0x1C7
	BYTE		EOT     Dn3 
	BYTE	W18
	BYTE		VOL     73*seq_068_mvl/mxv
	BYTE	W06
	BYTE	PATT
	 POIN2	seq_068_6 + 0x225
	BYTE	PATT
	 POIN2	seq_068_6 + 0x250
	BYTE	PATT
	 POIN2	seq_068_6 + 0x27B
	BYTE	PATT
	 POIN2	seq_068_6 + 0x28D
	BYTE	PATT
	 POIN2	seq_068_6 + 0x225
	BYTE	PATT
	 POIN2	seq_068_6 + 0x250
	BYTE	PATT
	 POIN2	seq_068_6 + 0x2A6
	BYTE	PATT
	 POIN2	seq_068_6 + 0x2B1
	BYTE	PATT
	 POIN2	seq_068_6 + 0x2BE
	BYTE	PATT
	 POIN2	seq_068_6 + 0x2D9
	BYTE		EOT     Bn2 
	BYTE		VOL     73*seq_068_mvl/mxv
	BYTE		N24     An2   v100
	BYTE	W24
	BYTE		        Bn2   v092
	BYTE	W24
	BYTE		TIE     En3   v088
	BYTE	W96
	BYTE	PATT
	 POIN2	seq_068_6 + 0x309
	BYTE		EOT     En3 
	BYTE	W18
	BYTE		VOL     73*seq_068_mvl/mxv
	BYTE	W06
	BYTE	PATT
	 POIN2	seq_068_6 + 0x330
	BYTE	PATT
	 POIN2	seq_068_6 + 0x13D
	BYTE	PATT
	 POIN2	seq_068_6 + 0x169
	BYTE	PATT
	 POIN2	seq_068_6 + 0x177
	BYTE	PATT
	 POIN2	seq_068_6 + 0x182
	BYTE	PATT
	 POIN2	seq_068_6 + 0x198
	BYTE		EOT     Dn3 
	BYTE	W01
	BYTE		VOL     73*seq_068_mvl/mxv
	BYTE		N24     Bn2   v104
	BYTE	W24
	BYTE		        Cs3   v112
	BYTE	W24
	BYTE	PATT
	 POIN2	seq_068_6 + 0x1B1
	BYTE	PATT
	 POIN2	seq_068_6 + 0x1C7
	BYTE		EOT     Dn3 
	BYTE	W18
	BYTE		VOL     73*seq_068_mvl/mxv
	BYTE	W06
	BYTE	PATT
	 POIN2	seq_068_6 + 0x133
	BYTE	PATT
	 POIN2	seq_068_6 + 0x13D
	BYTE	PATT
	 POIN2	seq_068_6 + 0x169
	BYTE	PATT
	 POIN2	seq_068_6 + 0x177
	BYTE	PATT
	 POIN2	seq_068_6 + 0x182
	BYTE	PATT
	 POIN2	seq_068_6 + 0x198
	BYTE		EOT     Dn3 
	BYTE	W01
	BYTE		VOL     73*seq_068_mvl/mxv
	BYTE		N24     Bn2   v104
	BYTE	W24
	BYTE		        Cs3   v112
	BYTE	W24
	BYTE	PATT
	 POIN2	seq_068_6 + 0x204
	BYTE	PATT
	 POIN2	seq_068_6 + 0x1C7
	BYTE		EOT     Dn3 
	BYTE	W18
	BYTE		VOL     73*seq_068_mvl/mxv
	BYTE	W06
	BYTE	PATT
	 POIN2	seq_068_6 + 0x225
	BYTE	PATT
	 POIN2	seq_068_6 + 0x250
	BYTE	PATT
	 POIN2	seq_068_6 + 0x27B
	BYTE	PATT
	 POIN2	seq_068_6 + 0x28D
	BYTE	PATT
	 POIN2	seq_068_6 + 0x225
	BYTE	PATT
	 POIN2	seq_068_6 + 0x250
	BYTE	PATT
	 POIN2	seq_068_6 + 0x2A6
	BYTE		N24     Dn3   v108
	BYTE	W24
	BYTE		        An2 
	BYTE	W24
	BYTE		        Bn2 
	BYTE	W24
	BYTE		        Cn3   v112
	BYTE	W24
	BYTE	PATT
	 POIN2	seq_068_6 + 0x2BE
	BYTE	PATT
	 POIN2	seq_068_6 + 0x2D9
	BYTE		EOT     Bn2 
	BYTE		VOL     73*seq_068_mvl/mxv
	BYTE		N24     An2   v100
	BYTE	W24
	BYTE		        Bn2   v092
	BYTE	W24
	BYTE		TIE     En3   v088
	BYTE	W96
	BYTE	PATT
	 POIN2	seq_068_6 + 0x309
	BYTE		EOT     En3 
	BYTE	W02
	BYTE	W22
	BYTE	W96
	BYTE	W96
	BYTE	W96
	BYTE	W96
	BYTE	W96
	BYTE	W96
	BYTE	W90
	BYTE		VOICE   54
	BYTE	W01
	BYTE		PAN     c_v-34
	BYTE	W01
	BYTE		VOL     73*seq_068_mvl/mxv
	BYTE	W04
	BYTE		N11     An3   v056
	BYTE	W12
	BYTE		        En3   v060
	BYTE	W12
	BYTE		        Cs3   v068
	BYTE	W12
	BYTE		        An2   v072
	BYTE	W12
	BYTE		        En2   v080
	BYTE	W12
	BYTE		        Cs2   v076
	BYTE	W12
	BYTE		        An1   v080
	BYTE	W12
	BYTE		        En1   v076
	BYTE	W12
	BYTE		N12     Fn1   v084
	BYTE	W12
	BYTE		        Cn2   v076
	BYTE	W12
	BYTE		        Fn2   v072
	BYTE	W12
	BYTE		        An2   v060
	BYTE	W12
	BYTE		N24     Cn3 
	BYTE	W04
	BYTE		VOL     71*seq_068_mvl/mxv
	BYTE	W03
	BYTE		        70*seq_068_mvl/mxv
	BYTE	W02
	BYTE		        68*seq_068_mvl/mxv
	BYTE	W01
	BYTE		        66*seq_068_mvl/mxv
	BYTE	W02
	BYTE		        64*seq_068_mvl/mxv
	BYTE	W01
	BYTE		        60*seq_068_mvl/mxv
	BYTE	W02
	BYTE		        56*seq_068_mvl/mxv
	BYTE	W01
	BYTE		        52*seq_068_mvl/mxv
	BYTE	W02
	BYTE		        47*seq_068_mvl/mxv
	BYTE	W01
	BYTE		        41*seq_068_mvl/mxv
	BYTE	W02
	BYTE		        35*seq_068_mvl/mxv
	BYTE	W01
	BYTE		        28*seq_068_mvl/mxv
	BYTE	W20
	BYTE		        73*seq_068_mvl/mxv
	BYTE	W06
	BYTE		N12     Fn1   v072
	BYTE	W12
	BYTE		        Cn2   v068
	BYTE	W12
	BYTE		        Fn2   v060
	BYTE	W12
	BYTE		        An2   v052
	BYTE	W12
	BYTE		N24     Cn3 
	BYTE	W04
	BYTE		VOL     71*seq_068_mvl/mxv
	BYTE	W03
	BYTE		        70*seq_068_mvl/mxv
	BYTE	W02
	BYTE		        68*seq_068_mvl/mxv
	BYTE	W01
	BYTE		        66*seq_068_mvl/mxv
	BYTE	W02
	BYTE		        64*seq_068_mvl/mxv
	BYTE	W01
	BYTE		        60*seq_068_mvl/mxv
	BYTE	W02
	BYTE		        56*seq_068_mvl/mxv
	BYTE	W01
	BYTE		        52*seq_068_mvl/mxv
	BYTE	W02
	BYTE		        47*seq_068_mvl/mxv
	BYTE	W01
	BYTE		        41*seq_068_mvl/mxv
	BYTE	W02
	BYTE		        35*seq_068_mvl/mxv
	BYTE	W01
	BYTE		        28*seq_068_mvl/mxv
	BYTE	W20
	BYTE		        73*seq_068_mvl/mxv
	BYTE	W06
	BYTE		N12     Dn1   v084
	BYTE	W12
	BYTE		        An1   v076
	BYTE	W12
	BYTE		        Dn2   v072
	BYTE	W12
	BYTE		        Fn2   v060
	BYTE	W12
	BYTE		N24     An2   v056
	BYTE	W04
	BYTE		VOL     71*seq_068_mvl/mxv
	BYTE	W03
	BYTE		        70*seq_068_mvl/mxv
	BYTE	W02
	BYTE		        68*seq_068_mvl/mxv
	BYTE	W01
	BYTE		        66*seq_068_mvl/mxv
	BYTE	W02
	BYTE		        64*seq_068_mvl/mxv
	BYTE	W01
	BYTE		        60*seq_068_mvl/mxv
	BYTE	W02
	BYTE		        56*seq_068_mvl/mxv
	BYTE	W01
	BYTE		        52*seq_068_mvl/mxv
	BYTE	W02
	BYTE		        47*seq_068_mvl/mxv
	BYTE	W01
	BYTE		        41*seq_068_mvl/mxv
	BYTE	W02
	BYTE		        35*seq_068_mvl/mxv
	BYTE	W01
	BYTE		        28*seq_068_mvl/mxv
	BYTE	W20
	BYTE		        73*seq_068_mvl/mxv
	BYTE	W06
	BYTE		N12     Dn1   v076
	BYTE	W12
	BYTE		        An1   v068
	BYTE	W12
	BYTE		        Dn2   v064
	BYTE	W12
	BYTE		        Fn2   v056
	BYTE	W12
	BYTE		N24     An2   v052
	BYTE	W04
	BYTE		VOL     71*seq_068_mvl/mxv
	BYTE	W03
	BYTE		        70*seq_068_mvl/mxv
	BYTE	W02
	BYTE		        68*seq_068_mvl/mxv
	BYTE	W01
	BYTE		        66*seq_068_mvl/mxv
	BYTE	W02
	BYTE		        64*seq_068_mvl/mxv
	BYTE	W01
	BYTE		        60*seq_068_mvl/mxv
	BYTE	W02
	BYTE		        56*seq_068_mvl/mxv
	BYTE	W01
	BYTE		        52*seq_068_mvl/mxv
	BYTE	W02
	BYTE		        47*seq_068_mvl/mxv
	BYTE	W01
	BYTE		        41*seq_068_mvl/mxv
	BYTE	W02
	BYTE		        35*seq_068_mvl/mxv
	BYTE	W01
	BYTE		        28*seq_068_mvl/mxv
	BYTE	W20
	BYTE		        73*seq_068_mvl/mxv
	BYTE	W06
	BYTE		N12     As0   v080
	BYTE	W12
	BYTE		        Fn1   v076
	BYTE	W12
	BYTE		        As1   v064
	BYTE	W12
	BYTE		        Dn2   v060
	BYTE	W12
	BYTE		N24     Fn2   v056
	BYTE	W04
	BYTE		VOL     71*seq_068_mvl/mxv
	BYTE	W03
	BYTE		        70*seq_068_mvl/mxv
	BYTE	W02
	BYTE		        68*seq_068_mvl/mxv
	BYTE	W01
	BYTE		        66*seq_068_mvl/mxv
	BYTE	W02
	BYTE		        64*seq_068_mvl/mxv
	BYTE	W01
	BYTE		        60*seq_068_mvl/mxv
	BYTE	W02
	BYTE		        56*seq_068_mvl/mxv
	BYTE	W01
	BYTE		        52*seq_068_mvl/mxv
	BYTE	W02
	BYTE		        47*seq_068_mvl/mxv
	BYTE	W01
	BYTE		        41*seq_068_mvl/mxv
	BYTE	W02
	BYTE		        35*seq_068_mvl/mxv
	BYTE	W01
	BYTE		        28*seq_068_mvl/mxv
	BYTE	W20
	BYTE		        73*seq_068_mvl/mxv
	BYTE	W06
	BYTE		N12     As0   v072
	BYTE	W12
	BYTE		        Fn1   v064
	BYTE	W12
	BYTE		        As1   v060
	BYTE	W12
	BYTE		        Dn2   v052
	BYTE	W12
	BYTE		N24     Fn2   v048
	BYTE	W04
	BYTE		VOL     71*seq_068_mvl/mxv
	BYTE	W03
	BYTE		        70*seq_068_mvl/mxv
	BYTE	W02
	BYTE		        68*seq_068_mvl/mxv
	BYTE	W01
	BYTE		        66*seq_068_mvl/mxv
	BYTE	W02
	BYTE		        64*seq_068_mvl/mxv
	BYTE	W01
	BYTE		        60*seq_068_mvl/mxv
	BYTE	W02
	BYTE		        56*seq_068_mvl/mxv
	BYTE	W01
	BYTE		        52*seq_068_mvl/mxv
	BYTE	W02
	BYTE		        47*seq_068_mvl/mxv
	BYTE	W01
	BYTE		        41*seq_068_mvl/mxv
	BYTE	W02
	BYTE		        35*seq_068_mvl/mxv
	BYTE	W01
	BYTE		        28*seq_068_mvl/mxv
	BYTE	W20
	BYTE		        73*seq_068_mvl/mxv
	BYTE	W06
	BYTE		N12     Ds1   v084
	BYTE	W12
	BYTE		        As1   v080
	BYTE	W12
	BYTE		        Ds2   v072
	BYTE	W12
	BYTE		        Gn2   v064
	BYTE	W12
	BYTE		N24     As2   v060
	BYTE	W04
	BYTE		VOL     71*seq_068_mvl/mxv
	BYTE	W03
	BYTE		        70*seq_068_mvl/mxv
	BYTE	W02
	BYTE		        68*seq_068_mvl/mxv
	BYTE	W01
	BYTE		        66*seq_068_mvl/mxv
	BYTE	W02
	BYTE		        64*seq_068_mvl/mxv
	BYTE	W01
	BYTE		        60*seq_068_mvl/mxv
	BYTE	W02
	BYTE		        56*seq_068_mvl/mxv
	BYTE	W01
	BYTE		        52*seq_068_mvl/mxv
	BYTE	W02
	BYTE		        47*seq_068_mvl/mxv
	BYTE	W01
	BYTE		        41*seq_068_mvl/mxv
	BYTE	W02
	BYTE		        35*seq_068_mvl/mxv
	BYTE	W01
	BYTE		        28*seq_068_mvl/mxv
	BYTE	W20
	BYTE		        73*seq_068_mvl/mxv
	BYTE	W06
	BYTE		N12     Ds1   v076
	BYTE	W12
	BYTE		        As1   v072
	BYTE	W12
	BYTE		        Ds2   v064
	BYTE	W12
	BYTE		        Gn2   v056
	BYTE	W12
	BYTE		N24     As2 
	BYTE	W04
	BYTE		VOL     71*seq_068_mvl/mxv
	BYTE	W03
	BYTE		        70*seq_068_mvl/mxv
	BYTE	W02
	BYTE		        68*seq_068_mvl/mxv
	BYTE	W01
	BYTE		        66*seq_068_mvl/mxv
	BYTE	W02
	BYTE		        64*seq_068_mvl/mxv
	BYTE	W01
	BYTE		        60*seq_068_mvl/mxv
	BYTE	W02
	BYTE		        56*seq_068_mvl/mxv
	BYTE	W01
	BYTE		        52*seq_068_mvl/mxv
	BYTE	W02
	BYTE		        47*seq_068_mvl/mxv
	BYTE	W01
	BYTE		        41*seq_068_mvl/mxv
	BYTE	W02
	BYTE		        35*seq_068_mvl/mxv
	BYTE	W01
	BYTE		        28*seq_068_mvl/mxv
	BYTE	W20
	BYTE		        73*seq_068_mvl/mxv
	BYTE	W06
	BYTE		N12     Cn1   v076
	BYTE	W12
	BYTE		        Gn1   v068
	BYTE	W12
	BYTE		        Cn2 
	BYTE	W12
	BYTE		        Ds2   v064
	BYTE	W12
	BYTE		N24     Gn2   v060
	BYTE	W04
	BYTE		VOL     71*seq_068_mvl/mxv
	BYTE	W03
	BYTE		        70*seq_068_mvl/mxv
	BYTE	W02
	BYTE		        68*seq_068_mvl/mxv
	BYTE	W01
	BYTE		        66*seq_068_mvl/mxv
	BYTE	W02
	BYTE		        64*seq_068_mvl/mxv
	BYTE	W01
	BYTE		        60*seq_068_mvl/mxv
	BYTE	W02
	BYTE		        56*seq_068_mvl/mxv
	BYTE	W01
	BYTE		        52*seq_068_mvl/mxv
	BYTE	W02
	BYTE		        47*seq_068_mvl/mxv
	BYTE	W01
	BYTE		        41*seq_068_mvl/mxv
	BYTE	W02
	BYTE		        35*seq_068_mvl/mxv
	BYTE	W01
	BYTE		        28*seq_068_mvl/mxv
	BYTE	W20
	BYTE		        73*seq_068_mvl/mxv
	BYTE	W06
	BYTE		N12     Cn1   v076
	BYTE	W12
	BYTE		        Gn1 
	BYTE	W12
	BYTE		        Cn2   v068
	BYTE	W12
	BYTE		        Ds2   v072
	BYTE	W12
	BYTE		N24     Gn2   v068
	BYTE	W04
	BYTE		VOL     71*seq_068_mvl/mxv
	BYTE	W03
	BYTE		        70*seq_068_mvl/mxv
	BYTE	W02
	BYTE		        68*seq_068_mvl/mxv
	BYTE	W01
	BYTE		        66*seq_068_mvl/mxv
	BYTE	W02
	BYTE		        64*seq_068_mvl/mxv
	BYTE	W01
	BYTE		        60*seq_068_mvl/mxv
	BYTE	W02
	BYTE		        56*seq_068_mvl/mxv
	BYTE	W01
	BYTE		        52*seq_068_mvl/mxv
	BYTE	W02
	BYTE		        47*seq_068_mvl/mxv
	BYTE	W01
	BYTE		        41*seq_068_mvl/mxv
	BYTE	W02
	BYTE		        35*seq_068_mvl/mxv
	BYTE	W01
	BYTE		        28*seq_068_mvl/mxv
	BYTE	W20
	BYTE		        73*seq_068_mvl/mxv
	BYTE	W06
	BYTE		N12     Gn0   v076
	BYTE	W12
	BYTE		        Gn1   v072
	BYTE	W12
	BYTE		        Bn1   v068
	BYTE	W12
	BYTE		        Dn2   v064
	BYTE	W12
	BYTE		N24     Gn2   v060
	BYTE	W04
	BYTE		VOL     71*seq_068_mvl/mxv
	BYTE	W03
	BYTE		        70*seq_068_mvl/mxv
	BYTE	W02
	BYTE		        68*seq_068_mvl/mxv
	BYTE	W01
	BYTE		        66*seq_068_mvl/mxv
	BYTE	W02
	BYTE		        64*seq_068_mvl/mxv
	BYTE	W01
	BYTE		        60*seq_068_mvl/mxv
	BYTE	W02
	BYTE		        56*seq_068_mvl/mxv
	BYTE	W01
	BYTE		        52*seq_068_mvl/mxv
	BYTE	W02
	BYTE		        47*seq_068_mvl/mxv
	BYTE	W01
	BYTE		        41*seq_068_mvl/mxv
	BYTE	W02
	BYTE		        35*seq_068_mvl/mxv
	BYTE	W01
	BYTE		        28*seq_068_mvl/mxv
	BYTE	W20
	BYTE		        73*seq_068_mvl/mxv
	BYTE	W06
	BYTE		N12     Gn0   v068
	BYTE	W12
	BYTE		        Gn1   v060
	BYTE	W12
	BYTE		        Bn1   v056
	BYTE	W12
	BYTE		        Dn2   v048
	BYTE	W12
	BYTE		N24     Gn2   v044
	BYTE	W04
	BYTE		VOL     71*seq_068_mvl/mxv
	BYTE	W03
	BYTE		        70*seq_068_mvl/mxv
	BYTE	W02
	BYTE		        68*seq_068_mvl/mxv
	BYTE	W01
	BYTE		        66*seq_068_mvl/mxv
	BYTE	W02
	BYTE		        64*seq_068_mvl/mxv
	BYTE	W01
	BYTE		        60*seq_068_mvl/mxv
	BYTE	W02
	BYTE		        56*seq_068_mvl/mxv
	BYTE	W01
	BYTE		        52*seq_068_mvl/mxv
	BYTE	W02
	BYTE		        47*seq_068_mvl/mxv
	BYTE	W01
	BYTE		        41*seq_068_mvl/mxv
	BYTE	W02
	BYTE		        35*seq_068_mvl/mxv
	BYTE	W01
	BYTE		        28*seq_068_mvl/mxv
	BYTE	W10
	BYTE	W16
	BYTE	W96
	BYTE	W96
	BYTE	W96
	BYTE	W01
	BYTE	W01
	BYTE		VOICE   45
	BYTE	W01
	BYTE		PAN     c_v-64
	BYTE	W05
	BYTE		VOL     73*seq_068_mvl/mxv
	BYTE	W88
	BYTE	W05
	BYTE		TIE     Gn3   v024
	BYTE	W06
	BYTE		VOL     74*seq_068_mvl/mxv
	BYTE	W03
	BYTE		        74*seq_068_mvl/mxv
	BYTE	W18
	BYTE		        75*seq_068_mvl/mxv
	BYTE	W06
	BYTE		        76*seq_068_mvl/mxv
	BYTE	W12
	BYTE		        76*seq_068_mvl/mxv
	BYTE	W06
	BYTE		        77*seq_068_mvl/mxv
	BYTE	W03
	BYTE		        78*seq_068_mvl/mxv
	BYTE	W06
	BYTE		        78*seq_068_mvl/mxv
	BYTE	W06
	BYTE		        78*seq_068_mvl/mxv
	BYTE	W06
	BYTE		        76*seq_068_mvl/mxv
	BYTE	W03
	BYTE		        73*seq_068_mvl/mxv
	BYTE	W03
	BYTE		        69*seq_068_mvl/mxv
	BYTE	W03
	BYTE		        64*seq_068_mvl/mxv
	BYTE	W03
	BYTE		        58*seq_068_mvl/mxv
	BYTE	W03
	BYTE		        50*seq_068_mvl/mxv
	BYTE	W03
	BYTE		        42*seq_068_mvl/mxv
	BYTE	W01
	BYTE	PEND
	BYTE	W02
	BYTE		VOL     32*seq_068_mvl/mxv
	BYTE	W03
	BYTE		        24*seq_068_mvl/mxv
	BYTE	W03
	BYTE		        17*seq_068_mvl/mxv
	BYTE	W03
	BYTE		        12*seq_068_mvl/mxv
	BYTE	W03
	BYTE	PEND
	BYTE		EOT     Gn3 
	BYTE	W03
	BYTE		VOL     73*seq_068_mvl/mxv
	BYTE		N06     Gn3   v024
	BYTE	W06
	BYTE		        Fs3   v020
	BYTE	W06
	BYTE		N04     Gn3   v024
	BYTE	W12
	BYTE		        An3   v020
	BYTE	W12
	BYTE		N12     As3   v024
	BYTE	W12
	BYTE		N04     Cn4   v020
	BYTE	W12
	BYTE		        As3 
	BYTE	W12
	BYTE		        An3 
	BYTE	W07
	BYTE	W05
	BYTE		N24     Gn3 
	BYTE	W24
	BYTE		N04     Fs3 
	BYTE	W12
	BYTE		        An3 
	BYTE	W12
	BYTE		TIE     Gn3   v016
	BYTE	W21
	BYTE		VOL     72*seq_068_mvl/mxv
	BYTE	W09
	BYTE		        71*seq_068_mvl/mxv
	BYTE	W03
	BYTE		        70*seq_068_mvl/mxv
	BYTE	W03
	BYTE		        70*seq_068_mvl/mxv
	BYTE	W03
	BYTE		        69*seq_068_mvl/mxv
	BYTE	W03
	BYTE		        68*seq_068_mvl/mxv
	BYTE	W01
	BYTE	W02
	BYTE		        67*seq_068_mvl/mxv
	BYTE	W03
	BYTE		        66*seq_068_mvl/mxv
	BYTE	W03
	BYTE		        64*seq_068_mvl/mxv
	BYTE	W03
	BYTE		        63*seq_068_mvl/mxv
	BYTE	W03
	BYTE		        62*seq_068_mvl/mxv
	BYTE	W03
	BYTE		        60*seq_068_mvl/mxv
	BYTE	W03
	BYTE		        58*seq_068_mvl/mxv
	BYTE	W03
	BYTE		        56*seq_068_mvl/mxv
	BYTE	W03
	BYTE		        54*seq_068_mvl/mxv
	BYTE	W03
	BYTE		        52*seq_068_mvl/mxv
	BYTE	W03
	BYTE		        49*seq_068_mvl/mxv
	BYTE	W03
	BYTE		        46*seq_068_mvl/mxv
	BYTE	W03
	BYTE		        44*seq_068_mvl/mxv
	BYTE	W03
	BYTE		        40*seq_068_mvl/mxv
	BYTE	W03
	BYTE		        38*seq_068_mvl/mxv
	BYTE	W03
	BYTE		        34*seq_068_mvl/mxv
	BYTE	W03
	BYTE		        31*seq_068_mvl/mxv
	BYTE	W03
	BYTE		        28*seq_068_mvl/mxv
	BYTE	W03
	BYTE		        24*seq_068_mvl/mxv
	BYTE	W03
	BYTE		        20*seq_068_mvl/mxv
	BYTE	W03
	BYTE		        16*seq_068_mvl/mxv
	BYTE	W03
	BYTE		        12*seq_068_mvl/mxv
	BYTE	W03
	BYTE		        8*seq_068_mvl/mxv
	BYTE	W03
	BYTE		        4*seq_068_mvl/mxv
	BYTE	W03
	BYTE		        1*seq_068_mvl/mxv
	BYTE	W03
	BYTE		EOT
	BYTE	W19
	BYTE	W24
	BYTE		VOICE   41
	BYTE	W01
	BYTE		PAN     c_v+16
	BYTE	W01
	BYTE		VOL     73*seq_068_mvl/mxv
	BYTE		BENDR   6
	BYTE	W22
	BYTE		N24     Ds3   v092
	BYTE	W15
	BYTE		BEND    c_v-2
	BYTE	W01
	BYTE		        c_v-6
	BYTE	W01
	BYTE		        c_v-10
	BYTE	W01
	BYTE		        c_v-15
	BYTE	W01
	BYTE		        c_v-20
	BYTE	W01
	BYTE		        c_v-24
	BYTE	W01
	BYTE		        c_v-29
	BYTE	W01
	BYTE		        c_v-33
	BYTE	W24
	BYTE	W02
	BYTE		        c_v+1
	BYTE	W48
	BYTE		N24     Ds3   v084
	BYTE	W15
	BYTE		BEND    c_v-2
	BYTE	W01
	BYTE		        c_v-6
	BYTE	W01
	BYTE		        c_v-10
	BYTE	W01
	BYTE		        c_v-15
	BYTE	W01
	BYTE		        c_v-20
	BYTE	W01
	BYTE		        c_v-24
	BYTE	W01
	BYTE		        c_v-29
	BYTE	W01
	BYTE		        c_v-33
	BYTE	W01
	BYTE	W19
	BYTE	W01
	BYTE		VOICE   45
	BYTE	W01
	BYTE		PAN     c_v-64
	BYTE	W01
	BYTE		VOL     73*seq_068_mvl/mxv
	BYTE	W01
	BYTE		BEND    c_v+0
	BYTE	W02
	BYTE	PATT
	 POIN2	seq_068_6 + 0x6F8
	BYTE	PATT
	 POIN2	seq_068_6 + 0x71F
	BYTE		EOT     Gn3 
	BYTE	W03
	BYTE		VOL     73*seq_068_mvl/mxv
	BYTE		N06     Gn3   v024
	BYTE	W06
	BYTE		        Fs3   v020
	BYTE	W06
	BYTE		N04     Gn3   v024
	BYTE	W12
	BYTE		        An3   v020
	BYTE	W12
	BYTE		N12     As3   v024
	BYTE	W12
	BYTE		N04     Cn4   v020
	BYTE	W12
	BYTE		        As3 
	BYTE	W12
	BYTE		        An3 
	BYTE	W07
	BYTE	W05
	BYTE		N12     Gn3   v024
	BYTE	W12
	BYTE		N06     Fs3 
	BYTE	W06
	BYTE		        An3   v020
	BYTE	W06
	BYTE		N04     Gn3   v024
	BYTE	W12
	BYTE		        Ds3   v020
	BYTE	W12
	BYTE		        Fn3 
	BYTE	W12
	BYTE		        Ds3   v024
	BYTE	W12
	BYTE		        Dn3 
	BYTE	W12
	BYTE		        As2 
	BYTE	W07
	BYTE	W05
	BYTE		N96     Cn3 
	BYTE	W24
	BYTE		VOL     72*seq_068_mvl/mxv
	BYTE	W09
	BYTE		        71*seq_068_mvl/mxv
	BYTE	W03
	BYTE		        70*seq_068_mvl/mxv
	BYTE	W03
	BYTE		        69*seq_068_mvl/mxv
	BYTE	W03
	BYTE		        68*seq_068_mvl/mxv
	BYTE	W03
	BYTE		        66*seq_068_mvl/mxv
	BYTE	W03
	BYTE		        64*seq_068_mvl/mxv
	BYTE	W03
	BYTE		        62*seq_068_mvl/mxv
	BYTE	W03
	BYTE		        59*seq_068_mvl/mxv
	BYTE	W03
	BYTE		        56*seq_068_mvl/mxv
	BYTE	W03
	BYTE		        53*seq_068_mvl/mxv
	BYTE	W03
	BYTE		        50*seq_068_mvl/mxv
	BYTE	W03
	BYTE		        46*seq_068_mvl/mxv
	BYTE	W03
	BYTE		        42*seq_068_mvl/mxv
	BYTE	W03
	BYTE		        38*seq_068_mvl/mxv
	BYTE	W03
	BYTE		        34*seq_068_mvl/mxv
	BYTE	W03
	BYTE		        29*seq_068_mvl/mxv
	BYTE	W03
	BYTE		        24*seq_068_mvl/mxv
	BYTE	W03
	BYTE		        18*seq_068_mvl/mxv
	BYTE	W03
	BYTE		        13*seq_068_mvl/mxv
	BYTE	W03
	BYTE		        8*seq_068_mvl/mxv
	BYTE	W01
	BYTE	W02
	BYTE		        4*seq_068_mvl/mxv
	BYTE	W28
	BYTE		VOICE   41
	BYTE	W01
	BYTE		PAN     c_v+16
	BYTE	W01
	BYTE		VOL     73*seq_068_mvl/mxv
	BYTE		BENDR   6
	BYTE	W16
	BYTE		N24     Ds3   v092
	BYTE	W15
	BYTE		BEND    c_v-2
	BYTE	W01
	BYTE		        c_v-6
	BYTE	W01
	BYTE		        c_v-10
	BYTE	W01
	BYTE		        c_v-15
	BYTE	W01
	BYTE		        c_v-20
	BYTE	W01
	BYTE		        c_v-24
	BYTE	W01
	BYTE		        c_v-29
	BYTE	W01
	BYTE		        c_v-33
	BYTE	W24
	BYTE	W02
	BYTE		        c_v+1
	BYTE	W48
	BYTE		N24     Ds3   v084
	BYTE	W15
	BYTE		BEND    c_v-2
	BYTE	W01
	BYTE		        c_v-6
	BYTE	W01
	BYTE		        c_v-10
	BYTE	W01
	BYTE		        c_v-15
	BYTE	W01
	BYTE		        c_v-20
	BYTE	W01
	BYTE		        c_v-24
	BYTE	W01
	BYTE		        c_v-29
	BYTE	W01
	BYTE		        c_v-33
	BYTE	W14
	BYTE		PAN     c_v-24
	BYTE		BEND    c_v+1
	BYTE	W12
	BYTE		N23     Cn3   v092
	BYTE	W24
	BYTE		N05
	BYTE	W08
	BYTE		N04     Cn3   v088
	BYTE	W08
	BYTE		        Cn3   v084
	BYTE	W08
	BYTE		N09     Fn3   v088
	BYTE	W12
	BYTE		N06     Fn3   v012
	BYTE	W12
	BYTE		N09     Fn3   v076
	BYTE	W12
	BYTE		N06     Fn3   v012
	BYTE	W12
	BYTE		N48     Gn3   v088
	BYTE	W48
	BYTE		N23     As3 
	BYTE	W24
	BYTE		N24     As3   v080
	BYTE	W24
	BYTE		VOL     65*seq_068_mvl/mxv
	BYTE		N72     Gs3 
	BYTE	W09
	BYTE		VOL     66*seq_068_mvl/mxv
	BYTE	W06
	BYTE		        66*seq_068_mvl/mxv
	BYTE	W06
	BYTE		        67*seq_068_mvl/mxv
	BYTE	W03
	BYTE		        68*seq_068_mvl/mxv
	BYTE	W03
	BYTE		        70*seq_068_mvl/mxv
	BYTE	W03
	BYTE		        70*seq_068_mvl/mxv
	BYTE	W03
	BYTE		        72*seq_068_mvl/mxv
	BYTE	W03
	BYTE		        74*seq_068_mvl/mxv
	BYTE	W03
	BYTE		        75*seq_068_mvl/mxv
	BYTE	W03
	BYTE		        77*seq_068_mvl/mxv
	BYTE	W03
	BYTE		        80*seq_068_mvl/mxv
	BYTE	W09
	BYTE		        78*seq_068_mvl/mxv
	BYTE	W03
	BYTE		        78*seq_068_mvl/mxv
	BYTE	W03
	BYTE		        77*seq_068_mvl/mxv
	BYTE	W03
	BYTE		        76*seq_068_mvl/mxv
	BYTE	W03
	BYTE		        75*seq_068_mvl/mxv
	BYTE	W03
	BYTE		        74*seq_068_mvl/mxv
	BYTE	W03
	BYTE		        73*seq_068_mvl/mxv
	BYTE		N24     Fs3 
	BYTE	W24
	BYTE		N92     Fn3 
	BYTE	W44
	BYTE	W01
	BYTE		VOL     72*seq_068_mvl/mxv
	BYTE	W09
	BYTE		        72*seq_068_mvl/mxv
	BYTE	W03
	BYTE		        71*seq_068_mvl/mxv
	BYTE	W03
	BYTE		        70*seq_068_mvl/mxv
	BYTE	W03
	BYTE		        70*seq_068_mvl/mxv
	BYTE	W03
	BYTE		        69*seq_068_mvl/mxv
	BYTE	W03
	BYTE		        68*seq_068_mvl/mxv
	BYTE	W03
	BYTE		        67*seq_068_mvl/mxv
	BYTE	W03
	BYTE		        66*seq_068_mvl/mxv
	BYTE	W03
	BYTE		        65*seq_068_mvl/mxv
	BYTE	W03
	BYTE		        63*seq_068_mvl/mxv
	BYTE	W03
	BYTE		        62*seq_068_mvl/mxv
	BYTE	W03
	BYTE		        60*seq_068_mvl/mxv
	BYTE	W03
	BYTE		        58*seq_068_mvl/mxv
	BYTE	W03
	BYTE		        56*seq_068_mvl/mxv
	BYTE	W03
	BYTE		        73*seq_068_mvl/mxv
	BYTE		N48
	BYTE	W48
	BYTE		N24     Cs3   v088
	BYTE	W24
	BYTE		        Ds3   v092
	BYTE	W24
	BYTE		N48     Fn3 
	BYTE	W48
	BYTE		N24     Cs3   v088
	BYTE	W24
	BYTE		        Ds3   v092
	BYTE	W24
	BYTE		TIE     Fn3 
	BYTE	W24
	BYTE		VOL     74*seq_068_mvl/mxv
	BYTE	W06
	BYTE		        74*seq_068_mvl/mxv
	BYTE	W06
	BYTE		        75*seq_068_mvl/mxv
	BYTE	W06
	BYTE		        76*seq_068_mvl/mxv
	BYTE	W06
	BYTE		        77*seq_068_mvl/mxv
	BYTE	W06
	BYTE		        78*seq_068_mvl/mxv
	BYTE	W06
	BYTE		        81*seq_068_mvl/mxv
	BYTE	W12
	BYTE		        80*seq_068_mvl/mxv
	BYTE	W12
	BYTE		        80*seq_068_mvl/mxv
	BYTE	W06
	BYTE		        79*seq_068_mvl/mxv
	BYTE	W06
	BYTE		        78*seq_068_mvl/mxv
	BYTE	W06
	BYTE		        76*seq_068_mvl/mxv
	BYTE	W06
	BYTE		        74*seq_068_mvl/mxv
	BYTE	W06
	BYTE		        73*seq_068_mvl/mxv
	BYTE	W06
	BYTE		        70*seq_068_mvl/mxv
	BYTE	W06
	BYTE		        68*seq_068_mvl/mxv
	BYTE	W06
	BYTE		        65*seq_068_mvl/mxv
	BYTE	W06
	BYTE		        62*seq_068_mvl/mxv
	BYTE	W06
	BYTE		        58*seq_068_mvl/mxv
	BYTE	W06
	BYTE		        54*seq_068_mvl/mxv
	BYTE	W06
	BYTE		        50*seq_068_mvl/mxv
	BYTE	W06
	BYTE		        45*seq_068_mvl/mxv
	BYTE	W06
	BYTE		        40*seq_068_mvl/mxv
	BYTE	W06
	BYTE		        35*seq_068_mvl/mxv
	BYTE	W06
	BYTE		        30*seq_068_mvl/mxv
	BYTE	W06
	BYTE		        24*seq_068_mvl/mxv
	BYTE	W03
	BYTE		EOT
	BYTE	W01
	BYTE		PAN     c_v+16
	BYTE	W02
	BYTE		VOL     73*seq_068_mvl/mxv
	BYTE		PAN     c_v+16
	BYTE		N48     Fn3   v104
	BYTE	W03
	BYTE	W44
	BYTE	W01
	BYTE		N24     An2   v096
	BYTE	W24
	BYTE		        As2   v104
	BYTE	W24
	BYTE		VOL     64*seq_068_mvl/mxv
	BYTE		N72     Cn3   v112
	BYTE	W04
	BYTE		VOL     64*seq_068_mvl/mxv
	BYTE	W04
	BYTE		        66*seq_068_mvl/mxv
	BYTE	W04
	BYTE		        68*seq_068_mvl/mxv
	BYTE	W04
	BYTE		        70*seq_068_mvl/mxv
	BYTE	W04
	BYTE		        74*seq_068_mvl/mxv
	BYTE	W04
	BYTE		        78*seq_068_mvl/mxv
	BYTE	W04
	BYTE		        81*seq_068_mvl/mxv
	BYTE	W24
	BYTE		        80*seq_068_mvl/mxv
	BYTE	W04
	BYTE		        79*seq_068_mvl/mxv
	BYTE	W04
	BYTE		        77*seq_068_mvl/mxv
	BYTE	W04
	BYTE		        75*seq_068_mvl/mxv
	BYTE	W04
	BYTE		        72*seq_068_mvl/mxv
	BYTE	W04
	BYTE		        73*seq_068_mvl/mxv
	BYTE		N24     Gn3   v092
	BYTE	W24
	BYTE	PEND
	BYTE		N96     Fn3   v096
	BYTE	W96
	BYTE		N44     Cs3   v092
	BYTE	W48
	BYTE		N24     Cs3   v104
	BYTE	W24
	BYTE		        Ds3 
	BYTE	W24
	BYTE	PEND
	BYTE		N48     Fn3   v104
	BYTE	W48
	BYTE		        As3   v096
	BYTE	W48
	BYTE	PEND
	BYTE		N72     Gn3   v092
	BYTE	W72
	BYTE		N23     Ds3   v088
	BYTE	W24
	BYTE	PEND
	BYTE		N48     Fn3   v100
	BYTE	W48
	BYTE		        Cn4   v092
	BYTE	W48
	BYTE	PEND
	BYTE		N96     Gn3   v092
	BYTE	W44
	BYTE		VOL     72*seq_068_mvl/mxv
	BYTE	W08
	BYTE		        71*seq_068_mvl/mxv
	BYTE	W04
	BYTE		        70*seq_068_mvl/mxv
	BYTE	W04
	BYTE		        68*seq_068_mvl/mxv
	BYTE	W04
	BYTE		        66*seq_068_mvl/mxv
	BYTE	W04
	BYTE		        63*seq_068_mvl/mxv
	BYTE	W04
	BYTE		        60*seq_068_mvl/mxv
	BYTE	W04
	BYTE		        55*seq_068_mvl/mxv
	BYTE	W04
	BYTE		        50*seq_068_mvl/mxv
	BYTE	W04
	BYTE		        46*seq_068_mvl/mxv
	BYTE	W04
	BYTE		        40*seq_068_mvl/mxv
	BYTE	W04
	BYTE		        35*seq_068_mvl/mxv
	BYTE	W04
	BYTE	PEND
	BYTE		VOL     73*seq_068_mvl/mxv
	BYTE		N48     Fn3   v104
	BYTE	W48
	BYTE		N24     An2   v096
	BYTE	W24
	BYTE		        As2   v104
	BYTE	W24
	BYTE	PEND
	BYTE	PATT
	 POIN2	seq_068_6 + 0x96B
	BYTE		N96     Fn3   v096
	BYTE	W96
	BYTE	PATT
	 POIN2	seq_068_6 + 0x994
	BYTE		N48     Fn3   v104
	BYTE	W48
	BYTE		        Gs3   v100
	BYTE	W48
	BYTE	PEND
	BYTE		N72     Gn3   v096
	BYTE	W72
	BYTE		N24     Ds3   v088
	BYTE	W24
	BYTE	PEND
	BYTE		TIE     Fn3   v096
	BYTE	W06
	BYTE		VOL     74*seq_068_mvl/mxv
	BYTE	W18
	BYTE		        74*seq_068_mvl/mxv
	BYTE	W06
	BYTE		        75*seq_068_mvl/mxv
	BYTE	W06
	BYTE		        76*seq_068_mvl/mxv
	BYTE	W06
	BYTE		        76*seq_068_mvl/mxv
	BYTE	W06
	BYTE		        77*seq_068_mvl/mxv
	BYTE	W06
	BYTE		        78*seq_068_mvl/mxv
	BYTE	W06
	BYTE		        79*seq_068_mvl/mxv
	BYTE	W12
	BYTE		        78*seq_068_mvl/mxv
	BYTE	W12
	BYTE		        77*seq_068_mvl/mxv
	BYTE	W06
	BYTE		        76*seq_068_mvl/mxv
	BYTE	W06
	BYTE	PEND
	BYTE		VOL     75*seq_068_mvl/mxv
	BYTE	W06
	BYTE		        73*seq_068_mvl/mxv
	BYTE	W06
	BYTE		        71*seq_068_mvl/mxv
	BYTE	W06
	BYTE		        69*seq_068_mvl/mxv
	BYTE	W06
	BYTE		        67*seq_068_mvl/mxv
	BYTE	W06
	BYTE		        64*seq_068_mvl/mxv
	BYTE	W06
	BYTE		        62*seq_068_mvl/mxv
	BYTE	W06
	BYTE		        58*seq_068_mvl/mxv
	BYTE	W06
	BYTE		        55*seq_068_mvl/mxv
	BYTE	W06
	BYTE		        52*seq_068_mvl/mxv
	BYTE	W06
	BYTE		        48*seq_068_mvl/mxv
	BYTE	W06
	BYTE		        44*seq_068_mvl/mxv
	BYTE	W06
	BYTE	PEND
	BYTE		EOT     Fn3 
	BYTE	W24
	BYTE	W96
	BYTE	W72
	BYTE		VOL     73*seq_068_mvl/mxv
	BYTE	W12
	BYTE		PAN     c_v-34
	BYTE	W12
	BYTE	PEND
	BYTE		N12     Cs3   v112
	BYTE	W12
	BYTE		N06     Bn2   v108
	BYTE	W06
	BYTE		        As2   v104
	BYTE	W06
	BYTE		N04     Gs2   v112
	BYTE	W12
	BYTE		        Fs2 
	BYTE	W12
	BYTE		        Fn2 
	BYTE	W12
	BYTE		        Gs2   v104
	BYTE	W12
	BYTE		        Fs2   v112
	BYTE	W12
	BYTE		        Ds2   v100
	BYTE	W12
	BYTE	PEND
	BYTE		        Fn2   v116
	BYTE	W12
	BYTE		        Gs2   v112
	BYTE	W12
	BYTE		        Fs2   v116
	BYTE	W12
	BYTE		        Ds2   v112
	BYTE	W12
	BYTE		        Fn2   v120
	BYTE	W12
	BYTE		        Cs2   v116
	BYTE	W12
	BYTE		N24     Ds2   v112
	BYTE	W03
	BYTE		VOL     72*seq_068_mvl/mxv
	BYTE	W06
	BYTE		        71*seq_068_mvl/mxv
	BYTE	W03
	BYTE		        69*seq_068_mvl/mxv
	BYTE	W03
	BYTE		        66*seq_068_mvl/mxv
	BYTE	W03
	BYTE		        62*seq_068_mvl/mxv
	BYTE	W03
	BYTE		        58*seq_068_mvl/mxv
	BYTE	W03
	BYTE	W12
	BYTE		PAN     c_v+26
	BYTE	W06
	BYTE		VOL     73*seq_068_mvl/mxv
	BYTE	W06
	BYTE		N23     An2   v076
	BYTE	W03
	BYTE		VOL     72*seq_068_mvl/mxv
	BYTE	W06
	BYTE		        71*seq_068_mvl/mxv
	BYTE	W03
	BYTE		        69*seq_068_mvl/mxv
	BYTE	W03
	BYTE		        66*seq_068_mvl/mxv
	BYTE	W03
	BYTE		        62*seq_068_mvl/mxv
	BYTE	W03
	BYTE		        58*seq_068_mvl/mxv
	BYTE	W03
	BYTE		N05     An2   v028
	BYTE	W06
	BYTE		        An2   v016
	BYTE	W06
	BYTE		        An2   v012
	BYTE	W06
	BYTE		VOL     73*seq_068_mvl/mxv
	BYTE	W06
	BYTE		N23     An2   v080
	BYTE	W03
	BYTE		VOL     72*seq_068_mvl/mxv
	BYTE	W06
	BYTE		        71*seq_068_mvl/mxv
	BYTE	W03
	BYTE		        69*seq_068_mvl/mxv
	BYTE	W03
	BYTE		        66*seq_068_mvl/mxv
	BYTE	W03
	BYTE		        62*seq_068_mvl/mxv
	BYTE	W03
	BYTE		        58*seq_068_mvl/mxv
	BYTE	W03
	BYTE	PEND
	BYTE		N05     An2   v028
	BYTE	W06
	BYTE		        An2   v016
	BYTE	W06
	BYTE		        An2   v012
	BYTE	W06
	BYTE		VOL     73*seq_068_mvl/mxv
	BYTE	W06
	BYTE		N23     An2   v088
	BYTE	W03
	BYTE		VOL     72*seq_068_mvl/mxv
	BYTE	W06
	BYTE		        71*seq_068_mvl/mxv
	BYTE	W03
	BYTE		        69*seq_068_mvl/mxv
	BYTE	W03
	BYTE		        66*seq_068_mvl/mxv
	BYTE	W03
	BYTE		        62*seq_068_mvl/mxv
	BYTE	W03
	BYTE		        58*seq_068_mvl/mxv
	BYTE	W03
	BYTE		N05     An2   v028
	BYTE	W06
	BYTE		        An2   v016
	BYTE	W06
	BYTE		        An2   v012
	BYTE	W06
	BYTE		VOL     73*seq_068_mvl/mxv
	BYTE	W06
	BYTE		N23     An2   v092
	BYTE	W03
	BYTE		VOL     72*seq_068_mvl/mxv
	BYTE	W06
	BYTE		        71*seq_068_mvl/mxv
	BYTE	W03
	BYTE		        69*seq_068_mvl/mxv
	BYTE	W03
	BYTE		        66*seq_068_mvl/mxv
	BYTE	W03
	BYTE		        62*seq_068_mvl/mxv
	BYTE	W03
	BYTE		        58*seq_068_mvl/mxv
	BYTE	W03
	BYTE	PEND
	BYTE		N05     An2   v028
	BYTE	W06
	BYTE		        An2   v016
	BYTE	W06
	BYTE		        An2   v012
	BYTE	W06
	BYTE		VOL     73*seq_068_mvl/mxv
	BYTE	W06
	BYTE		N23     Gn2   v084
	BYTE	W03
	BYTE		VOL     72*seq_068_mvl/mxv
	BYTE	W06
	BYTE		        71*seq_068_mvl/mxv
	BYTE	W03
	BYTE		        69*seq_068_mvl/mxv
	BYTE	W03
	BYTE		        66*seq_068_mvl/mxv
	BYTE	W03
	BYTE		        62*seq_068_mvl/mxv
	BYTE	W03
	BYTE		        58*seq_068_mvl/mxv
	BYTE	W03
	BYTE		N05     Gn2   v028
	BYTE	W06
	BYTE		        Gn2   v016
	BYTE	W06
	BYTE		        Gn2   v012
	BYTE	W06
	BYTE		VOL     73*seq_068_mvl/mxv
	BYTE	W06
	BYTE		N23     Gn2   v088
	BYTE	W03
	BYTE		VOL     72*seq_068_mvl/mxv
	BYTE	W06
	BYTE		        71*seq_068_mvl/mxv
	BYTE	W03
	BYTE		        69*seq_068_mvl/mxv
	BYTE	W03
	BYTE		        66*seq_068_mvl/mxv
	BYTE	W03
	BYTE		        62*seq_068_mvl/mxv
	BYTE	W03
	BYTE		        58*seq_068_mvl/mxv
	BYTE	W03
	BYTE	PEND
	BYTE		N05     Gn2   v028
	BYTE	W06
	BYTE		        Gn2   v016
	BYTE	W06
	BYTE		        Gn2   v012
	BYTE	W06
	BYTE		VOL     73*seq_068_mvl/mxv
	BYTE	W06
	BYTE		N23     Gn2   v092
	BYTE	W03
	BYTE		VOL     72*seq_068_mvl/mxv
	BYTE	W06
	BYTE		        71*seq_068_mvl/mxv
	BYTE	W03
	BYTE		        69*seq_068_mvl/mxv
	BYTE	W03
	BYTE		        66*seq_068_mvl/mxv
	BYTE	W03
	BYTE		        62*seq_068_mvl/mxv
	BYTE	W03
	BYTE		        58*seq_068_mvl/mxv
	BYTE	W03
	BYTE		N05     Gn2   v028
	BYTE	W06
	BYTE		        Gn2   v016
	BYTE	W06
	BYTE		        Gn2   v012
	BYTE	W06
	BYTE		VOL     73*seq_068_mvl/mxv
	BYTE	W06
	BYTE		N23     Gn2   v092
	BYTE	W03
	BYTE		VOL     72*seq_068_mvl/mxv
	BYTE	W06
	BYTE		        71*seq_068_mvl/mxv
	BYTE	W03
	BYTE		        69*seq_068_mvl/mxv
	BYTE	W03
	BYTE		        66*seq_068_mvl/mxv
	BYTE	W03
	BYTE		        62*seq_068_mvl/mxv
	BYTE	W03
	BYTE		        58*seq_068_mvl/mxv
	BYTE	W03
	BYTE	PEND
	BYTE		N05     Gn2   v028
	BYTE	W06
	BYTE		        Gn2   v016
	BYTE	W06
	BYTE		        Gn2   v012
	BYTE	W06
	BYTE		VOL     73*seq_068_mvl/mxv
	BYTE	W06
	BYTE		N03     As2   v104
	BYTE	W04
	BYTE		        As2   v032
	BYTE	W04
	BYTE		        As2   v100
	BYTE	W04
	BYTE		        As2   v032
	BYTE	W04
	BYTE		        As2   v092
	BYTE	W04
	BYTE		        As2   v032
	BYTE	W04
	BYTE		N44     As2   v100
	BYTE	W06
	BYTE		VOL     74*seq_068_mvl/mxv
	BYTE	W12
	BYTE		        74*seq_068_mvl/mxv
	BYTE	W03
	BYTE		        75*seq_068_mvl/mxv
	BYTE	W03
	BYTE		        76*seq_068_mvl/mxv
	BYTE	W03
	BYTE		        77*seq_068_mvl/mxv
	BYTE	W03
	BYTE		        78*seq_068_mvl/mxv
	BYTE	W03
	BYTE		        79*seq_068_mvl/mxv
	BYTE	W03
	BYTE		        78*seq_068_mvl/mxv
	BYTE	W03
	BYTE		        78*seq_068_mvl/mxv
	BYTE	W03
	BYTE		        76*seq_068_mvl/mxv
	BYTE	W03
	BYTE		        73*seq_068_mvl/mxv
	BYTE	W03
	BYTE	PEND
	BYTE		N05     As2   v028
	BYTE	W06
	BYTE		        As2   v016
	BYTE	W06
	BYTE		        As2   v012
	BYTE	W12
	BYTE		N03     As2   v112
	BYTE	W04
	BYTE		        As2   v032
	BYTE	W04
	BYTE		        As2   v108
	BYTE	W04
	BYTE		        As2   v032
	BYTE	W04
	BYTE		        As2   v096
	BYTE	W04
	BYTE		        As2   v032
	BYTE	W04
	BYTE		N44     As2   v104
	BYTE	W06
	BYTE		VOL     74*seq_068_mvl/mxv
	BYTE	W12
	BYTE		        74*seq_068_mvl/mxv
	BYTE	W03
	BYTE		        75*seq_068_mvl/mxv
	BYTE	W03
	BYTE		        76*seq_068_mvl/mxv
	BYTE	W03
	BYTE		        77*seq_068_mvl/mxv
	BYTE	W03
	BYTE		        78*seq_068_mvl/mxv
	BYTE	W03
	BYTE		        79*seq_068_mvl/mxv
	BYTE	W03
	BYTE		        78*seq_068_mvl/mxv
	BYTE	W03
	BYTE		        78*seq_068_mvl/mxv
	BYTE	W03
	BYTE		        76*seq_068_mvl/mxv
	BYTE	W03
	BYTE		        73*seq_068_mvl/mxv
	BYTE	W03
	BYTE	PEND
	BYTE		N05     As2   v028
	BYTE	W06
	BYTE		        As2   v016
	BYTE	W06
	BYTE		        As2   v012
	BYTE	W12
	BYTE		N03     As2   v112
	BYTE	W04
	BYTE		        As2   v032
	BYTE	W04
	BYTE		        As2   v108
	BYTE	W04
	BYTE		        As2   v032
	BYTE	W04
	BYTE		        As2   v096
	BYTE	W04
	BYTE		        As2   v032
	BYTE	W04
	BYTE		N48     As2   v104
	BYTE	W06
	BYTE		VOL     74*seq_068_mvl/mxv
	BYTE	W12
	BYTE		        74*seq_068_mvl/mxv
	BYTE	W03
	BYTE		        75*seq_068_mvl/mxv
	BYTE	W03
	BYTE		        76*seq_068_mvl/mxv
	BYTE	W03
	BYTE		        77*seq_068_mvl/mxv
	BYTE	W03
	BYTE		        78*seq_068_mvl/mxv
	BYTE	W03
	BYTE		        79*seq_068_mvl/mxv
	BYTE	W03
	BYTE		        78*seq_068_mvl/mxv
	BYTE	W03
	BYTE		        78*seq_068_mvl/mxv
	BYTE	W03
	BYTE		        76*seq_068_mvl/mxv
	BYTE	W03
	BYTE		        73*seq_068_mvl/mxv
	BYTE	W03
	BYTE	PEND
	BYTE		N32     Cn3   v096
	BYTE	W09
	BYTE		VOL     74*seq_068_mvl/mxv
	BYTE	W09
	BYTE		        75*seq_068_mvl/mxv
	BYTE	W03
	BYTE		        76*seq_068_mvl/mxv
	BYTE	W03
	BYTE		        77*seq_068_mvl/mxv
	BYTE	W03
	BYTE		        78*seq_068_mvl/mxv
	BYTE	W03
	BYTE		        80*seq_068_mvl/mxv
	BYTE	W06
	BYTE		        73*seq_068_mvl/mxv
	BYTE		N04
	BYTE	W06
	BYTE		N04
	BYTE	W06
	BYTE		N04
	BYTE	W06
	BYTE		        Cn3   v028
	BYTE	W06
	BYTE		N03     Cn3   v104
	BYTE	W06
	BYTE		N04     Cn3   v028
	BYTE	W06
	BYTE		N03     Cn3   v112
	BYTE	W06
	BYTE		N04     Cn3   v028
	BYTE	W06
	BYTE		N03     Cn3   v112
	BYTE	W06
	BYTE		N04     Cn3   v028
	BYTE	W04
	BYTE		PAN     c_v+16
	BYTE	W02
	BYTE	PEND
	BYTE		N48     Fn3   v104
	BYTE	W48
	BYTE		N24     An2   v096
	BYTE	W24
	BYTE		        As2   v104
	BYTE	W24
	BYTE	PEND
	BYTE	PATT
	 POIN2	seq_068_6 + 0x96B
	BYTE		N96     Fn3   v096
	BYTE	W96
	BYTE	PATT
	 POIN2	seq_068_6 + 0x994
	BYTE	PATT
	 POIN2	seq_068_6 + 0x99F
	BYTE	PATT
	 POIN2	seq_068_6 + 0x9A7
	BYTE	PATT
	 POIN2	seq_068_6 + 0x9B0
	BYTE	PATT
	 POIN2	seq_068_6 + 0x9B8
	BYTE	PATT
	 POIN2	seq_068_6 + 0x9D6
	BYTE	PATT
	 POIN2	seq_068_6 + 0x96B
	BYTE		N96     Fn3   v096
	BYTE	W96
	BYTE	PATT
	 POIN2	seq_068_6 + 0x994
	BYTE	PATT
	 POIN2	seq_068_6 + 0x9F2
	BYTE	PATT
	 POIN2	seq_068_6 + 0x9FA
	BYTE	PATT
	 POIN2	seq_068_6 + 0xA03
	BYTE	PATT
	 POIN2	seq_068_6 + 0xA1F
	BYTE		EOT     Fn3 
	BYTE	W24
	BYTE	W96
	BYTE	PATT
	 POIN2	seq_068_6 + 0xA3D
	BYTE	PATT
	 POIN2	seq_068_6 + 0xA45
	BYTE		N04     Fn2   v116
	BYTE	W12
	BYTE		        Gs2   v112
	BYTE	W12
	BYTE		        Fs2   v116
	BYTE	W12
	BYTE		        Ds2   v112
	BYTE	W12
	BYTE		        Fn2   v120
	BYTE	W24
	BYTE		N24     Ds2   v112
	BYTE	W03
	BYTE		VOL     72*seq_068_mvl/mxv
	BYTE	W06
	BYTE		        71*seq_068_mvl/mxv
	BYTE	W03
	BYTE		        69*seq_068_mvl/mxv
	BYTE	W03
	BYTE		        66*seq_068_mvl/mxv
	BYTE	W03
	BYTE		        62*seq_068_mvl/mxv
	BYTE	W03
	BYTE		        58*seq_068_mvl/mxv
	BYTE	W03
	BYTE	PEND
	BYTE	PATT
	 POIN2	seq_068_6 + 0xA85
	BYTE	PATT
	 POIN2	seq_068_6 + 0xABC
	BYTE	PATT
	 POIN2	seq_068_6 + 0xAF9
	BYTE	PATT
	 POIN2	seq_068_6 + 0xB36
	BYTE	PATT
	 POIN2	seq_068_6 + 0xB73
	BYTE	PATT
	 POIN2	seq_068_6 + 0xBAF
	BYTE	PATT
	 POIN2	seq_068_6 + 0xBE8
	BYTE	PATT
	 POIN2	seq_068_6 + 0xC21
	BYTE	PATT
	 POIN2	seq_068_6 + 0xC58
	BYTE	PATT
	 POIN2	seq_068_6 + 0x96B
	BYTE		N96     Fn3   v096
	BYTE	W96
	BYTE	PATT
	 POIN2	seq_068_6 + 0x994
	BYTE	PATT
	 POIN2	seq_068_6 + 0x99F
	BYTE	PATT
	 POIN2	seq_068_6 + 0x9A7
	BYTE	PATT
	 POIN2	seq_068_6 + 0x9B0
	BYTE	PATT
	 POIN2	seq_068_6 + 0x9B8
	BYTE	PATT
	 POIN2	seq_068_6 + 0x9D6
	BYTE	PATT
	 POIN2	seq_068_6 + 0x96B
	BYTE		N96     Fn3   v096
	BYTE	W96
	BYTE	PATT
	 POIN2	seq_068_6 + 0x994
	BYTE	PATT
	 POIN2	seq_068_6 + 0x9F2
	BYTE	PATT
	 POIN2	seq_068_6 + 0x9FA
	BYTE	PATT
	 POIN2	seq_068_6 + 0xA03
	BYTE	PATT
	 POIN2	seq_068_6 + 0xA1F
	BYTE		EOT     Fn3 
	BYTE	W24
	BYTE	W96
	BYTE	PATT
	 POIN2	seq_068_6 + 0xA3D
	BYTE	PATT
	 POIN2	seq_068_6 + 0xA45
	BYTE	PATT
	 POIN2	seq_068_6 + 0xCBB
	BYTE	PATT
	 POIN2	seq_068_6 + 0xA85
	BYTE	PATT
	 POIN2	seq_068_6 + 0xABC
	BYTE	PATT
	 POIN2	seq_068_6 + 0xAF9
	BYTE	PATT
	 POIN2	seq_068_6 + 0xB36
	BYTE	PATT
	 POIN2	seq_068_6 + 0xB73
	BYTE	PATT
	 POIN2	seq_068_6 + 0xBAF
	BYTE	PATT
	 POIN2	seq_068_6 + 0xBE8
	BYTE	PATT
	 POIN2	seq_068_6 + 0xC21
	BYTE	PATT
	 POIN2	seq_068_6 + 0xC58
	BYTE	PATT
	 POIN2	seq_068_6 + 0x96B
	BYTE		N96     Fn3   v096
	BYTE	W96
	BYTE	PATT
	 POIN2	seq_068_6 + 0x994
	BYTE	PATT
	 POIN2	seq_068_6 + 0x99F
	BYTE	PATT
	 POIN2	seq_068_6 + 0x9A7
	BYTE	PATT
	 POIN2	seq_068_6 + 0x9B0
	BYTE	PATT
	 POIN2	seq_068_6 + 0x9B8
	BYTE	PATT
	 POIN2	seq_068_6 + 0x9D6
	BYTE	PATT
	 POIN2	seq_068_6 + 0x96B
	BYTE		N96     Fn3   v096
	BYTE	W96
	BYTE	PATT
	 POIN2	seq_068_6 + 0x994
	BYTE	PATT
	 POIN2	seq_068_6 + 0x9F2
	BYTE	PATT
	 POIN2	seq_068_6 + 0x9FA
	BYTE		TIE     Fn3   v096
	BYTE	W96
	BYTE	W68
	BYTE	W03
	BYTE		EOT
	BYTE	W01
	BYTE		N04     Fn3   v100
	BYTE	W08
	BYTE		        Fn3   v092
	BYTE	W08
	BYTE		        Fn3   v088
	BYTE	W08
	BYTE		TIE     As3 
	BYTE	W06
	BYTE		VOL     72*seq_068_mvl/mxv
	BYTE	W06
	BYTE		        73*seq_068_mvl/mxv
	BYTE	W12
	BYTE		        74*seq_068_mvl/mxv
	BYTE	W06
	BYTE		        74*seq_068_mvl/mxv
	BYTE	W06
	BYTE		        76*seq_068_mvl/mxv
	BYTE	W06
	BYTE		        77*seq_068_mvl/mxv
	BYTE	W06
	BYTE		        79*seq_068_mvl/mxv
	BYTE	W30
	BYTE		        78*seq_068_mvl/mxv
	BYTE	W06
	BYTE		        75*seq_068_mvl/mxv
	BYTE	W06
	BYTE		        74*seq_068_mvl/mxv
	BYTE	W06
	BYTE		        73*seq_068_mvl/mxv
	BYTE	W06
	BYTE		        72*seq_068_mvl/mxv
	BYTE	W06
	BYTE		        70*seq_068_mvl/mxv
	BYTE	W06
	BYTE		        68*seq_068_mvl/mxv
	BYTE	W06
	BYTE		        66*seq_068_mvl/mxv
	BYTE	W06
	BYTE		        64*seq_068_mvl/mxv
	BYTE	W06
	BYTE		        62*seq_068_mvl/mxv
	BYTE	W06
	BYTE		        60*seq_068_mvl/mxv
	BYTE	W06
	BYTE		        58*seq_068_mvl/mxv
	BYTE	W06
	BYTE		        54*seq_068_mvl/mxv
	BYTE	W06
	BYTE		        52*seq_068_mvl/mxv
	BYTE	W06
	BYTE		        48*seq_068_mvl/mxv
	BYTE	W06
	BYTE		        46*seq_068_mvl/mxv
	BYTE	W06
	BYTE		        42*seq_068_mvl/mxv
	BYTE	W06
	BYTE		        38*seq_068_mvl/mxv
	BYTE	W06
	BYTE		        35*seq_068_mvl/mxv
	BYTE	W06
	BYTE		EOT
	BYTE		VOL     72*seq_068_mvl/mxv
	BYTE		TIE     As2   v084
	BYTE	W06
	BYTE		VOL     73*seq_068_mvl/mxv
	BYTE	W24
	BYTE		        74*seq_068_mvl/mxv
	BYTE	W12
	BYTE		        74*seq_068_mvl/mxv
	BYTE	W06
	BYTE		        75*seq_068_mvl/mxv
	BYTE	W06
	BYTE		        76*seq_068_mvl/mxv
	BYTE	W06
	BYTE		        76*seq_068_mvl/mxv
	BYTE	W06
	BYTE		        77*seq_068_mvl/mxv
	BYTE	W06
	BYTE		        78*seq_068_mvl/mxv
	BYTE	W06
	BYTE		        79*seq_068_mvl/mxv
	BYTE	W06
	BYTE		        80*seq_068_mvl/mxv
	BYTE	W12
	BYTE	W42
	BYTE		VOL     79*seq_068_mvl/mxv
	BYTE	W12
	BYTE		        78*seq_068_mvl/mxv
	BYTE	W06
	BYTE		        77*seq_068_mvl/mxv
	BYTE	W06
	BYTE		        75*seq_068_mvl/mxv
	BYTE	W06
	BYTE		        73*seq_068_mvl/mxv
	BYTE	W06
	BYTE		        70*seq_068_mvl/mxv
	BYTE	W06
	BYTE		        68*seq_068_mvl/mxv
	BYTE	W06
	BYTE		        64*seq_068_mvl/mxv
	BYTE	W06
	BYTE	PEND
	BYTE		EOT     As2 
	BYTE		VOL     72*seq_068_mvl/mxv
	BYTE		TIE     Cn3   v084
	BYTE	W06
	BYTE		VOL     73*seq_068_mvl/mxv
	BYTE	W24
	BYTE		        74*seq_068_mvl/mxv
	BYTE	W12
	BYTE		        74*seq_068_mvl/mxv
	BYTE	W06
	BYTE		        75*seq_068_mvl/mxv
	BYTE	W06
	BYTE		        76*seq_068_mvl/mxv
	BYTE	W06
	BYTE		        76*seq_068_mvl/mxv
	BYTE	W06
	BYTE		        77*seq_068_mvl/mxv
	BYTE	W06
	BYTE		        78*seq_068_mvl/mxv
	BYTE	W06
	BYTE		        79*seq_068_mvl/mxv
	BYTE	W06
	BYTE		        80*seq_068_mvl/mxv
	BYTE	W12
	BYTE	PATT
	 POIN2	seq_068_6 + 0xE38
	BYTE		EOT     Cn3 
	BYTE		VOL     72*seq_068_mvl/mxv
	BYTE		TIE     Cs3   v088
	BYTE	W06
	BYTE		VOL     73*seq_068_mvl/mxv
	BYTE	W24
	BYTE		        74*seq_068_mvl/mxv
	BYTE	W12
	BYTE		        74*seq_068_mvl/mxv
	BYTE	W06
	BYTE		        75*seq_068_mvl/mxv
	BYTE	W06
	BYTE		        76*seq_068_mvl/mxv
	BYTE	W06
	BYTE		        76*seq_068_mvl/mxv
	BYTE	W06
	BYTE		        77*seq_068_mvl/mxv
	BYTE	W06
	BYTE		        78*seq_068_mvl/mxv
	BYTE	W06
	BYTE		        79*seq_068_mvl/mxv
	BYTE	W06
	BYTE		        80*seq_068_mvl/mxv
	BYTE	W12
	BYTE	PATT
	 POIN2	seq_068_6 + 0xE38
	BYTE		EOT     Cs3 
	BYTE		VOL     72*seq_068_mvl/mxv
	BYTE		TIE     Ds3   v092
	BYTE	W06
	BYTE		VOL     73*seq_068_mvl/mxv
	BYTE	W24
	BYTE		        74*seq_068_mvl/mxv
	BYTE	W12
	BYTE		        74*seq_068_mvl/mxv
	BYTE	W06
	BYTE		        75*seq_068_mvl/mxv
	BYTE	W06
	BYTE		        76*seq_068_mvl/mxv
	BYTE	W06
	BYTE		        76*seq_068_mvl/mxv
	BYTE	W06
	BYTE		        77*seq_068_mvl/mxv
	BYTE	W06
	BYTE		        78*seq_068_mvl/mxv
	BYTE	W06
	BYTE		        79*seq_068_mvl/mxv
	BYTE	W06
	BYTE		        80*seq_068_mvl/mxv
	BYTE	W12
	BYTE	PATT
	 POIN2	seq_068_6 + 0xE38
	BYTE		EOT     Ds3 
	BYTE		VOL     72*seq_068_mvl/mxv
	BYTE		TIE     As2   v088
	BYTE	W06
	BYTE		VOL     73*seq_068_mvl/mxv
	BYTE	W24
	BYTE		        74*seq_068_mvl/mxv
	BYTE	W12
	BYTE		        74*seq_068_mvl/mxv
	BYTE	W06
	BYTE		        75*seq_068_mvl/mxv
	BYTE	W06
	BYTE		        76*seq_068_mvl/mxv
	BYTE	W06
	BYTE		        76*seq_068_mvl/mxv
	BYTE	W06
	BYTE		        77*seq_068_mvl/mxv
	BYTE	W06
	BYTE		        78*seq_068_mvl/mxv
	BYTE	W06
	BYTE		        79*seq_068_mvl/mxv
	BYTE	W06
	BYTE		        80*seq_068_mvl/mxv
	BYTE	W12
	BYTE	PATT
	 POIN2	seq_068_6 + 0xE38
	BYTE		EOT     As2 
	BYTE		VOL     72*seq_068_mvl/mxv
	BYTE		TIE     Cn3   v096
	BYTE	W06
	BYTE		VOL     73*seq_068_mvl/mxv
	BYTE	W24
	BYTE		        74*seq_068_mvl/mxv
	BYTE	W12
	BYTE		        74*seq_068_mvl/mxv
	BYTE	W06
	BYTE		        75*seq_068_mvl/mxv
	BYTE	W06
	BYTE		        76*seq_068_mvl/mxv
	BYTE	W06
	BYTE		        76*seq_068_mvl/mxv
	BYTE	W06
	BYTE		        77*seq_068_mvl/mxv
	BYTE	W06
	BYTE		        78*seq_068_mvl/mxv
	BYTE	W06
	BYTE		        79*seq_068_mvl/mxv
	BYTE	W06
	BYTE		        80*seq_068_mvl/mxv
	BYTE	W12
	BYTE	PATT
	 POIN2	seq_068_6 + 0xE38
	BYTE		EOT     Cn3 
	BYTE		VOL     72*seq_068_mvl/mxv
	BYTE		TIE     Cs3   v096
	BYTE	W06
	BYTE		VOL     73*seq_068_mvl/mxv
	BYTE	W24
	BYTE		        74*seq_068_mvl/mxv
	BYTE	W12
	BYTE		        74*seq_068_mvl/mxv
	BYTE	W06
	BYTE		        75*seq_068_mvl/mxv
	BYTE	W06
	BYTE		        76*seq_068_mvl/mxv
	BYTE	W06
	BYTE		        76*seq_068_mvl/mxv
	BYTE	W06
	BYTE		        77*seq_068_mvl/mxv
	BYTE	W06
	BYTE		        78*seq_068_mvl/mxv
	BYTE	W06
	BYTE		        79*seq_068_mvl/mxv
	BYTE	W06
	BYTE		        80*seq_068_mvl/mxv
	BYTE	W12
	BYTE	PATT
	 POIN2	seq_068_6 + 0xE38
	BYTE		EOT     Cs3 
	BYTE		VOL     72*seq_068_mvl/mxv
	BYTE		TIE     Ds3   v100
	BYTE	W06
	BYTE		VOL     73*seq_068_mvl/mxv
	BYTE	W24
	BYTE		        74*seq_068_mvl/mxv
	BYTE	W12
	BYTE		        74*seq_068_mvl/mxv
	BYTE	W06
	BYTE		        75*seq_068_mvl/mxv
	BYTE	W06
	BYTE		        76*seq_068_mvl/mxv
	BYTE	W06
	BYTE		        76*seq_068_mvl/mxv
	BYTE	W06
	BYTE		        77*seq_068_mvl/mxv
	BYTE	W06
	BYTE		        78*seq_068_mvl/mxv
	BYTE	W06
	BYTE		        79*seq_068_mvl/mxv
	BYTE	W06
	BYTE		        80*seq_068_mvl/mxv
	BYTE	W12
	BYTE	PATT
	 POIN2	seq_068_6 + 0xE38
	BYTE		EOT     Ds3 
	BYTE		VOL     73*seq_068_mvl/mxv
	BYTE		N24     As2   v104
	BYTE	W24
	BYTE		        Ds3   v096
	BYTE	W24
	BYTE		        Dn3 
	BYTE	W24
	BYTE		        Cn3 
	BYTE	W24
	BYTE		N24     As2   v104
	BYTE	W24
	BYTE		        Ds3   v096
	BYTE	W24
	BYTE		        Dn3   v100
	BYTE	W24
	BYTE		        Cn3   v092
	BYTE	W24
	BYTE	PEND
	BYTE		N05     Fs2   v104
	BYTE	W12
	BYTE		N04     Fn2   v096
	BYTE	W12
	BYTE		        Ds2   v100
	BYTE	W12
	BYTE		        Fn2   v096
	BYTE	W12
	BYTE		N05     Fs2   v100
	BYTE	W12
	BYTE		N04     Gs2   v104
	BYTE	W12
	BYTE		        As2 
	BYTE	W12
	BYTE		        Cn3   v100
	BYTE	W12
	BYTE	PEND
	BYTE		N05     Cs3   v096
	BYTE	W12
	BYTE		N04     Cn3 
	BYTE	W12
	BYTE		        As2   v100
	BYTE	W12
	BYTE		        Cn3 
	BYTE	W12
	BYTE		N05     Cs3 
	BYTE	W12
	BYTE		N04     Ds3   v104
	BYTE	W12
	BYTE		        Fn3   v108
	BYTE	W12
	BYTE		        Fs3   v104
	BYTE	W12
	BYTE	PEND
	BYTE		N24     As2 
	BYTE	W24
	BYTE		        Ds3   v096
	BYTE	W24
	BYTE		        Dn3 
	BYTE	W24
	BYTE		        Cn3 
	BYTE	W24
	BYTE	PATT
	 POIN2	seq_068_6 + 0xF48
	BYTE	PATT
	 POIN2	seq_068_6 + 0xF56
	BYTE	PATT
	 POIN2	seq_068_6 + 0xF72
	BYTE		N05     As2   v100
	BYTE	W12
	BYTE		N04     Fn2   v096
	BYTE	W12
	BYTE		        As2 
	BYTE	W12
	BYTE		        Fn2   v088
	BYTE	W12
	BYTE		N05     As2   v100
	BYTE	W12
	BYTE		N04     Fn2   v096
	BYTE	W12
	BYTE		        As2   v092
	BYTE	W12
	BYTE		        Fn2   v084
	BYTE	W12
	BYTE		N05     As2   v100
	BYTE	W12
	BYTE		N04     Fn2   v096
	BYTE	W12
	BYTE		        Dn2   v100
	BYTE	W12
	BYTE		        Fn2   v096
	BYTE	W12
	BYTE		N05     Fs2   v104
	BYTE	W12
	BYTE		N04     Cs2   v096
	BYTE	W12
	BYTE		N05     Gs2   v104
	BYTE	W12
	BYTE		N04     Ds2   v100
	BYTE	W12
	BYTE		N05     As2 
	BYTE	W12
	BYTE		N04     Fn2   v096
	BYTE	W12
	BYTE		        As2   v100
	BYTE	W12
	BYTE		        Fn2   v092
	BYTE	W12
	BYTE		N05     As2   v100
	BYTE	W12
	BYTE		N04     Fn2   v096
	BYTE	W12
	BYTE		        As2   v100
	BYTE	W12
	BYTE		        Dn3 
	BYTE	W12
	BYTE		N05     Fn3   v104
	BYTE	W12
	BYTE		N04     As2   v100
	BYTE	W12
	BYTE		        Dn3   v104
	BYTE	W12
	BYTE		        Fn3   v096
	BYTE	W12
	BYTE		N05     Fs3   v104
	BYTE	W12
	BYTE		N04     Cs3   v096
	BYTE	W12
	BYTE		        Gs3   v104
	BYTE	W12
	BYTE		        Ds3   v100
	BYTE	W12
	BYTE		N23     As3   v084
	BYTE	W24
	BYTE		        As3   v088
	BYTE	W24
	BYTE		        As3   v092
	BYTE	W24
	BYTE		        As3   v100
	BYTE	W24
	BYTE		N18     As3   v096
	BYTE	W48
	BYTE		        As3   v088
	BYTE	W48
	BYTE		N44     As2   v100
	BYTE	W48
	BYTE		        As2   v108
	BYTE	W48
	BYTE		TIE     As2   v112
	BYTE	W36
	BYTE		VOL     74*seq_068_mvl/mxv
	BYTE	W18
	BYTE		        74*seq_068_mvl/mxv
	BYTE	W06
	BYTE		        75*seq_068_mvl/mxv
	BYTE	W06
	BYTE		        76*seq_068_mvl/mxv
	BYTE	W06
	BYTE		        76*seq_068_mvl/mxv
	BYTE	W06
	BYTE		        77*seq_068_mvl/mxv
	BYTE	W06
	BYTE		        78*seq_068_mvl/mxv
	BYTE	W06
	BYTE		        78*seq_068_mvl/mxv
	BYTE	W06
	BYTE		        79*seq_068_mvl/mxv
	BYTE	W06
	BYTE		        80*seq_068_mvl/mxv
	BYTE	W06
	BYTE		        81*seq_068_mvl/mxv
	BYTE	W18
	BYTE		        79*seq_068_mvl/mxv
	BYTE	W06
	BYTE		        78*seq_068_mvl/mxv
	BYTE	W06
	BYTE		        76*seq_068_mvl/mxv
	BYTE	W06
	BYTE		        74*seq_068_mvl/mxv
	BYTE	W06
	BYTE		        72*seq_068_mvl/mxv
	BYTE	W06
	BYTE		        69*seq_068_mvl/mxv
	BYTE	W06
	BYTE		        66*seq_068_mvl/mxv
	BYTE	W06
	BYTE		        62*seq_068_mvl/mxv
	BYTE	W06
	BYTE		        58*seq_068_mvl/mxv
	BYTE	W06
	BYTE		        54*seq_068_mvl/mxv
	BYTE	W06
	BYTE		        48*seq_068_mvl/mxv
	BYTE	W06
	BYTE		        43*seq_068_mvl/mxv
	BYTE	W06
	BYTE		        37*seq_068_mvl/mxv
	BYTE	W06
	BYTE		        31*seq_068_mvl/mxv
	BYTE	W06
	BYTE		        27*seq_068_mvl/mxv
	BYTE	W06
	BYTE		        25*seq_068_mvl/mxv
	BYTE	W06
	BYTE		        24*seq_068_mvl/mxv
	BYTE	W06
	BYTE		        23*seq_068_mvl/mxv
	BYTE	W06
	BYTE		        22*seq_068_mvl/mxv
	BYTE	W06
	BYTE		        20*seq_068_mvl/mxv
	BYTE	W06
	BYTE		        20*seq_068_mvl/mxv
	BYTE	W06
	BYTE		        18*seq_068_mvl/mxv
	BYTE	W06
	BYTE		        18*seq_068_mvl/mxv
	BYTE	W06
	BYTE		        16*seq_068_mvl/mxv
	BYTE	W06
	BYTE		        15*seq_068_mvl/mxv
	BYTE	W06
	BYTE		        14*seq_068_mvl/mxv
	BYTE	W06
	BYTE		        14*seq_068_mvl/mxv
	BYTE	W06
	BYTE	W24
	BYTE		EOT
	BYTE	W24
	BYTE	FINE

//*********************** Track 08 ***********************//

seq_068_7:
	BYTE	KEYSH   seq_068_key+0
	BYTE		VOICE   41
	BYTE	W01
	BYTE		PAN     c_v-64
	BYTE	W01
	BYTE		BENDR   6
	BYTE		VOL     73*seq_068_mvl/mxv
	BYTE	W01
	BYTE	W96
	BYTE	W96
	BYTE	W96
	BYTE	W84
	BYTE		BEND    c_v+1
	BYTE	W09
	BYTE		VOL     73*seq_068_mvl/mxv
	BYTE	W01
	BYTE		N02     Gn3   v040
	BYTE	W02
	BYTE	W03
	BYTE		N02
	BYTE	W06
	BYTE		VOL     58*seq_068_mvl/mxv
	BYTE		TIE     Gn3   v036
	BYTE	W06
	BYTE		VOL     59*seq_068_mvl/mxv
	BYTE	W06
	BYTE		        60*seq_068_mvl/mxv
	BYTE	W12
	BYTE		        60*seq_068_mvl/mxv
	BYTE	W06
	BYTE		        61*seq_068_mvl/mxv
	BYTE	W06
	BYTE		        62*seq_068_mvl/mxv
	BYTE	W06
	BYTE		        63*seq_068_mvl/mxv
	BYTE	W06
	BYTE		        64*seq_068_mvl/mxv
	BYTE	W06
	BYTE		        66*seq_068_mvl/mxv
	BYTE	W06
	BYTE		        68*seq_068_mvl/mxv
	BYTE	W06
	BYTE		        70*seq_068_mvl/mxv
	BYTE	W06
	BYTE		        72*seq_068_mvl/mxv
	BYTE	W06
	BYTE		        74*seq_068_mvl/mxv
	BYTE	W06
	BYTE		        76*seq_068_mvl/mxv
	BYTE	W03
	BYTE	W03
	BYTE		        80*seq_068_mvl/mxv
	BYTE	W06
	BYTE		        80*seq_068_mvl/mxv
	BYTE	W36
	BYTE		        76*seq_068_mvl/mxv
	BYTE	W06
	BYTE		        74*seq_068_mvl/mxv
	BYTE	W06
	BYTE		EOT
	BYTE		VOL     73*seq_068_mvl/mxv
	BYTE		N48     An3 
	BYTE	W36
	BYTE	W03
	BYTE	W09
	BYTE		VOL     60*seq_068_mvl/mxv
	BYTE		TIE     Bn3   v040
	BYTE	W12
	BYTE		VOL     60*seq_068_mvl/mxv
	BYTE	W06
	BYTE		        60*seq_068_mvl/mxv
	BYTE	W12
	BYTE		        61*seq_068_mvl/mxv
	BYTE	W06
	BYTE		        62*seq_068_mvl/mxv
	BYTE	W06
	BYTE		        62*seq_068_mvl/mxv
	BYTE	W06
	BYTE		        64*seq_068_mvl/mxv
	BYTE	W06
	BYTE		        64*seq_068_mvl/mxv
	BYTE	W06
	BYTE		        66*seq_068_mvl/mxv
	BYTE	W06
	BYTE		        68*seq_068_mvl/mxv
	BYTE	W06
	BYTE		        70*seq_068_mvl/mxv
	BYTE	W06
	BYTE		        71*seq_068_mvl/mxv
	BYTE	W06
	BYTE		        74*seq_068_mvl/mxv
	BYTE	W03
	BYTE	W03
	BYTE		        76*seq_068_mvl/mxv
	BYTE	W06
	BYTE		        78*seq_068_mvl/mxv
	BYTE	W84
	BYTE	W03
	BYTE	W02
	BYTE		EOT
	BYTE	W01
	BYTE		N05     Bn3   v016
	BYTE	W06
	BYTE		VOL     73*seq_068_mvl/mxv
	BYTE	W84
	BYTE	W03
	BYTE	W96
	BYTE	W96
	BYTE	W96
	BYTE	W09
	BYTE		N48     Gn2   v044
	BYTE	W48
	BYTE		        Cn3   v032
	BYTE	W36
	BYTE	W03
	BYTE	W09
	BYTE		N92     Bn2   v036
	BYTE	W12
	BYTE		VOL     74*seq_068_mvl/mxv
	BYTE	W15
	BYTE		        74*seq_068_mvl/mxv
	BYTE	W06
	BYTE		        75*seq_068_mvl/mxv
	BYTE	W09
	BYTE		        76*seq_068_mvl/mxv
	BYTE	W06
	BYTE		        76*seq_068_mvl/mxv
	BYTE	W03
	BYTE		        77*seq_068_mvl/mxv
	BYTE	W03
	BYTE		        78*seq_068_mvl/mxv
	BYTE	W03
	BYTE		        78*seq_068_mvl/mxv
	BYTE	W03
	BYTE		        79*seq_068_mvl/mxv
	BYTE	W03
	BYTE		        80*seq_068_mvl/mxv
	BYTE	W03
	BYTE		        80*seq_068_mvl/mxv
	BYTE	W03
	BYTE		        81*seq_068_mvl/mxv
	BYTE	W03
	BYTE		        82*seq_068_mvl/mxv
	BYTE	W03
	BYTE		        81*seq_068_mvl/mxv
	BYTE	W06
	BYTE		        80*seq_068_mvl/mxv
	BYTE	W03
	BYTE		        78*seq_068_mvl/mxv
	BYTE	W03
	BYTE	PEND
	BYTE		VOL     75*seq_068_mvl/mxv
	BYTE	W03
	BYTE		        71*seq_068_mvl/mxv
	BYTE	W03
	BYTE		        66*seq_068_mvl/mxv
	BYTE	W03
	BYTE		        73*seq_068_mvl/mxv
	BYTE	W24
	BYTE		N24     Gn2   v048
	BYTE	W24
	BYTE		        Cn3   v040
	BYTE	W24
	BYTE		        Bn2   v036
	BYTE	W15
	BYTE	PEND
	BYTE	W09
	BYTE		N24     An2   v040
	BYTE	W24
	BYTE		        Gn2   v036
	BYTE	W24
	BYTE		N48     En3   v032
	BYTE	W36
	BYTE	W03
	BYTE	PEND
	BYTE	W09
	BYTE		TIE     Dn3   v024
	BYTE	W24
	BYTE		VOL     74*seq_068_mvl/mxv
	BYTE	W06
	BYTE		        74*seq_068_mvl/mxv
	BYTE	W12
	BYTE		        75*seq_068_mvl/mxv
	BYTE	W12
	BYTE		        76*seq_068_mvl/mxv
	BYTE	W06
	BYTE		        76*seq_068_mvl/mxv
	BYTE	W06
	BYTE		        77*seq_068_mvl/mxv
	BYTE	W06
	BYTE		        78*seq_068_mvl/mxv
	BYTE	W06
	BYTE		        80*seq_068_mvl/mxv
	BYTE	W09
	BYTE	PEND
	BYTE	W21
	BYTE		VOL     78*seq_068_mvl/mxv
	BYTE	W12
	BYTE		        76*seq_068_mvl/mxv
	BYTE	W06
	BYTE		        73*seq_068_mvl/mxv
	BYTE	W06
	BYTE		        68*seq_068_mvl/mxv
	BYTE	W06
	BYTE		        63*seq_068_mvl/mxv
	BYTE	W05
	BYTE	PEND
	BYTE		EOT     Dn3 
	BYTE	W01
	BYTE		VOL     73*seq_068_mvl/mxv
	BYTE		N24     Bn2   v036
	BYTE	W24
	BYTE		        Cs3   v044
	BYTE	W15
	BYTE	W09
	BYTE		TIE     Dn3   v028
	BYTE	W06
	BYTE		VOL     73*seq_068_mvl/mxv
	BYTE	W06
	BYTE		        74*seq_068_mvl/mxv
	BYTE	W18
	BYTE		        75*seq_068_mvl/mxv
	BYTE	W06
	BYTE		        76*seq_068_mvl/mxv
	BYTE	W06
	BYTE		        76*seq_068_mvl/mxv
	BYTE	W06
	BYTE		        78*seq_068_mvl/mxv
	BYTE	W06
	BYTE		        79*seq_068_mvl/mxv
	BYTE	W06
	BYTE		        80*seq_068_mvl/mxv
	BYTE	W24
	BYTE	W03
	BYTE	PEND
	BYTE	W48
	BYTE	W03
	BYTE		VOL     78*seq_068_mvl/mxv
	BYTE	W06
	BYTE		        73*seq_068_mvl/mxv
	BYTE	W06
	BYTE		        66*seq_068_mvl/mxv
	BYTE	W06
	BYTE		        57*seq_068_mvl/mxv
	BYTE	W06
	BYTE		        50*seq_068_mvl/mxv
	BYTE	W06
	BYTE	PEND
	BYTE		EOT     Dn3 
	BYTE	W15
	BYTE	W03
	BYTE		VOL     73*seq_068_mvl/mxv
	BYTE	W06
	BYTE		        73*seq_068_mvl/mxv
	BYTE		N48     Gn2   v044
	BYTE	W48
	BYTE		        Cn3   v032
	BYTE	W36
	BYTE	W03
	BYTE	PEND
	BYTE	PATT
	 POIN2	seq_068_7 + 0x8C
	BYTE	PATT
	 POIN2	seq_068_7 + 0xB3
	BYTE	PATT
	 POIN2	seq_068_7 + 0xC7
	BYTE	PATT
	 POIN2	seq_068_7 + 0xD5
	BYTE	PATT
	 POIN2	seq_068_7 + 0xEC
	BYTE		EOT     Dn3 
	BYTE	W01
	BYTE		VOL     73*seq_068_mvl/mxv
	BYTE		N24     Bn2   v036
	BYTE	W24
	BYTE		        Cs3   v044
	BYTE	W15
	BYTE	W09
	BYTE		TIE     Dn3   v032
	BYTE	W06
	BYTE		VOL     73*seq_068_mvl/mxv
	BYTE	W06
	BYTE		        74*seq_068_mvl/mxv
	BYTE	W18
	BYTE		        75*seq_068_mvl/mxv
	BYTE	W06
	BYTE		        76*seq_068_mvl/mxv
	BYTE	W06
	BYTE		        76*seq_068_mvl/mxv
	BYTE	W06
	BYTE		        78*seq_068_mvl/mxv
	BYTE	W06
	BYTE		        79*seq_068_mvl/mxv
	BYTE	W06
	BYTE		        80*seq_068_mvl/mxv
	BYTE	W24
	BYTE	W03
	BYTE	PEND
	BYTE	PATT
	 POIN2	seq_068_7 + 0x11D
	BYTE		EOT     Dn3 
	BYTE	W15
	BYTE	W03
	BYTE		VOL     73*seq_068_mvl/mxv
	BYTE	W92
	BYTE	W01
	BYTE	PEND
	BYTE	W96
	BYTE	W32
	BYTE	W01
	BYTE		N24     Cn3   v032
	BYTE	W24
	BYTE		        Bn2 
	BYTE	W24
	BYTE		        Cn3   v040
	BYTE	W15
	BYTE	PEND
	BYTE	W09
	BYTE		N24     En3   v036
	BYTE	W24
	BYTE		        Dn3   v028
	BYTE	W24
	BYTE		        An2 
	BYTE	W24
	BYTE		        Bn2   v020
	BYTE	W15
	BYTE	PEND
	BYTE	W96
	BYTE	W96
	BYTE	W32
	BYTE	W01
	BYTE		N24     Cn3   v032
	BYTE	W24
	BYTE		        Bn2 
	BYTE	W24
	BYTE		        Cn3   v036
	BYTE	W15
	BYTE	PEND
	BYTE	W09
	BYTE		N24     Dn3   v036
	BYTE	W24
	BYTE		        An2   v040
	BYTE	W24
	BYTE		        Bn2   v044
	BYTE	W24
	BYTE		        Cn3   v052
	BYTE	W15
	BYTE	PEND
	BYTE	W09
	BYTE		TIE     Bn2   v040
	BYTE	W84
	BYTE	W03
	BYTE	PEND
	BYTE	W24
	BYTE		VOL     72*seq_068_mvl/mxv
	BYTE	W03
	BYTE		        70*seq_068_mvl/mxv
	BYTE	W03
	BYTE		        67*seq_068_mvl/mxv
	BYTE	W03
	BYTE		        64*seq_068_mvl/mxv
	BYTE	W03
	BYTE		        60*seq_068_mvl/mxv
	BYTE	W03
	BYTE		        56*seq_068_mvl/mxv
	BYTE	W03
	BYTE		        52*seq_068_mvl/mxv
	BYTE	W03
	BYTE		        48*seq_068_mvl/mxv
	BYTE	W03
	BYTE		        44*seq_068_mvl/mxv
	BYTE	W03
	BYTE		        38*seq_068_mvl/mxv
	BYTE	W03
	BYTE		        33*seq_068_mvl/mxv
	BYTE	W03
	BYTE	PEND
	BYTE		EOT     Bn2 
	BYTE		VOL     73*seq_068_mvl/mxv
	BYTE		N24     An2   v032
	BYTE	W24
	BYTE		        Bn2   v028
	BYTE	W15
	BYTE	W09
	BYTE		TIE     En3   v024
	BYTE	W84
	BYTE	W03
	BYTE	PEND
	BYTE	W32
	BYTE	W01
	BYTE		VOL     72*seq_068_mvl/mxv
	BYTE	W06
	BYTE		        71*seq_068_mvl/mxv
	BYTE	W03
	BYTE		        69*seq_068_mvl/mxv
	BYTE	W03
	BYTE		        68*seq_068_mvl/mxv
	BYTE	W03
	BYTE		        65*seq_068_mvl/mxv
	BYTE	W03
	BYTE		        62*seq_068_mvl/mxv
	BYTE	W03
	BYTE		        58*seq_068_mvl/mxv
	BYTE	W03
	BYTE		        54*seq_068_mvl/mxv
	BYTE	W03
	BYTE		        49*seq_068_mvl/mxv
	BYTE	W03
	BYTE		        44*seq_068_mvl/mxv
	BYTE	W03
	BYTE		        38*seq_068_mvl/mxv
	BYTE	W03
	BYTE		        31*seq_068_mvl/mxv
	BYTE	W03
	BYTE		        24*seq_068_mvl/mxv
	BYTE	W03
	BYTE		        16*seq_068_mvl/mxv
	BYTE	W03
	BYTE		        8*seq_068_mvl/mxv
	BYTE	W03
	BYTE	PEND
	BYTE		EOT     En3 
	BYTE	W15
	BYTE	W03
	BYTE		VOL     73*seq_068_mvl/mxv
	BYTE	W06
	BYTE		N48     Gn2   v044
	BYTE	W48
	BYTE		        Cn3   v032
	BYTE	W36
	BYTE	W03
	BYTE	PEND
	BYTE	PATT
	 POIN2	seq_068_7 + 0x8C
	BYTE	PATT
	 POIN2	seq_068_7 + 0xB3
	BYTE	PATT
	 POIN2	seq_068_7 + 0xC7
	BYTE	PATT
	 POIN2	seq_068_7 + 0xD5
	BYTE	PATT
	 POIN2	seq_068_7 + 0xEC
	BYTE		EOT     Dn3 
	BYTE	W01
	BYTE		VOL     73*seq_068_mvl/mxv
	BYTE		N24     Bn2   v036
	BYTE	W24
	BYTE		        Cs3   v044
	BYTE	W15
	BYTE	PATT
	 POIN2	seq_068_7 + 0x105
	BYTE	PATT
	 POIN2	seq_068_7 + 0x11D
	BYTE		EOT     Dn3 
	BYTE	W15
	BYTE	PATT
	 POIN2	seq_068_7 + 0x12E
	BYTE	PATT
	 POIN2	seq_068_7 + 0x8C
	BYTE	PATT
	 POIN2	seq_068_7 + 0xB3
	BYTE	PATT
	 POIN2	seq_068_7 + 0xC7
	BYTE	PATT
	 POIN2	seq_068_7 + 0xD5
	BYTE	PATT
	 POIN2	seq_068_7 + 0xEC
	BYTE		EOT     Dn3 
	BYTE	W01
	BYTE		VOL     73*seq_068_mvl/mxv
	BYTE		N24     Bn2   v036
	BYTE	W24
	BYTE		        Cs3   v044
	BYTE	W15
	BYTE	PATT
	 POIN2	seq_068_7 + 0x161
	BYTE	PATT
	 POIN2	seq_068_7 + 0x11D
	BYTE		EOT     Dn3 
	BYTE	W15
	BYTE	PATT
	 POIN2	seq_068_7 + 0x181
	BYTE	W96
	BYTE	PATT
	 POIN2	seq_068_7 + 0x188
	BYTE	PATT
	 POIN2	seq_068_7 + 0x194
	BYTE	W96
	BYTE	W96
	BYTE	PATT
	 POIN2	seq_068_7 + 0x1A4
	BYTE	PATT
	 POIN2	seq_068_7 + 0x1B0
	BYTE	PATT
	 POIN2	seq_068_7 + 0x1BF
	BYTE	PATT
	 POIN2	seq_068_7 + 0x1C6
	BYTE		EOT     Bn2 
	BYTE		VOL     73*seq_068_mvl/mxv
	BYTE		N24     An2   v032
	BYTE	W24
	BYTE		        Bn2   v028
	BYTE	W15
	BYTE	PATT
	 POIN2	seq_068_7 + 0x1EA
	BYTE	PATT
	 POIN2	seq_068_7 + 0x1F1
	BYTE		EOT     En3 
	BYTE	W15
	BYTE	PATT
	 POIN2	seq_068_7 + 0x216
	BYTE	PATT
	 POIN2	seq_068_7 + 0x8C
	BYTE	PATT
	 POIN2	seq_068_7 + 0xB3
	BYTE	PATT
	 POIN2	seq_068_7 + 0xC7
	BYTE	PATT
	 POIN2	seq_068_7 + 0xD5
	BYTE	PATT
	 POIN2	seq_068_7 + 0xEC
	BYTE		EOT     Dn3 
	BYTE	W01
	BYTE		VOL     73*seq_068_mvl/mxv
	BYTE		N24     Bn2   v036
	BYTE	W24
	BYTE		        Cs3   v044
	BYTE	W15
	BYTE	PATT
	 POIN2	seq_068_7 + 0x105
	BYTE	PATT
	 POIN2	seq_068_7 + 0x11D
	BYTE		EOT     Dn3 
	BYTE	W15
	BYTE	PATT
	 POIN2	seq_068_7 + 0x12E
	BYTE	PATT
	 POIN2	seq_068_7 + 0x8C
	BYTE	PATT
	 POIN2	seq_068_7 + 0xB3
	BYTE	PATT
	 POIN2	seq_068_7 + 0xC7
	BYTE	PATT
	 POIN2	seq_068_7 + 0xD5
	BYTE	PATT
	 POIN2	seq_068_7 + 0xEC
	BYTE		EOT     Dn3 
	BYTE	W01
	BYTE		VOL     73*seq_068_mvl/mxv
	BYTE		N24     Bn2   v036
	BYTE	W24
	BYTE		        Cs3   v044
	BYTE	W15
	BYTE	PATT
	 POIN2	seq_068_7 + 0x161
	BYTE	PATT
	 POIN2	seq_068_7 + 0x11D
	BYTE		EOT     Dn3 
	BYTE	W15
	BYTE	PATT
	 POIN2	seq_068_7 + 0x181
	BYTE	W96
	BYTE	PATT
	 POIN2	seq_068_7 + 0x188
	BYTE	PATT
	 POIN2	seq_068_7 + 0x194
	BYTE	W96
	BYTE	W96
	BYTE	PATT
	 POIN2	seq_068_7 + 0x1A4
	BYTE	PATT
	 POIN2	seq_068_7 + 0x1B0
	BYTE	W09
	BYTE		TIE     Bn2   v044
	BYTE	W84
	BYTE	W03
	BYTE	PATT
	 POIN2	seq_068_7 + 0x1C6
	BYTE		EOT     Bn2 
	BYTE		VOL     73*seq_068_mvl/mxv
	BYTE		N24     An2   v036
	BYTE	W24
	BYTE		        Bn2   v032
	BYTE	W15
	BYTE	PATT
	 POIN2	seq_068_7 + 0x1EA
	BYTE	PATT
	 POIN2	seq_068_7 + 0x1F1
	BYTE		EOT     En3 
	BYTE	W15
	BYTE	W96
	BYTE	W96
	BYTE	W96
	BYTE	W96
	BYTE	W02
	BYTE	W01
	BYTE		VOICE   42
	BYTE	W02
	BYTE		VOL     73*seq_068_mvl/mxv
	BYTE		PAN     c_v+36
	BYTE	W03
	BYTE		N48     Cs4   v020
	BYTE	W48
	BYTE		        Fs4 
	BYTE	W40
	BYTE	W08
	BYTE		TIE     En4   v016
	BYTE	W88
	BYTE	W01
	BYTE		VOL     72*seq_068_mvl/mxv
	BYTE	W24
	BYTE		        72*seq_068_mvl/mxv
	BYTE	W06
	BYTE		        71*seq_068_mvl/mxv
	BYTE	W06
	BYTE		        70*seq_068_mvl/mxv
	BYTE	W06
	BYTE		        69*seq_068_mvl/mxv
	BYTE	W06
	BYTE		        68*seq_068_mvl/mxv
	BYTE	W06
	BYTE		        66*seq_068_mvl/mxv
	BYTE	W06
	BYTE		        65*seq_068_mvl/mxv
	BYTE	W06
	BYTE		        64*seq_068_mvl/mxv
	BYTE	W06
	BYTE		        62*seq_068_mvl/mxv
	BYTE	W06
	BYTE		        60*seq_068_mvl/mxv
	BYTE	W06
	BYTE		        58*seq_068_mvl/mxv
	BYTE	W06
	BYTE		        56*seq_068_mvl/mxv
	BYTE	W05
	BYTE	W01
	BYTE		        53*seq_068_mvl/mxv
	BYTE	W06
	BYTE		        50*seq_068_mvl/mxv
	BYTE	W06
	BYTE		        48*seq_068_mvl/mxv
	BYTE	W06
	BYTE		        45*seq_068_mvl/mxv
	BYTE	W06
	BYTE		        42*seq_068_mvl/mxv
	BYTE	W06
	BYTE		        39*seq_068_mvl/mxv
	BYTE	W06
	BYTE		        36*seq_068_mvl/mxv
	BYTE	W06
	BYTE		        32*seq_068_mvl/mxv
	BYTE	W06
	BYTE		        28*seq_068_mvl/mxv
	BYTE	W06
	BYTE		        24*seq_068_mvl/mxv
	BYTE	W06
	BYTE		        20*seq_068_mvl/mxv
	BYTE	W06
	BYTE		        16*seq_068_mvl/mxv
	BYTE	W06
	BYTE		        12*seq_068_mvl/mxv
	BYTE	W06
	BYTE		        8*seq_068_mvl/mxv
	BYTE	W06
	BYTE		        4*seq_068_mvl/mxv
	BYTE	W06
	BYTE		        2*seq_068_mvl/mxv
	BYTE	W05
	BYTE	W08
	BYTE		EOT
	BYTE	W04
	BYTE	W84
	BYTE	W96
	BYTE	W96
	BYTE	W96
	BYTE	W96
	BYTE	W96
	BYTE	W96
	BYTE	W96
	BYTE	W96
	BYTE	W96
	BYTE	W96
	BYTE	W96
	BYTE	W96
	BYTE	W96
	BYTE	W96
	BYTE	W96
	BYTE	W96
	BYTE	W96
	BYTE	W96
	BYTE	W96
	BYTE	W42
	BYTE		VOICE   41
	BYTE		PAN     c_v+31
	BYTE	W01
	BYTE		VOL     73*seq_068_mvl/mxv
	BYTE	W01
	BYTE		BENDR   6
	BYTE	W04
	BYTE		N23     En2   v092
	BYTE	W15
	BYTE		BEND    c_v-6
	BYTE	W01
	BYTE		        c_v-10
	BYTE	W01
	BYTE		        c_v-15
	BYTE	W01
	BYTE		        c_v-20
	BYTE	W01
	BYTE		        c_v-24
	BYTE	W01
	BYTE		        c_v-29
	BYTE	W01
	BYTE		        c_v-33
	BYTE	W03
	BYTE		N04     En2   v036
	BYTE	W06
	BYTE		        En2   v020
	BYTE	W06
	BYTE		        En2   v012
	BYTE	W11
	BYTE		BEND    c_v+1
	BYTE	W01
	BYTE	W48
	BYTE		N23     En2   v084
	BYTE	W14
	BYTE		BEND    c_v-2
	BYTE	W01
	BYTE		        c_v-6
	BYTE	W01
	BYTE		        c_v-10
	BYTE	W01
	BYTE		        c_v-15
	BYTE	W01
	BYTE		        c_v-20
	BYTE	W01
	BYTE		        c_v-24
	BYTE	W01
	BYTE		        c_v-29
	BYTE	W01
	BYTE		        c_v-33
	BYTE	W03
	BYTE		N04     En2   v036
	BYTE	W06
	BYTE		        En2   v020
	BYTE	W06
	BYTE		        En2   v012
	BYTE	W11
	BYTE		BEND    c_v+1
	BYTE	W01
	BYTE	W96
	BYTE	W96
	BYTE	W96
	BYTE	W96
	BYTE	W48
	BYTE		N23     En2   v092
	BYTE	W14
	BYTE		BEND    c_v-2
	BYTE	W01
	BYTE		        c_v-6
	BYTE	W01
	BYTE		        c_v-10
	BYTE	W01
	BYTE		        c_v-15
	BYTE	W01
	BYTE		        c_v-20
	BYTE	W01
	BYTE		        c_v-24
	BYTE	W01
	BYTE		        c_v-29
	BYTE	W01
	BYTE		        c_v-33
	BYTE	W03
	BYTE		N04     En2   v036
	BYTE	W06
	BYTE		        En2   v020
	BYTE	W06
	BYTE		        En2   v012
	BYTE	W11
	BYTE		BEND    c_v+1
	BYTE	W01
	BYTE	W48
	BYTE		N23     En2   v084
	BYTE	W14
	BYTE		BEND    c_v-2
	BYTE	W01
	BYTE		        c_v-6
	BYTE	W01
	BYTE		        c_v-10
	BYTE	W01
	BYTE		        c_v-15
	BYTE	W01
	BYTE		        c_v-20
	BYTE	W01
	BYTE		        c_v-24
	BYTE	W01
	BYTE		        c_v-29
	BYTE	W01
	BYTE		        c_v-33
	BYTE	W03
	BYTE		N04     En2   v036
	BYTE	W06
	BYTE		PAN     c_v-9
	BYTE		N04     En2   v020
	BYTE	W06
	BYTE		BEND    c_v+1
	BYTE		N04     En2   v012
	BYTE	W12
	BYTE		N23     Fn2   v092
	BYTE	W24
	BYTE		N05
	BYTE	W08
	BYTE		N04     Fn2   v088
	BYTE	W08
	BYTE		        Fn2   v084
	BYTE	W08
	BYTE		N09     An2   v088
	BYTE	W12
	BYTE		N06     An2   v012
	BYTE	W12
	BYTE		N09     An2   v076
	BYTE	W12
	BYTE		N06     An2   v012
	BYTE	W12
	BYTE		N48     As2   v088
	BYTE	W48
	BYTE		N23     Ds3   v080
	BYTE	W24
	BYTE		N24     Ds3   v072
	BYTE	W24
	BYTE		VOL     65*seq_068_mvl/mxv
	BYTE		N68     Gs2   v080
	BYTE	W09
	BYTE		VOL     66*seq_068_mvl/mxv
	BYTE	W06
	BYTE		        66*seq_068_mvl/mxv
	BYTE	W06
	BYTE		        67*seq_068_mvl/mxv
	BYTE	W03
	BYTE		        68*seq_068_mvl/mxv
	BYTE	W03
	BYTE		        70*seq_068_mvl/mxv
	BYTE	W03
	BYTE		        70*seq_068_mvl/mxv
	BYTE	W03
	BYTE		        72*seq_068_mvl/mxv
	BYTE	W03
	BYTE		        74*seq_068_mvl/mxv
	BYTE	W03
	BYTE		        75*seq_068_mvl/mxv
	BYTE	W03
	BYTE		        77*seq_068_mvl/mxv
	BYTE	W03
	BYTE		        80*seq_068_mvl/mxv
	BYTE	W09
	BYTE		        78*seq_068_mvl/mxv
	BYTE	W03
	BYTE		        78*seq_068_mvl/mxv
	BYTE	W03
	BYTE		        77*seq_068_mvl/mxv
	BYTE	W03
	BYTE		        76*seq_068_mvl/mxv
	BYTE	W03
	BYTE		        75*seq_068_mvl/mxv
	BYTE	W03
	BYTE		        74*seq_068_mvl/mxv
	BYTE	W03
	BYTE		        73*seq_068_mvl/mxv
	BYTE		N23
	BYTE	W24
	BYTE		N92
	BYTE	W44
	BYTE	W01
	BYTE		VOL     72*seq_068_mvl/mxv
	BYTE	W09
	BYTE		        72*seq_068_mvl/mxv
	BYTE	W03
	BYTE		        71*seq_068_mvl/mxv
	BYTE	W03
	BYTE		        70*seq_068_mvl/mxv
	BYTE	W03
	BYTE		        70*seq_068_mvl/mxv
	BYTE	W03
	BYTE		        69*seq_068_mvl/mxv
	BYTE	W03
	BYTE		        68*seq_068_mvl/mxv
	BYTE	W03
	BYTE		        67*seq_068_mvl/mxv
	BYTE	W03
	BYTE		        66*seq_068_mvl/mxv
	BYTE	W03
	BYTE		        65*seq_068_mvl/mxv
	BYTE	W03
	BYTE		        63*seq_068_mvl/mxv
	BYTE	W03
	BYTE		        62*seq_068_mvl/mxv
	BYTE	W03
	BYTE		        60*seq_068_mvl/mxv
	BYTE	W03
	BYTE		        58*seq_068_mvl/mxv
	BYTE	W03
	BYTE		        56*seq_068_mvl/mxv
	BYTE	W03
	BYTE		        73*seq_068_mvl/mxv
	BYTE		N44     Fs2 
	BYTE	W48
	BYTE		N23     Fs2   v088
	BYTE	W24
	BYTE		        Fs2   v092
	BYTE	W24
	BYTE		N44
	BYTE	W48
	BYTE		N23     Fs2   v088
	BYTE	W24
	BYTE		N24     Fs2   v092
	BYTE	W24
	BYTE		TIE     Fn2 
	BYTE	W24
	BYTE		VOL     74*seq_068_mvl/mxv
	BYTE	W06
	BYTE		        74*seq_068_mvl/mxv
	BYTE	W06
	BYTE		        75*seq_068_mvl/mxv
	BYTE	W06
	BYTE		        76*seq_068_mvl/mxv
	BYTE	W06
	BYTE		        77*seq_068_mvl/mxv
	BYTE	W06
	BYTE		        78*seq_068_mvl/mxv
	BYTE	W06
	BYTE		        81*seq_068_mvl/mxv
	BYTE	W12
	BYTE		        80*seq_068_mvl/mxv
	BYTE	W12
	BYTE		        80*seq_068_mvl/mxv
	BYTE	W06
	BYTE		        79*seq_068_mvl/mxv
	BYTE	W06
	BYTE		        78*seq_068_mvl/mxv
	BYTE	W06
	BYTE		        76*seq_068_mvl/mxv
	BYTE	W06
	BYTE		        74*seq_068_mvl/mxv
	BYTE	W06
	BYTE		        73*seq_068_mvl/mxv
	BYTE	W06
	BYTE		        70*seq_068_mvl/mxv
	BYTE	W06
	BYTE		        68*seq_068_mvl/mxv
	BYTE	W06
	BYTE		        65*seq_068_mvl/mxv
	BYTE	W06
	BYTE		        62*seq_068_mvl/mxv
	BYTE	W06
	BYTE		        58*seq_068_mvl/mxv
	BYTE	W06
	BYTE		        54*seq_068_mvl/mxv
	BYTE	W06
	BYTE		        50*seq_068_mvl/mxv
	BYTE	W06
	BYTE		        45*seq_068_mvl/mxv
	BYTE	W06
	BYTE		        40*seq_068_mvl/mxv
	BYTE	W06
	BYTE		        35*seq_068_mvl/mxv
	BYTE	W06
	BYTE		        30*seq_068_mvl/mxv
	BYTE	W06
	BYTE		        24*seq_068_mvl/mxv
	BYTE	W03
	BYTE		EOT
	BYTE	W03
	BYTE		PAN     c_v-64
	BYTE	W09
	BYTE		VOL     73*seq_068_mvl/mxv
	BYTE		N48     Fn3   v036
	BYTE	W03
	BYTE	W44
	BYTE	W01
	BYTE		N24     An2 
	BYTE	W24
	BYTE		        As2 
	BYTE	W15
	BYTE	W09
	BYTE		VOL     64*seq_068_mvl/mxv
	BYTE		N72     Cn3   v040
	BYTE	W04
	BYTE		VOL     64*seq_068_mvl/mxv
	BYTE	W04
	BYTE		        66*seq_068_mvl/mxv
	BYTE	W04
	BYTE		        68*seq_068_mvl/mxv
	BYTE	W04
	BYTE		        70*seq_068_mvl/mxv
	BYTE	W04
	BYTE		        74*seq_068_mvl/mxv
	BYTE	W04
	BYTE		        78*seq_068_mvl/mxv
	BYTE	W04
	BYTE		        81*seq_068_mvl/mxv
	BYTE	W24
	BYTE		        80*seq_068_mvl/mxv
	BYTE	W04
	BYTE		        79*seq_068_mvl/mxv
	BYTE	W04
	BYTE		        77*seq_068_mvl/mxv
	BYTE	W04
	BYTE		        75*seq_068_mvl/mxv
	BYTE	W04
	BYTE		        72*seq_068_mvl/mxv
	BYTE	W04
	BYTE		        73*seq_068_mvl/mxv
	BYTE		N24     Gn3   v032
	BYTE	W15
	BYTE	PEND
	BYTE	W09
	BYTE		N96     Fn3   v036
	BYTE	W84
	BYTE	W03
	BYTE	PEND
	BYTE	W09
	BYTE		N44     Cs3   v032
	BYTE	W48
	BYTE		N24     Cs3   v036
	BYTE	W24
	BYTE		        Ds3 
	BYTE	W15
	BYTE	PEND
	BYTE	W09
	BYTE		N48     Fn3   v036
	BYTE	W48
	BYTE		        As3 
	BYTE	W36
	BYTE	W03
	BYTE	PEND
	BYTE	W09
	BYTE		N72     Gn3   v032
	BYTE	W72
	BYTE		N23     Ds3 
	BYTE	W15
	BYTE	PEND
	BYTE	W09
	BYTE		N48     Fn3   v036
	BYTE	W48
	BYTE		        Cn4   v032
	BYTE	W36
	BYTE	W03
	BYTE	PEND
	BYTE	W09
	BYTE		N96     Gn3   v032
	BYTE	W44
	BYTE		VOL     72*seq_068_mvl/mxv
	BYTE	W08
	BYTE		        71*seq_068_mvl/mxv
	BYTE	W04
	BYTE		        70*seq_068_mvl/mxv
	BYTE	W04
	BYTE		        68*seq_068_mvl/mxv
	BYTE	W04
	BYTE		        66*seq_068_mvl/mxv
	BYTE	W04
	BYTE		        63*seq_068_mvl/mxv
	BYTE	W04
	BYTE		        60*seq_068_mvl/mxv
	BYTE	W04
	BYTE		        55*seq_068_mvl/mxv
	BYTE	W04
	BYTE		        50*seq_068_mvl/mxv
	BYTE	W04
	BYTE		        46*seq_068_mvl/mxv
	BYTE	W03
	BYTE	PEND
	BYTE	W01
	BYTE		VOL     40*seq_068_mvl/mxv
	BYTE	W04
	BYTE		        35*seq_068_mvl/mxv
	BYTE	W04
	BYTE		        73*seq_068_mvl/mxv
	BYTE		N48     Fn3   v036
	BYTE	W48
	BYTE		N24     An2 
	BYTE	W24
	BYTE		        As2 
	BYTE	W15
	BYTE	PEND
	BYTE	PATT
	 POIN2	seq_068_7 + 0x556
	BYTE	PATT
	 POIN2	seq_068_7 + 0x57C
	BYTE	PATT
	 POIN2	seq_068_7 + 0x583
	BYTE	W09
	BYTE		N48     Fn3   v036
	BYTE	W48
	BYTE		        Gs3 
	BYTE	W36
	BYTE	W03
	BYTE	PEND
	BYTE	W09
	BYTE		N72     Gn3   v036
	BYTE	W72
	BYTE		N24     Ds3   v032
	BYTE	W15
	BYTE	PEND
	BYTE	W09
	BYTE		TIE     Fn3   v036
	BYTE	W06
	BYTE		VOL     74*seq_068_mvl/mxv
	BYTE	W18
	BYTE		        74*seq_068_mvl/mxv
	BYTE	W06
	BYTE		        75*seq_068_mvl/mxv
	BYTE	W06
	BYTE		        76*seq_068_mvl/mxv
	BYTE	W06
	BYTE		        76*seq_068_mvl/mxv
	BYTE	W06
	BYTE		        77*seq_068_mvl/mxv
	BYTE	W06
	BYTE		        78*seq_068_mvl/mxv
	BYTE	W06
	BYTE		        79*seq_068_mvl/mxv
	BYTE	W12
	BYTE		        78*seq_068_mvl/mxv
	BYTE	W12
	BYTE		        77*seq_068_mvl/mxv
	BYTE	W03
	BYTE	PEND
	BYTE	W03
	BYTE		VOL     76*seq_068_mvl/mxv
	BYTE	W06
	BYTE		        75*seq_068_mvl/mxv
	BYTE	W06
	BYTE		        73*seq_068_mvl/mxv
	BYTE	W06
	BYTE		        71*seq_068_mvl/mxv
	BYTE	W06
	BYTE		        69*seq_068_mvl/mxv
	BYTE	W06
	BYTE		        67*seq_068_mvl/mxv
	BYTE	W06
	BYTE		        64*seq_068_mvl/mxv
	BYTE	W06
	BYTE		        62*seq_068_mvl/mxv
	BYTE	W06
	BYTE		        58*seq_068_mvl/mxv
	BYTE	W06
	BYTE		        55*seq_068_mvl/mxv
	BYTE	W06
	BYTE		        52*seq_068_mvl/mxv
	BYTE	W06
	BYTE		        48*seq_068_mvl/mxv
	BYTE	W06
	BYTE		        44*seq_068_mvl/mxv
	BYTE	W06
	BYTE	PEND
	BYTE		EOT     Fn3 
	BYTE	W15
	BYTE	W96
	BYTE	W80
	BYTE	W01
	BYTE		VOL     73*seq_068_mvl/mxv
	BYTE	W12
	BYTE		PAN     c_v+63
	BYTE	W03
	BYTE	PEND
	BYTE	W03
	BYTE		N12     Cs3   v040
	BYTE	W12
	BYTE		N06     Bn2 
	BYTE	W06
	BYTE		        As2   v036
	BYTE	W06
	BYTE		N04     Gs2   v040
	BYTE	W12
	BYTE		        Fs2 
	BYTE	W12
	BYTE		        Fn2 
	BYTE	W12
	BYTE		        Gs2   v036
	BYTE	W12
	BYTE		        Fs2   v040
	BYTE	W12
	BYTE		        Ds2   v036
	BYTE	W09
	BYTE	PEND
	BYTE	W03
	BYTE		N04     Fn2   v040
	BYTE	W12
	BYTE		        Gs2 
	BYTE	W12
	BYTE		        Fs2 
	BYTE	W12
	BYTE		        Ds2 
	BYTE	W12
	BYTE		        Fn2   v044
	BYTE	W12
	BYTE		        Cs2 
	BYTE	W12
	BYTE		N22     Ds2   v040
	BYTE	W12
	BYTE		VOL     72*seq_068_mvl/mxv
	BYTE	W03
	BYTE		        70*seq_068_mvl/mxv
	BYTE	W03
	BYTE		        66*seq_068_mvl/mxv
	BYTE	W03
	BYTE	PEND
	BYTE		VOL     61*seq_068_mvl/mxv
	BYTE	W03
	BYTE		        54*seq_068_mvl/mxv
	BYTE	W03
	BYTE		        46*seq_068_mvl/mxv
	BYTE	W90
	BYTE	PEND
	BYTE	W96
	BYTE	W96
	BYTE	W96
	BYTE	W96
	BYTE	W96
	BYTE	W96
	BYTE	W96
	BYTE		PAN     c_v-64
	BYTE	W03
	BYTE		VOL     73*seq_068_mvl/mxv
	BYTE	W06
	BYTE		N48     Fn3   v036
	BYTE	W48
	BYTE		N24     An2 
	BYTE	W24
	BYTE		        As2 
	BYTE	W15
	BYTE	PEND
	BYTE	PATT
	 POIN2	seq_068_7 + 0x556
	BYTE	PATT
	 POIN2	seq_068_7 + 0x57C
	BYTE	W09
	BYTE		N48     Cs3   v032
	BYTE	W48
	BYTE		N24     Cs3   v036
	BYTE	W24
	BYTE		        Ds3 
	BYTE	W15
	BYTE	PATT
	 POIN2	seq_068_7 + 0x58F
	BYTE	PATT
	 POIN2	seq_068_7 + 0x598
	BYTE	PATT
	 POIN2	seq_068_7 + 0x5A1
	BYTE	PATT
	 POIN2	seq_068_7 + 0x5AB
	BYTE	PATT
	 POIN2	seq_068_7 + 0x5C6
	BYTE	PATT
	 POIN2	seq_068_7 + 0x556
	BYTE	PATT
	 POIN2	seq_068_7 + 0x57C
	BYTE	PATT
	 POIN2	seq_068_7 + 0x583
	BYTE	PATT
	 POIN2	seq_068_7 + 0x5E6
	BYTE	PATT
	 POIN2	seq_068_7 + 0x5EF
	BYTE	PATT
	 POIN2	seq_068_7 + 0x5F9
	BYTE	PATT
	 POIN2	seq_068_7 + 0x614
	BYTE		EOT     Fn3 
	BYTE	W15
	BYTE	W96
	BYTE	PATT
	 POIN2	seq_068_7 + 0x635
	BYTE	PATT
	 POIN2	seq_068_7 + 0x63E
	BYTE	PATT
	 POIN2	seq_068_7 + 0x65B
	BYTE	PATT
	 POIN2	seq_068_7 + 0x677
	BYTE	W96
	BYTE	W96
	BYTE	W96
	BYTE	W96
	BYTE	W96
	BYTE	W96
	BYTE	W96
	BYTE	PATT
	 POIN2	seq_068_7 + 0x686
	BYTE	PATT
	 POIN2	seq_068_7 + 0x556
	BYTE	PATT
	 POIN2	seq_068_7 + 0x57C
	BYTE	PATT
	 POIN2	seq_068_7 + 0x583
	BYTE	PATT
	 POIN2	seq_068_7 + 0x58F
	BYTE	PATT
	 POIN2	seq_068_7 + 0x598
	BYTE	PATT
	 POIN2	seq_068_7 + 0x5A1
	BYTE	PATT
	 POIN2	seq_068_7 + 0x5AB
	BYTE	PATT
	 POIN2	seq_068_7 + 0x5C6
	BYTE	PATT
	 POIN2	seq_068_7 + 0x556
	BYTE	PATT
	 POIN2	seq_068_7 + 0x57C
	BYTE	W09
	BYTE		N44     Cs3   v032
	BYTE	W48
	BYTE		N24     Cs3   v036
	BYTE	W24
	BYTE		N23     Ds3 
	BYTE	W15
	BYTE	PATT
	 POIN2	seq_068_7 + 0x5E6
	BYTE	PATT
	 POIN2	seq_068_7 + 0x5EF
	BYTE	PATT
	 POIN2	seq_068_7 + 0x5F9
	BYTE	PATT
	 POIN2	seq_068_7 + 0x614
	BYTE		EOT     Fn3 
	BYTE	W15
	BYTE	W96
	BYTE	PATT
	 POIN2	seq_068_7 + 0x635
	BYTE	PATT
	 POIN2	seq_068_7 + 0x63E
	BYTE	PATT
	 POIN2	seq_068_7 + 0x65B
	BYTE	PATT
	 POIN2	seq_068_7 + 0x677
	BYTE	W96
	BYTE	W96
	BYTE	W96
	BYTE	W96
	BYTE	W96
	BYTE	W96
	BYTE	W96
	BYTE	PATT
	 POIN2	seq_068_7 + 0x686
	BYTE	PATT
	 POIN2	seq_068_7 + 0x556
	BYTE	PATT
	 POIN2	seq_068_7 + 0x57C
	BYTE	PATT
	 POIN2	seq_068_7 + 0x583
	BYTE	PATT
	 POIN2	seq_068_7 + 0x58F
	BYTE	PATT
	 POIN2	seq_068_7 + 0x598
	BYTE	W09
	BYTE		N48     Fn3   v036
	BYTE	W48
	BYTE		N44     Cn4   v032
	BYTE	W36
	BYTE	W03
	BYTE	PATT
	 POIN2	seq_068_7 + 0x5AB
	BYTE	W01
	BYTE		VOL     40*seq_068_mvl/mxv
	BYTE	W04
	BYTE		        35*seq_068_mvl/mxv
	BYTE	W04
	BYTE		        73*seq_068_mvl/mxv
	BYTE		N48     Fn3   v036
	BYTE	W48
	BYTE		N24     An2 
	BYTE	W24
	BYTE		N23     As2 
	BYTE	W15
	BYTE	PATT
	 POIN2	seq_068_7 + 0x556
	BYTE	PATT
	 POIN2	seq_068_7 + 0x57C
	BYTE	PATT
	 POIN2	seq_068_7 + 0x583
	BYTE	PATT
	 POIN2	seq_068_7 + 0x5E6
	BYTE	PATT
	 POIN2	seq_068_7 + 0x5EF
	BYTE	W09
	BYTE		TIE     Fn3   v036
	BYTE	W84
	BYTE	W03
	BYTE	W80
	BYTE		EOT
	BYTE	W01
	BYTE		N04
	BYTE	W08
	BYTE		        Fn3   v032
	BYTE	W07
	BYTE	W01
	BYTE		N04
	BYTE	W08
	BYTE		TIE     As3 
	BYTE	W06
	BYTE		VOL     72*seq_068_mvl/mxv
	BYTE	W06
	BYTE		        73*seq_068_mvl/mxv
	BYTE	W12
	BYTE		        74*seq_068_mvl/mxv
	BYTE	W06
	BYTE		        74*seq_068_mvl/mxv
	BYTE	W06
	BYTE		        76*seq_068_mvl/mxv
	BYTE	W06
	BYTE		        77*seq_068_mvl/mxv
	BYTE	W06
	BYTE		        79*seq_068_mvl/mxv
	BYTE	W30
	BYTE		        78*seq_068_mvl/mxv
	BYTE	W06
	BYTE		        75*seq_068_mvl/mxv
	BYTE	W03
	BYTE	W03
	BYTE		        74*seq_068_mvl/mxv
	BYTE	W06
	BYTE		        73*seq_068_mvl/mxv
	BYTE	W06
	BYTE		        72*seq_068_mvl/mxv
	BYTE	W06
	BYTE		        70*seq_068_mvl/mxv
	BYTE	W06
	BYTE		        68*seq_068_mvl/mxv
	BYTE	W06
	BYTE		        66*seq_068_mvl/mxv
	BYTE	W06
	BYTE		        64*seq_068_mvl/mxv
	BYTE	W06
	BYTE		        62*seq_068_mvl/mxv
	BYTE	W06
	BYTE		        60*seq_068_mvl/mxv
	BYTE	W06
	BYTE		        58*seq_068_mvl/mxv
	BYTE	W06
	BYTE		        54*seq_068_mvl/mxv
	BYTE	W06
	BYTE		        52*seq_068_mvl/mxv
	BYTE	W06
	BYTE		        48*seq_068_mvl/mxv
	BYTE	W06
	BYTE		        46*seq_068_mvl/mxv
	BYTE	W06
	BYTE		        42*seq_068_mvl/mxv
	BYTE	W06
	BYTE		        38*seq_068_mvl/mxv
	BYTE	W03
	BYTE	W03
	BYTE		        35*seq_068_mvl/mxv
	BYTE	W06
	BYTE		EOT
	BYTE		VOL     72*seq_068_mvl/mxv
	BYTE		TIE     As2   v028
	BYTE	W06
	BYTE		VOL     73*seq_068_mvl/mxv
	BYTE	W24
	BYTE		        74*seq_068_mvl/mxv
	BYTE	W12
	BYTE		        74*seq_068_mvl/mxv
	BYTE	W06
	BYTE		        75*seq_068_mvl/mxv
	BYTE	W06
	BYTE		        76*seq_068_mvl/mxv
	BYTE	W06
	BYTE		        76*seq_068_mvl/mxv
	BYTE	W06
	BYTE		        77*seq_068_mvl/mxv
	BYTE	W06
	BYTE		        78*seq_068_mvl/mxv
	BYTE	W06
	BYTE		        79*seq_068_mvl/mxv
	BYTE	W06
	BYTE		        80*seq_068_mvl/mxv
	BYTE	W03
	BYTE	W48
	BYTE	W03
	BYTE		VOL     79*seq_068_mvl/mxv
	BYTE	W12
	BYTE		        78*seq_068_mvl/mxv
	BYTE	W06
	BYTE		        77*seq_068_mvl/mxv
	BYTE	W06
	BYTE		        75*seq_068_mvl/mxv
	BYTE	W06
	BYTE		        73*seq_068_mvl/mxv
	BYTE	W06
	BYTE		        70*seq_068_mvl/mxv
	BYTE	W06
	BYTE		        68*seq_068_mvl/mxv
	BYTE	W03
	BYTE	PEND
	BYTE	W03
	BYTE		        64*seq_068_mvl/mxv
	BYTE	W06
	BYTE		EOT     As2 
	BYTE		VOL     72*seq_068_mvl/mxv
	BYTE		TIE     Cn3   v032
	BYTE	W06
	BYTE		VOL     73*seq_068_mvl/mxv
	BYTE	W24
	BYTE		        74*seq_068_mvl/mxv
	BYTE	W12
	BYTE		        74*seq_068_mvl/mxv
	BYTE	W06
	BYTE		        75*seq_068_mvl/mxv
	BYTE	W06
	BYTE		        76*seq_068_mvl/mxv
	BYTE	W06
	BYTE		        76*seq_068_mvl/mxv
	BYTE	W06
	BYTE		        77*seq_068_mvl/mxv
	BYTE	W06
	BYTE		        78*seq_068_mvl/mxv
	BYTE	W06
	BYTE		        79*seq_068_mvl/mxv
	BYTE	W06
	BYTE		        80*seq_068_mvl/mxv
	BYTE	W03
	BYTE	PATT
	 POIN2	seq_068_7 + 0x83A
	BYTE	W03
	BYTE		VOL     64*seq_068_mvl/mxv
	BYTE	W06
	BYTE		EOT     Cn3 
	BYTE		VOL     72*seq_068_mvl/mxv
	BYTE		TIE     Cs3   v032
	BYTE	W06
	BYTE		VOL     73*seq_068_mvl/mxv
	BYTE	W24
	BYTE		        74*seq_068_mvl/mxv
	BYTE	W12
	BYTE		        74*seq_068_mvl/mxv
	BYTE	W06
	BYTE		        75*seq_068_mvl/mxv
	BYTE	W06
	BYTE		        76*seq_068_mvl/mxv
	BYTE	W06
	BYTE		        76*seq_068_mvl/mxv
	BYTE	W06
	BYTE		        77*seq_068_mvl/mxv
	BYTE	W06
	BYTE		        78*seq_068_mvl/mxv
	BYTE	W06
	BYTE		        79*seq_068_mvl/mxv
	BYTE	W06
	BYTE		        80*seq_068_mvl/mxv
	BYTE	W03
	BYTE	PATT
	 POIN2	seq_068_7 + 0x83A
	BYTE	W03
	BYTE		VOL     64*seq_068_mvl/mxv
	BYTE	W06
	BYTE		EOT     Cs3 
	BYTE		VOL     72*seq_068_mvl/mxv
	BYTE		TIE     Ds3   v032
	BYTE	W06
	BYTE		VOL     73*seq_068_mvl/mxv
	BYTE	W24
	BYTE		        74*seq_068_mvl/mxv
	BYTE	W12
	BYTE		        74*seq_068_mvl/mxv
	BYTE	W06
	BYTE		        75*seq_068_mvl/mxv
	BYTE	W06
	BYTE		        76*seq_068_mvl/mxv
	BYTE	W06
	BYTE		        76*seq_068_mvl/mxv
	BYTE	W06
	BYTE		        77*seq_068_mvl/mxv
	BYTE	W06
	BYTE		        78*seq_068_mvl/mxv
	BYTE	W06
	BYTE		        79*seq_068_mvl/mxv
	BYTE	W06
	BYTE		        80*seq_068_mvl/mxv
	BYTE	W03
	BYTE	PATT
	 POIN2	seq_068_7 + 0x83A
	BYTE	W03
	BYTE		VOL     64*seq_068_mvl/mxv
	BYTE	W06
	BYTE		EOT     Ds3 
	BYTE		VOL     72*seq_068_mvl/mxv
	BYTE		TIE     As2   v032
	BYTE	W06
	BYTE		VOL     73*seq_068_mvl/mxv
	BYTE	W24
	BYTE		        74*seq_068_mvl/mxv
	BYTE	W12
	BYTE		        74*seq_068_mvl/mxv
	BYTE	W06
	BYTE		        75*seq_068_mvl/mxv
	BYTE	W06
	BYTE		        76*seq_068_mvl/mxv
	BYTE	W06
	BYTE		        76*seq_068_mvl/mxv
	BYTE	W06
	BYTE		        77*seq_068_mvl/mxv
	BYTE	W06
	BYTE		        78*seq_068_mvl/mxv
	BYTE	W06
	BYTE		        79*seq_068_mvl/mxv
	BYTE	W06
	BYTE		        80*seq_068_mvl/mxv
	BYTE	W03
	BYTE	PATT
	 POIN2	seq_068_7 + 0x83A
	BYTE	W03
	BYTE		VOL     64*seq_068_mvl/mxv
	BYTE	W06
	BYTE		EOT     As2 
	BYTE		VOL     72*seq_068_mvl/mxv
	BYTE		TIE     Cn3   v036
	BYTE	W06
	BYTE		VOL     73*seq_068_mvl/mxv
	BYTE	W24
	BYTE		        74*seq_068_mvl/mxv
	BYTE	W12
	BYTE		        74*seq_068_mvl/mxv
	BYTE	W06
	BYTE		        75*seq_068_mvl/mxv
	BYTE	W06
	BYTE		        76*seq_068_mvl/mxv
	BYTE	W06
	BYTE		        76*seq_068_mvl/mxv
	BYTE	W06
	BYTE		        77*seq_068_mvl/mxv
	BYTE	W06
	BYTE		        78*seq_068_mvl/mxv
	BYTE	W06
	BYTE		        79*seq_068_mvl/mxv
	BYTE	W06
	BYTE		        80*seq_068_mvl/mxv
	BYTE	W03
	BYTE	PATT
	 POIN2	seq_068_7 + 0x83A
	BYTE	W03
	BYTE		VOL     64*seq_068_mvl/mxv
	BYTE	W06
	BYTE		EOT     Cn3 
	BYTE		VOL     72*seq_068_mvl/mxv
	BYTE		TIE     Cs3   v036
	BYTE	W06
	BYTE		VOL     73*seq_068_mvl/mxv
	BYTE	W24
	BYTE		        74*seq_068_mvl/mxv
	BYTE	W12
	BYTE		        74*seq_068_mvl/mxv
	BYTE	W06
	BYTE		        75*seq_068_mvl/mxv
	BYTE	W06
	BYTE		        76*seq_068_mvl/mxv
	BYTE	W06
	BYTE		        76*seq_068_mvl/mxv
	BYTE	W06
	BYTE		        77*seq_068_mvl/mxv
	BYTE	W06
	BYTE		        78*seq_068_mvl/mxv
	BYTE	W06
	BYTE		        79*seq_068_mvl/mxv
	BYTE	W06
	BYTE		        80*seq_068_mvl/mxv
	BYTE	W03
	BYTE	PATT
	 POIN2	seq_068_7 + 0x83A
	BYTE	W03
	BYTE		VOL     64*seq_068_mvl/mxv
	BYTE	W06
	BYTE		EOT     Cs3 
	BYTE		VOL     72*seq_068_mvl/mxv
	BYTE		TIE     Ds3   v036
	BYTE	W06
	BYTE		VOL     73*seq_068_mvl/mxv
	BYTE	W24
	BYTE		        74*seq_068_mvl/mxv
	BYTE	W12
	BYTE		        74*seq_068_mvl/mxv
	BYTE	W06
	BYTE		        75*seq_068_mvl/mxv
	BYTE	W06
	BYTE		        76*seq_068_mvl/mxv
	BYTE	W06
	BYTE		        76*seq_068_mvl/mxv
	BYTE	W06
	BYTE		        77*seq_068_mvl/mxv
	BYTE	W06
	BYTE		        78*seq_068_mvl/mxv
	BYTE	W06
	BYTE		        79*seq_068_mvl/mxv
	BYTE	W06
	BYTE		        80*seq_068_mvl/mxv
	BYTE	W03
	BYTE	PATT
	 POIN2	seq_068_7 + 0x83A
	BYTE	W03
	BYTE		VOL     64*seq_068_mvl/mxv
	BYTE	W06
	BYTE		EOT     Ds3 
	BYTE		VOL     73*seq_068_mvl/mxv
	BYTE		N24     As2   v036
	BYTE	W24
	BYTE		        Ds3 
	BYTE	W24
	BYTE		        Dn3 
	BYTE	W24
	BYTE		        Cn3 
	BYTE	W15
	BYTE	W09
	BYTE		N24     As2   v036
	BYTE	W24
	BYTE		        Ds3 
	BYTE	W24
	BYTE		        Dn3 
	BYTE	W24
	BYTE		        Cn3   v032
	BYTE	W15
	BYTE	PEND
	BYTE	W09
	BYTE		N05     Fs2   v036
	BYTE	W12
	BYTE		N04     Fn2   v032
	BYTE	W12
	BYTE		        Ds2 
	BYTE	W12
	BYTE		        Fn2 
	BYTE	W12
	BYTE		N05     Fs2 
	BYTE	W12
	BYTE		N04     Gs2   v036
	BYTE	W12
	BYTE		        As2 
	BYTE	W12
	BYTE		        Cn3   v032
	BYTE	W03
	BYTE	PEND
	BYTE	W09
	BYTE		N05     Cs3   v032
	BYTE	W12
	BYTE		N04     Cn3 
	BYTE	W12
	BYTE		        As2 
	BYTE	W12
	BYTE		        Cn3 
	BYTE	W12
	BYTE		N05     Cs3 
	BYTE	W12
	BYTE		N04     Ds3   v036
	BYTE	W12
	BYTE		        Fn3 
	BYTE	W12
	BYTE		        Fs3 
	BYTE	W03
	BYTE	PEND
	BYTE	W09
	BYTE		N24     As2 
	BYTE	W24
	BYTE		        Ds3 
	BYTE	W24
	BYTE		        Dn3 
	BYTE	W24
	BYTE		        Cn3 
	BYTE	W15
	BYTE	PATT
	 POIN2	seq_068_7 + 0x967
	BYTE	PATT
	 POIN2	seq_068_7 + 0x974
	BYTE	PATT
	 POIN2	seq_068_7 + 0x98E
	BYTE	W09
	BYTE		N05     As2   v032
	BYTE	W12
	BYTE		N04     Fn2 
	BYTE	W12
	BYTE		        As2 
	BYTE	W12
	BYTE		        Fn2   v028
	BYTE	W12
	BYTE		N05     As2   v032
	BYTE	W12
	BYTE		N04     Fn2 
	BYTE	W12
	BYTE		        As2   v028
	BYTE	W12
	BYTE		        Fn2 
	BYTE	W03
	BYTE	W09
	BYTE		N05     As2   v032
	BYTE	W12
	BYTE		N04     Fn2 
	BYTE	W12
	BYTE		        Dn2 
	BYTE	W12
	BYTE		        Fn2 
	BYTE	W12
	BYTE		N05     Fs2   v036
	BYTE	W12
	BYTE		N04     Cs2   v032
	BYTE	W12
	BYTE		N05     Gs2   v036
	BYTE	W12
	BYTE		N04     Ds2   v032
	BYTE	W03
	BYTE	W09
	BYTE		N05     As2 
	BYTE	W12
	BYTE		N04     Fn2 
	BYTE	W12
	BYTE		        As2 
	BYTE	W12
	BYTE		        Fn2 
	BYTE	W12
	BYTE		N05     As2 
	BYTE	W12
	BYTE		N04     Fn2 
	BYTE	W12
	BYTE		        As2 
	BYTE	W12
	BYTE		        Dn3 
	BYTE	W03
	BYTE	W09
	BYTE		N05     Fn3   v036
	BYTE	W12
	BYTE		N04     As2   v032
	BYTE	W12
	BYTE		        Dn3   v036
	BYTE	W12
	BYTE		        Fn3   v032
	BYTE	W12
	BYTE		N05     Fs3   v036
	BYTE	W12
	BYTE		N04     Cs3   v032
	BYTE	W12
	BYTE		        Gs3   v036
	BYTE	W12
	BYTE		        Ds3   v032
	BYTE	W03
	BYTE	W09
	BYTE		N23     As3 
	BYTE	W24
	BYTE		N23
	BYTE	W24
	BYTE		N23
	BYTE	W24
	BYTE		        As3   v036
	BYTE	W15
	BYTE	W09
	BYTE		N18
	BYTE	W48
	BYTE		        As3   v032
	BYTE	W36
	BYTE	W03
	BYTE	W09
	BYTE		N44     As2   v036
	BYTE	W48
	BYTE		        As2   v040
	BYTE	W36
	BYTE	W03
	BYTE	W09
	BYTE		TIE
	BYTE	W30
	BYTE		VOL     74*seq_068_mvl/mxv
	BYTE	W12
	BYTE		        74*seq_068_mvl/mxv
	BYTE	W12
	BYTE		        75*seq_068_mvl/mxv
	BYTE	W12
	BYTE		        76*seq_068_mvl/mxv
	BYTE	W06
	BYTE		        76*seq_068_mvl/mxv
	BYTE	W06
	BYTE		        78*seq_068_mvl/mxv
	BYTE	W06
	BYTE		        78*seq_068_mvl/mxv
	BYTE	W03
	BYTE	W03
	BYTE		        80*seq_068_mvl/mxv
	BYTE	W18
	BYTE		        79*seq_068_mvl/mxv
	BYTE	W03
	BYTE		        78*seq_068_mvl/mxv
	BYTE	W06
	BYTE		        76*seq_068_mvl/mxv
	BYTE	W06
	BYTE		        74*seq_068_mvl/mxv
	BYTE	W06
	BYTE		        72*seq_068_mvl/mxv
	BYTE	W06
	BYTE		        70*seq_068_mvl/mxv
	BYTE	W06
	BYTE		        68*seq_068_mvl/mxv
	BYTE	W06
	BYTE		        66*seq_068_mvl/mxv
	BYTE	W06
	BYTE		        63*seq_068_mvl/mxv
	BYTE	W06
	BYTE		        61*seq_068_mvl/mxv
	BYTE	W06
	BYTE		        59*seq_068_mvl/mxv
	BYTE	W06
	BYTE		        57*seq_068_mvl/mxv
	BYTE	W06
	BYTE		        55*seq_068_mvl/mxv
	BYTE	W06
	BYTE		        52*seq_068_mvl/mxv
	BYTE	W06
	BYTE		        50*seq_068_mvl/mxv
	BYTE	W06
	BYTE		        48*seq_068_mvl/mxv
	BYTE	W06
	BYTE		        46*seq_068_mvl/mxv
	BYTE	W06
	BYTE		        44*seq_068_mvl/mxv
	BYTE	W06
	BYTE		        42*seq_068_mvl/mxv
	BYTE	W06
	BYTE		        39*seq_068_mvl/mxv
	BYTE	W06
	BYTE		        37*seq_068_mvl/mxv
	BYTE	W06
	BYTE		        35*seq_068_mvl/mxv
	BYTE	W06
	BYTE		        33*seq_068_mvl/mxv
	BYTE	W06
	BYTE		        30*seq_068_mvl/mxv
	BYTE	W06
	BYTE		        28*seq_068_mvl/mxv
	BYTE	W06
	BYTE		        26*seq_068_mvl/mxv
	BYTE	W06
	BYTE		        24*seq_068_mvl/mxv
	BYTE	W06
	BYTE		        22*seq_068_mvl/mxv
	BYTE	W06
	BYTE		        20*seq_068_mvl/mxv
	BYTE	W06
	BYTE		        18*seq_068_mvl/mxv
	BYTE	W06
	BYTE		        16*seq_068_mvl/mxv
	BYTE	W21
	BYTE		EOT
	BYTE	W21
	BYTE	FINE

//*********************** Track 09 ***********************//

seq_068_8:
	BYTE	KEYSH   seq_068_key+0
	BYTE	W03
	BYTE	W01
	BYTE		VOICE   61
	BYTE	W01
	BYTE		PAN     c_v-64
	BYTE	W01
	BYTE		VOL     73*seq_068_mvl/mxv
	BYTE	W06
	BYTE		N06     Gn3   v016
	BYTE	W06
	BYTE		        Fs3 
	BYTE	W06
	BYTE		        En3 
	BYTE	W06
	BYTE		        Fs3 
	BYTE	W06
	BYTE		        Gn3 
	BYTE	W06
	BYTE		        Cn4 
	BYTE	W06
	BYTE		        Bn3 
	BYTE	W06
	BYTE		        An3 
	BYTE	W06
	BYTE		        Bn3 
	BYTE	W06
	BYTE		        Gn3 
	BYTE	W06
	BYTE		        Fs3 
	BYTE	W06
	BYTE		        Gn3 
	BYTE	W06
	BYTE		        Bn3 
	BYTE	W06
	BYTE		        An3 
	BYTE	W06
	BYTE		        Gn3 
	BYTE	W03
	BYTE	W03
	BYTE		        Fs3 
	BYTE	W06
	BYTE		        Gn3 
	BYTE	W06
	BYTE		        Fs3 
	BYTE	W06
	BYTE		        En3 
	BYTE	W06
	BYTE		        Fs3 
	BYTE	W06
	BYTE		        Gn3 
	BYTE	W06
	BYTE		        Cn4 
	BYTE	W06
	BYTE		        Bn3   v012
	BYTE	W06
	BYTE		        An3 
	BYTE	W06
	BYTE		        Bn3   v016
	BYTE	W06
	BYTE		        Gn3 
	BYTE	W06
	BYTE		        Fs3 
	BYTE	W06
	BYTE		        Gn3   v012
	BYTE	W06
	BYTE		        Bn3   v016
	BYTE	W06
	BYTE		        An3   v012
	BYTE	W06
	BYTE		        Gn3   v016
	BYTE	W03
	BYTE	W03
	BYTE		        Fs3 
	BYTE	W06
	BYTE		        Gn3 
	BYTE	W06
	BYTE		        Fs3 
	BYTE	W06
	BYTE		        En3 
	BYTE	W06
	BYTE		        Fs3 
	BYTE	W06
	BYTE		        Gn3 
	BYTE	W06
	BYTE		        Cn4 
	BYTE	W06
	BYTE		        Bn3   v012
	BYTE	W06
	BYTE		        An3 
	BYTE	W06
	BYTE		        Bn3   v016
	BYTE	W06
	BYTE		        Gn3 
	BYTE	W06
	BYTE		        Fs3 
	BYTE	W06
	BYTE		        Gn3 
	BYTE	W06
	BYTE		        Bn3 
	BYTE	W06
	BYTE		        An3 
	BYTE	W06
	BYTE		        Gn3 
	BYTE	W03
	BYTE	W03
	BYTE		        Fs3 
	BYTE	W06
	BYTE		        Gn3 
	BYTE	W06
	BYTE		        Fs3 
	BYTE	W06
	BYTE		        En3 
	BYTE	W06
	BYTE		        Fs3   v012
	BYTE	W06
	BYTE		        Gn3   v016
	BYTE	W06
	BYTE		        Cn4   v012
	BYTE	W06
	BYTE		        Bn3 
	BYTE	W06
	BYTE		        An3 
	BYTE	W06
	BYTE		        Bn3 
	BYTE	W06
	BYTE		        Gn3 
	BYTE	W06
	BYTE		        Fs3   v016
	BYTE	W06
	BYTE		        Gn3   v012
	BYTE	W21
	BYTE	W10
	BYTE	W36
	BYTE	W02
	BYTE		VOICE   51
	BYTE	W01
	BYTE		PAN     c_v-24
	BYTE	W01
	BYTE		VOL     73*seq_068_mvl/mxv
	BYTE	W32
	BYTE	W02
	BYTE		N03     Dn4   v096
	BYTE	W06
	BYTE		N02     Dn4   v088
	BYTE	W06
	BYTE		N48     Dn4   v092
	BYTE	W48
	BYTE		        Cs4   v088
	BYTE	W48
	BYTE		TIE     Dn4   v096
	BYTE	W06
	BYTE		VOL     72*seq_068_mvl/mxv
	BYTE	W12
	BYTE		        70*seq_068_mvl/mxv
	BYTE	W06
	BYTE		        70*seq_068_mvl/mxv
	BYTE	W24
	BYTE		        71*seq_068_mvl/mxv
	BYTE	W12
	BYTE		        72*seq_068_mvl/mxv
	BYTE	W06
	BYTE		        72*seq_068_mvl/mxv
	BYTE	W06
	BYTE		        73*seq_068_mvl/mxv
	BYTE	W06
	BYTE		        74*seq_068_mvl/mxv
	BYTE	W06
	BYTE		        74*seq_068_mvl/mxv
	BYTE	W06
	BYTE		        75*seq_068_mvl/mxv
	BYTE	W06
	BYTE		        76*seq_068_mvl/mxv
	BYTE	W06
	BYTE		        77*seq_068_mvl/mxv
	BYTE	W06
	BYTE		        78*seq_068_mvl/mxv
	BYTE	W06
	BYTE		        80*seq_068_mvl/mxv
	BYTE	W06
	BYTE		        80*seq_068_mvl/mxv
	BYTE	W48
	BYTE		        79*seq_068_mvl/mxv
	BYTE	W06
	BYTE		        78*seq_068_mvl/mxv
	BYTE	W06
	BYTE		        74*seq_068_mvl/mxv
	BYTE	W06
	BYTE		        67*seq_068_mvl/mxv
	BYTE	W03
	BYTE		EOT
	BYTE	W02
	BYTE		VOICE   41
	BYTE		BENDR   6
	BYTE		PAN     c_v-24
	BYTE		VOL     85*seq_068_mvl/mxv
	BYTE		BEND    c_v+1
	BYTE	W01
	BYTE		N03     Gn2   v124
	BYTE	W06
	BYTE		N02     Gn2   v112
	BYTE	W06
	BYTE		N03     Gn2   v108
	BYTE	W06
	BYTE		        Gn2   v052
	BYTE	W06
	BYTE		        Gn2   v040
	BYTE	W06
	BYTE		        Gn2   v028
	BYTE	W06
	BYTE		        Gn2   v124
	BYTE	W06
	BYTE		N02     Gn2   v108
	BYTE	W06
	BYTE		N03     Gn2   v112
	BYTE	W06
	BYTE		        Gn2   v052
	BYTE	W06
	BYTE		N23     Gn2   v080
	BYTE	W03
	BYTE		BEND    c_v+0
	BYTE	W03
	BYTE		        c_v-1
	BYTE	W06
	BYTE		        c_v-2
	BYTE	W12
	BYTE		        c_v+1
	BYTE		N02     Gn2   v112
	BYTE	W06
	BYTE		N03     Gn2   v052
	BYTE	W06
	BYTE	PEND
	BYTE	PATT
	 POIN2	seq_068_8 + 0xEB
	BYTE		N03     Gn2   v127
	BYTE	W06
	BYTE		N02     Gn2   v116
	BYTE	W06
	BYTE		N03     Gn2   v112
	BYTE	W06
	BYTE		        Gn2   v052
	BYTE	W06
	BYTE		        Gn2   v040
	BYTE	W06
	BYTE		        Gn2   v028
	BYTE	W06
	BYTE		        Gn2   v127
	BYTE	W06
	BYTE		N02     Gn2   v116
	BYTE	W06
	BYTE		N03
	BYTE	W06
	BYTE		        Gn2   v052
	BYTE	W06
	BYTE		N23     Gn2   v084
	BYTE	W03
	BYTE		BEND    c_v+0
	BYTE	W03
	BYTE		        c_v-1
	BYTE	W06
	BYTE		        c_v-2
	BYTE	W12
	BYTE		        c_v+1
	BYTE		N02     Gn2   v116
	BYTE	W06
	BYTE		N03     Gn2   v052
	BYTE	W06
	BYTE		        Gn2   v127
	BYTE	W06
	BYTE		N02     Gn2   v116
	BYTE	W06
	BYTE		N03     Gn2   v112
	BYTE	W06
	BYTE		        Gn2   v052
	BYTE	W06
	BYTE		        Gn2   v040
	BYTE	W06
	BYTE		        Gn2   v028
	BYTE	W06
	BYTE		        Gn2   v127
	BYTE	W06
	BYTE		N02     Gn2   v116
	BYTE	W06
	BYTE		N03     Gn2   v120
	BYTE	W06
	BYTE		        Gn2   v052
	BYTE	W06
	BYTE		N23     Gn2   v096
	BYTE	W03
	BYTE		BEND    c_v+0
	BYTE	W03
	BYTE		        c_v-1
	BYTE	W06
	BYTE		        c_v-2
	BYTE	W12
	BYTE		        c_v+1
	BYTE		N02     Gn2   v124
	BYTE	W06
	BYTE		N03     Gn2   v052
	BYTE	W06
	BYTE	W96
	BYTE	W06
	BYTE		VOICE   51
	BYTE	W01
	BYTE		PAN     c_v-24
	BYTE	W01
	BYTE		VOL     73*seq_068_mvl/mxv
	BYTE		BEND    c_v+0
	BYTE	W16
	BYTE		N24     Dn3   v076
	BYTE	W24
	BYTE		        En3   v080
	BYTE	W24
	BYTE		        Fs3   v084
	BYTE	W24
	BYTE		N96     Gn3   v080
	BYTE	W96
	BYTE		        En3   v072
	BYTE	W96
	BYTE		TIE     Fs3 
	BYTE	W96
	BYTE	W72
	BYTE		VOL     70*seq_068_mvl/mxv
	BYTE	W06
	BYTE		        68*seq_068_mvl/mxv
	BYTE	W06
	BYTE		        65*seq_068_mvl/mxv
	BYTE	W06
	BYTE		        62*seq_068_mvl/mxv
	BYTE	W06
	BYTE	PEND
	BYTE		EOT     Fs3 
	BYTE		VOL     73*seq_068_mvl/mxv
	BYTE		N96     An3   v068
	BYTE	W96
	BYTE	PEND
	BYTE		N05     Dn4   v088
	BYTE	W06
	BYTE		N04     Dn4   v040
	BYTE	W06
	BYTE		N05     An3   v084
	BYTE	W06
	BYTE		N04     An3   v040
	BYTE	W06
	BYTE		N05     Gn3   v084
	BYTE	W06
	BYTE		N04     Gn3   v040
	BYTE	W06
	BYTE		N05     Gs3   v088
	BYTE	W06
	BYTE		N04     Gs3   v040
	BYTE	W06
	BYTE		N05     An3   v092
	BYTE	W06
	BYTE		N04     An3   v040
	BYTE	W06
	BYTE		N05     Dn3   v092
	BYTE	W06
	BYTE		N04     Dn3   v040
	BYTE	W06
	BYTE		N05     En3   v092
	BYTE	W06
	BYTE		N04     En3   v040
	BYTE	W06
	BYTE		N05     Fs3   v096
	BYTE	W06
	BYTE		N04     Fs3   v040
	BYTE	W06
	BYTE	PEND
	BYTE	W96
	BYTE	W24
	BYTE		N24     Dn3   v076
	BYTE	W24
	BYTE		        En3   v080
	BYTE	W24
	BYTE		        Fs3   v084
	BYTE	W24
	BYTE	PEND
	BYTE		N96     Gn3   v080
	BYTE	W96
	BYTE		        En3   v072
	BYTE	W96
	BYTE		TIE     Fs3 
	BYTE	W96
	BYTE	PATT
	 POIN2	seq_068_8 + 0x1B4
	BYTE		EOT     Fs3 
	BYTE		VOL     73*seq_068_mvl/mxv
	BYTE		N92     An3   v068
	BYTE	W72
	BYTE		VOL     72*seq_068_mvl/mxv
	BYTE	W06
	BYTE		        70*seq_068_mvl/mxv
	BYTE	W06
	BYTE		        65*seq_068_mvl/mxv
	BYTE	W06
	BYTE		        56*seq_068_mvl/mxv
	BYTE	W06
	BYTE	PEND
	BYTE		VOL     73*seq_068_mvl/mxv
	BYTE		N24     An3   v092
	BYTE	W24
	BYTE		        Fs3 
	BYTE	W24
	BYTE		        Dn3   v096
	BYTE	W24
	BYTE		        An2   v100
	BYTE	W24
	BYTE	PEND
	BYTE		N05     Cn3   v108
	BYTE	W06
	BYTE		        Cn3   v040
	BYTE	W06
	BYTE		        En3   v104
	BYTE	W06
	BYTE		        En3   v032
	BYTE	W06
	BYTE		        An2   v108
	BYTE	W06
	BYTE		        An2   v032
	BYTE	W06
	BYTE		        Cn3   v108
	BYTE	W06
	BYTE		        Cn3   v032
	BYTE	W06
	BYTE		        En3   v104
	BYTE	W06
	BYTE		        En3   v032
	BYTE	W06
	BYTE		        An2   v108
	BYTE	W06
	BYTE		        An2   v032
	BYTE	W06
	BYTE		        Cn3   v108
	BYTE	W06
	BYTE		        Cn3   v032
	BYTE	W06
	BYTE		        En3   v108
	BYTE	W06
	BYTE		        En3   v032
	BYTE	W06
	BYTE	PEND
	BYTE		N05     Cn3   v108
	BYTE	W06
	BYTE		        Cn3   v040
	BYTE	W06
	BYTE		        Fn3   v108
	BYTE	W06
	BYTE		        Fn3   v032
	BYTE	W06
	BYTE		        An2   v108
	BYTE	W06
	BYTE		        An2   v032
	BYTE	W06
	BYTE		        Cn3   v108
	BYTE	W06
	BYTE		        Cn3   v032
	BYTE	W06
	BYTE		        Fn3   v104
	BYTE	W06
	BYTE		        Fn3   v032
	BYTE	W06
	BYTE		        An2   v108
	BYTE	W06
	BYTE		        An2   v032
	BYTE	W06
	BYTE		        Cn3   v108
	BYTE	W06
	BYTE		        Cn3   v032
	BYTE	W06
	BYTE		        Fn3   v104
	BYTE	W06
	BYTE		        Fn3   v032
	BYTE	W06
	BYTE	PEND
	BYTE		N48     En3   v096
	BYTE	W48
	BYTE		        Cn3 
	BYTE	W48
	BYTE		N48     An2   v100
	BYTE	W48
	BYTE		        Fs2 
	BYTE	W48
	BYTE	PEND
	BYTE	PATT
	 POIN2	seq_068_8 + 0x246
	BYTE	PATT
	 POIN2	seq_068_8 + 0x278
	BYTE		N48     En3   v096
	BYTE	W48
	BYTE		        Cn3 
	BYTE	W48
	BYTE		N48     An2   v100
	BYTE	W48
	BYTE		N23     Fs2 
	BYTE	W24
	BYTE		N04     Fs2   v104
	BYTE	W06
	BYTE		        An2 
	BYTE	W06
	BYTE		        Dn3 
	BYTE	W06
	BYTE		        En3   v100
	BYTE	W06
	BYTE	PEND
	BYTE		N48     Fs3   v096
	BYTE	W48
	BYTE		        En3   v100
	BYTE	W48
	BYTE	PEND
	BYTE		N48     Ds3   v108
	BYTE	W48
	BYTE		        Bn2 
	BYTE	W48
	BYTE	PEND
	BYTE		TIE     En3   v100
	BYTE	W96
	BYTE	W09
	BYTE		VOL     71*seq_068_mvl/mxv
	BYTE	W06
	BYTE		        70*seq_068_mvl/mxv
	BYTE	W03
	BYTE		        70*seq_068_mvl/mxv
	BYTE	W03
	BYTE		        68*seq_068_mvl/mxv
	BYTE	W03
	BYTE		        67*seq_068_mvl/mxv
	BYTE	W03
	BYTE		        65*seq_068_mvl/mxv
	BYTE	W03
	BYTE		        63*seq_068_mvl/mxv
	BYTE	W03
	BYTE		        60*seq_068_mvl/mxv
	BYTE	W03
	BYTE		        58*seq_068_mvl/mxv
	BYTE	W03
	BYTE		        54*seq_068_mvl/mxv
	BYTE	W03
	BYTE		        51*seq_068_mvl/mxv
	BYTE	W03
	BYTE		        48*seq_068_mvl/mxv
	BYTE	W03
	BYTE		        44*seq_068_mvl/mxv
	BYTE	W03
	BYTE		        39*seq_068_mvl/mxv
	BYTE	W03
	BYTE		        34*seq_068_mvl/mxv
	BYTE	W03
	BYTE		        29*seq_068_mvl/mxv
	BYTE	W03
	BYTE		        24*seq_068_mvl/mxv
	BYTE	W03
	BYTE		        18*seq_068_mvl/mxv
	BYTE	W03
	BYTE		        12*seq_068_mvl/mxv
	BYTE	W06
	BYTE	PEND
	BYTE		EOT     En3 
	BYTE	W24
	BYTE	W48
	BYTE		VOL     73*seq_068_mvl/mxv
	BYTE	W48
	BYTE	PATT
	 POIN2	seq_068_8 + 0x20A
	BYTE		N96     Gn3   v080
	BYTE	W96
	BYTE		        En3   v072
	BYTE	W96
	BYTE		TIE     Fs3 
	BYTE	W96
	BYTE	PATT
	 POIN2	seq_068_8 + 0x1B4
	BYTE		EOT     Fs3 
	BYTE	PATT
	 POIN2	seq_068_8 + 0x1C1
	BYTE	PATT
	 POIN2	seq_068_8 + 0x1C8
	BYTE	W96
	BYTE	PATT
	 POIN2	seq_068_8 + 0x20A
	BYTE		N96     Gn3   v080
	BYTE	W96
	BYTE		        En3   v072
	BYTE	W96
	BYTE		TIE     Fs3 
	BYTE	W96
	BYTE	PATT
	 POIN2	seq_068_8 + 0x1B4
	BYTE		EOT     Fs3 
	BYTE	PATT
	 POIN2	seq_068_8 + 0x227
	BYTE	PATT
	 POIN2	seq_068_8 + 0x237
	BYTE	PATT
	 POIN2	seq_068_8 + 0x246
	BYTE	PATT
	 POIN2	seq_068_8 + 0x278
	BYTE		N48     En3   v096
	BYTE	W48
	BYTE		        Cn3 
	BYTE	W48
	BYTE	PATT
	 POIN2	seq_068_8 + 0x2B0
	BYTE	PATT
	 POIN2	seq_068_8 + 0x246
	BYTE	PATT
	 POIN2	seq_068_8 + 0x278
	BYTE		N48     En3   v096
	BYTE	W48
	BYTE		        Cn3 
	BYTE	W48
	BYTE	PATT
	 POIN2	seq_068_8 + 0x2C7
	BYTE	PATT
	 POIN2	seq_068_8 + 0x2DA
	BYTE	PATT
	 POIN2	seq_068_8 + 0x2E2
	BYTE		TIE     En3   v100
	BYTE	W96
	BYTE	PATT
	 POIN2	seq_068_8 + 0x2ED
	BYTE		EOT     En3 
	BYTE	W24
	BYTE	W48
	BYTE		VOL     73*seq_068_mvl/mxv
	BYTE	W48
	BYTE	PATT
	 POIN2	seq_068_8 + 0x20A
	BYTE		N96     Gn3   v080
	BYTE	W96
	BYTE		        En3   v072
	BYTE	W96
	BYTE		TIE     Fs3 
	BYTE	W96
	BYTE	PATT
	 POIN2	seq_068_8 + 0x1B4
	BYTE		EOT     Fs3 
	BYTE	PATT
	 POIN2	seq_068_8 + 0x1C1
	BYTE	PATT
	 POIN2	seq_068_8 + 0x1C8
	BYTE	W96
	BYTE	PATT
	 POIN2	seq_068_8 + 0x20A
	BYTE		N96     Gn3   v080
	BYTE	W96
	BYTE		        En3   v072
	BYTE	W96
	BYTE		TIE     Fs3 
	BYTE	W96
	BYTE	PATT
	 POIN2	seq_068_8 + 0x1B4
	BYTE		EOT     Fs3 
	BYTE	PATT
	 POIN2	seq_068_8 + 0x227
	BYTE	PATT
	 POIN2	seq_068_8 + 0x237
	BYTE	PATT
	 POIN2	seq_068_8 + 0x246
	BYTE	PATT
	 POIN2	seq_068_8 + 0x278
	BYTE		N48     En3   v096
	BYTE	W48
	BYTE		        Cn3 
	BYTE	W48
	BYTE	PATT
	 POIN2	seq_068_8 + 0x2B0
	BYTE	PATT
	 POIN2	seq_068_8 + 0x246
	BYTE	PATT
	 POIN2	seq_068_8 + 0x278
	BYTE		N48     En3   v096
	BYTE	W48
	BYTE		        Cn3 
	BYTE	W48
	BYTE	PATT
	 POIN2	seq_068_8 + 0x2C7
	BYTE	PATT
	 POIN2	seq_068_8 + 0x2DA
	BYTE	PATT
	 POIN2	seq_068_8 + 0x2E2
	BYTE		TIE     En3   v100
	BYTE	W96
	BYTE	PATT
	 POIN2	seq_068_8 + 0x2ED
	BYTE		EOT     En3 
	BYTE	W13
	BYTE	W11
	BYTE	W48
	BYTE		VOL     73*seq_068_mvl/mxv
	BYTE	W48
	BYTE	W96
	BYTE	W96
	BYTE	W96
	BYTE	W96
	BYTE	W96
	BYTE	W96
	BYTE	W68
	BYTE	W01
	BYTE		VOICE   45
	BYTE	W01
	BYTE		PAN     c_v-64
	BYTE	W01
	BYTE	W01
	BYTE		VOL     73*seq_068_mvl/mxv
	BYTE	W04
	BYTE		N06     An2   v028
	BYTE	W06
	BYTE		        Bn2 
	BYTE	W06
	BYTE		        Cs3 
	BYTE	W06
	BYTE		        Dn3 
	BYTE	W02
	BYTE	W04
	BYTE		N96     En3 
	BYTE	W03
	BYTE		VOL     72*seq_068_mvl/mxv
	BYTE	W03
	BYTE		        70*seq_068_mvl/mxv
	BYTE	W03
	BYTE		        68*seq_068_mvl/mxv
	BYTE	W03
	BYTE		        70*seq_068_mvl/mxv
	BYTE	W09
	BYTE		        70*seq_068_mvl/mxv
	BYTE	W03
	BYTE		        71*seq_068_mvl/mxv
	BYTE	W03
	BYTE		        72*seq_068_mvl/mxv
	BYTE	W03
	BYTE		        72*seq_068_mvl/mxv
	BYTE	W03
	BYTE		        73*seq_068_mvl/mxv
	BYTE	W03
	BYTE		        74*seq_068_mvl/mxv
	BYTE	W03
	BYTE		        76*seq_068_mvl/mxv
	BYTE	W03
	BYTE		        77*seq_068_mvl/mxv
	BYTE	W03
	BYTE		        78*seq_068_mvl/mxv
	BYTE	W03
	BYTE		        80*seq_068_mvl/mxv
	BYTE	W09
	BYTE		        78*seq_068_mvl/mxv
	BYTE	W03
	BYTE		        77*seq_068_mvl/mxv
	BYTE	W03
	BYTE		        76*seq_068_mvl/mxv
	BYTE	W03
	BYTE		        74*seq_068_mvl/mxv
	BYTE	W03
	BYTE		        72*seq_068_mvl/mxv
	BYTE	W03
	BYTE		        70*seq_068_mvl/mxv
	BYTE	W03
	BYTE		        67*seq_068_mvl/mxv
	BYTE	W03
	BYTE		        64*seq_068_mvl/mxv
	BYTE	W03
	BYTE		        60*seq_068_mvl/mxv
	BYTE	W03
	BYTE		        57*seq_068_mvl/mxv
	BYTE	W03
	BYTE		        53*seq_068_mvl/mxv
	BYTE	W03
	BYTE		        48*seq_068_mvl/mxv
	BYTE	W02
	BYTE	W01
	BYTE		        44*seq_068_mvl/mxv
	BYTE	W03
	BYTE		        73*seq_068_mvl/mxv
	BYTE		N44     An2   v024
	BYTE	W18
	BYTE		VOL     70*seq_068_mvl/mxv
	BYTE	W03
	BYTE		        70*seq_068_mvl/mxv
	BYTE	W03
	BYTE		        68*seq_068_mvl/mxv
	BYTE	W03
	BYTE		        64*seq_068_mvl/mxv
	BYTE	W03
	BYTE		        59*seq_068_mvl/mxv
	BYTE	W03
	BYTE		        52*seq_068_mvl/mxv
	BYTE	W03
	BYTE		        44*seq_068_mvl/mxv
	BYTE	W03
	BYTE		        35*seq_068_mvl/mxv
	BYTE	W03
	BYTE		        24*seq_068_mvl/mxv
	BYTE	W06
	BYTE		        73*seq_068_mvl/mxv
	BYTE		N24     Cn3   v028
	BYTE	W24
	BYTE		        Dn3 
	BYTE	W20
	BYTE	W04
	BYTE		N96     Cn3 
	BYTE	W06
	BYTE		VOL     74*seq_068_mvl/mxv
	BYTE	W03
	BYTE		        75*seq_068_mvl/mxv
	BYTE	W12
	BYTE		        76*seq_068_mvl/mxv
	BYTE	W09
	BYTE		        76*seq_068_mvl/mxv
	BYTE	W03
	BYTE		        77*seq_068_mvl/mxv
	BYTE	W03
	BYTE		        78*seq_068_mvl/mxv
	BYTE	W06
	BYTE		        78*seq_068_mvl/mxv
	BYTE	W03
	BYTE		        80*seq_068_mvl/mxv
	BYTE	W06
	BYTE		        79*seq_068_mvl/mxv
	BYTE	W06
	BYTE		        78*seq_068_mvl/mxv
	BYTE	W03
	BYTE		        78*seq_068_mvl/mxv
	BYTE	W03
	BYTE		        77*seq_068_mvl/mxv
	BYTE	W03
	BYTE		        76*seq_068_mvl/mxv
	BYTE	W03
	BYTE		        74*seq_068_mvl/mxv
	BYTE	W03
	BYTE		        72*seq_068_mvl/mxv
	BYTE	W03
	BYTE		        70*seq_068_mvl/mxv
	BYTE	W03
	BYTE		        67*seq_068_mvl/mxv
	BYTE	W03
	BYTE		        64*seq_068_mvl/mxv
	BYTE	W03
	BYTE		        61*seq_068_mvl/mxv
	BYTE	W03
	BYTE		        58*seq_068_mvl/mxv
	BYTE	W03
	BYTE		        54*seq_068_mvl/mxv
	BYTE	W02
	BYTE	W01
	BYTE		        50*seq_068_mvl/mxv
	BYTE	W03
	BYTE		        73*seq_068_mvl/mxv
	BYTE		N92     An2   v024
	BYTE	W18
	BYTE		VOL     72*seq_068_mvl/mxv
	BYTE	W09
	BYTE		        72*seq_068_mvl/mxv
	BYTE	W03
	BYTE		        71*seq_068_mvl/mxv
	BYTE	W03
	BYTE		        70*seq_068_mvl/mxv
	BYTE	W03
	BYTE		        68*seq_068_mvl/mxv
	BYTE	W03
	BYTE		        66*seq_068_mvl/mxv
	BYTE	W03
	BYTE		        65*seq_068_mvl/mxv
	BYTE	W03
	BYTE		        63*seq_068_mvl/mxv
	BYTE	W03
	BYTE		        60*seq_068_mvl/mxv
	BYTE	W03
	BYTE		        58*seq_068_mvl/mxv
	BYTE	W03
	BYTE		        55*seq_068_mvl/mxv
	BYTE	W03
	BYTE		        52*seq_068_mvl/mxv
	BYTE	W03
	BYTE		        48*seq_068_mvl/mxv
	BYTE	W03
	BYTE		        45*seq_068_mvl/mxv
	BYTE	W03
	BYTE		        41*seq_068_mvl/mxv
	BYTE	W03
	BYTE		        37*seq_068_mvl/mxv
	BYTE	W03
	BYTE		        33*seq_068_mvl/mxv
	BYTE	W03
	BYTE		        28*seq_068_mvl/mxv
	BYTE	W03
	BYTE		        24*seq_068_mvl/mxv
	BYTE	W03
	BYTE		        18*seq_068_mvl/mxv
	BYTE	W03
	BYTE		        13*seq_068_mvl/mxv
	BYTE	W03
	BYTE		        8*seq_068_mvl/mxv
	BYTE	W05
	BYTE	W04
	BYTE		        73*seq_068_mvl/mxv
	BYTE		N96     An2   v028
	BYTE	W09
	BYTE		VOL     74*seq_068_mvl/mxv
	BYTE	W03
	BYTE		        74*seq_068_mvl/mxv
	BYTE	W15
	BYTE		        75*seq_068_mvl/mxv
	BYTE	W06
	BYTE		        76*seq_068_mvl/mxv
	BYTE	W09
	BYTE		        76*seq_068_mvl/mxv
	BYTE	W06
	BYTE		        77*seq_068_mvl/mxv
	BYTE	W03
	BYTE		        78*seq_068_mvl/mxv
	BYTE	W06
	BYTE		        78*seq_068_mvl/mxv
	BYTE	W03
	BYTE		        78*seq_068_mvl/mxv
	BYTE	W06
	BYTE		        78*seq_068_mvl/mxv
	BYTE	W03
	BYTE		        76*seq_068_mvl/mxv
	BYTE	W03
	BYTE		        74*seq_068_mvl/mxv
	BYTE	W03
	BYTE		        72*seq_068_mvl/mxv
	BYTE	W03
	BYTE		        70*seq_068_mvl/mxv
	BYTE	W03
	BYTE		        66*seq_068_mvl/mxv
	BYTE	W03
	BYTE		        62*seq_068_mvl/mxv
	BYTE	W03
	BYTE		        58*seq_068_mvl/mxv
	BYTE	W03
	BYTE		        54*seq_068_mvl/mxv
	BYTE	W02
	BYTE	W01
	BYTE		        48*seq_068_mvl/mxv
	BYTE	W03
	BYTE		        73*seq_068_mvl/mxv
	BYTE		N44     Fn2   v024
	BYTE	W15
	BYTE		VOL     72*seq_068_mvl/mxv
	BYTE	W03
	BYTE		        71*seq_068_mvl/mxv
	BYTE	W03
	BYTE		        70*seq_068_mvl/mxv
	BYTE	W03
	BYTE		        66*seq_068_mvl/mxv
	BYTE	W03
	BYTE		        62*seq_068_mvl/mxv
	BYTE	W03
	BYTE		        57*seq_068_mvl/mxv
	BYTE	W03
	BYTE		        51*seq_068_mvl/mxv
	BYTE	W03
	BYTE		        44*seq_068_mvl/mxv
	BYTE	W03
	BYTE		        34*seq_068_mvl/mxv
	BYTE	W03
	BYTE		        25*seq_068_mvl/mxv
	BYTE	W06
	BYTE		        73*seq_068_mvl/mxv
	BYTE		N24     An2   v028
	BYTE	W24
	BYTE		        As2 
	BYTE	W20
	BYTE	W04
	BYTE		N96     An2   v024
	BYTE	W09
	BYTE		VOL     74*seq_068_mvl/mxv
	BYTE	W15
	BYTE		        74*seq_068_mvl/mxv
	BYTE	W06
	BYTE		        75*seq_068_mvl/mxv
	BYTE	W03
	BYTE		        76*seq_068_mvl/mxv
	BYTE	W06
	BYTE		        77*seq_068_mvl/mxv
	BYTE	W03
	BYTE		        78*seq_068_mvl/mxv
	BYTE	W06
	BYTE		        79*seq_068_mvl/mxv
	BYTE	W03
	BYTE		        80*seq_068_mvl/mxv
	BYTE	W03
	BYTE		        81*seq_068_mvl/mxv
	BYTE	W09
	BYTE		        78*seq_068_mvl/mxv
	BYTE	W03
	BYTE		        77*seq_068_mvl/mxv
	BYTE	W03
	BYTE		        75*seq_068_mvl/mxv
	BYTE	W03
	BYTE		        74*seq_068_mvl/mxv
	BYTE	W03
	BYTE		        71*seq_068_mvl/mxv
	BYTE	W03
	BYTE		        68*seq_068_mvl/mxv
	BYTE	W03
	BYTE		        64*seq_068_mvl/mxv
	BYTE	W03
	BYTE		        61*seq_068_mvl/mxv
	BYTE	W03
	BYTE		        57*seq_068_mvl/mxv
	BYTE	W03
	BYTE		        52*seq_068_mvl/mxv
	BYTE	W02
	BYTE	W01
	BYTE		        47*seq_068_mvl/mxv
	BYTE	W03
	BYTE		        73*seq_068_mvl/mxv
	BYTE		N48     Fn2   v020
	BYTE	W48
	BYTE		N24     Dn2   v024
	BYTE	W24
	BYTE		        Fn2 
	BYTE	W20
	BYTE	W04
	BYTE		TIE     Gn2   v020
	BYTE	W06
	BYTE		VOL     74*seq_068_mvl/mxv
	BYTE	W66
	BYTE		        74*seq_068_mvl/mxv
	BYTE	W20
	BYTE	W10
	BYTE		        75*seq_068_mvl/mxv
	BYTE	W18
	BYTE		        76*seq_068_mvl/mxv
	BYTE	W36
	BYTE		        75*seq_068_mvl/mxv
	BYTE	W24
	BYTE		        74*seq_068_mvl/mxv
	BYTE	W06
	BYTE		        74*seq_068_mvl/mxv
	BYTE	W02
	BYTE	W10
	BYTE		        72*seq_068_mvl/mxv
	BYTE	W06
	BYTE		        72*seq_068_mvl/mxv
	BYTE	W06
	BYTE		        71*seq_068_mvl/mxv
	BYTE	W06
	BYTE		        70*seq_068_mvl/mxv
	BYTE	W06
	BYTE		        68*seq_068_mvl/mxv
	BYTE	W06
	BYTE		        68*seq_068_mvl/mxv
	BYTE	W06
	BYTE		        66*seq_068_mvl/mxv
	BYTE	W06
	BYTE		        64*seq_068_mvl/mxv
	BYTE	W06
	BYTE		        63*seq_068_mvl/mxv
	BYTE	W06
	BYTE		        62*seq_068_mvl/mxv
	BYTE	W06
	BYTE		        60*seq_068_mvl/mxv
	BYTE	W06
	BYTE		        58*seq_068_mvl/mxv
	BYTE	W06
	BYTE		        56*seq_068_mvl/mxv
	BYTE	W06
	BYTE		        54*seq_068_mvl/mxv
	BYTE	W06
	BYTE		        51*seq_068_mvl/mxv
	BYTE	W02
	BYTE	W04
	BYTE		        48*seq_068_mvl/mxv
	BYTE	W06
	BYTE		        46*seq_068_mvl/mxv
	BYTE	W06
	BYTE		        44*seq_068_mvl/mxv
	BYTE	W06
	BYTE		        41*seq_068_mvl/mxv
	BYTE	W06
	BYTE		        38*seq_068_mvl/mxv
	BYTE	W06
	BYTE		        35*seq_068_mvl/mxv
	BYTE	W06
	BYTE		        32*seq_068_mvl/mxv
	BYTE	W06
	BYTE		        29*seq_068_mvl/mxv
	BYTE	W06
	BYTE		        26*seq_068_mvl/mxv
	BYTE	W06
	BYTE		        22*seq_068_mvl/mxv
	BYTE	W06
	BYTE		        18*seq_068_mvl/mxv
	BYTE	W06
	BYTE		        15*seq_068_mvl/mxv
	BYTE	W06
	BYTE		        11*seq_068_mvl/mxv
	BYTE	W06
	BYTE		        8*seq_068_mvl/mxv
	BYTE	W06
	BYTE		        4*seq_068_mvl/mxv
	BYTE	W06
	BYTE		        2*seq_068_mvl/mxv
	BYTE	W02
	BYTE	W04
	BYTE		EOT
	BYTE	W92
	BYTE	W96
	BYTE	W96
	BYTE	W72
	BYTE	W01
	BYTE		VOICE   51
	BYTE	W01
	BYTE		VOL     73*seq_068_mvl/mxv
	BYTE	W01
	BYTE		PAN     c_v-19
	BYTE	W21
	BYTE		VOL     73*seq_068_mvl/mxv
	BYTE		TIE     Gn3   v108
	BYTE	W60
	BYTE		VOL     72*seq_068_mvl/mxv
	BYTE	W06
	BYTE		        71*seq_068_mvl/mxv
	BYTE	W06
	BYTE		        69*seq_068_mvl/mxv
	BYTE	W06
	BYTE		        64*seq_068_mvl/mxv
	BYTE	W06
	BYTE		        59*seq_068_mvl/mxv
	BYTE	W06
	BYTE		        52*seq_068_mvl/mxv
	BYTE	W06
	BYTE		        42*seq_068_mvl/mxv
	BYTE	W06
	BYTE		        32*seq_068_mvl/mxv
	BYTE	W05
	BYTE		EOT
	BYTE	W01
	BYTE		VOL     73*seq_068_mvl/mxv
	BYTE		N06     Gn3   v112
	BYTE	W06
	BYTE		        Fs3   v096
	BYTE	W06
	BYTE		N05     Gn3   v100
	BYTE	W06
	BYTE		        Gn3   v032
	BYTE	W06
	BYTE		        An3   v096
	BYTE	W06
	BYTE		        An3   v032
	BYTE	W06
	BYTE		N12     As3   v104
	BYTE	W12
	BYTE		N05     Cn4   v096
	BYTE	W06
	BYTE		        Cn4   v032
	BYTE	W06
	BYTE		        As3   v100
	BYTE	W06
	BYTE		        As3   v032
	BYTE	W06
	BYTE		        An3   v096
	BYTE	W06
	BYTE		        An3   v032
	BYTE	W06
	BYTE		N24     Gn3   v100
	BYTE	W24
	BYTE		N05     Fs3   v096
	BYTE	W06
	BYTE		        Fs3   v032
	BYTE	W06
	BYTE		        An3   v092
	BYTE	W06
	BYTE		        An3   v032
	BYTE	W06
	BYTE		TIE     Gn3   v092
	BYTE	W36
	BYTE		VOL     72*seq_068_mvl/mxv
	BYTE	W12
	BYTE		        71*seq_068_mvl/mxv
	BYTE	W06
	BYTE		        70*seq_068_mvl/mxv
	BYTE	W06
	BYTE		        68*seq_068_mvl/mxv
	BYTE	W06
	BYTE		        64*seq_068_mvl/mxv
	BYTE	W06
	BYTE		        61*seq_068_mvl/mxv
	BYTE	W06
	BYTE		        56*seq_068_mvl/mxv
	BYTE	W06
	BYTE		        52*seq_068_mvl/mxv
	BYTE	W06
	BYTE		        46*seq_068_mvl/mxv
	BYTE	W06
	BYTE		        40*seq_068_mvl/mxv
	BYTE	W06
	BYTE		        33*seq_068_mvl/mxv
	BYTE	W06
	BYTE		        25*seq_068_mvl/mxv
	BYTE	W06
	BYTE		        17*seq_068_mvl/mxv
	BYTE	W06
	BYTE		EOT
	BYTE	W24
	BYTE	W96
	BYTE	W72
	BYTE		VOL     73*seq_068_mvl/mxv
	BYTE	W24
	BYTE		TIE     Gn3   v108
	BYTE	W60
	BYTE		VOL     72*seq_068_mvl/mxv
	BYTE	W06
	BYTE		        71*seq_068_mvl/mxv
	BYTE	W06
	BYTE		        69*seq_068_mvl/mxv
	BYTE	W06
	BYTE		        64*seq_068_mvl/mxv
	BYTE	W06
	BYTE		        59*seq_068_mvl/mxv
	BYTE	W06
	BYTE		        52*seq_068_mvl/mxv
	BYTE	W06
	BYTE		        42*seq_068_mvl/mxv
	BYTE	W06
	BYTE		        32*seq_068_mvl/mxv
	BYTE	W05
	BYTE		EOT
	BYTE	W01
	BYTE		VOL     73*seq_068_mvl/mxv
	BYTE		N06     Gn3   v112
	BYTE	W06
	BYTE		        Fs3   v096
	BYTE	W06
	BYTE		N05     Gn3   v100
	BYTE	W06
	BYTE		        Gn3   v032
	BYTE	W06
	BYTE		        An3   v096
	BYTE	W06
	BYTE		        An3   v032
	BYTE	W06
	BYTE		N12     As3   v104
	BYTE	W12
	BYTE		N05     Cn4   v096
	BYTE	W06
	BYTE		        Cn4   v032
	BYTE	W06
	BYTE		        As3   v100
	BYTE	W06
	BYTE		        As3   v032
	BYTE	W06
	BYTE		        An3   v096
	BYTE	W06
	BYTE		        An3   v032
	BYTE	W06
	BYTE		N12     Gn3   v104
	BYTE	W12
	BYTE		N06     Fs3 
	BYTE	W06
	BYTE		        An3   v092
	BYTE	W06
	BYTE		N05     Gn3   v104
	BYTE	W06
	BYTE		        Gn3   v032
	BYTE	W06
	BYTE		        Ds3   v100
	BYTE	W06
	BYTE		        Ds3   v032
	BYTE	W06
	BYTE		        Fn3   v108
	BYTE	W06
	BYTE		        Fn3   v032
	BYTE	W06
	BYTE		        Ds3   v104
	BYTE	W06
	BYTE		        Ds3   v032
	BYTE	W06
	BYTE		        Dn3   v112
	BYTE	W06
	BYTE		        Dn3   v032
	BYTE	W06
	BYTE		        As2   v108
	BYTE	W06
	BYTE		        As2   v032
	BYTE	W06
	BYTE		N96     Cn3   v104
	BYTE	W18
	BYTE		VOL     72*seq_068_mvl/mxv
	BYTE	W12
	BYTE		        71*seq_068_mvl/mxv
	BYTE	W06
	BYTE		        69*seq_068_mvl/mxv
	BYTE	W06
	BYTE		        67*seq_068_mvl/mxv
	BYTE	W06
	BYTE		        64*seq_068_mvl/mxv
	BYTE	W06
	BYTE		        60*seq_068_mvl/mxv
	BYTE	W06
	BYTE		        56*seq_068_mvl/mxv
	BYTE	W06
	BYTE		        51*seq_068_mvl/mxv
	BYTE	W06
	BYTE		        45*seq_068_mvl/mxv
	BYTE	W06
	BYTE		        39*seq_068_mvl/mxv
	BYTE	W06
	BYTE		        32*seq_068_mvl/mxv
	BYTE	W06
	BYTE		        24*seq_068_mvl/mxv
	BYTE	W06
	BYTE	W96
	BYTE	W90
	BYTE		        73*seq_068_mvl/mxv
	BYTE	W06
	BYTE		N23     Ds2   v112
	BYTE	W24
	BYTE		N07
	BYTE	W08
	BYTE		N07
	BYTE	W08
	BYTE		N07
	BYTE	W08
	BYTE		N12
	BYTE	W24
	BYTE		N12
	BYTE	W24
	BYTE		N44     Gs2 
	BYTE	W48
	BYTE		N23
	BYTE	W24
	BYTE		N23
	BYTE	W24
	BYTE		N68     Fs2 
	BYTE	W72
	BYTE		N23
	BYTE	W24
	BYTE		N92
	BYTE	W96
	BYTE		N44     Ds2 
	BYTE	W48
	BYTE		N23
	BYTE	W24
	BYTE		N24
	BYTE	W24
	BYTE		N44     Bn1   v116
	BYTE	W48
	BYTE		N23
	BYTE	W24
	BYTE		N24
	BYTE	W24
	BYTE		N96     Cn2 
	BYTE	W96
	BYTE		        Fn2   v112
	BYTE	W96
	BYTE	W96
	BYTE	W96
	BYTE	W96
	BYTE	W96
	BYTE	W96
	BYTE	W04
	BYTE	W92
	BYTE	W96
	BYTE	W96
	BYTE	W96
	BYTE	W96
	BYTE	W96
	BYTE	W96
	BYTE	W96
	BYTE	W96
	BYTE	W96
	BYTE	W96
	BYTE	W96
	BYTE	W90
	BYTE	W06
	BYTE		N12     Cs4   v088
	BYTE	W12
	BYTE		N06     Bn3   v084
	BYTE	W06
	BYTE		        As3   v080
	BYTE	W06
	BYTE		N05     Gs3   v092
	BYTE	W06
	BYTE		        Gs3   v032
	BYTE	W06
	BYTE		        Fs3   v084
	BYTE	W06
	BYTE		        Fs3   v032
	BYTE	W06
	BYTE		        Fn3   v092
	BYTE	W06
	BYTE		        Fn3   v032
	BYTE	W06
	BYTE		        Gs3   v088
	BYTE	W06
	BYTE		        Gs3   v032
	BYTE	W06
	BYTE		        Fs3   v092
	BYTE	W06
	BYTE		        Fs3   v032
	BYTE	W06
	BYTE		        Ds3   v084
	BYTE	W06
	BYTE		        Ds3   v032
	BYTE	W06
	BYTE	PEND
	BYTE		N05     Fn3   v092
	BYTE	W06
	BYTE		        Fn3   v032
	BYTE	W06
	BYTE		        Gs3   v084
	BYTE	W06
	BYTE		        Gs3   v032
	BYTE	W06
	BYTE		        Fs3   v092
	BYTE	W06
	BYTE		        Fs3   v032
	BYTE	W06
	BYTE		        Ds3   v092
	BYTE	W06
	BYTE		        Ds3   v032
	BYTE	W06
	BYTE		        Fn3   v092
	BYTE	W06
	BYTE		        Fn3   v032
	BYTE	W06
	BYTE		        Cs3   v092
	BYTE	W06
	BYTE		        Cs3   v032
	BYTE	W06
	BYTE		N23     Ds3   v096
	BYTE	W01
	BYTE		VOL     73*seq_068_mvl/mxv
	BYTE	W02
	BYTE		        74*seq_068_mvl/mxv
	BYTE	W01
	BYTE		        74*seq_068_mvl/mxv
	BYTE	W02
	BYTE		        76*seq_068_mvl/mxv
	BYTE	W01
	BYTE		        74*seq_068_mvl/mxv
	BYTE	W03
	BYTE		        74*seq_068_mvl/mxv
	BYTE	W02
	BYTE		        72*seq_068_mvl/mxv
	BYTE	W01
	BYTE		        70*seq_068_mvl/mxv
	BYTE	W02
	BYTE		        67*seq_068_mvl/mxv
	BYTE	W01
	BYTE		        64*seq_068_mvl/mxv
	BYTE	W02
	BYTE		        60*seq_068_mvl/mxv
	BYTE	W01
	BYTE		        56*seq_068_mvl/mxv
	BYTE	W02
	BYTE		        51*seq_068_mvl/mxv
	BYTE	W01
	BYTE		        46*seq_068_mvl/mxv
	BYTE	W02
	BYTE	PEND
	BYTE		N05     Ds3   v032
	BYTE	W21
	BYTE		VOL     73*seq_068_mvl/mxv
	BYTE	W03
	BYTE		N23     Cs3   v096
	BYTE	W13
	BYTE		VOL     72*seq_068_mvl/mxv
	BYTE	W03
	BYTE		        70*seq_068_mvl/mxv
	BYTE	W02
	BYTE		        68*seq_068_mvl/mxv
	BYTE	W01
	BYTE		        66*seq_068_mvl/mxv
	BYTE	W02
	BYTE		        62*seq_068_mvl/mxv
	BYTE	W01
	BYTE		        58*seq_068_mvl/mxv
	BYTE	W02
	BYTE		N05     Cs3   v032
	BYTE	W06
	BYTE		        Cs3   v020
	BYTE	W06
	BYTE		        Cs3   v016
	BYTE	W10
	BYTE		VOL     73*seq_068_mvl/mxv
	BYTE	W02
	BYTE		N23     Cs3   v092
	BYTE	W13
	BYTE		VOL     72*seq_068_mvl/mxv
	BYTE	W03
	BYTE		        70*seq_068_mvl/mxv
	BYTE	W02
	BYTE		        68*seq_068_mvl/mxv
	BYTE	W01
	BYTE		        66*seq_068_mvl/mxv
	BYTE	W02
	BYTE		        62*seq_068_mvl/mxv
	BYTE	W01
	BYTE		        58*seq_068_mvl/mxv
	BYTE	W02
	BYTE	PEND
	BYTE		N05     Cs3   v032
	BYTE	W06
	BYTE		        Cs3   v020
	BYTE	W06
	BYTE		        Cs3   v016
	BYTE	W10
	BYTE		VOL     73*seq_068_mvl/mxv
	BYTE	W02
	BYTE		N23     Cs3   v096
	BYTE	W13
	BYTE		VOL     72*seq_068_mvl/mxv
	BYTE	W03
	BYTE		        70*seq_068_mvl/mxv
	BYTE	W02
	BYTE		        68*seq_068_mvl/mxv
	BYTE	W01
	BYTE		        66*seq_068_mvl/mxv
	BYTE	W02
	BYTE		        62*seq_068_mvl/mxv
	BYTE	W01
	BYTE		        58*seq_068_mvl/mxv
	BYTE	W02
	BYTE		N05     Cs3   v032
	BYTE	W06
	BYTE		        Cs3   v020
	BYTE	W06
	BYTE		        Cs3   v016
	BYTE	W10
	BYTE		VOL     73*seq_068_mvl/mxv
	BYTE	W02
	BYTE		N23     Cs3   v096
	BYTE	W13
	BYTE		VOL     72*seq_068_mvl/mxv
	BYTE	W03
	BYTE		        70*seq_068_mvl/mxv
	BYTE	W02
	BYTE		        68*seq_068_mvl/mxv
	BYTE	W01
	BYTE		        66*seq_068_mvl/mxv
	BYTE	W02
	BYTE		        62*seq_068_mvl/mxv
	BYTE	W01
	BYTE		        58*seq_068_mvl/mxv
	BYTE	W02
	BYTE	PEND
	BYTE		N05     Cs3   v032
	BYTE	W06
	BYTE		        Cs3   v020
	BYTE	W06
	BYTE		        Cs3   v016
	BYTE	W10
	BYTE		VOL     73*seq_068_mvl/mxv
	BYTE	W02
	BYTE		N23     Ds3   v100
	BYTE	W13
	BYTE		VOL     72*seq_068_mvl/mxv
	BYTE	W03
	BYTE		        70*seq_068_mvl/mxv
	BYTE	W02
	BYTE		        68*seq_068_mvl/mxv
	BYTE	W01
	BYTE		        66*seq_068_mvl/mxv
	BYTE	W02
	BYTE		        62*seq_068_mvl/mxv
	BYTE	W01
	BYTE		        58*seq_068_mvl/mxv
	BYTE	W02
	BYTE		N05     Ds3   v032
	BYTE	W06
	BYTE		        Ds3   v020
	BYTE	W06
	BYTE		        Ds3   v016
	BYTE	W10
	BYTE		VOL     73*seq_068_mvl/mxv
	BYTE	W02
	BYTE		N23     Ds3   v092
	BYTE	W13
	BYTE		VOL     72*seq_068_mvl/mxv
	BYTE	W03
	BYTE		        70*seq_068_mvl/mxv
	BYTE	W02
	BYTE		        68*seq_068_mvl/mxv
	BYTE	W01
	BYTE		        66*seq_068_mvl/mxv
	BYTE	W02
	BYTE		        62*seq_068_mvl/mxv
	BYTE	W01
	BYTE		        58*seq_068_mvl/mxv
	BYTE	W02
	BYTE	PEND
	BYTE		N05     Ds3   v032
	BYTE	W06
	BYTE		        Ds3   v020
	BYTE	W06
	BYTE		        Ds3   v016
	BYTE	W10
	BYTE		VOL     73*seq_068_mvl/mxv
	BYTE	W02
	BYTE		N23     Ds3   v100
	BYTE	W13
	BYTE		VOL     72*seq_068_mvl/mxv
	BYTE	W03
	BYTE		        70*seq_068_mvl/mxv
	BYTE	W02
	BYTE		        68*seq_068_mvl/mxv
	BYTE	W01
	BYTE		        66*seq_068_mvl/mxv
	BYTE	W02
	BYTE		        62*seq_068_mvl/mxv
	BYTE	W01
	BYTE		        58*seq_068_mvl/mxv
	BYTE	W02
	BYTE		N05     Ds3   v032
	BYTE	W06
	BYTE		        Ds3   v020
	BYTE	W06
	BYTE		        Ds3   v016
	BYTE	W10
	BYTE		VOL     73*seq_068_mvl/mxv
	BYTE	W02
	BYTE		N23     Ds3   v096
	BYTE	W13
	BYTE		VOL     72*seq_068_mvl/mxv
	BYTE	W03
	BYTE		        70*seq_068_mvl/mxv
	BYTE	W02
	BYTE		        68*seq_068_mvl/mxv
	BYTE	W01
	BYTE		        66*seq_068_mvl/mxv
	BYTE	W02
	BYTE		        62*seq_068_mvl/mxv
	BYTE	W01
	BYTE		        58*seq_068_mvl/mxv
	BYTE	W02
	BYTE	PEND
	BYTE		N05     Ds3   v032
	BYTE	W06
	BYTE		        Ds3   v020
	BYTE	W06
	BYTE		        Ds3   v016
	BYTE	W10
	BYTE		VOL     73*seq_068_mvl/mxv
	BYTE	W02
	BYTE		N03     Fs3   v104
	BYTE	W04
	BYTE		        Fs3   v032
	BYTE	W04
	BYTE		        Fs3   v096
	BYTE	W04
	BYTE		        Fs3   v032
	BYTE	W04
	BYTE		        Fs3   v096
	BYTE	W04
	BYTE		        Fs3   v032
	BYTE	W04
	BYTE		N44     Fs3   v104
	BYTE	W06
	BYTE		VOL     74*seq_068_mvl/mxv
	BYTE	W03
	BYTE		        74*seq_068_mvl/mxv
	BYTE	W06
	BYTE		        75*seq_068_mvl/mxv
	BYTE	W06
	BYTE		        76*seq_068_mvl/mxv
	BYTE	W03
	BYTE		        77*seq_068_mvl/mxv
	BYTE	W03
	BYTE		        78*seq_068_mvl/mxv
	BYTE	W03
	BYTE		        79*seq_068_mvl/mxv
	BYTE	W03
	BYTE		        78*seq_068_mvl/mxv
	BYTE	W06
	BYTE		        78*seq_068_mvl/mxv
	BYTE	W03
	BYTE		        76*seq_068_mvl/mxv
	BYTE	W03
	BYTE		        74*seq_068_mvl/mxv
	BYTE	W03
	BYTE	PEND
	BYTE		VOL     73*seq_068_mvl/mxv
	BYTE		N05     Fs3   v032
	BYTE	W06
	BYTE		        Fs3   v020
	BYTE	W06
	BYTE		        Fs3   v016
	BYTE	W12
	BYTE		N03     Fs3   v104
	BYTE	W04
	BYTE		        Fs3   v032
	BYTE	W04
	BYTE		        Fs3   v096
	BYTE	W04
	BYTE		        Fs3   v032
	BYTE	W04
	BYTE		        Fs3   v096
	BYTE	W04
	BYTE		        Fs3   v032
	BYTE	W04
	BYTE		N44     Fs3   v104
	BYTE	W06
	BYTE		VOL     74*seq_068_mvl/mxv
	BYTE	W03
	BYTE		        74*seq_068_mvl/mxv
	BYTE	W06
	BYTE		        75*seq_068_mvl/mxv
	BYTE	W06
	BYTE		        76*seq_068_mvl/mxv
	BYTE	W03
	BYTE		        77*seq_068_mvl/mxv
	BYTE	W03
	BYTE		        78*seq_068_mvl/mxv
	BYTE	W03
	BYTE		        79*seq_068_mvl/mxv
	BYTE	W03
	BYTE		        78*seq_068_mvl/mxv
	BYTE	W06
	BYTE		        78*seq_068_mvl/mxv
	BYTE	W03
	BYTE		        76*seq_068_mvl/mxv
	BYTE	W03
	BYTE		        74*seq_068_mvl/mxv
	BYTE	W03
	BYTE	PEND
	BYTE		VOL     73*seq_068_mvl/mxv
	BYTE		N05     Fs3   v032
	BYTE	W06
	BYTE		        Fs3   v020
	BYTE	W06
	BYTE		        Fs3   v016
	BYTE	W12
	BYTE		N03     Gn3   v104
	BYTE	W04
	BYTE		        Gn3   v032
	BYTE	W04
	BYTE		        Gn3   v096
	BYTE	W04
	BYTE		        Gn3   v032
	BYTE	W04
	BYTE		        Gn3   v096
	BYTE	W04
	BYTE		        Gn3   v032
	BYTE	W04
	BYTE		N48     Gn3   v104
	BYTE	W06
	BYTE		VOL     74*seq_068_mvl/mxv
	BYTE	W03
	BYTE		        74*seq_068_mvl/mxv
	BYTE	W06
	BYTE		        75*seq_068_mvl/mxv
	BYTE	W06
	BYTE		        76*seq_068_mvl/mxv
	BYTE	W03
	BYTE		        77*seq_068_mvl/mxv
	BYTE	W03
	BYTE		        78*seq_068_mvl/mxv
	BYTE	W03
	BYTE		        79*seq_068_mvl/mxv
	BYTE	W03
	BYTE		        78*seq_068_mvl/mxv
	BYTE	W06
	BYTE		        78*seq_068_mvl/mxv
	BYTE	W03
	BYTE		        76*seq_068_mvl/mxv
	BYTE	W03
	BYTE		        74*seq_068_mvl/mxv
	BYTE	W03
	BYTE	PEND
	BYTE		VOL     73*seq_068_mvl/mxv
	BYTE		N24     An3   v100
	BYTE	W24
	BYTE		        Gn3   v092
	BYTE	W24
	BYTE		        Fn3 
	BYTE	W24
	BYTE		        Ds3   v084
	BYTE	W12
	BYTE		VOL     70*seq_068_mvl/mxv
	BYTE	W03
	BYTE		        69*seq_068_mvl/mxv
	BYTE	W03
	BYTE		        63*seq_068_mvl/mxv
	BYTE	W03
	BYTE		        54*seq_068_mvl/mxv
	BYTE	W03
	BYTE	PEND
	BYTE	W02
	BYTE	W92
	BYTE	W02
	BYTE	PEND
	BYTE	W96
	BYTE	W96
	BYTE	W96
	BYTE	W96
	BYTE	W96
	BYTE	W96
	BYTE	W96
	BYTE	W96
	BYTE	W96
	BYTE	W96
	BYTE	W96
	BYTE	W96
	BYTE	W96
	BYTE	W96
	BYTE	W90
	BYTE		VOICE   80
	BYTE	W01
	BYTE		PAN     c_v-14
	BYTE	W05
	BYTE		N72     Dn2   v100
	BYTE	W56
	BYTE		VOL     65*seq_068_mvl/mxv
	BYTE	W03
	BYTE		        58*seq_068_mvl/mxv
	BYTE	W03
	BYTE		        52*seq_068_mvl/mxv
	BYTE	W03
	BYTE		        44*seq_068_mvl/mxv
	BYTE	W09
	BYTE		        73*seq_068_mvl/mxv
	BYTE	W22
	BYTE	W84
	BYTE	W01
	BYTE		VOICE   51
	BYTE	W01
	BYTE		VOL     73*seq_068_mvl/mxv
	BYTE	W01
	BYTE		PAN     c_v-19
	BYTE	W09
	BYTE	PEND
	BYTE	PATT
	 POIN2	seq_068_8 + 0x747
	BYTE	PATT
	 POIN2	seq_068_8 + 0x778
	BYTE	PATT
	 POIN2	seq_068_8 + 0x7BF
	BYTE	PATT
	 POIN2	seq_068_8 + 0x7F6
	BYTE	PATT
	 POIN2	seq_068_8 + 0x833
	BYTE	PATT
	 POIN2	seq_068_8 + 0x870
	BYTE	PATT
	 POIN2	seq_068_8 + 0x8AD
	BYTE	PATT
	 POIN2	seq_068_8 + 0x8E9
	BYTE	PATT
	 POIN2	seq_068_8 + 0x924
	BYTE	PATT
	 POIN2	seq_068_8 + 0x95F
	BYTE	PATT
	 POIN2	seq_068_8 + 0x977
	BYTE	W96
	BYTE	W96
	BYTE	W96
	BYTE	W96
	BYTE	W96
	BYTE	W96
	BYTE	W96
	BYTE	W96
	BYTE	W96
	BYTE	W96
	BYTE	W96
	BYTE	W96
	BYTE	W96
	BYTE	W96
	BYTE	W80
	BYTE	W03
	BYTE	W01
	BYTE		VOICE   80
	BYTE	W01
	BYTE		VOL     73*seq_068_mvl/mxv
	BYTE	W01
	BYTE		PAN     c_v-14
	BYTE	W10
	BYTE		N72     Dn2   v100
	BYTE	W56
	BYTE	W02
	BYTE		VOL     65*seq_068_mvl/mxv
	BYTE	W03
	BYTE		        58*seq_068_mvl/mxv
	BYTE	W03
	BYTE		        52*seq_068_mvl/mxv
	BYTE	W03
	BYTE		        44*seq_068_mvl/mxv
	BYTE	W09
	BYTE		        73*seq_068_mvl/mxv
	BYTE	W20
	BYTE	PATT
	 POIN2	seq_068_8 + 0x99F
	BYTE	PATT
	 POIN2	seq_068_8 + 0x747
	BYTE	PATT
	 POIN2	seq_068_8 + 0x778
	BYTE	PATT
	 POIN2	seq_068_8 + 0x7BF
	BYTE	PATT
	 POIN2	seq_068_8 + 0x7F6
	BYTE	PATT
	 POIN2	seq_068_8 + 0x833
	BYTE	PATT
	 POIN2	seq_068_8 + 0x870
	BYTE	PATT
	 POIN2	seq_068_8 + 0x8AD
	BYTE	PATT
	 POIN2	seq_068_8 + 0x8E9
	BYTE	PATT
	 POIN2	seq_068_8 + 0x924
	BYTE	PATT
	 POIN2	seq_068_8 + 0x95F
	BYTE	W04
	BYTE	W92
	BYTE	W96
	BYTE	W96
	BYTE	W96
	BYTE	W96
	BYTE	W96
	BYTE	W96
	BYTE	W96
	BYTE	W96
	BYTE	W96
	BYTE	W96
	BYTE	W96
	BYTE	W96
	BYTE	W96
	BYTE	W96
	BYTE	W96
	BYTE	W96
	BYTE	W84
	BYTE		VOL     73*seq_068_mvl/mxv
	BYTE	W11
	BYTE	W01
	BYTE		TIE     Dn3   v100
	BYTE	W96
	BYTE	W66
	BYTE		VOL     72*seq_068_mvl/mxv
	BYTE	W06
	BYTE		        71*seq_068_mvl/mxv
	BYTE	W06
	BYTE		        68*seq_068_mvl/mxv
	BYTE	W06
	BYTE		        64*seq_068_mvl/mxv
	BYTE	W06
	BYTE		        59*seq_068_mvl/mxv
	BYTE	W06
	BYTE	PEND
	BYTE		EOT     Dn3 
	BYTE		VOL     73*seq_068_mvl/mxv
	BYTE		TIE     En3   v100
	BYTE	W96
	BYTE	PEND
	BYTE	PATT
	 POIN2	seq_068_8 + 0xA5E
	BYTE		EOT     En3 
	BYTE		VOL     73*seq_068_mvl/mxv
	BYTE		TIE     Fn3   v104
	BYTE	W96
	BYTE	PEND
	BYTE	PATT
	 POIN2	seq_068_8 + 0xA5E
	BYTE		EOT     Fn3 
	BYTE		VOL     73*seq_068_mvl/mxv
	BYTE		TIE     Gn3   v104
	BYTE	W96
	BYTE	PEND
	BYTE	PATT
	 POIN2	seq_068_8 + 0xA5E
	BYTE		EOT     Gn3 
	BYTE		VOL     73*seq_068_mvl/mxv
	BYTE		TIE     Dn3   v100
	BYTE	W96
	BYTE	PATT
	 POIN2	seq_068_8 + 0xA5E
	BYTE		EOT     Dn3 
	BYTE	PATT
	 POIN2	seq_068_8 + 0xA6D
	BYTE	PATT
	 POIN2	seq_068_8 + 0xA5E
	BYTE		EOT     En3 
	BYTE	PATT
	 POIN2	seq_068_8 + 0xA7B
	BYTE	PATT
	 POIN2	seq_068_8 + 0xA5E
	BYTE		EOT     Fn3 
	BYTE	PATT
	 POIN2	seq_068_8 + 0xA89
	BYTE	PATT
	 POIN2	seq_068_8 + 0xA5E
	BYTE		EOT     Gn3 
	BYTE		VOL     73*seq_068_mvl/mxv
	BYTE		N84     As3   v100
	BYTE	W60
	BYTE		VOL     72*seq_068_mvl/mxv
	BYTE	W06
	BYTE		        71*seq_068_mvl/mxv
	BYTE	W06
	BYTE		        69*seq_068_mvl/mxv
	BYTE	W06
	BYTE		        64*seq_068_mvl/mxv
	BYTE	W06
	BYTE		        73*seq_068_mvl/mxv
	BYTE		N04     As2   v108
	BYTE	W04
	BYTE		        Ds3 
	BYTE	W04
	BYTE		        Fn3   v112
	BYTE	W04
	BYTE	PEND
	BYTE		N07     As3   v100
	BYTE	W16
	BYTE		N08     Fn3   v096
	BYTE	W08
	BYTE		N72     As3   v100
	BYTE	W36
	BYTE		VOL     72*seq_068_mvl/mxv
	BYTE	W06
	BYTE		        71*seq_068_mvl/mxv
	BYTE	W06
	BYTE		        69*seq_068_mvl/mxv
	BYTE	W06
	BYTE		        65*seq_068_mvl/mxv
	BYTE	W06
	BYTE		        60*seq_068_mvl/mxv
	BYTE	W06
	BYTE		        52*seq_068_mvl/mxv
	BYTE	W06
	BYTE	PEND
	BYTE		VOL     73*seq_068_mvl/mxv
	BYTE		N84     Fs3   v100
	BYTE	W60
	BYTE		VOL     72*seq_068_mvl/mxv
	BYTE	W06
	BYTE		        71*seq_068_mvl/mxv
	BYTE	W06
	BYTE		        69*seq_068_mvl/mxv
	BYTE	W06
	BYTE		        64*seq_068_mvl/mxv
	BYTE	W06
	BYTE		        73*seq_068_mvl/mxv
	BYTE		N04     Fs2   v108
	BYTE	W04
	BYTE		        As2 
	BYTE	W04
	BYTE		        Cs3   v112
	BYTE	W04
	BYTE	PEND
	BYTE		N07     Fs3   v100
	BYTE	W16
	BYTE		N08     Cs3   v096
	BYTE	W08
	BYTE		N72     Fs3   v100
	BYTE	W36
	BYTE		VOL     72*seq_068_mvl/mxv
	BYTE	W06
	BYTE		        71*seq_068_mvl/mxv
	BYTE	W06
	BYTE		        69*seq_068_mvl/mxv
	BYTE	W06
	BYTE		        65*seq_068_mvl/mxv
	BYTE	W06
	BYTE		        60*seq_068_mvl/mxv
	BYTE	W06
	BYTE		        52*seq_068_mvl/mxv
	BYTE	W06
	BYTE	PEND
	BYTE	PATT
	 POIN2	seq_068_8 + 0xAC8
	BYTE	PATT
	 POIN2	seq_068_8 + 0xAE2
	BYTE	PATT
	 POIN2	seq_068_8 + 0xAFC
	BYTE	PATT
	 POIN2	seq_068_8 + 0xB16
	BYTE		VOL     73*seq_068_mvl/mxv
	BYTE		TIE     Fn3   v100
	BYTE	W18
	BYTE		VOL     74*seq_068_mvl/mxv
	BYTE	W06
	BYTE		        74*seq_068_mvl/mxv
	BYTE	W06
	BYTE		        75*seq_068_mvl/mxv
	BYTE	W06
	BYTE		        76*seq_068_mvl/mxv
	BYTE	W06
	BYTE		        78*seq_068_mvl/mxv
	BYTE	W06
	BYTE		        78*seq_068_mvl/mxv
	BYTE	W12
	BYTE		        78*seq_068_mvl/mxv
	BYTE	W06
	BYTE		        77*seq_068_mvl/mxv
	BYTE	W06
	BYTE		        76*seq_068_mvl/mxv
	BYTE	W06
	BYTE		        76*seq_068_mvl/mxv
	BYTE	W06
	BYTE		        74*seq_068_mvl/mxv
	BYTE	W06
	BYTE		        73*seq_068_mvl/mxv
	BYTE	W06
	BYTE	PEND
	BYTE		VOL     71*seq_068_mvl/mxv
	BYTE	W06
	BYTE		        70*seq_068_mvl/mxv
	BYTE	W06
	BYTE		        68*seq_068_mvl/mxv
	BYTE	W06
	BYTE		        66*seq_068_mvl/mxv
	BYTE	W06
	BYTE		        63*seq_068_mvl/mxv
	BYTE	W06
	BYTE		        60*seq_068_mvl/mxv
	BYTE	W06
	BYTE		        57*seq_068_mvl/mxv
	BYTE	W06
	BYTE		        54*seq_068_mvl/mxv
	BYTE	W06
	BYTE	PEND
	BYTE		EOT     Fn3 
	BYTE		VOL     73*seq_068_mvl/mxv
	BYTE		N24     Cs3   v100
	BYTE	W24
	BYTE		        Ds3   v108
	BYTE	W24
	BYTE	PATT
	 POIN2	seq_068_8 + 0xB44
	BYTE	PATT
	 POIN2	seq_068_8 + 0xB64
	BYTE		EOT     Fn3 
	BYTE		VOL     73*seq_068_mvl/mxv
	BYTE		N24     Cs3   v100
	BYTE	W24
	BYTE		        Ds3   v108
	BYTE	W24
	BYTE		N23     Fn3   v100
	BYTE	W24
	BYTE		N23
	BYTE	W24
	BYTE		        Fn3   v104
	BYTE	W24
	BYTE		N23
	BYTE	W24
	BYTE		N17
	BYTE	W18
	BYTE		N06     Fn3   v032
	BYTE	W30
	BYTE		N17     Fn3   v108
	BYTE	W18
	BYTE		N06     Fn3   v032
	BYTE	W30
	BYTE		N48     As2   v108
	BYTE	W48
	BYTE		        As2   v116
	BYTE	W48
	BYTE		TIE
	BYTE	W06
	BYTE		VOL     74*seq_068_mvl/mxv
	BYTE	W12
	BYTE		        75*seq_068_mvl/mxv
	BYTE	W06
	BYTE		        76*seq_068_mvl/mxv
	BYTE	W06
	BYTE		        78*seq_068_mvl/mxv
	BYTE	W06
	BYTE		        79*seq_068_mvl/mxv
	BYTE	W18
	BYTE		        78*seq_068_mvl/mxv
	BYTE	W12
	BYTE		        78*seq_068_mvl/mxv
	BYTE	W06
	BYTE		        77*seq_068_mvl/mxv
	BYTE	W06
	BYTE		        76*seq_068_mvl/mxv
	BYTE	W06
	BYTE		        76*seq_068_mvl/mxv
	BYTE	W06
	BYTE		        75*seq_068_mvl/mxv
	BYTE	W06
	BYTE		        74*seq_068_mvl/mxv
	BYTE	W06
	BYTE		        71*seq_068_mvl/mxv
	BYTE	W06
	BYTE		        69*seq_068_mvl/mxv
	BYTE	W06
	BYTE		        67*seq_068_mvl/mxv
	BYTE	W06
	BYTE		        65*seq_068_mvl/mxv
	BYTE	W06
	BYTE		        63*seq_068_mvl/mxv
	BYTE	W06
	BYTE		        61*seq_068_mvl/mxv
	BYTE	W06
	BYTE		        58*seq_068_mvl/mxv
	BYTE	W06
	BYTE		        56*seq_068_mvl/mxv
	BYTE	W06
	BYTE		        54*seq_068_mvl/mxv
	BYTE	W06
	BYTE		        52*seq_068_mvl/mxv
	BYTE	W06
	BYTE		        50*seq_068_mvl/mxv
	BYTE	W06
	BYTE		        48*seq_068_mvl/mxv
	BYTE	W06
	BYTE		        45*seq_068_mvl/mxv
	BYTE	W06
	BYTE		        43*seq_068_mvl/mxv
	BYTE	W06
	BYTE		        41*seq_068_mvl/mxv
	BYTE	W06
	BYTE		        39*seq_068_mvl/mxv
	BYTE	W06
	BYTE		        36*seq_068_mvl/mxv
	BYTE	W06
	BYTE		        34*seq_068_mvl/mxv
	BYTE	W06
	BYTE		        33*seq_068_mvl/mxv
	BYTE	W06
	BYTE		        30*seq_068_mvl/mxv
	BYTE	W06
	BYTE		        30*seq_068_mvl/mxv
	BYTE	W06
	BYTE		        28*seq_068_mvl/mxv
	BYTE	W06
	BYTE		        28*seq_068_mvl/mxv
	BYTE	W06
	BYTE		        27*seq_068_mvl/mxv
	BYTE	W06
	BYTE		        26*seq_068_mvl/mxv
	BYTE	W06
	BYTE		        25*seq_068_mvl/mxv
	BYTE	W06
	BYTE		        24*seq_068_mvl/mxv
	BYTE	W06
	BYTE		        24*seq_068_mvl/mxv
	BYTE	W06
	BYTE		        22*seq_068_mvl/mxv
	BYTE	W06
	BYTE		        22*seq_068_mvl/mxv
	BYTE	W06
	BYTE		        21*seq_068_mvl/mxv
	BYTE	W06
	BYTE		        20*seq_068_mvl/mxv
	BYTE	W24
	BYTE		EOT
	BYTE	W24
	BYTE	FINE

//*********************** Track 10 ***********************//

seq_068_9:
	BYTE	KEYSH   seq_068_key+0
	BYTE		VOICE   44
	BYTE	W01
	BYTE		PAN     c_v+0
	BYTE	W01
	BYTE		VOL     73*seq_068_mvl/mxv
	BYTE	W01
	BYTE	W96
	BYTE	W96
	BYTE	W96
	BYTE	W72
	BYTE		BEND    c_v+11
	BYTE	W12
	BYTE		N05     Cs3   v112
	BYTE	W06
	BYTE		N04     Cs3   v100
	BYTE	W06
	BYTE		N54     Cs3   v104
	BYTE	W42
	BYTE		VOL     66*seq_068_mvl/mxv
	BYTE	W06
	BYTE		        58*seq_068_mvl/mxv
	BYTE	W12
	BYTE		        73*seq_068_mvl/mxv
	BYTE	W36
	BYTE	W48
	BYTE		N48     Gn2   v116
	BYTE	W36
	BYTE		VOL     66*seq_068_mvl/mxv
	BYTE	W06
	BYTE		        58*seq_068_mvl/mxv
	BYTE	W06
	BYTE		        73*seq_068_mvl/mxv
	BYTE		N54     Gs2   v112
	BYTE	W42
	BYTE		VOL     66*seq_068_mvl/mxv
	BYTE	W06
	BYTE		        58*seq_068_mvl/mxv
	BYTE	W12
	BYTE		        66*seq_068_mvl/mxv
	BYTE	W36
	BYTE	W96
	BYTE	W96
	BYTE	W96
	BYTE	W96
	BYTE	W96
	BYTE		N23     Cs3   v112
	BYTE	W24
	BYTE		N32     Cs3   v100
	BYTE	W36
	BYTE		N17     Cs3   v104
	BYTE	W18
	BYTE		        Cs3   v108
	BYTE	W18
	BYTE	PEND
	BYTE		N23     Cs3   v112
	BYTE	W24
	BYTE		N32     Cs3   v096
	BYTE	W36
	BYTE		N18     Cs3   v108
	BYTE	W18
	BYTE		N17     Cn3 
	BYTE	W18
	BYTE	PEND
	BYTE		N23     As2   v116
	BYTE	W24
	BYTE		N32     As2   v104
	BYTE	W36
	BYTE		N17     As2   v108
	BYTE	W18
	BYTE		        As2   v112
	BYTE	W18
	BYTE	PEND
	BYTE		N23     As2   v116
	BYTE	W24
	BYTE		N32     As2   v100
	BYTE	W36
	BYTE		N18     Cn3   v108
	BYTE	W18
	BYTE		N17     Cs3 
	BYTE	W18
	BYTE	PEND
	BYTE		N23     Fn3   v108
	BYTE	W24
	BYTE		N32     Fn3   v096
	BYTE	W36
	BYTE		N17     Fn3   v100
	BYTE	W18
	BYTE		        Fn3   v108
	BYTE	W18
	BYTE	PEND
	BYTE		N23     Fn3   v108
	BYTE	W24
	BYTE		N32     Fn3   v096
	BYTE	W36
	BYTE		N18     Fn3   v100
	BYTE	W18
	BYTE		N17     Gn3   v104
	BYTE	W18
	BYTE	PEND
	BYTE		N23     Gs3   v104
	BYTE	W24
	BYTE		N32     Gs3   v092
	BYTE	W36
	BYTE		N17     Gs3   v100
	BYTE	W18
	BYTE		        Gs3   v104
	BYTE	W18
	BYTE	PEND
	BYTE		N24     Gs3   v100
	BYTE	W24
	BYTE		        Ds3   v104
	BYTE	W24
	BYTE		        Gs3   v100
	BYTE	W24
	BYTE		        Ds3   v104
	BYTE	W24
	BYTE	PEND
	BYTE	PATT
	 POIN2	seq_068_9 + 0x40
	BYTE	PATT
	 POIN2	seq_068_9 + 0x50
	BYTE	PATT
	 POIN2	seq_068_9 + 0x60
	BYTE	PATT
	 POIN2	seq_068_9 + 0x70
	BYTE	PATT
	 POIN2	seq_068_9 + 0x80
	BYTE	PATT
	 POIN2	seq_068_9 + 0x90
	BYTE	PATT
	 POIN2	seq_068_9 + 0xA1
	BYTE	PATT
	 POIN2	seq_068_9 + 0xB1
	BYTE		N32     Ds3   v108
	BYTE	W36
	BYTE		N05     Ds3   v100
	BYTE	W06
	BYTE		        Ds3   v096
	BYTE	W06
	BYTE		N32     Cs3   v104
	BYTE	W36
	BYTE		N12
	BYTE	W12
	BYTE		N44     Bn2   v104
	BYTE	W48
	BYTE		N24     Bn2   v108
	BYTE	W24
	BYTE		        Cs3   v112
	BYTE	W24
	BYTE	PEND
	BYTE		N54     Ds3   v108
	BYTE	W96
	BYTE		N32     Gs3   v100
	BYTE	W36
	BYTE		N05
	BYTE	W06
	BYTE		        Gs3   v088
	BYTE	W06
	BYTE		N48     Gs3   v092
	BYTE	W48
	BYTE	PEND
	BYTE		N32     Ds3   v108
	BYTE	W36
	BYTE		N05
	BYTE	W06
	BYTE		        Ds3   v096
	BYTE	W06
	BYTE		N32     Cs3   v112
	BYTE	W36
	BYTE		N12     Cs3   v104
	BYTE	W12
	BYTE	PEND
	BYTE	PATT
	 POIN2	seq_068_9 + 0xF8
	BYTE		N54     Ds3   v108
	BYTE	W96
	BYTE	PATT
	 POIN2	seq_068_9 + 0x108
	BYTE		N48     Fn3   v096
	BYTE	W48
	BYTE		        Cn3   v112
	BYTE	W48
	BYTE	PEND
	BYTE		N54     Fn3   v104
	BYTE	W96
	BYTE		N48     As3   v100
	BYTE	W48
	BYTE		        Fn3   v104
	BYTE	W48
	BYTE	PEND
	BYTE		N24     As3   v100
	BYTE	W24
	BYTE		        Fn3   v104
	BYTE	W24
	BYTE		        As3   v096
	BYTE	W24
	BYTE		        Fn3 
	BYTE	W24
	BYTE	PEND
	BYTE	PATT
	 POIN2	seq_068_9 + 0x40
	BYTE	PATT
	 POIN2	seq_068_9 + 0x50
	BYTE	PATT
	 POIN2	seq_068_9 + 0x60
	BYTE	PATT
	 POIN2	seq_068_9 + 0x70
	BYTE	PATT
	 POIN2	seq_068_9 + 0x80
	BYTE	PATT
	 POIN2	seq_068_9 + 0x90
	BYTE	PATT
	 POIN2	seq_068_9 + 0xA1
	BYTE	PATT
	 POIN2	seq_068_9 + 0xB1
	BYTE	PATT
	 POIN2	seq_068_9 + 0x40
	BYTE	PATT
	 POIN2	seq_068_9 + 0x50
	BYTE	PATT
	 POIN2	seq_068_9 + 0x60
	BYTE	PATT
	 POIN2	seq_068_9 + 0x70
	BYTE	PATT
	 POIN2	seq_068_9 + 0x80
	BYTE	PATT
	 POIN2	seq_068_9 + 0x90
	BYTE	PATT
	 POIN2	seq_068_9 + 0xA1
	BYTE	PATT
	 POIN2	seq_068_9 + 0xB1
	BYTE	PATT
	 POIN2	seq_068_9 + 0x116
	BYTE	PATT
	 POIN2	seq_068_9 + 0xF8
	BYTE		N54     Ds3   v108
	BYTE	W96
	BYTE	PATT
	 POIN2	seq_068_9 + 0x108
	BYTE	PATT
	 POIN2	seq_068_9 + 0x116
	BYTE	PATT
	 POIN2	seq_068_9 + 0xF8
	BYTE		N54     Ds3   v108
	BYTE	W96
	BYTE	PATT
	 POIN2	seq_068_9 + 0x108
	BYTE	PATT
	 POIN2	seq_068_9 + 0x136
	BYTE		N54     Fn3   v104
	BYTE	W96
	BYTE	PATT
	 POIN2	seq_068_9 + 0x142
	BYTE	PATT
	 POIN2	seq_068_9 + 0x14A
	BYTE	PATT
	 POIN2	seq_068_9 + 0x40
	BYTE	PATT
	 POIN2	seq_068_9 + 0x50
	BYTE	PATT
	 POIN2	seq_068_9 + 0x60
	BYTE	PATT
	 POIN2	seq_068_9 + 0x70
	BYTE	PATT
	 POIN2	seq_068_9 + 0x80
	BYTE	PATT
	 POIN2	seq_068_9 + 0x90
	BYTE	PATT
	 POIN2	seq_068_9 + 0xA1
	BYTE	PATT
	 POIN2	seq_068_9 + 0xB1
	BYTE	PATT
	 POIN2	seq_068_9 + 0x40
	BYTE	PATT
	 POIN2	seq_068_9 + 0x50
	BYTE	PATT
	 POIN2	seq_068_9 + 0x60
	BYTE	PATT
	 POIN2	seq_068_9 + 0x70
	BYTE	PATT
	 POIN2	seq_068_9 + 0x80
	BYTE	PATT
	 POIN2	seq_068_9 + 0x90
	BYTE	PATT
	 POIN2	seq_068_9 + 0xA1
	BYTE	PATT
	 POIN2	seq_068_9 + 0xB1
	BYTE	PATT
	 POIN2	seq_068_9 + 0x116
	BYTE	PATT
	 POIN2	seq_068_9 + 0xF8
	BYTE		N54     Ds3   v108
	BYTE	W96
	BYTE	PATT
	 POIN2	seq_068_9 + 0x108
	BYTE	PATT
	 POIN2	seq_068_9 + 0x116
	BYTE	PATT
	 POIN2	seq_068_9 + 0xF8
	BYTE		N54     Ds3   v108
	BYTE	W96
	BYTE	PATT
	 POIN2	seq_068_9 + 0x108
	BYTE	PATT
	 POIN2	seq_068_9 + 0x136
	BYTE		N54     Fn3   v104
	BYTE	W96
	BYTE		N48     As3   v100
	BYTE	W56
	BYTE	W02
	BYTE	W36
	BYTE	W02
	BYTE	W24
	BYTE	W01
	BYTE		VOICE   57
	BYTE	W01
	BYTE		VOL     73*seq_068_mvl/mxv
	BYTE		BEND    c_v+0
	BYTE	W01
	BYTE		PAN     c_v+63
	BYTE	W68
	BYTE	W01
	BYTE	W03
	BYTE		N48     An2   v016
	BYTE	W48
	BYTE		        Dn3 
	BYTE	W44
	BYTE	W01
	BYTE	W03
	BYTE		TIE     Cs3 
	BYTE	W04
	BYTE		VOL     74*seq_068_mvl/mxv
	BYTE	W06
	BYTE		        74*seq_068_mvl/mxv
	BYTE	W03
	BYTE		        75*seq_068_mvl/mxv
	BYTE	W03
	BYTE		        76*seq_068_mvl/mxv
	BYTE	W03
	BYTE		        77*seq_068_mvl/mxv
	BYTE	W03
	BYTE		        79*seq_068_mvl/mxv
	BYTE	W03
	BYTE		        80*seq_068_mvl/mxv
	BYTE	W06
	BYTE		        80*seq_068_mvl/mxv
	BYTE	W06
	BYTE		        78*seq_068_mvl/mxv
	BYTE	W03
	BYTE		        77*seq_068_mvl/mxv
	BYTE	W03
	BYTE		        76*seq_068_mvl/mxv
	BYTE	W03
	BYTE		        75*seq_068_mvl/mxv
	BYTE	W03
	BYTE		        72*seq_068_mvl/mxv
	BYTE	W03
	BYTE		        71*seq_068_mvl/mxv
	BYTE	W03
	BYTE		        68*seq_068_mvl/mxv
	BYTE	W03
	BYTE		        66*seq_068_mvl/mxv
	BYTE	W03
	BYTE		        63*seq_068_mvl/mxv
	BYTE	W03
	BYTE		        60*seq_068_mvl/mxv
	BYTE	W03
	BYTE		        57*seq_068_mvl/mxv
	BYTE	W03
	BYTE		        54*seq_068_mvl/mxv
	BYTE	W03
	BYTE		        50*seq_068_mvl/mxv
	BYTE	W03
	BYTE		        46*seq_068_mvl/mxv
	BYTE	W03
	BYTE		        42*seq_068_mvl/mxv
	BYTE	W03
	BYTE		        38*seq_068_mvl/mxv
	BYTE	W03
	BYTE		        32*seq_068_mvl/mxv
	BYTE	W03
	BYTE		        28*seq_068_mvl/mxv
	BYTE	W03
	BYTE		        22*seq_068_mvl/mxv
	BYTE	W02
	BYTE	W01
	BYTE		        17*seq_068_mvl/mxv
	BYTE	W03
	BYTE		        12*seq_068_mvl/mxv
	BYTE	W03
	BYTE		        6*seq_068_mvl/mxv
	BYTE	W02
	BYTE		EOT
	BYTE	W16
	BYTE		VOL     73*seq_068_mvl/mxv
	BYTE	W02
	BYTE		N24     An2 
	BYTE	W24
	BYTE		        Dn3 
	BYTE	W24
	BYTE		        Cs3 
	BYTE	W21
	BYTE	W03
	BYTE		        Bn2   v020
	BYTE	W24
	BYTE		        An2 
	BYTE	W24
	BYTE		N48     Fs3   v016
	BYTE	W44
	BYTE	W01
	BYTE	W03
	BYTE		TIE     En3 
	BYTE	W07
	BYTE		VOL     74*seq_068_mvl/mxv
	BYTE	W18
	BYTE		        74*seq_068_mvl/mxv
	BYTE	W06
	BYTE		        75*seq_068_mvl/mxv
	BYTE	W12
	BYTE		        76*seq_068_mvl/mxv
	BYTE	W06
	BYTE		        76*seq_068_mvl/mxv
	BYTE	W06
	BYTE		        77*seq_068_mvl/mxv
	BYTE	W06
	BYTE		        78*seq_068_mvl/mxv
	BYTE	W06
	BYTE		        80*seq_068_mvl/mxv
	BYTE	W06
	BYTE		        80*seq_068_mvl/mxv
	BYTE	W06
	BYTE		        81*seq_068_mvl/mxv
	BYTE	W14
	BYTE	W10
	BYTE		        80*seq_068_mvl/mxv
	BYTE	W18
	BYTE		        80*seq_068_mvl/mxv
	BYTE	W12
	BYTE		        78*seq_068_mvl/mxv
	BYTE	W12
	BYTE		        77*seq_068_mvl/mxv
	BYTE	W12
	BYTE		        76*seq_068_mvl/mxv
	BYTE	W06
	BYTE		        75*seq_068_mvl/mxv
	BYTE	W06
	BYTE		        74*seq_068_mvl/mxv
	BYTE	W06
	BYTE		        73*seq_068_mvl/mxv
	BYTE	W06
	BYTE		        72*seq_068_mvl/mxv
	BYTE	W06
	BYTE		        71*seq_068_mvl/mxv
	BYTE	W02
	BYTE	W04
	BYTE		        70*seq_068_mvl/mxv
	BYTE	W06
	BYTE		        68*seq_068_mvl/mxv
	BYTE	W06
	BYTE		        67*seq_068_mvl/mxv
	BYTE	W06
	BYTE		        66*seq_068_mvl/mxv
	BYTE	W06
	BYTE		        64*seq_068_mvl/mxv
	BYTE	W06
	BYTE		        63*seq_068_mvl/mxv
	BYTE	W06
	BYTE		        61*seq_068_mvl/mxv
	BYTE	W06
	BYTE		        60*seq_068_mvl/mxv
	BYTE	W06
	BYTE		        58*seq_068_mvl/mxv
	BYTE	W06
	BYTE		        56*seq_068_mvl/mxv
	BYTE	W06
	BYTE		        54*seq_068_mvl/mxv
	BYTE	W06
	BYTE		        53*seq_068_mvl/mxv
	BYTE	W06
	BYTE		        50*seq_068_mvl/mxv
	BYTE	W06
	BYTE		        48*seq_068_mvl/mxv
	BYTE	W06
	BYTE		        47*seq_068_mvl/mxv
	BYTE	W06
	BYTE		        44*seq_068_mvl/mxv
	BYTE	W02
	BYTE	W04
	BYTE		        42*seq_068_mvl/mxv
	BYTE	W06
	BYTE		        40*seq_068_mvl/mxv
	BYTE	W06
	BYTE		        38*seq_068_mvl/mxv
	BYTE	W06
	BYTE		        35*seq_068_mvl/mxv
	BYTE	W06
	BYTE		        33*seq_068_mvl/mxv
	BYTE	W06
	BYTE		        30*seq_068_mvl/mxv
	BYTE	W06
	BYTE		        28*seq_068_mvl/mxv
	BYTE	W06
	BYTE		        25*seq_068_mvl/mxv
	BYTE	W06
	BYTE		        22*seq_068_mvl/mxv
	BYTE	W06
	BYTE		        20*seq_068_mvl/mxv
	BYTE	W06
	BYTE		        17*seq_068_mvl/mxv
	BYTE	W06
	BYTE		        14*seq_068_mvl/mxv
	BYTE	W06
	BYTE		        11*seq_068_mvl/mxv
	BYTE	W06
	BYTE		        8*seq_068_mvl/mxv
	BYTE	W06
	BYTE		        5*seq_068_mvl/mxv
	BYTE	W06
	BYTE		        1*seq_068_mvl/mxv
	BYTE	W02
	BYTE	W03
	BYTE		EOT
	BYTE	W04
	BYTE	W88
	BYTE	W01
	BYTE	W96
	BYTE	W96
	BYTE	W96
	BYTE	W96
	BYTE	W96
	BYTE	W96
	BYTE	W96
	BYTE	W96
	BYTE	W96
	BYTE	W96
	BYTE	W30
	BYTE	W01
	BYTE		VOICE   44
	BYTE	W01
	BYTE		PAN     c_v+0
	BYTE	W01
	BYTE		VOL     73*seq_068_mvl/mxv
	BYTE	W01
	BYTE		BEND    c_v+11
	BYTE	W60
	BYTE	W02
	BYTE		N54     Fs3   v104
	BYTE	W96
	BYTE		        Fs3   v092
	BYTE	W96
	BYTE		        Fs3   v104
	BYTE	W96
	BYTE		        Fs3   v092
	BYTE	W96
	BYTE		        Fs3   v104
	BYTE	W96
	BYTE		        Fs3   v092
	BYTE	W96
	BYTE		        Fs3   v104
	BYTE	W96
	BYTE		N54     Fs3   v092
	BYTE	W84
	BYTE		N05     Fs3   v096
	BYTE	W06
	BYTE		        Fs3   v084
	BYTE	W06
	BYTE	PEND
	BYTE		N11     Fs3   v104
	BYTE	W12
	BYTE		N32     Fs3   v092
	BYTE	W36
	BYTE		N36     Cs3   v104
	BYTE	W36
	BYTE		N05     Fs3   v084
	BYTE	W06
	BYTE		        Fs3   v076
	BYTE	W06
	BYTE	PEND
	BYTE		N11     Fs3   v092
	BYTE	W12
	BYTE		N32     Fs3   v084
	BYTE	W36
	BYTE		N48     Cs3   v092
	BYTE	W48
	BYTE	PEND
	BYTE		N54     Fs3   v104
	BYTE	W96
	BYTE		        Fs3   v092
	BYTE	W96
	BYTE		        Fs3   v104
	BYTE	W96
	BYTE	PATT
	 POIN2	seq_068_9 + 0x379
	BYTE	PATT
	 POIN2	seq_068_9 + 0x385
	BYTE	PATT
	 POIN2	seq_068_9 + 0x399
	BYTE		N23     An3   v100
	BYTE	W24
	BYTE		N07     An3   v092
	BYTE	W08
	BYTE		        An3   v084
	BYTE	W08
	BYTE		        An3   v080
	BYTE	W08
	BYTE		N23     An3   v100
	BYTE	W24
	BYTE		        An3   v088
	BYTE	W24
	BYTE		N44     Dn3   v100
	BYTE	W48
	BYTE		N23     Dn3   v096
	BYTE	W24
	BYTE		        Dn3   v092
	BYTE	W24
	BYTE		N48     Cn3   v104
	BYTE	W48
	BYTE		N40     Gn3   v092
	BYTE	W48
	BYTE		N54     Cn3   v100
	BYTE	W96
	BYTE		N32     An3   v096
	BYTE	W72
	BYTE		N24     An3   v092
	BYTE	W24
	BYTE		N44     Fn3   v088
	BYTE	W72
	BYTE		N24     Fn3   v084
	BYTE	W24
	BYTE		N32     Bn3   v092
	BYTE	W48
	BYTE		N40     Fs3   v084
	BYTE	W48
	BYTE		N24     Bn3   v096
	BYTE	W24
	BYTE		        Fs3 
	BYTE	W24
	BYTE		        Bn3   v104
	BYTE	W24
	BYTE		        Fs3   v100
	BYTE	W24
	BYTE		N24     En3   v100
	BYTE	W24
	BYTE		        Bn2   v104
	BYTE	W24
	BYTE		N44     En3 
	BYTE	W48
	BYTE	PEND
	BYTE		N24     En3   v100
	BYTE	W24
	BYTE		        Cs3 
	BYTE	W24
	BYTE		N44     En3 
	BYTE	W48
	BYTE	PEND
	BYTE		N24     En3   v104
	BYTE	W24
	BYTE		        Bn2 
	BYTE	W24
	BYTE		N44     En3   v100
	BYTE	W48
	BYTE	PEND
	BYTE		N24     En3   v100
	BYTE	W24
	BYTE		        Cs3 
	BYTE	W24
	BYTE		N44     En3   v096
	BYTE	W48
	BYTE	PEND
	BYTE		N48     Gn3   v100
	BYTE	W48
	BYTE		        Dn3 
	BYTE	W48
	BYTE	PEND
	BYTE		N54     An3   v104
	BYTE	W72
	BYTE		N24     En3 
	BYTE	W24
	BYTE	PEND
	BYTE		N48     Gn3   v100
	BYTE	W48
	BYTE		        Dn3   v104
	BYTE	W48
	BYTE	PEND
	BYTE		N54     An3   v100
	BYTE	W72
	BYTE		N24     Cs3 
	BYTE	W24
	BYTE	PEND
	BYTE	PATT
	 POIN2	seq_068_9 + 0x40F
	BYTE	PATT
	 POIN2	seq_068_9 + 0x41A
	BYTE	PATT
	 POIN2	seq_068_9 + 0x424
	BYTE	PATT
	 POIN2	seq_068_9 + 0x42F
	BYTE	PATT
	 POIN2	seq_068_9 + 0x43A
	BYTE	PATT
	 POIN2	seq_068_9 + 0x441
	BYTE		N24     Bn3   v100
	BYTE	W24
	BYTE		        Fs3 
	BYTE	W24
	BYTE		        Bn3   v104
	BYTE	W24
	BYTE		        Fs3   v100
	BYTE	W24
	BYTE	PEND
	BYTE		N24     Bn3   v104
	BYTE	W24
	BYTE		        Fs3 
	BYTE	W24
	BYTE		        Bn3   v108
	BYTE	W24
	BYTE		        Fs3 
	BYTE	W24
	BYTE	PEND
	BYTE		N54     Gn3   v100
	BYTE	W96
	BYTE	W96
	BYTE	W96
	BYTE	W96
	BYTE	W24
	BYTE		N44     Ds3   v104
	BYTE	W48
	BYTE		        Ds3   v096
	BYTE	W24
	BYTE	PEND
	BYTE	W24
	BYTE		N44     Ds3   v104
	BYTE	W48
	BYTE		        Ds3   v100
	BYTE	W24
	BYTE	PEND
	BYTE	W24
	BYTE		N44     An3   v104
	BYTE	W48
	BYTE		        An3   v096
	BYTE	W24
	BYTE	PEND
	BYTE	W24
	BYTE		N44     An3   v104
	BYTE	W48
	BYTE		N24     An3   v092
	BYTE	W24
	BYTE	PEND
	BYTE		N24     Cn4   v096
	BYTE	W24
	BYTE		N07     Gn3 
	BYTE	W08
	BYTE		        Gn3   v084
	BYTE	W08
	BYTE		        Gn3   v076
	BYTE	W08
	BYTE		N48     Cn4   v092
	BYTE	W48
	BYTE	PEND
	BYTE		N24     An3   v096
	BYTE	W24
	BYTE		N07     En3 
	BYTE	W08
	BYTE		        En3   v084
	BYTE	W08
	BYTE		        En3   v076
	BYTE	W08
	BYTE		N48     An3   v092
	BYTE	W48
	BYTE	PEND
	BYTE		N23     Fs3   v100
	BYTE	W24
	BYTE		N07     Fs3   v104
	BYTE	W08
	BYTE		        Fs3   v088
	BYTE	W08
	BYTE		        Fs3   v080
	BYTE	W08
	BYTE		N48     Fs3   v104
	BYTE	W48
	BYTE	PEND
	BYTE		N24     Bn3   v096
	BYTE	W24
	BYTE		        Fs3   v088
	BYTE	W24
	BYTE		        Bn3   v096
	BYTE	W24
	BYTE		        Fs3   v088
	BYTE	W24
	BYTE	PEND
	BYTE	PATT
	 POIN2	seq_068_9 + 0x40F
	BYTE	PATT
	 POIN2	seq_068_9 + 0x41A
	BYTE	PATT
	 POIN2	seq_068_9 + 0x424
	BYTE	PATT
	 POIN2	seq_068_9 + 0x42F
	BYTE	PATT
	 POIN2	seq_068_9 + 0x43A
	BYTE	PATT
	 POIN2	seq_068_9 + 0x441
	BYTE	PATT
	 POIN2	seq_068_9 + 0x449
	BYTE	PATT
	 POIN2	seq_068_9 + 0x451
	BYTE	PATT
	 POIN2	seq_068_9 + 0x40F
	BYTE	PATT
	 POIN2	seq_068_9 + 0x41A
	BYTE	PATT
	 POIN2	seq_068_9 + 0x424
	BYTE	PATT
	 POIN2	seq_068_9 + 0x42F
	BYTE	PATT
	 POIN2	seq_068_9 + 0x43A
	BYTE	PATT
	 POIN2	seq_068_9 + 0x441
	BYTE	PATT
	 POIN2	seq_068_9 + 0x477
	BYTE	PATT
	 POIN2	seq_068_9 + 0x484
	BYTE		N54     Gn3   v100
	BYTE	W96
	BYTE	W96
	BYTE	W96
	BYTE	W96
	BYTE	PATT
	 POIN2	seq_068_9 + 0x497
	BYTE	PATT
	 POIN2	seq_068_9 + 0x4A0
	BYTE	PATT
	 POIN2	seq_068_9 + 0x4A9
	BYTE	PATT
	 POIN2	seq_068_9 + 0x4B2
	BYTE	PATT
	 POIN2	seq_068_9 + 0x4BC
	BYTE	PATT
	 POIN2	seq_068_9 + 0x4CE
	BYTE	PATT
	 POIN2	seq_068_9 + 0x4E0
	BYTE	PATT
	 POIN2	seq_068_9 + 0x4F3
	BYTE	PATT
	 POIN2	seq_068_9 + 0x40F
	BYTE	PATT
	 POIN2	seq_068_9 + 0x41A
	BYTE	PATT
	 POIN2	seq_068_9 + 0x424
	BYTE	PATT
	 POIN2	seq_068_9 + 0x42F
	BYTE	PATT
	 POIN2	seq_068_9 + 0x43A
	BYTE	PATT
	 POIN2	seq_068_9 + 0x441
	BYTE	PATT
	 POIN2	seq_068_9 + 0x449
	BYTE	PATT
	 POIN2	seq_068_9 + 0x451
	BYTE	PATT
	 POIN2	seq_068_9 + 0x40F
	BYTE	PATT
	 POIN2	seq_068_9 + 0x41A
	BYTE	PATT
	 POIN2	seq_068_9 + 0x424
	BYTE	PATT
	 POIN2	seq_068_9 + 0x42F
	BYTE	PATT
	 POIN2	seq_068_9 + 0x43A
	BYTE	PATT
	 POIN2	seq_068_9 + 0x441
	BYTE	PATT
	 POIN2	seq_068_9 + 0x477
	BYTE	PATT
	 POIN2	seq_068_9 + 0x484
	BYTE		N54     Gn3   v100
	BYTE	W96
	BYTE	W96
	BYTE	W96
	BYTE	W96
	BYTE	PATT
	 POIN2	seq_068_9 + 0x497
	BYTE	PATT
	 POIN2	seq_068_9 + 0x4A0
	BYTE	PATT
	 POIN2	seq_068_9 + 0x4A9
	BYTE	PATT
	 POIN2	seq_068_9 + 0x4B2
	BYTE	PATT
	 POIN2	seq_068_9 + 0x4BC
	BYTE	PATT
	 POIN2	seq_068_9 + 0x4CE
	BYTE	PATT
	 POIN2	seq_068_9 + 0x4E0
	BYTE	PATT
	 POIN2	seq_068_9 + 0x4F3
	BYTE	PATT
	 POIN2	seq_068_9 + 0x40F
	BYTE	PATT
	 POIN2	seq_068_9 + 0x41A
	BYTE	PATT
	 POIN2	seq_068_9 + 0x424
	BYTE	PATT
	 POIN2	seq_068_9 + 0x42F
	BYTE	PATT
	 POIN2	seq_068_9 + 0x43A
	BYTE	PATT
	 POIN2	seq_068_9 + 0x441
	BYTE	PATT
	 POIN2	seq_068_9 + 0x449
	BYTE	PATT
	 POIN2	seq_068_9 + 0x451
	BYTE	PATT
	 POIN2	seq_068_9 + 0x40F
	BYTE	PATT
	 POIN2	seq_068_9 + 0x41A
	BYTE	PATT
	 POIN2	seq_068_9 + 0x424
	BYTE	PATT
	 POIN2	seq_068_9 + 0x42F
	BYTE	PATT
	 POIN2	seq_068_9 + 0x43A
	BYTE	PATT
	 POIN2	seq_068_9 + 0x441
	BYTE	PATT
	 POIN2	seq_068_9 + 0x477
	BYTE	PATT
	 POIN2	seq_068_9 + 0x484
	BYTE		N54     En3   v104
	BYTE	W96
	BYTE	W84
	BYTE		N05     En3   v100
	BYTE	W06
	BYTE		        En3   v092
	BYTE	W06
	BYTE	PEND
	BYTE		N54     En3   v104
	BYTE	W96
	BYTE	PATT
	 POIN2	seq_068_9 + 0x653
	BYTE		N54     En3   v104
	BYTE	W96
	BYTE	PATT
	 POIN2	seq_068_9 + 0x653
	BYTE		N54     En3   v104
	BYTE	W96
	BYTE	PATT
	 POIN2	seq_068_9 + 0x653
	BYTE		N54     En3   v104
	BYTE	W96
	BYTE	PATT
	 POIN2	seq_068_9 + 0x653
	BYTE		N12     En3   v096
	BYTE	W12
	BYTE		        Bn2   v088
	BYTE	W12
	BYTE		        En3   v096
	BYTE	W12
	BYTE		        Bn2   v088
	BYTE	W12
	BYTE		        En3   v100
	BYTE	W12
	BYTE		        Bn2   v092
	BYTE	W12
	BYTE		        En3   v100
	BYTE	W12
	BYTE		        Bn2   v092
	BYTE	W12
	BYTE	PEND
	BYTE		N12     En3   v104
	BYTE	W12
	BYTE		        Bn2   v100
	BYTE	W12
	BYTE		        En3   v108
	BYTE	W12
	BYTE		        Bn2   v100
	BYTE	W12
	BYTE		        En3   v112
	BYTE	W12
	BYTE		        Bn2   v104
	BYTE	W12
	BYTE		        En3   v108
	BYTE	W12
	BYTE		        Bn2   v104
	BYTE	W12
	BYTE	PEND
	BYTE		N12     En3   v096
	BYTE	W12
	BYTE		        Cs3   v088
	BYTE	W12
	BYTE		        En3   v096
	BYTE	W12
	BYTE		        Cs3   v088
	BYTE	W12
	BYTE		        En3   v100
	BYTE	W12
	BYTE		        Cs3   v092
	BYTE	W12
	BYTE		        En3   v100
	BYTE	W12
	BYTE		        Cs3   v092
	BYTE	W12
	BYTE	PEND
	BYTE		N12     En3   v104
	BYTE	W12
	BYTE		        Cs3   v100
	BYTE	W12
	BYTE		        En3   v108
	BYTE	W12
	BYTE		        Cs3   v100
	BYTE	W12
	BYTE		        En3   v112
	BYTE	W12
	BYTE		        Cs3   v104
	BYTE	W12
	BYTE		        En3   v108
	BYTE	W12
	BYTE		        Cs3   v104
	BYTE	W12
	BYTE	PEND
	BYTE	PATT
	 POIN2	seq_068_9 + 0x680
	BYTE	PATT
	 POIN2	seq_068_9 + 0x69A
	BYTE	PATT
	 POIN2	seq_068_9 + 0x6B4
	BYTE	PATT
	 POIN2	seq_068_9 + 0x6CE
	BYTE		N11     En3   v104
	BYTE	W12
	BYTE		N32     En3   v092
	BYTE	W36
	BYTE		N11     En3   v096
	BYTE	W12
	BYTE		N32     En3   v092
	BYTE	W36
	BYTE	PEND
	BYTE	PATT
	 POIN2	seq_068_9 + 0x6FC
	BYTE		N12     Cn3   v100
	BYTE	W12
	BYTE		        Gn3   v092
	BYTE	W12
	BYTE		        Cn3   v104
	BYTE	W12
	BYTE		        Gn3   v092
	BYTE	W12
	BYTE		        Cn3   v108
	BYTE	W12
	BYTE		        Gn3   v096
	BYTE	W12
	BYTE		        Cn3   v104
	BYTE	W12
	BYTE		        Gn3   v096
	BYTE	W12
	BYTE	PEND
	BYTE		N12     Cn3   v112
	BYTE	W12
	BYTE		        Gn3   v100
	BYTE	W12
	BYTE		        Cn3   v116
	BYTE	W12
	BYTE		        Gn3   v100
	BYTE	W12
	BYTE		        Cn3   v116
	BYTE	W12
	BYTE		        Gn3   v104
	BYTE	W12
	BYTE		        Cn3   v116
	BYTE	W12
	BYTE		        Gn3   v104
	BYTE	W12
	BYTE	PEND
	BYTE	PATT
	 POIN2	seq_068_9 + 0x6FC
	BYTE	PATT
	 POIN2	seq_068_9 + 0x6FC
	BYTE	PATT
	 POIN2	seq_068_9 + 0x712
	BYTE	PATT
	 POIN2	seq_068_9 + 0x72C
	BYTE		N12     En3   v112
	BYTE	W12
	BYTE		        Bn2   v104
	BYTE	W12
	BYTE		        En3   v112
	BYTE	W12
	BYTE		        Bn2   v100
	BYTE	W12
	BYTE		        En3   v112
	BYTE	W12
	BYTE		        Bn2   v100
	BYTE	W12
	BYTE		        En3   v108
	BYTE	W12
	BYTE		        Bn2   v104
	BYTE	W12
	BYTE	PEND
	BYTE		N12     En3   v112
	BYTE	W12
	BYTE		        Bn2   v104
	BYTE	W12
	BYTE		        En3   v112
	BYTE	W12
	BYTE		        Bn2   v104
	BYTE	W12
	BYTE		        Cn3   v116
	BYTE	W12
	BYTE		        Gn3   v108
	BYTE	W12
	BYTE		        Dn3   v116
	BYTE	W12
	BYTE		        Gn3   v104
	BYTE	W12
	BYTE	PEND
	BYTE	PATT
	 POIN2	seq_068_9 + 0x75A
	BYTE	PATT
	 POIN2	seq_068_9 + 0x774
	BYTE		N23     En3   v104
	BYTE	W24
	BYTE		        En3   v100
	BYTE	W24
	BYTE		        En3   v096
	BYTE	W24
	BYTE		N23
	BYTE	W24
	BYTE		N44     En3   v100
	BYTE	W48
	BYTE		N44
	BYTE	W48
	BYTE		        En3   v104
	BYTE	W48
	BYTE		        En3   v108
	BYTE	W48
	BYTE		N54     En3   v112
	BYTE	W96
	BYTE	W96
	BYTE	W96
	BYTE	W48
	BYTE	FINE

//*********************** Track 11 ***********************//

seq_068_10:
	BYTE	KEYSH   seq_068_key+0
	BYTE	W03
	BYTE	W96
	BYTE	W96
	BYTE	W96
	BYTE	W96
	BYTE	W96
	BYTE	W96
	BYTE	W96
	BYTE	W84
	BYTE	W03
	BYTE		VOICE   80
	BYTE	W01
	BYTE		PAN     c_v+6
	BYTE	W01
	BYTE		VOL     66*seq_068_mvl/mxv
	BYTE	W07
	BYTE		N03     Bn1   v084
	BYTE	W06
	BYTE		        Bn1   v064
	BYTE	W06
	BYTE		        Bn1   v068
	BYTE	W12
	BYTE		        Bn1   v016
	BYTE	W12
	BYTE		        Bn1   v084
	BYTE	W06
	BYTE		        Bn1   v068
	BYTE	W06
	BYTE		        Bn1   v084
	BYTE	W12
	BYTE		        Bn1   v072
	BYTE	W12
	BYTE		        Bn1   v016
	BYTE	W12
	BYTE		        Bn1   v084
	BYTE	W12
	BYTE	PEND
	BYTE	PATT
	 POIN2	seq_068_10 + 0x15
	BYTE	PATT
	 POIN2	seq_068_10 + 0x15
	BYTE	PATT
	 POIN2	seq_068_10 + 0x15
	BYTE		N03     Bn1   v084
	BYTE	W06
	BYTE		        Bn1   v016
	BYTE	W06
	BYTE		        Bn1   v072
	BYTE	W06
	BYTE		N02     Bn1   v068
	BYTE	W06
	BYTE		N03     Bn1   v084
	BYTE	W06
	BYTE		        Bn1   v016
	BYTE	W06
	BYTE		        Bn1   v072
	BYTE	W06
	BYTE		N02     Bn1   v068
	BYTE	W06
	BYTE		N03     Bn1   v084
	BYTE	W06
	BYTE		        Bn1   v016
	BYTE	W06
	BYTE		N02     Bn1   v084
	BYTE	W03
	BYTE		        Bn1   v064
	BYTE	W03
	BYTE		        Bn1   v048
	BYTE	W03
	BYTE		        Bn1   v032
	BYTE	W03
	BYTE		N03     Bn1   v084
	BYTE	W06
	BYTE		N02
	BYTE	W03
	BYTE		        Bn1   v076
	BYTE	W03
	BYTE		        Bn1   v064
	BYTE	W03
	BYTE		        Bn1   v048
	BYTE	W03
	BYTE		        Bn1   v036
	BYTE	W03
	BYTE		        Bn1   v020
	BYTE	W03
	BYTE	PEND
	BYTE		N02     Bn1   v084
	BYTE	W06
	BYTE		        Bn1   v016
	BYTE	W06
	BYTE		        Bn1   v072
	BYTE	W06
	BYTE		        Bn1   v068
	BYTE	W06
	BYTE		        Bn1   v084
	BYTE	W06
	BYTE		        Bn1   v016
	BYTE	W06
	BYTE		        Bn1   v072
	BYTE	W06
	BYTE		        Bn1   v068
	BYTE	W06
	BYTE		        Bn1   v084
	BYTE	W06
	BYTE		        Bn1   v016
	BYTE	W06
	BYTE		        Bn1   v084
	BYTE	W03
	BYTE		        Bn1   v064
	BYTE	W03
	BYTE		        Bn1   v048
	BYTE	W03
	BYTE		        Bn1   v032
	BYTE	W03
	BYTE		        Bn1   v084
	BYTE	W06
	BYTE		N02
	BYTE	W03
	BYTE		        Bn1   v076
	BYTE	W03
	BYTE		        Bn1   v064
	BYTE	W03
	BYTE		        Bn1   v048
	BYTE	W03
	BYTE		        Bn1   v036
	BYTE	W03
	BYTE		        Bn1   v020
	BYTE	W03
	BYTE	PEND
	BYTE	PATT
	 POIN2	seq_068_10 + 0x44
	BYTE	PATT
	 POIN2	seq_068_10 + 0x44
	BYTE	PATT
	 POIN2	seq_068_10 + 0x44
	BYTE	PATT
	 POIN2	seq_068_10 + 0x44
	BYTE	PATT
	 POIN2	seq_068_10 + 0x44
	BYTE		N03     Bn1   v084
	BYTE	W06
	BYTE		        Bn1   v016
	BYTE	W06
	BYTE		        Bn1   v072
	BYTE	W06
	BYTE		N02     Bn1   v068
	BYTE	W06
	BYTE		N03     Bn1   v084
	BYTE	W06
	BYTE		        Bn1   v016
	BYTE	W06
	BYTE		        Bn1   v072
	BYTE	W06
	BYTE		N02     Bn1   v068
	BYTE	W06
	BYTE		N03     Bn1   v084
	BYTE	W06
	BYTE		        Bn1   v016
	BYTE	W06
	BYTE		N02     Bn1   v076
	BYTE	W06
	BYTE		N03     Bn1   v016
	BYTE	W06
	BYTE		        Bn1   v072
	BYTE	W06
	BYTE		N02     Bn1   v080
	BYTE	W06
	BYTE		N03     Bn1   v084
	BYTE	W06
	BYTE		N02     Bn1   v092
	BYTE	W06
	BYTE	PEND
	BYTE	PATT
	 POIN2	seq_068_10 + 0x44
	BYTE	PATT
	 POIN2	seq_068_10 + 0x8A
	BYTE	PATT
	 POIN2	seq_068_10 + 0x44
	BYTE	PATT
	 POIN2	seq_068_10 + 0x44
	BYTE	PATT
	 POIN2	seq_068_10 + 0x44
	BYTE	PATT
	 POIN2	seq_068_10 + 0x44
	BYTE	PATT
	 POIN2	seq_068_10 + 0x44
	BYTE	PATT
	 POIN2	seq_068_10 + 0xE3
	BYTE		N03     Bn1   v084
	BYTE	W06
	BYTE		N02     Bn1   v072
	BYTE	W06
	BYTE		N03     Bn1   v080
	BYTE	W06
	BYTE		N02     Bn1   v076
	BYTE	W06
	BYTE		N03
	BYTE	W06
	BYTE		        Bn1   v016
	BYTE	W06
	BYTE		        Bn1   v080
	BYTE	W06
	BYTE		N02     Bn1   v076
	BYTE	W06
	BYTE		N03     Bn1   v084
	BYTE	W06
	BYTE		N02     Bn1   v072
	BYTE	W06
	BYTE		N03     Bn1   v080
	BYTE	W06
	BYTE		        Bn1   v016
	BYTE	W06
	BYTE		        Bn1   v084
	BYTE	W06
	BYTE		N02     Bn1   v072
	BYTE	W06
	BYTE		N03     Bn1   v056
	BYTE	W06
	BYTE		N02     Bn1   v044
	BYTE	W06
	BYTE	PEND
	BYTE	PATT
	 POIN2	seq_068_10 + 0x146
	BYTE		N03     Bn1   v084
	BYTE	W06
	BYTE		        Bn1   v016
	BYTE	W06
	BYTE		N02     Bn1   v072
	BYTE	W06
	BYTE		N03     Bn1   v016
	BYTE	W06
	BYTE		        Bn1   v012
	BYTE	W12
	BYTE		N02     Bn1   v084
	BYTE	W03
	BYTE		        Bn1   v064
	BYTE	W03
	BYTE		        Bn1   v048
	BYTE	W03
	BYTE		        Bn1   v032
	BYTE	W03
	BYTE		N03     Bn1   v084
	BYTE	W06
	BYTE		        Bn1   v016
	BYTE	W06
	BYTE		N02     Bn1   v072
	BYTE	W06
	BYTE		N03     Bn1   v016
	BYTE	W06
	BYTE		        Bn1   v012
	BYTE	W12
	BYTE		N02     Bn1   v084
	BYTE	W03
	BYTE		        Bn1   v064
	BYTE	W03
	BYTE		        Bn1   v048
	BYTE	W03
	BYTE		        Bn1   v032
	BYTE	W03
	BYTE	PEND
	BYTE	PATT
	 POIN2	seq_068_10 + 0x186
	BYTE	PATT
	 POIN2	seq_068_10 + 0x146
	BYTE	PATT
	 POIN2	seq_068_10 + 0x146
	BYTE	PATT
	 POIN2	seq_068_10 + 0x186
	BYTE	PATT
	 POIN2	seq_068_10 + 0x186
	BYTE		N03     Bn1   v084
	BYTE	W06
	BYTE		        Bn1   v016
	BYTE	W06
	BYTE		        Bn1   v080
	BYTE	W06
	BYTE		N02     Bn1   v072
	BYTE	W06
	BYTE		N03     Bn1   v084
	BYTE	W06
	BYTE		        Bn1   v016
	BYTE	W06
	BYTE		        Bn1   v080
	BYTE	W06
	BYTE		N02     Bn1   v072
	BYTE	W06
	BYTE		N03     Bn1   v084
	BYTE	W06
	BYTE		        Bn1   v016
	BYTE	W06
	BYTE		N02     Bn1   v064
	BYTE	W06
	BYTE		N03     Bn1   v016
	BYTE	W06
	BYTE		        Bn1   v084
	BYTE	W06
	BYTE		        Bn1   v072
	BYTE	W06
	BYTE		        Bn1   v056
	BYTE	W06
	BYTE		        Bn1   v044
	BYTE	W06
	BYTE	PEND
	BYTE	PATT
	 POIN2	seq_068_10 + 0x1DE
	BYTE	PATT
	 POIN2	seq_068_10 + 0x1DE
	BYTE	PATT
	 POIN2	seq_068_10 + 0x1DE
	BYTE	PATT
	 POIN2	seq_068_10 + 0x44
	BYTE	PATT
	 POIN2	seq_068_10 + 0x8A
	BYTE	PATT
	 POIN2	seq_068_10 + 0x44
	BYTE	PATT
	 POIN2	seq_068_10 + 0x44
	BYTE	PATT
	 POIN2	seq_068_10 + 0x44
	BYTE	PATT
	 POIN2	seq_068_10 + 0x44
	BYTE	PATT
	 POIN2	seq_068_10 + 0x44
	BYTE	PATT
	 POIN2	seq_068_10 + 0xE3
	BYTE	PATT
	 POIN2	seq_068_10 + 0x44
	BYTE	PATT
	 POIN2	seq_068_10 + 0x8A
	BYTE	PATT
	 POIN2	seq_068_10 + 0x44
	BYTE	PATT
	 POIN2	seq_068_10 + 0x44
	BYTE	PATT
	 POIN2	seq_068_10 + 0x44
	BYTE	PATT
	 POIN2	seq_068_10 + 0x44
	BYTE	PATT
	 POIN2	seq_068_10 + 0x44
	BYTE	PATT
	 POIN2	seq_068_10 + 0xE3
	BYTE	PATT
	 POIN2	seq_068_10 + 0x146
	BYTE	PATT
	 POIN2	seq_068_10 + 0x146
	BYTE	PATT
	 POIN2	seq_068_10 + 0x186
	BYTE	PATT
	 POIN2	seq_068_10 + 0x186
	BYTE	PATT
	 POIN2	seq_068_10 + 0x146
	BYTE	PATT
	 POIN2	seq_068_10 + 0x146
	BYTE	PATT
	 POIN2	seq_068_10 + 0x186
	BYTE	PATT
	 POIN2	seq_068_10 + 0x186
	BYTE	PATT
	 POIN2	seq_068_10 + 0x1DE
	BYTE	PATT
	 POIN2	seq_068_10 + 0x1DE
	BYTE	PATT
	 POIN2	seq_068_10 + 0x1DE
	BYTE	PATT
	 POIN2	seq_068_10 + 0x1DE
	BYTE	PATT
	 POIN2	seq_068_10 + 0x44
	BYTE	PATT
	 POIN2	seq_068_10 + 0x8A
	BYTE	PATT
	 POIN2	seq_068_10 + 0x44
	BYTE	PATT
	 POIN2	seq_068_10 + 0x44
	BYTE	PATT
	 POIN2	seq_068_10 + 0x44
	BYTE	PATT
	 POIN2	seq_068_10 + 0x44
	BYTE	PATT
	 POIN2	seq_068_10 + 0x44
	BYTE	PATT
	 POIN2	seq_068_10 + 0xE3
	BYTE	PATT
	 POIN2	seq_068_10 + 0x44
	BYTE	PATT
	 POIN2	seq_068_10 + 0x8A
	BYTE	PATT
	 POIN2	seq_068_10 + 0x44
	BYTE	PATT
	 POIN2	seq_068_10 + 0x44
	BYTE	PATT
	 POIN2	seq_068_10 + 0x44
	BYTE	PATT
	 POIN2	seq_068_10 + 0x44
	BYTE	PATT
	 POIN2	seq_068_10 + 0x44
	BYTE	PATT
	 POIN2	seq_068_10 + 0xE3
	BYTE	PATT
	 POIN2	seq_068_10 + 0x146
	BYTE	PATT
	 POIN2	seq_068_10 + 0x146
	BYTE	PATT
	 POIN2	seq_068_10 + 0x186
	BYTE	PATT
	 POIN2	seq_068_10 + 0x186
	BYTE	PATT
	 POIN2	seq_068_10 + 0x146
	BYTE	PATT
	 POIN2	seq_068_10 + 0x146
	BYTE	PATT
	 POIN2	seq_068_10 + 0x186
	BYTE	PATT
	 POIN2	seq_068_10 + 0x186
	BYTE	PATT
	 POIN2	seq_068_10 + 0x1DE
	BYTE	PATT
	 POIN2	seq_068_10 + 0x1DE
	BYTE	W01
	BYTE	W92
	BYTE	W03
	BYTE	W96
	BYTE	W96
	BYTE	W96
	BYTE	W96
	BYTE	W96
	BYTE	W96
	BYTE	W96
	BYTE	W88
	BYTE	W01
	BYTE		VOICE   54
	BYTE	W01
	BYTE		PAN     c_v+63
	BYTE	W01
	BYTE		VOL     73*seq_068_mvl/mxv
	BYTE	W05
	BYTE	W05
	BYTE		N11     An3   v012
	BYTE	W12
	BYTE		        En3   v016
	BYTE	W12
	BYTE		        Cs3 
	BYTE	W12
	BYTE		        An2 
	BYTE	W12
	BYTE		        En2   v020
	BYTE	W12
	BYTE		        Cs2 
	BYTE	W12
	BYTE		        An1 
	BYTE	W12
	BYTE		        En1 
	BYTE	W07
	BYTE	W05
	BYTE		N12     Fn1 
	BYTE	W12
	BYTE		        Cn2 
	BYTE	W12
	BYTE		        Fn2   v016
	BYTE	W12
	BYTE		        An2 
	BYTE	W12
	BYTE		        Cn3 
	BYTE	W42
	BYTE	W01
	BYTE	W05
	BYTE		        Fn1   v020
	BYTE	W12
	BYTE		        Cn2   v016
	BYTE	W12
	BYTE		        Fn2 
	BYTE	W12
	BYTE		        An2   v012
	BYTE	W12
	BYTE		        Cn3 
	BYTE	W42
	BYTE	W01
	BYTE	W05
	BYTE		        Dn1   v020
	BYTE	W12
	BYTE		        An1 
	BYTE	W12
	BYTE		        Dn2   v016
	BYTE	W12
	BYTE		        Fn2 
	BYTE	W12
	BYTE		        An2 
	BYTE	W42
	BYTE	W01
	BYTE	W05
	BYTE		        Dn1   v020
	BYTE	W12
	BYTE		        An1   v016
	BYTE	W12
	BYTE		        Dn2 
	BYTE	W12
	BYTE		        Fn2   v012
	BYTE	W12
	BYTE		        An2 
	BYTE	W42
	BYTE	W01
	BYTE	W05
	BYTE		        As0   v020
	BYTE	W12
	BYTE		        Fn1   v016
	BYTE	W12
	BYTE		        As1 
	BYTE	W12
	BYTE		        Dn2   v012
	BYTE	W12
	BYTE		        Fn2 
	BYTE	W42
	BYTE	W01
	BYTE	W05
	BYTE		        As0   v016
	BYTE	W12
	BYTE		        Fn1 
	BYTE	W12
	BYTE		        As1 
	BYTE	W12
	BYTE		        Dn2   v012
	BYTE	W12
	BYTE		        Fn2 
	BYTE	W42
	BYTE	W01
	BYTE	W05
	BYTE		        Ds1   v020
	BYTE	W12
	BYTE		        As1 
	BYTE	W12
	BYTE		        Ds2 
	BYTE	W12
	BYTE		        Gn2   v016
	BYTE	W12
	BYTE		        As2 
	BYTE	W42
	BYTE	W01
	BYTE	W05
	BYTE		        Ds1   v020
	BYTE	W12
	BYTE		        As1   v016
	BYTE	W12
	BYTE		        Ds2 
	BYTE	W12
	BYTE		        Gn2   v012
	BYTE	W12
	BYTE		        As2 
	BYTE	W42
	BYTE	W01
	BYTE	W05
	BYTE		N12     Cn1   v020
	BYTE	W12
	BYTE		        Gn1   v016
	BYTE	W12
	BYTE		        Cn2 
	BYTE	W12
	BYTE		        Ds2 
	BYTE	W12
	BYTE		        Gn2 
	BYTE	W42
	BYTE	W01
	BYTE	PEND
	BYTE	PATT
	 POIN2	seq_068_10 + 0x3D1
	BYTE	W05
	BYTE		N12     Gn0   v020
	BYTE	W12
	BYTE		        Gn1   v016
	BYTE	W12
	BYTE		        Bn1 
	BYTE	W12
	BYTE		        Dn2 
	BYTE	W12
	BYTE		        Gn2 
	BYTE	W42
	BYTE	W01
	BYTE	W05
	BYTE		        Gn0 
	BYTE	W12
	BYTE		        Gn1 
	BYTE	W12
	BYTE		        Bn1   v012
	BYTE	W12
	BYTE		        Dn2 
	BYTE	W12
	BYTE		        Gn2   v008
	BYTE	W24
	BYTE	W02
	BYTE	W17
	BYTE	W01
	BYTE		VOICE   80
	BYTE	W01
	BYTE		VOL     66*seq_068_mvl/mxv
	BYTE		PAN     c_v+11
	BYTE	W32
	BYTE	W02
	BYTE		N03     Bn1   v084
	BYTE	W04
	BYTE		        Bn1   v080
	BYTE	W04
	BYTE		N03
	BYTE	W04
	BYTE		N06     Bn1   v092
	BYTE	W48
	BYTE	W36
	BYTE		N03     Bn1   v084
	BYTE	W04
	BYTE		        Bn1   v080
	BYTE	W04
	BYTE		N03
	BYTE	W04
	BYTE		N06     Bn1   v092
	BYTE	W48
	BYTE	PEND
	BYTE	PATT
	 POIN2	seq_068_10 + 0x41B
	BYTE	PATT
	 POIN2	seq_068_10 + 0x41B
	BYTE	PATT
	 POIN2	seq_068_10 + 0x41B
	BYTE	PATT
	 POIN2	seq_068_10 + 0x41B
	BYTE	PATT
	 POIN2	seq_068_10 + 0x41B
	BYTE	W36
	BYTE		N03     Bn1   v084
	BYTE	W04
	BYTE		        Bn1   v080
	BYTE	W04
	BYTE		N03
	BYTE	W04
	BYTE		N06     Bn1   v092
	BYTE	W30
	BYTE	W18
	BYTE	W32
	BYTE	W02
	BYTE	W01
	BYTE		VOICE   41
	BYTE	W01
	BYTE		BENDR   6
	BYTE		VOL     73*seq_068_mvl/mxv
	BYTE	W06
	BYTE		PAN     c_v-64
	BYTE	W12
	BYTE		N23     Ds3   v028
	BYTE	W09
	BYTE		BEND    c_v-6
	BYTE	W01
	BYTE		        c_v-10
	BYTE	W01
	BYTE		        c_v-15
	BYTE	W01
	BYTE		        c_v-20
	BYTE	W01
	BYTE		        c_v-24
	BYTE	W01
	BYTE		        c_v-29
	BYTE	W01
	BYTE		        c_v-33
	BYTE	W24
	BYTE	W02
	BYTE		        c_v+1
	BYTE	W01
	BYTE	W54
	BYTE		N23
	BYTE	W08
	BYTE		BEND    c_v-2
	BYTE	W01
	BYTE		        c_v-6
	BYTE	W01
	BYTE		        c_v-10
	BYTE	W01
	BYTE		        c_v-15
	BYTE	W01
	BYTE		        c_v-20
	BYTE	W01
	BYTE		        c_v-24
	BYTE	W01
	BYTE		        c_v-29
	BYTE	W01
	BYTE		        c_v-33
	BYTE	W04
	BYTE	W22
	BYTE		        c_v+1
	BYTE	W01
	BYTE	W24
	BYTE	W01
	BYTE		VOICE   80
	BYTE	W01
	BYTE		PAN     c_v+11
	BYTE	W01
	BYTE		VOL     66*seq_068_mvl/mxv
	BYTE	W01
	BYTE		BEND    c_v+0
	BYTE	W08
	BYTE		N03     Bn1   v084
	BYTE	W04
	BYTE		        Bn1   v080
	BYTE	W04
	BYTE		N03
	BYTE	W04
	BYTE		N06     Bn1   v092
	BYTE	W48
	BYTE	PATT
	 POIN2	seq_068_10 + 0x41B
	BYTE	PATT
	 POIN2	seq_068_10 + 0x41B
	BYTE	W36
	BYTE		N03     Bn1   v084
	BYTE	W04
	BYTE		        Bn1   v080
	BYTE	W04
	BYTE		N03
	BYTE	W04
	BYTE		N06     Bn1   v092
	BYTE	W28
	BYTE	W20
	BYTE	W42
	BYTE	W01
	BYTE		VOICE   41
	BYTE	W01
	BYTE		BENDR   6
	BYTE		VOL     73*seq_068_mvl/mxv
	BYTE	W01
	BYTE		PAN     c_v-64
	BYTE	W09
	BYTE		N23     Ds3   v028
	BYTE	W08
	BYTE		BEND    c_v-2
	BYTE	W01
	BYTE		        c_v-6
	BYTE	W01
	BYTE		        c_v-10
	BYTE	W01
	BYTE		        c_v-15
	BYTE	W01
	BYTE		        c_v-20
	BYTE	W01
	BYTE		        c_v-24
	BYTE	W01
	BYTE		        c_v-29
	BYTE	W01
	BYTE		        c_v-33
	BYTE	W24
	BYTE	W02
	BYTE		        c_v+1
	BYTE	W01
	BYTE	W54
	BYTE		N23
	BYTE	W08
	BYTE		BEND    c_v-2
	BYTE	W01
	BYTE		        c_v-6
	BYTE	W01
	BYTE		        c_v-10
	BYTE	W01
	BYTE		        c_v-15
	BYTE	W01
	BYTE		        c_v-20
	BYTE	W01
	BYTE		        c_v-24
	BYTE	W01
	BYTE		        c_v-29
	BYTE	W01
	BYTE		        c_v-33
	BYTE	W15
	BYTE		        c_v+1
	BYTE	W12
	BYTE	W96
	BYTE	W96
	BYTE	W96
	BYTE	W96
	BYTE	W96
	BYTE	W96
	BYTE	W96
	BYTE	W01
	BYTE		VOICE   80
	BYTE	W01
	BYTE		PAN     c_v+6
	BYTE	W01
	BYTE		VOL     66*seq_068_mvl/mxv
	BYTE	W01
	BYTE		BEND    c_v+0
	BYTE	W92
	BYTE		N07     Bn1   v092
	BYTE	W08
	BYTE		N04     Bn1   v020
	BYTE	W08
	BYTE		        Bn1   v016
	BYTE	W08
	BYTE		N03     Bn1   v088
	BYTE	W08
	BYTE		N02
	BYTE	W08
	BYTE		        Bn1   v080
	BYTE	W08
	BYTE		N07     Bn1   v092
	BYTE	W08
	BYTE		N04     Bn1   v020
	BYTE	W08
	BYTE		        Bn1   v016
	BYTE	W08
	BYTE		N03     Bn1   v088
	BYTE	W08
	BYTE		N02
	BYTE	W08
	BYTE		        Bn1   v080
	BYTE	W08
	BYTE	PEND
	BYTE		N07     Bn1   v092
	BYTE	W08
	BYTE		N04     Bn1   v020
	BYTE	W08
	BYTE		        Bn1   v016
	BYTE	W08
	BYTE		N03     Bn1   v088
	BYTE	W08
	BYTE		N02
	BYTE	W08
	BYTE		        Bn1   v080
	BYTE	W08
	BYTE		N03     Bn1   v088
	BYTE	W08
	BYTE		N02
	BYTE	W08
	BYTE		N02
	BYTE	W08
	BYTE		N07     Bn1   v092
	BYTE	W08
	BYTE		N04     Bn1   v020
	BYTE	W08
	BYTE		        Bn1   v016
	BYTE	W08
	BYTE	PEND
	BYTE	PATT
	 POIN2	seq_068_10 + 0x510
	BYTE	PATT
	 POIN2	seq_068_10 + 0x539
	BYTE	PATT
	 POIN2	seq_068_10 + 0x510
	BYTE	PATT
	 POIN2	seq_068_10 + 0x539
	BYTE	PATT
	 POIN2	seq_068_10 + 0x510
	BYTE	PATT
	 POIN2	seq_068_10 + 0x539
	BYTE	PATT
	 POIN2	seq_068_10 + 0x510
	BYTE	PATT
	 POIN2	seq_068_10 + 0x539
	BYTE	PATT
	 POIN2	seq_068_10 + 0x510
	BYTE	PATT
	 POIN2	seq_068_10 + 0x539
	BYTE	PATT
	 POIN2	seq_068_10 + 0x510
	BYTE	PATT
	 POIN2	seq_068_10 + 0x539
	BYTE	PATT
	 POIN2	seq_068_10 + 0x510
	BYTE	PATT
	 POIN2	seq_068_10 + 0x539
	BYTE		N03     Bn1   v092
	BYTE	W06
	BYTE		        Bn1   v020
	BYTE	W06
	BYTE		N02     Bn1   v084
	BYTE	W06
	BYTE		        Bn1   v080
	BYTE	W06
	BYTE		N03     Bn1   v084
	BYTE	W06
	BYTE		        Bn1   v020
	BYTE	W06
	BYTE		N02     Bn1   v076
	BYTE	W06
	BYTE		        Bn1   v068
	BYTE	W06
	BYTE		N03     Bn1   v088
	BYTE	W06
	BYTE		        Bn1   v020
	BYTE	W06
	BYTE		N02     Bn1   v080
	BYTE	W06
	BYTE		        Bn1   v076
	BYTE	W06
	BYTE		N03     Bn1   v084
	BYTE	W06
	BYTE		        Bn1   v020
	BYTE	W06
	BYTE		N02     Bn1   v076
	BYTE	W06
	BYTE		        Bn1   v068
	BYTE	W06
	BYTE	PEND
	BYTE		N03     Bn1   v092
	BYTE	W06
	BYTE		        Bn1   v020
	BYTE	W06
	BYTE		N02     Bn1   v084
	BYTE	W06
	BYTE		        Bn1   v080
	BYTE	W06
	BYTE		N03     Bn1   v084
	BYTE	W06
	BYTE		        Bn1   v072
	BYTE	W06
	BYTE		        Bn1   v056
	BYTE	W06
	BYTE		        Bn1   v044
	BYTE	W06
	BYTE		        Bn1   v088
	BYTE	W06
	BYTE		        Bn1   v020
	BYTE	W06
	BYTE		N02     Bn1   v080
	BYTE	W06
	BYTE		        Bn1   v076
	BYTE	W06
	BYTE		N03     Bn1   v084
	BYTE	W06
	BYTE		        Bn1   v020
	BYTE	W06
	BYTE		N02     Bn1   v076
	BYTE	W06
	BYTE		        Bn1   v068
	BYTE	W06
	BYTE	PEND
	BYTE		N03     Bn1   v096
	BYTE	W06
	BYTE		        Bn1   v020
	BYTE	W06
	BYTE		N02     Bn1   v080
	BYTE	W06
	BYTE		N03     Bn1   v020
	BYTE	W30
	BYTE		        Bn1   v096
	BYTE	W06
	BYTE		        Bn1   v016
	BYTE	W06
	BYTE		N02     Bn1   v080
	BYTE	W06
	BYTE		N03     Bn1   v016
	BYTE	W30
	BYTE	PEND
	BYTE		N03     Bn1   v060
	BYTE	W04
	BYTE		        Bn1   v052
	BYTE	W04
	BYTE		        Bn1   v064
	BYTE	W04
	BYTE		N03
	BYTE	W04
	BYTE		        Bn1   v076
	BYTE	W04
	BYTE		        Bn1   v072
	BYTE	W04
	BYTE		        Bn1   v084
	BYTE	W04
	BYTE		        Bn1   v076
	BYTE	W04
	BYTE		        Bn1   v092
	BYTE	W04
	BYTE		        Bn1   v088
	BYTE	W04
	BYTE		        Bn1   v092
	BYTE	W04
	BYTE		        Bn1   v088
	BYTE	W04
	BYTE		        Bn1   v096
	BYTE	W06
	BYTE		        Bn1   v016
	BYTE	W06
	BYTE		N02     Bn1   v080
	BYTE	W06
	BYTE		N03     Bn1   v016
	BYTE	W30
	BYTE	PEND
	BYTE	W24
	BYTE		N03     Bn1   v068
	BYTE	W04
	BYTE		        Bn1   v060
	BYTE	W04
	BYTE		        Bn1   v068
	BYTE	W04
	BYTE		        Bn1   v076
	BYTE	W04
	BYTE		N03
	BYTE	W04
	BYTE		        Bn1   v068
	BYTE	W28
	BYTE		        Bn1   v072
	BYTE	W04
	BYTE		        Bn1   v060
	BYTE	W04
	BYTE		        Bn1   v072
	BYTE	W04
	BYTE		        Bn1   v080
	BYTE	W04
	BYTE		N03
	BYTE	W04
	BYTE		        Bn1   v072
	BYTE	W04
	BYTE	PEND
	BYTE	W24
	BYTE		N03     Bn1   v076
	BYTE	W04
	BYTE		        Bn1   v064
	BYTE	W04
	BYTE		        Bn1   v076
	BYTE	W04
	BYTE		        Bn1   v084
	BYTE	W04
	BYTE		N03
	BYTE	W04
	BYTE		        Bn1   v076
	BYTE	W28
	BYTE		        Bn1   v080
	BYTE	W04
	BYTE		        Bn1   v072
	BYTE	W04
	BYTE		        Bn1   v080
	BYTE	W04
	BYTE		        Bn1   v092
	BYTE	W04
	BYTE		N03
	BYTE	W04
	BYTE		        Bn1   v080
	BYTE	W04
	BYTE	PEND
	BYTE	W24
	BYTE		N03     Bn1   v072
	BYTE	W04
	BYTE		        Bn1   v064
	BYTE	W04
	BYTE		        Bn1   v072
	BYTE	W04
	BYTE		        Bn1   v080
	BYTE	W04
	BYTE		N03
	BYTE	W04
	BYTE		        Bn1   v072
	BYTE	W28
	BYTE		        Bn1   v076
	BYTE	W04
	BYTE		        Bn1   v064
	BYTE	W04
	BYTE		        Bn1   v076
	BYTE	W04
	BYTE		        Bn1   v084
	BYTE	W04
	BYTE		N03
	BYTE	W04
	BYTE		        Bn1   v076
	BYTE	W04
	BYTE	PEND
	BYTE	W24
	BYTE		N03     Bn1   v080
	BYTE	W04
	BYTE		        Bn1   v068
	BYTE	W04
	BYTE		        Bn1   v080
	BYTE	W04
	BYTE		        Bn1   v088
	BYTE	W04
	BYTE		N03
	BYTE	W04
	BYTE		        Bn1   v080
	BYTE	W28
	BYTE		        Bn1   v084
	BYTE	W04
	BYTE		        Bn1   v076
	BYTE	W04
	BYTE		        Bn1   v084
	BYTE	W04
	BYTE		        Bn1   v096
	BYTE	W04
	BYTE		N03
	BYTE	W04
	BYTE		        Bn1   v084
	BYTE	W04
	BYTE	PEND
	BYTE	W24
	BYTE		N03     Bn1   v088
	BYTE	W08
	BYTE		N02
	BYTE	W08
	BYTE		        Bn1   v080
	BYTE	W08
	BYTE		N03     Bn1   v072
	BYTE	W04
	BYTE		        Bn1   v064
	BYTE	W04
	BYTE		        Bn1   v072
	BYTE	W04
	BYTE		        Bn1   v080
	BYTE	W04
	BYTE		N03
	BYTE	W04
	BYTE		        Bn1   v072
	BYTE	W28
	BYTE	PEND
	BYTE	W24
	BYTE		N03     Bn1   v092
	BYTE	W08
	BYTE		N02
	BYTE	W08
	BYTE		        Bn1   v084
	BYTE	W08
	BYTE		N03     Bn1   v076
	BYTE	W04
	BYTE		        Bn1   v068
	BYTE	W04
	BYTE		        Bn1   v076
	BYTE	W04
	BYTE		        Bn1   v088
	BYTE	W04
	BYTE		        Bn1   v084
	BYTE	W04
	BYTE		        Bn1   v076
	BYTE	W28
	BYTE	PEND
	BYTE	W24
	BYTE		N03     Bn1   v096
	BYTE	W08
	BYTE		N02
	BYTE	W08
	BYTE		        Bn1   v088
	BYTE	W08
	BYTE		N03     Bn1   v080
	BYTE	W04
	BYTE		        Bn1   v072
	BYTE	W04
	BYTE		        Bn1   v080
	BYTE	W04
	BYTE		        Bn1   v092
	BYTE	W04
	BYTE		        Bn1   v088
	BYTE	W04
	BYTE		        Bn1   v080
	BYTE	W28
	BYTE	PEND
	BYTE		N03     Bn1   v092
	BYTE	W06
	BYTE		        Bn1   v020
	BYTE	W06
	BYTE		N02     Bn1   v084
	BYTE	W06
	BYTE		        Bn1   v080
	BYTE	W06
	BYTE		N03     Bn1   v092
	BYTE	W06
	BYTE		        Bn1   v020
	BYTE	W06
	BYTE		N02     Bn1   v084
	BYTE	W06
	BYTE		        Bn1   v080
	BYTE	W06
	BYTE		N03     Bn1   v084
	BYTE	W06
	BYTE		        Bn1   v020
	BYTE	W06
	BYTE		N02     Bn1   v072
	BYTE	W06
	BYTE		N03     Bn1   v020
	BYTE	W06
	BYTE		        Bn1   v076
	BYTE	W06
	BYTE		N02     Bn1   v084
	BYTE	W06
	BYTE		        Bn1   v096
	BYTE	W06
	BYTE		        Bn1   v100
	BYTE	W06
	BYTE	PEND
	BYTE	PATT
	 POIN2	seq_068_10 + 0x510
	BYTE	PATT
	 POIN2	seq_068_10 + 0x539
	BYTE	PATT
	 POIN2	seq_068_10 + 0x510
	BYTE	PATT
	 POIN2	seq_068_10 + 0x539
	BYTE	PATT
	 POIN2	seq_068_10 + 0x510
	BYTE	PATT
	 POIN2	seq_068_10 + 0x539
	BYTE	PATT
	 POIN2	seq_068_10 + 0x510
	BYTE	PATT
	 POIN2	seq_068_10 + 0x539
	BYTE	PATT
	 POIN2	seq_068_10 + 0x510
	BYTE	PATT
	 POIN2	seq_068_10 + 0x539
	BYTE	PATT
	 POIN2	seq_068_10 + 0x510
	BYTE	PATT
	 POIN2	seq_068_10 + 0x539
	BYTE	PATT
	 POIN2	seq_068_10 + 0x510
	BYTE	PATT
	 POIN2	seq_068_10 + 0x539
	BYTE	PATT
	 POIN2	seq_068_10 + 0x510
	BYTE	PATT
	 POIN2	seq_068_10 + 0x539
	BYTE	PATT
	 POIN2	seq_068_10 + 0x5A7
	BYTE	PATT
	 POIN2	seq_068_10 + 0x5E0
	BYTE	PATT
	 POIN2	seq_068_10 + 0x617
	BYTE	PATT
	 POIN2	seq_068_10 + 0x635
	BYTE	PATT
	 POIN2	seq_068_10 + 0x668
	BYTE	PATT
	 POIN2	seq_068_10 + 0x68D
	BYTE	PATT
	 POIN2	seq_068_10 + 0x6B2
	BYTE	PATT
	 POIN2	seq_068_10 + 0x6D7
	BYTE	PATT
	 POIN2	seq_068_10 + 0x6FC
	BYTE	PATT
	 POIN2	seq_068_10 + 0x719
	BYTE	PATT
	 POIN2	seq_068_10 + 0x737
	BYTE	PATT
	 POIN2	seq_068_10 + 0x755
	BYTE	PATT
	 POIN2	seq_068_10 + 0x510
	BYTE	PATT
	 POIN2	seq_068_10 + 0x539
	BYTE	PATT
	 POIN2	seq_068_10 + 0x510
	BYTE	PATT
	 POIN2	seq_068_10 + 0x539
	BYTE	PATT
	 POIN2	seq_068_10 + 0x510
	BYTE	PATT
	 POIN2	seq_068_10 + 0x539
	BYTE	PATT
	 POIN2	seq_068_10 + 0x510
	BYTE	PATT
	 POIN2	seq_068_10 + 0x539
	BYTE	PATT
	 POIN2	seq_068_10 + 0x510
	BYTE	PATT
	 POIN2	seq_068_10 + 0x539
	BYTE	PATT
	 POIN2	seq_068_10 + 0x510
	BYTE	PATT
	 POIN2	seq_068_10 + 0x539
	BYTE	PATT
	 POIN2	seq_068_10 + 0x510
	BYTE	PATT
	 POIN2	seq_068_10 + 0x539
	BYTE	PATT
	 POIN2	seq_068_10 + 0x510
	BYTE	PATT
	 POIN2	seq_068_10 + 0x539
	BYTE	PATT
	 POIN2	seq_068_10 + 0x5A7
	BYTE	PATT
	 POIN2	seq_068_10 + 0x5E0
	BYTE	PATT
	 POIN2	seq_068_10 + 0x617
	BYTE	PATT
	 POIN2	seq_068_10 + 0x635
	BYTE	PATT
	 POIN2	seq_068_10 + 0x668
	BYTE	PATT
	 POIN2	seq_068_10 + 0x68D
	BYTE	PATT
	 POIN2	seq_068_10 + 0x6B2
	BYTE	PATT
	 POIN2	seq_068_10 + 0x6D7
	BYTE	PATT
	 POIN2	seq_068_10 + 0x6FC
	BYTE	PATT
	 POIN2	seq_068_10 + 0x719
	BYTE	PATT
	 POIN2	seq_068_10 + 0x737
	BYTE	PATT
	 POIN2	seq_068_10 + 0x755
	BYTE	PATT
	 POIN2	seq_068_10 + 0x510
	BYTE	PATT
	 POIN2	seq_068_10 + 0x539
	BYTE	PATT
	 POIN2	seq_068_10 + 0x510
	BYTE	PATT
	 POIN2	seq_068_10 + 0x539
	BYTE	PATT
	 POIN2	seq_068_10 + 0x510
	BYTE	PATT
	 POIN2	seq_068_10 + 0x539
	BYTE	PATT
	 POIN2	seq_068_10 + 0x510
	BYTE	PATT
	 POIN2	seq_068_10 + 0x539
	BYTE	PATT
	 POIN2	seq_068_10 + 0x510
	BYTE	PATT
	 POIN2	seq_068_10 + 0x539
	BYTE	PATT
	 POIN2	seq_068_10 + 0x510
	BYTE	PATT
	 POIN2	seq_068_10 + 0x539
	BYTE	PATT
	 POIN2	seq_068_10 + 0x510
	BYTE	PATT
	 POIN2	seq_068_10 + 0x539
	BYTE	PATT
	 POIN2	seq_068_10 + 0x510
	BYTE		N07     Bn1   v092
	BYTE	W08
	BYTE		N04     Bn1   v020
	BYTE	W08
	BYTE		        Bn1   v016
	BYTE	W08
	BYTE		N03     Bn1   v088
	BYTE	W08
	BYTE		N02
	BYTE	W08
	BYTE		        Bn1   v080
	BYTE	W08
	BYTE		N03     Bn1   v088
	BYTE	W08
	BYTE		N02
	BYTE	W08
	BYTE		N02
	BYTE	W08
	BYTE		N07     Bn1   v092
	BYTE	W08
	BYTE		N04     Bn1   v020
	BYTE	W08
	BYTE		        Bn1   v016
	BYTE	W08
	BYTE	W96
	BYTE	W96
	BYTE	W96
	BYTE	W96
	BYTE	W96
	BYTE	W96
	BYTE	W96
	BYTE	W96
	BYTE	W96
	BYTE	W92
	BYTE	W01
	BYTE	W03
	BYTE		N03     Bn1   v024
	BYTE	W06
	BYTE		        Bn1   v012
	BYTE	W06
	BYTE		        Bn1   v020
	BYTE	W06
	BYTE		        Bn1   v016
	BYTE	W06
	BYTE		        Bn1   v032
	BYTE	W06
	BYTE		        Bn1   v012
	BYTE	W06
	BYTE		        Bn1   v028
	BYTE	W06
	BYTE		N03
	BYTE	W06
	BYTE		        Bn1   v036
	BYTE	W06
	BYTE		        Bn1   v012
	BYTE	W06
	BYTE		        Bn1   v040
	BYTE	W06
	BYTE		        Bn1   v036
	BYTE	W06
	BYTE		        Bn1   v044
	BYTE	W06
	BYTE		        Bn1   v016
	BYTE	W06
	BYTE		        Bn1   v044
	BYTE	W06
	BYTE		        Bn1   v040
	BYTE	W06
	BYTE	PEND
	BYTE		N03     Bn1   v056
	BYTE	W06
	BYTE		        Bn1   v020
	BYTE	W06
	BYTE		        Bn1   v052
	BYTE	W06
	BYTE		        Bn1   v044
	BYTE	W06
	BYTE		        Bn1   v068
	BYTE	W06
	BYTE		        Bn1   v020
	BYTE	W06
	BYTE		        Bn1   v060
	BYTE	W06
	BYTE		N03
	BYTE	W06
	BYTE		        Bn1   v076
	BYTE	W06
	BYTE		        Bn1   v020
	BYTE	W06
	BYTE		        Bn1   v076
	BYTE	W06
	BYTE		        Bn1   v064
	BYTE	W06
	BYTE		        Bn1   v092
	BYTE	W06
	BYTE		        Bn1   v020
	BYTE	W06
	BYTE		        Bn1   v084
	BYTE	W06
	BYTE		        Bn1   v080
	BYTE	W06
	BYTE	PEND
	BYTE	PATT
	 POIN2	seq_068_10 + 0x924
	BYTE	PATT
	 POIN2	seq_068_10 + 0x955
	BYTE	PATT
	 POIN2	seq_068_10 + 0x924
	BYTE	PATT
	 POIN2	seq_068_10 + 0x955
	BYTE	PATT
	 POIN2	seq_068_10 + 0x924
	BYTE	PATT
	 POIN2	seq_068_10 + 0x955
	BYTE		N03     Bn1   v080
	BYTE	W06
	BYTE		        Bn1   v020
	BYTE	W06
	BYTE		N02     Bn1   v068
	BYTE	W06
	BYTE		N03     Bn1   v020
	BYTE	W06
	BYTE		        Bn1   v080
	BYTE	W04
	BYTE		        Bn1   v072
	BYTE	W04
	BYTE		        Bn1   v084
	BYTE	W04
	BYTE		        Bn1   v076
	BYTE	W04
	BYTE		        Bn1   v096
	BYTE	W04
	BYTE		        Bn1   v084
	BYTE	W04
	BYTE		        Bn1   v076
	BYTE	W06
	BYTE		        Bn1   v020
	BYTE	W06
	BYTE		N02     Bn1   v064
	BYTE	W06
	BYTE		N03     Bn1   v020
	BYTE	W06
	BYTE		        Bn1   v076
	BYTE	W04
	BYTE		        Bn1   v068
	BYTE	W04
	BYTE		        Bn1   v080
	BYTE	W04
	BYTE		        Bn1   v072
	BYTE	W04
	BYTE		        Bn1   v088
	BYTE	W04
	BYTE		        Bn1   v080
	BYTE	W04
	BYTE	PEND
	BYTE	PATT
	 POIN2	seq_068_10 + 0x9A4
	BYTE		N03     Bn1   v088
	BYTE	W06
	BYTE		        Bn1   v020
	BYTE	W06
	BYTE		N02     Bn1   v076
	BYTE	W06
	BYTE		        Bn1   v068
	BYTE	W06
	BYTE		N03     Bn1   v080
	BYTE	W06
	BYTE		        Bn1   v020
	BYTE	W06
	BYTE		N02     Bn1   v072
	BYTE	W06
	BYTE		        Bn1   v064
	BYTE	W06
	BYTE		N03     Bn1   v088
	BYTE	W06
	BYTE		        Bn1   v020
	BYTE	W06
	BYTE		N02     Bn1   v076
	BYTE	W06
	BYTE		        Bn1   v068
	BYTE	W06
	BYTE		N03     Bn1   v076
	BYTE	W06
	BYTE		        Bn1   v020
	BYTE	W06
	BYTE		N02     Bn1   v068
	BYTE	W06
	BYTE		        Bn1   v060
	BYTE	W06
	BYTE	PEND
	BYTE	PATT
	 POIN2	seq_068_10 + 0x9EB
	BYTE	PATT
	 POIN2	seq_068_10 + 0x9A4
	BYTE	PATT
	 POIN2	seq_068_10 + 0x9A4
	BYTE	PATT
	 POIN2	seq_068_10 + 0x9EB
	BYTE	PATT
	 POIN2	seq_068_10 + 0x9EB
	BYTE		N03     Bn1   v088
	BYTE	W04
	BYTE		        Bn1   v076
	BYTE	W04
	BYTE		        Bn1   v084
	BYTE	W04
	BYTE		        Bn1   v076
	BYTE	W04
	BYTE		        Bn1   v080
	BYTE	W04
	BYTE		        Bn1   v072
	BYTE	W04
	BYTE		        Bn1   v076
	BYTE	W04
	BYTE		        Bn1   v064
	BYTE	W04
	BYTE		        Bn1   v072
	BYTE	W04
	BYTE		        Bn1   v068
	BYTE	W04
	BYTE		N03
	BYTE	W04
	BYTE		        Bn1   v060
	BYTE	W04
	BYTE		        Bn1   v064
	BYTE	W04
	BYTE		        Bn1   v056
	BYTE	W04
	BYTE		        Bn1   v060
	BYTE	W04
	BYTE		        Bn1   v056
	BYTE	W04
	BYTE		N03
	BYTE	W04
	BYTE		        Bn1   v052
	BYTE	W04
	BYTE		N03
	BYTE	W04
	BYTE		        Bn1   v048
	BYTE	W04
	BYTE		N03
	BYTE	W04
	BYTE		N03
	BYTE	W04
	BYTE		N03
	BYTE	W04
	BYTE		N03
	BYTE	W04
	BYTE	PEND
	BYTE		N03     Bn1   v048
	BYTE	W04
	BYTE		        Bn1   v052
	BYTE	W04
	BYTE		        Bn1   v056
	BYTE	W04
	BYTE		N03
	BYTE	W04
	BYTE		        Bn1   v060
	BYTE	W04
	BYTE		N03
	BYTE	W04
	BYTE		        Bn1   v068
	BYTE	W04
	BYTE		N03
	BYTE	W04
	BYTE		        Bn1   v080
	BYTE	W04
	BYTE		N03
	BYTE	W04
	BYTE		        Bn1   v092
	BYTE	W04
	BYTE		        Bn1   v084
	BYTE	W04
	BYTE		        Bn1   v088
	BYTE	W06
	BYTE		        Bn1   v020
	BYTE	W06
	BYTE		N02     Bn1   v076
	BYTE	W06
	BYTE		        Bn1   v068
	BYTE	W06
	BYTE		N03     Bn1   v080
	BYTE	W06
	BYTE		        Bn1   v020
	BYTE	W06
	BYTE		N02     Bn1   v072
	BYTE	W06
	BYTE		        Bn1   v064
	BYTE	W06
	BYTE	PEND
	BYTE	PATT
	 POIN2	seq_068_10 + 0xA3D
	BYTE	PATT
	 POIN2	seq_068_10 + 0xA80
	BYTE		N03     Bn1   v084
	BYTE	W12
	BYTE		        Bn1   v020
	BYTE	W12
	BYTE		        Bn1   v076
	BYTE	W12
	BYTE		        Bn1   v020
	BYTE	W12
	BYTE		        Bn1   v080
	BYTE	W12
	BYTE		        Bn1   v020
	BYTE	W12
	BYTE		        Bn1   v076
	BYTE	W12
	BYTE		        Bn1   v020
	BYTE	W12
	BYTE		        Bn1   v084
	BYTE	W48
	BYTE		        Bn1   v088
	BYTE	W48
	BYTE		N03
	BYTE	W48
	BYTE		        Bn1   v092
	BYTE	W48
	BYTE		        Bn1   v084
	BYTE	W96
	BYTE	W96
	BYTE	W96
	BYTE	W48
	BYTE	FINE

//*********************** Track 12 ***********************//

seq_068_11:
	BYTE	KEYSH   seq_068_key+0
	BYTE	W01
	BYTE		VOICE   3
	BYTE	W01
	BYTE		PAN     c_v-54
	BYTE	W01
	BYTE		VOL     73*seq_068_mvl/mxv
	BYTE	W96
	BYTE	W96
	BYTE	W96
	BYTE	W96
	BYTE	W01
	BYTE		TIE     Gn1   v064
	BYTE	W92
	BYTE	W03
	BYTE	W24
	BYTE	W01
	BYTE		VOL     72*seq_068_mvl/mxv
	BYTE	W06
	BYTE		        71*seq_068_mvl/mxv
	BYTE	W06
	BYTE		        68*seq_068_mvl/mxv
	BYTE	W06
	BYTE		        62*seq_068_mvl/mxv
	BYTE	W06
	BYTE		EOT
	BYTE		VOL     73*seq_068_mvl/mxv
	BYTE		N48     Cs1   v072
	BYTE	W44
	BYTE	W03
	BYTE	W01
	BYTE		TIE     Dn1   v068
	BYTE	W06
	BYTE		VOL     72*seq_068_mvl/mxv
	BYTE	W06
	BYTE		        69*seq_068_mvl/mxv
	BYTE	W30
	BYTE		        70*seq_068_mvl/mxv
	BYTE	W06
	BYTE		        70*seq_068_mvl/mxv
	BYTE	W06
	BYTE		        72*seq_068_mvl/mxv
	BYTE	W06
	BYTE		        73*seq_068_mvl/mxv
	BYTE	W06
	BYTE		        75*seq_068_mvl/mxv
	BYTE	W06
	BYTE		        76*seq_068_mvl/mxv
	BYTE	W06
	BYTE		        78*seq_068_mvl/mxv
	BYTE	W06
	BYTE		        80*seq_068_mvl/mxv
	BYTE	W11
	BYTE	W30
	BYTE	W01
	BYTE		        78*seq_068_mvl/mxv
	BYTE	W12
	BYTE		        77*seq_068_mvl/mxv
	BYTE	W06
	BYTE		        76*seq_068_mvl/mxv
	BYTE	W06
	BYTE		        74*seq_068_mvl/mxv
	BYTE	W06
	BYTE		        70*seq_068_mvl/mxv
	BYTE	W06
	BYTE		        67*seq_068_mvl/mxv
	BYTE	W06
	BYTE		EOT
	BYTE		VOL     73*seq_068_mvl/mxv
	BYTE		N06     Dn2 
	BYTE	W06
	BYTE		        Cn2   v064
	BYTE	W06
	BYTE		        Bn1 
	BYTE	W06
	BYTE		        An1 
	BYTE	W05
	BYTE	W01
	BYTE		N05     Gn1   v064
	BYTE	W06
	BYTE		N04     Gn1   v056
	BYTE	W06
	BYTE		N05     Gn1   v060
	BYTE	W24
	BYTE		        Gn1   v064
	BYTE	W06
	BYTE		N04     Gn1   v060
	BYTE	W06
	BYTE		N05     Gn1   v064
	BYTE	W12
	BYTE		N23     Gn1   v052
	BYTE	W24
	BYTE		N05     Gn1   v064
	BYTE	W06
	BYTE		N04     Gn1   v060
	BYTE	W05
	BYTE	PEND
	BYTE	PATT
	 POIN2	seq_068_11 + 0x5D
	BYTE	W01
	BYTE		N05     Gn1   v064
	BYTE	W06
	BYTE		N04     Gn1   v056
	BYTE	W06
	BYTE		N05     Gn1   v060
	BYTE	W24
	BYTE		        Gn1   v064
	BYTE	W06
	BYTE		N04     Gn1   v060
	BYTE	W06
	BYTE		N05     Gn1   v064
	BYTE	W12
	BYTE		N23     Gn1   v048
	BYTE	W24
	BYTE		N05     Gn1   v064
	BYTE	W06
	BYTE		N04     Gn1   v060
	BYTE	W05
	BYTE	W01
	BYTE		N05     Gn1   v064
	BYTE	W06
	BYTE		N04     Gn1   v060
	BYTE	W06
	BYTE		N05     Gn1   v064
	BYTE	W24
	BYTE		        Gn1   v068
	BYTE	W06
	BYTE		N04     Gn1   v064
	BYTE	W06
	BYTE		N05     Gn1   v068
	BYTE	W12
	BYTE		N23     Gn1   v060
	BYTE	W24
	BYTE		N05     Gn1   v068
	BYTE	W06
	BYTE		N04
	BYTE	W05
	BYTE	W01
	BYTE		N10     Gn1   v072
	BYTE	W01
	BYTE	W23
	BYTE		N08     Gn1   v068
	BYTE	W36
	BYTE		N17
	BYTE	W18
	BYTE		        Gn1   v064
	BYTE	W17
	BYTE	W01
	BYTE		N10     Gn1   v072
	BYTE	W24
	BYTE		N08     Gn1   v068
	BYTE	W36
	BYTE		N18
	BYTE	W18
	BYTE		        Fs1 
	BYTE	W17
	BYTE	PEND
	BYTE	W01
	BYTE		N10     En1   v076
	BYTE	W24
	BYTE		N08     En1   v068
	BYTE	W36
	BYTE		N17
	BYTE	W18
	BYTE		N17
	BYTE	W17
	BYTE	PEND
	BYTE	W01
	BYTE		N10     En1   v076
	BYTE	W24
	BYTE		N08     En1   v068
	BYTE	W36
	BYTE		N18     Fs1 
	BYTE	W18
	BYTE		        Gn1 
	BYTE	W17
	BYTE	PEND
	BYTE	W01
	BYTE		N10     Bn1   v068
	BYTE	W24
	BYTE		N08     Bn1   v064
	BYTE	W36
	BYTE		N17     Bn1   v068
	BYTE	W18
	BYTE		        Bn1   v064
	BYTE	W17
	BYTE	PEND
	BYTE	W01
	BYTE		N10     Bn1   v068
	BYTE	W24
	BYTE		N08     Bn1   v064
	BYTE	W36
	BYTE		N17     Bn1   v068
	BYTE	W18
	BYTE		        Cs2 
	BYTE	W17
	BYTE	PEND
	BYTE	W01
	BYTE		N10     Dn2   v068
	BYTE	W24
	BYTE		N08     Dn2   v060
	BYTE	W36
	BYTE		N17     Dn2   v064
	BYTE	W18
	BYTE		        Dn2   v060
	BYTE	W17
	BYTE	PEND
	BYTE	W01
	BYTE		N11     Dn2   v068
	BYTE	W12
	BYTE		        An1 
	BYTE	W12
	BYTE		        Gn1   v072
	BYTE	W12
	BYTE		        Gs1   v076
	BYTE	W12
	BYTE		        An1 
	BYTE	W12
	BYTE		        Dn1 
	BYTE	W12
	BYTE		        En1 
	BYTE	W12
	BYTE		        Fs1 
	BYTE	W11
	BYTE	PEND
	BYTE	W01
	BYTE		N10     Gn1   v072
	BYTE	W24
	BYTE		N08     Gn1   v068
	BYTE	W36
	BYTE		N17
	BYTE	W18
	BYTE		        Gn1   v064
	BYTE	W17
	BYTE	PEND
	BYTE	PATT
	 POIN2	seq_068_11 + 0xDC
	BYTE	PATT
	 POIN2	seq_068_11 + 0xEA
	BYTE	PATT
	 POIN2	seq_068_11 + 0xF8
	BYTE	PATT
	 POIN2	seq_068_11 + 0x107
	BYTE	PATT
	 POIN2	seq_068_11 + 0x118
	BYTE	PATT
	 POIN2	seq_068_11 + 0x128
	BYTE	W01
	BYTE		N24     Dn2   v068
	BYTE	W24
	BYTE		        Cn2 
	BYTE	W24
	BYTE		        An1   v072
	BYTE	W24
	BYTE		        Fs1 
	BYTE	W23
	BYTE	PEND
	BYTE	W01
	BYTE		N48     An1   v072
	BYTE	W48
	BYTE		        Gn1   v068
	BYTE	W44
	BYTE	W03
	BYTE	PEND
	BYTE	W01
	BYTE		N44     Fn1   v068
	BYTE	W48
	BYTE		N24     Fn1   v076
	BYTE	W24
	BYTE		        Gn1   v072
	BYTE	W23
	BYTE	PEND
	BYTE	W01
	BYTE		N96     An1   v072
	BYTE	W92
	BYTE	W03
	BYTE	PEND
	BYTE	W01
	BYTE		N48     Dn2   v068
	BYTE	W48
	BYTE		N24     Fs1   v076
	BYTE	W24
	BYTE		        Gn1 
	BYTE	W23
	BYTE	PEND
	BYTE	PATT
	 POIN2	seq_068_11 + 0x189
	BYTE	PATT
	 POIN2	seq_068_11 + 0x193
	BYTE	PATT
	 POIN2	seq_068_11 + 0x1A0
	BYTE	W01
	BYTE		N48     Dn2   v068
	BYTE	W48
	BYTE		N24     Fs1   v072
	BYTE	W24
	BYTE		        Gn1 
	BYTE	W23
	BYTE	PEND
	BYTE	W01
	BYTE		N12     Bn1   v068
	BYTE	W12
	BYTE		        An1 
	BYTE	W12
	BYTE		        Bn1 
	BYTE	W12
	BYTE		        Cs2 
	BYTE	W12
	BYTE		        Ds2 
	BYTE	W12
	BYTE		        Cs2 
	BYTE	W12
	BYTE		        Ds2 
	BYTE	W12
	BYTE		        En2 
	BYTE	W11
	BYTE	PEND
	BYTE	W01
	BYTE		N12     Fs2   v072
	BYTE	W12
	BYTE		        En2   v068
	BYTE	W12
	BYTE		        Fs2 
	BYTE	W12
	BYTE		        Gs2 
	BYTE	W12
	BYTE		        An2 
	BYTE	W12
	BYTE		        Gs2 
	BYTE	W12
	BYTE		        An2 
	BYTE	W12
	BYTE		        Bn2   v064
	BYTE	W11
	BYTE	PEND
	BYTE	W01
	BYTE		N48     En2   v068
	BYTE	W48
	BYTE		        Dn2   v064
	BYTE	W44
	BYTE	W03
	BYTE	PEND
	BYTE	W01
	BYTE		N48     Bn1   v060
	BYTE	W48
	BYTE		        Gs1   v056
	BYTE	W44
	BYTE	W03
	BYTE	PEND
	BYTE	PATT
	 POIN2	seq_068_11 + 0x14F
	BYTE	PATT
	 POIN2	seq_068_11 + 0xDC
	BYTE	PATT
	 POIN2	seq_068_11 + 0xEA
	BYTE	PATT
	 POIN2	seq_068_11 + 0xF8
	BYTE	PATT
	 POIN2	seq_068_11 + 0x107
	BYTE	PATT
	 POIN2	seq_068_11 + 0x118
	BYTE	PATT
	 POIN2	seq_068_11 + 0x128
	BYTE	PATT
	 POIN2	seq_068_11 + 0x139
	BYTE	PATT
	 POIN2	seq_068_11 + 0x14F
	BYTE	PATT
	 POIN2	seq_068_11 + 0xDC
	BYTE	PATT
	 POIN2	seq_068_11 + 0xEA
	BYTE	PATT
	 POIN2	seq_068_11 + 0xF8
	BYTE	PATT
	 POIN2	seq_068_11 + 0x107
	BYTE	PATT
	 POIN2	seq_068_11 + 0x118
	BYTE	PATT
	 POIN2	seq_068_11 + 0x128
	BYTE	PATT
	 POIN2	seq_068_11 + 0x17C
	BYTE	PATT
	 POIN2	seq_068_11 + 0x189
	BYTE	PATT
	 POIN2	seq_068_11 + 0x193
	BYTE	PATT
	 POIN2	seq_068_11 + 0x1A0
	BYTE	PATT
	 POIN2	seq_068_11 + 0x1A7
	BYTE	PATT
	 POIN2	seq_068_11 + 0x189
	BYTE	PATT
	 POIN2	seq_068_11 + 0x193
	BYTE	PATT
	 POIN2	seq_068_11 + 0x1A0
	BYTE	PATT
	 POIN2	seq_068_11 + 0x1C2
	BYTE	PATT
	 POIN2	seq_068_11 + 0x1CE
	BYTE	PATT
	 POIN2	seq_068_11 + 0x1E2
	BYTE	PATT
	 POIN2	seq_068_11 + 0x1F8
	BYTE	PATT
	 POIN2	seq_068_11 + 0x202
	BYTE	PATT
	 POIN2	seq_068_11 + 0x14F
	BYTE	PATT
	 POIN2	seq_068_11 + 0xDC
	BYTE	PATT
	 POIN2	seq_068_11 + 0xEA
	BYTE	PATT
	 POIN2	seq_068_11 + 0xF8
	BYTE	PATT
	 POIN2	seq_068_11 + 0x107
	BYTE	PATT
	 POIN2	seq_068_11 + 0x118
	BYTE	PATT
	 POIN2	seq_068_11 + 0x128
	BYTE	PATT
	 POIN2	seq_068_11 + 0x139
	BYTE	PATT
	 POIN2	seq_068_11 + 0x14F
	BYTE	PATT
	 POIN2	seq_068_11 + 0xDC
	BYTE	PATT
	 POIN2	seq_068_11 + 0xEA
	BYTE	PATT
	 POIN2	seq_068_11 + 0xF8
	BYTE	PATT
	 POIN2	seq_068_11 + 0x107
	BYTE	PATT
	 POIN2	seq_068_11 + 0x118
	BYTE	PATT
	 POIN2	seq_068_11 + 0x128
	BYTE	PATT
	 POIN2	seq_068_11 + 0x17C
	BYTE	PATT
	 POIN2	seq_068_11 + 0x189
	BYTE	PATT
	 POIN2	seq_068_11 + 0x193
	BYTE	PATT
	 POIN2	seq_068_11 + 0x1A0
	BYTE	PATT
	 POIN2	seq_068_11 + 0x1A7
	BYTE	PATT
	 POIN2	seq_068_11 + 0x189
	BYTE	PATT
	 POIN2	seq_068_11 + 0x193
	BYTE	PATT
	 POIN2	seq_068_11 + 0x1A0
	BYTE	PATT
	 POIN2	seq_068_11 + 0x1C2
	BYTE	PATT
	 POIN2	seq_068_11 + 0x1CE
	BYTE	PATT
	 POIN2	seq_068_11 + 0x1E2
	BYTE	PATT
	 POIN2	seq_068_11 + 0x1F8
	BYTE	W01
	BYTE		N48     Bn1   v060
	BYTE	W48
	BYTE		        Gs1   v056
	BYTE	W23
	BYTE		VOL     71*seq_068_mvl/mxv
	BYTE	W03
	BYTE		        70*seq_068_mvl/mxv
	BYTE	W03
	BYTE		        68*seq_068_mvl/mxv
	BYTE	W03
	BYTE		        64*seq_068_mvl/mxv
	BYTE	W03
	BYTE		        58*seq_068_mvl/mxv
	BYTE	W03
	BYTE		        50*seq_068_mvl/mxv
	BYTE	W03
	BYTE		        41*seq_068_mvl/mxv
	BYTE	W03
	BYTE		        30*seq_068_mvl/mxv
	BYTE	W03
	BYTE	W01
	BYTE		        71*seq_068_mvl/mxv
	BYTE		TIE     An1   v044
	BYTE	W92
	BYTE	W03
	BYTE	W32
	BYTE	W01
	BYTE		VOL     70*seq_068_mvl/mxv
	BYTE	W12
	BYTE		        70*seq_068_mvl/mxv
	BYTE	W03
	BYTE		        69*seq_068_mvl/mxv
	BYTE	W06
	BYTE		        68*seq_068_mvl/mxv
	BYTE	W06
	BYTE		        66*seq_068_mvl/mxv
	BYTE	W03
	BYTE		        66*seq_068_mvl/mxv
	BYTE	W03
	BYTE		        65*seq_068_mvl/mxv
	BYTE	W03
	BYTE		        64*seq_068_mvl/mxv
	BYTE	W03
	BYTE		        63*seq_068_mvl/mxv
	BYTE	W03
	BYTE		        62*seq_068_mvl/mxv
	BYTE	W03
	BYTE		        60*seq_068_mvl/mxv
	BYTE	W03
	BYTE		        59*seq_068_mvl/mxv
	BYTE	W03
	BYTE		        57*seq_068_mvl/mxv
	BYTE	W03
	BYTE		        56*seq_068_mvl/mxv
	BYTE	W03
	BYTE		        54*seq_068_mvl/mxv
	BYTE	W03
	BYTE		        53*seq_068_mvl/mxv
	BYTE	W03
	BYTE	W01
	BYTE		EOT
	BYTE		VOL     71*seq_068_mvl/mxv
	BYTE		TIE     Dn2   v040
	BYTE	W92
	BYTE	W03
	BYTE	W48
	BYTE	W01
	BYTE		EOT
	BYTE		N48     Cn2   v048
	BYTE	W44
	BYTE	W03
	BYTE	W01
	BYTE		TIE     An1 
	BYTE	W92
	BYTE	W03
	BYTE	W96
	BYTE	W78
	BYTE		VOL     69*seq_068_mvl/mxv
	BYTE	W15
	BYTE		        68*seq_068_mvl/mxv
	BYTE	W03
	BYTE		        68*seq_068_mvl/mxv
	BYTE	W03
	BYTE		        67*seq_068_mvl/mxv
	BYTE	W03
	BYTE		        66*seq_068_mvl/mxv
	BYTE	W03
	BYTE		        66*seq_068_mvl/mxv
	BYTE	W03
	BYTE		        64*seq_068_mvl/mxv
	BYTE	W03
	BYTE		        63*seq_068_mvl/mxv
	BYTE	W03
	BYTE		        62*seq_068_mvl/mxv
	BYTE	W03
	BYTE		        61*seq_068_mvl/mxv
	BYTE	W03
	BYTE		        60*seq_068_mvl/mxv
	BYTE	W03
	BYTE		        58*seq_068_mvl/mxv
	BYTE	W03
	BYTE		        56*seq_068_mvl/mxv
	BYTE	W03
	BYTE		        55*seq_068_mvl/mxv
	BYTE	W03
	BYTE		        53*seq_068_mvl/mxv
	BYTE	W03
	BYTE		        52*seq_068_mvl/mxv
	BYTE	W03
	BYTE		        49*seq_068_mvl/mxv
	BYTE	W03
	BYTE		        47*seq_068_mvl/mxv
	BYTE	W03
	BYTE		        45*seq_068_mvl/mxv
	BYTE	W03
	BYTE		        43*seq_068_mvl/mxv
	BYTE	W03
	BYTE		        40*seq_068_mvl/mxv
	BYTE	W03
	BYTE		        38*seq_068_mvl/mxv
	BYTE	W03
	BYTE		        35*seq_068_mvl/mxv
	BYTE	W03
	BYTE		        33*seq_068_mvl/mxv
	BYTE	W03
	BYTE		        30*seq_068_mvl/mxv
	BYTE	W03
	BYTE		        27*seq_068_mvl/mxv
	BYTE	W03
	BYTE		        24*seq_068_mvl/mxv
	BYTE	W03
	BYTE		        21*seq_068_mvl/mxv
	BYTE	W03
	BYTE		        18*seq_068_mvl/mxv
	BYTE	W03
	BYTE		        14*seq_068_mvl/mxv
	BYTE	W03
	BYTE		        11*seq_068_mvl/mxv
	BYTE	W03
	BYTE		        8*seq_068_mvl/mxv
	BYTE	W03
	BYTE		        4*seq_068_mvl/mxv
	BYTE	W06
	BYTE	W01
	BYTE		EOT
	BYTE	W03
	BYTE	W92
	BYTE	W96
	BYTE	W96
	BYTE	W96
	BYTE	W96
	BYTE	W96
	BYTE	W96
	BYTE	W96
	BYTE	W96
	BYTE	W96
	BYTE	W72
	BYTE	W03
	BYTE		VOICE   3
	BYTE	W01
	BYTE	W01
	BYTE		PAN     c_v-34
	BYTE	W16
	BYTE		VOL     18*seq_068_mvl/mxv
	BYTE	W03
	BYTE	W01
	BYTE		N96     Gn1   v056
	BYTE	W08
	BYTE		VOL     18*seq_068_mvl/mxv
	BYTE	W03
	BYTE		        19*seq_068_mvl/mxv
	BYTE	W03
	BYTE		        20*seq_068_mvl/mxv
	BYTE	W03
	BYTE		        22*seq_068_mvl/mxv
	BYTE	W03
	BYTE		        24*seq_068_mvl/mxv
	BYTE	W03
	BYTE		        26*seq_068_mvl/mxv
	BYTE	W03
	BYTE		        30*seq_068_mvl/mxv
	BYTE	W03
	BYTE		        34*seq_068_mvl/mxv
	BYTE	W03
	BYTE		        38*seq_068_mvl/mxv
	BYTE	W03
	BYTE		        44*seq_068_mvl/mxv
	BYTE	W03
	BYTE		        49*seq_068_mvl/mxv
	BYTE	W03
	BYTE		        56*seq_068_mvl/mxv
	BYTE	W03
	BYTE		        62*seq_068_mvl/mxv
	BYTE	W03
	BYTE		        69*seq_068_mvl/mxv
	BYTE	W03
	BYTE		        73*seq_068_mvl/mxv
	BYTE	W18
	BYTE		        72*seq_068_mvl/mxv
	BYTE	W06
	BYTE		        71*seq_068_mvl/mxv
	BYTE	W03
	BYTE		        70*seq_068_mvl/mxv
	BYTE	W03
	BYTE		        70*seq_068_mvl/mxv
	BYTE	W03
	BYTE		        68*seq_068_mvl/mxv
	BYTE	W01
	BYTE		        67*seq_068_mvl/mxv
	BYTE	W02
	BYTE		        66*seq_068_mvl/mxv
	BYTE	W01
	BYTE		        64*seq_068_mvl/mxv
	BYTE	W02
	BYTE		        61*seq_068_mvl/mxv
	BYTE	W01
	BYTE		        58*seq_068_mvl/mxv
	BYTE	W02
	BYTE		        53*seq_068_mvl/mxv
	BYTE	W01
	BYTE		        48*seq_068_mvl/mxv
	BYTE	W02
	BYTE	W01
	BYTE		        73*seq_068_mvl/mxv
	BYTE		N04     Cn2   v036
	BYTE	W12
	BYTE		        Gn1   v040
	BYTE	W12
	BYTE		        Cs2   v036
	BYTE	W12
	BYTE		        As1 
	BYTE	W12
	BYTE		        Cn2 
	BYTE	W12
	BYTE		        Fn1   v040
	BYTE	W12
	BYTE		        Gs1 
	BYTE	W12
	BYTE		        Cs2   v036
	BYTE	W11
	BYTE	W01
	BYTE		N04     Cn2   v036
	BYTE	W12
	BYTE		        Gn1   v040
	BYTE	W12
	BYTE		        Cs2   v036
	BYTE	W12
	BYTE		        As1 
	BYTE	W12
	BYTE		        Cn2 
	BYTE	W12
	BYTE		        Fn1   v040
	BYTE	W12
	BYTE		        Gs1 
	BYTE	W12
	BYTE		        Cs2   v036
	BYTE	W11
	BYTE	PEND
	BYTE	PATT
	 POIN2	seq_068_11 + 0x42A
	BYTE	PATT
	 POIN2	seq_068_11 + 0x42A
	BYTE	W01
	BYTE		N04     Cn2   v040
	BYTE	W12
	BYTE		        Gn1   v044
	BYTE	W12
	BYTE		        Cs2   v040
	BYTE	W12
	BYTE		        As1 
	BYTE	W12
	BYTE		        Cn2 
	BYTE	W12
	BYTE		        Fn1   v044
	BYTE	W12
	BYTE		        Gs1 
	BYTE	W12
	BYTE		        Cs2   v040
	BYTE	W11
	BYTE	PEND
	BYTE	PATT
	 POIN2	seq_068_11 + 0x44C
	BYTE	PATT
	 POIN2	seq_068_11 + 0x44C
	BYTE	PATT
	 POIN2	seq_068_11 + 0x44C
	BYTE	PATT
	 POIN2	seq_068_11 + 0x44C
	BYTE	PATT
	 POIN2	seq_068_11 + 0x44C
	BYTE	PATT
	 POIN2	seq_068_11 + 0x44C
	BYTE	PATT
	 POIN2	seq_068_11 + 0x44C
	BYTE	PATT
	 POIN2	seq_068_11 + 0x44C
	BYTE	PATT
	 POIN2	seq_068_11 + 0x44C
	BYTE	PATT
	 POIN2	seq_068_11 + 0x44C
	BYTE	W01
	BYTE		N04     Cn2   v040
	BYTE	W12
	BYTE		        Gn1   v044
	BYTE	W12
	BYTE		        Cs2   v040
	BYTE	W12
	BYTE		        As1 
	BYTE	W12
	BYTE		        Cn2 
	BYTE	W12
	BYTE		        Fn1   v044
	BYTE	W12
	BYTE		        Gs1 
	BYTE	W12
	BYTE		        Cs2   v040
	BYTE	W08
	BYTE		PAN     c_v-44
	BYTE	W03
	BYTE	W01
	BYTE		N23     Ds2   v056
	BYTE	W24
	BYTE		N07
	BYTE	W08
	BYTE		N07
	BYTE	W08
	BYTE		N07
	BYTE	W08
	BYTE		N12
	BYTE	W24
	BYTE		N12
	BYTE	W23
	BYTE	W01
	BYTE		N48     Gs2   v052
	BYTE	W48
	BYTE		N23
	BYTE	W24
	BYTE		N23
	BYTE	W23
	BYTE	W01
	BYTE		N68     Fs2   v056
	BYTE	W72
	BYTE		N23
	BYTE	W23
	BYTE	W01
	BYTE		N92
	BYTE	W44
	BYTE	W01
	BYTE		VOL     72*seq_068_mvl/mxv
	BYTE	W06
	BYTE		        71*seq_068_mvl/mxv
	BYTE	W03
	BYTE		        70*seq_068_mvl/mxv
	BYTE	W03
	BYTE		        70*seq_068_mvl/mxv
	BYTE	W03
	BYTE		        68*seq_068_mvl/mxv
	BYTE	W03
	BYTE		        67*seq_068_mvl/mxv
	BYTE	W03
	BYTE		        66*seq_068_mvl/mxv
	BYTE	W03
	BYTE		        64*seq_068_mvl/mxv
	BYTE	W03
	BYTE		        62*seq_068_mvl/mxv
	BYTE	W03
	BYTE		        59*seq_068_mvl/mxv
	BYTE	W03
	BYTE		        56*seq_068_mvl/mxv
	BYTE	W03
	BYTE		        54*seq_068_mvl/mxv
	BYTE	W03
	BYTE		        50*seq_068_mvl/mxv
	BYTE	W03
	BYTE		        47*seq_068_mvl/mxv
	BYTE	W03
	BYTE		        44*seq_068_mvl/mxv
	BYTE	W03
	BYTE		        41*seq_068_mvl/mxv
	BYTE	W02
	BYTE	W01
	BYTE		        73*seq_068_mvl/mxv
	BYTE		N44     Ds2 
	BYTE	W48
	BYTE		N23
	BYTE	W24
	BYTE		N24
	BYTE	W23
	BYTE	W01
	BYTE		N44     Bn1 
	BYTE	W48
	BYTE		N23
	BYTE	W24
	BYTE		N24
	BYTE	W23
	BYTE	W01
	BYTE		N96     Cn2 
	BYTE	W15
	BYTE		VOL     74*seq_068_mvl/mxv
	BYTE	W12
	BYTE		        74*seq_068_mvl/mxv
	BYTE	W03
	BYTE		        75*seq_068_mvl/mxv
	BYTE	W06
	BYTE		        76*seq_068_mvl/mxv
	BYTE	W03
	BYTE		        76*seq_068_mvl/mxv
	BYTE	W06
	BYTE		        77*seq_068_mvl/mxv
	BYTE	W03
	BYTE		        78*seq_068_mvl/mxv
	BYTE	W03
	BYTE		        79*seq_068_mvl/mxv
	BYTE	W03
	BYTE		        80*seq_068_mvl/mxv
	BYTE	W09
	BYTE		        79*seq_068_mvl/mxv
	BYTE	W03
	BYTE		        78*seq_068_mvl/mxv
	BYTE	W03
	BYTE		        77*seq_068_mvl/mxv
	BYTE	W03
	BYTE		        76*seq_068_mvl/mxv
	BYTE	W03
	BYTE		        74*seq_068_mvl/mxv
	BYTE	W03
	BYTE		        72*seq_068_mvl/mxv
	BYTE	W03
	BYTE		        69*seq_068_mvl/mxv
	BYTE	W03
	BYTE		        66*seq_068_mvl/mxv
	BYTE	W03
	BYTE		        64*seq_068_mvl/mxv
	BYTE	W03
	BYTE		        60*seq_068_mvl/mxv
	BYTE	W03
	BYTE		        56*seq_068_mvl/mxv
	BYTE	W02
	BYTE	W01
	BYTE		        73*seq_068_mvl/mxv
	BYTE		N96     Fn2 
	BYTE	W44
	BYTE	W01
	BYTE		VOL     72*seq_068_mvl/mxv
	BYTE	W06
	BYTE		        71*seq_068_mvl/mxv
	BYTE	W03
	BYTE		        70*seq_068_mvl/mxv
	BYTE	W03
	BYTE		        68*seq_068_mvl/mxv
	BYTE	W03
	BYTE		        67*seq_068_mvl/mxv
	BYTE	W03
	BYTE		        64*seq_068_mvl/mxv
	BYTE	W03
	BYTE		        62*seq_068_mvl/mxv
	BYTE	W03
	BYTE		        58*seq_068_mvl/mxv
	BYTE	W03
	BYTE		        54*seq_068_mvl/mxv
	BYTE	W03
	BYTE		        50*seq_068_mvl/mxv
	BYTE	W03
	BYTE		        46*seq_068_mvl/mxv
	BYTE	W03
	BYTE		        41*seq_068_mvl/mxv
	BYTE	W03
	BYTE		        36*seq_068_mvl/mxv
	BYTE	W03
	BYTE		        30*seq_068_mvl/mxv
	BYTE	W03
	BYTE		        23*seq_068_mvl/mxv
	BYTE	W03
	BYTE		        17*seq_068_mvl/mxv
	BYTE	W02
	BYTE	W01
	BYTE		        73*seq_068_mvl/mxv
	BYTE		N12     As1 
	BYTE	W24
	BYTE		N16     Fn1   v060
	BYTE	W16
	BYTE		N04     Gn1 
	BYTE	W04
	BYTE		        An1   v056
	BYTE	W04
	BYTE		N12     As1 
	BYTE	W24
	BYTE		N24     Fn1   v060
	BYTE	W23
	BYTE	W01
	BYTE		N12     As1   v056
	BYTE	W24
	BYTE		N16     Gn1   v060
	BYTE	W16
	BYTE		N04     Gs1 
	BYTE	W04
	BYTE		        An1   v056
	BYTE	W04
	BYTE		N12     As1 
	BYTE	W24
	BYTE		N24     Gn1   v060
	BYTE	W23
	BYTE	PEND
	BYTE	W01
	BYTE		N12     As1   v056
	BYTE	W24
	BYTE		N16     Fn1   v060
	BYTE	W16
	BYTE		N04     Gn1 
	BYTE	W04
	BYTE		        An1   v056
	BYTE	W04
	BYTE		N12     As1 
	BYTE	W24
	BYTE		N24     Fn1   v060
	BYTE	W23
	BYTE	PEND
	BYTE	PATT
	 POIN2	seq_068_11 + 0x56F
	BYTE	W01
	BYTE		N12     Cs2   v056
	BYTE	W24
	BYTE		N16     Gs1   v060
	BYTE	W16
	BYTE		N04     As1   v056
	BYTE	W04
	BYTE		        Cn2 
	BYTE	W04
	BYTE		N12     Cs2 
	BYTE	W24
	BYTE		N24     Gs1   v060
	BYTE	W23
	BYTE	PEND
	BYTE	W01
	BYTE		N12     Ds2   v056
	BYTE	W24
	BYTE		N16     As1 
	BYTE	W16
	BYTE		N04     Cn2 
	BYTE	W04
	BYTE		        Dn2 
	BYTE	W04
	BYTE		N12     Ds2 
	BYTE	W24
	BYTE		N24     As1 
	BYTE	W23
	BYTE	PEND
	BYTE	PATT
	 POIN2	seq_068_11 + 0x5A2
	BYTE	W01
	BYTE		N12     Ds2   v056
	BYTE	W24
	BYTE		N16     As1 
	BYTE	W16
	BYTE		N04     Cn2 
	BYTE	W04
	BYTE		        Dn2 
	BYTE	W04
	BYTE		N12     Ds2 
	BYTE	W24
	BYTE		N24     Gn1   v060
	BYTE	W23
	BYTE	PEND
	BYTE	PATT
	 POIN2	seq_068_11 + 0x586
	BYTE	PATT
	 POIN2	seq_068_11 + 0x56F
	BYTE	PATT
	 POIN2	seq_068_11 + 0x586
	BYTE	PATT
	 POIN2	seq_068_11 + 0x56F
	BYTE	PATT
	 POIN2	seq_068_11 + 0x5A2
	BYTE	PATT
	 POIN2	seq_068_11 + 0x5B9
	BYTE	W01
	BYTE		N12     Fn2   v056
	BYTE	W24
	BYTE		N16     Cn2 
	BYTE	W16
	BYTE		N04     Dn2 
	BYTE	W04
	BYTE		        En2 
	BYTE	W04
	BYTE		N12     Fn2 
	BYTE	W24
	BYTE		N24     Cn2 
	BYTE	W23
	BYTE	PEND
	BYTE	W01
	BYTE		N12     Fn1   v064
	BYTE	W24
	BYTE		N16     Cn2   v056
	BYTE	W16
	BYTE		N04     Dn2 
	BYTE	W04
	BYTE		        En2 
	BYTE	W04
	BYTE		N12     Fn2 
	BYTE	W24
	BYTE		N24     Cn2 
	BYTE	W23
	BYTE	PEND
	BYTE	W01
	BYTE		TIE     Cs2   v052
	BYTE	W06
	BYTE		VOL     74*seq_068_mvl/mxv
	BYTE	W30
	BYTE		        74*seq_068_mvl/mxv
	BYTE	W12
	BYTE		        75*seq_068_mvl/mxv
	BYTE	W18
	BYTE		        76*seq_068_mvl/mxv
	BYTE	W06
	BYTE		        76*seq_068_mvl/mxv
	BYTE	W12
	BYTE		        77*seq_068_mvl/mxv
	BYTE	W06
	BYTE		        78*seq_068_mvl/mxv
	BYTE	W05
	BYTE	W01
	BYTE		VOL     78*seq_068_mvl/mxv
	BYTE	W06
	BYTE		        78*seq_068_mvl/mxv
	BYTE	W12
	BYTE		        77*seq_068_mvl/mxv
	BYTE	W06
	BYTE		        76*seq_068_mvl/mxv
	BYTE	W06
	BYTE		        74*seq_068_mvl/mxv
	BYTE	W06
	BYTE		        72*seq_068_mvl/mxv
	BYTE	W06
	BYTE		        68*seq_068_mvl/mxv
	BYTE	W06
	BYTE		        65*seq_068_mvl/mxv
	BYTE	W06
	BYTE		        62*seq_068_mvl/mxv
	BYTE	W06
	BYTE		        57*seq_068_mvl/mxv
	BYTE	W06
	BYTE		        52*seq_068_mvl/mxv
	BYTE	W06
	BYTE		        47*seq_068_mvl/mxv
	BYTE	W06
	BYTE		        41*seq_068_mvl/mxv
	BYTE	W06
	BYTE		        34*seq_068_mvl/mxv
	BYTE	W06
	BYTE		        28*seq_068_mvl/mxv
	BYTE	W05
	BYTE	PEND
	BYTE	W01
	BYTE		EOT     Cs2 
	BYTE		VOL     73*seq_068_mvl/mxv
	BYTE		TIE     Bn1   v052
	BYTE	W06
	BYTE		VOL     74*seq_068_mvl/mxv
	BYTE	W30
	BYTE		        74*seq_068_mvl/mxv
	BYTE	W12
	BYTE		        75*seq_068_mvl/mxv
	BYTE	W18
	BYTE		        76*seq_068_mvl/mxv
	BYTE	W06
	BYTE		        76*seq_068_mvl/mxv
	BYTE	W12
	BYTE		        77*seq_068_mvl/mxv
	BYTE	W06
	BYTE		        78*seq_068_mvl/mxv
	BYTE	W05
	BYTE	PATT
	 POIN2	seq_068_11 + 0x642
	BYTE	W01
	BYTE		EOT     Bn1 
	BYTE	W18
	BYTE		VOL     73*seq_068_mvl/mxv
	BYTE	W06
	BYTE		N24     An1   v056
	BYTE	W48
	BYTE		N24
	BYTE	W23
	BYTE	W24
	BYTE	W01
	BYTE		N24     An1   v056
	BYTE	W48
	BYTE		N24
	BYTE	W23
	BYTE	PEND
	BYTE	W24
	BYTE	W01
	BYTE		N24     Ds2   v056
	BYTE	W48
	BYTE		N24
	BYTE	W23
	BYTE	PEND
	BYTE	PATT
	 POIN2	seq_068_11 + 0x696
	BYTE	W24
	BYTE	W01
	BYTE		N07     Fs2   v056
	BYTE	W08
	BYTE		N07
	BYTE	W08
	BYTE		N07
	BYTE	W08
	BYTE		N48
	BYTE	W44
	BYTE	W03
	BYTE	PEND
	BYTE	W24
	BYTE	W01
	BYTE		N07     Ds2   v056
	BYTE	W08
	BYTE		N07
	BYTE	W08
	BYTE		N07
	BYTE	W08
	BYTE		N48
	BYTE	W44
	BYTE	W03
	BYTE	PEND
	BYTE	W24
	BYTE	W01
	BYTE		N07     Cn2   v056
	BYTE	W08
	BYTE		N07
	BYTE	W08
	BYTE		N07
	BYTE	W08
	BYTE		N48
	BYTE	W44
	BYTE	W03
	BYTE	PEND
	BYTE	W01
	BYTE		N24     Fn2   v056
	BYTE	W24
	BYTE		        Cn2 
	BYTE	W24
	BYTE		        Fn2 
	BYTE	W24
	BYTE		        Cn2 
	BYTE	W23
	BYTE	PEND
	BYTE	PATT
	 POIN2	seq_068_11 + 0x586
	BYTE	PATT
	 POIN2	seq_068_11 + 0x56F
	BYTE	PATT
	 POIN2	seq_068_11 + 0x586
	BYTE	PATT
	 POIN2	seq_068_11 + 0x56F
	BYTE	PATT
	 POIN2	seq_068_11 + 0x5A2
	BYTE	PATT
	 POIN2	seq_068_11 + 0x5B9
	BYTE	PATT
	 POIN2	seq_068_11 + 0x5A2
	BYTE	PATT
	 POIN2	seq_068_11 + 0x5D2
	BYTE	PATT
	 POIN2	seq_068_11 + 0x586
	BYTE	PATT
	 POIN2	seq_068_11 + 0x56F
	BYTE	PATT
	 POIN2	seq_068_11 + 0x586
	BYTE	PATT
	 POIN2	seq_068_11 + 0x56F
	BYTE	PATT
	 POIN2	seq_068_11 + 0x5A2
	BYTE	PATT
	 POIN2	seq_068_11 + 0x5B9
	BYTE	PATT
	 POIN2	seq_068_11 + 0x605
	BYTE	PATT
	 POIN2	seq_068_11 + 0x619
	BYTE	W01
	BYTE		TIE     Cs2   v052
	BYTE	W92
	BYTE	W03
	BYTE	PEND
	BYTE	W96
	BYTE	W01
	BYTE		EOT
	BYTE		TIE     Bn1 
	BYTE	W92
	BYTE	W03
	BYTE	W96
	BYTE	W01
	BYTE		EOT
	BYTE	W24
	BYTE		N24     An1   v056
	BYTE	W48
	BYTE		N24
	BYTE	W23
	BYTE	PATT
	 POIN2	seq_068_11 + 0x68D
	BYTE	PATT
	 POIN2	seq_068_11 + 0x696
	BYTE	PATT
	 POIN2	seq_068_11 + 0x696
	BYTE	PATT
	 POIN2	seq_068_11 + 0x6A4
	BYTE	PATT
	 POIN2	seq_068_11 + 0x6B2
	BYTE	PATT
	 POIN2	seq_068_11 + 0x6C0
	BYTE	PATT
	 POIN2	seq_068_11 + 0x6CE
	BYTE	PATT
	 POIN2	seq_068_11 + 0x586
	BYTE	PATT
	 POIN2	seq_068_11 + 0x56F
	BYTE	PATT
	 POIN2	seq_068_11 + 0x586
	BYTE	PATT
	 POIN2	seq_068_11 + 0x56F
	BYTE	PATT
	 POIN2	seq_068_11 + 0x5A2
	BYTE	PATT
	 POIN2	seq_068_11 + 0x5B9
	BYTE	PATT
	 POIN2	seq_068_11 + 0x5A2
	BYTE	PATT
	 POIN2	seq_068_11 + 0x5D2
	BYTE	PATT
	 POIN2	seq_068_11 + 0x586
	BYTE	PATT
	 POIN2	seq_068_11 + 0x56F
	BYTE	PATT
	 POIN2	seq_068_11 + 0x586
	BYTE	PATT
	 POIN2	seq_068_11 + 0x56F
	BYTE	PATT
	 POIN2	seq_068_11 + 0x5A2
	BYTE	PATT
	 POIN2	seq_068_11 + 0x5B9
	BYTE	PATT
	 POIN2	seq_068_11 + 0x605
	BYTE	PATT
	 POIN2	seq_068_11 + 0x619
	BYTE	PATT
	 POIN2	seq_068_11 + 0x72A
	BYTE	W96
	BYTE	W01
	BYTE		EOT     Cs2 
	BYTE		TIE     Bn1   v052
	BYTE	W92
	BYTE	W03
	BYTE	W96
	BYTE	W01
	BYTE		EOT
	BYTE	W24
	BYTE		N24     An1   v056
	BYTE	W48
	BYTE		N24
	BYTE	W23
	BYTE	PATT
	 POIN2	seq_068_11 + 0x68D
	BYTE	PATT
	 POIN2	seq_068_11 + 0x696
	BYTE	PATT
	 POIN2	seq_068_11 + 0x696
	BYTE	PATT
	 POIN2	seq_068_11 + 0x6A4
	BYTE	PATT
	 POIN2	seq_068_11 + 0x6B2
	BYTE	PATT
	 POIN2	seq_068_11 + 0x6C0
	BYTE	PATT
	 POIN2	seq_068_11 + 0x6CE
	BYTE	PATT
	 POIN2	seq_068_11 + 0x586
	BYTE	PATT
	 POIN2	seq_068_11 + 0x56F
	BYTE	PATT
	 POIN2	seq_068_11 + 0x586
	BYTE	PATT
	 POIN2	seq_068_11 + 0x56F
	BYTE	PATT
	 POIN2	seq_068_11 + 0x5A2
	BYTE	PATT
	 POIN2	seq_068_11 + 0x5B9
	BYTE	PATT
	 POIN2	seq_068_11 + 0x5A2
	BYTE	PATT
	 POIN2	seq_068_11 + 0x5D2
	BYTE	PATT
	 POIN2	seq_068_11 + 0x586
	BYTE	PATT
	 POIN2	seq_068_11 + 0x56F
	BYTE	PATT
	 POIN2	seq_068_11 + 0x586
	BYTE	PATT
	 POIN2	seq_068_11 + 0x56F
	BYTE	PATT
	 POIN2	seq_068_11 + 0x5A2
	BYTE	PATT
	 POIN2	seq_068_11 + 0x5B9
	BYTE	PATT
	 POIN2	seq_068_11 + 0x605
	BYTE	PATT
	 POIN2	seq_068_11 + 0x619
	BYTE	W96
	BYTE	W96
	BYTE	W01
	BYTE		TIE     As1   v052
	BYTE	W24
	BYTE		VOL     74*seq_068_mvl/mxv
	BYTE	W30
	BYTE		        74*seq_068_mvl/mxv
	BYTE	W06
	BYTE		        75*seq_068_mvl/mxv
	BYTE	W12
	BYTE		        76*seq_068_mvl/mxv
	BYTE	W12
	BYTE		        76*seq_068_mvl/mxv
	BYTE	W06
	BYTE		        77*seq_068_mvl/mxv
	BYTE	W05
	BYTE	W01
	BYTE		VOL     78*seq_068_mvl/mxv
	BYTE	W06
	BYTE		        77*seq_068_mvl/mxv
	BYTE	W12
	BYTE		        76*seq_068_mvl/mxv
	BYTE	W06
	BYTE		        76*seq_068_mvl/mxv
	BYTE	W06
	BYTE		        75*seq_068_mvl/mxv
	BYTE	W06
	BYTE		        74*seq_068_mvl/mxv
	BYTE	W06
	BYTE		        72*seq_068_mvl/mxv
	BYTE	W06
	BYTE		        71*seq_068_mvl/mxv
	BYTE	W06
	BYTE		        70*seq_068_mvl/mxv
	BYTE	W06
	BYTE		        68*seq_068_mvl/mxv
	BYTE	W06
	BYTE		        65*seq_068_mvl/mxv
	BYTE	W06
	BYTE		        63*seq_068_mvl/mxv
	BYTE	W06
	BYTE		        60*seq_068_mvl/mxv
	BYTE	W06
	BYTE		        57*seq_068_mvl/mxv
	BYTE	W06
	BYTE		        54*seq_068_mvl/mxv
	BYTE	W05
	BYTE	PEND
	BYTE		EOT     As1 
	BYTE	W01
	BYTE		VOL     73*seq_068_mvl/mxv
	BYTE		TIE     As1   v052
	BYTE	W24
	BYTE		VOL     74*seq_068_mvl/mxv
	BYTE	W30
	BYTE		        74*seq_068_mvl/mxv
	BYTE	W06
	BYTE		        75*seq_068_mvl/mxv
	BYTE	W12
	BYTE		        76*seq_068_mvl/mxv
	BYTE	W12
	BYTE		        76*seq_068_mvl/mxv
	BYTE	W06
	BYTE		        77*seq_068_mvl/mxv
	BYTE	W05
	BYTE	PEND
	BYTE	PATT
	 POIN2	seq_068_11 + 0x854
	BYTE		EOT     As1 
	BYTE	PATT
	 POIN2	seq_068_11 + 0x877
	BYTE	PATT
	 POIN2	seq_068_11 + 0x854
	BYTE		EOT     As1 
	BYTE	PATT
	 POIN2	seq_068_11 + 0x877
	BYTE	PATT
	 POIN2	seq_068_11 + 0x854
	BYTE		EOT     As1 
	BYTE	PATT
	 POIN2	seq_068_11 + 0x877
	BYTE	PATT
	 POIN2	seq_068_11 + 0x854
	BYTE		EOT     As1 
	BYTE	PATT
	 POIN2	seq_068_11 + 0x877
	BYTE	PATT
	 POIN2	seq_068_11 + 0x854
	BYTE		EOT     As1 
	BYTE	PATT
	 POIN2	seq_068_11 + 0x877
	BYTE	PATT
	 POIN2	seq_068_11 + 0x854
	BYTE		EOT     As1 
	BYTE	PATT
	 POIN2	seq_068_11 + 0x877
	BYTE	PATT
	 POIN2	seq_068_11 + 0x854
	BYTE		EOT     As1 
	BYTE	W01
	BYTE		VOL     73*seq_068_mvl/mxv
	BYTE		N11     As1   v052
	BYTE	W12
	BYTE		N11
	BYTE	W36
	BYTE		N11
	BYTE	W12
	BYTE		N11
	BYTE	W32
	BYTE	W03
	BYTE	W01
	BYTE		N11     As1   v052
	BYTE	W12
	BYTE		N11
	BYTE	W36
	BYTE		N11
	BYTE	W12
	BYTE		N11
	BYTE	W32
	BYTE	W03
	BYTE	PEND
	BYTE	W01
	BYTE		N11     Fs1   v056
	BYTE	W12
	BYTE		N11
	BYTE	W36
	BYTE		N11
	BYTE	W12
	BYTE		N11
	BYTE	W32
	BYTE	W03
	BYTE	PEND
	BYTE	W01
	BYTE		N11     Fs1   v056
	BYTE	W12
	BYTE		N11
	BYTE	W36
	BYTE		N24
	BYTE	W24
	BYTE		        Gs1 
	BYTE	W23
	BYTE	PEND
	BYTE	PATT
	 POIN2	seq_068_11 + 0x8E9
	BYTE	PATT
	 POIN2	seq_068_11 + 0x8E9
	BYTE	PATT
	 POIN2	seq_068_11 + 0x8F6
	BYTE	PATT
	 POIN2	seq_068_11 + 0x903
	BYTE	W01
	BYTE		TIE     As1   v052
	BYTE	W12
	BYTE		VOL     74*seq_068_mvl/mxv
	BYTE	W18
	BYTE		        74*seq_068_mvl/mxv
	BYTE	W06
	BYTE		        75*seq_068_mvl/mxv
	BYTE	W12
	BYTE		        76*seq_068_mvl/mxv
	BYTE	W06
	BYTE		        76*seq_068_mvl/mxv
	BYTE	W06
	BYTE		        77*seq_068_mvl/mxv
	BYTE	W06
	BYTE		        78*seq_068_mvl/mxv
	BYTE	W06
	BYTE		        80*seq_068_mvl/mxv
	BYTE	W18
	BYTE		        79*seq_068_mvl/mxv
	BYTE	W05
	BYTE	PEND
	BYTE	W01
	BYTE		VOL     78*seq_068_mvl/mxv
	BYTE	W06
	BYTE		        76*seq_068_mvl/mxv
	BYTE	W06
	BYTE		        74*seq_068_mvl/mxv
	BYTE	W06
	BYTE		        71*seq_068_mvl/mxv
	BYTE	W06
	BYTE		        68*seq_068_mvl/mxv
	BYTE	W06
	BYTE		        65*seq_068_mvl/mxv
	BYTE	W06
	BYTE		        61*seq_068_mvl/mxv
	BYTE	W06
	BYTE		        56*seq_068_mvl/mxv
	BYTE	W06
	BYTE	PEND
	BYTE		EOT     As1 
	BYTE		VOL     73*seq_068_mvl/mxv
	BYTE		N24     Fs1   v056
	BYTE	W24
	BYTE		        Gs1 
	BYTE	W23
	BYTE	PATT
	 POIN2	seq_068_11 + 0x923
	BYTE	PATT
	 POIN2	seq_068_11 + 0x93C
	BYTE		EOT     As1 
	BYTE		VOL     73*seq_068_mvl/mxv
	BYTE		N24     Fs1   v056
	BYTE	W24
	BYTE		        Gs1 
	BYTE	W23
	BYTE	W01
	BYTE		N23     As1   v052
	BYTE	W24
	BYTE		N23
	BYTE	W24
	BYTE		N23
	BYTE	W24
	BYTE		N23
	BYTE	W23
	BYTE	W01
	BYTE		N23
	BYTE	W48
	BYTE		N23
	BYTE	W44
	BYTE	W03
	BYTE	W01
	BYTE		N44
	BYTE	W48
	BYTE		N44
	BYTE	W44
	BYTE	W03
	BYTE	W01
	BYTE		TIE
	BYTE	W05
	BYTE		VOL     74*seq_068_mvl/mxv
	BYTE	W12
	BYTE		        75*seq_068_mvl/mxv
	BYTE	W06
	BYTE		        76*seq_068_mvl/mxv
	BYTE	W06
	BYTE		        79*seq_068_mvl/mxv
	BYTE	W19
	BYTE		        78*seq_068_mvl/mxv
	BYTE	W11
	BYTE		        77*seq_068_mvl/mxv
	BYTE	W18
	BYTE		        75*seq_068_mvl/mxv
	BYTE	W06
	BYTE		        73*seq_068_mvl/mxv
	BYTE	W06
	BYTE		        71*seq_068_mvl/mxv
	BYTE	W06
	BYTE		        69*seq_068_mvl/mxv
	BYTE	W06
	BYTE		        66*seq_068_mvl/mxv
	BYTE	W06
	BYTE		        64*seq_068_mvl/mxv
	BYTE	W06
	BYTE		        62*seq_068_mvl/mxv
	BYTE	W06
	BYTE		        60*seq_068_mvl/mxv
	BYTE	W06
	BYTE		        57*seq_068_mvl/mxv
	BYTE	W06
	BYTE		        55*seq_068_mvl/mxv
	BYTE	W06
	BYTE		        53*seq_068_mvl/mxv
	BYTE	W06
	BYTE		        50*seq_068_mvl/mxv
	BYTE	W06
	BYTE		        48*seq_068_mvl/mxv
	BYTE	W06
	BYTE		        46*seq_068_mvl/mxv
	BYTE	W06
	BYTE		        44*seq_068_mvl/mxv
	BYTE	W06
	BYTE		        42*seq_068_mvl/mxv
	BYTE	W06
	BYTE		        39*seq_068_mvl/mxv
	BYTE	W06
	BYTE		        37*seq_068_mvl/mxv
	BYTE	W06
	BYTE		        35*seq_068_mvl/mxv
	BYTE	W06
	BYTE		        32*seq_068_mvl/mxv
	BYTE	W06
	BYTE		        30*seq_068_mvl/mxv
	BYTE	W06
	BYTE		        28*seq_068_mvl/mxv
	BYTE	W06
	BYTE		        26*seq_068_mvl/mxv
	BYTE	W06
	BYTE		        24*seq_068_mvl/mxv
	BYTE	W06
	BYTE		        22*seq_068_mvl/mxv
	BYTE	W06
	BYTE		        19*seq_068_mvl/mxv
	BYTE	W06
	BYTE		        16*seq_068_mvl/mxv
	BYTE	W06
	BYTE		        14*seq_068_mvl/mxv
	BYTE	W06
	BYTE		        13*seq_068_mvl/mxv
	BYTE	W06
	BYTE		        11*seq_068_mvl/mxv
	BYTE	W06
	BYTE		        10*seq_068_mvl/mxv
	BYTE	W06
	BYTE		        8*seq_068_mvl/mxv
	BYTE	W06
	BYTE		        7*seq_068_mvl/mxv
	BYTE	W06
	BYTE		        6*seq_068_mvl/mxv
	BYTE	W06
	BYTE		        4*seq_068_mvl/mxv
	BYTE	W06
	BYTE		        3*seq_068_mvl/mxv
	BYTE	W06
	BYTE		        2*seq_068_mvl/mxv
	BYTE	W06
	BYTE		        0*seq_068_mvl/mxv
	BYTE	W07
	BYTE		EOT
	BYTE	W28
	BYTE	W01
	BYTE	FINE

//******************************************************//

	ALIGN 4

seq_068:
	BYTE	12	// NumTrks
	BYTE	0	// NumBlks
	BYTE	seq_068_pri	// Priority
	BYTE	seq_068_rev	// Reverb

	POIN2	seq_068_grp

	POIN2	seq_068_0
	POIN2	seq_068_1
	POIN2	seq_068_2
	POIN2	seq_068_3
	POIN2	seq_068_4
	POIN2	seq_068_5
	POIN2	seq_068_6
	POIN2	seq_068_7
	POIN2	seq_068_8
	POIN2	seq_068_9
	POIN2	seq_068_10
	POIN2	seq_068_11

	
