//Event file generated from Sappy .s format.
// File generated by m4a2s Song-Module
	#include "MPlayDef.event"

	#define	final_battle_vs_rayquaza_grp  bank_000
	#define	final_battle_vs_rayquaza_pri  50
	#define	final_battle_vs_rayquaza_rev  198
	#define	final_battle_vs_rayquaza_mvl  127
	#define	final_battle_vs_rayquaza_key  0

	// .rodata
	//	final_battle_vs_rayquaza
	ALIGN 4

//*********************** Track 01 ***********************//

final_battle_vs_rayquaza_0:
	BYTE	KEYSH   final_battle_vs_rayquaza_key+0
	BYTE	TEMPO   134/2
	BYTE		VOICE   95
	BYTE		VOL     88*final_battle_vs_rayquaza_mvl/mxv
	BYTE		PAN     c_v+0
	BYTE	W36
	BYTE	W24
	BYTE		MOD     43
	BYTE		LFOS    33
	BYTE		MODT    mod_tre
	BYTE	W01
	BYTE		LFODL   0
	BYTE	W02
	BYTE		VOICE   95
	BYTE		VOL     88*final_battle_vs_rayquaza_mvl/mxv
	BYTE		PAN     c_v+0
	BYTE	W68
	BYTE	W01
	BYTE	PEND
	BYTE	W68
	BYTE	W03
	BYTE		VOL     70*final_battle_vs_rayquaza_mvl/mxv
	BYTE	W01
	BYTE		N24     Fn2   v112
	BYTE	W01
	BYTE		VOL     77*final_battle_vs_rayquaza_mvl/mxv
	BYTE	W01
	BYTE		        84*final_battle_vs_rayquaza_mvl/mxv
	BYTE	W01
	BYTE		        92*final_battle_vs_rayquaza_mvl/mxv
	BYTE	W02
	BYTE		        100*final_battle_vs_rayquaza_mvl/mxv
	BYTE	W18
	BYTE		        70*final_battle_vs_rayquaza_mvl/mxv
	BYTE	W01
	BYTE	PEND
	BYTE		N36     Gn2   v092
	BYTE	W01
	BYTE		VOL     78*final_battle_vs_rayquaza_mvl/mxv
	BYTE	W01
	BYTE		        82*final_battle_vs_rayquaza_mvl/mxv
	BYTE	W01
	BYTE		        85*final_battle_vs_rayquaza_mvl/mxv
	BYTE	W02
	BYTE		        92*final_battle_vs_rayquaza_mvl/mxv
	BYTE	W02
	BYTE		        99*final_battle_vs_rayquaza_mvl/mxv
	BYTE	W02
	BYTE		        105*final_battle_vs_rayquaza_mvl/mxv
	BYTE	W02
	BYTE		        112*final_battle_vs_rayquaza_mvl/mxv
	BYTE	W02
	BYTE		        119*final_battle_vs_rayquaza_mvl/mxv
	BYTE	W01
	BYTE		        123*final_battle_vs_rayquaza_mvl/mxv
	BYTE	W03
	BYTE		        125*final_battle_vs_rayquaza_mvl/mxv
	BYTE	W02
	BYTE		        121*final_battle_vs_rayquaza_mvl/mxv
	BYTE	W02
	BYTE		        119*final_battle_vs_rayquaza_mvl/mxv
	BYTE	W02
	BYTE		        117*final_battle_vs_rayquaza_mvl/mxv
	BYTE	W01
	BYTE		        116*final_battle_vs_rayquaza_mvl/mxv
	BYTE	W01
	BYTE		        115*final_battle_vs_rayquaza_mvl/mxv
	BYTE	W01
	BYTE		        113*final_battle_vs_rayquaza_mvl/mxv
	BYTE	W01
	BYTE		        112*final_battle_vs_rayquaza_mvl/mxv
	BYTE	W01
	BYTE		        108*final_battle_vs_rayquaza_mvl/mxv
	BYTE	W01
	BYTE		        103*final_battle_vs_rayquaza_mvl/mxv
	BYTE	W01
	BYTE		        98*final_battle_vs_rayquaza_mvl/mxv
	BYTE	W02
	BYTE		        88*final_battle_vs_rayquaza_mvl/mxv
	BYTE	W03
	BYTE		        70*final_battle_vs_rayquaza_mvl/mxv
	BYTE	W01
	BYTE		N36     Dn3 
	BYTE	W07
	BYTE		VOL     77*final_battle_vs_rayquaza_mvl/mxv
	BYTE	W01
	BYTE		        84*final_battle_vs_rayquaza_mvl/mxv
	BYTE	W01
	BYTE		        92*final_battle_vs_rayquaza_mvl/mxv
	BYTE	W02
	BYTE		        100*final_battle_vs_rayquaza_mvl/mxv
	BYTE	W24
	BYTE	W01
	BYTE		N24     Fn2   v060
	BYTE	W23
	BYTE		VOL     70*final_battle_vs_rayquaza_mvl/mxv
	BYTE	W01
	BYTE	PEND
	BYTE		N36     Gn2   v092
	BYTE	W01
	BYTE		VOL     78*final_battle_vs_rayquaza_mvl/mxv
	BYTE	W01
	BYTE		        82*final_battle_vs_rayquaza_mvl/mxv
	BYTE	W01
	BYTE		        85*final_battle_vs_rayquaza_mvl/mxv
	BYTE	W02
	BYTE		        92*final_battle_vs_rayquaza_mvl/mxv
	BYTE	W02
	BYTE		        99*final_battle_vs_rayquaza_mvl/mxv
	BYTE	W02
	BYTE		        105*final_battle_vs_rayquaza_mvl/mxv
	BYTE	W02
	BYTE		        112*final_battle_vs_rayquaza_mvl/mxv
	BYTE	W02
	BYTE		        119*final_battle_vs_rayquaza_mvl/mxv
	BYTE	W01
	BYTE		        123*final_battle_vs_rayquaza_mvl/mxv
	BYTE	W03
	BYTE		        125*final_battle_vs_rayquaza_mvl/mxv
	BYTE	W02
	BYTE		        121*final_battle_vs_rayquaza_mvl/mxv
	BYTE	W02
	BYTE		        119*final_battle_vs_rayquaza_mvl/mxv
	BYTE	W02
	BYTE		        117*final_battle_vs_rayquaza_mvl/mxv
	BYTE	W01
	BYTE		        116*final_battle_vs_rayquaza_mvl/mxv
	BYTE	W01
	BYTE		        115*final_battle_vs_rayquaza_mvl/mxv
	BYTE	W01
	BYTE		        113*final_battle_vs_rayquaza_mvl/mxv
	BYTE	W01
	BYTE		        112*final_battle_vs_rayquaza_mvl/mxv
	BYTE	W01
	BYTE		        108*final_battle_vs_rayquaza_mvl/mxv
	BYTE	W01
	BYTE		        103*final_battle_vs_rayquaza_mvl/mxv
	BYTE	W01
	BYTE		        98*final_battle_vs_rayquaza_mvl/mxv
	BYTE	W02
	BYTE		        88*final_battle_vs_rayquaza_mvl/mxv
	BYTE	W03
	BYTE		        70*final_battle_vs_rayquaza_mvl/mxv
	BYTE	W01
	BYTE		N36     Dn3 
	BYTE	W07
	BYTE		VOL     77*final_battle_vs_rayquaza_mvl/mxv
	BYTE	W01
	BYTE		        84*final_battle_vs_rayquaza_mvl/mxv
	BYTE	W01
	BYTE		        92*final_battle_vs_rayquaza_mvl/mxv
	BYTE	W02
	BYTE		        100*final_battle_vs_rayquaza_mvl/mxv
	BYTE	W24
	BYTE	W01
	BYTE		N24     Cn3   v060
	BYTE	W23
	BYTE		VOL     74*final_battle_vs_rayquaza_mvl/mxv
	BYTE	W01
	BYTE	PEND
	BYTE		N36     Dn3   v092
	BYTE	W01
	BYTE		VOL     77*final_battle_vs_rayquaza_mvl/mxv
	BYTE	W01
	BYTE		        84*final_battle_vs_rayquaza_mvl/mxv
	BYTE	W01
	BYTE		        92*final_battle_vs_rayquaza_mvl/mxv
	BYTE	W02
	BYTE		        100*final_battle_vs_rayquaza_mvl/mxv
	BYTE	W30
	BYTE		        74*final_battle_vs_rayquaza_mvl/mxv
	BYTE	W01
	BYTE		N36     Gn3 
	BYTE	W01
	BYTE		VOL     77*final_battle_vs_rayquaza_mvl/mxv
	BYTE	W01
	BYTE		        84*final_battle_vs_rayquaza_mvl/mxv
	BYTE	W01
	BYTE		        92*final_battle_vs_rayquaza_mvl/mxv
	BYTE	W02
	BYTE		        100*final_battle_vs_rayquaza_mvl/mxv
	BYTE	W30
	BYTE		        74*final_battle_vs_rayquaza_mvl/mxv
	BYTE	W01
	BYTE		N24     As3 
	BYTE	W01
	BYTE		VOL     77*final_battle_vs_rayquaza_mvl/mxv
	BYTE	W01
	BYTE		        84*final_battle_vs_rayquaza_mvl/mxv
	BYTE	W01
	BYTE		        92*final_battle_vs_rayquaza_mvl/mxv
	BYTE	W02
	BYTE		        100*final_battle_vs_rayquaza_mvl/mxv
	BYTE	W18
	BYTE		        74*final_battle_vs_rayquaza_mvl/mxv
	BYTE	W01
	BYTE	PEND
	BYTE		N36     An3   v092
	BYTE	W01
	BYTE		VOL     77*final_battle_vs_rayquaza_mvl/mxv
	BYTE	W01
	BYTE		        84*final_battle_vs_rayquaza_mvl/mxv
	BYTE	W01
	BYTE		        92*final_battle_vs_rayquaza_mvl/mxv
	BYTE	W02
	BYTE		        100*final_battle_vs_rayquaza_mvl/mxv
	BYTE	W30
	BYTE		        74*final_battle_vs_rayquaza_mvl/mxv
	BYTE	W01
	BYTE		N36     Fn3 
	BYTE	W07
	BYTE		VOL     77*final_battle_vs_rayquaza_mvl/mxv
	BYTE	W01
	BYTE		        84*final_battle_vs_rayquaza_mvl/mxv
	BYTE	W01
	BYTE		        92*final_battle_vs_rayquaza_mvl/mxv
	BYTE	W02
	BYTE		        100*final_battle_vs_rayquaza_mvl/mxv
	BYTE	W24
	BYTE		        74*final_battle_vs_rayquaza_mvl/mxv
	BYTE	W01
	BYTE		N24     Cn3   v064
	BYTE	W01
	BYTE		VOL     77*final_battle_vs_rayquaza_mvl/mxv
	BYTE	W01
	BYTE		        84*final_battle_vs_rayquaza_mvl/mxv
	BYTE	W01
	BYTE		        92*final_battle_vs_rayquaza_mvl/mxv
	BYTE	W02
	BYTE		        100*final_battle_vs_rayquaza_mvl/mxv
	BYTE	W18
	BYTE		        67*final_battle_vs_rayquaza_mvl/mxv
	BYTE	W01
	BYTE	PEND
	BYTE		TIE     Dn3   v092
	BYTE	W07
	BYTE		VOL     70*final_battle_vs_rayquaza_mvl/mxv
	BYTE	W04
	BYTE		        71*final_battle_vs_rayquaza_mvl/mxv
	BYTE	W03
	BYTE		        72*final_battle_vs_rayquaza_mvl/mxv
	BYTE	W04
	BYTE		        74*final_battle_vs_rayquaza_mvl/mxv
	BYTE	W03
	BYTE		        75*final_battle_vs_rayquaza_mvl/mxv
	BYTE	W04
	BYTE		        76*final_battle_vs_rayquaza_mvl/mxv
	BYTE	W03
	BYTE		        77*final_battle_vs_rayquaza_mvl/mxv
	BYTE	W03
	BYTE		        78*final_battle_vs_rayquaza_mvl/mxv
	BYTE	W04
	BYTE		        79*final_battle_vs_rayquaza_mvl/mxv
	BYTE	W03
	BYTE		        81*final_battle_vs_rayquaza_mvl/mxv
	BYTE	W04
	BYTE		        82*final_battle_vs_rayquaza_mvl/mxv
	BYTE	W03
	BYTE		        83*final_battle_vs_rayquaza_mvl/mxv
	BYTE	W03
	BYTE		        84*final_battle_vs_rayquaza_mvl/mxv
	BYTE	W04
	BYTE		        85*final_battle_vs_rayquaza_mvl/mxv
	BYTE	W03
	BYTE		        86*final_battle_vs_rayquaza_mvl/mxv
	BYTE	W04
	BYTE		        88*final_battle_vs_rayquaza_mvl/mxv
	BYTE	W03
	BYTE		        89*final_battle_vs_rayquaza_mvl/mxv
	BYTE	W03
	BYTE		        90*final_battle_vs_rayquaza_mvl/mxv
	BYTE	W04
	BYTE		        91*final_battle_vs_rayquaza_mvl/mxv
	BYTE	W03
	BYTE		        92*final_battle_vs_rayquaza_mvl/mxv
	BYTE	W04
	BYTE		        96*final_battle_vs_rayquaza_mvl/mxv
	BYTE	W03
	BYTE		        99*final_battle_vs_rayquaza_mvl/mxv
	BYTE	W03
	BYTE		        102*final_battle_vs_rayquaza_mvl/mxv
	BYTE	W04
	BYTE		        106*final_battle_vs_rayquaza_mvl/mxv
	BYTE	W03
	BYTE		        109*final_battle_vs_rayquaza_mvl/mxv
	BYTE	W04
	BYTE		        113*final_battle_vs_rayquaza_mvl/mxv
	BYTE	W03
	BYTE	PEND
	BYTE		VOL     116*final_battle_vs_rayquaza_mvl/mxv
	BYTE	W03
	BYTE		        119*final_battle_vs_rayquaza_mvl/mxv
	BYTE	W04
	BYTE		        122*final_battle_vs_rayquaza_mvl/mxv
	BYTE	W03
	BYTE		        121*final_battle_vs_rayquaza_mvl/mxv
	BYTE	W04
	BYTE		        120*final_battle_vs_rayquaza_mvl/mxv
	BYTE	W03
	BYTE		        119*final_battle_vs_rayquaza_mvl/mxv
	BYTE	W04
	BYTE		        117*final_battle_vs_rayquaza_mvl/mxv
	BYTE	W03
	BYTE		        116*final_battle_vs_rayquaza_mvl/mxv
	BYTE	W03
	BYTE		        115*final_battle_vs_rayquaza_mvl/mxv
	BYTE	W04
	BYTE		        114*final_battle_vs_rayquaza_mvl/mxv
	BYTE	W03
	BYTE		        113*final_battle_vs_rayquaza_mvl/mxv
	BYTE	W04
	BYTE		        111*final_battle_vs_rayquaza_mvl/mxv
	BYTE	W03
	BYTE		        110*final_battle_vs_rayquaza_mvl/mxv
	BYTE	W03
	BYTE		        109*final_battle_vs_rayquaza_mvl/mxv
	BYTE	W04
	BYTE		        108*final_battle_vs_rayquaza_mvl/mxv
	BYTE	W03
	BYTE		        107*final_battle_vs_rayquaza_mvl/mxv
	BYTE	W04
	BYTE		        105*final_battle_vs_rayquaza_mvl/mxv
	BYTE	W03
	BYTE		        102*final_battle_vs_rayquaza_mvl/mxv
	BYTE	W03
	BYTE		        98*final_battle_vs_rayquaza_mvl/mxv
	BYTE	W04
	BYTE		        92*final_battle_vs_rayquaza_mvl/mxv
	BYTE	W03
	BYTE		        88*final_battle_vs_rayquaza_mvl/mxv
	BYTE	W04
	BYTE		        82*final_battle_vs_rayquaza_mvl/mxv
	BYTE	W03
	BYTE		        82*final_battle_vs_rayquaza_mvl/mxv
	BYTE	W03
	BYTE		        73*final_battle_vs_rayquaza_mvl/mxv
	BYTE	W04
	BYTE		        62*final_battle_vs_rayquaza_mvl/mxv
	BYTE	W03
	BYTE		        52*final_battle_vs_rayquaza_mvl/mxv
	BYTE	W04
	BYTE		        40*final_battle_vs_rayquaza_mvl/mxv
	BYTE	W03
	BYTE		        31*final_battle_vs_rayquaza_mvl/mxv
	BYTE	W04
	BYTE	PEND
	BYTE		EOT     Dn3 
	BYTE	W96
	BYTE	PATT
	 POIN2	final_battle_vs_rayquaza_0 + 0x1F
	BYTE	PATT
	 POIN2	final_battle_vs_rayquaza_0 + 0x34
	BYTE	PATT
	 POIN2	final_battle_vs_rayquaza_0 + 0x7A
	BYTE	PATT
	 POIN2	final_battle_vs_rayquaza_0 + 0xC0
	BYTE	PATT
	 POIN2	final_battle_vs_rayquaza_0 + 0xEC
	BYTE	PATT
	 POIN2	final_battle_vs_rayquaza_0 + 0x119
	BYTE		VOL     116*final_battle_vs_rayquaza_mvl/mxv
	BYTE	W03
	BYTE		        119*final_battle_vs_rayquaza_mvl/mxv
	BYTE	W04
	BYTE		        122*final_battle_vs_rayquaza_mvl/mxv
	BYTE	W03
	BYTE		        121*final_battle_vs_rayquaza_mvl/mxv
	BYTE	W04
	BYTE		        120*final_battle_vs_rayquaza_mvl/mxv
	BYTE	W03
	BYTE		        119*final_battle_vs_rayquaza_mvl/mxv
	BYTE	W04
	BYTE		        117*final_battle_vs_rayquaza_mvl/mxv
	BYTE	W03
	BYTE		        116*final_battle_vs_rayquaza_mvl/mxv
	BYTE	W03
	BYTE		        115*final_battle_vs_rayquaza_mvl/mxv
	BYTE	W04
	BYTE		        114*final_battle_vs_rayquaza_mvl/mxv
	BYTE	W03
	BYTE		        113*final_battle_vs_rayquaza_mvl/mxv
	BYTE	W04
	BYTE		        111*final_battle_vs_rayquaza_mvl/mxv
	BYTE	W03
	BYTE		        110*final_battle_vs_rayquaza_mvl/mxv
	BYTE	W03
	BYTE		        109*final_battle_vs_rayquaza_mvl/mxv
	BYTE	W04
	BYTE		        108*final_battle_vs_rayquaza_mvl/mxv
	BYTE	W03
	BYTE		        107*final_battle_vs_rayquaza_mvl/mxv
	BYTE	W04
	BYTE		        105*final_battle_vs_rayquaza_mvl/mxv
	BYTE	W03
	BYTE		        102*final_battle_vs_rayquaza_mvl/mxv
	BYTE	W03
	BYTE		        98*final_battle_vs_rayquaza_mvl/mxv
	BYTE	W04
	BYTE		        92*final_battle_vs_rayquaza_mvl/mxv
	BYTE	W03
	BYTE		        88*final_battle_vs_rayquaza_mvl/mxv
	BYTE	W04
	BYTE		MOD     70
	BYTE		VOL     82*final_battle_vs_rayquaza_mvl/mxv
	BYTE		LFOS    30
	BYTE		MODT    mod_pan
	BYTE	W01
	BYTE		LFODL   0
	BYTE	W02
	BYTE		VOL     82*final_battle_vs_rayquaza_mvl/mxv
	BYTE	W03
	BYTE		        73*final_battle_vs_rayquaza_mvl/mxv
	BYTE	W04
	BYTE		        62*final_battle_vs_rayquaza_mvl/mxv
	BYTE	W03
	BYTE		        52*final_battle_vs_rayquaza_mvl/mxv
	BYTE	W04
	BYTE		        40*final_battle_vs_rayquaza_mvl/mxv
	BYTE	W03
	BYTE		        31*final_battle_vs_rayquaza_mvl/mxv
	BYTE	W04
	BYTE	PEND
	BYTE		EOT     Dn3 
	BYTE	W03
	BYTE		VOICE   102
	BYTE		VOL     123*final_battle_vs_rayquaza_mvl/mxv
	BYTE		PAN     c_v+0
	BYTE	W92
	BYTE	W01
	BYTE	PEND
	BYTE	W72
	BYTE		N11     Dn3   v072
	BYTE	W24
	BYTE		N84     Gn3   v072
	BYTE	W84
	BYTE		N05     Fs3 
	BYTE	W12
	BYTE	PEND
	BYTE		N11     Gn3   v072
	BYTE	W12
	BYTE		N05     Fs3 
	BYTE	W06
	BYTE		        Dn3 
	BYTE	W06
	BYTE		N03     Dn2 
	BYTE	W06
	BYTE		N05     Cn3 
	BYTE	W06
	BYTE		N03     Dn2 
	BYTE	W06
	BYTE		N05     Dn3 
	BYTE	W06
	BYTE		N03     Dn2 
	BYTE	W06
	BYTE		N05     As2 
	BYTE	W06
	BYTE		        Gn2 
	BYTE	W06
	BYTE		        Cn3 
	BYTE	W06
	BYTE		N03     Dn2 
	BYTE	W06
	BYTE		N05     Gn2 
	BYTE	W06
	BYTE		N11     Dn2 
	BYTE	W12
	BYTE	PEND
	BYTE		N05     An2   v072
	BYTE	W06
	BYTE		N05
	BYTE	W06
	BYTE		        Gn2 
	BYTE	W06
	BYTE		        An2 
	BYTE	W06
	BYTE		N03     Cn2 
	BYTE	W06
	BYTE		        Dn2 
	BYTE	W06
	BYTE		N05     An2 
	BYTE	W06
	BYTE		N05
	BYTE	W06
	BYTE		        Gn2 
	BYTE	W06
	BYTE		        An2 
	BYTE	W06
	BYTE		N03     Dn2 
	BYTE	W06
	BYTE		N05     An2 
	BYTE	W06
	BYTE		N03     Cn2 
	BYTE	W06
	BYTE		N05     Gn2 
	BYTE	W06
	BYTE		        An2 
	BYTE	W06
	BYTE		        Dn2 
	BYTE	W06
	BYTE	PEND
	BYTE	W96
	BYTE	W06
	BYTE		N05     Dn2   v072
	BYTE	W06
	BYTE		        Gn2 
	BYTE	W06
	BYTE		        An2 
	BYTE	W06
	BYTE		N03     An1 
	BYTE	W06
	BYTE		N05     Gn2 
	BYTE	W12
	BYTE		        An2 
	BYTE	W06
	BYTE		N03     An1 
	BYTE	W06
	BYTE		N05     Dn3 
	BYTE	W06
	BYTE		        Gn2 
	BYTE	W06
	BYTE		        An2 
	BYTE	W06
	BYTE		N03     An1 
	BYTE	W06
	BYTE		N05     Dn2 
	BYTE	W06
	BYTE		N03     Dn1 
	BYTE	W06
	BYTE		N05     An1 
	BYTE	W06
	BYTE	PEND
	BYTE		N05     Fn2   v072
	BYTE	W06
	BYTE		N05
	BYTE	W06
	BYTE		        En2 
	BYTE	W06
	BYTE		        Fn2 
	BYTE	W06
	BYTE		N03     An1 
	BYTE	W06
	BYTE		N05     En2 
	BYTE	W12
	BYTE		        Fn2 
	BYTE	W06
	BYTE		        En2 
	BYTE	W06
	BYTE		        Fn2 
	BYTE	W06
	BYTE		N03     An1 
	BYTE	W06
	BYTE		N11     Fn2 
	BYTE	W12
	BYTE		N05     Dn2 
	BYTE	W06
	BYTE		        Fn2 
	BYTE	W06
	BYTE		        An2 
	BYTE	W06
	BYTE	PEND
	BYTE	W06
	BYTE		N05     Dn2   v072
	BYTE	W06
	BYTE		        Dn3 
	BYTE	W06
	BYTE		        Gn2 
	BYTE	W06
	BYTE		        An2 
	BYTE	W06
	BYTE		        Dn3 
	BYTE	W06
	BYTE		N02     Dn2 
	BYTE	W06
	BYTE		N11     An2 
	BYTE	W12
	BYTE		N05     Gn2 
	BYTE	W06
	BYTE		        An2 
	BYTE	W06
	BYTE		N17     Dn2 
	BYTE	W30
	BYTE	PEND
	BYTE	W96
	BYTE	W96
	BYTE	W96
	BYTE	W96
	BYTE	W96
	BYTE	W96
	BYTE	W96
	BYTE	W96
	BYTE	W96
	BYTE	W96
	BYTE	W96
	BYTE	W96
	BYTE	W96
	BYTE	W96
	BYTE	W96
	BYTE	W96
	BYTE	W96
	BYTE	W96
	BYTE	W96
	BYTE	W96
	BYTE	W96
	BYTE	W96
	BYTE	W96
	BYTE	W96
	BYTE	W96
	BYTE	W96
	BYTE	W96
	BYTE	W96
	BYTE	W96
	BYTE	W96
	BYTE	W96
	BYTE	PATT
	 POIN2	final_battle_vs_rayquaza_0 + 0xB
	BYTE	PATT
	 POIN2	final_battle_vs_rayquaza_0 + 0x1F
	BYTE	PATT
	 POIN2	final_battle_vs_rayquaza_0 + 0x34
	BYTE	PATT
	 POIN2	final_battle_vs_rayquaza_0 + 0x7A
	BYTE	PATT
	 POIN2	final_battle_vs_rayquaza_0 + 0xC0
	BYTE	PATT
	 POIN2	final_battle_vs_rayquaza_0 + 0xEC
	BYTE	PATT
	 POIN2	final_battle_vs_rayquaza_0 + 0x119
	BYTE	PATT
	 POIN2	final_battle_vs_rayquaza_0 + 0x153
	BYTE		EOT     Dn3 
	BYTE	W96
	BYTE	PATT
	 POIN2	final_battle_vs_rayquaza_0 + 0x1F
	BYTE	PATT
	 POIN2	final_battle_vs_rayquaza_0 + 0x34
	BYTE	PATT
	 POIN2	final_battle_vs_rayquaza_0 + 0x7A
	BYTE	PATT
	 POIN2	final_battle_vs_rayquaza_0 + 0xC0
	BYTE	PATT
	 POIN2	final_battle_vs_rayquaza_0 + 0xEC
	BYTE	PATT
	 POIN2	final_battle_vs_rayquaza_0 + 0x119
	BYTE	PATT
	 POIN2	final_battle_vs_rayquaza_0 + 0x1AE
	BYTE		EOT     Dn3 
	BYTE	PATT
	 POIN2	final_battle_vs_rayquaza_0 + 0x1F5
	BYTE	W72
	BYTE		N11     Dn3   v072
	BYTE	W24
	BYTE	PATT
	 POIN2	final_battle_vs_rayquaza_0 + 0x204
	BYTE	PATT
	 POIN2	final_battle_vs_rayquaza_0 + 0x20C
	BYTE	PATT
	 POIN2	final_battle_vs_rayquaza_0 + 0x235
	BYTE	W96
	BYTE	PATT
	 POIN2	final_battle_vs_rayquaza_0 + 0x25F
	BYTE	PATT
	 POIN2	final_battle_vs_rayquaza_0 + 0x287
	BYTE	PATT
	 POIN2	final_battle_vs_rayquaza_0 + 0x2AB
	BYTE	W96
	BYTE	W96
	BYTE	W96
	BYTE	W96
	BYTE	W96
	BYTE	W96
	BYTE	W96
	BYTE	W96
	BYTE	W96
	BYTE	GoTo
	 POIN2	final_battle_vs_rayquaza_0 + 0x2D0
	BYTE	FINE

//*********************** Track 02 ***********************//

final_battle_vs_rayquaza_1:
	BYTE	KEYSH   final_battle_vs_rayquaza_key+0
	BYTE	W01
	BYTE		VOICE   45
	BYTE		VOL     68*final_battle_vs_rayquaza_mvl/mxv
	BYTE		PAN     c_v-40
	BYTE	W01
	BYTE		MOD     4
	BYTE		LFOS    20
	BYTE		MODT    mod_tre
	BYTE	W01
	BYTE		BENDR   2
	BYTE		LFODL   20
	BYTE	W20
	BYTE		VOL     0*final_battle_vs_rayquaza_mvl/mxv
	BYTE		BEND    c_v+0
	BYTE	W01
	BYTE		TIE     Dn3   v112
	BYTE	W07
	BYTE		VOL     1*final_battle_vs_rayquaza_mvl/mxv
	BYTE	W03
	BYTE		        2*final_battle_vs_rayquaza_mvl/mxv
	BYTE	W02
	BYTE	W01
	BYTE		        4*final_battle_vs_rayquaza_mvl/mxv
	BYTE	W03
	BYTE		        5*final_battle_vs_rayquaza_mvl/mxv
	BYTE	W03
	BYTE		        6*final_battle_vs_rayquaza_mvl/mxv
	BYTE	W03
	BYTE		        8*final_battle_vs_rayquaza_mvl/mxv
	BYTE	W03
	BYTE		        13*final_battle_vs_rayquaza_mvl/mxv
	BYTE	W03
	BYTE		        13*final_battle_vs_rayquaza_mvl/mxv
	BYTE	W03
	BYTE		        16*final_battle_vs_rayquaza_mvl/mxv
	BYTE	W03
	BYTE		        19*final_battle_vs_rayquaza_mvl/mxv
	BYTE	W03
	BYTE		        23*final_battle_vs_rayquaza_mvl/mxv
	BYTE	W03
	BYTE		        26*final_battle_vs_rayquaza_mvl/mxv
	BYTE	W03
	BYTE		        30*final_battle_vs_rayquaza_mvl/mxv
	BYTE	W03
	BYTE		        33*final_battle_vs_rayquaza_mvl/mxv
	BYTE	W03
	BYTE		        37*final_battle_vs_rayquaza_mvl/mxv
	BYTE	W03
	BYTE		        42*final_battle_vs_rayquaza_mvl/mxv
	BYTE	W03
	BYTE		        46*final_battle_vs_rayquaza_mvl/mxv
	BYTE	W03
	BYTE		        52*final_battle_vs_rayquaza_mvl/mxv
	BYTE	W03
	BYTE		        57*final_battle_vs_rayquaza_mvl/mxv
	BYTE	W03
	BYTE		        63*final_battle_vs_rayquaza_mvl/mxv
	BYTE	W03
	BYTE		        70*final_battle_vs_rayquaza_mvl/mxv
	BYTE	W03
	BYTE		        77*final_battle_vs_rayquaza_mvl/mxv
	BYTE	W03
	BYTE		        84*final_battle_vs_rayquaza_mvl/mxv
	BYTE	W03
	BYTE		        92*final_battle_vs_rayquaza_mvl/mxv
	BYTE	W03
	BYTE		        100*final_battle_vs_rayquaza_mvl/mxv
	BYTE	W03
	BYTE		        113*final_battle_vs_rayquaza_mvl/mxv
	BYTE	W03
	BYTE		        123*final_battle_vs_rayquaza_mvl/mxv
	BYTE	W03
	BYTE		        120*final_battle_vs_rayquaza_mvl/mxv
	BYTE	W03
	BYTE		        119*final_battle_vs_rayquaza_mvl/mxv
	BYTE	W03
	BYTE		        117*final_battle_vs_rayquaza_mvl/mxv
	BYTE	W03
	BYTE		        116*final_battle_vs_rayquaza_mvl/mxv
	BYTE	W03
	BYTE		        114*final_battle_vs_rayquaza_mvl/mxv
	BYTE	W03
	BYTE		        112*final_battle_vs_rayquaza_mvl/mxv
	BYTE	W05
	BYTE		        108*final_battle_vs_rayquaza_mvl/mxv
	BYTE	W03
	BYTE		        107*final_battle_vs_rayquaza_mvl/mxv
	BYTE	W02
	BYTE		        104*final_battle_vs_rayquaza_mvl/mxv
	BYTE	W03
	BYTE		        100*final_battle_vs_rayquaza_mvl/mxv
	BYTE	W02
	BYTE		        97*final_battle_vs_rayquaza_mvl/mxv
	BYTE	W03
	BYTE		        95*final_battle_vs_rayquaza_mvl/mxv
	BYTE		BEND    c_v-2
	BYTE	W02
	BYTE		VOL     92*final_battle_vs_rayquaza_mvl/mxv
	BYTE		BEND    c_v-5
	BYTE	W01
	BYTE		        c_v-5
	BYTE	W01
	BYTE		VOL     89*final_battle_vs_rayquaza_mvl/mxv
	BYTE	W01
	BYTE		BEND    c_v-6
	BYTE	W01
	BYTE		        c_v-6
	BYTE	W01
	BYTE		VOL     84*final_battle_vs_rayquaza_mvl/mxv
	BYTE	W01
	BYTE		BEND    c_v-7
	BYTE	W01
	BYTE		VOL     82*final_battle_vs_rayquaza_mvl/mxv
	BYTE		BEND    c_v-8
	BYTE	W02
	BYTE		        c_v-8
	BYTE	W01
	BYTE		VOL     75*final_battle_vs_rayquaza_mvl/mxv
	BYTE		BEND    c_v-9
	BYTE	W02
	BYTE		VOL     69*final_battle_vs_rayquaza_mvl/mxv
	BYTE	W01
	BYTE		BEND    c_v-10
	BYTE	W02
	BYTE		VOL     62*final_battle_vs_rayquaza_mvl/mxv
	BYTE		BEND    c_v-11
	BYTE	W02
	BYTE		VOL     60*final_battle_vs_rayquaza_mvl/mxv
	BYTE	W01
	BYTE		BEND    c_v-16
	BYTE	W01
	BYTE		VOL     55*final_battle_vs_rayquaza_mvl/mxv
	BYTE		BEND    c_v-17
	BYTE	W02
	BYTE		        c_v-19
	BYTE	W01
	BYTE		VOL     50*final_battle_vs_rayquaza_mvl/mxv
	BYTE		BEND    c_v-20
	BYTE	W02
	BYTE		VOL     44*final_battle_vs_rayquaza_mvl/mxv
	BYTE		BEND    c_v-22
	BYTE	W01
	BYTE		        c_v-23
	BYTE	W02
	BYTE		VOL     29*final_battle_vs_rayquaza_mvl/mxv
	BYTE		BEND    c_v-25
	BYTE	W01
	BYTE		        c_v-27
	BYTE	W01
	BYTE		VOL     16*final_battle_vs_rayquaza_mvl/mxv
	BYTE	W01
	BYTE		BEND    c_v-31
	BYTE	W01
	BYTE		        c_v-34
	BYTE	W02
	BYTE		        c_v-37
	BYTE	W01
	BYTE		        c_v-40
	BYTE	W02
	BYTE		        c_v-43
	BYTE	W03
	BYTE		EOT
	BYTE	W40
	BYTE	W01
	BYTE		VOICE   95
	BYTE		VOL     93*final_battle_vs_rayquaza_mvl/mxv
	BYTE		PAN     c_v-20
	BYTE		BEND    c_v+0
	BYTE	W01
	BYTE		TIE     Dn2   v096
	BYTE	W96
	BYTE	W96
	BYTE		EOT
	BYTE		TIE     Fn2 
	BYTE	W96
	BYTE	W96
	BYTE		EOT
	BYTE		TIE     En2 
	BYTE	W96
	BYTE	W96
	BYTE		EOT
	BYTE		N96     Ds2 
	BYTE	W96
	BYTE		        Fn2 
	BYTE	W96
	BYTE		TIE     Dn2 
	BYTE	W96
	BYTE	W96
	BYTE		EOT
	BYTE		TIE     Fn2 
	BYTE	W96
	BYTE	W96
	BYTE		EOT
	BYTE		TIE     En2 
	BYTE	W96
	BYTE	W96
	BYTE		EOT
	BYTE		N36     Ds2   v096
	BYTE	W36
	BYTE		N60
	BYTE	W60
	BYTE	PEND
	BYTE		N36     Fn2   v096
	BYTE	W36
	BYTE		N36
	BYTE	W56
	BYTE	W03
	BYTE		PAN     c_v+0
	BYTE	W01
	BYTE	PEND
	BYTE		N72     Dn2   v096
	BYTE	W84
	BYTE		TIE     Fn2 
	BYTE	W12
	BYTE	PEND
	BYTE	W96
	BYTE		EOT
	BYTE		N72     En2   v096
	BYTE	W84
	BYTE		N36     Ds2 
	BYTE	W12
	BYTE	PEND
	BYTE	W36
	BYTE		N60     Fn2 
	BYTE	W60
	BYTE	PATT
	 POIN2	final_battle_vs_rayquaza_1 + 0x10D
	BYTE	W96
	BYTE		EOT     Fn2 
	BYTE	PATT
	 POIN2	final_battle_vs_rayquaza_1 + 0x117
	BYTE	W36
	BYTE		N36     Fn2   v096
	BYTE	W56
	BYTE	W03
	BYTE		VOICE   119
	BYTE		VOL     73*final_battle_vs_rayquaza_mvl/mxv
	BYTE		PAN     c_v-30
	BYTE		BEND    c_v+0
	BYTE	W01
	BYTE	PEND
	BYTE		TIE     Dn3   v127
	BYTE	W96
	BYTE	W96
	BYTE		EOT
	BYTE		TIE     Fn3 
	BYTE	W96
	BYTE	W96
	BYTE		EOT
	BYTE		TIE     En3 
	BYTE	W96
	BYTE	W96
	BYTE		EOT
	BYTE		N96     Ds3 
	BYTE	W96
	BYTE		        Fn3 
	BYTE	W96
	BYTE		TIE     Dn3   v127
	BYTE	W96
	BYTE	W96
	BYTE		EOT
	BYTE		TIE     Fn3 
	BYTE	W96
	BYTE	W96
	BYTE		EOT
	BYTE		TIE     En3 
	BYTE	W96
	BYTE	W96
	BYTE		EOT
	BYTE		N96     Ds3 
	BYTE	W96
	BYTE		        Fn3 
	BYTE	W92
	BYTE	W03
	BYTE		VOICE   95
	BYTE		VOL     73*final_battle_vs_rayquaza_mvl/mxv
	BYTE		PAN     c_v-30
	BYTE		BEND    c_v+0
	BYTE	W01
	BYTE		TIE     Dn2   v092
	BYTE	W96
	BYTE	W96
	BYTE		EOT
	BYTE		TIE     Fn2 
	BYTE	W96
	BYTE	W96
	BYTE		EOT
	BYTE		TIE     En2 
	BYTE	W96
	BYTE	W96
	BYTE		EOT
	BYTE		N96     Ds2 
	BYTE	W96
	BYTE		N72     Fn2 
	BYTE	W96
	BYTE		TIE     Dn2 
	BYTE	W96
	BYTE	W96
	BYTE		EOT
	BYTE		TIE     Fn2 
	BYTE	W96
	BYTE	W96
	BYTE		EOT
	BYTE		TIE     En2 
	BYTE	W96
	BYTE	W96
	BYTE		EOT
	BYTE		N96     Ds2 
	BYTE	W96
	BYTE		N72     Fn2 
	BYTE	W96
	BYTE		TIE     Dn2   v096
	BYTE	W96
	BYTE	W96
	BYTE		EOT
	BYTE		TIE     Fn2 
	BYTE	W96
	BYTE	W96
	BYTE		EOT
	BYTE		TIE     En2 
	BYTE	W96
	BYTE	W96
	BYTE		EOT
	BYTE		N96     Ds2 
	BYTE	W96
	BYTE		N72     Fn2 
	BYTE	W96
	BYTE		TIE     Dn2 
	BYTE	W96
	BYTE	W96
	BYTE		EOT
	BYTE		TIE     Fn2 
	BYTE	W96
	BYTE	W96
	BYTE		EOT
	BYTE		TIE     En2 
	BYTE	W96
	BYTE	W96
	BYTE		EOT
	BYTE	PATT
	 POIN2	final_battle_vs_rayquaza_1 + 0xFB
	BYTE	PATT
	 POIN2	final_battle_vs_rayquaza_1 + 0x102
	BYTE	PATT
	 POIN2	final_battle_vs_rayquaza_1 + 0x10D
	BYTE	W96
	BYTE		EOT     Fn2 
	BYTE	PATT
	 POIN2	final_battle_vs_rayquaza_1 + 0x117
	BYTE	W36
	BYTE		N60     Fn2   v096
	BYTE	W60
	BYTE	PATT
	 POIN2	final_battle_vs_rayquaza_1 + 0x10D
	BYTE	W96
	BYTE		EOT     Fn2 
	BYTE	PATT
	 POIN2	final_battle_vs_rayquaza_1 + 0x117
	BYTE	PATT
	 POIN2	final_battle_vs_rayquaza_1 + 0x130
	BYTE		TIE     Dn3   v127
	BYTE	W96
	BYTE	W96
	BYTE		EOT
	BYTE		TIE     Fn3 
	BYTE	W96
	BYTE	W96
	BYTE		EOT
	BYTE		TIE     En3 
	BYTE	W96
	BYTE	W96
	BYTE		EOT
	BYTE		N96     Ds3 
	BYTE	W96
	BYTE		        Fn3 
	BYTE	W96
	BYTE	GoTo
	 POIN2	final_battle_vs_rayquaza_1 + 0x155
	BYTE	FINE

//*********************** Track 03 ***********************//

final_battle_vs_rayquaza_2:
	BYTE	KEYSH   final_battle_vs_rayquaza_key+0
	BYTE	W04
	BYTE		VOICE   45
	BYTE		VOL     68*final_battle_vs_rayquaza_mvl/mxv
	BYTE		PAN     c_v+20
	BYTE	W01
	BYTE		MOD     4
	BYTE		LFOS    20
	BYTE		MODT    mod_tre
	BYTE	W01
	BYTE		BENDR   2
	BYTE		LFODL   20
	BYTE	W17
	BYTE		VOL     0*final_battle_vs_rayquaza_mvl/mxv
	BYTE		BEND    c_v+0
	BYTE	W01
	BYTE		TIE     An2   v112
	BYTE	W07
	BYTE		VOL     1*final_battle_vs_rayquaza_mvl/mxv
	BYTE	W03
	BYTE		        2*final_battle_vs_rayquaza_mvl/mxv
	BYTE	W02
	BYTE	W01
	BYTE		        4*final_battle_vs_rayquaza_mvl/mxv
	BYTE	W03
	BYTE		        5*final_battle_vs_rayquaza_mvl/mxv
	BYTE	W03
	BYTE		        6*final_battle_vs_rayquaza_mvl/mxv
	BYTE	W03
	BYTE		        8*final_battle_vs_rayquaza_mvl/mxv
	BYTE	W03
	BYTE		        13*final_battle_vs_rayquaza_mvl/mxv
	BYTE	W03
	BYTE		        13*final_battle_vs_rayquaza_mvl/mxv
	BYTE	W03
	BYTE		        16*final_battle_vs_rayquaza_mvl/mxv
	BYTE	W03
	BYTE		        19*final_battle_vs_rayquaza_mvl/mxv
	BYTE	W03
	BYTE		        23*final_battle_vs_rayquaza_mvl/mxv
	BYTE	W03
	BYTE		        26*final_battle_vs_rayquaza_mvl/mxv
	BYTE	W03
	BYTE		        30*final_battle_vs_rayquaza_mvl/mxv
	BYTE	W03
	BYTE		        33*final_battle_vs_rayquaza_mvl/mxv
	BYTE	W03
	BYTE		        37*final_battle_vs_rayquaza_mvl/mxv
	BYTE	W03
	BYTE		        42*final_battle_vs_rayquaza_mvl/mxv
	BYTE	W03
	BYTE		        46*final_battle_vs_rayquaza_mvl/mxv
	BYTE	W03
	BYTE		        52*final_battle_vs_rayquaza_mvl/mxv
	BYTE	W03
	BYTE		        57*final_battle_vs_rayquaza_mvl/mxv
	BYTE	W03
	BYTE		        63*final_battle_vs_rayquaza_mvl/mxv
	BYTE	W03
	BYTE		        70*final_battle_vs_rayquaza_mvl/mxv
	BYTE	W03
	BYTE		        77*final_battle_vs_rayquaza_mvl/mxv
	BYTE	W03
	BYTE		        84*final_battle_vs_rayquaza_mvl/mxv
	BYTE	W03
	BYTE		        92*final_battle_vs_rayquaza_mvl/mxv
	BYTE	W03
	BYTE		        100*final_battle_vs_rayquaza_mvl/mxv
	BYTE	W03
	BYTE		        113*final_battle_vs_rayquaza_mvl/mxv
	BYTE	W03
	BYTE		        123*final_battle_vs_rayquaza_mvl/mxv
	BYTE	W03
	BYTE		        120*final_battle_vs_rayquaza_mvl/mxv
	BYTE	W03
	BYTE		        119*final_battle_vs_rayquaza_mvl/mxv
	BYTE	W03
	BYTE		        117*final_battle_vs_rayquaza_mvl/mxv
	BYTE	W03
	BYTE		        116*final_battle_vs_rayquaza_mvl/mxv
	BYTE	W03
	BYTE		        114*final_battle_vs_rayquaza_mvl/mxv
	BYTE	W03
	BYTE		        112*final_battle_vs_rayquaza_mvl/mxv
	BYTE	W05
	BYTE		        108*final_battle_vs_rayquaza_mvl/mxv
	BYTE	W03
	BYTE		        107*final_battle_vs_rayquaza_mvl/mxv
	BYTE	W02
	BYTE		        104*final_battle_vs_rayquaza_mvl/mxv
	BYTE	W03
	BYTE		        100*final_battle_vs_rayquaza_mvl/mxv
	BYTE	W02
	BYTE		        97*final_battle_vs_rayquaza_mvl/mxv
	BYTE	W03
	BYTE		        95*final_battle_vs_rayquaza_mvl/mxv
	BYTE		BEND    c_v-2
	BYTE	W02
	BYTE		VOL     92*final_battle_vs_rayquaza_mvl/mxv
	BYTE		BEND    c_v-5
	BYTE	W01
	BYTE		        c_v-5
	BYTE	W01
	BYTE		VOL     89*final_battle_vs_rayquaza_mvl/mxv
	BYTE	W01
	BYTE		BEND    c_v-6
	BYTE	W01
	BYTE		        c_v-6
	BYTE	W01
	BYTE		VOL     84*final_battle_vs_rayquaza_mvl/mxv
	BYTE	W01
	BYTE		BEND    c_v-7
	BYTE	W01
	BYTE		VOL     82*final_battle_vs_rayquaza_mvl/mxv
	BYTE		BEND    c_v-8
	BYTE	W02
	BYTE		        c_v-8
	BYTE	W01
	BYTE		VOL     75*final_battle_vs_rayquaza_mvl/mxv
	BYTE		BEND    c_v-9
	BYTE	W02
	BYTE		VOL     69*final_battle_vs_rayquaza_mvl/mxv
	BYTE	W01
	BYTE		BEND    c_v-10
	BYTE	W02
	BYTE		VOL     62*final_battle_vs_rayquaza_mvl/mxv
	BYTE		BEND    c_v-11
	BYTE	W02
	BYTE		VOL     60*final_battle_vs_rayquaza_mvl/mxv
	BYTE	W01
	BYTE		BEND    c_v-16
	BYTE	W01
	BYTE		VOL     55*final_battle_vs_rayquaza_mvl/mxv
	BYTE		BEND    c_v-17
	BYTE	W02
	BYTE		        c_v-19
	BYTE	W01
	BYTE		VOL     50*final_battle_vs_rayquaza_mvl/mxv
	BYTE		BEND    c_v-20
	BYTE	W02
	BYTE		VOL     44*final_battle_vs_rayquaza_mvl/mxv
	BYTE		BEND    c_v-22
	BYTE	W01
	BYTE		        c_v-23
	BYTE	W02
	BYTE		VOL     29*final_battle_vs_rayquaza_mvl/mxv
	BYTE		BEND    c_v-25
	BYTE	W01
	BYTE		        c_v-27
	BYTE	W01
	BYTE		VOL     16*final_battle_vs_rayquaza_mvl/mxv
	BYTE	W01
	BYTE		BEND    c_v-31
	BYTE	W01
	BYTE		        c_v-34
	BYTE	W02
	BYTE		        c_v-37
	BYTE	W01
	BYTE		        c_v-40
	BYTE	W02
	BYTE		        c_v-43
	BYTE	W03
	BYTE		EOT
	BYTE	W40
	BYTE	W01
	BYTE		VOICE   95
	BYTE		VOL     93*final_battle_vs_rayquaza_mvl/mxv
	BYTE		PAN     c_v+20
	BYTE		BEND    c_v+0
	BYTE	W01
	BYTE		TIE     Gn1   v096
	BYTE	W96
	BYTE	W96
	BYTE		EOT
	BYTE		TIE     As1 
	BYTE	W96
	BYTE	W96
	BYTE		EOT
	BYTE		TIE     Gn1 
	BYTE	W96
	BYTE	W96
	BYTE		EOT
	BYTE		N96
	BYTE	W96
	BYTE		        An1 
	BYTE	W96
	BYTE		TIE     Gn1 
	BYTE	W96
	BYTE	W96
	BYTE		EOT
	BYTE		TIE     As1 
	BYTE	W96
	BYTE	W96
	BYTE		EOT
	BYTE		TIE     Gn1 
	BYTE	W96
	BYTE	W96
	BYTE		EOT
	BYTE		N36     Gn1   v096
	BYTE	W36
	BYTE		N60
	BYTE	W60
	BYTE	PEND
	BYTE		N36     An1   v096
	BYTE	W36
	BYTE		N36
	BYTE	W56
	BYTE	W03
	BYTE		PAN     c_v+0
	BYTE	W01
	BYTE	PEND
	BYTE		N72     Gn1   v088
	BYTE	W84
	BYTE		TIE     As1 
	BYTE	W12
	BYTE	PEND
	BYTE	W96
	BYTE		EOT
	BYTE		N72     Gn1   v088
	BYTE	W84
	BYTE		N36
	BYTE	W12
	BYTE	PEND
	BYTE	W36
	BYTE		N60     An1 
	BYTE	W60
	BYTE	PATT
	 POIN2	final_battle_vs_rayquaza_2 + 0x10C
	BYTE	W96
	BYTE		EOT     As1 
	BYTE	PATT
	 POIN2	final_battle_vs_rayquaza_2 + 0x116
	BYTE	W36
	BYTE		N36     An1   v088
	BYTE	W56
	BYTE	W03
	BYTE		VOICE   115
	BYTE		VOL     78*final_battle_vs_rayquaza_mvl/mxv
	BYTE		PAN     c_v+30
	BYTE		BEND    c_v+0
	BYTE	W01
	BYTE	PEND
	BYTE		TIE     Bn2   v120
	BYTE	W96
	BYTE	W96
	BYTE		EOT
	BYTE		TIE     Dn3 
	BYTE	W96
	BYTE	W96
	BYTE		EOT
	BYTE		TIE     Cn3 
	BYTE	W96
	BYTE	W96
	BYTE	W96
	BYTE		EOT
	BYTE		N96     Dn3 
	BYTE	W96
	BYTE		TIE     Bn2   v120
	BYTE	W96
	BYTE	W96
	BYTE		EOT
	BYTE		TIE     Dn3 
	BYTE	W96
	BYTE	W96
	BYTE		EOT
	BYTE		TIE     Cn3 
	BYTE	W96
	BYTE	W96
	BYTE	W96
	BYTE		EOT
	BYTE		N96     Dn3 
	BYTE	W92
	BYTE	W03
	BYTE		VOICE   95
	BYTE		VOL     78*final_battle_vs_rayquaza_mvl/mxv
	BYTE		PAN     c_v+30
	BYTE		BEND    c_v+0
	BYTE	W01
	BYTE		TIE     Gn1   v092
	BYTE	W96
	BYTE	W96
	BYTE		EOT
	BYTE		TIE     As1 
	BYTE	W96
	BYTE	W96
	BYTE		EOT
	BYTE		TIE     Gn1 
	BYTE	W96
	BYTE	W96
	BYTE		EOT
	BYTE		N96
	BYTE	W96
	BYTE		N72     An1 
	BYTE	W96
	BYTE		TIE     Gn1 
	BYTE	W96
	BYTE	W96
	BYTE		EOT
	BYTE		TIE     As1 
	BYTE	W96
	BYTE	W96
	BYTE		EOT
	BYTE		TIE     Gn1 
	BYTE	W96
	BYTE	W96
	BYTE		EOT
	BYTE		N96
	BYTE	W96
	BYTE		N72     An1 
	BYTE	W96
	BYTE		TIE     Gn1   v096
	BYTE	W96
	BYTE	W96
	BYTE		EOT
	BYTE		TIE     As1 
	BYTE	W96
	BYTE	W96
	BYTE		EOT
	BYTE		TIE     Gn1 
	BYTE	W96
	BYTE	W96
	BYTE		EOT
	BYTE		N96
	BYTE	W96
	BYTE		N72     An1 
	BYTE	W96
	BYTE		TIE     Gn1 
	BYTE	W96
	BYTE	W96
	BYTE		EOT
	BYTE		TIE     As1 
	BYTE	W96
	BYTE	W96
	BYTE		EOT
	BYTE		TIE     Gn1 
	BYTE	W96
	BYTE	W96
	BYTE		EOT
	BYTE	PATT
	 POIN2	final_battle_vs_rayquaza_2 + 0xFA
	BYTE	PATT
	 POIN2	final_battle_vs_rayquaza_2 + 0x101
	BYTE	PATT
	 POIN2	final_battle_vs_rayquaza_2 + 0x10C
	BYTE	W96
	BYTE		EOT     As1 
	BYTE	PATT
	 POIN2	final_battle_vs_rayquaza_2 + 0x116
	BYTE	W36
	BYTE		N60     An1   v088
	BYTE	W60
	BYTE	PATT
	 POIN2	final_battle_vs_rayquaza_2 + 0x10C
	BYTE	W96
	BYTE		EOT     As1 
	BYTE	PATT
	 POIN2	final_battle_vs_rayquaza_2 + 0x116
	BYTE	PATT
	 POIN2	final_battle_vs_rayquaza_2 + 0x12E
	BYTE		TIE     Bn2   v120
	BYTE	W96
	BYTE	W96
	BYTE		EOT
	BYTE		TIE     Dn3 
	BYTE	W96
	BYTE	W96
	BYTE		EOT
	BYTE		TIE     Cn3 
	BYTE	W96
	BYTE	W96
	BYTE	W96
	BYTE		EOT
	BYTE		N96     Dn3 
	BYTE	W96
	BYTE	GoTo
	 POIN2	final_battle_vs_rayquaza_2 + 0x152
	BYTE	FINE

//*********************** Track 04 ***********************//

final_battle_vs_rayquaza_3:
	BYTE	KEYSH   final_battle_vs_rayquaza_key+0
	BYTE	W07
	BYTE		VOICE   45
	BYTE		VOL     68*final_battle_vs_rayquaza_mvl/mxv
	BYTE		PAN     c_v+0
	BYTE	W01
	BYTE		MOD     4
	BYTE		LFOS    20
	BYTE		MODT    mod_tre
	BYTE	W01
	BYTE		BENDR   2
	BYTE		LFODL   20
	BYTE	W14
	BYTE		VOL     0*final_battle_vs_rayquaza_mvl/mxv
	BYTE		BEND    c_v+0
	BYTE	W01
	BYTE		TIE     En2   v112
	BYTE	W07
	BYTE		VOL     1*final_battle_vs_rayquaza_mvl/mxv
	BYTE	W03
	BYTE		        2*final_battle_vs_rayquaza_mvl/mxv
	BYTE	W02
	BYTE	W01
	BYTE		        4*final_battle_vs_rayquaza_mvl/mxv
	BYTE	W03
	BYTE		        5*final_battle_vs_rayquaza_mvl/mxv
	BYTE	W03
	BYTE		        6*final_battle_vs_rayquaza_mvl/mxv
	BYTE	W03
	BYTE		        8*final_battle_vs_rayquaza_mvl/mxv
	BYTE	W03
	BYTE		        13*final_battle_vs_rayquaza_mvl/mxv
	BYTE	W03
	BYTE		        13*final_battle_vs_rayquaza_mvl/mxv
	BYTE	W03
	BYTE		        16*final_battle_vs_rayquaza_mvl/mxv
	BYTE	W03
	BYTE		        19*final_battle_vs_rayquaza_mvl/mxv
	BYTE	W03
	BYTE		        23*final_battle_vs_rayquaza_mvl/mxv
	BYTE	W03
	BYTE		        26*final_battle_vs_rayquaza_mvl/mxv
	BYTE	W03
	BYTE		        30*final_battle_vs_rayquaza_mvl/mxv
	BYTE	W03
	BYTE		        33*final_battle_vs_rayquaza_mvl/mxv
	BYTE	W03
	BYTE		        37*final_battle_vs_rayquaza_mvl/mxv
	BYTE	W03
	BYTE		        42*final_battle_vs_rayquaza_mvl/mxv
	BYTE	W03
	BYTE		        46*final_battle_vs_rayquaza_mvl/mxv
	BYTE	W03
	BYTE		        52*final_battle_vs_rayquaza_mvl/mxv
	BYTE	W03
	BYTE		        57*final_battle_vs_rayquaza_mvl/mxv
	BYTE	W03
	BYTE		        63*final_battle_vs_rayquaza_mvl/mxv
	BYTE	W03
	BYTE		        70*final_battle_vs_rayquaza_mvl/mxv
	BYTE	W03
	BYTE		        77*final_battle_vs_rayquaza_mvl/mxv
	BYTE	W03
	BYTE		        84*final_battle_vs_rayquaza_mvl/mxv
	BYTE	W03
	BYTE		        92*final_battle_vs_rayquaza_mvl/mxv
	BYTE	W03
	BYTE		        100*final_battle_vs_rayquaza_mvl/mxv
	BYTE	W03
	BYTE		        113*final_battle_vs_rayquaza_mvl/mxv
	BYTE	W03
	BYTE		        123*final_battle_vs_rayquaza_mvl/mxv
	BYTE	W03
	BYTE		        120*final_battle_vs_rayquaza_mvl/mxv
	BYTE	W03
	BYTE		        119*final_battle_vs_rayquaza_mvl/mxv
	BYTE	W03
	BYTE		        117*final_battle_vs_rayquaza_mvl/mxv
	BYTE	W03
	BYTE		        116*final_battle_vs_rayquaza_mvl/mxv
	BYTE	W03
	BYTE		        114*final_battle_vs_rayquaza_mvl/mxv
	BYTE	W03
	BYTE		        112*final_battle_vs_rayquaza_mvl/mxv
	BYTE	W05
	BYTE		        108*final_battle_vs_rayquaza_mvl/mxv
	BYTE	W03
	BYTE		        107*final_battle_vs_rayquaza_mvl/mxv
	BYTE	W02
	BYTE		        104*final_battle_vs_rayquaza_mvl/mxv
	BYTE	W03
	BYTE		        100*final_battle_vs_rayquaza_mvl/mxv
	BYTE	W02
	BYTE		        97*final_battle_vs_rayquaza_mvl/mxv
	BYTE	W03
	BYTE		        95*final_battle_vs_rayquaza_mvl/mxv
	BYTE		BEND    c_v-2
	BYTE	W02
	BYTE		VOL     92*final_battle_vs_rayquaza_mvl/mxv
	BYTE		BEND    c_v-5
	BYTE	W01
	BYTE		        c_v-5
	BYTE	W01
	BYTE		VOL     89*final_battle_vs_rayquaza_mvl/mxv
	BYTE	W01
	BYTE		BEND    c_v-6
	BYTE	W01
	BYTE		        c_v-6
	BYTE	W01
	BYTE		VOL     84*final_battle_vs_rayquaza_mvl/mxv
	BYTE	W01
	BYTE		BEND    c_v-7
	BYTE	W01
	BYTE		VOL     82*final_battle_vs_rayquaza_mvl/mxv
	BYTE		BEND    c_v-8
	BYTE	W02
	BYTE		        c_v-8
	BYTE	W01
	BYTE		VOL     75*final_battle_vs_rayquaza_mvl/mxv
	BYTE		BEND    c_v-9
	BYTE	W02
	BYTE		VOL     69*final_battle_vs_rayquaza_mvl/mxv
	BYTE	W01
	BYTE		BEND    c_v-10
	BYTE	W02
	BYTE		VOL     62*final_battle_vs_rayquaza_mvl/mxv
	BYTE		BEND    c_v-11
	BYTE	W02
	BYTE		VOL     60*final_battle_vs_rayquaza_mvl/mxv
	BYTE	W01
	BYTE		BEND    c_v-16
	BYTE	W01
	BYTE		VOL     55*final_battle_vs_rayquaza_mvl/mxv
	BYTE		BEND    c_v-17
	BYTE	W02
	BYTE		        c_v-19
	BYTE	W01
	BYTE		VOL     50*final_battle_vs_rayquaza_mvl/mxv
	BYTE		BEND    c_v-20
	BYTE	W02
	BYTE		VOL     44*final_battle_vs_rayquaza_mvl/mxv
	BYTE		BEND    c_v-22
	BYTE	W01
	BYTE		        c_v-23
	BYTE	W02
	BYTE		VOL     29*final_battle_vs_rayquaza_mvl/mxv
	BYTE		BEND    c_v-25
	BYTE	W01
	BYTE		        c_v-27
	BYTE	W01
	BYTE		VOL     16*final_battle_vs_rayquaza_mvl/mxv
	BYTE	W01
	BYTE		BEND    c_v-31
	BYTE	W01
	BYTE		        c_v-34
	BYTE	W02
	BYTE		        c_v-37
	BYTE	W01
	BYTE		        c_v-40
	BYTE	W02
	BYTE		        c_v-43
	BYTE	W03
	BYTE		EOT
	BYTE	W32
	BYTE	W03
	BYTE		VOL     83*final_battle_vs_rayquaza_mvl/mxv
	BYTE		MODT    mod_pan
	BYTE		LFODL   0
	BYTE		BEND    c_v+0
	BYTE	W06
	BYTE		VOICE   7
	BYTE		MOD     0
	BYTE		LFOS    30
	BYTE	W01
	BYTE		N05     Gn2   v112
	BYTE	W06
	BYTE		        Gn2   v032
	BYTE	W06
	BYTE		        Gn2   v072
	BYTE	W06
	BYTE		        Gn2   v032
	BYTE	W18
	BYTE		        Dn3   v112
	BYTE	W06
	BYTE		N30     Dn3   v072
	BYTE	W30
	BYTE		N24     Fn2   v080
	BYTE	W24
	BYTE	PEND
	BYTE		N05     Gn2   v112
	BYTE	W06
	BYTE		        Gn2   v032
	BYTE	W06
	BYTE		        Gn2   v072
	BYTE	W06
	BYTE		        Gn2   v032
	BYTE	W18
	BYTE		        Dn3   v112
	BYTE	W06
	BYTE		N30     Dn3   v072
	BYTE	W30
	BYTE		N24     Cn3   v080
	BYTE	W24
	BYTE	PEND
	BYTE		N05     Dn3   v112
	BYTE	W06
	BYTE		        Dn3   v032
	BYTE	W06
	BYTE		        Dn3   v072
	BYTE	W06
	BYTE		        Dn3   v032
	BYTE	W18
	BYTE		        Gn3   v112
	BYTE	W06
	BYTE		        Gn3   v032
	BYTE	W06
	BYTE		        Gn3   v072
	BYTE	W06
	BYTE		        Gn3   v032
	BYTE	W18
	BYTE		        As3   v112
	BYTE	W06
	BYTE		N18     As3   v080
	BYTE	W18
	BYTE	PEND
	BYTE		N05     An3   v112
	BYTE	W06
	BYTE		        An3   v032
	BYTE	W06
	BYTE		        An3   v072
	BYTE	W06
	BYTE		        An3   v032
	BYTE	W18
	BYTE		        Fn3   v112
	BYTE	W06
	BYTE		        Fn3   v032
	BYTE	W06
	BYTE		        Fn3   v072
	BYTE	W06
	BYTE		        Fn3   v032
	BYTE	W18
	BYTE		        Cn3   v112
	BYTE	W06
	BYTE		N18     Cn3   v080
	BYTE	W17
	BYTE		VOICE   102
	BYTE		MOD     75
	BYTE		VOL     59*final_battle_vs_rayquaza_mvl/mxv
	BYTE		BEND    c_v+0
	BYTE	W01
	BYTE	PEND
	BYTE		N36     Dn2   v068
	BYTE	W01
	BYTE		VOL     44*final_battle_vs_rayquaza_mvl/mxv
	BYTE	W02
	BYTE		        69*final_battle_vs_rayquaza_mvl/mxv
	BYTE	W02
	BYTE		        91*final_battle_vs_rayquaza_mvl/mxv
	BYTE	W02
	BYTE		        102*final_battle_vs_rayquaza_mvl/mxv
	BYTE	W28
	BYTE	W01
	BYTE		N36     Gn2   v080
	BYTE	W36
	BYTE		N24     As2   v108
	BYTE	W24
	BYTE	PEND
	BYTE		N36     An2   v076
	BYTE	W36
	BYTE		        Fn2 
	BYTE	W36
	BYTE		N24     Cn2   v060
	BYTE	W05
	BYTE		VOL     100*final_battle_vs_rayquaza_mvl/mxv
	BYTE	W05
	BYTE		        89*final_battle_vs_rayquaza_mvl/mxv
	BYTE	W02
	BYTE		        81*final_battle_vs_rayquaza_mvl/mxv
	BYTE	W02
	BYTE		        72*final_battle_vs_rayquaza_mvl/mxv
	BYTE	W02
	BYTE		        64*final_battle_vs_rayquaza_mvl/mxv
	BYTE	W02
	BYTE		        57*final_battle_vs_rayquaza_mvl/mxv
	BYTE	W02
	BYTE		        46*final_battle_vs_rayquaza_mvl/mxv
	BYTE	W02
	BYTE		        26*final_battle_vs_rayquaza_mvl/mxv
	BYTE	W02
	BYTE	PEND
	BYTE	W96
	BYTE	W92
	BYTE	W03
	BYTE		VOICE   7
	BYTE		MOD     0
	BYTE		VOL     83*final_battle_vs_rayquaza_mvl/mxv
	BYTE		BEND    c_v+0
	BYTE	W01
	BYTE	PEND
	BYTE	PATT
	 POIN2	final_battle_vs_rayquaza_3 + 0xDE
	BYTE	PATT
	 POIN2	final_battle_vs_rayquaza_3 + 0xF7
	BYTE	PATT
	 POIN2	final_battle_vs_rayquaza_3 + 0x110
	BYTE	PATT
	 POIN2	final_battle_vs_rayquaza_3 + 0x131
	BYTE	PATT
	 POIN2	final_battle_vs_rayquaza_3 + 0x15B
	BYTE	PATT
	 POIN2	final_battle_vs_rayquaza_3 + 0x172
	BYTE	W96
	BYTE	W96
	BYTE	W96
	BYTE	W96
	BYTE	W96
	BYTE	W96
	BYTE	W96
	BYTE	W96
	BYTE	W96
	BYTE	W92
	BYTE	W03
	BYTE		VOICE   119
	BYTE		MOD     20
	BYTE		VOL     73*final_battle_vs_rayquaza_mvl/mxv
	BYTE		BEND    c_v+0
	BYTE	W01
	BYTE	PEND
	BYTE		TIE     En2   v116
	BYTE	W96
	BYTE	W96
	BYTE		EOT
	BYTE		TIE     Gn2 
	BYTE	W96
	BYTE	W96
	BYTE	W96
	BYTE	W96
	BYTE		EOT
	BYTE	W96
	BYTE	W96
	BYTE		TIE     En2   v116
	BYTE	W96
	BYTE	W96
	BYTE		EOT
	BYTE		TIE     Gn2 
	BYTE	W96
	BYTE	W96
	BYTE	W96
	BYTE	W96
	BYTE		EOT
	BYTE	W96
	BYTE	W92
	BYTE	W03
	BYTE		VOICE   119
	BYTE		VOL     63*final_battle_vs_rayquaza_mvl/mxv
	BYTE		BEND    c_v+0
	BYTE	W01
	BYTE	W96
	BYTE	W96
	BYTE	W96
	BYTE	W96
	BYTE	W96
	BYTE	W96
	BYTE	W96
	BYTE	W96
	BYTE	W96
	BYTE	W96
	BYTE	W96
	BYTE	W96
	BYTE	W96
	BYTE	W96
	BYTE	W96
	BYTE	W96
	BYTE	W78
	BYTE		MOD     70
	BYTE		LFOS    30
	BYTE		MODT    mod_pan
	BYTE	W01
	BYTE		LFODL   0
	BYTE	W17
	BYTE	W05
	BYTE		VOICE   102
	BYTE		VOL     59*final_battle_vs_rayquaza_mvl/mxv
	BYTE		BEND    c_v+0
	BYTE	W90
	BYTE	W01
	BYTE	W96
	BYTE	W92
	BYTE	W03
	BYTE		VOL     29*final_battle_vs_rayquaza_mvl/mxv
	BYTE	W01
	BYTE	PATT
	 POIN2	final_battle_vs_rayquaza_3 + 0x15B
	BYTE		N36     An2   v076
	BYTE	W36
	BYTE		        Fn2 
	BYTE	W36
	BYTE		N24     Cn2   v060
	BYTE	W05
	BYTE		VOL     100*final_battle_vs_rayquaza_mvl/mxv
	BYTE	W05
	BYTE		        89*final_battle_vs_rayquaza_mvl/mxv
	BYTE	W02
	BYTE		        81*final_battle_vs_rayquaza_mvl/mxv
	BYTE	W02
	BYTE		        72*final_battle_vs_rayquaza_mvl/mxv
	BYTE	W02
	BYTE		        64*final_battle_vs_rayquaza_mvl/mxv
	BYTE	W02
	BYTE		        57*final_battle_vs_rayquaza_mvl/mxv
	BYTE	W02
	BYTE		        46*final_battle_vs_rayquaza_mvl/mxv
	BYTE	W02
	BYTE		        26*final_battle_vs_rayquaza_mvl/mxv
	BYTE	W01
	BYTE		        78*final_battle_vs_rayquaza_mvl/mxv
	BYTE	W01
	BYTE		N11     Gn3   v080
	BYTE	W12
	BYTE		N05     Fn3 
	BYTE	W06
	BYTE		        Dn3 
	BYTE	W06
	BYTE		N03     Dn2 
	BYTE	W06
	BYTE		N05     Cn3 
	BYTE	W06
	BYTE		N03     Dn2 
	BYTE	W06
	BYTE		N05     Dn3 
	BYTE	W06
	BYTE		N03     Dn2 
	BYTE	W06
	BYTE		N05     Gn2 
	BYTE	W06
	BYTE		        Dn2 
	BYTE	W06
	BYTE		        As2 
	BYTE	W06
	BYTE		N03     Dn2 
	BYTE	W06
	BYTE		N05     Cn2 
	BYTE	W06
	BYTE		N11     Dn2 
	BYTE	W12
	BYTE	PATT
	 POIN2	final_battle_vs_rayquaza_3 + 0x18F
	BYTE	PATT
	 POIN2	final_battle_vs_rayquaza_3 + 0xDE
	BYTE	PATT
	 POIN2	final_battle_vs_rayquaza_3 + 0xF7
	BYTE	PATT
	 POIN2	final_battle_vs_rayquaza_3 + 0x110
	BYTE	PATT
	 POIN2	final_battle_vs_rayquaza_3 + 0x131
	BYTE	PATT
	 POIN2	final_battle_vs_rayquaza_3 + 0x15B
	BYTE	PATT
	 POIN2	final_battle_vs_rayquaza_3 + 0x172
	BYTE	W96
	BYTE	W96
	BYTE	W96
	BYTE	W96
	BYTE	W96
	BYTE	W96
	BYTE	W96
	BYTE	W96
	BYTE	W96
	BYTE	PATT
	 POIN2	final_battle_vs_rayquaza_3 + 0x1C2
	BYTE		TIE     En2   v116
	BYTE	W96
	BYTE	W96
	BYTE		EOT
	BYTE		TIE     Gn2 
	BYTE	W96
	BYTE	W96
	BYTE	W96
	BYTE	W96
	BYTE		EOT
	BYTE	W96
	BYTE	W96
	BYTE	GoTo
	 POIN2	final_battle_vs_rayquaza_3 + 0x1DD
	BYTE	FINE

//*********************** Track 05 ***********************//

final_battle_vs_rayquaza_4:
	BYTE	KEYSH   final_battle_vs_rayquaza_key+0
	BYTE	W10
	BYTE		VOICE   52
	BYTE		VOL     98*final_battle_vs_rayquaza_mvl/mxv
	BYTE		PAN     c_v+0
	BYTE	W01
	BYTE		MOD     5
	BYTE		LFOS    13
	BYTE		MODT    mod_tre
	BYTE	W24
	BYTE	W01
	BYTE	W96
	BYTE	W96
	BYTE		N96     Bn2   v060
	BYTE	W96
	BYTE		N96
	BYTE	W96
	BYTE		        Dn3 
	BYTE	W96
	BYTE		N96
	BYTE	W96
	BYTE		        Cn3 
	BYTE	W96
	BYTE		N96
	BYTE	W96
	BYTE		N36     As2 
	BYTE	W36
	BYTE		N60
	BYTE	W60
	BYTE		N36     Cn3 
	BYTE	W36
	BYTE		N60
	BYTE	W60
	BYTE		N96     Bn2   v068
	BYTE	W96
	BYTE		N96
	BYTE	W96
	BYTE		        Dn3 
	BYTE	W96
	BYTE		N96
	BYTE	W96
	BYTE		        Cn3 
	BYTE	W96
	BYTE		N96
	BYTE	W96
	BYTE		N36     As2 
	BYTE	W36
	BYTE		N24
	BYTE	W24
	BYTE		N36
	BYTE	W36
	BYTE		N12     Cn3 
	BYTE	W12
	BYTE		N24
	BYTE	W24
	BYTE		N24
	BYTE	W24
	BYTE		N12
	BYTE	W32
	BYTE	W03
	BYTE		MOD     0
	BYTE	W01
	BYTE		N72     Bn2   v080
	BYTE	W96
	BYTE		N96     Dn3 
	BYTE	W96
	BYTE		N72     Cn3   v080
	BYTE	W84
	BYTE		N36     As2 
	BYTE	W12
	BYTE	PEND
	BYTE	W36
	BYTE		N60     Cn3 
	BYTE	W60
	BYTE		N72     Bn2 
	BYTE	W96
	BYTE		N96     Dn3 
	BYTE	W96
	BYTE		N72     Cn3 
	BYTE	W96
	BYTE	W92
	BYTE	W03
	BYTE		VOICE   53
	BYTE		MOD     24
	BYTE	W01
	BYTE	PEND
	BYTE		TIE     Gn2   v092
	BYTE	W96
	BYTE	W96
	BYTE		EOT
	BYTE		TIE     As2 
	BYTE	W96
	BYTE	W96
	BYTE		EOT
	BYTE		TIE     An2 
	BYTE	W96
	BYTE	W96
	BYTE		EOT
	BYTE		N96     As2 
	BYTE	W96
	BYTE		        Cn3 
	BYTE	W92
	BYTE	W03
	BYTE		MOD     24
	BYTE	W01
	BYTE		TIE     Gn2   v092
	BYTE	W96
	BYTE	W96
	BYTE		EOT
	BYTE		TIE     As2 
	BYTE	W96
	BYTE	W96
	BYTE		EOT
	BYTE		TIE     An2 
	BYTE	W96
	BYTE	W96
	BYTE		EOT
	BYTE		N96     As2 
	BYTE	W96
	BYTE		        Cn3 
	BYTE	W92
	BYTE	W03
	BYTE		VOICE   52
	BYTE	W01
	BYTE		TIE     Bn2   v052
	BYTE	W96
	BYTE	W96
	BYTE		EOT
	BYTE		TIE     Dn3 
	BYTE	W96
	BYTE	W96
	BYTE		EOT
	BYTE		TIE     Cn3 
	BYTE	W96
	BYTE	W96
	BYTE		EOT
	BYTE		N96     As2 
	BYTE	W96
	BYTE		N72     Cn3 
	BYTE	W96
	BYTE		TIE     Bn2 
	BYTE	W96
	BYTE	W96
	BYTE		EOT
	BYTE		TIE     Dn3 
	BYTE	W96
	BYTE	W96
	BYTE		EOT
	BYTE		TIE     Cn3 
	BYTE	W96
	BYTE	W96
	BYTE		EOT
	BYTE		N96     As2 
	BYTE	W96
	BYTE		        Cn3 
	BYTE	W92
	BYTE	W03
	BYTE		VOICE   52
	BYTE	W01
	BYTE		TIE     Bn2   v060
	BYTE	W96
	BYTE	W96
	BYTE		EOT
	BYTE		TIE     Dn3 
	BYTE	W96
	BYTE	W96
	BYTE		EOT
	BYTE		TIE     Cn3 
	BYTE	W96
	BYTE	W96
	BYTE		EOT
	BYTE		N96     As2 
	BYTE	W96
	BYTE		N72     Cn3 
	BYTE	W96
	BYTE		N96     Bn2 
	BYTE	W96
	BYTE		N96
	BYTE	W96
	BYTE		        Dn3 
	BYTE	W96
	BYTE		N96
	BYTE	W96
	BYTE		        Cn3 
	BYTE	W96
	BYTE		N96
	BYTE	W96
	BYTE		N36     As2 
	BYTE	W36
	BYTE		N24
	BYTE	W24
	BYTE		N36
	BYTE	W36
	BYTE		N12     Cn3 
	BYTE	W12
	BYTE		N24
	BYTE	W24
	BYTE		N24
	BYTE	W24
	BYTE		N12
	BYTE	W32
	BYTE	W03
	BYTE		MOD     0
	BYTE	W01
	BYTE		N72     Bn2   v080
	BYTE	W96
	BYTE		N96     Dn3 
	BYTE	W96
	BYTE	PATT
	 POIN2	final_battle_vs_rayquaza_4 + 0x55
	BYTE	W36
	BYTE		N60     Cn3   v080
	BYTE	W60
	BYTE		N72     Bn2 
	BYTE	W96
	BYTE		N96     Dn3 
	BYTE	W96
	BYTE		N72     Cn3 
	BYTE	W96
	BYTE	PATT
	 POIN2	final_battle_vs_rayquaza_4 + 0x6A
	BYTE		TIE     Gn2   v092
	BYTE	W96
	BYTE	W96
	BYTE		EOT
	BYTE		TIE     As2 
	BYTE	W96
	BYTE	W96
	BYTE		EOT
	BYTE		TIE     An2 
	BYTE	W96
	BYTE	W96
	BYTE		EOT
	BYTE		N96     As2 
	BYTE	W96
	BYTE		        Cn3 
	BYTE	W96
	BYTE	GoTo
	 POIN2	final_battle_vs_rayquaza_4 + 0x8B
	BYTE	FINE

//*********************** Track 06 ***********************//

final_battle_vs_rayquaza_5:
	BYTE	KEYSH   final_battle_vs_rayquaza_key+0
	BYTE	W12
	BYTE		VOICE   53
	BYTE		VOL     125*final_battle_vs_rayquaza_mvl/mxv
	BYTE		PAN     c_v+0
	BYTE	W01
	BYTE		MOD     0
	BYTE		MODT    mod_pan
	BYTE	W23
	BYTE	W96
	BYTE	W96
	BYTE	W92
	BYTE	W03
	BYTE		PAN     c_v+0
	BYTE	W01
	BYTE	PEND
	BYTE	W52
	BYTE	W01
	BYTE		PAN     c_v+0
	BYTE	W01
	BYTE		N02     Dn2   v112
	BYTE	W03
	BYTE		N03     Dn2   v068
	BYTE	W02
	BYTE		PAN     c_v+30
	BYTE	W01
	BYTE		N02     An2   v112
	BYTE	W03
	BYTE		N03     An2   v068
	BYTE	W02
	BYTE		PAN     c_v-30
	BYTE	W01
	BYTE		N02     Dn3   v112
	BYTE	W03
	BYTE		N03     Dn3   v068
	BYTE	W02
	BYTE		PAN     c_v+30
	BYTE	W01
	BYTE		N02     An3   v112
	BYTE	W03
	BYTE		N03     An3   v040
	BYTE	W02
	BYTE		PAN     c_v-30
	BYTE	W01
	BYTE		N02     Dn4   v112
	BYTE	W03
	BYTE		N03     Dn4   v040
	BYTE	W02
	BYTE		PAN     c_v+30
	BYTE	W01
	BYTE		N02     An4   v112
	BYTE	W03
	BYTE		N03     An4   v040
	BYTE	W02
	BYTE		PAN     c_v-30
	BYTE	W01
	BYTE		N02     Dn5   v112
	BYTE	W03
	BYTE		N03     Dn5   v040
	BYTE	W03
	BYTE	PEND
	BYTE	PATT
	 POIN2	final_battle_vs_rayquaza_5 + 0x11
	BYTE	PATT
	 POIN2	final_battle_vs_rayquaza_5 + 0x17
	BYTE	PATT
	 POIN2	final_battle_vs_rayquaza_5 + 0x11
	BYTE	PATT
	 POIN2	final_battle_vs_rayquaza_5 + 0x17
	BYTE	PATT
	 POIN2	final_battle_vs_rayquaza_5 + 0x11
	BYTE	PATT
	 POIN2	final_battle_vs_rayquaza_5 + 0x17
	BYTE	PATT
	 POIN2	final_battle_vs_rayquaza_5 + 0x11
	BYTE	PATT
	 POIN2	final_battle_vs_rayquaza_5 + 0x17
	BYTE	PATT
	 POIN2	final_battle_vs_rayquaza_5 + 0x11
	BYTE	PATT
	 POIN2	final_battle_vs_rayquaza_5 + 0x17
	BYTE	PATT
	 POIN2	final_battle_vs_rayquaza_5 + 0x11
	BYTE	PATT
	 POIN2	final_battle_vs_rayquaza_5 + 0x17
	BYTE	PATT
	 POIN2	final_battle_vs_rayquaza_5 + 0x11
	BYTE	W52
	BYTE	W01
	BYTE		PAN     c_v+0
	BYTE	W01
	BYTE		N02     Dn2   v112
	BYTE	W03
	BYTE		N03     Dn2   v068
	BYTE	W02
	BYTE		PAN     c_v+30
	BYTE	W01
	BYTE		N02     An2   v112
	BYTE	W03
	BYTE		N03     An2   v068
	BYTE	W02
	BYTE		PAN     c_v-30
	BYTE	W01
	BYTE		N02     Dn3   v112
	BYTE	W03
	BYTE		N03     Dn3   v068
	BYTE	W02
	BYTE		PAN     c_v+30
	BYTE	W01
	BYTE		N02     An3   v112
	BYTE	W03
	BYTE		N03     An3   v040
	BYTE	W02
	BYTE		PAN     c_v-30
	BYTE	W06
	BYTE		        c_v+30
	BYTE	W06
	BYTE		        c_v-30
	BYTE	W07
	BYTE	PEND
	BYTE	PATT
	 POIN2	final_battle_vs_rayquaza_5 + 0x11
	BYTE	PATT
	 POIN2	final_battle_vs_rayquaza_5 + 0x17
	BYTE	PATT
	 POIN2	final_battle_vs_rayquaza_5 + 0x11
	BYTE	PATT
	 POIN2	final_battle_vs_rayquaza_5 + 0x17
	BYTE	PATT
	 POIN2	final_battle_vs_rayquaza_5 + 0x11
	BYTE	PATT
	 POIN2	final_battle_vs_rayquaza_5 + 0x17
	BYTE	W96
	BYTE	W28
	BYTE	W01
	BYTE		PAN     c_v+0
	BYTE	W01
	BYTE		N02     Dn2   v112
	BYTE	W03
	BYTE		N03     Dn2   v068
	BYTE	W02
	BYTE		PAN     c_v+30
	BYTE	W01
	BYTE		N02     An2   v112
	BYTE	W03
	BYTE		N03     An2   v068
	BYTE	W02
	BYTE		PAN     c_v-30
	BYTE	W01
	BYTE		N02     Dn3   v112
	BYTE	W03
	BYTE		N03     Dn3   v068
	BYTE	W02
	BYTE		PAN     c_v+30
	BYTE	W01
	BYTE		N02     An3   v112
	BYTE	W03
	BYTE		N03     An3   v040
	BYTE	W02
	BYTE		PAN     c_v-30
	BYTE	W01
	BYTE		N02     Dn4   v112
	BYTE	W03
	BYTE		N03     Dn4   v040
	BYTE	W02
	BYTE		PAN     c_v+30
	BYTE	W01
	BYTE		N02     An4   v112
	BYTE	W03
	BYTE		N03     An4   v040
	BYTE	W02
	BYTE		PAN     c_v-30
	BYTE	W01
	BYTE		N02     Dn5   v112
	BYTE	W03
	BYTE		N03     Dn5   v040
	BYTE	W24
	BYTE	W02
	BYTE		VOICE   52
	BYTE		MOD     50
	BYTE		PAN     c_v+0
	BYTE	W01
	BYTE	PEND
	BYTE		N06     Dn4   v068
	BYTE	W06
	BYTE		N02     Dn3   v020
	BYTE	W06
	BYTE		        Gn3   v068
	BYTE	W06
	BYTE		        Dn3   v036
	BYTE	W06
	BYTE		        An3   v068
	BYTE	W06
	BYTE		N06     Dn4 
	BYTE	W06
	BYTE		N02     An3   v020
	BYTE	W06
	BYTE		N06     Dn4   v068
	BYTE	W06
	BYTE		N02     Dn3   v020
	BYTE	W06
	BYTE		N06     Cs4   v068
	BYTE	W06
	BYTE		N02     An3 
	BYTE	W06
	BYTE		        Dn3   v020
	BYTE	W06
	BYTE		N12     Dn4   v068
	BYTE	W12
	BYTE		N02     Cn3 
	BYTE	W06
	BYTE		        Dn3   v020
	BYTE	W06
	BYTE	PEND
	BYTE		N06     Dn4   v068
	BYTE	W06
	BYTE		N02     Dn3   v020
	BYTE	W06
	BYTE		        Gn3   v068
	BYTE	W06
	BYTE		        Dn3   v036
	BYTE	W06
	BYTE		        An3   v068
	BYTE	W06
	BYTE		N06     Dn4 
	BYTE	W06
	BYTE		N02     An3   v020
	BYTE	W06
	BYTE		N06     Dn4   v068
	BYTE	W06
	BYTE		N02     Dn3   v020
	BYTE	W06
	BYTE		N06     Cs4   v068
	BYTE	W06
	BYTE		N02     An3 
	BYTE	W06
	BYTE		        Dn3   v020
	BYTE	W06
	BYTE		N12     Dn4   v068
	BYTE	W12
	BYTE		N02     Gn3 
	BYTE	W06
	BYTE		        An3   v020
	BYTE	W06
	BYTE	PEND
	BYTE		N06     Fn4   v068
	BYTE	W06
	BYTE		N02     Fn3   v020
	BYTE	W06
	BYTE		        As3   v068
	BYTE	W06
	BYTE		        Fn3   v036
	BYTE	W06
	BYTE		        As3   v068
	BYTE	W06
	BYTE		N06     Fn4 
	BYTE	W06
	BYTE		N02     As3   v020
	BYTE	W06
	BYTE		N06     Fn4   v068
	BYTE	W06
	BYTE		N02     Fn3   v020
	BYTE	W06
	BYTE		N06     En4   v068
	BYTE	W06
	BYTE		N02     As3 
	BYTE	W06
	BYTE		        En4   v020
	BYTE	W06
	BYTE		N12     Fn4   v068
	BYTE	W12
	BYTE		N02     An3 
	BYTE	W06
	BYTE		        As3   v020
	BYTE	W06
	BYTE	PEND
	BYTE	PATT
	 POIN2	final_battle_vs_rayquaza_5 + 0x1BF
	BYTE		N06     Gn4   v068
	BYTE	W06
	BYTE		N02     Gn3   v020
	BYTE	W06
	BYTE		        Cn4   v068
	BYTE	W06
	BYTE		        Gn3   v036
	BYTE	W06
	BYTE		        Cn4   v068
	BYTE	W06
	BYTE		N06     Gn4 
	BYTE	W06
	BYTE		N02     Cn4   v020
	BYTE	W06
	BYTE		N06     Gn4   v068
	BYTE	W06
	BYTE		N02     Gn3   v020
	BYTE	W06
	BYTE		N06     Fs4   v068
	BYTE	W06
	BYTE		N02     Cn4 
	BYTE	W06
	BYTE		        Dn4   v020
	BYTE	W06
	BYTE		N12     Gn4   v068
	BYTE	W12
	BYTE		N02     Cn4 
	BYTE	W06
	BYTE		        Dn4   v020
	BYTE	W06
	BYTE	PEND
	BYTE	PATT
	 POIN2	final_battle_vs_rayquaza_5 + 0x1F9
	BYTE		N06     As4   v068
	BYTE	W06
	BYTE		N02     As3   v020
	BYTE	W06
	BYTE		        Ds4   v068
	BYTE	W06
	BYTE		        As3   v036
	BYTE	W06
	BYTE		        Ds4   v068
	BYTE	W06
	BYTE		N06     As4 
	BYTE	W06
	BYTE		N02     Ds4   v020
	BYTE	W06
	BYTE		N06     As4   v068
	BYTE	W06
	BYTE		N02     As3   v020
	BYTE	W06
	BYTE		N06     An4   v068
	BYTE	W06
	BYTE		N02     Ds4 
	BYTE	W06
	BYTE		        Fn4   v020
	BYTE	W06
	BYTE		N12     As4   v068
	BYTE	W12
	BYTE		N02     Ds4 
	BYTE	W06
	BYTE		        Fn4   v020
	BYTE	W06
	BYTE	PEND
	BYTE		N06     Cn5   v068
	BYTE	W06
	BYTE		N02     Cn4   v020
	BYTE	W06
	BYTE		        Fn4   v068
	BYTE	W06
	BYTE		        Cn4   v036
	BYTE	W06
	BYTE		        Fn4   v068
	BYTE	W06
	BYTE		N06     Cn5 
	BYTE	W06
	BYTE		N02     Fn4   v020
	BYTE	W06
	BYTE		N06     Cn5   v068
	BYTE	W06
	BYTE		N02     Cn4   v020
	BYTE	W06
	BYTE		N06     Bn4   v068
	BYTE	W06
	BYTE		N02     En4 
	BYTE	W06
	BYTE		        Fn4   v020
	BYTE	W06
	BYTE		N12     Cn5   v068
	BYTE	W12
	BYTE		N02     As3 
	BYTE	W06
	BYTE		        Cn4   v020
	BYTE	W06
	BYTE	PEND
	BYTE	PATT
	 POIN2	final_battle_vs_rayquaza_5 + 0x155
	BYTE	PATT
	 POIN2	final_battle_vs_rayquaza_5 + 0x18A
	BYTE	PATT
	 POIN2	final_battle_vs_rayquaza_5 + 0x1BF
	BYTE	PATT
	 POIN2	final_battle_vs_rayquaza_5 + 0x1BF
	BYTE	PATT
	 POIN2	final_battle_vs_rayquaza_5 + 0x1F9
	BYTE	PATT
	 POIN2	final_battle_vs_rayquaza_5 + 0x1F9
	BYTE	PATT
	 POIN2	final_battle_vs_rayquaza_5 + 0x233
	BYTE		N06     Cn5   v068
	BYTE	W06
	BYTE		N02     Cn4   v020
	BYTE	W06
	BYTE		        Fn4   v068
	BYTE	W06
	BYTE		        Cn4   v036
	BYTE	W06
	BYTE		        Fn4   v068
	BYTE	W06
	BYTE		N06     Cn5 
	BYTE	W06
	BYTE		N02     Fn4   v020
	BYTE	W06
	BYTE		N06     Cn5   v068
	BYTE	W06
	BYTE		N02     Cn4   v020
	BYTE	W06
	BYTE		N06     Bn4   v068
	BYTE	W06
	BYTE		N02     En4 
	BYTE	W06
	BYTE		        Fn4   v020
	BYTE	W06
	BYTE		N12     Cn5   v068
	BYTE	W12
	BYTE		N02     As3 
	BYTE	W06
	BYTE		        Cn4   v020
	BYTE	W05
	BYTE		VOICE   53
	BYTE		PAN     c_v+0
	BYTE	W01
	BYTE	PATT
	 POIN2	final_battle_vs_rayquaza_5 + 0x155
	BYTE	PATT
	 POIN2	final_battle_vs_rayquaza_5 + 0x18A
	BYTE	PATT
	 POIN2	final_battle_vs_rayquaza_5 + 0x1BF
	BYTE	PATT
	 POIN2	final_battle_vs_rayquaza_5 + 0x1BF
	BYTE	PATT
	 POIN2	final_battle_vs_rayquaza_5 + 0x1F9
	BYTE	PATT
	 POIN2	final_battle_vs_rayquaza_5 + 0x1F9
	BYTE	PATT
	 POIN2	final_battle_vs_rayquaza_5 + 0x233
	BYTE	PATT
	 POIN2	final_battle_vs_rayquaza_5 + 0x268
	BYTE	PATT
	 POIN2	final_battle_vs_rayquaza_5 + 0x155
	BYTE	PATT
	 POIN2	final_battle_vs_rayquaza_5 + 0x18A
	BYTE	PATT
	 POIN2	final_battle_vs_rayquaza_5 + 0x1BF
	BYTE	PATT
	 POIN2	final_battle_vs_rayquaza_5 + 0x1BF
	BYTE	PATT
	 POIN2	final_battle_vs_rayquaza_5 + 0x1F9
	BYTE	PATT
	 POIN2	final_battle_vs_rayquaza_5 + 0x1F9
	BYTE	PATT
	 POIN2	final_battle_vs_rayquaza_5 + 0x233
	BYTE	PATT
	 POIN2	final_battle_vs_rayquaza_5 + 0x268
	BYTE	PATT
	 POIN2	final_battle_vs_rayquaza_5 + 0x17
	BYTE	W11
	BYTE		PAN     c_v+30
	BYTE	W12
	BYTE		        c_v-30
	BYTE	W12
	BYTE		        c_v+30
	BYTE	W12
	BYTE		        c_v-30
	BYTE	W12
	BYTE		        c_v+30
	BYTE	W12
	BYTE		        c_v-30
	BYTE	W12
	BYTE		        c_v+30
	BYTE	W13
	BYTE	PEND
	BYTE	PATT
	 POIN2	final_battle_vs_rayquaza_5 + 0x17
	BYTE	PATT
	 POIN2	final_battle_vs_rayquaza_5 + 0x34E
	BYTE	PATT
	 POIN2	final_battle_vs_rayquaza_5 + 0x17
	BYTE	PATT
	 POIN2	final_battle_vs_rayquaza_5 + 0x34E
	BYTE	PATT
	 POIN2	final_battle_vs_rayquaza_5 + 0x17
	BYTE	PATT
	 POIN2	final_battle_vs_rayquaza_5 + 0x34E
	BYTE	PATT
	 POIN2	final_battle_vs_rayquaza_5 + 0x17
	BYTE	PATT
	 POIN2	final_battle_vs_rayquaza_5 + 0x34E
	BYTE	PATT
	 POIN2	final_battle_vs_rayquaza_5 + 0x17
	BYTE	PATT
	 POIN2	final_battle_vs_rayquaza_5 + 0x34E
	BYTE	W52
	BYTE	W01
	BYTE		PAN     c_v+0
	BYTE	W01
	BYTE		N02     Dn2   v112
	BYTE	W03
	BYTE		N03     Dn2   v068
	BYTE	W02
	BYTE		PAN     c_v+30
	BYTE	W01
	BYTE		N02     An2   v112
	BYTE	W03
	BYTE		N03     An2   v068
	BYTE	W02
	BYTE		PAN     c_v-30
	BYTE	W01
	BYTE		N02     Dn3   v112
	BYTE	W03
	BYTE		N03     Dn3   v068
	BYTE	W02
	BYTE		PAN     c_v+30
	BYTE	W01
	BYTE		N02     An3   v112
	BYTE	W03
	BYTE		N03     An3   v040
	BYTE	W02
	BYTE		PAN     c_v-30
	BYTE	W01
	BYTE		N02     Dn4   v112
	BYTE	W03
	BYTE		N03     Dn4   v040
	BYTE	W02
	BYTE		PAN     c_v+30
	BYTE	W01
	BYTE		N02     An4   v112
	BYTE	W03
	BYTE		N03     An4   v040
	BYTE	W02
	BYTE		PAN     c_v-30
	BYTE	W01
	BYTE		N02     Dn5   v112
	BYTE	W03
	BYTE		N03     Dn5   v040
	BYTE	W02
	BYTE		PAN     c_v+0
	BYTE	W01
	BYTE	W11
	BYTE		        c_v+30
	BYTE	W12
	BYTE		        c_v-30
	BYTE	W12
	BYTE		        c_v+30
	BYTE	W12
	BYTE		        c_v-30
	BYTE	W06
	BYTE		        c_v+0
	BYTE	W01
	BYTE		N02     Dn2   v112
	BYTE	W03
	BYTE		N03     Dn2   v068
	BYTE	W02
	BYTE		PAN     c_v+30
	BYTE	W01
	BYTE		N02     An2   v112
	BYTE	W03
	BYTE		N03     An2   v068
	BYTE	W02
	BYTE		PAN     c_v-30
	BYTE	W01
	BYTE		N02     Dn3   v112
	BYTE	W03
	BYTE		N03     Dn3   v068
	BYTE	W02
	BYTE		PAN     c_v-30
	BYTE	W01
	BYTE		N02     An3   v112
	BYTE	W03
	BYTE		N03     An3   v040
	BYTE	W02
	BYTE		PAN     c_v-30
	BYTE	W01
	BYTE		N02     Dn4   v112
	BYTE	W03
	BYTE		N03     Dn4   v040
	BYTE	W02
	BYTE		PAN     c_v+30
	BYTE	W01
	BYTE		N02     An4   v112
	BYTE	W03
	BYTE		N03     An4   v040
	BYTE	W02
	BYTE		PAN     c_v-30
	BYTE	W01
	BYTE		N02     Dn5   v112
	BYTE	W03
	BYTE		N03     Dn5   v040
	BYTE	W03
	BYTE	PATT
	 POIN2	final_battle_vs_rayquaza_5 + 0x11
	BYTE	PATT
	 POIN2	final_battle_vs_rayquaza_5 + 0xA8
	BYTE	PATT
	 POIN2	final_battle_vs_rayquaza_5 + 0x11
	BYTE	PATT
	 POIN2	final_battle_vs_rayquaza_5 + 0x17
	BYTE	PATT
	 POIN2	final_battle_vs_rayquaza_5 + 0x11
	BYTE	PATT
	 POIN2	final_battle_vs_rayquaza_5 + 0x17
	BYTE	PATT
	 POIN2	final_battle_vs_rayquaza_5 + 0x11
	BYTE	PATT
	 POIN2	final_battle_vs_rayquaza_5 + 0x17
	BYTE	W96
	BYTE	PATT
	 POIN2	final_battle_vs_rayquaza_5 + 0xFD
	BYTE	PATT
	 POIN2	final_battle_vs_rayquaza_5 + 0x155
	BYTE	PATT
	 POIN2	final_battle_vs_rayquaza_5 + 0x18A
	BYTE	PATT
	 POIN2	final_battle_vs_rayquaza_5 + 0x1BF
	BYTE	PATT
	 POIN2	final_battle_vs_rayquaza_5 + 0x1BF
	BYTE	PATT
	 POIN2	final_battle_vs_rayquaza_5 + 0x1F9
	BYTE	PATT
	 POIN2	final_battle_vs_rayquaza_5 + 0x1F9
	BYTE	PATT
	 POIN2	final_battle_vs_rayquaza_5 + 0x233
	BYTE	PATT
	 POIN2	final_battle_vs_rayquaza_5 + 0x268
	BYTE	GoTo
	 POIN2	final_battle_vs_rayquaza_5 + 0x29D
	BYTE	FINE

//*********************** Track 07 ***********************//

final_battle_vs_rayquaza_6:
	BYTE	KEYSH   final_battle_vs_rayquaza_key+0
	BYTE	W14
	BYTE		VOICE   7
	BYTE		VOL     78*final_battle_vs_rayquaza_mvl/mxv
	BYTE		PAN     c_v-20
	BYTE	W01
	BYTE		MOD     35
	BYTE		LFOS    60
	BYTE		MODT    mod_tre
	BYTE	W20
	BYTE		VOICE   95
	BYTE		VOL     108*final_battle_vs_rayquaza_mvl/mxv
	BYTE		PAN     c_v-20
	BYTE	W01
	BYTE	W76
	BYTE		N05     Dn3   v120
	BYTE	W06
	BYTE		        Gn3   v068
	BYTE	W06
	BYTE		        Dn4   v100
	BYTE	W06
	BYTE		        Gn4   v120
	BYTE	W02
	BYTE	W04
	BYTE		        En4   v068
	BYTE	W06
	BYTE		        Cn4   v100
	BYTE	W06
	BYTE		        An3   v048
	BYTE	W06
	BYTE		        En4   v096
	BYTE	W06
	BYTE		        Cn4   v060
	BYTE	W06
	BYTE		        An3   v072
	BYTE	W06
	BYTE		        En3   v056
	BYTE	W06
	BYTE		        Gn3   v080
	BYTE	W06
	BYTE		        En3   v036
	BYTE	W06
	BYTE		        Cn3   v048
	BYTE	W06
	BYTE		        An2   v032
	BYTE	W06
	BYTE		N07     En2   v036
	BYTE	W24
	BYTE	W02
	BYTE	W96
	BYTE	W96
	BYTE	W96
	BYTE	W96
	BYTE	W96
	BYTE	W60
	BYTE	W02
	BYTE		VOICE   7
	BYTE		VOL     68*final_battle_vs_rayquaza_mvl/mxv
	BYTE		PAN     c_v-50
	BYTE	W01
	BYTE		MOD     85
	BYTE		LFOS    37
	BYTE		MODT    mod_tre
	BYTE	W01
	BYTE		LFODL   1
	BYTE	W32
	BYTE	PEND
	BYTE		N05     Gn3   v112
	BYTE	W06
	BYTE		        Gn3   v032
	BYTE	W06
	BYTE		        Gn3   v048
	BYTE	W06
	BYTE		        Gn3   v032
	BYTE	W18
	BYTE		        As3   v092
	BYTE	W06
	BYTE		N54     As3   v056
	BYTE	W54
	BYTE	PEND
	BYTE		N05     An3   v112
	BYTE	W06
	BYTE		        An3   v032
	BYTE	W06
	BYTE		        An3   v048
	BYTE	W06
	BYTE		        An3   v032
	BYTE	W18
	BYTE		        Cn4   v092
	BYTE	W06
	BYTE		N54     Cn4   v056
	BYTE	W04
	BYTE		VOL     36*final_battle_vs_rayquaza_mvl/mxv
	BYTE	W04
	BYTE		        40*final_battle_vs_rayquaza_mvl/mxv
	BYTE	W03
	BYTE		        43*final_battle_vs_rayquaza_mvl/mxv
	BYTE	W02
	BYTE		        46*final_battle_vs_rayquaza_mvl/mxv
	BYTE	W02
	BYTE		        49*final_battle_vs_rayquaza_mvl/mxv
	BYTE	W02
	BYTE		        54*final_battle_vs_rayquaza_mvl/mxv
	BYTE	W02
	BYTE		        60*final_battle_vs_rayquaza_mvl/mxv
	BYTE	W03
	BYTE		        63*final_battle_vs_rayquaza_mvl/mxv
	BYTE	W02
	BYTE		        71*final_battle_vs_rayquaza_mvl/mxv
	BYTE	W02
	BYTE		        79*final_battle_vs_rayquaza_mvl/mxv
	BYTE	W02
	BYTE		        87*final_battle_vs_rayquaza_mvl/mxv
	BYTE	W02
	BYTE		        84*final_battle_vs_rayquaza_mvl/mxv
	BYTE	W03
	BYTE		        78*final_battle_vs_rayquaza_mvl/mxv
	BYTE	W02
	BYTE		        74*final_battle_vs_rayquaza_mvl/mxv
	BYTE	W02
	BYTE		        70*final_battle_vs_rayquaza_mvl/mxv
	BYTE	W02
	BYTE		        65*final_battle_vs_rayquaza_mvl/mxv
	BYTE	W02
	BYTE		        62*final_battle_vs_rayquaza_mvl/mxv
	BYTE	W03
	BYTE		        56*final_battle_vs_rayquaza_mvl/mxv
	BYTE	W02
	BYTE		        51*final_battle_vs_rayquaza_mvl/mxv
	BYTE	W02
	BYTE		        36*final_battle_vs_rayquaza_mvl/mxv
	BYTE	W02
	BYTE		        25*final_battle_vs_rayquaza_mvl/mxv
	BYTE	W02
	BYTE		        15*final_battle_vs_rayquaza_mvl/mxv
	BYTE	W02
	BYTE	W96
	BYTE	W96
	BYTE	W96
	BYTE	W96
	BYTE	W96
	BYTE	W60
	BYTE	W02
	BYTE		VOL     68*final_battle_vs_rayquaza_mvl/mxv
	BYTE	W32
	BYTE	W02
	BYTE	PEND
	BYTE	PATT
	 POIN2	final_battle_vs_rayquaza_6 + 0x66
	BYTE		N05     An3   v112
	BYTE	W06
	BYTE		        An3   v032
	BYTE	W06
	BYTE		        An3   v048
	BYTE	W06
	BYTE		        An3   v032
	BYTE	W18
	BYTE		        Cn4   v092
	BYTE	W06
	BYTE		N30     Cn4   v056
	BYTE	W54
	BYTE	PEND
	BYTE	W14
	BYTE		VOICE   7
	BYTE		VOL     68*final_battle_vs_rayquaza_mvl/mxv
	BYTE		PAN     c_v+0
	BYTE	W01
	BYTE		MOD     60
	BYTE		LFOS    60
	BYTE		MODT    mod_pan
	BYTE	W80
	BYTE	W01
	BYTE	PEND
	BYTE	W96
	BYTE	W84
	BYTE		N05     Cn4   v112
	BYTE	W06
	BYTE		        Cn4   v032
	BYTE	W06
	BYTE	PEND
	BYTE	W12
	BYTE		N05     As3   v112
	BYTE	W06
	BYTE		        As3   v032
	BYTE	W18
	BYTE		        An3   v112
	BYTE	W06
	BYTE		        An3   v032
	BYTE	W18
	BYTE		        As3   v112
	BYTE	W06
	BYTE		        As3   v032
	BYTE	W18
	BYTE		        Gn3   v112
	BYTE	W06
	BYTE		N17     Gn3   v072
	BYTE	W06
	BYTE	PEND
	BYTE	W96
	BYTE	W96
	BYTE	PATT
	 POIN2	final_battle_vs_rayquaza_6 + 0xF4
	BYTE	W12
	BYTE		N05     As3   v112
	BYTE	W06
	BYTE		        As3   v032
	BYTE	W18
	BYTE		        An3   v112
	BYTE	W06
	BYTE		        An3   v032
	BYTE	W18
	BYTE		        As3   v112
	BYTE	W06
	BYTE		        As3   v072
	BYTE	W06
	BYTE		N11     As3   v032
	BYTE	W24
	BYTE	PEND
	BYTE	W96
	BYTE	W96
	BYTE	W96
	BYTE	W60
	BYTE	W02
	BYTE		VOICE   7
	BYTE		VOL     68*final_battle_vs_rayquaza_mvl/mxv
	BYTE		PAN     c_v-30
	BYTE	W01
	BYTE		MOD     85
	BYTE		LFOS    37
	BYTE		MODT    mod_tre
	BYTE	W01
	BYTE		LFODL   1
	BYTE	W32
	BYTE	PEND
	BYTE	W96
	BYTE	W96
	BYTE		N05     Gn3   v112
	BYTE	W06
	BYTE		        Gn3   v032
	BYTE	W06
	BYTE		        Gn3   v072
	BYTE	W06
	BYTE		        Gn3   v032
	BYTE	W18
	BYTE		        As3   v112
	BYTE	W06
	BYTE		N54     As3   v072
	BYTE	W54
	BYTE	PEND
	BYTE		N05     An3   v112
	BYTE	W06
	BYTE		        An3   v032
	BYTE	W06
	BYTE		        An3   v072
	BYTE	W06
	BYTE		        An3   v032
	BYTE	W18
	BYTE		        Cn4   v112
	BYTE	W06
	BYTE		N54     Cn4   v072
	BYTE	W54
	BYTE	PEND
	BYTE	W96
	BYTE	W96
	BYTE	W96
	BYTE	W96
	BYTE	PATT
	 POIN2	final_battle_vs_rayquaza_6 + 0xC1
	BYTE	W96
	BYTE		N05     Gn3   v112
	BYTE	W06
	BYTE		        Gn3   v032
	BYTE	W06
	BYTE		        Gn3   v072
	BYTE	W06
	BYTE		        Gn3   v032
	BYTE	W18
	BYTE		        As3   v112
	BYTE	W06
	BYTE		N52     As3   v072
	BYTE	W54
	BYTE	PEND
	BYTE		N05     An3   v112
	BYTE	W06
	BYTE		        An3   v032
	BYTE	W06
	BYTE		        An3   v072
	BYTE	W06
	BYTE		        An3   v032
	BYTE	W18
	BYTE		        Cn4   v112
	BYTE	W06
	BYTE		        Cn4   v072
	BYTE	W30
	BYTE		        Fn4   v112
	BYTE	W06
	BYTE		N17     Fn4   v072
	BYTE	W18
	BYTE	PEND
	BYTE		N05     Dn4   v112
	BYTE	W06
	BYTE		N90     Dn4   v072
	BYTE	W08
	BYTE		VOL     45*final_battle_vs_rayquaza_mvl/mxv
	BYTE	W02
	BYTE		        46*final_battle_vs_rayquaza_mvl/mxv
	BYTE	W02
	BYTE		        47*final_battle_vs_rayquaza_mvl/mxv
	BYTE	W01
	BYTE		        48*final_battle_vs_rayquaza_mvl/mxv
	BYTE	W02
	BYTE		        49*final_battle_vs_rayquaza_mvl/mxv
	BYTE	W02
	BYTE		        50*final_battle_vs_rayquaza_mvl/mxv
	BYTE	W01
	BYTE		        51*final_battle_vs_rayquaza_mvl/mxv
	BYTE	W02
	BYTE		        52*final_battle_vs_rayquaza_mvl/mxv
	BYTE	W02
	BYTE		        54*final_battle_vs_rayquaza_mvl/mxv
	BYTE	W01
	BYTE		        55*final_battle_vs_rayquaza_mvl/mxv
	BYTE	W02
	BYTE		        56*final_battle_vs_rayquaza_mvl/mxv
	BYTE	W02
	BYTE		        58*final_battle_vs_rayquaza_mvl/mxv
	BYTE	W01
	BYTE		        59*final_battle_vs_rayquaza_mvl/mxv
	BYTE	W02
	BYTE		        60*final_battle_vs_rayquaza_mvl/mxv
	BYTE	W01
	BYTE		        61*final_battle_vs_rayquaza_mvl/mxv
	BYTE	W02
	BYTE		        63*final_battle_vs_rayquaza_mvl/mxv
	BYTE	W02
	BYTE		        65*final_battle_vs_rayquaza_mvl/mxv
	BYTE	W01
	BYTE		        67*final_battle_vs_rayquaza_mvl/mxv
	BYTE	W02
	BYTE		        69*final_battle_vs_rayquaza_mvl/mxv
	BYTE	W02
	BYTE		        72*final_battle_vs_rayquaza_mvl/mxv
	BYTE	W01
	BYTE		        73*final_battle_vs_rayquaza_mvl/mxv
	BYTE	W02
	BYTE		        76*final_battle_vs_rayquaza_mvl/mxv
	BYTE	W02
	BYTE		        80*final_battle_vs_rayquaza_mvl/mxv
	BYTE	W01
	BYTE		        82*final_battle_vs_rayquaza_mvl/mxv
	BYTE	W02
	BYTE		        86*final_battle_vs_rayquaza_mvl/mxv
	BYTE	W01
	BYTE		        86*final_battle_vs_rayquaza_mvl/mxv
	BYTE	W02
	BYTE		        90*final_battle_vs_rayquaza_mvl/mxv
	BYTE	W02
	BYTE		        94*final_battle_vs_rayquaza_mvl/mxv
	BYTE	W01
	BYTE		        96*final_battle_vs_rayquaza_mvl/mxv
	BYTE	W02
	BYTE		        99*final_battle_vs_rayquaza_mvl/mxv
	BYTE	W02
	BYTE		        100*final_battle_vs_rayquaza_mvl/mxv
	BYTE	W01
	BYTE		        98*final_battle_vs_rayquaza_mvl/mxv
	BYTE	W02
	BYTE		        97*final_battle_vs_rayquaza_mvl/mxv
	BYTE	W02
	BYTE		        95*final_battle_vs_rayquaza_mvl/mxv
	BYTE	W01
	BYTE		        94*final_battle_vs_rayquaza_mvl/mxv
	BYTE	W02
	BYTE		        90*final_battle_vs_rayquaza_mvl/mxv
	BYTE	W02
	BYTE		        86*final_battle_vs_rayquaza_mvl/mxv
	BYTE	W01
	BYTE		        84*final_battle_vs_rayquaza_mvl/mxv
	BYTE	W02
	BYTE		        81*final_battle_vs_rayquaza_mvl/mxv
	BYTE	W01
	BYTE		        78*final_battle_vs_rayquaza_mvl/mxv
	BYTE	W02
	BYTE		        74*final_battle_vs_rayquaza_mvl/mxv
	BYTE	W02
	BYTE		        67*final_battle_vs_rayquaza_mvl/mxv
	BYTE	W01
	BYTE		        64*final_battle_vs_rayquaza_mvl/mxv
	BYTE	W02
	BYTE		        58*final_battle_vs_rayquaza_mvl/mxv
	BYTE	W02
	BYTE		        47*final_battle_vs_rayquaza_mvl/mxv
	BYTE	W01
	BYTE		        42*final_battle_vs_rayquaza_mvl/mxv
	BYTE	W02
	BYTE		        35*final_battle_vs_rayquaza_mvl/mxv
	BYTE	W02
	BYTE		        26*final_battle_vs_rayquaza_mvl/mxv
	BYTE	W01
	BYTE		        21*final_battle_vs_rayquaza_mvl/mxv
	BYTE	W02
	BYTE		        12*final_battle_vs_rayquaza_mvl/mxv
	BYTE	W01
	BYTE	PEND
	BYTE	W96
	BYTE	W96
	BYTE	W96
	BYTE	PATT
	 POIN2	final_battle_vs_rayquaza_6 + 0xC1
	BYTE	W96
	BYTE	PATT
	 POIN2	final_battle_vs_rayquaza_6 + 0x186
	BYTE	PATT
	 POIN2	final_battle_vs_rayquaza_6 + 0x19B
	BYTE	PATT
	 POIN2	final_battle_vs_rayquaza_6 + 0x1B6
	BYTE	W96
	BYTE	W96
	BYTE	W96
	BYTE	PATT
	 POIN2	final_battle_vs_rayquaza_6 + 0xC1
	BYTE	W96
	BYTE	PATT
	 POIN2	final_battle_vs_rayquaza_6 + 0x186
	BYTE	PATT
	 POIN2	final_battle_vs_rayquaza_6 + 0x19B
	BYTE	PATT
	 POIN2	final_battle_vs_rayquaza_6 + 0x1B6
	BYTE	W96
	BYTE	W96
	BYTE	W96
	BYTE	W92
	BYTE	W03
	BYTE		VOICE   95
	BYTE		VOL     108*final_battle_vs_rayquaza_mvl/mxv
	BYTE		PAN     c_v-20
	BYTE	W01
	BYTE	W96
	BYTE	W76
	BYTE		N05     Dn3   v080
	BYTE	W06
	BYTE		        Fn3   v060
	BYTE	W06
	BYTE		        An3   v080
	BYTE	W06
	BYTE		        Fn4   v120
	BYTE	W02
	BYTE	W04
	BYTE		        Cn4   v068
	BYTE	W06
	BYTE		        An3   v100
	BYTE	W06
	BYTE		        Fn3   v048
	BYTE	W06
	BYTE		        Cn4   v096
	BYTE	W06
	BYTE		        An3   v060
	BYTE	W06
	BYTE		        Fn3   v072
	BYTE	W06
	BYTE		N09     An3   v076
	BYTE	W12
	BYTE		N05     Fn3   v068
	BYTE	W06
	BYTE		        Cn3   v100
	BYTE	W06
	BYTE		        An2   v048
	BYTE	W06
	BYTE		        Fn2   v084
	BYTE	W24
	BYTE	W02
	BYTE	W96
	BYTE	W96
	BYTE	W96
	BYTE	W96
	BYTE	W96
	BYTE	PATT
	 POIN2	final_battle_vs_rayquaza_6 + 0x52
	BYTE	PATT
	 POIN2	final_battle_vs_rayquaza_6 + 0x66
	BYTE	PATT
	 POIN2	final_battle_vs_rayquaza_6 + 0xCD
	BYTE	PATT
	 POIN2	final_battle_vs_rayquaza_6 + 0xE2
	BYTE	W96
	BYTE	PATT
	 POIN2	final_battle_vs_rayquaza_6 + 0xF4
	BYTE	PATT
	 POIN2	final_battle_vs_rayquaza_6 + 0xFD
	BYTE	W96
	BYTE	W96
	BYTE	PATT
	 POIN2	final_battle_vs_rayquaza_6 + 0xF4
	BYTE	PATT
	 POIN2	final_battle_vs_rayquaza_6 + 0x120
	BYTE	W96
	BYTE	W96
	BYTE	W96
	BYTE	PATT
	 POIN2	final_battle_vs_rayquaza_6 + 0x13C
	BYTE	W96
	BYTE	W96
	BYTE	PATT
	 POIN2	final_battle_vs_rayquaza_6 + 0x152
	BYTE	PATT
	 POIN2	final_battle_vs_rayquaza_6 + 0x167
	BYTE	GoTo
	 POIN2	final_battle_vs_rayquaza_6 + 0x17C
	BYTE	FINE

//*********************** Track 08 ***********************//

final_battle_vs_rayquaza_7:
	BYTE	KEYSH   final_battle_vs_rayquaza_key+0
	BYTE	W16
	BYTE		VOICE   7
	BYTE		VOL     78*final_battle_vs_rayquaza_mvl/mxv
	BYTE		PAN     c_v+20
	BYTE	W01
	BYTE		MOD     0
	BYTE		LFOS    60
	BYTE		MODT    mod_vib
	BYTE	W18
	BYTE		VOICE   95
	BYTE		VOL     125*final_battle_vs_rayquaza_mvl/mxv
	BYTE		PAN     c_v+20
	BYTE	W01
	BYTE	W76
	BYTE		N05     Dn2   v120
	BYTE	W06
	BYTE		        Gn2   v068
	BYTE	W06
	BYTE		        Dn3   v100
	BYTE	W06
	BYTE		        Gn3   v120
	BYTE	W02
	BYTE	W04
	BYTE		        En3   v068
	BYTE	W06
	BYTE		        Cn3   v100
	BYTE	W06
	BYTE		        An2   v048
	BYTE	W06
	BYTE		        En3   v096
	BYTE	W06
	BYTE		        Cn3   v060
	BYTE	W06
	BYTE		        An2   v072
	BYTE	W06
	BYTE		        En2   v048
	BYTE	W06
	BYTE		        Gn2   v112
	BYTE	W06
	BYTE		        En2   v036
	BYTE	W06
	BYTE		        Cn2   v048
	BYTE	W06
	BYTE		        An1   v032
	BYTE	W06
	BYTE		N07     En1   v036
	BYTE	W24
	BYTE	W02
	BYTE	W96
	BYTE	W96
	BYTE	W96
	BYTE	W96
	BYTE	W96
	BYTE	W60
	BYTE	W02
	BYTE		VOICE   7
	BYTE		VOL     73*final_battle_vs_rayquaza_mvl/mxv
	BYTE		PAN     c_v+50
	BYTE	W01
	BYTE		MOD     65
	BYTE		LFOS    52
	BYTE		MODT    mod_tre
	BYTE	W01
	BYTE		LFODL   2
	BYTE	W32
	BYTE		N05     Ds3   v112
	BYTE	W06
	BYTE		        Ds3   v032
	BYTE	W06
	BYTE		        Ds3   v048
	BYTE	W06
	BYTE		        Ds3   v032
	BYTE	W18
	BYTE		        Gn3   v092
	BYTE	W06
	BYTE		N54     Gn3   v056
	BYTE	W54
	BYTE	PEND
	BYTE		N05     Fn3   v112
	BYTE	W06
	BYTE		        Fn3   v032
	BYTE	W06
	BYTE		        Fn3   v048
	BYTE	W06
	BYTE		        Fn3   v032
	BYTE	W18
	BYTE		        An3   v092
	BYTE	W06
	BYTE		N54     An3   v056
	BYTE	W04
	BYTE		VOL     36*final_battle_vs_rayquaza_mvl/mxv
	BYTE	W04
	BYTE		        40*final_battle_vs_rayquaza_mvl/mxv
	BYTE	W03
	BYTE		        43*final_battle_vs_rayquaza_mvl/mxv
	BYTE	W02
	BYTE		        46*final_battle_vs_rayquaza_mvl/mxv
	BYTE	W02
	BYTE		        49*final_battle_vs_rayquaza_mvl/mxv
	BYTE	W02
	BYTE		        54*final_battle_vs_rayquaza_mvl/mxv
	BYTE	W02
	BYTE		        60*final_battle_vs_rayquaza_mvl/mxv
	BYTE	W03
	BYTE		        63*final_battle_vs_rayquaza_mvl/mxv
	BYTE	W02
	BYTE		        71*final_battle_vs_rayquaza_mvl/mxv
	BYTE	W02
	BYTE		        79*final_battle_vs_rayquaza_mvl/mxv
	BYTE	W02
	BYTE		        87*final_battle_vs_rayquaza_mvl/mxv
	BYTE	W02
	BYTE		        84*final_battle_vs_rayquaza_mvl/mxv
	BYTE	W03
	BYTE		        78*final_battle_vs_rayquaza_mvl/mxv
	BYTE	W02
	BYTE		        74*final_battle_vs_rayquaza_mvl/mxv
	BYTE	W02
	BYTE		        70*final_battle_vs_rayquaza_mvl/mxv
	BYTE	W02
	BYTE		        65*final_battle_vs_rayquaza_mvl/mxv
	BYTE	W02
	BYTE		        62*final_battle_vs_rayquaza_mvl/mxv
	BYTE	W03
	BYTE		        56*final_battle_vs_rayquaza_mvl/mxv
	BYTE	W02
	BYTE		        51*final_battle_vs_rayquaza_mvl/mxv
	BYTE	W02
	BYTE		        36*final_battle_vs_rayquaza_mvl/mxv
	BYTE	W02
	BYTE		        25*final_battle_vs_rayquaza_mvl/mxv
	BYTE	W02
	BYTE		        15*final_battle_vs_rayquaza_mvl/mxv
	BYTE	W02
	BYTE	W96
	BYTE	W96
	BYTE	W96
	BYTE	W96
	BYTE	W96
	BYTE	W60
	BYTE	W02
	BYTE		VOL     68*final_battle_vs_rayquaza_mvl/mxv
	BYTE	W32
	BYTE	W02
	BYTE	PEND
	BYTE		N05     Ds3   v112
	BYTE	W06
	BYTE		        Ds3   v032
	BYTE	W06
	BYTE		        Ds3   v060
	BYTE	W06
	BYTE		        Ds3   v032
	BYTE	W18
	BYTE		        Gn3   v092
	BYTE	W06
	BYTE		N54     Gn3   v056
	BYTE	W54
	BYTE		N05     Fn3   v112
	BYTE	W06
	BYTE		        Fn3   v032
	BYTE	W06
	BYTE		        Fn3   v060
	BYTE	W06
	BYTE		        Fn3   v032
	BYTE	W18
	BYTE		        An3   v092
	BYTE	W06
	BYTE		N30     An3   v056
	BYTE	W54
	BYTE	W96
	BYTE	W96
	BYTE	W96
	BYTE	W96
	BYTE	W96
	BYTE	W96
	BYTE	W96
	BYTE	W96
	BYTE	W96
	BYTE	W96
	BYTE	W96
	BYTE	W60
	BYTE	W02
	BYTE		VOICE   7
	BYTE		VOL     73*final_battle_vs_rayquaza_mvl/mxv
	BYTE		PAN     c_v+30
	BYTE	W01
	BYTE		MOD     70
	BYTE		LFOS    40
	BYTE		MODT    mod_tre
	BYTE	W01
	BYTE		LFODL   3
	BYTE	W32
	BYTE	PEND
	BYTE	W96
	BYTE	W96
	BYTE		N05     Ds3   v112
	BYTE	W06
	BYTE		        Ds3   v032
	BYTE	W06
	BYTE		        Ds3   v072
	BYTE	W06
	BYTE		        Ds3   v032
	BYTE	W18
	BYTE		        Gn3   v112
	BYTE	W06
	BYTE		N54     Gn3   v072
	BYTE	W54
	BYTE	PEND
	BYTE		N05     Fn3   v112
	BYTE	W06
	BYTE		        Fn3   v032
	BYTE	W06
	BYTE		        Fn3   v072
	BYTE	W06
	BYTE		        Fn3   v032
	BYTE	W18
	BYTE		        An3   v112
	BYTE	W06
	BYTE		N54     An3   v072
	BYTE	W54
	BYTE	PEND
	BYTE	W96
	BYTE	W96
	BYTE	W96
	BYTE	W96
	BYTE	PATT
	 POIN2	final_battle_vs_rayquaza_7 + 0xC0
	BYTE	W96
	BYTE		N05     Ds3   v112
	BYTE	W06
	BYTE		        Ds3   v032
	BYTE	W06
	BYTE		        Ds3   v072
	BYTE	W06
	BYTE		        Ds3   v032
	BYTE	W18
	BYTE		        Gn3   v112
	BYTE	W06
	BYTE		N52     Gn3   v072
	BYTE	W54
	BYTE	PEND
	BYTE		N05     Fn3   v112
	BYTE	W06
	BYTE		        Fn3   v032
	BYTE	W06
	BYTE		        Fn3   v072
	BYTE	W06
	BYTE		        Fn3   v032
	BYTE	W18
	BYTE		        An3   v112
	BYTE	W06
	BYTE		        An3   v072
	BYTE	W30
	BYTE		        An3   v112
	BYTE	W06
	BYTE		N17     An3   v072
	BYTE	W18
	BYTE	PEND
	BYTE		N05     Bn3   v112
	BYTE	W06
	BYTE		N90     Bn3   v072
	BYTE	W08
	BYTE		VOL     45*final_battle_vs_rayquaza_mvl/mxv
	BYTE	W02
	BYTE		        46*final_battle_vs_rayquaza_mvl/mxv
	BYTE	W02
	BYTE		        47*final_battle_vs_rayquaza_mvl/mxv
	BYTE	W01
	BYTE		        48*final_battle_vs_rayquaza_mvl/mxv
	BYTE	W02
	BYTE		        49*final_battle_vs_rayquaza_mvl/mxv
	BYTE	W02
	BYTE		        50*final_battle_vs_rayquaza_mvl/mxv
	BYTE	W01
	BYTE		        51*final_battle_vs_rayquaza_mvl/mxv
	BYTE	W02
	BYTE		        52*final_battle_vs_rayquaza_mvl/mxv
	BYTE	W02
	BYTE		        54*final_battle_vs_rayquaza_mvl/mxv
	BYTE	W01
	BYTE		        55*final_battle_vs_rayquaza_mvl/mxv
	BYTE	W02
	BYTE		        56*final_battle_vs_rayquaza_mvl/mxv
	BYTE	W02
	BYTE		        58*final_battle_vs_rayquaza_mvl/mxv
	BYTE	W01
	BYTE		        59*final_battle_vs_rayquaza_mvl/mxv
	BYTE	W02
	BYTE		        60*final_battle_vs_rayquaza_mvl/mxv
	BYTE	W01
	BYTE		        61*final_battle_vs_rayquaza_mvl/mxv
	BYTE	W02
	BYTE		        63*final_battle_vs_rayquaza_mvl/mxv
	BYTE	W02
	BYTE		        65*final_battle_vs_rayquaza_mvl/mxv
	BYTE	W01
	BYTE		        67*final_battle_vs_rayquaza_mvl/mxv
	BYTE	W02
	BYTE		        69*final_battle_vs_rayquaza_mvl/mxv
	BYTE	W02
	BYTE		        72*final_battle_vs_rayquaza_mvl/mxv
	BYTE	W01
	BYTE		        73*final_battle_vs_rayquaza_mvl/mxv
	BYTE	W02
	BYTE		        76*final_battle_vs_rayquaza_mvl/mxv
	BYTE	W02
	BYTE		        80*final_battle_vs_rayquaza_mvl/mxv
	BYTE	W01
	BYTE		        82*final_battle_vs_rayquaza_mvl/mxv
	BYTE	W02
	BYTE		        86*final_battle_vs_rayquaza_mvl/mxv
	BYTE	W01
	BYTE		        86*final_battle_vs_rayquaza_mvl/mxv
	BYTE	W02
	BYTE		        90*final_battle_vs_rayquaza_mvl/mxv
	BYTE	W02
	BYTE		        94*final_battle_vs_rayquaza_mvl/mxv
	BYTE	W01
	BYTE		        96*final_battle_vs_rayquaza_mvl/mxv
	BYTE	W02
	BYTE		        99*final_battle_vs_rayquaza_mvl/mxv
	BYTE	W02
	BYTE		        100*final_battle_vs_rayquaza_mvl/mxv
	BYTE	W01
	BYTE		        98*final_battle_vs_rayquaza_mvl/mxv
	BYTE	W02
	BYTE		        97*final_battle_vs_rayquaza_mvl/mxv
	BYTE	W02
	BYTE		        95*final_battle_vs_rayquaza_mvl/mxv
	BYTE	W01
	BYTE		        94*final_battle_vs_rayquaza_mvl/mxv
	BYTE	W02
	BYTE		        90*final_battle_vs_rayquaza_mvl/mxv
	BYTE	W02
	BYTE		        86*final_battle_vs_rayquaza_mvl/mxv
	BYTE	W01
	BYTE		        84*final_battle_vs_rayquaza_mvl/mxv
	BYTE	W02
	BYTE		        81*final_battle_vs_rayquaza_mvl/mxv
	BYTE	W01
	BYTE		        78*final_battle_vs_rayquaza_mvl/mxv
	BYTE	W02
	BYTE		        74*final_battle_vs_rayquaza_mvl/mxv
	BYTE	W02
	BYTE		        67*final_battle_vs_rayquaza_mvl/mxv
	BYTE	W01
	BYTE		        64*final_battle_vs_rayquaza_mvl/mxv
	BYTE	W02
	BYTE		        58*final_battle_vs_rayquaza_mvl/mxv
	BYTE	W02
	BYTE		        47*final_battle_vs_rayquaza_mvl/mxv
	BYTE	W01
	BYTE		        42*final_battle_vs_rayquaza_mvl/mxv
	BYTE	W02
	BYTE		        35*final_battle_vs_rayquaza_mvl/mxv
	BYTE	W02
	BYTE		        26*final_battle_vs_rayquaza_mvl/mxv
	BYTE	W01
	BYTE		        21*final_battle_vs_rayquaza_mvl/mxv
	BYTE	W02
	BYTE		        12*final_battle_vs_rayquaza_mvl/mxv
	BYTE	W01
	BYTE	PEND
	BYTE	W96
	BYTE	W96
	BYTE	W96
	BYTE	PATT
	 POIN2	final_battle_vs_rayquaza_7 + 0xC0
	BYTE	W96
	BYTE	PATT
	 POIN2	final_battle_vs_rayquaza_7 + 0x144
	BYTE	PATT
	 POIN2	final_battle_vs_rayquaza_7 + 0x159
	BYTE	PATT
	 POIN2	final_battle_vs_rayquaza_7 + 0x174
	BYTE	W96
	BYTE	W96
	BYTE	W96
	BYTE	PATT
	 POIN2	final_battle_vs_rayquaza_7 + 0xC0
	BYTE	W96
	BYTE	PATT
	 POIN2	final_battle_vs_rayquaza_7 + 0x144
	BYTE	PATT
	 POIN2	final_battle_vs_rayquaza_7 + 0x159
	BYTE	PATT
	 POIN2	final_battle_vs_rayquaza_7 + 0x174
	BYTE	W96
	BYTE	W96
	BYTE	W96
	BYTE	W92
	BYTE	W03
	BYTE		VOICE   95
	BYTE		VOL     125*final_battle_vs_rayquaza_mvl/mxv
	BYTE		PAN     c_v+20
	BYTE	W01
	BYTE	W96
	BYTE	W76
	BYTE		N05     Dn2   v080
	BYTE	W06
	BYTE		        Fn2   v060
	BYTE	W06
	BYTE		        An2   v080
	BYTE	W06
	BYTE		        Fn3   v120
	BYTE	W02
	BYTE	W04
	BYTE		        Cn3   v068
	BYTE	W06
	BYTE		        An2   v100
	BYTE	W06
	BYTE		        Fn2   v048
	BYTE	W06
	BYTE		        Cn3   v096
	BYTE	W06
	BYTE		        An2   v060
	BYTE	W06
	BYTE		        Fn2   v072
	BYTE	W06
	BYTE		N09     An2   v076
	BYTE	W12
	BYTE		N05     Fn2   v068
	BYTE	W06
	BYTE		        Cn2   v100
	BYTE	W06
	BYTE		        An1   v048
	BYTE	W06
	BYTE		        Fn1   v084
	BYTE	W24
	BYTE	W02
	BYTE	W96
	BYTE	W96
	BYTE	W96
	BYTE	W96
	BYTE	W96
	BYTE	W60
	BYTE	W02
	BYTE		VOICE   7
	BYTE		VOL     73*final_battle_vs_rayquaza_mvl/mxv
	BYTE		PAN     c_v+50
	BYTE	W01
	BYTE		MOD     85
	BYTE		LFOS    52
	BYTE		MODT    mod_tre
	BYTE	W01
	BYTE		LFODL   1
	BYTE	W32
	BYTE	PATT
	 POIN2	final_battle_vs_rayquaza_7 + 0x65
	BYTE		N05     Fn3   v112
	BYTE	W06
	BYTE		        Fn3   v032
	BYTE	W06
	BYTE		        Fn3   v048
	BYTE	W06
	BYTE		        Fn3   v032
	BYTE	W18
	BYTE		        An3   v092
	BYTE	W06
	BYTE		N30     An3   v056
	BYTE	W54
	BYTE	W96
	BYTE	W96
	BYTE	W96
	BYTE	W96
	BYTE	W96
	BYTE	W96
	BYTE	W96
	BYTE	W96
	BYTE	W96
	BYTE	W96
	BYTE	W96
	BYTE	PATT
	 POIN2	final_battle_vs_rayquaza_7 + 0xFA
	BYTE	W96
	BYTE	W96
	BYTE	PATT
	 POIN2	final_battle_vs_rayquaza_7 + 0x110
	BYTE	PATT
	 POIN2	final_battle_vs_rayquaza_7 + 0x125
	BYTE	GoTo
	 POIN2	final_battle_vs_rayquaza_7 + 0x13A
	BYTE	FINE

//*********************** Track 09 ***********************//

final_battle_vs_rayquaza_8:
	BYTE	KEYSH   final_battle_vs_rayquaza_key+0
	BYTE	W18
	BYTE		VOICE   127
	BYTE		VOL     78*final_battle_vs_rayquaza_mvl/mxv
	BYTE		PAN     c_v+0
	BYTE	W18
	BYTE		N12     En2   v052
	BYTE	W12
	BYTE		N02     Fs1   v056
	BYTE	W06
	BYTE		N02
	BYTE	W06
	BYTE		N02
	BYTE	W03
	BYTE		N03     Ds2   v032
	BYTE	W03
	BYTE		N04     En2   v040
	BYTE	W06
	BYTE		N02     Fs1   v056
	BYTE	W03
	BYTE		N03     Ds2   v032
	BYTE	W03
	BYTE		N04     En2   v040
	BYTE	W06
	BYTE		N02     Fs1   v056
	BYTE	W06
	BYTE		N02
	BYTE	W06
	BYTE		N02
	BYTE	W06
	BYTE		N02
	BYTE	W06
	BYTE		N12     En2   v052
	BYTE	W12
	BYTE		N02     Fs1   v056
	BYTE	W06
	BYTE		N02
	BYTE	W06
	BYTE	PEND
	BYTE		N12     En2   v052
	BYTE	W12
	BYTE		N02     Fs1   v056
	BYTE	W06
	BYTE		N02
	BYTE	W06
	BYTE		N02
	BYTE	W03
	BYTE		N03     Ds2   v032
	BYTE	W03
	BYTE		N02     Fs1   v056
	BYTE	W06
	BYTE		N12     En2   v052
	BYTE	W12
	BYTE		N02     Fs1   v056
	BYTE	W06
	BYTE		N02
	BYTE	W06
	BYTE		N02
	BYTE	W06
	BYTE		N02
	BYTE	W06
	BYTE		N12     Ds2   v052
	BYTE	W24
	BYTE		N12     En2   v052
	BYTE	W12
	BYTE		N02     Fs1   v056
	BYTE	W06
	BYTE		N02
	BYTE	W06
	BYTE		N02
	BYTE	W03
	BYTE		N03     Ds2   v032
	BYTE	W03
	BYTE		N04     En2   v040
	BYTE	W06
	BYTE		N02     Fs1   v056
	BYTE	W03
	BYTE		N03     Ds2   v032
	BYTE	W03
	BYTE		N04     En2   v040
	BYTE	W06
	BYTE		N02     Fs1   v056
	BYTE	W06
	BYTE		N02
	BYTE	W06
	BYTE		N02
	BYTE	W06
	BYTE		N02
	BYTE	W06
	BYTE		N12     En2   v052
	BYTE	W12
	BYTE		N02     Fs1   v056
	BYTE	W06
	BYTE		N02
	BYTE	W03
	BYTE		N03     Ds2   v032
	BYTE	W03
	BYTE	PEND
	BYTE		N03     En2   v052
	BYTE	W03
	BYTE		        Ds2   v032
	BYTE	W03
	BYTE		N02     Fs1   v056
	BYTE	W03
	BYTE		N03     Ds2   v032
	BYTE	W03
	BYTE		N02     Fs1   v056
	BYTE	W06
	BYTE		N02
	BYTE	W06
	BYTE		N02
	BYTE	W03
	BYTE		N03     Ds2   v032
	BYTE	W03
	BYTE		N04     En2   v040
	BYTE	W06
	BYTE		N02     Fs1   v056
	BYTE	W06
	BYTE		N06     En2 
	BYTE	W06
	BYTE		N02     Fs1 
	BYTE	W06
	BYTE		N02
	BYTE	W06
	BYTE		N02
	BYTE	W06
	BYTE		N02
	BYTE	W06
	BYTE		N12     En2   v052
	BYTE	W12
	BYTE		N02     Fs1   v056
	BYTE	W06
	BYTE		N02
	BYTE	W03
	BYTE		N03     Ds2   v032
	BYTE	W03
	BYTE	PEND
	BYTE	PATT
	 POIN2	final_battle_vs_rayquaza_8 + 0x65
	BYTE	PATT
	 POIN2	final_battle_vs_rayquaza_8 + 0x9E
	BYTE	PATT
	 POIN2	final_battle_vs_rayquaza_8 + 0x65
	BYTE	PATT
	 POIN2	final_battle_vs_rayquaza_8 + 0x9E
	BYTE	PATT
	 POIN2	final_battle_vs_rayquaza_8 + 0x65
	BYTE	PATT
	 POIN2	final_battle_vs_rayquaza_8 + 0x9E
	BYTE	PATT
	 POIN2	final_battle_vs_rayquaza_8 + 0x65
	BYTE	PATT
	 POIN2	final_battle_vs_rayquaza_8 + 0x9E
	BYTE	PATT
	 POIN2	final_battle_vs_rayquaza_8 + 0x65
	BYTE	PATT
	 POIN2	final_battle_vs_rayquaza_8 + 0x9E
	BYTE	PATT
	 POIN2	final_battle_vs_rayquaza_8 + 0x65
	BYTE	PATT
	 POIN2	final_battle_vs_rayquaza_8 + 0x9E
	BYTE	PATT
	 POIN2	final_battle_vs_rayquaza_8 + 0xA
	BYTE		N12     En2   v052
	BYTE	W12
	BYTE		N02     Fs1   v056
	BYTE	W06
	BYTE		N02
	BYTE	W06
	BYTE		N02
	BYTE	W03
	BYTE		N03     Ds2   v032
	BYTE	W03
	BYTE		N02     Fs1   v056
	BYTE	W06
	BYTE		N02
	BYTE	W06
	BYTE		N02
	BYTE	W06
	BYTE		N12     En2   v052
	BYTE	W12
	BYTE		N02     Fs1   v056
	BYTE	W06
	BYTE		N02
	BYTE	W06
	BYTE		N12     Ds2   v052
	BYTE	W24
	BYTE	PEND
	BYTE	PATT
	 POIN2	final_battle_vs_rayquaza_8 + 0x65
	BYTE	PATT
	 POIN2	final_battle_vs_rayquaza_8 + 0x9E
	BYTE	PATT
	 POIN2	final_battle_vs_rayquaza_8 + 0x65
	BYTE	PATT
	 POIN2	final_battle_vs_rayquaza_8 + 0x9E
	BYTE	PATT
	 POIN2	final_battle_vs_rayquaza_8 + 0x65
	BYTE	PATT
	 POIN2	final_battle_vs_rayquaza_8 + 0x9E
	BYTE	PATT
	 POIN2	final_battle_vs_rayquaza_8 + 0xA
	BYTE	PATT
	 POIN2	final_battle_vs_rayquaza_8 + 0x11D
	BYTE	PATT
	 POIN2	final_battle_vs_rayquaza_8 + 0x65
	BYTE	PATT
	 POIN2	final_battle_vs_rayquaza_8 + 0x9E
	BYTE	PATT
	 POIN2	final_battle_vs_rayquaza_8 + 0x65
	BYTE	PATT
	 POIN2	final_battle_vs_rayquaza_8 + 0x9E
	BYTE	PATT
	 POIN2	final_battle_vs_rayquaza_8 + 0x65
	BYTE	PATT
	 POIN2	final_battle_vs_rayquaza_8 + 0x9E
	BYTE	PATT
	 POIN2	final_battle_vs_rayquaza_8 + 0x65
	BYTE	PATT
	 POIN2	final_battle_vs_rayquaza_8 + 0x9E
	BYTE	PATT
	 POIN2	final_battle_vs_rayquaza_8 + 0x65
	BYTE	PATT
	 POIN2	final_battle_vs_rayquaza_8 + 0x9E
	BYTE	PATT
	 POIN2	final_battle_vs_rayquaza_8 + 0x65
	BYTE	PATT
	 POIN2	final_battle_vs_rayquaza_8 + 0x9E
	BYTE	PATT
	 POIN2	final_battle_vs_rayquaza_8 + 0x65
	BYTE	PATT
	 POIN2	final_battle_vs_rayquaza_8 + 0x9E
	BYTE	PATT
	 POIN2	final_battle_vs_rayquaza_8 + 0x65
	BYTE	PATT
	 POIN2	final_battle_vs_rayquaza_8 + 0x9E
	BYTE	PATT
	 POIN2	final_battle_vs_rayquaza_8 + 0x65
	BYTE	PATT
	 POIN2	final_battle_vs_rayquaza_8 + 0x9E
	BYTE	PATT
	 POIN2	final_battle_vs_rayquaza_8 + 0x65
	BYTE	PATT
	 POIN2	final_battle_vs_rayquaza_8 + 0x9E
	BYTE	PATT
	 POIN2	final_battle_vs_rayquaza_8 + 0x65
	BYTE	PATT
	 POIN2	final_battle_vs_rayquaza_8 + 0x9E
	BYTE	PATT
	 POIN2	final_battle_vs_rayquaza_8 + 0xA
	BYTE	PATT
	 POIN2	final_battle_vs_rayquaza_8 + 0x11D
	BYTE	PATT
	 POIN2	final_battle_vs_rayquaza_8 + 0x65
	BYTE	PATT
	 POIN2	final_battle_vs_rayquaza_8 + 0x9E
	BYTE	PATT
	 POIN2	final_battle_vs_rayquaza_8 + 0x65
	BYTE	PATT
	 POIN2	final_battle_vs_rayquaza_8 + 0x9E
	BYTE	PATT
	 POIN2	final_battle_vs_rayquaza_8 + 0x65
	BYTE	PATT
	 POIN2	final_battle_vs_rayquaza_8 + 0x9E
	BYTE	PATT
	 POIN2	final_battle_vs_rayquaza_8 + 0x65
	BYTE	PATT
	 POIN2	final_battle_vs_rayquaza_8 + 0x9E
	BYTE	PATT
	 POIN2	final_battle_vs_rayquaza_8 + 0x65
	BYTE	PATT
	 POIN2	final_battle_vs_rayquaza_8 + 0x9E
	BYTE	PATT
	 POIN2	final_battle_vs_rayquaza_8 + 0x65
	BYTE	PATT
	 POIN2	final_battle_vs_rayquaza_8 + 0x9E
	BYTE	PATT
	 POIN2	final_battle_vs_rayquaza_8 + 0x65
	BYTE	PATT
	 POIN2	final_battle_vs_rayquaza_8 + 0x9E
	BYTE	PATT
	 POIN2	final_battle_vs_rayquaza_8 + 0xA
	BYTE	PATT
	 POIN2	final_battle_vs_rayquaza_8 + 0x11D
	BYTE	PATT
	 POIN2	final_battle_vs_rayquaza_8 + 0x65
	BYTE	PATT
	 POIN2	final_battle_vs_rayquaza_8 + 0x9E
	BYTE	PATT
	 POIN2	final_battle_vs_rayquaza_8 + 0x65
	BYTE	PATT
	 POIN2	final_battle_vs_rayquaza_8 + 0x9E
	BYTE	PATT
	 POIN2	final_battle_vs_rayquaza_8 + 0x65
	BYTE	PATT
	 POIN2	final_battle_vs_rayquaza_8 + 0x9E
	BYTE	PATT
	 POIN2	final_battle_vs_rayquaza_8 + 0xA
	BYTE	PATT
	 POIN2	final_battle_vs_rayquaza_8 + 0x11D
	BYTE	PATT
	 POIN2	final_battle_vs_rayquaza_8 + 0x65
	BYTE	PATT
	 POIN2	final_battle_vs_rayquaza_8 + 0x9E
	BYTE	PATT
	 POIN2	final_battle_vs_rayquaza_8 + 0x65
	BYTE	PATT
	 POIN2	final_battle_vs_rayquaza_8 + 0x9E
	BYTE	PATT
	 POIN2	final_battle_vs_rayquaza_8 + 0x65
	BYTE	PATT
	 POIN2	final_battle_vs_rayquaza_8 + 0x9E
	BYTE	PATT
	 POIN2	final_battle_vs_rayquaza_8 + 0xA
	BYTE	PATT
	 POIN2	final_battle_vs_rayquaza_8 + 0x11D
	BYTE	PATT
	 POIN2	final_battle_vs_rayquaza_8 + 0x65
	BYTE	PATT
	 POIN2	final_battle_vs_rayquaza_8 + 0x9E
	BYTE	PATT
	 POIN2	final_battle_vs_rayquaza_8 + 0x65
	BYTE	PATT
	 POIN2	final_battle_vs_rayquaza_8 + 0x9E
	BYTE	PATT
	 POIN2	final_battle_vs_rayquaza_8 + 0x65
	BYTE	PATT
	 POIN2	final_battle_vs_rayquaza_8 + 0x9E
	BYTE	PATT
	 POIN2	final_battle_vs_rayquaza_8 + 0x65
	BYTE	PATT
	 POIN2	final_battle_vs_rayquaza_8 + 0x9E
	BYTE	GoTo
	 POIN2	final_battle_vs_rayquaza_8 + 0x194
	BYTE	FINE

//*********************** Track 10 ***********************//

final_battle_vs_rayquaza_9:
	BYTE	KEYSH   final_battle_vs_rayquaza_key+0
	BYTE	W19
	BYTE		VOICE   37
	BYTE		MOD     0
	BYTE		BENDR   12
	BYTE	W01
	BYTE		VOL     125*final_battle_vs_rayquaza_mvl/mxv
	BYTE		PAN     c_v+0
	BYTE		MODT    mod_vib
	BYTE	W16
	BYTE		BEND    c_v-11
	BYTE	W03
	BYTE		        c_v-6
	BYTE	W02
	BYTE		        c_v+0
	BYTE	W13
	BYTE		        c_v-7
	BYTE	W01
	BYTE		        c_v-12
	BYTE	W01
	BYTE		        c_v-16
	BYTE	W01
	BYTE		        c_v-21
	BYTE	W01
	BYTE		        c_v-26
	BYTE	W01
	BYTE		        c_v-32
	BYTE	W01
	BYTE		        c_v-37
	BYTE	W01
	BYTE		        c_v-41
	BYTE	W01
	BYTE		        c_v-46
	BYTE	W01
	BYTE		        c_v-55
	BYTE	W01
	BYTE		        c_v-60
	BYTE	W01
	BYTE		        c_v-64
	BYTE	W20
	BYTE		        c_v-52
	BYTE	W01
	BYTE		        c_v-14
	BYTE	W01
	BYTE		        c_v-6
	BYTE	W01
	BYTE		        c_v+0
	BYTE	W19
	BYTE		        c_v+0
	BYTE	W01
	BYTE		N32     Gn1   v127
	BYTE	W02
	BYTE		BEND    c_v+4
	BYTE	W03
	BYTE		        c_v+8
	BYTE	W03
	BYTE		        c_v+11
	BYTE	W03
	BYTE		        c_v+15
	BYTE	W03
	BYTE		        c_v+18
	BYTE	W03
	BYTE		        c_v+22
	BYTE	W03
	BYTE		        c_v+27
	BYTE	W02
	BYTE		        c_v+30
	BYTE	W02
	BYTE		        c_v+37
	BYTE	W12
	BYTE		N05     Gn2 
	BYTE	W06
	BYTE		        Gn1 
	BYTE	W06
	BYTE		        Gn2 
	BYTE	W06
	BYTE		N05
	BYTE	W06
	BYTE		        Gn1 
	BYTE	W06
	BYTE		N11
	BYTE	W12
	BYTE		N05
	BYTE	W06
	BYTE		        Gn2 
	BYTE	W06
	BYTE		N05
	BYTE	W06
	BYTE		N24
	BYTE	W02
	BYTE		VOL     103*final_battle_vs_rayquaza_mvl/mxv
	BYTE	W02
	BYTE		        92*final_battle_vs_rayquaza_mvl/mxv
	BYTE	W02
	BYTE		        79*final_battle_vs_rayquaza_mvl/mxv
	BYTE	W02
	BYTE		        62*final_battle_vs_rayquaza_mvl/mxv
	BYTE		BEND    c_v+33
	BYTE	W01
	BYTE		VOL     60*final_battle_vs_rayquaza_mvl/mxv
	BYTE		BEND    c_v+31
	BYTE	W01
	BYTE		VOL     54*final_battle_vs_rayquaza_mvl/mxv
	BYTE		BEND    c_v+29
	BYTE	W01
	BYTE		VOL     51*final_battle_vs_rayquaza_mvl/mxv
	BYTE		BEND    c_v+27
	BYTE	W01
	BYTE		VOL     46*final_battle_vs_rayquaza_mvl/mxv
	BYTE		BEND    c_v+24
	BYTE	W01
	BYTE		VOL     41*final_battle_vs_rayquaza_mvl/mxv
	BYTE		BEND    c_v+22
	BYTE	W01
	BYTE		VOL     36*final_battle_vs_rayquaza_mvl/mxv
	BYTE		BEND    c_v+20
	BYTE	W01
	BYTE		VOL     31*final_battle_vs_rayquaza_mvl/mxv
	BYTE		BEND    c_v+18
	BYTE	W01
	BYTE		VOL     26*final_battle_vs_rayquaza_mvl/mxv
	BYTE		BEND    c_v+15
	BYTE	W01
	BYTE		        c_v+13
	BYTE	W01
	BYTE		        c_v+11
	BYTE	W01
	BYTE		        c_v+9
	BYTE	W04
	BYTE		VOL     125*final_battle_vs_rayquaza_mvl/mxv
	BYTE		BEND    c_v+0
	BYTE	W01
	BYTE		BEND    c_v-11
	BYTE		N36     An2   v127
	BYTE	W03
	BYTE		BEND    c_v-6
	BYTE	W02
	BYTE		        c_v+0
	BYTE	W13
	BYTE		        c_v-7
	BYTE	W01
	BYTE		        c_v-12
	BYTE	W01
	BYTE		        c_v-16
	BYTE	W01
	BYTE		        c_v-21
	BYTE	W01
	BYTE		        c_v-26
	BYTE	W01
	BYTE		        c_v-32
	BYTE	W01
	BYTE		        c_v-37
	BYTE	W01
	BYTE		        c_v-41
	BYTE	W01
	BYTE		        c_v-46
	BYTE	W01
	BYTE		        c_v-55
	BYTE	W01
	BYTE		        c_v-60
	BYTE	W01
	BYTE		        c_v-64
	BYTE	W20
	BYTE		        c_v-52
	BYTE	W01
	BYTE		        c_v-14
	BYTE	W01
	BYTE		        c_v-6
	BYTE	W01
	BYTE		        c_v+0
	BYTE	W20
	BYTE		N06     Dn3 
	BYTE	W06
	BYTE		        An2   v092
	BYTE	W06
	BYTE		N04     Cn3   v127
	BYTE	W06
	BYTE		N06     Gn2 
	BYTE	W06
	BYTE	PEND
	BYTE		BEND    c_v-11
	BYTE		N12     An2   v127
	BYTE	W03
	BYTE		BEND    c_v-6
	BYTE	W02
	BYTE		        c_v+0
	BYTE	W07
	BYTE		N12     An2   v092
	BYTE	W12
	BYTE		N02     Dn2   v127
	BYTE	W12
	BYTE		BEND    c_v-6
	BYTE		N12     Dn3 
	BYTE	W01
	BYTE		BEND    c_v-3
	BYTE	W02
	BYTE		        c_v+0
	BYTE	W09
	BYTE		N12     Dn3   v092
	BYTE	W12
	BYTE		N02     An2   v127
	BYTE	W12
	BYTE		BEND    c_v-11
	BYTE		N12     Gn3 
	BYTE	W01
	BYTE		BEND    c_v-6
	BYTE	W02
	BYTE		        c_v+0
	BYTE	W09
	BYTE		N12     Gn3   v088
	BYTE	W12
	BYTE	PEND
	BYTE		BEND    c_v-11
	BYTE		N36     Cn3   v127
	BYTE	W03
	BYTE		BEND    c_v-6
	BYTE	W02
	BYTE		        c_v+0
	BYTE	W13
	BYTE		        c_v-7
	BYTE	W01
	BYTE		        c_v-12
	BYTE	W01
	BYTE		        c_v-16
	BYTE	W01
	BYTE		        c_v-21
	BYTE	W01
	BYTE		        c_v-26
	BYTE	W01
	BYTE		        c_v-32
	BYTE	W01
	BYTE		        c_v-37
	BYTE	W01
	BYTE		        c_v-41
	BYTE	W01
	BYTE		        c_v-46
	BYTE	W01
	BYTE		        c_v-55
	BYTE	W01
	BYTE		        c_v-60
	BYTE	W01
	BYTE		        c_v-64
	BYTE	W20
	BYTE		        c_v-52
	BYTE	W01
	BYTE		        c_v-14
	BYTE	W01
	BYTE		        c_v-6
	BYTE	W01
	BYTE		        c_v+0
	BYTE	W20
	BYTE		N06     Fn3 
	BYTE	W06
	BYTE		        Cn3   v092
	BYTE	W06
	BYTE		N04     Dn3   v127
	BYTE	W06
	BYTE		N06     An2 
	BYTE	W06
	BYTE	PEND
	BYTE		BEND    c_v-11
	BYTE		N12     Cn3   v127
	BYTE	W03
	BYTE		BEND    c_v-6
	BYTE	W02
	BYTE		        c_v+0
	BYTE	W07
	BYTE		N12     Cn3   v092
	BYTE	W12
	BYTE		N02     Fn2   v127
	BYTE	W12
	BYTE		BEND    c_v-6
	BYTE		N12     Fn3 
	BYTE	W01
	BYTE		BEND    c_v-3
	BYTE	W02
	BYTE		        c_v+0
	BYTE	W09
	BYTE		N12     Fn3   v092
	BYTE	W12
	BYTE		N02     Cn3   v127
	BYTE	W12
	BYTE		BEND    c_v-11
	BYTE		N12     An3 
	BYTE	W01
	BYTE		BEND    c_v-6
	BYTE	W02
	BYTE		        c_v+0
	BYTE	W09
	BYTE		N12     An3   v088
	BYTE	W12
	BYTE	PEND
	BYTE		BEND    c_v-11
	BYTE		N36     Dn3   v127
	BYTE	W03
	BYTE		BEND    c_v-6
	BYTE	W02
	BYTE		        c_v+0
	BYTE	W13
	BYTE		        c_v-7
	BYTE	W01
	BYTE		        c_v-12
	BYTE	W01
	BYTE		        c_v-16
	BYTE	W01
	BYTE		        c_v-21
	BYTE	W01
	BYTE		        c_v-26
	BYTE	W01
	BYTE		        c_v-32
	BYTE	W01
	BYTE		        c_v-37
	BYTE	W01
	BYTE		        c_v-41
	BYTE	W01
	BYTE		        c_v-46
	BYTE	W01
	BYTE		        c_v-55
	BYTE	W01
	BYTE		        c_v-60
	BYTE	W01
	BYTE		        c_v-64
	BYTE	W20
	BYTE		        c_v-52
	BYTE	W01
	BYTE		        c_v-14
	BYTE	W01
	BYTE		        c_v-6
	BYTE	W01
	BYTE		        c_v+0
	BYTE	W14
	BYTE		N06     An2 
	BYTE	W06
	BYTE		        Dn3 
	BYTE	W06
	BYTE		        Fn2   v092
	BYTE	W06
	BYTE		N04     Cn3   v127
	BYTE	W06
	BYTE		N06     Gn2 
	BYTE	W06
	BYTE	PEND
	BYTE		BEND    c_v-11
	BYTE		N24     Dn3   v127
	BYTE	W03
	BYTE		BEND    c_v-6
	BYTE	W02
	BYTE		        c_v+0
	BYTE	W30
	BYTE	W01
	BYTE		        c_v-6
	BYTE		N24     Gn2 
	BYTE	W01
	BYTE		BEND    c_v-3
	BYTE	W02
	BYTE		        c_v+0
	BYTE	W32
	BYTE	W01
	BYTE		        c_v-11
	BYTE		N24     Cn3 
	BYTE	W01
	BYTE		BEND    c_v-6
	BYTE	W02
	BYTE		        c_v+0
	BYTE	W21
	BYTE	PEND
	BYTE		BEND    c_v-11
	BYTE		N12     Fn2   v127
	BYTE	W05
	BYTE		BEND    c_v-6
	BYTE	W02
	BYTE		        c_v+0
	BYTE	W05
	BYTE		N12     Fn2   v092
	BYTE	W24
	BYTE		        As2   v127
	BYTE	W12
	BYTE		        As2   v092
	BYTE	W12
	BYTE		N06     Dn2   v127
	BYTE	W06
	BYTE		        Fn2 
	BYTE	W06
	BYTE		        Cn3 
	BYTE	W06
	BYTE		        Fn2   v092
	BYTE	W06
	BYTE		N12     As2 
	BYTE	W12
	BYTE	PEND
	BYTE		BEND    c_v-11
	BYTE		N12     Gn2   v127
	BYTE	W05
	BYTE		BEND    c_v-6
	BYTE	W02
	BYTE		        c_v+0
	BYTE	W05
	BYTE		N12     Gn2   v092
	BYTE	W12
	BYTE		N02     Cn2   v127
	BYTE	W12
	BYTE		N12     Cn3 
	BYTE	W12
	BYTE		        Cn3   v092
	BYTE	W12
	BYTE		N02     Gn2   v127
	BYTE	W12
	BYTE		N12     Fn3 
	BYTE	W02
	BYTE		VOL     103*final_battle_vs_rayquaza_mvl/mxv
	BYTE	W02
	BYTE		        92*final_battle_vs_rayquaza_mvl/mxv
	BYTE	W02
	BYTE		        79*final_battle_vs_rayquaza_mvl/mxv
	BYTE	W02
	BYTE		        62*final_battle_vs_rayquaza_mvl/mxv
	BYTE		BEND    c_v+0
	BYTE	W01
	BYTE		VOL     60*final_battle_vs_rayquaza_mvl/mxv
	BYTE		BEND    c_v-2
	BYTE	W01
	BYTE		VOL     54*final_battle_vs_rayquaza_mvl/mxv
	BYTE		BEND    c_v-4
	BYTE	W01
	BYTE		VOL     51*final_battle_vs_rayquaza_mvl/mxv
	BYTE		BEND    c_v-6
	BYTE	W01
	BYTE		VOL     46*final_battle_vs_rayquaza_mvl/mxv
	BYTE		BEND    c_v-9
	BYTE		N12     Fn3   v088
	BYTE	W01
	BYTE		VOL     41*final_battle_vs_rayquaza_mvl/mxv
	BYTE		BEND    c_v-11
	BYTE	W01
	BYTE		VOL     36*final_battle_vs_rayquaza_mvl/mxv
	BYTE		BEND    c_v-13
	BYTE	W01
	BYTE		VOL     31*final_battle_vs_rayquaza_mvl/mxv
	BYTE		BEND    c_v-15
	BYTE	W01
	BYTE		VOL     26*final_battle_vs_rayquaza_mvl/mxv
	BYTE		BEND    c_v-18
	BYTE	W01
	BYTE		        c_v-20
	BYTE	W01
	BYTE		        c_v-22
	BYTE	W01
	BYTE		        c_v-24
	BYTE	W04
	BYTE		VOL     125*final_battle_vs_rayquaza_mvl/mxv
	BYTE		BEND    c_v+0
	BYTE	W01
	BYTE	PEND
	BYTE	PATT
	 POIN2	final_battle_vs_rayquaza_9 + 0xA4
	BYTE	PATT
	 POIN2	final_battle_vs_rayquaza_9 + 0xDD
	BYTE	PATT
	 POIN2	final_battle_vs_rayquaza_9 + 0x111
	BYTE	PATT
	 POIN2	final_battle_vs_rayquaza_9 + 0x14A
	BYTE	PATT
	 POIN2	final_battle_vs_rayquaza_9 + 0x17E
	BYTE	PATT
	 POIN2	final_battle_vs_rayquaza_9 + 0x1B9
	BYTE	PATT
	 POIN2	final_battle_vs_rayquaza_9 + 0x1D9
	BYTE		BEND    c_v-11
	BYTE		N12     Gn2   v127
	BYTE	W05
	BYTE		BEND    c_v-6
	BYTE	W02
	BYTE		        c_v+0
	BYTE	W05
	BYTE		N12     Gn2   v092
	BYTE	W12
	BYTE		N02     Cn2   v127
	BYTE	W12
	BYTE		N12     Cn3 
	BYTE	W12
	BYTE		        Cn3   v092
	BYTE	W12
	BYTE		N02     Gn2   v127
	BYTE	W12
	BYTE		N24
	BYTE	W02
	BYTE		VOL     103*final_battle_vs_rayquaza_mvl/mxv
	BYTE	W02
	BYTE		        92*final_battle_vs_rayquaza_mvl/mxv
	BYTE	W02
	BYTE		        79*final_battle_vs_rayquaza_mvl/mxv
	BYTE	W02
	BYTE		        62*final_battle_vs_rayquaza_mvl/mxv
	BYTE		BEND    c_v+0
	BYTE	W01
	BYTE		VOL     60*final_battle_vs_rayquaza_mvl/mxv
	BYTE		BEND    c_v-2
	BYTE	W01
	BYTE		VOL     54*final_battle_vs_rayquaza_mvl/mxv
	BYTE		BEND    c_v-4
	BYTE	W01
	BYTE		VOL     51*final_battle_vs_rayquaza_mvl/mxv
	BYTE		BEND    c_v-6
	BYTE	W01
	BYTE		VOL     46*final_battle_vs_rayquaza_mvl/mxv
	BYTE		BEND    c_v-9
	BYTE	W01
	BYTE		VOL     41*final_battle_vs_rayquaza_mvl/mxv
	BYTE		BEND    c_v-11
	BYTE	W01
	BYTE		VOL     36*final_battle_vs_rayquaza_mvl/mxv
	BYTE		BEND    c_v-13
	BYTE	W01
	BYTE		VOL     31*final_battle_vs_rayquaza_mvl/mxv
	BYTE		BEND    c_v-15
	BYTE	W01
	BYTE		VOL     26*final_battle_vs_rayquaza_mvl/mxv
	BYTE		BEND    c_v-18
	BYTE	W01
	BYTE		        c_v-20
	BYTE	W01
	BYTE		        c_v-22
	BYTE	W01
	BYTE		        c_v-24
	BYTE	W04
	BYTE		VOL     125*final_battle_vs_rayquaza_mvl/mxv
	BYTE		BEND    c_v+0
	BYTE	W01
	BYTE	PEND
	BYTE		N12     An2   v127
	BYTE	W12
	BYTE		N06     Gn2 
	BYTE	W06
	BYTE		        An2 
	BYTE	W06
	BYTE		N01     Dn2   v052
	BYTE	W06
	BYTE		N06     Dn3   v127
	BYTE	W06
	BYTE		N01     Dn2   v052
	BYTE	W06
	BYTE		N06     An2   v127
	BYTE	W06
	BYTE		N01     En2   v052
	BYTE	W06
	BYTE		N06     Dn3   v127
	BYTE	W06
	BYTE		        An2 
	BYTE	W06
	BYTE		        Dn2 
	BYTE	W06
	BYTE		N01     An1   v052
	BYTE	W06
	BYTE		N06     Cn2   v127
	BYTE	W06
	BYTE		        An2 
	BYTE	W06
	BYTE		        Dn2 
	BYTE	W06
	BYTE	PEND
	BYTE		N12     Cn3   v127
	BYTE	W12
	BYTE		N06     Fn2 
	BYTE	W06
	BYTE		        Fn3 
	BYTE	W06
	BYTE		        En3 
	BYTE	W06
	BYTE		        Fn3 
	BYTE	W06
	BYTE		N01     Fn2   v052
	BYTE	W06
	BYTE		N06     Cn3   v127
	BYTE	W06
	BYTE		N01     Fn2   v052
	BYTE	W06
	BYTE		N06     En2   v127
	BYTE	W06
	BYTE		        Fn2 
	BYTE	W06
	BYTE		        An2 
	BYTE	W12
	BYTE		        An1 
	BYTE	W06
	BYTE		        Cn2 
	BYTE	W06
	BYTE		        An1 
	BYTE	W06
	BYTE	PEND
	BYTE		N12     Dn2   v127
	BYTE	W12
	BYTE		N06     Cn2 
	BYTE	W06
	BYTE		        Dn2 
	BYTE	W06
	BYTE		N01     An1   v052
	BYTE	W06
	BYTE		N06     Gn2   v127
	BYTE	W06
	BYTE		N01     Dn2   v052
	BYTE	W06
	BYTE		N06     An2   v127
	BYTE	W06
	BYTE		N01     Dn2   v052
	BYTE	W06
	BYTE		N06     Cn2   v127
	BYTE	W06
	BYTE		        Dn2 
	BYTE	W06
	BYTE		        An1 
	BYTE	W06
	BYTE		N01     Dn2   v052
	BYTE	W12
	BYTE		N18     Fn2   v127
	BYTE	W12
	BYTE	PEND
	BYTE	W12
	BYTE		N06     Dn2   v127
	BYTE	W06
	BYTE		N01     As1   v052
	BYTE	W06
	BYTE		N06     Fn2   v127
	BYTE	W06
	BYTE		N01     As1   v052
	BYTE	W06
	BYTE		N18     Gn2   v127
	BYTE	W18
	BYTE		N01     Cn2   v052
	BYTE	W06
	BYTE		N06     Dn2   v127
	BYTE	W06
	BYTE		N01     Cn2   v052
	BYTE	W06
	BYTE		N24     Gn2   v127
	BYTE	W02
	BYTE		VOL     103*final_battle_vs_rayquaza_mvl/mxv
	BYTE	W02
	BYTE		        92*final_battle_vs_rayquaza_mvl/mxv
	BYTE	W02
	BYTE		        79*final_battle_vs_rayquaza_mvl/mxv
	BYTE	W02
	BYTE		        62*final_battle_vs_rayquaza_mvl/mxv
	BYTE		BEND    c_v+0
	BYTE	W01
	BYTE		VOL     60*final_battle_vs_rayquaza_mvl/mxv
	BYTE		BEND    c_v-2
	BYTE	W01
	BYTE		VOL     54*final_battle_vs_rayquaza_mvl/mxv
	BYTE		BEND    c_v-4
	BYTE	W01
	BYTE		VOL     51*final_battle_vs_rayquaza_mvl/mxv
	BYTE		BEND    c_v-6
	BYTE	W01
	BYTE		VOL     46*final_battle_vs_rayquaza_mvl/mxv
	BYTE		BEND    c_v-9
	BYTE	W01
	BYTE		VOL     41*final_battle_vs_rayquaza_mvl/mxv
	BYTE		BEND    c_v-11
	BYTE	W01
	BYTE		VOL     36*final_battle_vs_rayquaza_mvl/mxv
	BYTE		BEND    c_v-13
	BYTE	W01
	BYTE		VOL     31*final_battle_vs_rayquaza_mvl/mxv
	BYTE		BEND    c_v-15
	BYTE	W01
	BYTE		VOL     26*final_battle_vs_rayquaza_mvl/mxv
	BYTE		BEND    c_v-18
	BYTE	W01
	BYTE		        c_v-20
	BYTE	W01
	BYTE		        c_v-22
	BYTE	W01
	BYTE		        c_v-24
	BYTE	W04
	BYTE		VOL     125*final_battle_vs_rayquaza_mvl/mxv
	BYTE		BEND    c_v+0
	BYTE	W01
	BYTE	PEND
	BYTE	PATT
	 POIN2	final_battle_vs_rayquaza_9 + 0x2E0
	BYTE	PATT
	 POIN2	final_battle_vs_rayquaza_9 + 0x312
	BYTE	PATT
	 POIN2	final_battle_vs_rayquaza_9 + 0x33A
	BYTE	PATT
	 POIN2	final_battle_vs_rayquaza_9 + 0x368
	BYTE	PATT
	 POIN2	final_battle_vs_rayquaza_9 + 0xA4
	BYTE	PATT
	 POIN2	final_battle_vs_rayquaza_9 + 0xDD
	BYTE	PATT
	 POIN2	final_battle_vs_rayquaza_9 + 0x111
	BYTE	PATT
	 POIN2	final_battle_vs_rayquaza_9 + 0x14A
	BYTE	PATT
	 POIN2	final_battle_vs_rayquaza_9 + 0x17E
	BYTE	PATT
	 POIN2	final_battle_vs_rayquaza_9 + 0x1B9
	BYTE	PATT
	 POIN2	final_battle_vs_rayquaza_9 + 0x1D9
	BYTE	PATT
	 POIN2	final_battle_vs_rayquaza_9 + 0x1FD
	BYTE	PATT
	 POIN2	final_battle_vs_rayquaza_9 + 0xA4
	BYTE	PATT
	 POIN2	final_battle_vs_rayquaza_9 + 0xDD
	BYTE	PATT
	 POIN2	final_battle_vs_rayquaza_9 + 0x111
	BYTE	PATT
	 POIN2	final_battle_vs_rayquaza_9 + 0x14A
	BYTE	PATT
	 POIN2	final_battle_vs_rayquaza_9 + 0x17E
	BYTE	PATT
	 POIN2	final_battle_vs_rayquaza_9 + 0x1B9
	BYTE	PATT
	 POIN2	final_battle_vs_rayquaza_9 + 0x1D9
	BYTE		BEND    c_v-11
	BYTE		N12     Gn2   v127
	BYTE	W05
	BYTE		BEND    c_v-6
	BYTE	W02
	BYTE		        c_v+0
	BYTE	W05
	BYTE		N12     Gn2   v092
	BYTE	W12
	BYTE		N02     Cn2   v127
	BYTE	W12
	BYTE		N12     Cn3 
	BYTE	W12
	BYTE		        Cn3   v092
	BYTE	W12
	BYTE		N02     Gn2   v127
	BYTE	W12
	BYTE		N24
	BYTE	W02
	BYTE		VOL     103*final_battle_vs_rayquaza_mvl/mxv
	BYTE	W02
	BYTE		        92*final_battle_vs_rayquaza_mvl/mxv
	BYTE	W02
	BYTE		        79*final_battle_vs_rayquaza_mvl/mxv
	BYTE	W02
	BYTE		        62*final_battle_vs_rayquaza_mvl/mxv
	BYTE		BEND    c_v+0
	BYTE	W01
	BYTE		VOL     60*final_battle_vs_rayquaza_mvl/mxv
	BYTE		BEND    c_v-2
	BYTE	W01
	BYTE		VOL     54*final_battle_vs_rayquaza_mvl/mxv
	BYTE		BEND    c_v-4
	BYTE	W01
	BYTE		VOL     51*final_battle_vs_rayquaza_mvl/mxv
	BYTE		BEND    c_v-6
	BYTE	W01
	BYTE		VOL     46*final_battle_vs_rayquaza_mvl/mxv
	BYTE		BEND    c_v-9
	BYTE	W01
	BYTE		VOL     41*final_battle_vs_rayquaza_mvl/mxv
	BYTE		BEND    c_v-11
	BYTE	W01
	BYTE		VOL     36*final_battle_vs_rayquaza_mvl/mxv
	BYTE		BEND    c_v-13
	BYTE	W01
	BYTE		VOL     31*final_battle_vs_rayquaza_mvl/mxv
	BYTE		BEND    c_v-15
	BYTE	W01
	BYTE		VOL     26*final_battle_vs_rayquaza_mvl/mxv
	BYTE		BEND    c_v-18
	BYTE	W01
	BYTE		        c_v-20
	BYTE	W01
	BYTE		        c_v-22
	BYTE	W01
	BYTE		        c_v-24
	BYTE	W04
	BYTE		VOL     125*final_battle_vs_rayquaza_mvl/mxv
	BYTE		BEND    c_v-11
	BYTE	W01
	BYTE		N30     An2   v127
	BYTE	W02
	BYTE		BEND    c_v-6
	BYTE	W03
	BYTE		        c_v+0
	BYTE	W24
	BYTE	W01
	BYTE		N06     Gn2 
	BYTE	W06
	BYTE		N01     Dn2   v052
	BYTE	W05
	BYTE		BEND    c_v-11
	BYTE	W01
	BYTE		N30     An2   v127
	BYTE	W01
	BYTE		BEND    c_v-6
	BYTE	W01
	BYTE		        c_v+0
	BYTE	W28
	BYTE		N01     An1   v052
	BYTE	W12
	BYTE		N12     Cn2   v127
	BYTE	W12
	BYTE	PEND
	BYTE		N12     Dn2   v127
	BYTE	W12
	BYTE		N06     Cn2 
	BYTE	W06
	BYTE		        Dn2 
	BYTE	W12
	BYTE		        Gn2 
	BYTE	W06
	BYTE		N01     Dn2   v052
	BYTE	W06
	BYTE		N06     An2   v127
	BYTE	W06
	BYTE		N01     Dn2   v052
	BYTE	W06
	BYTE		N06     Dn3   v127
	BYTE	W06
	BYTE		N01     An2   v052
	BYTE	W06
	BYTE		N06     Cn3   v127
	BYTE	W06
	BYTE		N01     Dn2   v052
	BYTE	W06
	BYTE		N06     Gn2   v127
	BYTE	W06
	BYTE		N12     An2 
	BYTE	W11
	BYTE		BEND    c_v-11
	BYTE	W01
	BYTE	PEND
	BYTE		N30     Cn3   v127
	BYTE	W02
	BYTE		BEND    c_v-6
	BYTE	W03
	BYTE		        c_v+0
	BYTE	W24
	BYTE	W01
	BYTE		N06     As2 
	BYTE	W06
	BYTE		N01     Fn2   v052
	BYTE	W05
	BYTE		BEND    c_v-11
	BYTE	W01
	BYTE		N30     Cn3   v127
	BYTE	W01
	BYTE		BEND    c_v-6
	BYTE	W01
	BYTE		        c_v+0
	BYTE	W28
	BYTE		N01     Fn2   v052
	BYTE	W12
	BYTE		N12     As2   v127
	BYTE	W12
	BYTE	PEND
	BYTE		N12     Fn3   v127
	BYTE	W12
	BYTE		N06     Ds3 
	BYTE	W06
	BYTE		        Fn3 
	BYTE	W12
	BYTE		        Cn3 
	BYTE	W06
	BYTE		N01     Fn2   v052
	BYTE	W06
	BYTE		N06     Ds3   v127
	BYTE	W06
	BYTE		N01     Fn2   v052
	BYTE	W06
	BYTE		N06     As2   v127
	BYTE	W06
	BYTE		        Cn3 
	BYTE	W06
	BYTE		N01     Fn2   v052
	BYTE	W06
	BYTE		N06     Dn3   v127
	BYTE	W06
	BYTE		        Fn2   v080
	BYTE	W06
	BYTE		        Gn2   v127
	BYTE	W06
	BYTE		        Dn2   v080
	BYTE	W05
	BYTE		BEND    c_v-11
	BYTE	W01
	BYTE	PEND
	BYTE		N30     Dn3   v127
	BYTE	W02
	BYTE		BEND    c_v-6
	BYTE	W03
	BYTE		        c_v+0
	BYTE	W24
	BYTE	W01
	BYTE		N06     Cn3 
	BYTE	W06
	BYTE		N01     An2   v052
	BYTE	W05
	BYTE		BEND    c_v-11
	BYTE	W01
	BYTE		N30     Dn3   v127
	BYTE	W01
	BYTE		BEND    c_v-6
	BYTE	W01
	BYTE		        c_v+0
	BYTE	W28
	BYTE		N01     Dn2   v052
	BYTE	W12
	BYTE		N12     An2   v127
	BYTE	W12
	BYTE	PEND
	BYTE		N12     Dn3   v127
	BYTE	W12
	BYTE		N06     Cn3 
	BYTE	W06
	BYTE		        Dn3 
	BYTE	W12
	BYTE		        Cn3 
	BYTE	W06
	BYTE		N01     An2   v052
	BYTE	W06
	BYTE		N06     Gn3   v127
	BYTE	W12
	BYTE		        Fn3 
	BYTE	W06
	BYTE		N01     Dn3   v052
	BYTE	W06
	BYTE		N06     En3   v127
	BYTE	W06
	BYTE		N01     Gn2   v052
	BYTE	W06
	BYTE		N06     Fn3   v127
	BYTE	W06
	BYTE		N12     Dn3 
	BYTE	W12
	BYTE	PEND
	BYTE		N12     Fn3   v127
	BYTE	W12
	BYTE		N06     Ds3 
	BYTE	W06
	BYTE		        Fn3 
	BYTE	W06
	BYTE		N01     Fn2   v052
	BYTE	W12
	BYTE		N12     Fn3   v127
	BYTE	W12
	BYTE		N06     Ds3 
	BYTE	W06
	BYTE		        Fn3 
	BYTE	W06
	BYTE		N01     Cn3   v052
	BYTE	W06
	BYTE		N06     Fn3   v127
	BYTE	W06
	BYTE		N01     Fn2   v052
	BYTE	W06
	BYTE		N06     Cn4   v127
	BYTE	W06
	BYTE		N12     As3 
	BYTE	W12
	BYTE	PEND
	BYTE		        Gn3 
	BYTE	W12
	BYTE		N06     Fn3 
	BYTE	W06
	BYTE		        Gn3 
	BYTE	W06
	BYTE		N01     Gn2   v052
	BYTE	W06
	BYTE		N06     Ds3   v127
	BYTE	W06
	BYTE		N01     Ds2   v052
	BYTE	W06
	BYTE		N06     Fn3   v127
	BYTE	W06
	BYTE		N01     Fn2   v052
	BYTE	W06
	BYTE		N06     As2   v127
	BYTE	W06
	BYTE		        Cn3 
	BYTE	W06
	BYTE		N01     Gn2   v052
	BYTE	W06
	BYTE		N24     Dn3   v127
	BYTE	W02
	BYTE		VOL     103*final_battle_vs_rayquaza_mvl/mxv
	BYTE	W02
	BYTE		        92*final_battle_vs_rayquaza_mvl/mxv
	BYTE	W02
	BYTE		        79*final_battle_vs_rayquaza_mvl/mxv
	BYTE	W02
	BYTE		        62*final_battle_vs_rayquaza_mvl/mxv
	BYTE		BEND    c_v+0
	BYTE	W01
	BYTE		VOL     60*final_battle_vs_rayquaza_mvl/mxv
	BYTE		BEND    c_v-2
	BYTE	W01
	BYTE		VOL     54*final_battle_vs_rayquaza_mvl/mxv
	BYTE		BEND    c_v-4
	BYTE	W01
	BYTE		VOL     51*final_battle_vs_rayquaza_mvl/mxv
	BYTE		BEND    c_v-6
	BYTE	W01
	BYTE		VOL     46*final_battle_vs_rayquaza_mvl/mxv
	BYTE		BEND    c_v-9
	BYTE	W01
	BYTE		VOL     41*final_battle_vs_rayquaza_mvl/mxv
	BYTE		BEND    c_v-11
	BYTE	W01
	BYTE		VOL     36*final_battle_vs_rayquaza_mvl/mxv
	BYTE		BEND    c_v-13
	BYTE	W01
	BYTE		VOL     31*final_battle_vs_rayquaza_mvl/mxv
	BYTE		BEND    c_v-15
	BYTE	W01
	BYTE		VOL     26*final_battle_vs_rayquaza_mvl/mxv
	BYTE		BEND    c_v-18
	BYTE	W01
	BYTE		        c_v-20
	BYTE	W01
	BYTE		        c_v-22
	BYTE	W01
	BYTE		        c_v-24
	BYTE	W04
	BYTE		VOL     125*final_battle_vs_rayquaza_mvl/mxv
	BYTE		BEND    c_v-11
	BYTE	W01
	BYTE	PATT
	 POIN2	final_battle_vs_rayquaza_9 + 0x488
	BYTE	PATT
	 POIN2	final_battle_vs_rayquaza_9 + 0x4AE
	BYTE	PATT
	 POIN2	final_battle_vs_rayquaza_9 + 0x4E0
	BYTE	PATT
	 POIN2	final_battle_vs_rayquaza_9 + 0x506
	BYTE	PATT
	 POIN2	final_battle_vs_rayquaza_9 + 0x538
	BYTE	PATT
	 POIN2	final_battle_vs_rayquaza_9 + 0x55E
	BYTE	PATT
	 POIN2	final_battle_vs_rayquaza_9 + 0x587
	BYTE		N12     Gn3   v127
	BYTE	W12
	BYTE		N06     Fn3 
	BYTE	W06
	BYTE		        Gn3 
	BYTE	W06
	BYTE		N01     Gn2   v052
	BYTE	W06
	BYTE		N06     Ds3   v127
	BYTE	W06
	BYTE		N01     Ds2   v052
	BYTE	W06
	BYTE		N06     Fn3   v127
	BYTE	W06
	BYTE		N01     Fn2   v052
	BYTE	W06
	BYTE		N06     As2   v127
	BYTE	W06
	BYTE		        Cn3 
	BYTE	W06
	BYTE		N01     Gn2   v052
	BYTE	W06
	BYTE		N24     Dn3   v127
	BYTE	W02
	BYTE		VOL     103*final_battle_vs_rayquaza_mvl/mxv
	BYTE	W02
	BYTE		        92*final_battle_vs_rayquaza_mvl/mxv
	BYTE	W02
	BYTE		        79*final_battle_vs_rayquaza_mvl/mxv
	BYTE	W02
	BYTE		        62*final_battle_vs_rayquaza_mvl/mxv
	BYTE		BEND    c_v+0
	BYTE	W01
	BYTE		VOL     60*final_battle_vs_rayquaza_mvl/mxv
	BYTE		BEND    c_v-2
	BYTE	W01
	BYTE		VOL     54*final_battle_vs_rayquaza_mvl/mxv
	BYTE		BEND    c_v-4
	BYTE	W01
	BYTE		VOL     51*final_battle_vs_rayquaza_mvl/mxv
	BYTE		BEND    c_v-6
	BYTE	W01
	BYTE		VOL     46*final_battle_vs_rayquaza_mvl/mxv
	BYTE		BEND    c_v-9
	BYTE	W01
	BYTE		VOL     41*final_battle_vs_rayquaza_mvl/mxv
	BYTE		BEND    c_v-11
	BYTE	W01
	BYTE		VOL     36*final_battle_vs_rayquaza_mvl/mxv
	BYTE		BEND    c_v-13
	BYTE	W01
	BYTE		VOL     31*final_battle_vs_rayquaza_mvl/mxv
	BYTE		BEND    c_v-15
	BYTE	W01
	BYTE		VOL     26*final_battle_vs_rayquaza_mvl/mxv
	BYTE		BEND    c_v-18
	BYTE	W01
	BYTE		        c_v-20
	BYTE	W01
	BYTE		        c_v-22
	BYTE	W01
	BYTE		        c_v-24
	BYTE	W04
	BYTE		VOL     125*final_battle_vs_rayquaza_mvl/mxv
	BYTE		BEND    c_v+0
	BYTE	W01
	BYTE	PATT
	 POIN2	final_battle_vs_rayquaza_9 + 0xA4
	BYTE	PATT
	 POIN2	final_battle_vs_rayquaza_9 + 0xDD
	BYTE	PATT
	 POIN2	final_battle_vs_rayquaza_9 + 0x111
	BYTE	PATT
	 POIN2	final_battle_vs_rayquaza_9 + 0x14A
	BYTE	PATT
	 POIN2	final_battle_vs_rayquaza_9 + 0x17E
	BYTE	PATT
	 POIN2	final_battle_vs_rayquaza_9 + 0x1B9
	BYTE	PATT
	 POIN2	final_battle_vs_rayquaza_9 + 0x1D9
	BYTE	PATT
	 POIN2	final_battle_vs_rayquaza_9 + 0x1FD
	BYTE	PATT
	 POIN2	final_battle_vs_rayquaza_9 + 0xA4
	BYTE	PATT
	 POIN2	final_battle_vs_rayquaza_9 + 0xDD
	BYTE	PATT
	 POIN2	final_battle_vs_rayquaza_9 + 0x111
	BYTE	PATT
	 POIN2	final_battle_vs_rayquaza_9 + 0x14A
	BYTE	PATT
	 POIN2	final_battle_vs_rayquaza_9 + 0x17E
	BYTE	PATT
	 POIN2	final_battle_vs_rayquaza_9 + 0x1B9
	BYTE	PATT
	 POIN2	final_battle_vs_rayquaza_9 + 0x1D9
	BYTE	PATT
	 POIN2	final_battle_vs_rayquaza_9 + 0x282
	BYTE	PATT
	 POIN2	final_battle_vs_rayquaza_9 + 0x2E0
	BYTE	PATT
	 POIN2	final_battle_vs_rayquaza_9 + 0x312
	BYTE	PATT
	 POIN2	final_battle_vs_rayquaza_9 + 0x33A
	BYTE	PATT
	 POIN2	final_battle_vs_rayquaza_9 + 0x368
	BYTE	PATT
	 POIN2	final_battle_vs_rayquaza_9 + 0x2E0
	BYTE	PATT
	 POIN2	final_battle_vs_rayquaza_9 + 0x312
	BYTE	PATT
	 POIN2	final_battle_vs_rayquaza_9 + 0x33A
	BYTE	PATT
	 POIN2	final_battle_vs_rayquaza_9 + 0x368
	BYTE	PATT
	 POIN2	final_battle_vs_rayquaza_9 + 0xA4
	BYTE	PATT
	 POIN2	final_battle_vs_rayquaza_9 + 0xDD
	BYTE	PATT
	 POIN2	final_battle_vs_rayquaza_9 + 0x111
	BYTE	PATT
	 POIN2	final_battle_vs_rayquaza_9 + 0x14A
	BYTE	PATT
	 POIN2	final_battle_vs_rayquaza_9 + 0x17E
	BYTE	PATT
	 POIN2	final_battle_vs_rayquaza_9 + 0x1B9
	BYTE	PATT
	 POIN2	final_battle_vs_rayquaza_9 + 0x1D9
	BYTE	PATT
	 POIN2	final_battle_vs_rayquaza_9 + 0x1FD
	BYTE	GoTo
	 POIN2	final_battle_vs_rayquaza_9 + 0x408
	BYTE	FINE

//*********************** Track 11 ***********************//

final_battle_vs_rayquaza_10:
	BYTE	KEYSH   final_battle_vs_rayquaza_key+0
	BYTE	W21
	BYTE		VOICE   127
	BYTE		VOL     125*final_battle_vs_rayquaza_mvl/mxv
	BYTE		PAN     c_v+0
	BYTE	W15
	BYTE	W92
	BYTE	W03
	BYTE		VOICE   127
	BYTE	W01
	BYTE		N02     An1   v032
	BYTE	W06
	BYTE		        An1   v016
	BYTE	W06
	BYTE		        An1   v020
	BYTE	W06
	BYTE		N02
	BYTE	W06
	BYTE		        An1   v072
	BYTE	W06
	BYTE		        An1   v012
	BYTE	W06
	BYTE		        An1   v044
	BYTE	W06
	BYTE		        An1   v016
	BYTE	W06
	BYTE		        An1   v096
	BYTE	W06
	BYTE		        An1   v040
	BYTE	W06
	BYTE		        An1   v072
	BYTE	W06
	BYTE		        An1   v024
	BYTE	W06
	BYTE		N05     An1   v127
	BYTE	W24
	BYTE	PEND
	BYTE		N03     Cn1   v120
	BYTE	W18
	BYTE		N03
	BYTE	W66
	BYTE		        Cn1   v068
	BYTE	W12
	BYTE	PEND
	BYTE	PATT
	 POIN2	final_battle_vs_rayquaza_10 + 0x38
	BYTE	PATT
	 POIN2	final_battle_vs_rayquaza_10 + 0x38
	BYTE	PATT
	 POIN2	final_battle_vs_rayquaza_10 + 0x38
	BYTE	PATT
	 POIN2	final_battle_vs_rayquaza_10 + 0x38
	BYTE	PATT
	 POIN2	final_battle_vs_rayquaza_10 + 0x38
	BYTE	PATT
	 POIN2	final_battle_vs_rayquaza_10 + 0x38
	BYTE	PATT
	 POIN2	final_battle_vs_rayquaza_10 + 0x38
	BYTE	PATT
	 POIN2	final_battle_vs_rayquaza_10 + 0x38
	BYTE	PATT
	 POIN2	final_battle_vs_rayquaza_10 + 0x38
	BYTE	PATT
	 POIN2	final_battle_vs_rayquaza_10 + 0x38
	BYTE	PATT
	 POIN2	final_battle_vs_rayquaza_10 + 0x38
	BYTE	PATT
	 POIN2	final_battle_vs_rayquaza_10 + 0x38
	BYTE	PATT
	 POIN2	final_battle_vs_rayquaza_10 + 0x38
	BYTE		N03     Cn1   v120
	BYTE	W18
	BYTE		N03
	BYTE	W66
	BYTE		        Cn1   v068
	BYTE	W11
	BYTE		VOICE   127
	BYTE	W01
	BYTE		N03     Cn1   v120
	BYTE		N02     An1   v032
	BYTE	W06
	BYTE		        An1   v016
	BYTE	W06
	BYTE		        An1   v020
	BYTE	W06
	BYTE		N03     Cn1   v120
	BYTE		N02     An1   v020
	BYTE	W06
	BYTE		        An1   v072
	BYTE	W06
	BYTE		        An1   v012
	BYTE	W06
	BYTE		        An1   v044
	BYTE	W06
	BYTE		        An1   v016
	BYTE	W06
	BYTE		        An1   v096
	BYTE	W06
	BYTE		        An1   v040
	BYTE	W06
	BYTE		        An1   v072
	BYTE	W06
	BYTE		        An1   v024
	BYTE	W06
	BYTE		N05     An1   v127
	BYTE	W12
	BYTE		N03     Cn1   v068
	BYTE	W12
	BYTE		N03     Cn1   v120
	BYTE	W06
	BYTE		N06     Gs4   v036
	BYTE	W06
	BYTE		N03     Cn1   v120
	BYTE	W06
	BYTE		        Cn1   v036
	BYTE		N06     An4 
	BYTE	W06
	BYTE		N03     Dn1   v120
	BYTE	W06
	BYTE		N06     An4   v036
	BYTE	W06
	BYTE		N03     Cn1   v060
	BYTE	W06
	BYTE		        Cn1   v120
	BYTE	W12
	BYTE		N03
	BYTE	W03
	BYTE		        Gs4   v016
	BYTE	W03
	BYTE		N06     An4   v036
	BYTE	W06
	BYTE		N03     Cn1   v060
	BYTE	W06
	BYTE		        Dn1   v120
	BYTE	W06
	BYTE		        An4   v016
	BYTE	W03
	BYTE		        Gs4   v056
	BYTE	W03
	BYTE		        Cn1   v120
	BYTE	W06
	BYTE		        Cn1   v036
	BYTE	W06
	BYTE	PEND
	BYTE	PATT
	 POIN2	final_battle_vs_rayquaza_10 + 0xC3
	BYTE	PATT
	 POIN2	final_battle_vs_rayquaza_10 + 0xC3
	BYTE	PATT
	 POIN2	final_battle_vs_rayquaza_10 + 0xC3
	BYTE	PATT
	 POIN2	final_battle_vs_rayquaza_10 + 0xC3
	BYTE	PATT
	 POIN2	final_battle_vs_rayquaza_10 + 0xC3
	BYTE		N03     Cn1   v120
	BYTE	W06
	BYTE		N06     Gs4   v036
	BYTE	W06
	BYTE		N03     Cn1   v120
	BYTE	W06
	BYTE		        Cn1   v036
	BYTE		N06     An4 
	BYTE	W06
	BYTE		N03     Dn1   v120
	BYTE	W06
	BYTE		N06     An4   v036
	BYTE	W06
	BYTE		N03     Cn1   v060
	BYTE	W06
	BYTE		        Cn1   v120
	BYTE	W12
	BYTE		N03
	BYTE	W03
	BYTE		        Gs4   v016
	BYTE	W03
	BYTE		N06     An4   v036
	BYTE	W06
	BYTE		N03     Cn1   v060
	BYTE	W06
	BYTE		        Dn1   v120
	BYTE	W06
	BYTE		        An4   v016
	BYTE	W03
	BYTE		        Gs4   v056
	BYTE	W03
	BYTE		        Cn1   v120
	BYTE	W06
	BYTE		        Cn1   v036
	BYTE	W05
	BYTE		VOICE   127
	BYTE	W01
	BYTE	PEND
	BYTE	PATT
	 POIN2	final_battle_vs_rayquaza_10 + 0xF
	BYTE	PATT
	 POIN2	final_battle_vs_rayquaza_10 + 0xC3
	BYTE	PATT
	 POIN2	final_battle_vs_rayquaza_10 + 0xC3
	BYTE	PATT
	 POIN2	final_battle_vs_rayquaza_10 + 0xC3
	BYTE	PATT
	 POIN2	final_battle_vs_rayquaza_10 + 0xC3
	BYTE	PATT
	 POIN2	final_battle_vs_rayquaza_10 + 0xC3
	BYTE	PATT
	 POIN2	final_battle_vs_rayquaza_10 + 0xC3
	BYTE	PATT
	 POIN2	final_battle_vs_rayquaza_10 + 0xC3
	BYTE	PATT
	 POIN2	final_battle_vs_rayquaza_10 + 0xC3
	BYTE	PATT
	 POIN2	final_battle_vs_rayquaza_10 + 0xC3
	BYTE	PATT
	 POIN2	final_battle_vs_rayquaza_10 + 0xC3
	BYTE	PATT
	 POIN2	final_battle_vs_rayquaza_10 + 0xC3
	BYTE	PATT
	 POIN2	final_battle_vs_rayquaza_10 + 0xC3
	BYTE	PATT
	 POIN2	final_battle_vs_rayquaza_10 + 0xC3
	BYTE	PATT
	 POIN2	final_battle_vs_rayquaza_10 + 0xC3
	BYTE	PATT
	 POIN2	final_battle_vs_rayquaza_10 + 0xC3
	BYTE	PATT
	 POIN2	final_battle_vs_rayquaza_10 + 0xC3
	BYTE	PATT
	 POIN2	final_battle_vs_rayquaza_10 + 0x38
	BYTE		N03     Cn1   v120
	BYTE	W18
	BYTE		N03
	BYTE	W78
	BYTE	PEND
	BYTE	PATT
	 POIN2	final_battle_vs_rayquaza_10 + 0x38
	BYTE	PATT
	 POIN2	final_battle_vs_rayquaza_10 + 0x1B3
	BYTE	PATT
	 POIN2	final_battle_vs_rayquaza_10 + 0x38
	BYTE	PATT
	 POIN2	final_battle_vs_rayquaza_10 + 0x1B3
	BYTE	PATT
	 POIN2	final_battle_vs_rayquaza_10 + 0x38
	BYTE		N03     Cn1   v120
	BYTE	W06
	BYTE		N02     An1   v016
	BYTE	W06
	BYTE		        An1   v020
	BYTE	W06
	BYTE		N03     Cn1   v120
	BYTE		N02     An1   v020
	BYTE	W12
	BYTE		        An1   v012
	BYTE	W06
	BYTE		        An1   v044
	BYTE	W06
	BYTE		        An1   v016
	BYTE	W12
	BYTE		        An1   v040
	BYTE	W06
	BYTE		        An1   v072
	BYTE	W06
	BYTE		        An1   v024
	BYTE	W06
	BYTE		        An1   v108
	BYTE	W24
	BYTE	PATT
	 POIN2	final_battle_vs_rayquaza_10 + 0xC3
	BYTE	PATT
	 POIN2	final_battle_vs_rayquaza_10 + 0xC3
	BYTE	PATT
	 POIN2	final_battle_vs_rayquaza_10 + 0xC3
	BYTE	PATT
	 POIN2	final_battle_vs_rayquaza_10 + 0xC3
	BYTE	PATT
	 POIN2	final_battle_vs_rayquaza_10 + 0xC3
	BYTE	PATT
	 POIN2	final_battle_vs_rayquaza_10 + 0xC3
	BYTE	PATT
	 POIN2	final_battle_vs_rayquaza_10 + 0xC3
	BYTE	PATT
	 POIN2	final_battle_vs_rayquaza_10 + 0xC3
	BYTE	W96
	BYTE	W96
	BYTE	W96
	BYTE	W96
	BYTE	PATT
	 POIN2	final_battle_vs_rayquaza_10 + 0x38
	BYTE	PATT
	 POIN2	final_battle_vs_rayquaza_10 + 0x38
	BYTE		N03     Cn1   v120
	BYTE	W24
	BYTE		N03
	BYTE	W24
	BYTE		N03
	BYTE	W24
	BYTE		N03
	BYTE	W23
	BYTE		VOICE   127
	BYTE	W01
	BYTE	PATT
	 POIN2	final_battle_vs_rayquaza_10 + 0xF
	BYTE	PATT
	 POIN2	final_battle_vs_rayquaza_10 + 0xC3
	BYTE	PATT
	 POIN2	final_battle_vs_rayquaza_10 + 0xC3
	BYTE	PATT
	 POIN2	final_battle_vs_rayquaza_10 + 0xC3
	BYTE	PATT
	 POIN2	final_battle_vs_rayquaza_10 + 0xC3
	BYTE	PATT
	 POIN2	final_battle_vs_rayquaza_10 + 0xC3
	BYTE	PATT
	 POIN2	final_battle_vs_rayquaza_10 + 0xC3
	BYTE	PATT
	 POIN2	final_battle_vs_rayquaza_10 + 0x119
	BYTE	PATT
	 POIN2	final_battle_vs_rayquaza_10 + 0xF
	BYTE	PATT
	 POIN2	final_battle_vs_rayquaza_10 + 0xC3
	BYTE	PATT
	 POIN2	final_battle_vs_rayquaza_10 + 0xC3
	BYTE	PATT
	 POIN2	final_battle_vs_rayquaza_10 + 0xC3
	BYTE	PATT
	 POIN2	final_battle_vs_rayquaza_10 + 0xC3
	BYTE	PATT
	 POIN2	final_battle_vs_rayquaza_10 + 0xC3
	BYTE	PATT
	 POIN2	final_battle_vs_rayquaza_10 + 0xC3
	BYTE	PATT
	 POIN2	final_battle_vs_rayquaza_10 + 0x119
	BYTE	PATT
	 POIN2	final_battle_vs_rayquaza_10 + 0xF
	BYTE	PATT
	 POIN2	final_battle_vs_rayquaza_10 + 0xC3
	BYTE	PATT
	 POIN2	final_battle_vs_rayquaza_10 + 0xC3
	BYTE	PATT
	 POIN2	final_battle_vs_rayquaza_10 + 0xC3
	BYTE	PATT
	 POIN2	final_battle_vs_rayquaza_10 + 0xC3
	BYTE	PATT
	 POIN2	final_battle_vs_rayquaza_10 + 0xC3
	BYTE	PATT
	 POIN2	final_battle_vs_rayquaza_10 + 0xC3
	BYTE	PATT
	 POIN2	final_battle_vs_rayquaza_10 + 0xC3
	BYTE	PATT
	 POIN2	final_battle_vs_rayquaza_10 + 0xC3
	BYTE	GoTo
	 POIN2	final_battle_vs_rayquaza_10 + 0x186
	BYTE	FINE

//*********************** Track 12 ***********************//

final_battle_vs_rayquaza_11:
	BYTE	KEYSH   final_battle_vs_rayquaza_key+0
	BYTE	W22
	BYTE		VOICE   127
	BYTE		VOL     125*final_battle_vs_rayquaza_mvl/mxv
	BYTE		PAN     c_v+0
	BYTE	W14
	BYTE	W96
	BYTE	W12
	BYTE		N03     Cs1   v032
	BYTE	W24
	BYTE		        Cs1   v052
	BYTE	W24
	BYTE		        Cs1   v072
	BYTE	W06
	BYTE		        Gn1   v048
	BYTE	W06
	BYTE		        Gn1   v080
	BYTE	W24
	BYTE	PEND
	BYTE	W96
	BYTE	W96
	BYTE	W96
	BYTE	W96
	BYTE	W96
	BYTE	W96
	BYTE	W96
	BYTE	W96
	BYTE	W96
	BYTE	W96
	BYTE	W96
	BYTE	W96
	BYTE	W96
	BYTE	W96
	BYTE	W96
	BYTE	PATT
	 POIN2	final_battle_vs_rayquaza_11 + 0xB
	BYTE	W96
	BYTE	W96
	BYTE	W96
	BYTE	W96
	BYTE	W96
	BYTE	W96
	BYTE	W96
	BYTE	PATT
	 POIN2	final_battle_vs_rayquaza_11 + 0xB
	BYTE		N04     Ds3   v076
	BYTE	W12
	BYTE		        Dn3 
	BYTE	W12
	BYTE		        Cs3 
	BYTE	W06
	BYTE		        Dn3 
	BYTE	W06
	BYTE		N06     Gs4   v048
	BYTE	W06
	BYTE		N04     Cs3   v076
	BYTE	W12
	BYTE		        Dn3 
	BYTE	W12
	BYTE		        Ds3 
	BYTE	W12
	BYTE		        En3 
	BYTE	W06
	BYTE		        Cs3 
	BYTE	W06
	BYTE		        Dn3 
	BYTE	W06
	BYTE	PEND
	BYTE		N04     Ds3   v076
	BYTE	W12
	BYTE		        Dn3 
	BYTE	W12
	BYTE		        Cs3 
	BYTE	W06
	BYTE		        Dn3 
	BYTE	W06
	BYTE		N06     Gs4   v048
	BYTE	W06
	BYTE		N04     Cs3   v076
	BYTE	W12
	BYTE		        Dn3 
	BYTE	W12
	BYTE		        En3 
	BYTE	W12
	BYTE		        Cs3 
	BYTE	W06
	BYTE		        Dn3 
	BYTE	W12
	BYTE	PEND
	BYTE	PATT
	 POIN2	final_battle_vs_rayquaza_11 + 0x3D
	BYTE	PATT
	 POIN2	final_battle_vs_rayquaza_11 + 0x5A
	BYTE	PATT
	 POIN2	final_battle_vs_rayquaza_11 + 0x3D
	BYTE	PATT
	 POIN2	final_battle_vs_rayquaza_11 + 0x5A
	BYTE	PATT
	 POIN2	final_battle_vs_rayquaza_11 + 0x3D
	BYTE	PATT
	 POIN2	final_battle_vs_rayquaza_11 + 0x5A
	BYTE	PATT
	 POIN2	final_battle_vs_rayquaza_11 + 0x3D
	BYTE	PATT
	 POIN2	final_battle_vs_rayquaza_11 + 0x5A
	BYTE	PATT
	 POIN2	final_battle_vs_rayquaza_11 + 0x3D
	BYTE	PATT
	 POIN2	final_battle_vs_rayquaza_11 + 0x5A
	BYTE	PATT
	 POIN2	final_battle_vs_rayquaza_11 + 0x3D
	BYTE	PATT
	 POIN2	final_battle_vs_rayquaza_11 + 0x5A
	BYTE	PATT
	 POIN2	final_battle_vs_rayquaza_11 + 0x3D
	BYTE	PATT
	 POIN2	final_battle_vs_rayquaza_11 + 0x5A
	BYTE	W96
	BYTE	W96
	BYTE	W96
	BYTE	W96
	BYTE	W96
	BYTE	W96
	BYTE	W96
	BYTE		N03     Cn1   v120
	BYTE	W12
	BYTE		        Cs1   v032
	BYTE	W12
	BYTE		        Cn1   v120
	BYTE	W12
	BYTE		        Cs1   v052
	BYTE	W12
	BYTE		        Cn1   v120
	BYTE	W12
	BYTE		        Cs1   v072
	BYTE	W06
	BYTE		        Gn1   v048
	BYTE	W06
	BYTE		        Cn1   v120
	BYTE	W24
	BYTE	PATT
	 POIN2	final_battle_vs_rayquaza_11 + 0x3D
	BYTE	PATT
	 POIN2	final_battle_vs_rayquaza_11 + 0x5A
	BYTE	PATT
	 POIN2	final_battle_vs_rayquaza_11 + 0x3D
	BYTE	PATT
	 POIN2	final_battle_vs_rayquaza_11 + 0x5A
	BYTE	PATT
	 POIN2	final_battle_vs_rayquaza_11 + 0x3D
	BYTE	PATT
	 POIN2	final_battle_vs_rayquaza_11 + 0x5A
	BYTE	PATT
	 POIN2	final_battle_vs_rayquaza_11 + 0x3D
	BYTE	PATT
	 POIN2	final_battle_vs_rayquaza_11 + 0x5A
	BYTE	W96
	BYTE	W96
	BYTE	W96
	BYTE	W96
	BYTE	W96
	BYTE	W96
	BYTE	W96
	BYTE	PATT
	 POIN2	final_battle_vs_rayquaza_11 + 0xB
	BYTE	W96
	BYTE	W96
	BYTE	W96
	BYTE	W96
	BYTE	W96
	BYTE	W96
	BYTE	W96
	BYTE	PATT
	 POIN2	final_battle_vs_rayquaza_11 + 0xB
	BYTE	W96
	BYTE	W96
	BYTE	W96
	BYTE	W96
	BYTE	W96
	BYTE	W96
	BYTE	W96
	BYTE	PATT
	 POIN2	final_battle_vs_rayquaza_11 + 0xB
	BYTE	PATT
	 POIN2	final_battle_vs_rayquaza_11 + 0x3D
	BYTE	PATT
	 POIN2	final_battle_vs_rayquaza_11 + 0x5A
	BYTE	PATT
	 POIN2	final_battle_vs_rayquaza_11 + 0x3D
	BYTE	PATT
	 POIN2	final_battle_vs_rayquaza_11 + 0x5A
	BYTE	PATT
	 POIN2	final_battle_vs_rayquaza_11 + 0x3D
	BYTE	PATT
	 POIN2	final_battle_vs_rayquaza_11 + 0x5A
	BYTE	PATT
	 POIN2	final_battle_vs_rayquaza_11 + 0x3D
	BYTE	PATT
	 POIN2	final_battle_vs_rayquaza_11 + 0x5A
	BYTE	GoTo
	 POIN2	final_battle_vs_rayquaza_11 + 0x93
	BYTE	FINE

//******************************************************//

	ALIGN 4

final_battle_vs_rayquaza:
	BYTE	12	// NumTrks
	BYTE	0	// NumBlks
	BYTE	final_battle_vs_rayquaza_pri	// Priority
	BYTE	final_battle_vs_rayquaza_rev	// Reverb

	POIN2	final_battle_vs_rayquaza_grp

	POIN2	final_battle_vs_rayquaza_0
	POIN2	final_battle_vs_rayquaza_1
	POIN2	final_battle_vs_rayquaza_2
	POIN2	final_battle_vs_rayquaza_3
	POIN2	final_battle_vs_rayquaza_4
	POIN2	final_battle_vs_rayquaza_5
	POIN2	final_battle_vs_rayquaza_6
	POIN2	final_battle_vs_rayquaza_7
	POIN2	final_battle_vs_rayquaza_8
	POIN2	final_battle_vs_rayquaza_9
	POIN2	final_battle_vs_rayquaza_10
	POIN2	final_battle_vs_rayquaza_11

	
