//Event file generated from Sappy .s format.
// File generated by m4a2s Song-Module
	#include "MPlayDef.event"

	#define	personality_test_grp  bank_000
	#define	personality_test_pri  50
	#define	personality_test_rev  218
	#define	personality_test_mvl  127
	#define	personality_test_key  0

	// .rodata
	//	personality_test
	ALIGN 4

//*********************** Track 01 ***********************//

personality_test_0:
	BYTE	KEYSH   personality_test_key+0
	BYTE	TEMPO   78/2
	BYTE		VOICE   46
	BYTE		VOL     110*personality_test_mvl/mxv
	BYTE		PAN     c_v+0
	BYTE	W12
	BYTE		N08     Cn2   v120
	BYTE	W12
	BYTE		N09     Fn2   v120
	BYTE	W12
	BYTE		N07     Bn2   v112
	BYTE	W12
	BYTE		        Cn3   v092
	BYTE	W12
	BYTE		N09     Gn3   v112
	BYTE	W48
	BYTE		N07     Cn2   v120
	BYTE	W12
	BYTE	PEND
	BYTE		N09     Fn2   v120
	BYTE	W12
	BYTE		N07     Bn2   v112
	BYTE	W12
	BYTE		        Cn3   v092
	BYTE	W12
	BYTE		N09     Gn3   v112
	BYTE	W48
	BYTE		N07     Dn2   v120
	BYTE	W12
	BYTE	PEND
	BYTE		N09     En2   v120
	BYTE	W12
	BYTE		N07     An2   v112
	BYTE	W12
	BYTE		        Bn2   v092
	BYTE	W12
	BYTE		N09     En3   v112
	BYTE	W48
	BYTE		N07     Dn2   v120
	BYTE	W12
	BYTE	PEND
	BYTE		N09     En2   v120
	BYTE	W12
	BYTE		N07     An2   v112
	BYTE	W12
	BYTE		        Bn2   v092
	BYTE	W12
	BYTE		N09     En3   v112
	BYTE	W48
	BYTE		N07     Cn2   v120
	BYTE	W12
	BYTE	PEND
	BYTE	PATT
	 POIN2	personality_test_0 + 0xF
	BYTE	PATT
	 POIN2	personality_test_0 + 0x23
	BYTE	PATT
	 POIN2	personality_test_0 + 0x37
	BYTE	PATT
	 POIN2	personality_test_0 + 0x4B
	BYTE	GoTo
	 POIN2	personality_test_0 + 0xF
	BYTE	FINE

//*********************** Track 02 ***********************//

personality_test_1:
	BYTE	KEYSH   personality_test_key+0
	BYTE	W01
	BYTE		VOICE   14
	BYTE		VOL     60*personality_test_mvl/mxv
	BYTE		PAN     c_v-20
	BYTE	W11
	BYTE	W12
	BYTE	W48
	BYTE		N12     Fn3   v100
	BYTE	W44
	BYTE	W03
	BYTE		PAN     c_v+20
	BYTE	W01
	BYTE		N12     Cn4   v100
	BYTE	W44
	BYTE	W03
	BYTE		PAN     c_v-20
	BYTE	W01
	BYTE		N12     Gn3 
	BYTE	W48
	BYTE	PEND
	BYTE	W44
	BYTE	W03
	BYTE		PAN     c_v+20
	BYTE	W01
	BYTE		N12     En3   v100
	BYTE	W44
	BYTE	W03
	BYTE		PAN     c_v-20
	BYTE	W01
	BYTE	PEND
	BYTE		N12     Bn3   v100
	BYTE	W44
	BYTE	W03
	BYTE		PAN     c_v+20
	BYTE	W01
	BYTE		N12     Gn3 
	BYTE	W48
	BYTE	PEND
	BYTE	W44
	BYTE	W03
	BYTE		PAN     c_v-20
	BYTE	W01
	BYTE		N12     Fn3 
	BYTE	W44
	BYTE	W03
	BYTE		PAN     c_v+20
	BYTE	W01
	BYTE	PATT
	 POIN2	personality_test_1 + 0x14
	BYTE	PATT
	 POIN2	personality_test_1 + 0x20
	BYTE	PATT
	 POIN2	personality_test_1 + 0x2E
	BYTE	GoTo
	 POIN2	personality_test_1 + 0xB
	BYTE	FINE

//*********************** Track 03 ***********************//

personality_test_2:
	BYTE	KEYSH   personality_test_key+0
	BYTE	W02
	BYTE		VOICE   76
	BYTE		VOL     86*personality_test_mvl/mxv
	BYTE		PAN     c_v+0
	BYTE	W10
	BYTE	W12
	BYTE	W24
	BYTE		N05     Gn3   v008
	BYTE	W05
	BYTE		        An3   v012
	BYTE	W04
	BYTE		        Gn3   v016
	BYTE	W04
	BYTE		        An3   v020
	BYTE	W04
	BYTE		        Gn3   v024
	BYTE	W04
	BYTE		        An3   v028
	BYTE	W03
	BYTE		        Gn3 
	BYTE	W05
	BYTE		        An3   v036
	BYTE	W04
	BYTE		        Gn3   v044
	BYTE	W04
	BYTE		        An3   v048
	BYTE	W03
	BYTE		        Gn3   v056
	BYTE	W04
	BYTE		        An3   v060
	BYTE	W04
	BYTE		        Gn3   v068
	BYTE	W04
	BYTE		        An3   v076
	BYTE	W04
	BYTE		        Gn3   v088
	BYTE	W04
	BYTE		        An3   v080
	BYTE	W03
	BYTE		        Gn3   v068
	BYTE	W03
	BYTE		        An3   v040
	BYTE	W03
	BYTE		        Gn3   v032
	BYTE	W03
	BYTE	PEND
	BYTE	W96
	BYTE	W24
	BYTE		N05     An3   v008
	BYTE	W05
	BYTE		        Bn3   v012
	BYTE	W04
	BYTE		        An3   v016
	BYTE	W04
	BYTE		        Bn3   v020
	BYTE	W04
	BYTE		        An3   v024
	BYTE	W04
	BYTE		        Bn3   v028
	BYTE	W03
	BYTE		        An3 
	BYTE	W05
	BYTE		        Bn3   v036
	BYTE	W04
	BYTE		        An3   v044
	BYTE	W04
	BYTE		        Bn3   v048
	BYTE	W03
	BYTE		        An3   v056
	BYTE	W04
	BYTE		        Bn3   v060
	BYTE	W04
	BYTE		        An3   v068
	BYTE	W04
	BYTE		        Bn3   v076
	BYTE	W04
	BYTE		        An3   v088
	BYTE	W04
	BYTE		        Bn3   v080
	BYTE	W03
	BYTE		        An3   v068
	BYTE	W03
	BYTE		        Bn3   v040
	BYTE	W03
	BYTE		        An3   v032
	BYTE	W03
	BYTE	PEND
	BYTE	W96
	BYTE	PATT
	 POIN2	personality_test_2 + 0xB
	BYTE	W96
	BYTE	PATT
	 POIN2	personality_test_2 + 0x47
	BYTE	W96
	BYTE	GoTo
	 POIN2	personality_test_2 + 0xB
	BYTE	FINE

//*********************** Track 04 ***********************//

personality_test_3:
	BYTE	KEYSH   personality_test_key+0
	BYTE	W03
	BYTE		VOICE   81
	BYTE		VOL     38*personality_test_mvl/mxv
	BYTE		PAN     c_v+0
	BYTE	W09
	BYTE	W12
	BYTE	W24
	BYTE		N05     En3   v032
	BYTE	W05
	BYTE		        Fn3 
	BYTE	W04
	BYTE		        En3 
	BYTE	W04
	BYTE		        Fn3 
	BYTE	W04
	BYTE		        En3 
	BYTE	W04
	BYTE		        Fn3 
	BYTE	W03
	BYTE		        En3   v028
	BYTE	W05
	BYTE		        Fn3   v036
	BYTE	W04
	BYTE		        En3   v044
	BYTE	W04
	BYTE		        Fn3   v048
	BYTE	W03
	BYTE		        En3   v056
	BYTE	W05
	BYTE		        Fn3   v060
	BYTE	W05
	BYTE		        En3   v068
	BYTE	W04
	BYTE		        Fn3   v076
	BYTE	W04
	BYTE		        En3   v088
	BYTE	W04
	BYTE		        Fn3   v080
	BYTE	W03
	BYTE		        En3   v068
	BYTE	W03
	BYTE		        Fn3   v048
	BYTE	W04
	BYTE	W08
	BYTE		N05     Gn3   v032
	BYTE	W04
	BYTE		        An3   v036
	BYTE	W04
	BYTE		        Gn3   v040
	BYTE	W04
	BYTE		        An3   v052
	BYTE	W05
	BYTE		        Gn3   v060
	BYTE	W05
	BYTE		        An3   v076
	BYTE	W03
	BYTE		        Gn3   v088
	BYTE	W04
	BYTE		        An3 
	BYTE	W04
	BYTE		        Gn3   v084
	BYTE	W05
	BYTE		        An3   v080
	BYTE	W03
	BYTE		        Gn3   v076
	BYTE	W04
	BYTE		        An3   v072
	BYTE	W04
	BYTE		        Gn3   v064
	BYTE	W04
	BYTE		        An3   v056
	BYTE	W04
	BYTE		        Gn3   v044
	BYTE	W05
	BYTE		        An3   v032
	BYTE	W03
	BYTE		        Gn3 
	BYTE	W04
	BYTE		        An3 
	BYTE	W03
	BYTE		        Gn3 
	BYTE	W16
	BYTE	PEND
	BYTE	W24
	BYTE		N06     Dn3 
	BYTE	W06
	BYTE		N04     En3 
	BYTE	W03
	BYTE		N05     Dn3 
	BYTE	W04
	BYTE		N04     En3 
	BYTE	W03
	BYTE		N05     Dn3 
	BYTE	W05
	BYTE		N04     En3 
	BYTE	W03
	BYTE		N05     Dn3 
	BYTE	W04
	BYTE		        En3   v036
	BYTE	W05
	BYTE		        Dn3   v044
	BYTE	W04
	BYTE		N03     En3   v048
	BYTE	W03
	BYTE		N05     Dn3   v056
	BYTE	W05
	BYTE		        En3   v060
	BYTE	W04
	BYTE		        Dn3   v068
	BYTE	W05
	BYTE		N03     En3   v076
	BYTE	W03
	BYTE		N05     Dn3   v088
	BYTE	W04
	BYTE		N03     En3   v080
	BYTE	W03
	BYTE		        Dn3   v068
	BYTE	W03
	BYTE		N12     En3   v048
	BYTE	W05
	BYTE	W07
	BYTE		N05     Dn3   v032
	BYTE	W05
	BYTE		        En3   v036
	BYTE	W04
	BYTE		N03     Dn3   v040
	BYTE	W03
	BYTE		N06     En3   v052
	BYTE	W06
	BYTE		N05     Dn3   v060
	BYTE	W05
	BYTE		        En3   v076
	BYTE	W03
	BYTE		        Dn3   v088
	BYTE	W04
	BYTE		        En3 
	BYTE	W03
	BYTE		N06     Dn3   v084
	BYTE	W06
	BYTE		N05     En3   v080
	BYTE	W03
	BYTE		        Dn3   v076
	BYTE	W03
	BYTE		        En3   v072
	BYTE	W05
	BYTE		        Dn3   v064
	BYTE	W04
	BYTE		        En3   v056
	BYTE	W03
	BYTE		N06     Dn3   v044
	BYTE	W06
	BYTE		N05     En3   v032
	BYTE	W03
	BYTE		        Dn3 
	BYTE	W04
	BYTE		        En3 
	BYTE	W03
	BYTE		        Dn3 
	BYTE	W16
	BYTE	W24
	BYTE		        En3 
	BYTE	W05
	BYTE		        Fn3 
	BYTE	W04
	BYTE		        En3 
	BYTE	W04
	BYTE		        Fn3 
	BYTE	W04
	BYTE		        En3 
	BYTE	W04
	BYTE		        Fn3 
	BYTE	W03
	BYTE		        En3 
	BYTE	W05
	BYTE		        Fn3   v036
	BYTE	W04
	BYTE		        En3   v044
	BYTE	W04
	BYTE		        Fn3   v048
	BYTE	W03
	BYTE		        En3   v056
	BYTE	W05
	BYTE		        Fn3   v060
	BYTE	W05
	BYTE		        En3   v068
	BYTE	W04
	BYTE		        Fn3   v076
	BYTE	W04
	BYTE		        En3   v088
	BYTE	W04
	BYTE		        Fn3   v080
	BYTE	W03
	BYTE		        En3   v068
	BYTE	W03
	BYTE		        Fn3   v048
	BYTE	W04
	BYTE	PATT
	 POIN2	personality_test_3 + 0x3E
	BYTE	W24
	BYTE		N05     Dn3   v032
	BYTE	W05
	BYTE		        En3 
	BYTE	W04
	BYTE		        Dn3 
	BYTE	W04
	BYTE		        En3 
	BYTE	W04
	BYTE		        Dn3 
	BYTE	W04
	BYTE		        En3 
	BYTE	W03
	BYTE		        Dn3 
	BYTE	W05
	BYTE		        En3   v036
	BYTE	W04
	BYTE		        Dn3   v044
	BYTE	W04
	BYTE		        En3   v048
	BYTE	W03
	BYTE		        Dn3   v056
	BYTE	W05
	BYTE		        En3   v060
	BYTE	W05
	BYTE		        Dn3   v068
	BYTE	W04
	BYTE		        En3   v076
	BYTE	W04
	BYTE		        Dn3   v088
	BYTE	W04
	BYTE		        En3   v080
	BYTE	W03
	BYTE		        Dn3   v068
	BYTE	W03
	BYTE		        En3   v048
	BYTE	W04
	BYTE	W12
	BYTE		        Bn3   v036
	BYTE	W04
	BYTE		        An3   v040
	BYTE	W04
	BYTE		        Bn3   v052
	BYTE	W05
	BYTE		        An3   v060
	BYTE	W05
	BYTE		        Bn3   v076
	BYTE	W03
	BYTE		        An3   v088
	BYTE	W04
	BYTE		        Bn3 
	BYTE	W04
	BYTE		        An3   v084
	BYTE	W05
	BYTE		        Bn3   v080
	BYTE	W03
	BYTE		        An3   v076
	BYTE	W04
	BYTE		        Bn3   v072
	BYTE	W04
	BYTE		        An3   v064
	BYTE	W04
	BYTE		        Bn3   v056
	BYTE	W04
	BYTE		        An3   v044
	BYTE	W05
	BYTE		        Bn3   v032
	BYTE	W03
	BYTE		        An3 
	BYTE	W04
	BYTE		        Bn3 
	BYTE	W03
	BYTE		        An3 
	BYTE	W16
	BYTE	GoTo
	 POIN2	personality_test_3 + 0xB
	BYTE	FINE

//*********************** Track 05 ***********************//

personality_test_4:
	BYTE	KEYSH   personality_test_key+0
	BYTE	W04
	BYTE		VOICE   95
	BYTE		VOL     77*personality_test_mvl/mxv
	BYTE		PAN     c_v+0
	BYTE	W08
	BYTE	W12
	BYTE	W96
	BYTE	W16
	BYTE		N06     Bn2   v040
	BYTE	W04
	BYTE		        Cn3   v052
	BYTE	W05
	BYTE		        Bn2   v060
	BYTE	W05
	BYTE		        Cn3   v076
	BYTE	W03
	BYTE		        Bn2   v088
	BYTE	W04
	BYTE		        Cn3 
	BYTE	W04
	BYTE		        Bn2   v084
	BYTE	W05
	BYTE		        Cn3   v080
	BYTE	W03
	BYTE		        Bn2   v076
	BYTE	W04
	BYTE		        Cn3   v072
	BYTE	W04
	BYTE		        Bn2   v064
	BYTE	W04
	BYTE		        Cn3   v056
	BYTE	W04
	BYTE		        Bn2   v044
	BYTE	W05
	BYTE		        Cn3   v032
	BYTE	W03
	BYTE		        Bn2   v024
	BYTE	W04
	BYTE		        Cn3   v012
	BYTE	W04
	BYTE		        Bn2   v004
	BYTE	W15
	BYTE	PEND
	BYTE	W96
	BYTE	W16
	BYTE		        An2   v040
	BYTE	W04
	BYTE		        Bn2   v052
	BYTE	W05
	BYTE		        An2   v060
	BYTE	W05
	BYTE		        Bn2   v076
	BYTE	W03
	BYTE		        An2   v088
	BYTE	W04
	BYTE		        Bn2 
	BYTE	W04
	BYTE		        An2   v084
	BYTE	W05
	BYTE		        Bn2   v080
	BYTE	W03
	BYTE		        An2   v076
	BYTE	W04
	BYTE		        Bn2   v072
	BYTE	W04
	BYTE		        An2   v064
	BYTE	W04
	BYTE		        Bn2   v056
	BYTE	W04
	BYTE		        An2   v044
	BYTE	W05
	BYTE		        Bn2   v032
	BYTE	W03
	BYTE		        An2   v024
	BYTE	W04
	BYTE		        Bn2   v012
	BYTE	W04
	BYTE		        An2   v004
	BYTE	W15
	BYTE	W96
	BYTE	PATT
	 POIN2	personality_test_4 + 0xC
	BYTE	W96
	BYTE	W16
	BYTE		N06     Dn3   v040
	BYTE	W04
	BYTE		        En3   v052
	BYTE	W05
	BYTE		        Dn3   v060
	BYTE	W05
	BYTE		        En3   v076
	BYTE	W03
	BYTE		        Dn3   v088
	BYTE	W04
	BYTE		        En3 
	BYTE	W04
	BYTE		        Dn3   v084
	BYTE	W05
	BYTE		        En3   v080
	BYTE	W03
	BYTE		        Dn3   v076
	BYTE	W04
	BYTE		        En3   v072
	BYTE	W04
	BYTE		        Dn3   v064
	BYTE	W04
	BYTE		        En3   v056
	BYTE	W04
	BYTE		        Dn3   v044
	BYTE	W05
	BYTE		        En3   v032
	BYTE	W03
	BYTE		        Dn3   v024
	BYTE	W04
	BYTE		        En3   v012
	BYTE	W04
	BYTE		        Dn3   v004
	BYTE	W15
	BYTE	GoTo
	 POIN2	personality_test_4 + 0xB
	BYTE	FINE

//******************************************************//

	ALIGN 4

personality_test:
	BYTE	5	// NumTrks
	BYTE	0	// NumBlks
	BYTE	personality_test_pri	// Priority
	BYTE	personality_test_rev	// Reverb

	POIN2	personality_test_grp

	POIN2	personality_test_0
	POIN2	personality_test_1
	POIN2	personality_test_2
	POIN2	personality_test_3
	POIN2	personality_test_4

	
