//Event file generated from Sappy .s format.
// File generated by m4a2s Song-Module
	#include "MPlayDef.event"

	#define	sky_tower_grp  bank_000
	#define	sky_tower_pri  50
	#define	sky_tower_rev  188
	#define	sky_tower_mvl  127
	#define	sky_tower_key  0

	// .rodata
	//	sky_tower
	ALIGN 4

//*********************** Track 01 ***********************//

sky_tower_0:
	BYTE	KEYSH   sky_tower_key+0
	BYTE	TEMPO   116/2
	BYTE		VOICE   76
	BYTE		VOL     66*sky_tower_mvl/mxv
	BYTE		PAN     c_v+0
	BYTE	W01
	BYTE		MOD     70
	BYTE		BENDR   12
	BYTE		LFOS    35
	BYTE	W01
	BYTE		MODT    mod_tre
	BYTE	W22
	BYTE	W96
	BYTE	W96
	BYTE	W96
	BYTE	W96
	BYTE	W96
	BYTE	W92
	BYTE	W03
	BYTE		VOL     66*sky_tower_mvl/mxv
	BYTE		BEND    c_v-4
	BYTE	W01
	BYTE		N40     Bn3   v120
	BYTE	W03
	BYTE		BEND    c_v-4
	BYTE	W02
	BYTE		        c_v-3
	BYTE	W01
	BYTE		        c_v-2
	BYTE	W01
	BYTE		        c_v+0
	BYTE	W11
	BYTE		VOL     60*sky_tower_mvl/mxv
	BYTE	W05
	BYTE		        56*sky_tower_mvl/mxv
	BYTE	W03
	BYTE		        52*sky_tower_mvl/mxv
	BYTE	W04
	BYTE		        48*sky_tower_mvl/mxv
	BYTE	W02
	BYTE		        45*sky_tower_mvl/mxv
	BYTE	W08
	BYTE		N05     An3   v108
	BYTE	W03
	BYTE		        Bn3   v120
	BYTE	W04
	BYTE		VOL     66*sky_tower_mvl/mxv
	BYTE		N42     Fs4   v072
	BYTE	W24
	BYTE	W01
	BYTE		VOL     64*sky_tower_mvl/mxv
	BYTE	W03
	BYTE		        60*sky_tower_mvl/mxv
	BYTE	W02
	BYTE		        58*sky_tower_mvl/mxv
	BYTE	W02
	BYTE		        56*sky_tower_mvl/mxv
	BYTE	W02
	BYTE		        53*sky_tower_mvl/mxv
	BYTE	W02
	BYTE		        50*sky_tower_mvl/mxv
	BYTE	W02
	BYTE		        44*sky_tower_mvl/mxv
	BYTE	W01
	BYTE		        42*sky_tower_mvl/mxv
	BYTE	W01
	BYTE		        38*sky_tower_mvl/mxv
	BYTE	W01
	BYTE		        36*sky_tower_mvl/mxv
	BYTE	W01
	BYTE		        32*sky_tower_mvl/mxv
	BYTE	W06
	BYTE		        66*sky_tower_mvl/mxv
	BYTE		BEND    c_v-4
	BYTE	W01
	BYTE		N36     En4   v120
	BYTE	W03
	BYTE		BEND    c_v-4
	BYTE	W02
	BYTE		        c_v-3
	BYTE	W01
	BYTE		        c_v-2
	BYTE	W01
	BYTE		        c_v+0
	BYTE	W32
	BYTE	W01
	BYTE		N05     En4   v108
	BYTE	W03
	BYTE		        Fs4   v100
	BYTE	W04
	BYTE		VOL     66*sky_tower_mvl/mxv
	BYTE		BEND    c_v-4
	BYTE	W01
	BYTE		N23     En4   v120
	BYTE	W03
	BYTE		BEND    c_v-4
	BYTE	W02
	BYTE		        c_v-3
	BYTE	W01
	BYTE		        c_v-2
	BYTE	W01
	BYTE		        c_v+0
	BYTE	W17
	BYTE		N23     Cs4 
	BYTE	W24
	BYTE		N84     An3 
	BYTE	W42
	BYTE		VOL     63*sky_tower_mvl/mxv
	BYTE	W08
	BYTE		        62*sky_tower_mvl/mxv
	BYTE	W06
	BYTE		        59*sky_tower_mvl/mxv
	BYTE		BEND    c_v+0
	BYTE	W04
	BYTE		VOL     58*sky_tower_mvl/mxv
	BYTE	W02
	BYTE		BEND    c_v-1
	BYTE	W02
	BYTE		VOL     55*sky_tower_mvl/mxv
	BYTE	W02
	BYTE		BEND    c_v-2
	BYTE	W01
	BYTE		VOL     53*sky_tower_mvl/mxv
	BYTE	W01
	BYTE		BEND    c_v-2
	BYTE	W01
	BYTE		VOL     51*sky_tower_mvl/mxv
	BYTE	W01
	BYTE		BEND    c_v-3
	BYTE	W01
	BYTE		VOL     48*sky_tower_mvl/mxv
	BYTE	W01
	BYTE		        46*sky_tower_mvl/mxv
	BYTE		BEND    c_v-4
	BYTE	W02
	BYTE		VOL     42*sky_tower_mvl/mxv
	BYTE		BEND    c_v-4
	BYTE	W02
	BYTE		VOL     37*sky_tower_mvl/mxv
	BYTE	W02
	BYTE		        32*sky_tower_mvl/mxv
	BYTE	W02
	BYTE		        27*sky_tower_mvl/mxv
	BYTE	W02
	BYTE		        20*sky_tower_mvl/mxv
	BYTE	W14
	BYTE	W68
	BYTE	W03
	BYTE		        66*sky_tower_mvl/mxv
	BYTE		BEND    c_v+0
	BYTE	W01
	BYTE		N24     Bn3   v112
	BYTE	W23
	BYTE		BEND    c_v-4
	BYTE	W01
	BYTE		N72     Fs4   v060
	BYTE	W03
	BYTE		BEND    c_v-4
	BYTE	W02
	BYTE		        c_v-3
	BYTE	W01
	BYTE		        c_v-2
	BYTE	W01
	BYTE		        c_v+0
	BYTE	W64
	BYTE	W01
	BYTE		N24     En4   v092
	BYTE	W06
	BYTE		VOL     64*sky_tower_mvl/mxv
	BYTE	W03
	BYTE		        62*sky_tower_mvl/mxv
	BYTE	W02
	BYTE		        59*sky_tower_mvl/mxv
	BYTE	W02
	BYTE		        58*sky_tower_mvl/mxv
	BYTE	W02
	BYTE		        56*sky_tower_mvl/mxv
	BYTE	W02
	BYTE		        52*sky_tower_mvl/mxv
	BYTE	W02
	BYTE		        48*sky_tower_mvl/mxv
	BYTE	W04
	BYTE		        66*sky_tower_mvl/mxv
	BYTE		BEND    c_v-4
	BYTE	W01
	BYTE		N48     An4   v080
	BYTE	W03
	BYTE		BEND    c_v-4
	BYTE	W02
	BYTE		        c_v-3
	BYTE	W01
	BYTE		        c_v-2
	BYTE	W01
	BYTE		        c_v+0
	BYTE	W40
	BYTE		        c_v-4
	BYTE	W01
	BYTE		N36     Gs4   v060
	BYTE	W03
	BYTE		BEND    c_v-4
	BYTE	W02
	BYTE		        c_v-3
	BYTE	W01
	BYTE		        c_v-2
	BYTE	W01
	BYTE		        c_v+0
	BYTE	W28
	BYTE	W01
	BYTE		N04     Gs4   v072
	BYTE	W03
	BYTE		        An4 
	BYTE	W03
	BYTE		        Gs4 
	BYTE	W03
	BYTE		TIE     Fs4   v056
	BYTE	W03
	BYTE	W03
	BYTE		VOL     41*sky_tower_mvl/mxv
	BYTE	W32
	BYTE		        43*sky_tower_mvl/mxv
	BYTE	W03
	BYTE		        45*sky_tower_mvl/mxv
	BYTE	W03
	BYTE		        47*sky_tower_mvl/mxv
	BYTE	W03
	BYTE		        51*sky_tower_mvl/mxv
	BYTE	W03
	BYTE		        55*sky_tower_mvl/mxv
	BYTE	W02
	BYTE		        57*sky_tower_mvl/mxv
	BYTE	W05
	BYTE		        63*sky_tower_mvl/mxv
	BYTE	W08
	BYTE		        62*sky_tower_mvl/mxv
	BYTE	W06
	BYTE		        59*sky_tower_mvl/mxv
	BYTE	W04
	BYTE		        58*sky_tower_mvl/mxv
	BYTE	W02
	BYTE		BEND    c_v+0
	BYTE	W02
	BYTE		VOL     55*sky_tower_mvl/mxv
	BYTE	W03
	BYTE		        53*sky_tower_mvl/mxv
	BYTE	W01
	BYTE		BEND    c_v-1
	BYTE	W01
	BYTE		VOL     51*sky_tower_mvl/mxv
	BYTE	W02
	BYTE		        48*sky_tower_mvl/mxv
	BYTE	W01
	BYTE		        46*sky_tower_mvl/mxv
	BYTE		BEND    c_v-2
	BYTE	W02
	BYTE		VOL     42*sky_tower_mvl/mxv
	BYTE		BEND    c_v-2
	BYTE	W02
	BYTE		VOL     37*sky_tower_mvl/mxv
	BYTE		BEND    c_v-3
	BYTE	W02
	BYTE		VOL     32*sky_tower_mvl/mxv
	BYTE		BEND    c_v-4
	BYTE	W02
	BYTE		VOL     27*sky_tower_mvl/mxv
	BYTE		BEND    c_v-4
	BYTE	W02
	BYTE		VOL     20*sky_tower_mvl/mxv
	BYTE	W02
	BYTE	PEND
	BYTE		EOT     Fs4 
	BYTE	W96
	BYTE	W96
	BYTE	W96
	BYTE	W96
	BYTE	W96
	BYTE	W96
	BYTE	W96
	BYTE	W96
	BYTE	W96
	BYTE	W96
	BYTE	W15
	BYTE		BEND    c_v+0
	BYTE	W01
	BYTE		VOICE   46
	BYTE		VOL     76*sky_tower_mvl/mxv
	BYTE		PAN     c_v+0
	BYTE	W01
	BYTE		MOD     100
	BYTE		MODT    mod_pan
	BYTE	W78
	BYTE	W01
	BYTE	W12
	BYTE		N03     Bn3   v112
	BYTE	W03
	BYTE		        Bn3   v020
	BYTE	W03
	BYTE		        Bn3   v040
	BYTE	W03
	BYTE		        Bn3   v020
	BYTE	W03
	BYTE		        Fs4   v112
	BYTE	W03
	BYTE		        Fs4   v020
	BYTE	W03
	BYTE		        Fs4   v040
	BYTE	W03
	BYTE		        Fs4   v020
	BYTE	W03
	BYTE		        En4   v056
	BYTE	W03
	BYTE		        En4   v020
	BYTE	W03
	BYTE		        En4   v012
	BYTE	W03
	BYTE		        En4   v020
	BYTE	W03
	BYTE		        Fs4   v112
	BYTE	W03
	BYTE		        Fs4   v020
	BYTE	W03
	BYTE		        Fs4   v040
	BYTE	W03
	BYTE		        Fs4   v020
	BYTE	W03
	BYTE		        Bn4   v112
	BYTE	W03
	BYTE		        Bn4   v020
	BYTE	W03
	BYTE		        Bn4   v040
	BYTE	W03
	BYTE		        Bn4   v020
	BYTE	W15
	BYTE		        An4   v112
	BYTE	W03
	BYTE		        An4   v020
	BYTE	W03
	BYTE		        An4   v040
	BYTE	W03
	BYTE		        An4   v020
	BYTE	W03
	BYTE	PEND
	BYTE	W12
	BYTE		N03     Gs4   v112
	BYTE	W03
	BYTE		        Gs4   v020
	BYTE	W03
	BYTE		        Gs4   v040
	BYTE	W03
	BYTE		        Gs4   v020
	BYTE	W15
	BYTE		        Fs4   v112
	BYTE	W03
	BYTE		        Fs4   v020
	BYTE	W03
	BYTE		        Fs4   v040
	BYTE	W03
	BYTE		        Fs4   v020
	BYTE	W15
	BYTE		        En4   v112
	BYTE	W03
	BYTE		        En4   v020
	BYTE	W03
	BYTE		        En4   v040
	BYTE	W03
	BYTE		        En4   v020
	BYTE	W15
	BYTE		        Fs4   v112
	BYTE	W03
	BYTE		        Fs4   v020
	BYTE	W03
	BYTE		        Fs4   v040
	BYTE	W03
	BYTE		        Fs4   v020
	BYTE	W03
	BYTE	PEND
	BYTE	W96
	BYTE	W96
	BYTE	PATT
	 POIN2	sky_tower_0 + 0x181
	BYTE	PATT
	 POIN2	sky_tower_0 + 0x1CC
	BYTE	W96
	BYTE	W96
	BYTE	W96
	BYTE	W96
	BYTE	W96
	BYTE	W96
	BYTE	W96
	BYTE	W96
	BYTE	W96
	BYTE	W16
	BYTE		VOICE   5
	BYTE		VOL     76*sky_tower_mvl/mxv
	BYTE	W01
	BYTE		MOD     100
	BYTE	W78
	BYTE	W01
	BYTE		N04     Bn3   v100
	BYTE	W06
	BYTE		        Bn3   v016
	BYTE	W18
	BYTE		N12     Bn3   v100
	BYTE	W24
	BYTE		N04     Fs3 
	BYTE	W06
	BYTE		        Fs3   v016
	BYTE	W06
	BYTE		        Bn3   v100
	BYTE	W06
	BYTE		        Bn3   v016
	BYTE	W06
	BYTE		        Fs3   v100
	BYTE	W06
	BYTE		        Fs3   v016
	BYTE	W06
	BYTE		N12     Bn3   v080
	BYTE	W12
	BYTE	PEND
	BYTE	W12
	BYTE		N04     Fs3   v100
	BYTE	W12
	BYTE		        Fs3   v016
	BYTE	W12
	BYTE		N12     Fs4   v080
	BYTE	W24
	BYTE		N04     Fs3   v100
	BYTE	W06
	BYTE		        Fs3   v016
	BYTE	W06
	BYTE		        An3   v100
	BYTE	W06
	BYTE		        Fs3   v016
	BYTE	W06
	BYTE		N12     An3   v100
	BYTE	W12
	BYTE	PATT
	 POIN2	sky_tower_0 + 0x21E
	BYTE	W84
	BYTE	W03
	BYTE		BEND    c_v+0
	BYTE	W01
	BYTE		VOICE   46
	BYTE		VOL     76*sky_tower_mvl/mxv
	BYTE		PAN     c_v+0
	BYTE	W01
	BYTE		MOD     100
	BYTE		MODT    mod_pan
	BYTE	W07
	BYTE	PATT
	 POIN2	sky_tower_0 + 0x181
	BYTE	PATT
	 POIN2	sky_tower_0 + 0x1CC
	BYTE	W96
	BYTE	W96
	BYTE	PATT
	 POIN2	sky_tower_0 + 0x181
	BYTE	PATT
	 POIN2	sky_tower_0 + 0x1CC
	BYTE	W96
	BYTE	W96
	BYTE	W96
	BYTE	W96
	BYTE	W96
	BYTE	W96
	BYTE	W96
	BYTE	W96
	BYTE		VOICE   76
	BYTE		VOL     66*sky_tower_mvl/mxv
	BYTE	W01
	BYTE		MOD     80
	BYTE		BENDR   12
	BYTE		LFOS    35
	BYTE	W01
	BYTE		MODT    mod_tre
	BYTE	W07
	BYTE		BEND    c_v+0
	BYTE	W84
	BYTE	W03
	BYTE	W68
	BYTE	W03
	BYTE		VOL     66*sky_tower_mvl/mxv
	BYTE	W01
	BYTE		N16     Cs4   v112
	BYTE	W04
	BYTE		VOL     61*sky_tower_mvl/mxv
	BYTE	W02
	BYTE		        56*sky_tower_mvl/mxv
	BYTE	W02
	BYTE		        51*sky_tower_mvl/mxv
	BYTE	W02
	BYTE		        46*sky_tower_mvl/mxv
	BYTE	W02
	BYTE		        36*sky_tower_mvl/mxv
	BYTE	W01
	BYTE		        29*sky_tower_mvl/mxv
	BYTE	W02
	BYTE		        16*sky_tower_mvl/mxv
	BYTE	W08
	BYTE		        66*sky_tower_mvl/mxv
	BYTE		BEND    c_v-4
	BYTE	W01
	BYTE		N76     Fs4   v080
	BYTE	W03
	BYTE		VOL     48*sky_tower_mvl/mxv
	BYTE		BEND    c_v-4
	BYTE	W02
	BYTE		        c_v-3
	BYTE	W01
	BYTE		        c_v-2
	BYTE	W01
	BYTE		        c_v+0
	BYTE	W08
	BYTE		VOL     53*sky_tower_mvl/mxv
	BYTE	W14
	BYTE		        60*sky_tower_mvl/mxv
	BYTE	W06
	BYTE		        65*sky_tower_mvl/mxv
	BYTE	W05
	BYTE		        70*sky_tower_mvl/mxv
	BYTE	W06
	BYTE		        78*sky_tower_mvl/mxv
	BYTE	W04
	BYTE		        83*sky_tower_mvl/mxv
	BYTE	W03
	BYTE		        77*sky_tower_mvl/mxv
	BYTE	W03
	BYTE		        72*sky_tower_mvl/mxv
	BYTE	W02
	BYTE		        67*sky_tower_mvl/mxv
	BYTE	W02
	BYTE		        62*sky_tower_mvl/mxv
	BYTE	W02
	BYTE		        56*sky_tower_mvl/mxv
	BYTE	W02
	BYTE		        50*sky_tower_mvl/mxv
	BYTE	W02
	BYTE		        42*sky_tower_mvl/mxv
	BYTE	W02
	BYTE		        35*sky_tower_mvl/mxv
	BYTE	W01
	BYTE		        28*sky_tower_mvl/mxv
	BYTE	W01
	BYTE		        20*sky_tower_mvl/mxv
	BYTE	W13
	BYTE		        66*sky_tower_mvl/mxv
	BYTE	W01
	BYTE		N05     En4   v096
	BYTE	W06
	BYTE		        Fs4   v072
	BYTE	W05
	BYTE		BEND    c_v-4
	BYTE	W01
	BYTE		N68     Cs5   v084
	BYTE	W03
	BYTE		VOL     48*sky_tower_mvl/mxv
	BYTE		BEND    c_v-4
	BYTE	W02
	BYTE		        c_v-3
	BYTE	W01
	BYTE		        c_v-2
	BYTE	W01
	BYTE		        c_v+0
	BYTE	W08
	BYTE		VOL     53*sky_tower_mvl/mxv
	BYTE	W03
	BYTE		        54*sky_tower_mvl/mxv
	BYTE	W02
	BYTE		        57*sky_tower_mvl/mxv
	BYTE	W02
	BYTE		        60*sky_tower_mvl/mxv
	BYTE	W02
	BYTE		        64*sky_tower_mvl/mxv
	BYTE	W02
	BYTE		        67*sky_tower_mvl/mxv
	BYTE	W03
	BYTE		        72*sky_tower_mvl/mxv
	BYTE	W03
	BYTE		        77*sky_tower_mvl/mxv
	BYTE	W02
	BYTE		        81*sky_tower_mvl/mxv
	BYTE	W03
	BYTE		        76*sky_tower_mvl/mxv
	BYTE	W04
	BYTE		        73*sky_tower_mvl/mxv
	BYTE	W03
	BYTE		        68*sky_tower_mvl/mxv
	BYTE	W03
	BYTE		        64*sky_tower_mvl/mxv
	BYTE	W02
	BYTE		        60*sky_tower_mvl/mxv
	BYTE	W02
	BYTE		        53*sky_tower_mvl/mxv
	BYTE	W02
	BYTE		        45*sky_tower_mvl/mxv
	BYTE	W02
	BYTE		        37*sky_tower_mvl/mxv
	BYTE	W02
	BYTE		        28*sky_tower_mvl/mxv
	BYTE	W02
	BYTE		        20*sky_tower_mvl/mxv
	BYTE	W01
	BYTE		        16*sky_tower_mvl/mxv
	BYTE	W01
	BYTE		        12*sky_tower_mvl/mxv
	BYTE	W10
	BYTE		        66*sky_tower_mvl/mxv
	BYTE	W01
	BYTE		N23     En5   v060
	BYTE	W24
	BYTE		N64     Ds5   v084
	BYTE	W03
	BYTE		VOL     48*sky_tower_mvl/mxv
	BYTE	W12
	BYTE		        52*sky_tower_mvl/mxv
	BYTE	W03
	BYTE		        58*sky_tower_mvl/mxv
	BYTE	W02
	BYTE		        62*sky_tower_mvl/mxv
	BYTE	W02
	BYTE		        65*sky_tower_mvl/mxv
	BYTE	W02
	BYTE		        69*sky_tower_mvl/mxv
	BYTE	W02
	BYTE		        67*sky_tower_mvl/mxv
	BYTE	W03
	BYTE		        70*sky_tower_mvl/mxv
	BYTE	W03
	BYTE		        68*sky_tower_mvl/mxv
	BYTE	W02
	BYTE		        67*sky_tower_mvl/mxv
	BYTE	W03
	BYTE		        66*sky_tower_mvl/mxv
	BYTE	W04
	BYTE		        60*sky_tower_mvl/mxv
	BYTE	W03
	BYTE		        54*sky_tower_mvl/mxv
	BYTE	W03
	BYTE		        48*sky_tower_mvl/mxv
	BYTE	W02
	BYTE		        44*sky_tower_mvl/mxv
	BYTE	W02
	BYTE		        40*sky_tower_mvl/mxv
	BYTE	W02
	BYTE		        35*sky_tower_mvl/mxv
	BYTE	W02
	BYTE		        31*sky_tower_mvl/mxv
	BYTE	W02
	BYTE		        27*sky_tower_mvl/mxv
	BYTE	W02
	BYTE		        22*sky_tower_mvl/mxv
	BYTE	W01
	BYTE		        20*sky_tower_mvl/mxv
	BYTE	W01
	BYTE		        18*sky_tower_mvl/mxv
	BYTE	W10
	BYTE		        66*sky_tower_mvl/mxv
	BYTE	W01
	BYTE		N23     Bn4   v088
	BYTE	W23
	BYTE		BEND    c_v-4
	BYTE	W01
	BYTE	PEND
	BYTE		VOL     33*sky_tower_mvl/mxv
	BYTE		N36     Fs5   v112
	BYTE	W03
	BYTE		BEND    c_v-4
	BYTE	W02
	BYTE		        c_v-3
	BYTE	W01
	BYTE		VOL     35*sky_tower_mvl/mxv
	BYTE		BEND    c_v-2
	BYTE	W01
	BYTE		        c_v+0
	BYTE	W01
	BYTE		VOL     38*sky_tower_mvl/mxv
	BYTE	W03
	BYTE		        38*sky_tower_mvl/mxv
	BYTE	W03
	BYTE		        44*sky_tower_mvl/mxv
	BYTE	W02
	BYTE		        48*sky_tower_mvl/mxv
	BYTE	W01
	BYTE		        50*sky_tower_mvl/mxv
	BYTE	W01
	BYTE		        52*sky_tower_mvl/mxv
	BYTE	W01
	BYTE		        54*sky_tower_mvl/mxv
	BYTE	W01
	BYTE		        48*sky_tower_mvl/mxv
	BYTE	W01
	BYTE		        52*sky_tower_mvl/mxv
	BYTE	W01
	BYTE		        50*sky_tower_mvl/mxv
	BYTE	W01
	BYTE		        49*sky_tower_mvl/mxv
	BYTE	W01
	BYTE		        46*sky_tower_mvl/mxv
	BYTE	W01
	BYTE		        42*sky_tower_mvl/mxv
	BYTE	W01
	BYTE		        37*sky_tower_mvl/mxv
	BYTE	W01
	BYTE		        32*sky_tower_mvl/mxv
	BYTE	W08
	BYTE		        66*sky_tower_mvl/mxv
	BYTE	W01
	BYTE		N05     En5   v096
	BYTE	W04
	BYTE		        Fs5   v056
	BYTE	W03
	BYTE		        En5   v072
	BYTE	W04
	BYTE		BEND    c_v-4
	BYTE	W01
	BYTE		N32     Ds5   v112
	BYTE	W03
	BYTE		BEND    c_v-4
	BYTE	W02
	BYTE		        c_v-3
	BYTE	W01
	BYTE		        c_v-2
	BYTE	W01
	BYTE		        c_v+0
	BYTE	W15
	BYTE		VOL     60*sky_tower_mvl/mxv
	BYTE	W01
	BYTE		        58*sky_tower_mvl/mxv
	BYTE	W01
	BYTE		        56*sky_tower_mvl/mxv
	BYTE	W01
	BYTE		        54*sky_tower_mvl/mxv
	BYTE	W01
	BYTE		        51*sky_tower_mvl/mxv
	BYTE	W01
	BYTE		        49*sky_tower_mvl/mxv
	BYTE	W01
	BYTE		        47*sky_tower_mvl/mxv
	BYTE	W01
	BYTE		        45*sky_tower_mvl/mxv
	BYTE	W01
	BYTE		        42*sky_tower_mvl/mxv
	BYTE	W01
	BYTE		        40*sky_tower_mvl/mxv
	BYTE	W01
	BYTE		        36*sky_tower_mvl/mxv
	BYTE	W01
	BYTE		        30*sky_tower_mvl/mxv
	BYTE	W01
	BYTE		        26*sky_tower_mvl/mxv
	BYTE	W01
	BYTE		        20*sky_tower_mvl/mxv
	BYTE	W01
	BYTE		        16*sky_tower_mvl/mxv
	BYTE	W01
	BYTE		        10*sky_tower_mvl/mxv
	BYTE	W10
	BYTE		        66*sky_tower_mvl/mxv
	BYTE		BEND    c_v-4
	BYTE	W01
	BYTE	PEND
	BYTE		N80     Cs5 
	BYTE	W03
	BYTE		VOL     40*sky_tower_mvl/mxv
	BYTE		BEND    c_v-4
	BYTE	W02
	BYTE		        c_v-3
	BYTE	W01
	BYTE		        c_v-2
	BYTE	W01
	BYTE		        c_v+0
	BYTE	W08
	BYTE		VOL     46*sky_tower_mvl/mxv
	BYTE	W14
	BYTE		        50*sky_tower_mvl/mxv
	BYTE	W06
	BYTE		        55*sky_tower_mvl/mxv
	BYTE	W05
	BYTE		        58*sky_tower_mvl/mxv
	BYTE	W06
	BYTE		        62*sky_tower_mvl/mxv
	BYTE	W04
	BYTE		        65*sky_tower_mvl/mxv
	BYTE	W03
	BYTE		        64*sky_tower_mvl/mxv
	BYTE	W03
	BYTE		        63*sky_tower_mvl/mxv
	BYTE	W02
	BYTE		        62*sky_tower_mvl/mxv
	BYTE	W02
	BYTE		        61*sky_tower_mvl/mxv
	BYTE	W02
	BYTE		        60*sky_tower_mvl/mxv
	BYTE		BEND    c_v+0
	BYTE	W02
	BYTE		VOL     59*sky_tower_mvl/mxv
	BYTE	W02
	BYTE		        55*sky_tower_mvl/mxv
	BYTE	W02
	BYTE		        51*sky_tower_mvl/mxv
	BYTE		BEND    c_v-1
	BYTE	W02
	BYTE		VOL     46*sky_tower_mvl/mxv
	BYTE	W02
	BYTE		        42*sky_tower_mvl/mxv
	BYTE		BEND    c_v-2
	BYTE	W02
	BYTE		VOL     38*sky_tower_mvl/mxv
	BYTE		BEND    c_v-2
	BYTE	W02
	BYTE		VOL     34*sky_tower_mvl/mxv
	BYTE		BEND    c_v-3
	BYTE	W02
	BYTE		VOL     29*sky_tower_mvl/mxv
	BYTE		BEND    c_v-4
	BYTE	W02
	BYTE		        c_v-4
	BYTE	W15
	BYTE		VOL     66*sky_tower_mvl/mxv
	BYTE		BEND    c_v-4
	BYTE	W01
	BYTE		N36     Cs5   v084
	BYTE	W03
	BYTE		BEND    c_v-4
	BYTE	W02
	BYTE		        c_v-3
	BYTE	W01
	BYTE		        c_v-2
	BYTE	W01
	BYTE		        c_v+0
	BYTE	W28
	BYTE	W01
	BYTE		N36     Fs5   v052
	BYTE	W32
	BYTE	W03
	BYTE		VOL     66*sky_tower_mvl/mxv
	BYTE		BEND    c_v+0
	BYTE	W01
	BYTE		N24     An5   v084
	BYTE	W23
	BYTE		BEND    c_v-4
	BYTE	W01
	BYTE		N68     Gs5   v092
	BYTE	W03
	BYTE		BEND    c_v-4
	BYTE	W02
	BYTE		        c_v-3
	BYTE	W01
	BYTE		        c_v-2
	BYTE	W01
	BYTE		        c_v+0
	BYTE	W02
	BYTE		VOL     43*sky_tower_mvl/mxv
	BYTE	W12
	BYTE		        45*sky_tower_mvl/mxv
	BYTE	W03
	BYTE		        51*sky_tower_mvl/mxv
	BYTE	W02
	BYTE		        54*sky_tower_mvl/mxv
	BYTE	W02
	BYTE		        56*sky_tower_mvl/mxv
	BYTE	W02
	BYTE		        58*sky_tower_mvl/mxv
	BYTE	W02
	BYTE		        61*sky_tower_mvl/mxv
	BYTE	W03
	BYTE		        64*sky_tower_mvl/mxv
	BYTE	W03
	BYTE		        68*sky_tower_mvl/mxv
	BYTE	W02
	BYTE		        66*sky_tower_mvl/mxv
	BYTE	W03
	BYTE		        61*sky_tower_mvl/mxv
	BYTE	W04
	BYTE		        56*sky_tower_mvl/mxv
	BYTE	W03
	BYTE		        52*sky_tower_mvl/mxv
	BYTE	W03
	BYTE		        48*sky_tower_mvl/mxv
	BYTE	W02
	BYTE		        45*sky_tower_mvl/mxv
	BYTE	W02
	BYTE		        42*sky_tower_mvl/mxv
	BYTE	W02
	BYTE		        35*sky_tower_mvl/mxv
	BYTE	W02
	BYTE		        28*sky_tower_mvl/mxv
	BYTE	W02
	BYTE		        21*sky_tower_mvl/mxv
	BYTE	W02
	BYTE		        14*sky_tower_mvl/mxv
	BYTE	W01
	BYTE		        10*sky_tower_mvl/mxv
	BYTE	W01
	BYTE		        7*sky_tower_mvl/mxv
	BYTE	W04
	BYTE		        66*sky_tower_mvl/mxv
	BYTE	W01
	BYTE		N23     En5   v080
	BYTE	W23
	BYTE		BEND    c_v-4
	BYTE	W01
	BYTE		N36     Bn5   v112
	BYTE	W03
	BYTE		BEND    c_v-4
	BYTE	W02
	BYTE		        c_v-3
	BYTE	W01
	BYTE		        c_v-2
	BYTE	W01
	BYTE		        c_v+0
	BYTE	W28
	BYTE	W01
	BYTE		N05     An5   v096
	BYTE	W04
	BYTE		        Bn5 
	BYTE	W03
	BYTE		        An5   v092
	BYTE	W04
	BYTE		BEND    c_v-4
	BYTE	W01
	BYTE		N44     Gs5 
	BYTE	W02
	BYTE		VOL     34*sky_tower_mvl/mxv
	BYTE	W01
	BYTE		BEND    c_v-4
	BYTE	W02
	BYTE		        c_v-3
	BYTE	W01
	BYTE		        c_v-2
	BYTE	W01
	BYTE		        c_v+0
	BYTE	W02
	BYTE		VOL     38*sky_tower_mvl/mxv
	BYTE	W03
	BYTE		        40*sky_tower_mvl/mxv
	BYTE	W03
	BYTE		        46*sky_tower_mvl/mxv
	BYTE	W03
	BYTE		        52*sky_tower_mvl/mxv
	BYTE	W02
	BYTE		        59*sky_tower_mvl/mxv
	BYTE	W04
	BYTE		        64*sky_tower_mvl/mxv
	BYTE	W02
	BYTE		BEND    c_v+0
	BYTE	W01
	BYTE		VOL     60*sky_tower_mvl/mxv
	BYTE	W02
	BYTE		        58*sky_tower_mvl/mxv
	BYTE	W02
	BYTE		        56*sky_tower_mvl/mxv
	BYTE	W01
	BYTE		BEND    c_v-1
	BYTE	W01
	BYTE		VOL     53*sky_tower_mvl/mxv
	BYTE	W02
	BYTE		        50*sky_tower_mvl/mxv
	BYTE	W01
	BYTE		BEND    c_v-2
	BYTE	W01
	BYTE		VOL     44*sky_tower_mvl/mxv
	BYTE	W01
	BYTE		        42*sky_tower_mvl/mxv
	BYTE		BEND    c_v-2
	BYTE	W01
	BYTE		VOL     38*sky_tower_mvl/mxv
	BYTE	W01
	BYTE		        36*sky_tower_mvl/mxv
	BYTE		BEND    c_v-3
	BYTE	W01
	BYTE		VOL     32*sky_tower_mvl/mxv
	BYTE	W01
	BYTE		BEND    c_v-4
	BYTE	W01
	BYTE		VOL     28*sky_tower_mvl/mxv
	BYTE	W01
	BYTE		BEND    c_v-4
	BYTE	W01
	BYTE		VOL     24*sky_tower_mvl/mxv
	BYTE	W02
	BYTE		        15*sky_tower_mvl/mxv
	BYTE	W01
	BYTE	W96
	BYTE	W64
	BYTE	W01
	BYTE		        66*sky_tower_mvl/mxv
	BYTE	W06
	BYTE		BEND    c_v+0
	BYTE	W01
	BYTE		N23     Cs4   v072
	BYTE	W23
	BYTE		BEND    c_v-4
	BYTE	W01
	BYTE		N32     Fs4   v072
	BYTE	W03
	BYTE		BEND    c_v-4
	BYTE	W02
	BYTE		        c_v-3
	BYTE	W01
	BYTE		        c_v-2
	BYTE	W01
	BYTE		        c_v+0
	BYTE	W11
	BYTE		VOL     60*sky_tower_mvl/mxv
	BYTE	W05
	BYTE		        56*sky_tower_mvl/mxv
	BYTE	W03
	BYTE		        52*sky_tower_mvl/mxv
	BYTE	W04
	BYTE		        48*sky_tower_mvl/mxv
	BYTE	W02
	BYTE		        45*sky_tower_mvl/mxv
	BYTE	W04
	BYTE		N06     En4   v108
	BYTE	W06
	BYTE		        Fs4   v080
	BYTE	W05
	BYTE		VOL     66*sky_tower_mvl/mxv
	BYTE	W01
	BYTE		N42     Cs5   v072
	BYTE	W24
	BYTE		VOL     64*sky_tower_mvl/mxv
	BYTE	W03
	BYTE		        60*sky_tower_mvl/mxv
	BYTE	W02
	BYTE		        58*sky_tower_mvl/mxv
	BYTE	W02
	BYTE		        56*sky_tower_mvl/mxv
	BYTE	W02
	BYTE		        53*sky_tower_mvl/mxv
	BYTE	W02
	BYTE		        50*sky_tower_mvl/mxv
	BYTE	W02
	BYTE		        44*sky_tower_mvl/mxv
	BYTE	W01
	BYTE		        42*sky_tower_mvl/mxv
	BYTE	W01
	BYTE		        38*sky_tower_mvl/mxv
	BYTE	W01
	BYTE		        36*sky_tower_mvl/mxv
	BYTE	W01
	BYTE		        32*sky_tower_mvl/mxv
	BYTE	W06
	BYTE		        66*sky_tower_mvl/mxv
	BYTE		BEND    c_v-4
	BYTE	W01
	BYTE	PEND
	BYTE		N36     Bn4   v056
	BYTE	W03
	BYTE		BEND    c_v-4
	BYTE	W02
	BYTE		        c_v-3
	BYTE	W01
	BYTE		        c_v-2
	BYTE	W01
	BYTE		        c_v+0
	BYTE	W28
	BYTE	W01
	BYTE		N06     Bn4   v068
	BYTE	W06
	BYTE		        Cs5   v060
	BYTE	W05
	BYTE		VOL     66*sky_tower_mvl/mxv
	BYTE		BEND    c_v-4
	BYTE	W01
	BYTE		N23     Bn4   v072
	BYTE	W03
	BYTE		BEND    c_v-4
	BYTE	W02
	BYTE		        c_v-3
	BYTE	W01
	BYTE		        c_v-2
	BYTE	W01
	BYTE		        c_v+0
	BYTE	W17
	BYTE		N23     Gs4 
	BYTE	W24
	BYTE		N84     Fs4   v072
	BYTE	W42
	BYTE		VOL     63*sky_tower_mvl/mxv
	BYTE	W08
	BYTE		        62*sky_tower_mvl/mxv
	BYTE	W06
	BYTE		        59*sky_tower_mvl/mxv
	BYTE		BEND    c_v+0
	BYTE	W04
	BYTE		VOL     58*sky_tower_mvl/mxv
	BYTE	W02
	BYTE		BEND    c_v-1
	BYTE	W02
	BYTE		VOL     55*sky_tower_mvl/mxv
	BYTE	W02
	BYTE		BEND    c_v-2
	BYTE	W01
	BYTE		VOL     53*sky_tower_mvl/mxv
	BYTE	W01
	BYTE		BEND    c_v-2
	BYTE	W01
	BYTE		VOL     51*sky_tower_mvl/mxv
	BYTE	W01
	BYTE		BEND    c_v-3
	BYTE	W01
	BYTE		VOL     48*sky_tower_mvl/mxv
	BYTE	W01
	BYTE		        46*sky_tower_mvl/mxv
	BYTE		BEND    c_v-4
	BYTE	W02
	BYTE		VOL     42*sky_tower_mvl/mxv
	BYTE		BEND    c_v-4
	BYTE	W02
	BYTE		VOL     37*sky_tower_mvl/mxv
	BYTE	W02
	BYTE		        32*sky_tower_mvl/mxv
	BYTE	W02
	BYTE		        27*sky_tower_mvl/mxv
	BYTE	W02
	BYTE		        20*sky_tower_mvl/mxv
	BYTE	W14
	BYTE	PEND
	BYTE	W68
	BYTE	W03
	BYTE		VOL     66*sky_tower_mvl/mxv
	BYTE		BEND    c_v+0
	BYTE	W01
	BYTE		N24     Fs4   v072
	BYTE	W23
	BYTE		BEND    c_v-4
	BYTE	W01
	BYTE	PEND
	BYTE		N72     Cs5   v060
	BYTE	W03
	BYTE		BEND    c_v-4
	BYTE	W02
	BYTE		        c_v-3
	BYTE	W01
	BYTE		        c_v-2
	BYTE	W01
	BYTE		        c_v+0
	BYTE	W64
	BYTE	W01
	BYTE		N24     Bn4   v092
	BYTE	W06
	BYTE		VOL     64*sky_tower_mvl/mxv
	BYTE	W03
	BYTE		        62*sky_tower_mvl/mxv
	BYTE	W02
	BYTE		        59*sky_tower_mvl/mxv
	BYTE	W02
	BYTE		        58*sky_tower_mvl/mxv
	BYTE	W02
	BYTE		        56*sky_tower_mvl/mxv
	BYTE	W02
	BYTE		        52*sky_tower_mvl/mxv
	BYTE	W02
	BYTE		        48*sky_tower_mvl/mxv
	BYTE	W04
	BYTE		        66*sky_tower_mvl/mxv
	BYTE		BEND    c_v-4
	BYTE	W01
	BYTE	PEND
	BYTE		N48     Fs5   v080
	BYTE	W03
	BYTE		BEND    c_v-4
	BYTE	W02
	BYTE		        c_v-3
	BYTE	W01
	BYTE		        c_v-2
	BYTE	W01
	BYTE		        c_v+0
	BYTE	W40
	BYTE		        c_v-4
	BYTE	W01
	BYTE		N36     En5   v060
	BYTE	W03
	BYTE		BEND    c_v-4
	BYTE	W02
	BYTE		        c_v-3
	BYTE	W01
	BYTE		        c_v-2
	BYTE	W01
	BYTE		        c_v+0
	BYTE	W28
	BYTE	W01
	BYTE		N04     En5   v072
	BYTE	W03
	BYTE		        Fs5 
	BYTE	W03
	BYTE		        En5 
	BYTE	W03
	BYTE		TIE     Cs5   v056
	BYTE	W03
	BYTE	PEND
	BYTE	PATT
	 POIN2	sky_tower_0 + 0x120
	BYTE		EOT     Cs5 
	BYTE	W68
	BYTE	W03
	BYTE		VOL     66*sky_tower_mvl/mxv
	BYTE		BEND    c_v+0
	BYTE	W01
	BYTE		N23     Cs4   v072
	BYTE	W23
	BYTE		BEND    c_v-4
	BYTE	W01
	BYTE	PATT
	 POIN2	sky_tower_0 + 0x512
	BYTE		N36     Bn4   v072
	BYTE	W03
	BYTE		BEND    c_v-4
	BYTE	W02
	BYTE		        c_v-3
	BYTE	W01
	BYTE		        c_v-2
	BYTE	W01
	BYTE		        c_v+0
	BYTE	W28
	BYTE	W01
	BYTE		N06     Bn4   v068
	BYTE	W06
	BYTE		        Cs5   v060
	BYTE	W05
	BYTE		VOL     66*sky_tower_mvl/mxv
	BYTE		BEND    c_v-4
	BYTE	W01
	BYTE		N23     Bn4   v072
	BYTE	W03
	BYTE		BEND    c_v-4
	BYTE	W02
	BYTE		        c_v-3
	BYTE	W01
	BYTE		        c_v-2
	BYTE	W01
	BYTE		        c_v+0
	BYTE	W17
	BYTE		N23     Gs4 
	BYTE	W24
	BYTE	PATT
	 POIN2	sky_tower_0 + 0x57E
	BYTE	PATT
	 POIN2	sky_tower_0 + 0x5B9
	BYTE	PATT
	 POIN2	sky_tower_0 + 0x5C8
	BYTE	PATT
	 POIN2	sky_tower_0 + 0x5EE
	BYTE	W03
	BYTE		VOL     41*sky_tower_mvl/mxv
	BYTE	W32
	BYTE		        43*sky_tower_mvl/mxv
	BYTE	W03
	BYTE		        45*sky_tower_mvl/mxv
	BYTE	W03
	BYTE		        47*sky_tower_mvl/mxv
	BYTE	W03
	BYTE		        51*sky_tower_mvl/mxv
	BYTE	W03
	BYTE		        55*sky_tower_mvl/mxv
	BYTE	W02
	BYTE		        57*sky_tower_mvl/mxv
	BYTE	W05
	BYTE		        63*sky_tower_mvl/mxv
	BYTE	W08
	BYTE		        62*sky_tower_mvl/mxv
	BYTE	W06
	BYTE		        59*sky_tower_mvl/mxv
	BYTE	W04
	BYTE		        58*sky_tower_mvl/mxv
	BYTE	W02
	BYTE		BEND    c_v+0
	BYTE	W02
	BYTE		VOL     55*sky_tower_mvl/mxv
	BYTE	W03
	BYTE		        53*sky_tower_mvl/mxv
	BYTE	W01
	BYTE		BEND    c_v-1
	BYTE	W01
	BYTE		VOL     51*sky_tower_mvl/mxv
	BYTE	W02
	BYTE		        48*sky_tower_mvl/mxv
	BYTE	W01
	BYTE		        46*sky_tower_mvl/mxv
	BYTE		BEND    c_v-2
	BYTE	W02
	BYTE		VOL     42*sky_tower_mvl/mxv
	BYTE		BEND    c_v-2
	BYTE	W02
	BYTE		VOL     37*sky_tower_mvl/mxv
	BYTE		BEND    c_v-3
	BYTE	W02
	BYTE		VOL     32*sky_tower_mvl/mxv
	BYTE		BEND    c_v-4
	BYTE	W02
	BYTE		VOL     27*sky_tower_mvl/mxv
	BYTE		BEND    c_v-4
	BYTE	W02
	BYTE		VOL     20*sky_tower_mvl/mxv
	BYTE	W01
	BYTE		VOICE   45
	BYTE		MOD     50
	BYTE		PAN     c_v+0
	BYTE	W01
	BYTE		EOT     Cs5 
	BYTE	W68
	BYTE	W03
	BYTE		VOL     66*sky_tower_mvl/mxv
	BYTE		BEND    c_v-2
	BYTE	W01
	BYTE		N17     Cs3   v100
	BYTE	W03
	BYTE		BEND    c_v-2
	BYTE	W02
	BYTE		VOL     60*sky_tower_mvl/mxv
	BYTE		BEND    c_v-1
	BYTE	W01
	BYTE		        c_v-1
	BYTE	W01
	BYTE		VOL     53*sky_tower_mvl/mxv
	BYTE		BEND    c_v+0
	BYTE	W02
	BYTE		VOL     49*sky_tower_mvl/mxv
	BYTE	W02
	BYTE		        46*sky_tower_mvl/mxv
	BYTE	W01
	BYTE		        42*sky_tower_mvl/mxv
	BYTE	W01
	BYTE		        39*sky_tower_mvl/mxv
	BYTE	W01
	BYTE		        36*sky_tower_mvl/mxv
	BYTE	W01
	BYTE		        34*sky_tower_mvl/mxv
	BYTE	W01
	BYTE		        32*sky_tower_mvl/mxv
	BYTE	W01
	BYTE		        29*sky_tower_mvl/mxv
	BYTE	W06
	BYTE		        64*sky_tower_mvl/mxv
	BYTE	W01
	BYTE		N32     Fs3 
	BYTE	W06
	BYTE		VOL     40*sky_tower_mvl/mxv
	BYTE	W05
	BYTE		        45*sky_tower_mvl/mxv
	BYTE	W02
	BYTE		        50*sky_tower_mvl/mxv
	BYTE	W02
	BYTE		        56*sky_tower_mvl/mxv
	BYTE	W02
	BYTE		        65*sky_tower_mvl/mxv
	BYTE	W01
	BYTE		        76*sky_tower_mvl/mxv
	BYTE	W03
	BYTE		        74*sky_tower_mvl/mxv
	BYTE	W02
	BYTE		        68*sky_tower_mvl/mxv
	BYTE	W01
	BYTE		        66*sky_tower_mvl/mxv
	BYTE	W02
	BYTE		        60*sky_tower_mvl/mxv
	BYTE	W04
	BYTE		        54*sky_tower_mvl/mxv
	BYTE	W02
	BYTE		        45*sky_tower_mvl/mxv
	BYTE	W04
	BYTE		N06     En3 
	BYTE	W06
	BYTE		        Fs3 
	BYTE	W05
	BYTE		VOL     66*sky_tower_mvl/mxv
	BYTE	W01
	BYTE		N42     Cs4 
	BYTE	W24
	BYTE		VOL     64*sky_tower_mvl/mxv
	BYTE	W03
	BYTE		        60*sky_tower_mvl/mxv
	BYTE	W02
	BYTE		        58*sky_tower_mvl/mxv
	BYTE	W02
	BYTE		        56*sky_tower_mvl/mxv
	BYTE	W02
	BYTE		        53*sky_tower_mvl/mxv
	BYTE	W02
	BYTE		        50*sky_tower_mvl/mxv
	BYTE	W02
	BYTE		        44*sky_tower_mvl/mxv
	BYTE	W01
	BYTE		        42*sky_tower_mvl/mxv
	BYTE	W01
	BYTE		        38*sky_tower_mvl/mxv
	BYTE	W01
	BYTE		        36*sky_tower_mvl/mxv
	BYTE	W01
	BYTE		        32*sky_tower_mvl/mxv
	BYTE	W06
	BYTE		        66*sky_tower_mvl/mxv
	BYTE		BEND    c_v-4
	BYTE	W01
	BYTE		N36     Bn3 
	BYTE	W03
	BYTE		BEND    c_v-4
	BYTE	W02
	BYTE		        c_v-3
	BYTE	W01
	BYTE		        c_v-2
	BYTE	W01
	BYTE		        c_v+0
	BYTE	W28
	BYTE	W01
	BYTE		N06
	BYTE	W06
	BYTE		        Cs4 
	BYTE	W05
	BYTE		VOL     66*sky_tower_mvl/mxv
	BYTE	W01
	BYTE		N23     Bn3 
	BYTE	W24
	BYTE		        Gs3   v076
	BYTE	W24
	BYTE		N96     Fs3   v100
	BYTE	W42
	BYTE		VOL     63*sky_tower_mvl/mxv
	BYTE	W08
	BYTE		        62*sky_tower_mvl/mxv
	BYTE	W06
	BYTE		        59*sky_tower_mvl/mxv
	BYTE	W04
	BYTE		        58*sky_tower_mvl/mxv
	BYTE	W04
	BYTE		        55*sky_tower_mvl/mxv
	BYTE	W03
	BYTE		        53*sky_tower_mvl/mxv
	BYTE	W02
	BYTE		        51*sky_tower_mvl/mxv
	BYTE	W02
	BYTE		        48*sky_tower_mvl/mxv
	BYTE	W01
	BYTE		        46*sky_tower_mvl/mxv
	BYTE	W02
	BYTE		        42*sky_tower_mvl/mxv
	BYTE	W02
	BYTE		        37*sky_tower_mvl/mxv
	BYTE	W02
	BYTE		        32*sky_tower_mvl/mxv
	BYTE	W02
	BYTE		        27*sky_tower_mvl/mxv
	BYTE	W02
	BYTE		        20*sky_tower_mvl/mxv
	BYTE	W14
	BYTE	W68
	BYTE	W03
	BYTE		        66*sky_tower_mvl/mxv
	BYTE	W01
	BYTE		N24
	BYTE	W24
	BYTE		N72     Cs4 
	BYTE	W72
	BYTE		N24     Bn3 
	BYTE	W06
	BYTE		VOL     64*sky_tower_mvl/mxv
	BYTE	W03
	BYTE		        62*sky_tower_mvl/mxv
	BYTE	W02
	BYTE		        59*sky_tower_mvl/mxv
	BYTE	W02
	BYTE		        58*sky_tower_mvl/mxv
	BYTE	W02
	BYTE		        56*sky_tower_mvl/mxv
	BYTE	W02
	BYTE		        52*sky_tower_mvl/mxv
	BYTE	W02
	BYTE		        48*sky_tower_mvl/mxv
	BYTE	W04
	BYTE		        66*sky_tower_mvl/mxv
	BYTE		BEND    c_v-4
	BYTE	W01
	BYTE		N48     Fs4 
	BYTE	W03
	BYTE		BEND    c_v-4
	BYTE	W02
	BYTE		        c_v-3
	BYTE	W01
	BYTE		        c_v-2
	BYTE	W01
	BYTE		        c_v+0
	BYTE	W40
	BYTE	W01
	BYTE		N36     En4 
	BYTE	W36
	BYTE		N06     Fs4 
	BYTE	W06
	BYTE		        En4 
	BYTE	W05
	BYTE		BEND    c_v+0
	BYTE	W01
	BYTE		TIE     Cs4 
	BYTE	W03
	BYTE		VOL     41*sky_tower_mvl/mxv
	BYTE	W32
	BYTE		        43*sky_tower_mvl/mxv
	BYTE	W03
	BYTE		        45*sky_tower_mvl/mxv
	BYTE	W03
	BYTE		        47*sky_tower_mvl/mxv
	BYTE	W03
	BYTE		        51*sky_tower_mvl/mxv
	BYTE	W03
	BYTE		        55*sky_tower_mvl/mxv
	BYTE	W02
	BYTE		        57*sky_tower_mvl/mxv
	BYTE	W14
	BYTE		        60*sky_tower_mvl/mxv
	BYTE	W09
	BYTE		        65*sky_tower_mvl/mxv
	BYTE	W08
	BYTE		        68*sky_tower_mvl/mxv
	BYTE	W07
	BYTE		        71*sky_tower_mvl/mxv
	BYTE	W09
	BYTE	W01
	BYTE		        69*sky_tower_mvl/mxv
	BYTE	W03
	BYTE		        68*sky_tower_mvl/mxv
	BYTE	W04
	BYTE		        66*sky_tower_mvl/mxv
	BYTE	W04
	BYTE		        63*sky_tower_mvl/mxv
	BYTE	W08
	BYTE		        62*sky_tower_mvl/mxv
	BYTE	W04
	BYTE		BEND    c_v+0
	BYTE	W02
	BYTE		VOL     59*sky_tower_mvl/mxv
	BYTE	W04
	BYTE		        58*sky_tower_mvl/mxv
	BYTE	W04
	BYTE		        55*sky_tower_mvl/mxv
	BYTE	W02
	BYTE		BEND    c_v-1
	BYTE	W01
	BYTE		VOL     53*sky_tower_mvl/mxv
	BYTE	W01
	BYTE		BEND    c_v-1
	BYTE	W01
	BYTE		VOL     51*sky_tower_mvl/mxv
	BYTE	W01
	BYTE		BEND    c_v-2
	BYTE	W01
	BYTE		VOL     48*sky_tower_mvl/mxv
	BYTE	W01
	BYTE		        46*sky_tower_mvl/mxv
	BYTE		BEND    c_v-2
	BYTE	W02
	BYTE		VOL     42*sky_tower_mvl/mxv
	BYTE	W02
	BYTE		        37*sky_tower_mvl/mxv
	BYTE	W02
	BYTE		        32*sky_tower_mvl/mxv
	BYTE	W02
	BYTE		        27*sky_tower_mvl/mxv
	BYTE	W02
	BYTE		        20*sky_tower_mvl/mxv
	BYTE	W13
	BYTE		EOT
	BYTE	W06
	BYTE		VOL     66*sky_tower_mvl/mxv
	BYTE	W24
	BYTE	W01
	BYTE	W96
	BYTE	W96
	BYTE	W68
	BYTE	W03
	BYTE		        66*sky_tower_mvl/mxv
	BYTE		BEND    c_v+0
	BYTE	W01
	BYTE		N04     Fs4   v060
	BYTE	W06
	BYTE		        Gs4   v048
	BYTE	W06
	BYTE		        An4 
	BYTE	W06
	BYTE		        Bn4   v080
	BYTE	W06
	BYTE		N68     Cs5   v100
	BYTE	W03
	BYTE		VOL     48*sky_tower_mvl/mxv
	BYTE	W12
	BYTE		        53*sky_tower_mvl/mxv
	BYTE	W03
	BYTE		        54*sky_tower_mvl/mxv
	BYTE	W02
	BYTE		        57*sky_tower_mvl/mxv
	BYTE	W02
	BYTE		        60*sky_tower_mvl/mxv
	BYTE	W02
	BYTE		        64*sky_tower_mvl/mxv
	BYTE	W02
	BYTE		        67*sky_tower_mvl/mxv
	BYTE	W03
	BYTE		        72*sky_tower_mvl/mxv
	BYTE	W03
	BYTE		        77*sky_tower_mvl/mxv
	BYTE	W02
	BYTE		        81*sky_tower_mvl/mxv
	BYTE	W03
	BYTE		        76*sky_tower_mvl/mxv
	BYTE	W04
	BYTE		        73*sky_tower_mvl/mxv
	BYTE	W03
	BYTE		        68*sky_tower_mvl/mxv
	BYTE	W03
	BYTE		        64*sky_tower_mvl/mxv
	BYTE	W02
	BYTE		        60*sky_tower_mvl/mxv
	BYTE	W02
	BYTE		        53*sky_tower_mvl/mxv
	BYTE	W02
	BYTE		        45*sky_tower_mvl/mxv
	BYTE	W02
	BYTE		        37*sky_tower_mvl/mxv
	BYTE	W02
	BYTE		        28*sky_tower_mvl/mxv
	BYTE	W02
	BYTE		        20*sky_tower_mvl/mxv
	BYTE	W01
	BYTE		        16*sky_tower_mvl/mxv
	BYTE	W01
	BYTE		        12*sky_tower_mvl/mxv
	BYTE	W10
	BYTE		        66*sky_tower_mvl/mxv
	BYTE	W01
	BYTE		N23     En5   v060
	BYTE	W24
	BYTE	PATT
	 POIN2	sky_tower_0 + 0x33C
	BYTE	PATT
	 POIN2	sky_tower_0 + 0x377
	BYTE		N80     Cs5   v112
	BYTE	W03
	BYTE		VOL     40*sky_tower_mvl/mxv
	BYTE		BEND    c_v-4
	BYTE	W02
	BYTE		        c_v-3
	BYTE	W01
	BYTE		        c_v-2
	BYTE	W01
	BYTE		        c_v+0
	BYTE	W08
	BYTE		VOL     46*sky_tower_mvl/mxv
	BYTE	W14
	BYTE		        50*sky_tower_mvl/mxv
	BYTE	W06
	BYTE		        55*sky_tower_mvl/mxv
	BYTE	W05
	BYTE		        58*sky_tower_mvl/mxv
	BYTE	W06
	BYTE		        62*sky_tower_mvl/mxv
	BYTE	W04
	BYTE		        65*sky_tower_mvl/mxv
	BYTE	W03
	BYTE		        64*sky_tower_mvl/mxv
	BYTE	W03
	BYTE		        63*sky_tower_mvl/mxv
	BYTE	W02
	BYTE		        62*sky_tower_mvl/mxv
	BYTE	W02
	BYTE		        61*sky_tower_mvl/mxv
	BYTE	W02
	BYTE		        60*sky_tower_mvl/mxv
	BYTE		BEND    c_v+0
	BYTE	W02
	BYTE		VOL     59*sky_tower_mvl/mxv
	BYTE	W02
	BYTE		        55*sky_tower_mvl/mxv
	BYTE	W02
	BYTE		        51*sky_tower_mvl/mxv
	BYTE		BEND    c_v-1
	BYTE	W02
	BYTE		VOL     46*sky_tower_mvl/mxv
	BYTE	W02
	BYTE		        42*sky_tower_mvl/mxv
	BYTE		BEND    c_v-2
	BYTE	W02
	BYTE		VOL     38*sky_tower_mvl/mxv
	BYTE		BEND    c_v-2
	BYTE	W02
	BYTE		VOL     34*sky_tower_mvl/mxv
	BYTE		BEND    c_v-3
	BYTE	W02
	BYTE		VOL     29*sky_tower_mvl/mxv
	BYTE		BEND    c_v-4
	BYTE	W02
	BYTE		        c_v-4
	BYTE	W16
	BYTE	W96
	BYTE	W96
	BYTE	W96
	BYTE	W96
	BYTE	W96
	BYTE	W96
	BYTE	W96
	BYTE	W96
	BYTE	W96
	BYTE	W96
	BYTE	W96
	BYTE	GoTo
	 POIN2	sky_tower_0 + 0x16D
	BYTE	FINE

//*********************** Track 02 ***********************//

sky_tower_1:
	BYTE	KEYSH   sky_tower_key+0
	BYTE	W02
	BYTE		VOICE   14
	BYTE		VOL     66*sky_tower_mvl/mxv
	BYTE	W01
	BYTE		MOD     120
	BYTE		PAN     c_v+0
	BYTE		MODT    mod_pan
	BYTE	W21
	BYTE	W96
	BYTE	W96
	BYTE	W96
	BYTE	W96
	BYTE	W96
	BYTE	W96
	BYTE	W96
	BYTE	W96
	BYTE	W96
	BYTE	W96
	BYTE	W96
	BYTE	W96
	BYTE	W96
	BYTE	W96
	BYTE	W96
	BYTE	W96
	BYTE	W96
	BYTE	W96
	BYTE	W96
	BYTE	W96
	BYTE	W96
	BYTE	W96
	BYTE	W96
	BYTE	W96
	BYTE	W96
	BYTE	W96
	BYTE	W84
	BYTE		N04     Bn3   v112
	BYTE	W06
	BYTE		        Bn3   v068
	BYTE	W06
	BYTE	PEND
	BYTE		N04     Bn3   v032
	BYTE	W12
	BYTE		        Fs3   v112
	BYTE	W06
	BYTE		        Fs3   v068
	BYTE	W06
	BYTE		        Fs3   v032
	BYTE	W12
	BYTE		        An3   v112
	BYTE	W06
	BYTE		        An3   v068
	BYTE	W06
	BYTE		        An3   v032
	BYTE	W12
	BYTE		        En3   v112
	BYTE	W06
	BYTE		        En3   v068
	BYTE	W06
	BYTE		        En3   v032
	BYTE	W24
	BYTE	PEND
	BYTE	W96
	BYTE	W96
	BYTE	W84
	BYTE		N04     En4   v088
	BYTE	W06
	BYTE		        En4   v040
	BYTE	W06
	BYTE	PEND
	BYTE		N04     En4   v032
	BYTE	W12
	BYTE		        Cs4   v088
	BYTE	W06
	BYTE		        Cs4   v040
	BYTE	W06
	BYTE		        Cs4   v032
	BYTE	W12
	BYTE		        Dn4   v088
	BYTE	W06
	BYTE		        Dn4   v040
	BYTE	W06
	BYTE		        Dn4   v032
	BYTE	W12
	BYTE		        An3   v088
	BYTE	W06
	BYTE		        An3   v040
	BYTE	W06
	BYTE		        An3   v032
	BYTE	W24
	BYTE	PEND
	BYTE	W96
	BYTE	W96
	BYTE	W96
	BYTE	W96
	BYTE	W96
	BYTE	W96
	BYTE	W96
	BYTE	W96
	BYTE	W96
	BYTE	W96
	BYTE	W84
	BYTE		        Bn3   v092
	BYTE	W06
	BYTE		        Bn3   v028
	BYTE	W06
	BYTE		        Bn3   v012
	BYTE	W12
	BYTE		        Fs3   v092
	BYTE	W06
	BYTE		        Fs3   v028
	BYTE	W06
	BYTE		        Fs3   v012
	BYTE	W12
	BYTE		        An3   v092
	BYTE	W06
	BYTE		        An3   v028
	BYTE	W06
	BYTE		        An3   v012
	BYTE	W12
	BYTE		        En3   v092
	BYTE	W06
	BYTE		        En3   v028
	BYTE	W06
	BYTE		        En3   v012
	BYTE	W24
	BYTE	W96
	BYTE	W96
	BYTE	PATT
	 POIN2	sky_tower_1 + 0x29
	BYTE	PATT
	 POIN2	sky_tower_1 + 0x32
	BYTE	W96
	BYTE	W96
	BYTE	PATT
	 POIN2	sky_tower_1 + 0x54
	BYTE	PATT
	 POIN2	sky_tower_1 + 0x5D
	BYTE	W96
	BYTE	W96
	BYTE	W96
	BYTE	W96
	BYTE	W96
	BYTE	W96
	BYTE	W96
	BYTE	W96
	BYTE	W96
	BYTE	W96
	BYTE	W96
	BYTE	W96
	BYTE	W96
	BYTE	W96
	BYTE	W96
	BYTE	W96
	BYTE	W96
	BYTE	W96
	BYTE	W96
	BYTE	W96
	BYTE	W96
	BYTE	W96
	BYTE	W96
	BYTE	W96
	BYTE	W96
	BYTE	W96
	BYTE	W96
	BYTE	W96
	BYTE	W96
	BYTE	W96
	BYTE	W96
	BYTE	W96
	BYTE	W96
	BYTE	W96
	BYTE	W96
	BYTE	W96
	BYTE	W96
	BYTE	W96
	BYTE	W96
	BYTE		VOICE   76
	BYTE		VOL     66*sky_tower_mvl/mxv
	BYTE	W01
	BYTE		MOD     80
	BYTE		BENDR   12
	BYTE		LFOS    35
	BYTE	W01
	BYTE		MODT    mod_tre
	BYTE	W07
	BYTE		BEND    c_v+0
	BYTE	W84
	BYTE	W03
	BYTE	W96
	BYTE	W64
	BYTE	W01
	BYTE		VOL     66*sky_tower_mvl/mxv
	BYTE	W06
	BYTE		BEND    c_v+0
	BYTE	W01
	BYTE		N23     Cs4   v072
	BYTE	W23
	BYTE		BEND    c_v-4
	BYTE	W01
	BYTE		N32     Fs4 
	BYTE	W03
	BYTE		BEND    c_v-4
	BYTE	W02
	BYTE		        c_v-3
	BYTE	W01
	BYTE		        c_v-2
	BYTE	W01
	BYTE		        c_v+0
	BYTE	W11
	BYTE		VOL     60*sky_tower_mvl/mxv
	BYTE	W05
	BYTE		        56*sky_tower_mvl/mxv
	BYTE	W03
	BYTE		        52*sky_tower_mvl/mxv
	BYTE	W04
	BYTE		        48*sky_tower_mvl/mxv
	BYTE	W02
	BYTE		        45*sky_tower_mvl/mxv
	BYTE	W04
	BYTE		N06     En4   v108
	BYTE	W06
	BYTE		        Fs4   v080
	BYTE	W05
	BYTE		VOL     66*sky_tower_mvl/mxv
	BYTE	W01
	BYTE		N42     Cs5   v072
	BYTE	W24
	BYTE		VOL     64*sky_tower_mvl/mxv
	BYTE	W03
	BYTE		        60*sky_tower_mvl/mxv
	BYTE	W02
	BYTE		        58*sky_tower_mvl/mxv
	BYTE	W02
	BYTE		        56*sky_tower_mvl/mxv
	BYTE	W02
	BYTE		        53*sky_tower_mvl/mxv
	BYTE	W02
	BYTE		        50*sky_tower_mvl/mxv
	BYTE	W02
	BYTE		        44*sky_tower_mvl/mxv
	BYTE	W01
	BYTE		        42*sky_tower_mvl/mxv
	BYTE	W01
	BYTE		        38*sky_tower_mvl/mxv
	BYTE	W01
	BYTE		        36*sky_tower_mvl/mxv
	BYTE	W01
	BYTE		        32*sky_tower_mvl/mxv
	BYTE	W06
	BYTE		        66*sky_tower_mvl/mxv
	BYTE		BEND    c_v-4
	BYTE	W01
	BYTE		N36     Bn4   v056
	BYTE	W03
	BYTE		BEND    c_v-4
	BYTE	W02
	BYTE		        c_v-3
	BYTE	W01
	BYTE		        c_v-2
	BYTE	W01
	BYTE		        c_v+0
	BYTE	W28
	BYTE	W01
	BYTE		N06     Bn4   v068
	BYTE	W06
	BYTE		        Cs5   v060
	BYTE	W05
	BYTE		VOL     66*sky_tower_mvl/mxv
	BYTE		BEND    c_v-4
	BYTE	W01
	BYTE		N23     Bn4   v072
	BYTE	W03
	BYTE		BEND    c_v-4
	BYTE	W02
	BYTE		        c_v-3
	BYTE	W01
	BYTE		        c_v-2
	BYTE	W01
	BYTE		        c_v+0
	BYTE	W17
	BYTE		N23     Gs4 
	BYTE	W24
	BYTE		N84     Fs4 
	BYTE	W42
	BYTE		VOL     63*sky_tower_mvl/mxv
	BYTE	W08
	BYTE		        62*sky_tower_mvl/mxv
	BYTE	W06
	BYTE		        59*sky_tower_mvl/mxv
	BYTE		BEND    c_v+0
	BYTE	W04
	BYTE		VOL     58*sky_tower_mvl/mxv
	BYTE	W02
	BYTE		BEND    c_v-1
	BYTE	W02
	BYTE		VOL     55*sky_tower_mvl/mxv
	BYTE	W02
	BYTE		BEND    c_v-2
	BYTE	W01
	BYTE		VOL     53*sky_tower_mvl/mxv
	BYTE	W01
	BYTE		BEND    c_v-2
	BYTE	W01
	BYTE		VOL     51*sky_tower_mvl/mxv
	BYTE	W01
	BYTE		BEND    c_v-3
	BYTE	W01
	BYTE		VOL     48*sky_tower_mvl/mxv
	BYTE	W01
	BYTE		        46*sky_tower_mvl/mxv
	BYTE		BEND    c_v-4
	BYTE	W02
	BYTE		VOL     42*sky_tower_mvl/mxv
	BYTE		BEND    c_v-4
	BYTE	W02
	BYTE		VOL     37*sky_tower_mvl/mxv
	BYTE	W02
	BYTE		        32*sky_tower_mvl/mxv
	BYTE	W02
	BYTE		        27*sky_tower_mvl/mxv
	BYTE	W02
	BYTE		        20*sky_tower_mvl/mxv
	BYTE	W14
	BYTE	W96
	BYTE	W96
	BYTE	W03
	BYTE		VOICE   14
	BYTE		VOL     66*sky_tower_mvl/mxv
	BYTE		PAN     c_v+0
	BYTE	W01
	BYTE		MOD     120
	BYTE		MODT    mod_pan
	BYTE		BEND    c_v+0
	BYTE	W92
	BYTE	W96
	BYTE	W96
	BYTE	W84
	BYTE		N04     Bn3   v088
	BYTE	W06
	BYTE		        Bn3   v040
	BYTE	W06
	BYTE		        Bn3   v032
	BYTE	W12
	BYTE		        Gs3   v088
	BYTE	W06
	BYTE		        Gs3   v040
	BYTE	W06
	BYTE		        Gs3   v032
	BYTE	W12
	BYTE		        An3   v088
	BYTE	W06
	BYTE		        An3   v040
	BYTE	W06
	BYTE		        An3   v032
	BYTE	W12
	BYTE		        En3   v088
	BYTE	W06
	BYTE		        En3   v040
	BYTE	W06
	BYTE		        En3   v032
	BYTE	W24
	BYTE	W96
	BYTE	W96
	BYTE	PATT
	 POIN2	sky_tower_1 + 0x54
	BYTE	PATT
	 POIN2	sky_tower_1 + 0x5D
	BYTE	W96
	BYTE	W96
	BYTE	W96
	BYTE	W96
	BYTE	GoTo
	 POIN2	sky_tower_1 + 0x23
	BYTE	FINE

//*********************** Track 03 ***********************//

sky_tower_2:
	BYTE	KEYSH   sky_tower_key+0
	BYTE	W04
	BYTE		VOICE   24
	BYTE		VOL     85*sky_tower_mvl/mxv
	BYTE		PAN     c_v+0
	BYTE	W01
	BYTE		MOD     60
	BYTE		LFOS    20
	BYTE		MODT    mod_pan
	BYTE	W01
	BYTE		BENDR   12
	BYTE		LFODL   20
	BYTE	W18
	BYTE	W96
	BYTE	W96
	BYTE	W96
	BYTE	W96
	BYTE		N48     En4   v052
	BYTE	W48
	BYTE		        An4 
	BYTE	W48
	BYTE	PEND
	BYTE		N48     Gs4   v052
	BYTE	W48
	BYTE		        An4 
	BYTE	W48
	BYTE	PEND
	BYTE		TIE     Fs4 
	BYTE	W96
	BYTE	W96
	BYTE		EOT
	BYTE	PATT
	 POIN2	sky_tower_2 + 0x1A
	BYTE	PATT
	 POIN2	sky_tower_2 + 0x21
	BYTE		TIE     Fs4   v052
	BYTE	W96
	BYTE	W96
	BYTE		EOT
	BYTE	W96
	BYTE	W96
	BYTE	W96
	BYTE	W92
	BYTE	W03
	BYTE		VOICE   95
	BYTE		MOD     50
	BYTE		VOL     85*sky_tower_mvl/mxv
	BYTE		LFOS    15
	BYTE		MODT    mod_pan
	BYTE		BEND    c_v-5
	BYTE	W01
	BYTE	PEND
	BYTE		N36     Fs2   v120
	BYTE	W01
	BYTE		BEND    c_v-4
	BYTE	W01
	BYTE		        c_v-3
	BYTE	W01
	BYTE		        c_v-2
	BYTE	W01
	BYTE		        c_v-1
	BYTE	W01
	BYTE		        c_v+0
	BYTE	W22
	BYTE		VOL     82*sky_tower_mvl/mxv
	BYTE	W01
	BYTE		        79*sky_tower_mvl/mxv
	BYTE	W01
	BYTE		        76*sky_tower_mvl/mxv
	BYTE	W01
	BYTE		        69*sky_tower_mvl/mxv
	BYTE	W01
	BYTE		        62*sky_tower_mvl/mxv
	BYTE	W01
	BYTE		        57*sky_tower_mvl/mxv
	BYTE	W01
	BYTE		        48*sky_tower_mvl/mxv
	BYTE	W01
	BYTE		        38*sky_tower_mvl/mxv
	BYTE	W01
	BYTE		        29*sky_tower_mvl/mxv
	BYTE	W01
	BYTE		        20*sky_tower_mvl/mxv
	BYTE	W11
	BYTE		        85*sky_tower_mvl/mxv
	BYTE	W01
	BYTE		N24     Bn2   v088
	BYTE	W19
	BYTE		VOL     83*sky_tower_mvl/mxv
	BYTE	W02
	BYTE		        76*sky_tower_mvl/mxv
	BYTE	W01
	BYTE		        72*sky_tower_mvl/mxv
	BYTE	W01
	BYTE		        64*sky_tower_mvl/mxv
	BYTE	W01
	BYTE		        59*sky_tower_mvl/mxv
	BYTE	W01
	BYTE		        50*sky_tower_mvl/mxv
	BYTE	W01
	BYTE		        42*sky_tower_mvl/mxv
	BYTE	W01
	BYTE		        34*sky_tower_mvl/mxv
	BYTE	W01
	BYTE		        24*sky_tower_mvl/mxv
	BYTE	W07
	BYTE		        85*sky_tower_mvl/mxv
	BYTE		BEND    c_v-5
	BYTE	W01
	BYTE		N90     Fs3   v060
	BYTE	W01
	BYTE		BEND    c_v-3
	BYTE	W01
	BYTE		        c_v-2
	BYTE	W01
	BYTE		        c_v+0
	BYTE	W09
	BYTE	PEND
	BYTE	W48
	BYTE		VOL     82*sky_tower_mvl/mxv
	BYTE	W10
	BYTE		        80*sky_tower_mvl/mxv
	BYTE	W05
	BYTE		        73*sky_tower_mvl/mxv
	BYTE	W04
	BYTE		        68*sky_tower_mvl/mxv
	BYTE	W03
	BYTE		        65*sky_tower_mvl/mxv
	BYTE	W02
	BYTE		        62*sky_tower_mvl/mxv
	BYTE	W03
	BYTE		        53*sky_tower_mvl/mxv
	BYTE	W03
	BYTE		        44*sky_tower_mvl/mxv
	BYTE	W04
	BYTE		        32*sky_tower_mvl/mxv
	BYTE	W02
	BYTE		        25*sky_tower_mvl/mxv
	BYTE	W11
	BYTE		BEND    c_v+0
	BYTE	W01
	BYTE	PEND
	BYTE		VOL     35*sky_tower_mvl/mxv
	BYTE		N36     Bn2   v112
	BYTE	W02
	BYTE		VOL     44*sky_tower_mvl/mxv
	BYTE	W02
	BYTE		        52*sky_tower_mvl/mxv
	BYTE	W02
	BYTE		        58*sky_tower_mvl/mxv
	BYTE	W02
	BYTE		        67*sky_tower_mvl/mxv
	BYTE	W03
	BYTE		        70*sky_tower_mvl/mxv
	BYTE	W06
	BYTE		        76*sky_tower_mvl/mxv
	BYTE	W03
	BYTE		        80*sky_tower_mvl/mxv
	BYTE	W02
	BYTE		        81*sky_tower_mvl/mxv
	BYTE	W01
	BYTE		        82*sky_tower_mvl/mxv
	BYTE	W01
	BYTE		        85*sky_tower_mvl/mxv
	BYTE	W09
	BYTE		        82*sky_tower_mvl/mxv
	BYTE	W01
	BYTE		        79*sky_tower_mvl/mxv
	BYTE	W01
	BYTE		        76*sky_tower_mvl/mxv
	BYTE	W01
	BYTE		        69*sky_tower_mvl/mxv
	BYTE	W01
	BYTE		        62*sky_tower_mvl/mxv
	BYTE	W01
	BYTE		        57*sky_tower_mvl/mxv
	BYTE	W01
	BYTE		        48*sky_tower_mvl/mxv
	BYTE	W01
	BYTE		        38*sky_tower_mvl/mxv
	BYTE	W07
	BYTE		        85*sky_tower_mvl/mxv
	BYTE	W01
	BYTE		N24     Fs3   v088
	BYTE	W19
	BYTE		VOL     83*sky_tower_mvl/mxv
	BYTE	W02
	BYTE		        76*sky_tower_mvl/mxv
	BYTE	W01
	BYTE		        72*sky_tower_mvl/mxv
	BYTE	W01
	BYTE		        64*sky_tower_mvl/mxv
	BYTE	W01
	BYTE		        59*sky_tower_mvl/mxv
	BYTE	W01
	BYTE		        50*sky_tower_mvl/mxv
	BYTE	W01
	BYTE		        42*sky_tower_mvl/mxv
	BYTE	W01
	BYTE		        34*sky_tower_mvl/mxv
	BYTE	W01
	BYTE		        24*sky_tower_mvl/mxv
	BYTE	W07
	BYTE		        85*sky_tower_mvl/mxv
	BYTE	W01
	BYTE		N36     Bn3   v060
	BYTE	W12
	BYTE	PEND
	BYTE	W13
	BYTE		VOL     79*sky_tower_mvl/mxv
	BYTE	W03
	BYTE		        75*sky_tower_mvl/mxv
	BYTE	W02
	BYTE		        72*sky_tower_mvl/mxv
	BYTE	W03
	BYTE		        67*sky_tower_mvl/mxv
	BYTE	W01
	BYTE		        63*sky_tower_mvl/mxv
	BYTE	W01
	BYTE		        59*sky_tower_mvl/mxv
	BYTE	W01
	BYTE		        55*sky_tower_mvl/mxv
	BYTE	W01
	BYTE		        51*sky_tower_mvl/mxv
	BYTE	W01
	BYTE		        46*sky_tower_mvl/mxv
	BYTE	W01
	BYTE		        39*sky_tower_mvl/mxv
	BYTE	W01
	BYTE		        31*sky_tower_mvl/mxv
	BYTE	W01
	BYTE		        23*sky_tower_mvl/mxv
	BYTE	W01
	BYTE		        15*sky_tower_mvl/mxv
	BYTE	W05
	BYTE		        20*sky_tower_mvl/mxv
	BYTE	W01
	BYTE		        40*sky_tower_mvl/mxv
	BYTE		N48     Cs4   v080
	BYTE	W01
	BYTE		VOL     60*sky_tower_mvl/mxv
	BYTE	W01
	BYTE		        74*sky_tower_mvl/mxv
	BYTE	W01
	BYTE		        85*sky_tower_mvl/mxv
	BYTE	W21
	BYTE		        82*sky_tower_mvl/mxv
	BYTE	W04
	BYTE		        79*sky_tower_mvl/mxv
	BYTE	W03
	BYTE		        78*sky_tower_mvl/mxv
	BYTE	W02
	BYTE		        76*sky_tower_mvl/mxv
	BYTE	W02
	BYTE		        75*sky_tower_mvl/mxv
	BYTE	W02
	BYTE		        74*sky_tower_mvl/mxv
	BYTE	W03
	BYTE		        72*sky_tower_mvl/mxv
	BYTE	W02
	BYTE		        68*sky_tower_mvl/mxv
	BYTE	W03
	BYTE		        62*sky_tower_mvl/mxv
	BYTE	W01
	BYTE		        60*sky_tower_mvl/mxv
	BYTE	W01
	BYTE		        56*sky_tower_mvl/mxv
	BYTE	W01
	BYTE		        51*sky_tower_mvl/mxv
	BYTE	W01
	BYTE		        46*sky_tower_mvl/mxv
	BYTE	W01
	BYTE		        40*sky_tower_mvl/mxv
	BYTE	W01
	BYTE		        35*sky_tower_mvl/mxv
	BYTE	W01
	BYTE		        30*sky_tower_mvl/mxv
	BYTE	W01
	BYTE		        24*sky_tower_mvl/mxv
	BYTE	W01
	BYTE		        19*sky_tower_mvl/mxv
	BYTE	W05
	BYTE		        85*sky_tower_mvl/mxv
	BYTE		BEND    c_v-5
	BYTE	W01
	BYTE	PEND
	BYTE	PATT
	 POIN2	sky_tower_2 + 0x50
	BYTE	PATT
	 POIN2	sky_tower_2 + 0x9D
	BYTE	PATT
	 POIN2	sky_tower_2 + 0xB7
	BYTE	W13
	BYTE		VOL     79*sky_tower_mvl/mxv
	BYTE	W03
	BYTE		        75*sky_tower_mvl/mxv
	BYTE	W02
	BYTE		        72*sky_tower_mvl/mxv
	BYTE	W03
	BYTE		        67*sky_tower_mvl/mxv
	BYTE	W01
	BYTE		        63*sky_tower_mvl/mxv
	BYTE	W01
	BYTE		        59*sky_tower_mvl/mxv
	BYTE	W01
	BYTE		        55*sky_tower_mvl/mxv
	BYTE	W01
	BYTE		        51*sky_tower_mvl/mxv
	BYTE	W01
	BYTE		        46*sky_tower_mvl/mxv
	BYTE	W01
	BYTE		        39*sky_tower_mvl/mxv
	BYTE	W01
	BYTE		        31*sky_tower_mvl/mxv
	BYTE	W01
	BYTE		        23*sky_tower_mvl/mxv
	BYTE	W01
	BYTE		        15*sky_tower_mvl/mxv
	BYTE	W05
	BYTE		        20*sky_tower_mvl/mxv
	BYTE	W01
	BYTE		        40*sky_tower_mvl/mxv
	BYTE		N48     Cs4   v080
	BYTE	W01
	BYTE		VOL     60*sky_tower_mvl/mxv
	BYTE	W01
	BYTE		        74*sky_tower_mvl/mxv
	BYTE	W01
	BYTE		        85*sky_tower_mvl/mxv
	BYTE	W21
	BYTE		        82*sky_tower_mvl/mxv
	BYTE	W04
	BYTE		        79*sky_tower_mvl/mxv
	BYTE	W03
	BYTE		        78*sky_tower_mvl/mxv
	BYTE	W02
	BYTE		        76*sky_tower_mvl/mxv
	BYTE	W02
	BYTE		        75*sky_tower_mvl/mxv
	BYTE	W02
	BYTE		        74*sky_tower_mvl/mxv
	BYTE	W03
	BYTE		        72*sky_tower_mvl/mxv
	BYTE	W02
	BYTE		        68*sky_tower_mvl/mxv
	BYTE	W03
	BYTE		        62*sky_tower_mvl/mxv
	BYTE	W01
	BYTE		        60*sky_tower_mvl/mxv
	BYTE	W01
	BYTE		        56*sky_tower_mvl/mxv
	BYTE	W01
	BYTE		        51*sky_tower_mvl/mxv
	BYTE	W01
	BYTE		        46*sky_tower_mvl/mxv
	BYTE	W01
	BYTE		        40*sky_tower_mvl/mxv
	BYTE	W01
	BYTE		        35*sky_tower_mvl/mxv
	BYTE	W01
	BYTE		        30*sky_tower_mvl/mxv
	BYTE	W01
	BYTE		        24*sky_tower_mvl/mxv
	BYTE	W01
	BYTE		        19*sky_tower_mvl/mxv
	BYTE	W06
	BYTE	PEND
	BYTE	W96
	BYTE	W96
	BYTE	W96
	BYTE	W96
	BYTE	W96
	BYTE	W96
	BYTE	W96
	BYTE	PATT
	 POIN2	sky_tower_2 + 0x40
	BYTE	PATT
	 POIN2	sky_tower_2 + 0x50
	BYTE	PATT
	 POIN2	sky_tower_2 + 0x9D
	BYTE	PATT
	 POIN2	sky_tower_2 + 0xB7
	BYTE	PATT
	 POIN2	sky_tower_2 + 0x102
	BYTE	PATT
	 POIN2	sky_tower_2 + 0x50
	BYTE	PATT
	 POIN2	sky_tower_2 + 0x9D
	BYTE	PATT
	 POIN2	sky_tower_2 + 0xB7
	BYTE	PATT
	 POIN2	sky_tower_2 + 0x164
	BYTE	W96
	BYTE	W96
	BYTE	W96
	BYTE	W96
	BYTE	W96
	BYTE	W96
	BYTE	W96
	BYTE	W96
	BYTE	W96
	BYTE	W96
	BYTE	W96
	BYTE	PATT
	 POIN2	sky_tower_2 + 0x40
	BYTE	PATT
	 POIN2	sky_tower_2 + 0x50
	BYTE	PATT
	 POIN2	sky_tower_2 + 0x9D
	BYTE	PATT
	 POIN2	sky_tower_2 + 0xB7
	BYTE	PATT
	 POIN2	sky_tower_2 + 0x102
	BYTE	PATT
	 POIN2	sky_tower_2 + 0x50
	BYTE	PATT
	 POIN2	sky_tower_2 + 0x9D
	BYTE	PATT
	 POIN2	sky_tower_2 + 0xB7
	BYTE	W13
	BYTE		VOL     79*sky_tower_mvl/mxv
	BYTE	W03
	BYTE		        75*sky_tower_mvl/mxv
	BYTE	W02
	BYTE		        72*sky_tower_mvl/mxv
	BYTE	W03
	BYTE		        67*sky_tower_mvl/mxv
	BYTE	W01
	BYTE		        63*sky_tower_mvl/mxv
	BYTE	W01
	BYTE		        59*sky_tower_mvl/mxv
	BYTE	W01
	BYTE		        55*sky_tower_mvl/mxv
	BYTE	W01
	BYTE		        51*sky_tower_mvl/mxv
	BYTE	W01
	BYTE		        46*sky_tower_mvl/mxv
	BYTE	W01
	BYTE		        39*sky_tower_mvl/mxv
	BYTE	W01
	BYTE		        31*sky_tower_mvl/mxv
	BYTE	W01
	BYTE		        23*sky_tower_mvl/mxv
	BYTE	W01
	BYTE		        15*sky_tower_mvl/mxv
	BYTE	W05
	BYTE		        20*sky_tower_mvl/mxv
	BYTE	W01
	BYTE		        40*sky_tower_mvl/mxv
	BYTE		N48     Cs4   v080
	BYTE	W01
	BYTE		VOL     60*sky_tower_mvl/mxv
	BYTE	W01
	BYTE		        74*sky_tower_mvl/mxv
	BYTE	W01
	BYTE		        85*sky_tower_mvl/mxv
	BYTE	W21
	BYTE		        82*sky_tower_mvl/mxv
	BYTE	W04
	BYTE		        79*sky_tower_mvl/mxv
	BYTE	W03
	BYTE		        78*sky_tower_mvl/mxv
	BYTE	W02
	BYTE		        76*sky_tower_mvl/mxv
	BYTE	W02
	BYTE		        75*sky_tower_mvl/mxv
	BYTE	W02
	BYTE		        74*sky_tower_mvl/mxv
	BYTE	W03
	BYTE		        72*sky_tower_mvl/mxv
	BYTE	W02
	BYTE		        68*sky_tower_mvl/mxv
	BYTE	W03
	BYTE		        62*sky_tower_mvl/mxv
	BYTE	W01
	BYTE		        60*sky_tower_mvl/mxv
	BYTE	W01
	BYTE		        56*sky_tower_mvl/mxv
	BYTE	W01
	BYTE		        51*sky_tower_mvl/mxv
	BYTE	W01
	BYTE		        46*sky_tower_mvl/mxv
	BYTE	W01
	BYTE		        40*sky_tower_mvl/mxv
	BYTE	W01
	BYTE		        35*sky_tower_mvl/mxv
	BYTE	W01
	BYTE		        30*sky_tower_mvl/mxv
	BYTE	W01
	BYTE		        24*sky_tower_mvl/mxv
	BYTE	W01
	BYTE		        19*sky_tower_mvl/mxv
	BYTE	W05
	BYTE		VOICE   24
	BYTE		VOL     80*sky_tower_mvl/mxv
	BYTE		PAN     c_v+0
	BYTE	W01
	BYTE	W96
	BYTE	W96
	BYTE	W96
	BYTE	W96
	BYTE	W96
	BYTE	W96
	BYTE	W96
	BYTE	W96
	BYTE	W96
	BYTE	W96
	BYTE	W96
	BYTE	W96
	BYTE	W96
	BYTE	W96
	BYTE	W96
	BYTE	W96
	BYTE	W96
	BYTE	W96
	BYTE	W96
	BYTE	W96
	BYTE	W96
	BYTE	W96
	BYTE	W96
	BYTE	W96
	BYTE	W96
	BYTE	W96
	BYTE	W96
	BYTE	W96
	BYTE	W96
	BYTE	W96
	BYTE	W96
	BYTE	W96
	BYTE	W96
	BYTE	W96
	BYTE	W96
	BYTE	W96
	BYTE	W96
	BYTE	W96
	BYTE	W92
	BYTE	W03
	BYTE		VOICE   7
	BYTE	W01
	BYTE	W96
	BYTE		N48     Fs3   v092
	BYTE	W60
	BYTE		N06
	BYTE	W06
	BYTE		        Fs3   v052
	BYTE	W18
	BYTE		N84     Gs3   v092
	BYTE	W12
	BYTE	W96
	BYTE		N48     An3 
	BYTE	W60
	BYTE		N06
	BYTE	W06
	BYTE		        An3   v052
	BYTE	W18
	BYTE		N84     Bn3   v092
	BYTE	W12
	BYTE	W96
	BYTE		N48     Fs3   v076
	BYTE	W60
	BYTE		N06
	BYTE	W06
	BYTE		        Fs3   v036
	BYTE	W18
	BYTE		N84     Gs3   v076
	BYTE	W12
	BYTE	W96
	BYTE		N48     An3 
	BYTE	W60
	BYTE		N06
	BYTE	W06
	BYTE		        An3   v036
	BYTE	W18
	BYTE		N84     Bn3   v076
	BYTE	W12
	BYTE	PATT
	 POIN2	sky_tower_2 + 0x40
	BYTE	PATT
	 POIN2	sky_tower_2 + 0x50
	BYTE	PATT
	 POIN2	sky_tower_2 + 0x9D
	BYTE	PATT
	 POIN2	sky_tower_2 + 0xB7
	BYTE	PATT
	 POIN2	sky_tower_2 + 0x164
	BYTE	GoTo
	 POIN2	sky_tower_2 + 0x155
	BYTE	FINE

//*********************** Track 04 ***********************//

sky_tower_3:
	BYTE	KEYSH   sky_tower_key+0
	BYTE	W06
	BYTE		VOICE   95
	BYTE	W01
	BYTE		MOD     45
	BYTE		VOL     73*sky_tower_mvl/mxv
	BYTE		PAN     c_v-63
	BYTE	W01
	BYTE		BENDR   12
	BYTE		LFOS    20
	BYTE		MODT    mod_pan
	BYTE	W01
	BYTE		LFODL   20
	BYTE	W14
	BYTE		VOL     0*sky_tower_mvl/mxv
	BYTE	W01
	BYTE		TIE     Fs2   v052
	BYTE	W05
	BYTE		VOL     2*sky_tower_mvl/mxv
	BYTE	W06
	BYTE		        2*sky_tower_mvl/mxv
	BYTE	W07
	BYTE		        6*sky_tower_mvl/mxv
	BYTE	W06
	BYTE		        8*sky_tower_mvl/mxv
	BYTE	W06
	BYTE		        11*sky_tower_mvl/mxv
	BYTE	W06
	BYTE		        14*sky_tower_mvl/mxv
	BYTE	W07
	BYTE		        16*sky_tower_mvl/mxv
	BYTE	W06
	BYTE		        19*sky_tower_mvl/mxv
	BYTE	W06
	BYTE		        22*sky_tower_mvl/mxv
	BYTE	W07
	BYTE		        25*sky_tower_mvl/mxv
	BYTE	W06
	BYTE		        28*sky_tower_mvl/mxv
	BYTE	W06
	BYTE		        30*sky_tower_mvl/mxv
	BYTE	W06
	BYTE		        33*sky_tower_mvl/mxv
	BYTE	W07
	BYTE		        36*sky_tower_mvl/mxv
	BYTE	W06
	BYTE		        39*sky_tower_mvl/mxv
	BYTE	W03
	BYTE	W03
	BYTE		        42*sky_tower_mvl/mxv
	BYTE	W07
	BYTE		        45*sky_tower_mvl/mxv
	BYTE	W06
	BYTE		        48*sky_tower_mvl/mxv
	BYTE	W06
	BYTE		        50*sky_tower_mvl/mxv
	BYTE	W06
	BYTE		        53*sky_tower_mvl/mxv
	BYTE	W07
	BYTE		        56*sky_tower_mvl/mxv
	BYTE	W06
	BYTE		        58*sky_tower_mvl/mxv
	BYTE	W06
	BYTE		        61*sky_tower_mvl/mxv
	BYTE	W07
	BYTE		        64*sky_tower_mvl/mxv
	BYTE	W06
	BYTE		        67*sky_tower_mvl/mxv
	BYTE	W06
	BYTE		        70*sky_tower_mvl/mxv
	BYTE	W06
	BYTE		        72*sky_tower_mvl/mxv
	BYTE	W07
	BYTE		        76*sky_tower_mvl/mxv
	BYTE	W06
	BYTE		        78*sky_tower_mvl/mxv
	BYTE	W06
	BYTE		        81*sky_tower_mvl/mxv
	BYTE	W05
	BYTE	W02
	BYTE		        85*sky_tower_mvl/mxv
	BYTE	W92
	BYTE	W02
	BYTE	W92
	BYTE	W03
	BYTE		VOICE   24
	BYTE	W01
	BYTE		EOT
	BYTE		N48     Cs4   v040
	BYTE	W48
	BYTE		TIE     En4 
	BYTE	W48
	BYTE	PEND
	BYTE	W96
	BYTE		EOT
	BYTE		TIE     Dn4 
	BYTE	W96
	BYTE	W96
	BYTE		EOT
	BYTE	PATT
	 POIN2	sky_tower_3 + 0x66
	BYTE	W96
	BYTE		EOT     En4 
	BYTE		TIE     Dn4   v040
	BYTE	W96
	BYTE	W96
	BYTE		EOT
	BYTE		TIE     Fs4 
	BYTE	W96
	BYTE	W36
	BYTE	W01
	BYTE		VOL     63*sky_tower_mvl/mxv
	BYTE	W56
	BYTE	W03
	BYTE	W68
	BYTE	W01
	BYTE		        55*sky_tower_mvl/mxv
	BYTE	W08
	BYTE		        56*sky_tower_mvl/mxv
	BYTE	W07
	BYTE		        54*sky_tower_mvl/mxv
	BYTE	W07
	BYTE		        52*sky_tower_mvl/mxv
	BYTE	W05
	BYTE	W02
	BYTE		        50*sky_tower_mvl/mxv
	BYTE	W07
	BYTE		        49*sky_tower_mvl/mxv
	BYTE	W07
	BYTE		        47*sky_tower_mvl/mxv
	BYTE	W07
	BYTE		        46*sky_tower_mvl/mxv
	BYTE	W07
	BYTE		        44*sky_tower_mvl/mxv
	BYTE	W07
	BYTE		        39*sky_tower_mvl/mxv
	BYTE	W08
	BYTE		        34*sky_tower_mvl/mxv
	BYTE	W07
	BYTE		        30*sky_tower_mvl/mxv
	BYTE	W07
	BYTE		        26*sky_tower_mvl/mxv
	BYTE	W07
	BYTE		        22*sky_tower_mvl/mxv
	BYTE	W07
	BYTE		        18*sky_tower_mvl/mxv
	BYTE	W07
	BYTE		        14*sky_tower_mvl/mxv
	BYTE	W07
	BYTE		        9*sky_tower_mvl/mxv
	BYTE	W08
	BYTE		VOICE   95
	BYTE		VOL     73*sky_tower_mvl/mxv
	BYTE		PAN     c_v-30
	BYTE	W01
	BYTE		EOT
	BYTE		N48     Bn1   v060
	BYTE	W48
	BYTE		N36
	BYTE	W36
	BYTE		        An1 
	BYTE	W12
	BYTE	PEND
	BYTE	W23
	BYTE		VOICE   7
	BYTE		PAN     c_v-20
	BYTE	W01
	BYTE		N12     Dn2   v060
	BYTE	W12
	BYTE		        Fs2 
	BYTE	W12
	BYTE		N01     Dn2   v012
	BYTE	W12
	BYTE		N06     An2   v060
	BYTE	W24
	BYTE		N42     Gs2 
	BYTE	W12
	BYTE	PEND
	BYTE	W44
	BYTE	W03
	BYTE		VOICE   95
	BYTE		PAN     c_v-30
	BYTE	W01
	BYTE		N12     Bn1   v060
	BYTE	W12
	BYTE		N06     En2 
	BYTE	W12
	BYTE		N01     En2   v012
	BYTE	W12
	BYTE		N36     Dn2   v060
	BYTE	W12
	BYTE	PEND
	BYTE	W36
	BYTE		N42     Cs2   v060
	BYTE	W56
	BYTE	W03
	BYTE		VOICE   95
	BYTE		VOL     73*sky_tower_mvl/mxv
	BYTE		PAN     c_v-30
	BYTE	W01
	BYTE	PEND
	BYTE	PATT
	 POIN2	sky_tower_3 + 0xB9
	BYTE	PATT
	 POIN2	sky_tower_3 + 0xC2
	BYTE	PATT
	 POIN2	sky_tower_3 + 0xDA
	BYTE	W36
	BYTE		N42     Cs2   v060
	BYTE	W56
	BYTE	W03
	BYTE		VOL     53*sky_tower_mvl/mxv
	BYTE		PAN     c_v-10
	BYTE	W01
	BYTE		N72     Fs2   v076
	BYTE	W84
	BYTE		TIE     Gs2 
	BYTE	W12
	BYTE	PEND
	BYTE	W96
	BYTE		EOT
	BYTE		N72     An2   v076
	BYTE	W84
	BYTE		TIE     Gs2 
	BYTE	W12
	BYTE	PEND
	BYTE	W96
	BYTE		EOT
	BYTE	PATT
	 POIN2	sky_tower_3 + 0x119
	BYTE	W96
	BYTE		EOT     Gs2 
	BYTE	PATT
	 POIN2	sky_tower_3 + 0x123
	BYTE	W92
	BYTE	W03
	BYTE		VOICE   95
	BYTE		VOL     73*sky_tower_mvl/mxv
	BYTE		PAN     c_v-30
	BYTE	W01
	BYTE	PEND
	BYTE		EOT     Gs2 
	BYTE	PATT
	 POIN2	sky_tower_3 + 0xB9
	BYTE	PATT
	 POIN2	sky_tower_3 + 0xC2
	BYTE	PATT
	 POIN2	sky_tower_3 + 0xDA
	BYTE	PATT
	 POIN2	sky_tower_3 + 0xF1
	BYTE	PATT
	 POIN2	sky_tower_3 + 0xB9
	BYTE	PATT
	 POIN2	sky_tower_3 + 0xC2
	BYTE	PATT
	 POIN2	sky_tower_3 + 0xDA
	BYTE	W36
	BYTE		N42     Cs2   v060
	BYTE	W60
	BYTE	W96
	BYTE	W96
	BYTE	W96
	BYTE	W92
	BYTE	W03
	BYTE		VOL     53*sky_tower_mvl/mxv
	BYTE		PAN     c_v-10
	BYTE	W01
	BYTE	PATT
	 POIN2	sky_tower_3 + 0x119
	BYTE	W96
	BYTE		EOT     Gs2 
	BYTE	PATT
	 POIN2	sky_tower_3 + 0x123
	BYTE	W96
	BYTE		EOT     Gs2 
	BYTE	PATT
	 POIN2	sky_tower_3 + 0x119
	BYTE	W96
	BYTE		EOT     Gs2 
	BYTE	PATT
	 POIN2	sky_tower_3 + 0x123
	BYTE	PATT
	 POIN2	sky_tower_3 + 0x13A
	BYTE		EOT     Gs2 
	BYTE	PATT
	 POIN2	sky_tower_3 + 0xB9
	BYTE	PATT
	 POIN2	sky_tower_3 + 0xC2
	BYTE	PATT
	 POIN2	sky_tower_3 + 0xDA
	BYTE	PATT
	 POIN2	sky_tower_3 + 0xF1
	BYTE	PATT
	 POIN2	sky_tower_3 + 0xB9
	BYTE	PATT
	 POIN2	sky_tower_3 + 0xC2
	BYTE	PATT
	 POIN2	sky_tower_3 + 0xDA
	BYTE	W36
	BYTE		N42     Cs2   v060
	BYTE	W56
	BYTE	W03
	BYTE		VOICE   24
	BYTE	W01
	BYTE		N96     Fs4   v040
	BYTE	W96
	BYTE		        An4 
	BYTE	W96
	BYTE		TIE     Gs4 
	BYTE	W96
	BYTE	W96
	BYTE		EOT
	BYTE		N96     Fs4 
	BYTE	W96
	BYTE		        An4 
	BYTE	W96
	BYTE		TIE     Gs4 
	BYTE	W96
	BYTE	W92
	BYTE	W03
	BYTE		VOICE   95
	BYTE		VOL     73*sky_tower_mvl/mxv
	BYTE	W01
	BYTE		EOT
	BYTE		N48     Fs2   v080
	BYTE	W48
	BYTE		        An2 
	BYTE	W48
	BYTE	PEND
	BYTE		N48     Gs2   v080
	BYTE	W48
	BYTE		        An2 
	BYTE	W48
	BYTE	PEND
	BYTE		TIE     En2 
	BYTE	W96
	BYTE	W96
	BYTE		EOT
	BYTE	PATT
	 POIN2	sky_tower_3 + 0x1E3
	BYTE	PATT
	 POIN2	sky_tower_3 + 0x1EA
	BYTE		N96     Gs2   v080
	BYTE	W96
	BYTE		        En2 
	BYTE	W96
	BYTE	PATT
	 POIN2	sky_tower_3 + 0x1E3
	BYTE	PATT
	 POIN2	sky_tower_3 + 0x1EA
	BYTE		TIE     En2   v080
	BYTE	W96
	BYTE	W96
	BYTE		EOT
	BYTE	PATT
	 POIN2	sky_tower_3 + 0x1E3
	BYTE	PATT
	 POIN2	sky_tower_3 + 0x1EA
	BYTE		N96     Bn2   v080
	BYTE	W96
	BYTE		        Gs2 
	BYTE	W96
	BYTE	PATT
	 POIN2	sky_tower_3 + 0x1E3
	BYTE	PATT
	 POIN2	sky_tower_3 + 0x1EA
	BYTE		TIE     En2   v080
	BYTE	W96
	BYTE	W96
	BYTE		EOT
	BYTE	PATT
	 POIN2	sky_tower_3 + 0x1E3
	BYTE	PATT
	 POIN2	sky_tower_3 + 0x1EA
	BYTE		N96     Bn2   v080
	BYTE	W96
	BYTE		        Gs2 
	BYTE	W96
	BYTE	PATT
	 POIN2	sky_tower_3 + 0x1E3
	BYTE	PATT
	 POIN2	sky_tower_3 + 0x1EA
	BYTE		TIE     En2   v080
	BYTE	W96
	BYTE	W96
	BYTE		EOT
	BYTE	PATT
	 POIN2	sky_tower_3 + 0x1E3
	BYTE	PATT
	 POIN2	sky_tower_3 + 0x1EA
	BYTE		N96     Bn2   v080
	BYTE	W96
	BYTE		        Gs2 
	BYTE	W96
	BYTE		N48     Dn2   v092
	BYTE	W60
	BYTE		N09
	BYTE	W24
	BYTE		TIE     En2 
	BYTE	W12
	BYTE	PEND
	BYTE	W96
	BYTE		EOT
	BYTE		N48     Fs2   v092
	BYTE	W60
	BYTE		N09
	BYTE	W24
	BYTE		TIE     Gs2 
	BYTE	W12
	BYTE	PEND
	BYTE	W96
	BYTE		EOT
	BYTE	PATT
	 POIN2	sky_tower_3 + 0x266
	BYTE	W96
	BYTE		EOT     En2 
	BYTE	PATT
	 POIN2	sky_tower_3 + 0x272
	BYTE	PATT
	 POIN2	sky_tower_3 + 0x13A
	BYTE		EOT     Gs2 
	BYTE	PATT
	 POIN2	sky_tower_3 + 0xB9
	BYTE	PATT
	 POIN2	sky_tower_3 + 0xC2
	BYTE	PATT
	 POIN2	sky_tower_3 + 0xDA
	BYTE	W36
	BYTE		N42     Cs2   v060
	BYTE	W60
	BYTE	GoTo
	 POIN2	sky_tower_3 + 0xFF
	BYTE	FINE

//*********************** Track 05 ***********************//

sky_tower_4:
	BYTE	KEYSH   sky_tower_key+0
	BYTE	W09
	BYTE		VOICE   95
	BYTE		VOL     73*sky_tower_mvl/mxv
	BYTE	W01
	BYTE		MOD     45
	BYTE		PAN     c_v+63
	BYTE		LFOS    20
	BYTE	W01
	BYTE		BENDR   12
	BYTE		MODT    mod_pan
	BYTE		LFODL   20
	BYTE	W12
	BYTE		VOL     0*sky_tower_mvl/mxv
	BYTE	W01
	BYTE		TIE     Bn1   v052
	BYTE	W05
	BYTE		VOL     2*sky_tower_mvl/mxv
	BYTE	W06
	BYTE		        2*sky_tower_mvl/mxv
	BYTE	W07
	BYTE		        6*sky_tower_mvl/mxv
	BYTE	W06
	BYTE		        8*sky_tower_mvl/mxv
	BYTE	W06
	BYTE		        11*sky_tower_mvl/mxv
	BYTE	W06
	BYTE		        14*sky_tower_mvl/mxv
	BYTE	W07
	BYTE		        16*sky_tower_mvl/mxv
	BYTE	W06
	BYTE		        19*sky_tower_mvl/mxv
	BYTE	W06
	BYTE		        22*sky_tower_mvl/mxv
	BYTE	W07
	BYTE		        25*sky_tower_mvl/mxv
	BYTE	W06
	BYTE		        28*sky_tower_mvl/mxv
	BYTE	W06
	BYTE		        30*sky_tower_mvl/mxv
	BYTE	W06
	BYTE		        33*sky_tower_mvl/mxv
	BYTE	W07
	BYTE		        36*sky_tower_mvl/mxv
	BYTE	W06
	BYTE		        39*sky_tower_mvl/mxv
	BYTE	W03
	BYTE	W03
	BYTE		        42*sky_tower_mvl/mxv
	BYTE	W07
	BYTE		        45*sky_tower_mvl/mxv
	BYTE	W06
	BYTE		        48*sky_tower_mvl/mxv
	BYTE	W06
	BYTE		        50*sky_tower_mvl/mxv
	BYTE	W06
	BYTE		        53*sky_tower_mvl/mxv
	BYTE	W07
	BYTE		        56*sky_tower_mvl/mxv
	BYTE	W06
	BYTE		        58*sky_tower_mvl/mxv
	BYTE	W06
	BYTE		        61*sky_tower_mvl/mxv
	BYTE	W07
	BYTE		        64*sky_tower_mvl/mxv
	BYTE	W06
	BYTE		        67*sky_tower_mvl/mxv
	BYTE	W06
	BYTE		        70*sky_tower_mvl/mxv
	BYTE	W06
	BYTE		        72*sky_tower_mvl/mxv
	BYTE	W07
	BYTE		        76*sky_tower_mvl/mxv
	BYTE	W06
	BYTE		        78*sky_tower_mvl/mxv
	BYTE	W06
	BYTE		        81*sky_tower_mvl/mxv
	BYTE	W05
	BYTE	W02
	BYTE		        85*sky_tower_mvl/mxv
	BYTE	W92
	BYTE	W02
	BYTE	W92
	BYTE	W03
	BYTE		VOICE   24
	BYTE	W01
	BYTE		EOT
	BYTE		N48     An3   v040
	BYTE	W48
	BYTE		TIE     Cs4 
	BYTE	W48
	BYTE	PEND
	BYTE	W96
	BYTE		EOT
	BYTE		TIE     Bn3 
	BYTE	W96
	BYTE	W96
	BYTE		EOT
	BYTE	PATT
	 POIN2	sky_tower_4 + 0x65
	BYTE	W96
	BYTE		EOT     Cs4 
	BYTE		TIE     Bn3   v040
	BYTE	W96
	BYTE	W96
	BYTE		EOT
	BYTE		TIE
	BYTE	W96
	BYTE	W36
	BYTE	W01
	BYTE		VOL     63*sky_tower_mvl/mxv
	BYTE	W56
	BYTE	W03
	BYTE	W68
	BYTE	W01
	BYTE		        55*sky_tower_mvl/mxv
	BYTE	W08
	BYTE		        56*sky_tower_mvl/mxv
	BYTE	W07
	BYTE		        54*sky_tower_mvl/mxv
	BYTE	W07
	BYTE		        52*sky_tower_mvl/mxv
	BYTE	W05
	BYTE	W02
	BYTE		        50*sky_tower_mvl/mxv
	BYTE	W07
	BYTE		        49*sky_tower_mvl/mxv
	BYTE	W07
	BYTE		        47*sky_tower_mvl/mxv
	BYTE	W07
	BYTE		        46*sky_tower_mvl/mxv
	BYTE	W07
	BYTE		        44*sky_tower_mvl/mxv
	BYTE	W07
	BYTE		        39*sky_tower_mvl/mxv
	BYTE	W08
	BYTE		        34*sky_tower_mvl/mxv
	BYTE	W07
	BYTE		        30*sky_tower_mvl/mxv
	BYTE	W07
	BYTE		        26*sky_tower_mvl/mxv
	BYTE	W07
	BYTE		        22*sky_tower_mvl/mxv
	BYTE	W07
	BYTE		        18*sky_tower_mvl/mxv
	BYTE	W07
	BYTE		        14*sky_tower_mvl/mxv
	BYTE	W07
	BYTE		        9*sky_tower_mvl/mxv
	BYTE	W08
	BYTE		VOICE   95
	BYTE		VOL     85*sky_tower_mvl/mxv
	BYTE		PAN     c_v+30
	BYTE	W01
	BYTE		EOT
	BYTE		TIE     Dn2   v060
	BYTE	W96
	BYTE		VOL     76*sky_tower_mvl/mxv
	BYTE	W03
	BYTE		        79*sky_tower_mvl/mxv
	BYTE	W02
	BYTE		        79*sky_tower_mvl/mxv
	BYTE	W02
	BYTE		        78*sky_tower_mvl/mxv
	BYTE	W02
	BYTE		        78*sky_tower_mvl/mxv
	BYTE	W02
	BYTE		        78*sky_tower_mvl/mxv
	BYTE	W02
	BYTE		        78*sky_tower_mvl/mxv
	BYTE	W02
	BYTE		        78*sky_tower_mvl/mxv
	BYTE	W02
	BYTE		        77*sky_tower_mvl/mxv
	BYTE	W02
	BYTE		        77*sky_tower_mvl/mxv
	BYTE	W02
	BYTE		        76*sky_tower_mvl/mxv
	BYTE	W02
	BYTE		        76*sky_tower_mvl/mxv
	BYTE	W03
	BYTE		        76*sky_tower_mvl/mxv
	BYTE	W02
	BYTE		        76*sky_tower_mvl/mxv
	BYTE	W02
	BYTE		        75*sky_tower_mvl/mxv
	BYTE	W02
	BYTE		        75*sky_tower_mvl/mxv
	BYTE	W02
	BYTE		        75*sky_tower_mvl/mxv
	BYTE	W02
	BYTE		        74*sky_tower_mvl/mxv
	BYTE	W02
	BYTE		        74*sky_tower_mvl/mxv
	BYTE	W02
	BYTE		        74*sky_tower_mvl/mxv
	BYTE	W02
	BYTE		        74*sky_tower_mvl/mxv
	BYTE	W02
	BYTE		        74*sky_tower_mvl/mxv
	BYTE	W02
	BYTE		        73*sky_tower_mvl/mxv
	BYTE	W08
	BYTE		        72*sky_tower_mvl/mxv
	BYTE	W10
	BYTE		        70*sky_tower_mvl/mxv
	BYTE	W05
	BYTE		        68*sky_tower_mvl/mxv
	BYTE	W04
	BYTE		        65*sky_tower_mvl/mxv
	BYTE	W03
	BYTE		        63*sky_tower_mvl/mxv
	BYTE	W02
	BYTE		        61*sky_tower_mvl/mxv
	BYTE	W03
	BYTE		        54*sky_tower_mvl/mxv
	BYTE	W03
	BYTE		        48*sky_tower_mvl/mxv
	BYTE	W04
	BYTE		        38*sky_tower_mvl/mxv
	BYTE	W02
	BYTE	PEND
	BYTE		EOT     Dn2 
	BYTE		VOL     34*sky_tower_mvl/mxv
	BYTE	W06
	BYTE		VOL     35*sky_tower_mvl/mxv
	BYTE		N72     Gs1   v060
	BYTE	W02
	BYTE		VOL     40*sky_tower_mvl/mxv
	BYTE	W02
	BYTE		        47*sky_tower_mvl/mxv
	BYTE	W02
	BYTE		        54*sky_tower_mvl/mxv
	BYTE	W02
	BYTE		        61*sky_tower_mvl/mxv
	BYTE	W03
	BYTE		        72*sky_tower_mvl/mxv
	BYTE	W44
	BYTE	W02
	BYTE		        62*sky_tower_mvl/mxv
	BYTE	W04
	BYTE		        58*sky_tower_mvl/mxv
	BYTE	W03
	BYTE		        55*sky_tower_mvl/mxv
	BYTE	W04
	BYTE		        51*sky_tower_mvl/mxv
	BYTE	W03
	BYTE		        48*sky_tower_mvl/mxv
	BYTE	W03
	BYTE		        44*sky_tower_mvl/mxv
	BYTE	W02
	BYTE		        43*sky_tower_mvl/mxv
	BYTE	W02
	BYTE		        40*sky_tower_mvl/mxv
	BYTE	W02
	BYTE		        38*sky_tower_mvl/mxv
	BYTE	W03
	BYTE		VOICE   7
	BYTE		VOL     72*sky_tower_mvl/mxv
	BYTE		PAN     c_v+20
	BYTE	W01
	BYTE		N48     An2 
	BYTE	W12
	BYTE	PEND
	BYTE	W36
	BYTE		N12     Cs3   v060
	BYTE	W24
	BYTE		N30     An2 
	BYTE	W32
	BYTE	W03
	BYTE		VOICE   95
	BYTE		VOL     85*sky_tower_mvl/mxv
	BYTE		PAN     c_v+30
	BYTE	W01
	BYTE	PEND
	BYTE		TIE     Dn2   v060
	BYTE	W96
	BYTE	PATT
	 POIN2	sky_tower_4 + 0xBB
	BYTE		EOT     Dn2 
	BYTE		VOL     34*sky_tower_mvl/mxv
	BYTE	W06
	BYTE	PATT
	 POIN2	sky_tower_4 + 0x102
	BYTE	W36
	BYTE		N12     Cs3   v060
	BYTE	W24
	BYTE		N30     An2 
	BYTE	W32
	BYTE	W03
	BYTE		VOICE   95
	BYTE		VOL     60*sky_tower_mvl/mxv
	BYTE		PAN     c_v+10
	BYTE	W01
	BYTE		N72     Dn2   v080
	BYTE	W84
	BYTE		TIE     Bn1 
	BYTE	W12
	BYTE	PEND
	BYTE	W96
	BYTE		EOT
	BYTE	PATT
	 POIN2	sky_tower_4 + 0x165
	BYTE	W96
	BYTE		EOT     Bn1 
	BYTE	PATT
	 POIN2	sky_tower_4 + 0x165
	BYTE	W96
	BYTE		EOT     Bn1 
	BYTE	PATT
	 POIN2	sky_tower_4 + 0x165
	BYTE	W92
	BYTE	W03
	BYTE		VOICE   95
	BYTE		VOL     85*sky_tower_mvl/mxv
	BYTE		PAN     c_v+30
	BYTE	W01
	BYTE	PEND
	BYTE		EOT     Bn1 
	BYTE		TIE     Dn2   v060
	BYTE	W96
	BYTE	PATT
	 POIN2	sky_tower_4 + 0xBB
	BYTE		EOT     Dn2 
	BYTE		VOL     34*sky_tower_mvl/mxv
	BYTE	W06
	BYTE	PATT
	 POIN2	sky_tower_4 + 0x102
	BYTE	PATT
	 POIN2	sky_tower_4 + 0x131
	BYTE		TIE     Dn2   v060
	BYTE	W96
	BYTE	PATT
	 POIN2	sky_tower_4 + 0xBB
	BYTE		EOT     Dn2 
	BYTE		VOL     34*sky_tower_mvl/mxv
	BYTE	W06
	BYTE	PATT
	 POIN2	sky_tower_4 + 0x102
	BYTE	W36
	BYTE		N12     Cs3   v060
	BYTE	W24
	BYTE		N30     An2 
	BYTE	W36
	BYTE	PEND
	BYTE	W96
	BYTE	W96
	BYTE	W96
	BYTE	W92
	BYTE	W03
	BYTE		VOICE   95
	BYTE		VOL     60*sky_tower_mvl/mxv
	BYTE		PAN     c_v+10
	BYTE	W01
	BYTE	PATT
	 POIN2	sky_tower_4 + 0x165
	BYTE	W96
	BYTE		EOT     Bn1 
	BYTE	PATT
	 POIN2	sky_tower_4 + 0x165
	BYTE	W96
	BYTE		EOT     Bn1 
	BYTE	PATT
	 POIN2	sky_tower_4 + 0x165
	BYTE	W96
	BYTE		EOT     Bn1 
	BYTE	PATT
	 POIN2	sky_tower_4 + 0x165
	BYTE	PATT
	 POIN2	sky_tower_4 + 0x184
	BYTE		EOT     Bn1 
	BYTE		TIE     Dn2   v060
	BYTE	W96
	BYTE	PATT
	 POIN2	sky_tower_4 + 0xBB
	BYTE		EOT     Dn2 
	BYTE		VOL     34*sky_tower_mvl/mxv
	BYTE	W06
	BYTE	PATT
	 POIN2	sky_tower_4 + 0x102
	BYTE	PATT
	 POIN2	sky_tower_4 + 0x131
	BYTE		TIE     Dn2   v060
	BYTE	W96
	BYTE	PATT
	 POIN2	sky_tower_4 + 0xBB
	BYTE		EOT     Dn2 
	BYTE		VOL     34*sky_tower_mvl/mxv
	BYTE	W06
	BYTE		        35*sky_tower_mvl/mxv
	BYTE		N72     Gs1   v060
	BYTE	W02
	BYTE		VOL     40*sky_tower_mvl/mxv
	BYTE	W02
	BYTE		        47*sky_tower_mvl/mxv
	BYTE	W02
	BYTE		        54*sky_tower_mvl/mxv
	BYTE	W02
	BYTE		        61*sky_tower_mvl/mxv
	BYTE	W03
	BYTE		        72*sky_tower_mvl/mxv
	BYTE	W44
	BYTE	W02
	BYTE		        62*sky_tower_mvl/mxv
	BYTE	W04
	BYTE		        58*sky_tower_mvl/mxv
	BYTE	W03
	BYTE		        55*sky_tower_mvl/mxv
	BYTE	W04
	BYTE		        51*sky_tower_mvl/mxv
	BYTE	W03
	BYTE		        48*sky_tower_mvl/mxv
	BYTE	W03
	BYTE		        44*sky_tower_mvl/mxv
	BYTE	W02
	BYTE		        43*sky_tower_mvl/mxv
	BYTE	W02
	BYTE		        40*sky_tower_mvl/mxv
	BYTE	W02
	BYTE		        38*sky_tower_mvl/mxv
	BYTE	W03
	BYTE		VOICE   7
	BYTE		VOL     72*sky_tower_mvl/mxv
	BYTE		PAN     c_v+20
	BYTE	W01
	BYTE		N36     An2 
	BYTE	W12
	BYTE	W36
	BYTE		N36
	BYTE	W56
	BYTE	W03
	BYTE		VOICE   24
	BYTE	W01
	BYTE		N96     Cs4   v052
	BYTE	W96
	BYTE		        Fs4 
	BYTE	W96
	BYTE		TIE     Bn3 
	BYTE	W96
	BYTE	W96
	BYTE		EOT
	BYTE		N96     Cs4 
	BYTE	W96
	BYTE		        Fs4 
	BYTE	W96
	BYTE		TIE     Bn3 
	BYTE	W96
	BYTE	W92
	BYTE	W03
	BYTE		VOICE   95
	BYTE		VOL     73*sky_tower_mvl/mxv
	BYTE	W01
	BYTE		EOT
	BYTE		N48     Cs2   v080
	BYTE	W48
	BYTE		        Fs2 
	BYTE	W48
	BYTE	PEND
	BYTE		N48     En2   v080
	BYTE	W48
	BYTE		        Fs2 
	BYTE	W48
	BYTE	PEND
	BYTE		TIE     Cs2 
	BYTE	W96
	BYTE	W96
	BYTE		EOT
	BYTE	PATT
	 POIN2	sky_tower_4 + 0x269
	BYTE	PATT
	 POIN2	sky_tower_4 + 0x270
	BYTE		N96     En2   v080
	BYTE	W96
	BYTE		        Cs2 
	BYTE	W96
	BYTE	PATT
	 POIN2	sky_tower_4 + 0x269
	BYTE	PATT
	 POIN2	sky_tower_4 + 0x270
	BYTE		TIE     Cs2   v080
	BYTE	W96
	BYTE	W96
	BYTE		EOT
	BYTE	PATT
	 POIN2	sky_tower_4 + 0x269
	BYTE	PATT
	 POIN2	sky_tower_4 + 0x270
	BYTE		N96     Gs2   v080
	BYTE	W96
	BYTE		        En2 
	BYTE	W96
	BYTE	PATT
	 POIN2	sky_tower_4 + 0x269
	BYTE	PATT
	 POIN2	sky_tower_4 + 0x270
	BYTE		TIE     Cs2   v080
	BYTE	W96
	BYTE	W96
	BYTE		EOT
	BYTE	PATT
	 POIN2	sky_tower_4 + 0x269
	BYTE	PATT
	 POIN2	sky_tower_4 + 0x270
	BYTE		N96     Gs2   v080
	BYTE	W96
	BYTE		        En2 
	BYTE	W96
	BYTE	PATT
	 POIN2	sky_tower_4 + 0x269
	BYTE	PATT
	 POIN2	sky_tower_4 + 0x270
	BYTE		TIE     Cs2   v080
	BYTE	W96
	BYTE	W96
	BYTE		EOT
	BYTE	PATT
	 POIN2	sky_tower_4 + 0x269
	BYTE	PATT
	 POIN2	sky_tower_4 + 0x270
	BYTE		N96     Gs2   v080
	BYTE	W96
	BYTE		        En2 
	BYTE	W96
	BYTE		N48     An1   v092
	BYTE	W60
	BYTE		N09
	BYTE	W12
	BYTE		N06     An1   v060
	BYTE	W12
	BYTE		TIE     Bn1   v092
	BYTE	W12
	BYTE	W96
	BYTE		EOT
	BYTE		N48     Dn2   v092
	BYTE	W60
	BYTE		N09
	BYTE	W24
	BYTE		TIE     En2 
	BYTE	W12
	BYTE	PEND
	BYTE	W96
	BYTE		EOT
	BYTE		N48     An1 
	BYTE	W60
	BYTE		N09
	BYTE	W24
	BYTE		TIE     Bn1 
	BYTE	W12
	BYTE	W96
	BYTE		EOT
	BYTE	PATT
	 POIN2	sky_tower_4 + 0x2FC
	BYTE	PATT
	 POIN2	sky_tower_4 + 0x184
	BYTE		EOT     En2 
	BYTE		TIE     Dn2   v060
	BYTE	W96
	BYTE	PATT
	 POIN2	sky_tower_4 + 0xBB
	BYTE		EOT     Dn2 
	BYTE		VOL     34*sky_tower_mvl/mxv
	BYTE	W06
	BYTE	PATT
	 POIN2	sky_tower_4 + 0x102
	BYTE	PATT
	 POIN2	sky_tower_4 + 0x1BB
	BYTE	GoTo
	 POIN2	sky_tower_4 + 0x142
	BYTE	FINE

//*********************** Track 06 ***********************//

sky_tower_5:
	BYTE	KEYSH   sky_tower_key+0
	BYTE	W12
	BYTE		VOICE   81
	BYTE		VOL     53*sky_tower_mvl/mxv
	BYTE		PAN     c_v+0
	BYTE	W01
	BYTE		MOD     4
	BYTE		LFOS    60
	BYTE		MODT    mod_vib
	BYTE	W11
	BYTE	W96
	BYTE	W96
	BYTE	W96
	BYTE	W96
	BYTE		TIE     Fs3   v060
	BYTE	W96
	BYTE	W96
	BYTE		EOT
	BYTE		TIE
	BYTE	W96
	BYTE	W96
	BYTE		EOT
	BYTE		TIE
	BYTE	W96
	BYTE	W96
	BYTE		EOT
	BYTE		TIE
	BYTE	W96
	BYTE	W92
	BYTE	W03
	BYTE		VOICE   70
	BYTE		MOD     0
	BYTE		VOL     85*sky_tower_mvl/mxv
	BYTE		PAN     c_v+40
	BYTE	W01
	BYTE	PEND
	BYTE		EOT     Fs3 
	BYTE		N03     Bn3   v120
	BYTE	W03
	BYTE		        Bn3   v052
	BYTE	W02
	BYTE		PAN     c_v-40
	BYTE	W01
	BYTE		N02     En3   v072
	BYTE	W03
	BYTE		        En3   v032
	BYTE	W02
	BYTE		PAN     c_v+40
	BYTE	W01
	BYTE		N02     Fs3   v120
	BYTE	W03
	BYTE		        Fs3   v032
	BYTE	W02
	BYTE		PAN     c_v-40
	BYTE	W01
	BYTE		N03     Bn3   v120
	BYTE	W03
	BYTE		        Bn3   v052
	BYTE	W02
	BYTE		PAN     c_v+40
	BYTE	W01
	BYTE		N02     En3   v072
	BYTE	W03
	BYTE		        En3   v032
	BYTE	W02
	BYTE		PAN     c_v-40
	BYTE	W01
	BYTE		N02     Fs3   v120
	BYTE	W03
	BYTE		        Fs3   v032
	BYTE	W02
	BYTE		PAN     c_v+40
	BYTE	W01
	BYTE		N03     Bn3   v120
	BYTE	W03
	BYTE		        Bn3   v052
	BYTE	W02
	BYTE		PAN     c_v-40
	BYTE	W01
	BYTE		N02     En3   v072
	BYTE	W03
	BYTE		        En3   v032
	BYTE	W02
	BYTE		PAN     c_v+40
	BYTE	W01
	BYTE		N02     Fs3   v120
	BYTE	W03
	BYTE		        Fs3   v032
	BYTE	W02
	BYTE		PAN     c_v-40
	BYTE	W01
	BYTE		N03     Bn3   v120
	BYTE	W03
	BYTE		        Bn3   v052
	BYTE	W02
	BYTE		PAN     c_v+40
	BYTE	W01
	BYTE		N02     En3   v072
	BYTE	W03
	BYTE		        En3   v032
	BYTE	W02
	BYTE		PAN     c_v-40
	BYTE	W01
	BYTE		N02     Fs3   v120
	BYTE	W03
	BYTE		        Fs3   v032
	BYTE	W02
	BYTE		PAN     c_v+40
	BYTE	W01
	BYTE		N03     Bn3   v120
	BYTE	W03
	BYTE		        Bn3   v052
	BYTE	W02
	BYTE		PAN     c_v-40
	BYTE	W01
	BYTE		N02     En3   v072
	BYTE	W03
	BYTE		        En3   v032
	BYTE	W02
	BYTE		PAN     c_v+40
	BYTE	W01
	BYTE		N02     Fs3   v060
	BYTE	W03
	BYTE		        Fs3   v040
	BYTE	W02
	BYTE		PAN     c_v-40
	BYTE	W01
	BYTE		N02     Bn2   v060
	BYTE	W03
	BYTE		        Bn2   v040
	BYTE	W02
	BYTE		PAN     c_v+40
	BYTE	W01
	BYTE	PEND
	BYTE	PATT
	 POIN2	sky_tower_5 + 0x33
	BYTE	PATT
	 POIN2	sky_tower_5 + 0x33
	BYTE	PATT
	 POIN2	sky_tower_5 + 0x33
	BYTE	PATT
	 POIN2	sky_tower_5 + 0x33
	BYTE	PATT
	 POIN2	sky_tower_5 + 0x33
	BYTE	PATT
	 POIN2	sky_tower_5 + 0x33
	BYTE	PATT
	 POIN2	sky_tower_5 + 0x33
	BYTE	PATT
	 POIN2	sky_tower_5 + 0x33
	BYTE	PATT
	 POIN2	sky_tower_5 + 0x33
	BYTE	PATT
	 POIN2	sky_tower_5 + 0x33
	BYTE		N03     Bn3   v120
	BYTE	W03
	BYTE		        Bn3   v052
	BYTE	W02
	BYTE		PAN     c_v-40
	BYTE	W01
	BYTE		N02     En3   v072
	BYTE	W03
	BYTE		        En3   v032
	BYTE	W02
	BYTE		PAN     c_v+40
	BYTE	W01
	BYTE		N02     Fs3   v120
	BYTE	W03
	BYTE		        Fs3   v032
	BYTE	W02
	BYTE		PAN     c_v-40
	BYTE	W01
	BYTE		N03     Bn3   v120
	BYTE	W03
	BYTE		        Bn3   v052
	BYTE	W02
	BYTE		PAN     c_v+40
	BYTE	W01
	BYTE		N02     En3   v072
	BYTE	W03
	BYTE		        En3   v032
	BYTE	W02
	BYTE		PAN     c_v-40
	BYTE	W01
	BYTE		N02     Fs3   v120
	BYTE	W03
	BYTE		        Fs3   v032
	BYTE	W02
	BYTE		PAN     c_v+40
	BYTE	W01
	BYTE		N03     Bn3   v120
	BYTE	W03
	BYTE		        Bn3   v052
	BYTE	W02
	BYTE		PAN     c_v-40
	BYTE	W01
	BYTE		N02     En3   v072
	BYTE	W03
	BYTE		        En3   v032
	BYTE	W02
	BYTE		PAN     c_v+40
	BYTE	W01
	BYTE		N02     Fs3   v120
	BYTE	W03
	BYTE		        Fs3   v032
	BYTE	W02
	BYTE		PAN     c_v-40
	BYTE	W01
	BYTE		N03     Bn3   v120
	BYTE	W03
	BYTE		        Bn3   v052
	BYTE	W02
	BYTE		PAN     c_v+40
	BYTE	W01
	BYTE		N02     En3   v072
	BYTE	W03
	BYTE		        En3   v032
	BYTE	W02
	BYTE		PAN     c_v-40
	BYTE	W01
	BYTE		N02     Fs3   v120
	BYTE	W03
	BYTE		        Fs3   v032
	BYTE	W02
	BYTE		PAN     c_v+40
	BYTE	W01
	BYTE		N03     Bn3   v120
	BYTE	W03
	BYTE		        Bn3   v052
	BYTE	W02
	BYTE		PAN     c_v-40
	BYTE	W01
	BYTE		N02     En3   v072
	BYTE	W03
	BYTE		        En3   v032
	BYTE	W02
	BYTE		PAN     c_v+40
	BYTE	W01
	BYTE		N02     Fs3   v060
	BYTE	W03
	BYTE		        Fs3   v040
	BYTE	W02
	BYTE		PAN     c_v-40
	BYTE	W01
	BYTE		N02     Bn2   v060
	BYTE	W03
	BYTE		        Bn2   v040
	BYTE	W03
	BYTE	PEND
	BYTE	W96
	BYTE	W96
	BYTE	W96
	BYTE	W96
	BYTE	W96
	BYTE	W96
	BYTE	W96
	BYTE	W92
	BYTE	W03
	BYTE		PAN     c_v+40
	BYTE	W01
	BYTE	PATT
	 POIN2	sky_tower_5 + 0x33
	BYTE	PATT
	 POIN2	sky_tower_5 + 0x33
	BYTE	PATT
	 POIN2	sky_tower_5 + 0x33
	BYTE	PATT
	 POIN2	sky_tower_5 + 0x33
	BYTE	PATT
	 POIN2	sky_tower_5 + 0x33
	BYTE	PATT
	 POIN2	sky_tower_5 + 0x33
	BYTE	PATT
	 POIN2	sky_tower_5 + 0x33
	BYTE	PATT
	 POIN2	sky_tower_5 + 0x33
	BYTE	PATT
	 POIN2	sky_tower_5 + 0x33
	BYTE	PATT
	 POIN2	sky_tower_5 + 0x33
	BYTE		N03     Bn3   v120
	BYTE	W03
	BYTE		        Bn3   v052
	BYTE	W02
	BYTE		PAN     c_v-40
	BYTE	W01
	BYTE		N02     En3   v072
	BYTE	W03
	BYTE		        En3   v032
	BYTE	W02
	BYTE		PAN     c_v+40
	BYTE	W01
	BYTE		N02     Fs3   v120
	BYTE	W03
	BYTE		        Fs3   v032
	BYTE	W02
	BYTE		PAN     c_v-40
	BYTE	W01
	BYTE		N03     Bn3   v120
	BYTE	W03
	BYTE		        Bn3   v052
	BYTE	W02
	BYTE		PAN     c_v+40
	BYTE	W01
	BYTE		N02     En3   v072
	BYTE	W03
	BYTE		        En3   v032
	BYTE	W02
	BYTE		PAN     c_v-40
	BYTE	W01
	BYTE		N02     Fs3   v120
	BYTE	W03
	BYTE		        Fs3   v032
	BYTE	W02
	BYTE		PAN     c_v+40
	BYTE	W01
	BYTE		N03     Bn3   v120
	BYTE	W03
	BYTE		        Bn3   v052
	BYTE	W02
	BYTE		PAN     c_v-40
	BYTE	W01
	BYTE		N02     En3   v072
	BYTE	W03
	BYTE		        En3   v032
	BYTE	W02
	BYTE		PAN     c_v+40
	BYTE	W01
	BYTE		N02     Fs3   v120
	BYTE	W03
	BYTE		        Fs3   v032
	BYTE	W02
	BYTE		PAN     c_v-40
	BYTE	W01
	BYTE		N03     Bn3   v120
	BYTE	W03
	BYTE		        Bn3   v052
	BYTE	W02
	BYTE		PAN     c_v+40
	BYTE	W01
	BYTE		N02     En3   v072
	BYTE	W03
	BYTE		        En3   v032
	BYTE	W02
	BYTE		PAN     c_v-40
	BYTE	W01
	BYTE		N02     Fs3   v120
	BYTE	W03
	BYTE		        Fs3   v032
	BYTE	W02
	BYTE		PAN     c_v+40
	BYTE	W01
	BYTE		N03     Bn3   v120
	BYTE	W03
	BYTE		        Bn3   v052
	BYTE	W02
	BYTE		PAN     c_v-40
	BYTE	W01
	BYTE		N02     En3   v072
	BYTE	W03
	BYTE		        En3   v032
	BYTE	W02
	BYTE		PAN     c_v+40
	BYTE	W01
	BYTE		N02     Fs3   v060
	BYTE	W03
	BYTE		        Fs3   v040
	BYTE	W02
	BYTE		PAN     c_v-40
	BYTE	W06
	BYTE		        c_v+40
	BYTE	W01
	BYTE	W05
	BYTE		PAN     c_v-40
	BYTE	W06
	BYTE		        c_v+40
	BYTE	W06
	BYTE		        c_v-40
	BYTE	W06
	BYTE		        c_v+40
	BYTE	W06
	BYTE		        c_v-40
	BYTE	W06
	BYTE		        c_v+40
	BYTE	W06
	BYTE		        c_v-40
	BYTE	W06
	BYTE		        c_v+40
	BYTE	W06
	BYTE		        c_v-40
	BYTE	W06
	BYTE		        c_v+40
	BYTE	W06
	BYTE		        c_v-40
	BYTE	W06
	BYTE		        c_v+40
	BYTE	W06
	BYTE		        c_v-40
	BYTE	W06
	BYTE		        c_v+40
	BYTE	W06
	BYTE		        c_v-40
	BYTE	W06
	BYTE		        c_v+40
	BYTE	W01
	BYTE	PEND
	BYTE	PATT
	 POIN2	sky_tower_5 + 0x33
	BYTE	PATT
	 POIN2	sky_tower_5 + 0x33
	BYTE	PATT
	 POIN2	sky_tower_5 + 0x33
	BYTE	PATT
	 POIN2	sky_tower_5 + 0x33
	BYTE	PATT
	 POIN2	sky_tower_5 + 0x33
	BYTE	PATT
	 POIN2	sky_tower_5 + 0x33
	BYTE	PATT
	 POIN2	sky_tower_5 + 0x33
	BYTE	PATT
	 POIN2	sky_tower_5 + 0x33
	BYTE	PATT
	 POIN2	sky_tower_5 + 0x33
	BYTE	PATT
	 POIN2	sky_tower_5 + 0x33
	BYTE	PATT
	 POIN2	sky_tower_5 + 0x33
	BYTE	PATT
	 POIN2	sky_tower_5 + 0x33
	BYTE	PATT
	 POIN2	sky_tower_5 + 0x33
	BYTE	PATT
	 POIN2	sky_tower_5 + 0x33
	BYTE		N03     Bn3   v120
	BYTE	W03
	BYTE		        Bn3   v052
	BYTE	W02
	BYTE		PAN     c_v-40
	BYTE	W01
	BYTE		N02     En3   v072
	BYTE	W03
	BYTE		        En3   v032
	BYTE	W02
	BYTE		PAN     c_v+40
	BYTE	W01
	BYTE		N02     Fs3   v120
	BYTE	W03
	BYTE		        Fs3   v032
	BYTE	W02
	BYTE		PAN     c_v-40
	BYTE	W01
	BYTE		N03     Bn3   v120
	BYTE	W03
	BYTE		        Bn3   v052
	BYTE	W02
	BYTE		PAN     c_v+40
	BYTE	W01
	BYTE		N02     En3   v072
	BYTE	W03
	BYTE		        En3   v032
	BYTE	W02
	BYTE		PAN     c_v-40
	BYTE	W01
	BYTE		N02     Fs3   v120
	BYTE	W03
	BYTE		        Fs3   v032
	BYTE	W02
	BYTE		PAN     c_v+40
	BYTE	W01
	BYTE		N03     Bn3   v120
	BYTE	W03
	BYTE		        Bn3   v052
	BYTE	W02
	BYTE		PAN     c_v-40
	BYTE	W01
	BYTE		N02     En3   v072
	BYTE	W03
	BYTE		        En3   v032
	BYTE	W02
	BYTE		PAN     c_v+40
	BYTE	W01
	BYTE		N02     Fs3   v120
	BYTE	W03
	BYTE		        Fs3   v032
	BYTE	W02
	BYTE		PAN     c_v-40
	BYTE	W01
	BYTE		N03     Bn3   v120
	BYTE	W03
	BYTE		        Bn3   v052
	BYTE	W02
	BYTE		PAN     c_v+40
	BYTE	W01
	BYTE		N02     En3   v072
	BYTE	W03
	BYTE		        En3   v032
	BYTE	W02
	BYTE		PAN     c_v-40
	BYTE	W01
	BYTE		N02     Fs3   v120
	BYTE	W03
	BYTE		        Fs3   v032
	BYTE	W02
	BYTE		PAN     c_v+40
	BYTE	W01
	BYTE		N03     Bn3   v120
	BYTE	W03
	BYTE		        Bn3   v052
	BYTE	W02
	BYTE		PAN     c_v-40
	BYTE	W01
	BYTE		N02     En3   v072
	BYTE	W03
	BYTE		        En3   v032
	BYTE	W02
	BYTE		PAN     c_v+40
	BYTE	W01
	BYTE		N02     Fs3   v060
	BYTE	W03
	BYTE		        Fs3   v040
	BYTE	W02
	BYTE		PAN     c_v-40
	BYTE	W01
	BYTE		N02     Bn2   v060
	BYTE	W03
	BYTE		        Bn2   v040
	BYTE	W02
	BYTE		VOICE   81
	BYTE		MOD     3
	BYTE		VOL     53*sky_tower_mvl/mxv
	BYTE		PAN     c_v+0
	BYTE	W01
	BYTE	W05
	BYTE		        c_v-40
	BYTE	W06
	BYTE		        c_v+40
	BYTE	W06
	BYTE		        c_v-40
	BYTE	W06
	BYTE		        c_v+40
	BYTE	W06
	BYTE		        c_v-40
	BYTE	W06
	BYTE		        c_v+40
	BYTE	W06
	BYTE		        c_v-40
	BYTE	W06
	BYTE		        c_v+40
	BYTE	W06
	BYTE		        c_v-40
	BYTE	W06
	BYTE		        c_v+40
	BYTE	W06
	BYTE		        c_v-40
	BYTE	W06
	BYTE		        c_v+40
	BYTE	W06
	BYTE		        c_v-40
	BYTE	W06
	BYTE		        c_v+40
	BYTE	W06
	BYTE		        c_v-40
	BYTE	W07
	BYTE		TIE     An2   v060
	BYTE	W96
	BYTE	W96
	BYTE		EOT
	BYTE		TIE     Bn2 
	BYTE	W96
	BYTE	W96
	BYTE		EOT
	BYTE		TIE     An2 
	BYTE	W96
	BYTE	W96
	BYTE		EOT
	BYTE		TIE     Bn2 
	BYTE	W96
	BYTE	PATT
	 POIN2	sky_tower_5 + 0x25
	BYTE		EOT     Bn2 
	BYTE		N03     Fs4   v120
	BYTE	W03
	BYTE		        Fs4   v052
	BYTE	W02
	BYTE		PAN     c_v-40
	BYTE	W01
	BYTE		N02     Bn3   v072
	BYTE	W03
	BYTE		        Bn3   v032
	BYTE	W02
	BYTE		PAN     c_v+40
	BYTE	W01
	BYTE		N02     Cs4   v120
	BYTE	W03
	BYTE		        Cs4   v032
	BYTE	W02
	BYTE		PAN     c_v-40
	BYTE	W01
	BYTE		N03     Fs4   v120
	BYTE	W03
	BYTE		        Fs4   v052
	BYTE	W02
	BYTE		PAN     c_v+40
	BYTE	W01
	BYTE		N02     Bn3   v072
	BYTE	W03
	BYTE		        Bn3   v032
	BYTE	W02
	BYTE		PAN     c_v-40
	BYTE	W01
	BYTE		N02     Cs4   v120
	BYTE	W03
	BYTE		        Cs4   v032
	BYTE	W02
	BYTE		PAN     c_v+40
	BYTE	W01
	BYTE		N03     Fs4   v120
	BYTE	W03
	BYTE		        Fs4   v052
	BYTE	W02
	BYTE		PAN     c_v-40
	BYTE	W01
	BYTE		N02     Bn3   v072
	BYTE	W03
	BYTE		        Bn3   v032
	BYTE	W02
	BYTE		PAN     c_v+40
	BYTE	W01
	BYTE		N02     Cs4   v120
	BYTE	W03
	BYTE		        Cs4   v032
	BYTE	W02
	BYTE		PAN     c_v-40
	BYTE	W01
	BYTE		N03     Fs4   v120
	BYTE	W03
	BYTE		        Fs4   v052
	BYTE	W02
	BYTE		PAN     c_v+40
	BYTE	W01
	BYTE		N02     Bn3   v072
	BYTE	W03
	BYTE		        Bn3   v032
	BYTE	W02
	BYTE		PAN     c_v-40
	BYTE	W01
	BYTE		N02     Cs4   v120
	BYTE	W03
	BYTE		        Cs4   v032
	BYTE	W02
	BYTE		PAN     c_v+40
	BYTE	W01
	BYTE		N03     Fs4   v120
	BYTE	W03
	BYTE		        Fs4   v052
	BYTE	W02
	BYTE		PAN     c_v-40
	BYTE	W01
	BYTE		N02     Bn3   v072
	BYTE	W03
	BYTE		        Bn3   v032
	BYTE	W02
	BYTE		PAN     c_v+40
	BYTE	W01
	BYTE		N02     Cs4   v060
	BYTE	W03
	BYTE		        Cs4   v040
	BYTE	W02
	BYTE		PAN     c_v-40
	BYTE	W01
	BYTE		N02     Fs3   v060
	BYTE	W03
	BYTE		        Fs3   v040
	BYTE	W02
	BYTE		PAN     c_v+40
	BYTE	W01
	BYTE	PEND
	BYTE	PATT
	 POIN2	sky_tower_5 + 0x3C2
	BYTE	PATT
	 POIN2	sky_tower_5 + 0x3C2
	BYTE	PATT
	 POIN2	sky_tower_5 + 0x3C2
	BYTE	PATT
	 POIN2	sky_tower_5 + 0x3C2
	BYTE	PATT
	 POIN2	sky_tower_5 + 0x3C2
	BYTE	PATT
	 POIN2	sky_tower_5 + 0x3C2
	BYTE	PATT
	 POIN2	sky_tower_5 + 0x3C2
	BYTE	PATT
	 POIN2	sky_tower_5 + 0x3C2
	BYTE	PATT
	 POIN2	sky_tower_5 + 0x3C2
	BYTE	PATT
	 POIN2	sky_tower_5 + 0x3C2
	BYTE	PATT
	 POIN2	sky_tower_5 + 0x3C2
	BYTE	PATT
	 POIN2	sky_tower_5 + 0x3C2
	BYTE	PATT
	 POIN2	sky_tower_5 + 0x3C2
	BYTE	PATT
	 POIN2	sky_tower_5 + 0x3C2
	BYTE		N03     Fs4   v120
	BYTE	W03
	BYTE		        Fs4   v052
	BYTE	W02
	BYTE		PAN     c_v-40
	BYTE	W01
	BYTE		N02     Bn3   v072
	BYTE	W03
	BYTE		        Bn3   v032
	BYTE	W02
	BYTE		PAN     c_v+40
	BYTE	W01
	BYTE		N02     Cs4   v120
	BYTE	W03
	BYTE		        Cs4   v032
	BYTE	W02
	BYTE		PAN     c_v-40
	BYTE	W01
	BYTE		N03     Fs4   v120
	BYTE	W03
	BYTE		        Fs4   v052
	BYTE	W02
	BYTE		PAN     c_v+40
	BYTE	W01
	BYTE		N02     Bn3   v072
	BYTE	W03
	BYTE		        Bn3   v032
	BYTE	W02
	BYTE		PAN     c_v-40
	BYTE	W01
	BYTE		N02     Cs4   v120
	BYTE	W03
	BYTE		        Cs4   v032
	BYTE	W02
	BYTE		PAN     c_v+40
	BYTE	W01
	BYTE		N03     Fs4   v120
	BYTE	W03
	BYTE		        Fs4   v052
	BYTE	W02
	BYTE		PAN     c_v-40
	BYTE	W01
	BYTE		N02     Bn3   v072
	BYTE	W03
	BYTE		        Bn3   v032
	BYTE	W02
	BYTE		PAN     c_v+40
	BYTE	W01
	BYTE		N02     Cs4   v120
	BYTE	W03
	BYTE		        Cs4   v032
	BYTE	W02
	BYTE		PAN     c_v-40
	BYTE	W01
	BYTE		N03     Fs4   v120
	BYTE	W03
	BYTE		        Fs4   v052
	BYTE	W02
	BYTE		PAN     c_v+40
	BYTE	W01
	BYTE		N02     Bn3   v072
	BYTE	W03
	BYTE		        Bn3   v032
	BYTE	W02
	BYTE		PAN     c_v-40
	BYTE	W01
	BYTE		N02     Cs4   v120
	BYTE	W03
	BYTE		        Cs4   v032
	BYTE	W02
	BYTE		PAN     c_v+40
	BYTE	W01
	BYTE		N03     Fs4   v120
	BYTE	W03
	BYTE		        Fs4   v052
	BYTE	W02
	BYTE		PAN     c_v-40
	BYTE	W01
	BYTE		N02     Bn3   v072
	BYTE	W03
	BYTE		        Bn3   v032
	BYTE	W02
	BYTE		PAN     c_v+40
	BYTE	W01
	BYTE		N02     Cs4   v060
	BYTE	W03
	BYTE		        Cs4   v040
	BYTE	W02
	BYTE		PAN     c_v-40
	BYTE	W01
	BYTE		N02     Fs3   v060
	BYTE	W03
	BYTE		        Fs3   v040
	BYTE	W02
	BYTE		VOICE   81
	BYTE		MOD     3
	BYTE		VOL     53*sky_tower_mvl/mxv
	BYTE		PAN     c_v+0
	BYTE	W01
	BYTE		TIE     An2   v060
	BYTE	W96
	BYTE	W96
	BYTE		EOT
	BYTE		TIE     Bn2 
	BYTE	W96
	BYTE	W96
	BYTE		EOT
	BYTE		TIE     An2 
	BYTE	W96
	BYTE	W96
	BYTE		EOT
	BYTE		TIE     Bn2 
	BYTE	W96
	BYTE	W96
	BYTE		EOT
	BYTE		TIE     An2 
	BYTE	W96
	BYTE	W96
	BYTE		EOT
	BYTE		TIE     Bn2 
	BYTE	W96
	BYTE	W96
	BYTE		EOT
	BYTE		TIE     An2 
	BYTE	W96
	BYTE	W96
	BYTE		EOT
	BYTE		TIE     Bn2 
	BYTE	W96
	BYTE	PATT
	 POIN2	sky_tower_5 + 0x25
	BYTE		EOT     Bn2 
	BYTE	PATT
	 POIN2	sky_tower_5 + 0x33
	BYTE	PATT
	 POIN2	sky_tower_5 + 0x33
	BYTE	PATT
	 POIN2	sky_tower_5 + 0x33
	BYTE	PATT
	 POIN2	sky_tower_5 + 0x33
	BYTE	PATT
	 POIN2	sky_tower_5 + 0x33
	BYTE	PATT
	 POIN2	sky_tower_5 + 0x33
	BYTE	PATT
	 POIN2	sky_tower_5 + 0x33
	BYTE	PATT
	 POIN2	sky_tower_5 + 0x27A
	BYTE	PATT
	 POIN2	sky_tower_5 + 0x33
	BYTE	PATT
	 POIN2	sky_tower_5 + 0x33
	BYTE	PATT
	 POIN2	sky_tower_5 + 0x33
	BYTE	PATT
	 POIN2	sky_tower_5 + 0x106
	BYTE	GoTo
	 POIN2	sky_tower_5 + 0xF7
	BYTE	FINE

//*********************** Track 07 ***********************//

sky_tower_6:
	BYTE	KEYSH   sky_tower_key+0
	BYTE	W14
	BYTE		VOICE   53
	BYTE		VOL     85*sky_tower_mvl/mxv
	BYTE		PAN     c_v+0
	BYTE	W01
	BYTE		MOD     0
	BYTE		MODT    mod_tre
	BYTE	W09
	BYTE	W96
	BYTE	W96
	BYTE	W96
	BYTE	W92
	BYTE	W03
	BYTE		PAN     c_v+63
	BYTE	W01
	BYTE		N04     Fs4   v100
	BYTE	W06
	BYTE		        Fs4   v016
	BYTE	W05
	BYTE		PAN     c_v+0
	BYTE	W01
	BYTE		N12     Bn3   v100
	BYTE	W23
	BYTE		PAN     c_v-63
	BYTE	W01
	BYTE		N04     Bn2 
	BYTE	W06
	BYTE		        Bn2   v016
	BYTE	W05
	BYTE		PAN     c_v+0
	BYTE	W01
	BYTE		N04     Fs3   v100
	BYTE	W06
	BYTE		        Fs3   v016
	BYTE	W05
	BYTE		PAN     c_v+63
	BYTE	W01
	BYTE		N04     Bn3   v100
	BYTE	W06
	BYTE		        Bn3   v016
	BYTE	W05
	BYTE		PAN     c_v+0
	BYTE	W01
	BYTE		N04     Fs3   v100
	BYTE	W06
	BYTE		        Fs3   v016
	BYTE	W06
	BYTE		N12     Fs4   v060
	BYTE	W11
	BYTE		PAN     c_v+0
	BYTE	W01
	BYTE	PEND
	BYTE	W11
	BYTE		PAN     c_v-63
	BYTE	W01
	BYTE		N04     Bn2   v100
	BYTE	W06
	BYTE		        Bn2   v016
	BYTE	W05
	BYTE		PAN     c_v+0
	BYTE	W13
	BYTE		N12     Bn3   v100
	BYTE	W23
	BYTE		PAN     c_v+63
	BYTE	W01
	BYTE		N04     Fs3 
	BYTE	W06
	BYTE		        Fs3   v016
	BYTE	W05
	BYTE		PAN     c_v+0
	BYTE	W13
	BYTE		N12     Fs3   v100
	BYTE	W11
	BYTE		PAN     c_v+63
	BYTE	W01
	BYTE	PEND
	BYTE	W11
	BYTE		PAN     c_v+0
	BYTE	W01
	BYTE		N04     Bn2   v100
	BYTE	W06
	BYTE		        Bn2   v016
	BYTE	W06
	BYTE		        Fs3   v100
	BYTE	W06
	BYTE		        Fs3   v016
	BYTE	W05
	BYTE		PAN     c_v-63
	BYTE	W01
	BYTE		N04     Bn2   v100
	BYTE	W06
	BYTE		        Bn2   v016
	BYTE	W05
	BYTE		PAN     c_v+0
	BYTE	W12
	BYTE		        c_v+63
	BYTE	W01
	BYTE		N04     Bn3   v100
	BYTE	W06
	BYTE		        Bn3   v016
	BYTE	W05
	BYTE		PAN     c_v+0
	BYTE	W01
	BYTE		N04     Fs3   v100
	BYTE	W06
	BYTE		        Fs3   v016
	BYTE	W06
	BYTE		N12     Fs4   v060
	BYTE	W11
	BYTE		PAN     c_v+0
	BYTE	W01
	BYTE	PEND
	BYTE		N04     Bn2   v100
	BYTE	W06
	BYTE		        Bn2   v016
	BYTE	W05
	BYTE		PAN     c_v-63
	BYTE	W01
	BYTE		N04     Bn3   v100
	BYTE	W06
	BYTE		        Bn3   v016
	BYTE	W05
	BYTE		PAN     c_v+0
	BYTE	W13
	BYTE		N04     Fs3   v100
	BYTE	W06
	BYTE		        Fs3   v016
	BYTE	W17
	BYTE		PAN     c_v+0
	BYTE	W01
	BYTE		N12     Fs4   v060
	BYTE	W11
	BYTE		PAN     c_v+0
	BYTE	W13
	BYTE		N04     Fs3   v100
	BYTE	W06
	BYTE		        Fs3   v016
	BYTE	W05
	BYTE		PAN     c_v+63
	BYTE	W01
	BYTE	PEND
	BYTE	PATT
	 POIN2	sky_tower_6 + 0x17
	BYTE	PATT
	 POIN2	sky_tower_6 + 0x54
	BYTE	PATT
	 POIN2	sky_tower_6 + 0x7A
	BYTE	PATT
	 POIN2	sky_tower_6 + 0xB3
	BYTE	PATT
	 POIN2	sky_tower_6 + 0x17
	BYTE	PATT
	 POIN2	sky_tower_6 + 0x54
	BYTE	PATT
	 POIN2	sky_tower_6 + 0x7A
	BYTE	PATT
	 POIN2	sky_tower_6 + 0xB3
	BYTE		N04     Fs4   v100
	BYTE	W06
	BYTE		        Fs4   v016
	BYTE	W05
	BYTE		PAN     c_v+0
	BYTE	W01
	BYTE		N12     Bn3   v100
	BYTE	W12
	BYTE		N04     Bn2 
	BYTE	W06
	BYTE		        Bn2   v016
	BYTE	W05
	BYTE		PAN     c_v-63
	BYTE	W01
	BYTE		N04     Bn3   v100
	BYTE	W06
	BYTE		        Bn3   v016
	BYTE	W05
	BYTE		PAN     c_v+0
	BYTE	W01
	BYTE		N04     Fs3   v100
	BYTE	W06
	BYTE		        Fs3   v016
	BYTE	W05
	BYTE		PAN     c_v+63
	BYTE	W01
	BYTE		N04     Bn3   v100
	BYTE	W06
	BYTE		        Bn3   v016
	BYTE	W05
	BYTE		PAN     c_v+0
	BYTE	W01
	BYTE		N04     Fs3   v100
	BYTE	W06
	BYTE		        Fs3   v016
	BYTE	W06
	BYTE		N12     Fs4   v060
	BYTE	W11
	BYTE		PAN     c_v+0
	BYTE	W01
	BYTE	PEND
	BYTE		N04     Bn2   v100
	BYTE	W06
	BYTE		        Bn2   v016
	BYTE	W05
	BYTE		PAN     c_v-63
	BYTE	W01
	BYTE		N04     Bn3   v100
	BYTE	W06
	BYTE		        Bn3   v016
	BYTE	W05
	BYTE		PAN     c_v+0
	BYTE	W01
	BYTE		N04     Fs3   v100
	BYTE	W06
	BYTE		        Fs3   v016
	BYTE	W06
	BYTE		N12     Bn4   v068
	BYTE	W12
	BYTE		N04     Fs3   v100
	BYTE	W06
	BYTE		        Fs3   v016
	BYTE	W05
	BYTE		PAN     c_v+63
	BYTE	W01
	BYTE		N04     Bn3   v100
	BYTE	W06
	BYTE		        Bn3   v016
	BYTE	W05
	BYTE		PAN     c_v+0
	BYTE	W01
	BYTE		N04     Bn2   v100
	BYTE	W06
	BYTE		        Bn2   v016
	BYTE	W06
	BYTE		N12     Fs3   v100
	BYTE	W11
	BYTE		PAN     c_v+63
	BYTE	W01
	BYTE	PEND
	BYTE		N04     Bn2   v100
	BYTE	W06
	BYTE		        Bn2   v016
	BYTE	W05
	BYTE		PAN     c_v+0
	BYTE	W01
	BYTE		N12     Bn3   v100
	BYTE	W12
	BYTE		N04     Fs3 
	BYTE	W06
	BYTE		        Fs3   v016
	BYTE	W05
	BYTE		PAN     c_v-63
	BYTE	W01
	BYTE		N04     Bn2   v100
	BYTE	W06
	BYTE		        Bn2   v016
	BYTE	W05
	BYTE		PAN     c_v+0
	BYTE	W01
	BYTE		N04     Fs3   v100
	BYTE	W06
	BYTE		        Fs3   v016
	BYTE	W05
	BYTE		PAN     c_v+63
	BYTE	W01
	BYTE		N04     Bn3   v100
	BYTE	W06
	BYTE		        Bn3   v016
	BYTE	W05
	BYTE		PAN     c_v+0
	BYTE	W01
	BYTE		N04     Fs3   v100
	BYTE	W06
	BYTE		        Fs3   v016
	BYTE	W06
	BYTE		N12     Fs4   v060
	BYTE	W11
	BYTE		PAN     c_v+0
	BYTE	W01
	BYTE	PEND
	BYTE		N04     Bn2   v100
	BYTE	W06
	BYTE		        Bn2   v016
	BYTE	W05
	BYTE		PAN     c_v-63
	BYTE	W01
	BYTE		N04     Bn3   v100
	BYTE	W06
	BYTE		        Bn3   v016
	BYTE	W05
	BYTE		PAN     c_v+0
	BYTE	W01
	BYTE		N04     Fs3   v100
	BYTE	W06
	BYTE		        Fs3   v016
	BYTE	W06
	BYTE		N12     Bn4   v068
	BYTE	W12
	BYTE		N04     Fs3   v100
	BYTE	W06
	BYTE		        Fs3   v016
	BYTE	W05
	BYTE		PAN     c_v+0
	BYTE	W01
	BYTE		N12     Bn3   v100
	BYTE	W11
	BYTE		PAN     c_v+63
	BYTE	W01
	BYTE		N04     Fs4   v080
	BYTE	W06
	BYTE		        Fs4   v016
	BYTE	W05
	BYTE		PAN     c_v+0
	BYTE	W01
	BYTE		N12     Fs3   v100
	BYTE	W11
	BYTE		PAN     c_v+63
	BYTE	W01
	BYTE	PEND
	BYTE	PATT
	 POIN2	sky_tower_6 + 0x10B
	BYTE	PATT
	 POIN2	sky_tower_6 + 0x14F
	BYTE	PATT
	 POIN2	sky_tower_6 + 0x191
	BYTE	PATT
	 POIN2	sky_tower_6 + 0x1D5
	BYTE	PATT
	 POIN2	sky_tower_6 + 0x10B
	BYTE	PATT
	 POIN2	sky_tower_6 + 0x14F
	BYTE	PATT
	 POIN2	sky_tower_6 + 0x191
	BYTE	PATT
	 POIN2	sky_tower_6 + 0x1D5
	BYTE	PATT
	 POIN2	sky_tower_6 + 0x10B
	BYTE	PATT
	 POIN2	sky_tower_6 + 0x14F
	BYTE	PATT
	 POIN2	sky_tower_6 + 0x191
	BYTE	PATT
	 POIN2	sky_tower_6 + 0x1D5
	BYTE	PATT
	 POIN2	sky_tower_6 + 0x10B
	BYTE	PATT
	 POIN2	sky_tower_6 + 0x14F
	BYTE	PATT
	 POIN2	sky_tower_6 + 0x191
	BYTE	PATT
	 POIN2	sky_tower_6 + 0x1D5
	BYTE	PATT
	 POIN2	sky_tower_6 + 0x10B
	BYTE	PATT
	 POIN2	sky_tower_6 + 0x14F
	BYTE	PATT
	 POIN2	sky_tower_6 + 0x191
	BYTE	PATT
	 POIN2	sky_tower_6 + 0x1D5
	BYTE	PATT
	 POIN2	sky_tower_6 + 0x10B
	BYTE	PATT
	 POIN2	sky_tower_6 + 0x14F
	BYTE		N04     Bn2   v100
	BYTE	W06
	BYTE		        Bn2   v016
	BYTE	W05
	BYTE		PAN     c_v+0
	BYTE	W01
	BYTE		N12     Bn3   v100
	BYTE	W12
	BYTE		N04     Fs3 
	BYTE	W06
	BYTE		        Fs3   v016
	BYTE	W05
	BYTE		PAN     c_v-63
	BYTE	W01
	BYTE		N04     Bn2   v100
	BYTE	W06
	BYTE		        Bn2   v016
	BYTE	W05
	BYTE		PAN     c_v+0
	BYTE	W01
	BYTE		N04     Fs3   v100
	BYTE	W06
	BYTE		        Fs3   v016
	BYTE	W05
	BYTE		PAN     c_v+63
	BYTE	W01
	BYTE		N04     Bn3   v100
	BYTE	W06
	BYTE		        Bn3   v016
	BYTE	W05
	BYTE		PAN     c_v+0
	BYTE	W01
	BYTE		N04     Fs3   v100
	BYTE	W06
	BYTE		        Fs3   v016
	BYTE	W06
	BYTE		N12     Bn3   v060
	BYTE	W12
	BYTE	W12
	BYTE		        Fs3 
	BYTE	W24
	BYTE		        An3   v068
	BYTE	W24
	BYTE		        En3   v100
	BYTE	W32
	BYTE	W03
	BYTE		PAN     c_v+63
	BYTE	W01
	BYTE	PATT
	 POIN2	sky_tower_6 + 0x10B
	BYTE	PATT
	 POIN2	sky_tower_6 + 0x14F
	BYTE	PATT
	 POIN2	sky_tower_6 + 0x191
	BYTE	PATT
	 POIN2	sky_tower_6 + 0x1D5
	BYTE	PATT
	 POIN2	sky_tower_6 + 0x10B
	BYTE	PATT
	 POIN2	sky_tower_6 + 0x14F
	BYTE	PATT
	 POIN2	sky_tower_6 + 0x191
	BYTE	PATT
	 POIN2	sky_tower_6 + 0x1D5
	BYTE	PATT
	 POIN2	sky_tower_6 + 0x10B
	BYTE	PATT
	 POIN2	sky_tower_6 + 0x14F
	BYTE	PATT
	 POIN2	sky_tower_6 + 0x191
	BYTE	PATT
	 POIN2	sky_tower_6 + 0x1D5
	BYTE	PATT
	 POIN2	sky_tower_6 + 0x10B
	BYTE	PATT
	 POIN2	sky_tower_6 + 0x14F
	BYTE	PATT
	 POIN2	sky_tower_6 + 0x191
	BYTE		N04     Fs3   v100
	BYTE	W06
	BYTE		        Fs3   v016
	BYTE	W05
	BYTE		PAN     c_v-63
	BYTE	W01
	BYTE		N12     Fs4   v060
	BYTE	W11
	BYTE		PAN     c_v+0
	BYTE	W01
	BYTE		N04     Fs3   v100
	BYTE	W06
	BYTE		        Fs3   v016
	BYTE	W06
	BYTE		N12     Fs4   v060
	BYTE	W23
	BYTE		PAN     c_v+0
	BYTE	W12
	BYTE		        c_v+63
	BYTE	W12
	BYTE		        c_v+0
	BYTE	W12
	BYTE		VOL     66*sky_tower_mvl/mxv
	BYTE		PAN     c_v+63
	BYTE	W01
	BYTE		N04     En4   v100
	BYTE	W06
	BYTE		        En4   v016
	BYTE	W05
	BYTE		PAN     c_v+0
	BYTE	W01
	BYTE		N12     An3   v080
	BYTE	W23
	BYTE		PAN     c_v-63
	BYTE	W01
	BYTE		N04     En3   v100
	BYTE	W06
	BYTE		        En3   v016
	BYTE	W05
	BYTE		PAN     c_v+0
	BYTE	W01
	BYTE		N04     An3   v100
	BYTE	W06
	BYTE		        An3   v016
	BYTE	W05
	BYTE		PAN     c_v+63
	BYTE	W01
	BYTE		N04     En4   v100
	BYTE	W06
	BYTE		        En4   v016
	BYTE	W05
	BYTE		PAN     c_v+0
	BYTE	W01
	BYTE		N04     En3   v100
	BYTE	W06
	BYTE		        En3   v016
	BYTE	W06
	BYTE		N12     An3   v060
	BYTE	W11
	BYTE		PAN     c_v+0
	BYTE	W01
	BYTE	PEND
	BYTE		N04     An3   v072
	BYTE	W06
	BYTE		        An3   v016
	BYTE	W05
	BYTE		PAN     c_v-63
	BYTE	W01
	BYTE		N04     En4   v100
	BYTE	W06
	BYTE		        En4   v016
	BYTE	W05
	BYTE		PAN     c_v+0
	BYTE	W01
	BYTE		N04     An3   v072
	BYTE	W06
	BYTE		        An3   v016
	BYTE	W06
	BYTE		N12     An4   v052
	BYTE	W12
	BYTE		N04     An3   v072
	BYTE	W06
	BYTE		        An3   v016
	BYTE	W05
	BYTE		PAN     c_v+63
	BYTE	W01
	BYTE		N04     En4   v100
	BYTE	W06
	BYTE		        En4   v016
	BYTE	W05
	BYTE		PAN     c_v+0
	BYTE	W01
	BYTE		N04     En3   v072
	BYTE	W06
	BYTE		        En3   v016
	BYTE	W06
	BYTE		N12     An3   v080
	BYTE	W11
	BYTE		PAN     c_v+63
	BYTE	W01
	BYTE	PEND
	BYTE		N04     Fs4   v100
	BYTE	W06
	BYTE		        Fs4   v016
	BYTE	W05
	BYTE		PAN     c_v+0
	BYTE	W01
	BYTE		N12     Bn3   v080
	BYTE	W23
	BYTE		PAN     c_v-63
	BYTE	W01
	BYTE		N04     Fs3   v100
	BYTE	W06
	BYTE		        Fs3   v016
	BYTE	W05
	BYTE		PAN     c_v+0
	BYTE	W01
	BYTE		N04     Bn3   v100
	BYTE	W06
	BYTE		        Bn3   v016
	BYTE	W05
	BYTE		PAN     c_v+63
	BYTE	W01
	BYTE		N04     Fs4   v100
	BYTE	W06
	BYTE		        Fs4   v016
	BYTE	W05
	BYTE		PAN     c_v+0
	BYTE	W01
	BYTE		N04     Fs3   v100
	BYTE	W06
	BYTE		        Fs3   v016
	BYTE	W06
	BYTE		N12     Bn3   v060
	BYTE	W11
	BYTE		PAN     c_v+0
	BYTE	W01
	BYTE	PEND
	BYTE		N04     Bn3   v072
	BYTE	W06
	BYTE		        Bn3   v016
	BYTE	W05
	BYTE		PAN     c_v-63
	BYTE	W01
	BYTE		N04     Fs4   v100
	BYTE	W06
	BYTE		        Fs4   v016
	BYTE	W05
	BYTE		PAN     c_v+0
	BYTE	W01
	BYTE		N04     Bn3   v072
	BYTE	W06
	BYTE		        Bn3   v016
	BYTE	W06
	BYTE		N12     Bn4   v052
	BYTE	W12
	BYTE		N04     Bn3   v072
	BYTE	W06
	BYTE		        Bn3   v016
	BYTE	W05
	BYTE		PAN     c_v+63
	BYTE	W01
	BYTE		N04     Fs4   v100
	BYTE	W06
	BYTE		        Fs4   v016
	BYTE	W05
	BYTE		PAN     c_v+0
	BYTE	W01
	BYTE		N04     Fs3   v072
	BYTE	W06
	BYTE		        Fs3   v016
	BYTE	W06
	BYTE		N12     Bn3   v080
	BYTE	W11
	BYTE		PAN     c_v+63
	BYTE	W01
	BYTE	PEND
	BYTE	PATT
	 POIN2	sky_tower_6 + 0x345
	BYTE	PATT
	 POIN2	sky_tower_6 + 0x383
	BYTE	PATT
	 POIN2	sky_tower_6 + 0x3C5
	BYTE		N04     Bn3   v072
	BYTE	W06
	BYTE		        Bn3   v016
	BYTE	W05
	BYTE		PAN     c_v-63
	BYTE	W01
	BYTE		N04     Fs4   v100
	BYTE	W06
	BYTE		        Fs4   v016
	BYTE	W05
	BYTE		PAN     c_v+0
	BYTE	W01
	BYTE		N04     Bn3   v072
	BYTE	W06
	BYTE		        Bn3   v016
	BYTE	W06
	BYTE		N12     Bn4   v052
	BYTE	W12
	BYTE		N04     Bn3   v072
	BYTE	W06
	BYTE		        Bn3   v016
	BYTE	W05
	BYTE		PAN     c_v+63
	BYTE	W01
	BYTE		N04     Fs4   v100
	BYTE	W06
	BYTE		        Fs4   v016
	BYTE	W05
	BYTE		PAN     c_v+0
	BYTE	W01
	BYTE		N04     Fs3   v072
	BYTE	W06
	BYTE		        Fs3   v016
	BYTE	W06
	BYTE		N12     Bn3   v080
	BYTE	W11
	BYTE		VOL     85*sky_tower_mvl/mxv
	BYTE		PAN     c_v+63
	BYTE	W01
	BYTE	PEND
	BYTE	PATT
	 POIN2	sky_tower_6 + 0x345
	BYTE	PATT
	 POIN2	sky_tower_6 + 0x383
	BYTE	PATT
	 POIN2	sky_tower_6 + 0x3C5
	BYTE	PATT
	 POIN2	sky_tower_6 + 0x454
	BYTE	PATT
	 POIN2	sky_tower_6 + 0x345
	BYTE	PATT
	 POIN2	sky_tower_6 + 0x383
	BYTE	PATT
	 POIN2	sky_tower_6 + 0x3C5
	BYTE	PATT
	 POIN2	sky_tower_6 + 0x454
	BYTE	PATT
	 POIN2	sky_tower_6 + 0x345
	BYTE	PATT
	 POIN2	sky_tower_6 + 0x383
	BYTE	PATT
	 POIN2	sky_tower_6 + 0x3C5
	BYTE	PATT
	 POIN2	sky_tower_6 + 0x403
	BYTE	PATT
	 POIN2	sky_tower_6 + 0x345
	BYTE	PATT
	 POIN2	sky_tower_6 + 0x383
	BYTE	PATT
	 POIN2	sky_tower_6 + 0x3C5
	BYTE	PATT
	 POIN2	sky_tower_6 + 0x403
	BYTE	PATT
	 POIN2	sky_tower_6 + 0x345
	BYTE	PATT
	 POIN2	sky_tower_6 + 0x383
	BYTE	PATT
	 POIN2	sky_tower_6 + 0x3C5
	BYTE	PATT
	 POIN2	sky_tower_6 + 0x403
	BYTE	PATT
	 POIN2	sky_tower_6 + 0x345
	BYTE	PATT
	 POIN2	sky_tower_6 + 0x383
	BYTE	PATT
	 POIN2	sky_tower_6 + 0x3C5
	BYTE		N04     Bn3   v072
	BYTE	W06
	BYTE		        Bn3   v016
	BYTE	W05
	BYTE		PAN     c_v-63
	BYTE	W01
	BYTE		N04     Fs4   v100
	BYTE	W06
	BYTE		        Fs4   v016
	BYTE	W05
	BYTE		PAN     c_v+0
	BYTE	W01
	BYTE		N04     Bn3   v072
	BYTE	W06
	BYTE		        Bn3   v016
	BYTE	W06
	BYTE		N12     Bn4   v052
	BYTE	W12
	BYTE		N04     Bn3   v072
	BYTE	W06
	BYTE		        Bn3   v016
	BYTE	W05
	BYTE		PAN     c_v+63
	BYTE	W01
	BYTE		N04     Fs4   v100
	BYTE	W06
	BYTE		        Fs4   v016
	BYTE	W05
	BYTE		PAN     c_v+0
	BYTE	W01
	BYTE		N04     Fs3   v072
	BYTE	W06
	BYTE		        Fs3   v016
	BYTE	W06
	BYTE		N12     Bn3   v080
	BYTE	W11
	BYTE		PAN     c_v+0
	BYTE	W01
	BYTE	W11
	BYTE		PAN     c_v-63
	BYTE	W01
	BYTE		N10     Fs4   v080
	BYTE	W23
	BYTE		PAN     c_v+63
	BYTE	W01
	BYTE		N10
	BYTE	W23
	BYTE		PAN     c_v-63
	BYTE	W01
	BYTE		N10
	BYTE	W23
	BYTE		PAN     c_v+63
	BYTE	W01
	BYTE		N10
	BYTE	W12
	BYTE	PEND
	BYTE	W11
	BYTE		PAN     c_v-63
	BYTE	W01
	BYTE		N10     Fs4   v080
	BYTE	W23
	BYTE		PAN     c_v+63
	BYTE	W01
	BYTE		N10
	BYTE	W23
	BYTE		PAN     c_v-63
	BYTE	W01
	BYTE		N10
	BYTE	W23
	BYTE		PAN     c_v+63
	BYTE	W01
	BYTE		N10     Cs4 
	BYTE	W11
	BYTE		PAN     c_v+0
	BYTE	W01
	BYTE	PEND
	BYTE	PATT
	 POIN2	sky_tower_6 + 0x54C
	BYTE	PATT
	 POIN2	sky_tower_6 + 0x564
	BYTE	PATT
	 POIN2	sky_tower_6 + 0x54C
	BYTE	PATT
	 POIN2	sky_tower_6 + 0x564
	BYTE	PATT
	 POIN2	sky_tower_6 + 0x54C
	BYTE	W11
	BYTE		PAN     c_v-63
	BYTE	W01
	BYTE		N10     Fs4   v080
	BYTE	W23
	BYTE		PAN     c_v+63
	BYTE	W01
	BYTE		N10
	BYTE	W23
	BYTE		PAN     c_v-63
	BYTE	W01
	BYTE		N10
	BYTE	W23
	BYTE		PAN     c_v+63
	BYTE	W01
	BYTE		N10     Cs4 
	BYTE	W11
	BYTE		PAN     c_v+63
	BYTE	W01
	BYTE	PATT
	 POIN2	sky_tower_6 + 0x10B
	BYTE	PATT
	 POIN2	sky_tower_6 + 0x14F
	BYTE	PATT
	 POIN2	sky_tower_6 + 0x191
	BYTE	PATT
	 POIN2	sky_tower_6 + 0x1D5
	BYTE	PATT
	 POIN2	sky_tower_6 + 0x10B
	BYTE	PATT
	 POIN2	sky_tower_6 + 0x14F
	BYTE	PATT
	 POIN2	sky_tower_6 + 0x191
	BYTE	PATT
	 POIN2	sky_tower_6 + 0x1D5
	BYTE	PATT
	 POIN2	sky_tower_6 + 0x10B
	BYTE	PATT
	 POIN2	sky_tower_6 + 0x14F
	BYTE	PATT
	 POIN2	sky_tower_6 + 0x191
	BYTE		N04     Bn2   v100
	BYTE	W06
	BYTE		        Bn2   v016
	BYTE	W05
	BYTE		PAN     c_v-63
	BYTE	W01
	BYTE		N04     Bn3   v100
	BYTE	W06
	BYTE		        Bn3   v016
	BYTE	W05
	BYTE		PAN     c_v+0
	BYTE	W01
	BYTE		N04     Fs3   v100
	BYTE	W06
	BYTE		        Fs3   v016
	BYTE	W06
	BYTE		N12     Bn4   v068
	BYTE	W12
	BYTE		N04     Fs3   v100
	BYTE	W06
	BYTE		        Fs3   v016
	BYTE	W05
	BYTE		PAN     c_v+0
	BYTE	W01
	BYTE		N12     Bn3   v100
	BYTE	W11
	BYTE		PAN     c_v+63
	BYTE	W01
	BYTE		N04     Fs4   v080
	BYTE	W06
	BYTE		        Fs4   v016
	BYTE	W05
	BYTE		PAN     c_v+0
	BYTE	W01
	BYTE		N12     Fs3   v100
	BYTE	W12
	BYTE	GoTo
	 POIN2	sky_tower_6 + 0x217
	BYTE	FINE

//*********************** Track 08 ***********************//

sky_tower_7:
	BYTE	KEYSH   sky_tower_key+0
	BYTE	W15
	BYTE		VOICE   10
	BYTE	W01
	BYTE		MOD     100
	BYTE		VOL     53*sky_tower_mvl/mxv
	BYTE		PAN     c_v+0
	BYTE	W01
	BYTE		MODT    mod_pan
	BYTE	W07
	BYTE		N05     Bn3   v100
	BYTE	W06
	BYTE		        Bn3   v048
	BYTE	W06
	BYTE		        En3   v072
	BYTE	W06
	BYTE		        En3   v048
	BYTE	W06
	BYTE		        Fs3   v100
	BYTE	W06
	BYTE		        Fs3   v048
	BYTE	W06
	BYTE		        Bn2   v072
	BYTE	W06
	BYTE		        Bn2   v048
	BYTE	W06
	BYTE		        En3   v100
	BYTE	W06
	BYTE		        En3   v048
	BYTE	W06
	BYTE		        Fs3   v072
	BYTE	W06
	BYTE		        Fs3   v048
	BYTE	W06
	BYTE		        Bn2   v072
	BYTE	W06
	BYTE		        Bn2   v048
	BYTE	W06
	BYTE		        Bn3   v100
	BYTE	W06
	BYTE		        Bn3   v048
	BYTE	W06
	BYTE	PEND
	BYTE		N05     En3   v100
	BYTE	W06
	BYTE		        En3   v048
	BYTE	W06
	BYTE		        Fs3   v072
	BYTE	W06
	BYTE		        Fs3   v048
	BYTE	W06
	BYTE		        Bn2   v100
	BYTE	W06
	BYTE		        Bn2   v048
	BYTE	W06
	BYTE		        En3   v072
	BYTE	W06
	BYTE		        En3   v048
	BYTE	W06
	BYTE		        Fs3   v100
	BYTE	W06
	BYTE		        Fs3   v048
	BYTE	W06
	BYTE		        Bn2   v072
	BYTE	W06
	BYTE		        Bn2   v048
	BYTE	W06
	BYTE		        En3   v100
	BYTE	W06
	BYTE		        En3   v048
	BYTE	W06
	BYTE		        An2   v072
	BYTE	W06
	BYTE		        An2   v048
	BYTE	W06
	BYTE	PEND
	BYTE	PATT
	 POIN2	sky_tower_7 + 0x10
	BYTE	PATT
	 POIN2	sky_tower_7 + 0x42
	BYTE	PATT
	 POIN2	sky_tower_7 + 0x10
	BYTE	PATT
	 POIN2	sky_tower_7 + 0x42
	BYTE	PATT
	 POIN2	sky_tower_7 + 0x10
	BYTE	PATT
	 POIN2	sky_tower_7 + 0x42
	BYTE	PATT
	 POIN2	sky_tower_7 + 0x10
	BYTE	PATT
	 POIN2	sky_tower_7 + 0x42
	BYTE	PATT
	 POIN2	sky_tower_7 + 0x10
	BYTE	PATT
	 POIN2	sky_tower_7 + 0x42
	BYTE		N05     Bn3   v100
	BYTE	W06
	BYTE		        Bn3   v048
	BYTE	W06
	BYTE		        En3   v072
	BYTE	W06
	BYTE		        En3   v028
	BYTE	W06
	BYTE		        Fs3   v100
	BYTE	W06
	BYTE		        Fs3   v048
	BYTE	W06
	BYTE		        Bn2   v072
	BYTE	W06
	BYTE		        Bn2   v048
	BYTE	W06
	BYTE		        En3   v100
	BYTE	W06
	BYTE		        En3   v028
	BYTE	W06
	BYTE		        Fs3   v072
	BYTE	W06
	BYTE		        Fs3   v028
	BYTE	W06
	BYTE		        Bn2   v072
	BYTE	W06
	BYTE		        Bn2   v028
	BYTE	W06
	BYTE		        Bn3   v100
	BYTE	W06
	BYTE		        Bn3   v028
	BYTE	W06
	BYTE	PEND
	BYTE		N05     En3   v100
	BYTE	W06
	BYTE		        En3   v028
	BYTE	W06
	BYTE		        Fs3   v072
	BYTE	W06
	BYTE		        Fs3   v028
	BYTE	W06
	BYTE		        Bn2   v100
	BYTE	W06
	BYTE		        Bn2   v048
	BYTE	W06
	BYTE		        En3   v072
	BYTE	W06
	BYTE		        En3   v028
	BYTE	W06
	BYTE		        Fs3   v100
	BYTE	W06
	BYTE		        Fs3   v048
	BYTE	W06
	BYTE		        Bn2   v072
	BYTE	W06
	BYTE		        Bn2   v048
	BYTE	W06
	BYTE		        En3   v100
	BYTE	W06
	BYTE		        En3   v028
	BYTE	W06
	BYTE		        An2   v072
	BYTE	W06
	BYTE		        An2   v048
	BYTE	W06
	BYTE	PEND
	BYTE	PATT
	 POIN2	sky_tower_7 + 0xA6
	BYTE	PATT
	 POIN2	sky_tower_7 + 0xD8
	BYTE	PATT
	 POIN2	sky_tower_7 + 0xA6
	BYTE	PATT
	 POIN2	sky_tower_7 + 0xD8
	BYTE	PATT
	 POIN2	sky_tower_7 + 0xA6
	BYTE	PATT
	 POIN2	sky_tower_7 + 0xD8
	BYTE	PATT
	 POIN2	sky_tower_7 + 0xA6
	BYTE	PATT
	 POIN2	sky_tower_7 + 0xD8
	BYTE	PATT
	 POIN2	sky_tower_7 + 0xA6
	BYTE	PATT
	 POIN2	sky_tower_7 + 0xD8
	BYTE	W96
	BYTE	W96
	BYTE	W96
	BYTE	W96
	BYTE	W96
	BYTE	W96
	BYTE	W96
	BYTE	W96
	BYTE	PATT
	 POIN2	sky_tower_7 + 0xA6
	BYTE	PATT
	 POIN2	sky_tower_7 + 0xD8
	BYTE	PATT
	 POIN2	sky_tower_7 + 0xA6
	BYTE	PATT
	 POIN2	sky_tower_7 + 0xD8
	BYTE	PATT
	 POIN2	sky_tower_7 + 0xA6
	BYTE	PATT
	 POIN2	sky_tower_7 + 0xD8
	BYTE	PATT
	 POIN2	sky_tower_7 + 0xA6
	BYTE	PATT
	 POIN2	sky_tower_7 + 0xD8
	BYTE	W96
	BYTE	W96
	BYTE	W96
	BYTE	W96
	BYTE	W96
	BYTE	W96
	BYTE	W96
	BYTE	W96
	BYTE	W96
	BYTE	W96
	BYTE	W96
	BYTE	W96
	BYTE	PATT
	 POIN2	sky_tower_7 + 0xA6
	BYTE	PATT
	 POIN2	sky_tower_7 + 0xD8
	BYTE	PATT
	 POIN2	sky_tower_7 + 0xA6
	BYTE	PATT
	 POIN2	sky_tower_7 + 0xD8
	BYTE	PATT
	 POIN2	sky_tower_7 + 0xA6
	BYTE	PATT
	 POIN2	sky_tower_7 + 0xD8
	BYTE		N05     Bn3   v100
	BYTE	W06
	BYTE		        Bn3   v048
	BYTE	W06
	BYTE		        En3   v072
	BYTE	W06
	BYTE		        En3   v028
	BYTE	W06
	BYTE		        Fs3   v100
	BYTE	W06
	BYTE		        Fs3   v048
	BYTE	W06
	BYTE		        Bn2   v072
	BYTE	W06
	BYTE		        Bn2   v048
	BYTE	W06
	BYTE		        En3   v100
	BYTE	W06
	BYTE		        En3   v028
	BYTE	W06
	BYTE		        Fs3   v072
	BYTE	W06
	BYTE		        Fs3   v028
	BYTE	W06
	BYTE		        Bn2   v072
	BYTE	W06
	BYTE		        Bn2   v028
	BYTE	W06
	BYTE		        Bn3   v100
	BYTE	W06
	BYTE		        Bn3   v028
	BYTE	W05
	BYTE		VOL     76*sky_tower_mvl/mxv
	BYTE	W01
	BYTE	W92
	BYTE	W03
	BYTE		VOICE   46
	BYTE		PAN     c_v+0
	BYTE	W01
	BYTE		N03     Cs3   v088
	BYTE	W11
	BYTE		PAN     c_v+20
	BYTE	W01
	BYTE		N03     Cs4   v092
	BYTE	W12
	BYTE		        Cs4   v028
	BYTE	W11
	BYTE		PAN     c_v-20
	BYTE	W01
	BYTE		N03     Fs4   v092
	BYTE	W12
	BYTE		        Fs4   v028
	BYTE	W11
	BYTE		PAN     c_v+20
	BYTE	W01
	BYTE		N03     Cs4   v092
	BYTE	W12
	BYTE		        Cs4   v028
	BYTE	W10
	BYTE		PAN     c_v-20
	BYTE	W02
	BYTE		N03     An4   v092
	BYTE	W12
	BYTE	PEND
	BYTE		        An4   v028
	BYTE	W10
	BYTE		PAN     c_v+20
	BYTE	W02
	BYTE		N03     Fs4   v092
	BYTE	W12
	BYTE		        Fs4   v028
	BYTE	W11
	BYTE		PAN     c_v-20
	BYTE	W01
	BYTE		N03     Cs5   v092
	BYTE	W12
	BYTE		        Cs5   v028
	BYTE	W11
	BYTE		PAN     c_v+20
	BYTE	W01
	BYTE		N03     An4   v092
	BYTE	W11
	BYTE		PAN     c_v+0
	BYTE	W01
	BYTE		N03     En4 
	BYTE	W12
	BYTE		        En4   v028
	BYTE	W11
	BYTE		PAN     c_v+0
	BYTE	W01
	BYTE		N03     Ds3   v088
	BYTE	W11
	BYTE		PAN     c_v+20
	BYTE	W01
	BYTE		N03     Ds4   v092
	BYTE	W12
	BYTE		        Ds4   v028
	BYTE	W11
	BYTE		PAN     c_v-20
	BYTE	W01
	BYTE		N03     Gs4   v092
	BYTE	W12
	BYTE		        Gs4   v028
	BYTE	W11
	BYTE		PAN     c_v+20
	BYTE	W01
	BYTE		N03     Ds4   v092
	BYTE	W12
	BYTE		        Ds4   v028
	BYTE	W10
	BYTE		PAN     c_v-20
	BYTE	W02
	BYTE		N03     Bn4   v092
	BYTE	W12
	BYTE	PEND
	BYTE		        Bn4   v028
	BYTE	W10
	BYTE		PAN     c_v+20
	BYTE	W02
	BYTE		N03     Gs4   v092
	BYTE	W12
	BYTE		        Gs4   v028
	BYTE	W11
	BYTE		PAN     c_v-20
	BYTE	W01
	BYTE		N03     Ds5   v092
	BYTE	W12
	BYTE		        Ds5   v028
	BYTE	W11
	BYTE		PAN     c_v+20
	BYTE	W01
	BYTE		N03     Bn4   v092
	BYTE	W11
	BYTE		PAN     c_v+0
	BYTE	W01
	BYTE		N03     Fs4 
	BYTE	W12
	BYTE		        Fs4   v028
	BYTE	W11
	BYTE		PAN     c_v+0
	BYTE	W01
	BYTE	PATT
	 POIN2	sky_tower_7 + 0x1D1
	BYTE		N03     An4   v028
	BYTE	W10
	BYTE		PAN     c_v+20
	BYTE	W02
	BYTE		N03     Fs4   v092
	BYTE	W12
	BYTE		        Fs4   v028
	BYTE	W11
	BYTE		PAN     c_v-20
	BYTE	W01
	BYTE		N03     Cs5   v092
	BYTE	W12
	BYTE		        Cs5   v028
	BYTE	W11
	BYTE		PAN     c_v+20
	BYTE	W01
	BYTE		N03     An4   v092
	BYTE	W11
	BYTE		PAN     c_v+0
	BYTE	W01
	BYTE		N03     En5 
	BYTE	W12
	BYTE		        En5   v028
	BYTE	W11
	BYTE		PAN     c_v+0
	BYTE	W01
	BYTE	PATT
	 POIN2	sky_tower_7 + 0x225
	BYTE		N03     Bn4   v028
	BYTE	W10
	BYTE		PAN     c_v+20
	BYTE	W02
	BYTE		N03     Gs4   v092
	BYTE	W12
	BYTE		        Gs4   v028
	BYTE	W11
	BYTE		PAN     c_v-20
	BYTE	W01
	BYTE		N03     Ds5   v092
	BYTE	W12
	BYTE		        Ds5   v028
	BYTE	W11
	BYTE		PAN     c_v+20
	BYTE	W01
	BYTE		N03     Bn4   v092
	BYTE	W11
	BYTE		PAN     c_v+0
	BYTE	W01
	BYTE		N03     Gs4 
	BYTE	W23
	BYTE		VOICE   5
	BYTE		MOD     0
	BYTE		VOL     85*sky_tower_mvl/mxv
	BYTE		PAN     c_v+0
	BYTE	W01
	BYTE		N05     Fs4   v080
	BYTE	W06
	BYTE		        Fs4   v028
	BYTE	W06
	BYTE		        Bn3   v052
	BYTE	W06
	BYTE		        Bn3   v028
	BYTE	W05
	BYTE		PAN     c_v-63
	BYTE	W01
	BYTE		N05     Cs4   v080
	BYTE	W06
	BYTE		        Cs4   v028
	BYTE	W06
	BYTE		        Fs3   v052
	BYTE	W06
	BYTE		        Fs3   v028
	BYTE	W05
	BYTE		PAN     c_v+63
	BYTE	W01
	BYTE		N05     Bn3   v080
	BYTE	W06
	BYTE		        Bn3   v028
	BYTE	W05
	BYTE		PAN     c_v-63
	BYTE	W01
	BYTE		N05     Cs4   v052
	BYTE	W06
	BYTE		        Cs4   v028
	BYTE	W05
	BYTE		PAN     c_v-10
	BYTE	W01
	BYTE		N05     Fs3   v052
	BYTE	W06
	BYTE		        Fs3   v028
	BYTE	W05
	BYTE		PAN     c_v+63
	BYTE	W01
	BYTE		N05     Fs4   v080
	BYTE	W06
	BYTE		        Fs4   v028
	BYTE	W05
	BYTE		PAN     c_v-63
	BYTE	W01
	BYTE	PEND
	BYTE		N05     Bn3   v080
	BYTE	W06
	BYTE		        Bn3   v028
	BYTE	W05
	BYTE		PAN     c_v-10
	BYTE	W01
	BYTE		N05     Cs4   v052
	BYTE	W06
	BYTE		        Cs4   v028
	BYTE	W05
	BYTE		PAN     c_v-63
	BYTE	W01
	BYTE		N05     Fs3   v080
	BYTE	W06
	BYTE		        Fs3   v028
	BYTE	W05
	BYTE		PAN     c_v+63
	BYTE	W01
	BYTE		N05     Bn3   v052
	BYTE	W06
	BYTE		        Bn3   v028
	BYTE	W05
	BYTE		PAN     c_v-63
	BYTE	W01
	BYTE		N05     Cs4   v080
	BYTE	W06
	BYTE		        Cs4   v028
	BYTE	W06
	BYTE		        Fs3   v052
	BYTE	W06
	BYTE		        Fs3   v028
	BYTE	W05
	BYTE		PAN     c_v+63
	BYTE	W01
	BYTE		N05     Bn3   v080
	BYTE	W06
	BYTE		        Bn3   v028
	BYTE	W06
	BYTE		        Fs3   v052
	BYTE	W06
	BYTE		        Fs3   v028
	BYTE	W05
	BYTE		PAN     c_v+0
	BYTE	W01
	BYTE	PEND
	BYTE	PATT
	 POIN2	sky_tower_7 + 0x2DC
	BYTE	PATT
	 POIN2	sky_tower_7 + 0x325
	BYTE	PATT
	 POIN2	sky_tower_7 + 0x2DC
	BYTE	PATT
	 POIN2	sky_tower_7 + 0x325
	BYTE	PATT
	 POIN2	sky_tower_7 + 0x2DC
	BYTE	PATT
	 POIN2	sky_tower_7 + 0x325
	BYTE	PATT
	 POIN2	sky_tower_7 + 0x2DC
	BYTE	PATT
	 POIN2	sky_tower_7 + 0x325
	BYTE	PATT
	 POIN2	sky_tower_7 + 0x2DC
	BYTE	PATT
	 POIN2	sky_tower_7 + 0x325
	BYTE	PATT
	 POIN2	sky_tower_7 + 0x2DC
	BYTE	PATT
	 POIN2	sky_tower_7 + 0x325
	BYTE	PATT
	 POIN2	sky_tower_7 + 0x2DC
	BYTE		N05     Bn3   v080
	BYTE	W06
	BYTE		        Bn3   v028
	BYTE	W05
	BYTE		PAN     c_v-10
	BYTE	W01
	BYTE		N05     Cs4   v052
	BYTE	W06
	BYTE		        Cs4   v028
	BYTE	W05
	BYTE		PAN     c_v-63
	BYTE	W01
	BYTE		N05     Fs3   v080
	BYTE	W06
	BYTE		        Fs3   v028
	BYTE	W05
	BYTE		PAN     c_v+63
	BYTE	W01
	BYTE		N05     Bn3   v052
	BYTE	W06
	BYTE		        Bn3   v028
	BYTE	W05
	BYTE		PAN     c_v-63
	BYTE	W01
	BYTE		N05     Cs4   v080
	BYTE	W06
	BYTE		        Cs4   v028
	BYTE	W06
	BYTE		        Fs3   v052
	BYTE	W06
	BYTE		        Fs3   v028
	BYTE	W05
	BYTE		PAN     c_v+63
	BYTE	W01
	BYTE		N05     Bn3   v080
	BYTE	W06
	BYTE		        Bn3   v028
	BYTE	W06
	BYTE		        Fs3   v052
	BYTE	W06
	BYTE		        Fs3   v028
	BYTE	W05
	BYTE		VOICE   46
	BYTE		PAN     c_v+0
	BYTE	W01
	BYTE		N03     Cs3   v108
	BYTE	W11
	BYTE		PAN     c_v+20
	BYTE	W01
	BYTE		N03     Cs4   v112
	BYTE	W12
	BYTE		        Cs4   v048
	BYTE	W11
	BYTE		PAN     c_v-20
	BYTE	W01
	BYTE		N03     Cs4   v112
	BYTE	W12
	BYTE		        Cs4   v048
	BYTE	W11
	BYTE		PAN     c_v+20
	BYTE	W01
	BYTE		N03     Cs4   v112
	BYTE	W12
	BYTE		        Cs4   v048
	BYTE	W10
	BYTE		PAN     c_v-20
	BYTE	W02
	BYTE		N03     Cs4   v112
	BYTE	W12
	BYTE	PEND
	BYTE		N03     Cs4   v048
	BYTE	W10
	BYTE		PAN     c_v+20
	BYTE	W02
	BYTE		N03     Cs4   v112
	BYTE	W12
	BYTE		        Cs4   v048
	BYTE	W11
	BYTE		PAN     c_v-20
	BYTE	W01
	BYTE		N03     Cs4   v112
	BYTE	W12
	BYTE		        Cs4   v048
	BYTE	W11
	BYTE		PAN     c_v+20
	BYTE	W01
	BYTE		N03     Cs4   v112
	BYTE	W12
	BYTE		        Cs4   v048
	BYTE	W11
	BYTE		PAN     c_v-20
	BYTE	W01
	BYTE		N03     Cs4   v112
	BYTE	W11
	BYTE		PAN     c_v+0
	BYTE	W01
	BYTE	PEND
	BYTE		N03     Fs3   v108
	BYTE	W11
	BYTE		PAN     c_v+20
	BYTE	W01
	BYTE		N03     Cs4   v112
	BYTE	W12
	BYTE		        Cs4   v048
	BYTE	W11
	BYTE		PAN     c_v-20
	BYTE	W01
	BYTE		N03     Cs4   v112
	BYTE	W12
	BYTE		        Cs4   v048
	BYTE	W11
	BYTE		PAN     c_v+20
	BYTE	W01
	BYTE		N03     Cs4   v112
	BYTE	W12
	BYTE		        Cs4   v048
	BYTE	W10
	BYTE		PAN     c_v-20
	BYTE	W02
	BYTE		N03     Cs4   v112
	BYTE	W12
	BYTE	PEND
	BYTE	PATT
	 POIN2	sky_tower_7 + 0x423
	BYTE	PATT
	 POIN2	sky_tower_7 + 0x3F9
	BYTE		N03     Cs4   v048
	BYTE	W10
	BYTE		PAN     c_v+20
	BYTE	W02
	BYTE		N03     Cs4   v112
	BYTE	W12
	BYTE		        Cs4   v048
	BYTE	W11
	BYTE		PAN     c_v-20
	BYTE	W01
	BYTE		N03     Cs4   v112
	BYTE	W12
	BYTE		        Cs4   v048
	BYTE	W11
	BYTE		PAN     c_v+20
	BYTE	W01
	BYTE		N03     Cs4   v112
	BYTE	W11
	BYTE		PAN     c_v+0
	BYTE	W01
	BYTE		N03     Cs4   v048
	BYTE	W12
	BYTE		        Cs4   v112
	BYTE	W11
	BYTE		PAN     c_v+0
	BYTE	W01
	BYTE	PEND
	BYTE	PATT
	 POIN2	sky_tower_7 + 0x450
	BYTE		N03     Cs4   v048
	BYTE	W10
	BYTE		PAN     c_v+20
	BYTE	W02
	BYTE		N03     Cs4   v112
	BYTE	W12
	BYTE		        Cs4   v048
	BYTE	W11
	BYTE		PAN     c_v-20
	BYTE	W01
	BYTE		N03     Cs4   v112
	BYTE	W12
	BYTE		        Cs4   v048
	BYTE	W11
	BYTE		PAN     c_v+20
	BYTE	W01
	BYTE		N03     Cs4   v112
	BYTE	W11
	BYTE		PAN     c_v+0
	BYTE	W01
	BYTE		N03     Cs4   v048
	BYTE	W12
	BYTE		        Cs4   v112
	BYTE	W11
	BYTE		VOICE   46
	BYTE		PAN     c_v+0
	BYTE	W01
	BYTE	PATT
	 POIN2	sky_tower_7 + 0x3F9
	BYTE	PATT
	 POIN2	sky_tower_7 + 0x423
	BYTE	PATT
	 POIN2	sky_tower_7 + 0x450
	BYTE	PATT
	 POIN2	sky_tower_7 + 0x423
	BYTE	PATT
	 POIN2	sky_tower_7 + 0x3F9
	BYTE	PATT
	 POIN2	sky_tower_7 + 0x484
	BYTE	PATT
	 POIN2	sky_tower_7 + 0x450
	BYTE		N03     Cs4   v048
	BYTE	W10
	BYTE		PAN     c_v+20
	BYTE	W02
	BYTE		N03     Cs4   v112
	BYTE	W12
	BYTE		        Cs4   v048
	BYTE	W11
	BYTE		PAN     c_v-20
	BYTE	W01
	BYTE		N03     Cs4   v112
	BYTE	W12
	BYTE		        Cs4   v048
	BYTE	W11
	BYTE		PAN     c_v+20
	BYTE	W01
	BYTE		N03     Cs4   v112
	BYTE	W11
	BYTE		PAN     c_v+0
	BYTE	W01
	BYTE		N03     Cs4   v048
	BYTE	W12
	BYTE		        Cs4   v112
	BYTE	W12
	BYTE	W96
	BYTE	W96
	BYTE	W96
	BYTE	W96
	BYTE	W96
	BYTE	W96
	BYTE	W96
	BYTE	W92
	BYTE	W03
	BYTE		VOICE   10
	BYTE		MOD     100
	BYTE		VOL     53*sky_tower_mvl/mxv
	BYTE	W01
	BYTE	PATT
	 POIN2	sky_tower_7 + 0xA6
	BYTE	PATT
	 POIN2	sky_tower_7 + 0xD8
	BYTE	PATT
	 POIN2	sky_tower_7 + 0xA6
	BYTE	PATT
	 POIN2	sky_tower_7 + 0xD8
	BYTE	GoTo
	 POIN2	sky_tower_7 + 0x128
	BYTE	FINE

//*********************** Track 09 ***********************//

sky_tower_8:
	BYTE	KEYSH   sky_tower_key+0
	BYTE	W17
	BYTE		VOICE   127
	BYTE		VOL     73*sky_tower_mvl/mxv
	BYTE	W01
	BYTE		PAN     c_v+0
	BYTE	W05
	BYTE		        c_v+0
	BYTE	W01
	BYTE		N05     Fs1   v052
	BYTE	W06
	BYTE		N02     Fs1   v016
	BYTE	W06
	BYTE		N12     En2   v052
	BYTE	W11
	BYTE		PAN     c_v+63
	BYTE	W01
	BYTE		N02     Fs1   v112
	BYTE	W11
	BYTE		PAN     c_v-63
	BYTE	W01
	BYTE		N02     Fs1   v060
	BYTE	W06
	BYTE		        Fs1   v016
	BYTE	W05
	BYTE		PAN     c_v+63
	BYTE	W01
	BYTE		N02     Fs1   v112
	BYTE	W06
	BYTE		        Fs1   v016
	BYTE	W05
	BYTE		PAN     c_v-63
	BYTE	W01
	BYTE		N02     Fs1   v060
	BYTE	W06
	BYTE		        Fs1   v016
	BYTE	W05
	BYTE		PAN     c_v+63
	BYTE	W01
	BYTE		N02     Fs1   v112
	BYTE	W11
	BYTE		PAN     c_v-63
	BYTE	W01
	BYTE		N02     Fs1   v060
	BYTE	W06
	BYTE		        Fs1   v016
	BYTE	W05
	BYTE		PAN     c_v+63
	BYTE	W01
	BYTE		N02     Fs1   v112
	BYTE	W06
	BYTE		        Fs1   v016
	BYTE	W05
	BYTE		PAN     c_v-63
	BYTE	W01
	BYTE		N02     Fs1   v060
	BYTE	W06
	BYTE		        Fs1   v016
	BYTE	W05
	BYTE		PAN     c_v+63
	BYTE	W01
	BYTE		N02     Fs1   v112
	BYTE	W11
	BYTE		PAN     c_v-63
	BYTE	W01
	BYTE		N02     Fs1   v060
	BYTE	W06
	BYTE		        Fs1   v016
	BYTE	W05
	BYTE		PAN     c_v+63
	BYTE	W01
	BYTE		N02     Fs1   v112
	BYTE	W06
	BYTE		        Fs1   v016
	BYTE	W05
	BYTE		PAN     c_v-63
	BYTE	W01
	BYTE		N02     Fs1   v060
	BYTE	W06
	BYTE		        Fs1   v016
	BYTE	W05
	BYTE		PAN     c_v+63
	BYTE	W01
	BYTE		N02     Fs1   v112
	BYTE	W11
	BYTE		PAN     c_v-63
	BYTE	W01
	BYTE		N02     Fs1   v060
	BYTE	W06
	BYTE		        Fs1   v016
	BYTE	W05
	BYTE		PAN     c_v+0
	BYTE	W01
	BYTE		N05     Fs1   v080
	BYTE	W06
	BYTE		N02     Fs1   v016
	BYTE	W06
	BYTE		N12     En2   v052
	BYTE	W11
	BYTE		PAN     c_v+63
	BYTE	W01
	BYTE		N02     Fs1   v112
	BYTE	W11
	BYTE		PAN     c_v-63
	BYTE	W01
	BYTE		N02     Fs1   v060
	BYTE	W06
	BYTE		        Fs1   v016
	BYTE	W05
	BYTE		PAN     c_v+63
	BYTE	W01
	BYTE		N02     Fs1   v112
	BYTE	W06
	BYTE		        Fs1   v016
	BYTE	W05
	BYTE		PAN     c_v-63
	BYTE	W01
	BYTE		N02     Fs1   v060
	BYTE	W06
	BYTE		        Fs1   v016
	BYTE	W05
	BYTE		PAN     c_v+63
	BYTE	W01
	BYTE		N02     Fs1   v112
	BYTE	W11
	BYTE		PAN     c_v-63
	BYTE	W01
	BYTE		N02     Fs1   v060
	BYTE	W06
	BYTE		        Fs1   v016
	BYTE	W05
	BYTE		PAN     c_v+63
	BYTE	W01
	BYTE		N02     Fs1   v112
	BYTE	W06
	BYTE		        Fs1   v016
	BYTE	W05
	BYTE		PAN     c_v-63
	BYTE	W01
	BYTE		N02     Fs1   v060
	BYTE	W06
	BYTE		        Fs1   v016
	BYTE	W05
	BYTE		PAN     c_v+63
	BYTE	W01
	BYTE		N02     Fs1   v112
	BYTE	W11
	BYTE		PAN     c_v-63
	BYTE	W01
	BYTE		N02     Fs1   v060
	BYTE	W06
	BYTE		        Fs1   v016
	BYTE	W05
	BYTE		VOL     63*sky_tower_mvl/mxv
	BYTE		PAN     c_v+0
	BYTE	W01
	BYTE		N02     Fs1   v112
	BYTE	W03
	BYTE		        Fs1   v016
	BYTE	W03
	BYTE		        Fs1   v032
	BYTE	W06
	BYTE		N12     En2   v060
	BYTE	W12
	BYTE		N02     Fs1   v112
	BYTE	W06
	BYTE		        Fs1   v012
	BYTE	W06
	BYTE		N12     En2   v060
	BYTE	W11
	BYTE		VOL     50*sky_tower_mvl/mxv
	BYTE		PAN     c_v+0
	BYTE	W01
	BYTE		N02     Gs1   v092
	BYTE	W03
	BYTE		        Fs1   v032
	BYTE	W03
	BYTE		N03     Ds2 
	BYTE	W06
	BYTE		N12     En2   v072
	BYTE	W12
	BYTE		N02     Gs1   v092
	BYTE	W03
	BYTE		        Fs1   v032
	BYTE	W03
	BYTE		N03     Ds2 
	BYTE	W06
	BYTE		N02     Gs1   v092
	BYTE	W06
	BYTE		N03     Ds2   v032
	BYTE	W06
	BYTE		N02     Gs1   v092
	BYTE	W03
	BYTE		        Fs1   v032
	BYTE	W03
	BYTE		N03     Ds2 
	BYTE	W06
	BYTE		N02     Gs1   v092
	BYTE	W03
	BYTE		        Fs1   v032
	BYTE	W03
	BYTE		N03     Ds2 
	BYTE	W06
	BYTE		N02     Gs1   v092
	BYTE	W03
	BYTE		        Fs1   v032
	BYTE	W03
	BYTE		N03     Ds2 
	BYTE	W06
	BYTE		N02     Gs1   v092
	BYTE	W03
	BYTE		        Fs1   v032
	BYTE	W03
	BYTE		N03     Ds2 
	BYTE	W06
	BYTE	PEND
	BYTE		N02     Gs1   v092
	BYTE	W03
	BYTE		        Fs1   v032
	BYTE	W03
	BYTE		N03     Ds2 
	BYTE	W06
	BYTE		N12     En2   v072
	BYTE	W12
	BYTE		N02     Gs1   v092
	BYTE	W03
	BYTE		        Fs1   v032
	BYTE	W03
	BYTE		N03     Ds2 
	BYTE	W06
	BYTE		N02     Gs1   v092
	BYTE	W03
	BYTE		        Fs1   v032
	BYTE	W03
	BYTE		N03     Ds2 
	BYTE	W06
	BYTE		N02     Gs1   v092
	BYTE	W03
	BYTE		        Fs1   v032
	BYTE	W03
	BYTE		N03     Ds2 
	BYTE	W06
	BYTE		N02     Gs1   v092
	BYTE	W03
	BYTE		        Fs1   v032
	BYTE	W03
	BYTE		N03     Ds2 
	BYTE	W06
	BYTE		N02     Gs1   v092
	BYTE	W03
	BYTE		        Fs1   v032
	BYTE	W03
	BYTE		N03     Ds2 
	BYTE	W06
	BYTE		N12     En2   v072
	BYTE	W11
	BYTE		VOL     50*sky_tower_mvl/mxv
	BYTE		PAN     c_v+0
	BYTE	W01
	BYTE	PEND
	BYTE	PATT
	 POIN2	sky_tower_8 + 0x126
	BYTE	PATT
	 POIN2	sky_tower_8 + 0x16F
	BYTE	PATT
	 POIN2	sky_tower_8 + 0x126
	BYTE	PATT
	 POIN2	sky_tower_8 + 0x16F
	BYTE	PATT
	 POIN2	sky_tower_8 + 0x126
	BYTE	PATT
	 POIN2	sky_tower_8 + 0x16F
	BYTE	PATT
	 POIN2	sky_tower_8 + 0x126
	BYTE	PATT
	 POIN2	sky_tower_8 + 0x16F
	BYTE		N02     Gs1   v092
	BYTE	W03
	BYTE		        Fs1   v032
	BYTE	W03
	BYTE		N03     Ds2 
	BYTE	W06
	BYTE		N12     En2   v072
	BYTE	W12
	BYTE		N02     Gs1   v092
	BYTE	W03
	BYTE		        Fs1   v032
	BYTE	W03
	BYTE		N03     Ds2 
	BYTE	W06
	BYTE		N02     Gs1   v092
	BYTE	W06
	BYTE		N03     Ds2   v032
	BYTE	W06
	BYTE		N02     Gs1   v092
	BYTE	W03
	BYTE		        Fs1   v032
	BYTE	W03
	BYTE		N03     Ds2 
	BYTE	W06
	BYTE		N02     Gs1   v092
	BYTE	W03
	BYTE		        Fs1   v032
	BYTE	W03
	BYTE		N03     Ds2 
	BYTE	W06
	BYTE		N02     Gs1   v092
	BYTE	W03
	BYTE		        Fs1   v032
	BYTE	W03
	BYTE		N03     Ds2 
	BYTE	W06
	BYTE		N12     En2   v072
	BYTE	W12
	BYTE		N02     Gs1   v092
	BYTE	W03
	BYTE		        Fs1   v032
	BYTE	W03
	BYTE		N03     Ds2 
	BYTE	W06
	BYTE		N02     Gs1   v092
	BYTE	W03
	BYTE		        Fs1   v032
	BYTE	W03
	BYTE		N03     Ds2 
	BYTE	W06
	BYTE		N02     Gs1   v092
	BYTE	W03
	BYTE		        Fs1   v032
	BYTE	W03
	BYTE		N03     Ds2 
	BYTE	W06
	BYTE		N12     En2   v072
	BYTE	W12
	BYTE		N02     Gs1   v092
	BYTE	W03
	BYTE		        Fs1   v032
	BYTE	W03
	BYTE		N03     Ds2 
	BYTE	W06
	BYTE		N12     En2   v072
	BYTE	W12
	BYTE		        Ds2 
	BYTE	W12
	BYTE		N12
	BYTE	W11
	BYTE		VOL     50*sky_tower_mvl/mxv
	BYTE		PAN     c_v+0
	BYTE	W01
	BYTE	PATT
	 POIN2	sky_tower_8 + 0x126
	BYTE	PATT
	 POIN2	sky_tower_8 + 0x16F
	BYTE	PATT
	 POIN2	sky_tower_8 + 0x126
	BYTE	PATT
	 POIN2	sky_tower_8 + 0x16F
	BYTE	PATT
	 POIN2	sky_tower_8 + 0x126
	BYTE	PATT
	 POIN2	sky_tower_8 + 0x16F
	BYTE	PATT
	 POIN2	sky_tower_8 + 0x126
	BYTE	PATT
	 POIN2	sky_tower_8 + 0x16F
	BYTE	PATT
	 POIN2	sky_tower_8 + 0x126
	BYTE	PATT
	 POIN2	sky_tower_8 + 0x16F
	BYTE	PATT
	 POIN2	sky_tower_8 + 0x126
	BYTE	PATT
	 POIN2	sky_tower_8 + 0x16F
	BYTE	PATT
	 POIN2	sky_tower_8 + 0x126
	BYTE	PATT
	 POIN2	sky_tower_8 + 0x16F
	BYTE		N02     Gs1   v092
	BYTE	W03
	BYTE		        Fs1   v032
	BYTE	W03
	BYTE		N03     Ds2 
	BYTE	W06
	BYTE		N12     En2   v072
	BYTE	W12
	BYTE		N02     Gs1   v092
	BYTE	W03
	BYTE		        Fs1   v032
	BYTE	W03
	BYTE		N03     Ds2 
	BYTE	W06
	BYTE		N02     Gs1   v092
	BYTE	W06
	BYTE		N03     Ds2   v032
	BYTE	W06
	BYTE		N02     Gs1   v092
	BYTE	W03
	BYTE		        Fs1   v032
	BYTE	W03
	BYTE		N03     Ds2 
	BYTE	W06
	BYTE		N12     Ds2   v072
	BYTE	W12
	BYTE		N12
	BYTE	W12
	BYTE		        En2 
	BYTE	W12
	BYTE	PEND
	BYTE		N02     Gs1   v092
	BYTE	W03
	BYTE		        Fs1   v032
	BYTE	W03
	BYTE		N03     Ds2 
	BYTE	W06
	BYTE		N12     En2   v072
	BYTE	W12
	BYTE		N02     Gs1   v092
	BYTE	W03
	BYTE		        Fs1   v032
	BYTE	W03
	BYTE		N03     Ds2 
	BYTE	W06
	BYTE		N12     En2   v072
	BYTE	W12
	BYTE		N02     Gs1   v092
	BYTE	W03
	BYTE		        Fs1   v032
	BYTE	W03
	BYTE		N03     Ds2 
	BYTE	W06
	BYTE		N12     En2   v072
	BYTE	W12
	BYTE		        Ds2 
	BYTE	W12
	BYTE		N12
	BYTE	W11
	BYTE		VOL     50*sky_tower_mvl/mxv
	BYTE		PAN     c_v+0
	BYTE	W01
	BYTE	PEND
	BYTE	PATT
	 POIN2	sky_tower_8 + 0x126
	BYTE	PATT
	 POIN2	sky_tower_8 + 0x16F
	BYTE	PATT
	 POIN2	sky_tower_8 + 0x126
	BYTE	PATT
	 POIN2	sky_tower_8 + 0x16F
	BYTE	PATT
	 POIN2	sky_tower_8 + 0x126
	BYTE	PATT
	 POIN2	sky_tower_8 + 0x16F
	BYTE	PATT
	 POIN2	sky_tower_8 + 0x126
	BYTE	PATT
	 POIN2	sky_tower_8 + 0x16F
	BYTE		N08     Gs1   v092
	BYTE	W09
	BYTE		N02     Fs1   v032
	BYTE	W03
	BYTE		N12     En2   v072
	BYTE	W12
	BYTE		N02     Gs1   v092
	BYTE	W03
	BYTE		        Fs1   v032
	BYTE	W03
	BYTE		N03     Ds2 
	BYTE	W06
	BYTE		N02     Gs1   v092
	BYTE	W06
	BYTE		N03     Ds2   v032
	BYTE	W06
	BYTE		N02     Gs1   v092
	BYTE	W03
	BYTE		        Fs1   v032
	BYTE	W03
	BYTE		N03     Ds2 
	BYTE	W06
	BYTE		N12     En2   v072
	BYTE	W12
	BYTE		N02     Gs1   v092
	BYTE	W03
	BYTE		        Fs1   v032
	BYTE	W03
	BYTE		N03     Ds2 
	BYTE	W06
	BYTE		N12     En2   v072
	BYTE	W12
	BYTE	PEND
	BYTE		N02     Gs1   v092
	BYTE	W03
	BYTE		        Fs1   v032
	BYTE	W03
	BYTE		N03     Ds2 
	BYTE	W06
	BYTE		N02     Gs1   v092
	BYTE	W03
	BYTE		        Fs1   v032
	BYTE	W03
	BYTE		N03     Ds2 
	BYTE	W06
	BYTE		N02     Gs1   v092
	BYTE	W03
	BYTE		        Fs1   v032
	BYTE	W03
	BYTE		N03     Ds2 
	BYTE	W06
	BYTE		N12     En2   v072
	BYTE	W12
	BYTE		N02     Gs1   v092
	BYTE	W03
	BYTE		        Fs1   v032
	BYTE	W03
	BYTE		N03     Ds2 
	BYTE	W06
	BYTE		N12     En2   v072
	BYTE	W12
	BYTE		N02     Gs1   v092
	BYTE	W03
	BYTE		        Fs1   v032
	BYTE	W03
	BYTE		N03     Ds2 
	BYTE	W06
	BYTE		N02     Gs1   v092
	BYTE	W03
	BYTE		        Fs1   v032
	BYTE	W03
	BYTE		N03     Ds2 
	BYTE	W05
	BYTE		VOL     50*sky_tower_mvl/mxv
	BYTE		PAN     c_v+0
	BYTE	W01
	BYTE	PATT
	 POIN2	sky_tower_8 + 0x331
	BYTE		N02     Gs1   v092
	BYTE	W12
	BYTE		N12     En2   v072
	BYTE	W24
	BYTE		N12
	BYTE	W12
	BYTE		N02     Gs1   v092
	BYTE	W06
	BYTE		N03     Ds2   v032
	BYTE	W06
	BYTE		N12     En2   v072
	BYTE	W12
	BYTE		N24     Ds2   v080
	BYTE	W23
	BYTE		VOL     50*sky_tower_mvl/mxv
	BYTE		PAN     c_v+0
	BYTE	W01
	BYTE		N12     En2   v072
	BYTE	W12
	BYTE		N02     Gs1   v092
	BYTE	W03
	BYTE		        Fs1   v032
	BYTE	W03
	BYTE		N03     Ds2 
	BYTE	W06
	BYTE		N02     Gs1   v092
	BYTE	W03
	BYTE		        Fs1   v032
	BYTE	W03
	BYTE		N03     Ds2 
	BYTE	W06
	BYTE		N02     Gs1   v092
	BYTE	W06
	BYTE		N03     Ds2   v032
	BYTE	W06
	BYTE		N02     Gs1   v092
	BYTE	W03
	BYTE		        Fs1   v032
	BYTE	W03
	BYTE		N03     Ds2 
	BYTE	W06
	BYTE		N02     Gs1   v092
	BYTE	W03
	BYTE		        Fs1   v032
	BYTE	W03
	BYTE		N03     Ds2 
	BYTE	W06
	BYTE		N02     Gs1   v092
	BYTE	W03
	BYTE		        Fs1   v032
	BYTE	W03
	BYTE		N03     Ds2 
	BYTE	W06
	BYTE		N02     Gs1   v092
	BYTE	W03
	BYTE		        Fs1   v032
	BYTE	W03
	BYTE		N03     Ds2 
	BYTE	W06
	BYTE	PATT
	 POIN2	sky_tower_8 + 0x16F
	BYTE	PATT
	 POIN2	sky_tower_8 + 0x126
	BYTE	PATT
	 POIN2	sky_tower_8 + 0x16F
	BYTE	PATT
	 POIN2	sky_tower_8 + 0x126
	BYTE	PATT
	 POIN2	sky_tower_8 + 0x16F
	BYTE	PATT
	 POIN2	sky_tower_8 + 0x2A2
	BYTE	PATT
	 POIN2	sky_tower_8 + 0x2D5
	BYTE	PATT
	 POIN2	sky_tower_8 + 0x126
	BYTE	PATT
	 POIN2	sky_tower_8 + 0x16F
	BYTE	PATT
	 POIN2	sky_tower_8 + 0x126
	BYTE	PATT
	 POIN2	sky_tower_8 + 0x16F
	BYTE	PATT
	 POIN2	sky_tower_8 + 0x126
	BYTE	PATT
	 POIN2	sky_tower_8 + 0x16F
	BYTE	PATT
	 POIN2	sky_tower_8 + 0x331
	BYTE		N02     Gs1   v092
	BYTE	W03
	BYTE		        Fs1   v032
	BYTE	W03
	BYTE		N03     Ds2 
	BYTE	W06
	BYTE		N02     Gs1   v092
	BYTE	W03
	BYTE		        Fs1   v032
	BYTE	W03
	BYTE		N03     Ds2 
	BYTE	W06
	BYTE		N02     Gs1   v092
	BYTE	W03
	BYTE		        Fs1   v032
	BYTE	W03
	BYTE		N03     Ds2 
	BYTE	W06
	BYTE		N12     En2   v072
	BYTE	W12
	BYTE		N02     Gs1   v092
	BYTE	W03
	BYTE		        Fs1   v032
	BYTE	W03
	BYTE		N03     Ds2 
	BYTE	W06
	BYTE		N12     En2   v072
	BYTE	W12
	BYTE		N02     Gs1   v092
	BYTE	W03
	BYTE		        Fs1   v032
	BYTE	W03
	BYTE		N03     Ds2 
	BYTE	W06
	BYTE		N02     Gs1   v092
	BYTE	W03
	BYTE		        Fs1   v032
	BYTE	W03
	BYTE		N03     Ds2 
	BYTE	W06
	BYTE	W24
	BYTE		PAN     c_v+0
	BYTE	W36
	BYTE		N02     En2   v012
	BYTE	W03
	BYTE		N02
	BYTE	W03
	BYTE		N02
	BYTE	W03
	BYTE		        En2   v016
	BYTE	W03
	BYTE		N02
	BYTE	W03
	BYTE		N02
	BYTE	W03
	BYTE		        En2   v020
	BYTE	W03
	BYTE		N02
	BYTE	W03
	BYTE		        En2   v024
	BYTE	W03
	BYTE		N02
	BYTE	W03
	BYTE		N02
	BYTE	W03
	BYTE		        En2   v028
	BYTE	W03
	BYTE	PEND
	BYTE		N02     En2   v028
	BYTE	W03
	BYTE		        En2   v032
	BYTE	W03
	BYTE		N02
	BYTE	W03
	BYTE		N02
	BYTE	W03
	BYTE		        En2   v036
	BYTE	W03
	BYTE		N02
	BYTE	W03
	BYTE		        En2   v040
	BYTE	W03
	BYTE		        En2   v044
	BYTE	W03
	BYTE		N02
	BYTE	W03
	BYTE		        En2   v048
	BYTE	W03
	BYTE		        En2   v052
	BYTE	W03
	BYTE		        En2   v056
	BYTE	W03
	BYTE		        En2   v060
	BYTE	W03
	BYTE		N02
	BYTE	W03
	BYTE		        En2   v064
	BYTE	W03
	BYTE		        En2   v076
	BYTE	W03
	BYTE		        En2   v084
	BYTE	W03
	BYTE		        En2   v088
	BYTE	W03
	BYTE		        En2   v096
	BYTE	W03
	BYTE		        En2   v100
	BYTE	W03
	BYTE		N02
	BYTE	W03
	BYTE		        En2   v096
	BYTE	W03
	BYTE		        En2   v092
	BYTE	W03
	BYTE		        En2   v088
	BYTE	W03
	BYTE		        En2   v084
	BYTE	W03
	BYTE		        En2   v080
	BYTE	W03
	BYTE		N02
	BYTE	W03
	BYTE		        En2   v072
	BYTE	W03
	BYTE		        En2   v068
	BYTE	W03
	BYTE		        En2   v064
	BYTE	W03
	BYTE		        En2   v056
	BYTE	W03
	BYTE		        En2   v052
	BYTE	W03
	BYTE	PEND
	BYTE		N02     En2   v048
	BYTE	W03
	BYTE		        En2   v044
	BYTE	W03
	BYTE		        En2   v036
	BYTE	W03
	BYTE		        En2   v032
	BYTE	W03
	BYTE		        En2   v028
	BYTE	W03
	BYTE		        En2   v024
	BYTE	W03
	BYTE		        En2   v016
	BYTE	W03
	BYTE		        En2   v012
	BYTE	W03
	BYTE		PAN     c_v+63
	BYTE		N02     En2   v008
	BYTE	W36
	BYTE		        En2   v012
	BYTE	W03
	BYTE		N02
	BYTE	W03
	BYTE		N02
	BYTE	W03
	BYTE		        En2   v016
	BYTE	W03
	BYTE		N02
	BYTE	W03
	BYTE		N02
	BYTE	W03
	BYTE		        En2   v020
	BYTE	W03
	BYTE		N02
	BYTE	W03
	BYTE		        En2   v024
	BYTE	W03
	BYTE		N02
	BYTE	W03
	BYTE		N02
	BYTE	W03
	BYTE		        En2   v028
	BYTE	W03
	BYTE	PEND
	BYTE	PATT
	 POIN2	sky_tower_8 + 0x4CE
	BYTE		N02     En2   v048
	BYTE	W03
	BYTE		        En2   v044
	BYTE	W03
	BYTE		        En2   v036
	BYTE	W03
	BYTE		        En2   v032
	BYTE	W03
	BYTE		        En2   v028
	BYTE	W03
	BYTE		        En2   v024
	BYTE	W03
	BYTE		        En2   v016
	BYTE	W03
	BYTE		        En2   v012
	BYTE	W03
	BYTE		PAN     c_v-63
	BYTE		N02     En2   v008
	BYTE	W36
	BYTE		        En2   v012
	BYTE	W03
	BYTE		N02
	BYTE	W03
	BYTE		N02
	BYTE	W03
	BYTE		        En2   v016
	BYTE	W03
	BYTE		N02
	BYTE	W03
	BYTE		N02
	BYTE	W03
	BYTE		        En2   v020
	BYTE	W03
	BYTE		N02
	BYTE	W03
	BYTE		        En2   v024
	BYTE	W03
	BYTE		N02
	BYTE	W03
	BYTE		N02
	BYTE	W03
	BYTE		        En2   v028
	BYTE	W03
	BYTE	PEND
	BYTE	PATT
	 POIN2	sky_tower_8 + 0x4CE
	BYTE		N02     En2   v048
	BYTE	W03
	BYTE		        En2   v044
	BYTE	W03
	BYTE		        En2   v036
	BYTE	W03
	BYTE		        En2   v032
	BYTE	W03
	BYTE		        En2   v028
	BYTE	W03
	BYTE		        En2   v024
	BYTE	W03
	BYTE		        En2   v016
	BYTE	W03
	BYTE		        En2   v012
	BYTE	W03
	BYTE		        En2   v008
	BYTE	W24
	BYTE		PAN     c_v+0
	BYTE	W48
	BYTE	PATT
	 POIN2	sky_tower_8 + 0x2D5
	BYTE	PATT
	 POIN2	sky_tower_8 + 0x331
	BYTE		N02     Gs1   v092
	BYTE	W03
	BYTE		        Fs1   v032
	BYTE	W03
	BYTE		N03     Ds2 
	BYTE	W06
	BYTE		N12     En2   v072
	BYTE	W12
	BYTE		N02     Gs1   v092
	BYTE	W06
	BYTE		N03     Ds2   v032
	BYTE	W06
	BYTE		N02     Gs1   v092
	BYTE	W06
	BYTE		N03     Ds2   v032
	BYTE	W06
	BYTE		N02     Gs1   v092
	BYTE	W03
	BYTE		        Fs1   v032
	BYTE	W03
	BYTE		N03     Ds2 
	BYTE	W06
	BYTE		N12     En2   v072
	BYTE	W12
	BYTE		N02     Gs1   v092
	BYTE	W03
	BYTE		        Fs1   v032
	BYTE	W03
	BYTE		N03     Ds2 
	BYTE	W06
	BYTE		N06     En2   v072
	BYTE	W06
	BYTE		N03     Ds2   v032
	BYTE	W05
	BYTE		VOL     50*sky_tower_mvl/mxv
	BYTE		PAN     c_v+0
	BYTE	W01
	BYTE	PEND
	BYTE	PATT
	 POIN2	sky_tower_8 + 0x331
	BYTE	PATT
	 POIN2	sky_tower_8 + 0x5D6
	BYTE	PATT
	 POIN2	sky_tower_8 + 0x331
	BYTE	PATT
	 POIN2	sky_tower_8 + 0x5D6
	BYTE	PATT
	 POIN2	sky_tower_8 + 0x331
	BYTE	PATT
	 POIN2	sky_tower_8 + 0x5D6
	BYTE	PATT
	 POIN2	sky_tower_8 + 0x331
	BYTE	PATT
	 POIN2	sky_tower_8 + 0x5D6
	BYTE	PATT
	 POIN2	sky_tower_8 + 0x331
	BYTE	PATT
	 POIN2	sky_tower_8 + 0x5D6
	BYTE	PATT
	 POIN2	sky_tower_8 + 0x331
	BYTE	PATT
	 POIN2	sky_tower_8 + 0x5D6
	BYTE	PATT
	 POIN2	sky_tower_8 + 0x331
	BYTE	PATT
	 POIN2	sky_tower_8 + 0x5D6
	BYTE		N08     Gs1   v092
	BYTE	W09
	BYTE		N02     Fs1   v032
	BYTE	W03
	BYTE		        Gs1   v092
	BYTE	W03
	BYTE		        Fs1   v032
	BYTE	W03
	BYTE		N03     Ds2 
	BYTE	W06
	BYTE		N02     Gs1   v092
	BYTE	W03
	BYTE		        Fs1   v032
	BYTE	W03
	BYTE		N03     Ds2 
	BYTE	W06
	BYTE		N12     En2   v072
	BYTE	W12
	BYTE		N02     Gs1   v092
	BYTE	W03
	BYTE		        Fs1   v032
	BYTE	W03
	BYTE		N03     Ds2 
	BYTE	W06
	BYTE		N02     Gs1   v092
	BYTE	W03
	BYTE		        Fs1   v032
	BYTE	W03
	BYTE		N03     Ds2 
	BYTE	W06
	BYTE		N02     Gs1   v092
	BYTE	W03
	BYTE		        Fs1   v032
	BYTE	W03
	BYTE		N03     Ds2 
	BYTE	W06
	BYTE		N02     Gs1   v092
	BYTE	W03
	BYTE		        Fs1   v032
	BYTE	W03
	BYTE		N03     Ds2 
	BYTE	W06
	BYTE	PEND
	BYTE		N08     Gs1   v092
	BYTE	W09
	BYTE		N02     Fs1   v032
	BYTE	W03
	BYTE		        Gs1   v092
	BYTE	W03
	BYTE		        Fs1   v032
	BYTE	W03
	BYTE		N03     Ds2 
	BYTE	W06
	BYTE		N02     Gs1   v092
	BYTE	W03
	BYTE		        Fs1   v032
	BYTE	W03
	BYTE		N03     Ds2 
	BYTE	W06
	BYTE		N12     En2   v072
	BYTE	W12
	BYTE		N02     Gs1   v092
	BYTE	W03
	BYTE		        Fs1   v032
	BYTE	W03
	BYTE		N03     Ds2 
	BYTE	W06
	BYTE		N02     Gs1   v092
	BYTE	W03
	BYTE		        Fs1   v032
	BYTE	W03
	BYTE		N03     Ds2 
	BYTE	W06
	BYTE		N02     Gs1   v092
	BYTE	W03
	BYTE		        Fs1   v032
	BYTE	W03
	BYTE		N03     Ds2 
	BYTE	W06
	BYTE		N02     Gs1   v092
	BYTE	W03
	BYTE		        Fs1   v032
	BYTE	W03
	BYTE		N03     Ds2 
	BYTE	W05
	BYTE		VOL     50*sky_tower_mvl/mxv
	BYTE		PAN     c_v+0
	BYTE	W01
	BYTE	PEND
	BYTE	PATT
	 POIN2	sky_tower_8 + 0x660
	BYTE	PATT
	 POIN2	sky_tower_8 + 0x6A8
	BYTE	PATT
	 POIN2	sky_tower_8 + 0x660
	BYTE	PATT
	 POIN2	sky_tower_8 + 0x6A8
	BYTE	PATT
	 POIN2	sky_tower_8 + 0x660
	BYTE	PATT
	 POIN2	sky_tower_8 + 0x660
	BYTE	PATT
	 POIN2	sky_tower_8 + 0x4AB
	BYTE	PATT
	 POIN2	sky_tower_8 + 0x4CE
	BYTE	PATT
	 POIN2	sky_tower_8 + 0x529
	BYTE	PATT
	 POIN2	sky_tower_8 + 0x4CE
	BYTE	PATT
	 POIN2	sky_tower_8 + 0x56B
	BYTE	PATT
	 POIN2	sky_tower_8 + 0x4CE
	BYTE		N02     En2   v048
	BYTE	W03
	BYTE		        En2   v044
	BYTE	W03
	BYTE		        En2   v036
	BYTE	W03
	BYTE		        En2   v032
	BYTE	W03
	BYTE		        En2   v028
	BYTE	W03
	BYTE		        En2   v024
	BYTE	W03
	BYTE		        En2   v016
	BYTE	W03
	BYTE		        En2   v012
	BYTE	W03
	BYTE		        En2   v008
	BYTE	W23
	BYTE		PAN     c_v+0
	BYTE	W01
	BYTE		N12     En2   v072
	BYTE	W12
	BYTE		N02     Gs1   v092
	BYTE	W06
	BYTE		N03     Ds2   v032
	BYTE	W06
	BYTE		N02     Gs1   v092
	BYTE	W03
	BYTE		        Fs1   v032
	BYTE	W03
	BYTE		N03     Ds2 
	BYTE	W06
	BYTE		N02     Gs1   v092
	BYTE	W03
	BYTE		        Fs1   v032
	BYTE	W03
	BYTE		N03     Ds2 
	BYTE	W06
	BYTE		N02     Gs1   v092
	BYTE	W12
	BYTE		N12     En2   v072
	BYTE	W12
	BYTE		N02     Gs1   v092
	BYTE	W12
	BYTE		N12     En2   v072
	BYTE	W12
	BYTE		N02     Gs1   v092
	BYTE	W06
	BYTE		N03     Ds2   v032
	BYTE	W06
	BYTE		N12     En2   v072
	BYTE	W12
	BYTE		N24     Ds2   v080
	BYTE	W23
	BYTE		VOL     50*sky_tower_mvl/mxv
	BYTE		PAN     c_v+0
	BYTE	W01
	BYTE	PATT
	 POIN2	sky_tower_8 + 0x126
	BYTE	PATT
	 POIN2	sky_tower_8 + 0x16F
	BYTE	PATT
	 POIN2	sky_tower_8 + 0x126
	BYTE	PATT
	 POIN2	sky_tower_8 + 0x16F
	BYTE	PATT
	 POIN2	sky_tower_8 + 0x126
	BYTE	PATT
	 POIN2	sky_tower_8 + 0x16F
	BYTE	W72
	BYTE		N12     Ds2   v072
	BYTE	W12
	BYTE		        En2 
	BYTE	W12
	BYTE	PATT
	 POIN2	sky_tower_8 + 0x2D5
	BYTE	PATT
	 POIN2	sky_tower_8 + 0x126
	BYTE	PATT
	 POIN2	sky_tower_8 + 0x16F
	BYTE	PATT
	 POIN2	sky_tower_8 + 0x126
	BYTE		N02     Gs1   v092
	BYTE	W03
	BYTE		        Fs1   v032
	BYTE	W03
	BYTE		N03     Ds2 
	BYTE	W06
	BYTE		N12     En2   v072
	BYTE	W12
	BYTE		N02     Gs1   v092
	BYTE	W03
	BYTE		        Fs1   v032
	BYTE	W03
	BYTE		N03     Ds2 
	BYTE	W06
	BYTE		N02     Gs1   v092
	BYTE	W03
	BYTE		        Fs1   v032
	BYTE	W03
	BYTE		N03     Ds2 
	BYTE	W06
	BYTE		N02     Gs1   v092
	BYTE	W03
	BYTE		        Fs1   v032
	BYTE	W03
	BYTE		N03     Ds2 
	BYTE	W06
	BYTE		N02     Gs1   v092
	BYTE	W03
	BYTE		        Fs1   v032
	BYTE	W03
	BYTE		N03     Ds2 
	BYTE	W06
	BYTE		N02     Gs1   v092
	BYTE	W03
	BYTE		        Fs1   v032
	BYTE	W03
	BYTE		N03     Ds2 
	BYTE	W06
	BYTE		N12     En2   v072
	BYTE	W12
	BYTE	GoTo
	 POIN2	sky_tower_8 + 0x270
	BYTE	FINE

//*********************** Track 10 ***********************//

sky_tower_9:
	BYTE	KEYSH   sky_tower_key+0
	BYTE	W18
	BYTE		VOICE   93
	BYTE		VOL     85*sky_tower_mvl/mxv
	BYTE	W01
	BYTE		MOD     2
	BYTE		PAN     c_v+0
	BYTE		BENDR   12
	BYTE	W01
	BYTE		MODT    mod_vib
	BYTE	W04
	BYTE	W96
	BYTE	W96
	BYTE	W92
	BYTE	W03
	BYTE		VOICE   32
	BYTE	W01
	BYTE	W96
	BYTE		TIE     Bn2   v127
	BYTE	W96
	BYTE	W96
	BYTE		EOT
	BYTE		TIE
	BYTE	W96
	BYTE	W96
	BYTE		EOT
	BYTE		TIE
	BYTE	W96
	BYTE	W96
	BYTE		EOT
	BYTE		TIE
	BYTE	W96
	BYTE	W96
	BYTE		EOT
	BYTE		TIE
	BYTE	W96
	BYTE	W96
	BYTE		EOT
	BYTE		TIE
	BYTE	W96
	BYTE	W92
	BYTE	W03
	BYTE		VOICE   37
	BYTE	W01
	BYTE		EOT
	BYTE		N10     Bn2   v127
	BYTE	W12
	BYTE		N10
	BYTE	W12
	BYTE		N06     Bn2   v072
	BYTE	W12
	BYTE		        Bn2   v127
	BYTE	W12
	BYTE		        Bn2   v072
	BYTE	W12
	BYTE		        Bn2   v127
	BYTE	W12
	BYTE		        Bn2   v072
	BYTE	W12
	BYTE		N12     An2   v127
	BYTE	W12
	BYTE	PEND
	BYTE		N06     An2   v072
	BYTE	W12
	BYTE		        An2   v127
	BYTE	W12
	BYTE		        An2   v072
	BYTE	W12
	BYTE		        An2   v127
	BYTE	W12
	BYTE		        An2   v072
	BYTE	W12
	BYTE		        An2   v127
	BYTE	W12
	BYTE		        An2   v072
	BYTE	W12
	BYTE		N12     Gs2   v127
	BYTE	W12
	BYTE	PEND
	BYTE		N04     Gs2   v072
	BYTE	W12
	BYTE		N06     Gs2   v127
	BYTE	W12
	BYTE		        Gs2   v072
	BYTE	W12
	BYTE		        Gs2   v127
	BYTE	W12
	BYTE		        Gs2   v072
	BYTE	W12
	BYTE		        Gs2   v127
	BYTE	W12
	BYTE		        Gs2   v072
	BYTE	W12
	BYTE		N12     An2   v127
	BYTE	W12
	BYTE	PEND
	BYTE		N04     An2   v127
	BYTE	W12
	BYTE		N06     En2 
	BYTE	W06
	BYTE		        En2   v072
	BYTE	W06
	BYTE		N04     Cs2   v127
	BYTE	W12
	BYTE		N06     An2 
	BYTE	W06
	BYTE		        An2   v072
	BYTE	W06
	BYTE		N04     En2   v127
	BYTE	W12
	BYTE		N06     Cs3 
	BYTE	W06
	BYTE		        Cs3   v072
	BYTE	W06
	BYTE		N24     An2   v127
	BYTE	W24
	BYTE	PEND
	BYTE	PATT
	 POIN2	sky_tower_9 + 0x38
	BYTE	PATT
	 POIN2	sky_tower_9 + 0x53
	BYTE	PATT
	 POIN2	sky_tower_9 + 0x6E
	BYTE	PATT
	 POIN2	sky_tower_9 + 0x8A
	BYTE		N10     Bn2   v127
	BYTE	W12
	BYTE		N06
	BYTE	W12
	BYTE		        Bn2   v072
	BYTE	W12
	BYTE		        Bn2   v127
	BYTE	W12
	BYTE		        Bn2   v072
	BYTE	W12
	BYTE		        Bn2   v127
	BYTE	W12
	BYTE		        Bn2   v072
	BYTE	W12
	BYTE		N10     En2   v127
	BYTE	W12
	BYTE	PEND
	BYTE		N06     En2   v072
	BYTE	W12
	BYTE		        En3   v127
	BYTE	W12
	BYTE		        En2   v072
	BYTE	W12
	BYTE		        Bn2   v127
	BYTE	W12
	BYTE		        Bn1   v072
	BYTE	W12
	BYTE		        En2   v127
	BYTE	W12
	BYTE		N04     Bn1 
	BYTE	W12
	BYTE		N06     Dn2 
	BYTE	W06
	BYTE		        Dn2   v072
	BYTE	W06
	BYTE	PEND
	BYTE		N04     Dn2   v127
	BYTE	W12
	BYTE		N06     Dn3 
	BYTE	W12
	BYTE		        Dn3   v072
	BYTE	W12
	BYTE		        Dn3   v127
	BYTE	W12
	BYTE		        Dn2   v072
	BYTE	W12
	BYTE		        Dn3   v127
	BYTE	W12
	BYTE		N04     Dn2   v072
	BYTE	W12
	BYTE		N06     En2   v127
	BYTE	W06
	BYTE		        En2   v072
	BYTE	W06
	BYTE	PEND
	BYTE		N04     En2   v127
	BYTE	W12
	BYTE		N06     Cs2 
	BYTE	W06
	BYTE		        Cs2   v072
	BYTE	W06
	BYTE		N04     Cs2   v127
	BYTE	W12
	BYTE		N06     En2 
	BYTE	W06
	BYTE		        En2   v072
	BYTE	W06
	BYTE		N04     En2   v127
	BYTE	W12
	BYTE		N06     Cs3 
	BYTE	W06
	BYTE		        Cs3   v072
	BYTE	W06
	BYTE		N24     An2   v127
	BYTE	W24
	BYTE	PEND
	BYTE		N10     Bn2   v127
	BYTE	W12
	BYTE		N06
	BYTE	W12
	BYTE		        Bn2   v072
	BYTE	W12
	BYTE		        Bn2   v127
	BYTE	W12
	BYTE		        Bn2   v072
	BYTE	W12
	BYTE		        Bn2   v127
	BYTE	W12
	BYTE		        Bn2   v072
	BYTE	W12
	BYTE		        En2   v127
	BYTE	W06
	BYTE		        En2   v072
	BYTE	W06
	BYTE	PEND
	BYTE		N04     En2   v127
	BYTE	W12
	BYTE		N06     En3 
	BYTE	W06
	BYTE		        En3   v072
	BYTE	W06
	BYTE		N04     En2   v127
	BYTE	W12
	BYTE		N06     Bn2 
	BYTE	W06
	BYTE		        Bn2   v072
	BYTE	W06
	BYTE		N04     En2   v127
	BYTE	W12
	BYTE		N06
	BYTE	W06
	BYTE		        En2   v072
	BYTE	W06
	BYTE		N04     Bn1   v127
	BYTE	W12
	BYTE		N06     Dn2 
	BYTE	W06
	BYTE		        Dn2   v072
	BYTE	W06
	BYTE	PEND
	BYTE		N04     Dn2   v127
	BYTE	W12
	BYTE		N06     Dn3 
	BYTE	W12
	BYTE		        Dn3   v072
	BYTE	W12
	BYTE		        Dn3   v127
	BYTE	W12
	BYTE		        Dn2   v072
	BYTE	W12
	BYTE		        Dn3   v127
	BYTE	W12
	BYTE		N04     Dn2   v072
	BYTE	W12
	BYTE		N12     En3   v127
	BYTE	W12
	BYTE	PEND
	BYTE		N01     Fs2   v072
	BYTE	W12
	BYTE		N12     Cs3   v127
	BYTE	W12
	BYTE		N01     Fs2   v072
	BYTE	W12
	BYTE		N12     Dn3   v127
	BYTE	W12
	BYTE		N01     Fs2   v072
	BYTE	W12
	BYTE		N12     An2   v127
	BYTE	W12
	BYTE		N06     Fs2 
	BYTE	W06
	BYTE		        Fs2   v092
	BYTE	W06
	BYTE		N12     An2   v127
	BYTE	W12
	BYTE	PEND
	BYTE	PATT
	 POIN2	sky_tower_9 + 0x38
	BYTE	PATT
	 POIN2	sky_tower_9 + 0x53
	BYTE	PATT
	 POIN2	sky_tower_9 + 0x6E
	BYTE	PATT
	 POIN2	sky_tower_9 + 0x8A
	BYTE	PATT
	 POIN2	sky_tower_9 + 0x38
	BYTE	PATT
	 POIN2	sky_tower_9 + 0x53
	BYTE	PATT
	 POIN2	sky_tower_9 + 0x6E
	BYTE	PATT
	 POIN2	sky_tower_9 + 0x8A
	BYTE		N12     Bn2   v127
	BYTE	W11
	BYTE		BEND    c_v-11
	BYTE	W02
	BYTE		        c_v-8
	BYTE	W01
	BYTE		        c_v-6
	BYTE	W01
	BYTE		        c_v+0
	BYTE	W09
	BYTE		N12
	BYTE	W12
	BYTE		N03
	BYTE	W03
	BYTE		N01     Bn2   v032
	BYTE	W09
	BYTE		N03     Fs2   v127
	BYTE	W03
	BYTE		N01     Fs2   v032
	BYTE	W09
	BYTE		N12     Bn2   v127
	BYTE	W12
	BYTE		N03     Fs2 
	BYTE	W03
	BYTE		N01     Fs2   v032
	BYTE	W08
	BYTE		BEND    c_v-11
	BYTE	W01
	BYTE		N12     Bn2   v127
	BYTE	W01
	BYTE		BEND    c_v-8
	BYTE	W01
	BYTE		        c_v-6
	BYTE	W01
	BYTE		        c_v+0
	BYTE	W09
	BYTE		N03
	BYTE	W03
	BYTE		N01     Bn2   v032
	BYTE	W09
	BYTE		N12     Fs2   v127
	BYTE	W12
	BYTE		N03
	BYTE	W03
	BYTE		N01     Fs2   v032
	BYTE	W09
	BYTE		N12     Cs3   v127
	BYTE	W12
	BYTE		N03     En2 
	BYTE	W03
	BYTE		N01     En2   v032
	BYTE	W09
	BYTE		N12     Fs2   v127
	BYTE	W12
	BYTE		N24     An2 
	BYTE	W11
	BYTE		BEND    c_v-11
	BYTE	W02
	BYTE		        c_v-8
	BYTE	W01
	BYTE		        c_v-6
	BYTE	W01
	BYTE		        c_v+0
	BYTE	W09
	BYTE		N12     Bn2 
	BYTE	W24
	BYTE		N12
	BYTE	W12
	BYTE		N03
	BYTE	W03
	BYTE		N01     Bn2   v032
	BYTE	W09
	BYTE		N03     Fs2   v127
	BYTE	W03
	BYTE		N01     Fs2   v032
	BYTE	W08
	BYTE		BEND    c_v-11
	BYTE	W01
	BYTE		N12     Bn2   v127
	BYTE	W01
	BYTE		BEND    c_v-8
	BYTE	W01
	BYTE		        c_v-6
	BYTE	W01
	BYTE		        c_v+0
	BYTE	W09
	BYTE		N03     Fs2 
	BYTE	W03
	BYTE		N01     Fs2   v032
	BYTE	W08
	BYTE		BEND    c_v-11
	BYTE	W01
	BYTE		N12     Bn2   v127
	BYTE	W01
	BYTE		BEND    c_v-8
	BYTE	W01
	BYTE		        c_v-6
	BYTE	W01
	BYTE		        c_v+0
	BYTE	W09
	BYTE	W32
	BYTE	W03
	BYTE		        c_v-11
	BYTE	W02
	BYTE		        c_v-8
	BYTE	W01
	BYTE		        c_v-6
	BYTE	W01
	BYTE		        c_v+0
	BYTE	W20
	BYTE		        c_v-11
	BYTE	W02
	BYTE		        c_v-8
	BYTE	W01
	BYTE		        c_v-6
	BYTE	W01
	BYTE		        c_v+0
	BYTE	W32
	BYTE	W01
	BYTE	PATT
	 POIN2	sky_tower_9 + 0xC1
	BYTE	PATT
	 POIN2	sky_tower_9 + 0xDB
	BYTE	PATT
	 POIN2	sky_tower_9 + 0xF8
	BYTE	PATT
	 POIN2	sky_tower_9 + 0x117
	BYTE	PATT
	 POIN2	sky_tower_9 + 0x13A
	BYTE	PATT
	 POIN2	sky_tower_9 + 0x156
	BYTE	PATT
	 POIN2	sky_tower_9 + 0x17E
	BYTE	PATT
	 POIN2	sky_tower_9 + 0x19A
	BYTE	PATT
	 POIN2	sky_tower_9 + 0x38
	BYTE	PATT
	 POIN2	sky_tower_9 + 0x53
	BYTE	PATT
	 POIN2	sky_tower_9 + 0x6E
	BYTE	PATT
	 POIN2	sky_tower_9 + 0x8A
	BYTE	PATT
	 POIN2	sky_tower_9 + 0x38
	BYTE	PATT
	 POIN2	sky_tower_9 + 0x53
	BYTE	PATT
	 POIN2	sky_tower_9 + 0x6E
	BYTE		N04     An2   v127
	BYTE	W12
	BYTE		N06
	BYTE	W06
	BYTE		        An2   v072
	BYTE	W06
	BYTE		N04     Cs2   v127
	BYTE	W12
	BYTE		N24     An2 
	BYTE	W24
	BYTE		N04     Cs2 
	BYTE	W12
	BYTE		N24     An2 
	BYTE	W23
	BYTE		VOICE   91
	BYTE	W01
	BYTE		TIE     Dn2 
	BYTE	W96
	BYTE	W96
	BYTE		EOT
	BYTE		TIE     En2 
	BYTE	W96
	BYTE	W96
	BYTE		EOT
	BYTE		TIE     Dn2 
	BYTE	W96
	BYTE	W96
	BYTE		EOT
	BYTE		TIE     En2 
	BYTE	W96
	BYTE	W96
	BYTE		EOT
	BYTE		TIE     Dn2 
	BYTE	W96
	BYTE	W96
	BYTE		EOT
	BYTE		TIE     En2 
	BYTE	W96
	BYTE	W96
	BYTE		EOT
	BYTE		TIE     Dn2 
	BYTE	W96
	BYTE	W96
	BYTE		EOT
	BYTE		TIE     En2 
	BYTE	W96
	BYTE	W96
	BYTE		EOT
	BYTE		TIE     Dn2 
	BYTE	W96
	BYTE	W96
	BYTE		EOT
	BYTE		TIE     En2 
	BYTE	W96
	BYTE	W96
	BYTE		EOT
	BYTE		TIE     Dn2 
	BYTE	W96
	BYTE	W96
	BYTE		EOT
	BYTE		TIE     En2 
	BYTE	W96
	BYTE	W96
	BYTE		EOT
	BYTE		TIE     Dn2 
	BYTE	W96
	BYTE	W96
	BYTE		EOT
	BYTE		TIE     En2 
	BYTE	W96
	BYTE	W96
	BYTE		EOT
	BYTE		TIE     Dn2 
	BYTE	W96
	BYTE	W96
	BYTE		EOT
	BYTE		N96     En2 
	BYTE	W96
	BYTE		N48
	BYTE	W48
	BYTE		        Cs2 
	BYTE	W48
	BYTE		TIE     Bn1 
	BYTE	W96
	BYTE	W96
	BYTE		EOT
	BYTE		TIE     Cs2 
	BYTE	W96
	BYTE	W96
	BYTE		EOT
	BYTE		TIE     Dn2 
	BYTE	W96
	BYTE	W96
	BYTE		EOT
	BYTE		N96     En2 
	BYTE	W96
	BYTE		N48
	BYTE	W48
	BYTE		        Cs2 
	BYTE	W44
	BYTE	W03
	BYTE		VOICE   37
	BYTE		VOL     85*sky_tower_mvl/mxv
	BYTE	W01
	BYTE		N10     Dn2   v127
	BYTE	W12
	BYTE		N06     Dn3 
	BYTE	W12
	BYTE		        Dn3   v072
	BYTE	W12
	BYTE		        Dn3   v127
	BYTE	W12
	BYTE		        Dn3   v072
	BYTE	W12
	BYTE		        Dn3   v127
	BYTE	W12
	BYTE		        Dn3   v072
	BYTE	W12
	BYTE		        Dn3   v127
	BYTE	W12
	BYTE	PEND
	BYTE		N06     Dn3   v072
	BYTE	W12
	BYTE		        Dn3   v127
	BYTE	W12
	BYTE		        Dn3   v072
	BYTE	W12
	BYTE		        Dn3   v127
	BYTE	W12
	BYTE		        Dn3   v072
	BYTE	W12
	BYTE		        Dn3   v127
	BYTE	W12
	BYTE		        Dn3   v072
	BYTE	W12
	BYTE		N10     Dn3   v127
	BYTE	W12
	BYTE	PEND
	BYTE	PATT
	 POIN2	sky_tower_9 + 0x361
	BYTE	PATT
	 POIN2	sky_tower_9 + 0x37B
	BYTE	PATT
	 POIN2	sky_tower_9 + 0x361
	BYTE	PATT
	 POIN2	sky_tower_9 + 0x37B
	BYTE		N10     Dn2   v127
	BYTE	W12
	BYTE		N06     Dn3 
	BYTE	W12
	BYTE		        Dn3   v072
	BYTE	W12
	BYTE		        Dn3   v127
	BYTE	W12
	BYTE		        Dn3   v072
	BYTE	W12
	BYTE		        Dn3   v127
	BYTE	W12
	BYTE		        Dn3   v072
	BYTE	W12
	BYTE		        En2   v127
	BYTE	W06
	BYTE		        En2   v072
	BYTE	W06
	BYTE		N04     En2   v127
	BYTE	W12
	BYTE		N06     Cs2 
	BYTE	W06
	BYTE		        Cs2   v072
	BYTE	W06
	BYTE		N04     Cs2   v127
	BYTE	W12
	BYTE		N06     Dn2 
	BYTE	W06
	BYTE		        Dn2   v072
	BYTE	W06
	BYTE		N04     Dn2   v127
	BYTE	W12
	BYTE		N06     An1 
	BYTE	W06
	BYTE		        An1   v072
	BYTE	W06
	BYTE		        An2   v127
	BYTE	W06
	BYTE		        An2   v072
	BYTE	W06
	BYTE		N12     An2   v127
	BYTE	W12
	BYTE	PATT
	 POIN2	sky_tower_9 + 0x38
	BYTE	PATT
	 POIN2	sky_tower_9 + 0x53
	BYTE	PATT
	 POIN2	sky_tower_9 + 0x6E
	BYTE	PATT
	 POIN2	sky_tower_9 + 0x8A
	BYTE	GoTo
	 POIN2	sky_tower_9 + 0xAD
	BYTE	FINE

//*********************** Track 11 ***********************//

sky_tower_10:
	BYTE	KEYSH   sky_tower_key+0
	BYTE	W20
	BYTE		VOL     85*sky_tower_mvl/mxv
	BYTE		PAN     c_v+0
	BYTE	W01
	BYTE		VOICE   127
	BYTE	W03
	BYTE	W96
	BYTE	W96
	BYTE	W96
	BYTE	W96
	BYTE	W96
	BYTE	W96
	BYTE	W96
	BYTE	W96
	BYTE	W96
	BYTE	W96
	BYTE	W96
	BYTE	W96
	BYTE		N03     Cn1   v120
	BYTE	W24
	BYTE		        Dn1 
	BYTE	W12
	BYTE		        Cn1 
	BYTE	W24
	BYTE		N03
	BYTE	W12
	BYTE		        Dn1 
	BYTE	W12
	BYTE		        Cn1 
	BYTE	W12
	BYTE	PEND
	BYTE	W12
	BYTE		N03
	BYTE	W12
	BYTE		        Dn1 
	BYTE	W12
	BYTE		        Cn1 
	BYTE	W24
	BYTE		N03
	BYTE	W12
	BYTE		        Dn1 
	BYTE	W24
	BYTE	PATT
	 POIN2	sky_tower_10 + 0x17
	BYTE	W12
	BYTE		N03     Cn1   v120
	BYTE	W12
	BYTE		        Dn1 
	BYTE	W12
	BYTE		        Cn1 
	BYTE	W24
	BYTE		N03
	BYTE	W12
	BYTE		        Dn1 
	BYTE	W12
	BYTE		N03
	BYTE	W12
	BYTE		N03     Cn1   v120
	BYTE	W06
	BYTE		        Ds3   v080
	BYTE	W06
	BYTE		N06     Fs2   v120
	BYTE	W06
	BYTE		N03     En3   v080
	BYTE	W06
	BYTE		        Dn1   v120
	BYTE	W06
	BYTE		        Dn3 
	BYTE	W06
	BYTE		        Cn1 
	BYTE	W06
	BYTE		        Ds3   v072
	BYTE	W12
	BYTE		        Dn3   v120
	BYTE	W06
	BYTE		        Cn1 
	BYTE	W06
	BYTE		        En3   v080
	BYTE	W06
	BYTE		        Dn1   v120
	BYTE	W06
	BYTE		        Ds3   v072
	BYTE	W06
	BYTE		        Cn1   v120
	BYTE	W06
	BYTE		        Dn3 
	BYTE	W06
	BYTE	PEND
	BYTE	W06
	BYTE		N03     Ds3   v080
	BYTE	W06
	BYTE		        Cn1   v120
	BYTE	W06
	BYTE		        En3   v080
	BYTE	W06
	BYTE		        Dn1   v120
	BYTE	W06
	BYTE		        Dn3 
	BYTE	W06
	BYTE		        Cn1 
	BYTE	W06
	BYTE		        Ds3   v072
	BYTE	W12
	BYTE		        Dn3   v120
	BYTE	W06
	BYTE		        Cn1 
	BYTE	W06
	BYTE		        En3   v080
	BYTE	W06
	BYTE		        Dn1   v120
	BYTE	W06
	BYTE		        Ds3   v072
	BYTE	W06
	BYTE		N06     Gs4   v080
	BYTE	W06
	BYTE		N03     Dn3   v120
	BYTE	W06
	BYTE	PEND
	BYTE		N03     Cn1   v120
	BYTE	W06
	BYTE		        Ds3   v080
	BYTE	W06
	BYTE		N06     An4   v072
	BYTE	W06
	BYTE		N03     En3   v080
	BYTE	W06
	BYTE		        Dn1   v120
	BYTE	W06
	BYTE		        Dn3 
	BYTE	W06
	BYTE		        Cn1 
	BYTE	W06
	BYTE		        Ds3   v072
	BYTE	W12
	BYTE		        Dn3   v120
	BYTE	W06
	BYTE		        Cn1 
	BYTE	W06
	BYTE		        En3   v080
	BYTE	W06
	BYTE		        Dn1   v120
	BYTE	W06
	BYTE		        Ds3   v072
	BYTE	W06
	BYTE		        Cn1   v120
	BYTE	W06
	BYTE		        Dn3 
	BYTE	W06
	BYTE	PEND
	BYTE	W06
	BYTE		N03     Ds3   v080
	BYTE	W06
	BYTE		        Cn1   v120
	BYTE	W06
	BYTE		        En3   v080
	BYTE	W06
	BYTE		        Dn1   v120
	BYTE	W06
	BYTE		        Dn3 
	BYTE	W06
	BYTE		        Cn1 
	BYTE	W06
	BYTE		        Ds3   v072
	BYTE	W12
	BYTE		        Dn3   v120
	BYTE	W06
	BYTE		        Cn1 
	BYTE	W06
	BYTE		        En3   v080
	BYTE	W06
	BYTE		        Dn1   v120
	BYTE	W06
	BYTE		        Ds3   v072
	BYTE	W06
	BYTE		N06     Fn3   v120
	BYTE	W06
	BYTE		N03     Dn3 
	BYTE	W06
	BYTE	PEND
	BYTE	PATT
	 POIN2	sky_tower_10 + 0x45
	BYTE	PATT
	 POIN2	sky_tower_10 + 0x72
	BYTE	PATT
	 POIN2	sky_tower_10 + 0x9E
	BYTE	PATT
	 POIN2	sky_tower_10 + 0xCB
	BYTE	PATT
	 POIN2	sky_tower_10 + 0x45
	BYTE	PATT
	 POIN2	sky_tower_10 + 0x72
	BYTE	PATT
	 POIN2	sky_tower_10 + 0x9E
	BYTE	PATT
	 POIN2	sky_tower_10 + 0xCB
	BYTE	PATT
	 POIN2	sky_tower_10 + 0x45
	BYTE	PATT
	 POIN2	sky_tower_10 + 0x72
	BYTE		N03     Cn1   v120
	BYTE	W06
	BYTE		        Ds3   v080
	BYTE	W06
	BYTE		N06     An4   v072
	BYTE	W06
	BYTE		N03     En3   v080
	BYTE	W06
	BYTE		        Dn1   v120
	BYTE	W06
	BYTE		        Dn3 
	BYTE	W06
	BYTE		        Cn1 
	BYTE	W06
	BYTE		        Ds3   v072
	BYTE	W06
	BYTE		        Cn1   v120
	BYTE	W06
	BYTE		        Dn3 
	BYTE	W06
	BYTE		        Dn1 
	BYTE	W06
	BYTE		        En3   v080
	BYTE	W06
	BYTE		        Dn1   v120
	BYTE	W06
	BYTE		        Ds3   v072
	BYTE	W06
	BYTE		        An4   v080
	BYTE	W12
	BYTE	PEND
	BYTE		N03     Cn1   v120
	BYTE	W06
	BYTE		        Gs4   v012
	BYTE	W06
	BYTE		        An4   v080
	BYTE	W12
	BYTE		        Cn1   v120
	BYTE	W12
	BYTE		        An4   v080
	BYTE	W12
	BYTE		        Cn1   v120
	BYTE	W09
	BYTE		        Dn1   v016
	BYTE	W03
	BYTE		        Dn1   v120
	BYTE	W09
	BYTE		        Dn1   v016
	BYTE	W03
	BYTE		        Dn1   v120
	BYTE	W06
	BYTE		        Dn1   v052
	BYTE	W06
	BYTE		        Dn1   v120
	BYTE	W12
	BYTE	PEND
	BYTE	PATT
	 POIN2	sky_tower_10 + 0x45
	BYTE	PATT
	 POIN2	sky_tower_10 + 0x72
	BYTE	PATT
	 POIN2	sky_tower_10 + 0x9E
	BYTE	PATT
	 POIN2	sky_tower_10 + 0xCB
	BYTE	PATT
	 POIN2	sky_tower_10 + 0x45
	BYTE	PATT
	 POIN2	sky_tower_10 + 0x72
	BYTE	PATT
	 POIN2	sky_tower_10 + 0x9E
	BYTE	PATT
	 POIN2	sky_tower_10 + 0xCB
	BYTE	PATT
	 POIN2	sky_tower_10 + 0x45
	BYTE	PATT
	 POIN2	sky_tower_10 + 0x72
	BYTE		N03     Cn1   v120
	BYTE	W06
	BYTE		        Ds3   v080
	BYTE	W06
	BYTE		N06     An4   v092
	BYTE	W06
	BYTE		N03     En3   v080
	BYTE	W06
	BYTE		        Dn1   v120
	BYTE	W06
	BYTE		        Dn3 
	BYTE	W06
	BYTE		N06     Gs4   v092
	BYTE	W06
	BYTE		N03     Ds3   v072
	BYTE	W06
	BYTE		        Cn1   v120
	BYTE	W06
	BYTE		        Dn3 
	BYTE	W06
	BYTE		        Dn1 
	BYTE	W06
	BYTE		        En3   v080
	BYTE	W12
	BYTE		        Ds3   v072
	BYTE	W06
	BYTE		        Dn1   v120
	BYTE	W06
	BYTE		        Dn3 
	BYTE	W06
	BYTE	W12
	BYTE		        Dn1 
	BYTE	W24
	BYTE		N03
	BYTE	W12
	BYTE		        Gs4   v080
	BYTE	W12
	BYTE		        An4 
	BYTE	W12
	BYTE		        Gs4   v020
	BYTE	W24
	BYTE	PATT
	 POIN2	sky_tower_10 + 0x45
	BYTE	PATT
	 POIN2	sky_tower_10 + 0x72
	BYTE	PATT
	 POIN2	sky_tower_10 + 0x9E
	BYTE	PATT
	 POIN2	sky_tower_10 + 0xCB
	BYTE	PATT
	 POIN2	sky_tower_10 + 0x45
	BYTE	PATT
	 POIN2	sky_tower_10 + 0x72
	BYTE	PATT
	 POIN2	sky_tower_10 + 0x128
	BYTE	PATT
	 POIN2	sky_tower_10 + 0x155
	BYTE	PATT
	 POIN2	sky_tower_10 + 0x45
	BYTE	PATT
	 POIN2	sky_tower_10 + 0x72
	BYTE	PATT
	 POIN2	sky_tower_10 + 0x9E
	BYTE	PATT
	 POIN2	sky_tower_10 + 0xCB
	BYTE	PATT
	 POIN2	sky_tower_10 + 0x45
	BYTE	PATT
	 POIN2	sky_tower_10 + 0x72
	BYTE		N03     Cn1   v120
	BYTE	W06
	BYTE		        Ds3   v080
	BYTE	W06
	BYTE		N06     An4   v072
	BYTE	W06
	BYTE		N03     En3   v080
	BYTE	W06
	BYTE		        Dn1   v120
	BYTE	W06
	BYTE		        Dn3 
	BYTE	W06
	BYTE		        Cn1 
	BYTE	W06
	BYTE		        Ds3   v072
	BYTE	W12
	BYTE		        Dn3   v120
	BYTE	W06
	BYTE		        Cn1 
	BYTE	W06
	BYTE		        En3   v080
	BYTE	W06
	BYTE		        Dn1   v120
	BYTE	W06
	BYTE		        Ds3   v072
	BYTE	W06
	BYTE		        Cn1   v120
	BYTE	W12
	BYTE	W09
	BYTE		        Dn1   v016
	BYTE	W03
	BYTE		        Dn1   v120
	BYTE	W24
	BYTE		N03
	BYTE	W18
	BYTE		        Gs4   v012
	BYTE	W06
	BYTE		        Dn1   v120
	BYTE	W06
	BYTE		        Gs4   v012
	BYTE	W06
	BYTE		        An4   v080
	BYTE	W06
	BYTE		        Fs2   v008
	BYTE	W03
	BYTE		        Fs2   v012
	BYTE	W03
	BYTE		N03
	BYTE	W03
	BYTE		        Fs2   v028
	BYTE	W03
	BYTE		        Fs2   v044
	BYTE	W03
	BYTE		        Fs2   v072
	BYTE	W03
	BYTE		N06     Fs2   v088
	BYTE	W96
	BYTE	W96
	BYTE	W96
	BYTE	W96
	BYTE	W96
	BYTE	W96
	BYTE	W96
	BYTE		N03     Cn1   v120
	BYTE	W06
	BYTE		        Gs4   v012
	BYTE	W06
	BYTE		        An4   v080
	BYTE	W06
	BYTE		        Gs4   v012
	BYTE	W06
	BYTE		        Cn1   v120
	BYTE	W12
	BYTE		        An4   v080
	BYTE	W12
	BYTE		        Cn1   v120
	BYTE	W12
	BYTE		        Dn1 
	BYTE	W06
	BYTE		        Dn1   v032
	BYTE	W06
	BYTE		        Dn1   v120
	BYTE	W12
	BYTE		N03
	BYTE	W06
	BYTE		        Dn1   v040
	BYTE	W06
	BYTE		N03     Cn1   v120
	BYTE	W06
	BYTE		        Ds3   v080
	BYTE	W06
	BYTE		N06     An4   v092
	BYTE	W06
	BYTE		N03     En3   v080
	BYTE	W06
	BYTE		        Dn1   v120
	BYTE	W06
	BYTE		        Dn3 
	BYTE	W06
	BYTE		        Cn1 
	BYTE	W06
	BYTE		        Ds3   v072
	BYTE	W12
	BYTE		        Dn3   v120
	BYTE	W06
	BYTE		        Cn1 
	BYTE	W06
	BYTE		        En3   v080
	BYTE	W06
	BYTE		        Dn1   v120
	BYTE	W06
	BYTE		        Ds3   v072
	BYTE	W06
	BYTE		        Cn1   v092
	BYTE	W06
	BYTE		        Dn3   v120
	BYTE	W06
	BYTE	PEND
	BYTE	PATT
	 POIN2	sky_tower_10 + 0x2AB
	BYTE	PATT
	 POIN2	sky_tower_10 + 0x2AB
	BYTE	PATT
	 POIN2	sky_tower_10 + 0x2AB
	BYTE	PATT
	 POIN2	sky_tower_10 + 0x2AB
	BYTE	PATT
	 POIN2	sky_tower_10 + 0x2AB
	BYTE	PATT
	 POIN2	sky_tower_10 + 0x2AB
	BYTE	PATT
	 POIN2	sky_tower_10 + 0x2AB
	BYTE	PATT
	 POIN2	sky_tower_10 + 0x2AB
	BYTE	PATT
	 POIN2	sky_tower_10 + 0x2AB
	BYTE	PATT
	 POIN2	sky_tower_10 + 0x2AB
	BYTE	PATT
	 POIN2	sky_tower_10 + 0x2AB
	BYTE	PATT
	 POIN2	sky_tower_10 + 0x2AB
	BYTE	PATT
	 POIN2	sky_tower_10 + 0x2AB
	BYTE	PATT
	 POIN2	sky_tower_10 + 0x2AB
	BYTE	PATT
	 POIN2	sky_tower_10 + 0x2AB
	BYTE	W96
	BYTE	W96
	BYTE	W96
	BYTE	W96
	BYTE	W96
	BYTE	W96
	BYTE	W96
	BYTE	W96
	BYTE	W96
	BYTE	W96
	BYTE	W96
	BYTE	W96
	BYTE	W96
	BYTE	W96
	BYTE	W96
	BYTE	W96
	BYTE	PATT
	 POIN2	sky_tower_10 + 0x45
	BYTE	PATT
	 POIN2	sky_tower_10 + 0x72
	BYTE	PATT
	 POIN2	sky_tower_10 + 0x9E
	BYTE	PATT
	 POIN2	sky_tower_10 + 0xCB
	BYTE	PATT
	 POIN2	sky_tower_10 + 0x45
	BYTE	PATT
	 POIN2	sky_tower_10 + 0x72
	BYTE	W12
	BYTE		N06     An4   v072
	BYTE	W72
	BYTE		N03     An4   v080
	BYTE	W12
	BYTE	PATT
	 POIN2	sky_tower_10 + 0x155
	BYTE	PATT
	 POIN2	sky_tower_10 + 0x45
	BYTE	PATT
	 POIN2	sky_tower_10 + 0x72
	BYTE	PATT
	 POIN2	sky_tower_10 + 0x9E
	BYTE	PATT
	 POIN2	sky_tower_10 + 0xCB
	BYTE	GoTo
	 POIN2	sky_tower_10 + 0xF6
	BYTE	FINE

//******************************************************//

	ALIGN 4

sky_tower:
	BYTE	11	// NumTrks
	BYTE	0	// NumBlks
	BYTE	sky_tower_pri	// Priority
	BYTE	sky_tower_rev	// Reverb

	POIN2	sky_tower_grp

	POIN2	sky_tower_0
	POIN2	sky_tower_1
	POIN2	sky_tower_2
	POIN2	sky_tower_3
	POIN2	sky_tower_4
	POIN2	sky_tower_5
	POIN2	sky_tower_6
	POIN2	sky_tower_7
	POIN2	sky_tower_8
	POIN2	sky_tower_9
	POIN2	sky_tower_10

	
