//Event file generated from Sappy .s format.
// File generated by m4a2s Song-Module
	#include "MPlayDef.event"

	#define	staff_roll_credits_grp  bank_000
	#define	staff_roll_credits_pri  50
	#define	staff_roll_credits_rev  193
	#define	staff_roll_credits_mvl  127
	#define	staff_roll_credits_key  0

	// .rodata
	//	staff_roll_credits
	ALIGN 4

//*********************** Track 01 ***********************//

staff_roll_credits_0:
	BYTE	KEYSH   staff_roll_credits_key+0
	BYTE	TEMPO   70/2
	BYTE		VOICE   14
	BYTE		VOL     80*staff_roll_credits_mvl/mxv
	BYTE		PAN     c_v+0
	BYTE	W01
	BYTE		MOD     70
	BYTE		LFOS    32
	BYTE		MODT    mod_pan
	BYTE	W32
	BYTE	W03
	BYTE	W96
	BYTE	W96
	BYTE	W96
	BYTE	W96
	BYTE	W96
	BYTE	W96
	BYTE	W96
	BYTE	W48
	BYTE	TEMPO   50/2
	BYTE	W24
	BYTE	TEMPO   30/2
	BYTE	W12
	BYTE	TEMPO   100/2
	BYTE	W12
	BYTE	W48
	BYTE		N06     Gn3   v072
	BYTE	W12
	BYTE		        Gn3   v036
	BYTE	W12
	BYTE		        Gn3   v020
	BYTE	W12
	BYTE		        Gn3   v012
	BYTE	W12
	BYTE	PEND
	BYTE		N06     An3   v072
	BYTE	W12
	BYTE		        An3   v036
	BYTE	W12
	BYTE		        An3   v020
	BYTE	W12
	BYTE		        An3   v012
	BYTE	W12
	BYTE		        Dn4   v072
	BYTE	W12
	BYTE		        Dn4   v036
	BYTE	W12
	BYTE		        Dn4   v020
	BYTE	W12
	BYTE		        Dn4   v012
	BYTE	W12
	BYTE	PEND
	BYTE	PATT
	 POIN2	staff_roll_credits_0 + 0x24
	BYTE		N06     An3   v072
	BYTE	W12
	BYTE		        An3   v036
	BYTE	W12
	BYTE		        An3   v020
	BYTE	W12
	BYTE		        An3   v012
	BYTE	W12
	BYTE		        Bn3   v072
	BYTE	W12
	BYTE		        Bn3   v036
	BYTE	W12
	BYTE		        Bn3   v020
	BYTE	W12
	BYTE		        Bn3   v012
	BYTE	W12
	BYTE	PEND
	BYTE	PATT
	 POIN2	staff_roll_credits_0 + 0x24
	BYTE	PATT
	 POIN2	staff_roll_credits_0 + 0x33
	BYTE	PATT
	 POIN2	staff_roll_credits_0 + 0x24
	BYTE	PATT
	 POIN2	staff_roll_credits_0 + 0x52
	BYTE	TEMPO   94/2
	BYTE	W96
	BYTE	W96
	BYTE	W96
	BYTE	W96
	BYTE	W96
	BYTE	TEMPO   92/2
	BYTE	W48
	BYTE	TEMPO   80/2
	BYTE	W48
	BYTE	TEMPO   124/2
	BYTE	W96
	BYTE	W96
	BYTE	W96
	BYTE	W96
	BYTE	W96
	BYTE	W96
	BYTE	W96
	BYTE	W96
	BYTE	W96
	BYTE	W92
	BYTE	W02
	BYTE		VOICE   76
	BYTE		VOL     113*staff_roll_credits_mvl/mxv
	BYTE		PAN     c_v+0
	BYTE	W01
	BYTE		MOD     70
	BYTE		LFOS    25
	BYTE		MODT    mod_tre
	BYTE	W01
	BYTE	W96
	BYTE	W48
	BYTE		N12     As4   v096
	BYTE	W17
	BYTE		N03     As4   v108
	BYTE	W07
	BYTE		N03
	BYTE	W07
	BYTE		        Gs4   v088
	BYTE	W07
	BYTE		        As4   v108
	BYTE	W09
	BYTE		N16     Ds5   v076
	BYTE	W01
	BYTE	W44
	BYTE	W03
	BYTE		N11     As4   v096
	BYTE	W17
	BYTE		N03     As4   v100
	BYTE	W07
	BYTE		        As4   v108
	BYTE	W07
	BYTE		N04     Gs4   v088
	BYTE	W09
	BYTE		        As4   v108
	BYTE	W08
	BYTE		N16     Ds4   v096
	BYTE	W01
	BYTE	PEND
	BYTE	W44
	BYTE	W03
	BYTE		N11     As4   v096
	BYTE	W16
	BYTE		N03     As4   v100
	BYTE	W08
	BYTE		N03
	BYTE	W07
	BYTE		N04     Gs4   v088
	BYTE	W11
	BYTE		N03     Gn4   v100
	BYTE	W07
	BYTE	PEND
	BYTE		N11     Ds4   v108
	BYTE	W24
	BYTE		        Fn4 
	BYTE	W24
	BYTE		        Gn4 
	BYTE	W24
	BYTE		        Gs4 
	BYTE	W24
	BYTE	PEND
	BYTE		N13     As4 
	BYTE	W48
	BYTE		N12     As4   v096
	BYTE	W17
	BYTE		N03     As4   v108
	BYTE	W07
	BYTE		N03
	BYTE	W07
	BYTE		        Gs4   v088
	BYTE	W07
	BYTE		        As4   v108
	BYTE	W09
	BYTE		N16     Ds5   v076
	BYTE	W01
	BYTE	PATT
	 POIN2	staff_roll_credits_0 + 0xBE
	BYTE	PATT
	 POIN2	staff_roll_credits_0 + 0xD7
	BYTE	PATT
	 POIN2	staff_roll_credits_0 + 0xEC
	BYTE		N13     As4   v108
	BYTE	W96
	BYTE	W96
	BYTE	W96
	BYTE	W96
	BYTE	W96
	BYTE	W96
	BYTE	W92
	BYTE	W02
	BYTE		VOICE   76
	BYTE		VOL     94*staff_roll_credits_mvl/mxv
	BYTE		PAN     c_v+0
	BYTE	W01
	BYTE		MOD     70
	BYTE		LFOS    25
	BYTE		MODT    mod_tre
	BYTE	W01
	BYTE	W96
	BYTE	W48
	BYTE		N12     As4   v088
	BYTE	W17
	BYTE		N03     As4   v096
	BYTE	W07
	BYTE		N03
	BYTE	W07
	BYTE		        Gs4   v076
	BYTE	W07
	BYTE		        As4   v096
	BYTE	W09
	BYTE		N16     Ds5   v068
	BYTE	W01
	BYTE	W44
	BYTE	W03
	BYTE		N11     As4   v088
	BYTE	W17
	BYTE		N03     As4   v092
	BYTE	W07
	BYTE		        As4   v096
	BYTE	W07
	BYTE		N04     Gs4   v076
	BYTE	W09
	BYTE		        As4   v096
	BYTE	W08
	BYTE		N16     Ds4   v088
	BYTE	W01
	BYTE	PEND
	BYTE	W44
	BYTE	W03
	BYTE		N11     As4   v088
	BYTE	W16
	BYTE		N03     As4   v092
	BYTE	W08
	BYTE		N03
	BYTE	W07
	BYTE		N04     Gs4   v076
	BYTE	W11
	BYTE		N03     Gn4   v092
	BYTE	W07
	BYTE	PEND
	BYTE		N11     Ds4   v096
	BYTE	W24
	BYTE		        Fn4 
	BYTE	W24
	BYTE		        Gn4 
	BYTE	W24
	BYTE		        Gs4 
	BYTE	W24
	BYTE	PEND
	BYTE		N13     As4 
	BYTE	W48
	BYTE		N12     As4   v088
	BYTE	W17
	BYTE		N03     As4   v096
	BYTE	W07
	BYTE		N03
	BYTE	W07
	BYTE		        Gs4   v076
	BYTE	W07
	BYTE		        As4   v096
	BYTE	W09
	BYTE		N16     Ds5   v068
	BYTE	W01
	BYTE	PATT
	 POIN2	staff_roll_credits_0 + 0x14C
	BYTE	PATT
	 POIN2	staff_roll_credits_0 + 0x165
	BYTE	PATT
	 POIN2	staff_roll_credits_0 + 0x17A
	BYTE		N13     As4   v096
	BYTE	W96
	BYTE	W96
	BYTE	W96
	BYTE	W96
	BYTE	W96
	BYTE	W96
	BYTE	W92
	BYTE	W02
	BYTE		VOICE   51
	BYTE		VOL     75*staff_roll_credits_mvl/mxv
	BYTE		PAN     c_v-10
	BYTE	W01
	BYTE		MOD     70
	BYTE		LFOS    25
	BYTE		MODT    mod_tre
	BYTE	W01
	BYTE	W92
	BYTE	W03
	BYTE		VOL     75*staff_roll_credits_mvl/mxv
	BYTE	W01
	BYTE	PEND
	BYTE		N24     Cs3   v060
	BYTE	W24
	BYTE		        As3   v048
	BYTE	W24
	BYTE		        Gs3   v072
	BYTE	W01
	BYTE		VOL     65*staff_roll_credits_mvl/mxv
	BYTE	W07
	BYTE		        61*staff_roll_credits_mvl/mxv
	BYTE	W05
	BYTE		        57*staff_roll_credits_mvl/mxv
	BYTE	W06
	BYTE		        53*staff_roll_credits_mvl/mxv
	BYTE	W05
	BYTE		N24     Cs4 
	BYTE	W02
	BYTE		VOL     48*staff_roll_credits_mvl/mxv
	BYTE	W05
	BYTE		        45*staff_roll_credits_mvl/mxv
	BYTE	W06
	BYTE		        42*staff_roll_credits_mvl/mxv
	BYTE	W05
	BYTE		        38*staff_roll_credits_mvl/mxv
	BYTE	W06
	BYTE	PEND
	BYTE		TIE     As3   v080
	BYTE	W01
	BYTE		VOL     37*staff_roll_credits_mvl/mxv
	BYTE	W06
	BYTE		        38*staff_roll_credits_mvl/mxv
	BYTE	W05
	BYTE		        39*staff_roll_credits_mvl/mxv
	BYTE	W05
	BYTE		        39*staff_roll_credits_mvl/mxv
	BYTE	W06
	BYTE		        41*staff_roll_credits_mvl/mxv
	BYTE	W05
	BYTE		        41*staff_roll_credits_mvl/mxv
	BYTE	W05
	BYTE		        42*staff_roll_credits_mvl/mxv
	BYTE	W05
	BYTE		        43*staff_roll_credits_mvl/mxv
	BYTE	W06
	BYTE		        44*staff_roll_credits_mvl/mxv
	BYTE	W05
	BYTE		        45*staff_roll_credits_mvl/mxv
	BYTE	W05
	BYTE		        46*staff_roll_credits_mvl/mxv
	BYTE	W06
	BYTE		        47*staff_roll_credits_mvl/mxv
	BYTE	W05
	BYTE		        48*staff_roll_credits_mvl/mxv
	BYTE	W05
	BYTE		        50*staff_roll_credits_mvl/mxv
	BYTE	W05
	BYTE		        51*staff_roll_credits_mvl/mxv
	BYTE	W06
	BYTE		        55*staff_roll_credits_mvl/mxv
	BYTE	W05
	BYTE		        58*staff_roll_credits_mvl/mxv
	BYTE	W05
	BYTE		        61*staff_roll_credits_mvl/mxv
	BYTE	W05
	BYTE	PEND
	BYTE		VOL     64*staff_roll_credits_mvl/mxv
	BYTE	W06
	BYTE		        68*staff_roll_credits_mvl/mxv
	BYTE	W05
	BYTE		        70*staff_roll_credits_mvl/mxv
	BYTE	W05
	BYTE		        73*staff_roll_credits_mvl/mxv
	BYTE	W06
	BYTE		        71*staff_roll_credits_mvl/mxv
	BYTE	W05
	BYTE		        69*staff_roll_credits_mvl/mxv
	BYTE	W05
	BYTE		        68*staff_roll_credits_mvl/mxv
	BYTE	W05
	BYTE		        66*staff_roll_credits_mvl/mxv
	BYTE	W06
	BYTE		        64*staff_roll_credits_mvl/mxv
	BYTE	W05
	BYTE		        59*staff_roll_credits_mvl/mxv
	BYTE	W05
	BYTE		        53*staff_roll_credits_mvl/mxv
	BYTE	W06
	BYTE		        46*staff_roll_credits_mvl/mxv
	BYTE	W05
	BYTE		        40*staff_roll_credits_mvl/mxv
	BYTE	W05
	BYTE		        34*staff_roll_credits_mvl/mxv
	BYTE	W05
	BYTE		        28*staff_roll_credits_mvl/mxv
	BYTE	W06
	BYTE		        20*staff_roll_credits_mvl/mxv
	BYTE	W05
	BYTE		        15*staff_roll_credits_mvl/mxv
	BYTE	W05
	BYTE		        8*staff_roll_credits_mvl/mxv
	BYTE	W06
	BYTE	PEND
	BYTE		EOT     As3 
	BYTE	PATT
	 POIN2	staff_roll_credits_0 + 0x1C4
	BYTE	PATT
	 POIN2	staff_roll_credits_0 + 0x1CA
	BYTE	PATT
	 POIN2	staff_roll_credits_0 + 0x1EA
	BYTE	PATT
	 POIN2	staff_roll_credits_0 + 0x214
	BYTE		EOT     As3 
	BYTE	W96
	BYTE	W96
	BYTE	W96
	BYTE	W96
	BYTE	W96
	BYTE	W96
	BYTE	W96
	BYTE	W96
	BYTE	W96
	BYTE	W96
	BYTE	W96
	BYTE	W96
	BYTE	W96
	BYTE	W96
	BYTE	GoTo
	 POIN2	staff_roll_credits_0 + 0x125
	BYTE	W96
	BYTE	W96
	BYTE	W96
	BYTE	W96
	BYTE	W96
	BYTE	W96
	BYTE	W96
	BYTE	W96
	BYTE	W96
	BYTE	W96
	BYTE	W96
	BYTE	W96
	BYTE	TEMPO   80/2
	BYTE	FINE

//*********************** Track 02 ***********************//

staff_roll_credits_1:
	BYTE	KEYSH   staff_roll_credits_key+0
	BYTE	W02
	BYTE		VOICE   118
	BYTE		VOL     54*staff_roll_credits_mvl/mxv
	BYTE		PAN     c_v+0
	BYTE	W01
	BYTE		MOD     60
	BYTE		LFOS    25
	BYTE		MODT    mod_tre
	BYTE	W32
	BYTE	W01
	BYTE	W96
	BYTE	W96
	BYTE	W96
	BYTE	W96
	BYTE	W96
	BYTE	W96
	BYTE	W96
	BYTE	W96
	BYTE	W96
	BYTE	W96
	BYTE	W96
	BYTE	W96
	BYTE	W96
	BYTE	W96
	BYTE	W96
	BYTE	W96
	BYTE	W96
	BYTE	W96
	BYTE	W96
	BYTE		VOICE   118
	BYTE		VOL     120*staff_roll_credits_mvl/mxv
	BYTE		PAN     c_v+0
	BYTE	W01
	BYTE		MOD     55
	BYTE		LFOS    30
	BYTE		MODT    mod_tre
	BYTE	W92
	BYTE	W03
	BYTE	W96
	BYTE		N18     Ds3   v112
	BYTE		N18     Fs3   v120
	BYTE	W24
	BYTE		        Fs3   v112
	BYTE		N18     As3   v120
	BYTE	W24
	BYTE		        Fn3   v112
	BYTE		N18     Gs3   v120
	BYTE	W24
	BYTE		        Gs3   v112
	BYTE		N18     Cs4   v120
	BYTE	W23
	BYTE		VOICE   72
	BYTE		VOL     113*staff_roll_credits_mvl/mxv
	BYTE	W01
	BYTE		TIE     As3   v100
	BYTE	W96
	BYTE	W96
	BYTE		EOT
	BYTE	W96
	BYTE		N18     Fn3   v120
	BYTE	W24
	BYTE		        As3 
	BYTE	W24
	BYTE		        Gs3 
	BYTE	W24
	BYTE		        Cs4 
	BYTE	W24
	BYTE		N30     As3   v127
	BYTE	W40
	BYTE	W01
	BYTE		N07     Gn3   v120
	BYTE	W06
	BYTE		N15     Gs3   v116
	BYTE	W15
	BYTE		N03     Gn3   v052
	BYTE	W03
	BYTE		N05     Gs3   v068
	BYTE	W03
	BYTE		N04     Gn3   v052
	BYTE	W03
	BYTE		N15     Fn3   v092
	BYTE	W24
	BYTE	W01
	BYTE	PEND
	BYTE		N30     Gn3   v127
	BYTE	W40
	BYTE	W01
	BYTE		N07     Ds3 
	BYTE	W06
	BYTE		N15     Fn3   v116
	BYTE	W15
	BYTE		N03     Ds3   v052
	BYTE	W03
	BYTE		N05     Fn3   v068
	BYTE	W03
	BYTE		N04     Ds3   v052
	BYTE	W03
	BYTE		N15     Cs3   v092
	BYTE	W24
	BYTE	W01
	BYTE	PEND
	BYTE		N96     Ds3   v120
	BYTE	W07
	BYTE		VOL     76*staff_roll_credits_mvl/mxv
	BYTE	W02
	BYTE		        76*staff_roll_credits_mvl/mxv
	BYTE	W02
	BYTE		        78*staff_roll_credits_mvl/mxv
	BYTE	W02
	BYTE		        81*staff_roll_credits_mvl/mxv
	BYTE	W02
	BYTE		        84*staff_roll_credits_mvl/mxv
	BYTE	W02
	BYTE		        85*staff_roll_credits_mvl/mxv
	BYTE	W02
	BYTE		        88*staff_roll_credits_mvl/mxv
	BYTE	W02
	BYTE		        91*staff_roll_credits_mvl/mxv
	BYTE	W01
	BYTE		        92*staff_roll_credits_mvl/mxv
	BYTE	W02
	BYTE		        95*staff_roll_credits_mvl/mxv
	BYTE	W02
	BYTE		        97*staff_roll_credits_mvl/mxv
	BYTE	W02
	BYTE		        100*staff_roll_credits_mvl/mxv
	BYTE	W02
	BYTE		        102*staff_roll_credits_mvl/mxv
	BYTE	W02
	BYTE		        104*staff_roll_credits_mvl/mxv
	BYTE	W02
	BYTE		        107*staff_roll_credits_mvl/mxv
	BYTE	W02
	BYTE		        110*staff_roll_credits_mvl/mxv
	BYTE	W02
	BYTE		        112*staff_roll_credits_mvl/mxv
	BYTE	W02
	BYTE		        115*staff_roll_credits_mvl/mxv
	BYTE	W02
	BYTE		        118*staff_roll_credits_mvl/mxv
	BYTE	W02
	BYTE		        117*staff_roll_credits_mvl/mxv
	BYTE	W02
	BYTE		        114*staff_roll_credits_mvl/mxv
	BYTE	W02
	BYTE		        110*staff_roll_credits_mvl/mxv
	BYTE	W02
	BYTE		        106*staff_roll_credits_mvl/mxv
	BYTE	W02
	BYTE		        102*staff_roll_credits_mvl/mxv
	BYTE	W04
	BYTE		        95*staff_roll_credits_mvl/mxv
	BYTE	W02
	BYTE		        91*staff_roll_credits_mvl/mxv
	BYTE	W02
	BYTE		        87*staff_roll_credits_mvl/mxv
	BYTE	W02
	BYTE		        84*staff_roll_credits_mvl/mxv
	BYTE	W02
	BYTE		        78*staff_roll_credits_mvl/mxv
	BYTE	W02
	BYTE		        72*staff_roll_credits_mvl/mxv
	BYTE	W02
	BYTE		        67*staff_roll_credits_mvl/mxv
	BYTE	W02
	BYTE		        61*staff_roll_credits_mvl/mxv
	BYTE	W02
	BYTE		        55*staff_roll_credits_mvl/mxv
	BYTE	W02
	BYTE		        49*staff_roll_credits_mvl/mxv
	BYTE	W02
	BYTE		        43*staff_roll_credits_mvl/mxv
	BYTE	W03
	BYTE		        34*staff_roll_credits_mvl/mxv
	BYTE	W16
	BYTE		VOICE   72
	BYTE		VOL     113*staff_roll_credits_mvl/mxv
	BYTE	W01
	BYTE	PEND
	BYTE		N18     Ds3   v120
	BYTE	W24
	BYTE		        As3 
	BYTE	W24
	BYTE		        Gs3 
	BYTE	W24
	BYTE		        Cs4 
	BYTE	W24
	BYTE	PEND
	BYTE	PATT
	 POIN2	staff_roll_credits_1 + 0x64
	BYTE	PATT
	 POIN2	staff_roll_credits_1 + 0x83
	BYTE		N96     Ds3   v120
	BYTE	W07
	BYTE		VOL     76*staff_roll_credits_mvl/mxv
	BYTE	W02
	BYTE		        76*staff_roll_credits_mvl/mxv
	BYTE	W02
	BYTE		        78*staff_roll_credits_mvl/mxv
	BYTE	W02
	BYTE		        81*staff_roll_credits_mvl/mxv
	BYTE	W02
	BYTE		        84*staff_roll_credits_mvl/mxv
	BYTE	W02
	BYTE		        85*staff_roll_credits_mvl/mxv
	BYTE	W02
	BYTE		        88*staff_roll_credits_mvl/mxv
	BYTE	W02
	BYTE		        91*staff_roll_credits_mvl/mxv
	BYTE	W01
	BYTE		        92*staff_roll_credits_mvl/mxv
	BYTE	W02
	BYTE		        95*staff_roll_credits_mvl/mxv
	BYTE	W02
	BYTE		        97*staff_roll_credits_mvl/mxv
	BYTE	W02
	BYTE		        100*staff_roll_credits_mvl/mxv
	BYTE	W02
	BYTE		        102*staff_roll_credits_mvl/mxv
	BYTE	W02
	BYTE		        104*staff_roll_credits_mvl/mxv
	BYTE	W02
	BYTE		        107*staff_roll_credits_mvl/mxv
	BYTE	W02
	BYTE		        110*staff_roll_credits_mvl/mxv
	BYTE	W02
	BYTE		        112*staff_roll_credits_mvl/mxv
	BYTE	W02
	BYTE		        115*staff_roll_credits_mvl/mxv
	BYTE	W02
	BYTE		        118*staff_roll_credits_mvl/mxv
	BYTE	W02
	BYTE		        117*staff_roll_credits_mvl/mxv
	BYTE	W02
	BYTE		        114*staff_roll_credits_mvl/mxv
	BYTE	W02
	BYTE		        110*staff_roll_credits_mvl/mxv
	BYTE	W02
	BYTE		        106*staff_roll_credits_mvl/mxv
	BYTE	W02
	BYTE		        102*staff_roll_credits_mvl/mxv
	BYTE	W04
	BYTE		        95*staff_roll_credits_mvl/mxv
	BYTE	W02
	BYTE		        91*staff_roll_credits_mvl/mxv
	BYTE	W02
	BYTE		        87*staff_roll_credits_mvl/mxv
	BYTE	W02
	BYTE		        84*staff_roll_credits_mvl/mxv
	BYTE	W02
	BYTE		        78*staff_roll_credits_mvl/mxv
	BYTE	W02
	BYTE		        72*staff_roll_credits_mvl/mxv
	BYTE	W02
	BYTE		        67*staff_roll_credits_mvl/mxv
	BYTE	W02
	BYTE		        61*staff_roll_credits_mvl/mxv
	BYTE	W02
	BYTE		        55*staff_roll_credits_mvl/mxv
	BYTE	W02
	BYTE		        49*staff_roll_credits_mvl/mxv
	BYTE	W02
	BYTE		        43*staff_roll_credits_mvl/mxv
	BYTE	W03
	BYTE		        34*staff_roll_credits_mvl/mxv
	BYTE	W17
	BYTE	PEND
	BYTE	W96
	BYTE	W96
	BYTE	W96
	BYTE	W96
	BYTE	W96
	BYTE	W96
	BYTE	W96
	BYTE	W92
	BYTE	W03
	BYTE		VOICE   72
	BYTE		VOL     113*staff_roll_credits_mvl/mxv
	BYTE	W01
	BYTE	PEND
	BYTE	PATT
	 POIN2	staff_roll_credits_1 + 0xF4
	BYTE	PATT
	 POIN2	staff_roll_credits_1 + 0x64
	BYTE	PATT
	 POIN2	staff_roll_credits_1 + 0x83
	BYTE	PATT
	 POIN2	staff_roll_credits_1 + 0xA1
	BYTE	PATT
	 POIN2	staff_roll_credits_1 + 0xF4
	BYTE	PATT
	 POIN2	staff_roll_credits_1 + 0x64
	BYTE	PATT
	 POIN2	staff_roll_credits_1 + 0x83
	BYTE	PATT
	 POIN2	staff_roll_credits_1 + 0x109
	BYTE	W96
	BYTE	W96
	BYTE	W96
	BYTE	W96
	BYTE	W96
	BYTE	W96
	BYTE	W60
	BYTE		VOICE   14
	BYTE		VOL     94*staff_roll_credits_mvl/mxv
	BYTE		PAN     c_v+0
	BYTE	W01
	BYTE		MOD     70
	BYTE		LFOS    32
	BYTE		MODT    mod_pan
	BYTE	W32
	BYTE	W03
	BYTE	W96
	BYTE	W96
	BYTE	W48
	BYTE		N06     Gs3   v072
	BYTE	W12
	BYTE		        Gs3   v036
	BYTE	W12
	BYTE		        Gs3   v020
	BYTE	W12
	BYTE		        Gs3   v012
	BYTE	W12
	BYTE	PEND
	BYTE		N06     As3   v072
	BYTE	W12
	BYTE		        As3   v036
	BYTE	W12
	BYTE		        As3   v020
	BYTE	W12
	BYTE		        As3   v012
	BYTE	W12
	BYTE		        Ds4   v072
	BYTE	W12
	BYTE		        Ds4   v036
	BYTE	W12
	BYTE		        Ds4   v020
	BYTE	W12
	BYTE		        Ds4   v012
	BYTE	W12
	BYTE	PEND
	BYTE	PATT
	 POIN2	staff_roll_credits_1 + 0x1A6
	BYTE		N06     As3   v072
	BYTE	W12
	BYTE		        As3   v036
	BYTE	W12
	BYTE		        As3   v020
	BYTE	W12
	BYTE		        As3   v012
	BYTE	W12
	BYTE		        Cs4   v072
	BYTE	W12
	BYTE		        Cs4   v036
	BYTE	W12
	BYTE		        Cs4   v020
	BYTE	W12
	BYTE		        Cs4   v012
	BYTE	W12
	BYTE	PEND
	BYTE	PATT
	 POIN2	staff_roll_credits_1 + 0x1A6
	BYTE	PATT
	 POIN2	staff_roll_credits_1 + 0x1B5
	BYTE	PATT
	 POIN2	staff_roll_credits_1 + 0x1A6
	BYTE	PATT
	 POIN2	staff_roll_credits_1 + 0x1D4
	BYTE	W96
	BYTE	W96
	BYTE	W96
	BYTE	W96
	BYTE	W96
	BYTE	W12
	BYTE		VOICE   72
	BYTE		VOL     113*staff_roll_credits_mvl/mxv
	BYTE		PAN     c_v+0
	BYTE	W01
	BYTE		MOD     55
	BYTE		LFOS    30
	BYTE		MODT    mod_tre
	BYTE	W80
	BYTE	W03
	BYTE	W96
	BYTE		N18     Cs3   v112
	BYTE	W24
	BYTE		        As3 
	BYTE	W24
	BYTE		        Gs3 
	BYTE	W24
	BYTE		        Cs4 
	BYTE	W24
	BYTE	PEND
	BYTE		TIE     As3   v112
	BYTE	W01
	BYTE		VOL     84*staff_roll_credits_mvl/mxv
	BYTE	W06
	BYTE		        85*staff_roll_credits_mvl/mxv
	BYTE	W05
	BYTE		        85*staff_roll_credits_mvl/mxv
	BYTE	W05
	BYTE		        85*staff_roll_credits_mvl/mxv
	BYTE	W06
	BYTE		        87*staff_roll_credits_mvl/mxv
	BYTE	W05
	BYTE		        87*staff_roll_credits_mvl/mxv
	BYTE	W05
	BYTE		        88*staff_roll_credits_mvl/mxv
	BYTE	W05
	BYTE		        89*staff_roll_credits_mvl/mxv
	BYTE	W06
	BYTE		        90*staff_roll_credits_mvl/mxv
	BYTE	W05
	BYTE		        91*staff_roll_credits_mvl/mxv
	BYTE	W05
	BYTE		        92*staff_roll_credits_mvl/mxv
	BYTE	W06
	BYTE		        93*staff_roll_credits_mvl/mxv
	BYTE	W05
	BYTE		        94*staff_roll_credits_mvl/mxv
	BYTE	W05
	BYTE		        96*staff_roll_credits_mvl/mxv
	BYTE	W05
	BYTE		        98*staff_roll_credits_mvl/mxv
	BYTE	W06
	BYTE		        102*staff_roll_credits_mvl/mxv
	BYTE	W05
	BYTE		        104*staff_roll_credits_mvl/mxv
	BYTE	W05
	BYTE		        107*staff_roll_credits_mvl/mxv
	BYTE	W05
	BYTE	PEND
	BYTE		VOL     110*staff_roll_credits_mvl/mxv
	BYTE	W06
	BYTE		        114*staff_roll_credits_mvl/mxv
	BYTE	W05
	BYTE		        117*staff_roll_credits_mvl/mxv
	BYTE	W05
	BYTE		        120*staff_roll_credits_mvl/mxv
	BYTE	W06
	BYTE		        118*staff_roll_credits_mvl/mxv
	BYTE	W05
	BYTE		        116*staff_roll_credits_mvl/mxv
	BYTE	W05
	BYTE		        114*staff_roll_credits_mvl/mxv
	BYTE	W05
	BYTE		        112*staff_roll_credits_mvl/mxv
	BYTE	W06
	BYTE		        110*staff_roll_credits_mvl/mxv
	BYTE	W05
	BYTE		        105*staff_roll_credits_mvl/mxv
	BYTE	W05
	BYTE		        100*staff_roll_credits_mvl/mxv
	BYTE	W06
	BYTE		        92*staff_roll_credits_mvl/mxv
	BYTE	W05
	BYTE		        86*staff_roll_credits_mvl/mxv
	BYTE	W05
	BYTE		        80*staff_roll_credits_mvl/mxv
	BYTE	W05
	BYTE		        74*staff_roll_credits_mvl/mxv
	BYTE	W06
	BYTE		        67*staff_roll_credits_mvl/mxv
	BYTE	W05
	BYTE		        61*staff_roll_credits_mvl/mxv
	BYTE	W05
	BYTE		        54*staff_roll_credits_mvl/mxv
	BYTE	W06
	BYTE	PEND
	BYTE		EOT     As3 
	BYTE	W96
	BYTE	PATT
	 POIN2	staff_roll_credits_1 + 0x218
	BYTE	PATT
	 POIN2	staff_roll_credits_1 + 0x223
	BYTE	PATT
	 POIN2	staff_roll_credits_1 + 0x24D
	BYTE		EOT     As3 
	BYTE	PATT
	 POIN2	staff_roll_credits_1 + 0x15E
	BYTE	PATT
	 POIN2	staff_roll_credits_1 + 0xF4
	BYTE	PATT
	 POIN2	staff_roll_credits_1 + 0x64
	BYTE	PATT
	 POIN2	staff_roll_credits_1 + 0x83
	BYTE		N96     Ds3   v120
	BYTE	W07
	BYTE		VOL     76*staff_roll_credits_mvl/mxv
	BYTE	W02
	BYTE		        76*staff_roll_credits_mvl/mxv
	BYTE	W02
	BYTE		        78*staff_roll_credits_mvl/mxv
	BYTE	W02
	BYTE		        81*staff_roll_credits_mvl/mxv
	BYTE	W02
	BYTE		        84*staff_roll_credits_mvl/mxv
	BYTE	W02
	BYTE		        85*staff_roll_credits_mvl/mxv
	BYTE	W02
	BYTE		        88*staff_roll_credits_mvl/mxv
	BYTE	W02
	BYTE		        91*staff_roll_credits_mvl/mxv
	BYTE	W01
	BYTE		        92*staff_roll_credits_mvl/mxv
	BYTE	W02
	BYTE		        95*staff_roll_credits_mvl/mxv
	BYTE	W02
	BYTE		        97*staff_roll_credits_mvl/mxv
	BYTE	W02
	BYTE		        100*staff_roll_credits_mvl/mxv
	BYTE	W02
	BYTE		        102*staff_roll_credits_mvl/mxv
	BYTE	W02
	BYTE		        104*staff_roll_credits_mvl/mxv
	BYTE	W02
	BYTE		        107*staff_roll_credits_mvl/mxv
	BYTE	W02
	BYTE		        110*staff_roll_credits_mvl/mxv
	BYTE	W02
	BYTE		        112*staff_roll_credits_mvl/mxv
	BYTE	W02
	BYTE		        115*staff_roll_credits_mvl/mxv
	BYTE	W02
	BYTE		        118*staff_roll_credits_mvl/mxv
	BYTE	W02
	BYTE		        117*staff_roll_credits_mvl/mxv
	BYTE	W02
	BYTE		        114*staff_roll_credits_mvl/mxv
	BYTE	W02
	BYTE		        110*staff_roll_credits_mvl/mxv
	BYTE	W02
	BYTE		        106*staff_roll_credits_mvl/mxv
	BYTE	W02
	BYTE		        102*staff_roll_credits_mvl/mxv
	BYTE	W04
	BYTE		        95*staff_roll_credits_mvl/mxv
	BYTE	W02
	BYTE		        91*staff_roll_credits_mvl/mxv
	BYTE	W02
	BYTE		        87*staff_roll_credits_mvl/mxv
	BYTE	W02
	BYTE		        84*staff_roll_credits_mvl/mxv
	BYTE	W02
	BYTE		        78*staff_roll_credits_mvl/mxv
	BYTE	W02
	BYTE		        72*staff_roll_credits_mvl/mxv
	BYTE	W02
	BYTE		        67*staff_roll_credits_mvl/mxv
	BYTE	W02
	BYTE		        61*staff_roll_credits_mvl/mxv
	BYTE	W02
	BYTE		        55*staff_roll_credits_mvl/mxv
	BYTE	W02
	BYTE		        49*staff_roll_credits_mvl/mxv
	BYTE	W02
	BYTE		        43*staff_roll_credits_mvl/mxv
	BYTE	W03
	BYTE		        34*staff_roll_credits_mvl/mxv
	BYTE	W16
	BYTE		        120*staff_roll_credits_mvl/mxv
	BYTE	W01
	BYTE		N18     Ds3   v127
	BYTE	W24
	BYTE		        As3 
	BYTE	W24
	BYTE		        Gs3 
	BYTE	W24
	BYTE		        Cs4 
	BYTE	W24
	BYTE	GoTo
	 POIN2	staff_roll_credits_1 + 0x17F
	BYTE	W96
	BYTE	W96
	BYTE	W96
	BYTE	W96
	BYTE	W96
	BYTE	W96
	BYTE	W96
	BYTE	W96
	BYTE	W96
	BYTE	W96
	BYTE	W96
	BYTE	W96
	BYTE	FINE

//*********************** Track 03 ***********************//

staff_roll_credits_2:
	BYTE	KEYSH   staff_roll_credits_key+0
	BYTE	W04
	BYTE		VOICE   51
	BYTE		MOD     0
	BYTE		LFOS    26
	BYTE	W01
	BYTE		VOL     67*staff_roll_credits_mvl/mxv
	BYTE		PAN     c_v+0
	BYTE		MODT    mod_vib
	BYTE	W30
	BYTE	W01
	BYTE	W96
	BYTE	W96
	BYTE	W96
	BYTE	W96
	BYTE	W96
	BYTE	W96
	BYTE	W96
	BYTE	W07
	BYTE		VOICE   51
	BYTE		PAN     c_v+0
	BYTE	W01
	BYTE		MOD     60
	BYTE		MODT    mod_pan
	BYTE	W84
	BYTE	W03
	BYTE		VOL     22*staff_roll_credits_mvl/mxv
	BYTE	W01
	BYTE		N04     Dn4   v056
	BYTE	W02
	BYTE		VOL     27*staff_roll_credits_mvl/mxv
	BYTE	W02
	BYTE		        30*staff_roll_credits_mvl/mxv
	BYTE	W02
	BYTE		        35*staff_roll_credits_mvl/mxv
	BYTE	W02
	BYTE		        41*staff_roll_credits_mvl/mxv
	BYTE		N04     Gn3   v020
	BYTE	W03
	BYTE		VOL     50*staff_roll_credits_mvl/mxv
	BYTE	W02
	BYTE		        55*staff_roll_credits_mvl/mxv
	BYTE	W02
	BYTE		        61*staff_roll_credits_mvl/mxv
	BYTE	W01
	BYTE		N04     An3   v040
	BYTE	W01
	BYTE		VOL     67*staff_roll_credits_mvl/mxv
	BYTE	W02
	BYTE		        72*staff_roll_credits_mvl/mxv
	BYTE	W02
	BYTE		        71*staff_roll_credits_mvl/mxv
	BYTE	W02
	BYTE		        75*staff_roll_credits_mvl/mxv
	BYTE	W01
	BYTE		N04     Dn4   v056
	BYTE	W01
	BYTE		VOL     78*staff_roll_credits_mvl/mxv
	BYTE	W04
	BYTE		        84*staff_roll_credits_mvl/mxv
	BYTE	W02
	BYTE		        86*staff_roll_credits_mvl/mxv
	BYTE	W01
	BYTE		N04     Gn3   v020
	BYTE	W01
	BYTE		VOL     89*staff_roll_credits_mvl/mxv
	BYTE	W02
	BYTE		        93*staff_roll_credits_mvl/mxv
	BYTE	W02
	BYTE		        95*staff_roll_credits_mvl/mxv
	BYTE	W03
	BYTE		N04     An3   v040
	BYTE	W08
	BYTE		        Dn4   v056
	BYTE	W08
	BYTE		        Gn3   v020
	BYTE	W08
	BYTE		        An3   v040
	BYTE	W08
	BYTE		        Dn4   v056
	BYTE	W08
	BYTE		        Gn3   v020
	BYTE	W08
	BYTE		        An3   v040
	BYTE	W08
	BYTE		N04     Dn4   v056
	BYTE	W08
	BYTE		        Gn3   v020
	BYTE	W01
	BYTE		VOL     95*staff_roll_credits_mvl/mxv
	BYTE	W02
	BYTE		        94*staff_roll_credits_mvl/mxv
	BYTE	W02
	BYTE		        93*staff_roll_credits_mvl/mxv
	BYTE	W02
	BYTE		        92*staff_roll_credits_mvl/mxv
	BYTE	W01
	BYTE		N04     An3   v040
	BYTE	W01
	BYTE		VOL     91*staff_roll_credits_mvl/mxv
	BYTE	W02
	BYTE		        90*staff_roll_credits_mvl/mxv
	BYTE	W02
	BYTE		        89*staff_roll_credits_mvl/mxv
	BYTE	W02
	BYTE		        88*staff_roll_credits_mvl/mxv
	BYTE	W01
	BYTE		        87*staff_roll_credits_mvl/mxv
	BYTE		N04     Dn4   v056
	BYTE	W02
	BYTE		VOL     86*staff_roll_credits_mvl/mxv
	BYTE	W02
	BYTE		        85*staff_roll_credits_mvl/mxv
	BYTE	W02
	BYTE		        82*staff_roll_credits_mvl/mxv
	BYTE	W02
	BYTE		        81*staff_roll_credits_mvl/mxv
	BYTE		N04     Gn3   v020
	BYTE	W02
	BYTE		VOL     79*staff_roll_credits_mvl/mxv
	BYTE	W02
	BYTE		        77*staff_roll_credits_mvl/mxv
	BYTE	W02
	BYTE		        75*staff_roll_credits_mvl/mxv
	BYTE	W01
	BYTE		        75*staff_roll_credits_mvl/mxv
	BYTE	W01
	BYTE		N04     An3   v040
	BYTE	W01
	BYTE		VOL     73*staff_roll_credits_mvl/mxv
	BYTE	W02
	BYTE		        71*staff_roll_credits_mvl/mxv
	BYTE	W02
	BYTE		        69*staff_roll_credits_mvl/mxv
	BYTE	W02
	BYTE		        68*staff_roll_credits_mvl/mxv
	BYTE	W01
	BYTE		N04     Dn4   v056
	BYTE	W01
	BYTE		VOL     67*staff_roll_credits_mvl/mxv
	BYTE	W02
	BYTE		        65*staff_roll_credits_mvl/mxv
	BYTE	W02
	BYTE		        61*staff_roll_credits_mvl/mxv
	BYTE	W01
	BYTE		        59*staff_roll_credits_mvl/mxv
	BYTE	W02
	BYTE		        56*staff_roll_credits_mvl/mxv
	BYTE		N04     Gn3   v020
	BYTE	W02
	BYTE		VOL     52*staff_roll_credits_mvl/mxv
	BYTE	W02
	BYTE		        50*staff_roll_credits_mvl/mxv
	BYTE	W02
	BYTE		        47*staff_roll_credits_mvl/mxv
	BYTE	W02
	BYTE		        43*staff_roll_credits_mvl/mxv
	BYTE		N04     An3   v040
	BYTE	W02
	BYTE		VOL     40*staff_roll_credits_mvl/mxv
	BYTE	W02
	BYTE		        35*staff_roll_credits_mvl/mxv
	BYTE	W01
	BYTE		        34*staff_roll_credits_mvl/mxv
	BYTE	W02
	BYTE		        29*staff_roll_credits_mvl/mxv
	BYTE	W01
	BYTE		N04     Dn4   v056
	BYTE	W01
	BYTE		VOL     24*staff_roll_credits_mvl/mxv
	BYTE	W02
	BYTE		        20*staff_roll_credits_mvl/mxv
	BYTE	W02
	BYTE		        16*staff_roll_credits_mvl/mxv
	BYTE	W02
	BYTE		        11*staff_roll_credits_mvl/mxv
	BYTE	W01
	BYTE		N04     Gn3   v020
	BYTE	W01
	BYTE		VOL     7*staff_roll_credits_mvl/mxv
	BYTE	W07
	BYTE		N04     An3   v040
	BYTE	W07
	BYTE		VOL     0*staff_roll_credits_mvl/mxv
	BYTE	W01
	BYTE	PEND
	BYTE		N04     Dn4   v056
	BYTE	W02
	BYTE		VOL     4*staff_roll_credits_mvl/mxv
	BYTE	W02
	BYTE		        10*staff_roll_credits_mvl/mxv
	BYTE	W02
	BYTE		        15*staff_roll_credits_mvl/mxv
	BYTE	W02
	BYTE		        20*staff_roll_credits_mvl/mxv
	BYTE		N04     Gn3   v020
	BYTE	W03
	BYTE		VOL     28*staff_roll_credits_mvl/mxv
	BYTE	W02
	BYTE		        33*staff_roll_credits_mvl/mxv
	BYTE	W02
	BYTE		        38*staff_roll_credits_mvl/mxv
	BYTE	W01
	BYTE		N04     An3   v040
	BYTE	W01
	BYTE		VOL     43*staff_roll_credits_mvl/mxv
	BYTE	W02
	BYTE		        49*staff_roll_credits_mvl/mxv
	BYTE	W02
	BYTE		        53*staff_roll_credits_mvl/mxv
	BYTE	W02
	BYTE		        59*staff_roll_credits_mvl/mxv
	BYTE	W01
	BYTE		N04     Dn4   v056
	BYTE	W01
	BYTE		VOL     64*staff_roll_credits_mvl/mxv
	BYTE	W04
	BYTE		        74*staff_roll_credits_mvl/mxv
	BYTE	W02
	BYTE		        80*staff_roll_credits_mvl/mxv
	BYTE	W01
	BYTE		N04     Gn3   v020
	BYTE	W01
	BYTE		VOL     85*staff_roll_credits_mvl/mxv
	BYTE	W02
	BYTE		        90*staff_roll_credits_mvl/mxv
	BYTE	W02
	BYTE		        95*staff_roll_credits_mvl/mxv
	BYTE	W03
	BYTE		N04     An3   v040
	BYTE	W08
	BYTE		        Dn4   v056
	BYTE	W08
	BYTE		        Gn3   v020
	BYTE	W08
	BYTE		        An3   v040
	BYTE	W08
	BYTE		        Dn4   v056
	BYTE	W08
	BYTE		        Gn3   v020
	BYTE	W08
	BYTE		        An3   v040
	BYTE	W08
	BYTE	PEND
	BYTE	PATT
	 POIN2	staff_roll_credits_2 + 0x78
	BYTE	PATT
	 POIN2	staff_roll_credits_2 + 0xFF
	BYTE	PATT
	 POIN2	staff_roll_credits_2 + 0x78
	BYTE	PATT
	 POIN2	staff_roll_credits_2 + 0xFF
	BYTE		N04     Dn4   v056
	BYTE	W08
	BYTE		        Gn3   v020
	BYTE	W01
	BYTE		VOL     95*staff_roll_credits_mvl/mxv
	BYTE	W02
	BYTE		        94*staff_roll_credits_mvl/mxv
	BYTE	W02
	BYTE		        93*staff_roll_credits_mvl/mxv
	BYTE	W02
	BYTE		        92*staff_roll_credits_mvl/mxv
	BYTE	W01
	BYTE		N04     An3   v040
	BYTE	W01
	BYTE		VOL     91*staff_roll_credits_mvl/mxv
	BYTE	W02
	BYTE		        90*staff_roll_credits_mvl/mxv
	BYTE	W02
	BYTE		        89*staff_roll_credits_mvl/mxv
	BYTE	W02
	BYTE		        88*staff_roll_credits_mvl/mxv
	BYTE	W01
	BYTE		        87*staff_roll_credits_mvl/mxv
	BYTE		N04     Dn4   v056
	BYTE	W02
	BYTE		VOL     86*staff_roll_credits_mvl/mxv
	BYTE	W02
	BYTE		        85*staff_roll_credits_mvl/mxv
	BYTE	W02
	BYTE		        82*staff_roll_credits_mvl/mxv
	BYTE	W02
	BYTE		        81*staff_roll_credits_mvl/mxv
	BYTE		N04     Gn3   v020
	BYTE	W02
	BYTE		VOL     79*staff_roll_credits_mvl/mxv
	BYTE	W02
	BYTE		        77*staff_roll_credits_mvl/mxv
	BYTE	W02
	BYTE		        75*staff_roll_credits_mvl/mxv
	BYTE	W01
	BYTE		        75*staff_roll_credits_mvl/mxv
	BYTE	W01
	BYTE		N04     An3   v040
	BYTE	W01
	BYTE		VOL     73*staff_roll_credits_mvl/mxv
	BYTE	W02
	BYTE		        71*staff_roll_credits_mvl/mxv
	BYTE	W02
	BYTE		        69*staff_roll_credits_mvl/mxv
	BYTE	W02
	BYTE		        68*staff_roll_credits_mvl/mxv
	BYTE	W01
	BYTE		N04     Dn4   v056
	BYTE	W01
	BYTE		VOL     67*staff_roll_credits_mvl/mxv
	BYTE	W02
	BYTE		        65*staff_roll_credits_mvl/mxv
	BYTE	W02
	BYTE		        61*staff_roll_credits_mvl/mxv
	BYTE	W01
	BYTE		        59*staff_roll_credits_mvl/mxv
	BYTE	W02
	BYTE		        56*staff_roll_credits_mvl/mxv
	BYTE		N04     Gn3   v020
	BYTE	W02
	BYTE		VOL     52*staff_roll_credits_mvl/mxv
	BYTE	W02
	BYTE		        50*staff_roll_credits_mvl/mxv
	BYTE	W02
	BYTE		        47*staff_roll_credits_mvl/mxv
	BYTE	W02
	BYTE		        43*staff_roll_credits_mvl/mxv
	BYTE		N04     An3   v040
	BYTE	W02
	BYTE		VOL     40*staff_roll_credits_mvl/mxv
	BYTE	W02
	BYTE		        35*staff_roll_credits_mvl/mxv
	BYTE	W01
	BYTE		        34*staff_roll_credits_mvl/mxv
	BYTE	W02
	BYTE		        29*staff_roll_credits_mvl/mxv
	BYTE	W01
	BYTE		N04     Dn4   v056
	BYTE	W01
	BYTE		VOL     24*staff_roll_credits_mvl/mxv
	BYTE	W02
	BYTE		        20*staff_roll_credits_mvl/mxv
	BYTE	W02
	BYTE		        16*staff_roll_credits_mvl/mxv
	BYTE	W02
	BYTE		        11*staff_roll_credits_mvl/mxv
	BYTE	W01
	BYTE		N04     Gn3   v020
	BYTE	W01
	BYTE		VOL     7*staff_roll_credits_mvl/mxv
	BYTE	W07
	BYTE		N04     An3   v040
	BYTE	W07
	BYTE		VOICE   95
	BYTE		VOL     0*staff_roll_credits_mvl/mxv
	BYTE	W01
	BYTE		N03     Dn3   v127
	BYTE	W02
	BYTE		VOL     4*staff_roll_credits_mvl/mxv
	BYTE	W02
	BYTE		        10*staff_roll_credits_mvl/mxv
	BYTE	W02
	BYTE		        15*staff_roll_credits_mvl/mxv
	BYTE	W02
	BYTE		        20*staff_roll_credits_mvl/mxv
	BYTE		N03     Gn2 
	BYTE	W03
	BYTE		VOL     28*staff_roll_credits_mvl/mxv
	BYTE	W02
	BYTE		        33*staff_roll_credits_mvl/mxv
	BYTE	W02
	BYTE		        38*staff_roll_credits_mvl/mxv
	BYTE	W01
	BYTE		N03     An2 
	BYTE	W01
	BYTE		VOL     43*staff_roll_credits_mvl/mxv
	BYTE	W02
	BYTE		        49*staff_roll_credits_mvl/mxv
	BYTE	W02
	BYTE		        53*staff_roll_credits_mvl/mxv
	BYTE	W02
	BYTE		        59*staff_roll_credits_mvl/mxv
	BYTE	W01
	BYTE		N03     Dn3 
	BYTE	W01
	BYTE		VOL     64*staff_roll_credits_mvl/mxv
	BYTE	W04
	BYTE		        74*staff_roll_credits_mvl/mxv
	BYTE	W02
	BYTE		        80*staff_roll_credits_mvl/mxv
	BYTE	W01
	BYTE		N03     Gn2 
	BYTE	W01
	BYTE		VOL     85*staff_roll_credits_mvl/mxv
	BYTE	W02
	BYTE		        90*staff_roll_credits_mvl/mxv
	BYTE	W02
	BYTE		        95*staff_roll_credits_mvl/mxv
	BYTE	W03
	BYTE		N03     An2 
	BYTE	W08
	BYTE		        Dn3 
	BYTE	W08
	BYTE		        Gn2 
	BYTE	W08
	BYTE		        An2 
	BYTE	W08
	BYTE		        Dn3 
	BYTE	W08
	BYTE		        Gn2 
	BYTE	W08
	BYTE		        An2 
	BYTE	W08
	BYTE		        Dn3 
	BYTE	W08
	BYTE		        Gn2 
	BYTE	W01
	BYTE		VOL     95*staff_roll_credits_mvl/mxv
	BYTE	W02
	BYTE		        94*staff_roll_credits_mvl/mxv
	BYTE	W02
	BYTE		        93*staff_roll_credits_mvl/mxv
	BYTE	W02
	BYTE		        92*staff_roll_credits_mvl/mxv
	BYTE	W01
	BYTE		N03     An2 
	BYTE	W01
	BYTE		VOL     91*staff_roll_credits_mvl/mxv
	BYTE	W02
	BYTE		        90*staff_roll_credits_mvl/mxv
	BYTE	W02
	BYTE		        89*staff_roll_credits_mvl/mxv
	BYTE	W02
	BYTE		        88*staff_roll_credits_mvl/mxv
	BYTE	W01
	BYTE		        87*staff_roll_credits_mvl/mxv
	BYTE		N03     Dn3 
	BYTE	W02
	BYTE		VOL     86*staff_roll_credits_mvl/mxv
	BYTE	W02
	BYTE		        85*staff_roll_credits_mvl/mxv
	BYTE	W02
	BYTE		        82*staff_roll_credits_mvl/mxv
	BYTE	W02
	BYTE		        81*staff_roll_credits_mvl/mxv
	BYTE		N03     Gn2 
	BYTE	W02
	BYTE		VOL     79*staff_roll_credits_mvl/mxv
	BYTE	W02
	BYTE		        77*staff_roll_credits_mvl/mxv
	BYTE	W02
	BYTE		        75*staff_roll_credits_mvl/mxv
	BYTE	W01
	BYTE		        75*staff_roll_credits_mvl/mxv
	BYTE	W01
	BYTE		N03     An2 
	BYTE	W01
	BYTE		VOL     73*staff_roll_credits_mvl/mxv
	BYTE	W02
	BYTE		        71*staff_roll_credits_mvl/mxv
	BYTE	W02
	BYTE		        69*staff_roll_credits_mvl/mxv
	BYTE	W02
	BYTE		        68*staff_roll_credits_mvl/mxv
	BYTE	W01
	BYTE		N03     Dn3 
	BYTE	W01
	BYTE		VOL     67*staff_roll_credits_mvl/mxv
	BYTE	W02
	BYTE		        65*staff_roll_credits_mvl/mxv
	BYTE	W02
	BYTE		        61*staff_roll_credits_mvl/mxv
	BYTE	W01
	BYTE		        59*staff_roll_credits_mvl/mxv
	BYTE	W02
	BYTE		        56*staff_roll_credits_mvl/mxv
	BYTE		N03     Gn2 
	BYTE	W02
	BYTE		VOL     52*staff_roll_credits_mvl/mxv
	BYTE	W02
	BYTE		        50*staff_roll_credits_mvl/mxv
	BYTE	W02
	BYTE		        47*staff_roll_credits_mvl/mxv
	BYTE	W02
	BYTE		        43*staff_roll_credits_mvl/mxv
	BYTE		N03     An2 
	BYTE	W02
	BYTE		VOL     40*staff_roll_credits_mvl/mxv
	BYTE	W02
	BYTE		        35*staff_roll_credits_mvl/mxv
	BYTE	W01
	BYTE		        34*staff_roll_credits_mvl/mxv
	BYTE	W02
	BYTE		        29*staff_roll_credits_mvl/mxv
	BYTE	W01
	BYTE		N03     Dn3 
	BYTE	W01
	BYTE		VOL     24*staff_roll_credits_mvl/mxv
	BYTE	W02
	BYTE		        20*staff_roll_credits_mvl/mxv
	BYTE	W02
	BYTE		        16*staff_roll_credits_mvl/mxv
	BYTE	W02
	BYTE		        11*staff_roll_credits_mvl/mxv
	BYTE	W01
	BYTE		N03     Gn2 
	BYTE	W01
	BYTE		VOL     7*staff_roll_credits_mvl/mxv
	BYTE	W07
	BYTE		N03     An2 
	BYTE	W07
	BYTE		VOL     0*staff_roll_credits_mvl/mxv
	BYTE	W01
	BYTE		N03     Cn3 
	BYTE	W02
	BYTE		VOL     4*staff_roll_credits_mvl/mxv
	BYTE	W02
	BYTE		        10*staff_roll_credits_mvl/mxv
	BYTE	W02
	BYTE		        15*staff_roll_credits_mvl/mxv
	BYTE	W02
	BYTE		        20*staff_roll_credits_mvl/mxv
	BYTE		N03     Fn2 
	BYTE	W03
	BYTE		VOL     28*staff_roll_credits_mvl/mxv
	BYTE	W02
	BYTE		        33*staff_roll_credits_mvl/mxv
	BYTE	W02
	BYTE		        38*staff_roll_credits_mvl/mxv
	BYTE	W01
	BYTE		N03     Gn2 
	BYTE	W01
	BYTE		VOL     43*staff_roll_credits_mvl/mxv
	BYTE	W02
	BYTE		        49*staff_roll_credits_mvl/mxv
	BYTE	W02
	BYTE		        53*staff_roll_credits_mvl/mxv
	BYTE	W02
	BYTE		        59*staff_roll_credits_mvl/mxv
	BYTE	W01
	BYTE		N03     Cn3 
	BYTE	W01
	BYTE		VOL     64*staff_roll_credits_mvl/mxv
	BYTE	W04
	BYTE		        74*staff_roll_credits_mvl/mxv
	BYTE	W02
	BYTE		        80*staff_roll_credits_mvl/mxv
	BYTE	W01
	BYTE		N03     Fn2 
	BYTE	W01
	BYTE		VOL     85*staff_roll_credits_mvl/mxv
	BYTE	W02
	BYTE		        90*staff_roll_credits_mvl/mxv
	BYTE	W02
	BYTE		        95*staff_roll_credits_mvl/mxv
	BYTE	W03
	BYTE		N03     Gn2 
	BYTE	W08
	BYTE		        Cn3 
	BYTE	W08
	BYTE		        Fn2 
	BYTE	W08
	BYTE		        Gn2 
	BYTE	W08
	BYTE		        Cn3 
	BYTE	W08
	BYTE		        Fn2 
	BYTE	W08
	BYTE		        Gn2 
	BYTE	W08
	BYTE		        Cn3 
	BYTE	W08
	BYTE		        Fn2 
	BYTE	W01
	BYTE		VOL     95*staff_roll_credits_mvl/mxv
	BYTE	W02
	BYTE		        94*staff_roll_credits_mvl/mxv
	BYTE	W02
	BYTE		        93*staff_roll_credits_mvl/mxv
	BYTE	W02
	BYTE		        92*staff_roll_credits_mvl/mxv
	BYTE	W01
	BYTE		N03     Gn2 
	BYTE	W01
	BYTE		VOL     91*staff_roll_credits_mvl/mxv
	BYTE	W02
	BYTE		        90*staff_roll_credits_mvl/mxv
	BYTE	W02
	BYTE		        89*staff_roll_credits_mvl/mxv
	BYTE	W02
	BYTE		        88*staff_roll_credits_mvl/mxv
	BYTE	W01
	BYTE		        87*staff_roll_credits_mvl/mxv
	BYTE		N03     Cn3 
	BYTE	W02
	BYTE		VOL     86*staff_roll_credits_mvl/mxv
	BYTE	W02
	BYTE		        85*staff_roll_credits_mvl/mxv
	BYTE	W02
	BYTE		        82*staff_roll_credits_mvl/mxv
	BYTE	W02
	BYTE		        81*staff_roll_credits_mvl/mxv
	BYTE		N03     Fn2 
	BYTE	W02
	BYTE		VOL     79*staff_roll_credits_mvl/mxv
	BYTE	W02
	BYTE		        77*staff_roll_credits_mvl/mxv
	BYTE	W02
	BYTE		        75*staff_roll_credits_mvl/mxv
	BYTE	W01
	BYTE		        75*staff_roll_credits_mvl/mxv
	BYTE	W01
	BYTE		N03     Gn2 
	BYTE	W01
	BYTE		VOL     73*staff_roll_credits_mvl/mxv
	BYTE	W02
	BYTE		        71*staff_roll_credits_mvl/mxv
	BYTE	W02
	BYTE		        69*staff_roll_credits_mvl/mxv
	BYTE	W02
	BYTE		        68*staff_roll_credits_mvl/mxv
	BYTE	W01
	BYTE		N03     Cn3 
	BYTE	W01
	BYTE		VOL     67*staff_roll_credits_mvl/mxv
	BYTE	W02
	BYTE		        65*staff_roll_credits_mvl/mxv
	BYTE	W02
	BYTE		        61*staff_roll_credits_mvl/mxv
	BYTE	W01
	BYTE		        59*staff_roll_credits_mvl/mxv
	BYTE	W02
	BYTE		        56*staff_roll_credits_mvl/mxv
	BYTE		N03     Fn2 
	BYTE	W02
	BYTE		VOL     52*staff_roll_credits_mvl/mxv
	BYTE	W02
	BYTE		        50*staff_roll_credits_mvl/mxv
	BYTE	W02
	BYTE		        47*staff_roll_credits_mvl/mxv
	BYTE	W02
	BYTE		        43*staff_roll_credits_mvl/mxv
	BYTE		N03     Gn2 
	BYTE	W02
	BYTE		VOL     40*staff_roll_credits_mvl/mxv
	BYTE	W02
	BYTE		        35*staff_roll_credits_mvl/mxv
	BYTE	W01
	BYTE		        34*staff_roll_credits_mvl/mxv
	BYTE	W02
	BYTE		        29*staff_roll_credits_mvl/mxv
	BYTE	W01
	BYTE		N03     Cn3 
	BYTE	W01
	BYTE		VOL     24*staff_roll_credits_mvl/mxv
	BYTE	W02
	BYTE		        20*staff_roll_credits_mvl/mxv
	BYTE	W02
	BYTE		        16*staff_roll_credits_mvl/mxv
	BYTE	W02
	BYTE		        11*staff_roll_credits_mvl/mxv
	BYTE	W01
	BYTE		N03     Fn2 
	BYTE	W01
	BYTE		VOL     7*staff_roll_credits_mvl/mxv
	BYTE	W07
	BYTE		N03     Gn2 
	BYTE	W07
	BYTE		VOL     0*staff_roll_credits_mvl/mxv
	BYTE	W01
	BYTE		N03     As2 
	BYTE	W02
	BYTE		VOL     4*staff_roll_credits_mvl/mxv
	BYTE	W02
	BYTE		        10*staff_roll_credits_mvl/mxv
	BYTE	W02
	BYTE		        15*staff_roll_credits_mvl/mxv
	BYTE	W02
	BYTE		        20*staff_roll_credits_mvl/mxv
	BYTE		N03     Ds2 
	BYTE	W03
	BYTE		VOL     28*staff_roll_credits_mvl/mxv
	BYTE	W02
	BYTE		        33*staff_roll_credits_mvl/mxv
	BYTE	W02
	BYTE		        38*staff_roll_credits_mvl/mxv
	BYTE	W01
	BYTE		N03     Fn2 
	BYTE	W01
	BYTE		VOL     43*staff_roll_credits_mvl/mxv
	BYTE	W02
	BYTE		        49*staff_roll_credits_mvl/mxv
	BYTE	W02
	BYTE		        53*staff_roll_credits_mvl/mxv
	BYTE	W02
	BYTE		        59*staff_roll_credits_mvl/mxv
	BYTE	W01
	BYTE		N03     As2 
	BYTE	W01
	BYTE		VOL     64*staff_roll_credits_mvl/mxv
	BYTE	W04
	BYTE		        74*staff_roll_credits_mvl/mxv
	BYTE	W02
	BYTE		        80*staff_roll_credits_mvl/mxv
	BYTE	W01
	BYTE		N03     Ds2 
	BYTE	W01
	BYTE		VOL     85*staff_roll_credits_mvl/mxv
	BYTE	W02
	BYTE		        90*staff_roll_credits_mvl/mxv
	BYTE	W02
	BYTE		        95*staff_roll_credits_mvl/mxv
	BYTE	W03
	BYTE		N03     Fn2 
	BYTE	W08
	BYTE		        As2 
	BYTE	W08
	BYTE		        Ds2 
	BYTE	W08
	BYTE		        Fn2 
	BYTE	W08
	BYTE		        As2 
	BYTE	W08
	BYTE		        Ds2 
	BYTE	W08
	BYTE		        Fn2 
	BYTE	W08
	BYTE	W09
	BYTE		VOL     95*staff_roll_credits_mvl/mxv
	BYTE	W02
	BYTE		        94*staff_roll_credits_mvl/mxv
	BYTE	W02
	BYTE		        93*staff_roll_credits_mvl/mxv
	BYTE	W02
	BYTE		        92*staff_roll_credits_mvl/mxv
	BYTE	W02
	BYTE		        91*staff_roll_credits_mvl/mxv
	BYTE	W02
	BYTE		        90*staff_roll_credits_mvl/mxv
	BYTE	W02
	BYTE		        89*staff_roll_credits_mvl/mxv
	BYTE	W02
	BYTE		        88*staff_roll_credits_mvl/mxv
	BYTE	W01
	BYTE		        87*staff_roll_credits_mvl/mxv
	BYTE	W02
	BYTE		        86*staff_roll_credits_mvl/mxv
	BYTE	W02
	BYTE		        85*staff_roll_credits_mvl/mxv
	BYTE	W02
	BYTE		        82*staff_roll_credits_mvl/mxv
	BYTE	W02
	BYTE		        81*staff_roll_credits_mvl/mxv
	BYTE	W02
	BYTE		        79*staff_roll_credits_mvl/mxv
	BYTE	W02
	BYTE		        77*staff_roll_credits_mvl/mxv
	BYTE	W02
	BYTE		        75*staff_roll_credits_mvl/mxv
	BYTE	W01
	BYTE		        75*staff_roll_credits_mvl/mxv
	BYTE	W02
	BYTE		        73*staff_roll_credits_mvl/mxv
	BYTE	W02
	BYTE		        71*staff_roll_credits_mvl/mxv
	BYTE	W02
	BYTE		        69*staff_roll_credits_mvl/mxv
	BYTE	W02
	BYTE		        68*staff_roll_credits_mvl/mxv
	BYTE	W02
	BYTE		        67*staff_roll_credits_mvl/mxv
	BYTE	W02
	BYTE		        65*staff_roll_credits_mvl/mxv
	BYTE	W02
	BYTE		        61*staff_roll_credits_mvl/mxv
	BYTE	W01
	BYTE		        59*staff_roll_credits_mvl/mxv
	BYTE	W02
	BYTE		        56*staff_roll_credits_mvl/mxv
	BYTE	W02
	BYTE		        52*staff_roll_credits_mvl/mxv
	BYTE	W02
	BYTE		        50*staff_roll_credits_mvl/mxv
	BYTE	W02
	BYTE		        47*staff_roll_credits_mvl/mxv
	BYTE	W02
	BYTE		        43*staff_roll_credits_mvl/mxv
	BYTE	W02
	BYTE		        40*staff_roll_credits_mvl/mxv
	BYTE	W02
	BYTE		        35*staff_roll_credits_mvl/mxv
	BYTE	W01
	BYTE		        34*staff_roll_credits_mvl/mxv
	BYTE	W02
	BYTE		        29*staff_roll_credits_mvl/mxv
	BYTE	W02
	BYTE		        24*staff_roll_credits_mvl/mxv
	BYTE	W02
	BYTE		        20*staff_roll_credits_mvl/mxv
	BYTE	W02
	BYTE		        16*staff_roll_credits_mvl/mxv
	BYTE	W02
	BYTE		        11*staff_roll_credits_mvl/mxv
	BYTE	W02
	BYTE		        7*staff_roll_credits_mvl/mxv
	BYTE	W15
	BYTE	W96
	BYTE	W96
	BYTE	W96
	BYTE	W96
	BYTE	W96
	BYTE	W96
	BYTE	W96
	BYTE	W96
	BYTE	W96
	BYTE	W96
	BYTE	W96
	BYTE	W96
	BYTE	W96
	BYTE	W96
	BYTE	W96
	BYTE	W96
	BYTE	W96
	BYTE	W96
	BYTE	W96
	BYTE	W96
	BYTE	W96
	BYTE	W96
	BYTE	W96
	BYTE	W96
	BYTE	W96
	BYTE	W96
	BYTE	W96
	BYTE	W96
	BYTE	W96
	BYTE	W96
	BYTE	W96
	BYTE	W96
	BYTE	W96
	BYTE	W96
	BYTE	W96
	BYTE	W96
	BYTE	W96
	BYTE	W96
	BYTE	W96
	BYTE	W96
	BYTE	W96
	BYTE	W92
	BYTE	W02
	BYTE		VOICE   51
	BYTE		VOL     75*staff_roll_credits_mvl/mxv
	BYTE		PAN     c_v+10
	BYTE	W01
	BYTE		MOD     60
	BYTE		LFOS    38
	BYTE		MODT    mod_tre
	BYTE	W01
	BYTE	W92
	BYTE	W03
	BYTE		VOL     75*staff_roll_credits_mvl/mxv
	BYTE	W01
	BYTE	PEND
	BYTE		N24     As2   v060
	BYTE	W24
	BYTE		        Fs3   v048
	BYTE	W24
	BYTE		        Fn3   v072
	BYTE	W01
	BYTE		VOL     65*staff_roll_credits_mvl/mxv
	BYTE	W07
	BYTE		        61*staff_roll_credits_mvl/mxv
	BYTE	W05
	BYTE		        57*staff_roll_credits_mvl/mxv
	BYTE	W06
	BYTE		        53*staff_roll_credits_mvl/mxv
	BYTE	W05
	BYTE		N24     Gs3 
	BYTE	W02
	BYTE		VOL     48*staff_roll_credits_mvl/mxv
	BYTE	W05
	BYTE		        45*staff_roll_credits_mvl/mxv
	BYTE	W06
	BYTE		        42*staff_roll_credits_mvl/mxv
	BYTE	W05
	BYTE		        38*staff_roll_credits_mvl/mxv
	BYTE	W06
	BYTE	PEND
	BYTE		TIE     Ds3   v080
	BYTE	W01
	BYTE		VOL     37*staff_roll_credits_mvl/mxv
	BYTE	W06
	BYTE		        38*staff_roll_credits_mvl/mxv
	BYTE	W05
	BYTE		        39*staff_roll_credits_mvl/mxv
	BYTE	W05
	BYTE		        39*staff_roll_credits_mvl/mxv
	BYTE	W06
	BYTE		        41*staff_roll_credits_mvl/mxv
	BYTE	W05
	BYTE		        41*staff_roll_credits_mvl/mxv
	BYTE	W05
	BYTE		        42*staff_roll_credits_mvl/mxv
	BYTE	W05
	BYTE		        43*staff_roll_credits_mvl/mxv
	BYTE	W06
	BYTE		        44*staff_roll_credits_mvl/mxv
	BYTE	W05
	BYTE		        45*staff_roll_credits_mvl/mxv
	BYTE	W05
	BYTE		        46*staff_roll_credits_mvl/mxv
	BYTE	W06
	BYTE		        47*staff_roll_credits_mvl/mxv
	BYTE	W05
	BYTE		        48*staff_roll_credits_mvl/mxv
	BYTE	W05
	BYTE		        50*staff_roll_credits_mvl/mxv
	BYTE	W05
	BYTE		        51*staff_roll_credits_mvl/mxv
	BYTE	W06
	BYTE		        55*staff_roll_credits_mvl/mxv
	BYTE	W05
	BYTE		        58*staff_roll_credits_mvl/mxv
	BYTE	W05
	BYTE		        61*staff_roll_credits_mvl/mxv
	BYTE	W05
	BYTE	PEND
	BYTE		VOL     64*staff_roll_credits_mvl/mxv
	BYTE	W06
	BYTE		        68*staff_roll_credits_mvl/mxv
	BYTE	W05
	BYTE		        70*staff_roll_credits_mvl/mxv
	BYTE	W05
	BYTE		        73*staff_roll_credits_mvl/mxv
	BYTE	W06
	BYTE		        71*staff_roll_credits_mvl/mxv
	BYTE	W05
	BYTE		        69*staff_roll_credits_mvl/mxv
	BYTE	W05
	BYTE		        68*staff_roll_credits_mvl/mxv
	BYTE	W05
	BYTE		        66*staff_roll_credits_mvl/mxv
	BYTE	W06
	BYTE		        64*staff_roll_credits_mvl/mxv
	BYTE	W05
	BYTE		        59*staff_roll_credits_mvl/mxv
	BYTE	W05
	BYTE		        53*staff_roll_credits_mvl/mxv
	BYTE	W06
	BYTE		        46*staff_roll_credits_mvl/mxv
	BYTE	W05
	BYTE		        40*staff_roll_credits_mvl/mxv
	BYTE	W05
	BYTE		        34*staff_roll_credits_mvl/mxv
	BYTE	W05
	BYTE		        28*staff_roll_credits_mvl/mxv
	BYTE	W06
	BYTE		        20*staff_roll_credits_mvl/mxv
	BYTE	W05
	BYTE		        15*staff_roll_credits_mvl/mxv
	BYTE	W05
	BYTE		        8*staff_roll_credits_mvl/mxv
	BYTE	W06
	BYTE	PEND
	BYTE		EOT     Ds3 
	BYTE	PATT
	 POIN2	staff_roll_credits_2 + 0x434
	BYTE	PATT
	 POIN2	staff_roll_credits_2 + 0x43A
	BYTE	PATT
	 POIN2	staff_roll_credits_2 + 0x45A
	BYTE	PATT
	 POIN2	staff_roll_credits_2 + 0x484
	BYTE		EOT     Ds3 
	BYTE	W96
	BYTE	W96
	BYTE	W96
	BYTE	W96
	BYTE	W96
	BYTE	W96
	BYTE	W96
	BYTE	W96
	BYTE	W96
	BYTE	W96
	BYTE	W96
	BYTE	W96
	BYTE	W96
	BYTE	W96
	BYTE	GoTo
	 POIN2	staff_roll_credits_2 + 0x413
	BYTE	W96
	BYTE	W96
	BYTE	W96
	BYTE	W96
	BYTE	W96
	BYTE	W96
	BYTE	W96
	BYTE	W96
	BYTE	W96
	BYTE	W96
	BYTE	W96
	BYTE	W96
	BYTE	FINE

//*********************** Track 04 ***********************//

staff_roll_credits_3:
	BYTE	KEYSH   staff_roll_credits_key+0
	BYTE	W06
	BYTE		VOICE   24
	BYTE		VOL     0*staff_roll_credits_mvl/mxv
	BYTE		PAN     c_v+0
	BYTE	W01
	BYTE		MODT    mod_pan
	BYTE	W28
	BYTE		MOD     50
	BYTE	W01
	BYTE		TIE     Gn4   v056
	BYTE	W02
	BYTE		VOL     3*staff_roll_credits_mvl/mxv
	BYTE	W02
	BYTE		        1*staff_roll_credits_mvl/mxv
	BYTE	W02
	BYTE		        2*staff_roll_credits_mvl/mxv
	BYTE	W01
	BYTE		        3*staff_roll_credits_mvl/mxv
	BYTE	W02
	BYTE		        4*staff_roll_credits_mvl/mxv
	BYTE	W01
	BYTE		        5*staff_roll_credits_mvl/mxv
	BYTE	W02
	BYTE		        6*staff_roll_credits_mvl/mxv
	BYTE	W01
	BYTE		        7*staff_roll_credits_mvl/mxv
	BYTE	W02
	BYTE		        8*staff_roll_credits_mvl/mxv
	BYTE	W02
	BYTE		        10*staff_roll_credits_mvl/mxv
	BYTE	W01
	BYTE		        10*staff_roll_credits_mvl/mxv
	BYTE	W02
	BYTE		        12*staff_roll_credits_mvl/mxv
	BYTE	W01
	BYTE		        13*staff_roll_credits_mvl/mxv
	BYTE	W02
	BYTE		        14*staff_roll_credits_mvl/mxv
	BYTE	W01
	BYTE		        15*staff_roll_credits_mvl/mxv
	BYTE	W02
	BYTE		        16*staff_roll_credits_mvl/mxv
	BYTE	W02
	BYTE		        17*staff_roll_credits_mvl/mxv
	BYTE	W01
	BYTE		        17*staff_roll_credits_mvl/mxv
	BYTE	W02
	BYTE		        19*staff_roll_credits_mvl/mxv
	BYTE	W01
	BYTE		        19*staff_roll_credits_mvl/mxv
	BYTE	W02
	BYTE		        21*staff_roll_credits_mvl/mxv
	BYTE	W01
	BYTE		        21*staff_roll_credits_mvl/mxv
	BYTE	W02
	BYTE		        23*staff_roll_credits_mvl/mxv
	BYTE	W02
	BYTE		        24*staff_roll_credits_mvl/mxv
	BYTE	W01
	BYTE		        25*staff_roll_credits_mvl/mxv
	BYTE	W02
	BYTE		        26*staff_roll_credits_mvl/mxv
	BYTE	W01
	BYTE		        27*staff_roll_credits_mvl/mxv
	BYTE	W02
	BYTE		        29*staff_roll_credits_mvl/mxv
	BYTE	W01
	BYTE		        29*staff_roll_credits_mvl/mxv
	BYTE	W02
	BYTE		        31*staff_roll_credits_mvl/mxv
	BYTE	W02
	BYTE		        32*staff_roll_credits_mvl/mxv
	BYTE	W01
	BYTE		        33*staff_roll_credits_mvl/mxv
	BYTE	W02
	BYTE		        34*staff_roll_credits_mvl/mxv
	BYTE	W01
	BYTE		        34*staff_roll_credits_mvl/mxv
	BYTE	W02
	BYTE		        37*staff_roll_credits_mvl/mxv
	BYTE	W01
	BYTE		        39*staff_roll_credits_mvl/mxv
	BYTE	W02
	BYTE		        42*staff_roll_credits_mvl/mxv
	BYTE	W02
	BYTE		        45*staff_roll_credits_mvl/mxv
	BYTE	W01
	BYTE		        47*staff_roll_credits_mvl/mxv
	BYTE	W02
	BYTE		        51*staff_roll_credits_mvl/mxv
	BYTE	W01
	BYTE		        51*staff_roll_credits_mvl/mxv
	BYTE	W02
	BYTE		        55*staff_roll_credits_mvl/mxv
	BYTE	W01
	BYTE		        56*staff_roll_credits_mvl/mxv
	BYTE	W02
	BYTE		        60*staff_roll_credits_mvl/mxv
	BYTE	W04
	BYTE		        67*staff_roll_credits_mvl/mxv
	BYTE	W03
	BYTE		        71*staff_roll_credits_mvl/mxv
	BYTE	W02
	BYTE		        74*staff_roll_credits_mvl/mxv
	BYTE	W03
	BYTE		        79*staff_roll_credits_mvl/mxv
	BYTE	W02
	BYTE		        83*staff_roll_credits_mvl/mxv
	BYTE	W03
	BYTE		        87*staff_roll_credits_mvl/mxv
	BYTE	W02
	BYTE		        90*staff_roll_credits_mvl/mxv
	BYTE	W03
	BYTE		        95*staff_roll_credits_mvl/mxv
	BYTE	W04
	BYTE	PEND
	BYTE	W09
	BYTE		VOL     95*staff_roll_credits_mvl/mxv
	BYTE	W02
	BYTE		        94*staff_roll_credits_mvl/mxv
	BYTE	W02
	BYTE		        93*staff_roll_credits_mvl/mxv
	BYTE	W02
	BYTE		        92*staff_roll_credits_mvl/mxv
	BYTE	W02
	BYTE		        91*staff_roll_credits_mvl/mxv
	BYTE	W02
	BYTE		        90*staff_roll_credits_mvl/mxv
	BYTE	W02
	BYTE		        89*staff_roll_credits_mvl/mxv
	BYTE	W02
	BYTE		        88*staff_roll_credits_mvl/mxv
	BYTE	W01
	BYTE		        87*staff_roll_credits_mvl/mxv
	BYTE	W02
	BYTE		        86*staff_roll_credits_mvl/mxv
	BYTE	W02
	BYTE		        85*staff_roll_credits_mvl/mxv
	BYTE	W02
	BYTE		        82*staff_roll_credits_mvl/mxv
	BYTE	W02
	BYTE		        81*staff_roll_credits_mvl/mxv
	BYTE	W02
	BYTE		        79*staff_roll_credits_mvl/mxv
	BYTE	W02
	BYTE		        77*staff_roll_credits_mvl/mxv
	BYTE	W02
	BYTE		        75*staff_roll_credits_mvl/mxv
	BYTE	W01
	BYTE		        75*staff_roll_credits_mvl/mxv
	BYTE	W02
	BYTE		        73*staff_roll_credits_mvl/mxv
	BYTE	W02
	BYTE		        71*staff_roll_credits_mvl/mxv
	BYTE	W02
	BYTE		        69*staff_roll_credits_mvl/mxv
	BYTE	W02
	BYTE		        68*staff_roll_credits_mvl/mxv
	BYTE	W02
	BYTE		        67*staff_roll_credits_mvl/mxv
	BYTE	W02
	BYTE		        65*staff_roll_credits_mvl/mxv
	BYTE	W02
	BYTE		        61*staff_roll_credits_mvl/mxv
	BYTE	W01
	BYTE		        59*staff_roll_credits_mvl/mxv
	BYTE	W02
	BYTE		        56*staff_roll_credits_mvl/mxv
	BYTE	W02
	BYTE		        52*staff_roll_credits_mvl/mxv
	BYTE	W02
	BYTE		        50*staff_roll_credits_mvl/mxv
	BYTE	W02
	BYTE		        47*staff_roll_credits_mvl/mxv
	BYTE	W02
	BYTE		        43*staff_roll_credits_mvl/mxv
	BYTE	W02
	BYTE		        40*staff_roll_credits_mvl/mxv
	BYTE	W02
	BYTE		        35*staff_roll_credits_mvl/mxv
	BYTE	W01
	BYTE		        34*staff_roll_credits_mvl/mxv
	BYTE	W02
	BYTE		        29*staff_roll_credits_mvl/mxv
	BYTE	W02
	BYTE		        24*staff_roll_credits_mvl/mxv
	BYTE	W02
	BYTE		        20*staff_roll_credits_mvl/mxv
	BYTE	W02
	BYTE		        16*staff_roll_credits_mvl/mxv
	BYTE	W02
	BYTE		        11*staff_roll_credits_mvl/mxv
	BYTE	W02
	BYTE		        7*staff_roll_credits_mvl/mxv
	BYTE	W14
	BYTE		MOD     50
	BYTE		VOL     0*staff_roll_credits_mvl/mxv
	BYTE	W01
	BYTE	PEND
	BYTE		EOT     Gn4 
	BYTE		TIE     Fs4   v056
	BYTE	W02
	BYTE		VOL     3*staff_roll_credits_mvl/mxv
	BYTE	W02
	BYTE		        1*staff_roll_credits_mvl/mxv
	BYTE	W02
	BYTE		        2*staff_roll_credits_mvl/mxv
	BYTE	W01
	BYTE		        3*staff_roll_credits_mvl/mxv
	BYTE	W02
	BYTE		        4*staff_roll_credits_mvl/mxv
	BYTE	W01
	BYTE		        5*staff_roll_credits_mvl/mxv
	BYTE	W02
	BYTE		        6*staff_roll_credits_mvl/mxv
	BYTE	W01
	BYTE		        7*staff_roll_credits_mvl/mxv
	BYTE	W02
	BYTE		        8*staff_roll_credits_mvl/mxv
	BYTE	W02
	BYTE		        10*staff_roll_credits_mvl/mxv
	BYTE	W01
	BYTE		        10*staff_roll_credits_mvl/mxv
	BYTE	W02
	BYTE		        12*staff_roll_credits_mvl/mxv
	BYTE	W01
	BYTE		        13*staff_roll_credits_mvl/mxv
	BYTE	W02
	BYTE		        14*staff_roll_credits_mvl/mxv
	BYTE	W01
	BYTE		        15*staff_roll_credits_mvl/mxv
	BYTE	W02
	BYTE		        16*staff_roll_credits_mvl/mxv
	BYTE	W02
	BYTE		        17*staff_roll_credits_mvl/mxv
	BYTE	W01
	BYTE		        17*staff_roll_credits_mvl/mxv
	BYTE	W02
	BYTE		        19*staff_roll_credits_mvl/mxv
	BYTE	W01
	BYTE		        19*staff_roll_credits_mvl/mxv
	BYTE	W02
	BYTE		        21*staff_roll_credits_mvl/mxv
	BYTE	W01
	BYTE		        21*staff_roll_credits_mvl/mxv
	BYTE	W02
	BYTE		        23*staff_roll_credits_mvl/mxv
	BYTE	W02
	BYTE		        24*staff_roll_credits_mvl/mxv
	BYTE	W01
	BYTE		        25*staff_roll_credits_mvl/mxv
	BYTE	W02
	BYTE		        26*staff_roll_credits_mvl/mxv
	BYTE	W01
	BYTE		        27*staff_roll_credits_mvl/mxv
	BYTE	W02
	BYTE		        29*staff_roll_credits_mvl/mxv
	BYTE	W01
	BYTE		        29*staff_roll_credits_mvl/mxv
	BYTE	W02
	BYTE		        31*staff_roll_credits_mvl/mxv
	BYTE	W02
	BYTE		        32*staff_roll_credits_mvl/mxv
	BYTE	W01
	BYTE		        33*staff_roll_credits_mvl/mxv
	BYTE	W02
	BYTE		        34*staff_roll_credits_mvl/mxv
	BYTE	W01
	BYTE		        34*staff_roll_credits_mvl/mxv
	BYTE	W02
	BYTE		        37*staff_roll_credits_mvl/mxv
	BYTE	W01
	BYTE		        39*staff_roll_credits_mvl/mxv
	BYTE	W02
	BYTE		        42*staff_roll_credits_mvl/mxv
	BYTE	W02
	BYTE		        45*staff_roll_credits_mvl/mxv
	BYTE	W01
	BYTE		        47*staff_roll_credits_mvl/mxv
	BYTE	W02
	BYTE		        51*staff_roll_credits_mvl/mxv
	BYTE	W01
	BYTE		        51*staff_roll_credits_mvl/mxv
	BYTE	W02
	BYTE		        55*staff_roll_credits_mvl/mxv
	BYTE	W01
	BYTE		        56*staff_roll_credits_mvl/mxv
	BYTE	W02
	BYTE		        60*staff_roll_credits_mvl/mxv
	BYTE	W04
	BYTE		        67*staff_roll_credits_mvl/mxv
	BYTE	W03
	BYTE		        71*staff_roll_credits_mvl/mxv
	BYTE	W02
	BYTE		        74*staff_roll_credits_mvl/mxv
	BYTE	W03
	BYTE		        79*staff_roll_credits_mvl/mxv
	BYTE	W02
	BYTE		        83*staff_roll_credits_mvl/mxv
	BYTE	W03
	BYTE		        87*staff_roll_credits_mvl/mxv
	BYTE	W02
	BYTE		        90*staff_roll_credits_mvl/mxv
	BYTE	W03
	BYTE		        95*staff_roll_credits_mvl/mxv
	BYTE	W04
	BYTE	PEND
	BYTE	PATT
	 POIN2	staff_roll_credits_3 + 0x7E
	BYTE		EOT     Fs4 
	BYTE	PATT
	 POIN2	staff_roll_credits_3 + 0x10
	BYTE	PATT
	 POIN2	staff_roll_credits_3 + 0x7E
	BYTE		EOT     Gn4 
	BYTE	PATT
	 POIN2	staff_roll_credits_3 + 0xD6
	BYTE	W09
	BYTE		VOL     95*staff_roll_credits_mvl/mxv
	BYTE	W02
	BYTE		        94*staff_roll_credits_mvl/mxv
	BYTE	W02
	BYTE		        93*staff_roll_credits_mvl/mxv
	BYTE	W02
	BYTE		        92*staff_roll_credits_mvl/mxv
	BYTE	W02
	BYTE		        91*staff_roll_credits_mvl/mxv
	BYTE	W02
	BYTE		        90*staff_roll_credits_mvl/mxv
	BYTE	W02
	BYTE		        89*staff_roll_credits_mvl/mxv
	BYTE	W02
	BYTE		        88*staff_roll_credits_mvl/mxv
	BYTE	W01
	BYTE		        87*staff_roll_credits_mvl/mxv
	BYTE	W02
	BYTE		        86*staff_roll_credits_mvl/mxv
	BYTE	W02
	BYTE		        85*staff_roll_credits_mvl/mxv
	BYTE	W02
	BYTE		        82*staff_roll_credits_mvl/mxv
	BYTE	W02
	BYTE		        81*staff_roll_credits_mvl/mxv
	BYTE	W02
	BYTE		        79*staff_roll_credits_mvl/mxv
	BYTE	W02
	BYTE		        77*staff_roll_credits_mvl/mxv
	BYTE	W02
	BYTE		        75*staff_roll_credits_mvl/mxv
	BYTE	W01
	BYTE		        75*staff_roll_credits_mvl/mxv
	BYTE	W02
	BYTE		        73*staff_roll_credits_mvl/mxv
	BYTE	W02
	BYTE		        71*staff_roll_credits_mvl/mxv
	BYTE	W02
	BYTE		        69*staff_roll_credits_mvl/mxv
	BYTE	W02
	BYTE		        68*staff_roll_credits_mvl/mxv
	BYTE	W02
	BYTE		        67*staff_roll_credits_mvl/mxv
	BYTE	W02
	BYTE		        65*staff_roll_credits_mvl/mxv
	BYTE	W02
	BYTE		        61*staff_roll_credits_mvl/mxv
	BYTE	W01
	BYTE		        59*staff_roll_credits_mvl/mxv
	BYTE	W02
	BYTE		        56*staff_roll_credits_mvl/mxv
	BYTE	W02
	BYTE		        52*staff_roll_credits_mvl/mxv
	BYTE	W02
	BYTE		        50*staff_roll_credits_mvl/mxv
	BYTE	W02
	BYTE		        47*staff_roll_credits_mvl/mxv
	BYTE	W02
	BYTE		        43*staff_roll_credits_mvl/mxv
	BYTE	W02
	BYTE		        40*staff_roll_credits_mvl/mxv
	BYTE	W02
	BYTE		        34*staff_roll_credits_mvl/mxv
	BYTE	W01
	BYTE		        32*staff_roll_credits_mvl/mxv
	BYTE	W02
	BYTE		        26*staff_roll_credits_mvl/mxv
	BYTE	W02
	BYTE		        20*staff_roll_credits_mvl/mxv
	BYTE	W02
	BYTE		        15*staff_roll_credits_mvl/mxv
	BYTE	W02
	BYTE		        11*staff_roll_credits_mvl/mxv
	BYTE	W02
	BYTE		        5*staff_roll_credits_mvl/mxv
	BYTE	W02
	BYTE		        0*staff_roll_credits_mvl/mxv
	BYTE	W15
	BYTE		EOT     Fs4 
	BYTE	W96
	BYTE	W96
	BYTE	W96
	BYTE	W96
	BYTE	W96
	BYTE	W96
	BYTE	W96
	BYTE	W96
	BYTE	W96
	BYTE	W96
	BYTE	W96
	BYTE	W96
	BYTE	W96
	BYTE	W96
	BYTE	W96
	BYTE	W96
	BYTE	W96
	BYTE	W92
	BYTE	W03
	BYTE		MOD     50
	BYTE		VOL     80*staff_roll_credits_mvl/mxv
	BYTE	W01
	BYTE		N96     Ds4   v080
	BYTE	W96
	BYTE		        Cs4 
	BYTE	W96
	BYTE		        Cn4 
	BYTE	W96
	BYTE		N48     As3   v080
	BYTE	W48
	BYTE		        Gs3 
	BYTE	W48
	BYTE	PEND
	BYTE		N96     Ds4 
	BYTE	W96
	BYTE		        Cs4 
	BYTE	W96
	BYTE		        Cn4 
	BYTE	W96
	BYTE	PATT
	 POIN2	staff_roll_credits_3 + 0x1CE
	BYTE	W96
	BYTE	W96
	BYTE	W96
	BYTE	W96
	BYTE	W96
	BYTE	W96
	BYTE	W96
	BYTE	W96
	BYTE		N96     Ds4   v080
	BYTE	W96
	BYTE		        Cs4 
	BYTE	W96
	BYTE		        Cn4 
	BYTE	W96
	BYTE	PATT
	 POIN2	staff_roll_credits_3 + 0x1CE
	BYTE		N96     Ds4   v080
	BYTE	W96
	BYTE		        Cs4 
	BYTE	W96
	BYTE		        Cn4 
	BYTE	W96
	BYTE	PATT
	 POIN2	staff_roll_credits_3 + 0x1CE
	BYTE	W96
	BYTE	W96
	BYTE	W96
	BYTE	W96
	BYTE	W96
	BYTE	W96
	BYTE	W96
	BYTE	W96
	BYTE	W96
	BYTE	W96
	BYTE	W96
	BYTE	W96
	BYTE	W96
	BYTE	W96
	BYTE	W96
	BYTE	W96
	BYTE	W96
	BYTE	W96
	BYTE	W96
	BYTE	W96
	BYTE	W96
	BYTE	W96
	BYTE	W96
	BYTE	W96
	BYTE	W96
	BYTE	W96
	BYTE	W96
	BYTE	W96
	BYTE	W96
	BYTE	W96
	BYTE	W96
	BYTE	W96
	BYTE	W96
	BYTE	W96
	BYTE	W96
	BYTE	W96
	BYTE	GoTo
	 POIN2	staff_roll_credits_3 + 0x1F6
	BYTE	W96
	BYTE	W96
	BYTE	W96
	BYTE	W96
	BYTE	W96
	BYTE	W96
	BYTE	W96
	BYTE	W96
	BYTE	W96
	BYTE	W96
	BYTE	W96
	BYTE	W96
	BYTE	FINE

//*********************** Track 05 ***********************//

staff_roll_credits_4:
	BYTE	KEYSH   staff_roll_credits_key+0
	BYTE	W07
	BYTE		MOD     45
	BYTE		MODT    mod_tre
	BYTE	W01
	BYTE		VOICE   4
	BYTE		VOL     0*staff_roll_credits_mvl/mxv
	BYTE		PAN     c_v-20
	BYTE	W28
	BYTE		TIE     An2   v100
	BYTE	W02
	BYTE		VOL     3*staff_roll_credits_mvl/mxv
	BYTE	W02
	BYTE		        5*staff_roll_credits_mvl/mxv
	BYTE	W02
	BYTE		        8*staff_roll_credits_mvl/mxv
	BYTE	W01
	BYTE		        10*staff_roll_credits_mvl/mxv
	BYTE	W02
	BYTE		        12*staff_roll_credits_mvl/mxv
	BYTE	W01
	BYTE		        14*staff_roll_credits_mvl/mxv
	BYTE	W02
	BYTE		        17*staff_roll_credits_mvl/mxv
	BYTE	W01
	BYTE		        17*staff_roll_credits_mvl/mxv
	BYTE	W02
	BYTE		        20*staff_roll_credits_mvl/mxv
	BYTE	W02
	BYTE		        23*staff_roll_credits_mvl/mxv
	BYTE	W01
	BYTE		        24*staff_roll_credits_mvl/mxv
	BYTE	W02
	BYTE		        27*staff_roll_credits_mvl/mxv
	BYTE	W01
	BYTE		        28*staff_roll_credits_mvl/mxv
	BYTE	W02
	BYTE		        31*staff_roll_credits_mvl/mxv
	BYTE	W01
	BYTE		        32*staff_roll_credits_mvl/mxv
	BYTE	W02
	BYTE		        34*staff_roll_credits_mvl/mxv
	BYTE	W02
	BYTE		        37*staff_roll_credits_mvl/mxv
	BYTE	W01
	BYTE		        38*staff_roll_credits_mvl/mxv
	BYTE	W02
	BYTE		        41*staff_roll_credits_mvl/mxv
	BYTE	W01
	BYTE		        43*staff_roll_credits_mvl/mxv
	BYTE	W02
	BYTE		        45*staff_roll_credits_mvl/mxv
	BYTE	W01
	BYTE		        47*staff_roll_credits_mvl/mxv
	BYTE	W02
	BYTE		        50*staff_roll_credits_mvl/mxv
	BYTE	W02
	BYTE		        51*staff_roll_credits_mvl/mxv
	BYTE	W01
	BYTE		        53*staff_roll_credits_mvl/mxv
	BYTE	W02
	BYTE		        56*staff_roll_credits_mvl/mxv
	BYTE	W01
	BYTE		        57*staff_roll_credits_mvl/mxv
	BYTE	W02
	BYTE		        60*staff_roll_credits_mvl/mxv
	BYTE	W01
	BYTE		        61*staff_roll_credits_mvl/mxv
	BYTE	W02
	BYTE		        64*staff_roll_credits_mvl/mxv
	BYTE	W02
	BYTE		        67*staff_roll_credits_mvl/mxv
	BYTE	W01
	BYTE		        68*staff_roll_credits_mvl/mxv
	BYTE	W02
	BYTE		        70*staff_roll_credits_mvl/mxv
	BYTE	W01
	BYTE		        71*staff_roll_credits_mvl/mxv
	BYTE	W02
	BYTE		        74*staff_roll_credits_mvl/mxv
	BYTE	W01
	BYTE		        76*staff_roll_credits_mvl/mxv
	BYTE	W02
	BYTE		        78*staff_roll_credits_mvl/mxv
	BYTE	W02
	BYTE		        81*staff_roll_credits_mvl/mxv
	BYTE	W01
	BYTE		        83*staff_roll_credits_mvl/mxv
	BYTE	W02
	BYTE		        85*staff_roll_credits_mvl/mxv
	BYTE	W01
	BYTE		        86*staff_roll_credits_mvl/mxv
	BYTE	W02
	BYTE		        89*staff_roll_credits_mvl/mxv
	BYTE	W01
	BYTE		        90*staff_roll_credits_mvl/mxv
	BYTE	W02
	BYTE		        94*staff_roll_credits_mvl/mxv
	BYTE	W24
	BYTE	W02
	BYTE	PEND
	BYTE	W09
	BYTE		VOL     95*staff_roll_credits_mvl/mxv
	BYTE	W02
	BYTE		        94*staff_roll_credits_mvl/mxv
	BYTE	W02
	BYTE		        93*staff_roll_credits_mvl/mxv
	BYTE	W02
	BYTE		        92*staff_roll_credits_mvl/mxv
	BYTE	W02
	BYTE		        91*staff_roll_credits_mvl/mxv
	BYTE	W02
	BYTE		        90*staff_roll_credits_mvl/mxv
	BYTE	W02
	BYTE		        89*staff_roll_credits_mvl/mxv
	BYTE	W02
	BYTE		        88*staff_roll_credits_mvl/mxv
	BYTE	W01
	BYTE		        87*staff_roll_credits_mvl/mxv
	BYTE	W02
	BYTE		        86*staff_roll_credits_mvl/mxv
	BYTE	W02
	BYTE		        85*staff_roll_credits_mvl/mxv
	BYTE	W02
	BYTE		        82*staff_roll_credits_mvl/mxv
	BYTE	W02
	BYTE		        81*staff_roll_credits_mvl/mxv
	BYTE	W02
	BYTE		        79*staff_roll_credits_mvl/mxv
	BYTE	W02
	BYTE		        77*staff_roll_credits_mvl/mxv
	BYTE	W02
	BYTE		        75*staff_roll_credits_mvl/mxv
	BYTE	W01
	BYTE		        75*staff_roll_credits_mvl/mxv
	BYTE	W02
	BYTE		        73*staff_roll_credits_mvl/mxv
	BYTE	W02
	BYTE		        71*staff_roll_credits_mvl/mxv
	BYTE	W02
	BYTE		        69*staff_roll_credits_mvl/mxv
	BYTE	W02
	BYTE		        68*staff_roll_credits_mvl/mxv
	BYTE	W02
	BYTE		        67*staff_roll_credits_mvl/mxv
	BYTE	W02
	BYTE		        65*staff_roll_credits_mvl/mxv
	BYTE	W02
	BYTE		        61*staff_roll_credits_mvl/mxv
	BYTE	W01
	BYTE		        59*staff_roll_credits_mvl/mxv
	BYTE	W02
	BYTE		        56*staff_roll_credits_mvl/mxv
	BYTE	W02
	BYTE		        52*staff_roll_credits_mvl/mxv
	BYTE	W02
	BYTE		        50*staff_roll_credits_mvl/mxv
	BYTE	W02
	BYTE		        47*staff_roll_credits_mvl/mxv
	BYTE	W02
	BYTE		        43*staff_roll_credits_mvl/mxv
	BYTE	W02
	BYTE		        40*staff_roll_credits_mvl/mxv
	BYTE	W02
	BYTE		        35*staff_roll_credits_mvl/mxv
	BYTE	W01
	BYTE		        34*staff_roll_credits_mvl/mxv
	BYTE	W02
	BYTE		        29*staff_roll_credits_mvl/mxv
	BYTE	W02
	BYTE		        24*staff_roll_credits_mvl/mxv
	BYTE	W02
	BYTE		        20*staff_roll_credits_mvl/mxv
	BYTE	W02
	BYTE		        16*staff_roll_credits_mvl/mxv
	BYTE	W02
	BYTE		        11*staff_roll_credits_mvl/mxv
	BYTE	W02
	BYTE		        7*staff_roll_credits_mvl/mxv
	BYTE	W14
	BYTE		        0*staff_roll_credits_mvl/mxv
	BYTE	W01
	BYTE	PEND
	BYTE		EOT     An2 
	BYTE	PATT
	 POIN2	staff_roll_credits_4 + 0xF
	BYTE	PATT
	 POIN2	staff_roll_credits_4 + 0x6E
	BYTE		EOT     An2 
	BYTE	PATT
	 POIN2	staff_roll_credits_4 + 0xF
	BYTE	PATT
	 POIN2	staff_roll_credits_4 + 0x6E
	BYTE		EOT     An2 
	BYTE	PATT
	 POIN2	staff_roll_credits_4 + 0xF
	BYTE	W09
	BYTE		VOL     95*staff_roll_credits_mvl/mxv
	BYTE	W02
	BYTE		        94*staff_roll_credits_mvl/mxv
	BYTE	W02
	BYTE		        93*staff_roll_credits_mvl/mxv
	BYTE	W02
	BYTE		        92*staff_roll_credits_mvl/mxv
	BYTE	W02
	BYTE		        91*staff_roll_credits_mvl/mxv
	BYTE	W02
	BYTE		        90*staff_roll_credits_mvl/mxv
	BYTE	W02
	BYTE		        89*staff_roll_credits_mvl/mxv
	BYTE	W02
	BYTE		        88*staff_roll_credits_mvl/mxv
	BYTE	W01
	BYTE		        87*staff_roll_credits_mvl/mxv
	BYTE	W02
	BYTE		        86*staff_roll_credits_mvl/mxv
	BYTE	W02
	BYTE		        85*staff_roll_credits_mvl/mxv
	BYTE	W02
	BYTE		        82*staff_roll_credits_mvl/mxv
	BYTE	W02
	BYTE		        81*staff_roll_credits_mvl/mxv
	BYTE	W02
	BYTE		        79*staff_roll_credits_mvl/mxv
	BYTE	W02
	BYTE		        77*staff_roll_credits_mvl/mxv
	BYTE	W02
	BYTE		        75*staff_roll_credits_mvl/mxv
	BYTE	W01
	BYTE		        75*staff_roll_credits_mvl/mxv
	BYTE	W02
	BYTE		        73*staff_roll_credits_mvl/mxv
	BYTE	W02
	BYTE		        71*staff_roll_credits_mvl/mxv
	BYTE	W02
	BYTE		        69*staff_roll_credits_mvl/mxv
	BYTE	W02
	BYTE		        68*staff_roll_credits_mvl/mxv
	BYTE	W02
	BYTE		        67*staff_roll_credits_mvl/mxv
	BYTE	W02
	BYTE		        65*staff_roll_credits_mvl/mxv
	BYTE	W02
	BYTE		        61*staff_roll_credits_mvl/mxv
	BYTE	W01
	BYTE		        59*staff_roll_credits_mvl/mxv
	BYTE	W02
	BYTE		        56*staff_roll_credits_mvl/mxv
	BYTE	W02
	BYTE		        52*staff_roll_credits_mvl/mxv
	BYTE	W02
	BYTE		        50*staff_roll_credits_mvl/mxv
	BYTE	W02
	BYTE		        47*staff_roll_credits_mvl/mxv
	BYTE	W02
	BYTE		        43*staff_roll_credits_mvl/mxv
	BYTE	W02
	BYTE		        40*staff_roll_credits_mvl/mxv
	BYTE	W02
	BYTE		        35*staff_roll_credits_mvl/mxv
	BYTE	W01
	BYTE		        34*staff_roll_credits_mvl/mxv
	BYTE	W02
	BYTE		        29*staff_roll_credits_mvl/mxv
	BYTE	W02
	BYTE		        24*staff_roll_credits_mvl/mxv
	BYTE	W02
	BYTE		        20*staff_roll_credits_mvl/mxv
	BYTE	W02
	BYTE		        16*staff_roll_credits_mvl/mxv
	BYTE	W02
	BYTE		        11*staff_roll_credits_mvl/mxv
	BYTE	W02
	BYTE		        7*staff_roll_credits_mvl/mxv
	BYTE	W14
	BYTE		        0*staff_roll_credits_mvl/mxv
	BYTE		PAN     c_v-40
	BYTE	W01
	BYTE		EOT     An2 
	BYTE		TIE     Dn3   v120
	BYTE	W02
	BYTE		VOL     3*staff_roll_credits_mvl/mxv
	BYTE	W02
	BYTE		        12*staff_roll_credits_mvl/mxv
	BYTE	W02
	BYTE		        15*staff_roll_credits_mvl/mxv
	BYTE	W01
	BYTE		        17*staff_roll_credits_mvl/mxv
	BYTE	W02
	BYTE		        19*staff_roll_credits_mvl/mxv
	BYTE	W01
	BYTE		        20*staff_roll_credits_mvl/mxv
	BYTE	W02
	BYTE		        23*staff_roll_credits_mvl/mxv
	BYTE	W01
	BYTE		        25*staff_roll_credits_mvl/mxv
	BYTE	W02
	BYTE		        28*staff_roll_credits_mvl/mxv
	BYTE	W02
	BYTE		        31*staff_roll_credits_mvl/mxv
	BYTE	W01
	BYTE		        33*staff_roll_credits_mvl/mxv
	BYTE	W02
	BYTE		        35*staff_roll_credits_mvl/mxv
	BYTE	W01
	BYTE		        36*staff_roll_credits_mvl/mxv
	BYTE	W02
	BYTE		        39*staff_roll_credits_mvl/mxv
	BYTE	W01
	BYTE		        41*staff_roll_credits_mvl/mxv
	BYTE	W02
	BYTE		        44*staff_roll_credits_mvl/mxv
	BYTE	W02
	BYTE		        47*staff_roll_credits_mvl/mxv
	BYTE	W01
	BYTE		        49*staff_roll_credits_mvl/mxv
	BYTE	W02
	BYTE		        51*staff_roll_credits_mvl/mxv
	BYTE	W01
	BYTE		        52*staff_roll_credits_mvl/mxv
	BYTE	W02
	BYTE		        55*staff_roll_credits_mvl/mxv
	BYTE	W01
	BYTE		        57*staff_roll_credits_mvl/mxv
	BYTE	W02
	BYTE		        60*staff_roll_credits_mvl/mxv
	BYTE	W02
	BYTE		        63*staff_roll_credits_mvl/mxv
	BYTE	W01
	BYTE		        65*staff_roll_credits_mvl/mxv
	BYTE	W02
	BYTE		        68*staff_roll_credits_mvl/mxv
	BYTE	W01
	BYTE		        68*staff_roll_credits_mvl/mxv
	BYTE	W02
	BYTE		        71*staff_roll_credits_mvl/mxv
	BYTE	W01
	BYTE		        73*staff_roll_credits_mvl/mxv
	BYTE	W02
	BYTE		        76*staff_roll_credits_mvl/mxv
	BYTE	W02
	BYTE		        79*staff_roll_credits_mvl/mxv
	BYTE	W01
	BYTE		        81*staff_roll_credits_mvl/mxv
	BYTE	W02
	BYTE		        84*staff_roll_credits_mvl/mxv
	BYTE	W01
	BYTE		        85*staff_roll_credits_mvl/mxv
	BYTE	W02
	BYTE		        87*staff_roll_credits_mvl/mxv
	BYTE	W01
	BYTE		        89*staff_roll_credits_mvl/mxv
	BYTE	W02
	BYTE		        92*staff_roll_credits_mvl/mxv
	BYTE	W02
	BYTE		        95*staff_roll_credits_mvl/mxv
	BYTE	W01
	BYTE		        97*staff_roll_credits_mvl/mxv
	BYTE	W02
	BYTE		        100*staff_roll_credits_mvl/mxv
	BYTE	W01
	BYTE		        101*staff_roll_credits_mvl/mxv
	BYTE	W02
	BYTE		        103*staff_roll_credits_mvl/mxv
	BYTE	W01
	BYTE		        105*staff_roll_credits_mvl/mxv
	BYTE	W02
	BYTE		        108*staff_roll_credits_mvl/mxv
	BYTE	W24
	BYTE	W02
	BYTE	PEND
	BYTE	W09
	BYTE		VOL     103*staff_roll_credits_mvl/mxv
	BYTE	W02
	BYTE		        102*staff_roll_credits_mvl/mxv
	BYTE	W02
	BYTE		        102*staff_roll_credits_mvl/mxv
	BYTE	W02
	BYTE		        101*staff_roll_credits_mvl/mxv
	BYTE	W02
	BYTE		        100*staff_roll_credits_mvl/mxv
	BYTE	W02
	BYTE		        99*staff_roll_credits_mvl/mxv
	BYTE	W02
	BYTE		        98*staff_roll_credits_mvl/mxv
	BYTE	W02
	BYTE		        97*staff_roll_credits_mvl/mxv
	BYTE	W01
	BYTE		        96*staff_roll_credits_mvl/mxv
	BYTE	W02
	BYTE		        95*staff_roll_credits_mvl/mxv
	BYTE	W02
	BYTE		        94*staff_roll_credits_mvl/mxv
	BYTE	W02
	BYTE		        93*staff_roll_credits_mvl/mxv
	BYTE	W02
	BYTE		        92*staff_roll_credits_mvl/mxv
	BYTE	W02
	BYTE		        91*staff_roll_credits_mvl/mxv
	BYTE	W02
	BYTE		        90*staff_roll_credits_mvl/mxv
	BYTE	W02
	BYTE		        89*staff_roll_credits_mvl/mxv
	BYTE	W01
	BYTE		        88*staff_roll_credits_mvl/mxv
	BYTE	W02
	BYTE		        86*staff_roll_credits_mvl/mxv
	BYTE	W02
	BYTE		        84*staff_roll_credits_mvl/mxv
	BYTE	W02
	BYTE		        82*staff_roll_credits_mvl/mxv
	BYTE	W02
	BYTE		        79*staff_roll_credits_mvl/mxv
	BYTE	W02
	BYTE		        77*staff_roll_credits_mvl/mxv
	BYTE	W02
	BYTE		        74*staff_roll_credits_mvl/mxv
	BYTE	W02
	BYTE		        72*staff_roll_credits_mvl/mxv
	BYTE	W01
	BYTE		        70*staff_roll_credits_mvl/mxv
	BYTE	W02
	BYTE		        68*staff_roll_credits_mvl/mxv
	BYTE	W02
	BYTE		        66*staff_roll_credits_mvl/mxv
	BYTE	W02
	BYTE		        64*staff_roll_credits_mvl/mxv
	BYTE	W02
	BYTE		        59*staff_roll_credits_mvl/mxv
	BYTE	W02
	BYTE		        54*staff_roll_credits_mvl/mxv
	BYTE	W02
	BYTE		        51*staff_roll_credits_mvl/mxv
	BYTE	W02
	BYTE		        46*staff_roll_credits_mvl/mxv
	BYTE	W01
	BYTE		        44*staff_roll_credits_mvl/mxv
	BYTE	W02
	BYTE		        39*staff_roll_credits_mvl/mxv
	BYTE	W02
	BYTE		        34*staff_roll_credits_mvl/mxv
	BYTE	W02
	BYTE		        31*staff_roll_credits_mvl/mxv
	BYTE	W02
	BYTE		        26*staff_roll_credits_mvl/mxv
	BYTE	W02
	BYTE		        21*staff_roll_credits_mvl/mxv
	BYTE	W02
	BYTE		        17*staff_roll_credits_mvl/mxv
	BYTE	W14
	BYTE		        0*staff_roll_credits_mvl/mxv
	BYTE		PAN     c_v-40
	BYTE	W01
	BYTE	PEND
	BYTE		EOT     Dn3 
	BYTE	PATT
	 POIN2	staff_roll_credits_4 + 0x136
	BYTE	PATT
	 POIN2	staff_roll_credits_4 + 0x195
	BYTE		EOT     Dn3 
	BYTE	PATT
	 POIN2	staff_roll_credits_4 + 0x136
	BYTE	PATT
	 POIN2	staff_roll_credits_4 + 0x195
	BYTE		EOT     Dn3 
	BYTE	PATT
	 POIN2	staff_roll_credits_4 + 0x136
	BYTE	W72
	BYTE	W01
	BYTE		VOL     102*staff_roll_credits_mvl/mxv
	BYTE	W02
	BYTE		        102*staff_roll_credits_mvl/mxv
	BYTE	W02
	BYTE		        101*staff_roll_credits_mvl/mxv
	BYTE	W02
	BYTE		        100*staff_roll_credits_mvl/mxv
	BYTE	W02
	BYTE		        99*staff_roll_credits_mvl/mxv
	BYTE	W02
	BYTE		        98*staff_roll_credits_mvl/mxv
	BYTE	W02
	BYTE		        97*staff_roll_credits_mvl/mxv
	BYTE	W02
	BYTE		        96*staff_roll_credits_mvl/mxv
	BYTE	W02
	BYTE		        95*staff_roll_credits_mvl/mxv
	BYTE	W01
	BYTE		        94*staff_roll_credits_mvl/mxv
	BYTE	W02
	BYTE		        93*staff_roll_credits_mvl/mxv
	BYTE	W02
	BYTE		        92*staff_roll_credits_mvl/mxv
	BYTE	W02
	BYTE		        91*staff_roll_credits_mvl/mxv
	BYTE	W02
	BYTE		        90*staff_roll_credits_mvl/mxv
	BYTE	W02
	BYTE		        89*staff_roll_credits_mvl/mxv
	BYTE	W02
	BYTE		        88*staff_roll_credits_mvl/mxv
	BYTE	W02
	BYTE		        87*staff_roll_credits_mvl/mxv
	BYTE	W02
	BYTE		        86*staff_roll_credits_mvl/mxv
	BYTE	W01
	BYTE		        84*staff_roll_credits_mvl/mxv
	BYTE	W02
	BYTE		        81*staff_roll_credits_mvl/mxv
	BYTE	W02
	BYTE		        78*staff_roll_credits_mvl/mxv
	BYTE	W02
	BYTE		        74*staff_roll_credits_mvl/mxv
	BYTE	W02
	BYTE		        71*staff_roll_credits_mvl/mxv
	BYTE	W02
	BYTE		        68*staff_roll_credits_mvl/mxv
	BYTE	W02
	BYTE		        65*staff_roll_credits_mvl/mxv
	BYTE	W02
	BYTE		        61*staff_roll_credits_mvl/mxv
	BYTE	W02
	BYTE		        58*staff_roll_credits_mvl/mxv
	BYTE	W01
	BYTE		        56*staff_roll_credits_mvl/mxv
	BYTE	W02
	BYTE		        53*staff_roll_credits_mvl/mxv
	BYTE	W02
	BYTE		        50*staff_roll_credits_mvl/mxv
	BYTE	W02
	BYTE		        47*staff_roll_credits_mvl/mxv
	BYTE	W02
	BYTE		        44*staff_roll_credits_mvl/mxv
	BYTE	W02
	BYTE		        40*staff_roll_credits_mvl/mxv
	BYTE	W02
	BYTE		        37*staff_roll_credits_mvl/mxv
	BYTE	W02
	BYTE		        34*staff_roll_credits_mvl/mxv
	BYTE	W05
	BYTE		VOICE   95
	BYTE		MOD     25
	BYTE		VOL     71*staff_roll_credits_mvl/mxv
	BYTE		PAN     c_v-20
	BYTE		MODT    mod_pan
	BYTE	W01
	BYTE		EOT     Dn3 
	BYTE		N48     Cn2   v096
	BYTE	W06
	BYTE		VOL     74*staff_roll_credits_mvl/mxv
	BYTE	W07
	BYTE		        77*staff_roll_credits_mvl/mxv
	BYTE	W07
	BYTE		        80*staff_roll_credits_mvl/mxv
	BYTE	W07
	BYTE		        83*staff_roll_credits_mvl/mxv
	BYTE	W06
	BYTE		        85*staff_roll_credits_mvl/mxv
	BYTE	W07
	BYTE		        87*staff_roll_credits_mvl/mxv
	BYTE	W07
	BYTE		        90*staff_roll_credits_mvl/mxv
	BYTE	W01
	BYTE		N48     Dn2 
	BYTE	W06
	BYTE		VOL     94*staff_roll_credits_mvl/mxv
	BYTE	W06
	BYTE		        97*staff_roll_credits_mvl/mxv
	BYTE	W07
	BYTE		        99*staff_roll_credits_mvl/mxv
	BYTE	W07
	BYTE		        102*staff_roll_credits_mvl/mxv
	BYTE	W07
	BYTE		        104*staff_roll_credits_mvl/mxv
	BYTE	W06
	BYTE		        107*staff_roll_credits_mvl/mxv
	BYTE	W07
	BYTE		        111*staff_roll_credits_mvl/mxv
	BYTE	W02
	BYTE		N72     Gn2 
	BYTE	W05
	BYTE		VOL     115*staff_roll_credits_mvl/mxv
	BYTE	W07
	BYTE		        110*staff_roll_credits_mvl/mxv
	BYTE	W03
	BYTE		        106*staff_roll_credits_mvl/mxv
	BYTE	W03
	BYTE		        102*staff_roll_credits_mvl/mxv
	BYTE	W02
	BYTE		        100*staff_roll_credits_mvl/mxv
	BYTE	W02
	BYTE		        97*staff_roll_credits_mvl/mxv
	BYTE	W03
	BYTE		        93*staff_roll_credits_mvl/mxv
	BYTE	W02
	BYTE		        90*staff_roll_credits_mvl/mxv
	BYTE	W02
	BYTE		        87*staff_roll_credits_mvl/mxv
	BYTE	W03
	BYTE		        83*staff_roll_credits_mvl/mxv
	BYTE	W02
	BYTE		        80*staff_roll_credits_mvl/mxv
	BYTE	W02
	BYTE		        78*staff_roll_credits_mvl/mxv
	BYTE	W03
	BYTE		        73*staff_roll_credits_mvl/mxv
	BYTE	W02
	BYTE		        70*staff_roll_credits_mvl/mxv
	BYTE	W02
	BYTE		        68*staff_roll_credits_mvl/mxv
	BYTE	W03
	BYTE		        61*staff_roll_credits_mvl/mxv
	BYTE	W02
	BYTE		        56*staff_roll_credits_mvl/mxv
	BYTE	W02
	BYTE		        51*staff_roll_credits_mvl/mxv
	BYTE	W02
	BYTE		        47*staff_roll_credits_mvl/mxv
	BYTE	W02
	BYTE		        42*staff_roll_credits_mvl/mxv
	BYTE	W01
	BYTE		        40*staff_roll_credits_mvl/mxv
	BYTE	W02
	BYTE		        35*staff_roll_credits_mvl/mxv
	BYTE	W02
	BYTE		        31*staff_roll_credits_mvl/mxv
	BYTE	W02
	BYTE		        26*staff_roll_credits_mvl/mxv
	BYTE	W02
	BYTE		        21*staff_roll_credits_mvl/mxv
	BYTE	W01
	BYTE		        18*staff_roll_credits_mvl/mxv
	BYTE	W02
	BYTE		        14*staff_roll_credits_mvl/mxv
	BYTE	W02
	BYTE		        9*staff_roll_credits_mvl/mxv
	BYTE	W02
	BYTE		        4*staff_roll_credits_mvl/mxv
	BYTE	W02
	BYTE		        0*staff_roll_credits_mvl/mxv
	BYTE	W23
	BYTE		        71*staff_roll_credits_mvl/mxv
	BYTE	W01
	BYTE		N48     Cn2 
	BYTE	W06
	BYTE		VOL     74*staff_roll_credits_mvl/mxv
	BYTE	W07
	BYTE		        77*staff_roll_credits_mvl/mxv
	BYTE	W07
	BYTE		        80*staff_roll_credits_mvl/mxv
	BYTE	W07
	BYTE		        83*staff_roll_credits_mvl/mxv
	BYTE	W06
	BYTE		        85*staff_roll_credits_mvl/mxv
	BYTE	W07
	BYTE		        87*staff_roll_credits_mvl/mxv
	BYTE	W07
	BYTE		        90*staff_roll_credits_mvl/mxv
	BYTE	W01
	BYTE		N48     Dn2 
	BYTE	W06
	BYTE		VOL     94*staff_roll_credits_mvl/mxv
	BYTE	W06
	BYTE		        97*staff_roll_credits_mvl/mxv
	BYTE	W07
	BYTE		        99*staff_roll_credits_mvl/mxv
	BYTE	W07
	BYTE		        100*staff_roll_credits_mvl/mxv
	BYTE	W07
	BYTE		        98*staff_roll_credits_mvl/mxv
	BYTE	W06
	BYTE		        94*staff_roll_credits_mvl/mxv
	BYTE	W07
	BYTE		        90*staff_roll_credits_mvl/mxv
	BYTE	W02
	BYTE		N48     Fn2 
	BYTE	W05
	BYTE		VOL     85*staff_roll_credits_mvl/mxv
	BYTE	W07
	BYTE		        79*staff_roll_credits_mvl/mxv
	BYTE	W03
	BYTE		        74*staff_roll_credits_mvl/mxv
	BYTE	W03
	BYTE		        71*staff_roll_credits_mvl/mxv
	BYTE	W02
	BYTE		        68*staff_roll_credits_mvl/mxv
	BYTE	W02
	BYTE		        65*staff_roll_credits_mvl/mxv
	BYTE	W03
	BYTE		        60*staff_roll_credits_mvl/mxv
	BYTE	W02
	BYTE		        57*staff_roll_credits_mvl/mxv
	BYTE	W02
	BYTE		        52*staff_roll_credits_mvl/mxv
	BYTE	W03
	BYTE		        44*staff_roll_credits_mvl/mxv
	BYTE	W02
	BYTE		        39*staff_roll_credits_mvl/mxv
	BYTE	W02
	BYTE		        37*staff_roll_credits_mvl/mxv
	BYTE	W03
	BYTE		        30*staff_roll_credits_mvl/mxv
	BYTE	W02
	BYTE		        27*staff_roll_credits_mvl/mxv
	BYTE	W02
	BYTE		        23*staff_roll_credits_mvl/mxv
	BYTE	W03
	BYTE		        11*staff_roll_credits_mvl/mxv
	BYTE	W02
	BYTE		        13*staff_roll_credits_mvl/mxv
	BYTE		N96     Ds2   v072
	BYTE	W02
	BYTE		VOL     15*staff_roll_credits_mvl/mxv
	BYTE	W02
	BYTE		        19*staff_roll_credits_mvl/mxv
	BYTE	W02
	BYTE		        22*staff_roll_credits_mvl/mxv
	BYTE	W01
	BYTE		        24*staff_roll_credits_mvl/mxv
	BYTE	W02
	BYTE		        28*staff_roll_credits_mvl/mxv
	BYTE	W02
	BYTE		        31*staff_roll_credits_mvl/mxv
	BYTE	W02
	BYTE		        34*staff_roll_credits_mvl/mxv
	BYTE	W02
	BYTE		        38*staff_roll_credits_mvl/mxv
	BYTE	W01
	BYTE		        40*staff_roll_credits_mvl/mxv
	BYTE	W02
	BYTE		        43*staff_roll_credits_mvl/mxv
	BYTE	W02
	BYTE		        47*staff_roll_credits_mvl/mxv
	BYTE	W02
	BYTE		        51*staff_roll_credits_mvl/mxv
	BYTE	W02
	BYTE		        54*staff_roll_credits_mvl/mxv
	BYTE	W02
	BYTE		        57*staff_roll_credits_mvl/mxv
	BYTE	W02
	BYTE		        61*staff_roll_credits_mvl/mxv
	BYTE	W02
	BYTE		        65*staff_roll_credits_mvl/mxv
	BYTE	W01
	BYTE		        67*staff_roll_credits_mvl/mxv
	BYTE	W02
	BYTE		        69*staff_roll_credits_mvl/mxv
	BYTE	W02
	BYTE		        73*staff_roll_credits_mvl/mxv
	BYTE	W02
	BYTE		        77*staff_roll_credits_mvl/mxv
	BYTE	W02
	BYTE		        59*staff_roll_credits_mvl/mxv
	BYTE	W01
	BYTE		        80*staff_roll_credits_mvl/mxv
	BYTE	W02
	BYTE		        82*staff_roll_credits_mvl/mxv
	BYTE	W02
	BYTE		        84*staff_roll_credits_mvl/mxv
	BYTE	W02
	BYTE		        85*staff_roll_credits_mvl/mxv
	BYTE	W02
	BYTE		        87*staff_roll_credits_mvl/mxv
	BYTE	W02
	BYTE		        89*staff_roll_credits_mvl/mxv
	BYTE	W02
	BYTE		        91*staff_roll_credits_mvl/mxv
	BYTE	W02
	BYTE		        93*staff_roll_credits_mvl/mxv
	BYTE	W01
	BYTE		        94*staff_roll_credits_mvl/mxv
	BYTE	W02
	BYTE		        96*staff_roll_credits_mvl/mxv
	BYTE	W02
	BYTE		        98*staff_roll_credits_mvl/mxv
	BYTE	W02
	BYTE		        100*staff_roll_credits_mvl/mxv
	BYTE	W02
	BYTE		        102*staff_roll_credits_mvl/mxv
	BYTE	W01
	BYTE		        102*staff_roll_credits_mvl/mxv
	BYTE	W02
	BYTE		        100*staff_roll_credits_mvl/mxv
	BYTE	W02
	BYTE		        98*staff_roll_credits_mvl/mxv
	BYTE	W02
	BYTE		        96*staff_roll_credits_mvl/mxv
	BYTE	W02
	BYTE		        94*staff_roll_credits_mvl/mxv
	BYTE	W01
	BYTE		        92*staff_roll_credits_mvl/mxv
	BYTE	W02
	BYTE		        90*staff_roll_credits_mvl/mxv
	BYTE	W02
	BYTE		        88*staff_roll_credits_mvl/mxv
	BYTE	W02
	BYTE		        86*staff_roll_credits_mvl/mxv
	BYTE	W02
	BYTE		        84*staff_roll_credits_mvl/mxv
	BYTE	W01
	BYTE		        82*staff_roll_credits_mvl/mxv
	BYTE	W02
	BYTE		        77*staff_roll_credits_mvl/mxv
	BYTE	W02
	BYTE		        72*staff_roll_credits_mvl/mxv
	BYTE	W02
	BYTE		        68*staff_roll_credits_mvl/mxv
	BYTE	W02
	BYTE		        63*staff_roll_credits_mvl/mxv
	BYTE	W05
	BYTE		        103*staff_roll_credits_mvl/mxv
	BYTE	W01
	BYTE		N24     Fs2   v120
	BYTE	W24
	BYTE		        As2 
	BYTE	W24
	BYTE		        Gs2 
	BYTE	W24
	BYTE		        Cs3 
	BYTE	W24
	BYTE		TIE     As2 
	BYTE	W05
	BYTE		PAN     c_v-40
	BYTE	W90
	BYTE	W01
	BYTE	W96
	BYTE	W96
	BYTE	W96
	BYTE		EOT
	BYTE		N96     Fn2 
	BYTE	W96
	BYTE		N96
	BYTE	W96
	BYTE		N48     Ds2   v120
	BYTE	W48
	BYTE		        Gs2 
	BYTE	W48
	BYTE	PEND
	BYTE		N48     Fs2   v120
	BYTE	W48
	BYTE		        Fn2 
	BYTE	W48
	BYTE	PEND
	BYTE		N92
	BYTE	W96
	BYTE		N92
	BYTE	W96
	BYTE		N44     Ds2 
	BYTE	W48
	BYTE		        Gs2 
	BYTE	W48
	BYTE		        Fs2 
	BYTE	W48
	BYTE		        Fn2 
	BYTE	W48
	BYTE		TIE     As2   v088
	BYTE	W05
	BYTE		PAN     c_v+0
	BYTE	W90
	BYTE	W01
	BYTE	PEND
	BYTE	W96
	BYTE		EOT
	BYTE		N96     Gs2 
	BYTE	W96
	BYTE		N24     Ds2   v120
	BYTE	W24
	BYTE		        As2 
	BYTE	W24
	BYTE		        Gs2 
	BYTE	W24
	BYTE		        Cs3 
	BYTE	W24
	BYTE	PEND
	BYTE		TIE     As2   v088
	BYTE	W96
	BYTE	W96
	BYTE		EOT
	BYTE		N96     Gs2 
	BYTE	W96
	BYTE	PATT
	 POIN2	staff_roll_credits_4 + 0x3BB
	BYTE		N96     Fn2   v120
	BYTE	W05
	BYTE		PAN     c_v-40
	BYTE	W90
	BYTE	W01
	BYTE		N96
	BYTE	W96
	BYTE	PATT
	 POIN2	staff_roll_credits_4 + 0x392
	BYTE	PATT
	 POIN2	staff_roll_credits_4 + 0x399
	BYTE		N96     Fn2   v120
	BYTE	W96
	BYTE		N96
	BYTE	W96
	BYTE	PATT
	 POIN2	staff_roll_credits_4 + 0x392
	BYTE	PATT
	 POIN2	staff_roll_credits_4 + 0x399
	BYTE	PATT
	 POIN2	staff_roll_credits_4 + 0x3AD
	BYTE	W96
	BYTE		EOT     As2 
	BYTE		N96     Gs2   v088
	BYTE	W96
	BYTE	PATT
	 POIN2	staff_roll_credits_4 + 0x3BB
	BYTE		TIE     As2   v088
	BYTE	W96
	BYTE	W96
	BYTE		EOT
	BYTE		N96     Gs2 
	BYTE	W92
	BYTE	W03
	BYTE		VOL     103*staff_roll_credits_mvl/mxv
	BYTE	W01
	BYTE		N24     Cs2   v060
	BYTE	W05
	BYTE		PAN     c_v-30
	BYTE	W19
	BYTE		N24     As2   v112
	BYTE	W24
	BYTE		        Gs2   v080
	BYTE	W24
	BYTE		        Cs3   v112
	BYTE	W24
	BYTE		TIE     As2   v100
	BYTE	W01
	BYTE		VOL     95*staff_roll_credits_mvl/mxv
	BYTE	W06
	BYTE		        94*staff_roll_credits_mvl/mxv
	BYTE	W05
	BYTE		        93*staff_roll_credits_mvl/mxv
	BYTE	W05
	BYTE		        92*staff_roll_credits_mvl/mxv
	BYTE	W06
	BYTE		        91*staff_roll_credits_mvl/mxv
	BYTE	W05
	BYTE		        90*staff_roll_credits_mvl/mxv
	BYTE	W05
	BYTE		        89*staff_roll_credits_mvl/mxv
	BYTE	W05
	BYTE		        88*staff_roll_credits_mvl/mxv
	BYTE	W06
	BYTE		        87*staff_roll_credits_mvl/mxv
	BYTE	W05
	BYTE		        86*staff_roll_credits_mvl/mxv
	BYTE	W05
	BYTE		        85*staff_roll_credits_mvl/mxv
	BYTE	W06
	BYTE		        85*staff_roll_credits_mvl/mxv
	BYTE	W05
	BYTE		        84*staff_roll_credits_mvl/mxv
	BYTE	W05
	BYTE		        83*staff_roll_credits_mvl/mxv
	BYTE	W05
	BYTE		        82*staff_roll_credits_mvl/mxv
	BYTE	W06
	BYTE		        81*staff_roll_credits_mvl/mxv
	BYTE	W05
	BYTE		        80*staff_roll_credits_mvl/mxv
	BYTE	W05
	BYTE		        79*staff_roll_credits_mvl/mxv
	BYTE	W05
	BYTE	PEND
	BYTE		        78*staff_roll_credits_mvl/mxv
	BYTE	W06
	BYTE		        77*staff_roll_credits_mvl/mxv
	BYTE	W05
	BYTE		        74*staff_roll_credits_mvl/mxv
	BYTE	W05
	BYTE		        72*staff_roll_credits_mvl/mxv
	BYTE	W06
	BYTE		        69*staff_roll_credits_mvl/mxv
	BYTE	W05
	BYTE		        67*staff_roll_credits_mvl/mxv
	BYTE	W05
	BYTE		        64*staff_roll_credits_mvl/mxv
	BYTE	W05
	BYTE		        62*staff_roll_credits_mvl/mxv
	BYTE	W06
	BYTE		        59*staff_roll_credits_mvl/mxv
	BYTE	W05
	BYTE		        56*staff_roll_credits_mvl/mxv
	BYTE	W05
	BYTE		        54*staff_roll_credits_mvl/mxv
	BYTE	W06
	BYTE		        51*staff_roll_credits_mvl/mxv
	BYTE	W05
	BYTE		        46*staff_roll_credits_mvl/mxv
	BYTE	W05
	BYTE		        40*staff_roll_credits_mvl/mxv
	BYTE	W05
	BYTE		        34*staff_roll_credits_mvl/mxv
	BYTE	W06
	BYTE		        27*staff_roll_credits_mvl/mxv
	BYTE	W05
	BYTE		        21*staff_roll_credits_mvl/mxv
	BYTE	W05
	BYTE		        16*staff_roll_credits_mvl/mxv
	BYTE	W06
	BYTE		EOT
	BYTE	W92
	BYTE	W03
	BYTE		VOL     103*staff_roll_credits_mvl/mxv
	BYTE	W01
	BYTE		N24     Cs2   v060
	BYTE	W24
	BYTE		        As2   v112
	BYTE	W24
	BYTE		        Gs2   v080
	BYTE	W24
	BYTE		        Cs3   v112
	BYTE	W24
	BYTE	PATT
	 POIN2	staff_roll_credits_4 + 0x427
	BYTE		VOL     78*staff_roll_credits_mvl/mxv
	BYTE	W06
	BYTE		        77*staff_roll_credits_mvl/mxv
	BYTE	W05
	BYTE		        74*staff_roll_credits_mvl/mxv
	BYTE	W05
	BYTE		        72*staff_roll_credits_mvl/mxv
	BYTE	W06
	BYTE		        69*staff_roll_credits_mvl/mxv
	BYTE	W05
	BYTE		        67*staff_roll_credits_mvl/mxv
	BYTE	W05
	BYTE		        64*staff_roll_credits_mvl/mxv
	BYTE	W05
	BYTE		        62*staff_roll_credits_mvl/mxv
	BYTE	W06
	BYTE		        59*staff_roll_credits_mvl/mxv
	BYTE	W05
	BYTE		        56*staff_roll_credits_mvl/mxv
	BYTE	W05
	BYTE		        54*staff_roll_credits_mvl/mxv
	BYTE	W06
	BYTE		        51*staff_roll_credits_mvl/mxv
	BYTE	W05
	BYTE		        46*staff_roll_credits_mvl/mxv
	BYTE	W05
	BYTE		        40*staff_roll_credits_mvl/mxv
	BYTE	W05
	BYTE		        34*staff_roll_credits_mvl/mxv
	BYTE	W06
	BYTE		        27*staff_roll_credits_mvl/mxv
	BYTE	W05
	BYTE		        21*staff_roll_credits_mvl/mxv
	BYTE	W05
	BYTE		        16*staff_roll_credits_mvl/mxv
	BYTE	W05
	BYTE		EOT     As2 
	BYTE	W01
	BYTE	W96
	BYTE	W96
	BYTE	W44
	BYTE	W03
	BYTE		VOL     71*staff_roll_credits_mvl/mxv
	BYTE	W01
	BYTE		N48     Gs1   v120
	BYTE	W06
	BYTE		VOL     74*staff_roll_credits_mvl/mxv
	BYTE	W07
	BYTE		        77*staff_roll_credits_mvl/mxv
	BYTE	W07
	BYTE		        80*staff_roll_credits_mvl/mxv
	BYTE	W07
	BYTE		        83*staff_roll_credits_mvl/mxv
	BYTE	W06
	BYTE		        85*staff_roll_credits_mvl/mxv
	BYTE	W07
	BYTE		        87*staff_roll_credits_mvl/mxv
	BYTE	W07
	BYTE		        90*staff_roll_credits_mvl/mxv
	BYTE	W01
	BYTE		N48     As1   v120
	BYTE	W06
	BYTE		VOL     94*staff_roll_credits_mvl/mxv
	BYTE	W06
	BYTE		        97*staff_roll_credits_mvl/mxv
	BYTE	W07
	BYTE		        99*staff_roll_credits_mvl/mxv
	BYTE	W07
	BYTE		        102*staff_roll_credits_mvl/mxv
	BYTE	W07
	BYTE		        104*staff_roll_credits_mvl/mxv
	BYTE	W06
	BYTE		        107*staff_roll_credits_mvl/mxv
	BYTE	W07
	BYTE		        111*staff_roll_credits_mvl/mxv
	BYTE	W02
	BYTE		N72     Ds2 
	BYTE	W05
	BYTE		VOL     115*staff_roll_credits_mvl/mxv
	BYTE	W07
	BYTE		        110*staff_roll_credits_mvl/mxv
	BYTE	W03
	BYTE		        106*staff_roll_credits_mvl/mxv
	BYTE	W03
	BYTE		        102*staff_roll_credits_mvl/mxv
	BYTE	W02
	BYTE		        100*staff_roll_credits_mvl/mxv
	BYTE	W02
	BYTE		        97*staff_roll_credits_mvl/mxv
	BYTE	W03
	BYTE		        93*staff_roll_credits_mvl/mxv
	BYTE	W02
	BYTE		        90*staff_roll_credits_mvl/mxv
	BYTE	W02
	BYTE		        87*staff_roll_credits_mvl/mxv
	BYTE	W03
	BYTE		        83*staff_roll_credits_mvl/mxv
	BYTE	W02
	BYTE		        80*staff_roll_credits_mvl/mxv
	BYTE	W02
	BYTE		        78*staff_roll_credits_mvl/mxv
	BYTE	W03
	BYTE		        73*staff_roll_credits_mvl/mxv
	BYTE	W02
	BYTE		        70*staff_roll_credits_mvl/mxv
	BYTE	W02
	BYTE		        68*staff_roll_credits_mvl/mxv
	BYTE	W03
	BYTE		        61*staff_roll_credits_mvl/mxv
	BYTE	W02
	BYTE	PEND
	BYTE		VOL     56*staff_roll_credits_mvl/mxv
	BYTE	W02
	BYTE		        51*staff_roll_credits_mvl/mxv
	BYTE	W02
	BYTE		        47*staff_roll_credits_mvl/mxv
	BYTE	W02
	BYTE		        42*staff_roll_credits_mvl/mxv
	BYTE	W01
	BYTE		        40*staff_roll_credits_mvl/mxv
	BYTE	W02
	BYTE		        35*staff_roll_credits_mvl/mxv
	BYTE	W02
	BYTE		        31*staff_roll_credits_mvl/mxv
	BYTE	W02
	BYTE		        26*staff_roll_credits_mvl/mxv
	BYTE	W02
	BYTE		        21*staff_roll_credits_mvl/mxv
	BYTE	W01
	BYTE		        18*staff_roll_credits_mvl/mxv
	BYTE	W02
	BYTE		        14*staff_roll_credits_mvl/mxv
	BYTE	W02
	BYTE		        9*staff_roll_credits_mvl/mxv
	BYTE	W02
	BYTE		        4*staff_roll_credits_mvl/mxv
	BYTE	W02
	BYTE		        0*staff_roll_credits_mvl/mxv
	BYTE	W23
	BYTE		        71*staff_roll_credits_mvl/mxv
	BYTE	W01
	BYTE		N48     Gs1   v120
	BYTE	W06
	BYTE		VOL     74*staff_roll_credits_mvl/mxv
	BYTE	W07
	BYTE		        77*staff_roll_credits_mvl/mxv
	BYTE	W07
	BYTE		        80*staff_roll_credits_mvl/mxv
	BYTE	W07
	BYTE		        83*staff_roll_credits_mvl/mxv
	BYTE	W06
	BYTE		        85*staff_roll_credits_mvl/mxv
	BYTE	W07
	BYTE		        87*staff_roll_credits_mvl/mxv
	BYTE	W07
	BYTE		        90*staff_roll_credits_mvl/mxv
	BYTE	W01
	BYTE	PEND
	BYTE		N48     As1 
	BYTE	W06
	BYTE		VOL     94*staff_roll_credits_mvl/mxv
	BYTE	W06
	BYTE		        97*staff_roll_credits_mvl/mxv
	BYTE	W07
	BYTE		        99*staff_roll_credits_mvl/mxv
	BYTE	W07
	BYTE		        102*staff_roll_credits_mvl/mxv
	BYTE	W07
	BYTE		        104*staff_roll_credits_mvl/mxv
	BYTE	W06
	BYTE		        107*staff_roll_credits_mvl/mxv
	BYTE	W07
	BYTE		        111*staff_roll_credits_mvl/mxv
	BYTE	W02
	BYTE		N72     Cs2 
	BYTE	W05
	BYTE		VOL     115*staff_roll_credits_mvl/mxv
	BYTE	W07
	BYTE		        110*staff_roll_credits_mvl/mxv
	BYTE	W03
	BYTE		        106*staff_roll_credits_mvl/mxv
	BYTE	W03
	BYTE		        102*staff_roll_credits_mvl/mxv
	BYTE	W02
	BYTE		        100*staff_roll_credits_mvl/mxv
	BYTE	W02
	BYTE		        97*staff_roll_credits_mvl/mxv
	BYTE	W03
	BYTE		        93*staff_roll_credits_mvl/mxv
	BYTE	W02
	BYTE		        90*staff_roll_credits_mvl/mxv
	BYTE	W02
	BYTE		        87*staff_roll_credits_mvl/mxv
	BYTE	W03
	BYTE		        83*staff_roll_credits_mvl/mxv
	BYTE	W02
	BYTE		        80*staff_roll_credits_mvl/mxv
	BYTE	W02
	BYTE		        78*staff_roll_credits_mvl/mxv
	BYTE	W03
	BYTE		        73*staff_roll_credits_mvl/mxv
	BYTE	W02
	BYTE		        70*staff_roll_credits_mvl/mxv
	BYTE	W02
	BYTE		        68*staff_roll_credits_mvl/mxv
	BYTE	W03
	BYTE		        61*staff_roll_credits_mvl/mxv
	BYTE	W02
	BYTE	PATT
	 POIN2	staff_roll_credits_4 + 0x507
	BYTE	PATT
	 POIN2	staff_roll_credits_4 + 0x4CF
	BYTE	PATT
	 POIN2	staff_roll_credits_4 + 0x507
	BYTE		N48     As1   v120
	BYTE	W06
	BYTE		VOL     94*staff_roll_credits_mvl/mxv
	BYTE	W06
	BYTE		        97*staff_roll_credits_mvl/mxv
	BYTE	W07
	BYTE		        99*staff_roll_credits_mvl/mxv
	BYTE	W07
	BYTE		        102*staff_roll_credits_mvl/mxv
	BYTE	W07
	BYTE		        104*staff_roll_credits_mvl/mxv
	BYTE	W06
	BYTE		        107*staff_roll_credits_mvl/mxv
	BYTE	W07
	BYTE		        111*staff_roll_credits_mvl/mxv
	BYTE	W02
	BYTE		N48     Cs2 
	BYTE	W05
	BYTE		VOL     113*staff_roll_credits_mvl/mxv
	BYTE	W42
	BYTE	W01
	BYTE		TIE     Ds2 
	BYTE	W96
	BYTE	W96
	BYTE	W96
	BYTE	W96
	BYTE	W96
	BYTE	W96
	BYTE	W96
	BYTE	W96
	BYTE		EOT
	BYTE		N96     Fn2 
	BYTE	W05
	BYTE		VOL     103*staff_roll_credits_mvl/mxv
	BYTE		PAN     c_v-40
	BYTE	W90
	BYTE	W01
	BYTE		N96
	BYTE	W96
	BYTE	PATT
	 POIN2	staff_roll_credits_4 + 0x392
	BYTE	PATT
	 POIN2	staff_roll_credits_4 + 0x399
	BYTE	GoTo
	 POIN2	staff_roll_credits_4 + 0x3E8
	BYTE	W96
	BYTE	W96
	BYTE	W96
	BYTE	W96
	BYTE	W96
	BYTE	W96
	BYTE	W96
	BYTE	W96
	BYTE	W96
	BYTE	W96
	BYTE	W96
	BYTE	W96
	BYTE	FINE

//*********************** Track 06 ***********************//

staff_roll_credits_5:
	BYTE	KEYSH   staff_roll_credits_key+0
	BYTE	W09
	BYTE		VOICE   4
	BYTE		VOL     0*staff_roll_credits_mvl/mxv
	BYTE		PAN     c_v+20
	BYTE	W01
	BYTE		MOD     25
	BYTE		MODT    mod_tre
	BYTE	W24
	BYTE	W02
	BYTE		TIE     Dn2   v100
	BYTE	W02
	BYTE		VOL     3*staff_roll_credits_mvl/mxv
	BYTE	W02
	BYTE		        5*staff_roll_credits_mvl/mxv
	BYTE	W02
	BYTE		        8*staff_roll_credits_mvl/mxv
	BYTE	W01
	BYTE		        10*staff_roll_credits_mvl/mxv
	BYTE	W02
	BYTE		        12*staff_roll_credits_mvl/mxv
	BYTE	W01
	BYTE		        14*staff_roll_credits_mvl/mxv
	BYTE	W02
	BYTE		        17*staff_roll_credits_mvl/mxv
	BYTE	W01
	BYTE		        17*staff_roll_credits_mvl/mxv
	BYTE	W02
	BYTE		        20*staff_roll_credits_mvl/mxv
	BYTE	W02
	BYTE		        23*staff_roll_credits_mvl/mxv
	BYTE	W01
	BYTE		        24*staff_roll_credits_mvl/mxv
	BYTE	W02
	BYTE		        27*staff_roll_credits_mvl/mxv
	BYTE	W01
	BYTE		        28*staff_roll_credits_mvl/mxv
	BYTE	W02
	BYTE		        31*staff_roll_credits_mvl/mxv
	BYTE	W01
	BYTE		        32*staff_roll_credits_mvl/mxv
	BYTE	W02
	BYTE		        34*staff_roll_credits_mvl/mxv
	BYTE	W02
	BYTE		        37*staff_roll_credits_mvl/mxv
	BYTE	W01
	BYTE		        38*staff_roll_credits_mvl/mxv
	BYTE	W02
	BYTE		        41*staff_roll_credits_mvl/mxv
	BYTE	W01
	BYTE		        43*staff_roll_credits_mvl/mxv
	BYTE	W02
	BYTE		        45*staff_roll_credits_mvl/mxv
	BYTE	W01
	BYTE		        47*staff_roll_credits_mvl/mxv
	BYTE	W02
	BYTE		        50*staff_roll_credits_mvl/mxv
	BYTE	W02
	BYTE		        51*staff_roll_credits_mvl/mxv
	BYTE	W01
	BYTE		        53*staff_roll_credits_mvl/mxv
	BYTE	W02
	BYTE		        56*staff_roll_credits_mvl/mxv
	BYTE	W01
	BYTE		        57*staff_roll_credits_mvl/mxv
	BYTE	W02
	BYTE		        60*staff_roll_credits_mvl/mxv
	BYTE	W01
	BYTE		        61*staff_roll_credits_mvl/mxv
	BYTE	W02
	BYTE		        64*staff_roll_credits_mvl/mxv
	BYTE	W02
	BYTE		        67*staff_roll_credits_mvl/mxv
	BYTE	W01
	BYTE		        68*staff_roll_credits_mvl/mxv
	BYTE	W02
	BYTE		        70*staff_roll_credits_mvl/mxv
	BYTE	W01
	BYTE		        71*staff_roll_credits_mvl/mxv
	BYTE	W02
	BYTE		        74*staff_roll_credits_mvl/mxv
	BYTE	W01
	BYTE		        76*staff_roll_credits_mvl/mxv
	BYTE	W02
	BYTE		        78*staff_roll_credits_mvl/mxv
	BYTE	W02
	BYTE		        81*staff_roll_credits_mvl/mxv
	BYTE	W01
	BYTE		        83*staff_roll_credits_mvl/mxv
	BYTE	W02
	BYTE		        85*staff_roll_credits_mvl/mxv
	BYTE	W01
	BYTE		        86*staff_roll_credits_mvl/mxv
	BYTE	W02
	BYTE		        89*staff_roll_credits_mvl/mxv
	BYTE	W01
	BYTE		        90*staff_roll_credits_mvl/mxv
	BYTE	W02
	BYTE		        94*staff_roll_credits_mvl/mxv
	BYTE	W24
	BYTE	W02
	BYTE	PEND
	BYTE	W09
	BYTE		VOL     95*staff_roll_credits_mvl/mxv
	BYTE	W02
	BYTE		        94*staff_roll_credits_mvl/mxv
	BYTE	W02
	BYTE		        93*staff_roll_credits_mvl/mxv
	BYTE	W02
	BYTE		        92*staff_roll_credits_mvl/mxv
	BYTE	W02
	BYTE		        91*staff_roll_credits_mvl/mxv
	BYTE	W02
	BYTE		        90*staff_roll_credits_mvl/mxv
	BYTE	W02
	BYTE		        89*staff_roll_credits_mvl/mxv
	BYTE	W02
	BYTE		        88*staff_roll_credits_mvl/mxv
	BYTE	W01
	BYTE		        87*staff_roll_credits_mvl/mxv
	BYTE	W02
	BYTE		        86*staff_roll_credits_mvl/mxv
	BYTE	W02
	BYTE		        85*staff_roll_credits_mvl/mxv
	BYTE	W02
	BYTE		        82*staff_roll_credits_mvl/mxv
	BYTE	W02
	BYTE		        81*staff_roll_credits_mvl/mxv
	BYTE	W02
	BYTE		        79*staff_roll_credits_mvl/mxv
	BYTE	W02
	BYTE		        77*staff_roll_credits_mvl/mxv
	BYTE	W02
	BYTE		        75*staff_roll_credits_mvl/mxv
	BYTE	W01
	BYTE		        75*staff_roll_credits_mvl/mxv
	BYTE	W02
	BYTE		        73*staff_roll_credits_mvl/mxv
	BYTE	W02
	BYTE		        71*staff_roll_credits_mvl/mxv
	BYTE	W02
	BYTE		        69*staff_roll_credits_mvl/mxv
	BYTE	W02
	BYTE		        68*staff_roll_credits_mvl/mxv
	BYTE	W02
	BYTE		        67*staff_roll_credits_mvl/mxv
	BYTE	W02
	BYTE		        65*staff_roll_credits_mvl/mxv
	BYTE	W02
	BYTE		        61*staff_roll_credits_mvl/mxv
	BYTE	W01
	BYTE		        59*staff_roll_credits_mvl/mxv
	BYTE	W02
	BYTE		        56*staff_roll_credits_mvl/mxv
	BYTE	W02
	BYTE		        52*staff_roll_credits_mvl/mxv
	BYTE	W02
	BYTE		        50*staff_roll_credits_mvl/mxv
	BYTE	W02
	BYTE		        47*staff_roll_credits_mvl/mxv
	BYTE	W02
	BYTE		        43*staff_roll_credits_mvl/mxv
	BYTE	W02
	BYTE		        40*staff_roll_credits_mvl/mxv
	BYTE	W02
	BYTE		        35*staff_roll_credits_mvl/mxv
	BYTE	W01
	BYTE		        34*staff_roll_credits_mvl/mxv
	BYTE	W02
	BYTE		        29*staff_roll_credits_mvl/mxv
	BYTE	W02
	BYTE		        24*staff_roll_credits_mvl/mxv
	BYTE	W02
	BYTE		        20*staff_roll_credits_mvl/mxv
	BYTE	W02
	BYTE		        16*staff_roll_credits_mvl/mxv
	BYTE	W02
	BYTE		        11*staff_roll_credits_mvl/mxv
	BYTE	W02
	BYTE		        7*staff_roll_credits_mvl/mxv
	BYTE	W14
	BYTE		        0*staff_roll_credits_mvl/mxv
	BYTE	W01
	BYTE	PEND
	BYTE		EOT     Dn2 
	BYTE	PATT
	 POIN2	staff_roll_credits_5 + 0x10
	BYTE	PATT
	 POIN2	staff_roll_credits_5 + 0x6F
	BYTE		EOT     Dn2 
	BYTE	PATT
	 POIN2	staff_roll_credits_5 + 0x10
	BYTE	PATT
	 POIN2	staff_roll_credits_5 + 0x6F
	BYTE		EOT     Dn2 
	BYTE	PATT
	 POIN2	staff_roll_credits_5 + 0x10
	BYTE	W09
	BYTE		VOL     95*staff_roll_credits_mvl/mxv
	BYTE	W02
	BYTE		        94*staff_roll_credits_mvl/mxv
	BYTE	W02
	BYTE		        93*staff_roll_credits_mvl/mxv
	BYTE	W02
	BYTE		        92*staff_roll_credits_mvl/mxv
	BYTE	W02
	BYTE		        91*staff_roll_credits_mvl/mxv
	BYTE	W02
	BYTE		        90*staff_roll_credits_mvl/mxv
	BYTE	W02
	BYTE		        89*staff_roll_credits_mvl/mxv
	BYTE	W02
	BYTE		        88*staff_roll_credits_mvl/mxv
	BYTE	W01
	BYTE		        87*staff_roll_credits_mvl/mxv
	BYTE	W02
	BYTE		        86*staff_roll_credits_mvl/mxv
	BYTE	W02
	BYTE		        85*staff_roll_credits_mvl/mxv
	BYTE	W02
	BYTE		        82*staff_roll_credits_mvl/mxv
	BYTE	W02
	BYTE		        81*staff_roll_credits_mvl/mxv
	BYTE	W02
	BYTE		        79*staff_roll_credits_mvl/mxv
	BYTE	W02
	BYTE		        77*staff_roll_credits_mvl/mxv
	BYTE	W02
	BYTE		        75*staff_roll_credits_mvl/mxv
	BYTE	W01
	BYTE		        75*staff_roll_credits_mvl/mxv
	BYTE	W02
	BYTE		        73*staff_roll_credits_mvl/mxv
	BYTE	W02
	BYTE		        71*staff_roll_credits_mvl/mxv
	BYTE	W02
	BYTE		        69*staff_roll_credits_mvl/mxv
	BYTE	W02
	BYTE		        68*staff_roll_credits_mvl/mxv
	BYTE	W02
	BYTE		        67*staff_roll_credits_mvl/mxv
	BYTE	W02
	BYTE		        65*staff_roll_credits_mvl/mxv
	BYTE	W02
	BYTE		        61*staff_roll_credits_mvl/mxv
	BYTE	W01
	BYTE		        59*staff_roll_credits_mvl/mxv
	BYTE	W02
	BYTE		        56*staff_roll_credits_mvl/mxv
	BYTE	W02
	BYTE		        52*staff_roll_credits_mvl/mxv
	BYTE	W02
	BYTE		        50*staff_roll_credits_mvl/mxv
	BYTE	W02
	BYTE		        47*staff_roll_credits_mvl/mxv
	BYTE	W02
	BYTE		        43*staff_roll_credits_mvl/mxv
	BYTE	W02
	BYTE		        40*staff_roll_credits_mvl/mxv
	BYTE	W02
	BYTE		        35*staff_roll_credits_mvl/mxv
	BYTE	W01
	BYTE		        34*staff_roll_credits_mvl/mxv
	BYTE	W02
	BYTE		        29*staff_roll_credits_mvl/mxv
	BYTE	W02
	BYTE		        24*staff_roll_credits_mvl/mxv
	BYTE	W02
	BYTE		        20*staff_roll_credits_mvl/mxv
	BYTE	W02
	BYTE		        16*staff_roll_credits_mvl/mxv
	BYTE	W02
	BYTE		        11*staff_roll_credits_mvl/mxv
	BYTE	W02
	BYTE		        7*staff_roll_credits_mvl/mxv
	BYTE	W14
	BYTE		        0*staff_roll_credits_mvl/mxv
	BYTE		PAN     c_v+40
	BYTE	W01
	BYTE		EOT     Dn2 
	BYTE		TIE     Gn2   v120
	BYTE	W02
	BYTE		VOL     3*staff_roll_credits_mvl/mxv
	BYTE	W02
	BYTE		        12*staff_roll_credits_mvl/mxv
	BYTE	W02
	BYTE		        15*staff_roll_credits_mvl/mxv
	BYTE	W01
	BYTE		        17*staff_roll_credits_mvl/mxv
	BYTE	W02
	BYTE		        19*staff_roll_credits_mvl/mxv
	BYTE	W01
	BYTE		        20*staff_roll_credits_mvl/mxv
	BYTE	W02
	BYTE		        23*staff_roll_credits_mvl/mxv
	BYTE	W01
	BYTE		        25*staff_roll_credits_mvl/mxv
	BYTE	W02
	BYTE		        28*staff_roll_credits_mvl/mxv
	BYTE	W02
	BYTE		        31*staff_roll_credits_mvl/mxv
	BYTE	W01
	BYTE		        33*staff_roll_credits_mvl/mxv
	BYTE	W02
	BYTE		        35*staff_roll_credits_mvl/mxv
	BYTE	W01
	BYTE		        36*staff_roll_credits_mvl/mxv
	BYTE	W02
	BYTE		        39*staff_roll_credits_mvl/mxv
	BYTE	W01
	BYTE		        41*staff_roll_credits_mvl/mxv
	BYTE	W02
	BYTE		        44*staff_roll_credits_mvl/mxv
	BYTE	W02
	BYTE		        47*staff_roll_credits_mvl/mxv
	BYTE	W01
	BYTE		        49*staff_roll_credits_mvl/mxv
	BYTE	W02
	BYTE		        51*staff_roll_credits_mvl/mxv
	BYTE	W01
	BYTE		        52*staff_roll_credits_mvl/mxv
	BYTE	W02
	BYTE		        55*staff_roll_credits_mvl/mxv
	BYTE	W01
	BYTE		        57*staff_roll_credits_mvl/mxv
	BYTE	W02
	BYTE		        60*staff_roll_credits_mvl/mxv
	BYTE	W02
	BYTE		        63*staff_roll_credits_mvl/mxv
	BYTE	W01
	BYTE		        65*staff_roll_credits_mvl/mxv
	BYTE	W02
	BYTE		        68*staff_roll_credits_mvl/mxv
	BYTE	W01
	BYTE		        68*staff_roll_credits_mvl/mxv
	BYTE	W02
	BYTE		        71*staff_roll_credits_mvl/mxv
	BYTE	W01
	BYTE		        73*staff_roll_credits_mvl/mxv
	BYTE	W02
	BYTE		        76*staff_roll_credits_mvl/mxv
	BYTE	W02
	BYTE		        79*staff_roll_credits_mvl/mxv
	BYTE	W01
	BYTE		        81*staff_roll_credits_mvl/mxv
	BYTE	W02
	BYTE		        84*staff_roll_credits_mvl/mxv
	BYTE	W01
	BYTE		        85*staff_roll_credits_mvl/mxv
	BYTE	W02
	BYTE		        87*staff_roll_credits_mvl/mxv
	BYTE	W01
	BYTE		        89*staff_roll_credits_mvl/mxv
	BYTE	W02
	BYTE		        92*staff_roll_credits_mvl/mxv
	BYTE	W02
	BYTE		        95*staff_roll_credits_mvl/mxv
	BYTE	W01
	BYTE		        97*staff_roll_credits_mvl/mxv
	BYTE	W02
	BYTE		        100*staff_roll_credits_mvl/mxv
	BYTE	W01
	BYTE		        101*staff_roll_credits_mvl/mxv
	BYTE	W02
	BYTE		        103*staff_roll_credits_mvl/mxv
	BYTE	W01
	BYTE		        105*staff_roll_credits_mvl/mxv
	BYTE	W02
	BYTE		        108*staff_roll_credits_mvl/mxv
	BYTE	W24
	BYTE	W02
	BYTE	PEND
	BYTE	W09
	BYTE		VOL     103*staff_roll_credits_mvl/mxv
	BYTE	W02
	BYTE		        102*staff_roll_credits_mvl/mxv
	BYTE	W02
	BYTE		        102*staff_roll_credits_mvl/mxv
	BYTE	W02
	BYTE		        101*staff_roll_credits_mvl/mxv
	BYTE	W02
	BYTE		        100*staff_roll_credits_mvl/mxv
	BYTE	W02
	BYTE		        99*staff_roll_credits_mvl/mxv
	BYTE	W02
	BYTE		        98*staff_roll_credits_mvl/mxv
	BYTE	W02
	BYTE		        97*staff_roll_credits_mvl/mxv
	BYTE	W01
	BYTE		        96*staff_roll_credits_mvl/mxv
	BYTE	W02
	BYTE		        95*staff_roll_credits_mvl/mxv
	BYTE	W02
	BYTE		        94*staff_roll_credits_mvl/mxv
	BYTE	W02
	BYTE		        93*staff_roll_credits_mvl/mxv
	BYTE	W02
	BYTE		        92*staff_roll_credits_mvl/mxv
	BYTE	W02
	BYTE		        91*staff_roll_credits_mvl/mxv
	BYTE	W02
	BYTE		        90*staff_roll_credits_mvl/mxv
	BYTE	W02
	BYTE		        89*staff_roll_credits_mvl/mxv
	BYTE	W01
	BYTE		        88*staff_roll_credits_mvl/mxv
	BYTE	W02
	BYTE		        86*staff_roll_credits_mvl/mxv
	BYTE	W02
	BYTE		        84*staff_roll_credits_mvl/mxv
	BYTE	W02
	BYTE		        82*staff_roll_credits_mvl/mxv
	BYTE	W02
	BYTE		        79*staff_roll_credits_mvl/mxv
	BYTE	W02
	BYTE		        77*staff_roll_credits_mvl/mxv
	BYTE	W02
	BYTE		        74*staff_roll_credits_mvl/mxv
	BYTE	W02
	BYTE		        72*staff_roll_credits_mvl/mxv
	BYTE	W01
	BYTE		        70*staff_roll_credits_mvl/mxv
	BYTE	W02
	BYTE		        68*staff_roll_credits_mvl/mxv
	BYTE	W02
	BYTE		        66*staff_roll_credits_mvl/mxv
	BYTE	W02
	BYTE		        64*staff_roll_credits_mvl/mxv
	BYTE	W02
	BYTE		        59*staff_roll_credits_mvl/mxv
	BYTE	W02
	BYTE		        54*staff_roll_credits_mvl/mxv
	BYTE	W02
	BYTE		        51*staff_roll_credits_mvl/mxv
	BYTE	W02
	BYTE		        46*staff_roll_credits_mvl/mxv
	BYTE	W01
	BYTE		        44*staff_roll_credits_mvl/mxv
	BYTE	W02
	BYTE		        39*staff_roll_credits_mvl/mxv
	BYTE	W02
	BYTE		        34*staff_roll_credits_mvl/mxv
	BYTE	W02
	BYTE		        31*staff_roll_credits_mvl/mxv
	BYTE	W02
	BYTE		        26*staff_roll_credits_mvl/mxv
	BYTE	W02
	BYTE		        21*staff_roll_credits_mvl/mxv
	BYTE	W02
	BYTE		        17*staff_roll_credits_mvl/mxv
	BYTE	W14
	BYTE		        0*staff_roll_credits_mvl/mxv
	BYTE		PAN     c_v+40
	BYTE	W01
	BYTE	PEND
	BYTE		EOT     Gn2 
	BYTE	PATT
	 POIN2	staff_roll_credits_5 + 0x137
	BYTE	PATT
	 POIN2	staff_roll_credits_5 + 0x196
	BYTE		EOT     Gn2 
	BYTE	PATT
	 POIN2	staff_roll_credits_5 + 0x137
	BYTE	PATT
	 POIN2	staff_roll_credits_5 + 0x196
	BYTE		EOT     Gn2 
	BYTE	PATT
	 POIN2	staff_roll_credits_5 + 0x137
	BYTE	W72
	BYTE	W01
	BYTE		VOL     102*staff_roll_credits_mvl/mxv
	BYTE	W02
	BYTE		        102*staff_roll_credits_mvl/mxv
	BYTE	W02
	BYTE		        101*staff_roll_credits_mvl/mxv
	BYTE	W02
	BYTE		        100*staff_roll_credits_mvl/mxv
	BYTE	W02
	BYTE		        99*staff_roll_credits_mvl/mxv
	BYTE	W02
	BYTE		        98*staff_roll_credits_mvl/mxv
	BYTE	W02
	BYTE		        97*staff_roll_credits_mvl/mxv
	BYTE	W02
	BYTE		        96*staff_roll_credits_mvl/mxv
	BYTE	W02
	BYTE		        95*staff_roll_credits_mvl/mxv
	BYTE	W01
	BYTE		        94*staff_roll_credits_mvl/mxv
	BYTE	W02
	BYTE		        93*staff_roll_credits_mvl/mxv
	BYTE	W02
	BYTE		        92*staff_roll_credits_mvl/mxv
	BYTE	W02
	BYTE		        91*staff_roll_credits_mvl/mxv
	BYTE	W02
	BYTE		        90*staff_roll_credits_mvl/mxv
	BYTE	W02
	BYTE		        89*staff_roll_credits_mvl/mxv
	BYTE	W02
	BYTE		        88*staff_roll_credits_mvl/mxv
	BYTE	W02
	BYTE		        87*staff_roll_credits_mvl/mxv
	BYTE	W02
	BYTE		        86*staff_roll_credits_mvl/mxv
	BYTE	W01
	BYTE		        84*staff_roll_credits_mvl/mxv
	BYTE	W02
	BYTE		        81*staff_roll_credits_mvl/mxv
	BYTE	W02
	BYTE		        78*staff_roll_credits_mvl/mxv
	BYTE	W02
	BYTE		        74*staff_roll_credits_mvl/mxv
	BYTE	W02
	BYTE		        71*staff_roll_credits_mvl/mxv
	BYTE	W02
	BYTE		        68*staff_roll_credits_mvl/mxv
	BYTE	W02
	BYTE		        65*staff_roll_credits_mvl/mxv
	BYTE	W02
	BYTE		        61*staff_roll_credits_mvl/mxv
	BYTE	W02
	BYTE		        58*staff_roll_credits_mvl/mxv
	BYTE	W01
	BYTE		        56*staff_roll_credits_mvl/mxv
	BYTE	W02
	BYTE		        53*staff_roll_credits_mvl/mxv
	BYTE	W02
	BYTE		        50*staff_roll_credits_mvl/mxv
	BYTE	W02
	BYTE		        47*staff_roll_credits_mvl/mxv
	BYTE	W02
	BYTE		        44*staff_roll_credits_mvl/mxv
	BYTE	W02
	BYTE		        40*staff_roll_credits_mvl/mxv
	BYTE	W02
	BYTE		        37*staff_roll_credits_mvl/mxv
	BYTE	W02
	BYTE		        34*staff_roll_credits_mvl/mxv
	BYTE	W05
	BYTE		VOICE   95
	BYTE		MOD     25
	BYTE		VOL     71*staff_roll_credits_mvl/mxv
	BYTE		PAN     c_v+20
	BYTE		MODT    mod_pan
	BYTE	W01
	BYTE		EOT     Gn2 
	BYTE		N48     Gn1   v096
	BYTE	W06
	BYTE		VOL     74*staff_roll_credits_mvl/mxv
	BYTE	W07
	BYTE		        77*staff_roll_credits_mvl/mxv
	BYTE	W07
	BYTE		        80*staff_roll_credits_mvl/mxv
	BYTE	W07
	BYTE		        83*staff_roll_credits_mvl/mxv
	BYTE	W06
	BYTE		        85*staff_roll_credits_mvl/mxv
	BYTE	W07
	BYTE		        87*staff_roll_credits_mvl/mxv
	BYTE	W07
	BYTE		        90*staff_roll_credits_mvl/mxv
	BYTE	W01
	BYTE		N48     An1 
	BYTE	W06
	BYTE		VOL     94*staff_roll_credits_mvl/mxv
	BYTE	W06
	BYTE		        97*staff_roll_credits_mvl/mxv
	BYTE	W07
	BYTE		        99*staff_roll_credits_mvl/mxv
	BYTE	W07
	BYTE		        102*staff_roll_credits_mvl/mxv
	BYTE	W07
	BYTE		        104*staff_roll_credits_mvl/mxv
	BYTE	W06
	BYTE		        107*staff_roll_credits_mvl/mxv
	BYTE	W07
	BYTE		        111*staff_roll_credits_mvl/mxv
	BYTE	W02
	BYTE		N72     Dn2 
	BYTE	W05
	BYTE		VOL     115*staff_roll_credits_mvl/mxv
	BYTE	W07
	BYTE		        110*staff_roll_credits_mvl/mxv
	BYTE	W03
	BYTE		        106*staff_roll_credits_mvl/mxv
	BYTE	W03
	BYTE		        102*staff_roll_credits_mvl/mxv
	BYTE	W02
	BYTE		        100*staff_roll_credits_mvl/mxv
	BYTE	W02
	BYTE		        97*staff_roll_credits_mvl/mxv
	BYTE	W03
	BYTE		        93*staff_roll_credits_mvl/mxv
	BYTE	W02
	BYTE		        90*staff_roll_credits_mvl/mxv
	BYTE	W02
	BYTE		        87*staff_roll_credits_mvl/mxv
	BYTE	W03
	BYTE		        83*staff_roll_credits_mvl/mxv
	BYTE	W02
	BYTE		        80*staff_roll_credits_mvl/mxv
	BYTE	W02
	BYTE		        78*staff_roll_credits_mvl/mxv
	BYTE	W03
	BYTE		        73*staff_roll_credits_mvl/mxv
	BYTE	W02
	BYTE		        70*staff_roll_credits_mvl/mxv
	BYTE	W02
	BYTE		        68*staff_roll_credits_mvl/mxv
	BYTE	W03
	BYTE		        61*staff_roll_credits_mvl/mxv
	BYTE	W02
	BYTE		        56*staff_roll_credits_mvl/mxv
	BYTE	W02
	BYTE		        51*staff_roll_credits_mvl/mxv
	BYTE	W02
	BYTE		        47*staff_roll_credits_mvl/mxv
	BYTE	W02
	BYTE		        42*staff_roll_credits_mvl/mxv
	BYTE	W01
	BYTE		        40*staff_roll_credits_mvl/mxv
	BYTE	W02
	BYTE		        35*staff_roll_credits_mvl/mxv
	BYTE	W02
	BYTE		        31*staff_roll_credits_mvl/mxv
	BYTE	W02
	BYTE		        26*staff_roll_credits_mvl/mxv
	BYTE	W02
	BYTE		        21*staff_roll_credits_mvl/mxv
	BYTE	W01
	BYTE		        18*staff_roll_credits_mvl/mxv
	BYTE	W02
	BYTE		        14*staff_roll_credits_mvl/mxv
	BYTE	W02
	BYTE		        9*staff_roll_credits_mvl/mxv
	BYTE	W02
	BYTE		        4*staff_roll_credits_mvl/mxv
	BYTE	W02
	BYTE		        0*staff_roll_credits_mvl/mxv
	BYTE	W23
	BYTE		        71*staff_roll_credits_mvl/mxv
	BYTE	W01
	BYTE		N48     Gn1 
	BYTE	W06
	BYTE		VOL     74*staff_roll_credits_mvl/mxv
	BYTE	W07
	BYTE		        77*staff_roll_credits_mvl/mxv
	BYTE	W07
	BYTE		        80*staff_roll_credits_mvl/mxv
	BYTE	W07
	BYTE		        83*staff_roll_credits_mvl/mxv
	BYTE	W06
	BYTE		        85*staff_roll_credits_mvl/mxv
	BYTE	W07
	BYTE		        87*staff_roll_credits_mvl/mxv
	BYTE	W07
	BYTE		        90*staff_roll_credits_mvl/mxv
	BYTE	W01
	BYTE		N48     An1 
	BYTE	W06
	BYTE		VOL     94*staff_roll_credits_mvl/mxv
	BYTE	W06
	BYTE		        97*staff_roll_credits_mvl/mxv
	BYTE	W07
	BYTE		        99*staff_roll_credits_mvl/mxv
	BYTE	W07
	BYTE		        100*staff_roll_credits_mvl/mxv
	BYTE	W07
	BYTE		        98*staff_roll_credits_mvl/mxv
	BYTE	W06
	BYTE		        94*staff_roll_credits_mvl/mxv
	BYTE	W07
	BYTE		        90*staff_roll_credits_mvl/mxv
	BYTE	W02
	BYTE		N48     Cn2 
	BYTE	W05
	BYTE		VOL     85*staff_roll_credits_mvl/mxv
	BYTE	W07
	BYTE		        79*staff_roll_credits_mvl/mxv
	BYTE	W03
	BYTE		        74*staff_roll_credits_mvl/mxv
	BYTE	W03
	BYTE		        71*staff_roll_credits_mvl/mxv
	BYTE	W02
	BYTE		        68*staff_roll_credits_mvl/mxv
	BYTE	W02
	BYTE		        65*staff_roll_credits_mvl/mxv
	BYTE	W03
	BYTE		        60*staff_roll_credits_mvl/mxv
	BYTE	W02
	BYTE		        57*staff_roll_credits_mvl/mxv
	BYTE	W02
	BYTE		        52*staff_roll_credits_mvl/mxv
	BYTE	W03
	BYTE		        44*staff_roll_credits_mvl/mxv
	BYTE	W02
	BYTE		        39*staff_roll_credits_mvl/mxv
	BYTE	W02
	BYTE		        37*staff_roll_credits_mvl/mxv
	BYTE	W03
	BYTE		        30*staff_roll_credits_mvl/mxv
	BYTE	W02
	BYTE		        27*staff_roll_credits_mvl/mxv
	BYTE	W02
	BYTE		        23*staff_roll_credits_mvl/mxv
	BYTE	W03
	BYTE		        11*staff_roll_credits_mvl/mxv
	BYTE	W02
	BYTE		        13*staff_roll_credits_mvl/mxv
	BYTE		N72     As1   v072
	BYTE	W02
	BYTE		VOL     15*staff_roll_credits_mvl/mxv
	BYTE	W02
	BYTE		        19*staff_roll_credits_mvl/mxv
	BYTE	W02
	BYTE		        22*staff_roll_credits_mvl/mxv
	BYTE	W01
	BYTE		        24*staff_roll_credits_mvl/mxv
	BYTE	W02
	BYTE		        28*staff_roll_credits_mvl/mxv
	BYTE	W02
	BYTE		        31*staff_roll_credits_mvl/mxv
	BYTE	W02
	BYTE		        34*staff_roll_credits_mvl/mxv
	BYTE	W02
	BYTE		        38*staff_roll_credits_mvl/mxv
	BYTE	W01
	BYTE		        40*staff_roll_credits_mvl/mxv
	BYTE	W02
	BYTE		        43*staff_roll_credits_mvl/mxv
	BYTE	W02
	BYTE		        47*staff_roll_credits_mvl/mxv
	BYTE	W02
	BYTE		        51*staff_roll_credits_mvl/mxv
	BYTE	W02
	BYTE		        54*staff_roll_credits_mvl/mxv
	BYTE	W02
	BYTE		        57*staff_roll_credits_mvl/mxv
	BYTE	W02
	BYTE		        61*staff_roll_credits_mvl/mxv
	BYTE	W02
	BYTE		        65*staff_roll_credits_mvl/mxv
	BYTE	W01
	BYTE		        67*staff_roll_credits_mvl/mxv
	BYTE	W02
	BYTE		        69*staff_roll_credits_mvl/mxv
	BYTE	W02
	BYTE		        73*staff_roll_credits_mvl/mxv
	BYTE	W02
	BYTE		        77*staff_roll_credits_mvl/mxv
	BYTE	W02
	BYTE		        59*staff_roll_credits_mvl/mxv
	BYTE	W01
	BYTE		        80*staff_roll_credits_mvl/mxv
	BYTE	W02
	BYTE		        82*staff_roll_credits_mvl/mxv
	BYTE	W02
	BYTE		        84*staff_roll_credits_mvl/mxv
	BYTE	W02
	BYTE		        85*staff_roll_credits_mvl/mxv
	BYTE	W02
	BYTE		        87*staff_roll_credits_mvl/mxv
	BYTE	W02
	BYTE		        89*staff_roll_credits_mvl/mxv
	BYTE	W02
	BYTE		        91*staff_roll_credits_mvl/mxv
	BYTE	W02
	BYTE		        93*staff_roll_credits_mvl/mxv
	BYTE	W01
	BYTE		        94*staff_roll_credits_mvl/mxv
	BYTE	W02
	BYTE		        96*staff_roll_credits_mvl/mxv
	BYTE	W02
	BYTE		        98*staff_roll_credits_mvl/mxv
	BYTE	W02
	BYTE		        100*staff_roll_credits_mvl/mxv
	BYTE	W02
	BYTE		        102*staff_roll_credits_mvl/mxv
	BYTE	W01
	BYTE		        102*staff_roll_credits_mvl/mxv
	BYTE	W02
	BYTE		        100*staff_roll_credits_mvl/mxv
	BYTE	W02
	BYTE		        98*staff_roll_credits_mvl/mxv
	BYTE	W02
	BYTE		        96*staff_roll_credits_mvl/mxv
	BYTE	W02
	BYTE		        94*staff_roll_credits_mvl/mxv
	BYTE	W01
	BYTE		        92*staff_roll_credits_mvl/mxv
	BYTE	W02
	BYTE		        90*staff_roll_credits_mvl/mxv
	BYTE	W02
	BYTE		        88*staff_roll_credits_mvl/mxv
	BYTE	W02
	BYTE		        86*staff_roll_credits_mvl/mxv
	BYTE	W02
	BYTE		        84*staff_roll_credits_mvl/mxv
	BYTE	W01
	BYTE		        82*staff_roll_credits_mvl/mxv
	BYTE	W02
	BYTE		        77*staff_roll_credits_mvl/mxv
	BYTE	W02
	BYTE		        72*staff_roll_credits_mvl/mxv
	BYTE	W02
	BYTE		        68*staff_roll_credits_mvl/mxv
	BYTE	W02
	BYTE		        63*staff_roll_credits_mvl/mxv
	BYTE	W05
	BYTE		        103*staff_roll_credits_mvl/mxv
	BYTE	W01
	BYTE		N24     Ds2   v120
	BYTE	W24
	BYTE		        Fs2 
	BYTE	W24
	BYTE		        Fn2 
	BYTE	W24
	BYTE		        Gs2 
	BYTE	W24
	BYTE		TIE     Fn2 
	BYTE	W05
	BYTE		PAN     c_v+40
	BYTE	W90
	BYTE	W01
	BYTE	W96
	BYTE	W96
	BYTE	W96
	BYTE		EOT
	BYTE		N96     As1 
	BYTE	W96
	BYTE		N96
	BYTE	W96
	BYTE		N48     Cn2   v120
	BYTE	W48
	BYTE		        Ds2 
	BYTE	W48
	BYTE	PEND
	BYTE		N48     Ds2   v120
	BYTE	W48
	BYTE		        Cs2 
	BYTE	W48
	BYTE	PEND
	BYTE		N92     As1 
	BYTE	W96
	BYTE		N92
	BYTE	W96
	BYTE		N44     Cn2 
	BYTE	W48
	BYTE		        Ds2 
	BYTE	W48
	BYTE		N44
	BYTE	W48
	BYTE		        Cs2 
	BYTE	W48
	BYTE		TIE     Cs2   v100
	BYTE	W05
	BYTE		PAN     c_v+0
	BYTE	W90
	BYTE	W01
	BYTE	PEND
	BYTE	W96
	BYTE		EOT
	BYTE		N96     Ds2 
	BYTE	W96
	BYTE		N24     As1   v120
	BYTE	W24
	BYTE		        Ds2 
	BYTE	W24
	BYTE		        Cs2 
	BYTE	W24
	BYTE		        Fn2 
	BYTE	W24
	BYTE	PEND
	BYTE		TIE     Cs2   v100
	BYTE	W96
	BYTE	W96
	BYTE		EOT
	BYTE		N96     Ds2 
	BYTE	W96
	BYTE	PATT
	 POIN2	staff_roll_credits_5 + 0x3BD
	BYTE		N96     As1   v120
	BYTE	W05
	BYTE		PAN     c_v+40
	BYTE	W90
	BYTE	W01
	BYTE		N96
	BYTE	W96
	BYTE	PATT
	 POIN2	staff_roll_credits_5 + 0x393
	BYTE	PATT
	 POIN2	staff_roll_credits_5 + 0x39A
	BYTE		N96     As1   v120
	BYTE	W96
	BYTE		N96
	BYTE	W96
	BYTE	PATT
	 POIN2	staff_roll_credits_5 + 0x393
	BYTE	PATT
	 POIN2	staff_roll_credits_5 + 0x39A
	BYTE	PATT
	 POIN2	staff_roll_credits_5 + 0x3AF
	BYTE	W96
	BYTE		EOT     Cs2 
	BYTE		N96     Ds2   v100
	BYTE	W96
	BYTE	PATT
	 POIN2	staff_roll_credits_5 + 0x3BD
	BYTE		TIE     Cs2   v100
	BYTE	W96
	BYTE	W96
	BYTE		EOT
	BYTE		N96     Ds2 
	BYTE	W92
	BYTE	W03
	BYTE		VOL     103*staff_roll_credits_mvl/mxv
	BYTE	W01
	BYTE		N24     As1   v060
	BYTE	W05
	BYTE		PAN     c_v+30
	BYTE	W19
	BYTE		N24     Fs2   v112
	BYTE	W24
	BYTE		        Fn2   v072
	BYTE	W24
	BYTE		        Gs2   v112
	BYTE	W24
	BYTE		TIE     Ds2   v112
	BYTE	W01
	BYTE		VOL     95*staff_roll_credits_mvl/mxv
	BYTE	W06
	BYTE		        94*staff_roll_credits_mvl/mxv
	BYTE	W05
	BYTE		        93*staff_roll_credits_mvl/mxv
	BYTE	W05
	BYTE		        92*staff_roll_credits_mvl/mxv
	BYTE	W06
	BYTE		        91*staff_roll_credits_mvl/mxv
	BYTE	W05
	BYTE		        90*staff_roll_credits_mvl/mxv
	BYTE	W05
	BYTE		        89*staff_roll_credits_mvl/mxv
	BYTE	W05
	BYTE		        88*staff_roll_credits_mvl/mxv
	BYTE	W06
	BYTE		        87*staff_roll_credits_mvl/mxv
	BYTE	W05
	BYTE		        86*staff_roll_credits_mvl/mxv
	BYTE	W05
	BYTE		        85*staff_roll_credits_mvl/mxv
	BYTE	W06
	BYTE		        85*staff_roll_credits_mvl/mxv
	BYTE	W05
	BYTE		        84*staff_roll_credits_mvl/mxv
	BYTE	W05
	BYTE		        83*staff_roll_credits_mvl/mxv
	BYTE	W05
	BYTE		        82*staff_roll_credits_mvl/mxv
	BYTE	W06
	BYTE		        81*staff_roll_credits_mvl/mxv
	BYTE	W05
	BYTE		        80*staff_roll_credits_mvl/mxv
	BYTE	W05
	BYTE		        79*staff_roll_credits_mvl/mxv
	BYTE	W05
	BYTE	PEND
	BYTE		        78*staff_roll_credits_mvl/mxv
	BYTE	W06
	BYTE		        77*staff_roll_credits_mvl/mxv
	BYTE	W05
	BYTE		        74*staff_roll_credits_mvl/mxv
	BYTE	W05
	BYTE		        72*staff_roll_credits_mvl/mxv
	BYTE	W06
	BYTE		        69*staff_roll_credits_mvl/mxv
	BYTE	W05
	BYTE		        67*staff_roll_credits_mvl/mxv
	BYTE	W05
	BYTE		        64*staff_roll_credits_mvl/mxv
	BYTE	W05
	BYTE		        62*staff_roll_credits_mvl/mxv
	BYTE	W06
	BYTE		        59*staff_roll_credits_mvl/mxv
	BYTE	W05
	BYTE		        56*staff_roll_credits_mvl/mxv
	BYTE	W05
	BYTE		        54*staff_roll_credits_mvl/mxv
	BYTE	W06
	BYTE		        51*staff_roll_credits_mvl/mxv
	BYTE	W05
	BYTE		        46*staff_roll_credits_mvl/mxv
	BYTE	W05
	BYTE		        40*staff_roll_credits_mvl/mxv
	BYTE	W05
	BYTE		        34*staff_roll_credits_mvl/mxv
	BYTE	W06
	BYTE		        27*staff_roll_credits_mvl/mxv
	BYTE	W05
	BYTE		        21*staff_roll_credits_mvl/mxv
	BYTE	W05
	BYTE		        16*staff_roll_credits_mvl/mxv
	BYTE	W06
	BYTE	W92
	BYTE	W03
	BYTE		        103*staff_roll_credits_mvl/mxv
	BYTE	W01
	BYTE		EOT
	BYTE		N24     As1   v060
	BYTE	W24
	BYTE		        Fs2   v112
	BYTE	W24
	BYTE		        Fn2   v072
	BYTE	W24
	BYTE		        Gs2   v112
	BYTE	W24
	BYTE	PATT
	 POIN2	staff_roll_credits_5 + 0x429
	BYTE		VOL     78*staff_roll_credits_mvl/mxv
	BYTE	W06
	BYTE		        77*staff_roll_credits_mvl/mxv
	BYTE	W05
	BYTE		        74*staff_roll_credits_mvl/mxv
	BYTE	W05
	BYTE		        72*staff_roll_credits_mvl/mxv
	BYTE	W06
	BYTE		        69*staff_roll_credits_mvl/mxv
	BYTE	W05
	BYTE		        67*staff_roll_credits_mvl/mxv
	BYTE	W05
	BYTE		        64*staff_roll_credits_mvl/mxv
	BYTE	W05
	BYTE		        62*staff_roll_credits_mvl/mxv
	BYTE	W06
	BYTE		        59*staff_roll_credits_mvl/mxv
	BYTE	W05
	BYTE		        56*staff_roll_credits_mvl/mxv
	BYTE	W05
	BYTE		        54*staff_roll_credits_mvl/mxv
	BYTE	W06
	BYTE		        51*staff_roll_credits_mvl/mxv
	BYTE	W05
	BYTE		        46*staff_roll_credits_mvl/mxv
	BYTE	W05
	BYTE		        40*staff_roll_credits_mvl/mxv
	BYTE	W05
	BYTE		        34*staff_roll_credits_mvl/mxv
	BYTE	W06
	BYTE		        27*staff_roll_credits_mvl/mxv
	BYTE	W05
	BYTE		        21*staff_roll_credits_mvl/mxv
	BYTE	W05
	BYTE		        16*staff_roll_credits_mvl/mxv
	BYTE	W05
	BYTE		EOT     Ds2 
	BYTE	W01
	BYTE	W96
	BYTE	W96
	BYTE	W44
	BYTE	W03
	BYTE		VOL     71*staff_roll_credits_mvl/mxv
	BYTE	W01
	BYTE		N48     Ds1   v120
	BYTE	W06
	BYTE		VOL     74*staff_roll_credits_mvl/mxv
	BYTE	W07
	BYTE		        77*staff_roll_credits_mvl/mxv
	BYTE	W07
	BYTE		        80*staff_roll_credits_mvl/mxv
	BYTE	W07
	BYTE		        83*staff_roll_credits_mvl/mxv
	BYTE	W06
	BYTE		        85*staff_roll_credits_mvl/mxv
	BYTE	W07
	BYTE		        87*staff_roll_credits_mvl/mxv
	BYTE	W07
	BYTE		        90*staff_roll_credits_mvl/mxv
	BYTE	W01
	BYTE		N48     Fn1   v120
	BYTE	W06
	BYTE		VOL     94*staff_roll_credits_mvl/mxv
	BYTE	W06
	BYTE		        97*staff_roll_credits_mvl/mxv
	BYTE	W07
	BYTE		        99*staff_roll_credits_mvl/mxv
	BYTE	W07
	BYTE		        102*staff_roll_credits_mvl/mxv
	BYTE	W07
	BYTE		        104*staff_roll_credits_mvl/mxv
	BYTE	W06
	BYTE		        107*staff_roll_credits_mvl/mxv
	BYTE	W07
	BYTE		        111*staff_roll_credits_mvl/mxv
	BYTE	W02
	BYTE		N72     As1 
	BYTE	W05
	BYTE		VOL     115*staff_roll_credits_mvl/mxv
	BYTE	W07
	BYTE		        110*staff_roll_credits_mvl/mxv
	BYTE	W03
	BYTE		        106*staff_roll_credits_mvl/mxv
	BYTE	W03
	BYTE		        102*staff_roll_credits_mvl/mxv
	BYTE	W02
	BYTE		        100*staff_roll_credits_mvl/mxv
	BYTE	W02
	BYTE		        97*staff_roll_credits_mvl/mxv
	BYTE	W03
	BYTE		        93*staff_roll_credits_mvl/mxv
	BYTE	W02
	BYTE		        90*staff_roll_credits_mvl/mxv
	BYTE	W02
	BYTE		        87*staff_roll_credits_mvl/mxv
	BYTE	W03
	BYTE		        83*staff_roll_credits_mvl/mxv
	BYTE	W02
	BYTE		        80*staff_roll_credits_mvl/mxv
	BYTE	W02
	BYTE		        78*staff_roll_credits_mvl/mxv
	BYTE	W03
	BYTE		        73*staff_roll_credits_mvl/mxv
	BYTE	W02
	BYTE		        70*staff_roll_credits_mvl/mxv
	BYTE	W02
	BYTE		        68*staff_roll_credits_mvl/mxv
	BYTE	W03
	BYTE		        61*staff_roll_credits_mvl/mxv
	BYTE	W02
	BYTE	PEND
	BYTE		VOL     56*staff_roll_credits_mvl/mxv
	BYTE	W02
	BYTE		        51*staff_roll_credits_mvl/mxv
	BYTE	W02
	BYTE		        47*staff_roll_credits_mvl/mxv
	BYTE	W02
	BYTE		        42*staff_roll_credits_mvl/mxv
	BYTE	W01
	BYTE		        40*staff_roll_credits_mvl/mxv
	BYTE	W02
	BYTE		        35*staff_roll_credits_mvl/mxv
	BYTE	W02
	BYTE		        31*staff_roll_credits_mvl/mxv
	BYTE	W02
	BYTE		        26*staff_roll_credits_mvl/mxv
	BYTE	W02
	BYTE		        21*staff_roll_credits_mvl/mxv
	BYTE	W01
	BYTE		        18*staff_roll_credits_mvl/mxv
	BYTE	W02
	BYTE		        14*staff_roll_credits_mvl/mxv
	BYTE	W02
	BYTE		        9*staff_roll_credits_mvl/mxv
	BYTE	W02
	BYTE		        4*staff_roll_credits_mvl/mxv
	BYTE	W02
	BYTE		        0*staff_roll_credits_mvl/mxv
	BYTE	W23
	BYTE		        71*staff_roll_credits_mvl/mxv
	BYTE	W01
	BYTE		N48     Ds1   v120
	BYTE	W06
	BYTE		VOL     74*staff_roll_credits_mvl/mxv
	BYTE	W07
	BYTE		        77*staff_roll_credits_mvl/mxv
	BYTE	W07
	BYTE		        80*staff_roll_credits_mvl/mxv
	BYTE	W07
	BYTE		        83*staff_roll_credits_mvl/mxv
	BYTE	W06
	BYTE		        85*staff_roll_credits_mvl/mxv
	BYTE	W07
	BYTE		        87*staff_roll_credits_mvl/mxv
	BYTE	W07
	BYTE		        90*staff_roll_credits_mvl/mxv
	BYTE	W01
	BYTE	PEND
	BYTE		N48     Fn1 
	BYTE	W06
	BYTE		VOL     94*staff_roll_credits_mvl/mxv
	BYTE	W06
	BYTE		        97*staff_roll_credits_mvl/mxv
	BYTE	W07
	BYTE		        99*staff_roll_credits_mvl/mxv
	BYTE	W07
	BYTE		        102*staff_roll_credits_mvl/mxv
	BYTE	W07
	BYTE		        104*staff_roll_credits_mvl/mxv
	BYTE	W06
	BYTE		        107*staff_roll_credits_mvl/mxv
	BYTE	W07
	BYTE		        111*staff_roll_credits_mvl/mxv
	BYTE	W02
	BYTE		N72     Gs1 
	BYTE	W05
	BYTE		VOL     115*staff_roll_credits_mvl/mxv
	BYTE	W07
	BYTE		        110*staff_roll_credits_mvl/mxv
	BYTE	W03
	BYTE		        106*staff_roll_credits_mvl/mxv
	BYTE	W03
	BYTE		        102*staff_roll_credits_mvl/mxv
	BYTE	W02
	BYTE		        100*staff_roll_credits_mvl/mxv
	BYTE	W02
	BYTE		        97*staff_roll_credits_mvl/mxv
	BYTE	W03
	BYTE		        93*staff_roll_credits_mvl/mxv
	BYTE	W02
	BYTE		        90*staff_roll_credits_mvl/mxv
	BYTE	W02
	BYTE		        87*staff_roll_credits_mvl/mxv
	BYTE	W03
	BYTE		        83*staff_roll_credits_mvl/mxv
	BYTE	W02
	BYTE		        80*staff_roll_credits_mvl/mxv
	BYTE	W02
	BYTE		        78*staff_roll_credits_mvl/mxv
	BYTE	W03
	BYTE		        73*staff_roll_credits_mvl/mxv
	BYTE	W02
	BYTE		        70*staff_roll_credits_mvl/mxv
	BYTE	W02
	BYTE		        68*staff_roll_credits_mvl/mxv
	BYTE	W03
	BYTE		        61*staff_roll_credits_mvl/mxv
	BYTE	W02
	BYTE	PATT
	 POIN2	staff_roll_credits_5 + 0x508
	BYTE	PATT
	 POIN2	staff_roll_credits_5 + 0x4D0
	BYTE	PATT
	 POIN2	staff_roll_credits_5 + 0x508
	BYTE		N48     Fn1   v120
	BYTE	W06
	BYTE		VOL     94*staff_roll_credits_mvl/mxv
	BYTE	W06
	BYTE		        97*staff_roll_credits_mvl/mxv
	BYTE	W07
	BYTE		        99*staff_roll_credits_mvl/mxv
	BYTE	W07
	BYTE		        102*staff_roll_credits_mvl/mxv
	BYTE	W07
	BYTE		        104*staff_roll_credits_mvl/mxv
	BYTE	W06
	BYTE		        107*staff_roll_credits_mvl/mxv
	BYTE	W07
	BYTE		        111*staff_roll_credits_mvl/mxv
	BYTE	W02
	BYTE		N48     Gs1 
	BYTE	W05
	BYTE		VOL     113*staff_roll_credits_mvl/mxv
	BYTE	W42
	BYTE	W01
	BYTE		TIE     As1 
	BYTE	W96
	BYTE	W96
	BYTE	W96
	BYTE	W96
	BYTE	W96
	BYTE	W96
	BYTE	W96
	BYTE	W96
	BYTE		EOT
	BYTE		N96
	BYTE	W05
	BYTE		VOL     103*staff_roll_credits_mvl/mxv
	BYTE		PAN     c_v+40
	BYTE	W90
	BYTE	W01
	BYTE		N96
	BYTE	W96
	BYTE	PATT
	 POIN2	staff_roll_credits_5 + 0x393
	BYTE	PATT
	 POIN2	staff_roll_credits_5 + 0x39A
	BYTE	GoTo
	 POIN2	staff_roll_credits_5 + 0x3EA
	BYTE	W96
	BYTE	W96
	BYTE	W96
	BYTE	W96
	BYTE	W96
	BYTE	W96
	BYTE	W96
	BYTE	W96
	BYTE	W96
	BYTE	W96
	BYTE	W96
	BYTE	W96
	BYTE	FINE

//*********************** Track 07 ***********************//

staff_roll_credits_6:
	BYTE	KEYSH   staff_roll_credits_key+0
	BYTE	W10
	BYTE		MODT    mod_tre
	BYTE	W01
	BYTE		VOICE   81
	BYTE		MOD     0
	BYTE		LFOS    90
	BYTE	W01
	BYTE		VOL     66*staff_roll_credits_mvl/mxv
	BYTE		PAN     c_v+0
	BYTE	W24
	BYTE	W96
	BYTE	W96
	BYTE	W96
	BYTE	W96
	BYTE	W96
	BYTE	W96
	BYTE	W96
	BYTE	W92
	BYTE	W03
	BYTE		VOL     0*staff_roll_credits_mvl/mxv
	BYTE	W01
	BYTE		TIE     An2   v080
	BYTE	W02
	BYTE		VOL     0*staff_roll_credits_mvl/mxv
	BYTE	W02
	BYTE		        1*staff_roll_credits_mvl/mxv
	BYTE	W02
	BYTE		        3*staff_roll_credits_mvl/mxv
	BYTE	W01
	BYTE		        3*staff_roll_credits_mvl/mxv
	BYTE	W02
	BYTE		        5*staff_roll_credits_mvl/mxv
	BYTE	W01
	BYTE		        5*staff_roll_credits_mvl/mxv
	BYTE	W02
	BYTE		        7*staff_roll_credits_mvl/mxv
	BYTE	W01
	BYTE		        7*staff_roll_credits_mvl/mxv
	BYTE	W02
	BYTE		        9*staff_roll_credits_mvl/mxv
	BYTE	W02
	BYTE		        10*staff_roll_credits_mvl/mxv
	BYTE	W01
	BYTE		        11*staff_roll_credits_mvl/mxv
	BYTE	W02
	BYTE		        12*staff_roll_credits_mvl/mxv
	BYTE	W01
	BYTE		        13*staff_roll_credits_mvl/mxv
	BYTE	W02
	BYTE		        14*staff_roll_credits_mvl/mxv
	BYTE	W01
	BYTE		        15*staff_roll_credits_mvl/mxv
	BYTE	W02
	BYTE		        17*staff_roll_credits_mvl/mxv
	BYTE	W02
	BYTE		        17*staff_roll_credits_mvl/mxv
	BYTE	W01
	BYTE		        18*staff_roll_credits_mvl/mxv
	BYTE	W02
	BYTE		        19*staff_roll_credits_mvl/mxv
	BYTE	W01
	BYTE		        20*staff_roll_credits_mvl/mxv
	BYTE	W02
	BYTE		        21*staff_roll_credits_mvl/mxv
	BYTE	W01
	BYTE		        22*staff_roll_credits_mvl/mxv
	BYTE	W02
	BYTE		        23*staff_roll_credits_mvl/mxv
	BYTE	W02
	BYTE		        25*staff_roll_credits_mvl/mxv
	BYTE	W01
	BYTE		        25*staff_roll_credits_mvl/mxv
	BYTE	W02
	BYTE		        27*staff_roll_credits_mvl/mxv
	BYTE	W01
	BYTE		        27*staff_roll_credits_mvl/mxv
	BYTE	W02
	BYTE		        29*staff_roll_credits_mvl/mxv
	BYTE	W01
	BYTE		        30*staff_roll_credits_mvl/mxv
	BYTE	W02
	BYTE		        31*staff_roll_credits_mvl/mxv
	BYTE	W02
	BYTE		        32*staff_roll_credits_mvl/mxv
	BYTE	W01
	BYTE		        33*staff_roll_credits_mvl/mxv
	BYTE	W02
	BYTE		        34*staff_roll_credits_mvl/mxv
	BYTE	W01
	BYTE		        34*staff_roll_credits_mvl/mxv
	BYTE	W02
	BYTE		        36*staff_roll_credits_mvl/mxv
	BYTE	W01
	BYTE		        36*staff_roll_credits_mvl/mxv
	BYTE	W02
	BYTE		        38*staff_roll_credits_mvl/mxv
	BYTE	W02
	BYTE		        39*staff_roll_credits_mvl/mxv
	BYTE	W01
	BYTE		        40*staff_roll_credits_mvl/mxv
	BYTE	W02
	BYTE		        41*staff_roll_credits_mvl/mxv
	BYTE	W01
	BYTE		        42*staff_roll_credits_mvl/mxv
	BYTE	W02
	BYTE		        43*staff_roll_credits_mvl/mxv
	BYTE	W01
	BYTE		        44*staff_roll_credits_mvl/mxv
	BYTE	W02
	BYTE		        45*staff_roll_credits_mvl/mxv
	BYTE	W04
	BYTE		        48*staff_roll_credits_mvl/mxv
	BYTE	W01
	BYTE		        49*staff_roll_credits_mvl/mxv
	BYTE	W02
	BYTE		        50*staff_roll_credits_mvl/mxv
	BYTE	W01
	BYTE		        51*staff_roll_credits_mvl/mxv
	BYTE	W02
	BYTE		        51*staff_roll_credits_mvl/mxv
	BYTE	W01
	BYTE		        52*staff_roll_credits_mvl/mxv
	BYTE	W02
	BYTE		        53*staff_roll_credits_mvl/mxv
	BYTE	W02
	BYTE		        55*staff_roll_credits_mvl/mxv
	BYTE	W01
	BYTE		        56*staff_roll_credits_mvl/mxv
	BYTE	W02
	BYTE		        57*staff_roll_credits_mvl/mxv
	BYTE	W01
	BYTE		        58*staff_roll_credits_mvl/mxv
	BYTE	W02
	BYTE		        59*staff_roll_credits_mvl/mxv
	BYTE	W01
	BYTE		        60*staff_roll_credits_mvl/mxv
	BYTE	W02
	BYTE		        61*staff_roll_credits_mvl/mxv
	BYTE	W02
	BYTE	PEND
	BYTE	W36
	BYTE	W02
	BYTE		VOL     58*staff_roll_credits_mvl/mxv
	BYTE	W03
	BYTE		        57*staff_roll_credits_mvl/mxv
	BYTE	W02
	BYTE		        56*staff_roll_credits_mvl/mxv
	BYTE	W03
	BYTE		        55*staff_roll_credits_mvl/mxv
	BYTE	W02
	BYTE		        54*staff_roll_credits_mvl/mxv
	BYTE	W03
	BYTE		        53*staff_roll_credits_mvl/mxv
	BYTE	W02
	BYTE		        52*staff_roll_credits_mvl/mxv
	BYTE	W03
	BYTE		        51*staff_roll_credits_mvl/mxv
	BYTE	W05
	BYTE		        49*staff_roll_credits_mvl/mxv
	BYTE	W02
	BYTE		        47*staff_roll_credits_mvl/mxv
	BYTE	W02
	BYTE		        45*staff_roll_credits_mvl/mxv
	BYTE	W01
	BYTE		        44*staff_roll_credits_mvl/mxv
	BYTE	W02
	BYTE		        42*staff_roll_credits_mvl/mxv
	BYTE	W02
	BYTE		        40*staff_roll_credits_mvl/mxv
	BYTE	W02
	BYTE		        38*staff_roll_credits_mvl/mxv
	BYTE	W02
	BYTE		        34*staff_roll_credits_mvl/mxv
	BYTE	W02
	BYTE		        32*staff_roll_credits_mvl/mxv
	BYTE	W02
	BYTE		        29*staff_roll_credits_mvl/mxv
	BYTE	W02
	BYTE		        25*staff_roll_credits_mvl/mxv
	BYTE	W01
	BYTE		        24*staff_roll_credits_mvl/mxv
	BYTE	W02
	BYTE		        20*staff_roll_credits_mvl/mxv
	BYTE	W02
	BYTE		        17*staff_roll_credits_mvl/mxv
	BYTE	W02
	BYTE		        15*staff_roll_credits_mvl/mxv
	BYTE	W02
	BYTE		        11*staff_roll_credits_mvl/mxv
	BYTE	W02
	BYTE		        8*staff_roll_credits_mvl/mxv
	BYTE	W02
	BYTE		        4*staff_roll_credits_mvl/mxv
	BYTE	W02
	BYTE		        0*staff_roll_credits_mvl/mxv
	BYTE	W01
	BYTE	PEND
	BYTE		EOT     An2 
	BYTE		TIE     Bn2   v080
	BYTE	W02
	BYTE		VOL     0*staff_roll_credits_mvl/mxv
	BYTE	W02
	BYTE		        1*staff_roll_credits_mvl/mxv
	BYTE	W02
	BYTE		        3*staff_roll_credits_mvl/mxv
	BYTE	W01
	BYTE		        3*staff_roll_credits_mvl/mxv
	BYTE	W02
	BYTE		        5*staff_roll_credits_mvl/mxv
	BYTE	W01
	BYTE		        5*staff_roll_credits_mvl/mxv
	BYTE	W02
	BYTE		        7*staff_roll_credits_mvl/mxv
	BYTE	W01
	BYTE		        7*staff_roll_credits_mvl/mxv
	BYTE	W02
	BYTE		        9*staff_roll_credits_mvl/mxv
	BYTE	W02
	BYTE		        10*staff_roll_credits_mvl/mxv
	BYTE	W01
	BYTE		        11*staff_roll_credits_mvl/mxv
	BYTE	W02
	BYTE		        12*staff_roll_credits_mvl/mxv
	BYTE	W01
	BYTE		        13*staff_roll_credits_mvl/mxv
	BYTE	W02
	BYTE		        14*staff_roll_credits_mvl/mxv
	BYTE	W01
	BYTE		        15*staff_roll_credits_mvl/mxv
	BYTE	W02
	BYTE		        17*staff_roll_credits_mvl/mxv
	BYTE	W02
	BYTE		        17*staff_roll_credits_mvl/mxv
	BYTE	W01
	BYTE		        18*staff_roll_credits_mvl/mxv
	BYTE	W02
	BYTE		        19*staff_roll_credits_mvl/mxv
	BYTE	W01
	BYTE		        20*staff_roll_credits_mvl/mxv
	BYTE	W02
	BYTE		        21*staff_roll_credits_mvl/mxv
	BYTE	W01
	BYTE		        22*staff_roll_credits_mvl/mxv
	BYTE	W02
	BYTE		        23*staff_roll_credits_mvl/mxv
	BYTE	W02
	BYTE		        25*staff_roll_credits_mvl/mxv
	BYTE	W01
	BYTE		        25*staff_roll_credits_mvl/mxv
	BYTE	W02
	BYTE		        27*staff_roll_credits_mvl/mxv
	BYTE	W01
	BYTE		        27*staff_roll_credits_mvl/mxv
	BYTE	W02
	BYTE		        29*staff_roll_credits_mvl/mxv
	BYTE	W01
	BYTE		        30*staff_roll_credits_mvl/mxv
	BYTE	W02
	BYTE		        31*staff_roll_credits_mvl/mxv
	BYTE	W02
	BYTE		        32*staff_roll_credits_mvl/mxv
	BYTE	W01
	BYTE		        33*staff_roll_credits_mvl/mxv
	BYTE	W02
	BYTE		        34*staff_roll_credits_mvl/mxv
	BYTE	W01
	BYTE		        34*staff_roll_credits_mvl/mxv
	BYTE	W02
	BYTE		        36*staff_roll_credits_mvl/mxv
	BYTE	W01
	BYTE		        36*staff_roll_credits_mvl/mxv
	BYTE	W02
	BYTE		        38*staff_roll_credits_mvl/mxv
	BYTE	W02
	BYTE		        39*staff_roll_credits_mvl/mxv
	BYTE	W01
	BYTE		        40*staff_roll_credits_mvl/mxv
	BYTE	W02
	BYTE		        41*staff_roll_credits_mvl/mxv
	BYTE	W01
	BYTE		        42*staff_roll_credits_mvl/mxv
	BYTE	W02
	BYTE		        43*staff_roll_credits_mvl/mxv
	BYTE	W01
	BYTE		        44*staff_roll_credits_mvl/mxv
	BYTE	W02
	BYTE		        45*staff_roll_credits_mvl/mxv
	BYTE	W04
	BYTE		        48*staff_roll_credits_mvl/mxv
	BYTE	W01
	BYTE		        49*staff_roll_credits_mvl/mxv
	BYTE	W02
	BYTE		        50*staff_roll_credits_mvl/mxv
	BYTE	W01
	BYTE		        51*staff_roll_credits_mvl/mxv
	BYTE	W02
	BYTE		        51*staff_roll_credits_mvl/mxv
	BYTE	W01
	BYTE		        52*staff_roll_credits_mvl/mxv
	BYTE	W02
	BYTE		        53*staff_roll_credits_mvl/mxv
	BYTE	W02
	BYTE		        55*staff_roll_credits_mvl/mxv
	BYTE	W01
	BYTE		        56*staff_roll_credits_mvl/mxv
	BYTE	W02
	BYTE		        57*staff_roll_credits_mvl/mxv
	BYTE	W01
	BYTE		        58*staff_roll_credits_mvl/mxv
	BYTE	W02
	BYTE		        59*staff_roll_credits_mvl/mxv
	BYTE	W01
	BYTE		        60*staff_roll_credits_mvl/mxv
	BYTE	W02
	BYTE		        61*staff_roll_credits_mvl/mxv
	BYTE	W02
	BYTE	PEND
	BYTE	PATT
	 POIN2	staff_roll_credits_6 + 0x98
	BYTE		EOT     Bn2 
	BYTE	PATT
	 POIN2	staff_roll_credits_6 + 0x1E
	BYTE	PATT
	 POIN2	staff_roll_credits_6 + 0x98
	BYTE		EOT     An2 
	BYTE	PATT
	 POIN2	staff_roll_credits_6 + 0xD4
	BYTE	PATT
	 POIN2	staff_roll_credits_6 + 0x98
	BYTE		EOT     Bn2 
	BYTE		TIE     As2   v080
	BYTE	W02
	BYTE		VOL     0*staff_roll_credits_mvl/mxv
	BYTE	W02
	BYTE		        1*staff_roll_credits_mvl/mxv
	BYTE	W02
	BYTE		        3*staff_roll_credits_mvl/mxv
	BYTE	W01
	BYTE		        3*staff_roll_credits_mvl/mxv
	BYTE	W02
	BYTE		        5*staff_roll_credits_mvl/mxv
	BYTE	W01
	BYTE		        5*staff_roll_credits_mvl/mxv
	BYTE	W02
	BYTE		        7*staff_roll_credits_mvl/mxv
	BYTE	W01
	BYTE		        7*staff_roll_credits_mvl/mxv
	BYTE	W02
	BYTE		        9*staff_roll_credits_mvl/mxv
	BYTE	W02
	BYTE		        10*staff_roll_credits_mvl/mxv
	BYTE	W01
	BYTE		        11*staff_roll_credits_mvl/mxv
	BYTE	W02
	BYTE		        12*staff_roll_credits_mvl/mxv
	BYTE	W01
	BYTE		        13*staff_roll_credits_mvl/mxv
	BYTE	W02
	BYTE		        14*staff_roll_credits_mvl/mxv
	BYTE	W01
	BYTE		        15*staff_roll_credits_mvl/mxv
	BYTE	W02
	BYTE		        17*staff_roll_credits_mvl/mxv
	BYTE	W02
	BYTE		        17*staff_roll_credits_mvl/mxv
	BYTE	W01
	BYTE		        18*staff_roll_credits_mvl/mxv
	BYTE	W02
	BYTE		        19*staff_roll_credits_mvl/mxv
	BYTE	W01
	BYTE		        20*staff_roll_credits_mvl/mxv
	BYTE	W02
	BYTE		        21*staff_roll_credits_mvl/mxv
	BYTE	W01
	BYTE		        22*staff_roll_credits_mvl/mxv
	BYTE	W02
	BYTE		        23*staff_roll_credits_mvl/mxv
	BYTE	W02
	BYTE		        25*staff_roll_credits_mvl/mxv
	BYTE	W01
	BYTE		        25*staff_roll_credits_mvl/mxv
	BYTE	W02
	BYTE		        27*staff_roll_credits_mvl/mxv
	BYTE	W01
	BYTE		        27*staff_roll_credits_mvl/mxv
	BYTE	W02
	BYTE		        29*staff_roll_credits_mvl/mxv
	BYTE	W01
	BYTE		        30*staff_roll_credits_mvl/mxv
	BYTE	W02
	BYTE		        31*staff_roll_credits_mvl/mxv
	BYTE	W02
	BYTE		        32*staff_roll_credits_mvl/mxv
	BYTE	W01
	BYTE		        33*staff_roll_credits_mvl/mxv
	BYTE	W02
	BYTE		        34*staff_roll_credits_mvl/mxv
	BYTE	W01
	BYTE		        34*staff_roll_credits_mvl/mxv
	BYTE	W02
	BYTE		        36*staff_roll_credits_mvl/mxv
	BYTE	W01
	BYTE		        36*staff_roll_credits_mvl/mxv
	BYTE	W02
	BYTE		        38*staff_roll_credits_mvl/mxv
	BYTE	W02
	BYTE		        39*staff_roll_credits_mvl/mxv
	BYTE	W01
	BYTE		        40*staff_roll_credits_mvl/mxv
	BYTE	W02
	BYTE		        41*staff_roll_credits_mvl/mxv
	BYTE	W01
	BYTE		        42*staff_roll_credits_mvl/mxv
	BYTE	W02
	BYTE		        43*staff_roll_credits_mvl/mxv
	BYTE	W01
	BYTE		        44*staff_roll_credits_mvl/mxv
	BYTE	W02
	BYTE		        45*staff_roll_credits_mvl/mxv
	BYTE	W04
	BYTE		        48*staff_roll_credits_mvl/mxv
	BYTE	W01
	BYTE		        49*staff_roll_credits_mvl/mxv
	BYTE	W02
	BYTE		        50*staff_roll_credits_mvl/mxv
	BYTE	W01
	BYTE		        51*staff_roll_credits_mvl/mxv
	BYTE	W02
	BYTE		        51*staff_roll_credits_mvl/mxv
	BYTE	W01
	BYTE		        52*staff_roll_credits_mvl/mxv
	BYTE	W02
	BYTE		        53*staff_roll_credits_mvl/mxv
	BYTE	W02
	BYTE		        55*staff_roll_credits_mvl/mxv
	BYTE	W01
	BYTE		        56*staff_roll_credits_mvl/mxv
	BYTE	W02
	BYTE		        57*staff_roll_credits_mvl/mxv
	BYTE	W01
	BYTE		        58*staff_roll_credits_mvl/mxv
	BYTE	W02
	BYTE		        59*staff_roll_credits_mvl/mxv
	BYTE	W01
	BYTE		        60*staff_roll_credits_mvl/mxv
	BYTE	W02
	BYTE		        61*staff_roll_credits_mvl/mxv
	BYTE	W02
	BYTE	W72
	BYTE		VOL     57*staff_roll_credits_mvl/mxv
	BYTE	W02
	BYTE		        53*staff_roll_credits_mvl/mxv
	BYTE	W02
	BYTE		        49*staff_roll_credits_mvl/mxv
	BYTE	W02
	BYTE		        44*staff_roll_credits_mvl/mxv
	BYTE	W02
	BYTE		        40*staff_roll_credits_mvl/mxv
	BYTE	W01
	BYTE		        37*staff_roll_credits_mvl/mxv
	BYTE	W02
	BYTE		        34*staff_roll_credits_mvl/mxv
	BYTE	W02
	BYTE		        29*staff_roll_credits_mvl/mxv
	BYTE	W02
	BYTE		        24*staff_roll_credits_mvl/mxv
	BYTE	W02
	BYTE		        20*staff_roll_credits_mvl/mxv
	BYTE	W02
	BYTE		        16*staff_roll_credits_mvl/mxv
	BYTE	W02
	BYTE		        11*staff_roll_credits_mvl/mxv
	BYTE	W02
	BYTE		        0*staff_roll_credits_mvl/mxv
	BYTE	W01
	BYTE	PEND
	BYTE		EOT     As2 
	BYTE	PATT
	 POIN2	staff_roll_credits_6 + 0x1E
	BYTE	PATT
	 POIN2	staff_roll_credits_6 + 0x1E6
	BYTE		EOT     An2 
	BYTE		N48     Gs2   v100
	BYTE	W02
	BYTE		VOL     0*staff_roll_credits_mvl/mxv
	BYTE	W02
	BYTE		        2*staff_roll_credits_mvl/mxv
	BYTE	W02
	BYTE		        4*staff_roll_credits_mvl/mxv
	BYTE	W01
	BYTE		        5*staff_roll_credits_mvl/mxv
	BYTE	W02
	BYTE		        6*staff_roll_credits_mvl/mxv
	BYTE	W01
	BYTE		        7*staff_roll_credits_mvl/mxv
	BYTE	W02
	BYTE		        9*staff_roll_credits_mvl/mxv
	BYTE	W01
	BYTE		        10*staff_roll_credits_mvl/mxv
	BYTE	W02
	BYTE		        11*staff_roll_credits_mvl/mxv
	BYTE	W02
	BYTE		        13*staff_roll_credits_mvl/mxv
	BYTE	W01
	BYTE		        14*staff_roll_credits_mvl/mxv
	BYTE	W02
	BYTE		        15*staff_roll_credits_mvl/mxv
	BYTE	W01
	BYTE		        16*staff_roll_credits_mvl/mxv
	BYTE	W02
	BYTE		        17*staff_roll_credits_mvl/mxv
	BYTE	W01
	BYTE		        17*staff_roll_credits_mvl/mxv
	BYTE	W02
	BYTE		        19*staff_roll_credits_mvl/mxv
	BYTE	W02
	BYTE		        21*staff_roll_credits_mvl/mxv
	BYTE	W01
	BYTE		        21*staff_roll_credits_mvl/mxv
	BYTE	W02
	BYTE		        23*staff_roll_credits_mvl/mxv
	BYTE	W01
	BYTE		        24*staff_roll_credits_mvl/mxv
	BYTE	W02
	BYTE		        25*staff_roll_credits_mvl/mxv
	BYTE	W01
	BYTE		        26*staff_roll_credits_mvl/mxv
	BYTE	W02
	BYTE		        28*staff_roll_credits_mvl/mxv
	BYTE	W02
	BYTE		        30*staff_roll_credits_mvl/mxv
	BYTE	W01
	BYTE		        30*staff_roll_credits_mvl/mxv
	BYTE	W02
	BYTE		        32*staff_roll_credits_mvl/mxv
	BYTE	W01
	BYTE		        33*staff_roll_credits_mvl/mxv
	BYTE	W02
	BYTE		        34*staff_roll_credits_mvl/mxv
	BYTE	W01
	BYTE		        34*staff_roll_credits_mvl/mxv
	BYTE	W02
	BYTE		        36*staff_roll_credits_mvl/mxv
	BYTE		N48     Gn2 
	BYTE	W02
	BYTE		VOL     37*staff_roll_credits_mvl/mxv
	BYTE	W01
	BYTE		        38*staff_roll_credits_mvl/mxv
	BYTE	W02
	BYTE		        40*staff_roll_credits_mvl/mxv
	BYTE	W01
	BYTE		        41*staff_roll_credits_mvl/mxv
	BYTE	W02
	BYTE		        42*staff_roll_credits_mvl/mxv
	BYTE	W01
	BYTE		        43*staff_roll_credits_mvl/mxv
	BYTE	W02
	BYTE		        45*staff_roll_credits_mvl/mxv
	BYTE	W02
	BYTE		        46*staff_roll_credits_mvl/mxv
	BYTE	W01
	BYTE		        47*staff_roll_credits_mvl/mxv
	BYTE	W02
	BYTE		        49*staff_roll_credits_mvl/mxv
	BYTE	W01
	BYTE		        49*staff_roll_credits_mvl/mxv
	BYTE	W02
	BYTE		        51*staff_roll_credits_mvl/mxv
	BYTE	W01
	BYTE		        51*staff_roll_credits_mvl/mxv
	BYTE	W02
	BYTE		        53*staff_roll_credits_mvl/mxv
	BYTE	W02
	BYTE		        57*staff_roll_credits_mvl/mxv
	BYTE	W24
	BYTE		N48     Fs2 
	BYTE	W48
	BYTE		        Fn2 
	BYTE	W44
	BYTE	W03
	BYTE		VOICE   74
	BYTE		VOL     113*staff_roll_credits_mvl/mxv
	BYTE	W01
	BYTE		N05     As3   v076
	BYTE	W16
	BYTE		        As3   v032
	BYTE	W08
	BYTE		        As3   v076
	BYTE	W16
	BYTE		        As3   v032
	BYTE	W08
	BYTE		        As3   v076
	BYTE	W16
	BYTE		        As3   v032
	BYTE	W08
	BYTE		        As3   v076
	BYTE	W16
	BYTE		        As3   v032
	BYTE	W08
	BYTE	PEND
	BYTE	PATT
	 POIN2	staff_roll_credits_6 + 0x27E
	BYTE	PATT
	 POIN2	staff_roll_credits_6 + 0x27E
	BYTE		N05     As3   v076
	BYTE	W16
	BYTE		        As3   v032
	BYTE	W08
	BYTE		        As3   v076
	BYTE	W16
	BYTE		        As3   v032
	BYTE	W08
	BYTE		        As3   v076
	BYTE	W16
	BYTE		        As3   v032
	BYTE	W08
	BYTE		        As3   v076
	BYTE	W16
	BYTE		        As3   v032
	BYTE	W07
	BYTE		VOICE   74
	BYTE		VOL     113*staff_roll_credits_mvl/mxv
	BYTE	W01
	BYTE		N05     Ds3   v088
	BYTE	W16
	BYTE		        Ds3   v040
	BYTE	W08
	BYTE		        Ds3   v088
	BYTE	W16
	BYTE		        Ds3   v040
	BYTE	W08
	BYTE		        Ds3   v088
	BYTE	W16
	BYTE		        Ds3   v040
	BYTE	W08
	BYTE		        Ds3   v088
	BYTE	W16
	BYTE		        Ds3   v040
	BYTE	W08
	BYTE	PEND
	BYTE		N05     Cs3   v088
	BYTE	W16
	BYTE		        Cs3   v040
	BYTE	W08
	BYTE		        Cs3   v088
	BYTE	W16
	BYTE		        Cs3   v040
	BYTE	W08
	BYTE		        Cs3   v088
	BYTE	W16
	BYTE		        Cs3   v040
	BYTE	W08
	BYTE		        Cs3   v088
	BYTE	W16
	BYTE		        Cs3   v040
	BYTE	W08
	BYTE	PEND
	BYTE		N05     Cn3   v088
	BYTE	W16
	BYTE		        Cn3   v040
	BYTE	W08
	BYTE		        Cn3   v088
	BYTE	W16
	BYTE		        Cn3   v040
	BYTE	W08
	BYTE		        Cn3   v088
	BYTE	W16
	BYTE		        Cn3   v040
	BYTE	W08
	BYTE		        Cn3   v088
	BYTE	W16
	BYTE		        Cn3   v040
	BYTE	W08
	BYTE	PEND
	BYTE		N05     As2   v088
	BYTE	W16
	BYTE		        As2   v040
	BYTE	W08
	BYTE		        As2   v088
	BYTE	W16
	BYTE		        As2   v040
	BYTE	W08
	BYTE		        Gs2   v088
	BYTE	W16
	BYTE		        Gs2   v040
	BYTE	W08
	BYTE		        Gs2   v088
	BYTE	W16
	BYTE		        Gs2   v040
	BYTE	W08
	BYTE	PEND
	BYTE	PATT
	 POIN2	staff_roll_credits_6 + 0x2C0
	BYTE	PATT
	 POIN2	staff_roll_credits_6 + 0x2DA
	BYTE	PATT
	 POIN2	staff_roll_credits_6 + 0x2F4
	BYTE		N05     As2   v088
	BYTE	W16
	BYTE		        As2   v040
	BYTE	W08
	BYTE		        As2   v088
	BYTE	W16
	BYTE		        As2   v040
	BYTE	W08
	BYTE		        Gs2   v088
	BYTE	W16
	BYTE		        Gs2   v040
	BYTE	W08
	BYTE		        Gs2   v088
	BYTE	W16
	BYTE		        Gs2   v040
	BYTE	W07
	BYTE		VOICE   81
	BYTE		VOL     56*staff_roll_credits_mvl/mxv
	BYTE	W01
	BYTE	PEND
	BYTE		TIE     Fs3   v108
	BYTE	W96
	BYTE	W96
	BYTE		EOT
	BYTE		TIE     Cs3 
	BYTE	W96
	BYTE	W96
	BYTE		EOT
	BYTE		TIE     Fs3 
	BYTE	W96
	BYTE	W96
	BYTE		EOT
	BYTE		TIE     Cs3 
	BYTE	W96
	BYTE	W92
	BYTE	W03
	BYTE		VOICE   74
	BYTE		VOL     113*staff_roll_credits_mvl/mxv
	BYTE	W01
	BYTE		EOT
	BYTE	PATT
	 POIN2	staff_roll_credits_6 + 0x2C0
	BYTE	PATT
	 POIN2	staff_roll_credits_6 + 0x2DA
	BYTE	PATT
	 POIN2	staff_roll_credits_6 + 0x2F4
	BYTE	PATT
	 POIN2	staff_roll_credits_6 + 0x30E
	BYTE	PATT
	 POIN2	staff_roll_credits_6 + 0x2C0
	BYTE	PATT
	 POIN2	staff_roll_credits_6 + 0x2DA
	BYTE	PATT
	 POIN2	staff_roll_credits_6 + 0x2F4
	BYTE	PATT
	 POIN2	staff_roll_credits_6 + 0x337
	BYTE		TIE     Fs3   v108
	BYTE	W96
	BYTE	W96
	BYTE		EOT
	BYTE		TIE     Cs3 
	BYTE	W96
	BYTE	W96
	BYTE		EOT
	BYTE		TIE     Fs3 
	BYTE	W96
	BYTE	W96
	BYTE		EOT
	BYTE		TIE     Cs3 
	BYTE	W96
	BYTE	PATT
	 POIN2	staff_roll_credits_6 + 0x98
	BYTE		EOT     Cs3 
	BYTE		TIE     Fs3   v112
	BYTE	W02
	BYTE		VOL     0*staff_roll_credits_mvl/mxv
	BYTE	W02
	BYTE		        1*staff_roll_credits_mvl/mxv
	BYTE	W02
	BYTE		        3*staff_roll_credits_mvl/mxv
	BYTE	W01
	BYTE		        3*staff_roll_credits_mvl/mxv
	BYTE	W02
	BYTE		        5*staff_roll_credits_mvl/mxv
	BYTE	W01
	BYTE		        5*staff_roll_credits_mvl/mxv
	BYTE	W02
	BYTE		        7*staff_roll_credits_mvl/mxv
	BYTE	W01
	BYTE		        7*staff_roll_credits_mvl/mxv
	BYTE	W02
	BYTE		        9*staff_roll_credits_mvl/mxv
	BYTE	W02
	BYTE		        10*staff_roll_credits_mvl/mxv
	BYTE	W01
	BYTE		        11*staff_roll_credits_mvl/mxv
	BYTE	W02
	BYTE		        12*staff_roll_credits_mvl/mxv
	BYTE	W01
	BYTE		        13*staff_roll_credits_mvl/mxv
	BYTE	W02
	BYTE		        14*staff_roll_credits_mvl/mxv
	BYTE	W01
	BYTE		        15*staff_roll_credits_mvl/mxv
	BYTE	W02
	BYTE		        17*staff_roll_credits_mvl/mxv
	BYTE	W02
	BYTE		        17*staff_roll_credits_mvl/mxv
	BYTE	W01
	BYTE		        18*staff_roll_credits_mvl/mxv
	BYTE	W02
	BYTE		        19*staff_roll_credits_mvl/mxv
	BYTE	W01
	BYTE		        20*staff_roll_credits_mvl/mxv
	BYTE	W02
	BYTE		        21*staff_roll_credits_mvl/mxv
	BYTE	W01
	BYTE		        22*staff_roll_credits_mvl/mxv
	BYTE	W02
	BYTE		        23*staff_roll_credits_mvl/mxv
	BYTE	W02
	BYTE		        25*staff_roll_credits_mvl/mxv
	BYTE	W01
	BYTE		        25*staff_roll_credits_mvl/mxv
	BYTE	W02
	BYTE		        27*staff_roll_credits_mvl/mxv
	BYTE	W01
	BYTE		        27*staff_roll_credits_mvl/mxv
	BYTE	W02
	BYTE		        29*staff_roll_credits_mvl/mxv
	BYTE	W01
	BYTE		        30*staff_roll_credits_mvl/mxv
	BYTE	W02
	BYTE		        31*staff_roll_credits_mvl/mxv
	BYTE	W02
	BYTE		        32*staff_roll_credits_mvl/mxv
	BYTE	W01
	BYTE		        33*staff_roll_credits_mvl/mxv
	BYTE	W02
	BYTE		        34*staff_roll_credits_mvl/mxv
	BYTE	W01
	BYTE		        34*staff_roll_credits_mvl/mxv
	BYTE	W02
	BYTE		        36*staff_roll_credits_mvl/mxv
	BYTE	W01
	BYTE		        36*staff_roll_credits_mvl/mxv
	BYTE	W02
	BYTE		        38*staff_roll_credits_mvl/mxv
	BYTE	W02
	BYTE		        39*staff_roll_credits_mvl/mxv
	BYTE	W01
	BYTE		        40*staff_roll_credits_mvl/mxv
	BYTE	W02
	BYTE		        41*staff_roll_credits_mvl/mxv
	BYTE	W01
	BYTE		        42*staff_roll_credits_mvl/mxv
	BYTE	W02
	BYTE		        43*staff_roll_credits_mvl/mxv
	BYTE	W01
	BYTE		        44*staff_roll_credits_mvl/mxv
	BYTE	W02
	BYTE		        45*staff_roll_credits_mvl/mxv
	BYTE	W04
	BYTE		        48*staff_roll_credits_mvl/mxv
	BYTE	W01
	BYTE		        49*staff_roll_credits_mvl/mxv
	BYTE	W02
	BYTE		        50*staff_roll_credits_mvl/mxv
	BYTE	W01
	BYTE		        51*staff_roll_credits_mvl/mxv
	BYTE	W02
	BYTE		        51*staff_roll_credits_mvl/mxv
	BYTE	W01
	BYTE		        52*staff_roll_credits_mvl/mxv
	BYTE	W02
	BYTE		        53*staff_roll_credits_mvl/mxv
	BYTE	W02
	BYTE		        55*staff_roll_credits_mvl/mxv
	BYTE	W01
	BYTE		        56*staff_roll_credits_mvl/mxv
	BYTE	W02
	BYTE		        57*staff_roll_credits_mvl/mxv
	BYTE	W01
	BYTE		        58*staff_roll_credits_mvl/mxv
	BYTE	W02
	BYTE		        59*staff_roll_credits_mvl/mxv
	BYTE	W01
	BYTE		        60*staff_roll_credits_mvl/mxv
	BYTE	W02
	BYTE		        61*staff_roll_credits_mvl/mxv
	BYTE	W02
	BYTE	PEND
	BYTE	PATT
	 POIN2	staff_roll_credits_6 + 0x98
	BYTE		EOT     Fs3 
	BYTE		TIE     Gs3   v112
	BYTE	W02
	BYTE		VOL     0*staff_roll_credits_mvl/mxv
	BYTE	W02
	BYTE		        1*staff_roll_credits_mvl/mxv
	BYTE	W02
	BYTE		        3*staff_roll_credits_mvl/mxv
	BYTE	W01
	BYTE		        3*staff_roll_credits_mvl/mxv
	BYTE	W02
	BYTE		        5*staff_roll_credits_mvl/mxv
	BYTE	W01
	BYTE		        5*staff_roll_credits_mvl/mxv
	BYTE	W02
	BYTE		        7*staff_roll_credits_mvl/mxv
	BYTE	W01
	BYTE		        7*staff_roll_credits_mvl/mxv
	BYTE	W02
	BYTE		        9*staff_roll_credits_mvl/mxv
	BYTE	W02
	BYTE		        10*staff_roll_credits_mvl/mxv
	BYTE	W01
	BYTE		        11*staff_roll_credits_mvl/mxv
	BYTE	W02
	BYTE		        12*staff_roll_credits_mvl/mxv
	BYTE	W01
	BYTE		        13*staff_roll_credits_mvl/mxv
	BYTE	W02
	BYTE		        14*staff_roll_credits_mvl/mxv
	BYTE	W01
	BYTE		        15*staff_roll_credits_mvl/mxv
	BYTE	W02
	BYTE		        17*staff_roll_credits_mvl/mxv
	BYTE	W02
	BYTE		        17*staff_roll_credits_mvl/mxv
	BYTE	W01
	BYTE		        18*staff_roll_credits_mvl/mxv
	BYTE	W02
	BYTE		        19*staff_roll_credits_mvl/mxv
	BYTE	W01
	BYTE		        20*staff_roll_credits_mvl/mxv
	BYTE	W02
	BYTE		        21*staff_roll_credits_mvl/mxv
	BYTE	W01
	BYTE		        22*staff_roll_credits_mvl/mxv
	BYTE	W02
	BYTE		        23*staff_roll_credits_mvl/mxv
	BYTE	W02
	BYTE		        25*staff_roll_credits_mvl/mxv
	BYTE	W01
	BYTE		        25*staff_roll_credits_mvl/mxv
	BYTE	W02
	BYTE		        27*staff_roll_credits_mvl/mxv
	BYTE	W01
	BYTE		        27*staff_roll_credits_mvl/mxv
	BYTE	W02
	BYTE		        29*staff_roll_credits_mvl/mxv
	BYTE	W01
	BYTE		        30*staff_roll_credits_mvl/mxv
	BYTE	W02
	BYTE		        31*staff_roll_credits_mvl/mxv
	BYTE	W02
	BYTE		        32*staff_roll_credits_mvl/mxv
	BYTE	W01
	BYTE		        33*staff_roll_credits_mvl/mxv
	BYTE	W02
	BYTE		        34*staff_roll_credits_mvl/mxv
	BYTE	W01
	BYTE		        34*staff_roll_credits_mvl/mxv
	BYTE	W02
	BYTE		        36*staff_roll_credits_mvl/mxv
	BYTE	W01
	BYTE		        36*staff_roll_credits_mvl/mxv
	BYTE	W02
	BYTE		        38*staff_roll_credits_mvl/mxv
	BYTE	W02
	BYTE		        39*staff_roll_credits_mvl/mxv
	BYTE	W01
	BYTE		        40*staff_roll_credits_mvl/mxv
	BYTE	W02
	BYTE		        41*staff_roll_credits_mvl/mxv
	BYTE	W01
	BYTE		        42*staff_roll_credits_mvl/mxv
	BYTE	W02
	BYTE		        43*staff_roll_credits_mvl/mxv
	BYTE	W01
	BYTE		        44*staff_roll_credits_mvl/mxv
	BYTE	W02
	BYTE		        45*staff_roll_credits_mvl/mxv
	BYTE	W04
	BYTE		        48*staff_roll_credits_mvl/mxv
	BYTE	W01
	BYTE		        49*staff_roll_credits_mvl/mxv
	BYTE	W02
	BYTE		        50*staff_roll_credits_mvl/mxv
	BYTE	W01
	BYTE		        51*staff_roll_credits_mvl/mxv
	BYTE	W02
	BYTE		        51*staff_roll_credits_mvl/mxv
	BYTE	W01
	BYTE		        52*staff_roll_credits_mvl/mxv
	BYTE	W02
	BYTE		        53*staff_roll_credits_mvl/mxv
	BYTE	W02
	BYTE		        55*staff_roll_credits_mvl/mxv
	BYTE	W01
	BYTE		        56*staff_roll_credits_mvl/mxv
	BYTE	W02
	BYTE		        57*staff_roll_credits_mvl/mxv
	BYTE	W01
	BYTE		        58*staff_roll_credits_mvl/mxv
	BYTE	W02
	BYTE		        59*staff_roll_credits_mvl/mxv
	BYTE	W01
	BYTE		        60*staff_roll_credits_mvl/mxv
	BYTE	W02
	BYTE		        61*staff_roll_credits_mvl/mxv
	BYTE	W02
	BYTE	PEND
	BYTE	PATT
	 POIN2	staff_roll_credits_6 + 0x98
	BYTE		EOT     Gs3 
	BYTE	PATT
	 POIN2	staff_roll_credits_6 + 0x3B3
	BYTE	PATT
	 POIN2	staff_roll_credits_6 + 0x98
	BYTE		EOT     Fs3 
	BYTE	PATT
	 POIN2	staff_roll_credits_6 + 0x434
	BYTE	PATT
	 POIN2	staff_roll_credits_6 + 0x98
	BYTE		EOT     Gs3 
	BYTE	PATT
	 POIN2	staff_roll_credits_6 + 0x3B3
	BYTE	PATT
	 POIN2	staff_roll_credits_6 + 0x98
	BYTE		EOT     Fs3 
	BYTE	PATT
	 POIN2	staff_roll_credits_6 + 0x434
	BYTE	PATT
	 POIN2	staff_roll_credits_6 + 0x98
	BYTE		EOT     Gs3 
	BYTE	PATT
	 POIN2	staff_roll_credits_6 + 0x3B3
	BYTE	PATT
	 POIN2	staff_roll_credits_6 + 0x98
	BYTE		EOT     Fs3 
	BYTE	PATT
	 POIN2	staff_roll_credits_6 + 0x434
	BYTE	W36
	BYTE	W02
	BYTE		VOL     58*staff_roll_credits_mvl/mxv
	BYTE	W03
	BYTE		        57*staff_roll_credits_mvl/mxv
	BYTE	W02
	BYTE		        56*staff_roll_credits_mvl/mxv
	BYTE	W03
	BYTE		        55*staff_roll_credits_mvl/mxv
	BYTE	W02
	BYTE		        54*staff_roll_credits_mvl/mxv
	BYTE	W03
	BYTE		        53*staff_roll_credits_mvl/mxv
	BYTE	W02
	BYTE		        52*staff_roll_credits_mvl/mxv
	BYTE	W03
	BYTE		        51*staff_roll_credits_mvl/mxv
	BYTE	W05
	BYTE		        49*staff_roll_credits_mvl/mxv
	BYTE	W02
	BYTE		        47*staff_roll_credits_mvl/mxv
	BYTE	W02
	BYTE		        45*staff_roll_credits_mvl/mxv
	BYTE	W01
	BYTE		        44*staff_roll_credits_mvl/mxv
	BYTE	W02
	BYTE		        42*staff_roll_credits_mvl/mxv
	BYTE	W02
	BYTE		        40*staff_roll_credits_mvl/mxv
	BYTE	W02
	BYTE		        38*staff_roll_credits_mvl/mxv
	BYTE	W02
	BYTE		        34*staff_roll_credits_mvl/mxv
	BYTE	W02
	BYTE		        32*staff_roll_credits_mvl/mxv
	BYTE	W02
	BYTE		        29*staff_roll_credits_mvl/mxv
	BYTE	W02
	BYTE		        25*staff_roll_credits_mvl/mxv
	BYTE	W01
	BYTE		        24*staff_roll_credits_mvl/mxv
	BYTE	W02
	BYTE		        20*staff_roll_credits_mvl/mxv
	BYTE	W02
	BYTE		        17*staff_roll_credits_mvl/mxv
	BYTE	W02
	BYTE		        15*staff_roll_credits_mvl/mxv
	BYTE	W02
	BYTE		        11*staff_roll_credits_mvl/mxv
	BYTE	W02
	BYTE		        8*staff_roll_credits_mvl/mxv
	BYTE	W02
	BYTE		        4*staff_roll_credits_mvl/mxv
	BYTE	W02
	BYTE		VOICE   74
	BYTE		VOL     113*staff_roll_credits_mvl/mxv
	BYTE	W01
	BYTE		EOT     Gs3 
	BYTE		N05     As2   v088
	BYTE	W16
	BYTE		        As2   v040
	BYTE	W08
	BYTE		        As2   v088
	BYTE	W16
	BYTE		        As2   v040
	BYTE	W08
	BYTE		        As2   v088
	BYTE	W16
	BYTE		        As2   v040
	BYTE	W08
	BYTE		        As2   v088
	BYTE	W16
	BYTE		        As2   v040
	BYTE	W08
	BYTE	PEND
	BYTE	PATT
	 POIN2	staff_roll_credits_6 + 0x2DA
	BYTE	PATT
	 POIN2	staff_roll_credits_6 + 0x2C0
	BYTE		N05     Ds3   v088
	BYTE	W16
	BYTE		        Ds3   v040
	BYTE	W08
	BYTE		        Ds3   v088
	BYTE	W16
	BYTE		        Ds3   v040
	BYTE	W08
	BYTE		        Cs3   v088
	BYTE	W16
	BYTE		        Cs3   v040
	BYTE	W08
	BYTE		        Cs3   v088
	BYTE	W16
	BYTE		        Cs3   v040
	BYTE	W08
	BYTE	PATT
	 POIN2	staff_roll_credits_6 + 0x534
	BYTE	PATT
	 POIN2	staff_roll_credits_6 + 0x2DA
	BYTE	PATT
	 POIN2	staff_roll_credits_6 + 0x2C0
	BYTE		N05     Ds3   v088
	BYTE	W16
	BYTE		        Ds3   v040
	BYTE	W08
	BYTE		        Ds3   v088
	BYTE	W16
	BYTE		        Ds3   v040
	BYTE	W08
	BYTE		        Cs3   v088
	BYTE	W16
	BYTE		        Cs3   v040
	BYTE	W08
	BYTE		        Cs3   v088
	BYTE	W16
	BYTE		        Cs3   v040
	BYTE	W07
	BYTE		VOICE   74
	BYTE		VOL     113*staff_roll_credits_mvl/mxv
	BYTE	W01
	BYTE	PATT
	 POIN2	staff_roll_credits_6 + 0x2C0
	BYTE	PATT
	 POIN2	staff_roll_credits_6 + 0x2DA
	BYTE	PATT
	 POIN2	staff_roll_credits_6 + 0x2F4
	BYTE	PATT
	 POIN2	staff_roll_credits_6 + 0x30E
	BYTE	GoTo
	 POIN2	staff_roll_credits_6 + 0x385
	BYTE	W96
	BYTE	W96
	BYTE	W96
	BYTE	W96
	BYTE	W96
	BYTE	W96
	BYTE	W96
	BYTE	W96
	BYTE	W96
	BYTE	W96
	BYTE	W96
	BYTE	W96
	BYTE	FINE

//*********************** Track 08 ***********************//

staff_roll_credits_7:
	BYTE	KEYSH   staff_roll_credits_key+0
	BYTE	W12
	BYTE		VOICE   82
	BYTE	W01
	BYTE		MOD     0
	BYTE		VOL     66*staff_roll_credits_mvl/mxv
	BYTE		LFOS    90
	BYTE	W01
	BYTE		PAN     c_v+0
	BYTE		MODT    mod_pan
	BYTE	W22
	BYTE	W96
	BYTE	W96
	BYTE	W96
	BYTE	W96
	BYTE	W96
	BYTE	W96
	BYTE	W96
	BYTE	W92
	BYTE	W03
	BYTE		VOL     0*staff_roll_credits_mvl/mxv
	BYTE	W01
	BYTE		TIE     Dn3   v080
	BYTE	W02
	BYTE		VOL     0*staff_roll_credits_mvl/mxv
	BYTE	W02
	BYTE		        1*staff_roll_credits_mvl/mxv
	BYTE	W02
	BYTE		        3*staff_roll_credits_mvl/mxv
	BYTE	W01
	BYTE		        3*staff_roll_credits_mvl/mxv
	BYTE	W02
	BYTE		        5*staff_roll_credits_mvl/mxv
	BYTE	W01
	BYTE		        5*staff_roll_credits_mvl/mxv
	BYTE	W02
	BYTE		        7*staff_roll_credits_mvl/mxv
	BYTE	W01
	BYTE		        7*staff_roll_credits_mvl/mxv
	BYTE	W02
	BYTE		        9*staff_roll_credits_mvl/mxv
	BYTE	W02
	BYTE		        10*staff_roll_credits_mvl/mxv
	BYTE	W01
	BYTE		        11*staff_roll_credits_mvl/mxv
	BYTE	W02
	BYTE		        12*staff_roll_credits_mvl/mxv
	BYTE	W01
	BYTE		        13*staff_roll_credits_mvl/mxv
	BYTE	W02
	BYTE		        14*staff_roll_credits_mvl/mxv
	BYTE	W01
	BYTE		        15*staff_roll_credits_mvl/mxv
	BYTE	W02
	BYTE		        17*staff_roll_credits_mvl/mxv
	BYTE	W02
	BYTE		        17*staff_roll_credits_mvl/mxv
	BYTE	W01
	BYTE		        18*staff_roll_credits_mvl/mxv
	BYTE	W02
	BYTE		        19*staff_roll_credits_mvl/mxv
	BYTE	W01
	BYTE		        20*staff_roll_credits_mvl/mxv
	BYTE	W02
	BYTE		        21*staff_roll_credits_mvl/mxv
	BYTE	W01
	BYTE		        22*staff_roll_credits_mvl/mxv
	BYTE	W02
	BYTE		        23*staff_roll_credits_mvl/mxv
	BYTE	W02
	BYTE		        25*staff_roll_credits_mvl/mxv
	BYTE	W01
	BYTE		        25*staff_roll_credits_mvl/mxv
	BYTE	W02
	BYTE		        27*staff_roll_credits_mvl/mxv
	BYTE	W01
	BYTE		        27*staff_roll_credits_mvl/mxv
	BYTE	W02
	BYTE		        29*staff_roll_credits_mvl/mxv
	BYTE	W01
	BYTE		        30*staff_roll_credits_mvl/mxv
	BYTE	W02
	BYTE		        31*staff_roll_credits_mvl/mxv
	BYTE	W02
	BYTE		        32*staff_roll_credits_mvl/mxv
	BYTE	W01
	BYTE		        33*staff_roll_credits_mvl/mxv
	BYTE	W02
	BYTE		        34*staff_roll_credits_mvl/mxv
	BYTE	W01
	BYTE		        34*staff_roll_credits_mvl/mxv
	BYTE	W02
	BYTE		        36*staff_roll_credits_mvl/mxv
	BYTE	W01
	BYTE		        36*staff_roll_credits_mvl/mxv
	BYTE	W02
	BYTE		        38*staff_roll_credits_mvl/mxv
	BYTE	W02
	BYTE		        39*staff_roll_credits_mvl/mxv
	BYTE	W01
	BYTE		        40*staff_roll_credits_mvl/mxv
	BYTE	W02
	BYTE		        41*staff_roll_credits_mvl/mxv
	BYTE	W01
	BYTE		        42*staff_roll_credits_mvl/mxv
	BYTE	W02
	BYTE		        43*staff_roll_credits_mvl/mxv
	BYTE	W01
	BYTE		        44*staff_roll_credits_mvl/mxv
	BYTE	W02
	BYTE		        45*staff_roll_credits_mvl/mxv
	BYTE	W04
	BYTE		        48*staff_roll_credits_mvl/mxv
	BYTE	W01
	BYTE		        49*staff_roll_credits_mvl/mxv
	BYTE	W02
	BYTE		        50*staff_roll_credits_mvl/mxv
	BYTE	W01
	BYTE		        51*staff_roll_credits_mvl/mxv
	BYTE	W02
	BYTE		        51*staff_roll_credits_mvl/mxv
	BYTE	W01
	BYTE		        52*staff_roll_credits_mvl/mxv
	BYTE	W02
	BYTE		        53*staff_roll_credits_mvl/mxv
	BYTE	W02
	BYTE		        55*staff_roll_credits_mvl/mxv
	BYTE	W01
	BYTE		        56*staff_roll_credits_mvl/mxv
	BYTE	W02
	BYTE		        57*staff_roll_credits_mvl/mxv
	BYTE	W01
	BYTE		        58*staff_roll_credits_mvl/mxv
	BYTE	W02
	BYTE		        59*staff_roll_credits_mvl/mxv
	BYTE	W01
	BYTE		        60*staff_roll_credits_mvl/mxv
	BYTE	W02
	BYTE		        61*staff_roll_credits_mvl/mxv
	BYTE	W02
	BYTE	PEND
	BYTE	W36
	BYTE	W02
	BYTE		VOL     58*staff_roll_credits_mvl/mxv
	BYTE	W03
	BYTE		        57*staff_roll_credits_mvl/mxv
	BYTE	W02
	BYTE		        56*staff_roll_credits_mvl/mxv
	BYTE	W03
	BYTE		        55*staff_roll_credits_mvl/mxv
	BYTE	W02
	BYTE		        54*staff_roll_credits_mvl/mxv
	BYTE	W03
	BYTE		        53*staff_roll_credits_mvl/mxv
	BYTE	W02
	BYTE		        52*staff_roll_credits_mvl/mxv
	BYTE	W03
	BYTE		        51*staff_roll_credits_mvl/mxv
	BYTE	W05
	BYTE		        49*staff_roll_credits_mvl/mxv
	BYTE	W02
	BYTE		        47*staff_roll_credits_mvl/mxv
	BYTE	W02
	BYTE		        45*staff_roll_credits_mvl/mxv
	BYTE	W01
	BYTE		        44*staff_roll_credits_mvl/mxv
	BYTE	W02
	BYTE		        42*staff_roll_credits_mvl/mxv
	BYTE	W02
	BYTE		        40*staff_roll_credits_mvl/mxv
	BYTE	W02
	BYTE		        38*staff_roll_credits_mvl/mxv
	BYTE	W02
	BYTE		        34*staff_roll_credits_mvl/mxv
	BYTE	W02
	BYTE		        32*staff_roll_credits_mvl/mxv
	BYTE	W02
	BYTE		        29*staff_roll_credits_mvl/mxv
	BYTE	W02
	BYTE		        25*staff_roll_credits_mvl/mxv
	BYTE	W01
	BYTE		        24*staff_roll_credits_mvl/mxv
	BYTE	W02
	BYTE		        20*staff_roll_credits_mvl/mxv
	BYTE	W02
	BYTE		        17*staff_roll_credits_mvl/mxv
	BYTE	W02
	BYTE		        15*staff_roll_credits_mvl/mxv
	BYTE	W02
	BYTE		        11*staff_roll_credits_mvl/mxv
	BYTE	W02
	BYTE		        8*staff_roll_credits_mvl/mxv
	BYTE	W02
	BYTE		        4*staff_roll_credits_mvl/mxv
	BYTE	W02
	BYTE		        0*staff_roll_credits_mvl/mxv
	BYTE	W01
	BYTE	PEND
	BYTE		EOT     Dn3 
	BYTE	PATT
	 POIN2	staff_roll_credits_7 + 0x1E
	BYTE	PATT
	 POIN2	staff_roll_credits_7 + 0x98
	BYTE		EOT     Dn3 
	BYTE	PATT
	 POIN2	staff_roll_credits_7 + 0x1E
	BYTE	PATT
	 POIN2	staff_roll_credits_7 + 0x98
	BYTE		EOT     Dn3 
	BYTE	PATT
	 POIN2	staff_roll_credits_7 + 0x1E
	BYTE	PATT
	 POIN2	staff_roll_credits_7 + 0x98
	BYTE		EOT     Dn3 
	BYTE		TIE     Fn3   v080
	BYTE	W02
	BYTE		VOL     0*staff_roll_credits_mvl/mxv
	BYTE	W02
	BYTE		        1*staff_roll_credits_mvl/mxv
	BYTE	W02
	BYTE		        3*staff_roll_credits_mvl/mxv
	BYTE	W01
	BYTE		        3*staff_roll_credits_mvl/mxv
	BYTE	W02
	BYTE		        5*staff_roll_credits_mvl/mxv
	BYTE	W01
	BYTE		        5*staff_roll_credits_mvl/mxv
	BYTE	W02
	BYTE		        7*staff_roll_credits_mvl/mxv
	BYTE	W01
	BYTE		        7*staff_roll_credits_mvl/mxv
	BYTE	W02
	BYTE		        9*staff_roll_credits_mvl/mxv
	BYTE	W02
	BYTE		        10*staff_roll_credits_mvl/mxv
	BYTE	W01
	BYTE		        11*staff_roll_credits_mvl/mxv
	BYTE	W02
	BYTE		        12*staff_roll_credits_mvl/mxv
	BYTE	W01
	BYTE		        13*staff_roll_credits_mvl/mxv
	BYTE	W02
	BYTE		        14*staff_roll_credits_mvl/mxv
	BYTE	W01
	BYTE		        15*staff_roll_credits_mvl/mxv
	BYTE	W02
	BYTE		        17*staff_roll_credits_mvl/mxv
	BYTE	W02
	BYTE		        17*staff_roll_credits_mvl/mxv
	BYTE	W01
	BYTE		        18*staff_roll_credits_mvl/mxv
	BYTE	W02
	BYTE		        19*staff_roll_credits_mvl/mxv
	BYTE	W01
	BYTE		        20*staff_roll_credits_mvl/mxv
	BYTE	W02
	BYTE		        21*staff_roll_credits_mvl/mxv
	BYTE	W01
	BYTE		        22*staff_roll_credits_mvl/mxv
	BYTE	W02
	BYTE		        23*staff_roll_credits_mvl/mxv
	BYTE	W02
	BYTE		        25*staff_roll_credits_mvl/mxv
	BYTE	W01
	BYTE		        25*staff_roll_credits_mvl/mxv
	BYTE	W02
	BYTE		        27*staff_roll_credits_mvl/mxv
	BYTE	W01
	BYTE		        27*staff_roll_credits_mvl/mxv
	BYTE	W02
	BYTE		        29*staff_roll_credits_mvl/mxv
	BYTE	W01
	BYTE		        30*staff_roll_credits_mvl/mxv
	BYTE	W02
	BYTE		        31*staff_roll_credits_mvl/mxv
	BYTE	W02
	BYTE		        32*staff_roll_credits_mvl/mxv
	BYTE	W01
	BYTE		        33*staff_roll_credits_mvl/mxv
	BYTE	W02
	BYTE		        34*staff_roll_credits_mvl/mxv
	BYTE	W01
	BYTE		        34*staff_roll_credits_mvl/mxv
	BYTE	W02
	BYTE		        36*staff_roll_credits_mvl/mxv
	BYTE	W01
	BYTE		        36*staff_roll_credits_mvl/mxv
	BYTE	W02
	BYTE		        38*staff_roll_credits_mvl/mxv
	BYTE	W02
	BYTE		        39*staff_roll_credits_mvl/mxv
	BYTE	W01
	BYTE		        40*staff_roll_credits_mvl/mxv
	BYTE	W02
	BYTE		        41*staff_roll_credits_mvl/mxv
	BYTE	W01
	BYTE		        42*staff_roll_credits_mvl/mxv
	BYTE	W02
	BYTE		        43*staff_roll_credits_mvl/mxv
	BYTE	W01
	BYTE		        44*staff_roll_credits_mvl/mxv
	BYTE	W02
	BYTE		        45*staff_roll_credits_mvl/mxv
	BYTE	W04
	BYTE		        48*staff_roll_credits_mvl/mxv
	BYTE	W01
	BYTE		        49*staff_roll_credits_mvl/mxv
	BYTE	W02
	BYTE		        50*staff_roll_credits_mvl/mxv
	BYTE	W01
	BYTE		        51*staff_roll_credits_mvl/mxv
	BYTE	W02
	BYTE		        51*staff_roll_credits_mvl/mxv
	BYTE	W01
	BYTE		        52*staff_roll_credits_mvl/mxv
	BYTE	W02
	BYTE		        53*staff_roll_credits_mvl/mxv
	BYTE	W02
	BYTE		        55*staff_roll_credits_mvl/mxv
	BYTE	W01
	BYTE		        56*staff_roll_credits_mvl/mxv
	BYTE	W02
	BYTE		        57*staff_roll_credits_mvl/mxv
	BYTE	W01
	BYTE		        58*staff_roll_credits_mvl/mxv
	BYTE	W02
	BYTE		        59*staff_roll_credits_mvl/mxv
	BYTE	W01
	BYTE		        60*staff_roll_credits_mvl/mxv
	BYTE	W02
	BYTE		        61*staff_roll_credits_mvl/mxv
	BYTE	W02
	BYTE	PEND
	BYTE	W72
	BYTE		VOL     57*staff_roll_credits_mvl/mxv
	BYTE	W02
	BYTE		        53*staff_roll_credits_mvl/mxv
	BYTE	W02
	BYTE		        49*staff_roll_credits_mvl/mxv
	BYTE	W02
	BYTE		        44*staff_roll_credits_mvl/mxv
	BYTE	W02
	BYTE		        40*staff_roll_credits_mvl/mxv
	BYTE	W01
	BYTE		        37*staff_roll_credits_mvl/mxv
	BYTE	W02
	BYTE		        34*staff_roll_credits_mvl/mxv
	BYTE	W02
	BYTE		        29*staff_roll_credits_mvl/mxv
	BYTE	W02
	BYTE		        24*staff_roll_credits_mvl/mxv
	BYTE	W02
	BYTE		        20*staff_roll_credits_mvl/mxv
	BYTE	W02
	BYTE		        16*staff_roll_credits_mvl/mxv
	BYTE	W02
	BYTE		        11*staff_roll_credits_mvl/mxv
	BYTE	W02
	BYTE		        0*staff_roll_credits_mvl/mxv
	BYTE	W01
	BYTE	PEND
	BYTE		EOT     Fn3 
	BYTE	PATT
	 POIN2	staff_roll_credits_7 + 0xF8
	BYTE	PATT
	 POIN2	staff_roll_credits_7 + 0x172
	BYTE		EOT     Fn3 
	BYTE		N96     Ds3   v080
	BYTE	W02
	BYTE		VOL     0*staff_roll_credits_mvl/mxv
	BYTE	W02
	BYTE		        2*staff_roll_credits_mvl/mxv
	BYTE	W02
	BYTE		        4*staff_roll_credits_mvl/mxv
	BYTE	W01
	BYTE		        5*staff_roll_credits_mvl/mxv
	BYTE	W02
	BYTE		        6*staff_roll_credits_mvl/mxv
	BYTE	W01
	BYTE		        7*staff_roll_credits_mvl/mxv
	BYTE	W02
	BYTE		        9*staff_roll_credits_mvl/mxv
	BYTE	W01
	BYTE		        10*staff_roll_credits_mvl/mxv
	BYTE	W02
	BYTE		        11*staff_roll_credits_mvl/mxv
	BYTE	W02
	BYTE		        13*staff_roll_credits_mvl/mxv
	BYTE	W01
	BYTE		        14*staff_roll_credits_mvl/mxv
	BYTE	W02
	BYTE		        15*staff_roll_credits_mvl/mxv
	BYTE	W01
	BYTE		        16*staff_roll_credits_mvl/mxv
	BYTE	W02
	BYTE		        17*staff_roll_credits_mvl/mxv
	BYTE	W01
	BYTE		        17*staff_roll_credits_mvl/mxv
	BYTE	W02
	BYTE		        19*staff_roll_credits_mvl/mxv
	BYTE	W02
	BYTE		        21*staff_roll_credits_mvl/mxv
	BYTE	W01
	BYTE		        21*staff_roll_credits_mvl/mxv
	BYTE	W02
	BYTE		        23*staff_roll_credits_mvl/mxv
	BYTE	W01
	BYTE		        24*staff_roll_credits_mvl/mxv
	BYTE	W02
	BYTE		        25*staff_roll_credits_mvl/mxv
	BYTE	W01
	BYTE		        26*staff_roll_credits_mvl/mxv
	BYTE	W02
	BYTE		        28*staff_roll_credits_mvl/mxv
	BYTE	W02
	BYTE		        30*staff_roll_credits_mvl/mxv
	BYTE	W01
	BYTE		        30*staff_roll_credits_mvl/mxv
	BYTE	W02
	BYTE		        32*staff_roll_credits_mvl/mxv
	BYTE	W01
	BYTE		        33*staff_roll_credits_mvl/mxv
	BYTE	W02
	BYTE		        34*staff_roll_credits_mvl/mxv
	BYTE	W01
	BYTE		        34*staff_roll_credits_mvl/mxv
	BYTE	W02
	BYTE		        36*staff_roll_credits_mvl/mxv
	BYTE	W02
	BYTE		        37*staff_roll_credits_mvl/mxv
	BYTE	W01
	BYTE		        38*staff_roll_credits_mvl/mxv
	BYTE	W02
	BYTE		        40*staff_roll_credits_mvl/mxv
	BYTE	W01
	BYTE		        41*staff_roll_credits_mvl/mxv
	BYTE	W02
	BYTE		        42*staff_roll_credits_mvl/mxv
	BYTE	W01
	BYTE		        43*staff_roll_credits_mvl/mxv
	BYTE	W02
	BYTE		        45*staff_roll_credits_mvl/mxv
	BYTE	W02
	BYTE		        46*staff_roll_credits_mvl/mxv
	BYTE	W01
	BYTE		        47*staff_roll_credits_mvl/mxv
	BYTE	W02
	BYTE		        49*staff_roll_credits_mvl/mxv
	BYTE	W01
	BYTE		        49*staff_roll_credits_mvl/mxv
	BYTE	W02
	BYTE		        51*staff_roll_credits_mvl/mxv
	BYTE	W01
	BYTE		        51*staff_roll_credits_mvl/mxv
	BYTE	W02
	BYTE		        53*staff_roll_credits_mvl/mxv
	BYTE	W02
	BYTE		        57*staff_roll_credits_mvl/mxv
	BYTE	W02
	BYTE		        53*staff_roll_credits_mvl/mxv
	BYTE	W02
	BYTE		        49*staff_roll_credits_mvl/mxv
	BYTE	W02
	BYTE		        44*staff_roll_credits_mvl/mxv
	BYTE	W02
	BYTE		        40*staff_roll_credits_mvl/mxv
	BYTE	W01
	BYTE		        37*staff_roll_credits_mvl/mxv
	BYTE	W02
	BYTE		        34*staff_roll_credits_mvl/mxv
	BYTE	W02
	BYTE		        29*staff_roll_credits_mvl/mxv
	BYTE	W02
	BYTE		        24*staff_roll_credits_mvl/mxv
	BYTE	W02
	BYTE		        20*staff_roll_credits_mvl/mxv
	BYTE	W02
	BYTE		        16*staff_roll_credits_mvl/mxv
	BYTE	W02
	BYTE		        11*staff_roll_credits_mvl/mxv
	BYTE	W03
	BYTE		N96     Cs3 
	BYTE	W92
	BYTE	W03
	BYTE		VOICE   75
	BYTE		MOD     0
	BYTE		VOL     103*staff_roll_credits_mvl/mxv
	BYTE		MODT    mod_pan
	BYTE	W01
	BYTE		N12     Ds3   v076
	BYTE	W24
	BYTE		N12
	BYTE	W24
	BYTE		N12
	BYTE	W24
	BYTE		N12
	BYTE	W24
	BYTE	PEND
	BYTE	PATT
	 POIN2	staff_roll_credits_7 + 0x21F
	BYTE		N12     Dn3   v076
	BYTE	W24
	BYTE		N12
	BYTE	W24
	BYTE		N12
	BYTE	W24
	BYTE		N12
	BYTE	W24
	BYTE		N12
	BYTE	W24
	BYTE		N12
	BYTE	W24
	BYTE		N12
	BYTE	W24
	BYTE		N12
	BYTE	W23
	BYTE		VOICE   75
	BYTE		MOD     0
	BYTE		VOL     103*staff_roll_credits_mvl/mxv
	BYTE		MODT    mod_pan
	BYTE	W01
	BYTE		N12     As3   v080
	BYTE	W24
	BYTE		N12
	BYTE	W24
	BYTE		N12
	BYTE	W24
	BYTE		N12
	BYTE	W24
	BYTE	PEND
	BYTE	PATT
	 POIN2	staff_roll_credits_7 + 0x24A
	BYTE		N12     Gs3   v080
	BYTE	W24
	BYTE		N12
	BYTE	W24
	BYTE		N12
	BYTE	W24
	BYTE		N12
	BYTE	W24
	BYTE	PEND
	BYTE		N12     Fs3   v080
	BYTE	W24
	BYTE		N12
	BYTE	W24
	BYTE		        Fn3 
	BYTE	W24
	BYTE		N12
	BYTE	W24
	BYTE	PEND
	BYTE	PATT
	 POIN2	staff_roll_credits_7 + 0x24A
	BYTE	PATT
	 POIN2	staff_roll_credits_7 + 0x24A
	BYTE	PATT
	 POIN2	staff_roll_credits_7 + 0x25A
	BYTE		N12     Fs3   v080
	BYTE	W24
	BYTE		N12
	BYTE	W24
	BYTE		        Fn3 
	BYTE	W24
	BYTE		N12
	BYTE	W23
	BYTE		VOICE   82
	BYTE		MOD     0
	BYTE		VOL     56*staff_roll_credits_mvl/mxv
	BYTE	W01
	BYTE	PEND
	BYTE		TIE     Cs3   v100
	BYTE	W96
	BYTE	W96
	BYTE		EOT
	BYTE		N96     As2 
	BYTE	W96
	BYTE		        Gs2 
	BYTE	W96
	BYTE		TIE     Cs3 
	BYTE	W96
	BYTE	W96
	BYTE		EOT
	BYTE		N96     As2 
	BYTE	W96
	BYTE		        Gs2 
	BYTE	W92
	BYTE	W03
	BYTE		VOICE   75
	BYTE		MOD     0
	BYTE		VOL     103*staff_roll_credits_mvl/mxv
	BYTE	W01
	BYTE	PATT
	 POIN2	staff_roll_credits_7 + 0x24A
	BYTE	PATT
	 POIN2	staff_roll_credits_7 + 0x24A
	BYTE	PATT
	 POIN2	staff_roll_credits_7 + 0x25A
	BYTE	PATT
	 POIN2	staff_roll_credits_7 + 0x265
	BYTE	PATT
	 POIN2	staff_roll_credits_7 + 0x24A
	BYTE	PATT
	 POIN2	staff_roll_credits_7 + 0x24A
	BYTE	PATT
	 POIN2	staff_roll_credits_7 + 0x25A
	BYTE	PATT
	 POIN2	staff_roll_credits_7 + 0x27F
	BYTE		TIE     Cs3   v100
	BYTE	W96
	BYTE	W96
	BYTE		EOT
	BYTE		N96     As2 
	BYTE	W96
	BYTE		        Gs2 
	BYTE	W96
	BYTE		TIE     Cs3 
	BYTE	W96
	BYTE	W96
	BYTE		EOT
	BYTE		N96     As2 
	BYTE	W96
	BYTE		        Gs2 
	BYTE	W36
	BYTE	W02
	BYTE		VOL     58*staff_roll_credits_mvl/mxv
	BYTE	W03
	BYTE		        57*staff_roll_credits_mvl/mxv
	BYTE	W02
	BYTE		        56*staff_roll_credits_mvl/mxv
	BYTE	W03
	BYTE		        55*staff_roll_credits_mvl/mxv
	BYTE	W02
	BYTE		        54*staff_roll_credits_mvl/mxv
	BYTE	W03
	BYTE		        53*staff_roll_credits_mvl/mxv
	BYTE	W02
	BYTE		        52*staff_roll_credits_mvl/mxv
	BYTE	W03
	BYTE		        51*staff_roll_credits_mvl/mxv
	BYTE	W05
	BYTE		        49*staff_roll_credits_mvl/mxv
	BYTE	W02
	BYTE		        47*staff_roll_credits_mvl/mxv
	BYTE	W02
	BYTE		        45*staff_roll_credits_mvl/mxv
	BYTE	W01
	BYTE		        44*staff_roll_credits_mvl/mxv
	BYTE	W02
	BYTE		        42*staff_roll_credits_mvl/mxv
	BYTE	W02
	BYTE		        40*staff_roll_credits_mvl/mxv
	BYTE	W02
	BYTE		        38*staff_roll_credits_mvl/mxv
	BYTE	W02
	BYTE		        34*staff_roll_credits_mvl/mxv
	BYTE	W02
	BYTE		        32*staff_roll_credits_mvl/mxv
	BYTE	W02
	BYTE		        29*staff_roll_credits_mvl/mxv
	BYTE	W02
	BYTE		        25*staff_roll_credits_mvl/mxv
	BYTE	W01
	BYTE		        24*staff_roll_credits_mvl/mxv
	BYTE	W02
	BYTE		        20*staff_roll_credits_mvl/mxv
	BYTE	W02
	BYTE		        17*staff_roll_credits_mvl/mxv
	BYTE	W02
	BYTE		        15*staff_roll_credits_mvl/mxv
	BYTE	W02
	BYTE		        11*staff_roll_credits_mvl/mxv
	BYTE	W02
	BYTE		        8*staff_roll_credits_mvl/mxv
	BYTE	W02
	BYTE		        4*staff_roll_credits_mvl/mxv
	BYTE	W02
	BYTE		        0*staff_roll_credits_mvl/mxv
	BYTE	W01
	BYTE		TIE     Cs3   v112
	BYTE	W02
	BYTE		VOL     0*staff_roll_credits_mvl/mxv
	BYTE	W02
	BYTE		        1*staff_roll_credits_mvl/mxv
	BYTE	W02
	BYTE		        3*staff_roll_credits_mvl/mxv
	BYTE	W01
	BYTE		        3*staff_roll_credits_mvl/mxv
	BYTE	W02
	BYTE		        5*staff_roll_credits_mvl/mxv
	BYTE	W01
	BYTE		        5*staff_roll_credits_mvl/mxv
	BYTE	W02
	BYTE		        7*staff_roll_credits_mvl/mxv
	BYTE	W01
	BYTE		        7*staff_roll_credits_mvl/mxv
	BYTE	W02
	BYTE		        9*staff_roll_credits_mvl/mxv
	BYTE	W02
	BYTE		        10*staff_roll_credits_mvl/mxv
	BYTE	W01
	BYTE		        11*staff_roll_credits_mvl/mxv
	BYTE	W02
	BYTE		        12*staff_roll_credits_mvl/mxv
	BYTE	W01
	BYTE		        13*staff_roll_credits_mvl/mxv
	BYTE	W02
	BYTE		        14*staff_roll_credits_mvl/mxv
	BYTE	W01
	BYTE		        15*staff_roll_credits_mvl/mxv
	BYTE	W02
	BYTE		        17*staff_roll_credits_mvl/mxv
	BYTE	W02
	BYTE		        17*staff_roll_credits_mvl/mxv
	BYTE	W01
	BYTE		        18*staff_roll_credits_mvl/mxv
	BYTE	W02
	BYTE		        19*staff_roll_credits_mvl/mxv
	BYTE	W01
	BYTE		        20*staff_roll_credits_mvl/mxv
	BYTE	W02
	BYTE		        21*staff_roll_credits_mvl/mxv
	BYTE	W01
	BYTE		        22*staff_roll_credits_mvl/mxv
	BYTE	W02
	BYTE		        23*staff_roll_credits_mvl/mxv
	BYTE	W02
	BYTE		        25*staff_roll_credits_mvl/mxv
	BYTE	W01
	BYTE		        25*staff_roll_credits_mvl/mxv
	BYTE	W02
	BYTE		        27*staff_roll_credits_mvl/mxv
	BYTE	W01
	BYTE		        27*staff_roll_credits_mvl/mxv
	BYTE	W02
	BYTE		        29*staff_roll_credits_mvl/mxv
	BYTE	W01
	BYTE		        30*staff_roll_credits_mvl/mxv
	BYTE	W02
	BYTE		        31*staff_roll_credits_mvl/mxv
	BYTE	W02
	BYTE		        32*staff_roll_credits_mvl/mxv
	BYTE	W01
	BYTE		        33*staff_roll_credits_mvl/mxv
	BYTE	W02
	BYTE		        34*staff_roll_credits_mvl/mxv
	BYTE	W01
	BYTE		        34*staff_roll_credits_mvl/mxv
	BYTE	W02
	BYTE		        36*staff_roll_credits_mvl/mxv
	BYTE	W01
	BYTE		        36*staff_roll_credits_mvl/mxv
	BYTE	W02
	BYTE		        38*staff_roll_credits_mvl/mxv
	BYTE	W02
	BYTE		        39*staff_roll_credits_mvl/mxv
	BYTE	W01
	BYTE		        40*staff_roll_credits_mvl/mxv
	BYTE	W02
	BYTE		        41*staff_roll_credits_mvl/mxv
	BYTE	W01
	BYTE		        42*staff_roll_credits_mvl/mxv
	BYTE	W02
	BYTE		        43*staff_roll_credits_mvl/mxv
	BYTE	W01
	BYTE		        44*staff_roll_credits_mvl/mxv
	BYTE	W02
	BYTE		        45*staff_roll_credits_mvl/mxv
	BYTE	W04
	BYTE		        48*staff_roll_credits_mvl/mxv
	BYTE	W01
	BYTE		        49*staff_roll_credits_mvl/mxv
	BYTE	W02
	BYTE		        50*staff_roll_credits_mvl/mxv
	BYTE	W01
	BYTE		        51*staff_roll_credits_mvl/mxv
	BYTE	W02
	BYTE		        51*staff_roll_credits_mvl/mxv
	BYTE	W01
	BYTE		        52*staff_roll_credits_mvl/mxv
	BYTE	W02
	BYTE		        53*staff_roll_credits_mvl/mxv
	BYTE	W02
	BYTE		        55*staff_roll_credits_mvl/mxv
	BYTE	W01
	BYTE		        56*staff_roll_credits_mvl/mxv
	BYTE	W02
	BYTE		        57*staff_roll_credits_mvl/mxv
	BYTE	W01
	BYTE		        58*staff_roll_credits_mvl/mxv
	BYTE	W02
	BYTE		        59*staff_roll_credits_mvl/mxv
	BYTE	W01
	BYTE		        60*staff_roll_credits_mvl/mxv
	BYTE	W02
	BYTE		        61*staff_roll_credits_mvl/mxv
	BYTE	W02
	BYTE	PEND
	BYTE	PATT
	 POIN2	staff_roll_credits_7 + 0x98
	BYTE		EOT     Cs3 
	BYTE		TIE     Ds3   v112
	BYTE	W02
	BYTE		VOL     0*staff_roll_credits_mvl/mxv
	BYTE	W02
	BYTE		        1*staff_roll_credits_mvl/mxv
	BYTE	W02
	BYTE		        3*staff_roll_credits_mvl/mxv
	BYTE	W01
	BYTE		        3*staff_roll_credits_mvl/mxv
	BYTE	W02
	BYTE		        5*staff_roll_credits_mvl/mxv
	BYTE	W01
	BYTE		        5*staff_roll_credits_mvl/mxv
	BYTE	W02
	BYTE		        7*staff_roll_credits_mvl/mxv
	BYTE	W01
	BYTE		        7*staff_roll_credits_mvl/mxv
	BYTE	W02
	BYTE		        9*staff_roll_credits_mvl/mxv
	BYTE	W02
	BYTE		        10*staff_roll_credits_mvl/mxv
	BYTE	W01
	BYTE		        11*staff_roll_credits_mvl/mxv
	BYTE	W02
	BYTE		        12*staff_roll_credits_mvl/mxv
	BYTE	W01
	BYTE		        13*staff_roll_credits_mvl/mxv
	BYTE	W02
	BYTE		        14*staff_roll_credits_mvl/mxv
	BYTE	W01
	BYTE		        15*staff_roll_credits_mvl/mxv
	BYTE	W02
	BYTE		        17*staff_roll_credits_mvl/mxv
	BYTE	W02
	BYTE		        17*staff_roll_credits_mvl/mxv
	BYTE	W01
	BYTE		        18*staff_roll_credits_mvl/mxv
	BYTE	W02
	BYTE		        19*staff_roll_credits_mvl/mxv
	BYTE	W01
	BYTE		        20*staff_roll_credits_mvl/mxv
	BYTE	W02
	BYTE		        21*staff_roll_credits_mvl/mxv
	BYTE	W01
	BYTE		        22*staff_roll_credits_mvl/mxv
	BYTE	W02
	BYTE		        23*staff_roll_credits_mvl/mxv
	BYTE	W02
	BYTE		        25*staff_roll_credits_mvl/mxv
	BYTE	W01
	BYTE		        25*staff_roll_credits_mvl/mxv
	BYTE	W02
	BYTE		        27*staff_roll_credits_mvl/mxv
	BYTE	W01
	BYTE		        27*staff_roll_credits_mvl/mxv
	BYTE	W02
	BYTE		        29*staff_roll_credits_mvl/mxv
	BYTE	W01
	BYTE		        30*staff_roll_credits_mvl/mxv
	BYTE	W02
	BYTE		        31*staff_roll_credits_mvl/mxv
	BYTE	W02
	BYTE		        32*staff_roll_credits_mvl/mxv
	BYTE	W01
	BYTE		        33*staff_roll_credits_mvl/mxv
	BYTE	W02
	BYTE		        34*staff_roll_credits_mvl/mxv
	BYTE	W01
	BYTE		        34*staff_roll_credits_mvl/mxv
	BYTE	W02
	BYTE		        36*staff_roll_credits_mvl/mxv
	BYTE	W01
	BYTE		        36*staff_roll_credits_mvl/mxv
	BYTE	W02
	BYTE		        38*staff_roll_credits_mvl/mxv
	BYTE	W02
	BYTE		        39*staff_roll_credits_mvl/mxv
	BYTE	W01
	BYTE		        40*staff_roll_credits_mvl/mxv
	BYTE	W02
	BYTE		        41*staff_roll_credits_mvl/mxv
	BYTE	W01
	BYTE		        42*staff_roll_credits_mvl/mxv
	BYTE	W02
	BYTE		        43*staff_roll_credits_mvl/mxv
	BYTE	W01
	BYTE		        44*staff_roll_credits_mvl/mxv
	BYTE	W02
	BYTE		        45*staff_roll_credits_mvl/mxv
	BYTE	W04
	BYTE		        48*staff_roll_credits_mvl/mxv
	BYTE	W01
	BYTE		        49*staff_roll_credits_mvl/mxv
	BYTE	W02
	BYTE		        50*staff_roll_credits_mvl/mxv
	BYTE	W01
	BYTE		        51*staff_roll_credits_mvl/mxv
	BYTE	W02
	BYTE		        51*staff_roll_credits_mvl/mxv
	BYTE	W01
	BYTE		        52*staff_roll_credits_mvl/mxv
	BYTE	W02
	BYTE		        53*staff_roll_credits_mvl/mxv
	BYTE	W02
	BYTE		        55*staff_roll_credits_mvl/mxv
	BYTE	W01
	BYTE		        56*staff_roll_credits_mvl/mxv
	BYTE	W02
	BYTE		        57*staff_roll_credits_mvl/mxv
	BYTE	W01
	BYTE		        58*staff_roll_credits_mvl/mxv
	BYTE	W02
	BYTE		        59*staff_roll_credits_mvl/mxv
	BYTE	W01
	BYTE		        60*staff_roll_credits_mvl/mxv
	BYTE	W02
	BYTE		        61*staff_roll_credits_mvl/mxv
	BYTE	W02
	BYTE	PEND
	BYTE	PATT
	 POIN2	staff_roll_credits_7 + 0x98
	BYTE		EOT     Ds3 
	BYTE	PATT
	 POIN2	staff_roll_credits_7 + 0x323
	BYTE	PATT
	 POIN2	staff_roll_credits_7 + 0x98
	BYTE		EOT     Cs3 
	BYTE	PATT
	 POIN2	staff_roll_credits_7 + 0x3A4
	BYTE	PATT
	 POIN2	staff_roll_credits_7 + 0x98
	BYTE		EOT     Ds3 
	BYTE	PATT
	 POIN2	staff_roll_credits_7 + 0x323
	BYTE	PATT
	 POIN2	staff_roll_credits_7 + 0x98
	BYTE		EOT     Cs3 
	BYTE	PATT
	 POIN2	staff_roll_credits_7 + 0x3A4
	BYTE	PATT
	 POIN2	staff_roll_credits_7 + 0x98
	BYTE		EOT     Ds3 
	BYTE	PATT
	 POIN2	staff_roll_credits_7 + 0x323
	BYTE	PATT
	 POIN2	staff_roll_credits_7 + 0x98
	BYTE		EOT     Cs3 
	BYTE	PATT
	 POIN2	staff_roll_credits_7 + 0x3A4
	BYTE	W36
	BYTE	W02
	BYTE		VOL     58*staff_roll_credits_mvl/mxv
	BYTE	W03
	BYTE		        57*staff_roll_credits_mvl/mxv
	BYTE	W02
	BYTE		        56*staff_roll_credits_mvl/mxv
	BYTE	W03
	BYTE		        55*staff_roll_credits_mvl/mxv
	BYTE	W02
	BYTE		        54*staff_roll_credits_mvl/mxv
	BYTE	W03
	BYTE		        53*staff_roll_credits_mvl/mxv
	BYTE	W02
	BYTE		        52*staff_roll_credits_mvl/mxv
	BYTE	W03
	BYTE		        51*staff_roll_credits_mvl/mxv
	BYTE	W05
	BYTE		        49*staff_roll_credits_mvl/mxv
	BYTE	W02
	BYTE		        47*staff_roll_credits_mvl/mxv
	BYTE	W02
	BYTE		        45*staff_roll_credits_mvl/mxv
	BYTE	W01
	BYTE		        44*staff_roll_credits_mvl/mxv
	BYTE	W02
	BYTE		        42*staff_roll_credits_mvl/mxv
	BYTE	W02
	BYTE		        40*staff_roll_credits_mvl/mxv
	BYTE	W02
	BYTE		        38*staff_roll_credits_mvl/mxv
	BYTE	W02
	BYTE		        34*staff_roll_credits_mvl/mxv
	BYTE	W02
	BYTE		        32*staff_roll_credits_mvl/mxv
	BYTE	W02
	BYTE		        29*staff_roll_credits_mvl/mxv
	BYTE	W02
	BYTE		        25*staff_roll_credits_mvl/mxv
	BYTE	W01
	BYTE		        24*staff_roll_credits_mvl/mxv
	BYTE	W02
	BYTE		        20*staff_roll_credits_mvl/mxv
	BYTE	W02
	BYTE		        17*staff_roll_credits_mvl/mxv
	BYTE	W02
	BYTE		        15*staff_roll_credits_mvl/mxv
	BYTE	W02
	BYTE		        11*staff_roll_credits_mvl/mxv
	BYTE	W02
	BYTE		        8*staff_roll_credits_mvl/mxv
	BYTE	W02
	BYTE		        4*staff_roll_credits_mvl/mxv
	BYTE	W02
	BYTE		VOICE   75
	BYTE		MOD     0
	BYTE		VOL     103*staff_roll_credits_mvl/mxv
	BYTE		MODT    mod_pan
	BYTE	W01
	BYTE		EOT     Ds3 
	BYTE		N12     Fn3   v080
	BYTE	W24
	BYTE		N12
	BYTE	W24
	BYTE		N12
	BYTE	W24
	BYTE		N12
	BYTE	W24
	BYTE	PEND
	BYTE	PATT
	 POIN2	staff_roll_credits_7 + 0x25A
	BYTE	PATT
	 POIN2	staff_roll_credits_7 + 0x25A
	BYTE	PATT
	 POIN2	staff_roll_credits_7 + 0x25A
	BYTE	PATT
	 POIN2	staff_roll_credits_7 + 0x4A8
	BYTE	PATT
	 POIN2	staff_roll_credits_7 + 0x25A
	BYTE	PATT
	 POIN2	staff_roll_credits_7 + 0x25A
	BYTE		N12     Gs3   v080
	BYTE	W24
	BYTE		N12
	BYTE	W24
	BYTE		N12
	BYTE	W24
	BYTE		N12
	BYTE	W23
	BYTE		VOICE   75
	BYTE		MOD     0
	BYTE		VOL     103*staff_roll_credits_mvl/mxv
	BYTE	W01
	BYTE	PATT
	 POIN2	staff_roll_credits_7 + 0x24A
	BYTE	PATT
	 POIN2	staff_roll_credits_7 + 0x24A
	BYTE	PATT
	 POIN2	staff_roll_credits_7 + 0x25A
	BYTE	PATT
	 POIN2	staff_roll_credits_7 + 0x265
	BYTE	GoTo
	 POIN2	staff_roll_credits_7 + 0x2C2
	BYTE	W96
	BYTE	W96
	BYTE	W96
	BYTE	W96
	BYTE	W96
	BYTE	W96
	BYTE	W96
	BYTE	W96
	BYTE	W96
	BYTE	W96
	BYTE	W96
	BYTE	W96
	BYTE	FINE

//*********************** Track 09 ***********************//

staff_roll_credits_8:
	BYTE	KEYSH   staff_roll_credits_key+0
	BYTE	W11
	BYTE		PAN     c_v+0
	BYTE		MODT    mod_pan
	BYTE	W04
	BYTE		MOD     0
	BYTE		VOL     0*staff_roll_credits_mvl/mxv
	BYTE		LFOS    35
	BYTE	W01
	BYTE		VOICE   0
	BYTE	W20
	BYTE	W11
	BYTE		PAN     c_v-20
	BYTE	W01
	BYTE		N04     An4   v088
	BYTE	W06
	BYTE		        An4   v032
	BYTE	W05
	BYTE		PAN     c_v+0
	BYTE	W01
	BYTE		N04     Dn4   v056
	BYTE	W06
	BYTE		        Dn4   v032
	BYTE	W05
	BYTE		PAN     c_v+20
	BYTE	W01
	BYTE		N04     En4   v088
	BYTE	W06
	BYTE		        En4   v032
	BYTE	W08
	BYTE		VOL     4*staff_roll_credits_mvl/mxv
	BYTE	W02
	BYTE		        10*staff_roll_credits_mvl/mxv
	BYTE	W02
	BYTE		        15*staff_roll_credits_mvl/mxv
	BYTE	W02
	BYTE		        20*staff_roll_credits_mvl/mxv
	BYTE	W03
	BYTE		        28*staff_roll_credits_mvl/mxv
	BYTE		PAN     c_v+0
	BYTE	W01
	BYTE		N04     Dn4   v056
	BYTE	W01
	BYTE		VOL     33*staff_roll_credits_mvl/mxv
	BYTE	W02
	BYTE		        38*staff_roll_credits_mvl/mxv
	BYTE	W02
	BYTE		        43*staff_roll_credits_mvl/mxv
	BYTE	W01
	BYTE		N04     Dn4   v032
	BYTE	W01
	BYTE		VOL     49*staff_roll_credits_mvl/mxv
	BYTE	W02
	BYTE		        53*staff_roll_credits_mvl/mxv
	BYTE	W02
	BYTE		        59*staff_roll_credits_mvl/mxv
	BYTE	W02
	BYTE		        61*staff_roll_credits_mvl/mxv
	BYTE	W10
	BYTE		PAN     c_v-20
	BYTE	W01
	BYTE		N04     An3   v056
	BYTE	W06
	BYTE		        An3   v032
	BYTE	W06
	BYTE	W11
	BYTE		PAN     c_v+20
	BYTE	W01
	BYTE		N04     Dn4   v056
	BYTE	W06
	BYTE		        Dn4   v032
	BYTE	W17
	BYTE		PAN     c_v-20
	BYTE	W01
	BYTE		N04     An4   v056
	BYTE	W06
	BYTE		        An4   v032
	BYTE	W17
	BYTE		PAN     c_v+20
	BYTE	W01
	BYTE		N04     Dn4   v048
	BYTE	W06
	BYTE		        Dn4   v032
	BYTE	W30
	BYTE	PEND
	BYTE	W11
	BYTE		PAN     c_v-20
	BYTE	W01
	BYTE		N04     An4   v088
	BYTE	W06
	BYTE		        An4   v032
	BYTE	W05
	BYTE		PAN     c_v+0
	BYTE	W01
	BYTE		N04     Dn4   v056
	BYTE	W06
	BYTE		        Dn4   v032
	BYTE	W05
	BYTE		PAN     c_v+20
	BYTE	W01
	BYTE		N04     En4   v088
	BYTE	W06
	BYTE		        En4   v032
	BYTE	W17
	BYTE		PAN     c_v+0
	BYTE	W01
	BYTE		N04     Dn4   v056
	BYTE	W06
	BYTE		        Dn4   v032
	BYTE	W17
	BYTE		PAN     c_v-20
	BYTE	W01
	BYTE		N04     An3   v056
	BYTE	W06
	BYTE		        An3   v032
	BYTE	W06
	BYTE	PEND
	BYTE	PATT
	 POIN2	staff_roll_credits_8 + 0x60
	BYTE	PATT
	 POIN2	staff_roll_credits_8 + 0x80
	BYTE	PATT
	 POIN2	staff_roll_credits_8 + 0x60
	BYTE	PATT
	 POIN2	staff_roll_credits_8 + 0x80
	BYTE	PATT
	 POIN2	staff_roll_credits_8 + 0x60
	BYTE	W96
	BYTE	W96
	BYTE	W96
	BYTE	W96
	BYTE	W96
	BYTE	W96
	BYTE	W96
	BYTE	W96
	BYTE	W96
	BYTE	W96
	BYTE	W96
	BYTE	W96
	BYTE	W96
	BYTE	W92
	BYTE	W03
	BYTE		VOICE   95
	BYTE		VOL     120*staff_roll_credits_mvl/mxv
	BYTE		PAN     c_v+10
	BYTE	W01
	BYTE		N03     As3   v120
	BYTE	W08
	BYTE		        As2   v092
	BYTE	W08
	BYTE		        Fn3   v112
	BYTE	W08
	BYTE		        As3   v120
	BYTE	W08
	BYTE		        As2   v092
	BYTE	W08
	BYTE		        Fn3   v112
	BYTE	W08
	BYTE		        As3   v120
	BYTE	W08
	BYTE		        As2   v092
	BYTE	W08
	BYTE		        Fn3   v112
	BYTE	W08
	BYTE		        As3   v120
	BYTE	W08
	BYTE		        As2   v092
	BYTE	W08
	BYTE		        Fn3   v112
	BYTE	W08
	BYTE	PEND
	BYTE	PATT
	 POIN2	staff_roll_credits_8 + 0xE3
	BYTE	PATT
	 POIN2	staff_roll_credits_8 + 0xE3
	BYTE	PATT
	 POIN2	staff_roll_credits_8 + 0xE3
	BYTE	W96
	BYTE	W96
	BYTE	W96
	BYTE	W96
	BYTE	W96
	BYTE	W96
	BYTE	W96
	BYTE	W96
	BYTE	W07
	BYTE		N03     As2   v112
	BYTE	W08
	BYTE		        Ds3   v127
	BYTE	W08
	BYTE		        Ds4   v112
	BYTE	W08
	BYTE		        As3 
	BYTE	W08
	BYTE		        Gs3   v076
	BYTE	W16
	BYTE		        As2   v112
	BYTE	W08
	BYTE		        Ds3   v127
	BYTE	W08
	BYTE		        Ds4   v112
	BYTE	W08
	BYTE		        As3 
	BYTE	W08
	BYTE		        Gs3   v076
	BYTE	W09
	BYTE	PEND
	BYTE	PATT
	 POIN2	staff_roll_credits_8 + 0x120
	BYTE	PATT
	 POIN2	staff_roll_credits_8 + 0x120
	BYTE	PATT
	 POIN2	staff_roll_credits_8 + 0x120
	BYTE	PATT
	 POIN2	staff_roll_credits_8 + 0x120
	BYTE	PATT
	 POIN2	staff_roll_credits_8 + 0x120
	BYTE	PATT
	 POIN2	staff_roll_credits_8 + 0x120
	BYTE	PATT
	 POIN2	staff_roll_credits_8 + 0x120
	BYTE	W96
	BYTE	W96
	BYTE	W96
	BYTE	W96
	BYTE	W96
	BYTE	W96
	BYTE	W96
	BYTE	W96
	BYTE	PATT
	 POIN2	staff_roll_credits_8 + 0x120
	BYTE	PATT
	 POIN2	staff_roll_credits_8 + 0x120
	BYTE	PATT
	 POIN2	staff_roll_credits_8 + 0x120
	BYTE	PATT
	 POIN2	staff_roll_credits_8 + 0x120
	BYTE	PATT
	 POIN2	staff_roll_credits_8 + 0x120
	BYTE	PATT
	 POIN2	staff_roll_credits_8 + 0x120
	BYTE	PATT
	 POIN2	staff_roll_credits_8 + 0x120
	BYTE	PATT
	 POIN2	staff_roll_credits_8 + 0x120
	BYTE	PATT
	 POIN2	staff_roll_credits_8 + 0x120
	BYTE	PATT
	 POIN2	staff_roll_credits_8 + 0x120
	BYTE	PATT
	 POIN2	staff_roll_credits_8 + 0x120
	BYTE	PATT
	 POIN2	staff_roll_credits_8 + 0x120
	BYTE	PATT
	 POIN2	staff_roll_credits_8 + 0x120
	BYTE	PATT
	 POIN2	staff_roll_credits_8 + 0x120
	BYTE	PATT
	 POIN2	staff_roll_credits_8 + 0x120
	BYTE	PATT
	 POIN2	staff_roll_credits_8 + 0x120
	BYTE	W96
	BYTE	W96
	BYTE	W96
	BYTE	W96
	BYTE	W96
	BYTE	W96
	BYTE	W96
	BYTE	W96
	BYTE		N03     Ds4   v120
	BYTE	W08
	BYTE		        Gs3   v092
	BYTE	W08
	BYTE		        As3   v112
	BYTE	W08
	BYTE		        Ds4   v120
	BYTE	W08
	BYTE		        Gs3   v092
	BYTE	W08
	BYTE		        As3   v112
	BYTE	W08
	BYTE		        Ds4   v120
	BYTE	W08
	BYTE		        Gs3   v092
	BYTE	W08
	BYTE		        As3   v112
	BYTE	W08
	BYTE		        Ds4   v120
	BYTE	W08
	BYTE		        Gs3   v092
	BYTE	W08
	BYTE		        As3   v112
	BYTE	W08
	BYTE	PEND
	BYTE	PATT
	 POIN2	staff_roll_credits_8 + 0x1C2
	BYTE	PATT
	 POIN2	staff_roll_credits_8 + 0x1C2
	BYTE	PATT
	 POIN2	staff_roll_credits_8 + 0x1C2
	BYTE	PATT
	 POIN2	staff_roll_credits_8 + 0x1C2
	BYTE	PATT
	 POIN2	staff_roll_credits_8 + 0x1C2
	BYTE	PATT
	 POIN2	staff_roll_credits_8 + 0x1C2
	BYTE	PATT
	 POIN2	staff_roll_credits_8 + 0x1C2
	BYTE	W96
	BYTE	W96
	BYTE	W96
	BYTE	W96
	BYTE	GoTo
	 POIN2	staff_roll_credits_8 + 0x166
	BYTE	W96
	BYTE	W96
	BYTE	W96
	BYTE	W96
	BYTE	W96
	BYTE	W96
	BYTE	W96
	BYTE	W96
	BYTE	W96
	BYTE	W96
	BYTE	W96
	BYTE	W96
	BYTE	FINE

//*********************** Track 10 ***********************//

staff_roll_credits_9:
	BYTE	KEYSH   staff_roll_credits_key+0
	BYTE	W17
	BYTE		VOICE   32
	BYTE		VOL     0*staff_roll_credits_mvl/mxv
	BYTE	W01
	BYTE		PAN     c_v+0
	BYTE	W18
	BYTE	W12
	BYTE		VOL     2*staff_roll_credits_mvl/mxv
	BYTE		TIE     Gn2   v100
	BYTE	W02
	BYTE		VOL     10*staff_roll_credits_mvl/mxv
	BYTE	W01
	BYTE		        14*staff_roll_credits_mvl/mxv
	BYTE	W02
	BYTE		        21*staff_roll_credits_mvl/mxv
	BYTE	W01
	BYTE		        25*staff_roll_credits_mvl/mxv
	BYTE	W02
	BYTE		        34*staff_roll_credits_mvl/mxv
	BYTE	W01
	BYTE		        37*staff_roll_credits_mvl/mxv
	BYTE	W02
	BYTE		        45*staff_roll_credits_mvl/mxv
	BYTE	W01
	BYTE		        49*staff_roll_credits_mvl/mxv
	BYTE	W02
	BYTE		        57*staff_roll_credits_mvl/mxv
	BYTE	W01
	BYTE		        61*staff_roll_credits_mvl/mxv
	BYTE	W02
	BYTE		        68*staff_roll_credits_mvl/mxv
	BYTE	W01
	BYTE		        72*staff_roll_credits_mvl/mxv
	BYTE	W02
	BYTE		        80*staff_roll_credits_mvl/mxv
	BYTE	W01
	BYTE		        85*staff_roll_credits_mvl/mxv
	BYTE	W02
	BYTE		        92*staff_roll_credits_mvl/mxv
	BYTE	W01
	BYTE		        95*staff_roll_credits_mvl/mxv
	BYTE	W02
	BYTE		        100*staff_roll_credits_mvl/mxv
	BYTE	W01
	BYTE		        102*staff_roll_credits_mvl/mxv
	BYTE	W02
	BYTE		        107*staff_roll_credits_mvl/mxv
	BYTE	W01
	BYTE		        110*staff_roll_credits_mvl/mxv
	BYTE	W02
	BYTE		        118*staff_roll_credits_mvl/mxv
	BYTE	W52
	BYTE	W36
	BYTE	W01
	BYTE		VOL     111*staff_roll_credits_mvl/mxv
	BYTE	W02
	BYTE		        110*staff_roll_credits_mvl/mxv
	BYTE	W02
	BYTE		        109*staff_roll_credits_mvl/mxv
	BYTE	W02
	BYTE		        107*staff_roll_credits_mvl/mxv
	BYTE	W02
	BYTE		        105*staff_roll_credits_mvl/mxv
	BYTE	W02
	BYTE		        103*staff_roll_credits_mvl/mxv
	BYTE	W02
	BYTE		        102*staff_roll_credits_mvl/mxv
	BYTE	W02
	BYTE		        101*staff_roll_credits_mvl/mxv
	BYTE	W01
	BYTE		        100*staff_roll_credits_mvl/mxv
	BYTE	W02
	BYTE		        98*staff_roll_credits_mvl/mxv
	BYTE	W02
	BYTE		        96*staff_roll_credits_mvl/mxv
	BYTE	W02
	BYTE		        93*staff_roll_credits_mvl/mxv
	BYTE	W02
	BYTE		        89*staff_roll_credits_mvl/mxv
	BYTE	W02
	BYTE		        86*staff_roll_credits_mvl/mxv
	BYTE	W02
	BYTE		        84*staff_roll_credits_mvl/mxv
	BYTE	W02
	BYTE		        81*staff_roll_credits_mvl/mxv
	BYTE	W01
	BYTE		        79*staff_roll_credits_mvl/mxv
	BYTE	W02
	BYTE		        76*staff_roll_credits_mvl/mxv
	BYTE	W02
	BYTE		        72*staff_roll_credits_mvl/mxv
	BYTE	W02
	BYTE		        69*staff_roll_credits_mvl/mxv
	BYTE	W02
	BYTE		        64*staff_roll_credits_mvl/mxv
	BYTE	W02
	BYTE		        58*staff_roll_credits_mvl/mxv
	BYTE	W02
	BYTE		        51*staff_roll_credits_mvl/mxv
	BYTE	W02
	BYTE		        46*staff_roll_credits_mvl/mxv
	BYTE	W14
	BYTE		        7*staff_roll_credits_mvl/mxv
	BYTE	W01
	BYTE	PEND
	BYTE		EOT     Gn2 
	BYTE		TIE     Fs2   v100
	BYTE	W03
	BYTE		VOL     12*staff_roll_credits_mvl/mxv
	BYTE	W02
	BYTE		        17*staff_roll_credits_mvl/mxv
	BYTE	W01
	BYTE		        19*staff_roll_credits_mvl/mxv
	BYTE	W02
	BYTE		        24*staff_roll_credits_mvl/mxv
	BYTE	W01
	BYTE		        27*staff_roll_credits_mvl/mxv
	BYTE	W02
	BYTE		        32*staff_roll_credits_mvl/mxv
	BYTE	W01
	BYTE		        34*staff_roll_credits_mvl/mxv
	BYTE	W02
	BYTE		        39*staff_roll_credits_mvl/mxv
	BYTE	W01
	BYTE		        42*staff_roll_credits_mvl/mxv
	BYTE	W02
	BYTE		        47*staff_roll_credits_mvl/mxv
	BYTE	W01
	BYTE		        50*staff_roll_credits_mvl/mxv
	BYTE	W02
	BYTE		        54*staff_roll_credits_mvl/mxv
	BYTE	W01
	BYTE		        57*staff_roll_credits_mvl/mxv
	BYTE	W02
	BYTE		        62*staff_roll_credits_mvl/mxv
	BYTE	W01
	BYTE		        65*staff_roll_credits_mvl/mxv
	BYTE	W02
	BYTE		        69*staff_roll_credits_mvl/mxv
	BYTE	W01
	BYTE		        72*staff_roll_credits_mvl/mxv
	BYTE	W02
	BYTE		        77*staff_roll_credits_mvl/mxv
	BYTE	W01
	BYTE		        80*staff_roll_credits_mvl/mxv
	BYTE	W02
	BYTE		        85*staff_roll_credits_mvl/mxv
	BYTE	W01
	BYTE		        87*staff_roll_credits_mvl/mxv
	BYTE	W02
	BYTE		        92*staff_roll_credits_mvl/mxv
	BYTE	W01
	BYTE		        95*staff_roll_credits_mvl/mxv
	BYTE	W02
	BYTE		        100*staff_roll_credits_mvl/mxv
	BYTE	W01
	BYTE		        102*staff_roll_credits_mvl/mxv
	BYTE	W02
	BYTE		        107*staff_roll_credits_mvl/mxv
	BYTE	W01
	BYTE		        110*staff_roll_credits_mvl/mxv
	BYTE	W02
	BYTE		        118*staff_roll_credits_mvl/mxv
	BYTE	W52
	BYTE	PEND
	BYTE	PATT
	 POIN2	staff_roll_credits_9 + 0x3D
	BYTE		EOT     Fs2 
	BYTE		TIE     Gn2   v100
	BYTE	W03
	BYTE		VOL     12*staff_roll_credits_mvl/mxv
	BYTE	W02
	BYTE		        17*staff_roll_credits_mvl/mxv
	BYTE	W01
	BYTE		        19*staff_roll_credits_mvl/mxv
	BYTE	W02
	BYTE		        24*staff_roll_credits_mvl/mxv
	BYTE	W01
	BYTE		        27*staff_roll_credits_mvl/mxv
	BYTE	W02
	BYTE		        32*staff_roll_credits_mvl/mxv
	BYTE	W01
	BYTE		        34*staff_roll_credits_mvl/mxv
	BYTE	W02
	BYTE		        39*staff_roll_credits_mvl/mxv
	BYTE	W01
	BYTE		        42*staff_roll_credits_mvl/mxv
	BYTE	W02
	BYTE		        47*staff_roll_credits_mvl/mxv
	BYTE	W01
	BYTE		        50*staff_roll_credits_mvl/mxv
	BYTE	W02
	BYTE		        54*staff_roll_credits_mvl/mxv
	BYTE	W01
	BYTE		        57*staff_roll_credits_mvl/mxv
	BYTE	W02
	BYTE		        62*staff_roll_credits_mvl/mxv
	BYTE	W01
	BYTE		        65*staff_roll_credits_mvl/mxv
	BYTE	W02
	BYTE		        69*staff_roll_credits_mvl/mxv
	BYTE	W01
	BYTE		        72*staff_roll_credits_mvl/mxv
	BYTE	W02
	BYTE		        77*staff_roll_credits_mvl/mxv
	BYTE	W01
	BYTE		        80*staff_roll_credits_mvl/mxv
	BYTE	W02
	BYTE		        85*staff_roll_credits_mvl/mxv
	BYTE	W01
	BYTE		        87*staff_roll_credits_mvl/mxv
	BYTE	W02
	BYTE		        92*staff_roll_credits_mvl/mxv
	BYTE	W01
	BYTE		        95*staff_roll_credits_mvl/mxv
	BYTE	W02
	BYTE		        100*staff_roll_credits_mvl/mxv
	BYTE	W01
	BYTE		        102*staff_roll_credits_mvl/mxv
	BYTE	W02
	BYTE		        107*staff_roll_credits_mvl/mxv
	BYTE	W01
	BYTE		        110*staff_roll_credits_mvl/mxv
	BYTE	W02
	BYTE		        118*staff_roll_credits_mvl/mxv
	BYTE	W52
	BYTE	PATT
	 POIN2	staff_roll_credits_9 + 0x3D
	BYTE		EOT     Gn2 
	BYTE	PATT
	 POIN2	staff_roll_credits_9 + 0x75
	BYTE	W36
	BYTE	W01
	BYTE		VOL     111*staff_roll_credits_mvl/mxv
	BYTE	W02
	BYTE		        110*staff_roll_credits_mvl/mxv
	BYTE	W02
	BYTE		        109*staff_roll_credits_mvl/mxv
	BYTE	W02
	BYTE		        107*staff_roll_credits_mvl/mxv
	BYTE	W02
	BYTE		        105*staff_roll_credits_mvl/mxv
	BYTE	W02
	BYTE		        103*staff_roll_credits_mvl/mxv
	BYTE	W02
	BYTE		        102*staff_roll_credits_mvl/mxv
	BYTE	W02
	BYTE		        101*staff_roll_credits_mvl/mxv
	BYTE	W01
	BYTE		        100*staff_roll_credits_mvl/mxv
	BYTE	W02
	BYTE		        98*staff_roll_credits_mvl/mxv
	BYTE	W02
	BYTE		        96*staff_roll_credits_mvl/mxv
	BYTE	W02
	BYTE		        93*staff_roll_credits_mvl/mxv
	BYTE	W02
	BYTE		        89*staff_roll_credits_mvl/mxv
	BYTE	W02
	BYTE		        86*staff_roll_credits_mvl/mxv
	BYTE	W02
	BYTE		        84*staff_roll_credits_mvl/mxv
	BYTE	W02
	BYTE		        81*staff_roll_credits_mvl/mxv
	BYTE	W01
	BYTE		        79*staff_roll_credits_mvl/mxv
	BYTE	W02
	BYTE		        76*staff_roll_credits_mvl/mxv
	BYTE	W02
	BYTE		        72*staff_roll_credits_mvl/mxv
	BYTE	W02
	BYTE		        69*staff_roll_credits_mvl/mxv
	BYTE	W02
	BYTE		        64*staff_roll_credits_mvl/mxv
	BYTE	W02
	BYTE		        58*staff_roll_credits_mvl/mxv
	BYTE	W02
	BYTE		        51*staff_roll_credits_mvl/mxv
	BYTE	W02
	BYTE		        46*staff_roll_credits_mvl/mxv
	BYTE	W02
	BYTE		        37*staff_roll_credits_mvl/mxv
	BYTE	W02
	BYTE		        26*staff_roll_credits_mvl/mxv
	BYTE	W02
	BYTE		        19*staff_roll_credits_mvl/mxv
	BYTE	W08
	BYTE		VOICE   37
	BYTE		VOL     7*staff_roll_credits_mvl/mxv
	BYTE	W01
	BYTE		EOT     Fs2 
	BYTE		TIE     Cn2   v100
	BYTE	W03
	BYTE		VOL     12*staff_roll_credits_mvl/mxv
	BYTE	W02
	BYTE		        17*staff_roll_credits_mvl/mxv
	BYTE	W01
	BYTE		        19*staff_roll_credits_mvl/mxv
	BYTE	W02
	BYTE		        24*staff_roll_credits_mvl/mxv
	BYTE	W01
	BYTE		        27*staff_roll_credits_mvl/mxv
	BYTE	W02
	BYTE		        32*staff_roll_credits_mvl/mxv
	BYTE	W01
	BYTE		        34*staff_roll_credits_mvl/mxv
	BYTE	W02
	BYTE		        39*staff_roll_credits_mvl/mxv
	BYTE	W01
	BYTE		        42*staff_roll_credits_mvl/mxv
	BYTE	W02
	BYTE		        47*staff_roll_credits_mvl/mxv
	BYTE	W01
	BYTE		        50*staff_roll_credits_mvl/mxv
	BYTE	W02
	BYTE		        54*staff_roll_credits_mvl/mxv
	BYTE	W01
	BYTE		        57*staff_roll_credits_mvl/mxv
	BYTE	W02
	BYTE		        62*staff_roll_credits_mvl/mxv
	BYTE	W01
	BYTE		        65*staff_roll_credits_mvl/mxv
	BYTE	W02
	BYTE		        69*staff_roll_credits_mvl/mxv
	BYTE	W01
	BYTE		        72*staff_roll_credits_mvl/mxv
	BYTE	W02
	BYTE		        77*staff_roll_credits_mvl/mxv
	BYTE	W01
	BYTE		        80*staff_roll_credits_mvl/mxv
	BYTE	W02
	BYTE		        85*staff_roll_credits_mvl/mxv
	BYTE	W01
	BYTE		        87*staff_roll_credits_mvl/mxv
	BYTE	W02
	BYTE		        92*staff_roll_credits_mvl/mxv
	BYTE	W01
	BYTE		        95*staff_roll_credits_mvl/mxv
	BYTE	W02
	BYTE		        100*staff_roll_credits_mvl/mxv
	BYTE	W01
	BYTE		        102*staff_roll_credits_mvl/mxv
	BYTE	W02
	BYTE		        107*staff_roll_credits_mvl/mxv
	BYTE	W01
	BYTE		        110*staff_roll_credits_mvl/mxv
	BYTE	W02
	BYTE		        118*staff_roll_credits_mvl/mxv
	BYTE	W52
	BYTE	PEND
	BYTE	PATT
	 POIN2	staff_roll_credits_9 + 0x3D
	BYTE		EOT     Cn2 
	BYTE		TIE     Bn1   v100
	BYTE	W03
	BYTE		VOL     12*staff_roll_credits_mvl/mxv
	BYTE	W02
	BYTE		        17*staff_roll_credits_mvl/mxv
	BYTE	W01
	BYTE		        19*staff_roll_credits_mvl/mxv
	BYTE	W02
	BYTE		        24*staff_roll_credits_mvl/mxv
	BYTE	W01
	BYTE		        27*staff_roll_credits_mvl/mxv
	BYTE	W02
	BYTE		        32*staff_roll_credits_mvl/mxv
	BYTE	W01
	BYTE		        34*staff_roll_credits_mvl/mxv
	BYTE	W02
	BYTE		        39*staff_roll_credits_mvl/mxv
	BYTE	W01
	BYTE		        42*staff_roll_credits_mvl/mxv
	BYTE	W02
	BYTE		        47*staff_roll_credits_mvl/mxv
	BYTE	W01
	BYTE		        50*staff_roll_credits_mvl/mxv
	BYTE	W02
	BYTE		        54*staff_roll_credits_mvl/mxv
	BYTE	W01
	BYTE		        57*staff_roll_credits_mvl/mxv
	BYTE	W02
	BYTE		        62*staff_roll_credits_mvl/mxv
	BYTE	W01
	BYTE		        65*staff_roll_credits_mvl/mxv
	BYTE	W02
	BYTE		        69*staff_roll_credits_mvl/mxv
	BYTE	W01
	BYTE		        72*staff_roll_credits_mvl/mxv
	BYTE	W02
	BYTE		        77*staff_roll_credits_mvl/mxv
	BYTE	W01
	BYTE		        80*staff_roll_credits_mvl/mxv
	BYTE	W02
	BYTE		        85*staff_roll_credits_mvl/mxv
	BYTE	W01
	BYTE		        87*staff_roll_credits_mvl/mxv
	BYTE	W02
	BYTE		        92*staff_roll_credits_mvl/mxv
	BYTE	W01
	BYTE		        95*staff_roll_credits_mvl/mxv
	BYTE	W02
	BYTE		        100*staff_roll_credits_mvl/mxv
	BYTE	W01
	BYTE		        102*staff_roll_credits_mvl/mxv
	BYTE	W02
	BYTE		        107*staff_roll_credits_mvl/mxv
	BYTE	W01
	BYTE		        110*staff_roll_credits_mvl/mxv
	BYTE	W02
	BYTE		        118*staff_roll_credits_mvl/mxv
	BYTE	W52
	BYTE	PEND
	BYTE	PATT
	 POIN2	staff_roll_credits_9 + 0x3D
	BYTE		EOT     Bn1 
	BYTE	PATT
	 POIN2	staff_roll_credits_9 + 0x143
	BYTE	PATT
	 POIN2	staff_roll_credits_9 + 0x3D
	BYTE		EOT     Cn2 
	BYTE	PATT
	 POIN2	staff_roll_credits_9 + 0x188
	BYTE	W36
	BYTE	W01
	BYTE		VOL     111*staff_roll_credits_mvl/mxv
	BYTE	W02
	BYTE		        110*staff_roll_credits_mvl/mxv
	BYTE	W02
	BYTE		        109*staff_roll_credits_mvl/mxv
	BYTE	W02
	BYTE		        107*staff_roll_credits_mvl/mxv
	BYTE	W02
	BYTE		        105*staff_roll_credits_mvl/mxv
	BYTE	W02
	BYTE		        103*staff_roll_credits_mvl/mxv
	BYTE	W02
	BYTE		        102*staff_roll_credits_mvl/mxv
	BYTE	W02
	BYTE		        101*staff_roll_credits_mvl/mxv
	BYTE	W01
	BYTE		        100*staff_roll_credits_mvl/mxv
	BYTE	W02
	BYTE		        98*staff_roll_credits_mvl/mxv
	BYTE	W02
	BYTE		        96*staff_roll_credits_mvl/mxv
	BYTE	W02
	BYTE		        93*staff_roll_credits_mvl/mxv
	BYTE	W02
	BYTE		        89*staff_roll_credits_mvl/mxv
	BYTE	W02
	BYTE		        86*staff_roll_credits_mvl/mxv
	BYTE	W02
	BYTE		        84*staff_roll_credits_mvl/mxv
	BYTE	W02
	BYTE		        81*staff_roll_credits_mvl/mxv
	BYTE	W01
	BYTE		        79*staff_roll_credits_mvl/mxv
	BYTE	W02
	BYTE		        76*staff_roll_credits_mvl/mxv
	BYTE	W02
	BYTE		        72*staff_roll_credits_mvl/mxv
	BYTE	W02
	BYTE		        69*staff_roll_credits_mvl/mxv
	BYTE	W02
	BYTE		        64*staff_roll_credits_mvl/mxv
	BYTE	W02
	BYTE		        58*staff_roll_credits_mvl/mxv
	BYTE	W02
	BYTE		        51*staff_roll_credits_mvl/mxv
	BYTE	W02
	BYTE		        46*staff_roll_credits_mvl/mxv
	BYTE	W14
	BYTE		VOICE   32
	BYTE		VOL     7*staff_roll_credits_mvl/mxv
	BYTE	W01
	BYTE	PEND
	BYTE		EOT     Bn1 
	BYTE		TIE     As2   v127
	BYTE	W03
	BYTE		VOL     12*staff_roll_credits_mvl/mxv
	BYTE	W02
	BYTE		        17*staff_roll_credits_mvl/mxv
	BYTE	W01
	BYTE		        19*staff_roll_credits_mvl/mxv
	BYTE	W02
	BYTE		        24*staff_roll_credits_mvl/mxv
	BYTE	W01
	BYTE		        27*staff_roll_credits_mvl/mxv
	BYTE	W02
	BYTE		        32*staff_roll_credits_mvl/mxv
	BYTE	W01
	BYTE		        34*staff_roll_credits_mvl/mxv
	BYTE	W02
	BYTE		        39*staff_roll_credits_mvl/mxv
	BYTE	W01
	BYTE		        42*staff_roll_credits_mvl/mxv
	BYTE	W02
	BYTE		        47*staff_roll_credits_mvl/mxv
	BYTE	W01
	BYTE		        50*staff_roll_credits_mvl/mxv
	BYTE	W02
	BYTE		        54*staff_roll_credits_mvl/mxv
	BYTE	W01
	BYTE		        57*staff_roll_credits_mvl/mxv
	BYTE	W02
	BYTE		        62*staff_roll_credits_mvl/mxv
	BYTE	W01
	BYTE		        65*staff_roll_credits_mvl/mxv
	BYTE	W02
	BYTE		        69*staff_roll_credits_mvl/mxv
	BYTE	W01
	BYTE		        72*staff_roll_credits_mvl/mxv
	BYTE	W02
	BYTE		        77*staff_roll_credits_mvl/mxv
	BYTE	W01
	BYTE		        80*staff_roll_credits_mvl/mxv
	BYTE	W02
	BYTE		        85*staff_roll_credits_mvl/mxv
	BYTE	W01
	BYTE		        87*staff_roll_credits_mvl/mxv
	BYTE	W02
	BYTE		        92*staff_roll_credits_mvl/mxv
	BYTE	W01
	BYTE		        95*staff_roll_credits_mvl/mxv
	BYTE	W02
	BYTE		        100*staff_roll_credits_mvl/mxv
	BYTE	W01
	BYTE		        102*staff_roll_credits_mvl/mxv
	BYTE	W02
	BYTE		        107*staff_roll_credits_mvl/mxv
	BYTE	W01
	BYTE		        110*staff_roll_credits_mvl/mxv
	BYTE	W02
	BYTE		        118*staff_roll_credits_mvl/mxv
	BYTE	W52
	BYTE	PATT
	 POIN2	staff_roll_credits_9 + 0x1DE
	BYTE		EOT     As2 
	BYTE		TIE     An2   v127
	BYTE	W03
	BYTE		VOL     12*staff_roll_credits_mvl/mxv
	BYTE	W02
	BYTE		        17*staff_roll_credits_mvl/mxv
	BYTE	W01
	BYTE		        19*staff_roll_credits_mvl/mxv
	BYTE	W02
	BYTE		        24*staff_roll_credits_mvl/mxv
	BYTE	W01
	BYTE		        27*staff_roll_credits_mvl/mxv
	BYTE	W02
	BYTE		        32*staff_roll_credits_mvl/mxv
	BYTE	W01
	BYTE		        34*staff_roll_credits_mvl/mxv
	BYTE	W02
	BYTE		        39*staff_roll_credits_mvl/mxv
	BYTE	W01
	BYTE		        42*staff_roll_credits_mvl/mxv
	BYTE	W02
	BYTE		        47*staff_roll_credits_mvl/mxv
	BYTE	W01
	BYTE		        50*staff_roll_credits_mvl/mxv
	BYTE	W02
	BYTE		        54*staff_roll_credits_mvl/mxv
	BYTE	W01
	BYTE		        57*staff_roll_credits_mvl/mxv
	BYTE	W02
	BYTE		        62*staff_roll_credits_mvl/mxv
	BYTE	W01
	BYTE		        65*staff_roll_credits_mvl/mxv
	BYTE	W02
	BYTE		        69*staff_roll_credits_mvl/mxv
	BYTE	W01
	BYTE		        72*staff_roll_credits_mvl/mxv
	BYTE	W02
	BYTE		        77*staff_roll_credits_mvl/mxv
	BYTE	W01
	BYTE		        80*staff_roll_credits_mvl/mxv
	BYTE	W02
	BYTE		        85*staff_roll_credits_mvl/mxv
	BYTE	W01
	BYTE		        87*staff_roll_credits_mvl/mxv
	BYTE	W02
	BYTE		        92*staff_roll_credits_mvl/mxv
	BYTE	W01
	BYTE		        95*staff_roll_credits_mvl/mxv
	BYTE	W02
	BYTE		        100*staff_roll_credits_mvl/mxv
	BYTE	W01
	BYTE		        102*staff_roll_credits_mvl/mxv
	BYTE	W02
	BYTE		        107*staff_roll_credits_mvl/mxv
	BYTE	W01
	BYTE		        110*staff_roll_credits_mvl/mxv
	BYTE	W02
	BYTE		        118*staff_roll_credits_mvl/mxv
	BYTE	W52
	BYTE	PATT
	 POIN2	staff_roll_credits_9 + 0x3D
	BYTE		EOT     An2 
	BYTE		N48     Gs2   v127
	BYTE	W03
	BYTE		VOL     28*staff_roll_credits_mvl/mxv
	BYTE	W02
	BYTE		        36*staff_roll_credits_mvl/mxv
	BYTE	W01
	BYTE		        41*staff_roll_credits_mvl/mxv
	BYTE	W02
	BYTE		        51*staff_roll_credits_mvl/mxv
	BYTE	W01
	BYTE		        55*staff_roll_credits_mvl/mxv
	BYTE	W02
	BYTE		        64*staff_roll_credits_mvl/mxv
	BYTE	W01
	BYTE		        68*staff_roll_credits_mvl/mxv
	BYTE	W02
	BYTE		        77*staff_roll_credits_mvl/mxv
	BYTE	W01
	BYTE		        82*staff_roll_credits_mvl/mxv
	BYTE	W02
	BYTE		        91*staff_roll_credits_mvl/mxv
	BYTE	W01
	BYTE		        96*staff_roll_credits_mvl/mxv
	BYTE	W02
	BYTE		        104*staff_roll_credits_mvl/mxv
	BYTE	W01
	BYTE		        109*staff_roll_credits_mvl/mxv
	BYTE	W02
	BYTE		        119*staff_roll_credits_mvl/mxv
	BYTE	W24
	BYTE	W01
	BYTE		N48     Gn2 
	BYTE	W48
	BYTE		        Fs2 
	BYTE	W44
	BYTE	W03
	BYTE		VOL     111*staff_roll_credits_mvl/mxv
	BYTE	W01
	BYTE		N48     Fn2 
	BYTE	W01
	BYTE		VOL     110*staff_roll_credits_mvl/mxv
	BYTE	W02
	BYTE		        109*staff_roll_credits_mvl/mxv
	BYTE	W02
	BYTE		        107*staff_roll_credits_mvl/mxv
	BYTE	W02
	BYTE		        105*staff_roll_credits_mvl/mxv
	BYTE	W02
	BYTE		        103*staff_roll_credits_mvl/mxv
	BYTE	W02
	BYTE		        102*staff_roll_credits_mvl/mxv
	BYTE	W02
	BYTE		        101*staff_roll_credits_mvl/mxv
	BYTE	W01
	BYTE		        100*staff_roll_credits_mvl/mxv
	BYTE	W02
	BYTE		        98*staff_roll_credits_mvl/mxv
	BYTE	W02
	BYTE		        96*staff_roll_credits_mvl/mxv
	BYTE	W02
	BYTE		        93*staff_roll_credits_mvl/mxv
	BYTE	W02
	BYTE		        89*staff_roll_credits_mvl/mxv
	BYTE	W02
	BYTE		        86*staff_roll_credits_mvl/mxv
	BYTE	W02
	BYTE		        84*staff_roll_credits_mvl/mxv
	BYTE	W02
	BYTE		        81*staff_roll_credits_mvl/mxv
	BYTE	W01
	BYTE		        79*staff_roll_credits_mvl/mxv
	BYTE	W02
	BYTE		        76*staff_roll_credits_mvl/mxv
	BYTE	W02
	BYTE		        72*staff_roll_credits_mvl/mxv
	BYTE	W02
	BYTE		        69*staff_roll_credits_mvl/mxv
	BYTE	W02
	BYTE		        64*staff_roll_credits_mvl/mxv
	BYTE	W02
	BYTE		        58*staff_roll_credits_mvl/mxv
	BYTE	W02
	BYTE		        51*staff_roll_credits_mvl/mxv
	BYTE	W02
	BYTE		        46*staff_roll_credits_mvl/mxv
	BYTE	W04
	BYTE		VOICE   93
	BYTE		VOL     94*staff_roll_credits_mvl/mxv
	BYTE	W01
	BYTE		TIE     As1   v120
	BYTE	W96
	BYTE	W96
	BYTE		EOT
	BYTE		TIE
	BYTE	W96
	BYTE	W92
	BYTE	W03
	BYTE		VOICE   73
	BYTE		VOL     94*staff_roll_credits_mvl/mxv
	BYTE	W01
	BYTE	PEND
	BYTE		EOT     As1 
	BYTE		N96     Ds2   v127
	BYTE	W96
	BYTE		        Fn2 
	BYTE	W96
	BYTE		        Ds2 
	BYTE	W96
	BYTE		N48     Bn1   v127
	BYTE	W48
	BYTE		        Cs2 
	BYTE	W48
	BYTE	PEND
	BYTE		N96     Ds2 
	BYTE	W96
	BYTE		        Fn2 
	BYTE	W96
	BYTE		        Ds2 
	BYTE	W96
	BYTE		N48     Bn1   v127
	BYTE	W48
	BYTE		        Cs2 
	BYTE	W44
	BYTE	W03
	BYTE		VOICE   73
	BYTE		VOL     94*staff_roll_credits_mvl/mxv
	BYTE	W01
	BYTE	PEND
	BYTE		N96     Bn1 
	BYTE	W96
	BYTE		N96
	BYTE	W96
	BYTE		        Cs2 
	BYTE	W96
	BYTE		N96
	BYTE	W96
	BYTE		        Bn1 
	BYTE	W96
	BYTE		N96
	BYTE	W96
	BYTE		        Cs2 
	BYTE	W96
	BYTE		N96
	BYTE	W96
	BYTE		        Ds2 
	BYTE	W96
	BYTE		        Fn2 
	BYTE	W96
	BYTE		        Ds2 
	BYTE	W96
	BYTE	PATT
	 POIN2	staff_roll_credits_9 + 0x31D
	BYTE		N96     Ds2   v127
	BYTE	W96
	BYTE		        Fn2 
	BYTE	W96
	BYTE		        Ds2 
	BYTE	W96
	BYTE	PATT
	 POIN2	staff_roll_credits_9 + 0x32B
	BYTE		N96     Bn1   v127
	BYTE	W96
	BYTE		N96
	BYTE	W96
	BYTE		        Cs2 
	BYTE	W96
	BYTE		N96
	BYTE	W96
	BYTE		        Bn1 
	BYTE	W96
	BYTE		N96
	BYTE	W96
	BYTE		        Cs2 
	BYTE	W96
	BYTE		N96
	BYTE	W92
	BYTE	W03
	BYTE		VOICE   37
	BYTE	W01
	BYTE		N96     Bn1 
	BYTE	W96
	BYTE		N96
	BYTE	W96
	BYTE		        Cs2 
	BYTE	W96
	BYTE		N96
	BYTE	W96
	BYTE		        Bn1 
	BYTE	W96
	BYTE		N96
	BYTE	W96
	BYTE		        Cs2 
	BYTE	W96
	BYTE		N96
	BYTE	W36
	BYTE	W01
	BYTE		VOL     111*staff_roll_credits_mvl/mxv
	BYTE	W02
	BYTE		        110*staff_roll_credits_mvl/mxv
	BYTE	W02
	BYTE		        109*staff_roll_credits_mvl/mxv
	BYTE	W02
	BYTE		        107*staff_roll_credits_mvl/mxv
	BYTE	W02
	BYTE		        105*staff_roll_credits_mvl/mxv
	BYTE	W02
	BYTE		        103*staff_roll_credits_mvl/mxv
	BYTE	W02
	BYTE		        102*staff_roll_credits_mvl/mxv
	BYTE	W02
	BYTE		        101*staff_roll_credits_mvl/mxv
	BYTE	W01
	BYTE		        100*staff_roll_credits_mvl/mxv
	BYTE	W02
	BYTE		        98*staff_roll_credits_mvl/mxv
	BYTE	W02
	BYTE		        96*staff_roll_credits_mvl/mxv
	BYTE	W02
	BYTE		        93*staff_roll_credits_mvl/mxv
	BYTE	W02
	BYTE		        89*staff_roll_credits_mvl/mxv
	BYTE	W02
	BYTE		        86*staff_roll_credits_mvl/mxv
	BYTE	W02
	BYTE		        84*staff_roll_credits_mvl/mxv
	BYTE	W02
	BYTE		        81*staff_roll_credits_mvl/mxv
	BYTE	W01
	BYTE		        79*staff_roll_credits_mvl/mxv
	BYTE	W02
	BYTE		        76*staff_roll_credits_mvl/mxv
	BYTE	W02
	BYTE		        72*staff_roll_credits_mvl/mxv
	BYTE	W02
	BYTE		        69*staff_roll_credits_mvl/mxv
	BYTE	W02
	BYTE		        64*staff_roll_credits_mvl/mxv
	BYTE	W02
	BYTE		        58*staff_roll_credits_mvl/mxv
	BYTE	W02
	BYTE		        51*staff_roll_credits_mvl/mxv
	BYTE	W02
	BYTE		        46*staff_roll_credits_mvl/mxv
	BYTE	W14
	BYTE		        7*staff_roll_credits_mvl/mxv
	BYTE	W01
	BYTE		N96     Bn1 
	BYTE	W03
	BYTE		VOL     12*staff_roll_credits_mvl/mxv
	BYTE	W02
	BYTE		        17*staff_roll_credits_mvl/mxv
	BYTE	W01
	BYTE		        19*staff_roll_credits_mvl/mxv
	BYTE	W02
	BYTE		        24*staff_roll_credits_mvl/mxv
	BYTE	W01
	BYTE		        27*staff_roll_credits_mvl/mxv
	BYTE	W02
	BYTE		        32*staff_roll_credits_mvl/mxv
	BYTE	W01
	BYTE		        34*staff_roll_credits_mvl/mxv
	BYTE	W02
	BYTE		        39*staff_roll_credits_mvl/mxv
	BYTE	W01
	BYTE		        42*staff_roll_credits_mvl/mxv
	BYTE	W02
	BYTE		        47*staff_roll_credits_mvl/mxv
	BYTE	W01
	BYTE		        50*staff_roll_credits_mvl/mxv
	BYTE	W02
	BYTE		        54*staff_roll_credits_mvl/mxv
	BYTE	W01
	BYTE		        57*staff_roll_credits_mvl/mxv
	BYTE	W02
	BYTE		        62*staff_roll_credits_mvl/mxv
	BYTE	W01
	BYTE		        65*staff_roll_credits_mvl/mxv
	BYTE	W02
	BYTE		        69*staff_roll_credits_mvl/mxv
	BYTE	W01
	BYTE		        72*staff_roll_credits_mvl/mxv
	BYTE	W02
	BYTE		        77*staff_roll_credits_mvl/mxv
	BYTE	W01
	BYTE		        80*staff_roll_credits_mvl/mxv
	BYTE	W02
	BYTE		        85*staff_roll_credits_mvl/mxv
	BYTE	W01
	BYTE		        87*staff_roll_credits_mvl/mxv
	BYTE	W02
	BYTE		        92*staff_roll_credits_mvl/mxv
	BYTE	W01
	BYTE		        95*staff_roll_credits_mvl/mxv
	BYTE	W02
	BYTE		        100*staff_roll_credits_mvl/mxv
	BYTE	W01
	BYTE		        102*staff_roll_credits_mvl/mxv
	BYTE	W02
	BYTE		        107*staff_roll_credits_mvl/mxv
	BYTE	W01
	BYTE		        110*staff_roll_credits_mvl/mxv
	BYTE	W02
	BYTE		        118*staff_roll_credits_mvl/mxv
	BYTE	W52
	BYTE		N96
	BYTE	W96
	BYTE		        Cs2 
	BYTE	W96
	BYTE		N96
	BYTE	W96
	BYTE		        Bn1 
	BYTE	W96
	BYTE		N96
	BYTE	W96
	BYTE		        Cs2 
	BYTE	W96
	BYTE	PATT
	 POIN2	staff_roll_credits_9 + 0x30B
	BYTE		N96     Ds2   v127
	BYTE	W96
	BYTE		        Cs2 
	BYTE	W96
	BYTE		        Cn2 
	BYTE	W96
	BYTE	PATT
	 POIN2	staff_roll_credits_9 + 0x31D
	BYTE		N96     Ds2   v127
	BYTE	W96
	BYTE		        Cs2 
	BYTE	W96
	BYTE		        Cn2 
	BYTE	W96
	BYTE	PATT
	 POIN2	staff_roll_credits_9 + 0x31D
	BYTE		N96     Ds2   v127
	BYTE	W96
	BYTE		        Fn2 
	BYTE	W96
	BYTE		        Ds2 
	BYTE	W96
	BYTE	PATT
	 POIN2	staff_roll_credits_9 + 0x31D
	BYTE	GoTo
	 POIN2	staff_roll_credits_9 + 0x354
	BYTE	W96
	BYTE	W96
	BYTE	W96
	BYTE	W96
	BYTE	W96
	BYTE	W96
	BYTE	W96
	BYTE	W96
	BYTE	W96
	BYTE	W96
	BYTE	W96
	BYTE	W96
	BYTE	FINE

//*********************** Track 11 ***********************//

staff_roll_credits_10:
	BYTE	KEYSH   staff_roll_credits_key+0
	BYTE	W18
	BYTE		VOL     120*staff_roll_credits_mvl/mxv
	BYTE		PAN     c_v+0
	BYTE	W01
	BYTE		VOICE   46
	BYTE	W17
	BYTE	W96
	BYTE	W96
	BYTE	W96
	BYTE	W96
	BYTE	W96
	BYTE	W96
	BYTE	W96
	BYTE	W96
	BYTE		N12     Cn2   v127
	BYTE	W12
	BYTE		        Dn3 
	BYTE	W12
	BYTE		        An3 
	BYTE	W12
	BYTE		N24     Dn4   v100
	BYTE	W60
	BYTE	PEND
	BYTE	PATT
	 POIN2	staff_roll_credits_10 + 0x13
	BYTE		N12     Bn1   v127
	BYTE	W12
	BYTE		        Dn3 
	BYTE	W12
	BYTE		        Gn3 
	BYTE	W12
	BYTE		N24     Dn4   v100
	BYTE	W60
	BYTE	PEND
	BYTE	PATT
	 POIN2	staff_roll_credits_10 + 0x25
	BYTE	PATT
	 POIN2	staff_roll_credits_10 + 0x13
	BYTE	PATT
	 POIN2	staff_roll_credits_10 + 0x13
	BYTE	PATT
	 POIN2	staff_roll_credits_10 + 0x25
	BYTE	PATT
	 POIN2	staff_roll_credits_10 + 0x25
	BYTE		N06     As1   v127
	BYTE	W12
	BYTE		        Gn3 
	BYTE	W12
	BYTE		        Gn3   v016
	BYTE	W12
	BYTE		        Gn3   v127
	BYTE	W12
	BYTE		        Gn3   v012
	BYTE	W12
	BYTE		        Gn3   v127
	BYTE	W12
	BYTE		        Gn3   v008
	BYTE	W12
	BYTE		        Gn3   v127
	BYTE	W12
	BYTE	PEND
	BYTE	PATT
	 POIN2	staff_roll_credits_10 + 0x4B
	BYTE		N06     An1   v127
	BYTE	W12
	BYTE		        Fn3 
	BYTE	W12
	BYTE		        Fn3   v016
	BYTE	W12
	BYTE		        Fn3   v127
	BYTE	W12
	BYTE		        Fn3   v012
	BYTE	W12
	BYTE		        Fn3   v127
	BYTE	W12
	BYTE		        Fn3   v008
	BYTE	W12
	BYTE		        Fn3   v127
	BYTE	W12
	BYTE	PEND
	BYTE	PATT
	 POIN2	staff_roll_credits_10 + 0x69
	BYTE		N06     Gs1   v127
	BYTE	W12
	BYTE		        Gs3 
	BYTE	W24
	BYTE		N06
	BYTE	W12
	BYTE		        Gn1 
	BYTE	W12
	BYTE		        Gn3 
	BYTE	W24
	BYTE		N06
	BYTE	W12
	BYTE		        Fs1 
	BYTE	W12
	BYTE		        Fs3 
	BYTE	W24
	BYTE		N06
	BYTE	W12
	BYTE		        Fn1 
	BYTE	W12
	BYTE		        Fn3 
	BYTE	W24
	BYTE		N06
	BYTE	W11
	BYTE		VOICE   127
	BYTE	W01
	BYTE		N13     Ds2   v060
	BYTE	W24
	BYTE		N24     En2   v040
	BYTE	W24
	BYTE		N13     Ds2   v060
	BYTE	W24
	BYTE		N13
	BYTE	W24
	BYTE	PEND
	BYTE	PATT
	 POIN2	staff_roll_credits_10 + 0xA4
	BYTE	PATT
	 POIN2	staff_roll_credits_10 + 0xA4
	BYTE	PATT
	 POIN2	staff_roll_credits_10 + 0xA4
	BYTE		N08     Ds2   v052
	BYTE	W12
	BYTE		N03     Fs1   v020
	BYTE	W04
	BYTE		        Fs1   v040
	BYTE	W08
	BYTE		N14     En2 
	BYTE	W16
	BYTE		N03     Fs1   v012
	BYTE	W04
	BYTE		        Fs1   v028
	BYTE	W04
	BYTE		N08     Ds2   v052
	BYTE	W16
	BYTE		N03     Fs1   v040
	BYTE	W04
	BYTE		        Fs1   v020
	BYTE	W04
	BYTE		N08     Ds2   v052
	BYTE	W16
	BYTE		N03     Fs1   v040
	BYTE	W04
	BYTE		        Fs1   v020
	BYTE	W04
	BYTE	PEND
	BYTE	PATT
	 POIN2	staff_roll_credits_10 + 0xC2
	BYTE	PATT
	 POIN2	staff_roll_credits_10 + 0xC2
	BYTE	PATT
	 POIN2	staff_roll_credits_10 + 0xC2
	BYTE	PATT
	 POIN2	staff_roll_credits_10 + 0xC2
	BYTE	PATT
	 POIN2	staff_roll_credits_10 + 0xC2
	BYTE	PATT
	 POIN2	staff_roll_credits_10 + 0xC2
	BYTE	PATT
	 POIN2	staff_roll_credits_10 + 0xC2
	BYTE	PATT
	 POIN2	staff_roll_credits_10 + 0xA4
	BYTE	PATT
	 POIN2	staff_roll_credits_10 + 0xA4
	BYTE	PATT
	 POIN2	staff_roll_credits_10 + 0xA4
	BYTE	PATT
	 POIN2	staff_roll_credits_10 + 0xA4
	BYTE	PATT
	 POIN2	staff_roll_credits_10 + 0xA4
	BYTE	PATT
	 POIN2	staff_roll_credits_10 + 0xA4
	BYTE	PATT
	 POIN2	staff_roll_credits_10 + 0xA4
	BYTE	PATT
	 POIN2	staff_roll_credits_10 + 0xA4
	BYTE	PATT
	 POIN2	staff_roll_credits_10 + 0xC2
	BYTE	PATT
	 POIN2	staff_roll_credits_10 + 0xC2
	BYTE	PATT
	 POIN2	staff_roll_credits_10 + 0xC2
	BYTE	PATT
	 POIN2	staff_roll_credits_10 + 0xC2
	BYTE	PATT
	 POIN2	staff_roll_credits_10 + 0xC2
	BYTE	PATT
	 POIN2	staff_roll_credits_10 + 0xC2
	BYTE	PATT
	 POIN2	staff_roll_credits_10 + 0xC2
	BYTE	PATT
	 POIN2	staff_roll_credits_10 + 0xC2
	BYTE	PATT
	 POIN2	staff_roll_credits_10 + 0xA4
	BYTE	PATT
	 POIN2	staff_roll_credits_10 + 0xA4
	BYTE	PATT
	 POIN2	staff_roll_credits_10 + 0xA4
	BYTE	PATT
	 POIN2	staff_roll_credits_10 + 0xA4
	BYTE	PATT
	 POIN2	staff_roll_credits_10 + 0xA4
	BYTE	PATT
	 POIN2	staff_roll_credits_10 + 0xA4
	BYTE	PATT
	 POIN2	staff_roll_credits_10 + 0xA4
	BYTE	PATT
	 POIN2	staff_roll_credits_10 + 0xA4
	BYTE		N08     Ds2   v052
	BYTE	W16
	BYTE		N03     Fs1   v040
	BYTE	W08
	BYTE		N24     En2 
	BYTE	W24
	BYTE		N08     Ds2   v052
	BYTE	W16
	BYTE		N03     Fs1   v020
	BYTE	W08
	BYTE		N08     Ds2   v052
	BYTE	W16
	BYTE		N03     Fs1   v020
	BYTE	W08
	BYTE	PEND
	BYTE	PATT
	 POIN2	staff_roll_credits_10 + 0x189
	BYTE	PATT
	 POIN2	staff_roll_credits_10 + 0x189
	BYTE	PATT
	 POIN2	staff_roll_credits_10 + 0x189
	BYTE	PATT
	 POIN2	staff_roll_credits_10 + 0x189
	BYTE	PATT
	 POIN2	staff_roll_credits_10 + 0x189
	BYTE	PATT
	 POIN2	staff_roll_credits_10 + 0x189
	BYTE	PATT
	 POIN2	staff_roll_credits_10 + 0x189
	BYTE	PATT
	 POIN2	staff_roll_credits_10 + 0x189
	BYTE	PATT
	 POIN2	staff_roll_credits_10 + 0x189
	BYTE	PATT
	 POIN2	staff_roll_credits_10 + 0x189
	BYTE	PATT
	 POIN2	staff_roll_credits_10 + 0x189
	BYTE	PATT
	 POIN2	staff_roll_credits_10 + 0x189
	BYTE	PATT
	 POIN2	staff_roll_credits_10 + 0x189
	BYTE	PATT
	 POIN2	staff_roll_credits_10 + 0x189
	BYTE		N13     Ds2   v060
	BYTE	W48
	BYTE		N13
	BYTE	W24
	BYTE		N13
	BYTE	W24
	BYTE	PATT
	 POIN2	staff_roll_credits_10 + 0xA4
	BYTE	PATT
	 POIN2	staff_roll_credits_10 + 0xA4
	BYTE	PATT
	 POIN2	staff_roll_credits_10 + 0xA4
	BYTE	PATT
	 POIN2	staff_roll_credits_10 + 0xA4
	BYTE	PATT
	 POIN2	staff_roll_credits_10 + 0xA4
	BYTE	PATT
	 POIN2	staff_roll_credits_10 + 0xA4
	BYTE	PATT
	 POIN2	staff_roll_credits_10 + 0xA4
	BYTE	PATT
	 POIN2	staff_roll_credits_10 + 0xA4
	BYTE	PATT
	 POIN2	staff_roll_credits_10 + 0xC2
	BYTE	PATT
	 POIN2	staff_roll_credits_10 + 0xC2
	BYTE	PATT
	 POIN2	staff_roll_credits_10 + 0xC2
	BYTE	PATT
	 POIN2	staff_roll_credits_10 + 0xC2
	BYTE	GoTo
	 POIN2	staff_roll_credits_10 + 0x14D
	BYTE	W96
	BYTE	W96
	BYTE	W96
	BYTE	W96
	BYTE	W96
	BYTE	W96
	BYTE	W96
	BYTE	W96
	BYTE	W96
	BYTE	W96
	BYTE	W96
	BYTE	W96
	BYTE	FINE

//*********************** Track 12 ***********************//

staff_roll_credits_11:
	BYTE	KEYSH   staff_roll_credits_key+0
	BYTE	W20
	BYTE		VOICE   127
	BYTE		VOL     120*staff_roll_credits_mvl/mxv
	BYTE		PAN     c_v+0
	BYTE	W16
	BYTE	W96
	BYTE	W96
	BYTE	W96
	BYTE	W96
	BYTE	W96
	BYTE	W96
	BYTE	W96
	BYTE	W96
	BYTE	W96
	BYTE	W96
	BYTE	W96
	BYTE	W96
	BYTE	W96
	BYTE	W96
	BYTE	W96
	BYTE	W96
	BYTE	W96
	BYTE	W96
	BYTE	W96
	BYTE	W96
	BYTE	W96
	BYTE	W96
	BYTE		N04     Fs3   v127
	BYTE	W24
	BYTE		N08     An4   v080
	BYTE	W16
	BYTE		N02     An1   v100
	BYTE	W02
	BYTE		        An1   v008
	BYTE	W02
	BYTE		        An1   v028
	BYTE	W04
	BYTE		N06     Gn1   v120
	BYTE	W24
	BYTE		N06
	BYTE	W24
	BYTE	PEND
	BYTE	PATT
	 POIN2	staff_roll_credits_11 + 0x20
	BYTE	PATT
	 POIN2	staff_roll_credits_11 + 0x20
	BYTE	PATT
	 POIN2	staff_roll_credits_11 + 0x20
	BYTE		N04     Fs3   v127
	BYTE	W16
	BYTE		N02     An1   v100
	BYTE	W08
	BYTE		N08     An4   v080
	BYTE	W16
	BYTE		N02     An1   v100
	BYTE	W08
	BYTE		N04     Fs3   v127
	BYTE	W24
	BYTE		N04
	BYTE	W16
	BYTE		N02     An1   v100
	BYTE	W08
	BYTE	PEND
	BYTE	PATT
	 POIN2	staff_roll_credits_11 + 0x48
	BYTE	PATT
	 POIN2	staff_roll_credits_11 + 0x48
	BYTE	PATT
	 POIN2	staff_roll_credits_11 + 0x48
	BYTE	PATT
	 POIN2	staff_roll_credits_11 + 0x48
	BYTE	PATT
	 POIN2	staff_roll_credits_11 + 0x48
	BYTE	PATT
	 POIN2	staff_roll_credits_11 + 0x48
	BYTE	PATT
	 POIN2	staff_roll_credits_11 + 0x48
	BYTE		N04     Fs3   v127
	BYTE	W24
	BYTE		N08     An4   v080
	BYTE	W16
	BYTE		N02     An1   v100
	BYTE	W08
	BYTE		N06     Gn1   v120
	BYTE	W24
	BYTE		N08     An4   v080
	BYTE	W16
	BYTE		N02     An1   v100
	BYTE	W08
	BYTE	PEND
	BYTE	PATT
	 POIN2	staff_roll_credits_11 + 0x86
	BYTE	PATT
	 POIN2	staff_roll_credits_11 + 0x86
	BYTE	PATT
	 POIN2	staff_roll_credits_11 + 0x86
	BYTE	PATT
	 POIN2	staff_roll_credits_11 + 0x86
	BYTE	PATT
	 POIN2	staff_roll_credits_11 + 0x86
	BYTE	PATT
	 POIN2	staff_roll_credits_11 + 0x86
	BYTE	PATT
	 POIN2	staff_roll_credits_11 + 0x86
	BYTE	PATT
	 POIN2	staff_roll_credits_11 + 0x48
	BYTE	PATT
	 POIN2	staff_roll_credits_11 + 0x48
	BYTE	PATT
	 POIN2	staff_roll_credits_11 + 0x48
	BYTE	PATT
	 POIN2	staff_roll_credits_11 + 0x48
	BYTE	PATT
	 POIN2	staff_roll_credits_11 + 0x48
	BYTE	PATT
	 POIN2	staff_roll_credits_11 + 0x48
	BYTE	PATT
	 POIN2	staff_roll_credits_11 + 0x48
	BYTE	PATT
	 POIN2	staff_roll_credits_11 + 0x48
	BYTE	PATT
	 POIN2	staff_roll_credits_11 + 0x86
	BYTE	PATT
	 POIN2	staff_roll_credits_11 + 0x86
	BYTE	PATT
	 POIN2	staff_roll_credits_11 + 0x86
	BYTE	PATT
	 POIN2	staff_roll_credits_11 + 0x86
	BYTE	PATT
	 POIN2	staff_roll_credits_11 + 0x86
	BYTE	PATT
	 POIN2	staff_roll_credits_11 + 0x86
	BYTE	PATT
	 POIN2	staff_roll_credits_11 + 0x86
	BYTE		N04     Fs3   v127
	BYTE	W24
	BYTE		N08     An4   v080
	BYTE	W16
	BYTE		N02     An1   v100
	BYTE	W08
	BYTE		N06     Gn1   v120
	BYTE	W16
	BYTE		N02     An1   v100
	BYTE	W08
	BYTE		N08     An4   v080
	BYTE	W24
	BYTE	W96
	BYTE	W96
	BYTE	W96
	BYTE	W96
	BYTE	W96
	BYTE	W96
	BYTE	W96
	BYTE	W96
	BYTE	W96
	BYTE	W96
	BYTE	W96
	BYTE	W96
	BYTE	W96
	BYTE	W96
	BYTE	W96
	BYTE		N03     An1 
	BYTE	W24
	BYTE		N03
	BYTE	W16
	BYTE		N03
	BYTE	W08
	BYTE		        Gn1   v120
	BYTE	W24
	BYTE		N03
	BYTE	W24
	BYTE	PATT
	 POIN2	staff_roll_credits_11 + 0x48
	BYTE	PATT
	 POIN2	staff_roll_credits_11 + 0x48
	BYTE	PATT
	 POIN2	staff_roll_credits_11 + 0x48
	BYTE	PATT
	 POIN2	staff_roll_credits_11 + 0x48
	BYTE	PATT
	 POIN2	staff_roll_credits_11 + 0x48
	BYTE	PATT
	 POIN2	staff_roll_credits_11 + 0x48
	BYTE	PATT
	 POIN2	staff_roll_credits_11 + 0x48
	BYTE	PATT
	 POIN2	staff_roll_credits_11 + 0x86
	BYTE		N04     Fs3   v127
	BYTE	W16
	BYTE		N02     An1   v100
	BYTE	W02
	BYTE		        An1   v008
	BYTE	W02
	BYTE		        An1   v028
	BYTE	W04
	BYTE		N08     An4   v080
	BYTE	W16
	BYTE		N02     An1   v100
	BYTE	W08
	BYTE		N04     Fs3   v127
	BYTE	W24
	BYTE		N04
	BYTE	W16
	BYTE		N02     An1   v100
	BYTE	W08
	BYTE	PEND
	BYTE	PATT
	 POIN2	staff_roll_credits_11 + 0x168
	BYTE	PATT
	 POIN2	staff_roll_credits_11 + 0x168
	BYTE	PATT
	 POIN2	staff_roll_credits_11 + 0x168
	BYTE	GoTo
	 POIN2	staff_roll_credits_11 + 0xD6
	BYTE	W96
	BYTE	W96
	BYTE	W96
	BYTE	W96
	BYTE	W96
	BYTE	W96
	BYTE	W96
	BYTE	W96
	BYTE	W96
	BYTE	W96
	BYTE	W96
	BYTE	W96
	BYTE	FINE

//******************************************************//

	ALIGN 4

staff_roll_credits:
	BYTE	12	// NumTrks
	BYTE	0	// NumBlks
	BYTE	staff_roll_credits_pri	// Priority
	BYTE	staff_roll_credits_rev	// Reverb

	POIN2	staff_roll_credits_grp

	POIN2	staff_roll_credits_0
	POIN2	staff_roll_credits_1
	POIN2	staff_roll_credits_2
	POIN2	staff_roll_credits_3
	POIN2	staff_roll_credits_4
	POIN2	staff_roll_credits_5
	POIN2	staff_roll_credits_6
	POIN2	staff_roll_credits_7
	POIN2	staff_roll_credits_8
	POIN2	staff_roll_credits_9
	POIN2	staff_roll_credits_10
	POIN2	staff_roll_credits_11

	
